<?xml version="1.0" encoding="UTF-8" standalone="no"?><svg xmlns="http://www.w3.org/2000/svg" xmlns:xlink="http://www.w3.org/1999/xlink" contentScriptType="application/ecmascript" contentStyleType="text/css" height="298px" preserveAspectRatio="none" style="width:250px;height:298px;" version="1.1" viewBox="0 0 250 298" width="250px" zoomAndPan="magnify"><defs><filter height="300%" id="f1vquuwaciuvw4" width="300%" x="-1" y="-1"><feGaussianBlur result="blurOut" stdDeviation="2.0"/><feColorMatrix in="blurOut" result="blurOut2" type="matrix" values="0 0 0 0 0 0 0 0 0 0 0 0 0 0 0 0 0 0 .4 0"/><feOffset dx="4.0" dy="4.0" in="blurOut2" result="blurOut3"/><feBlend in="SourceGraphic" in2="blurOut3" mode="normal"/></filter></defs><g><!--MD5=[c6efd01a6f310cf3950d2522b9f474d7]
cluster tictactoe.views.graphics--><polygon fill="#FFFFFF" filter="url(#f1vquuwaciuvw4)" points="16,80,223,80,230,102.2969,233,102.2969,233,192,16,192,16,80" style="stroke:#000000;stroke-width:1.5;"/><line style="stroke:#000000;stroke-width:1.5;" x1="16" x2="230" y1="102.2969" y2="102.2969"/><text fill="#000000" font-family="sans-serif" font-size="14" font-weight="bold" lengthAdjust="spacingAndGlyphs" textLength="201" x="20" y="94.9951">tictactoe.views.graphics</text><!--MD5=[772dd3201fd937c98b35c61c5b2a37e1]
class tictactoe.views.graphics.GraphicsView--><rect codeLine="4" fill="#FEFECE" filter="url(#f1vquuwaciuvw4)" height="60.8047" id="tictactoe.views.graphics.GraphicsView" style="stroke:#A80036;stroke-width:1.5;" width="132" x="58" y="115"/><ellipse cx="81.1" cy="131" fill="#ADD1B2" rx="11" ry="11" style="stroke:#A80036;stroke-width:1.0;"/><path d="M83.4438,126.6719 C82.5063,126.2344 81.9125,126.0938 81.0375,126.0938 C78.4125,126.0938 76.4125,128.1719 76.4125,130.8906 L76.4125,132.0156 C76.4125,134.5938 78.5219,136.4844 81.4125,136.4844 C82.6313,136.4844 83.7875,136.1875 84.5375,135.6406 C85.1156,135.2344 85.4438,134.7813 85.4438,134.3906 C85.4438,133.9375 85.0531,133.5469 84.5844,133.5469 C84.3656,133.5469 84.1625,133.625 83.975,133.8125 C83.5219,134.2969 83.5219,134.2969 83.3344,134.3906 C82.9125,134.6563 82.225,134.7813 81.4594,134.7813 C79.4125,134.7813 78.1156,133.6875 78.1156,131.9844 L78.1156,130.8906 C78.1156,129.1094 79.3656,127.7969 81.1,127.7969 C81.6781,127.7969 82.2875,127.9531 82.7563,128.2031 C83.2406,128.4844 83.4125,128.7031 83.5063,129.1094 C83.5688,129.5156 83.6,129.6406 83.7406,129.7656 C83.8813,129.9063 84.1156,130.0156 84.3344,130.0156 C84.6,130.0156 84.8656,129.875 85.0375,129.6563 C85.1469,129.5 85.1781,129.3125 85.1781,128.8906 L85.1781,127.4688 C85.1781,127.0313 85.1625,126.9063 85.0688,126.75 C84.9125,126.4844 84.6313,126.3438 84.3344,126.3438 C84.0375,126.3438 83.8344,126.4375 83.6156,126.75 L83.4438,126.6719 Z " fill="#000000"/><text fill="#000000" font-family="sans-serif" font-size="12" lengthAdjust="spacingAndGlyphs" textLength="82" x="96.9" y="135.1543">GraphicsView</text><line style="stroke:#A80036;stroke-width:1.5;" x1="59" x2="189" y1="147" y2="147"/><line style="stroke:#A80036;stroke-width:1.5;" x1="59" x2="189" y1="155" y2="155"/><ellipse cx="69" cy="166" fill="#84BE84" rx="3" ry="3" style="stroke:#038048;stroke-width:1.0;"/><text fill="#000000" font-family="sans-serif" font-size="11" lengthAdjust="spacingAndGlyphs" textLength="106" x="78" y="169.2104">interact(Controller)</text><!--MD5=[c045e12321b83266d36d22b9096c24ea]
class GraphicsView--><rect codeLine="1" fill="#FEFECE" filter="url(#f1vquuwaciuvw4)" height="48" id="View" style="stroke:#A80036;stroke-width:1.5;" width="154" x="47" y="7"/><ellipse cx="62" cy="23" fill="#ADD1B2" rx="11" ry="11" style="stroke:#A80036;stroke-width:1.0;"/><path d="M64.3438,18.6719 C63.4063,18.2344 62.8125,18.0938 61.9375,18.0938 C59.3125,18.0938 57.3125,20.1719 57.3125,22.8906 L57.3125,24.0156 C57.3125,26.5938 59.4219,28.4844 62.3125,28.4844 C63.5313,28.4844 64.6875,28.1875 65.4375,27.6406 C66.0156,27.2344 66.3438,26.7813 66.3438,26.3906 C66.3438,25.9375 65.9531,25.5469 65.4844,25.5469 C65.2656,25.5469 65.0625,25.625 64.875,25.8125 C64.4219,26.2969 64.4219,26.2969 64.2344,26.3906 C63.8125,26.6563 63.125,26.7813 62.3594,26.7813 C60.3125,26.7813 59.0156,25.6875 59.0156,23.9844 L59.0156,22.8906 C59.0156,21.1094 60.2656,19.7969 62,19.7969 C62.5781,19.7969 63.1875,19.9531 63.6563,20.2031 C64.1406,20.4844 64.3125,20.7031 64.4063,21.1094 C64.4688,21.5156 64.5,21.6406 64.6406,21.7656 C64.7813,21.9063 65.0156,22.0156 65.2344,22.0156 C65.5,22.0156 65.7656,21.875 65.9375,21.6563 C66.0469,21.5 66.0781,21.3125 66.0781,20.8906 L66.0781,19.4688 C66.0781,19.0313 66.0625,18.9063 65.9688,18.75 C65.8125,18.4844 65.5313,18.3438 65.2344,18.3438 C64.9375,18.3438 64.7344,18.4375 64.5156,18.75 L64.3438,18.6719 Z " fill="#000000"/><text fill="#000000" font-family="sans-serif" font-size="12" lengthAdjust="spacingAndGlyphs" textLength="122" x="76" y="27.1543">tictactoe.views.View</text><line style="stroke:#A80036;stroke-width:1.5;" x1="48" x2="200" y1="39" y2="39"/><line style="stroke:#A80036;stroke-width:1.5;" x1="48" x2="200" y1="47" y2="47"/><!--MD5=[1d7ba1c7002d54515419844fbd155368]
class Controller--><rect codeLine="2" fill="#FEFECE" filter="url(#f1vquuwaciuvw4)" height="48" id="Controller" style="stroke:#A80036;stroke-width:1.5;" width="214" x="17" y="236"/><ellipse cx="32" cy="252" fill="#ADD1B2" rx="11" ry="11" style="stroke:#A80036;stroke-width:1.0;"/><path d="M34.3438,247.6719 C33.4063,247.2344 32.8125,247.0938 31.9375,247.0938 C29.3125,247.0938 27.3125,249.1719 27.3125,251.8906 L27.3125,253.0156 C27.3125,255.5938 29.4219,257.4844 32.3125,257.4844 C33.5313,257.4844 34.6875,257.1875 35.4375,256.6406 C36.0156,256.2344 36.3438,255.7813 36.3438,255.3906 C36.3438,254.9375 35.9531,254.5469 35.4844,254.5469 C35.2656,254.5469 35.0625,254.625 34.875,254.8125 C34.4219,255.2969 34.4219,255.2969 34.2344,255.3906 C33.8125,255.6563 33.125,255.7813 32.3594,255.7813 C30.3125,255.7813 29.0156,254.6875 29.0156,252.9844 L29.0156,251.8906 C29.0156,250.1094 30.2656,248.7969 32,248.7969 C32.5781,248.7969 33.1875,248.9531 33.6563,249.2031 C34.1406,249.4844 34.3125,249.7031 34.4063,250.1094 C34.4688,250.5156 34.5,250.6406 34.6406,250.7656 C34.7813,250.9063 35.0156,251.0156 35.2344,251.0156 C35.5,251.0156 35.7656,250.875 35.9375,250.6563 C36.0469,250.5 36.0781,250.3125 36.0781,249.8906 L36.0781,248.4688 C36.0781,248.0313 36.0625,247.9063 35.9688,247.75 C35.8125,247.4844 35.5313,247.3438 35.2344,247.3438 C34.9375,247.3438 34.7344,247.4375 34.5156,247.75 L34.3438,247.6719 Z " fill="#000000"/><text fill="#000000" font-family="sans-serif" font-size="12" lengthAdjust="spacingAndGlyphs" textLength="182" x="46" y="256.1543">tictactoe.controllers.Controller</text><line style="stroke:#A80036;stroke-width:1.5;" x1="18" x2="230" y1="268" y2="268"/><line style="stroke:#A80036;stroke-width:1.5;" x1="18" x2="230" y1="276" y2="276"/><!--MD5=[8a077df0244e56b881d846b81ea7e55a]
link tictactoe.views.graphics.GraphicsView to Controller--><path codeLine="8" d="M124,176.058 C124,192.9315 124,213.9764 124,230.6454 " fill="none" id="tictactoe.views.graphics.GraphicsView-to-Controller" style="stroke:#A80036;stroke-width:1.0;stroke-dasharray:7.0,7.0;"/><polygon fill="#A80036" points="124,235.6686,128,226.6686,124,230.6686,120,226.6686,124,235.6686" style="stroke:#A80036;stroke-width:1.0;"/><!--MD5=[dd49f0cbe1ae6e82d2a046a768a45f47]
reverse link GraphicsView to tictactoe.views.graphics.GraphicsView--><path codeLine="9" d="M124,75.109 C124,88.312 124,102.537 124,114.65 " fill="none" id="View-backto-tictactoe.views.graphics.GraphicsView" style="stroke:#A80036;stroke-width:1.0;"/><polygon fill="none" points="117,75.038,124,55.038,131,75.037,117,75.038" style="stroke:#A80036;stroke-width:1.0;"/><!--MD5=[e1e2f8a1425c5f62d1671df3f6283202]
@startuml
class GraphicsView as "tictactoe.views.GraphicsView" {}
class Controller as "tictactoe.controllers.Controller" {}

class  tictactoe.views.graphics.GraphicsView{
+ interact(Controller)
}

tictactoe.views.graphics.GraphicsView ..> Controller
GraphicsView <|-down- tictactoe.views.graphics.GraphicsView
@enduml

PlantUML version 1.2020.22(Sun Dec 06 09:36:27 UTC 2020)
(GPL source distribution)
Java Runtime: Java(TM) SE Runtime Environment
JVM: Java HotSpot(TM) 64-Bit Server VM
Default Encoding: UTF-8
Language: en
Country: US
--></g></svg>