<?xml version="1.0" encoding="UTF-8" standalone="no"?><svg xmlns="http://www.w3.org/2000/svg" xmlns:xlink="http://www.w3.org/1999/xlink" contentScriptType="application/ecmascript" contentStyleType="text/css" height="468px" preserveAspectRatio="none" style="width:1712px;height:468px;" version="1.1" viewBox="0 0 1712 468" width="1712px" zoomAndPan="magnify"><defs><filter height="300%" id="fqgophctzq4i0" width="300%" x="-1" y="-1"><feGaussianBlur result="blurOut" stdDeviation="2.0"/><feColorMatrix in="blurOut" result="blurOut2" type="matrix" values="0 0 0 0 0 0 0 0 0 0 0 0 0 0 0 0 0 0 .4 0"/><feOffset dx="4.0" dy="4.0" in="blurOut2" result="blurOut3"/><feBlend in="SourceGraphic" in2="blurOut3" mode="normal"/></filter></defs><g><!--MD5=[64182ab34c08ac367bbf699869515711]
cluster tictactoe.views.console--><polygon fill="#FFFFFF" filter="url(#fqgophctzq4i0)" points="415,86,614,86,621,108.2969,1279,108.2969,1279,357,415,357,415,86" style="stroke:#000000;stroke-width:1.5;"/><line style="stroke:#000000;stroke-width:1.5;" x1="415" x2="621" y1="108.2969" y2="108.2969"/><text fill="#000000" font-family="sans-serif" font-size="14" font-weight="bold" lengthAdjust="spacingAndGlyphs" textLength="193" x="419" y="100.9951">tictactoe.views.console</text><!--MD5=[bde0c8ed193d8d2dbac1dee471354ab0]
class tictactoe.views.console.ConsoleView--><rect codeLine="14" fill="#FEFECE" filter="url(#fqgophctzq4i0)" height="73.6094" id="tictactoe.views.console.ConsoleView" style="stroke:#A80036;stroke-width:1.5;" width="132" x="944" y="121"/><ellipse cx="968.9" cy="137" fill="#ADD1B2" rx="11" ry="11" style="stroke:#A80036;stroke-width:1.0;"/><path d="M971.2438,132.6719 C970.3063,132.2344 969.7125,132.0938 968.8375,132.0938 C966.2125,132.0938 964.2125,134.1719 964.2125,136.8906 L964.2125,138.0156 C964.2125,140.5938 966.3219,142.4844 969.2125,142.4844 C970.4313,142.4844 971.5875,142.1875 972.3375,141.6406 C972.9156,141.2344 973.2438,140.7813 973.2438,140.3906 C973.2438,139.9375 972.8531,139.5469 972.3844,139.5469 C972.1656,139.5469 971.9625,139.625 971.775,139.8125 C971.3219,140.2969 971.3219,140.2969 971.1344,140.3906 C970.7125,140.6563 970.025,140.7813 969.2594,140.7813 C967.2125,140.7813 965.9156,139.6875 965.9156,137.9844 L965.9156,136.8906 C965.9156,135.1094 967.1656,133.7969 968.9,133.7969 C969.4781,133.7969 970.0875,133.9531 970.5563,134.2031 C971.0406,134.4844 971.2125,134.7031 971.3063,135.1094 C971.3688,135.5156 971.4,135.6406 971.5406,135.7656 C971.6813,135.9063 971.9156,136.0156 972.1344,136.0156 C972.4,136.0156 972.6656,135.875 972.8375,135.6563 C972.9469,135.5 972.9781,135.3125 972.9781,134.8906 L972.9781,133.4688 C972.9781,133.0313 972.9625,132.9063 972.8688,132.75 C972.7125,132.4844 972.4313,132.3438 972.1344,132.3438 C971.8375,132.3438 971.6344,132.4375 971.4156,132.75 L971.2438,132.6719 Z " fill="#000000"/><text fill="#000000" font-family="sans-serif" font-size="12" lengthAdjust="spacingAndGlyphs" textLength="78" x="985.1" y="141.1543">ConsoleView</text><line style="stroke:#A80036;stroke-width:1.5;" x1="945" x2="1075" y1="153" y2="153"/><line style="stroke:#A80036;stroke-width:1.5;" x1="945" x2="1075" y1="161" y2="161"/><ellipse cx="955" cy="172" fill="#84BE84" rx="3" ry="3" style="stroke:#038048;stroke-width:1.0;"/><text fill="#000000" font-family="sans-serif" font-size="11" lengthAdjust="spacingAndGlyphs" textLength="82" x="964" y="175.2104">ConsoleView()</text><ellipse cx="955" cy="184.8047" fill="#84BE84" rx="3" ry="3" style="stroke:#038048;stroke-width:1.0;"/><text fill="#000000" font-family="sans-serif" font-size="11" lengthAdjust="spacingAndGlyphs" textLength="106" x="964" y="188.0151">interact(Controller)</text><!--MD5=[54aa299435631381f3c0c028f26a058f]
class tictactoe.views.console.StartView--><rect codeLine="66" fill="#FEFECE" filter="url(#fqgophctzq4i0)" height="60.8047" id="tictactoe.views.console.StartView" style="stroke:#A80036;stroke-width:1.5;" width="159" x="549.5" y="267.5"/><ellipse cx="596.25" cy="283.5" fill="#ADD1B2" rx="11" ry="11" style="stroke:#A80036;stroke-width:1.0;"/><path d="M598.5938,279.1719 C597.6563,278.7344 597.0625,278.5938 596.1875,278.5938 C593.5625,278.5938 591.5625,280.6719 591.5625,283.3906 L591.5625,284.5156 C591.5625,287.0938 593.6719,288.9844 596.5625,288.9844 C597.7813,288.9844 598.9375,288.6875 599.6875,288.1406 C600.2656,287.7344 600.5938,287.2813 600.5938,286.8906 C600.5938,286.4375 600.2031,286.0469 599.7344,286.0469 C599.5156,286.0469 599.3125,286.125 599.125,286.3125 C598.6719,286.7969 598.6719,286.7969 598.4844,286.8906 C598.0625,287.1563 597.375,287.2813 596.6094,287.2813 C594.5625,287.2813 593.2656,286.1875 593.2656,284.4844 L593.2656,283.3906 C593.2656,281.6094 594.5156,280.2969 596.25,280.2969 C596.8281,280.2969 597.4375,280.4531 597.9063,280.7031 C598.3906,280.9844 598.5625,281.2031 598.6563,281.6094 C598.7188,282.0156 598.75,282.1406 598.8906,282.2656 C599.0313,282.4063 599.2656,282.5156 599.4844,282.5156 C599.75,282.5156 600.0156,282.375 600.1875,282.1563 C600.2969,282 600.3281,281.8125 600.3281,281.3906 L600.3281,279.9688 C600.3281,279.5313 600.3125,279.4063 600.2188,279.25 C600.0625,278.9844 599.7813,278.8438 599.4844,278.8438 C599.1875,278.8438 598.9844,278.9375 598.7656,279.25 L598.5938,279.1719 Z " fill="#000000"/><text fill="#000000" font-family="sans-serif" font-size="12" lengthAdjust="spacingAndGlyphs" textLength="57" x="616.75" y="287.6543">StartView</text><line style="stroke:#A80036;stroke-width:1.5;" x1="550.5" x2="707.5" y1="299.5" y2="299.5"/><line style="stroke:#A80036;stroke-width:1.5;" x1="550.5" x2="707.5" y1="307.5" y2="307.5"/><polygon fill="#4177AF" points="560.5,314.5,556.5,320.5,564.5,320.5" style="stroke:#1963A0;stroke-width:1.0;"/><text fill="#000000" font-family="sans-serif" font-size="11" lengthAdjust="spacingAndGlyphs" textLength="133" x="569.5" y="321.7104">interact(StartController)</text><!--MD5=[0158df0baddf48f83142f472e341eacc]
class tictactoe.views.console.PlayView--><rect codeLine="48" fill="#FEFECE" filter="url(#fqgophctzq4i0)" height="86.4141" id="tictactoe.views.console.PlayView" style="stroke:#A80036;stroke-width:1.5;" width="155" x="803.5" y="255"/><ellipse cx="850.75" cy="271" fill="#ADD1B2" rx="11" ry="11" style="stroke:#A80036;stroke-width:1.0;"/><path d="M853.0938,266.6719 C852.1563,266.2344 851.5625,266.0938 850.6875,266.0938 C848.0625,266.0938 846.0625,268.1719 846.0625,270.8906 L846.0625,272.0156 C846.0625,274.5938 848.1719,276.4844 851.0625,276.4844 C852.2813,276.4844 853.4375,276.1875 854.1875,275.6406 C854.7656,275.2344 855.0938,274.7813 855.0938,274.3906 C855.0938,273.9375 854.7031,273.5469 854.2344,273.5469 C854.0156,273.5469 853.8125,273.625 853.625,273.8125 C853.1719,274.2969 853.1719,274.2969 852.9844,274.3906 C852.5625,274.6563 851.875,274.7813 851.1094,274.7813 C849.0625,274.7813 847.7656,273.6875 847.7656,271.9844 L847.7656,270.8906 C847.7656,269.1094 849.0156,267.7969 850.75,267.7969 C851.3281,267.7969 851.9375,267.9531 852.4063,268.2031 C852.8906,268.4844 853.0625,268.7031 853.1563,269.1094 C853.2188,269.5156 853.25,269.6406 853.3906,269.7656 C853.5313,269.9063 853.7656,270.0156 853.9844,270.0156 C854.25,270.0156 854.5156,269.875 854.6875,269.6563 C854.7969,269.5 854.8281,269.3125 854.8281,268.8906 L854.8281,267.4688 C854.8281,267.0313 854.8125,266.9063 854.7188,266.75 C854.5625,266.4844 854.2813,266.3438 853.9844,266.3438 C853.6875,266.3438 853.4844,266.4375 853.2656,266.75 L853.0938,266.6719 Z " fill="#000000"/><text fill="#000000" font-family="sans-serif" font-size="12" lengthAdjust="spacingAndGlyphs" textLength="52" x="871.25" y="275.1543">PlayView</text><line style="stroke:#A80036;stroke-width:1.5;" x1="804.5" x2="957.5" y1="287" y2="287"/><line style="stroke:#A80036;stroke-width:1.5;" x1="804.5" x2="957.5" y1="295" y2="295"/><polygon fill="#4177AF" points="814.5,302,810.5,308,818.5,308" style="stroke:#1963A0;stroke-width:1.0;"/><text fill="#000000" font-family="sans-serif" font-size="11" lengthAdjust="spacingAndGlyphs" textLength="129" x="823.5" y="309.2104">interact(PlayController)</text><rect fill="#F24D5C" height="6" style="stroke:#C82930;stroke-width:1.0;" width="6" x="811.5" y="315.8047"/><text fill="#000000" font-family="sans-serif" font-size="11" lengthAdjust="spacingAndGlyphs" textLength="104" x="823.5" y="322.0151">put(PlayController)</text><rect fill="#F24D5C" height="6" style="stroke:#C82930;stroke-width:1.0;" width="6" x="811.5" y="328.6094"/><text fill="#000000" font-family="sans-serif" font-size="11" lengthAdjust="spacingAndGlyphs" textLength="119" x="823.5" y="334.8198">move(PlayController)</text><!--MD5=[863eeac66a77264bd74e28cbddefcd23]
class tictactoe.views.console.ResumeView--><rect codeLine="59" fill="#FEFECE" filter="url(#fqgophctzq4i0)" height="60.8047" id="tictactoe.views.console.ResumeView" style="stroke:#A80036;stroke-width:1.5;" width="232" x="994" y="267.5"/><ellipse cx="1067.25" cy="283.5" fill="#ADD1B2" rx="11" ry="11" style="stroke:#A80036;stroke-width:1.0;"/><path d="M1069.5938,279.1719 C1068.6563,278.7344 1068.0625,278.5938 1067.1875,278.5938 C1064.5625,278.5938 1062.5625,280.6719 1062.5625,283.3906 L1062.5625,284.5156 C1062.5625,287.0938 1064.6719,288.9844 1067.5625,288.9844 C1068.7813,288.9844 1069.9375,288.6875 1070.6875,288.1406 C1071.2656,287.7344 1071.5938,287.2813 1071.5938,286.8906 C1071.5938,286.4375 1071.2031,286.0469 1070.7344,286.0469 C1070.5156,286.0469 1070.3125,286.125 1070.125,286.3125 C1069.6719,286.7969 1069.6719,286.7969 1069.4844,286.8906 C1069.0625,287.1563 1068.375,287.2813 1067.6094,287.2813 C1065.5625,287.2813 1064.2656,286.1875 1064.2656,284.4844 L1064.2656,283.3906 C1064.2656,281.6094 1065.5156,280.2969 1067.25,280.2969 C1067.8281,280.2969 1068.4375,280.4531 1068.9063,280.7031 C1069.3906,280.9844 1069.5625,281.2031 1069.6563,281.6094 C1069.7188,282.0156 1069.75,282.1406 1069.8906,282.2656 C1070.0313,282.4063 1070.2656,282.5156 1070.4844,282.5156 C1070.75,282.5156 1071.0156,282.375 1071.1875,282.1563 C1071.2969,282 1071.3281,281.8125 1071.3281,281.3906 L1071.3281,279.9688 C1071.3281,279.5313 1071.3125,279.4063 1071.2188,279.25 C1071.0625,278.9844 1070.7813,278.8438 1070.4844,278.8438 C1070.1875,278.8438 1069.9844,278.9375 1069.7656,279.25 L1069.5938,279.1719 Z " fill="#000000"/><text fill="#000000" font-family="sans-serif" font-size="12" lengthAdjust="spacingAndGlyphs" textLength="77" x="1087.75" y="287.6543">ResumeView</text><line style="stroke:#A80036;stroke-width:1.5;" x1="995" x2="1225" y1="299.5" y2="299.5"/><line style="stroke:#A80036;stroke-width:1.5;" x1="995" x2="1225" y1="307.5" y2="307.5"/><polygon fill="#4177AF" points="1005,314.5,1001,320.5,1009,320.5" style="stroke:#1963A0;stroke-width:1.0;"/><text fill="#000000" font-family="sans-serif" font-size="11" lengthAdjust="spacingAndGlyphs" textLength="206" x="1014" y="321.7104">interact(ResumeController): boolean</text><!--MD5=[8830b246a550294711e6eb5af1606829]
class tictactoe.views.console.CoordinateView--><rect codeLine="23" fill="#FEFECE" filter="url(#fqgophctzq4i0)" height="60.8047" id="tictactoe.views.console.CoordinateView" style="stroke:#A80036;stroke-width:1.5;" width="162" x="747" y="127.5"/><ellipse cx="777.75" cy="143.5" fill="#ADD1B2" rx="11" ry="11" style="stroke:#A80036;stroke-width:1.0;"/><path d="M780.0938,139.1719 C779.1563,138.7344 778.5625,138.5938 777.6875,138.5938 C775.0625,138.5938 773.0625,140.6719 773.0625,143.3906 L773.0625,144.5156 C773.0625,147.0938 775.1719,148.9844 778.0625,148.9844 C779.2813,148.9844 780.4375,148.6875 781.1875,148.1406 C781.7656,147.7344 782.0938,147.2813 782.0938,146.8906 C782.0938,146.4375 781.7031,146.0469 781.2344,146.0469 C781.0156,146.0469 780.8125,146.125 780.625,146.3125 C780.1719,146.7969 780.1719,146.7969 779.9844,146.8906 C779.5625,147.1563 778.875,147.2813 778.1094,147.2813 C776.0625,147.2813 774.7656,146.1875 774.7656,144.4844 L774.7656,143.3906 C774.7656,141.6094 776.0156,140.2969 777.75,140.2969 C778.3281,140.2969 778.9375,140.4531 779.4063,140.7031 C779.8906,140.9844 780.0625,141.2031 780.1563,141.6094 C780.2188,142.0156 780.25,142.1406 780.3906,142.2656 C780.5313,142.4063 780.7656,142.5156 780.9844,142.5156 C781.25,142.5156 781.5156,142.375 781.6875,142.1563 C781.7969,142 781.8281,141.8125 781.8281,141.3906 L781.8281,139.9688 C781.8281,139.5313 781.8125,139.4063 781.7188,139.25 C781.5625,138.9844 781.2813,138.8438 780.9844,138.8438 C780.6875,138.8438 780.4844,138.9375 780.2656,139.25 L780.0938,139.1719 Z " fill="#000000"/><text fill="#000000" font-family="sans-serif" font-size="12" lengthAdjust="spacingAndGlyphs" textLength="95" x="795.25" y="147.6543">CoordinateView</text><line style="stroke:#A80036;stroke-width:1.5;" x1="748" x2="908" y1="159.5" y2="159.5"/><line style="stroke:#A80036;stroke-width:1.5;" x1="748" x2="908" y1="167.5" y2="167.5"/><ellipse cx="758" cy="178.5" fill="#84BE84" rx="3" ry="3" style="stroke:#038048;stroke-width:1.0;"/><text fill="#000000" font-family="sans-serif" font-size="11" lengthAdjust="spacingAndGlyphs" textLength="136" x="767" y="181.7104">read(String): Coordinate</text><!--MD5=[1ca4e66fd27a79cb5d7093d90b3139a4]
class tictactoe.views.console.ErrorView--><rect codeLine="31" fill="#FEFECE" filter="url(#fqgophctzq4i0)" height="73.6094" id="tictactoe.views.console.ErrorView" style="stroke:#A80036;stroke-width:1.5;" width="114" x="598" y="121"/><ellipse cx="623.35" cy="137" fill="#ADD1B2" rx="11" ry="11" style="stroke:#A80036;stroke-width:1.0;"/><path d="M625.6938,132.6719 C624.7563,132.2344 624.1625,132.0938 623.2875,132.0938 C620.6625,132.0938 618.6625,134.1719 618.6625,136.8906 L618.6625,138.0156 C618.6625,140.5938 620.7719,142.4844 623.6625,142.4844 C624.8813,142.4844 626.0375,142.1875 626.7875,141.6406 C627.3656,141.2344 627.6938,140.7813 627.6938,140.3906 C627.6938,139.9375 627.3031,139.5469 626.8344,139.5469 C626.6156,139.5469 626.4125,139.625 626.225,139.8125 C625.7719,140.2969 625.7719,140.2969 625.5844,140.3906 C625.1625,140.6563 624.475,140.7813 623.7094,140.7813 C621.6625,140.7813 620.3656,139.6875 620.3656,137.9844 L620.3656,136.8906 C620.3656,135.1094 621.6156,133.7969 623.35,133.7969 C623.9281,133.7969 624.5375,133.9531 625.0063,134.2031 C625.4906,134.4844 625.6625,134.7031 625.7563,135.1094 C625.8188,135.5156 625.85,135.6406 625.9906,135.7656 C626.1313,135.9063 626.3656,136.0156 626.5844,136.0156 C626.85,136.0156 627.1156,135.875 627.2875,135.6563 C627.3969,135.5 627.4281,135.3125 627.4281,134.8906 L627.4281,133.4688 C627.4281,133.0313 627.4125,132.9063 627.3188,132.75 C627.1625,132.4844 626.8813,132.3438 626.5844,132.3438 C626.2875,132.3438 626.0844,132.4375 625.8656,132.75 L625.6938,132.6719 Z " fill="#000000"/><text fill="#000000" font-family="sans-serif" font-size="12" lengthAdjust="spacingAndGlyphs" textLength="59" x="639.65" y="141.1543">ErrorView</text><line style="stroke:#A80036;stroke-width:1.5;" x1="599" x2="711" y1="153" y2="153"/><line style="stroke:#A80036;stroke-width:1.5;" x1="599" x2="711" y1="161" y2="161"/><polygon fill="#4177AF" points="609,168,605,174,613,174" style="stroke:#1963A0;stroke-width:1.0;"/><text fill="#000000" font-family="sans-serif" font-size="11" lengthAdjust="spacingAndGlyphs" textLength="88" x="618" y="175.2104">ErrorView(Error)</text><polygon fill="#4177AF" points="609,180.8047,605,186.8047,613,186.8047" style="stroke:#1963A0;stroke-width:1.0;"/><text fill="#000000" font-family="sans-serif" font-size="11" lengthAdjust="spacingAndGlyphs" textLength="46" x="618" y="188.0151">writeln()</text><!--MD5=[e933b4291156428da126c4c01236555b]
class tictactoe.views.console.GameView--><rect codeLine="39" fill="#FEFECE" filter="url(#fqgophctzq4i0)" height="73.6094" id="tictactoe.views.console.GameView" style="stroke:#A80036;stroke-width:1.5;" width="152" x="1111" y="121"/><ellipse cx="1151.2" cy="137" fill="#ADD1B2" rx="11" ry="11" style="stroke:#A80036;stroke-width:1.0;"/><path d="M1153.5438,132.6719 C1152.6063,132.2344 1152.0125,132.0938 1151.1375,132.0938 C1148.5125,132.0938 1146.5125,134.1719 1146.5125,136.8906 L1146.5125,138.0156 C1146.5125,140.5938 1148.6219,142.4844 1151.5125,142.4844 C1152.7313,142.4844 1153.8875,142.1875 1154.6375,141.6406 C1155.2156,141.2344 1155.5438,140.7813 1155.5438,140.3906 C1155.5438,139.9375 1155.1531,139.5469 1154.6844,139.5469 C1154.4656,139.5469 1154.2625,139.625 1154.075,139.8125 C1153.6219,140.2969 1153.6219,140.2969 1153.4344,140.3906 C1153.0125,140.6563 1152.325,140.7813 1151.5594,140.7813 C1149.5125,140.7813 1148.2156,139.6875 1148.2156,137.9844 L1148.2156,136.8906 C1148.2156,135.1094 1149.4656,133.7969 1151.2,133.7969 C1151.7781,133.7969 1152.3875,133.9531 1152.8563,134.2031 C1153.3406,134.4844 1153.5125,134.7031 1153.6063,135.1094 C1153.6688,135.5156 1153.7,135.6406 1153.8406,135.7656 C1153.9813,135.9063 1154.2156,136.0156 1154.4344,136.0156 C1154.7,136.0156 1154.9656,135.875 1155.1375,135.6563 C1155.2469,135.5 1155.2781,135.3125 1155.2781,134.8906 L1155.2781,133.4688 C1155.2781,133.0313 1155.2625,132.9063 1155.1688,132.75 C1155.0125,132.4844 1154.7313,132.3438 1154.4344,132.3438 C1154.1375,132.3438 1153.9344,132.4375 1153.7156,132.75 L1153.5438,132.6719 Z " fill="#000000"/><text fill="#000000" font-family="sans-serif" font-size="12" lengthAdjust="spacingAndGlyphs" textLength="64" x="1170.8" y="141.1543">GameView</text><line style="stroke:#A80036;stroke-width:1.5;" x1="1112" x2="1262" y1="153" y2="153"/><line style="stroke:#A80036;stroke-width:1.5;" x1="1112" x2="1262" y1="161" y2="161"/><polygon fill="#4177AF" points="1122,168,1118,174,1126,174" style="stroke:#1963A0;stroke-width:1.0;"/><text fill="#000000" font-family="sans-serif" font-size="11" lengthAdjust="spacingAndGlyphs" textLength="126" x="1131" y="175.2104">GameView(Controller)</text><polygon fill="#4177AF" points="1122,180.8047,1118,186.8047,1126,186.8047" style="stroke:#1963A0;stroke-width:1.0;"/><text fill="#000000" font-family="sans-serif" font-size="11" lengthAdjust="spacingAndGlyphs" textLength="36" x="1131" y="188.0151">write()</text><!--MD5=[85374d0a3ee4b3ef5b557089b06e5446]
class tictactoe.views.console.TokenView--><rect codeLine="73" fill="#FEFECE" filter="url(#fqgophctzq4i0)" height="73.6094" id="tictactoe.views.console.TokenView" style="stroke:#A80036;stroke-width:1.5;" width="132" x="431" y="121"/><ellipse cx="461.3" cy="137" fill="#ADD1B2" rx="11" ry="11" style="stroke:#A80036;stroke-width:1.0;"/><path d="M463.6438,132.6719 C462.7063,132.2344 462.1125,132.0938 461.2375,132.0938 C458.6125,132.0938 456.6125,134.1719 456.6125,136.8906 L456.6125,138.0156 C456.6125,140.5938 458.7219,142.4844 461.6125,142.4844 C462.8313,142.4844 463.9875,142.1875 464.7375,141.6406 C465.3156,141.2344 465.6438,140.7813 465.6438,140.3906 C465.6438,139.9375 465.2531,139.5469 464.7844,139.5469 C464.5656,139.5469 464.3625,139.625 464.175,139.8125 C463.7219,140.2969 463.7219,140.2969 463.5344,140.3906 C463.1125,140.6563 462.425,140.7813 461.6594,140.7813 C459.6125,140.7813 458.3156,139.6875 458.3156,137.9844 L458.3156,136.8906 C458.3156,135.1094 459.5656,133.7969 461.3,133.7969 C461.8781,133.7969 462.4875,133.9531 462.9563,134.2031 C463.4406,134.4844 463.6125,134.7031 463.7063,135.1094 C463.7688,135.5156 463.8,135.6406 463.9406,135.7656 C464.0813,135.9063 464.3156,136.0156 464.5344,136.0156 C464.8,136.0156 465.0656,135.875 465.2375,135.6563 C465.3469,135.5 465.3781,135.3125 465.3781,134.8906 L465.3781,133.4688 C465.3781,133.0313 465.3625,132.9063 465.2688,132.75 C465.1125,132.4844 464.8313,132.3438 464.5344,132.3438 C464.2375,132.3438 464.0344,132.4375 463.8156,132.75 L463.6438,132.6719 Z " fill="#000000"/><text fill="#000000" font-family="sans-serif" font-size="12" lengthAdjust="spacingAndGlyphs" textLength="66" x="478.7" y="141.1543">TokenView</text><line style="stroke:#A80036;stroke-width:1.5;" x1="432" x2="562" y1="153" y2="153"/><line style="stroke:#A80036;stroke-width:1.5;" x1="432" x2="562" y1="161" y2="161"/><polygon fill="#4177AF" points="442,168,438,174,446,174" style="stroke:#1963A0;stroke-width:1.0;"/><text fill="#000000" font-family="sans-serif" font-size="11" lengthAdjust="spacingAndGlyphs" textLength="106" x="451" y="175.2104">TokenView(Token)</text><polygon fill="#4177AF" points="442,180.8047,438,186.8047,446,186.8047" style="stroke:#1963A0;stroke-width:1.0;"/><text fill="#000000" font-family="sans-serif" font-size="11" lengthAdjust="spacingAndGlyphs" textLength="36" x="451" y="188.0151">write()</text><!--MD5=[b8cfd8c4119a3b0a7a46bfc5fc780f85]
class Error--><rect codeLine="1" fill="#FEFECE" filter="url(#fqgophctzq4i0)" height="53.9375" id="Error" style="stroke:#A80036;stroke-width:1.5;" width="135" x="172.5" y="401"/><ellipse cx="187.5" cy="419.9688" fill="#ADD1B2" rx="11" ry="11" style="stroke:#A80036;stroke-width:1.0;"/><path d="M189.8438,415.6406 C188.9063,415.2031 188.3125,415.0625 187.4375,415.0625 C184.8125,415.0625 182.8125,417.1406 182.8125,419.8594 L182.8125,420.9844 C182.8125,423.5625 184.9219,425.4531 187.8125,425.4531 C189.0313,425.4531 190.1875,425.1563 190.9375,424.6094 C191.5156,424.2031 191.8438,423.75 191.8438,423.3594 C191.8438,422.9063 191.4531,422.5156 190.9844,422.5156 C190.7656,422.5156 190.5625,422.5938 190.375,422.7813 C189.9219,423.2656 189.9219,423.2656 189.7344,423.3594 C189.3125,423.625 188.625,423.75 187.8594,423.75 C185.8125,423.75 184.5156,422.6563 184.5156,420.9531 L184.5156,419.8594 C184.5156,418.0781 185.7656,416.7656 187.5,416.7656 C188.0781,416.7656 188.6875,416.9219 189.1563,417.1719 C189.6406,417.4531 189.8125,417.6719 189.9063,418.0781 C189.9688,418.4844 190,418.6094 190.1406,418.7344 C190.2813,418.875 190.5156,418.9844 190.7344,418.9844 C191,418.9844 191.2656,418.8438 191.4375,418.625 C191.5469,418.4688 191.5781,418.2813 191.5781,417.8594 L191.5781,416.4375 C191.5781,416 191.5625,415.875 191.4688,415.7188 C191.3125,415.4531 191.0313,415.3125 190.7344,415.3125 C190.4375,415.3125 190.2344,415.4063 190.0156,415.7188 L189.8438,415.6406 Z " fill="#000000"/><text fill="#000000" font-family="sans-serif" font-size="12" lengthAdjust="spacingAndGlyphs" textLength="103" x="201.5" y="417.1387">tictactoe.models.</text><text fill="#000000" font-family="sans-serif" font-size="12" lengthAdjust="spacingAndGlyphs" textLength="30" x="238" y="431.1074">Error</text><line style="stroke:#A80036;stroke-width:1.5;" x1="173.5" x2="306.5" y1="438.9375" y2="438.9375"/><line style="stroke:#A80036;stroke-width:1.5;" x1="173.5" x2="306.5" y1="446.9375" y2="446.9375"/><!--MD5=[8c7d7abc12e214c3cc12c9ab70edee11]
class Coordinate--><rect codeLine="2" fill="#FEFECE" filter="url(#fqgophctzq4i0)" height="53.9375" id="Coordinate" style="stroke:#A80036;stroke-width:1.5;" width="135" x="1563.5" y="401"/><ellipse cx="1578.5" cy="419.9688" fill="#ADD1B2" rx="11" ry="11" style="stroke:#A80036;stroke-width:1.0;"/><path d="M1580.8438,415.6406 C1579.9063,415.2031 1579.3125,415.0625 1578.4375,415.0625 C1575.8125,415.0625 1573.8125,417.1406 1573.8125,419.8594 L1573.8125,420.9844 C1573.8125,423.5625 1575.9219,425.4531 1578.8125,425.4531 C1580.0313,425.4531 1581.1875,425.1563 1581.9375,424.6094 C1582.5156,424.2031 1582.8438,423.75 1582.8438,423.3594 C1582.8438,422.9063 1582.4531,422.5156 1581.9844,422.5156 C1581.7656,422.5156 1581.5625,422.5938 1581.375,422.7813 C1580.9219,423.2656 1580.9219,423.2656 1580.7344,423.3594 C1580.3125,423.625 1579.625,423.75 1578.8594,423.75 C1576.8125,423.75 1575.5156,422.6563 1575.5156,420.9531 L1575.5156,419.8594 C1575.5156,418.0781 1576.7656,416.7656 1578.5,416.7656 C1579.0781,416.7656 1579.6875,416.9219 1580.1563,417.1719 C1580.6406,417.4531 1580.8125,417.6719 1580.9063,418.0781 C1580.9688,418.4844 1581,418.6094 1581.1406,418.7344 C1581.2813,418.875 1581.5156,418.9844 1581.7344,418.9844 C1582,418.9844 1582.2656,418.8438 1582.4375,418.625 C1582.5469,418.4688 1582.5781,418.2813 1582.5781,417.8594 L1582.5781,416.4375 C1582.5781,416 1582.5625,415.875 1582.4688,415.7188 C1582.3125,415.4531 1582.0313,415.3125 1581.7344,415.3125 C1581.4375,415.3125 1581.2344,415.4063 1581.0156,415.7188 L1580.8438,415.6406 Z " fill="#000000"/><text fill="#000000" font-family="sans-serif" font-size="12" lengthAdjust="spacingAndGlyphs" textLength="103" x="1592.5" y="417.1387">tictactoe.models.</text><text fill="#000000" font-family="sans-serif" font-size="12" lengthAdjust="spacingAndGlyphs" textLength="66" x="1611" y="431.1074">Coordinate</text><line style="stroke:#A80036;stroke-width:1.5;" x1="1564.5" x2="1697.5" y1="438.9375" y2="438.9375"/><line style="stroke:#A80036;stroke-width:1.5;" x1="1564.5" x2="1697.5" y1="446.9375" y2="446.9375"/><!--MD5=[315b61b427ec618d6861d47eee00cca3]
class Console--><rect codeLine="3" fill="#FEFECE" filter="url(#fqgophctzq4i0)" height="53.9375" id="Console" style="stroke:#A80036;stroke-width:1.5;" width="130" x="7" y="401"/><ellipse cx="22" cy="419.9688" fill="#ADD1B2" rx="11" ry="11" style="stroke:#A80036;stroke-width:1.0;"/><path d="M24.3438,415.6406 C23.4063,415.2031 22.8125,415.0625 21.9375,415.0625 C19.3125,415.0625 17.3125,417.1406 17.3125,419.8594 L17.3125,420.9844 C17.3125,423.5625 19.4219,425.4531 22.3125,425.4531 C23.5313,425.4531 24.6875,425.1563 25.4375,424.6094 C26.0156,424.2031 26.3438,423.75 26.3438,423.3594 C26.3438,422.9063 25.9531,422.5156 25.4844,422.5156 C25.2656,422.5156 25.0625,422.5938 24.875,422.7813 C24.4219,423.2656 24.4219,423.2656 24.2344,423.3594 C23.8125,423.625 23.125,423.75 22.3594,423.75 C20.3125,423.75 19.0156,422.6563 19.0156,420.9531 L19.0156,419.8594 C19.0156,418.0781 20.2656,416.7656 22,416.7656 C22.5781,416.7656 23.1875,416.9219 23.6563,417.1719 C24.1406,417.4531 24.3125,417.6719 24.4063,418.0781 C24.4688,418.4844 24.5,418.6094 24.6406,418.7344 C24.7813,418.875 25.0156,418.9844 25.2344,418.9844 C25.5,418.9844 25.7656,418.8438 25.9375,418.625 C26.0469,418.4688 26.0781,418.2813 26.0781,417.8594 L26.0781,416.4375 C26.0781,416 26.0625,415.875 25.9688,415.7188 C25.8125,415.4531 25.5313,415.3125 25.2344,415.3125 C24.9375,415.3125 24.7344,415.4063 24.5156,415.7188 L24.3438,415.6406 Z " fill="#000000"/><text fill="#000000" font-family="sans-serif" font-size="12" lengthAdjust="spacingAndGlyphs" textLength="98" x="36" y="417.1387">usantatecla.utils.</text><text fill="#000000" font-family="sans-serif" font-size="12" lengthAdjust="spacingAndGlyphs" textLength="49" x="60.5" y="431.1074">Console</text><line style="stroke:#A80036;stroke-width:1.5;" x1="8" x2="136" y1="438.9375" y2="438.9375"/><line style="stroke:#A80036;stroke-width:1.5;" x1="8" x2="136" y1="446.9375" y2="446.9375"/><!--MD5=[1d7ba1c7002d54515419844fbd155368]
class Controller--><rect codeLine="4" fill="#FEFECE" filter="url(#fqgophctzq4i0)" height="53.9375" id="Controller" style="stroke:#A80036;stroke-width:1.5;" width="155" x="1332.5" y="271"/><ellipse cx="1347.5" cy="289.9688" fill="#ADD1B2" rx="11" ry="11" style="stroke:#A80036;stroke-width:1.0;"/><path d="M1349.8438,285.6406 C1348.9063,285.2031 1348.3125,285.0625 1347.4375,285.0625 C1344.8125,285.0625 1342.8125,287.1406 1342.8125,289.8594 L1342.8125,290.9844 C1342.8125,293.5625 1344.9219,295.4531 1347.8125,295.4531 C1349.0313,295.4531 1350.1875,295.1563 1350.9375,294.6094 C1351.5156,294.2031 1351.8438,293.75 1351.8438,293.3594 C1351.8438,292.9063 1351.4531,292.5156 1350.9844,292.5156 C1350.7656,292.5156 1350.5625,292.5938 1350.375,292.7813 C1349.9219,293.2656 1349.9219,293.2656 1349.7344,293.3594 C1349.3125,293.625 1348.625,293.75 1347.8594,293.75 C1345.8125,293.75 1344.5156,292.6563 1344.5156,290.9531 L1344.5156,289.8594 C1344.5156,288.0781 1345.7656,286.7656 1347.5,286.7656 C1348.0781,286.7656 1348.6875,286.9219 1349.1563,287.1719 C1349.6406,287.4531 1349.8125,287.6719 1349.9063,288.0781 C1349.9688,288.4844 1350,288.6094 1350.1406,288.7344 C1350.2813,288.875 1350.5156,288.9844 1350.7344,288.9844 C1351,288.9844 1351.2656,288.8438 1351.4375,288.625 C1351.5469,288.4688 1351.5781,288.2813 1351.5781,287.8594 L1351.5781,286.4375 C1351.5781,286 1351.5625,285.875 1351.4688,285.7188 C1351.3125,285.4531 1351.0313,285.3125 1350.7344,285.3125 C1350.4375,285.3125 1350.2344,285.4063 1350.0156,285.7188 L1349.8438,285.6406 Z " fill="#000000"/><text fill="#000000" font-family="sans-serif" font-size="12" lengthAdjust="spacingAndGlyphs" textLength="123" x="1361.5" y="287.1387">tictactoe.controllers.</text><text fill="#000000" font-family="sans-serif" font-size="12" lengthAdjust="spacingAndGlyphs" textLength="59" x="1393.5" y="301.1074">Controller</text><line style="stroke:#A80036;stroke-width:1.5;" x1="1333.5" x2="1486.5" y1="308.9375" y2="308.9375"/><line style="stroke:#A80036;stroke-width:1.5;" x1="1333.5" x2="1486.5" y1="316.9375" y2="316.9375"/><!--MD5=[cc8600b868f8dfab2c8d497bce62f90a]
class PlayController--><rect codeLine="5" fill="#FEFECE" filter="url(#fqgophctzq4i0)" height="53.9375" id="PlayController" style="stroke:#A80036;stroke-width:1.5;" width="155" x="857.5" y="401"/><ellipse cx="872.5" cy="419.9688" fill="#ADD1B2" rx="11" ry="11" style="stroke:#A80036;stroke-width:1.0;"/><path d="M874.8438,415.6406 C873.9063,415.2031 873.3125,415.0625 872.4375,415.0625 C869.8125,415.0625 867.8125,417.1406 867.8125,419.8594 L867.8125,420.9844 C867.8125,423.5625 869.9219,425.4531 872.8125,425.4531 C874.0313,425.4531 875.1875,425.1563 875.9375,424.6094 C876.5156,424.2031 876.8438,423.75 876.8438,423.3594 C876.8438,422.9063 876.4531,422.5156 875.9844,422.5156 C875.7656,422.5156 875.5625,422.5938 875.375,422.7813 C874.9219,423.2656 874.9219,423.2656 874.7344,423.3594 C874.3125,423.625 873.625,423.75 872.8594,423.75 C870.8125,423.75 869.5156,422.6563 869.5156,420.9531 L869.5156,419.8594 C869.5156,418.0781 870.7656,416.7656 872.5,416.7656 C873.0781,416.7656 873.6875,416.9219 874.1563,417.1719 C874.6406,417.4531 874.8125,417.6719 874.9063,418.0781 C874.9688,418.4844 875,418.6094 875.1406,418.7344 C875.2813,418.875 875.5156,418.9844 875.7344,418.9844 C876,418.9844 876.2656,418.8438 876.4375,418.625 C876.5469,418.4688 876.5781,418.2813 876.5781,417.8594 L876.5781,416.4375 C876.5781,416 876.5625,415.875 876.4688,415.7188 C876.3125,415.4531 876.0313,415.3125 875.7344,415.3125 C875.4375,415.3125 875.2344,415.4063 875.0156,415.7188 L874.8438,415.6406 Z " fill="#000000"/><text fill="#000000" font-family="sans-serif" font-size="12" lengthAdjust="spacingAndGlyphs" textLength="123" x="886.5" y="417.1387">tictactoe.controllers.</text><text fill="#000000" font-family="sans-serif" font-size="12" lengthAdjust="spacingAndGlyphs" textLength="82" x="907" y="431.1074">PlayController</text><line style="stroke:#A80036;stroke-width:1.5;" x1="858.5" x2="1011.5" y1="438.9375" y2="438.9375"/><line style="stroke:#A80036;stroke-width:1.5;" x1="858.5" x2="1011.5" y1="446.9375" y2="446.9375"/><!--MD5=[1a47bbf44ccee225df9b18c5b6629853]
class ResumeController--><rect codeLine="6" fill="#FEFECE" filter="url(#fqgophctzq4i0)" height="53.9375" id="ResumeController" style="stroke:#A80036;stroke-width:1.5;" width="155" x="1207.5" y="401"/><ellipse cx="1222.5" cy="419.9688" fill="#ADD1B2" rx="11" ry="11" style="stroke:#A80036;stroke-width:1.0;"/><path d="M1224.8438,415.6406 C1223.9063,415.2031 1223.3125,415.0625 1222.4375,415.0625 C1219.8125,415.0625 1217.8125,417.1406 1217.8125,419.8594 L1217.8125,420.9844 C1217.8125,423.5625 1219.9219,425.4531 1222.8125,425.4531 C1224.0313,425.4531 1225.1875,425.1563 1225.9375,424.6094 C1226.5156,424.2031 1226.8438,423.75 1226.8438,423.3594 C1226.8438,422.9063 1226.4531,422.5156 1225.9844,422.5156 C1225.7656,422.5156 1225.5625,422.5938 1225.375,422.7813 C1224.9219,423.2656 1224.9219,423.2656 1224.7344,423.3594 C1224.3125,423.625 1223.625,423.75 1222.8594,423.75 C1220.8125,423.75 1219.5156,422.6563 1219.5156,420.9531 L1219.5156,419.8594 C1219.5156,418.0781 1220.7656,416.7656 1222.5,416.7656 C1223.0781,416.7656 1223.6875,416.9219 1224.1563,417.1719 C1224.6406,417.4531 1224.8125,417.6719 1224.9063,418.0781 C1224.9688,418.4844 1225,418.6094 1225.1406,418.7344 C1225.2813,418.875 1225.5156,418.9844 1225.7344,418.9844 C1226,418.9844 1226.2656,418.8438 1226.4375,418.625 C1226.5469,418.4688 1226.5781,418.2813 1226.5781,417.8594 L1226.5781,416.4375 C1226.5781,416 1226.5625,415.875 1226.4688,415.7188 C1226.3125,415.4531 1226.0313,415.3125 1225.7344,415.3125 C1225.4375,415.3125 1225.2344,415.4063 1225.0156,415.7188 L1224.8438,415.6406 Z " fill="#000000"/><text fill="#000000" font-family="sans-serif" font-size="12" lengthAdjust="spacingAndGlyphs" textLength="123" x="1236.5" y="417.1387">tictactoe.controllers.</text><text fill="#000000" font-family="sans-serif" font-size="12" lengthAdjust="spacingAndGlyphs" textLength="107" x="1244.5" y="431.1074">ResumeController</text><line style="stroke:#A80036;stroke-width:1.5;" x1="1208.5" x2="1361.5" y1="438.9375" y2="438.9375"/><line style="stroke:#A80036;stroke-width:1.5;" x1="1208.5" x2="1361.5" y1="446.9375" y2="446.9375"/><!--MD5=[d93cf99d2b92276f27fe8dbf15140505]
class YesNoDialog--><rect codeLine="7" fill="#FEFECE" filter="url(#fqgophctzq4i0)" height="53.9375" id="YesNoDialog" style="stroke:#A80036;stroke-width:1.5;" width="130" x="1398" y="401"/><ellipse cx="1413" cy="419.9688" fill="#ADD1B2" rx="11" ry="11" style="stroke:#A80036;stroke-width:1.0;"/><path d="M1415.3438,415.6406 C1414.4063,415.2031 1413.8125,415.0625 1412.9375,415.0625 C1410.3125,415.0625 1408.3125,417.1406 1408.3125,419.8594 L1408.3125,420.9844 C1408.3125,423.5625 1410.4219,425.4531 1413.3125,425.4531 C1414.5313,425.4531 1415.6875,425.1563 1416.4375,424.6094 C1417.0156,424.2031 1417.3438,423.75 1417.3438,423.3594 C1417.3438,422.9063 1416.9531,422.5156 1416.4844,422.5156 C1416.2656,422.5156 1416.0625,422.5938 1415.875,422.7813 C1415.4219,423.2656 1415.4219,423.2656 1415.2344,423.3594 C1414.8125,423.625 1414.125,423.75 1413.3594,423.75 C1411.3125,423.75 1410.0156,422.6563 1410.0156,420.9531 L1410.0156,419.8594 C1410.0156,418.0781 1411.2656,416.7656 1413,416.7656 C1413.5781,416.7656 1414.1875,416.9219 1414.6563,417.1719 C1415.1406,417.4531 1415.3125,417.6719 1415.4063,418.0781 C1415.4688,418.4844 1415.5,418.6094 1415.6406,418.7344 C1415.7813,418.875 1416.0156,418.9844 1416.2344,418.9844 C1416.5,418.9844 1416.7656,418.8438 1416.9375,418.625 C1417.0469,418.4688 1417.0781,418.2813 1417.0781,417.8594 L1417.0781,416.4375 C1417.0781,416 1417.0625,415.875 1416.9688,415.7188 C1416.8125,415.4531 1416.5313,415.3125 1416.2344,415.3125 C1415.9375,415.3125 1415.7344,415.4063 1415.5156,415.7188 L1415.3438,415.6406 Z " fill="#000000"/><text fill="#000000" font-family="sans-serif" font-size="12" lengthAdjust="spacingAndGlyphs" textLength="98" x="1427" y="417.1387">usantatecla.utils.</text><text fill="#000000" font-family="sans-serif" font-size="12" lengthAdjust="spacingAndGlyphs" textLength="76" x="1438" y="431.1074">YesNoDialog</text><line style="stroke:#A80036;stroke-width:1.5;" x1="1399" x2="1527" y1="438.9375" y2="438.9375"/><line style="stroke:#A80036;stroke-width:1.5;" x1="1399" x2="1527" y1="446.9375" y2="446.9375"/><!--MD5=[47c371471411cfedeee61b1a5bdaee47]
class StartController--><rect codeLine="8" fill="#FEFECE" filter="url(#fqgophctzq4i0)" height="53.9375" id="StartController" style="stroke:#A80036;stroke-width:1.5;" width="155" x="667.5" y="401"/><ellipse cx="682.5" cy="419.9688" fill="#ADD1B2" rx="11" ry="11" style="stroke:#A80036;stroke-width:1.0;"/><path d="M684.8438,415.6406 C683.9063,415.2031 683.3125,415.0625 682.4375,415.0625 C679.8125,415.0625 677.8125,417.1406 677.8125,419.8594 L677.8125,420.9844 C677.8125,423.5625 679.9219,425.4531 682.8125,425.4531 C684.0313,425.4531 685.1875,425.1563 685.9375,424.6094 C686.5156,424.2031 686.8438,423.75 686.8438,423.3594 C686.8438,422.9063 686.4531,422.5156 685.9844,422.5156 C685.7656,422.5156 685.5625,422.5938 685.375,422.7813 C684.9219,423.2656 684.9219,423.2656 684.7344,423.3594 C684.3125,423.625 683.625,423.75 682.8594,423.75 C680.8125,423.75 679.5156,422.6563 679.5156,420.9531 L679.5156,419.8594 C679.5156,418.0781 680.7656,416.7656 682.5,416.7656 C683.0781,416.7656 683.6875,416.9219 684.1563,417.1719 C684.6406,417.4531 684.8125,417.6719 684.9063,418.0781 C684.9688,418.4844 685,418.6094 685.1406,418.7344 C685.2813,418.875 685.5156,418.9844 685.7344,418.9844 C686,418.9844 686.2656,418.8438 686.4375,418.625 C686.5469,418.4688 686.5781,418.2813 686.5781,417.8594 L686.5781,416.4375 C686.5781,416 686.5625,415.875 686.4688,415.7188 C686.3125,415.4531 686.0313,415.3125 685.7344,415.3125 C685.4375,415.3125 685.2344,415.4063 685.0156,415.7188 L684.8438,415.6406 Z " fill="#000000"/><text fill="#000000" font-family="sans-serif" font-size="12" lengthAdjust="spacingAndGlyphs" textLength="123" x="696.5" y="417.1387">tictactoe.controllers.</text><text fill="#000000" font-family="sans-serif" font-size="12" lengthAdjust="spacingAndGlyphs" textLength="87" x="714.5" y="431.1074">StartController</text><line style="stroke:#A80036;stroke-width:1.5;" x1="668.5" x2="821.5" y1="438.9375" y2="438.9375"/><line style="stroke:#A80036;stroke-width:1.5;" x1="668.5" x2="821.5" y1="446.9375" y2="446.9375"/><!--MD5=[58767b3ac92ed88fc68bd4b9dc66dad3]
class LimitedIntDialog--><rect codeLine="9" fill="#FEFECE" filter="url(#fqgophctzq4i0)" height="53.9375" id="LimitedIntDialog" style="stroke:#A80036;stroke-width:1.5;" width="130" x="343" y="401"/><ellipse cx="358" cy="419.9688" fill="#ADD1B2" rx="11" ry="11" style="stroke:#A80036;stroke-width:1.0;"/><path d="M360.3438,415.6406 C359.4063,415.2031 358.8125,415.0625 357.9375,415.0625 C355.3125,415.0625 353.3125,417.1406 353.3125,419.8594 L353.3125,420.9844 C353.3125,423.5625 355.4219,425.4531 358.3125,425.4531 C359.5313,425.4531 360.6875,425.1563 361.4375,424.6094 C362.0156,424.2031 362.3438,423.75 362.3438,423.3594 C362.3438,422.9063 361.9531,422.5156 361.4844,422.5156 C361.2656,422.5156 361.0625,422.5938 360.875,422.7813 C360.4219,423.2656 360.4219,423.2656 360.2344,423.3594 C359.8125,423.625 359.125,423.75 358.3594,423.75 C356.3125,423.75 355.0156,422.6563 355.0156,420.9531 L355.0156,419.8594 C355.0156,418.0781 356.2656,416.7656 358,416.7656 C358.5781,416.7656 359.1875,416.9219 359.6563,417.1719 C360.1406,417.4531 360.3125,417.6719 360.4063,418.0781 C360.4688,418.4844 360.5,418.6094 360.6406,418.7344 C360.7813,418.875 361.0156,418.9844 361.2344,418.9844 C361.5,418.9844 361.7656,418.8438 361.9375,418.625 C362.0469,418.4688 362.0781,418.2813 362.0781,417.8594 L362.0781,416.4375 C362.0781,416 362.0625,415.875 361.9688,415.7188 C361.8125,415.4531 361.5313,415.3125 361.2344,415.3125 C360.9375,415.3125 360.7344,415.4063 360.5156,415.7188 L360.3438,415.6406 Z " fill="#000000"/><text fill="#000000" font-family="sans-serif" font-size="12" lengthAdjust="spacingAndGlyphs" textLength="98" x="372" y="417.1387">usantatecla.utils.</text><text fill="#000000" font-family="sans-serif" font-size="12" lengthAdjust="spacingAndGlyphs" textLength="95" x="373.5" y="431.1074">LimitedIntDialog</text><line style="stroke:#A80036;stroke-width:1.5;" x1="344" x2="472" y1="438.9375" y2="438.9375"/><line style="stroke:#A80036;stroke-width:1.5;" x1="344" x2="472" y1="446.9375" y2="446.9375"/><!--MD5=[d8c8cfd5ca149094f5b67f9f607a5ec7]
class Token--><rect codeLine="10" fill="#FEFECE" filter="url(#fqgophctzq4i0)" height="53.9375" id="Token" style="stroke:#A80036;stroke-width:1.5;" width="124" x="508" y="401"/><ellipse cx="523" cy="419.9688" fill="#ADD1B2" rx="11" ry="11" style="stroke:#A80036;stroke-width:1.0;"/><path d="M525.3438,415.6406 C524.4063,415.2031 523.8125,415.0625 522.9375,415.0625 C520.3125,415.0625 518.3125,417.1406 518.3125,419.8594 L518.3125,420.9844 C518.3125,423.5625 520.4219,425.4531 523.3125,425.4531 C524.5313,425.4531 525.6875,425.1563 526.4375,424.6094 C527.0156,424.2031 527.3438,423.75 527.3438,423.3594 C527.3438,422.9063 526.9531,422.5156 526.4844,422.5156 C526.2656,422.5156 526.0625,422.5938 525.875,422.7813 C525.4219,423.2656 525.4219,423.2656 525.2344,423.3594 C524.8125,423.625 524.125,423.75 523.3594,423.75 C521.3125,423.75 520.0156,422.6563 520.0156,420.9531 L520.0156,419.8594 C520.0156,418.0781 521.2656,416.7656 523,416.7656 C523.5781,416.7656 524.1875,416.9219 524.6563,417.1719 C525.1406,417.4531 525.3125,417.6719 525.4063,418.0781 C525.4688,418.4844 525.5,418.6094 525.6406,418.7344 C525.7813,418.875 526.0156,418.9844 526.2344,418.9844 C526.5,418.9844 526.7656,418.8438 526.9375,418.625 C527.0469,418.4688 527.0781,418.2813 527.0781,417.8594 L527.0781,416.4375 C527.0781,416 527.0625,415.875 526.9688,415.7188 C526.8125,415.4531 526.5313,415.3125 526.2344,415.3125 C525.9375,415.3125 525.7344,415.4063 525.5156,415.7188 L525.3438,415.6406 Z " fill="#000000"/><text fill="#000000" font-family="sans-serif" font-size="12" lengthAdjust="spacingAndGlyphs" textLength="92" x="537" y="417.1387">tictactoe.types.</text><text fill="#000000" font-family="sans-serif" font-size="12" lengthAdjust="spacingAndGlyphs" textLength="37" x="564.5" y="431.1074">Token</text><line style="stroke:#A80036;stroke-width:1.5;" x1="509" x2="631" y1="438.9375" y2="438.9375"/><line style="stroke:#A80036;stroke-width:1.5;" x1="509" x2="631" y1="446.9375" y2="446.9375"/><!--MD5=[bea5b0d46523efab5ea1c1d339f396f0]
class Message--><rect codeLine="11" fill="#FEFECE" filter="url(#fqgophctzq4i0)" height="53.9375" id="Message" style="stroke:#A80036;stroke-width:1.5;" width="125" x="1047.5" y="401"/><ellipse cx="1062.5" cy="419.9688" fill="#ADD1B2" rx="11" ry="11" style="stroke:#A80036;stroke-width:1.0;"/><path d="M1064.8438,415.6406 C1063.9063,415.2031 1063.3125,415.0625 1062.4375,415.0625 C1059.8125,415.0625 1057.8125,417.1406 1057.8125,419.8594 L1057.8125,420.9844 C1057.8125,423.5625 1059.9219,425.4531 1062.8125,425.4531 C1064.0313,425.4531 1065.1875,425.1563 1065.9375,424.6094 C1066.5156,424.2031 1066.8438,423.75 1066.8438,423.3594 C1066.8438,422.9063 1066.4531,422.5156 1065.9844,422.5156 C1065.7656,422.5156 1065.5625,422.5938 1065.375,422.7813 C1064.9219,423.2656 1064.9219,423.2656 1064.7344,423.3594 C1064.3125,423.625 1063.625,423.75 1062.8594,423.75 C1060.8125,423.75 1059.5156,422.6563 1059.5156,420.9531 L1059.5156,419.8594 C1059.5156,418.0781 1060.7656,416.7656 1062.5,416.7656 C1063.0781,416.7656 1063.6875,416.9219 1064.1563,417.1719 C1064.6406,417.4531 1064.8125,417.6719 1064.9063,418.0781 C1064.9688,418.4844 1065,418.6094 1065.1406,418.7344 C1065.2813,418.875 1065.5156,418.9844 1065.7344,418.9844 C1066,418.9844 1066.2656,418.8438 1066.4375,418.625 C1066.5469,418.4688 1066.5781,418.2813 1066.5781,417.8594 L1066.5781,416.4375 C1066.5781,416 1066.5625,415.875 1066.4688,415.7188 C1066.3125,415.4531 1066.0313,415.3125 1065.7344,415.3125 C1065.4375,415.3125 1065.2344,415.4063 1065.0156,415.7188 L1064.8438,415.6406 Z " fill="#000000"/><text fill="#000000" font-family="sans-serif" font-size="12" lengthAdjust="spacingAndGlyphs" textLength="93" x="1076.5" y="417.1387">tictactoe.views.</text><text fill="#000000" font-family="sans-serif" font-size="12" lengthAdjust="spacingAndGlyphs" textLength="55" x="1095.5" y="431.1074">Message</text><line style="stroke:#A80036;stroke-width:1.5;" x1="1048.5" x2="1171.5" y1="438.9375" y2="438.9375"/><line style="stroke:#A80036;stroke-width:1.5;" x1="1048.5" x2="1171.5" y1="446.9375" y2="446.9375"/><!--MD5=[86cec68673cafdfc1c204348d5b2cca6]
class ErrorView--><rect codeLine="12" fill="#FEFECE" filter="url(#fqgophctzq4i0)" height="53.9375" id="ErrorView" style="stroke:#A80036;stroke-width:1.5;" width="125" x="592.5" y="7"/><ellipse cx="607.5" cy="25.9688" fill="#ADD1B2" rx="11" ry="11" style="stroke:#A80036;stroke-width:1.0;"/><path d="M609.8438,21.6406 C608.9063,21.2031 608.3125,21.0625 607.4375,21.0625 C604.8125,21.0625 602.8125,23.1406 602.8125,25.8594 L602.8125,26.9844 C602.8125,29.5625 604.9219,31.4531 607.8125,31.4531 C609.0313,31.4531 610.1875,31.1563 610.9375,30.6094 C611.5156,30.2031 611.8438,29.75 611.8438,29.3594 C611.8438,28.9063 611.4531,28.5156 610.9844,28.5156 C610.7656,28.5156 610.5625,28.5938 610.375,28.7813 C609.9219,29.2656 609.9219,29.2656 609.7344,29.3594 C609.3125,29.625 608.625,29.75 607.8594,29.75 C605.8125,29.75 604.5156,28.6563 604.5156,26.9531 L604.5156,25.8594 C604.5156,24.0781 605.7656,22.7656 607.5,22.7656 C608.0781,22.7656 608.6875,22.9219 609.1563,23.1719 C609.6406,23.4531 609.8125,23.6719 609.9063,24.0781 C609.9688,24.4844 610,24.6094 610.1406,24.7344 C610.2813,24.875 610.5156,24.9844 610.7344,24.9844 C611,24.9844 611.2656,24.8438 611.4375,24.625 C611.5469,24.4688 611.5781,24.2813 611.5781,23.8594 L611.5781,22.4375 C611.5781,22 611.5625,21.875 611.4688,21.7188 C611.3125,21.4531 611.0313,21.3125 610.7344,21.3125 C610.4375,21.3125 610.2344,21.4063 610.0156,21.7188 L609.8438,21.6406 Z " fill="#000000"/><text fill="#000000" font-family="sans-serif" font-size="12" lengthAdjust="spacingAndGlyphs" textLength="93" x="621.5" y="23.1387">tictactoe.views.</text><text fill="#000000" font-family="sans-serif" font-size="12" lengthAdjust="spacingAndGlyphs" textLength="59" x="638.5" y="37.1074">ErrorView</text><line style="stroke:#A80036;stroke-width:1.5;" x1="593.5" x2="716.5" y1="44.9375" y2="44.9375"/><line style="stroke:#A80036;stroke-width:1.5;" x1="593.5" x2="716.5" y1="52.9375" y2="52.9375"/><!--MD5=[9113815f8bbc012213d6467f94b3dc5b]
link tictactoe.views.console.ConsoleView to tictactoe.views.console.StartView--><path codeLine="18" d="M932.5664,192.4279 C932.5664,192.4279 927.804,194.305 926,195 C858.108,221.165 780.286,247.77 721.339,267.246 " fill="none" id="tictactoe.views.console.ConsoleView-tictactoe.views.console.StartView" style="stroke:#A80036;stroke-width:1.0;"/><polygon fill="#A80036" points="708.679,271.415,718.4785,272.3994,713.4282,269.8512,715.9764,264.8008,708.679,271.415" style="stroke:#A80036;stroke-width:1.0;"/><line style="stroke:#A80036;stroke-width:1.0;" x1="713.4282" x2="721.027" y1="269.8512" y2="267.3485"/><polygon fill="#A80036" points="943.7,187.951,936.6409,186.4783,932.5664,192.4279,939.6255,193.9007,943.7,187.951" style="stroke:#A80036;stroke-width:1.0;"/><!--MD5=[1735144fa38f1aa47117a26d071db586]
link tictactoe.views.console.ConsoleView to tictactoe.views.console.PlayView--><path codeLine="19" d="M967.9127,204.0246 C967.9127,204.0246 942.041,231.7 929.792,244.804 " fill="none" id="tictactoe.views.console.ConsoleView-tictactoe.views.console.PlayView" style="stroke:#A80036;stroke-width:1.0;"/><polygon fill="#A80036" points="920.614,254.622,929.6825,250.7799,924.0289,250.9698,923.839,245.3161,920.614,254.622" style="stroke:#A80036;stroke-width:1.0;"/><line style="stroke:#A80036;stroke-width:1.0;" x1="924.0289" x2="929.4915" y1="250.9698" y2="245.1255"/><polygon fill="#A80036" points="976.107,195.258,969.0876,196.9099,967.9127,204.0246,974.9321,202.3727,976.107,195.258" style="stroke:#A80036;stroke-width:1.0;"/><!--MD5=[a983e760d9bef84c565434062749d875]
link tictactoe.views.console.ConsoleView to tictactoe.views.console.ResumeView--><path codeLine="20" d="M1043.3099,204.976 C1043.3099,204.976 1069.39,240.952 1080.94,256.9 " fill="none" id="tictactoe.views.console.ConsoleView-tictactoe.views.console.ResumeView" style="stroke:#A80036;stroke-width:1.0;"/><polygon fill="#A80036" points="1088.61,267.485,1086.5685,257.85,1085.6763,263.4361,1080.0903,262.5439,1088.61,267.485" style="stroke:#A80036;stroke-width:1.0;"/><line style="stroke:#A80036;stroke-width:1.0;" x1="1085.6763" x2="1080.985" y1="263.4361" y2="256.959"/><polygon fill="#A80036" points="1036.27,195.258,1036.5506,202.4636,1043.3099,204.976,1043.0293,197.7703,1036.27,195.258" style="stroke:#A80036;stroke-width:1.0;"/><!--MD5=[85f245ef36a3f8c430e482e5bef25ade]
link tictactoe.views.console.ConsoleView to Controller--><path codeLine="21" d="M1076.28,188.676 C1081.9,190.908 1087.53,193.048 1093,195 C1185.23,227.889 1212.3,223.44 1305,255 C1317.39,259.218 1330.44,264.086 1342.98,268.981 " fill="none" id="tictactoe.views.console.ConsoleView-to-Controller" style="stroke:#A80036;stroke-width:1.0;stroke-dasharray:7.0,7.0;"/><polygon fill="#A80036" points="1347.94,270.93,1341.0267,263.9153,1343.2865,269.1012,1338.1006,271.3609,1347.94,270.93" style="stroke:#A80036;stroke-width:1.0;"/><!--MD5=[a06a410d0f6c1be87ea9d2d5c8f79243]
link tictactoe.views.console.CoordinateView to Console--><path codeLine="27" d="M751.163,188.543 C743.731,190.915 736.258,193.118 729,195 C565.617,237.365 506.113,181.852 354,255 C288.501,286.497 294.857,326.845 233,365 C216.959,374.8947 177.78,390.0445 142.09,402.8913 " fill="none" id="tictactoe.views.console.CoordinateView-to-Console" style="stroke:#A80036;stroke-width:1.0;stroke-dasharray:7.0,7.0;"/><polygon fill="#A80036" points="137.306,404.6071,147.1279,405.3354,142.0127,402.9199,144.4283,397.8047,137.306,404.6071" style="stroke:#A80036;stroke-width:1.0;"/><!--MD5=[3ea4caf7e48eaae8f655dde5cd3263f2]
link tictactoe.views.console.CoordinateView to Error--><path codeLine="28" d="M747.89,188.539 C741.512,190.766 735.158,192.944 729,195 C642.184,223.983 615.206,216.871 532,255 C448.826,293.115 437.226,319.242 358,365 C338.325,376.3635 316.386,388.13 296.813,398.3191 " fill="none" id="tictactoe.views.console.CoordinateView-to-Error" style="stroke:#A80036;stroke-width:1.0;stroke-dasharray:7.0,7.0;"/><polygon fill="#A80036" points="291.89,400.8743,301.7209,400.2793,296.328,398.5713,298.036,393.1784,291.89,400.8743" style="stroke:#A80036;stroke-width:1.0;"/><!--MD5=[6e79601aef612c06e9891b4875f898f3]
link tictactoe.views.console.CoordinateView to Coordinate--><path codeLine="29" d="M904.645,188.514 C911.814,190.863 919.012,193.069 926,195 C1064.21,233.185 1123.78,175.325 1243,255 C1291.58,287.467 1265.91,333.309 1315,365 C1401.93,421.1166 1444.13,377.9738 1545,401 C1549.36,401.9942 1553.81,403.0914 1558.29,404.256 " fill="none" id="tictactoe.views.console.CoordinateView-to-Coordinate" style="stroke:#A80036;stroke-width:1.0;stroke-dasharray:7.0,7.0;"/><polygon fill="#A80036" points="1563.16,405.5446,1555.4907,399.3655,1558.328,404.2593,1553.4342,407.0967,1563.16,405.5446" style="stroke:#A80036;stroke-width:1.0;"/><!--MD5=[5e3154eeb00ff673e3597b7a5033dd40]
link tictactoe.views.console.ErrorView to Error--><path codeLine="35" d="M597.988,187.228 C591.958,189.954 585.883,192.595 580,195 C503.501,226.27 473.627,210.481 404,255 C343.797,293.493 289.991,358.6245 261.481,396.734 " fill="none" id="tictactoe.views.console.ErrorView-to-Error" style="stroke:#A80036;stroke-width:1.0;stroke-dasharray:7.0,7.0;"/><polygon fill="#A80036" points="258.466,400.7895,267.0456,395.9531,261.449,396.7768,260.6253,391.1803,258.466,400.7895" style="stroke:#A80036;stroke-width:1.0;"/><!--MD5=[8ec17c1eeb1fabb729f4f45734e470f6]
link tictactoe.views.console.ErrorView to Console--><path codeLine="36" d="M597.869,188.203 C591.917,190.706 585.89,193.03 580,195 C451.461,237.993 403.436,196.863 281,255 C206.567,290.343 136.048,357.9625 99.0005,397.0629 " fill="none" id="tictactoe.views.console.ErrorView-to-Console" style="stroke:#A80036;stroke-width:1.0;stroke-dasharray:7.0,7.0;"/><polygon fill="#A80036" points="95.5208,400.7557,104.6042,396.9489,98.9499,397.1168,98.782,391.4624,95.5208,400.7557" style="stroke:#A80036;stroke-width:1.0;"/><!--MD5=[09df14cf147ebf3fa601d40955ce3c27]
reverse link ErrorView to tictactoe.views.console.ErrorView--><path codeLine="37" d="M655,81.642 C655,94.582 655,108.436 655,120.69 " fill="none" id="ErrorView-backto-tictactoe.views.console.ErrorView" style="stroke:#A80036;stroke-width:1.0;"/><polygon fill="none" points="648,81.172,655,61.172,662,81.172,648,81.172" style="stroke:#A80036;stroke-width:1.0;"/><!--MD5=[cd0d4672137ef597b8c17bafce16f393]
link tictactoe.views.console.GameView to Controller--><path codeLine="44" d="M1255.5037,201.3935 C1255.5037,201.3935 1326.7,245.454 1356.78,264.063 " fill="none" id="tictactoe.views.console.GameView-Controller" style="stroke:#A80036;stroke-width:1.0;"/><polygon fill="#A80036" points="1367.89,270.94,1362.3429,262.8018,1363.6386,268.3083,1358.1322,269.604,1367.89,270.94" style="stroke:#A80036;stroke-width:1.0;"/><line style="stroke:#A80036;stroke-width:1.0;" x1="1363.6386" x2="1356.835" y1="268.3083" y2="264.099"/><polygon fill="#A80036" points="1245.3,195.078,1248.2967,201.637,1255.5037,201.3935,1252.507,194.8345,1245.3,195.078" style="stroke:#A80036;stroke-width:1.0;"/><!--MD5=[0e43d69a696b22bc5281d1cc9667df5e]
link tictactoe.views.console.GameView to Coordinate--><path codeLine="45" d="M1263.15,161.929 C1341.25,168.632 1462.41,189.741 1543,255 C1588.03,291.463 1612.36,357.0336 1623.42,395.8267 " fill="none" id="tictactoe.views.console.GameView-to-Coordinate" style="stroke:#A80036;stroke-width:1.0;stroke-dasharray:7.0,7.0;"/><polygon fill="#A80036" points="1624.83,400.8849,1626.2646,391.1411,1623.4865,396.0688,1618.5588,393.2907,1624.83,400.8849" style="stroke:#A80036;stroke-width:1.0;"/><!--MD5=[08b09d3eac180f3c67266adaed935b89]
link tictactoe.views.console.GameView to Message--><path codeLine="46" d="M1263.28,171.377 C1347.81,186.833 1476.07,216.052 1505,255 C1534.15,294.248 1537.55,328.52 1505,365 C1458.09,417.5721 1258.85,386.0365 1190,401 C1185.9,401.8917 1181.71,402.9111 1177.5,404.0181 " fill="none" id="tictactoe.views.console.GameView-to-Message" style="stroke:#A80036;stroke-width:1.0;stroke-dasharray:7.0,7.0;"/><polygon fill="#A80036" points="1172.56,405.3556,1182.2906,406.8771,1177.3879,404.0552,1180.2099,399.1525,1172.56,405.3556" style="stroke:#A80036;stroke-width:1.0;"/><!--MD5=[a10986738d33eef60265d57fa5080b93]
link tictactoe.views.console.PlayView to PlayController--><path codeLine="54" d="M898.831,341.267 C906.348,359.0847 914.941,379.453 921.865,395.8645 " fill="none" id="tictactoe.views.console.PlayView-to-PlayController" style="stroke:#A80036;stroke-width:1.0;stroke-dasharray:7.0,7.0;"/><polygon fill="#A80036" points="923.957,400.8235,924.1443,390.9764,922.0136,396.2167,916.7733,394.0859,923.957,400.8235" style="stroke:#A80036;stroke-width:1.0;"/><!--MD5=[3b49bdf6c7f6ce83eed251a9af28dbf3]
link tictactoe.views.console.PlayView to Coordinate--><path codeLine="55" d="M930.951,341.173 C944.739,350.652 960.259,359.517 976,365 C1095.65,406.6763 1420.31,378.5186 1545,401 C1549.4,401.7927 1553.89,402.7335 1558.39,403.7792 " fill="none" id="tictactoe.views.console.PlayView-to-Coordinate" style="stroke:#A80036;stroke-width:1.0;stroke-dasharray:7.0,7.0;"/><polygon fill="#A80036" points="1563.28,404.9532,1555.4673,398.9564,1558.4191,403.782,1553.5934,406.7338,1563.28,404.9532" style="stroke:#A80036;stroke-width:1.0;"/><!--MD5=[f335b251d0d5a458b635239e43cc0bb5]
link tictactoe.views.console.PlayView to Message--><path codeLine="56" d="M938.239,341.134 C950.45,349.446 963.454,357.812 976,365 C997.284,377.1939 1021.38,388.9348 1043.21,398.8574 " fill="none" id="tictactoe.views.console.PlayView-to-Message" style="stroke:#A80036;stroke-width:1.0;stroke-dasharray:7.0,7.0;"/><polygon fill="#A80036" points="1047.83,400.9467,1041.2734,393.5975,1043.273,398.8892,1037.9813,400.8887,1047.83,400.9467" style="stroke:#A80036;stroke-width:1.0;"/><!--MD5=[b8eae5493de689ae966fe038f1428b07]
link tictactoe.views.console.PlayView to Error--><path codeLine="57" d="M803.401,337.658 C779.158,348.191 751.956,358.4817 726,365 C552.45,408.5841 500.61,366.6454 325,401 C321.06,401.7708 317.043,402.6534 313.005,403.6172 " fill="none" id="tictactoe.views.console.PlayView-to-Error" style="stroke:#A80036;stroke-width:1.0;stroke-dasharray:7.0,7.0;"/><polygon fill="#A80036" points="307.884,404.8791,317.5794,406.6107,312.7389,403.6834,315.6663,398.8429,307.884,404.8791" style="stroke:#A80036;stroke-width:1.0;"/><!--MD5=[248c182d20997509763909b55503e1c8]
link tictactoe.views.console.ResumeView to ResumeController--><path codeLine="62" d="M1150.59,328.688 C1179.07,349.523 1216.98,377.2474 1245.27,397.9423 " fill="none" id="tictactoe.views.console.ResumeView-to-ResumeController" style="stroke:#A80036;stroke-width:1.0;stroke-dasharray:7.0,7.0;"/><polygon fill="#A80036" points="1249.38,400.943,1244.465,392.4082,1245.3401,397.997,1239.7513,398.8721,1249.38,400.943" style="stroke:#A80036;stroke-width:1.0;"/><!--MD5=[45d6b98411685f94cdacdaac3bc1e164]
link tictactoe.views.console.ResumeView to Message--><path codeLine="63" d="M1110,328.688 C1110,348.84 1110,375.4368 1110,395.8846 " fill="none" id="tictactoe.views.console.ResumeView-to-Message" style="stroke:#A80036;stroke-width:1.0;stroke-dasharray:7.0,7.0;"/><polygon fill="#A80036" points="1110,400.943,1114,391.943,1110,395.943,1106,391.943,1110,400.943" style="stroke:#A80036;stroke-width:1.0;"/><!--MD5=[8fe1c1d6283f66daa4ac51944081ccb1]
link tictactoe.views.console.ResumeView to YesNoDialog--><path codeLine="64" d="M1168.61,328.567 C1194.15,340.787 1224.66,354.517 1253,365 C1308.02,385.3548 1323.78,384.2296 1380,401 C1384.25,402.2679 1388.62,403.5872 1393.02,404.9294 " fill="none" id="tictactoe.views.console.ResumeView-to-YesNoDialog" style="stroke:#A80036;stroke-width:1.0;stroke-dasharray:7.0,7.0;"/><polygon fill="#A80036" points="1397.81,406.3934,1390.3847,399.9231,1393.0312,404.9227,1388.0316,407.5693,1397.81,406.3934" style="stroke:#A80036;stroke-width:1.0;"/><!--MD5=[05cc99d857866a96ee1f197cb8d1830a]
link tictactoe.views.console.StartView to StartController--><path codeLine="69" d="M655.904,328.688 C674.554,349.267 699.295,376.5667 717.972,397.1758 " fill="none" id="tictactoe.views.console.StartView-to-StartController" style="stroke:#A80036;stroke-width:1.0;stroke-dasharray:7.0,7.0;"/><polygon fill="#A80036" points="721.386,400.943,718.3073,391.5877,718.0288,397.2377,712.3788,396.9592,721.386,400.943" style="stroke:#A80036;stroke-width:1.0;"/><!--MD5=[cbe56104a70ea1577228555875c75924]
link tictactoe.views.console.StartView to Message--><path codeLine="70" d="M689.239,328.521 C717.937,341.487 753.107,355.818 786,365 C891.582,394.473 923.277,375.9713 1030,401 C1034.09,401.9587 1038.27,403.0299 1042.46,404.1764 " fill="none" id="tictactoe.views.console.StartView-to-Message" style="stroke:#A80036;stroke-width:1.0;stroke-dasharray:7.0,7.0;"/><polygon fill="#A80036" points="1047.4,405.5546,1039.8052,399.2841,1042.5838,404.2116,1037.6563,406.9901,1047.4,405.5546" style="stroke:#A80036;stroke-width:1.0;"/><!--MD5=[f18569398a34687a26f0429a50bef928]
link tictactoe.views.console.StartView to LimitedIntDialog--><path codeLine="71" d="M578.021,328.527 C541.91,349.441 493.711,377.3576 457.854,398.1251 " fill="none" id="tictactoe.views.console.StartView-to-LimitedIntDialog" style="stroke:#A80036;stroke-width:1.0;stroke-dasharray:7.0,7.0;"/><polygon fill="#A80036" points="453.102,400.8778,462.8948,399.8289,457.4288,398.372,458.8856,392.906,453.102,400.8778" style="stroke:#A80036;stroke-width:1.0;"/><!--MD5=[6ea791314a7012eef494e5b69e119c48]
link tictactoe.views.console.StartView to Token--><path codeLine="77" d="M610.2929,339.5861 C610.2929,339.5861 594.609,373.6117 587.6,388.8161 " fill="none" id="tictactoe.views.console.StartView-Token" style="stroke:#A80036;stroke-width:1.0;"/><polygon fill="#A80036" points="582.011,400.943,589.411,394.4437,584.1039,396.4021,582.1456,391.0951,582.011,400.943" style="stroke:#A80036;stroke-width:1.0;"/><line style="stroke:#A80036;stroke-width:1.0;" x1="584.1039" x2="587.4525" y1="396.4021" y2="389.1368"/><polygon fill="#A80036" points="615.316,328.688,609.1718,332.4627,610.2929,339.5861,616.4372,335.8114,615.316,328.688" style="stroke:#A80036;stroke-width:1.0;"/><!--MD5=[e5fc69a5d7b9edfb586c1b6276c53e05]
link tictactoe.views.console.StartView to Console--><path codeLine="78" d="M549.261,319.829 C495.436,333.541 422.685,351.402 358,365 C268.33,383.8505 244.014,379.26 155,401 C150.691,402.0524 146.278,403.2056 141.842,404.4227 " fill="none" id="tictactoe.views.console.StartView-to-Console" style="stroke:#A80036;stroke-width:1.0;stroke-dasharray:7.0,7.0;"/><polygon fill="#A80036" points="137.022,405.7666,146.7656,407.2025,141.8383,404.4237,144.617,399.4964,137.022,405.7666" style="stroke:#A80036;stroke-width:1.0;"/><!--MD5=[7c5ceae2b50f401fcd1fe60132b41de4]
@startuml
class Error as "tictactoe.models.\nError" {}
class Coordinate as "tictactoe.models.\nCoordinate" {}
class Console as "usantatecla.utils.\nConsole" {}
class Controller as "tictactoe.controllers.\nController" {}
class PlayController as "tictactoe.controllers.\nPlayController" {}
class ResumeController as "tictactoe.controllers.\nResumeController" {}
class YesNoDialog as "usantatecla.utils.\nYesNoDialog" {}
class StartController as "tictactoe.controllers.\nStartController" {}
class LimitedIntDialog as "usantatecla.utils.\nLimitedIntDialog" {}
class Token as "tictactoe.types.\nToken" {}
class Message as "tictactoe.views.\nMessage" {}
class ErrorView as "tictactoe.views.\nErrorView" {}

class tictactoe.views.console.ConsoleView{
+ ConsoleView()
+ interact(Controller)
}
tictactoe.views.console.ConsoleView *-down-> tictactoe.views.console.StartView
tictactoe.views.console.ConsoleView *-down-> tictactoe.views.console.PlayView
tictactoe.views.console.ConsoleView *-down-> tictactoe.views.console.ResumeView
tictactoe.views.console.ConsoleView .down.> Controller

class tictactoe.views.console.CoordinateView {
+ read(String): Coordinate
}

tictactoe.views.console.CoordinateView .down.> Console
tictactoe.views.console.CoordinateView .down.> Error
tictactoe.views.console.CoordinateView .down.> Coordinate

class  tictactoe.views.console.ErrorView{
~ ErrorView(Error)
~ writeln()
}
tictactoe.views.console.ErrorView .down.> Error
tictactoe.views.console.ErrorView .down.> Console
ErrorView <|-down- tictactoe.views.console.ErrorView

class  tictactoe.views.console.GameView{
~ GameView(Controller)
~ write()
}

tictactoe.views.console.GameView *-down-> Controller
tictactoe.views.console.GameView .down.> Coordinate
tictactoe.views.console.GameView .down.> Message

class  tictactoe.views.console.PlayView{
~ interact(PlayController)
- put(PlayController)
- move(PlayController)
}

tictactoe.views.console.PlayView .down.> PlayController
tictactoe.views.console.PlayView .down.> Coordinate
tictactoe.views.console.PlayView .down.> Message
tictactoe.views.console.PlayView .down.> Error

class  tictactoe.views.console.ResumeView{
~ interact(ResumeController): boolean
}
tictactoe.views.console.ResumeView .down.> ResumeController
tictactoe.views.console.ResumeView .down.> Message
tictactoe.views.console.ResumeView .down.> YesNoDialog

class tictactoe.views.console.StartView{
~ interact(StartController)
}
tictactoe.views.console.StartView .down.> StartController
tictactoe.views.console.StartView .down.> Message
tictactoe.views.console.StartView .down.> LimitedIntDialog

class tictactoe.views.console.TokenView{
~ TokenView(Token)
~ write()
}
tictactoe.views.console.StartView *-down-> Token
tictactoe.views.console.StartView .down.> Console
@enduml

PlantUML version 1.2020.22(Sun Dec 06 09:36:27 UTC 2020)
(GPL source distribution)
Java Runtime: Java(TM) SE Runtime Environment
JVM: Java HotSpot(TM) 64-Bit Server VM
Default Encoding: UTF-8
Language: en
Country: US
--></g></svg>