<?xml version="1.0" encoding="UTF-8" standalone="no"?><svg xmlns="http://www.w3.org/2000/svg" xmlns:xlink="http://www.w3.org/1999/xlink" contentScriptType="application/ecmascript" contentStyleType="text/css" height="598px" preserveAspectRatio="none" style="width:1240px;height:598px;" version="1.1" viewBox="0 0 1240 598" width="1240px" zoomAndPan="magnify"><defs><filter height="300%" id="f1upd6ylnbth8x" width="300%" x="-1" y="-1"><feGaussianBlur result="blurOut" stdDeviation="2.0"/><feColorMatrix in="blurOut" result="blurOut2" type="matrix" values="0 0 0 0 0 0 0 0 0 0 0 0 0 0 0 0 0 0 .4 0"/><feOffset dx="4.0" dy="4.0" in="blurOut2" result="blurOut3"/><feBlend in="SourceGraphic" in2="blurOut3" mode="normal"/></filter></defs><g><!--MD5=[ee7e9a007a7c4d40c0679a27f272732d]
cluster tictactoe.controllers--><polygon fill="#FFFFFF" filter="url(#f1upd6ylnbth8x)" points="139.1354,6,315.1354,6,322.1354,28.2969,859.1354,28.2969,859.1354,487,139.1354,487,139.1354,6" style="stroke:#000000;stroke-width:1.5;"/><line style="stroke:#000000;stroke-width:1.5;" x1="139.1354" x2="322.1354" y1="28.2969" y2="28.2969"/><text fill="#000000" font-family="sans-serif" font-size="14" font-weight="bold" lengthAdjust="spacingAndGlyphs" textLength="170" x="143.1354" y="20.9951">tictactoe.controllers</text><!--MD5=[957eef6538bab7382edbc29d98579a60]
class tictactoe.controllers.Controller--><rect codeLine="8" fill="#FEFECE" filter="url(#f1upd6ylnbth8x)" height="86.4141" id="tictactoe.controllers.Controller" style="stroke:#A80036;stroke-width:1.5;" width="192" x="512.1354" y="175"/><ellipse cx="574.8854" cy="191" fill="#A9DCDF" rx="11" ry="11" style="stroke:#A80036;stroke-width:1.0;"/><path d="M576.9635,192.8125 L577.3542,193.7969 L576.9635,193.7969 C576.5104,193.7969 576.401,193.8125 576.2448,193.9219 C575.9948,194.0781 575.8385,194.3594 575.8385,194.6563 C575.8385,194.9219 575.9792,195.1719 576.1979,195.3281 C576.3385,195.4531 576.5417,195.5 576.9635,195.5 L579.3229,195.5 C579.6823,195.5 579.901,195.4688 580.0417,195.375 C580.2917,195.2344 580.4479,194.9375 580.4479,194.6563 C580.4479,194.375 580.3073,194.125 580.0885,193.9688 C579.9167,193.8281 579.7604,193.7969 579.2917,193.7969 L575.901,185.5938 L572.2292,185.5938 C571.776,185.5938 571.651,185.6094 571.4948,185.7031 C571.2448,185.875 571.0885,186.1563 571.0885,186.4375 C571.0885,186.7188 571.2292,186.9688 571.4479,187.1406 C571.6198,187.25 571.7917,187.2813 572.2292,187.2813 L573.3073,187.2813 L570.6667,193.7969 C570.2448,193.7969 570.0885,193.8125 569.9323,193.9219 C569.6823,194.0781 569.526,194.3594 569.526,194.6563 C569.526,195.2188 569.901,195.5 570.651,195.5 L572.9167,195.5 C573.276,195.5 573.4948,195.4688 573.6198,195.375 C573.8854,195.2344 574.026,194.9375 574.026,194.6563 C574.026,194.375 573.901,194.125 573.6823,193.9531 C573.5104,193.8281 573.3698,193.7969 572.9167,193.7969 L572.526,193.7969 L572.9167,192.8125 L576.9635,192.8125 Z M576.2604,191.1094 L573.5885,191.1094 L574.9323,187.8438 L576.2604,191.1094 Z " fill="#000000"/><text fill="#000000" font-family="sans-serif" font-size="12" font-style="italic" lengthAdjust="spacingAndGlyphs" textLength="58" x="595.3854" y="195.1543">Controller</text><line style="stroke:#A80036;stroke-width:1.5;" x1="513.1354" x2="703.1354" y1="207" y2="207"/><line style="stroke:#A80036;stroke-width:1.5;" x1="513.1354" x2="703.1354" y1="215" y2="215"/><polygon fill="#4177AF" points="523.1354,222,519.1354,228,527.1354,228" style="stroke:#1963A0;stroke-width:1.0;"/><text fill="#000000" font-family="sans-serif" font-size="11" lengthAdjust="spacingAndGlyphs" textLength="132" x="532.1354" y="229.2104">Controller(Game,State)</text><ellipse cx="523.1354" cy="238.8047" fill="#84BE84" rx="3" ry="3" style="stroke:#038048;stroke-width:1.0;"/><text fill="#000000" font-family="sans-serif" font-size="11" lengthAdjust="spacingAndGlyphs" textLength="166" x="532.1354" y="242.0151">getToken(Coordinate): Token</text><ellipse cx="523.1354" cy="251.6094" fill="#84BE84" rx="3" ry="3" style="stroke:#038048;stroke-width:1.0;"/><text fill="#000000" font-family="sans-serif" font-size="11" lengthAdjust="spacingAndGlyphs" textLength="34" x="532.1354" y="254.8198">next()</text><!--MD5=[3b8962fd5847b9038b2e29740dae8054]
class tictactoe.controllers.Logic--><rect codeLine="18" fill="#FEFECE" filter="url(#f1upd6ylnbth8x)" height="73.6094" id="tictactoe.controllers.Logic" style="stroke:#A80036;stroke-width:1.5;" width="170" x="598.1354" y="41"/><ellipse cx="662.8854" cy="57" fill="#ADD1B2" rx="11" ry="11" style="stroke:#A80036;stroke-width:1.0;"/><path d="M665.2292,52.6719 C664.2917,52.2344 663.6979,52.0938 662.8229,52.0938 C660.1979,52.0938 658.1979,54.1719 658.1979,56.8906 L658.1979,58.0156 C658.1979,60.5938 660.3073,62.4844 663.1979,62.4844 C664.4167,62.4844 665.5729,62.1875 666.3229,61.6406 C666.901,61.2344 667.2292,60.7813 667.2292,60.3906 C667.2292,59.9375 666.8385,59.5469 666.3698,59.5469 C666.151,59.5469 665.9479,59.625 665.7604,59.8125 C665.3073,60.2969 665.3073,60.2969 665.1198,60.3906 C664.6979,60.6563 664.0104,60.7813 663.2448,60.7813 C661.1979,60.7813 659.901,59.6875 659.901,57.9844 L659.901,56.8906 C659.901,55.1094 661.151,53.7969 662.8854,53.7969 C663.4635,53.7969 664.0729,53.9531 664.5417,54.2031 C665.026,54.4844 665.1979,54.7031 665.2917,55.1094 C665.3542,55.5156 665.3854,55.6406 665.526,55.7656 C665.6667,55.9063 665.901,56.0156 666.1198,56.0156 C666.3854,56.0156 666.651,55.875 666.8229,55.6563 C666.9323,55.5 666.9635,55.3125 666.9635,54.8906 L666.9635,53.4688 C666.9635,53.0313 666.9479,52.9063 666.8542,52.75 C666.6979,52.4844 666.4167,52.3438 666.1198,52.3438 C665.8229,52.3438 665.6198,52.4375 665.401,52.75 L665.2292,52.6719 Z " fill="#000000"/><text fill="#000000" font-family="sans-serif" font-size="12" lengthAdjust="spacingAndGlyphs" textLength="32" x="683.3854" y="61.1543">Logic</text><line style="stroke:#A80036;stroke-width:1.5;" x1="599.1354" x2="767.1354" y1="73" y2="73"/><line style="stroke:#A80036;stroke-width:1.5;" x1="599.1354" x2="767.1354" y1="81" y2="81"/><ellipse cx="609.1354" cy="92" fill="#84BE84" rx="3" ry="3" style="stroke:#038048;stroke-width:1.0;"/><text fill="#000000" font-family="sans-serif" font-size="11" lengthAdjust="spacingAndGlyphs" textLength="37" x="618.1354" y="95.2104">Logic()</text><ellipse cx="609.1354" cy="104.8047" fill="#84BE84" rx="3" ry="3" style="stroke:#038048;stroke-width:1.0;"/><text fill="#000000" font-family="sans-serif" font-size="11" lengthAdjust="spacingAndGlyphs" textLength="144" x="618.1354" y="108.0151">getController(): Controller</text><!--MD5=[b574e60c06c50037ff1b014277a67d62]
class tictactoe.controllers.PlayController--><rect codeLine="28" fill="#FEFECE" filter="url(#f1upd6ylnbth8x)" height="150.4375" id="tictactoe.controllers.PlayController" style="stroke:#A80036;stroke-width:1.5;" width="227" x="615.6354" y="321"/><ellipse cx="683.8854" cy="337" fill="#ADD1B2" rx="11" ry="11" style="stroke:#A80036;stroke-width:1.0;"/><path d="M686.2292,332.6719 C685.2917,332.2344 684.6979,332.0938 683.8229,332.0938 C681.1979,332.0938 679.1979,334.1719 679.1979,336.8906 L679.1979,338.0156 C679.1979,340.5938 681.3073,342.4844 684.1979,342.4844 C685.4167,342.4844 686.5729,342.1875 687.3229,341.6406 C687.901,341.2344 688.2292,340.7813 688.2292,340.3906 C688.2292,339.9375 687.8385,339.5469 687.3698,339.5469 C687.151,339.5469 686.9479,339.625 686.7604,339.8125 C686.3073,340.2969 686.3073,340.2969 686.1198,340.3906 C685.6979,340.6563 685.0104,340.7813 684.2448,340.7813 C682.1979,340.7813 680.901,339.6875 680.901,337.9844 L680.901,336.8906 C680.901,335.1094 682.151,333.7969 683.8854,333.7969 C684.4635,333.7969 685.0729,333.9531 685.5417,334.2031 C686.026,334.4844 686.1979,334.7031 686.2917,335.1094 C686.3542,335.5156 686.3854,335.6406 686.526,335.7656 C686.6667,335.9063 686.901,336.0156 687.1198,336.0156 C687.3854,336.0156 687.651,335.875 687.8229,335.6563 C687.9323,335.5 687.9635,335.3125 687.9635,334.8906 L687.9635,333.4688 C687.9635,333.0313 687.9479,332.9063 687.8542,332.75 C687.6979,332.4844 687.4167,332.3438 687.1198,332.3438 C686.8229,332.3438 686.6198,332.4375 686.401,332.75 L686.2292,332.6719 Z " fill="#000000"/><text fill="#000000" font-family="sans-serif" font-size="12" lengthAdjust="spacingAndGlyphs" textLength="82" x="704.3854" y="341.1543">PlayController</text><line style="stroke:#A80036;stroke-width:1.5;" x1="616.6354" x2="841.6354" y1="353" y2="353"/><line style="stroke:#A80036;stroke-width:1.5;" x1="616.6354" x2="841.6354" y1="361" y2="361"/><ellipse cx="626.6354" cy="372" fill="#84BE84" rx="3" ry="3" style="stroke:#038048;stroke-width:1.0;"/><text fill="#000000" font-family="sans-serif" font-size="11" lengthAdjust="spacingAndGlyphs" textLength="155" x="635.6354" y="375.2104">PlayController(Game,State)</text><ellipse cx="626.6354" cy="384.8047" fill="#84BE84" rx="3" ry="3" style="stroke:#038048;stroke-width:1.0;"/><text fill="#000000" font-family="sans-serif" font-size="11" lengthAdjust="spacingAndGlyphs" textLength="34" x="635.6354" y="388.0151">next()</text><ellipse cx="626.6354" cy="397.6094" fill="#84BE84" rx="3" ry="3" style="stroke:#038048;stroke-width:1.0;"/><text fill="#000000" font-family="sans-serif" font-size="11" lengthAdjust="spacingAndGlyphs" textLength="159" x="635.6354" y="400.8198">isBoardComplete(): boolean</text><ellipse cx="626.6354" cy="410.4141" fill="#84BE84" rx="3" ry="3" style="stroke:#038048;stroke-width:1.0;"/><text fill="#000000" font-family="sans-serif" font-size="11" lengthAdjust="spacingAndGlyphs" textLength="128" x="635.6354" y="413.6245">isTicTacToe(): boolean</text><ellipse cx="626.6354" cy="423.2188" fill="#84BE84" rx="3" ry="3" style="stroke:#038048;stroke-width:1.0;"/><text fill="#000000" font-family="sans-serif" font-size="11" lengthAdjust="spacingAndGlyphs" textLength="104" x="635.6354" y="426.4292">getToken(): Token</text><ellipse cx="626.6354" cy="436.0234" fill="#84BE84" rx="3" ry="3" style="stroke:#038048;stroke-width:1.0;"/><text fill="#000000" font-family="sans-serif" font-size="11" lengthAdjust="spacingAndGlyphs" textLength="96" x="635.6354" y="439.2339">isUser(): boolean</text><ellipse cx="626.6354" cy="448.8281" fill="#84BE84" rx="3" ry="3" style="stroke:#038048;stroke-width:1.0;"/><text fill="#000000" font-family="sans-serif" font-size="11" lengthAdjust="spacingAndGlyphs" textLength="121" x="635.6354" y="452.0386">put(Coordinate): Error</text><ellipse cx="626.6354" cy="461.6328" fill="#84BE84" rx="3" ry="3" style="stroke:#038048;stroke-width:1.0;"/><text fill="#000000" font-family="sans-serif" font-size="11" lengthAdjust="spacingAndGlyphs" textLength="201" x="635.6354" y="464.8433">move(Coordinate,Coordinate): Error</text><!--MD5=[d75e1ad11e6a17be2ba08b218e20e3d7]
class tictactoe.controllers.ResumeController--><rect codeLine="45" fill="#FEFECE" filter="url(#f1upd6ylnbth8x)" height="73.6094" id="tictactoe.controllers.ResumeController" style="stroke:#A80036;stroke-width:1.5;" width="205" x="155.6354" y="359"/><ellipse cx="200.3854" cy="375" fill="#ADD1B2" rx="11" ry="11" style="stroke:#A80036;stroke-width:1.0;"/><path d="M202.7292,370.6719 C201.7917,370.2344 201.1979,370.0938 200.3229,370.0938 C197.6979,370.0938 195.6979,372.1719 195.6979,374.8906 L195.6979,376.0156 C195.6979,378.5938 197.8073,380.4844 200.6979,380.4844 C201.9167,380.4844 203.0729,380.1875 203.8229,379.6406 C204.401,379.2344 204.7292,378.7813 204.7292,378.3906 C204.7292,377.9375 204.3385,377.5469 203.8698,377.5469 C203.651,377.5469 203.4479,377.625 203.2604,377.8125 C202.8073,378.2969 202.8073,378.2969 202.6198,378.3906 C202.1979,378.6563 201.5104,378.7813 200.7448,378.7813 C198.6979,378.7813 197.401,377.6875 197.401,375.9844 L197.401,374.8906 C197.401,373.1094 198.651,371.7969 200.3854,371.7969 C200.9635,371.7969 201.5729,371.9531 202.0417,372.2031 C202.526,372.4844 202.6979,372.7031 202.7917,373.1094 C202.8542,373.5156 202.8854,373.6406 203.026,373.7656 C203.1667,373.9063 203.401,374.0156 203.6198,374.0156 C203.8854,374.0156 204.151,373.875 204.3229,373.6563 C204.4323,373.5 204.4635,373.3125 204.4635,372.8906 L204.4635,371.4688 C204.4635,371.0313 204.4479,370.9063 204.3542,370.75 C204.1979,370.4844 203.9167,370.3438 203.6198,370.3438 C203.3229,370.3438 203.1198,370.4375 202.901,370.75 L202.7292,370.6719 Z " fill="#000000"/><text fill="#000000" font-family="sans-serif" font-size="12" lengthAdjust="spacingAndGlyphs" textLength="107" x="220.8854" y="379.1543">ResumeController</text><line style="stroke:#A80036;stroke-width:1.5;" x1="156.6354" x2="359.6354" y1="391" y2="391"/><line style="stroke:#A80036;stroke-width:1.5;" x1="156.6354" x2="359.6354" y1="399" y2="399"/><ellipse cx="166.6354" cy="410" fill="#84BE84" rx="3" ry="3" style="stroke:#038048;stroke-width:1.0;"/><text fill="#000000" font-family="sans-serif" font-size="11" lengthAdjust="spacingAndGlyphs" textLength="179" x="175.6354" y="413.2104">ResumeController(Game,State)</text><ellipse cx="166.6354" cy="422.8047" fill="#84BE84" rx="3" ry="3" style="stroke:#038048;stroke-width:1.0;"/><text fill="#000000" font-family="sans-serif" font-size="11" lengthAdjust="spacingAndGlyphs" textLength="52" x="175.6354" y="426.0151">resume()</text><!--MD5=[8ede4dbfb3b498095887802b64b699f0]
class tictactoe.controllers.StartController--><rect codeLine="53" fill="#FEFECE" filter="url(#f1upd6ylnbth8x)" height="86.4141" id="tictactoe.controllers.StartController" style="stroke:#A80036;stroke-width:1.5;" width="185" x="395.6354" y="353"/><ellipse cx="440.3854" cy="369" fill="#ADD1B2" rx="11" ry="11" style="stroke:#A80036;stroke-width:1.0;"/><path d="M442.7292,364.6719 C441.7917,364.2344 441.1979,364.0938 440.3229,364.0938 C437.6979,364.0938 435.6979,366.1719 435.6979,368.8906 L435.6979,370.0156 C435.6979,372.5938 437.8073,374.4844 440.6979,374.4844 C441.9167,374.4844 443.0729,374.1875 443.8229,373.6406 C444.401,373.2344 444.7292,372.7813 444.7292,372.3906 C444.7292,371.9375 444.3385,371.5469 443.8698,371.5469 C443.651,371.5469 443.4479,371.625 443.2604,371.8125 C442.8073,372.2969 442.8073,372.2969 442.6198,372.3906 C442.1979,372.6563 441.5104,372.7813 440.7448,372.7813 C438.6979,372.7813 437.401,371.6875 437.401,369.9844 L437.401,368.8906 C437.401,367.1094 438.651,365.7969 440.3854,365.7969 C440.9635,365.7969 441.5729,365.9531 442.0417,366.2031 C442.526,366.4844 442.6979,366.7031 442.7917,367.1094 C442.8542,367.5156 442.8854,367.6406 443.026,367.7656 C443.1667,367.9063 443.401,368.0156 443.6198,368.0156 C443.8854,368.0156 444.151,367.875 444.3229,367.6563 C444.4323,367.5 444.4635,367.3125 444.4635,366.8906 L444.4635,365.4688 C444.4635,365.0313 444.4479,364.9063 444.3542,364.75 C444.1979,364.4844 443.9167,364.3438 443.6198,364.3438 C443.3229,364.3438 443.1198,364.4375 442.901,364.75 L442.7292,364.6719 Z " fill="#000000"/><text fill="#000000" font-family="sans-serif" font-size="12" lengthAdjust="spacingAndGlyphs" textLength="87" x="460.8854" y="373.1543">StartController</text><line style="stroke:#A80036;stroke-width:1.5;" x1="396.6354" x2="579.6354" y1="385" y2="385"/><line style="stroke:#A80036;stroke-width:1.5;" x1="396.6354" x2="579.6354" y1="393" y2="393"/><ellipse cx="406.6354" cy="404" fill="#84BE84" rx="3" ry="3" style="stroke:#038048;stroke-width:1.0;"/><text fill="#000000" font-family="sans-serif" font-size="11" lengthAdjust="spacingAndGlyphs" textLength="159" x="415.6354" y="407.2104">StartController(Game,State)</text><ellipse cx="406.6354" cy="416.8047" fill="#84BE84" rx="3" ry="3" style="stroke:#038048;stroke-width:1.0;"/><text fill="#000000" font-family="sans-serif" font-size="11" lengthAdjust="spacingAndGlyphs" textLength="72" x="415.6354" y="420.0151">setUsers(int)</text><ellipse cx="406.6354" cy="429.6094" fill="#84BE84" rx="3" ry="3" style="stroke:#038048;stroke-width:1.0;"/><text fill="#000000" font-family="sans-serif" font-size="11" lengthAdjust="spacingAndGlyphs" textLength="112" x="415.6354" y="432.8198">getMaxPlayers(): int</text><!--MD5=[b6dcce5e5ef3c84b0b048d11301373dd]
class Game--><rect codeLine="1" fill="#FEFECE" filter="url(#f1upd6ylnbth8x)" height="53.9375" id="Game" style="stroke:#A80036;stroke-width:1.5;" width="135" x="723.6354" y="531"/><ellipse cx="738.6354" cy="549.9688" fill="#ADD1B2" rx="11" ry="11" style="stroke:#A80036;stroke-width:1.0;"/><path d="M740.9792,545.6406 C740.0417,545.2031 739.4479,545.0625 738.5729,545.0625 C735.9479,545.0625 733.9479,547.1406 733.9479,549.8594 L733.9479,550.9844 C733.9479,553.5625 736.0573,555.4531 738.9479,555.4531 C740.1667,555.4531 741.3229,555.1563 742.0729,554.6094 C742.651,554.2031 742.9792,553.75 742.9792,553.3594 C742.9792,552.9063 742.5885,552.5156 742.1198,552.5156 C741.901,552.5156 741.6979,552.5938 741.5104,552.7813 C741.0573,553.2656 741.0573,553.2656 740.8698,553.3594 C740.4479,553.625 739.7604,553.75 738.9948,553.75 C736.9479,553.75 735.651,552.6563 735.651,550.9531 L735.651,549.8594 C735.651,548.0781 736.901,546.7656 738.6354,546.7656 C739.2135,546.7656 739.8229,546.9219 740.2917,547.1719 C740.776,547.4531 740.9479,547.6719 741.0417,548.0781 C741.1042,548.4844 741.1354,548.6094 741.276,548.7344 C741.4167,548.875 741.651,548.9844 741.8698,548.9844 C742.1354,548.9844 742.401,548.8438 742.5729,548.625 C742.6823,548.4688 742.7135,548.2813 742.7135,547.8594 L742.7135,546.4375 C742.7135,546 742.6979,545.875 742.6042,545.7188 C742.4479,545.4531 742.1667,545.3125 741.8698,545.3125 C741.5729,545.3125 741.3698,545.4063 741.151,545.7188 L740.9792,545.6406 Z " fill="#000000"/><text fill="#000000" font-family="sans-serif" font-size="12" lengthAdjust="spacingAndGlyphs" textLength="103" x="752.6354" y="547.1387">tictactoe.models.</text><text fill="#000000" font-family="sans-serif" font-size="12" lengthAdjust="spacingAndGlyphs" textLength="35" x="786.6354" y="561.1074">Game</text><line style="stroke:#A80036;stroke-width:1.5;" x1="724.6354" x2="857.6354" y1="568.9375" y2="568.9375"/><line style="stroke:#A80036;stroke-width:1.5;" x1="724.6354" x2="857.6354" y1="576.9375" y2="576.9375"/><!--MD5=[8c7d7abc12e214c3cc12c9ab70edee11]
class Coordinate--><rect codeLine="2" fill="#FEFECE" filter="url(#f1upd6ylnbth8x)" height="53.9375" id="Coordinate" style="stroke:#A80036;stroke-width:1.5;" width="135" x="382.6354" y="531"/><ellipse cx="397.6354" cy="549.9688" fill="#ADD1B2" rx="11" ry="11" style="stroke:#A80036;stroke-width:1.0;"/><path d="M399.9792,545.6406 C399.0417,545.2031 398.4479,545.0625 397.5729,545.0625 C394.9479,545.0625 392.9479,547.1406 392.9479,549.8594 L392.9479,550.9844 C392.9479,553.5625 395.0573,555.4531 397.9479,555.4531 C399.1667,555.4531 400.3229,555.1563 401.0729,554.6094 C401.651,554.2031 401.9792,553.75 401.9792,553.3594 C401.9792,552.9063 401.5885,552.5156 401.1198,552.5156 C400.901,552.5156 400.6979,552.5938 400.5104,552.7813 C400.0573,553.2656 400.0573,553.2656 399.8698,553.3594 C399.4479,553.625 398.7604,553.75 397.9948,553.75 C395.9479,553.75 394.651,552.6563 394.651,550.9531 L394.651,549.8594 C394.651,548.0781 395.901,546.7656 397.6354,546.7656 C398.2135,546.7656 398.8229,546.9219 399.2917,547.1719 C399.776,547.4531 399.9479,547.6719 400.0417,548.0781 C400.1042,548.4844 400.1354,548.6094 400.276,548.7344 C400.4167,548.875 400.651,548.9844 400.8698,548.9844 C401.1354,548.9844 401.401,548.8438 401.5729,548.625 C401.6823,548.4688 401.7135,548.2813 401.7135,547.8594 L401.7135,546.4375 C401.7135,546 401.6979,545.875 401.6042,545.7188 C401.4479,545.4531 401.1667,545.3125 400.8698,545.3125 C400.5729,545.3125 400.3698,545.4063 400.151,545.7188 L399.9792,545.6406 Z " fill="#000000"/><text fill="#000000" font-family="sans-serif" font-size="12" lengthAdjust="spacingAndGlyphs" textLength="103" x="411.6354" y="547.1387">tictactoe.models.</text><text fill="#000000" font-family="sans-serif" font-size="12" lengthAdjust="spacingAndGlyphs" textLength="66" x="430.1354" y="561.1074">Coordinate</text><line style="stroke:#A80036;stroke-width:1.5;" x1="383.6354" x2="516.6354" y1="568.9375" y2="568.9375"/><line style="stroke:#A80036;stroke-width:1.5;" x1="383.6354" x2="516.6354" y1="576.9375" y2="576.9375"/><!--MD5=[b8cfd8c4119a3b0a7a46bfc5fc780f85]
class Error--><rect codeLine="3" fill="#FEFECE" filter="url(#f1upd6ylnbth8x)" height="53.9375" id="Error" style="stroke:#A80036;stroke-width:1.5;" width="124" x="564.1354" y="531"/><ellipse cx="579.1354" cy="549.9688" fill="#ADD1B2" rx="11" ry="11" style="stroke:#A80036;stroke-width:1.0;"/><path d="M581.4792,545.6406 C580.5417,545.2031 579.9479,545.0625 579.0729,545.0625 C576.4479,545.0625 574.4479,547.1406 574.4479,549.8594 L574.4479,550.9844 C574.4479,553.5625 576.5573,555.4531 579.4479,555.4531 C580.6667,555.4531 581.8229,555.1563 582.5729,554.6094 C583.151,554.2031 583.4792,553.75 583.4792,553.3594 C583.4792,552.9063 583.0885,552.5156 582.6198,552.5156 C582.401,552.5156 582.1979,552.5938 582.0104,552.7813 C581.5573,553.2656 581.5573,553.2656 581.3698,553.3594 C580.9479,553.625 580.2604,553.75 579.4948,553.75 C577.4479,553.75 576.151,552.6563 576.151,550.9531 L576.151,549.8594 C576.151,548.0781 577.401,546.7656 579.1354,546.7656 C579.7135,546.7656 580.3229,546.9219 580.7917,547.1719 C581.276,547.4531 581.4479,547.6719 581.5417,548.0781 C581.6042,548.4844 581.6354,548.6094 581.776,548.7344 C581.9167,548.875 582.151,548.9844 582.3698,548.9844 C582.6354,548.9844 582.901,548.8438 583.0729,548.625 C583.1823,548.4688 583.2135,548.2813 583.2135,547.8594 L583.2135,546.4375 C583.2135,546 583.1979,545.875 583.1042,545.7188 C582.9479,545.4531 582.6667,545.3125 582.3698,545.3125 C582.0729,545.3125 581.8698,545.4063 581.651,545.7188 L581.4792,545.6406 Z " fill="#000000"/><text fill="#000000" font-family="sans-serif" font-size="12" lengthAdjust="spacingAndGlyphs" textLength="92" x="593.1354" y="547.1387">tictactoe.types.</text><text fill="#000000" font-family="sans-serif" font-size="12" lengthAdjust="spacingAndGlyphs" textLength="30" x="624.1354" y="561.1074">Error</text><line style="stroke:#A80036;stroke-width:1.5;" x1="565.1354" x2="687.1354" y1="568.9375" y2="568.9375"/><line style="stroke:#A80036;stroke-width:1.5;" x1="565.1354" x2="687.1354" y1="576.9375" y2="576.9375"/><!--MD5=[d8c8cfd5ca149094f5b67f9f607a5ec7]
class Token--><rect codeLine="4" fill="#FEFECE" filter="url(#f1upd6ylnbth8x)" height="53.9375" id="Token" style="stroke:#A80036;stroke-width:1.5;" width="124" x="899.1354" y="531"/><ellipse cx="914.1354" cy="549.9688" fill="#ADD1B2" rx="11" ry="11" style="stroke:#A80036;stroke-width:1.0;"/><path d="M916.4792,545.6406 C915.5417,545.2031 914.9479,545.0625 914.0729,545.0625 C911.4479,545.0625 909.4479,547.1406 909.4479,549.8594 L909.4479,550.9844 C909.4479,553.5625 911.5573,555.4531 914.4479,555.4531 C915.6667,555.4531 916.8229,555.1563 917.5729,554.6094 C918.151,554.2031 918.4792,553.75 918.4792,553.3594 C918.4792,552.9063 918.0885,552.5156 917.6198,552.5156 C917.401,552.5156 917.1979,552.5938 917.0104,552.7813 C916.5573,553.2656 916.5573,553.2656 916.3698,553.3594 C915.9479,553.625 915.2604,553.75 914.4948,553.75 C912.4479,553.75 911.151,552.6563 911.151,550.9531 L911.151,549.8594 C911.151,548.0781 912.401,546.7656 914.1354,546.7656 C914.7135,546.7656 915.3229,546.9219 915.7917,547.1719 C916.276,547.4531 916.4479,547.6719 916.5417,548.0781 C916.6042,548.4844 916.6354,548.6094 916.776,548.7344 C916.9167,548.875 917.151,548.9844 917.3698,548.9844 C917.6354,548.9844 917.901,548.8438 918.0729,548.625 C918.1823,548.4688 918.2135,548.2813 918.2135,547.8594 L918.2135,546.4375 C918.2135,546 918.1979,545.875 918.1042,545.7188 C917.9479,545.4531 917.6667,545.3125 917.3698,545.3125 C917.0729,545.3125 916.8698,545.4063 916.651,545.7188 L916.4792,545.6406 Z " fill="#000000"/><text fill="#000000" font-family="sans-serif" font-size="12" lengthAdjust="spacingAndGlyphs" textLength="92" x="928.1354" y="547.1387">tictactoe.types.</text><text fill="#000000" font-family="sans-serif" font-size="12" lengthAdjust="spacingAndGlyphs" textLength="37" x="955.6354" y="561.1074">Token</text><line style="stroke:#A80036;stroke-width:1.5;" x1="900.1354" x2="1022.1354" y1="568.9375" y2="568.9375"/><line style="stroke:#A80036;stroke-width:1.5;" x1="900.1354" x2="1022.1354" y1="576.9375" y2="576.9375"/><!--MD5=[60d6b92408f98aed8df94d5c6e04aa63]
class State--><rect codeLine="5" fill="#FEFECE" filter="url(#f1upd6ylnbth8x)" height="53.9375" id="State" style="stroke:#A80036;stroke-width:1.5;" width="135" x="190.6354" y="531"/><ellipse cx="205.6354" cy="549.9688" fill="#ADD1B2" rx="11" ry="11" style="stroke:#A80036;stroke-width:1.0;"/><path d="M207.9792,545.6406 C207.0417,545.2031 206.4479,545.0625 205.5729,545.0625 C202.9479,545.0625 200.9479,547.1406 200.9479,549.8594 L200.9479,550.9844 C200.9479,553.5625 203.0573,555.4531 205.9479,555.4531 C207.1667,555.4531 208.3229,555.1563 209.0729,554.6094 C209.651,554.2031 209.9792,553.75 209.9792,553.3594 C209.9792,552.9063 209.5885,552.5156 209.1198,552.5156 C208.901,552.5156 208.6979,552.5938 208.5104,552.7813 C208.0573,553.2656 208.0573,553.2656 207.8698,553.3594 C207.4479,553.625 206.7604,553.75 205.9948,553.75 C203.9479,553.75 202.651,552.6563 202.651,550.9531 L202.651,549.8594 C202.651,548.0781 203.901,546.7656 205.6354,546.7656 C206.2135,546.7656 206.8229,546.9219 207.2917,547.1719 C207.776,547.4531 207.9479,547.6719 208.0417,548.0781 C208.1042,548.4844 208.1354,548.6094 208.276,548.7344 C208.4167,548.875 208.651,548.9844 208.8698,548.9844 C209.1354,548.9844 209.401,548.8438 209.5729,548.625 C209.6823,548.4688 209.7135,548.2813 209.7135,547.8594 L209.7135,546.4375 C209.7135,546 209.6979,545.875 209.6042,545.7188 C209.4479,545.4531 209.1667,545.3125 208.8698,545.3125 C208.5729,545.3125 208.3698,545.4063 208.151,545.7188 L207.9792,545.6406 Z " fill="#000000"/><text fill="#000000" font-family="sans-serif" font-size="12" lengthAdjust="spacingAndGlyphs" textLength="103" x="219.6354" y="547.1387">tictactoe.models.</text><text fill="#000000" font-family="sans-serif" font-size="12" lengthAdjust="spacingAndGlyphs" textLength="31" x="255.6354" y="561.1074">State</text><line style="stroke:#A80036;stroke-width:1.5;" x1="191.6354" x2="324.6354" y1="568.9375" y2="568.9375"/><line style="stroke:#A80036;stroke-width:1.5;" x1="191.6354" x2="324.6354" y1="576.9375" y2="576.9375"/><!--MD5=[167506e288131cdf3986fedef83acd94]
class StateValue--><rect codeLine="6" fill="#FEFECE" filter="url(#f1upd6ylnbth8x)" height="53.9375" id="StateValue" style="stroke:#A80036;stroke-width:1.5;" width="135" x="1091.6324" y="191"/><ellipse cx="1106.6324" cy="209.9688" fill="#ADD1B2" rx="11" ry="11" style="stroke:#A80036;stroke-width:1.0;"/><path d="M1108.9762,205.6406 C1108.0387,205.2031 1107.4449,205.0625 1106.5699,205.0625 C1103.9449,205.0625 1101.9449,207.1406 1101.9449,209.8594 L1101.9449,210.9844 C1101.9449,213.5625 1104.0543,215.4531 1106.9449,215.4531 C1108.1637,215.4531 1109.3199,215.1563 1110.0699,214.6094 C1110.648,214.2031 1110.9762,213.75 1110.9762,213.3594 C1110.9762,212.9063 1110.5855,212.5156 1110.1168,212.5156 C1109.898,212.5156 1109.6949,212.5938 1109.5074,212.7813 C1109.0543,213.2656 1109.0543,213.2656 1108.8668,213.3594 C1108.4449,213.625 1107.7574,213.75 1106.9918,213.75 C1104.9449,213.75 1103.648,212.6563 1103.648,210.9531 L1103.648,209.8594 C1103.648,208.0781 1104.898,206.7656 1106.6324,206.7656 C1107.2105,206.7656 1107.8199,206.9219 1108.2887,207.1719 C1108.773,207.4531 1108.9449,207.6719 1109.0387,208.0781 C1109.1012,208.4844 1109.1324,208.6094 1109.273,208.7344 C1109.4137,208.875 1109.648,208.9844 1109.8668,208.9844 C1110.1324,208.9844 1110.398,208.8438 1110.5699,208.625 C1110.6793,208.4688 1110.7105,208.2813 1110.7105,207.8594 L1110.7105,206.4375 C1110.7105,206 1110.6949,205.875 1110.6012,205.7188 C1110.4449,205.4531 1110.1637,205.3125 1109.8668,205.3125 C1109.5699,205.3125 1109.3668,205.4063 1109.148,205.7188 L1108.9762,205.6406 Z " fill="#000000"/><text fill="#000000" font-family="sans-serif" font-size="12" lengthAdjust="spacingAndGlyphs" textLength="103" x="1120.6324" y="207.1387">tictactoe.models.</text><text fill="#000000" font-family="sans-serif" font-size="12" lengthAdjust="spacingAndGlyphs" textLength="64" x="1140.1324" y="221.1074">StateValue</text><line style="stroke:#A80036;stroke-width:1.5;" x1="1092.6324" x2="1225.6324" y1="228.9375" y2="228.9375"/><line style="stroke:#A80036;stroke-width:1.5;" x1="1092.6324" x2="1225.6324" y1="236.9375" y2="236.9375"/><!--MD5=[6068204d1fdba78d641ceb3415898910]
link tictactoe.controllers.Controller to Game--><path codeLine="13" d="M716.016,234.2217 C716.016,234.2217 828.0874,273.455 860.1354,321 C903.3594,385.126 891.6254,424.369 860.1354,495 C855.7054,504.9343 848.8114,513.9422 841.0604,521.8211 " fill="none" id="tictactoe.controllers.Controller-Game" style="stroke:#A80036;stroke-width:1.0;"/><polygon fill="#A80036" points="831.2884,530.8579,840.6117,527.6835,834.9591,527.4629,835.1797,521.8104,831.2884,530.8579" style="stroke:#A80036;stroke-width:1.0;"/><line style="stroke:#A80036;stroke-width:1.0;" x1="834.9591" x2="840.8329" y1="527.4629" y2="522.0311"/><polygon fill="#A80036" points="704.3544,231.392,709.242,236.694,716.016,234.2217,711.1284,228.9196,704.3544,231.392" style="stroke:#A80036;stroke-width:1.0;"/><!--MD5=[dfe8d9a445fb1aefc03baf228bcfa309]
link tictactoe.controllers.Controller to State--><path codeLine="14" d="M500.0591,224.8009 C500.0591,224.8009 144.3134,259.886 94.135,321 C45.0618,380.768 50.1712,431.379 94.135,495 C113.1462,522.5116 146.0444,537.8285 177.4084,546.3506 " fill="none" id="tictactoe.controllers.Controller-State" style="stroke:#A80036;stroke-width:1.0;"/><polygon fill="#A80036" points="190.2454,549.5003,182.4575,543.4713,185.3894,548.3091,180.5516,551.2409,190.2454,549.5003" style="stroke:#A80036;stroke-width:1.0;"/><line style="stroke:#A80036;stroke-width:1.0;" x1="185.3894" x2="177.6194" y1="548.3091" y2="546.4023"/><polygon fill="#A80036" points="512.0294,223.957,505.763,220.3889,500.0591,224.8009,506.3256,228.369,512.0294,223.957" style="stroke:#A80036;stroke-width:1.0;"/><!--MD5=[342bd2846cb7233760b6e78f5d6e228f]
link tictactoe.controllers.Controller to Coordinate--><path codeLine="15" d="M512.1104,225.947 C388.5264,237.115 184.1884,263.88 138.1354,321 C89.5959,381.203 88.4055,435.777 138.1354,495 C167.8784,530.4213 297.8614,521.5345 343.1354,531 C354.2684,533.3278 366.0074,535.978 377.4684,538.6751 " fill="none" id="tictactoe.controllers.Controller-to-Coordinate" style="stroke:#A80036;stroke-width:1.0;stroke-dasharray:7.0,7.0;"/><polygon fill="#A80036" points="382.3604,539.833,374.5234,533.8679,377.4948,538.6816,372.6811,541.6529,382.3604,539.833" style="stroke:#A80036;stroke-width:1.0;"/><!--MD5=[46f9f2e2fca1b0ad7cf51ac0d9d0f196]
link tictactoe.controllers.Controller to Token--><path codeLine="16" d="M704.3834,229.15 C768.4394,240.905 849.7764,266.271 900.1354,321 C953.0794,378.539 961.3754,475.958 961.8924,525.717 " fill="none" id="tictactoe.controllers.Controller-to-Token" style="stroke:#A80036;stroke-width:1.0;stroke-dasharray:7.0,7.0;"/><polygon fill="#A80036" points="961.9194,530.9622,965.8723,521.9414,961.8933,525.9623,957.8724,521.9832,961.9194,530.9622" style="stroke:#A80036;stroke-width:1.0;"/><!--MD5=[44e666a769b5edea767f63d227a49329]
link tictactoe.controllers.Logic to Game--><path codeLine="23" d="M741.6295,122.837 C741.6295,122.837 868.7474,238.98 900.1354,321 C927.7744,393.225 939.0164,428.152 900.1354,495 C892.8854,507.4631 882.0924,517.6272 870.0744,525.8476 " fill="none" id="tictactoe.controllers.Logic-Game" style="stroke:#A80036;stroke-width:1.0;"/><polygon fill="#A80036" points="858.7584,532.8608,868.5155,531.5194,863.0083,530.2267,864.301,524.7195,858.7584,532.8608" style="stroke:#A80036;stroke-width:1.0;"/><line style="stroke:#A80036;stroke-width:1.0;" x1="863.0083" x2="869.8084" y1="530.2267" y2="526.0122"/><polygon fill="#A80036" points="732.3234,115.261,734.4511,122.151,741.6295,122.837,739.5018,115.9469,732.3234,115.261" style="stroke:#A80036;stroke-width:1.0;"/><!--MD5=[b570711734804a279ee943a47a4c4fab]
link tictactoe.controllers.Logic to State--><path codeLine="24" d="M586.0267,83.8448 C586.0267,83.8448 172.8324,145.44 52.135,321 C8.3233,384.726 6,432.935 52.135,495 C67.5917,515.7936 126.8014,532.2593 177.7994,542.9807 " fill="none" id="tictactoe.controllers.Logic-State" style="stroke:#A80036;stroke-width:1.0;"/><polygon fill="#A80036" points="190.5564,545.5819,182.5369,539.8645,185.6572,544.583,180.9387,547.7033,190.5564,545.5819" style="stroke:#A80036;stroke-width:1.0;"/><line style="stroke:#A80036;stroke-width:1.0;" x1="185.6572" x2="177.8184" y1="544.583" y2="542.9845"/><polygon fill="#A80036" points="597.9824,82.815,591.6613,79.3447,586.0267,83.8448,592.3478,87.3152,597.9824,82.815" style="stroke:#A80036;stroke-width:1.0;"/><!--MD5=[69f3bd2f5484c60601538f4b457ba790]
link tictactoe.controllers.Logic to StateValue--><path codeLine="25" d="M780.0563,98.6599 C780.0563,98.6599 969.9344,142.571 1064.1324,175 C1073.3824,178.184 1082.9724,181.903 1092.3524,185.789 " fill="none" id="tictactoe.controllers.Logic-StateValue" style="stroke:#A80036;stroke-width:1.0;"/><polygon fill="#A80036" points="1104.5124,190.962,1097.8023,183.7526,1099.913,189.001,1094.6647,191.1116,1104.5124,190.962" style="stroke:#A80036;stroke-width:1.0;"/><line style="stroke:#A80036;stroke-width:1.0;" x1="1099.913" x2="1092.5474" y1="189.001" y2="185.8715"/><polygon fill="#A80036" points="768.3264,96.128,773.3474,101.3039,780.0563,98.6599,775.0353,93.484,768.3264,96.128" style="stroke:#A80036;stroke-width:1.0;"/><!--MD5=[12d6b2ee7a1b6faf9fe809f483963ab7]
link tictactoe.controllers.Logic to tictactoe.controllers.Controller--><path codeLine="26" d="M657.6983,125.801 C657.6983,125.801 643.9964,151.014 637.5094,162.951 " fill="none" id="tictactoe.controllers.Logic-tictactoe.controllers.Controller" style="stroke:#A80036;stroke-width:1.0;"/><polygon fill="#A80036" points="631.1664,174.622,638.9785,168.6244,633.5539,170.2289,631.9494,164.8043,631.1664,174.622" style="stroke:#A80036;stroke-width:1.0;"/><line style="stroke:#A80036;stroke-width:1.0;" x1="633.5539" x2="637.3739" y1="170.2289" y2="163.2005"/><polygon fill="#A80036" points="663.4294,115.258,657.0495,118.6191,657.6983,125.801,664.0782,122.4399,663.4294,115.258" style="stroke:#A80036;stroke-width:1.0;"/><!--MD5=[5700b97431232c099330215bddfcc855]
reverse link tictactoe.controllers.Controller to tictactoe.controllers.PlayController--><path codeLine="38" d="M648.6334,277.907 C658.1004,291.677 668.3034,306.517 678.1594,320.854 " fill="none" id="tictactoe.controllers.Controller-backto-tictactoe.controllers.PlayController" style="stroke:#A80036;stroke-width:1.0;"/><polygon fill="none" points="642.6794,281.603,637.1174,261.156,654.2164,273.672,642.6794,281.603" style="stroke:#A80036;stroke-width:1.0;"/><!--MD5=[fe83eea10e25d043c5deb7f71d3efefa]
link tictactoe.controllers.PlayController to Coordinate--><path codeLine="39" d="M635.8504,471.047 C623.4724,479.593 610.7094,487.8088 598.1354,495 C574.4434,508.5489 547.2104,520.8078 522.6154,530.7797 " fill="none" id="tictactoe.controllers.PlayController-to-Coordinate" style="stroke:#A80036;stroke-width:1.0;stroke-dasharray:7.0,7.0;"/><polygon fill="#A80036" points="517.7334,532.7433,527.5759,533.0961,522.3723,530.8776,524.5908,525.6739,517.7334,532.7433" style="stroke:#A80036;stroke-width:1.0;"/><!--MD5=[17f566e5019e25cb4796a68af68f3905]
link tictactoe.controllers.PlayController to Error--><path codeLine="40" d="M681.2534,471.379 C668.6724,490.9228 655.8014,510.9161 645.6644,526.6625 " fill="none" id="tictactoe.controllers.PlayController-to-Error" style="stroke:#A80036;stroke-width:1.0;stroke-dasharray:7.0,7.0;"/><polygon fill="#A80036" points="642.8804,530.9873,651.1153,525.5848,645.5868,526.7831,644.3885,521.2546,642.8804,530.9873" style="stroke:#A80036;stroke-width:1.0;"/><!--MD5=[ba4453740163cde41a3c637e3b1e755a]
link tictactoe.controllers.PlayController to Game--><path codeLine="41" d="M757.9574,471.379 C765.4654,490.7558 773.1454,510.5744 779.2224,526.2579 " fill="none" id="tictactoe.controllers.PlayController-to-Game" style="stroke:#A80036;stroke-width:1.0;stroke-dasharray:7.0,7.0;"/><polygon fill="#A80036" points="781.0554,530.9873,781.5338,521.1501,779.249,526.325,774.0741,524.0402,781.0554,530.9873" style="stroke:#A80036;stroke-width:1.0;"/><!--MD5=[2ada365b675ffc8168b7291fcf650ab7]
link tictactoe.controllers.PlayController to Token--><path codeLine="42" d="M836.6454,471.145 C865.8804,491.3074 895.8384,511.9681 919.0384,527.968 " fill="none" id="tictactoe.controllers.PlayController-to-Token" style="stroke:#A80036;stroke-width:1.0;stroke-dasharray:7.0,7.0;"/><polygon fill="#A80036" points="923.2904,530.9002,918.1522,522.4979,919.1743,528.0616,913.6105,529.0837,923.2904,530.9002" style="stroke:#A80036;stroke-width:1.0;"/><!--MD5=[df6061b2bf3aad39d3892863768243a0]
link tictactoe.controllers.PlayController to State--><path codeLine="43" d="M641.7834,471.219 C627.8344,480.391 613.0604,488.7285 598.1354,495 C501.5324,535.5912 467.9164,510.6107 365.1354,531 C353.9774,533.2133 342.2264,535.8023 330.7604,538.4727 " fill="none" id="tictactoe.controllers.PlayController-to-State" style="stroke:#A80036;stroke-width:1.0;stroke-dasharray:7.0,7.0;"/><polygon fill="#A80036" points="325.8664,539.6214,335.5424,541.4584,330.734,538.4786,333.7139,533.6702,325.8664,539.6214" style="stroke:#A80036;stroke-width:1.0;"/><!--MD5=[549c2b0fc6f493adecd03b65ab276634]
reverse link tictactoe.controllers.Controller to tictactoe.controllers.ResumeController--><path codeLine="49" d="M493.4094,266.242 C456.1324,282.551 414.9124,301.619 378.1354,321 C356.3734,332.468 333.2044,346.337 313.0854,358.953 " fill="none" id="tictactoe.controllers.Controller-backto-tictactoe.controllers.ResumeController" style="stroke:#A80036;stroke-width:1.0;"/><polygon fill="none" points="490.7894,259.748,511.9244,258.224,496.3534,272.595,490.7894,259.748" style="stroke:#A80036;stroke-width:1.0;"/><!--MD5=[a35ef516318c5bb82096013ec88f75bf]
link tictactoe.controllers.ResumeController to Game--><path codeLine="50" d="M291.2724,433.06 C313.5754,454.864 344.8964,481.061 378.1354,495 C513.3784,551.7134 562.4954,501.4217 706.1354,531 C710.0674,531.8097 714.0784,532.7234 718.1104,533.7115 " fill="none" id="tictactoe.controllers.ResumeController-to-Game" style="stroke:#A80036;stroke-width:1.0;stroke-dasharray:7.0,7.0;"/><polygon fill="#A80036" points="723.2264,535.0007,715.4762,528.9233,718.3779,533.7793,713.5219,536.6809,723.2264,535.0007" style="stroke:#A80036;stroke-width:1.0;"/><!--MD5=[d25719629d58aae1ac339b0027e60a9e]
link tictactoe.controllers.ResumeController to State--><path codeLine="51" d="M258.1354,433.306 C258.1354,461.14 258.1354,499.1512 258.1354,525.6633 " fill="none" id="tictactoe.controllers.ResumeController-to-State" style="stroke:#A80036;stroke-width:1.0;stroke-dasharray:7.0,7.0;"/><polygon fill="#A80036" points="258.1354,530.8059,262.1354,521.8059,258.1354,525.8059,254.1354,521.8059,258.1354,530.8059" style="stroke:#A80036;stroke-width:1.0;"/><!--MD5=[5deb1e5c7bf9906a35de112138d88f9c]
reverse link tictactoe.controllers.Controller to tictactoe.controllers.StartController--><path codeLine="58" d="M567.9704,277.908 C551.2234,302.471 532.1524,330.441 516.8514,352.883 " fill="none" id="tictactoe.controllers.Controller-backto-tictactoe.controllers.StartController" style="stroke:#A80036;stroke-width:1.0;"/><polygon fill="none" points="562.3414,273.738,579.3924,261.156,573.9084,281.624,562.3414,273.738" style="stroke:#A80036;stroke-width:1.0;"/><!--MD5=[479e7112b5bc5a94513afe00b27faaff]
link tictactoe.controllers.StartController to Game--><path codeLine="59" d="M527.2294,439.166 C546.9464,458.403 572.1554,480.149 598.1354,495 C603.7314,498.1989 666.1464,518.0467 718.5064,534.4373 " fill="none" id="tictactoe.controllers.StartController-to-Game" style="stroke:#A80036;stroke-width:1.0;stroke-dasharray:7.0,7.0;"/><polygon fill="#A80036" points="723.5394,536.012,716.1442,529.5073,718.7675,534.5192,713.7556,537.1424,723.5394,536.012" style="stroke:#A80036;stroke-width:1.0;"/><!--MD5=[8d9c52d5c7700f08e92c7dd078a553a4]
link tictactoe.controllers.StartController to State--><path codeLine="60" d="M446.0654,439.002 C426.3884,457.426 402.0564,478.553 378.1354,495 C360.2324,507.3091 339.5714,518.8292 320.4924,528.5193 " fill="none" id="tictactoe.controllers.StartController-to-State" style="stroke:#A80036;stroke-width:1.0;stroke-dasharray:7.0,7.0;"/><polygon fill="#A80036" points="315.6784,530.9428,325.5158,530.4682,320.1443,528.6943,321.9182,523.3228,315.6784,530.9428" style="stroke:#A80036;stroke-width:1.0;"/><!--MD5=[ebfe2adbdc0e738f0433680eb882b387]
@startuml
class Game as "tictactoe.models.\nGame" {}
class Coordinate as "tictactoe.models.\nCoordinate" {}
class Error as "tictactoe.types.\nError" {}
class Token as "tictactoe.types.\nToken" {}
class State as "tictactoe.models.\nState" {}
class StateValue as "tictactoe.models.\nStateValue" {}

abstract class  tictactoe.controllers.Controller{
~ Controller(Game,State)
+ getToken(Coordinate): Token
+ next()
}
tictactoe.controllers.Controller *-down-> Game
tictactoe.controllers.Controller *-down-> State
tictactoe.controllers.Controller .down.> Coordinate
tictactoe.controllers.Controller .down.> Token

class tictactoe.controllers.Logic{
+ Logic()
+ getController(): Controller
}

tictactoe.controllers.Logic *-down-> Game
tictactoe.controllers.Logic *-down-> State
tictactoe.controllers.Logic *-down-> StateValue
tictactoe.controllers.Logic *-down-> tictactoe.controllers.Controller

class  tictactoe.controllers.PlayController{
+ PlayController(Game,State)
+ next()
+ isBoardComplete(): boolean
+ isTicTacToe(): boolean
+ getToken(): Token
+ isUser(): boolean
+ put(Coordinate): Error
+ move(Coordinate,Coordinate): Error
}
tictactoe.controllers.Controller <|-down- tictactoe.controllers.PlayController
tictactoe.controllers.PlayController .down.> Coordinate
tictactoe.controllers.PlayController .down.> Error
tictactoe.controllers.PlayController .down.> Game
tictactoe.controllers.PlayController .down.> Token
tictactoe.controllers.PlayController .down.> State

class  tictactoe.controllers.ResumeController{
+ ResumeController(Game,State)
+ resume()
}
tictactoe.controllers.Controller <|-down- tictactoe.controllers.ResumeController
tictactoe.controllers.ResumeController .down.> Game
tictactoe.controllers.ResumeController .down.> State

class  tictactoe.controllers.StartController{
+ StartController(Game,State)
+ setUsers(int)
+ getMaxPlayers(): int
}
tictactoe.controllers.Controller <|-down- tictactoe.controllers.StartController
tictactoe.controllers.StartController .down.> Game
tictactoe.controllers.StartController .down.> State
@enduml

PlantUML version 1.2020.22(Sun Dec 06 09:36:27 UTC 2020)
(GPL source distribution)
Java Runtime: Java(TM) SE Runtime Environment
JVM: Java HotSpot(TM) 64-Bit Server VM
Default Encoding: UTF-8
Language: en
Country: US
--></g></svg>