<?xml version="1.0" encoding="UTF-8" standalone="no"?><svg xmlns="http://www.w3.org/2000/svg" xmlns:xlink="http://www.w3.org/1999/xlink" contentScriptType="application/ecmascript" contentStyleType="text/css" height="1276px" preserveAspectRatio="none" style="width:1022px;height:1276px;" version="1.1" viewBox="0 0 1022 1276" width="1022px" zoomAndPan="magnify"><defs><filter height="300%" id="f15fo8gj41dow7" width="300%" x="-1" y="-1"><feGaussianBlur result="blurOut" stdDeviation="2.0"/><feColorMatrix in="blurOut" result="blurOut2" type="matrix" values="0 0 0 0 0 0 0 0 0 0 0 0 0 0 0 0 0 0 .4 0"/><feOffset dx="4.0" dy="4.0" in="blurOut2" result="blurOut3"/><feBlend in="SourceGraphic" in2="blurOut3" mode="normal"/></filter></defs><g><!--MD5=[51cd642fcc96b47682a93d9084d46dec]
cluster tictactoe.models--><polygon fill="#FFFFFF" filter="url(#f15fo8gj41dow7)" points="176.5,6,321.5,6,328.5,28.2969,663.5,28.2969,663.5,1165,176.5,1165,176.5,6" style="stroke:#000000;stroke-width:1.5;"/><line style="stroke:#000000;stroke-width:1.5;" x1="176.5" x2="328.5" y1="28.2969" y2="28.2969"/><text fill="#000000" font-family="sans-serif" font-size="14" font-weight="bold" lengthAdjust="spacingAndGlyphs" textLength="139" x="180.5" y="20.9951">tictactoe.models</text><!--MD5=[f2254b5fdbf93effa50eb20dc057829b]
class tictactoe.models.Board--><rect codeLine="7" fill="#FEFECE" filter="url(#f15fo8gj41dow7)" height="188.8516" id="tictactoe.models.Board" style="stroke:#A80036;stroke-width:1.5;" width="262" x="274.5" y="711"/><ellipse cx="383.25" cy="727" fill="#ADD1B2" rx="11" ry="11" style="stroke:#A80036;stroke-width:1.0;"/><path d="M385.5938,722.6719 C384.6563,722.2344 384.0625,722.0938 383.1875,722.0938 C380.5625,722.0938 378.5625,724.1719 378.5625,726.8906 L378.5625,728.0156 C378.5625,730.5938 380.6719,732.4844 383.5625,732.4844 C384.7813,732.4844 385.9375,732.1875 386.6875,731.6406 C387.2656,731.2344 387.5938,730.7813 387.5938,730.3906 C387.5938,729.9375 387.2031,729.5469 386.7344,729.5469 C386.5156,729.5469 386.3125,729.625 386.125,729.8125 C385.6719,730.2969 385.6719,730.2969 385.4844,730.3906 C385.0625,730.6563 384.375,730.7813 383.6094,730.7813 C381.5625,730.7813 380.2656,729.6875 380.2656,727.9844 L380.2656,726.8906 C380.2656,725.1094 381.5156,723.7969 383.25,723.7969 C383.8281,723.7969 384.4375,723.9531 384.9063,724.2031 C385.3906,724.4844 385.5625,724.7031 385.6563,725.1094 C385.7188,725.5156 385.75,725.6406 385.8906,725.7656 C386.0313,725.9063 386.2656,726.0156 386.4844,726.0156 C386.75,726.0156 387.0156,725.875 387.1875,725.6563 C387.2969,725.5 387.3281,725.3125 387.3281,724.8906 L387.3281,723.4688 C387.3281,723.0313 387.3125,722.9063 387.2188,722.75 C387.0625,722.4844 386.7813,722.3438 386.4844,722.3438 C386.1875,722.3438 385.9844,722.4375 385.7656,722.75 L385.5938,722.6719 Z " fill="#000000"/><text fill="#000000" font-family="sans-serif" font-size="12" lengthAdjust="spacingAndGlyphs" textLength="36" x="403.75" y="731.1543">Board</text><line style="stroke:#A80036;stroke-width:1.5;" x1="275.5" x2="535.5" y1="743" y2="743"/><line style="stroke:#A80036;stroke-width:1.5;" x1="275.5" x2="535.5" y1="751" y2="751"/><ellipse cx="285.5" cy="762" fill="#84BE84" rx="3" ry="3" style="stroke:#038048;stroke-width:1.0;"/><text fill="#000000" font-family="sans-serif" font-size="11" lengthAdjust="spacingAndGlyphs" textLength="41" x="294.5" y="765.2104">Board()</text><polygon fill="#4177AF" points="285.5,770.8047,281.5,776.8047,289.5,776.8047" style="stroke:#1963A0;stroke-width:1.0;"/><text fill="#000000" font-family="sans-serif" font-size="11" lengthAdjust="spacingAndGlyphs" textLength="38" x="294.5" y="778.0151">reset()</text><polygon fill="#4177AF" points="285.5,783.6094,281.5,789.6094,289.5,789.6094" style="stroke:#1963A0;stroke-width:1.0;"/><text fill="#000000" font-family="sans-serif" font-size="11" lengthAdjust="spacingAndGlyphs" textLength="166" x="294.5" y="790.8198">getToken(Coordinate): Token</text><polygon fill="#4177AF" points="285.5,796.4141,281.5,802.4141,289.5,802.4141" style="stroke:#1963A0;stroke-width:1.0;"/><text fill="#000000" font-family="sans-serif" font-size="11" lengthAdjust="spacingAndGlyphs" textLength="133" x="294.5" y="803.6245">isCompleted(): boolean</text><polygon fill="#4177AF" points="285.5,809.2188,281.5,815.2188,289.5,815.2188" style="stroke:#1963A0;stroke-width:1.0;"/><text fill="#000000" font-family="sans-serif" font-size="11" lengthAdjust="spacingAndGlyphs" textLength="130" x="294.5" y="816.4292">put(Coordinate, Token)</text><polygon fill="#4177AF" points="285.5,822.0234,281.5,828.0234,289.5,828.0234" style="stroke:#1963A0;stroke-width:1.0;"/><text fill="#000000" font-family="sans-serif" font-size="11" lengthAdjust="spacingAndGlyphs" textLength="172" x="294.5" y="829.2339">move(Coordinate, Coordinate)</text><rect fill="#F24D5C" height="6" style="stroke:#C82930;stroke-width:1.0;" width="6" x="282.5" y="835.8281"/><text fill="#000000" font-family="sans-serif" font-size="11" lengthAdjust="spacingAndGlyphs" textLength="115" x="294.5" y="842.0386">remove(Coordinate)</text><polygon fill="#4177AF" points="285.5,847.6328,281.5,853.6328,289.5,853.6328" style="stroke:#1963A0;stroke-width:1.0;"/><text fill="#000000" font-family="sans-serif" font-size="11" lengthAdjust="spacingAndGlyphs" textLength="227" x="294.5" y="854.8433">isOccupied(Coordinate, Token): boolean</text><polygon fill="#4177AF" points="285.5,860.4375,281.5,866.4375,289.5,866.4375" style="stroke:#1963A0;stroke-width:1.0;"/><text fill="#000000" font-family="sans-serif" font-size="11" lengthAdjust="spacingAndGlyphs" textLength="168" x="294.5" y="867.6479">isEmpty(Coordinate): boolean</text><polygon fill="#4177AF" points="285.5,873.2422,281.5,879.2422,289.5,879.2422" style="stroke:#1963A0;stroke-width:1.0;"/><text fill="#000000" font-family="sans-serif" font-size="11" lengthAdjust="spacingAndGlyphs" textLength="163" x="294.5" y="880.4526">isTicTacToe(Token): boolean</text><rect fill="#F24D5C" height="6" style="stroke:#C82930;stroke-width:1.0;" width="6" x="282.5" y="887.0469"/><text fill="#000000" font-family="sans-serif" font-size="11" lengthAdjust="spacingAndGlyphs" textLength="236" x="294.5" y="893.2573">getCoordinates(Token): List&lt;Coordinate&gt;</text><!--MD5=[55d70ecb9e3ba4786ec1f15d0b7dce13]
class tictactoe.models.Coordinate--><rect codeLine="25" fill="#FEFECE" filter="url(#f15fo8gj41dow7)" height="188.8516" id="tictactoe.models.Coordinate" style="stroke:#A80036;stroke-width:1.5;" width="224" x="192.5" y="960"/><ellipse cx="267.25" cy="976" fill="#ADD1B2" rx="11" ry="11" style="stroke:#A80036;stroke-width:1.0;"/><path d="M269.5938,971.6719 C268.6563,971.2344 268.0625,971.0938 267.1875,971.0938 C264.5625,971.0938 262.5625,973.1719 262.5625,975.8906 L262.5625,977.0156 C262.5625,979.5938 264.6719,981.4844 267.5625,981.4844 C268.7813,981.4844 269.9375,981.1875 270.6875,980.6406 C271.2656,980.2344 271.5938,979.7813 271.5938,979.3906 C271.5938,978.9375 271.2031,978.5469 270.7344,978.5469 C270.5156,978.5469 270.3125,978.625 270.125,978.8125 C269.6719,979.2969 269.6719,979.2969 269.4844,979.3906 C269.0625,979.6563 268.375,979.7813 267.6094,979.7813 C265.5625,979.7813 264.2656,978.6875 264.2656,976.9844 L264.2656,975.8906 C264.2656,974.1094 265.5156,972.7969 267.25,972.7969 C267.8281,972.7969 268.4375,972.9531 268.9063,973.2031 C269.3906,973.4844 269.5625,973.7031 269.6563,974.1094 C269.7188,974.5156 269.75,974.6406 269.8906,974.7656 C270.0313,974.9063 270.2656,975.0156 270.4844,975.0156 C270.75,975.0156 271.0156,974.875 271.1875,974.6563 C271.2969,974.5 271.3281,974.3125 271.3281,973.8906 L271.3281,972.4688 C271.3281,972.0313 271.3125,971.9063 271.2188,971.75 C271.0625,971.4844 270.7813,971.3438 270.4844,971.3438 C270.1875,971.3438 269.9844,971.4375 269.7656,971.75 L269.5938,971.6719 Z " fill="#000000"/><text fill="#000000" font-family="sans-serif" font-size="12" lengthAdjust="spacingAndGlyphs" textLength="66" x="287.75" y="980.1543">Coordinate</text><line style="stroke:#A80036;stroke-width:1.5;" x1="193.5" x2="415.5" y1="992" y2="992"/><rect fill="none" height="6" style="stroke:#C82930;stroke-width:1.0;" width="6" x="200.5" y="1000"/><text fill="#000000" font-family="sans-serif" font-size="11" lengthAdjust="spacingAndGlyphs" text-decoration="underline" textLength="178" x="212.5" y="1006.2104">NULL_COORDINATE: Coordinate</text><ellipse cx="203.5" cy="1015.8047" fill="none" rx="3" ry="3" style="stroke:#038048;stroke-width:1.0;"/><text fill="#000000" font-family="sans-serif" font-size="11" lengthAdjust="spacingAndGlyphs" text-decoration="underline" textLength="85" x="212.5" y="1019.0151">DIMENSION: int</text><rect fill="none" height="6" style="stroke:#C82930;stroke-width:1.0;" width="6" x="200.5" y="1025.6094"/><text fill="#000000" font-family="sans-serif" font-size="11" lengthAdjust="spacingAndGlyphs" text-decoration="underline" textLength="125" x="212.5" y="1031.8198">LIMITS: ClosedInterval</text><line style="stroke:#A80036;stroke-width:1.5;" x1="193.5" x2="415.5" y1="1038.4141" y2="1038.4141"/><ellipse cx="203.5" cy="1049.4141" fill="#84BE84" rx="3" ry="3" style="stroke:#038048;stroke-width:1.0;"/><text fill="#000000" font-family="sans-serif" font-size="11" lengthAdjust="spacingAndGlyphs" textLength="70" x="212.5" y="1052.6245">Coordinate()</text><ellipse cx="203.5" cy="1062.2188" fill="#84BE84" rx="3" ry="3" style="stroke:#038048;stroke-width:1.0;"/><text fill="#000000" font-family="sans-serif" font-size="11" lengthAdjust="spacingAndGlyphs" textLength="105" x="212.5" y="1065.4292">Coordinate(int, int)</text><ellipse cx="203.5" cy="1075.0234" fill="#84BE84" rx="3" ry="3" style="stroke:#038048;stroke-width:1.0;"/><text fill="#000000" font-family="sans-serif" font-size="11" lengthAdjust="spacingAndGlyphs" textLength="91" x="212.5" y="1078.2339">isNull(): boolean</text><ellipse cx="203.5" cy="1087.8281" fill="#84BE84" rx="3" ry="3" style="stroke:#038048;stroke-width:1.0;"/><text fill="#000000" font-family="sans-serif" font-size="11" lengthAdjust="spacingAndGlyphs" textLength="78" x="212.5" y="1091.0386">isValid(): Error</text><ellipse cx="203.5" cy="1100.6328" fill="#84BE84" rx="3" ry="3" style="stroke:#038048;stroke-width:1.0;"/><text fill="#000000" font-family="sans-serif" font-size="11" lengthAdjust="spacingAndGlyphs" textLength="198" x="212.5" y="1103.8433">getDirection(Coordinate): Direction</text><rect fill="#F24D5C" height="6" style="stroke:#C82930;stroke-width:1.0;" width="6" x="200.5" y="1110.4375"/><text fill="#000000" font-family="sans-serif" font-size="11" lengthAdjust="spacingAndGlyphs" textLength="164" x="212.5" y="1116.6479">inInverseDiagonal(): boolean</text><ellipse cx="203.5" cy="1126.2422" fill="#84BE84" rx="3" ry="3" style="stroke:#038048;stroke-width:1.0;"/><text fill="#000000" font-family="sans-serif" font-size="11" lengthAdjust="spacingAndGlyphs" textLength="51" x="212.5" y="1129.4526">random()</text><ellipse cx="203.5" cy="1139.0469" fill="#84BE84" rx="3" ry="3" style="stroke:#038048;stroke-width:1.0;"/><text fill="#000000" font-family="sans-serif" font-size="11" lengthAdjust="spacingAndGlyphs" textLength="136" x="212.5" y="1142.2573">equals(Object): boolean</text><!--MD5=[8d3188f3c370ea7d5d91d12bca83b67a]
class tictactoe.models.Game--><rect codeLine="43" fill="#FEFECE" filter="url(#f15fo8gj41dow7)" height="201.6563" id="tictactoe.models.Game" style="stroke:#A80036;stroke-width:1.5;" width="231" x="416" y="41"/><ellipse cx="509.75" cy="57" fill="#ADD1B2" rx="11" ry="11" style="stroke:#A80036;stroke-width:1.0;"/><path d="M512.0938,52.6719 C511.1563,52.2344 510.5625,52.0938 509.6875,52.0938 C507.0625,52.0938 505.0625,54.1719 505.0625,56.8906 L505.0625,58.0156 C505.0625,60.5938 507.1719,62.4844 510.0625,62.4844 C511.2813,62.4844 512.4375,62.1875 513.1875,61.6406 C513.7656,61.2344 514.0938,60.7813 514.0938,60.3906 C514.0938,59.9375 513.7031,59.5469 513.2344,59.5469 C513.0156,59.5469 512.8125,59.625 512.625,59.8125 C512.1719,60.2969 512.1719,60.2969 511.9844,60.3906 C511.5625,60.6563 510.875,60.7813 510.1094,60.7813 C508.0625,60.7813 506.7656,59.6875 506.7656,57.9844 L506.7656,56.8906 C506.7656,55.1094 508.0156,53.7969 509.75,53.7969 C510.3281,53.7969 510.9375,53.9531 511.4063,54.2031 C511.8906,54.4844 512.0625,54.7031 512.1563,55.1094 C512.2188,55.5156 512.25,55.6406 512.3906,55.7656 C512.5313,55.9063 512.7656,56.0156 512.9844,56.0156 C513.25,56.0156 513.5156,55.875 513.6875,55.6563 C513.7969,55.5 513.8281,55.3125 513.8281,54.8906 L513.8281,53.4688 C513.8281,53.0313 513.8125,52.9063 513.7188,52.75 C513.5625,52.4844 513.2813,52.3438 512.9844,52.3438 C512.6875,52.3438 512.4844,52.4375 512.2656,52.75 L512.0938,52.6719 Z " fill="#000000"/><text fill="#000000" font-family="sans-serif" font-size="12" lengthAdjust="spacingAndGlyphs" textLength="35" x="530.25" y="61.1543">Game</text><line style="stroke:#A80036;stroke-width:1.5;" x1="417" x2="646" y1="73" y2="73"/><line style="stroke:#A80036;stroke-width:1.5;" x1="417" x2="646" y1="81" y2="81"/><ellipse cx="427" cy="92" fill="#84BE84" rx="3" ry="3" style="stroke:#038048;stroke-width:1.0;"/><text fill="#000000" font-family="sans-serif" font-size="11" lengthAdjust="spacingAndGlyphs" textLength="43" x="436" y="95.2104">Game()</text><ellipse cx="427" cy="104.8047" fill="#84BE84" rx="3" ry="3" style="stroke:#038048;stroke-width:1.0;"/><text fill="#000000" font-family="sans-serif" font-size="11" lengthAdjust="spacingAndGlyphs" textLength="38" x="436" y="108.0151">reset()</text><ellipse cx="427" cy="117.6094" fill="#84BE84" rx="3" ry="3" style="stroke:#038048;stroke-width:1.0;"/><text fill="#000000" font-family="sans-serif" font-size="11" lengthAdjust="spacingAndGlyphs" textLength="72" x="436" y="120.8198">setUsers(int)</text><ellipse cx="427" cy="130.4141" fill="#84BE84" rx="3" ry="3" style="stroke:#038048;stroke-width:1.0;"/><text fill="#000000" font-family="sans-serif" font-size="11" lengthAdjust="spacingAndGlyphs" textLength="159" x="436" y="133.6245">isBoardComplete(): boolean</text><ellipse cx="427" cy="143.2188" fill="#84BE84" rx="3" ry="3" style="stroke:#038048;stroke-width:1.0;"/><text fill="#000000" font-family="sans-serif" font-size="11" lengthAdjust="spacingAndGlyphs" textLength="96" x="436" y="146.4292">isUser(): boolean</text><ellipse cx="427" cy="156.0234" fill="#84BE84" rx="3" ry="3" style="stroke:#038048;stroke-width:1.0;"/><text fill="#000000" font-family="sans-serif" font-size="11" lengthAdjust="spacingAndGlyphs" textLength="121" x="436" y="159.2339">put(Coordinate): Error</text><ellipse cx="427" cy="168.8281" fill="#84BE84" rx="3" ry="3" style="stroke:#038048;stroke-width:1.0;"/><text fill="#000000" font-family="sans-serif" font-size="11" lengthAdjust="spacingAndGlyphs" textLength="205" x="436" y="172.0386">move(Coordinate, Coordinate): Error</text><ellipse cx="427" cy="181.6328" fill="#84BE84" rx="3" ry="3" style="stroke:#038048;stroke-width:1.0;"/><text fill="#000000" font-family="sans-serif" font-size="11" lengthAdjust="spacingAndGlyphs" textLength="34" x="436" y="184.8433">next()</text><ellipse cx="427" cy="194.4375" fill="#84BE84" rx="3" ry="3" style="stroke:#038048;stroke-width:1.0;"/><text fill="#000000" font-family="sans-serif" font-size="11" lengthAdjust="spacingAndGlyphs" textLength="128" x="436" y="197.6479">isTicTacToe(): boolean</text><ellipse cx="427" cy="207.2422" fill="#84BE84" rx="3" ry="3" style="stroke:#038048;stroke-width:1.0;"/><text fill="#000000" font-family="sans-serif" font-size="11" lengthAdjust="spacingAndGlyphs" textLength="166" x="436" y="210.4526">getToken(Coordinate): Token</text><ellipse cx="427" cy="220.0469" fill="#84BE84" rx="3" ry="3" style="stroke:#038048;stroke-width:1.0;"/><text fill="#000000" font-family="sans-serif" font-size="11" lengthAdjust="spacingAndGlyphs" textLength="104" x="436" y="223.2573">getToken(): Token</text><ellipse cx="427" cy="232.8516" fill="#84BE84" rx="3" ry="3" style="stroke:#038048;stroke-width:1.0;"/><text fill="#000000" font-family="sans-serif" font-size="11" lengthAdjust="spacingAndGlyphs" textLength="112" x="436" y="236.062">getMaxPlayers(): int</text><!--MD5=[b42b9147ed7462532394f7fe6f96703d]
class tictactoe.models.Turn--><rect codeLine="91" fill="#FEFECE" filter="url(#f15fo8gj41dow7)" height="188.8516" id="tictactoe.models.Turn" style="stroke:#A80036;stroke-width:1.5;" width="231" x="416" y="303"/><ellipse cx="514.25" cy="319" fill="#ADD1B2" rx="11" ry="11" style="stroke:#A80036;stroke-width:1.0;"/><path d="M516.5938,314.6719 C515.6563,314.2344 515.0625,314.0938 514.1875,314.0938 C511.5625,314.0938 509.5625,316.1719 509.5625,318.8906 L509.5625,320.0156 C509.5625,322.5938 511.6719,324.4844 514.5625,324.4844 C515.7813,324.4844 516.9375,324.1875 517.6875,323.6406 C518.2656,323.2344 518.5938,322.7813 518.5938,322.3906 C518.5938,321.9375 518.2031,321.5469 517.7344,321.5469 C517.5156,321.5469 517.3125,321.625 517.125,321.8125 C516.6719,322.2969 516.6719,322.2969 516.4844,322.3906 C516.0625,322.6563 515.375,322.7813 514.6094,322.7813 C512.5625,322.7813 511.2656,321.6875 511.2656,319.9844 L511.2656,318.8906 C511.2656,317.1094 512.5156,315.7969 514.25,315.7969 C514.8281,315.7969 515.4375,315.9531 515.9063,316.2031 C516.3906,316.4844 516.5625,316.7031 516.6563,317.1094 C516.7188,317.5156 516.75,317.6406 516.8906,317.7656 C517.0313,317.9063 517.2656,318.0156 517.4844,318.0156 C517.75,318.0156 518.0156,317.875 518.1875,317.6563 C518.2969,317.5 518.3281,317.3125 518.3281,316.8906 L518.3281,315.4688 C518.3281,315.0313 518.3125,314.9063 518.2188,314.75 C518.0625,314.4844 517.7813,314.3438 517.4844,314.3438 C517.1875,314.3438 516.9844,314.4375 516.7656,314.75 L516.5938,314.6719 Z " fill="#000000"/><text fill="#000000" font-family="sans-serif" font-size="12" lengthAdjust="spacingAndGlyphs" textLength="26" x="534.75" y="323.1543">Turn</text><line style="stroke:#A80036;stroke-width:1.5;" x1="417" x2="646" y1="335" y2="335"/><ellipse cx="427" cy="346" fill="none" rx="3" ry="3" style="stroke:#038048;stroke-width:1.0;"/><text fill="#000000" font-family="sans-serif" font-size="11" lengthAdjust="spacingAndGlyphs" text-decoration="underline" textLength="123" x="436" y="349.2104">NUMBER_PLAYERS: int</text><rect fill="none" height="6" style="stroke:#C82930;stroke-width:1.0;" width="6" x="424" y="355.8047"/><text fill="#000000" font-family="sans-serif" font-size="11" lengthAdjust="spacingAndGlyphs" textLength="56" x="436" y="362.0151">active: int</text><rect fill="none" height="6" style="stroke:#C82930;stroke-width:1.0;" width="6" x="424" y="368.6094"/><text fill="#000000" font-family="sans-serif" font-size="11" lengthAdjust="spacingAndGlyphs" textLength="52" x="436" y="374.8198">users: int</text><line style="stroke:#A80036;stroke-width:1.5;" x1="417" x2="646" y1="381.4141" y2="381.4141"/><polygon fill="#4177AF" points="427,388.4141,423,394.4141,431,394.4141" style="stroke:#1963A0;stroke-width:1.0;"/><text fill="#000000" font-family="sans-serif" font-size="11" lengthAdjust="spacingAndGlyphs" textLength="66" x="436" y="395.6245">Turn(Board)</text><polygon fill="#4177AF" points="427,401.2188,423,407.2188,431,407.2188" style="stroke:#1963A0;stroke-width:1.0;"/><text fill="#000000" font-family="sans-serif" font-size="11" lengthAdjust="spacingAndGlyphs" textLength="72" x="436" y="408.4292">setUsers(int)</text><polygon fill="#4177AF" points="427,414.0234,423,420.0234,431,420.0234" style="stroke:#1963A0;stroke-width:1.0;"/><text fill="#000000" font-family="sans-serif" font-size="11" lengthAdjust="spacingAndGlyphs" textLength="34" x="436" y="421.2339">next()</text><polygon fill="#4177AF" points="427,426.8281,423,432.8281,431,432.8281" style="stroke:#1963A0;stroke-width:1.0;"/><text fill="#000000" font-family="sans-serif" font-size="11" lengthAdjust="spacingAndGlyphs" textLength="96" x="436" y="434.0386">isUser(): boolean</text><polygon fill="#4177AF" points="427,439.6328,423,445.6328,431,445.6328" style="stroke:#1963A0;stroke-width:1.0;"/><text fill="#000000" font-family="sans-serif" font-size="11" lengthAdjust="spacingAndGlyphs" textLength="121" x="436" y="446.8433">put(Coordinate): Error</text><polygon fill="#4177AF" points="427,452.4375,423,458.4375,431,458.4375" style="stroke:#1963A0;stroke-width:1.0;"/><text fill="#000000" font-family="sans-serif" font-size="11" lengthAdjust="spacingAndGlyphs" textLength="104" x="436" y="459.6479">getPlayer(): Player</text><polygon fill="#4177AF" points="427,465.2422,423,471.2422,431,471.2422" style="stroke:#1963A0;stroke-width:1.0;"/><text fill="#000000" font-family="sans-serif" font-size="11" lengthAdjust="spacingAndGlyphs" textLength="205" x="436" y="472.4526">move(Coordinate, Coordinate): Error</text><polygon fill="#4177AF" points="427,478.0469,423,484.0469,431,484.0469" style="stroke:#1963A0;stroke-width:1.0;"/><text fill="#000000" font-family="sans-serif" font-size="11" lengthAdjust="spacingAndGlyphs" textLength="104" x="436" y="485.2573">getToken(): Token</text><!--MD5=[3b54484399e9c5d8797124604fd4af65]
class tictactoe.models.Player--><rect codeLine="63" fill="#FEFECE" filter="url(#f15fo8gj41dow7)" height="99.2188" id="tictactoe.models.Player" style="stroke:#A80036;stroke-width:1.5;" width="231" x="416" y="552"/><ellipse cx="509.25" cy="568" fill="#ADD1B2" rx="11" ry="11" style="stroke:#A80036;stroke-width:1.0;"/><path d="M511.5938,563.6719 C510.6563,563.2344 510.0625,563.0938 509.1875,563.0938 C506.5625,563.0938 504.5625,565.1719 504.5625,567.8906 L504.5625,569.0156 C504.5625,571.5938 506.6719,573.4844 509.5625,573.4844 C510.7813,573.4844 511.9375,573.1875 512.6875,572.6406 C513.2656,572.2344 513.5938,571.7813 513.5938,571.3906 C513.5938,570.9375 513.2031,570.5469 512.7344,570.5469 C512.5156,570.5469 512.3125,570.625 512.125,570.8125 C511.6719,571.2969 511.6719,571.2969 511.4844,571.3906 C511.0625,571.6563 510.375,571.7813 509.6094,571.7813 C507.5625,571.7813 506.2656,570.6875 506.2656,568.9844 L506.2656,567.8906 C506.2656,566.1094 507.5156,564.7969 509.25,564.7969 C509.8281,564.7969 510.4375,564.9531 510.9063,565.2031 C511.3906,565.4844 511.5625,565.7031 511.6563,566.1094 C511.7188,566.5156 511.75,566.6406 511.8906,566.7656 C512.0313,566.9063 512.2656,567.0156 512.4844,567.0156 C512.75,567.0156 513.0156,566.875 513.1875,566.6563 C513.2969,566.5 513.3281,566.3125 513.3281,565.8906 L513.3281,564.4688 C513.3281,564.0313 513.3125,563.9063 513.2188,563.75 C513.0625,563.4844 512.7813,563.3438 512.4844,563.3438 C512.1875,563.3438 511.9844,563.4375 511.7656,563.75 L511.5938,563.6719 Z " fill="#000000"/><text fill="#000000" font-family="sans-serif" font-size="12" lengthAdjust="spacingAndGlyphs" textLength="36" x="529.75" y="572.1543">Player</text><line style="stroke:#A80036;stroke-width:1.5;" x1="417" x2="646" y1="584" y2="584"/><line style="stroke:#A80036;stroke-width:1.5;" x1="417" x2="646" y1="592" y2="592"/><polygon fill="#4177AF" points="427,599,423,605,431,605" style="stroke:#1963A0;stroke-width:1.0;"/><text fill="#000000" font-family="sans-serif" font-size="11" lengthAdjust="spacingAndGlyphs" textLength="118" x="436" y="606.2104">Player(Token, Board)</text><polygon fill="#4177AF" points="427,611.8047,423,617.8047,431,617.8047" style="stroke:#1963A0;stroke-width:1.0;"/><text fill="#000000" font-family="sans-serif" font-size="11" lengthAdjust="spacingAndGlyphs" textLength="121" x="436" y="619.0151">put(Coordinate): Error</text><polygon fill="#4177AF" points="427,624.6094,423,630.6094,431,630.6094" style="stroke:#1963A0;stroke-width:1.0;"/><text fill="#000000" font-family="sans-serif" font-size="11" lengthAdjust="spacingAndGlyphs" textLength="205" x="436" y="631.8198">move(Coordinate, Coordinate): Error</text><polygon fill="#4177AF" points="427,637.4141,423,643.4141,431,643.4141" style="stroke:#1963A0;stroke-width:1.0;"/><text fill="#000000" font-family="sans-serif" font-size="11" lengthAdjust="spacingAndGlyphs" textLength="104" x="436" y="644.6245">getToken(): Token</text><!--MD5=[895b6132a90c2908aef15a128e2ee1f5]
class tictactoe.models.State--><rect codeLine="75" fill="#FEFECE" filter="url(#f15fo8gj41dow7)" height="99.2188" id="tictactoe.models.State" style="stroke:#A80036;stroke-width:1.5;" width="188" x="192.5" y="92.5"/><ellipse cx="266.75" cy="108.5" fill="#ADD1B2" rx="11" ry="11" style="stroke:#A80036;stroke-width:1.0;"/><path d="M269.0938,104.1719 C268.1563,103.7344 267.5625,103.5938 266.6875,103.5938 C264.0625,103.5938 262.0625,105.6719 262.0625,108.3906 L262.0625,109.5156 C262.0625,112.0938 264.1719,113.9844 267.0625,113.9844 C268.2813,113.9844 269.4375,113.6875 270.1875,113.1406 C270.7656,112.7344 271.0938,112.2813 271.0938,111.8906 C271.0938,111.4375 270.7031,111.0469 270.2344,111.0469 C270.0156,111.0469 269.8125,111.125 269.625,111.3125 C269.1719,111.7969 269.1719,111.7969 268.9844,111.8906 C268.5625,112.1563 267.875,112.2813 267.1094,112.2813 C265.0625,112.2813 263.7656,111.1875 263.7656,109.4844 L263.7656,108.3906 C263.7656,106.6094 265.0156,105.2969 266.75,105.2969 C267.3281,105.2969 267.9375,105.4531 268.4063,105.7031 C268.8906,105.9844 269.0625,106.2031 269.1563,106.6094 C269.2188,107.0156 269.25,107.1406 269.3906,107.2656 C269.5313,107.4063 269.7656,107.5156 269.9844,107.5156 C270.25,107.5156 270.5156,107.375 270.6875,107.1563 C270.7969,107 270.8281,106.8125 270.8281,106.3906 L270.8281,104.9688 C270.8281,104.5313 270.8125,104.4063 270.7188,104.25 C270.5625,103.9844 270.2813,103.8438 269.9844,103.8438 C269.6875,103.8438 269.4844,103.9375 269.2656,104.25 L269.0938,104.1719 Z " fill="#000000"/><text fill="#000000" font-family="sans-serif" font-size="12" lengthAdjust="spacingAndGlyphs" textLength="31" x="287.25" y="112.6543">State</text><line style="stroke:#A80036;stroke-width:1.5;" x1="193.5" x2="379.5" y1="124.5" y2="124.5"/><line style="stroke:#A80036;stroke-width:1.5;" x1="193.5" x2="379.5" y1="132.5" y2="132.5"/><ellipse cx="203.5" cy="143.5" fill="#84BE84" rx="3" ry="3" style="stroke:#038048;stroke-width:1.0;"/><text fill="#000000" font-family="sans-serif" font-size="11" lengthAdjust="spacingAndGlyphs" textLength="39" x="212.5" y="146.7104">State()</text><ellipse cx="203.5" cy="156.3047" fill="#84BE84" rx="3" ry="3" style="stroke:#038048;stroke-width:1.0;"/><text fill="#000000" font-family="sans-serif" font-size="11" lengthAdjust="spacingAndGlyphs" textLength="38" x="212.5" y="159.5151">reset()</text><ellipse cx="203.5" cy="169.1094" fill="#84BE84" rx="3" ry="3" style="stroke:#038048;stroke-width:1.0;"/><text fill="#000000" font-family="sans-serif" font-size="11" lengthAdjust="spacingAndGlyphs" textLength="34" x="212.5" y="172.3198">next()</text><ellipse cx="203.5" cy="181.9141" fill="#84BE84" rx="3" ry="3" style="stroke:#038048;stroke-width:1.0;"/><text fill="#000000" font-family="sans-serif" font-size="11" lengthAdjust="spacingAndGlyphs" textLength="162" x="212.5" y="185.1245">getValueState(): StateValue</text><!--MD5=[c8f7ee38df84fc6c47e5792f2767cf35]
class tictactoe.models.StateValue--><rect codeLine="84" fill="#FEFECE" filter="url(#f15fo8gj41dow7)" height="99.2188" id="tictactoe.models.StateValue" style="stroke:#A80036;stroke-width:1.5;" width="96" x="192.5" y="348"/><ellipse cx="207.5" cy="364" fill="#EB937F" rx="11" ry="11" style="stroke:#A80036;stroke-width:1.0;"/><path d="M206.2969,364.875 L207.75,364.875 L207.75,364.9844 C207.75,365.3906 207.7813,365.5469 207.8594,365.7031 C208.0156,365.9531 208.2969,366.1094 208.5938,366.1094 C208.8438,366.1094 209.1094,365.9688 209.2656,365.75 C209.3906,365.5938 209.4219,365.4375 209.4219,364.9844 L209.4219,363.0625 C209.4219,362.9063 209.4219,362.8594 209.4063,362.7031 C209.3438,362.2344 209.0313,361.9219 208.5781,361.9219 C208.3281,361.9219 208.0625,362.0625 207.8906,362.2813 C207.7813,362.4531 207.75,362.6094 207.75,363.0625 L207.75,363.1875 L206.2969,363.1875 L206.2969,360.7813 L210.2813,360.7813 L210.2813,361.6406 C210.2813,362.0469 210.3125,362.2188 210.3906,362.375 C210.5625,362.625 210.8438,362.7813 211.125,362.7813 C211.3906,362.7813 211.6563,362.6406 211.8281,362.4219 C211.9375,362.25 211.9688,362.1094 211.9688,361.6406 L211.9688,359.0938 L204.3438,359.0938 C203.9063,359.0938 203.7813,359.1094 203.625,359.2031 C203.375,359.3594 203.2188,359.6563 203.2188,359.9375 C203.2188,360.2188 203.3594,360.4688 203.5781,360.6406 C203.7344,360.75 203.9219,360.7813 204.3438,360.7813 L204.5938,360.7813 L204.5938,367.2969 L204.3438,367.2969 C203.9375,367.2969 203.7813,367.3125 203.625,367.4219 C203.375,367.5938 203.2188,367.8594 203.2188,368.1563 C203.2188,368.4219 203.3594,368.6719 203.5781,368.8281 C203.7188,368.9531 203.9531,369 204.3438,369 L212.3438,369 L212.3438,366.4219 C212.3438,365.9844 212.3125,365.8438 212.2344,365.6875 C212.0625,365.4375 211.7813,365.2813 211.5,365.2813 C211.2344,365.2813 210.9688,365.3906 210.7969,365.6406 C210.6875,365.7969 210.6563,365.9375 210.6563,366.4219 L210.6563,367.2969 L206.2969,367.2969 L206.2969,364.875 Z " fill="#000000"/><text fill="#000000" font-family="sans-serif" font-size="12" lengthAdjust="spacingAndGlyphs" textLength="64" x="221.5" y="368.1543">StateValue</text><line style="stroke:#A80036;stroke-width:1.5;" x1="193.5" x2="287.5" y1="380" y2="380"/><ellipse cx="203.5" cy="391" fill="none" rx="3" ry="3" style="stroke:#038048;stroke-width:1.0;"/><text fill="#000000" font-family="sans-serif" font-size="11" lengthAdjust="spacingAndGlyphs" textLength="38" x="212.5" y="394.2104">INITIAL</text><ellipse cx="203.5" cy="403.8047" fill="none" rx="3" ry="3" style="stroke:#038048;stroke-width:1.0;"/><text fill="#000000" font-family="sans-serif" font-size="11" lengthAdjust="spacingAndGlyphs" textLength="50" x="212.5" y="407.0151">IN_GAME</text><ellipse cx="203.5" cy="416.6094" fill="none" rx="3" ry="3" style="stroke:#038048;stroke-width:1.0;"/><text fill="#000000" font-family="sans-serif" font-size="11" lengthAdjust="spacingAndGlyphs" textLength="46" x="212.5" y="419.8198">RESUME</text><ellipse cx="203.5" cy="429.4141" fill="none" rx="3" ry="3" style="stroke:#038048;stroke-width:1.0;"/><text fill="#000000" font-family="sans-serif" font-size="11" lengthAdjust="spacingAndGlyphs" textLength="25" x="212.5" y="432.6245">EXIT</text><line style="stroke:#A80036;stroke-width:1.5;" x1="193.5" x2="287.5" y1="439.2188" y2="439.2188"/><!--MD5=[f0e50675208408ddbf1ed7a91f4eb071]
class ClosedInterval--><rect codeLine="1" fill="#FEFECE" filter="url(#f15fo8gj41dow7)" height="53.9375" id="ClosedInterval" style="stroke:#A80036;stroke-width:1.5;" width="130" x="239.5" y="1209"/><ellipse cx="254.5" cy="1227.9688" fill="#ADD1B2" rx="11" ry="11" style="stroke:#A80036;stroke-width:1.0;"/><path d="M256.8438,1223.6406 C255.9063,1223.2031 255.3125,1223.0625 254.4375,1223.0625 C251.8125,1223.0625 249.8125,1225.1406 249.8125,1227.8594 L249.8125,1228.9844 C249.8125,1231.5625 251.9219,1233.4531 254.8125,1233.4531 C256.0313,1233.4531 257.1875,1233.1563 257.9375,1232.6094 C258.5156,1232.2031 258.8438,1231.75 258.8438,1231.3594 C258.8438,1230.9063 258.4531,1230.5156 257.9844,1230.5156 C257.7656,1230.5156 257.5625,1230.5938 257.375,1230.7813 C256.9219,1231.2656 256.9219,1231.2656 256.7344,1231.3594 C256.3125,1231.625 255.625,1231.75 254.8594,1231.75 C252.8125,1231.75 251.5156,1230.6563 251.5156,1228.9531 L251.5156,1227.8594 C251.5156,1226.0781 252.7656,1224.7656 254.5,1224.7656 C255.0781,1224.7656 255.6875,1224.9219 256.1563,1225.1719 C256.6406,1225.4531 256.8125,1225.6719 256.9063,1226.0781 C256.9688,1226.4844 257,1226.6094 257.1406,1226.7344 C257.2813,1226.875 257.5156,1226.9844 257.7344,1226.9844 C258,1226.9844 258.2656,1226.8438 258.4375,1226.625 C258.5469,1226.4688 258.5781,1226.2813 258.5781,1225.8594 L258.5781,1224.4375 C258.5781,1224 258.5625,1223.875 258.4688,1223.7188 C258.3125,1223.4531 258.0313,1223.3125 257.7344,1223.3125 C257.4375,1223.3125 257.2344,1223.4063 257.0156,1223.7188 L256.8438,1223.6406 Z " fill="#000000"/><text fill="#000000" font-family="sans-serif" font-size="12" lengthAdjust="spacingAndGlyphs" textLength="98" x="268.5" y="1225.1387">usantatecla.utils.</text><text fill="#000000" font-family="sans-serif" font-size="12" lengthAdjust="spacingAndGlyphs" textLength="86" x="274.5" y="1239.1074">ClosedInterval</text><line style="stroke:#A80036;stroke-width:1.5;" x1="240.5" x2="368.5" y1="1246.9375" y2="1246.9375"/><line style="stroke:#A80036;stroke-width:1.5;" x1="240.5" x2="368.5" y1="1254.9375" y2="1254.9375"/><!--MD5=[4ac948797cb0d646e058fac8f0726737]
class ConcreteCoordinate--><rect codeLine="2" fill="#FEFECE" filter="url(#f15fo8gj41dow7)" height="53.9375" id="ConcreteCoordinate" style="stroke:#A80036;stroke-width:1.5;" width="153" x="7" y="778.5"/><ellipse cx="22" cy="797.4688" fill="#ADD1B2" rx="11" ry="11" style="stroke:#A80036;stroke-width:1.0;"/><path d="M24.3438,793.1406 C23.4063,792.7031 22.8125,792.5625 21.9375,792.5625 C19.3125,792.5625 17.3125,794.6406 17.3125,797.3594 L17.3125,798.4844 C17.3125,801.0625 19.4219,802.9531 22.3125,802.9531 C23.5313,802.9531 24.6875,802.6563 25.4375,802.1094 C26.0156,801.7031 26.3438,801.25 26.3438,800.8594 C26.3438,800.4063 25.9531,800.0156 25.4844,800.0156 C25.2656,800.0156 25.0625,800.0938 24.875,800.2813 C24.4219,800.7656 24.4219,800.7656 24.2344,800.8594 C23.8125,801.125 23.125,801.25 22.3594,801.25 C20.3125,801.25 19.0156,800.1563 19.0156,798.4531 L19.0156,797.3594 C19.0156,795.5781 20.2656,794.2656 22,794.2656 C22.5781,794.2656 23.1875,794.4219 23.6563,794.6719 C24.1406,794.9531 24.3125,795.1719 24.4063,795.5781 C24.4688,795.9844 24.5,796.1094 24.6406,796.2344 C24.7813,796.375 25.0156,796.4844 25.2344,796.4844 C25.5,796.4844 25.7656,796.3438 25.9375,796.125 C26.0469,795.9688 26.0781,795.7813 26.0781,795.3594 L26.0781,793.9375 C26.0781,793.5 26.0625,793.375 25.9688,793.2188 C25.8125,792.9531 25.5313,792.8125 25.2344,792.8125 C24.9375,792.8125 24.7344,792.9063 24.5156,793.2188 L24.3438,793.1406 Z " fill="#000000"/><text fill="#000000" font-family="sans-serif" font-size="12" lengthAdjust="spacingAndGlyphs" textLength="98" x="47.5" y="794.6387">usantatecla.utils.</text><text fill="#000000" font-family="sans-serif" font-size="12" lengthAdjust="spacingAndGlyphs" textLength="121" x="36" y="808.6074">ConcreteCoordinate</text><line style="stroke:#A80036;stroke-width:1.5;" x1="8" x2="159" y1="816.4375" y2="816.4375"/><line style="stroke:#A80036;stroke-width:1.5;" x1="8" x2="159" y1="824.4375" y2="824.4375"/><!--MD5=[02f7077ed79257124e28b791f351f1d7]
class Direction--><rect codeLine="3" fill="#FEFECE" filter="url(#f15fo8gj41dow7)" height="53.9375" id="Direction" style="stroke:#A80036;stroke-width:1.5;" width="130" x="404.5" y="1209"/><ellipse cx="419.5" cy="1227.9688" fill="#ADD1B2" rx="11" ry="11" style="stroke:#A80036;stroke-width:1.0;"/><path d="M421.8438,1223.6406 C420.9063,1223.2031 420.3125,1223.0625 419.4375,1223.0625 C416.8125,1223.0625 414.8125,1225.1406 414.8125,1227.8594 L414.8125,1228.9844 C414.8125,1231.5625 416.9219,1233.4531 419.8125,1233.4531 C421.0313,1233.4531 422.1875,1233.1563 422.9375,1232.6094 C423.5156,1232.2031 423.8438,1231.75 423.8438,1231.3594 C423.8438,1230.9063 423.4531,1230.5156 422.9844,1230.5156 C422.7656,1230.5156 422.5625,1230.5938 422.375,1230.7813 C421.9219,1231.2656 421.9219,1231.2656 421.7344,1231.3594 C421.3125,1231.625 420.625,1231.75 419.8594,1231.75 C417.8125,1231.75 416.5156,1230.6563 416.5156,1228.9531 L416.5156,1227.8594 C416.5156,1226.0781 417.7656,1224.7656 419.5,1224.7656 C420.0781,1224.7656 420.6875,1224.9219 421.1563,1225.1719 C421.6406,1225.4531 421.8125,1225.6719 421.9063,1226.0781 C421.9688,1226.4844 422,1226.6094 422.1406,1226.7344 C422.2813,1226.875 422.5156,1226.9844 422.7344,1226.9844 C423,1226.9844 423.2656,1226.8438 423.4375,1226.625 C423.5469,1226.4688 423.5781,1226.2813 423.5781,1225.8594 L423.5781,1224.4375 C423.5781,1224 423.5625,1223.875 423.4688,1223.7188 C423.3125,1223.4531 423.0313,1223.3125 422.7344,1223.3125 C422.4375,1223.3125 422.2344,1223.4063 422.0156,1223.7188 L421.8438,1223.6406 Z " fill="#000000"/><text fill="#000000" font-family="sans-serif" font-size="12" lengthAdjust="spacingAndGlyphs" textLength="98" x="433.5" y="1225.1387">usantatecla.utils.</text><text fill="#000000" font-family="sans-serif" font-size="12" lengthAdjust="spacingAndGlyphs" textLength="54" x="455.5" y="1239.1074">Direction</text><line style="stroke:#A80036;stroke-width:1.5;" x1="405.5" x2="533.5" y1="1246.9375" y2="1246.9375"/><line style="stroke:#A80036;stroke-width:1.5;" x1="405.5" x2="533.5" y1="1254.9375" y2="1254.9375"/><!--MD5=[b8cfd8c4119a3b0a7a46bfc5fc780f85]
class Error--><rect codeLine="4" fill="#FEFECE" filter="url(#f15fo8gj41dow7)" height="53.9375" id="Error" style="stroke:#A80036;stroke-width:1.5;" width="124" x="690.5" y="1209"/><ellipse cx="705.5" cy="1227.9688" fill="#ADD1B2" rx="11" ry="11" style="stroke:#A80036;stroke-width:1.0;"/><path d="M707.8438,1223.6406 C706.9063,1223.2031 706.3125,1223.0625 705.4375,1223.0625 C702.8125,1223.0625 700.8125,1225.1406 700.8125,1227.8594 L700.8125,1228.9844 C700.8125,1231.5625 702.9219,1233.4531 705.8125,1233.4531 C707.0313,1233.4531 708.1875,1233.1563 708.9375,1232.6094 C709.5156,1232.2031 709.8438,1231.75 709.8438,1231.3594 C709.8438,1230.9063 709.4531,1230.5156 708.9844,1230.5156 C708.7656,1230.5156 708.5625,1230.5938 708.375,1230.7813 C707.9219,1231.2656 707.9219,1231.2656 707.7344,1231.3594 C707.3125,1231.625 706.625,1231.75 705.8594,1231.75 C703.8125,1231.75 702.5156,1230.6563 702.5156,1228.9531 L702.5156,1227.8594 C702.5156,1226.0781 703.7656,1224.7656 705.5,1224.7656 C706.0781,1224.7656 706.6875,1224.9219 707.1563,1225.1719 C707.6406,1225.4531 707.8125,1225.6719 707.9063,1226.0781 C707.9688,1226.4844 708,1226.6094 708.1406,1226.7344 C708.2813,1226.875 708.5156,1226.9844 708.7344,1226.9844 C709,1226.9844 709.2656,1226.8438 709.4375,1226.625 C709.5469,1226.4688 709.5781,1226.2813 709.5781,1225.8594 L709.5781,1224.4375 C709.5781,1224 709.5625,1223.875 709.4688,1223.7188 C709.3125,1223.4531 709.0313,1223.3125 708.7344,1223.3125 C708.4375,1223.3125 708.2344,1223.4063 708.0156,1223.7188 L707.8438,1223.6406 Z " fill="#000000"/><text fill="#000000" font-family="sans-serif" font-size="12" lengthAdjust="spacingAndGlyphs" textLength="92" x="719.5" y="1225.1387">tictactoe.types.</text><text fill="#000000" font-family="sans-serif" font-size="12" lengthAdjust="spacingAndGlyphs" textLength="30" x="750.5" y="1239.1074">Error</text><line style="stroke:#A80036;stroke-width:1.5;" x1="691.5" x2="813.5" y1="1246.9375" y2="1246.9375"/><line style="stroke:#A80036;stroke-width:1.5;" x1="691.5" x2="813.5" y1="1254.9375" y2="1254.9375"/><!--MD5=[d8c8cfd5ca149094f5b67f9f607a5ec7]
class Token--><rect codeLine="5" fill="#FEFECE" filter="url(#f15fo8gj41dow7)" height="53.9375" id="Token" style="stroke:#A80036;stroke-width:1.5;" width="124" x="679.5" y="1027.5"/><ellipse cx="694.5" cy="1046.4688" fill="#ADD1B2" rx="11" ry="11" style="stroke:#A80036;stroke-width:1.0;"/><path d="M696.8438,1042.1406 C695.9063,1041.7031 695.3125,1041.5625 694.4375,1041.5625 C691.8125,1041.5625 689.8125,1043.6406 689.8125,1046.3594 L689.8125,1047.4844 C689.8125,1050.0625 691.9219,1051.9531 694.8125,1051.9531 C696.0313,1051.9531 697.1875,1051.6563 697.9375,1051.1094 C698.5156,1050.7031 698.8438,1050.25 698.8438,1049.8594 C698.8438,1049.4063 698.4531,1049.0156 697.9844,1049.0156 C697.7656,1049.0156 697.5625,1049.0938 697.375,1049.2813 C696.9219,1049.7656 696.9219,1049.7656 696.7344,1049.8594 C696.3125,1050.125 695.625,1050.25 694.8594,1050.25 C692.8125,1050.25 691.5156,1049.1563 691.5156,1047.4531 L691.5156,1046.3594 C691.5156,1044.5781 692.7656,1043.2656 694.5,1043.2656 C695.0781,1043.2656 695.6875,1043.4219 696.1563,1043.6719 C696.6406,1043.9531 696.8125,1044.1719 696.9063,1044.5781 C696.9688,1044.9844 697,1045.1094 697.1406,1045.2344 C697.2813,1045.375 697.5156,1045.4844 697.7344,1045.4844 C698,1045.4844 698.2656,1045.3438 698.4375,1045.125 C698.5469,1044.9688 698.5781,1044.7813 698.5781,1044.3594 L698.5781,1042.9375 C698.5781,1042.5 698.5625,1042.375 698.4688,1042.2188 C698.3125,1041.9531 698.0313,1041.8125 697.7344,1041.8125 C697.4375,1041.8125 697.2344,1041.9063 697.0156,1042.2188 L696.8438,1042.1406 Z " fill="#000000"/><text fill="#000000" font-family="sans-serif" font-size="12" lengthAdjust="spacingAndGlyphs" textLength="92" x="708.5" y="1043.6387">tictactoe.types.</text><text fill="#000000" font-family="sans-serif" font-size="12" lengthAdjust="spacingAndGlyphs" textLength="37" x="736" y="1057.6074">Token</text><line style="stroke:#A80036;stroke-width:1.5;" x1="680.5" x2="802.5" y1="1065.4375" y2="1065.4375"/><line style="stroke:#A80036;stroke-width:1.5;" x1="680.5" x2="802.5" y1="1073.4375" y2="1073.4375"/><!--MD5=[715d8bc148b7807b721da6bea55ba6f0]
link tictactoe.models.Board to Token--><path codeLine="21" d="M546.9582,879.0463 C546.9582,879.0463 628.594,930.232 663.5,960 C682.905,976.549 701.344,998.266 715.417,1016.604 " fill="none" id="tictactoe.models.Board-Token" style="stroke:#A80036;stroke-width:1.0;"/><polygon fill="#A80036" points="723.378,1027.227,721.181,1017.6263,720.3792,1023.2261,714.7795,1022.4244,723.378,1027.227" style="stroke:#A80036;stroke-width:1.0;"/><line style="stroke:#A80036;stroke-width:1.0;" x1="720.3792" x2="715.582" y1="1023.2261" y2="1016.824"/><polygon fill="#A80036" points="536.591,873.003,539.7601,879.4804,546.9582,879.0463,543.789,872.5689,536.591,873.003" style="stroke:#A80036;stroke-width:1.0;"/><text fill="#000000" font-family="sans-serif" font-size="13" lengthAdjust="spacingAndGlyphs" textLength="7" x="711.3779" y="1016.2752">*</text><!--MD5=[9415c0c61774263745e2cedb44e639c6]
link tictactoe.models.Board to tictactoe.models.Coordinate--><path codeLine="22" d="M367.172,900.232 C359.878,918.071 352.223,936.791 344.868,954.779 " fill="none" id="tictactoe.models.Board-to-tictactoe.models.Coordinate" style="stroke:#A80036;stroke-width:1.0;stroke-dasharray:7.0,7.0;"/><polygon fill="#A80036" points="342.802,959.832,349.9111,953.0158,344.6946,955.204,342.5063,949.9876,342.802,959.832" style="stroke:#A80036;stroke-width:1.0;"/><!--MD5=[95371b819337377421bee880416b6571]
link tictactoe.models.Board to Direction--><path codeLine="23" d="M423.353,900.131 C426.899,919.872 430.462,940.597 433.5,960 C447.289,1048.074 459.962,1152.59 465.922,1203.7002 " fill="none" id="tictactoe.models.Board-to-Direction" style="stroke:#A80036;stroke-width:1.0;stroke-dasharray:7.0,7.0;"/><polygon fill="#A80036" points="466.512,1208.7743,469.4454,1199.3724,465.9343,1203.8078,461.499,1200.2967,466.512,1208.7743" style="stroke:#A80036;stroke-width:1.0;"/><!--MD5=[4ae82c12558cb4b2e8949f940e9da2cf]
reverse link ConcreteCoordinate to tictactoe.models.Coordinate--><path codeLine="38" d="M120.74,848.121 C148.053,878.648 186.235,921.322 220.723,959.867 " fill="none" id="ConcreteCoordinate-backto-tictactoe.models.Coordinate" style="stroke:#A80036;stroke-width:1.0;"/><polygon fill="none" points="115.27,852.506,107.151,832.933,125.703,843.171,115.27,852.506" style="stroke:#A80036;stroke-width:1.0;"/><!--MD5=[0dc3277290a75d87b382fb6ce6bec75b]
link tictactoe.models.Coordinate to Error--><path codeLine="39" d="M416.682,1100.448 C501.22,1134.32 614.335,1179.6415 685.308,1208.0783 " fill="none" id="tictactoe.models.Coordinate-to-Error" style="stroke:#A80036;stroke-width:1.0;stroke-dasharray:7.0,7.0;"/><polygon fill="#A80036" points="690.345,1210.0962,683.4788,1203.0354,685.7038,1208.2363,680.5029,1210.4613,690.345,1210.0962" style="stroke:#A80036;stroke-width:1.0;"/><!--MD5=[787386d7ca2e6f5e643967cb883a78fa]
link tictactoe.models.Coordinate to Direction--><path codeLine="40" d="M390.624,1149.193 C409.209,1169.411 427.548,1189.3618 441.86,1204.9306 " fill="none" id="tictactoe.models.Coordinate-to-Direction" style="stroke:#A80036;stroke-width:1.0;stroke-dasharray:7.0,7.0;"/><polygon fill="#A80036" points="445.409,1208.7918,442.2636,1199.4587,442.0255,1205.1106,436.3736,1204.8724,445.409,1208.7918" style="stroke:#A80036;stroke-width:1.0;"/><!--MD5=[ba6e042f6a8c44c789ccd24fbb2adc9a]
link tictactoe.models.Coordinate to ClosedInterval--><path codeLine="41" d="M304.5,1149.193 C304.5,1168.897 304.5,1188.3472 304.5,1203.7347 " fill="none" id="tictactoe.models.Coordinate-to-ClosedInterval" style="stroke:#A80036;stroke-width:1.0;stroke-dasharray:7.0,7.0;"/><polygon fill="#A80036" points="304.5,1208.7918,308.5,1199.7918,304.5,1203.7918,300.5,1199.7918,304.5,1208.7918" style="stroke:#A80036;stroke-width:1.0;"/><!--MD5=[b634369fa6e65a8dead148f8efc150f7]
link tictactoe.models.Game to tictactoe.models.Board--><path codeLine="57" d="M426.2725,253.0821 C426.2725,253.0821 405.521,286.054 398.5,303 C345.546,430.802 361.015,593.126 380.375,697.901 " fill="none" id="tictactoe.models.Game-tictactoe.models.Board" style="stroke:#A80036;stroke-width:1.0;"/><polygon fill="#A80036" points="382.813,710.704,385.059,701.1147,381.8778,705.7922,377.2002,702.611,382.813,710.704" style="stroke:#A80036;stroke-width:1.0;"/><line style="stroke:#A80036;stroke-width:1.0;" x1="381.8778" x2="380.3805" y1="705.7922" y2="697.934"/><polygon fill="#A80036" points="433.223,243.3,426.487,245.8742,426.2725,253.0821,433.0085,250.5079,433.223,243.3" style="stroke:#A80036;stroke-width:1.0;"/><!--MD5=[aa5c2eaa34da3707c874f29e1edc60f9]
link tictactoe.models.Game to tictactoe.models.Turn--><path codeLine="58" d="M531.5,255.19 C531.5,255.19 531.5,278.49 531.5,289.504 " fill="none" id="tictactoe.models.Game-tictactoe.models.Turn" style="stroke:#A80036;stroke-width:1.0;"/><polygon fill="#A80036" points="531.5,302.815,535.5,293.815,531.5,297.815,527.5,293.815,531.5,302.815" style="stroke:#A80036;stroke-width:1.0;"/><line style="stroke:#A80036;stroke-width:1.0;" x1="531.5" x2="531.5" y1="297.815" y2="289.815"/><polygon fill="#A80036" points="531.5,243.19,527.5,249.19,531.5,255.19,535.5,249.19,531.5,243.19" style="stroke:#A80036;stroke-width:1.0;"/><!--MD5=[3af71857b9ad654b2037bc7ee0d85849]
link tictactoe.models.Game to tictactoe.models.Coordinate--><path codeLine="59" d="M415.623,230.58 C393.05,252.16 371.47,276.705 355.5,303 C310.395,377.266 329.846,408.591 305.5,492 C276.868,590.091 251.244,610.036 235.5,711 C222.558,793.997 217.889,817.867 235.5,900 C239.42,918.279 245.69,937.01 252.892,954.825 " fill="none" id="tictactoe.models.Game-to-tictactoe.models.Coordinate" style="stroke:#A80036;stroke-width:1.0;stroke-dasharray:7.0,7.0;"/><polygon fill="#A80036" points="254.946,959.825,255.2255,949.9801,253.0458,955.2002,247.8257,953.0205,254.946,959.825" style="stroke:#A80036;stroke-width:1.0;"/><!--MD5=[1e1952a5c407ff6ca98def89eca250c2]
link tictactoe.models.Game to Error--><path codeLine="60" d="M647.122,191.09 C790.295,259.26 1015.5,398.588 1015.5,600.5 C1015.5,600.5 1015.5,600.5 1015.5,806.5 C1015.5,984.057 973.748,1039.66 856.5,1173 C844.99,1186.0899 830.025,1197.2048 815.05,1206.2508 " fill="none" id="tictactoe.models.Game-to-Error" style="stroke:#A80036;stroke-width:1.0;stroke-dasharray:7.0,7.0;"/><polygon fill="#A80036" points="810.407,1208.9917,820.1908,1207.8618,814.7129,1206.4502,816.1245,1200.9723,810.407,1208.9917" style="stroke:#A80036;stroke-width:1.0;"/><!--MD5=[f108930b09104f9d68882eaac6c296c4]
link tictactoe.models.Game to Token--><path codeLine="61" d="M626.118,243.19 C640.542,262.05 654.07,282.369 664.5,303 C785.915,543.157 786.348,631.705 765.5,900 C762.191,942.581 753.794,991.211 747.869,1022.117 " fill="none" id="tictactoe.models.Game-to-Token" style="stroke:#A80036;stroke-width:1.0;stroke-dasharray:7.0,7.0;"/><polygon fill="#A80036" points="746.867,1027.299,752.502,1019.2214,747.8157,1022.3898,744.6473,1017.7035,746.867,1027.299" style="stroke:#A80036;stroke-width:1.0;"/><!--MD5=[ddcf232c751077f9b10d6064c369d290]
link tictactoe.models.Player to Token--><path codeLine="69" d="M592.1935,659.3662 C592.1935,659.3662 624.197,692.441 635.5,711 C695.466,809.464 715.341,947.607 728.374,1014.351 " fill="none" id="tictactoe.models.Player-Token" style="stroke:#A80036;stroke-width:1.0;"/><polygon fill="#A80036" points="731.064,1027.47,733.1744,1017.8499,730.0595,1022.5719,725.3375,1019.457,731.064,1027.47" style="stroke:#A80036;stroke-width:1.0;"/><line style="stroke:#A80036;stroke-width:1.0;" x1="730.0595" x2="728.453" y1="1022.5719" y2="1014.735"/><polygon fill="#A80036" points="583.411,651.189,585.0765,658.2051,592.1935,659.3662,590.528,652.3501,583.411,651.189" style="stroke:#A80036;stroke-width:1.0;"/><!--MD5=[ddcf232c751077f9b10d6064c369d290]
link tictactoe.models.Player to Token--><path codeLine="73" d="M616.733,651.189 C637.15,668.141 656.851,688.589 670.5,711 C732.975,813.584 751.934,959.236 749.388,1022.346 " fill="none" id="tictactoe.models.Player-to-Token" style="stroke:#A80036;stroke-width:1.0;stroke-dasharray:7.0,7.0;"/><polygon fill="#A80036" points="749.123,1027.47,753.5831,1018.6889,749.3816,1022.4767,745.5938,1018.2752,749.123,1027.47" style="stroke:#A80036;stroke-width:1.0;"/><!--MD5=[4d61797189bd4e3921b05d5b1c2f3641]
link tictactoe.models.Player to tictactoe.models.Board--><path codeLine="70" d="M494.8091,661.3227 C494.8091,661.3227 478.881,686.858 470.937,699.593 " fill="none" id="tictactoe.models.Player-tictactoe.models.Board" style="stroke:#A80036;stroke-width:1.0;"/><polygon fill="#A80036" points="463.955,710.787,472.1126,705.2685,466.6016,706.5449,465.3252,701.0339,463.955,710.787" style="stroke:#A80036;stroke-width:1.0;"/><line style="stroke:#A80036;stroke-width:1.0;" x1="466.6016" x2="470.8355" y1="706.5449" y2="699.7565"/><polygon fill="#A80036" points="501.16,651.141,494.5907,654.1149,494.8091,661.3227,501.3785,658.3488,501.16,651.141" style="stroke:#A80036;stroke-width:1.0;"/><!--MD5=[8c8274b143d2ce23d56b10c65f754674]
link tictactoe.models.Player to tictactoe.models.Coordinate--><path codeLine="71" d="M550.62,651.1 C571.7,713.096 597.238,821.656 553.5,900 C524.905,951.22 471.418,987.47 421.325,1011.831 " fill="none" id="tictactoe.models.Player-to-tictactoe.models.Coordinate" style="stroke:#A80036;stroke-width:1.0;stroke-dasharray:7.0,7.0;"/><polygon fill="#A80036" points="416.799,1014.004,426.6436,1013.714,421.3063,1011.8396,423.1806,1006.5023,416.799,1014.004" style="stroke:#A80036;stroke-width:1.0;"/><!--MD5=[5f38bb10c8a4955eb5b1e5512962abb2]
link tictactoe.models.Player to Error--><path codeLine="72" d="M553.112,651.229 C560.682,669.682 568.726,691.05 574.5,711 C632.589,911.705 547.095,998.162 661.5,1173 C669.964,1185.9348 682.16,1196.8839 694.885,1205.8114 " fill="none" id="tictactoe.models.Player-to-Error" style="stroke:#A80036;stroke-width:1.0;stroke-dasharray:7.0,7.0;"/><polygon fill="#A80036" points="699.217,1208.7614,694.0296,1200.3894,695.0843,1205.947,689.5266,1207.0017,699.217,1208.7614" style="stroke:#A80036;stroke-width:1.0;"/><!--MD5=[69cbcab07352f712aee3f1faba0680a5]
link tictactoe.models.State to tictactoe.models.StateValue--><path codeLine="82" d="M275.5486,203.3883 C275.5486,203.3883 258.896,295.124 251.713,334.709 " fill="none" id="tictactoe.models.State-tictactoe.models.StateValue" style="stroke:#A80036;stroke-width:1.0;"/><polygon fill="#A80036" points="249.363,347.655,254.906,339.514,250.2559,342.7354,247.0346,338.0853,249.363,347.655" style="stroke:#A80036;stroke-width:1.0;"/><line style="stroke:#A80036;stroke-width:1.0;" x1="250.2559" x2="251.6845" y1="342.7354" y2="334.8645"/><polygon fill="#A80036" points="277.685,191.58,272.6807,196.772,275.5486,203.3883,280.5529,198.1963,277.685,191.58" style="stroke:#A80036;stroke-width:1.0;"/><!--MD5=[445ca9be6ac7acaf2fbd96fa00e05ee8]
link tictactoe.models.Turn to tictactoe.models.Player--><path codeLine="105" d="M531.5,504.108 C531.5,504.108 531.5,528.02 531.5,538.693 " fill="none" id="tictactoe.models.Turn-tictactoe.models.Player" style="stroke:#A80036;stroke-width:1.0;"/><polygon fill="#A80036" points="531.5,551.799,535.5,542.799,531.5,546.799,527.5,542.799,531.5,551.799" style="stroke:#A80036;stroke-width:1.0;"/><line style="stroke:#A80036;stroke-width:1.0;" x1="531.5" x2="531.5" y1="546.799" y2="538.799"/><polygon fill="#A80036" points="531.5,492.108,527.5,498.108,531.5,504.108,535.5,498.108,531.5,492.108" style="stroke:#A80036;stroke-width:1.0;"/><text fill="#000000" font-family="sans-serif" font-size="13" lengthAdjust="spacingAndGlyphs" textLength="7" x="524.0078" y="540.816">*</text><!--MD5=[11aca849becf2c66e9fb721656f4b409]
link tictactoe.models.Turn to tictactoe.models.Board--><path codeLine="106" d="M425.5369,502.0432 C425.5369,502.0432 404.846,534.985 398.5,552 C381.412,597.816 380.538,651.625 384.996,697.77 " fill="none" id="tictactoe.models.Turn-tictactoe.models.Board" style="stroke:#A80036;stroke-width:1.0;"/><polygon fill="#A80036" points="386.423,710.883,389.4253,701.5029,385.8818,705.9124,381.4723,702.3689,386.423,710.883" style="stroke:#A80036;stroke-width:1.0;"/><line style="stroke:#A80036;stroke-width:1.0;" x1="385.8818" x2="385.016" y1="705.9124" y2="697.9595"/><polygon fill="#A80036" points="432.589,492.334,425.8266,494.8379,425.5369,502.0432,432.2993,499.5393,432.589,492.334" style="stroke:#A80036;stroke-width:1.0;"/><!--MD5=[2ce67dc7b8904d2487e2a382b8293df9]
link tictactoe.models.Turn to Token--><path codeLine="107" d="M620.934,492.265 C636.597,511.215 651.892,531.605 664.5,552 C704.734,617.08 714.342,636.213 730.5,711 C754.769,823.33 748.676,961.149 744.223,1022.033 " fill="none" id="tictactoe.models.Turn-to-Token" style="stroke:#A80036;stroke-width:1.0;stroke-dasharray:7.0,7.0;"/><polygon fill="#A80036" points="743.825,1027.333,748.4873,1018.6576,744.1992,1022.347,740.5098,1018.0589,743.825,1027.333" style="stroke:#A80036;stroke-width:1.0;"/><!--MD5=[48951ad2288b716169f812a2c734d472]
link tictactoe.models.Turn to tictactoe.models.Coordinate--><path codeLine="108" d="M415.906,488.921 C354.458,545.103 285.708,623.228 256.5,711 C230.025,790.559 246.717,885.238 267.36,954.865 " fill="none" id="tictactoe.models.Turn-to-tictactoe.models.Coordinate" style="stroke:#A80036;stroke-width:1.0;stroke-dasharray:7.0,7.0;"/><polygon fill="#A80036" points="268.853,959.835,270.0944,950.0647,267.4144,955.0464,262.4327,952.3664,268.853,959.835" style="stroke:#A80036;stroke-width:1.0;"/><!--MD5=[448c7c6490121f34126ed8904289109a]
link tictactoe.models.Turn to Error--><path codeLine="109" d="M647.399,485.912 C678.07,510.922 705.668,535.772 716.5,552 C820.389,707.645 800.199,773.973 820.5,960 C830.77,1054.108 858.734,1086.398 820.5,1173 C815.088,1185.2572 805.925,1196.1375 796.048,1205.2276 " fill="none" id="tictactoe.models.Turn-to-Error" style="stroke:#A80036;stroke-width:1.0;stroke-dasharray:7.0,7.0;"/><polygon fill="#A80036" points="792.084,1208.7519,801.4675,1205.7604,795.8204,1205.4293,796.1514,1199.7822,792.084,1208.7519" style="stroke:#A80036;stroke-width:1.0;"/><!--MD5=[3e35100595e2085aa7753d64e316ba06]
@startuml
class ClosedInterval as "usantatecla.utils.\nClosedInterval" {}
class ConcreteCoordinate as "usantatecla.utils.\nConcreteCoordinate" {}
class Direction as "usantatecla.utils.\nDirection" {}
class Error as "tictactoe.types.\nError" {}
class Token as "tictactoe.types.\nToken" {}

class  tictactoe.models.Board{
+ Board()
~ reset()
~ getToken(Coordinate): Token
~ isCompleted(): boolean
~ put(Coordinate, Token)
~ move(Coordinate, Coordinate)
- remove(Coordinate)
~ isOccupied(Coordinate, Token): boolean
~ isEmpty(Coordinate): boolean
~ isTicTacToe(Token): boolean
- getCoordinates(Token): List<Coordinate>
}

tictactoe.models.Board *-down-> "*" Token
tictactoe.models.Board .down.> tictactoe.models.Coordinate
tictactoe.models.Board .down.> Direction

class  tictactoe.models.Coordinate{
- {static} NULL_COORDINATE: Coordinate
+ {static} DIMENSION: int
- {static} LIMITS: ClosedInterval
+ Coordinate()
+ Coordinate(int, int)
+ isNull(): boolean
+ isValid(): Error
+ getDirection(Coordinate): Direction
- inInverseDiagonal(): boolean
+ random()
+ equals(Object): boolean
}
ConcreteCoordinate <|-down- tictactoe.models.Coordinate
tictactoe.models.Coordinate .down.> Error
tictactoe.models.Coordinate .down.> Direction
tictactoe.models.Coordinate .down.> ClosedInterval

class  tictactoe.models.Game{
+ Game()
+ reset()
+ setUsers(int)
+ isBoardComplete(): boolean
+ isUser(): boolean
+ put(Coordinate): Error
+ move(Coordinate, Coordinate): Error
+ next()
+ isTicTacToe(): boolean
+ getToken(Coordinate): Token
+ getToken(): Token
+ getMaxPlayers(): int
}
tictactoe.models.Game *-down-> tictactoe.models.Board
tictactoe.models.Game *-down-> tictactoe.models.Turn
tictactoe.models.Game .down.> tictactoe.models.Coordinate
tictactoe.models.Game .down.> Error
tictactoe.models.Game .down.> Token

class  tictactoe.models.Player{
~ Player(Token, Board)
~ put(Coordinate): Error
~ move(Coordinate, Coordinate): Error
~ getToken(): Token
}
tictactoe.models.Player *-down-> Token
tictactoe.models.Player *-down-> tictactoe.models.Board
tictactoe.models.Player .down.> tictactoe.models.Coordinate
tictactoe.models.Player .down.> Error
tictactoe.models.Player .down.> Token

class tictactoe.models.State{
+ State()
+ reset()
+ next()
+ getValueState(): StateValue
}

tictactoe.models.State *-down-> tictactoe.models.StateValue

enum tictactoe.models.StateValue{
+ INITIAL
+ IN_GAME
+ RESUME 
+ EXIT
}

class  tictactoe.models.Turn{
+ {static} NUMBER_PLAYERS: int
- active: int
- users: int
~ Turn(Board)
~ setUsers(int)
~ next()
~ isUser(): boolean
~ put(Coordinate): Error
~ getPlayer(): Player
~ move(Coordinate, Coordinate): Error
~ getToken(): Token
}

tictactoe.models.Turn *-down-> "*" tictactoe.models.Player
tictactoe.models.Turn *-down-> tictactoe.models.Board
tictactoe.models.Turn .down.-> Token
tictactoe.models.Turn .down.-> tictactoe.models.Coordinate
tictactoe.models.Turn .down.-> Error
@enduml

PlantUML version 1.2020.22(Sun Dec 06 09:36:27 UTC 2020)
(GPL source distribution)
Java Runtime: Java(TM) SE Runtime Environment
JVM: Java HotSpot(TM) 64-Bit Server VM
Default Encoding: UTF-8
Language: en
Country: US
--></g></svg>