<?xml version="1.0" encoding="UTF-8" standalone="no"?><svg xmlns="http://www.w3.org/2000/svg" xmlns:xlink="http://www.w3.org/1999/xlink" contentScriptType="application/ecmascript" contentStyleType="text/css" height="459px" preserveAspectRatio="none" style="width:726px;height:459px;" version="1.1" viewBox="0 0 726 459" width="726px" zoomAndPan="magnify"><defs><filter height="300%" id="ffa4pwk6f3d1q" width="300%" x="-1" y="-1"><feGaussianBlur result="blurOut" stdDeviation="2.0"/><feColorMatrix in="blurOut" result="blurOut2" type="matrix" values="0 0 0 0 0 0 0 0 0 0 0 0 0 0 0 0 0 0 .4 0"/><feOffset dx="4.0" dy="4.0" in="blurOut2" result="blurOut3"/><feBlend in="SourceGraphic" in2="blurOut3" mode="normal"/></filter></defs><g><!--MD5=[f4e83a21a957c5b9ba9691e6361db36b]
cluster tictactoe.views--><polygon fill="#FFFFFF" filter="url(#ffa4pwk6f3d1q)" points="16,6,148,6,155,28.2969,608,28.2969,608,348,16,348,16,6" style="stroke:#000000;stroke-width:1.5;"/><line style="stroke:#000000;stroke-width:1.5;" x1="16" x2="155" y1="28.2969" y2="28.2969"/><text fill="#000000" font-family="sans-serif" font-size="14" font-weight="bold" lengthAdjust="spacingAndGlyphs" textLength="126" x="20" y="20.9951">tictactoe.views</text><!--MD5=[17799e03bfee0ccb3aa03b93da9c26d6]
class tictactoe.views.ErrorView--><rect codeLine="5" fill="#FEFECE" filter="url(#ffa4pwk6f3d1q)" height="73.6094" id="tictactoe.views.ErrorView" style="stroke:#A80036;stroke-width:1.5;" width="138" x="201" y="149.5"/><ellipse cx="237.15" cy="165.5" fill="#ADD1B2" rx="11" ry="11" style="stroke:#A80036;stroke-width:1.0;"/><path d="M239.4938,161.1719 C238.5563,160.7344 237.9625,160.5938 237.0875,160.5938 C234.4625,160.5938 232.4625,162.6719 232.4625,165.3906 L232.4625,166.5156 C232.4625,169.0938 234.5719,170.9844 237.4625,170.9844 C238.6813,170.9844 239.8375,170.6875 240.5875,170.1406 C241.1656,169.7344 241.4938,169.2813 241.4938,168.8906 C241.4938,168.4375 241.1031,168.0469 240.6344,168.0469 C240.4156,168.0469 240.2125,168.125 240.025,168.3125 C239.5719,168.7969 239.5719,168.7969 239.3844,168.8906 C238.9625,169.1563 238.275,169.2813 237.5094,169.2813 C235.4625,169.2813 234.1656,168.1875 234.1656,166.4844 L234.1656,165.3906 C234.1656,163.6094 235.4156,162.2969 237.15,162.2969 C237.7281,162.2969 238.3375,162.4531 238.8063,162.7031 C239.2906,162.9844 239.4625,163.2031 239.5563,163.6094 C239.6188,164.0156 239.65,164.1406 239.7906,164.2656 C239.9313,164.4063 240.1656,164.5156 240.3844,164.5156 C240.65,164.5156 240.9156,164.375 241.0875,164.1563 C241.1969,164 241.2281,163.8125 241.2281,163.3906 L241.2281,161.9688 C241.2281,161.5313 241.2125,161.4063 241.1188,161.25 C240.9625,160.9844 240.6813,160.8438 240.3844,160.8438 C240.0875,160.8438 239.8844,160.9375 239.6656,161.25 L239.4938,161.1719 Z " fill="#000000"/><text fill="#000000" font-family="sans-serif" font-size="12" lengthAdjust="spacingAndGlyphs" textLength="59" x="255.85" y="169.6543">ErrorView</text><line style="stroke:#A80036;stroke-width:1.5;" x1="202" x2="338" y1="181.5" y2="181.5"/><ellipse cx="212" cy="192.5" fill="none" rx="3" ry="3" style="stroke:#038048;stroke-width:1.0;"/><text fill="#000000" font-family="sans-serif" font-size="11" lengthAdjust="spacingAndGlyphs" text-decoration="underline" textLength="112" x="221" y="195.7104">MESSAGES: String[]</text><line style="stroke:#A80036;stroke-width:1.5;" x1="202" x2="338" y1="202.3047" y2="202.3047"/><ellipse cx="212" cy="213.3047" fill="#84BE84" rx="3" ry="3" style="stroke:#038048;stroke-width:1.0;"/><text fill="#000000" font-family="sans-serif" font-size="11" lengthAdjust="spacingAndGlyphs" textLength="88" x="221" y="216.5151">ErrorView(Error)</text><!--MD5=[8b95091471898ea6b0cbbbb1cd164db3]
class tictactoe.views.Message--><rect codeLine="11" fill="#FEFECE" filter="url(#ffa4pwk6f3d1q)" height="291.2891" id="tictactoe.views.Message" style="stroke:#A80036;stroke-width:1.5;" width="218" x="374" y="41"/><ellipse cx="451.25" cy="57" fill="#EB937F" rx="11" ry="11" style="stroke:#A80036;stroke-width:1.0;"/><path d="M450.0469,57.875 L451.5,57.875 L451.5,57.9844 C451.5,58.3906 451.5313,58.5469 451.6094,58.7031 C451.7656,58.9531 452.0469,59.1094 452.3438,59.1094 C452.5938,59.1094 452.8594,58.9688 453.0156,58.75 C453.1406,58.5938 453.1719,58.4375 453.1719,57.9844 L453.1719,56.0625 C453.1719,55.9063 453.1719,55.8594 453.1563,55.7031 C453.0938,55.2344 452.7813,54.9219 452.3281,54.9219 C452.0781,54.9219 451.8125,55.0625 451.6406,55.2813 C451.5313,55.4531 451.5,55.6094 451.5,56.0625 L451.5,56.1875 L450.0469,56.1875 L450.0469,53.7813 L454.0313,53.7813 L454.0313,54.6406 C454.0313,55.0469 454.0625,55.2188 454.1406,55.375 C454.3125,55.625 454.5938,55.7813 454.875,55.7813 C455.1406,55.7813 455.4063,55.6406 455.5781,55.4219 C455.6875,55.25 455.7188,55.1094 455.7188,54.6406 L455.7188,52.0938 L448.0938,52.0938 C447.6563,52.0938 447.5313,52.1094 447.375,52.2031 C447.125,52.3594 446.9688,52.6563 446.9688,52.9375 C446.9688,53.2188 447.1094,53.4688 447.3281,53.6406 C447.4844,53.75 447.6719,53.7813 448.0938,53.7813 L448.3438,53.7813 L448.3438,60.2969 L448.0938,60.2969 C447.6875,60.2969 447.5313,60.3125 447.375,60.4219 C447.125,60.5938 446.9688,60.8594 446.9688,61.1563 C446.9688,61.4219 447.1094,61.6719 447.3281,61.8281 C447.4688,61.9531 447.7031,62 448.0938,62 L456.0938,62 L456.0938,59.4219 C456.0938,58.9844 456.0625,58.8438 455.9844,58.6875 C455.8125,58.4375 455.5313,58.2813 455.25,58.2813 C454.9844,58.2813 454.7188,58.3906 454.5469,58.6406 C454.4375,58.7969 454.4063,58.9375 454.4063,59.4219 L454.4063,60.2969 L450.0469,60.2969 L450.0469,57.875 Z " fill="#000000"/><text fill="#000000" font-family="sans-serif" font-size="12" lengthAdjust="spacingAndGlyphs" textLength="55" x="471.75" y="61.1543">Message</text><line style="stroke:#A80036;stroke-width:1.5;" x1="375" x2="591" y1="73" y2="73"/><ellipse cx="385" cy="84" fill="none" rx="3" ry="3" style="stroke:#038048;stroke-width:1.0;"/><text fill="#000000" font-family="sans-serif" font-size="11" lengthAdjust="spacingAndGlyphs" textLength="37" x="394" y="87.2104">TITTLE</text><ellipse cx="385" cy="96.8047" fill="none" rx="3" ry="3" style="stroke:#038048;stroke-width:1.0;"/><text fill="#000000" font-family="sans-serif" font-size="11" lengthAdjust="spacingAndGlyphs" textLength="102" x="394" y="100.0151">NUMBER_PLAYERS</text><ellipse cx="385" cy="109.6094" fill="none" rx="3" ry="3" style="stroke:#038048;stroke-width:1.0;"/><text fill="#000000" font-family="sans-serif" font-size="11" lengthAdjust="spacingAndGlyphs" textLength="67" x="394" y="112.8198">SEPARATOR</text><ellipse cx="385" cy="122.4141" fill="none" rx="3" ry="3" style="stroke:#038048;stroke-width:1.0;"/><text fill="#000000" font-family="sans-serif" font-size="11" lengthAdjust="spacingAndGlyphs" textLength="116" x="394" y="125.6245">VERTICAL_LINE_LEFT</text><ellipse cx="385" cy="135.2188" fill="none" rx="3" ry="3" style="stroke:#038048;stroke-width:1.0;"/><text fill="#000000" font-family="sans-serif" font-size="11" lengthAdjust="spacingAndGlyphs" textLength="150" x="394" y="138.4292">VERTICAL_LINE_CENTERED</text><ellipse cx="385" cy="148.0234" fill="none" rx="3" ry="3" style="stroke:#038048;stroke-width:1.0;"/><text fill="#000000" font-family="sans-serif" font-size="11" lengthAdjust="spacingAndGlyphs" textLength="124" x="394" y="151.2339">VERTICAL_LINE_RIGHT</text><ellipse cx="385" cy="160.8281" fill="none" rx="3" ry="3" style="stroke:#038048;stroke-width:1.0;"/><text fill="#000000" font-family="sans-serif" font-size="11" lengthAdjust="spacingAndGlyphs" textLength="166" x="394" y="164.0386">ENTER_COORDINATE_TO_PUT</text><ellipse cx="385" cy="173.6328" fill="none" rx="3" ry="3" style="stroke:#038048;stroke-width:1.0;"/><text fill="#000000" font-family="sans-serif" font-size="11" lengthAdjust="spacingAndGlyphs" textLength="192" x="394" y="176.8433">ENTER_COORDINATE_TO_REMOVE</text><ellipse cx="385" cy="186.4375" fill="none" rx="3" ry="3" style="stroke:#038048;stroke-width:1.0;"/><text fill="#000000" font-family="sans-serif" font-size="11" lengthAdjust="spacingAndGlyphs" textLength="124" x="394" y="189.6479">COORDINATE_TO_PUT</text><ellipse cx="385" cy="199.2422" fill="none" rx="3" ry="3" style="stroke:#038048;stroke-width:1.0;"/><text fill="#000000" font-family="sans-serif" font-size="11" lengthAdjust="spacingAndGlyphs" textLength="150" x="394" y="202.4526">COORDINATE_TO_REMOVE</text><ellipse cx="385" cy="212.0469" fill="none" rx="3" ry="3" style="stroke:#038048;stroke-width:1.0;"/><text fill="#000000" font-family="sans-serif" font-size="11" lengthAdjust="spacingAndGlyphs" textLength="136" x="394" y="215.2573">COORDINATE_TO_MOVE</text><ellipse cx="385" cy="224.8516" fill="none" rx="3" ry="3" style="stroke:#038048;stroke-width:1.0;"/><text fill="#000000" font-family="sans-serif" font-size="11" lengthAdjust="spacingAndGlyphs" textLength="69" x="394" y="228.062">PLAYER_WIN</text><ellipse cx="385" cy="237.6563" fill="none" rx="3" ry="3" style="stroke:#038048;stroke-width:1.0;"/><text fill="#000000" font-family="sans-serif" font-size="11" lengthAdjust="spacingAndGlyphs" textLength="46" x="394" y="240.8667">RESUME</text><rect fill="none" height="6" style="stroke:#C82930;stroke-width:1.0;" width="6" x="382" y="247.4609"/><text fill="#000000" font-family="sans-serif" font-size="11" lengthAdjust="spacingAndGlyphs" textLength="93" x="394" y="253.6714">message: String</text><line style="stroke:#A80036;stroke-width:1.5;" x1="375" x2="591" y1="260.2656" y2="260.2656"/><rect fill="#F24D5C" height="6" style="stroke:#C82930;stroke-width:1.0;" width="6" x="382" y="268.2656"/><text fill="#000000" font-family="sans-serif" font-size="11" lengthAdjust="spacingAndGlyphs" textLength="92" x="394" y="274.4761">Message(String)</text><ellipse cx="385" cy="284.0703" fill="#84BE84" rx="3" ry="3" style="stroke:#038048;stroke-width:1.0;"/><text fill="#000000" font-family="sans-serif" font-size="11" lengthAdjust="spacingAndGlyphs" textLength="118" x="394" y="287.2808">getMessage(): String</text><ellipse cx="385" cy="296.875" fill="#84BE84" rx="3" ry="3" style="stroke:#038048;stroke-width:1.0;"/><text fill="#000000" font-family="sans-serif" font-size="11" lengthAdjust="spacingAndGlyphs" textLength="36" x="394" y="300.0854">write()</text><ellipse cx="385" cy="309.6797" fill="#84BE84" rx="3" ry="3" style="stroke:#038048;stroke-width:1.0;"/><text fill="#000000" font-family="sans-serif" font-size="11" lengthAdjust="spacingAndGlyphs" textLength="46" x="394" y="312.8901">writeln()</text><ellipse cx="385" cy="322.4844" fill="#84BE84" rx="3" ry="3" style="stroke:#038048;stroke-width:1.0;"/><text fill="#000000" font-family="sans-serif" font-size="11" lengthAdjust="spacingAndGlyphs" textLength="92" x="394" y="325.6948">toString(): String</text><!--MD5=[015754420c4cdd9bacda884b3fa8c6ca]
class tictactoe.views.GraphicsView--><rect codeLine="35" fill="#FEFECE" filter="url(#ffa4pwk6f3d1q)" height="60.8047" id="tictactoe.views.View" style="stroke:#A80036;stroke-width:1.5;" width="133" x="32.5" y="156"/><ellipse cx="80.75" cy="172" fill="#A9DCDF" rx="11" ry="11" style="stroke:#A80036;stroke-width:1.0;"/><path d="M82.8281,173.8125 L83.2188,174.7969 L82.8281,174.7969 C82.375,174.7969 82.2656,174.8125 82.1094,174.9219 C81.8594,175.0781 81.7031,175.3594 81.7031,175.6563 C81.7031,175.9219 81.8438,176.1719 82.0625,176.3281 C82.2031,176.4531 82.4063,176.5 82.8281,176.5 L85.1875,176.5 C85.5469,176.5 85.7656,176.4688 85.9063,176.375 C86.1563,176.2344 86.3125,175.9375 86.3125,175.6563 C86.3125,175.375 86.1719,175.125 85.9531,174.9688 C85.7813,174.8281 85.625,174.7969 85.1563,174.7969 L81.7656,166.5938 L78.0938,166.5938 C77.6406,166.5938 77.5156,166.6094 77.3594,166.7031 C77.1094,166.875 76.9531,167.1563 76.9531,167.4375 C76.9531,167.7188 77.0938,167.9688 77.3125,168.1406 C77.4844,168.25 77.6563,168.2813 78.0938,168.2813 L79.1719,168.2813 L76.5313,174.7969 C76.1094,174.7969 75.9531,174.8125 75.7969,174.9219 C75.5469,175.0781 75.3906,175.3594 75.3906,175.6563 C75.3906,176.2188 75.7656,176.5 76.5156,176.5 L78.7813,176.5 C79.1406,176.5 79.3594,176.4688 79.4844,176.375 C79.75,176.2344 79.8906,175.9375 79.8906,175.6563 C79.8906,175.375 79.7656,175.125 79.5469,174.9531 C79.375,174.8281 79.2344,174.7969 78.7813,174.7969 L78.3906,174.7969 L78.7813,173.8125 L82.8281,173.8125 Z M82.125,172.1094 L79.4531,172.1094 L80.7969,168.8438 L82.125,172.1094 Z " fill="#000000"/><text fill="#000000" font-family="sans-serif" font-size="12" font-style="italic" lengthAdjust="spacingAndGlyphs" textLength="28" x="101.25" y="176.1543">View</text><line style="stroke:#A80036;stroke-width:1.5;" x1="33.5" x2="164.5" y1="188" y2="188"/><line style="stroke:#A80036;stroke-width:1.5;" x1="33.5" x2="164.5" y1="196" y2="196"/><ellipse cx="43.5" cy="207" fill="#84BE84" rx="3" ry="3" style="stroke:#038048;stroke-width:1.0;"/><text fill="#000000" font-family="sans-serif" font-size="11" font-style="italic" lengthAdjust="spacingAndGlyphs" textLength="107" x="52.5" y="210.2104">interact(Controller)</text><!--MD5=[b8cfd8c4119a3b0a7a46bfc5fc780f85]
class Error--><rect codeLine="1" fill="#FEFECE" filter="url(#ffa4pwk6f3d1q)" height="53.9375" id="Error" style="stroke:#A80036;stroke-width:1.5;" width="124" x="208" y="392"/><ellipse cx="223" cy="410.9688" fill="#ADD1B2" rx="11" ry="11" style="stroke:#A80036;stroke-width:1.0;"/><path d="M225.3438,406.6406 C224.4063,406.2031 223.8125,406.0625 222.9375,406.0625 C220.3125,406.0625 218.3125,408.1406 218.3125,410.8594 L218.3125,411.9844 C218.3125,414.5625 220.4219,416.4531 223.3125,416.4531 C224.5313,416.4531 225.6875,416.1563 226.4375,415.6094 C227.0156,415.2031 227.3438,414.75 227.3438,414.3594 C227.3438,413.9063 226.9531,413.5156 226.4844,413.5156 C226.2656,413.5156 226.0625,413.5938 225.875,413.7813 C225.4219,414.2656 225.4219,414.2656 225.2344,414.3594 C224.8125,414.625 224.125,414.75 223.3594,414.75 C221.3125,414.75 220.0156,413.6563 220.0156,411.9531 L220.0156,410.8594 C220.0156,409.0781 221.2656,407.7656 223,407.7656 C223.5781,407.7656 224.1875,407.9219 224.6563,408.1719 C225.1406,408.4531 225.3125,408.6719 225.4063,409.0781 C225.4688,409.4844 225.5,409.6094 225.6406,409.7344 C225.7813,409.875 226.0156,409.9844 226.2344,409.9844 C226.5,409.9844 226.7656,409.8438 226.9375,409.625 C227.0469,409.4688 227.0781,409.2813 227.0781,408.8594 L227.0781,407.4375 C227.0781,407 227.0625,406.875 226.9688,406.7188 C226.8125,406.4531 226.5313,406.3125 226.2344,406.3125 C225.9375,406.3125 225.7344,406.4063 225.5156,406.7188 L225.3438,406.6406 Z " fill="#000000"/><text fill="#000000" font-family="sans-serif" font-size="12" lengthAdjust="spacingAndGlyphs" textLength="92" x="237" y="408.1387">tictactoe.types.</text><text fill="#000000" font-family="sans-serif" font-size="12" lengthAdjust="spacingAndGlyphs" textLength="30" x="268" y="422.1074">Error</text><line style="stroke:#A80036;stroke-width:1.5;" x1="209" x2="331" y1="429.9375" y2="429.9375"/><line style="stroke:#A80036;stroke-width:1.5;" x1="209" x2="331" y1="437.9375" y2="437.9375"/><!--MD5=[315b61b427ec618d6861d47eee00cca3]
class Console--><rect codeLine="2" fill="#FEFECE" filter="url(#ffa4pwk6f3d1q)" height="53.9375" id="Console" style="stroke:#A80036;stroke-width:1.5;" width="130" x="392" y="392"/><ellipse cx="407" cy="410.9688" fill="#ADD1B2" rx="11" ry="11" style="stroke:#A80036;stroke-width:1.0;"/><path d="M409.3438,406.6406 C408.4063,406.2031 407.8125,406.0625 406.9375,406.0625 C404.3125,406.0625 402.3125,408.1406 402.3125,410.8594 L402.3125,411.9844 C402.3125,414.5625 404.4219,416.4531 407.3125,416.4531 C408.5313,416.4531 409.6875,416.1563 410.4375,415.6094 C411.0156,415.2031 411.3438,414.75 411.3438,414.3594 C411.3438,413.9063 410.9531,413.5156 410.4844,413.5156 C410.2656,413.5156 410.0625,413.5938 409.875,413.7813 C409.4219,414.2656 409.4219,414.2656 409.2344,414.3594 C408.8125,414.625 408.125,414.75 407.3594,414.75 C405.3125,414.75 404.0156,413.6563 404.0156,411.9531 L404.0156,410.8594 C404.0156,409.0781 405.2656,407.7656 407,407.7656 C407.5781,407.7656 408.1875,407.9219 408.6563,408.1719 C409.1406,408.4531 409.3125,408.6719 409.4063,409.0781 C409.4688,409.4844 409.5,409.6094 409.6406,409.7344 C409.7813,409.875 410.0156,409.9844 410.2344,409.9844 C410.5,409.9844 410.7656,409.8438 410.9375,409.625 C411.0469,409.4688 411.0781,409.2813 411.0781,408.8594 L411.0781,407.4375 C411.0781,407 411.0625,406.875 410.9688,406.7188 C410.8125,406.4531 410.5313,406.3125 410.2344,406.3125 C409.9375,406.3125 409.7344,406.4063 409.5156,406.7188 L409.3438,406.6406 Z " fill="#000000"/><text fill="#000000" font-family="sans-serif" font-size="12" lengthAdjust="spacingAndGlyphs" textLength="98" x="421" y="408.1387">usantatecla.utils.</text><text fill="#000000" font-family="sans-serif" font-size="12" lengthAdjust="spacingAndGlyphs" textLength="49" x="445.5" y="422.1074">Console</text><line style="stroke:#A80036;stroke-width:1.5;" x1="393" x2="521" y1="429.9375" y2="429.9375"/><line style="stroke:#A80036;stroke-width:1.5;" x1="393" x2="521" y1="437.9375" y2="437.9375"/><!--MD5=[1d7ba1c7002d54515419844fbd155368]
class Controller--><rect codeLine="3" fill="#FEFECE" filter="url(#ffa4pwk6f3d1q)" height="53.9375" id="Controller" style="stroke:#A80036;stroke-width:1.5;" width="155" x="557.5" y="392"/><ellipse cx="572.5" cy="410.9688" fill="#ADD1B2" rx="11" ry="11" style="stroke:#A80036;stroke-width:1.0;"/><path d="M574.8438,406.6406 C573.9063,406.2031 573.3125,406.0625 572.4375,406.0625 C569.8125,406.0625 567.8125,408.1406 567.8125,410.8594 L567.8125,411.9844 C567.8125,414.5625 569.9219,416.4531 572.8125,416.4531 C574.0313,416.4531 575.1875,416.1563 575.9375,415.6094 C576.5156,415.2031 576.8438,414.75 576.8438,414.3594 C576.8438,413.9063 576.4531,413.5156 575.9844,413.5156 C575.7656,413.5156 575.5625,413.5938 575.375,413.7813 C574.9219,414.2656 574.9219,414.2656 574.7344,414.3594 C574.3125,414.625 573.625,414.75 572.8594,414.75 C570.8125,414.75 569.5156,413.6563 569.5156,411.9531 L569.5156,410.8594 C569.5156,409.0781 570.7656,407.7656 572.5,407.7656 C573.0781,407.7656 573.6875,407.9219 574.1563,408.1719 C574.6406,408.4531 574.8125,408.6719 574.9063,409.0781 C574.9688,409.4844 575,409.6094 575.1406,409.7344 C575.2813,409.875 575.5156,409.9844 575.7344,409.9844 C576,409.9844 576.2656,409.8438 576.4375,409.625 C576.5469,409.4688 576.5781,409.2813 576.5781,408.8594 L576.5781,407.4375 C576.5781,407 576.5625,406.875 576.4688,406.7188 C576.3125,406.4531 576.0313,406.3125 575.7344,406.3125 C575.4375,406.3125 575.2344,406.4063 575.0156,406.7188 L574.8438,406.6406 Z " fill="#000000"/><text fill="#000000" font-family="sans-serif" font-size="12" lengthAdjust="spacingAndGlyphs" textLength="123" x="586.5" y="408.1387">tictactoe.controllers.</text><text fill="#000000" font-family="sans-serif" font-size="12" lengthAdjust="spacingAndGlyphs" textLength="59" x="618.5" y="422.1074">Controller</text><line style="stroke:#A80036;stroke-width:1.5;" x1="558.5" x2="711.5" y1="429.9375" y2="429.9375"/><line style="stroke:#A80036;stroke-width:1.5;" x1="558.5" x2="711.5" y1="437.9375" y2="437.9375"/><!--MD5=[6b5fb949459e9919da652f12454cf9c5]
link tictactoe.views.ErrorView to Error--><path codeLine="9" d="M270,235.516 C270,235.516 270,339.44 270,378.7076 " fill="none" id="tictactoe.views.ErrorView-Error" style="stroke:#A80036;stroke-width:1.0;"/><polygon fill="#A80036" points="270,391.8951,274,382.8951,270,386.8951,266,382.8951,270,391.8951" style="stroke:#A80036;stroke-width:1.0;"/><line style="stroke:#A80036;stroke-width:1.0;" x1="270" x2="270" y1="386.8951" y2="378.895"/><polygon fill="#A80036" points="270,223.516,266,229.516,270,235.516,274,229.516,270,223.516" style="stroke:#A80036;stroke-width:1.0;"/><!--MD5=[c07da26758a9269fd0b37bd7c33bafaa]
link tictactoe.views.Message to Console--><path codeLine="33" d="M466.681,332.17 C464.392,352.4709 462.249,371.4664 460.564,386.4001 " fill="none" id="tictactoe.views.Message-to-Console" style="stroke:#A80036;stroke-width:1.0;stroke-dasharray:7.0,7.0;"/><polygon fill="#A80036" points="459.965,391.7131,464.9488,383.2183,460.5256,386.7446,456.9992,382.3214,459.965,391.7131" style="stroke:#A80036;stroke-width:1.0;"/><!--MD5=[c6008d37e18842950f1734177ccd8566]
link tictactoe.views.Message to Controller--><path codeLine="39" d="M578.401,332.17 C592.023,352.8271 604.753,372.1325 614.678,387.1823 " fill="none" id="tictactoe.views.Message-to-Controller" style="stroke:#A80036;stroke-width:1.0;stroke-dasharray:7.0,7.0;"/><polygon fill="#A80036" points="617.665,391.7131,616.0496,381.9976,614.9124,387.539,609.371,386.4018,617.665,391.7131" style="stroke:#A80036;stroke-width:1.0;"/><!--MD5=[45b8cca451c3dff90063bc416ad2c0dc]
@startuml
class Error as "tictactoe.types.\nError" {}
class Console as "usantatecla.utils.\nConsole" {}
class Controller as "tictactoe.controllers.\nController" {}

class  tictactoe.views.ErrorView{
+ {static} MESSAGES: String[]
+ ErrorView(Error)
}
tictactoe.views.ErrorView *-down-> Error

enum  tictactoe.views.Message{
+ TITTLE
+ NUMBER_PLAYERS
+ SEPARATOR
+ VERTICAL_LINE_LEFT
+ VERTICAL_LINE_CENTERED
+ VERTICAL_LINE_RIGHT
+ ENTER_COORDINATE_TO_PUT
+ ENTER_COORDINATE_TO_REMOVE
+ COORDINATE_TO_PUT
+ COORDINATE_TO_REMOVE
+ COORDINATE_TO_MOVE
+ PLAYER_WIN
+ RESUME
- message: String
- Message(String)
+ getMessage(): String
+ write()
+ writeln()
+ toString(): String
}

tictactoe.views.Message .down.> Console

abstract class tictactoe.views.GraphicsView {
+ {abstract} interact(Controller)
}

tictactoe.views.Message .down.> Controller
@enduml

PlantUML version 1.2020.22(Sun Dec 06 09:36:27 UTC 2020)
(GPL source distribution)
Java Runtime: Java(TM) SE Runtime Environment
JVM: Java HotSpot(TM) 64-Bit Server VM
Default Encoding: UTF-8
Language: en
Country: US
--></g></svg>