<?xml version="1.0" encoding="UTF-8" standalone="no"?><svg xmlns="http://www.w3.org/2000/svg" xmlns:xlink="http://www.w3.org/1999/xlink" contentScriptType="application/ecmascript" contentStyleType="text/css" height="284px" preserveAspectRatio="none" style="width:719px;height:284px;" version="1.1" viewBox="0 0 719 284" width="719px" zoomAndPan="magnify"><defs><filter height="300%" id="f17gziknyg002i" width="300%" x="-1" y="-1"><feGaussianBlur result="blurOut" stdDeviation="2.0"/><feColorMatrix in="blurOut" result="blurOut2" type="matrix" values="0 0 0 0 0 0 0 0 0 0 0 0 0 0 0 0 0 0 .4 0"/><feOffset dx="4.0" dy="4.0" in="blurOut2" result="blurOut3"/><feBlend in="SourceGraphic" in2="blurOut3" mode="normal"/></filter></defs><g><!--MD5=[807bc46d8103c809ff053af9e140e1f5]
cluster tictactoe--><polygon fill="#FFFFFF" filter="url(#f17gziknyg002i)" points="16,6,98,6,105,28.2969,371,28.2969,371,277,16,277,16,6" style="stroke:#000000;stroke-width:1.5;"/><line style="stroke:#000000;stroke-width:1.5;" x1="16" x2="105" y1="28.2969" y2="28.2969"/><text fill="#000000" font-family="sans-serif" font-size="14" font-weight="bold" lengthAdjust="spacingAndGlyphs" textLength="76" x="20" y="20.9951">tictactoe</text><!--MD5=[d26da01265d646b7f841c2729736529c]
class tictactoe.ConsoleTicTacToe--><rect codeLine="4" fill="#FEFECE" filter="url(#f17gziknyg002i)" height="73.6094" id="tictactoe.ConsoleTicTacToe" style="stroke:#A80036;stroke-width:1.5;" width="142" x="32" y="187"/><ellipse cx="47" cy="203" fill="#ADD1B2" rx="11" ry="11" style="stroke:#A80036;stroke-width:1.0;"/><path d="M49.3438,198.6719 C48.4063,198.2344 47.8125,198.0938 46.9375,198.0938 C44.3125,198.0938 42.3125,200.1719 42.3125,202.8906 L42.3125,204.0156 C42.3125,206.5938 44.4219,208.4844 47.3125,208.4844 C48.5313,208.4844 49.6875,208.1875 50.4375,207.6406 C51.0156,207.2344 51.3438,206.7813 51.3438,206.3906 C51.3438,205.9375 50.9531,205.5469 50.4844,205.5469 C50.2656,205.5469 50.0625,205.625 49.875,205.8125 C49.4219,206.2969 49.4219,206.2969 49.2344,206.3906 C48.8125,206.6563 48.125,206.7813 47.3594,206.7813 C45.3125,206.7813 44.0156,205.6875 44.0156,203.9844 L44.0156,202.8906 C44.0156,201.1094 45.2656,199.7969 47,199.7969 C47.5781,199.7969 48.1875,199.9531 48.6563,200.2031 C49.1406,200.4844 49.3125,200.7031 49.4063,201.1094 C49.4688,201.5156 49.5,201.6406 49.6406,201.7656 C49.7813,201.9063 50.0156,202.0156 50.2344,202.0156 C50.5,202.0156 50.7656,201.875 50.9375,201.6563 C51.0469,201.5 51.0781,201.3125 51.0781,200.8906 L51.0781,199.4688 C51.0781,199.0313 51.0625,198.9063 50.9688,198.75 C50.8125,198.4844 50.5313,198.3438 50.2344,198.3438 C49.9375,198.3438 49.7344,198.4375 49.5156,198.75 L49.3438,198.6719 Z " fill="#000000"/><text fill="#000000" font-family="sans-serif" font-size="12" lengthAdjust="spacingAndGlyphs" textLength="110" x="61" y="207.1543">ConsoleTicTacToe</text><line style="stroke:#A80036;stroke-width:1.5;" x1="33" x2="173" y1="219" y2="219"/><line style="stroke:#A80036;stroke-width:1.5;" x1="33" x2="173" y1="227" y2="227"/><polygon fill="#FFFF44" points="43,233,47,237,43,241,39,237" style="stroke:#B38D22;stroke-width:1.0;"/><text fill="#000000" font-family="sans-serif" font-size="11" lengthAdjust="spacingAndGlyphs" textLength="108" x="52" y="241.2104">createView(): View</text><ellipse cx="43" cy="250.8047" fill="#84BE84" rx="3" ry="3" style="stroke:#038048;stroke-width:1.0;"/><text fill="#000000" font-family="sans-serif" font-size="11" lengthAdjust="spacingAndGlyphs" text-decoration="underline" textLength="77" x="52" y="254.0151">main(String[])</text><!--MD5=[dcfee6ff2a733e6a859ce2b7bcbe021e]
class tictactoe.TicTacToe--><rect codeLine="16" fill="#FEFECE" filter="url(#f17gziknyg002i)" height="86.4141" id="tictactoe.TicTacToe" style="stroke:#A80036;stroke-width:1.5;" width="132" x="219" y="41"/><ellipse cx="251.55" cy="57" fill="#ADD1B2" rx="11" ry="11" style="stroke:#A80036;stroke-width:1.0;"/><path d="M253.8938,52.6719 C252.9563,52.2344 252.3625,52.0938 251.4875,52.0938 C248.8625,52.0938 246.8625,54.1719 246.8625,56.8906 L246.8625,58.0156 C246.8625,60.5938 248.9719,62.4844 251.8625,62.4844 C253.0813,62.4844 254.2375,62.1875 254.9875,61.6406 C255.5656,61.2344 255.8938,60.7813 255.8938,60.3906 C255.8938,59.9375 255.5031,59.5469 255.0344,59.5469 C254.8156,59.5469 254.6125,59.625 254.425,59.8125 C253.9719,60.2969 253.9719,60.2969 253.7844,60.3906 C253.3625,60.6563 252.675,60.7813 251.9094,60.7813 C249.8625,60.7813 248.5656,59.6875 248.5656,57.9844 L248.5656,56.8906 C248.5656,55.1094 249.8156,53.7969 251.55,53.7969 C252.1281,53.7969 252.7375,53.9531 253.2063,54.2031 C253.6906,54.4844 253.8625,54.7031 253.9563,55.1094 C254.0188,55.5156 254.05,55.6406 254.1906,55.7656 C254.3313,55.9063 254.5656,56.0156 254.7844,56.0156 C255.05,56.0156 255.3156,55.875 255.4875,55.6563 C255.5969,55.5 255.6281,55.3125 255.6281,54.8906 L255.6281,53.4688 C255.6281,53.0313 255.6125,52.9063 255.5188,52.75 C255.3625,52.4844 255.0813,52.3438 254.7844,52.3438 C254.4875,52.3438 254.2844,52.4375 254.0656,52.75 L253.8938,52.6719 Z " fill="#000000"/><text fill="#000000" font-family="sans-serif" font-size="12" lengthAdjust="spacingAndGlyphs" textLength="61" x="269.45" y="61.1543">TicTacToe</text><line style="stroke:#A80036;stroke-width:1.5;" x1="220" x2="350" y1="73" y2="73"/><line style="stroke:#A80036;stroke-width:1.5;" x1="220" x2="350" y1="81" y2="81"/><polygon fill="#FFFF44" points="230,87,234,91,230,95,226,91" style="stroke:#B38D22;stroke-width:1.0;"/><text fill="#000000" font-family="sans-serif" font-size="11" lengthAdjust="spacingAndGlyphs" textLength="66" x="239" y="95.2104">TicTacToe()</text><polygon fill="#FFFF44" points="230,99.8047,234,103.8047,230,107.8047,226,103.8047" style="stroke:#B38D22;stroke-width:1.0;"/><text fill="#000000" font-family="sans-serif" font-size="11" font-style="italic" lengthAdjust="spacingAndGlyphs" textLength="106" x="239" y="108.0151">createView(): View</text><polygon fill="#FFFF44" points="230,112.6094,234,116.6094,230,120.6094,226,116.6094" style="stroke:#B38D22;stroke-width:1.0;"/><text fill="#000000" font-family="sans-serif" font-size="11" lengthAdjust="spacingAndGlyphs" textLength="32" x="239" y="120.8198">play()</text><!--MD5=[288019f38859c158505575d95d6bbed7]
class tictactoe.GraphicsTicTacToe--><rect codeLine="10" fill="#FEFECE" filter="url(#f17gziknyg002i)" height="73.6094" id="tictactoe.GraphicsTicTacToe" style="stroke:#A80036;stroke-width:1.5;" width="146" x="209" y="187"/><ellipse cx="224" cy="203" fill="#ADD1B2" rx="11" ry="11" style="stroke:#A80036;stroke-width:1.0;"/><path d="M226.3438,198.6719 C225.4063,198.2344 224.8125,198.0938 223.9375,198.0938 C221.3125,198.0938 219.3125,200.1719 219.3125,202.8906 L219.3125,204.0156 C219.3125,206.5938 221.4219,208.4844 224.3125,208.4844 C225.5313,208.4844 226.6875,208.1875 227.4375,207.6406 C228.0156,207.2344 228.3438,206.7813 228.3438,206.3906 C228.3438,205.9375 227.9531,205.5469 227.4844,205.5469 C227.2656,205.5469 227.0625,205.625 226.875,205.8125 C226.4219,206.2969 226.4219,206.2969 226.2344,206.3906 C225.8125,206.6563 225.125,206.7813 224.3594,206.7813 C222.3125,206.7813 221.0156,205.6875 221.0156,203.9844 L221.0156,202.8906 C221.0156,201.1094 222.2656,199.7969 224,199.7969 C224.5781,199.7969 225.1875,199.9531 225.6563,200.2031 C226.1406,200.4844 226.3125,200.7031 226.4063,201.1094 C226.4688,201.5156 226.5,201.6406 226.6406,201.7656 C226.7813,201.9063 227.0156,202.0156 227.2344,202.0156 C227.5,202.0156 227.7656,201.875 227.9375,201.6563 C228.0469,201.5 228.0781,201.3125 228.0781,200.8906 L228.0781,199.4688 C228.0781,199.0313 228.0625,198.9063 227.9688,198.75 C227.8125,198.4844 227.5313,198.3438 227.2344,198.3438 C226.9375,198.3438 226.7344,198.4375 226.5156,198.75 L226.3438,198.6719 Z " fill="#000000"/><text fill="#000000" font-family="sans-serif" font-size="12" lengthAdjust="spacingAndGlyphs" textLength="114" x="238" y="207.1543">GraphicsTicTacToe</text><line style="stroke:#A80036;stroke-width:1.5;" x1="210" x2="354" y1="219" y2="219"/><line style="stroke:#A80036;stroke-width:1.5;" x1="210" x2="354" y1="227" y2="227"/><polygon fill="#FFFF44" points="220,233,224,237,220,241,216,237" style="stroke:#B38D22;stroke-width:1.0;"/><text fill="#000000" font-family="sans-serif" font-size="11" lengthAdjust="spacingAndGlyphs" textLength="108" x="229" y="241.2104">createView(): View</text><ellipse cx="220" cy="250.8047" fill="#84BE84" rx="3" ry="3" style="stroke:#038048;stroke-width:1.0;"/><text fill="#000000" font-family="sans-serif" font-size="11" lengthAdjust="spacingAndGlyphs" text-decoration="underline" textLength="77" x="229" y="254.0151">main(String[])</text><!--MD5=[c045e12321b83266d36d22b9096c24ea]
class GraphicsView--><rect codeLine="1" fill="#FEFECE" filter="url(#f17gziknyg002i)" height="53.9375" id="View" style="stroke:#A80036;stroke-width:1.5;" width="125" x="390.5" y="197"/><ellipse cx="405.5" cy="215.9688" fill="#ADD1B2" rx="11" ry="11" style="stroke:#A80036;stroke-width:1.0;"/><path d="M407.8438,211.6406 C406.9063,211.2031 406.3125,211.0625 405.4375,211.0625 C402.8125,211.0625 400.8125,213.1406 400.8125,215.8594 L400.8125,216.9844 C400.8125,219.5625 402.9219,221.4531 405.8125,221.4531 C407.0313,221.4531 408.1875,221.1563 408.9375,220.6094 C409.5156,220.2031 409.8438,219.75 409.8438,219.3594 C409.8438,218.9063 409.4531,218.5156 408.9844,218.5156 C408.7656,218.5156 408.5625,218.5938 408.375,218.7813 C407.9219,219.2656 407.9219,219.2656 407.7344,219.3594 C407.3125,219.625 406.625,219.75 405.8594,219.75 C403.8125,219.75 402.5156,218.6563 402.5156,216.9531 L402.5156,215.8594 C402.5156,214.0781 403.7656,212.7656 405.5,212.7656 C406.0781,212.7656 406.6875,212.9219 407.1563,213.1719 C407.6406,213.4531 407.8125,213.6719 407.9063,214.0781 C407.9688,214.4844 408,214.6094 408.1406,214.7344 C408.2813,214.875 408.5156,214.9844 408.7344,214.9844 C409,214.9844 409.2656,214.8438 409.4375,214.625 C409.5469,214.4688 409.5781,214.2813 409.5781,213.8594 L409.5781,212.4375 C409.5781,212 409.5625,211.875 409.4688,211.7188 C409.3125,211.4531 409.0313,211.3125 408.7344,211.3125 C408.4375,211.3125 408.2344,211.4063 408.0156,211.7188 L407.8438,211.6406 Z " fill="#000000"/><text fill="#000000" font-family="sans-serif" font-size="12" lengthAdjust="spacingAndGlyphs" textLength="93" x="419.5" y="213.1387">tictactoe.views.</text><text fill="#000000" font-family="sans-serif" font-size="12" lengthAdjust="spacingAndGlyphs" textLength="29" x="451.5" y="227.1074">View</text><line style="stroke:#A80036;stroke-width:1.5;" x1="391.5" x2="514.5" y1="234.9375" y2="234.9375"/><line style="stroke:#A80036;stroke-width:1.5;" x1="391.5" x2="514.5" y1="242.9375" y2="242.9375"/><!--MD5=[42fa18dda7351a0ae87d9497de925436]
class Logic--><rect codeLine="2" fill="#FEFECE" filter="url(#f17gziknyg002i)" height="53.9375" id="Logic" style="stroke:#A80036;stroke-width:1.5;" width="155" x="550.5" y="197"/><ellipse cx="565.5" cy="215.9688" fill="#ADD1B2" rx="11" ry="11" style="stroke:#A80036;stroke-width:1.0;"/><path d="M567.8438,211.6406 C566.9063,211.2031 566.3125,211.0625 565.4375,211.0625 C562.8125,211.0625 560.8125,213.1406 560.8125,215.8594 L560.8125,216.9844 C560.8125,219.5625 562.9219,221.4531 565.8125,221.4531 C567.0313,221.4531 568.1875,221.1563 568.9375,220.6094 C569.5156,220.2031 569.8438,219.75 569.8438,219.3594 C569.8438,218.9063 569.4531,218.5156 568.9844,218.5156 C568.7656,218.5156 568.5625,218.5938 568.375,218.7813 C567.9219,219.2656 567.9219,219.2656 567.7344,219.3594 C567.3125,219.625 566.625,219.75 565.8594,219.75 C563.8125,219.75 562.5156,218.6563 562.5156,216.9531 L562.5156,215.8594 C562.5156,214.0781 563.7656,212.7656 565.5,212.7656 C566.0781,212.7656 566.6875,212.9219 567.1563,213.1719 C567.6406,213.4531 567.8125,213.6719 567.9063,214.0781 C567.9688,214.4844 568,214.6094 568.1406,214.7344 C568.2813,214.875 568.5156,214.9844 568.7344,214.9844 C569,214.9844 569.2656,214.8438 569.4375,214.625 C569.5469,214.4688 569.5781,214.2813 569.5781,213.8594 L569.5781,212.4375 C569.5781,212 569.5625,211.875 569.4688,211.7188 C569.3125,211.4531 569.0313,211.3125 568.7344,211.3125 C568.4375,211.3125 568.2344,211.4063 568.0156,211.7188 L567.8438,211.6406 Z " fill="#000000"/><text fill="#000000" font-family="sans-serif" font-size="12" lengthAdjust="spacingAndGlyphs" textLength="123" x="579.5" y="213.1387">tictactoe.controllers.</text><text fill="#000000" font-family="sans-serif" font-size="12" lengthAdjust="spacingAndGlyphs" textLength="32" x="625" y="227.1074">Logic</text><line style="stroke:#A80036;stroke-width:1.5;" x1="551.5" x2="704.5" y1="234.9375" y2="234.9375"/><line style="stroke:#A80036;stroke-width:1.5;" x1="551.5" x2="704.5" y1="242.9375" y2="242.9375"/><!--MD5=[4e0ca678de8db9099731dcdc2b6658ba]
reverse link tictactoe.TicTacToe to tictactoe.ConsoleTicTacToe--><path codeLine="8" d="M213.291,139.372 C192.233,155.34 169.729,172.403 150.577,186.925 " fill="none" id="tictactoe.TicTacToe-backto-tictactoe.ConsoleTicTacToe" style="stroke:#A80036;stroke-width:1.0;"/><polygon fill="none" points="209.239,133.66,229.405,127.154,217.698,144.816,209.239,133.66" style="stroke:#A80036;stroke-width:1.0;"/><!--MD5=[39aff454823c6178e2615bf7f449e13a]
reverse link tictactoe.TicTacToe to tictactoe.GraphicsTicTacToe--><path codeLine="14" d="M283.639,147.623 C283.348,161.004 283.05,174.707 282.789,186.697 " fill="none" id="tictactoe.TicTacToe-backto-tictactoe.GraphicsTicTacToe" style="stroke:#A80036;stroke-width:1.0;"/><polygon fill="none" points="276.65,146.998,284.084,127.154,290.647,147.302,276.65,146.998" style="stroke:#A80036;stroke-width:1.0;"/><!--MD5=[4244f9edb3d450aa4423a2442cdf3765]
link tictactoe.TicTacToe to GraphicsView--><path codeLine="21" d="M345.5909,134.7706 C345.5909,134.7706 391.672,172.623 411.169,188.639 " fill="none" id="tictactoe.TicTacToe-View" style="stroke:#A80036;stroke-width:1.0;"/><polygon fill="#A80036" points="421.249,196.9191,416.8338,188.1153,417.3855,193.7452,411.7556,194.2969,421.249,196.9191" style="stroke:#A80036;stroke-width:1.0;"/><line style="stroke:#A80036;stroke-width:1.0;" x1="417.3855" x2="411.204" y1="193.7452" y2="188.6675"/><polygon fill="#A80036" points="336.318,127.154,338.4156,134.0533,345.5909,134.7706,343.4933,127.8714,336.318,127.154" style="stroke:#A80036;stroke-width:1.0;"/><!--MD5=[240f9be4867aaaeddfb4b1430878d4ce]
link tictactoe.TicTacToe to Logic--><path codeLine="22" d="M362.2665,116.0876 C362.2665,116.0876 494.939,169.465 550.889,191.976 " fill="none" id="tictactoe.TicTacToe-Logic" style="stroke:#A80036;stroke-width:1.0;"/><polygon fill="#A80036" points="563.232,196.9419,556.3749,189.8722,558.5932,195.076,553.3894,197.2943,563.232,196.9419" style="stroke:#A80036;stroke-width:1.0;"/><line style="stroke:#A80036;stroke-width:1.0;" x1="558.5932" x2="551.172" y1="195.076" y2="192.0894"/><polygon fill="#A80036" points="351.134,111.608,355.207,117.5587,362.2665,116.0876,358.1935,110.137,351.134,111.608" style="stroke:#A80036;stroke-width:1.0;"/><!--MD5=[1a804c85457637655ade9d50039dbb9d]
@startuml
class GraphicsView as "tictactoe.views.\nGraphicsView" {}
class Logic as "tictactoe.controllers.\nLogic" {}

class  tictactoe.ConsoleTicTacToe{
# createView(): GraphicsView
+ {static} main(String[])
}
tictactoe.TicTacToe <|-down- tictactoe.ConsoleTicTacToe

class  tictactoe.GraphicsTicTacToe{
# createView(): GraphicsView
+ {static} main(String[])
}
tictactoe.TicTacToe <|-down- tictactoe.GraphicsTicTacToe

class  tictactoe.TicTacToe{
# TicTacToe()
# {abstract} createView(): GraphicsView
# play()
}
tictactoe.TicTacToe *-down-> GraphicsView
tictactoe.TicTacToe *-down-> Logic
@enduml

PlantUML version 1.2020.22(Sun Dec 06 09:36:27 UTC 2020)
(GPL source distribution)
Java Runtime: Java(TM) SE Runtime Environment
JVM: Java HotSpot(TM) 64-Bit Server VM
Default Encoding: UTF-8
Language: en
Country: US
--></g></svg>