<?xml version="1.0" encoding="UTF-8" standalone="no"?><svg xmlns="http://www.w3.org/2000/svg" xmlns:xlink="http://www.w3.org/1999/xlink" contentScriptType="application/ecmascript" contentStyleType="text/css" height="159px" preserveAspectRatio="none" style="width:1620px;height:159px;" version="1.1" viewBox="0 0 1620 159" width="1620px" zoomAndPan="magnify"><defs><filter height="300%" id="f1gq2fu3wbum6" width="300%" x="-1" y="-1"><feGaussianBlur result="blurOut" stdDeviation="2.0"/><feColorMatrix in="blurOut" result="blurOut2" type="matrix" values="0 0 0 0 0 0 0 0 0 0 0 0 0 0 0 0 0 0 .4 0"/><feOffset dx="4.0" dy="4.0" in="blurOut2" result="blurOut3"/><feBlend in="SourceGraphic" in2="blurOut3" mode="normal"/></filter></defs><g><!--MD5=[acdcbb1bbc8d56ea383ed909c292e8b2]
entity usantatecla.tictactoe--><polygon fill="#FFFFFF" filter="url(#f1gq2fu3wbum6)" points="16,113,213,113,220,135.2969,237,135.2969,237,152.2969,16,152.2969,16,113" style="stroke:#000000;stroke-width:1.5;"/><line style="stroke:#000000;stroke-width:1.5;" x1="16" x2="220" y1="135.2969" y2="135.2969"/><text fill="#000000" font-family="sans-serif" font-size="14" font-weight="bold" lengthAdjust="spacingAndGlyphs" textLength="179" x="26" y="128.9951">usantatecla.tictactoe</text><!--MD5=[8a7221fb26a81e9372d3fe2d21fa25b8]
entity usantatecla.tictactoe.models--><polygon fill="#FFFFFF" filter="url(#f1gq2fu3wbum6)" points="272.5,113,532.5,113,539.5,135.2969,556.5,135.2969,556.5,152.2969,272.5,152.2969,272.5,113" style="stroke:#000000;stroke-width:1.5;"/><line style="stroke:#000000;stroke-width:1.5;" x1="272.5" x2="539.5" y1="135.2969" y2="135.2969"/><text fill="#000000" font-family="sans-serif" font-size="14" font-weight="bold" lengthAdjust="spacingAndGlyphs" textLength="242" x="282.5" y="128.9951">usantatecla.tictactoe.models</text><!--MD5=[cf4f0cce78dcf7d3e428632c209dffc7]
entity usantatecla.tictactoe.controllers--><polygon fill="#FFFFFF" filter="url(#f1gq2fu3wbum6)" points="592,113,883,113,890,135.2969,907,135.2969,907,152.2969,592,152.2969,592,113" style="stroke:#000000;stroke-width:1.5;"/><line style="stroke:#000000;stroke-width:1.5;" x1="592" x2="890" y1="135.2969" y2="135.2969"/><text fill="#000000" font-family="sans-serif" font-size="14" font-weight="bold" lengthAdjust="spacingAndGlyphs" textLength="273" x="602" y="128.9951">usantatecla.tictactoe.controllers</text><!--MD5=[5f8519f2225fbca3fd672cc319e1c1fd]
entity usantatecla.tictactoe.views--><polygon fill="#FFFFFF" filter="url(#f1gq2fu3wbum6)" points="942,113,1189,113,1196,135.2969,1213,135.2969,1213,152.2969,942,152.2969,942,113" style="stroke:#000000;stroke-width:1.5;"/><line style="stroke:#000000;stroke-width:1.5;" x1="942" x2="1196" y1="135.2969" y2="135.2969"/><text fill="#000000" font-family="sans-serif" font-size="14" font-weight="bold" lengthAdjust="spacingAndGlyphs" textLength="229" x="952" y="128.9951">usantatecla.tictactoe.views</text><!--MD5=[815e17c207bbf712f7f26918c1feb6f8]
entity utils--><polygon fill="#FFFFFF" filter="url(#f1gq2fu3wbum6)" points="1248,113,1303,113,1310,135.2969,1327,135.2969,1327,152.2969,1248,152.2969,1248,113" style="stroke:#000000;stroke-width:1.5;"/><line style="stroke:#000000;stroke-width:1.5;" x1="1248" x2="1310" y1="135.2969" y2="135.2969"/><text fill="#000000" font-family="sans-serif" font-size="14" font-weight="bold" lengthAdjust="spacingAndGlyphs" textLength="37" x="1258" y="128.9951">utils</text><!--MD5=[48fa9072fd51d9920e6db8484beec696]
entity java.io--><polygon fill="#FFFFFF" filter="url(#f1gq2fu3wbum6)" points="1362.5,113,1434.5,113,1441.5,135.2969,1458.5,135.2969,1458.5,152.2969,1362.5,152.2969,1362.5,113" style="stroke:#000000;stroke-width:1.5;"/><line style="stroke:#000000;stroke-width:1.5;" x1="1362.5" x2="1441.5" y1="135.2969" y2="135.2969"/><text fill="#000000" font-family="sans-serif" font-size="14" font-weight="bold" lengthAdjust="spacingAndGlyphs" textLength="54" x="1372.5" y="128.9951">java.io</text><!--MD5=[034f0f7ed136bf78fc117f7e41f76e93]
entity java.util--><polygon fill="#FFFFFF" filter="url(#f1gq2fu3wbum6)" points="1494,113,1579,113,1586,135.2969,1603,135.2969,1603,152.2969,1494,152.2969,1494,113" style="stroke:#000000;stroke-width:1.5;"/><line style="stroke:#000000;stroke-width:1.5;" x1="1494" x2="1586" y1="135.2969" y2="135.2969"/><text fill="#000000" font-family="sans-serif" font-size="14" font-weight="bold" lengthAdjust="spacingAndGlyphs" textLength="67" x="1504" y="128.9951">java.util</text><!--MD5=[c2796faf4134bd8b5f3bc71f44d02e74]
entity jar--><rect fill="#FEFECE" filter="url(#f1gq2fu3wbum6)" height="46.2969" style="stroke:#A80036;stroke-width:1.5;" width="218" x="968.5" y="7"/><rect fill="#FEFECE" height="10" style="stroke:#A80036;stroke-width:1.5;" width="15" x="1166.5" y="12"/><rect fill="#FEFECE" height="2" style="stroke:#A80036;stroke-width:1.5;" width="4" x="1164.5" y="14"/><rect fill="#FEFECE" height="2" style="stroke:#A80036;stroke-width:1.5;" width="4" x="1164.5" y="18"/><text fill="#000000" font-family="sans-serif" font-size="14" lengthAdjust="spacingAndGlyphs" textLength="178" x="983.5" y="39.9951">usantatecla.tictactoe.jar</text><!--MD5=[a9fe4fe342d89d0ce2cdef79d4c44adf]
link jar to usantatecla.tictactoe--><path d="M956.5431,41.365 C956.5431,41.365 502.83,82.6981 254.5,113 C253.079,113.1734 251.65,113.3496 250.213,113.5284 " fill="none" id="jar-usantatecla.tictactoe" style="stroke:#A80036;stroke-width:1.0;"/><polygon fill="#A80036" points="237.12,115.2008,246.5543,118.0282,242.0797,114.5673,245.5406,110.0927,237.12,115.2008" style="stroke:#A80036;stroke-width:1.0;"/><line style="stroke:#A80036;stroke-width:1.0;" x1="242.0797" x2="250.0155" y1="114.5673" y2="113.5535"/><polygon fill="#A80036" points="968.497,40.314,962.1697,36.8549,956.5431,41.365,962.8704,44.8241,968.497,40.314" style="stroke:#A80036;stroke-width:1.0;"/><!--MD5=[38cef3452a3e8206f67d96a1c7b5c74e]
link jar to usantatecla.tictactoe.models--><path d="M956.5256,49.3377 C956.5256,49.3377 668.774,92.9562 549.82,110.9878 " fill="none" id="jar-usantatecla.tictactoe.models" style="stroke:#A80036;stroke-width:1.0;"/><polygon fill="#A80036" points="536.669,112.9811,546.1669,115.5869,541.6125,112.2316,544.9678,107.6773,536.669,112.9811" style="stroke:#A80036;stroke-width:1.0;"/><line style="stroke:#A80036;stroke-width:1.0;" x1="541.6125" x2="549.523" y1="112.2316" y2="111.0327"/><polygon fill="#A80036" points="968.39,47.539,961.8582,44.4835,956.5256,49.3377,963.0573,52.3931,968.39,47.539" style="stroke:#A80036;stroke-width:1.0;"/><!--MD5=[37f7dee3b4da2f6bbbeb51d7813c83d8]
link jar to usantatecla.tictactoe.controllers--><path d="M994.0455,56.5708 C994.0455,56.5708 872.883,93.6952 822.476,109.1399 " fill="none" id="jar-usantatecla.tictactoe.controllers" style="stroke:#A80036;stroke-width:1.0;"/><polygon fill="#A80036" points="810.042,112.9499,819.819,114.1377,814.8226,111.4851,817.4752,106.4887,810.042,112.9499" style="stroke:#A80036;stroke-width:1.0;"/><line style="stroke:#A80036;stroke-width:1.0;" x1="814.8226" x2="822.471" y1="111.4851" y2="109.1414"/><polygon fill="#A80036" points="1005.519,53.0552,998.6104,50.9885,994.0455,56.5708,1000.9541,58.6375,1005.519,53.0552" style="stroke:#A80036;stroke-width:1.0;"/><!--MD5=[57eef1ebc25ffbff7001aac32c44d3c3]
link jar to usantatecla.tictactoe.views--><path d="M1077.5,65.3042 C1077.5,65.3042 1077.5,89.2598 1077.5,99.9085 " fill="none" id="jar-usantatecla.tictactoe.views" style="stroke:#A80036;stroke-width:1.0;"/><polygon fill="#A80036" points="1077.5,112.9606,1081.5,103.9606,1077.5,107.9606,1073.5,103.9606,1077.5,112.9606" style="stroke:#A80036;stroke-width:1.0;"/><line style="stroke:#A80036;stroke-width:1.0;" x1="1077.5" x2="1077.5" y1="107.9606" y2="99.9607"/><polygon fill="#A80036" points="1077.5,53.3042,1073.5,59.3042,1077.5,65.3042,1081.5,59.3042,1077.5,53.3042" style="stroke:#A80036;stroke-width:1.0;"/><!--MD5=[2b24531f65345f8226c8757364dc2f7a]
link jar to utils--><path d="M1134.4134,58.2372 C1134.4134,58.2372 1205.95,92.4732 1236.47,107.0784 " fill="none" id="jar-utils" style="stroke:#A80036;stroke-width:1.0;"/><polygon fill="#A80036" points="1248.57,112.868,1242.1798,105.3737,1244.0602,110.7088,1238.7251,112.5893,1248.57,112.868" style="stroke:#A80036;stroke-width:1.0;"/><line style="stroke:#A80036;stroke-width:1.0;" x1="1244.0602" x2="1236.845" y1="110.7088" y2="107.2561"/><polygon fill="#A80036" points="1123.59,53.0552,1127.2744,59.254,1134.4134,58.2372,1130.7291,52.0384,1123.59,53.0552" style="stroke:#A80036;stroke-width:1.0;"/><!--MD5=[f17a38c250a1605cd3da9b9fac2ef94b]
link jar to java.io--><path d="M1162.0679,56.5232 C1162.0679,56.5232 1297.36,97.3556 1349.54,113.1036 " fill="none" id="jar-java.io" style="stroke:#A80036;stroke-width:1.0;"/><polygon fill="#A80036" points="1362.28,116.9468,1354.8201,110.5165,1357.4934,115.5018,1352.508,118.1751,1362.28,116.9468" style="stroke:#A80036;stroke-width:1.0;"/><line style="stroke:#A80036;stroke-width:1.0;" x1="1357.4934" x2="1349.835" y1="115.5018" y2="113.1907"/><polygon fill="#A80036" points="1150.58,53.0552,1155.168,58.6185,1162.0679,56.5232,1157.48,50.9599,1150.58,53.0552" style="stroke:#A80036;stroke-width:1.0;"/><!--MD5=[a929e6d2b54380e4c3e4c2b17ce7cd9b]
link jar to java.util--><path d="M1198.3934,54.2538 C1198.3934,54.2538 1383.98,91.6203 1476.5,113 C1478,113.3473 1479.52,113.7026 1481.05,114.0642 " fill="none" id="jar-java.util" style="stroke:#A80036;stroke-width:1.0;"/><polygon fill="#A80036" points="1493.92,117.1789,1486.1131,111.1746,1489.0602,116.0031,1484.2317,118.9502,1493.92,117.1789" style="stroke:#A80036;stroke-width:1.0;"/><line style="stroke:#A80036;stroke-width:1.0;" x1="1489.0602" x2="1481.29" y1="116.0031" y2="114.121"/><polygon fill="#A80036" points="1186.62,51.933,1191.7331,57.0179,1198.3934,54.2538,1193.2803,49.1689,1186.62,51.933" style="stroke:#A80036;stroke-width:1.0;"/><!--MD5=[60217a4b116047bb905981e1eb35b323]
@startuml
package "  "  as usantatecla.tictactoe {
}
package "  "  as usantatecla.tictactoe.models {
}
package "  "  as usantatecla.tictactoe.controllers {
}
package "  "  as usantatecla.tictactoe.views {
}
package "  "  as utils {
}
package "  "  as java.io {
}
package "  "  as java.util {
}

[usantatecla.tictactoe.jar] as jar

jar *- -> usantatecla.tictactoe
jar *- -> usantatecla.tictactoe.models
jar *- -> usantatecla.tictactoe.controllers
jar *- -> usantatecla.tictactoe.views
jar *- -> utils
jar *- -> java.io
jar *- -> java.util
@enduml

PlantUML version 1.2020.23beta3(Unknown compile time)
(GPL source distribution)
Java Runtime: Java(TM) SE Runtime Environment
JVM: Java HotSpot(TM) 64-Bit Server VM
Default Encoding: UTF-8
Language: en
Country: US
--></g></svg>