<?xml version="1.0" encoding="UTF-8" standalone="no"?><svg xmlns="http://www.w3.org/2000/svg" xmlns:xlink="http://www.w3.org/1999/xlink" contentScriptType="application/ecmascript" contentStyleType="text/css" height="729px" preserveAspectRatio="none" style="width:1637px;height:729px;" version="1.1" viewBox="0 0 1637 729" width="1637px" zoomAndPan="magnify"><defs><filter height="300%" id="f1lij07awlsvvo" width="300%" x="-1" y="-1"><feGaussianBlur result="blurOut" stdDeviation="2.0"/><feColorMatrix in="blurOut" result="blurOut2" type="matrix" values="0 0 0 0 0 0 0 0 0 0 0 0 0 0 0 0 0 0 .4 0"/><feOffset dx="4.0" dy="4.0" in="blurOut2" result="blurOut3"/><feBlend in="SourceGraphic" in2="blurOut3" mode="normal"/></filter></defs><g><!--MD5=[f4e70ef68289585296b9045165e58692]
cluster controllers--><polygon fill="#FFFFFF" filter="url(#f1lij07awlsvvo)" points="616,121,711,121,718,143.2969,1115,143.2969,1115,351,616,351,616,121" style="stroke:#000000;stroke-width:1.5;"/><line style="stroke:#000000;stroke-width:1.5;" x1="616" x2="718" y1="143.2969" y2="143.2969"/><text fill="#000000" font-family="sans-serif" font-size="14" font-weight="bold" lengthAdjust="spacing" textLength="89" x="620" y="135.9951">controllers</text><!--MD5=[a60570e4b426f702ccbb0d459e3b9417]
cluster models--><polygon fill="#FFFFFF" filter="url(#f1lij07awlsvvo)" points="1155,236,1219,236,1226,258.2969,1316,258.2969,1316,722,1155,722,1155,236" style="stroke:#000000;stroke-width:1.5;"/><line style="stroke:#000000;stroke-width:1.5;" x1="1155" x2="1226" y1="258.2969" y2="258.2969"/><text fill="#000000" font-family="sans-serif" font-size="14" font-weight="bold" lengthAdjust="spacing" textLength="58" x="1159" y="250.9951">models</text><!--MD5=[67cd15ce44b6dd54f77054b62c31bf42]
cluster types--><polygon fill="#FFFFFF" filter="url(#f1lij07awlsvvo)" points="1356,391,1407,391,1414,413.2969,1620,413.2969,1620,614,1356,614,1356,391" style="stroke:#000000;stroke-width:1.5;"/><line style="stroke:#000000;stroke-width:1.5;" x1="1356" x2="1414" y1="413.2969" y2="413.2969"/><text fill="#000000" font-family="sans-serif" font-size="14" font-weight="bold" lengthAdjust="spacing" textLength="45" x="1360" y="405.9951">types</text><!--MD5=[e2a75efa8a0f57c2afae8bf75386f79c]
cluster views--><polygon fill="#FFFFFF" filter="url(#f1lij07awlsvvo)" points="16,6,67,6,74,28.2969,576,28.2969,576,506,16,506,16,6" style="stroke:#000000;stroke-width:1.5;"/><line style="stroke:#000000;stroke-width:1.5;" x1="16" x2="74" y1="28.2969" y2="28.2969"/><text fill="#000000" font-family="sans-serif" font-size="14" font-weight="bold" lengthAdjust="spacing" textLength="45" x="20" y="20.9951">views</text><!--MD5=[d538e9e3e9ace5a9c5dcbfba7654f5f1]
class controllers.Controller--><rect codeLine="43" fill="#FEFECE" filter="url(#f1lij07awlsvvo)" height="48" id="controllers.Controller" style="stroke:#A80036;stroke-width:1.5;" width="90" x="829" y="164"/><ellipse cx="844" cy="180" fill="#A9DCDF" rx="11" ry="11" style="stroke:#A80036;stroke-width:1.0;"/><path d="M846.0781,181.8125 L846.4688,182.7969 L846.0781,182.7969 C845.625,182.7969 845.5156,182.8125 845.3594,182.9219 C845.1094,183.0781 844.9531,183.3594 844.9531,183.6563 C844.9531,183.9219 845.0938,184.1719 845.3125,184.3281 C845.4531,184.4531 845.6563,184.5 846.0781,184.5 L848.4375,184.5 C848.7969,184.5 849.0156,184.4688 849.1563,184.375 C849.4063,184.2344 849.5625,183.9375 849.5625,183.6563 C849.5625,183.375 849.4219,183.125 849.2031,182.9688 C849.0313,182.8281 848.875,182.7969 848.4063,182.7969 L845.0156,174.5938 L841.3438,174.5938 C840.8906,174.5938 840.7656,174.6094 840.6094,174.7031 C840.3594,174.875 840.2031,175.1563 840.2031,175.4375 C840.2031,175.7188 840.3438,175.9688 840.5625,176.1406 C840.7344,176.25 840.9063,176.2813 841.3438,176.2813 L842.4219,176.2813 L839.7813,182.7969 C839.3594,182.7969 839.2031,182.8125 839.0469,182.9219 C838.7969,183.0781 838.6406,183.3594 838.6406,183.6563 C838.6406,184.2188 839.0156,184.5 839.7656,184.5 L842.0313,184.5 C842.3906,184.5 842.6094,184.4688 842.7344,184.375 C843,184.2344 843.1406,183.9375 843.1406,183.6563 C843.1406,183.375 843.0156,183.125 842.7969,182.9531 C842.625,182.8281 842.4844,182.7969 842.0313,182.7969 L841.6406,182.7969 L842.0313,181.8125 L846.0781,181.8125 Z M845.375,180.1094 L842.7031,180.1094 L844.0469,176.8438 L845.375,180.1094 Z " fill="#000000"/><text fill="#000000" font-family="sans-serif" font-size="12" font-style="italic" lengthAdjust="spacing" textLength="58" x="858" y="184.1543">Controller</text><line style="stroke:#A80036;stroke-width:1.5;" x1="830" x2="918" y1="196" y2="196"/><line style="stroke:#A80036;stroke-width:1.5;" x1="830" x2="918" y1="204" y2="204"/><!--MD5=[aea2e2342048d554ddfb2813c9d667df]
class controllers.PlayController--><rect codeLine="47" fill="#FEFECE" filter="url(#f1lij07awlsvvo)" height="48" id="controllers.PlayController" style="stroke:#A80036;stroke-width:1.5;" width="114" x="969" y="279"/><ellipse cx="984" cy="295" fill="#ADD1B2" rx="11" ry="11" style="stroke:#A80036;stroke-width:1.0;"/><path d="M986.3438,290.6719 C985.4063,290.2344 984.8125,290.0938 983.9375,290.0938 C981.3125,290.0938 979.3125,292.1719 979.3125,294.8906 L979.3125,296.0156 C979.3125,298.5938 981.4219,300.4844 984.3125,300.4844 C985.5313,300.4844 986.6875,300.1875 987.4375,299.6406 C988.0156,299.2344 988.3438,298.7813 988.3438,298.3906 C988.3438,297.9375 987.9531,297.5469 987.4844,297.5469 C987.2656,297.5469 987.0625,297.625 986.875,297.8125 C986.4219,298.2969 986.4219,298.2969 986.2344,298.3906 C985.8125,298.6563 985.125,298.7813 984.3594,298.7813 C982.3125,298.7813 981.0156,297.6875 981.0156,295.9844 L981.0156,294.8906 C981.0156,293.1094 982.2656,291.7969 984,291.7969 C984.5781,291.7969 985.1875,291.9531 985.6563,292.2031 C986.1406,292.4844 986.3125,292.7031 986.4063,293.1094 C986.4688,293.5156 986.5,293.6406 986.6406,293.7656 C986.7813,293.9063 987.0156,294.0156 987.2344,294.0156 C987.5,294.0156 987.7656,293.875 987.9375,293.6563 C988.0469,293.5 988.0781,293.3125 988.0781,292.8906 L988.0781,291.4688 C988.0781,291.0313 988.0625,290.9063 987.9688,290.75 C987.8125,290.4844 987.5313,290.3438 987.2344,290.3438 C986.9375,290.3438 986.7344,290.4375 986.5156,290.75 L986.3438,290.6719 Z " fill="#000000"/><text fill="#000000" font-family="sans-serif" font-size="12" lengthAdjust="spacing" textLength="82" x="998" y="299.1543">PlayController</text><line style="stroke:#A80036;stroke-width:1.5;" x1="970" x2="1082" y1="311" y2="311"/><line style="stroke:#A80036;stroke-width:1.5;" x1="970" x2="1082" y1="319" y2="319"/><!--MD5=[12e816d8ac45337d932400bf96e6eca7]
class controllers.ResumeController--><rect codeLine="51" fill="#FEFECE" filter="url(#f1lij07awlsvvo)" height="48" id="controllers.ResumeController" style="stroke:#A80036;stroke-width:1.5;" width="139" x="640.5" y="279"/><ellipse cx="655.5" cy="295" fill="#ADD1B2" rx="11" ry="11" style="stroke:#A80036;stroke-width:1.0;"/><path d="M657.8438,290.6719 C656.9063,290.2344 656.3125,290.0938 655.4375,290.0938 C652.8125,290.0938 650.8125,292.1719 650.8125,294.8906 L650.8125,296.0156 C650.8125,298.5938 652.9219,300.4844 655.8125,300.4844 C657.0313,300.4844 658.1875,300.1875 658.9375,299.6406 C659.5156,299.2344 659.8438,298.7813 659.8438,298.3906 C659.8438,297.9375 659.4531,297.5469 658.9844,297.5469 C658.7656,297.5469 658.5625,297.625 658.375,297.8125 C657.9219,298.2969 657.9219,298.2969 657.7344,298.3906 C657.3125,298.6563 656.625,298.7813 655.8594,298.7813 C653.8125,298.7813 652.5156,297.6875 652.5156,295.9844 L652.5156,294.8906 C652.5156,293.1094 653.7656,291.7969 655.5,291.7969 C656.0781,291.7969 656.6875,291.9531 657.1563,292.2031 C657.6406,292.4844 657.8125,292.7031 657.9063,293.1094 C657.9688,293.5156 658,293.6406 658.1406,293.7656 C658.2813,293.9063 658.5156,294.0156 658.7344,294.0156 C659,294.0156 659.2656,293.875 659.4375,293.6563 C659.5469,293.5 659.5781,293.3125 659.5781,292.8906 L659.5781,291.4688 C659.5781,291.0313 659.5625,290.9063 659.4688,290.75 C659.3125,290.4844 659.0313,290.3438 658.7344,290.3438 C658.4375,290.3438 658.2344,290.4375 658.0156,290.75 L657.8438,290.6719 Z " fill="#000000"/><text fill="#000000" font-family="sans-serif" font-size="12" lengthAdjust="spacing" textLength="107" x="669.5" y="299.1543">ResumeController</text><line style="stroke:#A80036;stroke-width:1.5;" x1="641.5" x2="778.5" y1="311" y2="311"/><line style="stroke:#A80036;stroke-width:1.5;" x1="641.5" x2="778.5" y1="319" y2="319"/><!--MD5=[1ca606ade29448d66bff39c3ca169238]
class controllers.StartController--><rect codeLine="55" fill="#FEFECE" filter="url(#f1lij07awlsvvo)" height="48" id="controllers.StartController" style="stroke:#A80036;stroke-width:1.5;" width="119" x="814.5" y="279"/><ellipse cx="829.5" cy="295" fill="#ADD1B2" rx="11" ry="11" style="stroke:#A80036;stroke-width:1.0;"/><path d="M831.8438,290.6719 C830.9063,290.2344 830.3125,290.0938 829.4375,290.0938 C826.8125,290.0938 824.8125,292.1719 824.8125,294.8906 L824.8125,296.0156 C824.8125,298.5938 826.9219,300.4844 829.8125,300.4844 C831.0313,300.4844 832.1875,300.1875 832.9375,299.6406 C833.5156,299.2344 833.8438,298.7813 833.8438,298.3906 C833.8438,297.9375 833.4531,297.5469 832.9844,297.5469 C832.7656,297.5469 832.5625,297.625 832.375,297.8125 C831.9219,298.2969 831.9219,298.2969 831.7344,298.3906 C831.3125,298.6563 830.625,298.7813 829.8594,298.7813 C827.8125,298.7813 826.5156,297.6875 826.5156,295.9844 L826.5156,294.8906 C826.5156,293.1094 827.7656,291.7969 829.5,291.7969 C830.0781,291.7969 830.6875,291.9531 831.1563,292.2031 C831.6406,292.4844 831.8125,292.7031 831.9063,293.1094 C831.9688,293.5156 832,293.6406 832.1406,293.7656 C832.2813,293.9063 832.5156,294.0156 832.7344,294.0156 C833,294.0156 833.2656,293.875 833.4375,293.6563 C833.5469,293.5 833.5781,293.3125 833.5781,292.8906 L833.5781,291.4688 C833.5781,291.0313 833.5625,290.9063 833.4688,290.75 C833.3125,290.4844 833.0313,290.3438 832.7344,290.3438 C832.4375,290.3438 832.2344,290.4375 832.0156,290.75 L831.8438,290.6719 Z " fill="#000000"/><text fill="#000000" font-family="sans-serif" font-size="12" lengthAdjust="spacing" textLength="87" x="843.5" y="299.1543">StartController</text><line style="stroke:#A80036;stroke-width:1.5;" x1="815.5" x2="932.5" y1="311" y2="311"/><line style="stroke:#A80036;stroke-width:1.5;" x1="815.5" x2="932.5" y1="319" y2="319"/><!--MD5=[fbcab1a7378abda673044953d979be95]
class models.Board--><rect codeLine="15" fill="#FEFECE" filter="url(#f1lij07awlsvvo)" height="48" id="models.Board" style="stroke:#A80036;stroke-width:1.5;" width="68" x="1197" y="650"/><ellipse cx="1212" cy="666" fill="#ADD1B2" rx="11" ry="11" style="stroke:#A80036;stroke-width:1.0;"/><path d="M1214.3438,661.6719 C1213.4063,661.2344 1212.8125,661.0938 1211.9375,661.0938 C1209.3125,661.0938 1207.3125,663.1719 1207.3125,665.8906 L1207.3125,667.0156 C1207.3125,669.5938 1209.4219,671.4844 1212.3125,671.4844 C1213.5313,671.4844 1214.6875,671.1875 1215.4375,670.6406 C1216.0156,670.2344 1216.3438,669.7813 1216.3438,669.3906 C1216.3438,668.9375 1215.9531,668.5469 1215.4844,668.5469 C1215.2656,668.5469 1215.0625,668.625 1214.875,668.8125 C1214.4219,669.2969 1214.4219,669.2969 1214.2344,669.3906 C1213.8125,669.6563 1213.125,669.7813 1212.3594,669.7813 C1210.3125,669.7813 1209.0156,668.6875 1209.0156,666.9844 L1209.0156,665.8906 C1209.0156,664.1094 1210.2656,662.7969 1212,662.7969 C1212.5781,662.7969 1213.1875,662.9531 1213.6563,663.2031 C1214.1406,663.4844 1214.3125,663.7031 1214.4063,664.1094 C1214.4688,664.5156 1214.5,664.6406 1214.6406,664.7656 C1214.7813,664.9063 1215.0156,665.0156 1215.2344,665.0156 C1215.5,665.0156 1215.7656,664.875 1215.9375,664.6563 C1216.0469,664.5 1216.0781,664.3125 1216.0781,663.8906 L1216.0781,662.4688 C1216.0781,662.0313 1216.0625,661.9063 1215.9688,661.75 C1215.8125,661.4844 1215.5313,661.3438 1215.2344,661.3438 C1214.9375,661.3438 1214.7344,661.4375 1214.5156,661.75 L1214.3438,661.6719 Z " fill="#000000"/><text fill="#000000" font-family="sans-serif" font-size="12" lengthAdjust="spacing" textLength="36" x="1226" y="670.1543">Board</text><line style="stroke:#A80036;stroke-width:1.5;" x1="1198" x2="1264" y1="682" y2="682"/><line style="stroke:#A80036;stroke-width:1.5;" x1="1198" x2="1264" y1="690" y2="690"/><!--MD5=[1ea5cf3e691bb3552ec8d5f9a56af156]
class models.Game--><rect codeLine="19" fill="#FEFECE" filter="url(#f1lij07awlsvvo)" height="48" id="models.Game" style="stroke:#A80036;stroke-width:1.5;" width="67" x="1192.5" y="279"/><ellipse cx="1207.5" cy="295" fill="#ADD1B2" rx="11" ry="11" style="stroke:#A80036;stroke-width:1.0;"/><path d="M1209.8438,290.6719 C1208.9063,290.2344 1208.3125,290.0938 1207.4375,290.0938 C1204.8125,290.0938 1202.8125,292.1719 1202.8125,294.8906 L1202.8125,296.0156 C1202.8125,298.5938 1204.9219,300.4844 1207.8125,300.4844 C1209.0313,300.4844 1210.1875,300.1875 1210.9375,299.6406 C1211.5156,299.2344 1211.8438,298.7813 1211.8438,298.3906 C1211.8438,297.9375 1211.4531,297.5469 1210.9844,297.5469 C1210.7656,297.5469 1210.5625,297.625 1210.375,297.8125 C1209.9219,298.2969 1209.9219,298.2969 1209.7344,298.3906 C1209.3125,298.6563 1208.625,298.7813 1207.8594,298.7813 C1205.8125,298.7813 1204.5156,297.6875 1204.5156,295.9844 L1204.5156,294.8906 C1204.5156,293.1094 1205.7656,291.7969 1207.5,291.7969 C1208.0781,291.7969 1208.6875,291.9531 1209.1563,292.2031 C1209.6406,292.4844 1209.8125,292.7031 1209.9063,293.1094 C1209.9688,293.5156 1210,293.6406 1210.1406,293.7656 C1210.2813,293.9063 1210.5156,294.0156 1210.7344,294.0156 C1211,294.0156 1211.2656,293.875 1211.4375,293.6563 C1211.5469,293.5 1211.5781,293.3125 1211.5781,292.8906 L1211.5781,291.4688 C1211.5781,291.0313 1211.5625,290.9063 1211.4688,290.75 C1211.3125,290.4844 1211.0313,290.3438 1210.7344,290.3438 C1210.4375,290.3438 1210.2344,290.4375 1210.0156,290.75 L1209.8438,290.6719 Z " fill="#000000"/><text fill="#000000" font-family="sans-serif" font-size="12" lengthAdjust="spacing" textLength="35" x="1221.5" y="299.1543">Game</text><line style="stroke:#A80036;stroke-width:1.5;" x1="1193.5" x2="1258.5" y1="311" y2="311"/><line style="stroke:#A80036;stroke-width:1.5;" x1="1193.5" x2="1258.5" y1="319" y2="319"/><!--MD5=[6e8c5ac4fcf3c90f745643fbee571d05]
class models.Player--><rect codeLine="23" fill="#FEFECE" filter="url(#f1lij07awlsvvo)" height="48" id="models.Player" style="stroke:#A80036;stroke-width:1.5;" width="68" x="1216" y="542"/><ellipse cx="1231" cy="558" fill="#ADD1B2" rx="11" ry="11" style="stroke:#A80036;stroke-width:1.0;"/><path d="M1233.3438,553.6719 C1232.4063,553.2344 1231.8125,553.0938 1230.9375,553.0938 C1228.3125,553.0938 1226.3125,555.1719 1226.3125,557.8906 L1226.3125,559.0156 C1226.3125,561.5938 1228.4219,563.4844 1231.3125,563.4844 C1232.5313,563.4844 1233.6875,563.1875 1234.4375,562.6406 C1235.0156,562.2344 1235.3438,561.7813 1235.3438,561.3906 C1235.3438,560.9375 1234.9531,560.5469 1234.4844,560.5469 C1234.2656,560.5469 1234.0625,560.625 1233.875,560.8125 C1233.4219,561.2969 1233.4219,561.2969 1233.2344,561.3906 C1232.8125,561.6563 1232.125,561.7813 1231.3594,561.7813 C1229.3125,561.7813 1228.0156,560.6875 1228.0156,558.9844 L1228.0156,557.8906 C1228.0156,556.1094 1229.2656,554.7969 1231,554.7969 C1231.5781,554.7969 1232.1875,554.9531 1232.6563,555.2031 C1233.1406,555.4844 1233.3125,555.7031 1233.4063,556.1094 C1233.4688,556.5156 1233.5,556.6406 1233.6406,556.7656 C1233.7813,556.9063 1234.0156,557.0156 1234.2344,557.0156 C1234.5,557.0156 1234.7656,556.875 1234.9375,556.6563 C1235.0469,556.5 1235.0781,556.3125 1235.0781,555.8906 L1235.0781,554.4688 C1235.0781,554.0313 1235.0625,553.9063 1234.9688,553.75 C1234.8125,553.4844 1234.5313,553.3438 1234.2344,553.3438 C1233.9375,553.3438 1233.7344,553.4375 1233.5156,553.75 L1233.3438,553.6719 Z " fill="#000000"/><text fill="#000000" font-family="sans-serif" font-size="12" lengthAdjust="spacing" textLength="36" x="1245" y="562.1543">Player</text><line style="stroke:#A80036;stroke-width:1.5;" x1="1217" x2="1283" y1="574" y2="574"/><line style="stroke:#A80036;stroke-width:1.5;" x1="1217" x2="1283" y1="582" y2="582"/><!--MD5=[06029ca6144b724b5ba6f17e981b093f]
class models.Turn--><rect codeLine="27" fill="#FEFECE" filter="url(#f1lij07awlsvvo)" height="48" id="models.Turn" style="stroke:#A80036;stroke-width:1.5;" width="58" x="1218" y="434"/><ellipse cx="1233" cy="450" fill="#ADD1B2" rx="11" ry="11" style="stroke:#A80036;stroke-width:1.0;"/><path d="M1235.3438,445.6719 C1234.4063,445.2344 1233.8125,445.0938 1232.9375,445.0938 C1230.3125,445.0938 1228.3125,447.1719 1228.3125,449.8906 L1228.3125,451.0156 C1228.3125,453.5938 1230.4219,455.4844 1233.3125,455.4844 C1234.5313,455.4844 1235.6875,455.1875 1236.4375,454.6406 C1237.0156,454.2344 1237.3438,453.7813 1237.3438,453.3906 C1237.3438,452.9375 1236.9531,452.5469 1236.4844,452.5469 C1236.2656,452.5469 1236.0625,452.625 1235.875,452.8125 C1235.4219,453.2969 1235.4219,453.2969 1235.2344,453.3906 C1234.8125,453.6563 1234.125,453.7813 1233.3594,453.7813 C1231.3125,453.7813 1230.0156,452.6875 1230.0156,450.9844 L1230.0156,449.8906 C1230.0156,448.1094 1231.2656,446.7969 1233,446.7969 C1233.5781,446.7969 1234.1875,446.9531 1234.6563,447.2031 C1235.1406,447.4844 1235.3125,447.7031 1235.4063,448.1094 C1235.4688,448.5156 1235.5,448.6406 1235.6406,448.7656 C1235.7813,448.9063 1236.0156,449.0156 1236.2344,449.0156 C1236.5,449.0156 1236.7656,448.875 1236.9375,448.6563 C1237.0469,448.5 1237.0781,448.3125 1237.0781,447.8906 L1237.0781,446.4688 C1237.0781,446.0313 1237.0625,445.9063 1236.9688,445.75 C1236.8125,445.4844 1236.5313,445.3438 1236.2344,445.3438 C1235.9375,445.3438 1235.7344,445.4375 1235.5156,445.75 L1235.3438,445.6719 Z " fill="#000000"/><text fill="#000000" font-family="sans-serif" font-size="12" lengthAdjust="spacing" textLength="26" x="1247" y="454.1543">Turn</text><line style="stroke:#A80036;stroke-width:1.5;" x1="1219" x2="1275" y1="466" y2="466"/><line style="stroke:#A80036;stroke-width:1.5;" x1="1219" x2="1275" y1="474" y2="474"/><!--MD5=[fbe1d668a1c0e7c27042fe6ad7304dc0]
class types.Coordinate--><rect codeLine="31" fill="#FEFECE" filter="url(#f1lij07awlsvvo)" height="48" id="types.Coordinate" style="stroke:#A80036;stroke-width:1.5;" width="98" x="1399" y="434"/><ellipse cx="1414" cy="450" fill="#ADD1B2" rx="11" ry="11" style="stroke:#A80036;stroke-width:1.0;"/><path d="M1416.3438,445.6719 C1415.4063,445.2344 1414.8125,445.0938 1413.9375,445.0938 C1411.3125,445.0938 1409.3125,447.1719 1409.3125,449.8906 L1409.3125,451.0156 C1409.3125,453.5938 1411.4219,455.4844 1414.3125,455.4844 C1415.5313,455.4844 1416.6875,455.1875 1417.4375,454.6406 C1418.0156,454.2344 1418.3438,453.7813 1418.3438,453.3906 C1418.3438,452.9375 1417.9531,452.5469 1417.4844,452.5469 C1417.2656,452.5469 1417.0625,452.625 1416.875,452.8125 C1416.4219,453.2969 1416.4219,453.2969 1416.2344,453.3906 C1415.8125,453.6563 1415.125,453.7813 1414.3594,453.7813 C1412.3125,453.7813 1411.0156,452.6875 1411.0156,450.9844 L1411.0156,449.8906 C1411.0156,448.1094 1412.2656,446.7969 1414,446.7969 C1414.5781,446.7969 1415.1875,446.9531 1415.6563,447.2031 C1416.1406,447.4844 1416.3125,447.7031 1416.4063,448.1094 C1416.4688,448.5156 1416.5,448.6406 1416.6406,448.7656 C1416.7813,448.9063 1417.0156,449.0156 1417.2344,449.0156 C1417.5,449.0156 1417.7656,448.875 1417.9375,448.6563 C1418.0469,448.5 1418.0781,448.3125 1418.0781,447.8906 L1418.0781,446.4688 C1418.0781,446.0313 1418.0625,445.9063 1417.9688,445.75 C1417.8125,445.4844 1417.5313,445.3438 1417.2344,445.3438 C1416.9375,445.3438 1416.7344,445.4375 1416.5156,445.75 L1416.3438,445.6719 Z " fill="#000000"/><text fill="#000000" font-family="sans-serif" font-size="12" lengthAdjust="spacing" textLength="66" x="1428" y="454.1543">Coordinate</text><line style="stroke:#A80036;stroke-width:1.5;" x1="1400" x2="1496" y1="466" y2="466"/><line style="stroke:#A80036;stroke-width:1.5;" x1="1400" x2="1496" y1="474" y2="474"/><!--MD5=[e88a50b03f092bdcaf627b677de9be1f]
class types.Color--><rect codeLine="35" fill="#FEFECE" filter="url(#f1lij07awlsvvo)" height="48" id="types.Color" style="stroke:#A80036;stroke-width:1.5;" width="64" x="1532" y="434"/><ellipse cx="1547" cy="450" fill="#EB937F" rx="11" ry="11" style="stroke:#A80036;stroke-width:1.0;"/><path d="M1545.7969,450.875 L1547.25,450.875 L1547.25,450.9844 C1547.25,451.3906 1547.2813,451.5469 1547.3594,451.7031 C1547.5156,451.9531 1547.7969,452.1094 1548.0938,452.1094 C1548.3438,452.1094 1548.6094,451.9688 1548.7656,451.75 C1548.8906,451.5938 1548.9219,451.4375 1548.9219,450.9844 L1548.9219,449.0625 C1548.9219,448.9063 1548.9219,448.8594 1548.9063,448.7031 C1548.8438,448.2344 1548.5313,447.9219 1548.0781,447.9219 C1547.8281,447.9219 1547.5625,448.0625 1547.3906,448.2813 C1547.2813,448.4531 1547.25,448.6094 1547.25,449.0625 L1547.25,449.1875 L1545.7969,449.1875 L1545.7969,446.7813 L1549.7813,446.7813 L1549.7813,447.6406 C1549.7813,448.0469 1549.8125,448.2188 1549.8906,448.375 C1550.0625,448.625 1550.3438,448.7813 1550.625,448.7813 C1550.8906,448.7813 1551.1563,448.6406 1551.3281,448.4219 C1551.4375,448.25 1551.4688,448.1094 1551.4688,447.6406 L1551.4688,445.0938 L1543.8438,445.0938 C1543.4063,445.0938 1543.2813,445.1094 1543.125,445.2031 C1542.875,445.3594 1542.7188,445.6563 1542.7188,445.9375 C1542.7188,446.2188 1542.8594,446.4688 1543.0781,446.6406 C1543.2344,446.75 1543.4219,446.7813 1543.8438,446.7813 L1544.0938,446.7813 L1544.0938,453.2969 L1543.8438,453.2969 C1543.4375,453.2969 1543.2813,453.3125 1543.125,453.4219 C1542.875,453.5938 1542.7188,453.8594 1542.7188,454.1563 C1542.7188,454.4219 1542.8594,454.6719 1543.0781,454.8281 C1543.2188,454.9531 1543.4531,455 1543.8438,455 L1551.8438,455 L1551.8438,452.4219 C1551.8438,451.9844 1551.8125,451.8438 1551.7344,451.6875 C1551.5625,451.4375 1551.2813,451.2813 1551,451.2813 C1550.7344,451.2813 1550.4688,451.3906 1550.2969,451.6406 C1550.1875,451.7969 1550.1563,451.9375 1550.1563,452.4219 L1550.1563,453.2969 L1545.7969,453.2969 L1545.7969,450.875 Z " fill="#000000"/><text fill="#000000" font-family="sans-serif" font-size="12" lengthAdjust="spacing" textLength="32" x="1561" y="454.1543">Color</text><line style="stroke:#A80036;stroke-width:1.5;" x1="1533" x2="1595" y1="466" y2="466"/><line style="stroke:#A80036;stroke-width:1.5;" x1="1533" x2="1595" y1="474" y2="474"/><!--MD5=[f4a9730c613f2e33f7b8bab243e5b8e5]
class types.Error--><rect codeLine="39" fill="#FEFECE" filter="url(#f1lij07awlsvvo)" height="48" id="types.Error" style="stroke:#A80036;stroke-width:1.5;" width="62" x="1417" y="542"/><ellipse cx="1432" cy="558" fill="#EB937F" rx="11" ry="11" style="stroke:#A80036;stroke-width:1.0;"/><path d="M1430.7969,558.875 L1432.25,558.875 L1432.25,558.9844 C1432.25,559.3906 1432.2813,559.5469 1432.3594,559.7031 C1432.5156,559.9531 1432.7969,560.1094 1433.0938,560.1094 C1433.3438,560.1094 1433.6094,559.9688 1433.7656,559.75 C1433.8906,559.5938 1433.9219,559.4375 1433.9219,558.9844 L1433.9219,557.0625 C1433.9219,556.9063 1433.9219,556.8594 1433.9063,556.7031 C1433.8438,556.2344 1433.5313,555.9219 1433.0781,555.9219 C1432.8281,555.9219 1432.5625,556.0625 1432.3906,556.2813 C1432.2813,556.4531 1432.25,556.6094 1432.25,557.0625 L1432.25,557.1875 L1430.7969,557.1875 L1430.7969,554.7813 L1434.7813,554.7813 L1434.7813,555.6406 C1434.7813,556.0469 1434.8125,556.2188 1434.8906,556.375 C1435.0625,556.625 1435.3438,556.7813 1435.625,556.7813 C1435.8906,556.7813 1436.1563,556.6406 1436.3281,556.4219 C1436.4375,556.25 1436.4688,556.1094 1436.4688,555.6406 L1436.4688,553.0938 L1428.8438,553.0938 C1428.4063,553.0938 1428.2813,553.1094 1428.125,553.2031 C1427.875,553.3594 1427.7188,553.6563 1427.7188,553.9375 C1427.7188,554.2188 1427.8594,554.4688 1428.0781,554.6406 C1428.2344,554.75 1428.4219,554.7813 1428.8438,554.7813 L1429.0938,554.7813 L1429.0938,561.2969 L1428.8438,561.2969 C1428.4375,561.2969 1428.2813,561.3125 1428.125,561.4219 C1427.875,561.5938 1427.7188,561.8594 1427.7188,562.1563 C1427.7188,562.4219 1427.8594,562.6719 1428.0781,562.8281 C1428.2188,562.9531 1428.4531,563 1428.8438,563 L1436.8438,563 L1436.8438,560.4219 C1436.8438,559.9844 1436.8125,559.8438 1436.7344,559.6875 C1436.5625,559.4375 1436.2813,559.2813 1436,559.2813 C1435.7344,559.2813 1435.4688,559.3906 1435.2969,559.6406 C1435.1875,559.7969 1435.1563,559.9375 1435.1563,560.4219 L1435.1563,561.2969 L1430.7969,561.2969 L1430.7969,558.875 Z " fill="#000000"/><text fill="#000000" font-family="sans-serif" font-size="12" lengthAdjust="spacing" textLength="30" x="1446" y="562.1543">Error</text><line style="stroke:#A80036;stroke-width:1.5;" x1="1418" x2="1478" y1="574" y2="574"/><line style="stroke:#A80036;stroke-width:1.5;" x1="1418" x2="1478" y1="582" y2="582"/><!--MD5=[5563f2eac69cd97c311bb50067a34021]
class views.BoardView--><rect codeLine="59" fill="#FEFECE" filter="url(#f1lij07awlsvvo)" height="48" id="views.BoardView" style="stroke:#A80036;stroke-width:1.5;" width="97" x="264.5" y="279"/><ellipse cx="279.5" cy="295" fill="#ADD1B2" rx="11" ry="11" style="stroke:#A80036;stroke-width:1.0;"/><path d="M281.8438,290.6719 C280.9063,290.2344 280.3125,290.0938 279.4375,290.0938 C276.8125,290.0938 274.8125,292.1719 274.8125,294.8906 L274.8125,296.0156 C274.8125,298.5938 276.9219,300.4844 279.8125,300.4844 C281.0313,300.4844 282.1875,300.1875 282.9375,299.6406 C283.5156,299.2344 283.8438,298.7813 283.8438,298.3906 C283.8438,297.9375 283.4531,297.5469 282.9844,297.5469 C282.7656,297.5469 282.5625,297.625 282.375,297.8125 C281.9219,298.2969 281.9219,298.2969 281.7344,298.3906 C281.3125,298.6563 280.625,298.7813 279.8594,298.7813 C277.8125,298.7813 276.5156,297.6875 276.5156,295.9844 L276.5156,294.8906 C276.5156,293.1094 277.7656,291.7969 279.5,291.7969 C280.0781,291.7969 280.6875,291.9531 281.1563,292.2031 C281.6406,292.4844 281.8125,292.7031 281.9063,293.1094 C281.9688,293.5156 282,293.6406 282.1406,293.7656 C282.2813,293.9063 282.5156,294.0156 282.7344,294.0156 C283,294.0156 283.2656,293.875 283.4375,293.6563 C283.5469,293.5 283.5781,293.3125 283.5781,292.8906 L283.5781,291.4688 C283.5781,291.0313 283.5625,290.9063 283.4688,290.75 C283.3125,290.4844 283.0313,290.3438 282.7344,290.3438 C282.4375,290.3438 282.2344,290.4375 282.0156,290.75 L281.8438,290.6719 Z " fill="#000000"/><text fill="#000000" font-family="sans-serif" font-size="12" lengthAdjust="spacing" textLength="65" x="293.5" y="299.1543">BoardView</text><line style="stroke:#A80036;stroke-width:1.5;" x1="265.5" x2="360.5" y1="311" y2="311"/><line style="stroke:#A80036;stroke-width:1.5;" x1="265.5" x2="360.5" y1="319" y2="319"/><!--MD5=[52a75152711b30ce05e31727f0039306]
class views.ErrorView--><rect codeLine="63" fill="#FEFECE" filter="url(#f1lij07awlsvvo)" height="48" id="views.ErrorView" style="stroke:#A80036;stroke-width:1.5;" width="91" x="40.5" y="434"/><ellipse cx="55.5" cy="450" fill="#ADD1B2" rx="11" ry="11" style="stroke:#A80036;stroke-width:1.0;"/><path d="M57.8438,445.6719 C56.9063,445.2344 56.3125,445.0938 55.4375,445.0938 C52.8125,445.0938 50.8125,447.1719 50.8125,449.8906 L50.8125,451.0156 C50.8125,453.5938 52.9219,455.4844 55.8125,455.4844 C57.0313,455.4844 58.1875,455.1875 58.9375,454.6406 C59.5156,454.2344 59.8438,453.7813 59.8438,453.3906 C59.8438,452.9375 59.4531,452.5469 58.9844,452.5469 C58.7656,452.5469 58.5625,452.625 58.375,452.8125 C57.9219,453.2969 57.9219,453.2969 57.7344,453.3906 C57.3125,453.6563 56.625,453.7813 55.8594,453.7813 C53.8125,453.7813 52.5156,452.6875 52.5156,450.9844 L52.5156,449.8906 C52.5156,448.1094 53.7656,446.7969 55.5,446.7969 C56.0781,446.7969 56.6875,446.9531 57.1563,447.2031 C57.6406,447.4844 57.8125,447.7031 57.9063,448.1094 C57.9688,448.5156 58,448.6406 58.1406,448.7656 C58.2813,448.9063 58.5156,449.0156 58.7344,449.0156 C59,449.0156 59.2656,448.875 59.4375,448.6563 C59.5469,448.5 59.5781,448.3125 59.5781,447.8906 L59.5781,446.4688 C59.5781,446.0313 59.5625,445.9063 59.4688,445.75 C59.3125,445.4844 59.0313,445.3438 58.7344,445.3438 C58.4375,445.3438 58.2344,445.4375 58.0156,445.75 L57.8438,445.6719 Z " fill="#000000"/><text fill="#000000" font-family="sans-serif" font-size="12" lengthAdjust="spacing" textLength="59" x="69.5" y="454.1543">ErrorView</text><line style="stroke:#A80036;stroke-width:1.5;" x1="41.5" x2="130.5" y1="466" y2="466"/><line style="stroke:#A80036;stroke-width:1.5;" x1="41.5" x2="130.5" y1="474" y2="474"/><!--MD5=[15992c3de3db46d2901aebcad9c61d0d]
class views.PlayView--><rect codeLine="67" fill="#FEFECE" filter="url(#f1lij07awlsvvo)" height="48" id="views.PlayView" style="stroke:#A80036;stroke-width:1.5;" width="84" x="194" y="164"/><ellipse cx="209" cy="180" fill="#ADD1B2" rx="11" ry="11" style="stroke:#A80036;stroke-width:1.0;"/><path d="M211.3438,175.6719 C210.4063,175.2344 209.8125,175.0938 208.9375,175.0938 C206.3125,175.0938 204.3125,177.1719 204.3125,179.8906 L204.3125,181.0156 C204.3125,183.5938 206.4219,185.4844 209.3125,185.4844 C210.5313,185.4844 211.6875,185.1875 212.4375,184.6406 C213.0156,184.2344 213.3438,183.7813 213.3438,183.3906 C213.3438,182.9375 212.9531,182.5469 212.4844,182.5469 C212.2656,182.5469 212.0625,182.625 211.875,182.8125 C211.4219,183.2969 211.4219,183.2969 211.2344,183.3906 C210.8125,183.6563 210.125,183.7813 209.3594,183.7813 C207.3125,183.7813 206.0156,182.6875 206.0156,180.9844 L206.0156,179.8906 C206.0156,178.1094 207.2656,176.7969 209,176.7969 C209.5781,176.7969 210.1875,176.9531 210.6563,177.2031 C211.1406,177.4844 211.3125,177.7031 211.4063,178.1094 C211.4688,178.5156 211.5,178.6406 211.6406,178.7656 C211.7813,178.9063 212.0156,179.0156 212.2344,179.0156 C212.5,179.0156 212.7656,178.875 212.9375,178.6563 C213.0469,178.5 213.0781,178.3125 213.0781,177.8906 L213.0781,176.4688 C213.0781,176.0313 213.0625,175.9063 212.9688,175.75 C212.8125,175.4844 212.5313,175.3438 212.2344,175.3438 C211.9375,175.3438 211.7344,175.4375 211.5156,175.75 L211.3438,175.6719 Z " fill="#000000"/><text fill="#000000" font-family="sans-serif" font-size="12" lengthAdjust="spacing" textLength="52" x="223" y="184.1543">PlayView</text><line style="stroke:#A80036;stroke-width:1.5;" x1="195" x2="277" y1="196" y2="196"/><line style="stroke:#A80036;stroke-width:1.5;" x1="195" x2="277" y1="204" y2="204"/><!--MD5=[efe083823ff420907f2c8e105cba547e]
class views.ResumeView--><rect codeLine="71" fill="#FEFECE" filter="url(#f1lij07awlsvvo)" height="48" id="views.ResumeView" style="stroke:#A80036;stroke-width:1.5;" width="109" x="434.5" y="279"/><ellipse cx="449.5" cy="295" fill="#ADD1B2" rx="11" ry="11" style="stroke:#A80036;stroke-width:1.0;"/><path d="M451.8438,290.6719 C450.9063,290.2344 450.3125,290.0938 449.4375,290.0938 C446.8125,290.0938 444.8125,292.1719 444.8125,294.8906 L444.8125,296.0156 C444.8125,298.5938 446.9219,300.4844 449.8125,300.4844 C451.0313,300.4844 452.1875,300.1875 452.9375,299.6406 C453.5156,299.2344 453.8438,298.7813 453.8438,298.3906 C453.8438,297.9375 453.4531,297.5469 452.9844,297.5469 C452.7656,297.5469 452.5625,297.625 452.375,297.8125 C451.9219,298.2969 451.9219,298.2969 451.7344,298.3906 C451.3125,298.6563 450.625,298.7813 449.8594,298.7813 C447.8125,298.7813 446.5156,297.6875 446.5156,295.9844 L446.5156,294.8906 C446.5156,293.1094 447.7656,291.7969 449.5,291.7969 C450.0781,291.7969 450.6875,291.9531 451.1563,292.2031 C451.6406,292.4844 451.8125,292.7031 451.9063,293.1094 C451.9688,293.5156 452,293.6406 452.1406,293.7656 C452.2813,293.9063 452.5156,294.0156 452.7344,294.0156 C453,294.0156 453.2656,293.875 453.4375,293.6563 C453.5469,293.5 453.5781,293.3125 453.5781,292.8906 L453.5781,291.4688 C453.5781,291.0313 453.5625,290.9063 453.4688,290.75 C453.3125,290.4844 453.0313,290.3438 452.7344,290.3438 C452.4375,290.3438 452.2344,290.4375 452.0156,290.75 L451.8438,290.6719 Z " fill="#000000"/><text fill="#000000" font-family="sans-serif" font-size="12" lengthAdjust="spacing" textLength="77" x="463.5" y="299.1543">ResumeView</text><line style="stroke:#A80036;stroke-width:1.5;" x1="435.5" x2="542.5" y1="311" y2="311"/><line style="stroke:#A80036;stroke-width:1.5;" x1="435.5" x2="542.5" y1="319" y2="319"/><!--MD5=[eba1bc73714f08f0da8dc05a139be9c1]
class views.StartView--><rect codeLine="75" fill="#FEFECE" filter="url(#f1lij07awlsvvo)" height="48" id="views.StartView" style="stroke:#A80036;stroke-width:1.5;" width="89" x="337.5" y="164"/><ellipse cx="352.5" cy="180" fill="#ADD1B2" rx="11" ry="11" style="stroke:#A80036;stroke-width:1.0;"/><path d="M354.8438,175.6719 C353.9063,175.2344 353.3125,175.0938 352.4375,175.0938 C349.8125,175.0938 347.8125,177.1719 347.8125,179.8906 L347.8125,181.0156 C347.8125,183.5938 349.9219,185.4844 352.8125,185.4844 C354.0313,185.4844 355.1875,185.1875 355.9375,184.6406 C356.5156,184.2344 356.8438,183.7813 356.8438,183.3906 C356.8438,182.9375 356.4531,182.5469 355.9844,182.5469 C355.7656,182.5469 355.5625,182.625 355.375,182.8125 C354.9219,183.2969 354.9219,183.2969 354.7344,183.3906 C354.3125,183.6563 353.625,183.7813 352.8594,183.7813 C350.8125,183.7813 349.5156,182.6875 349.5156,180.9844 L349.5156,179.8906 C349.5156,178.1094 350.7656,176.7969 352.5,176.7969 C353.0781,176.7969 353.6875,176.9531 354.1563,177.2031 C354.6406,177.4844 354.8125,177.7031 354.9063,178.1094 C354.9688,178.5156 355,178.6406 355.1406,178.7656 C355.2813,178.9063 355.5156,179.0156 355.7344,179.0156 C356,179.0156 356.2656,178.875 356.4375,178.6563 C356.5469,178.5 356.5781,178.3125 356.5781,177.8906 L356.5781,176.4688 C356.5781,176.0313 356.5625,175.9063 356.4688,175.75 C356.3125,175.4844 356.0313,175.3438 355.7344,175.3438 C355.4375,175.3438 355.2344,175.4375 355.0156,175.75 L354.8438,175.6719 Z " fill="#000000"/><text fill="#000000" font-family="sans-serif" font-size="12" lengthAdjust="spacing" textLength="57" x="366.5" y="184.1543">StartView</text><line style="stroke:#A80036;stroke-width:1.5;" x1="338.5" x2="425.5" y1="196" y2="196"/><line style="stroke:#A80036;stroke-width:1.5;" x1="338.5" x2="425.5" y1="204" y2="204"/><!--MD5=[625ef0ab1f49174a2477f77f78895d5e]
class views.MovementView--><rect codeLine="79" fill="#FEFECE" filter="url(#f1lij07awlsvvo)" height="48" id="views.MovementView" style="stroke:#A80036;stroke-width:1.5;" width="124" x="68" y="279"/><ellipse cx="83" cy="295" fill="#ADD1B2" rx="11" ry="11" style="stroke:#A80036;stroke-width:1.0;"/><path d="M85.3438,290.6719 C84.4063,290.2344 83.8125,290.0938 82.9375,290.0938 C80.3125,290.0938 78.3125,292.1719 78.3125,294.8906 L78.3125,296.0156 C78.3125,298.5938 80.4219,300.4844 83.3125,300.4844 C84.5313,300.4844 85.6875,300.1875 86.4375,299.6406 C87.0156,299.2344 87.3438,298.7813 87.3438,298.3906 C87.3438,297.9375 86.9531,297.5469 86.4844,297.5469 C86.2656,297.5469 86.0625,297.625 85.875,297.8125 C85.4219,298.2969 85.4219,298.2969 85.2344,298.3906 C84.8125,298.6563 84.125,298.7813 83.3594,298.7813 C81.3125,298.7813 80.0156,297.6875 80.0156,295.9844 L80.0156,294.8906 C80.0156,293.1094 81.2656,291.7969 83,291.7969 C83.5781,291.7969 84.1875,291.9531 84.6563,292.2031 C85.1406,292.4844 85.3125,292.7031 85.4063,293.1094 C85.4688,293.5156 85.5,293.6406 85.6406,293.7656 C85.7813,293.9063 86.0156,294.0156 86.2344,294.0156 C86.5,294.0156 86.7656,293.875 86.9375,293.6563 C87.0469,293.5 87.0781,293.3125 87.0781,292.8906 L87.0781,291.4688 C87.0781,291.0313 87.0625,290.9063 86.9688,290.75 C86.8125,290.4844 86.5313,290.3438 86.2344,290.3438 C85.9375,290.3438 85.7344,290.4375 85.5156,290.75 L85.3438,290.6719 Z " fill="#000000"/><text fill="#000000" font-family="sans-serif" font-size="12" lengthAdjust="spacing" textLength="92" x="97" y="299.1543">MovementView</text><line style="stroke:#A80036;stroke-width:1.5;" x1="69" x2="191" y1="311" y2="311"/><line style="stroke:#A80036;stroke-width:1.5;" x1="69" x2="191" y1="319" y2="319"/><!--MD5=[17c5bd0e327a2997366869d748d685d5]
class views.ColorView--><rect codeLine="83" fill="#FEFECE" filter="url(#f1lij07awlsvvo)" height="48" id="views.ColorView" style="stroke:#A80036;stroke-width:1.5;" width="93" x="328.5" y="434"/><ellipse cx="343.5" cy="450" fill="#ADD1B2" rx="11" ry="11" style="stroke:#A80036;stroke-width:1.0;"/><path d="M345.8438,445.6719 C344.9063,445.2344 344.3125,445.0938 343.4375,445.0938 C340.8125,445.0938 338.8125,447.1719 338.8125,449.8906 L338.8125,451.0156 C338.8125,453.5938 340.9219,455.4844 343.8125,455.4844 C345.0313,455.4844 346.1875,455.1875 346.9375,454.6406 C347.5156,454.2344 347.8438,453.7813 347.8438,453.3906 C347.8438,452.9375 347.4531,452.5469 346.9844,452.5469 C346.7656,452.5469 346.5625,452.625 346.375,452.8125 C345.9219,453.2969 345.9219,453.2969 345.7344,453.3906 C345.3125,453.6563 344.625,453.7813 343.8594,453.7813 C341.8125,453.7813 340.5156,452.6875 340.5156,450.9844 L340.5156,449.8906 C340.5156,448.1094 341.7656,446.7969 343.5,446.7969 C344.0781,446.7969 344.6875,446.9531 345.1563,447.2031 C345.6406,447.4844 345.8125,447.7031 345.9063,448.1094 C345.9688,448.5156 346,448.6406 346.1406,448.7656 C346.2813,448.9063 346.5156,449.0156 346.7344,449.0156 C347,449.0156 347.2656,448.875 347.4375,448.6563 C347.5469,448.5 347.5781,448.3125 347.5781,447.8906 L347.5781,446.4688 C347.5781,446.0313 347.5625,445.9063 347.4688,445.75 C347.3125,445.4844 347.0313,445.3438 346.7344,445.3438 C346.4375,445.3438 346.2344,445.4375 346.0156,445.75 L345.8438,445.6719 Z " fill="#000000"/><text fill="#000000" font-family="sans-serif" font-size="12" lengthAdjust="spacing" textLength="61" x="357.5" y="454.1543">ColorView</text><line style="stroke:#A80036;stroke-width:1.5;" x1="329.5" x2="420.5" y1="466" y2="466"/><line style="stroke:#A80036;stroke-width:1.5;" x1="329.5" x2="420.5" y1="474" y2="474"/><!--MD5=[692bbdbc7ace692555185cdf9d0c2e06]
class views.Message--><rect codeLine="87" fill="#FEFECE" filter="url(#f1lij07awlsvvo)" height="48" id="views.Message" style="stroke:#A80036;stroke-width:1.5;" width="87" x="456.5" y="434"/><ellipse cx="471.5" cy="450" fill="#EB937F" rx="11" ry="11" style="stroke:#A80036;stroke-width:1.0;"/><path d="M470.2969,450.875 L471.75,450.875 L471.75,450.9844 C471.75,451.3906 471.7813,451.5469 471.8594,451.7031 C472.0156,451.9531 472.2969,452.1094 472.5938,452.1094 C472.8438,452.1094 473.1094,451.9688 473.2656,451.75 C473.3906,451.5938 473.4219,451.4375 473.4219,450.9844 L473.4219,449.0625 C473.4219,448.9063 473.4219,448.8594 473.4063,448.7031 C473.3438,448.2344 473.0313,447.9219 472.5781,447.9219 C472.3281,447.9219 472.0625,448.0625 471.8906,448.2813 C471.7813,448.4531 471.75,448.6094 471.75,449.0625 L471.75,449.1875 L470.2969,449.1875 L470.2969,446.7813 L474.2813,446.7813 L474.2813,447.6406 C474.2813,448.0469 474.3125,448.2188 474.3906,448.375 C474.5625,448.625 474.8438,448.7813 475.125,448.7813 C475.3906,448.7813 475.6563,448.6406 475.8281,448.4219 C475.9375,448.25 475.9688,448.1094 475.9688,447.6406 L475.9688,445.0938 L468.3438,445.0938 C467.9063,445.0938 467.7813,445.1094 467.625,445.2031 C467.375,445.3594 467.2188,445.6563 467.2188,445.9375 C467.2188,446.2188 467.3594,446.4688 467.5781,446.6406 C467.7344,446.75 467.9219,446.7813 468.3438,446.7813 L468.5938,446.7813 L468.5938,453.2969 L468.3438,453.2969 C467.9375,453.2969 467.7813,453.3125 467.625,453.4219 C467.375,453.5938 467.2188,453.8594 467.2188,454.1563 C467.2188,454.4219 467.3594,454.6719 467.5781,454.8281 C467.7188,454.9531 467.9531,455 468.3438,455 L476.3438,455 L476.3438,452.4219 C476.3438,451.9844 476.3125,451.8438 476.2344,451.6875 C476.0625,451.4375 475.7813,451.2813 475.5,451.2813 C475.2344,451.2813 474.9688,451.3906 474.7969,451.6406 C474.6875,451.7969 474.6563,451.9375 474.6563,452.4219 L474.6563,453.2969 L470.2969,453.2969 L470.2969,450.875 Z " fill="#000000"/><text fill="#000000" font-family="sans-serif" font-size="12" lengthAdjust="spacing" textLength="55" x="485.5" y="454.1543">Message</text><line style="stroke:#A80036;stroke-width:1.5;" x1="457.5" x2="542.5" y1="466" y2="466"/><line style="stroke:#A80036;stroke-width:1.5;" x1="457.5" x2="542.5" y1="474" y2="474"/><!--MD5=[947e6c573c2f2818382a8a631176de9a]
class views.PlayerView--><rect codeLine="91" fill="#FEFECE" filter="url(#f1lij07awlsvvo)" height="48" id="views.PlayerView" style="stroke:#A80036;stroke-width:1.5;" width="97" x="333.5" y="49"/><ellipse cx="348.5" cy="65" fill="#ADD1B2" rx="11" ry="11" style="stroke:#A80036;stroke-width:1.0;"/><path d="M350.8438,60.6719 C349.9063,60.2344 349.3125,60.0938 348.4375,60.0938 C345.8125,60.0938 343.8125,62.1719 343.8125,64.8906 L343.8125,66.0156 C343.8125,68.5938 345.9219,70.4844 348.8125,70.4844 C350.0313,70.4844 351.1875,70.1875 351.9375,69.6406 C352.5156,69.2344 352.8438,68.7813 352.8438,68.3906 C352.8438,67.9375 352.4531,67.5469 351.9844,67.5469 C351.7656,67.5469 351.5625,67.625 351.375,67.8125 C350.9219,68.2969 350.9219,68.2969 350.7344,68.3906 C350.3125,68.6563 349.625,68.7813 348.8594,68.7813 C346.8125,68.7813 345.5156,67.6875 345.5156,65.9844 L345.5156,64.8906 C345.5156,63.1094 346.7656,61.7969 348.5,61.7969 C349.0781,61.7969 349.6875,61.9531 350.1563,62.2031 C350.6406,62.4844 350.8125,62.7031 350.9063,63.1094 C350.9688,63.5156 351,63.6406 351.1406,63.7656 C351.2813,63.9063 351.5156,64.0156 351.7344,64.0156 C352,64.0156 352.2656,63.875 352.4375,63.6563 C352.5469,63.5 352.5781,63.3125 352.5781,62.8906 L352.5781,61.4688 C352.5781,61.0313 352.5625,60.9063 352.4688,60.75 C352.3125,60.4844 352.0313,60.3438 351.7344,60.3438 C351.4375,60.3438 351.2344,60.4375 351.0156,60.75 L350.8438,60.6719 Z " fill="#000000"/><text fill="#000000" font-family="sans-serif" font-size="12" lengthAdjust="spacing" textLength="65" x="362.5" y="69.1543">PlayerView</text><line style="stroke:#A80036;stroke-width:1.5;" x1="334.5" x2="429.5" y1="81" y2="81"/><line style="stroke:#A80036;stroke-width:1.5;" x1="334.5" x2="429.5" y1="89" y2="89"/><!--MD5=[086790dd88b6dc20f42fdfbd3a0210ab]
class views.CoordinateView--><rect codeLine="95" fill="#FEFECE" filter="url(#f1lij07awlsvvo)" height="48" id="views.CoordinateView" style="stroke:#A80036;stroke-width:1.5;" width="127" x="166.5" y="434"/><ellipse cx="181.5" cy="450" fill="#ADD1B2" rx="11" ry="11" style="stroke:#A80036;stroke-width:1.0;"/><path d="M183.8438,445.6719 C182.9063,445.2344 182.3125,445.0938 181.4375,445.0938 C178.8125,445.0938 176.8125,447.1719 176.8125,449.8906 L176.8125,451.0156 C176.8125,453.5938 178.9219,455.4844 181.8125,455.4844 C183.0313,455.4844 184.1875,455.1875 184.9375,454.6406 C185.5156,454.2344 185.8438,453.7813 185.8438,453.3906 C185.8438,452.9375 185.4531,452.5469 184.9844,452.5469 C184.7656,452.5469 184.5625,452.625 184.375,452.8125 C183.9219,453.2969 183.9219,453.2969 183.7344,453.3906 C183.3125,453.6563 182.625,453.7813 181.8594,453.7813 C179.8125,453.7813 178.5156,452.6875 178.5156,450.9844 L178.5156,449.8906 C178.5156,448.1094 179.7656,446.7969 181.5,446.7969 C182.0781,446.7969 182.6875,446.9531 183.1563,447.2031 C183.6406,447.4844 183.8125,447.7031 183.9063,448.1094 C183.9688,448.5156 184,448.6406 184.1406,448.7656 C184.2813,448.9063 184.5156,449.0156 184.7344,449.0156 C185,449.0156 185.2656,448.875 185.4375,448.6563 C185.5469,448.5 185.5781,448.3125 185.5781,447.8906 L185.5781,446.4688 C185.5781,446.0313 185.5625,445.9063 185.4688,445.75 C185.3125,445.4844 185.0313,445.3438 184.7344,445.3438 C184.4375,445.3438 184.2344,445.4375 184.0156,445.75 L183.8438,445.6719 Z " fill="#000000"/><text fill="#000000" font-family="sans-serif" font-size="12" lengthAdjust="spacing" textLength="95" x="195.5" y="454.1543">CoordinateView</text><line style="stroke:#A80036;stroke-width:1.5;" x1="167.5" x2="292.5" y1="466" y2="466"/><line style="stroke:#A80036;stroke-width:1.5;" x1="167.5" x2="292.5" y1="474" y2="474"/><!--MD5=[6bfde5656e7ece32836aeea1e9e8a819]
link controllers to models--><path d="M1115.177,189.0453 C1115.3256,189.0469 1115.4759,189.0486 1115.6281,189.0503 C1120.4971,189.1059 1127.2148,189.2209 1135.2283,189.4565 C1151.2553,189.9279 1172.4656,190.8821 1194.4363,192.8105 C1238.3775,196.6673 1285.36,204.4205 1300,220 C1303.0363,223.2311 1305.4545,226.8821 1307.36,230.804 C1307.8363,231.7844 1308.2807,232.7818 1308.6946,233.7938 C1308.9015,234.2998 1309.1009,234.8094 1309.2928,235.3224 C1309.3408,235.4507 1309.3883,235.5791 1309.4354,235.7078 " fill="none" id="controllers-to-models" style="stroke:#A80036;stroke-width:1.0;stroke-dasharray:7.0,7.0;"/><polygon fill="#A80036" points="1309.4354,235.7078,1310.1,225.8814,1307.7177,231.0121,1302.587,228.6297,1309.4354,235.7078" style="stroke:#A80036;stroke-width:1.0;"/><!--MD5=[9da2d375dc0417b2d3724b966d4c0d45]
link models to types--><path d="M1316.0643,326.0326 C1316.1414,326.2432 1316.2189,326.455 1316.2968,326.6679 C1316.6085,327.5195 1316.9269,328.3892 1317.2514,329.2758 C1322.4441,343.4621 1329.2281,361.9963 1336.0113,380.5283 C1342.7944,399.0603 1349.5766,417.5901 1354.7655,431.7676 C1355.0898,432.6537 1355.4079,433.5227 1355.7193,434.3738 C1355.7972,434.5865 1355.8747,434.7982 1355.9517,435.0086 " fill="none" id="models-to-types" style="stroke:#A80036;stroke-width:1.0;stroke-dasharray:7.0,7.0;"/><polygon fill="#A80036" points="1355.9517,435.0086,1356.6147,425.1821,1354.2332,430.3132,1349.1021,427.9317,1355.9517,435.0086" style="stroke:#A80036;stroke-width:1.0;"/><!--MD5=[fd4dadafb7dfafd89665a9151015bafc]
link views to controllers--><path d="M576.7363,74.1897 C577.3027,74.2023 577.8951,74.2155 578.513,74.2294 C579.7488,74.2572 581.0867,74.2875 582.5229,74.3203 C585.3952,74.3858 588.6609,74.4615 592.29,74.5471 C606.8065,74.8898 627.1391,75.3932 651.3837,76.0561 C699.873,77.382 764.0104,79.3463 828.5631,81.9406 C957.6685,87.1293 1088.435,94.838 1099,105 C1102.1963,108.0738 1104.7358,111.6055 1106.7308,115.4393 C1107.2295,116.3977 1107.6942,117.375 1108.1266,118.3688 C1108.3429,118.8656 1108.551,119.3666 1108.7513,119.8714 C1108.8514,120.1238 1108.9496,120.3772 1109.0459,120.6314 " fill="none" id="views-to-controllers" style="stroke:#A80036;stroke-width:1.0;stroke-dasharray:7.0,7.0;"/><polygon fill="#A80036" points="1109.0459,120.6314,1109.6006,110.7982,1107.2757,115.9552,1102.1187,113.6304,1109.0459,120.6314" style="stroke:#A80036;stroke-width:1.0;"/><!--MD5=[a47103ae2ffafd08434d69e1e4d1349a]
link views to types--><path d="M576.2813,73.9424 C576.5376,73.9409 576.7994,73.9395 577.0669,73.938 C578.1366,73.9322 579.2959,73.9262 580.5417,73.9204 C583.0335,73.9086 585.8717,73.8972 589.034,73.8873 C601.6832,73.8478 619.517,73.8334 641.0958,73.9265 C684.2534,74.1128 742.3909,74.7291 803.9908,76.4341 C927.1905,79.8443 1064.24,87.6095 1123,105 C1221.69,134.208 1265.11,135.591 1324,220 C1354.085,263.12 1364.245,321.2068 1366.8063,369.0815 C1367.1264,375.0658 1367.3278,380.8906 1367.4346,386.5067 C1367.4613,387.9107 1367.4821,389.3016 1367.4973,390.6788 " fill="none" id="views-to-types" style="stroke:#A80036;stroke-width:1.0;stroke-dasharray:7.0,7.0;"/><polygon fill="#A80036" points="1367.4973,390.6788,1371.3975,381.6351,1367.442,385.6791,1363.398,381.7236,1367.4973,390.6788" style="stroke:#A80036;stroke-width:1.0;"/><!--MD5=[67c5dbc5f258340ee2b7aaadfd6765aa]
link views.PlayerView to views.StartView--><path codeLine="99" d="M382,109.14 C382,109.14 382,137.677 382,150.628 " fill="none" id="views.PlayerView-views.StartView" style="stroke:#A80036;stroke-width:1.0;"/><polygon fill="#A80036" points="382,163.891,386,154.891,382,158.891,378,154.891,382,163.891" style="stroke:#A80036;stroke-width:1.0;"/><line style="stroke:#A80036;stroke-width:1.0;" x1="382" x2="382" y1="158.891" y2="150.891"/><polygon fill="#A80036" points="382,97.14,378,103.14,382,109.14,386,103.14,382,97.14" style="stroke:#A80036;stroke-width:1.0;"/><!--MD5=[9911ff4f94ad66318e9363318070f9b5]
link views.PlayerView to views.PlayView--><path codeLine="100" d="M323.2522,102.8184 C323.2522,102.8184 320.659,104.531 320,105 C300.062,119.189 280.347,138.108 265.032,154.198 " fill="none" id="views.PlayerView-views.PlayView" style="stroke:#A80036;stroke-width:1.0;"/><polygon fill="#A80036" points="256.103,163.784,265.1646,159.9257,259.5113,160.1257,259.3113,154.4724,256.103,163.784" style="stroke:#A80036;stroke-width:1.0;"/><line style="stroke:#A80036;stroke-width:1.0;" x1="259.5113" x2="264.964" y1="160.1257" y2="154.2715"/><polygon fill="#A80036" points="333.416,96.439,326.2076,96.2408,323.2522,102.8184,330.4606,103.0166,333.416,96.439" style="stroke:#A80036;stroke-width:1.0;"/><!--MD5=[ebea6b3e947d8b3c55735d694b4eb772]
link views.PlayerView to views.ResumeView--><path codeLine="101" d="M440.5946,101.8368 C440.5946,101.8368 443.341,104.162 444,105 C480.782,151.824 488.572,223.151 489.645,265.91 " fill="none" id="views.PlayerView-views.ResumeView" style="stroke:#A80036;stroke-width:1.0;"/><polygon fill="#A80036" points="489.784,278.981,493.6878,269.9389,489.7307,273.9813,485.6883,270.0242,489.784,278.981" style="stroke:#A80036;stroke-width:1.0;"/><line style="stroke:#A80036;stroke-width:1.0;" x1="489.7307" x2="489.6455" y1="273.9813" y2="265.9815"/><polygon fill="#A80036" points="430.591,95.209,433.3836,101.8574,440.5946,101.8368,437.8021,95.1883,430.591,95.209" style="stroke:#A80036;stroke-width:1.0;"/><!--MD5=[8507262084d539f4882e2752de5479e8]
link views.StartView to views.Message--><path codeLine="102" d="M379.839,212.267 C377.702,249.493 379.106,322.742 417,367 C423.767,374.903 430.655,368.787 439,375 C458.418,389.457 474.464,411.796 485.218,429.508 " fill="none" id="views.StartView-to-views.Message" style="stroke:#A80036;stroke-width:1.0;stroke-dasharray:7.0,7.0;"/><polygon fill="#A80036" points="487.837,433.904,486.6681,424.1247,485.2784,429.6082,479.7949,428.2185,487.837,433.904" style="stroke:#A80036;stroke-width:1.0;"/><!--MD5=[1b8a73df775c8bac903591bf669c8c66]
link views.StartView to views.BoardView--><path codeLine="103" d="M367.87,212.14 C356.893,230.116 341.63,255.113 329.988,274.179 " fill="none" id="views.StartView-to-views.BoardView" style="stroke:#A80036;stroke-width:1.0;stroke-dasharray:7.0,7.0;"/><polygon fill="#A80036" points="327.111,278.891,335.2153,273.2945,329.7168,274.6237,328.3876,269.1252,327.111,278.891" style="stroke:#A80036;stroke-width:1.0;"/><!--MD5=[ebadaef8e2bbd4ba1e726984e015cfbe]
link views.BoardView to views.ColorView--><path codeLine="104" d="M322.416,327.237 C333.432,354.422 351.667,399.42 363.507,428.638 " fill="none" id="views.BoardView-to-views.ColorView" style="stroke:#A80036;stroke-width:1.0;stroke-dasharray:7.0,7.0;"/><polygon fill="#A80036" points="365.495,433.544,365.8236,423.7006,363.6179,428.9097,358.4088,426.704,365.495,433.544" style="stroke:#A80036;stroke-width:1.0;"/><!--MD5=[095a9e8630f04b2395f4481b19b8906e]
link views.BoardView to views.Message--><path codeLine="105" d="M334.396,327.141 C348.535,340.956 368.238,357.593 389,367 C409.499,376.287 419.755,363.334 439,375 C460.122,387.803 476.309,410.928 486.684,429.364 " fill="none" id="views.BoardView-to-views.Message" style="stroke:#A80036;stroke-width:1.0;stroke-dasharray:7.0,7.0;"/><polygon fill="#A80036" points="489.195,433.941,488.3709,424.1267,486.7891,429.5579,481.3579,427.9761,489.195,433.941" style="stroke:#A80036;stroke-width:1.0;"/><!--MD5=[f9d7272086e8e62f4b793c0eb33c0b4b]
link views.PlayView to views.Message--><path codeLine="106" d="M228.874,212.297 C218.771,250.583 205.761,326.581 247,367 C262.249,381.946 420.125,365.019 439,375 C460.979,386.623 477.173,410.089 487.33,428.952 " fill="none" id="views.PlayView-to-views.Message" style="stroke:#A80036;stroke-width:1.0;stroke-dasharray:7.0,7.0;"/><polygon fill="#A80036" points="489.782,433.638,489.1551,423.8091,487.4646,429.2075,482.0662,427.517,489.782,433.638" style="stroke:#A80036;stroke-width:1.0;"/><!--MD5=[a9b9099bd570987dc5af9f0e9221dc51]
link views.PlayView to views.BoardView--><path codeLine="107" d="M251.768,212.14 C264.121,230.269 281.339,255.537 294.372,274.663 " fill="none" id="views.PlayView-to-views.BoardView" style="stroke:#A80036;stroke-width:1.0;stroke-dasharray:7.0,7.0;"/><polygon fill="#A80036" points="297.253,278.891,295.4913,269.201,294.4378,274.7589,288.8799,273.7053,297.253,278.891" style="stroke:#A80036;stroke-width:1.0;"/><!--MD5=[5def075edf52364bac0be7f62eb4aa14]
link views.PlayView to views.MovementView--><path codeLine="108" d="M214.294,212.14 C197.145,230.421 173.186,255.962 155.193,275.144 " fill="none" id="views.PlayView-to-views.MovementView" style="stroke:#A80036;stroke-width:1.0;stroke-dasharray:7.0,7.0;"/><polygon fill="#A80036" points="151.677,278.891,160.7519,275.0639,155.0979,275.2444,154.9174,269.5905,151.677,278.891" style="stroke:#A80036;stroke-width:1.0;"/><!--MD5=[bc8a2baa650750752d6e88c509172a1c]
link views.MovementView to views.ErrorView--><path codeLine="109" d="M123.317,327.237 C115.5,354.422 102.559,399.42 94.156,428.638 " fill="none" id="views.MovementView-to-views.ErrorView" style="stroke:#A80036;stroke-width:1.0;stroke-dasharray:7.0,7.0;"/><polygon fill="#A80036" points="92.746,433.544,99.0773,425.9998,94.1277,428.7387,91.3889,423.7891,92.746,433.544" style="stroke:#A80036;stroke-width:1.0;"/><!--MD5=[43dd04138dcca8bbc729df36fdc1a987]
link views.ResumeView to views.Message--><path codeLine="110" d="M490.671,327.237 C492.617,354.31 495.834,399.049 497.935,428.275 " fill="none" id="views.ResumeView-to-views.Message" style="stroke:#A80036;stroke-width:1.0;stroke-dasharray:7.0,7.0;"/><polygon fill="#A80036" points="498.314,433.544,501.6583,424.2803,497.9554,428.5569,493.6789,424.854,498.314,433.544" style="stroke:#A80036;stroke-width:1.0;"/><!--MD5=[520b71290d2efd547a67b9a059ddf5cb]
link views.MovementView to views.CoordinateView--><path codeLine="111" d="M145.188,327.237 C163.029,354.534 192.609,399.792 211.699,428.999 " fill="none" id="views.MovementView-to-views.CoordinateView" style="stroke:#A80036;stroke-width:1.0;stroke-dasharray:7.0,7.0;"/><polygon fill="#A80036" points="214.669,433.544,213.0934,423.822,211.9335,429.3586,206.3969,428.1987,214.669,433.544" style="stroke:#A80036;stroke-width:1.0;"/><!--MD5=[ef8c05d66c4b2b1e5a781c7196559dad]
reverse link controllers.Controller to controllers.StartController--><path codeLine="113" d="M874,232.337 C874,248.182 874,265.491 874,278.891 " fill="none" id="controllers.Controller-backto-controllers.StartController" style="stroke:#A80036;stroke-width:1.0;"/><polygon fill="none" points="867,232.14,874,212.14,881,232.14,867,232.14" style="stroke:#A80036;stroke-width:1.0;"/><!--MD5=[cd97b32f8cd0eecd774161c5480ca0be]
reverse link controllers.Controller to controllers.PlayController--><path codeLine="114" d="M938.621,215.256 C942.543,215.986 946.185,217.02 951,220 C975.445,235.126 996.84,260.423 1010.46,278.927 " fill="none" id="controllers.Controller-backto-controllers.PlayController" style="stroke:#A80036;stroke-width:1.0;"/><polygon fill="none" points="936.769,222.009,919.006,210.457,940.096,208.41,936.769,222.009" style="stroke:#A80036;stroke-width:1.0;"/><!--MD5=[8b121a2dc1d192ba5b71e05f14e3e1fc]
reverse link controllers.Controller to controllers.ResumeController--><path codeLine="115" d="M810.423,212.342 C805.774,214.726 801.248,217.281 797,220 C771.476,236.334 746.768,260.708 730.247,278.639 " fill="none" id="controllers.Controller-backto-controllers.ResumeController" style="stroke:#A80036;stroke-width:1.0;"/><polygon fill="none" points="807.53,205.967,828.628,203.998,813.363,218.694,807.53,205.967" style="stroke:#A80036;stroke-width:1.0;"/><!--MD5=[f59d5386026bb4a52ecda18ff7a4c496]
link models.Game to models.Turn--><path codeLine="119" d="M1230.8204,339.1257 C1230.8204,339.1257 1238.68,396.38 1242,420.605 " fill="none" id="models.Game-models.Turn" style="stroke:#A80036;stroke-width:1.0;"/><polygon fill="#A80036" points="1243.78,433.544,1246.5201,424.084,1243.1007,428.5904,1238.5943,425.1709,1243.78,433.544" style="stroke:#A80036;stroke-width:1.0;"/><line style="stroke:#A80036;stroke-width:1.0;" x1="1243.1007" x2="1242.01" y1="428.5904" y2="420.6645"/><polygon fill="#A80036" points="1229.19,327.237,1226.0423,333.7248,1230.8204,339.1257,1233.9681,332.6379,1229.19,327.237" style="stroke:#A80036;stroke-width:1.0;"/><!--MD5=[d4d2321dd53b51862935e01c3c028505]
link models.Game to models.Board--><path codeLine="120" d="M1210.8201,338.2494 C1210.8201,338.2494 1202.18,363.122 1200,375 C1179.54,486.475 1161.57,522.679 1198,630 C1199,632.932 1200.28,635.821 1201.76,638.629 " fill="none" id="models.Game-models.Board" style="stroke:#A80036;stroke-width:1.0;"/><polygon fill="#A80036" points="1208.75,649.6238,1207.3011,639.8821,1206.0693,645.4032,1200.5482,644.1713,1208.75,649.6238" style="stroke:#A80036;stroke-width:1.0;"/><line style="stroke:#A80036;stroke-width:1.0;" x1="1206.0693" x2="1201.78" y1="645.4032" y2="638.65"/><polygon fill="#A80036" points="1215.27,327.105,1209.3303,331.1939,1210.8201,338.2494,1216.7599,334.1605,1215.27,327.105" style="stroke:#A80036;stroke-width:1.0;"/><!--MD5=[58201eb69d9a19662cac6d4497ced9d6]
link models.Turn to models.Player--><path codeLine="121" d="M1247.9901,493.9952 C1247.9901,493.9952 1248.66,517.677 1248.96,528.364 " fill="none" id="models.Turn-models.Player" style="stroke:#A80036;stroke-width:1.0;"/><polygon fill="#A80036" points="1249.34,541.678,1253.0843,532.5687,1249.1988,536.68,1245.0875,532.7945,1249.34,541.678" style="stroke:#A80036;stroke-width:1.0;"/><line style="stroke:#A80036;stroke-width:1.0;" x1="1249.1988" x2="1248.97" y1="536.68" y2="528.6835"/><polygon fill="#A80036" points="1247.65,482,1243.8216,488.111,1247.9901,493.9952,1251.8184,487.8842,1247.65,482" style="stroke:#A80036;stroke-width:1.0;"/><!--MD5=[bdba57f5dc648df4d8ec19013df38583]
link models.Player to models.Board--><path codeLine="122" d="M1245.88,590 C1243.01,606.003 1239.17,627.446 1236.1,644.528 " fill="none" id="models.Player-to-models.Board" style="stroke:#A80036;stroke-width:1.0;"/><polygon fill="#A80036" points="1235.18,649.6784,1240.7042,641.5247,1236.0616,644.7567,1232.8296,640.1141,1235.18,649.6784" style="stroke:#A80036;stroke-width:1.0;"/><!--MD5=[db4a842cdc949c7b7958a8c15140a76e]
link types.Coordinate to types.Color--><!--MD5=[076156e6f82886af7dd5e93bd4b33197]
link types.Coordinate to types.Error--><!--MD5=[27e86b31113335236536fc05cc348f2b]
@startuml
package controllers  { }


package models  { }

package types  { }


package views { }
controllers .down.> models
models .down.> types
views .up.> controllers
views .up.> types

class  models.Board{

}

class  models.Game{

}

class  models.Player{

}

class  models.Turn{

}

class  types.Coordinate{

}

enum  types.Color{

}

enum  types.Error{

}

abstract class  controllers.Controller{

}

class  controllers.PlayController{

}

class  controllers.ResumeController{

}

class  controllers.StartController{

}

class  views.BoardView{

}

class  views.ErrorView{

}

class  views.PlayView{

}

class  views.ResumeView{

}

class views.StartView{

}

class  views.MovementView{

}

class  views.ColorView{

}

enum  views.Message{

}

class  views.PlayerView{

}

class views.CoordinateView {

}

views.PlayerView *-down-> views.StartView
views.PlayerView *-down-> views.PlayView
views.PlayerView *-down-> views.ResumeView
views.StartView ..> views.Message
views.StartView ..> views.BoardView
views.BoardView ..> views.ColorView
views.BoardView ..> views.Message
views.PlayView ..> views.Message
views.PlayView ..> views.BoardView
views.PlayView ..> views.MovementView
views.MovementView ..> views.ErrorView
views.ResumeView ..> views.Message
views.MovementView ..> views.CoordinateView

controllers.Controller <|- - controllers.StartController
controllers.Controller <|- - controllers.PlayController
controllers.Controller <|- - controllers.ResumeController



models.Game *-down-> models.Turn
models.Game *-down-> models.Board
models.Turn *-down-> models.Player
models.Player - -> models.Board
@enduml

PlantUML version 1.2021.4beta1(Unknown compile time)
(GPL source distribution)
Java Runtime: Java(TM) SE Runtime Environment
JVM: Java HotSpot(TM) 64-Bit Server VM
Default Encoding: UTF-8
Language: en
Country: US
--></g></svg>