<?xml version="1.0" encoding="UTF-8" standalone="no"?><svg xmlns="http://www.w3.org/2000/svg" xmlns:xlink="http://www.w3.org/1999/xlink" contentScriptType="application/ecmascript" contentStyleType="text/css" height="924px" preserveAspectRatio="none" style="width:839px;height:924px;" version="1.1" viewBox="0 0 839 924" width="839px" zoomAndPan="magnify"><defs><filter height="300%" id="f17s16dknfzef" width="300%" x="-1" y="-1"><feGaussianBlur result="blurOut" stdDeviation="2.0"/><feColorMatrix in="blurOut" result="blurOut2" type="matrix" values="0 0 0 0 0 0 0 0 0 0 0 0 0 0 0 0 0 0 .4 0"/><feOffset dx="4.0" dy="4.0" in="blurOut2" result="blurOut3"/><feBlend in="SourceGraphic" in2="blurOut3" mode="normal"/></filter></defs><g><!--MD5=[a60570e4b426f702ccbb0d459e3b9417]
cluster models--><polygon fill="#FFFFFF" filter="url(#f17s16dknfzef)" points="321.6453,6,385.6453,6,392.6453,28.2969,736.6453,28.2969,736.6453,813,321.6453,813,321.6453,6" style="stroke:#000000;stroke-width:1.5;"/><line style="stroke:#000000;stroke-width:1.5;" x1="321.6453" x2="392.6453" y1="28.2969" y2="28.2969"/><text fill="#000000" font-family="sans-serif" font-size="14" font-weight="bold" lengthAdjust="spacing" textLength="58" x="325.6453" y="20.9951">models</text><!--MD5=[fbcab1a7378abda673044953d979be95]
class models.Board--><rect codeLine="5" fill="#FEFECE" filter="url(#f17s16dknfzef)" height="86.4141" id="models.Board" style="stroke:#A80036;stroke-width:1.5;" width="180" x="432.6453" y="711"/><ellipse cx="500.3953" cy="727" fill="#ADD1B2" rx="11" ry="11" style="stroke:#A80036;stroke-width:1.0;"/><path d="M502.7391,722.6719 C501.8016,722.2344 501.2078,722.0938 500.3328,722.0938 C497.7078,722.0938 495.7078,724.1719 495.7078,726.8906 L495.7078,728.0156 C495.7078,730.5938 497.8172,732.4844 500.7078,732.4844 C501.9266,732.4844 503.0828,732.1875 503.8328,731.6406 C504.4109,731.2344 504.7391,730.7813 504.7391,730.3906 C504.7391,729.9375 504.3484,729.5469 503.8797,729.5469 C503.6609,729.5469 503.4578,729.625 503.2703,729.8125 C502.8172,730.2969 502.8172,730.2969 502.6297,730.3906 C502.2078,730.6563 501.5203,730.7813 500.7547,730.7813 C498.7078,730.7813 497.4109,729.6875 497.4109,727.9844 L497.4109,726.8906 C497.4109,725.1094 498.6609,723.7969 500.3953,723.7969 C500.9734,723.7969 501.5828,723.9531 502.0516,724.2031 C502.5359,724.4844 502.7078,724.7031 502.8016,725.1094 C502.8641,725.5156 502.8953,725.6406 503.0359,725.7656 C503.1766,725.9063 503.4109,726.0156 503.6297,726.0156 C503.8953,726.0156 504.1609,725.875 504.3328,725.6563 C504.4422,725.5 504.4734,725.3125 504.4734,724.8906 L504.4734,723.4688 C504.4734,723.0313 504.4578,722.9063 504.3641,722.75 C504.2078,722.4844 503.9266,722.3438 503.6297,722.3438 C503.3328,722.3438 503.1297,722.4375 502.9109,722.75 L502.7391,722.6719 Z " fill="#000000"/><text fill="#000000" font-family="sans-serif" font-size="12" lengthAdjust="spacing" textLength="36" x="520.8953" y="731.1543">Board</text><line style="stroke:#A80036;stroke-width:1.5;" x1="433.6453" x2="611.6453" y1="743" y2="743"/><line style="stroke:#A80036;stroke-width:1.5;" x1="433.6453" x2="611.6453" y1="751" y2="751"/><polygon fill="#4177AF" points="443.6453,758,439.6453,764,447.6453,764" style="stroke:#1963A0;stroke-width:1.0;"/><text fill="#000000" font-family="sans-serif" font-size="11" lengthAdjust="spacing" textLength="38" x="452.6453" y="765.2104">reset()</text><polygon fill="#4177AF" points="443.6453,770.8047,439.6453,776.8047,447.6453,776.8047" style="stroke:#1963A0;stroke-width:1.0;"/><text fill="#000000" font-family="sans-serif" font-size="11" lengthAdjust="spacing" textLength="128" x="452.6453" y="778.0151">isTicTacToe(): boolean</text><polygon fill="#4177AF" points="443.6453,783.6094,439.6453,789.6094,447.6453,789.6094" style="stroke:#1963A0;stroke-width:1.0;"/><text fill="#000000" font-family="sans-serif" font-size="11" lengthAdjust="spacing" textLength="154" x="452.6453" y="790.8198">getColor(Coordinate): Color</text><!--MD5=[1ea5cf3e691bb3552ec8d5f9a56af156]
class models.Game--><rect codeLine="11" fill="#FEFECE" filter="url(#f17s16dknfzef)" height="188.8516" id="models.Game" style="stroke:#A80036;stroke-width:1.5;" width="346" x="337.6453" y="41"/><ellipse cx="488.8953" cy="57" fill="#ADD1B2" rx="11" ry="11" style="stroke:#A80036;stroke-width:1.0;"/><path d="M491.2391,52.6719 C490.3016,52.2344 489.7078,52.0938 488.8328,52.0938 C486.2078,52.0938 484.2078,54.1719 484.2078,56.8906 L484.2078,58.0156 C484.2078,60.5938 486.3172,62.4844 489.2078,62.4844 C490.4266,62.4844 491.5828,62.1875 492.3328,61.6406 C492.9109,61.2344 493.2391,60.7813 493.2391,60.3906 C493.2391,59.9375 492.8484,59.5469 492.3797,59.5469 C492.1609,59.5469 491.9578,59.625 491.7703,59.8125 C491.3172,60.2969 491.3172,60.2969 491.1297,60.3906 C490.7078,60.6563 490.0203,60.7813 489.2547,60.7813 C487.2078,60.7813 485.9109,59.6875 485.9109,57.9844 L485.9109,56.8906 C485.9109,55.1094 487.1609,53.7969 488.8953,53.7969 C489.4734,53.7969 490.0828,53.9531 490.5516,54.2031 C491.0359,54.4844 491.2078,54.7031 491.3016,55.1094 C491.3641,55.5156 491.3953,55.6406 491.5359,55.7656 C491.6766,55.9063 491.9109,56.0156 492.1297,56.0156 C492.3953,56.0156 492.6609,55.875 492.8328,55.6563 C492.9422,55.5 492.9734,55.3125 492.9734,54.8906 L492.9734,53.4688 C492.9734,53.0313 492.9578,52.9063 492.8641,52.75 C492.7078,52.4844 492.4266,52.3438 492.1297,52.3438 C491.8328,52.3438 491.6297,52.4375 491.4109,52.75 L491.2391,52.6719 Z " fill="#000000"/><text fill="#000000" font-family="sans-serif" font-size="12" lengthAdjust="spacing" textLength="35" x="509.3953" y="61.1543">Game</text><line style="stroke:#A80036;stroke-width:1.5;" x1="338.6453" x2="682.6453" y1="73" y2="73"/><line style="stroke:#A80036;stroke-width:1.5;" x1="338.6453" x2="682.6453" y1="81" y2="81"/><ellipse cx="348.6453" cy="92" fill="#84BE84" rx="3" ry="3" style="stroke:#038048;stroke-width:1.0;"/><text fill="#000000" font-family="sans-serif" font-size="11" lengthAdjust="spacing" textLength="38" x="357.6453" y="95.2104">reset()</text><ellipse cx="348.6453" cy="104.8047" fill="#84BE84" rx="3" ry="3" style="stroke:#038048;stroke-width:1.0;"/><text fill="#000000" font-family="sans-serif" font-size="11" lengthAdjust="spacing" textLength="184" x="357.6453" y="108.0151">areAllTokensOnBoard(): boolean</text><ellipse cx="348.6453" cy="117.6094" fill="#84BE84" rx="3" ry="3" style="stroke:#038048;stroke-width:1.0;"/><text fill="#000000" font-family="sans-serif" font-size="11" lengthAdjust="spacing" textLength="123" x="357.6453" y="120.8198">putToken(Coordinate)</text><ellipse cx="348.6453" cy="130.4141" fill="#84BE84" rx="3" ry="3" style="stroke:#038048;stroke-width:1.0;"/><text fill="#000000" font-family="sans-serif" font-size="11" lengthAdjust="spacing" textLength="200" x="357.6453" y="133.6245">getPutTokenError(Coordinate): Error</text><ellipse cx="348.6453" cy="143.2188" fill="#84BE84" rx="3" ry="3" style="stroke:#038048;stroke-width:1.0;"/><text fill="#000000" font-family="sans-serif" font-size="11" lengthAdjust="spacing" textLength="207" x="357.6453" y="146.4292">moveToken(Coordinate, Coordinate)</text><ellipse cx="348.6453" cy="156.0234" fill="#84BE84" rx="3" ry="3" style="stroke:#038048;stroke-width:1.0;"/><text fill="#000000" font-family="sans-serif" font-size="11" lengthAdjust="spacing" textLength="247" x="357.6453" y="159.2339">getOriginMoveTokenError(Coordinate): Error</text><ellipse cx="348.6453" cy="168.8281" fill="#84BE84" rx="3" ry="3" style="stroke:#038048;stroke-width:1.0;"/><text fill="#000000" font-family="sans-serif" font-size="11" lengthAdjust="spacing" textLength="320" x="357.6453" y="172.0386">getTargetMoveTokenError(Coordinate, Coordinate): Error</text><ellipse cx="348.6453" cy="181.6328" fill="#84BE84" rx="3" ry="3" style="stroke:#038048;stroke-width:1.0;"/><text fill="#000000" font-family="sans-serif" font-size="11" lengthAdjust="spacing" textLength="34" x="357.6453" y="184.8433">next()</text><ellipse cx="348.6453" cy="194.4375" fill="#84BE84" rx="3" ry="3" style="stroke:#038048;stroke-width:1.0;"/><text fill="#000000" font-family="sans-serif" font-size="11" lengthAdjust="spacing" textLength="128" x="357.6453" y="197.6479">getActiveColor(): Color</text><ellipse cx="348.6453" cy="207.2422" fill="#84BE84" rx="3" ry="3" style="stroke:#038048;stroke-width:1.0;"/><text fill="#000000" font-family="sans-serif" font-size="11" lengthAdjust="spacing" textLength="128" x="357.6453" y="210.4526">isTicTacToe(): boolean</text><ellipse cx="348.6453" cy="220.0469" fill="#84BE84" rx="3" ry="3" style="stroke:#038048;stroke-width:1.0;"/><text fill="#000000" font-family="sans-serif" font-size="11" lengthAdjust="spacing" textLength="154" x="357.6453" y="223.2573">getColor(Coordinate): Color</text><!--MD5=[6e8c5ac4fcf3c90f745643fbee571d05]
class models.Player--><rect codeLine="25" fill="#FEFECE" filter="url(#f17s16dknfzef)" height="137.6328" id="models.Player" style="stroke:#A80036;stroke-width:1.5;" width="346" x="337.6453" y="513"/><ellipse cx="488.3953" cy="529" fill="#ADD1B2" rx="11" ry="11" style="stroke:#A80036;stroke-width:1.0;"/><path d="M490.7391,524.6719 C489.8016,524.2344 489.2078,524.0938 488.3328,524.0938 C485.7078,524.0938 483.7078,526.1719 483.7078,528.8906 L483.7078,530.0156 C483.7078,532.5938 485.8172,534.4844 488.7078,534.4844 C489.9266,534.4844 491.0828,534.1875 491.8328,533.6406 C492.4109,533.2344 492.7391,532.7813 492.7391,532.3906 C492.7391,531.9375 492.3484,531.5469 491.8797,531.5469 C491.6609,531.5469 491.4578,531.625 491.2703,531.8125 C490.8172,532.2969 490.8172,532.2969 490.6297,532.3906 C490.2078,532.6563 489.5203,532.7813 488.7547,532.7813 C486.7078,532.7813 485.4109,531.6875 485.4109,529.9844 L485.4109,528.8906 C485.4109,527.1094 486.6609,525.7969 488.3953,525.7969 C488.9734,525.7969 489.5828,525.9531 490.0516,526.2031 C490.5359,526.4844 490.7078,526.7031 490.8016,527.1094 C490.8641,527.5156 490.8953,527.6406 491.0359,527.7656 C491.1766,527.9063 491.4109,528.0156 491.6297,528.0156 C491.8953,528.0156 492.1609,527.875 492.3328,527.6563 C492.4422,527.5 492.4734,527.3125 492.4734,526.8906 L492.4734,525.4688 C492.4734,525.0313 492.4578,524.9063 492.3641,524.75 C492.2078,524.4844 491.9266,524.3438 491.6297,524.3438 C491.3328,524.3438 491.1297,524.4375 490.9109,524.75 L490.7391,524.6719 Z " fill="#000000"/><text fill="#000000" font-family="sans-serif" font-size="12" lengthAdjust="spacing" textLength="36" x="508.8953" y="533.1543">Player</text><line style="stroke:#A80036;stroke-width:1.5;" x1="338.6453" x2="682.6453" y1="545" y2="545"/><line style="stroke:#A80036;stroke-width:1.5;" x1="338.6453" x2="682.6453" y1="553" y2="553"/><polygon fill="#4177AF" points="348.6453,560,344.6453,566,352.6453,566" style="stroke:#1963A0;stroke-width:1.0;"/><text fill="#000000" font-family="sans-serif" font-size="11" lengthAdjust="spacing" textLength="92" x="357.6453" y="567.2104">getColor(): Color</text><polygon fill="#4177AF" points="348.6453,572.8047,344.6453,578.8047,352.6453,578.8047" style="stroke:#1963A0;stroke-width:1.0;"/><text fill="#000000" font-family="sans-serif" font-size="11" lengthAdjust="spacing" textLength="184" x="357.6453" y="580.0151">areAllTokensOnBoard(): boolean</text><polygon fill="#4177AF" points="348.6453,585.6094,344.6453,591.6094,352.6453,591.6094" style="stroke:#1963A0;stroke-width:1.0;"/><text fill="#000000" font-family="sans-serif" font-size="11" lengthAdjust="spacing" textLength="123" x="357.6453" y="592.8198">putToken(Coordinate)</text><polygon fill="#4177AF" points="348.6453,598.4141,344.6453,604.4141,352.6453,604.4141" style="stroke:#1963A0;stroke-width:1.0;"/><text fill="#000000" font-family="sans-serif" font-size="11" lengthAdjust="spacing" textLength="200" x="357.6453" y="605.6245">getPutTokenError(Coordinate): Error</text><polygon fill="#4177AF" points="348.6453,611.2188,344.6453,617.2188,352.6453,617.2188" style="stroke:#1963A0;stroke-width:1.0;"/><text fill="#000000" font-family="sans-serif" font-size="11" lengthAdjust="spacing" textLength="207" x="357.6453" y="618.4292">moveToken(Coordinate, Coordinate)</text><polygon fill="#4177AF" points="348.6453,624.0234,344.6453,630.0234,352.6453,630.0234" style="stroke:#1963A0;stroke-width:1.0;"/><text fill="#000000" font-family="sans-serif" font-size="11" lengthAdjust="spacing" textLength="247" x="357.6453" y="631.2339">getOriginMoveTokenError(Coordinate): Error</text><polygon fill="#4177AF" points="348.6453,636.8281,344.6453,642.8281,352.6453,642.8281" style="stroke:#1963A0;stroke-width:1.0;"/><text fill="#000000" font-family="sans-serif" font-size="11" lengthAdjust="spacing" textLength="320" x="357.6453" y="644.0386">getTargetMoveTokenError(Coordinate, Coordinate): Error</text><!--MD5=[06029ca6144b724b5ba6f17e981b093f]
class models.Turn--><rect codeLine="35" fill="#FEFECE" filter="url(#f17s16dknfzef)" height="163.2422" id="models.Turn" style="stroke:#A80036;stroke-width:1.5;" width="346" x="337.6453" y="290"/><ellipse cx="493.3953" cy="306" fill="#ADD1B2" rx="11" ry="11" style="stroke:#A80036;stroke-width:1.0;"/><path d="M495.7391,301.6719 C494.8016,301.2344 494.2078,301.0938 493.3328,301.0938 C490.7078,301.0938 488.7078,303.1719 488.7078,305.8906 L488.7078,307.0156 C488.7078,309.5938 490.8172,311.4844 493.7078,311.4844 C494.9266,311.4844 496.0828,311.1875 496.8328,310.6406 C497.4109,310.2344 497.7391,309.7813 497.7391,309.3906 C497.7391,308.9375 497.3484,308.5469 496.8797,308.5469 C496.6609,308.5469 496.4578,308.625 496.2703,308.8125 C495.8172,309.2969 495.8172,309.2969 495.6297,309.3906 C495.2078,309.6563 494.5203,309.7813 493.7547,309.7813 C491.7078,309.7813 490.4109,308.6875 490.4109,306.9844 L490.4109,305.8906 C490.4109,304.1094 491.6609,302.7969 493.3953,302.7969 C493.9734,302.7969 494.5828,302.9531 495.0516,303.2031 C495.5359,303.4844 495.7078,303.7031 495.8016,304.1094 C495.8641,304.5156 495.8953,304.6406 496.0359,304.7656 C496.1766,304.9063 496.4109,305.0156 496.6297,305.0156 C496.8953,305.0156 497.1609,304.875 497.3328,304.6563 C497.4422,304.5 497.4734,304.3125 497.4734,303.8906 L497.4734,302.4688 C497.4734,302.0313 497.4578,301.9063 497.3641,301.75 C497.2078,301.4844 496.9266,301.3438 496.6297,301.3438 C496.3328,301.3438 496.1297,301.4375 495.9109,301.75 L495.7391,301.6719 Z " fill="#000000"/><text fill="#000000" font-family="sans-serif" font-size="12" lengthAdjust="spacing" textLength="26" x="513.8953" y="310.1543">Turn</text><line style="stroke:#A80036;stroke-width:1.5;" x1="338.6453" x2="682.6453" y1="322" y2="322"/><line style="stroke:#A80036;stroke-width:1.5;" x1="338.6453" x2="682.6453" y1="330" y2="330"/><polygon fill="#4177AF" points="348.6453,337,344.6453,343,352.6453,343" style="stroke:#1963A0;stroke-width:1.0;"/><text fill="#000000" font-family="sans-serif" font-size="11" lengthAdjust="spacing" textLength="38" x="357.6453" y="344.2104">reset()</text><polygon fill="#4177AF" points="348.6453,349.8047,344.6453,355.8047,352.6453,355.8047" style="stroke:#1963A0;stroke-width:1.0;"/><text fill="#000000" font-family="sans-serif" font-size="11" lengthAdjust="spacing" textLength="34" x="357.6453" y="357.0151">next()</text><polygon fill="#4177AF" points="348.6453,362.6094,344.6453,368.6094,352.6453,368.6094" style="stroke:#1963A0;stroke-width:1.0;"/><text fill="#000000" font-family="sans-serif" font-size="11" lengthAdjust="spacing" textLength="128" x="357.6453" y="369.8198">getActiveColor(): Color</text><polygon fill="#4177AF" points="348.6453,375.4141,344.6453,381.4141,352.6453,381.4141" style="stroke:#1963A0;stroke-width:1.0;"/><text fill="#000000" font-family="sans-serif" font-size="11" lengthAdjust="spacing" textLength="184" x="357.6453" y="382.6245">areAllTokensOnBoard(): boolean</text><polygon fill="#4177AF" points="348.6453,388.2188,344.6453,394.2188,352.6453,394.2188" style="stroke:#1963A0;stroke-width:1.0;"/><text fill="#000000" font-family="sans-serif" font-size="11" lengthAdjust="spacing" textLength="123" x="357.6453" y="395.4292">putToken(Coordinate)</text><polygon fill="#4177AF" points="348.6453,401.0234,344.6453,407.0234,352.6453,407.0234" style="stroke:#1963A0;stroke-width:1.0;"/><text fill="#000000" font-family="sans-serif" font-size="11" lengthAdjust="spacing" textLength="200" x="357.6453" y="408.2339">getPutTokenError(Coordinate): Error</text><polygon fill="#4177AF" points="348.6453,413.8281,344.6453,419.8281,352.6453,419.8281" style="stroke:#1963A0;stroke-width:1.0;"/><text fill="#000000" font-family="sans-serif" font-size="11" lengthAdjust="spacing" textLength="207" x="357.6453" y="421.0386">moveToken(Coordinate, Coordinate)</text><polygon fill="#4177AF" points="348.6453,426.6328,344.6453,432.6328,352.6453,432.6328" style="stroke:#1963A0;stroke-width:1.0;"/><text fill="#000000" font-family="sans-serif" font-size="11" lengthAdjust="spacing" textLength="247" x="357.6453" y="433.8433">getOriginMoveTokenError(Coordinate): Error</text><polygon fill="#4177AF" points="348.6453,439.4375,344.6453,445.4375,352.6453,445.4375" style="stroke:#1963A0;stroke-width:1.0;"/><text fill="#000000" font-family="sans-serif" font-size="11" lengthAdjust="spacing" textLength="320" x="357.6453" y="446.6479">getTargetMoveTokenError(Coordinate, Coordinate): Error</text><!--MD5=[8c7d7abc12e214c3cc12c9ab70edee11]
class Coordinate--><rect codeLine="1" fill="#FEFECE" filter="url(#f17s16dknfzef)" height="53.9375" id="Coordinate" style="stroke:#A80036;stroke-width:1.5;" width="98" x="682.6453" y="857"/><ellipse cx="697.6453" cy="875.9688" fill="#ADD1B2" rx="11" ry="11" style="stroke:#A80036;stroke-width:1.0;"/><path d="M699.9891,871.6406 C699.0516,871.2031 698.4578,871.0625 697.5828,871.0625 C694.9578,871.0625 692.9578,873.1406 692.9578,875.8594 L692.9578,876.9844 C692.9578,879.5625 695.0672,881.4531 697.9578,881.4531 C699.1766,881.4531 700.3328,881.1563 701.0828,880.6094 C701.6609,880.2031 701.9891,879.75 701.9891,879.3594 C701.9891,878.9063 701.5984,878.5156 701.1297,878.5156 C700.9109,878.5156 700.7078,878.5938 700.5203,878.7813 C700.0672,879.2656 700.0672,879.2656 699.8797,879.3594 C699.4578,879.625 698.7703,879.75 698.0047,879.75 C695.9578,879.75 694.6609,878.6563 694.6609,876.9531 L694.6609,875.8594 C694.6609,874.0781 695.9109,872.7656 697.6453,872.7656 C698.2234,872.7656 698.8328,872.9219 699.3016,873.1719 C699.7859,873.4531 699.9578,873.6719 700.0516,874.0781 C700.1141,874.4844 700.1453,874.6094 700.2859,874.7344 C700.4266,874.875 700.6609,874.9844 700.8797,874.9844 C701.1453,874.9844 701.4109,874.8438 701.5828,874.625 C701.6922,874.4688 701.7234,874.2813 701.7234,873.8594 L701.7234,872.4375 C701.7234,872 701.7078,871.875 701.6141,871.7188 C701.4578,871.4531 701.1766,871.3125 700.8797,871.3125 C700.5828,871.3125 700.3797,871.4063 700.1609,871.7188 L699.9891,871.6406 Z " fill="#000000"/><text fill="#000000" font-family="sans-serif" font-size="12" lengthAdjust="spacing" textLength="37" x="726.1453" y="873.1387">types.</text><text fill="#000000" font-family="sans-serif" font-size="12" lengthAdjust="spacing" textLength="66" x="711.6453" y="887.1074">Coordinate</text><line style="stroke:#A80036;stroke-width:1.5;" x1="683.6453" x2="779.6453" y1="894.9375" y2="894.9375"/><line style="stroke:#A80036;stroke-width:1.5;" x1="683.6453" x2="779.6453" y1="902.9375" y2="902.9375"/><!--MD5=[b8cfd8c4119a3b0a7a46bfc5fc780f85]
class Error--><rect codeLine="2" fill="#FEFECE" filter="url(#f17s16dknfzef)" height="53.9375" id="Error" style="stroke:#A80036;stroke-width:1.5;" width="69" x="162.1453" y="727"/><ellipse cx="177.1453" cy="745.9688" fill="#EB937F" rx="11" ry="11" style="stroke:#A80036;stroke-width:1.0;"/><path d="M175.9422,746.8438 L177.3953,746.8438 L177.3953,746.9531 C177.3953,747.3594 177.4266,747.5156 177.5047,747.6719 C177.6609,747.9219 177.9422,748.0781 178.2391,748.0781 C178.4891,748.0781 178.7547,747.9375 178.9109,747.7188 C179.0359,747.5625 179.0672,747.4063 179.0672,746.9531 L179.0672,745.0313 C179.0672,744.875 179.0672,744.8281 179.0516,744.6719 C178.9891,744.2031 178.6766,743.8906 178.2234,743.8906 C177.9734,743.8906 177.7078,744.0313 177.5359,744.25 C177.4266,744.4219 177.3953,744.5781 177.3953,745.0313 L177.3953,745.1563 L175.9422,745.1563 L175.9422,742.75 L179.9266,742.75 L179.9266,743.6094 C179.9266,744.0156 179.9578,744.1875 180.0359,744.3438 C180.2078,744.5938 180.4891,744.75 180.7703,744.75 C181.0359,744.75 181.3016,744.6094 181.4734,744.3906 C181.5828,744.2188 181.6141,744.0781 181.6141,743.6094 L181.6141,741.0625 L173.9891,741.0625 C173.5516,741.0625 173.4266,741.0781 173.2703,741.1719 C173.0203,741.3281 172.8641,741.625 172.8641,741.9063 C172.8641,742.1875 173.0047,742.4375 173.2234,742.6094 C173.3797,742.7188 173.5672,742.75 173.9891,742.75 L174.2391,742.75 L174.2391,749.2656 L173.9891,749.2656 C173.5828,749.2656 173.4266,749.2813 173.2703,749.3906 C173.0203,749.5625 172.8641,749.8281 172.8641,750.125 C172.8641,750.3906 173.0047,750.6406 173.2234,750.7969 C173.3641,750.9219 173.5984,750.9688 173.9891,750.9688 L181.9891,750.9688 L181.9891,748.3906 C181.9891,747.9531 181.9578,747.8125 181.8797,747.6563 C181.7078,747.4063 181.4266,747.25 181.1453,747.25 C180.8797,747.25 180.6141,747.3594 180.4422,747.6094 C180.3328,747.7656 180.3016,747.9063 180.3016,748.3906 L180.3016,749.2656 L175.9422,749.2656 L175.9422,746.8438 Z " fill="#000000"/><text fill="#000000" font-family="sans-serif" font-size="12" lengthAdjust="spacing" textLength="37" x="191.1453" y="743.1387">types.</text><text fill="#000000" font-family="sans-serif" font-size="12" lengthAdjust="spacing" textLength="30" x="194.6453" y="757.1074">Error</text><line style="stroke:#A80036;stroke-width:1.5;" x1="163.1453" x2="230.1453" y1="764.9375" y2="764.9375"/><line style="stroke:#A80036;stroke-width:1.5;" x1="163.1453" x2="230.1453" y1="772.9375" y2="772.9375"/><!--MD5=[18eee71c88ab61f27581b8cbdd3ef5ee]
class Color--><rect codeLine="3" fill="#FEFECE" filter="url(#f17s16dknfzef)" height="53.9375" id="Color" style="stroke:#A80036;stroke-width:1.5;" width="69" x="294.1453" y="857"/><ellipse cx="309.1453" cy="875.9688" fill="#EB937F" rx="11" ry="11" style="stroke:#A80036;stroke-width:1.0;"/><path d="M307.9422,876.8438 L309.3953,876.8438 L309.3953,876.9531 C309.3953,877.3594 309.4266,877.5156 309.5047,877.6719 C309.6609,877.9219 309.9422,878.0781 310.2391,878.0781 C310.4891,878.0781 310.7547,877.9375 310.9109,877.7188 C311.0359,877.5625 311.0672,877.4063 311.0672,876.9531 L311.0672,875.0313 C311.0672,874.875 311.0672,874.8281 311.0516,874.6719 C310.9891,874.2031 310.6766,873.8906 310.2234,873.8906 C309.9734,873.8906 309.7078,874.0313 309.5359,874.25 C309.4266,874.4219 309.3953,874.5781 309.3953,875.0313 L309.3953,875.1563 L307.9422,875.1563 L307.9422,872.75 L311.9266,872.75 L311.9266,873.6094 C311.9266,874.0156 311.9578,874.1875 312.0359,874.3438 C312.2078,874.5938 312.4891,874.75 312.7703,874.75 C313.0359,874.75 313.3016,874.6094 313.4734,874.3906 C313.5828,874.2188 313.6141,874.0781 313.6141,873.6094 L313.6141,871.0625 L305.9891,871.0625 C305.5516,871.0625 305.4266,871.0781 305.2703,871.1719 C305.0203,871.3281 304.8641,871.625 304.8641,871.9063 C304.8641,872.1875 305.0047,872.4375 305.2234,872.6094 C305.3797,872.7188 305.5672,872.75 305.9891,872.75 L306.2391,872.75 L306.2391,879.2656 L305.9891,879.2656 C305.5828,879.2656 305.4266,879.2813 305.2703,879.3906 C305.0203,879.5625 304.8641,879.8281 304.8641,880.125 C304.8641,880.3906 305.0047,880.6406 305.2234,880.7969 C305.3641,880.9219 305.5984,880.9688 305.9891,880.9688 L313.9891,880.9688 L313.9891,878.3906 C313.9891,877.9531 313.9578,877.8125 313.8797,877.6563 C313.7078,877.4063 313.4266,877.25 313.1453,877.25 C312.8797,877.25 312.6141,877.3594 312.4422,877.6094 C312.3328,877.7656 312.3016,877.9063 312.3016,878.3906 L312.3016,879.2656 L307.9422,879.2656 L307.9422,876.8438 Z " fill="#000000"/><text fill="#000000" font-family="sans-serif" font-size="12" lengthAdjust="spacing" textLength="37" x="323.1453" y="873.1387">types.</text><text fill="#000000" font-family="sans-serif" font-size="12" lengthAdjust="spacing" textLength="32" x="325.6453" y="887.1074">Color</text><line style="stroke:#A80036;stroke-width:1.5;" x1="295.1453" x2="362.1453" y1="894.9375" y2="894.9375"/><line style="stroke:#A80036;stroke-width:1.5;" x1="295.1453" x2="362.1453" y1="902.9375" y2="902.9375"/><!--MD5=[f59d5386026bb4a52ecda18ff7a4c496]
link models.Game to models.Turn--><path codeLine="47" d="M510.6453,242.328 C510.6453,242.328 510.6453,265.702 510.6453,276.649 " fill="none" id="models.Game-models.Turn" style="stroke:#A80036;stroke-width:1.0;"/><polygon fill="#A80036" points="510.6453,289.835,514.6453,280.835,510.6453,284.835,506.6453,280.835,510.6453,289.835" style="stroke:#A80036;stroke-width:1.0;"/><line style="stroke:#A80036;stroke-width:1.0;" x1="510.6453" x2="510.6453" y1="284.835" y2="276.835"/><polygon fill="#A80036" points="510.6453,230.328,506.6453,236.328,510.6453,242.328,514.6453,236.328,510.6453,230.328" style="stroke:#A80036;stroke-width:1.0;"/><!--MD5=[d4d2321dd53b51862935e01c3c028505]
link models.Game to models.Board--><path codeLine="48" d="M665.0699,238.7815 C665.0699,238.7815 691.9493,271.794 700.6453,290 C769.8013,434.775 781.0923,512.181 700.6453,651 C683.6183,680.381 654.5843,702.026 624.8483,717.621 " fill="none" id="models.Game-models.Board" style="stroke:#A80036;stroke-width:1.0;"/><polygon fill="#A80036" points="612.9963,723.515,622.8359,723.0891,617.4733,721.2886,619.2737,715.9259,612.9963,723.515" style="stroke:#A80036;stroke-width:1.0;"/><line style="stroke:#A80036;stroke-width:1.0;" x1="617.4733" x2="624.6363" y1="721.2886" y2="717.726"/><polygon fill="#A80036" points="656.7813,230.104,658.0331,237.2056,665.0699,238.7815,663.8181,231.6799,656.7813,230.104" style="stroke:#A80036;stroke-width:1.0;"/><!--MD5=[58201eb69d9a19662cac6d4497ced9d6]
link models.Turn to models.Player--><path codeLine="49" d="M510.6453,465.112 C510.6453,465.112 510.6453,488.661 510.6453,499.625 " fill="none" id="models.Turn-models.Player" style="stroke:#A80036;stroke-width:1.0;"/><polygon fill="#A80036" points="510.6453,512.788,514.6453,503.788,510.6453,507.788,506.6453,503.788,510.6453,512.788" style="stroke:#A80036;stroke-width:1.0;"/><line style="stroke:#A80036;stroke-width:1.0;" x1="510.6453" x2="510.6453" y1="507.788" y2="499.788"/><polygon fill="#A80036" points="510.6453,453.112,506.6453,459.112,510.6453,465.112,514.6453,459.112,510.6453,453.112" style="stroke:#A80036;stroke-width:1.0;"/><!--MD5=[f99f9ed4303228355eacb5b5df8d5aff]
link models.Turn to Coordinate--><path codeLine="50" d="M650.3193,453.174 C670.1533,470.457 688.0543,490.428 700.6453,513 C762.7733,624.377 747.3873,784.593 737.1913,851.6368 " fill="none" id="models.Turn-to-Coordinate" style="stroke:#A80036;stroke-width:1.0;stroke-dasharray:7.0,7.0;"/><polygon fill="#A80036" points="736.4063,856.6845,741.7417,848.406,737.1746,851.7439,733.8367,847.1767,736.4063,856.6845" style="stroke:#A80036;stroke-width:1.0;"/><!--MD5=[de68206cbfcbe696a26d5d43808ccb78]
link models.Player to Coordinate--><path codeLine="51" d="M578.9443,651.059 C596.3213,669.791 614.3813,690.589 629.6453,711 C664.4683,757.563 697.3833,816.8181 715.9833,852.2289 " fill="none" id="models.Player-to-Coordinate" style="stroke:#A80036;stroke-width:1.0;stroke-dasharray:7.0,7.0;"/><polygon fill="#A80036" points="718.4013,856.8511,717.7752,847.0222,716.0842,852.4204,710.686,850.7295,718.4013,856.8511" style="stroke:#A80036;stroke-width:1.0;"/><!--MD5=[bdba57f5dc648df4d8ec19013df38583]
link models.Player to models.Board--><path codeLine="52" d="M515.4573,651.166 C516.7453,669.416 518.1093,688.744 519.2993,705.601 " fill="none" id="models.Player-to-models.Board" style="stroke:#A80036;stroke-width:1.0;"/><polygon fill="#A80036" points="519.6633,710.749,523.0181,701.4891,519.3104,705.7615,515.0381,702.0538,519.6633,710.749" style="stroke:#A80036;stroke-width:1.0;"/><!--MD5=[d46ff6a411a8b315bd0d096155cc0bd3]
link models.Board to Color--><path codeLine="53" d="M448.8366,803.6969 C448.8366,803.6969 396.2413,838.4006 374.3213,852.8635 " fill="none" id="models.Board-Color" style="stroke:#A80036;stroke-width:1.0;"/><polygon fill="#A80036" points="363.3423,860.1069,373.0573,858.4887,367.5156,857.3531,368.6512,851.8114,363.3423,860.1069" style="stroke:#A80036;stroke-width:1.0;"/><line style="stroke:#A80036;stroke-width:1.0;" x1="367.5156" x2="374.1933" y1="857.3531" y2="852.9475"/><polygon fill="#A80036" points="458.8533,797.089,451.6423,797.0541,448.8366,803.6969,456.0476,803.7319,458.8533,797.089" style="stroke:#A80036;stroke-width:1.0;"/><!--MD5=[dbb27825254d1911bcb4dab9f16cad1d]
link models.Turn to Color--><path codeLine="54" d="M367.6743,453.032 C348.3083,470.241 331.1653,490.225 319.6453,513 C262.2663,626.44 298.9513,785.53 318.5803,851.9562 " fill="none" id="models.Turn-to-Color" style="stroke:#A80036;stroke-width:1.0;stroke-dasharray:7.0,7.0;"/><polygon fill="#A80036" points="320.0773,856.9566,321.3273,847.1874,318.6429,852.1668,313.6635,849.4824,320.0773,856.9566" style="stroke:#A80036;stroke-width:1.0;"/><!--MD5=[4279ee0543d366a8b5b06b8bda3ae05d]
link models.Game to Color--><path codeLine="55" d="M337.5923,189.862 C288.5063,213.115 239.7423,245.532 207.6453,290 C68.5531,482.7 6,627.978 144.6453,821 C177.3373,866.5144 245.1633,879.0615 288.7053,882.2648 " fill="none" id="models.Game-to-Color" style="stroke:#A80036;stroke-width:1.0;stroke-dasharray:7.0,7.0;"/><polygon fill="#A80036" points="293.8913,882.6107,285.1775,878.0204,288.9024,882.2778,284.645,886.0027,293.8913,882.6107" style="stroke:#A80036;stroke-width:1.0;"/><!--MD5=[2b2ef141030e7d66b9eccb4f76abded3]
link models.Board to Coordinate--><path codeLine="56" d="M591.3693,797.089 C621.9743,815.833 657.2353,837.4283 684.7483,854.2785 " fill="none" id="models.Board-to-Coordinate" style="stroke:#A80036;stroke-width:1.0;stroke-dasharray:7.0,7.0;"/><polygon fill="#A80036" points="689.0953,856.9409,683.5095,848.8292,684.8314,854.3295,679.3312,855.6514,689.0953,856.9409" style="stroke:#A80036;stroke-width:1.0;"/><!--MD5=[efca091aa3778ee1ef27b953f47b9b03]
link models.Player to Color--><path codeLine="57" d="M455.9833,651.152 C441.8123,670.057 427.0583,690.915 414.6453,711 C385.3333,758.428 357.6663,817.1732 341.9723,852.2865 " fill="none" id="models.Player-to-Color" style="stroke:#A80036;stroke-width:1.0;"/><polygon fill="#A80036" points="339.9313,856.87,347.2455,850.2744,341.9646,852.3021,339.9369,847.0211,339.9313,856.87" style="stroke:#A80036;stroke-width:1.0;"/><!--MD5=[d6271f25edce2d461672a5467d46fb87]
link models.Player to Error--><path codeLine="58" d="M384.7383,651.166 C331.4533,680.015 273.1903,711.558 235.8473,731.776 " fill="none" id="models.Player-to-Error" style="stroke:#A80036;stroke-width:1.0;stroke-dasharray:7.0,7.0;"/><polygon fill="#A80036" points="231.3993,734.184,241.2181,733.4152,235.7959,731.8029,237.4083,726.3807,231.3993,734.184" style="stroke:#A80036;stroke-width:1.0;"/><!--MD5=[28842877639b88ce24a6101da8a3e24d]
link models.Turn to Error--><path codeLine="59" d="M337.5093,444.09 C307.8103,462.826 279.7673,485.643 258.6453,513 C210.3053,575.609 199.4193,672.033 197.1233,721.44 " fill="none" id="models.Turn-to-Error" style="stroke:#A80036;stroke-width:1.0;stroke-dasharray:7.0,7.0;"/><polygon fill="#A80036" points="196.9053,726.65,201.2772,717.8247,197.1139,721.6544,193.2842,717.491,196.9053,726.65" style="stroke:#A80036;stroke-width:1.0;"/><!--MD5=[dfbaa461adf1b4a9fe19c73759f2f2cc]
link models.Game to Error--><path codeLine="60" d="M379.4863,230.364 C358.1283,248.784 337.2633,268.964 319.6453,290 C247.1063,376.61 225.8563,403.605 197.6453,513 C178.8603,585.843 186.0743,675.31 191.9583,721.724 " fill="none" id="models.Game-to-Error" style="stroke:#A80036;stroke-width:1.0;stroke-dasharray:7.0,7.0;"/><polygon fill="#A80036" points="192.6313,726.895,195.4383,717.4546,191.987,721.9367,187.505,718.4854,192.6313,726.895" style="stroke:#A80036;stroke-width:1.0;"/><!--MD5=[b3c2ab36e5e380184f9e763cf95715aa]
link models.Game to Coordinate--><path codeLine="61" d="M683.8863,227.841 C705.0153,245.775 723.9423,266.462 737.6453,290 C832.0753,452.199 763.3063,523.458 770.6453,711 C772.5573,759.851 784.1913,774.025 770.6453,821 C767.4673,832.0195 761.6883,842.9698 755.5353,852.5318 " fill="none" id="models.Game-to-Coordinate" style="stroke:#A80036;stroke-width:1.0;stroke-dasharray:7.0,7.0;"/><polygon fill="#A80036" points="752.6903,856.8228,760.9986,851.534,755.4542,852.6562,754.332,847.1117,752.6903,856.8228" style="stroke:#A80036;stroke-width:1.0;"/><!--MD5=[aa9686767415d7b5c5694e32106d2f76]
@startuml
class Coordinate as "types.\nCoordinate"
enum Error as "types.\nError"
enum Color as "types.\nColor"

class  models.Board{
    ~reset()
    ~isTicTacToe(): boolean
    ~getColor(Coordinate): Color
}

class  models.Game{
    +reset()
    +areAllTokensOnBoard(): boolean
    +putToken(Coordinate)
    +getPutTokenError(Coordinate): Error
    +moveToken(Coordinate, Coordinate)
    +getOriginMoveTokenError(Coordinate): Error
    +getTargetMoveTokenError(Coordinate, Coordinate): Error
    +next()
    +getActiveColor(): Color
    +isTicTacToe(): boolean
    +getColor(Coordinate): Color
}

class  models.Player{
    ~getColor(): Color
    ~areAllTokensOnBoard(): boolean
    ~putToken(Coordinate)
    ~getPutTokenError(Coordinate): Error
    ~moveToken(Coordinate, Coordinate)
    ~getOriginMoveTokenError(Coordinate): Error
    ~getTargetMoveTokenError(Coordinate, Coordinate): Error
}

class  models.Turn{
    ~reset()
    ~next()
    ~getActiveColor(): Color
    ~areAllTokensOnBoard(): boolean
    ~putToken(Coordinate)
    ~getPutTokenError(Coordinate): Error
    ~moveToken(Coordinate, Coordinate)
    ~getOriginMoveTokenError(Coordinate): Error
    ~getTargetMoveTokenError(Coordinate, Coordinate): Error
}

models.Game *-down-> models.Turn
models.Game *-down-> models.Board
models.Turn *-down-> models.Player
models.Turn ..> Coordinate
models.Player ..> Coordinate
models.Player - -> models.Board
models.Board *-down-> Color
models.Turn ..> Color
models.Game ..> Color
models.Board ..> Coordinate
models.Player - -> Color
models.Player ..> Error
models.Turn ..> Error
models.Game ..> Error
models.Game ..> Coordinate
@enduml

PlantUML version 1.2021.4beta1(Unknown compile time)
(GPL source distribution)
Java Runtime: Java(TM) SE Runtime Environment
JVM: Java HotSpot(TM) 64-Bit Server VM
Default Encoding: UTF-8
Language: en
Country: US
--></g></svg>