<?xml version="1.0" encoding="UTF-8" standalone="no"?><svg xmlns="http://www.w3.org/2000/svg" xmlns:xlink="http://www.w3.org/1999/xlink" contentScriptType="application/ecmascript" contentStyleType="text/css" height="745px" preserveAspectRatio="none" style="width:1254px;height:745px;" version="1.1" viewBox="0 0 1254 745" width="1254px" zoomAndPan="magnify"><defs><filter height="300%" id="f14bjlhrj8buid" width="300%" x="-1" y="-1"><feGaussianBlur result="blurOut" stdDeviation="2.0"/><feColorMatrix in="blurOut" result="blurOut2" type="matrix" values="0 0 0 0 0 0 0 0 0 0 0 0 0 0 0 0 0 0 .4 0"/><feOffset dx="4.0" dy="4.0" in="blurOut2" result="blurOut3"/><feBlend in="SourceGraphic" in2="blurOut3" mode="normal"/></filter></defs><g><!--MD5=[e2a75efa8a0f57c2afae8bf75386f79c]
cluster views--><polygon fill="#FFFFFF" filter="url(#f14bjlhrj8buid)" points="350.5,6,401.5,6,408.5,28.2969,1028.5,28.2969,1028.5,634,350.5,634,350.5,6" style="stroke:#000000;stroke-width:1.5;"/><line style="stroke:#000000;stroke-width:1.5;" x1="350.5" x2="408.5" y1="28.2969" y2="28.2969"/><text fill="#000000" font-family="sans-serif" font-size="14" font-weight="bold" lengthAdjust="spacing" textLength="45" x="354.5" y="20.9951">views</text><!--MD5=[5563f2eac69cd97c311bb50067a34021]
class views.BoardView--><rect codeLine="8" fill="#FEFECE" filter="url(#f14bjlhrj8buid)" height="60.8047" id="views.BoardView" style="stroke:#A80036;stroke-width:1.5;" width="144" x="672.5" y="270"/><ellipse cx="708.65" cy="286" fill="#ADD1B2" rx="11" ry="11" style="stroke:#A80036;stroke-width:1.0;"/><path d="M710.9938,281.6719 C710.0563,281.2344 709.4625,281.0938 708.5875,281.0938 C705.9625,281.0938 703.9625,283.1719 703.9625,285.8906 L703.9625,287.0156 C703.9625,289.5938 706.0719,291.4844 708.9625,291.4844 C710.1813,291.4844 711.3375,291.1875 712.0875,290.6406 C712.6656,290.2344 712.9938,289.7813 712.9938,289.3906 C712.9938,288.9375 712.6031,288.5469 712.1344,288.5469 C711.9156,288.5469 711.7125,288.625 711.525,288.8125 C711.0719,289.2969 711.0719,289.2969 710.8844,289.3906 C710.4625,289.6563 709.775,289.7813 709.0094,289.7813 C706.9625,289.7813 705.6656,288.6875 705.6656,286.9844 L705.6656,285.8906 C705.6656,284.1094 706.9156,282.7969 708.65,282.7969 C709.2281,282.7969 709.8375,282.9531 710.3063,283.2031 C710.7906,283.4844 710.9625,283.7031 711.0563,284.1094 C711.1188,284.5156 711.15,284.6406 711.2906,284.7656 C711.4313,284.9063 711.6656,285.0156 711.8844,285.0156 C712.15,285.0156 712.4156,284.875 712.5875,284.6563 C712.6969,284.5 712.7281,284.3125 712.7281,283.8906 L712.7281,282.4688 C712.7281,282.0313 712.7125,281.9063 712.6188,281.75 C712.4625,281.4844 712.1813,281.3438 711.8844,281.3438 C711.5875,281.3438 711.3844,281.4375 711.1656,281.75 L710.9938,281.6719 Z " fill="#000000"/><text fill="#000000" font-family="sans-serif" font-size="12" lengthAdjust="spacing" textLength="65" x="727.35" y="290.1543">BoardView</text><line style="stroke:#A80036;stroke-width:1.5;" x1="673.5" x2="815.5" y1="302" y2="302"/><line style="stroke:#A80036;stroke-width:1.5;" x1="673.5" x2="815.5" y1="310" y2="310"/><polygon fill="#4177AF" points="683.5,317,679.5,323,687.5,323" style="stroke:#1963A0;stroke-width:1.0;"/><text fill="#000000" font-family="sans-serif" font-size="11" lengthAdjust="spacing" textLength="118" x="692.5" y="324.2104">write(StartController)</text><!--MD5=[52a75152711b30ce05e31727f0039306]
class views.ErrorView--><rect codeLine="12" fill="#FEFECE" filter="url(#f14bjlhrj8buid)" height="60.8047" id="views.ErrorView" style="stroke:#A80036;stroke-width:1.5;" width="98" x="914.5" y="474"/><ellipse cx="932.65" cy="490" fill="#ADD1B2" rx="11" ry="11" style="stroke:#A80036;stroke-width:1.0;"/><path d="M934.9938,485.6719 C934.0563,485.2344 933.4625,485.0938 932.5875,485.0938 C929.9625,485.0938 927.9625,487.1719 927.9625,489.8906 L927.9625,491.0156 C927.9625,493.5938 930.0719,495.4844 932.9625,495.4844 C934.1813,495.4844 935.3375,495.1875 936.0875,494.6406 C936.6656,494.2344 936.9938,493.7813 936.9938,493.3906 C936.9938,492.9375 936.6031,492.5469 936.1344,492.5469 C935.9156,492.5469 935.7125,492.625 935.525,492.8125 C935.0719,493.2969 935.0719,493.2969 934.8844,493.3906 C934.4625,493.6563 933.775,493.7813 933.0094,493.7813 C930.9625,493.7813 929.6656,492.6875 929.6656,490.9844 L929.6656,489.8906 C929.6656,488.1094 930.9156,486.7969 932.65,486.7969 C933.2281,486.7969 933.8375,486.9531 934.3063,487.2031 C934.7906,487.4844 934.9625,487.7031 935.0563,488.1094 C935.1188,488.5156 935.15,488.6406 935.2906,488.7656 C935.4313,488.9063 935.6656,489.0156 935.8844,489.0156 C936.15,489.0156 936.4156,488.875 936.5875,488.6563 C936.6969,488.5 936.7281,488.3125 936.7281,487.8906 L936.7281,486.4688 C936.7281,486.0313 936.7125,485.9063 936.6188,485.75 C936.4625,485.4844 936.1813,485.3438 935.8844,485.3438 C935.5875,485.3438 935.3844,485.4375 935.1656,485.75 L934.9938,485.6719 Z " fill="#000000"/><text fill="#000000" font-family="sans-serif" font-size="12" lengthAdjust="spacing" textLength="59" x="947.35" y="494.1543">ErrorView</text><line style="stroke:#A80036;stroke-width:1.5;" x1="915.5" x2="1011.5" y1="506" y2="506"/><line style="stroke:#A80036;stroke-width:1.5;" x1="915.5" x2="1011.5" y1="514" y2="514"/><polygon fill="#4177AF" points="925.5,521,921.5,527,929.5,527" style="stroke:#1963A0;stroke-width:1.0;"/><text fill="#000000" font-family="sans-serif" font-size="11" lengthAdjust="spacing" textLength="72" x="934.5" y="528.2104">writeln(Error)</text><!--MD5=[15992c3de3db46d2901aebcad9c61d0d]
class views.PlayView--><rect codeLine="16" fill="#FEFECE" filter="url(#f14bjlhrj8buid)" height="60.8047" id="views.PlayView" style="stroke:#A80036;stroke-width:1.5;" width="136" x="817.5" y="149"/><ellipse cx="855.9" cy="165" fill="#ADD1B2" rx="11" ry="11" style="stroke:#A80036;stroke-width:1.0;"/><path d="M858.2438,160.6719 C857.3063,160.2344 856.7125,160.0938 855.8375,160.0938 C853.2125,160.0938 851.2125,162.1719 851.2125,164.8906 L851.2125,166.0156 C851.2125,168.5938 853.3219,170.4844 856.2125,170.4844 C857.4313,170.4844 858.5875,170.1875 859.3375,169.6406 C859.9156,169.2344 860.2438,168.7813 860.2438,168.3906 C860.2438,167.9375 859.8531,167.5469 859.3844,167.5469 C859.1656,167.5469 858.9625,167.625 858.775,167.8125 C858.3219,168.2969 858.3219,168.2969 858.1344,168.3906 C857.7125,168.6563 857.025,168.7813 856.2594,168.7813 C854.2125,168.7813 852.9156,167.6875 852.9156,165.9844 L852.9156,164.8906 C852.9156,163.1094 854.1656,161.7969 855.9,161.7969 C856.4781,161.7969 857.0875,161.9531 857.5563,162.2031 C858.0406,162.4844 858.2125,162.7031 858.3063,163.1094 C858.3688,163.5156 858.4,163.6406 858.5406,163.7656 C858.6813,163.9063 858.9156,164.0156 859.1344,164.0156 C859.4,164.0156 859.6656,163.875 859.8375,163.6563 C859.9469,163.5 859.9781,163.3125 859.9781,162.8906 L859.9781,161.4688 C859.9781,161.0313 859.9625,160.9063 859.8688,160.75 C859.7125,160.4844 859.4313,160.3438 859.1344,160.3438 C858.8375,160.3438 858.6344,160.4375 858.4156,160.75 L858.2438,160.6719 Z " fill="#000000"/><text fill="#000000" font-family="sans-serif" font-size="12" lengthAdjust="spacing" textLength="52" x="875.1" y="169.1543">PlayView</text><line style="stroke:#A80036;stroke-width:1.5;" x1="818.5" x2="952.5" y1="181" y2="181"/><line style="stroke:#A80036;stroke-width:1.5;" x1="818.5" x2="952.5" y1="189" y2="189"/><polygon fill="#4177AF" points="828.5,196,824.5,202,832.5,202" style="stroke:#1963A0;stroke-width:1.0;"/><text fill="#000000" font-family="sans-serif" font-size="11" lengthAdjust="spacing" textLength="110" x="837.5" y="203.2104">play(PlayController)</text><!--MD5=[efe083823ff420907f2c8e105cba547e]
class views.ResumeView--><rect codeLine="20" fill="#FEFECE" filter="url(#f14bjlhrj8buid)" height="60.8047" id="views.ResumeView" style="stroke:#A80036;stroke-width:1.5;" width="233" x="367" y="270"/><ellipse cx="440.75" cy="286" fill="#ADD1B2" rx="11" ry="11" style="stroke:#A80036;stroke-width:1.0;"/><path d="M443.0938,281.6719 C442.1563,281.2344 441.5625,281.0938 440.6875,281.0938 C438.0625,281.0938 436.0625,283.1719 436.0625,285.8906 L436.0625,287.0156 C436.0625,289.5938 438.1719,291.4844 441.0625,291.4844 C442.2813,291.4844 443.4375,291.1875 444.1875,290.6406 C444.7656,290.2344 445.0938,289.7813 445.0938,289.3906 C445.0938,288.9375 444.7031,288.5469 444.2344,288.5469 C444.0156,288.5469 443.8125,288.625 443.625,288.8125 C443.1719,289.2969 443.1719,289.2969 442.9844,289.3906 C442.5625,289.6563 441.875,289.7813 441.1094,289.7813 C439.0625,289.7813 437.7656,288.6875 437.7656,286.9844 L437.7656,285.8906 C437.7656,284.1094 439.0156,282.7969 440.75,282.7969 C441.3281,282.7969 441.9375,282.9531 442.4063,283.2031 C442.8906,283.4844 443.0625,283.7031 443.1563,284.1094 C443.2188,284.5156 443.25,284.6406 443.3906,284.7656 C443.5313,284.9063 443.7656,285.0156 443.9844,285.0156 C444.25,285.0156 444.5156,284.875 444.6875,284.6563 C444.7969,284.5 444.8281,284.3125 444.8281,283.8906 L444.8281,282.4688 C444.8281,282.0313 444.8125,281.9063 444.7188,281.75 C444.5625,281.4844 444.2813,281.3438 443.9844,281.3438 C443.6875,281.3438 443.4844,281.4375 443.2656,281.75 L443.0938,281.6719 Z " fill="#000000"/><text fill="#000000" font-family="sans-serif" font-size="12" lengthAdjust="spacing" textLength="77" x="461.25" y="290.1543">ResumeView</text><line style="stroke:#A80036;stroke-width:1.5;" x1="368" x2="599" y1="302" y2="302"/><line style="stroke:#A80036;stroke-width:1.5;" x1="368" x2="599" y1="310" y2="310"/><polygon fill="#4177AF" points="378,317,374,323,382,323" style="stroke:#1963A0;stroke-width:1.0;"/><text fill="#000000" font-family="sans-serif" font-size="11" lengthAdjust="spacing" textLength="207" x="387" y="324.2104">resume(ResumeController): boolean</text><!--MD5=[eba1bc73714f08f0da8dc05a139be9c1]
class views.StartView--><rect codeLine="24" fill="#FEFECE" filter="url(#f14bjlhrj8buid)" height="60.8047" id="views.StartView" style="stroke:#A80036;stroke-width:1.5;" width="141" x="641" y="149"/><ellipse cx="679.4" cy="165" fill="#ADD1B2" rx="11" ry="11" style="stroke:#A80036;stroke-width:1.0;"/><path d="M681.7438,160.6719 C680.8063,160.2344 680.2125,160.0938 679.3375,160.0938 C676.7125,160.0938 674.7125,162.1719 674.7125,164.8906 L674.7125,166.0156 C674.7125,168.5938 676.8219,170.4844 679.7125,170.4844 C680.9313,170.4844 682.0875,170.1875 682.8375,169.6406 C683.4156,169.2344 683.7438,168.7813 683.7438,168.3906 C683.7438,167.9375 683.3531,167.5469 682.8844,167.5469 C682.6656,167.5469 682.4625,167.625 682.275,167.8125 C681.8219,168.2969 681.8219,168.2969 681.6344,168.3906 C681.2125,168.6563 680.525,168.7813 679.7594,168.7813 C677.7125,168.7813 676.4156,167.6875 676.4156,165.9844 L676.4156,164.8906 C676.4156,163.1094 677.6656,161.7969 679.4,161.7969 C679.9781,161.7969 680.5875,161.9531 681.0563,162.2031 C681.5406,162.4844 681.7125,162.7031 681.8063,163.1094 C681.8688,163.5156 681.9,163.6406 682.0406,163.7656 C682.1813,163.9063 682.4156,164.0156 682.6344,164.0156 C682.9,164.0156 683.1656,163.875 683.3375,163.6563 C683.4469,163.5 683.4781,163.3125 683.4781,162.8906 L683.4781,161.4688 C683.4781,161.0313 683.4625,160.9063 683.3688,160.75 C683.2125,160.4844 682.9313,160.3438 682.6344,160.3438 C682.3375,160.3438 682.1344,160.4375 681.9156,160.75 L681.7438,160.6719 Z " fill="#000000"/><text fill="#000000" font-family="sans-serif" font-size="12" lengthAdjust="spacing" textLength="57" x="698.6" y="169.1543">StartView</text><line style="stroke:#A80036;stroke-width:1.5;" x1="642" x2="781" y1="181" y2="181"/><line style="stroke:#A80036;stroke-width:1.5;" x1="642" x2="781" y1="189" y2="189"/><polygon fill="#4177AF" points="652,196,648,202,656,202" style="stroke:#1963A0;stroke-width:1.0;"/><text fill="#000000" font-family="sans-serif" font-size="11" lengthAdjust="spacing" textLength="115" x="661" y="203.2104">start(StartController)</text><!--MD5=[625ef0ab1f49174a2477f77f78895d5e]
class views.MovementView--><rect codeLine="28" fill="#FEFECE" filter="url(#f14bjlhrj8buid)" height="60.8047" id="views.MovementView" style="stroke:#A80036;stroke-width:1.5;" width="124" x="888.5" y="270"/><ellipse cx="903.5" cy="286" fill="#ADD1B2" rx="11" ry="11" style="stroke:#A80036;stroke-width:1.0;"/><path d="M905.8438,281.6719 C904.9063,281.2344 904.3125,281.0938 903.4375,281.0938 C900.8125,281.0938 898.8125,283.1719 898.8125,285.8906 L898.8125,287.0156 C898.8125,289.5938 900.9219,291.4844 903.8125,291.4844 C905.0313,291.4844 906.1875,291.1875 906.9375,290.6406 C907.5156,290.2344 907.8438,289.7813 907.8438,289.3906 C907.8438,288.9375 907.4531,288.5469 906.9844,288.5469 C906.7656,288.5469 906.5625,288.625 906.375,288.8125 C905.9219,289.2969 905.9219,289.2969 905.7344,289.3906 C905.3125,289.6563 904.625,289.7813 903.8594,289.7813 C901.8125,289.7813 900.5156,288.6875 900.5156,286.9844 L900.5156,285.8906 C900.5156,284.1094 901.7656,282.7969 903.5,282.7969 C904.0781,282.7969 904.6875,282.9531 905.1563,283.2031 C905.6406,283.4844 905.8125,283.7031 905.9063,284.1094 C905.9688,284.5156 906,284.6406 906.1406,284.7656 C906.2813,284.9063 906.5156,285.0156 906.7344,285.0156 C907,285.0156 907.2656,284.875 907.4375,284.6563 C907.5469,284.5 907.5781,284.3125 907.5781,283.8906 L907.5781,282.4688 C907.5781,282.0313 907.5625,281.9063 907.4688,281.75 C907.3125,281.4844 907.0313,281.3438 906.7344,281.3438 C906.4375,281.3438 906.2344,281.4375 906.0156,281.75 L905.8438,281.6719 Z " fill="#000000"/><text fill="#000000" font-family="sans-serif" font-size="12" lengthAdjust="spacing" textLength="92" x="917.5" y="290.1543">MovementView</text><line style="stroke:#A80036;stroke-width:1.5;" x1="889.5" x2="1011.5" y1="302" y2="302"/><line style="stroke:#A80036;stroke-width:1.5;" x1="889.5" x2="1011.5" y1="310" y2="310"/><polygon fill="#4177AF" points="899.5,317,895.5,323,903.5,323" style="stroke:#1963A0;stroke-width:1.0;"/><text fill="#000000" font-family="sans-serif" font-size="11" lengthAdjust="spacing" textLength="51" x="908.5" y="324.2104">interact()</text><!--MD5=[17c5bd0e327a2997366869d748d685d5]
class views.ColorView--><rect codeLine="32" fill="#FEFECE" filter="url(#f14bjlhrj8buid)" height="60.8047" id="views.ColorView" style="stroke:#A80036;stroke-width:1.5;" width="93" x="622" y="474"/><ellipse cx="637" cy="490" fill="#ADD1B2" rx="11" ry="11" style="stroke:#A80036;stroke-width:1.0;"/><path d="M639.3438,485.6719 C638.4063,485.2344 637.8125,485.0938 636.9375,485.0938 C634.3125,485.0938 632.3125,487.1719 632.3125,489.8906 L632.3125,491.0156 C632.3125,493.5938 634.4219,495.4844 637.3125,495.4844 C638.5313,495.4844 639.6875,495.1875 640.4375,494.6406 C641.0156,494.2344 641.3438,493.7813 641.3438,493.3906 C641.3438,492.9375 640.9531,492.5469 640.4844,492.5469 C640.2656,492.5469 640.0625,492.625 639.875,492.8125 C639.4219,493.2969 639.4219,493.2969 639.2344,493.3906 C638.8125,493.6563 638.125,493.7813 637.3594,493.7813 C635.3125,493.7813 634.0156,492.6875 634.0156,490.9844 L634.0156,489.8906 C634.0156,488.1094 635.2656,486.7969 637,486.7969 C637.5781,486.7969 638.1875,486.9531 638.6563,487.2031 C639.1406,487.4844 639.3125,487.7031 639.4063,488.1094 C639.4688,488.5156 639.5,488.6406 639.6406,488.7656 C639.7813,488.9063 640.0156,489.0156 640.2344,489.0156 C640.5,489.0156 640.7656,488.875 640.9375,488.6563 C641.0469,488.5 641.0781,488.3125 641.0781,487.8906 L641.0781,486.4688 C641.0781,486.0313 641.0625,485.9063 640.9688,485.75 C640.8125,485.4844 640.5313,485.3438 640.2344,485.3438 C639.9375,485.3438 639.7344,485.4375 639.5156,485.75 L639.3438,485.6719 Z " fill="#000000"/><text fill="#000000" font-family="sans-serif" font-size="12" lengthAdjust="spacing" textLength="61" x="651" y="494.1543">ColorView</text><line style="stroke:#A80036;stroke-width:1.5;" x1="623" x2="714" y1="506" y2="506"/><line style="stroke:#A80036;stroke-width:1.5;" x1="623" x2="714" y1="514" y2="514"/><polygon fill="#4177AF" points="633,521,629,527,637,527" style="stroke:#1963A0;stroke-width:1.0;"/><text fill="#000000" font-family="sans-serif" font-size="11" lengthAdjust="spacing" textLength="65" x="642" y="528.2104">write(Color)</text><!--MD5=[692bbdbc7ace692555185cdf9d0c2e06]
class views.Message--><rect codeLine="36" fill="#FEFECE" filter="url(#f14bjlhrj8buid)" height="227.2656" id="views.Message" style="stroke:#A80036;stroke-width:1.5;" width="192" x="394.5" y="391"/><ellipse cx="458.75" cy="407" fill="#EB937F" rx="11" ry="11" style="stroke:#A80036;stroke-width:1.0;"/><path d="M457.5469,407.875 L459,407.875 L459,407.9844 C459,408.3906 459.0313,408.5469 459.1094,408.7031 C459.2656,408.9531 459.5469,409.1094 459.8438,409.1094 C460.0938,409.1094 460.3594,408.9688 460.5156,408.75 C460.6406,408.5938 460.6719,408.4375 460.6719,407.9844 L460.6719,406.0625 C460.6719,405.9063 460.6719,405.8594 460.6563,405.7031 C460.5938,405.2344 460.2813,404.9219 459.8281,404.9219 C459.5781,404.9219 459.3125,405.0625 459.1406,405.2813 C459.0313,405.4531 459,405.6094 459,406.0625 L459,406.1875 L457.5469,406.1875 L457.5469,403.7813 L461.5313,403.7813 L461.5313,404.6406 C461.5313,405.0469 461.5625,405.2188 461.6406,405.375 C461.8125,405.625 462.0938,405.7813 462.375,405.7813 C462.6406,405.7813 462.9063,405.6406 463.0781,405.4219 C463.1875,405.25 463.2188,405.1094 463.2188,404.6406 L463.2188,402.0938 L455.5938,402.0938 C455.1563,402.0938 455.0313,402.1094 454.875,402.2031 C454.625,402.3594 454.4688,402.6563 454.4688,402.9375 C454.4688,403.2188 454.6094,403.4688 454.8281,403.6406 C454.9844,403.75 455.1719,403.7813 455.5938,403.7813 L455.8438,403.7813 L455.8438,410.2969 L455.5938,410.2969 C455.1875,410.2969 455.0313,410.3125 454.875,410.4219 C454.625,410.5938 454.4688,410.8594 454.4688,411.1563 C454.4688,411.4219 454.6094,411.6719 454.8281,411.8281 C454.9688,411.9531 455.2031,412 455.5938,412 L463.5938,412 L463.5938,409.4219 C463.5938,408.9844 463.5625,408.8438 463.4844,408.6875 C463.3125,408.4375 463.0313,408.2813 462.75,408.2813 C462.4844,408.2813 462.2188,408.3906 462.0469,408.6406 C461.9375,408.7969 461.9063,408.9375 461.9063,409.4219 L461.9063,410.2969 L457.5469,410.2969 L457.5469,407.875 Z " fill="#000000"/><text fill="#000000" font-family="sans-serif" font-size="12" lengthAdjust="spacing" textLength="55" x="479.25" y="411.1543">Message</text><line style="stroke:#A80036;stroke-width:1.5;" x1="395.5" x2="585.5" y1="423" y2="423"/><ellipse cx="405.5" cy="434" rx="3" ry="3" style="stroke:#038048;stroke-width:1.0;fill:none;"/><text fill="#000000" font-family="sans-serif" font-size="11" lengthAdjust="spacing" textLength="30" x="414.5" y="437.2104">TITLE</text><ellipse cx="405.5" cy="446.8047" rx="3" ry="3" style="stroke:#038048;stroke-width:1.0;fill:none;"/><text fill="#000000" font-family="sans-serif" font-size="11" lengthAdjust="spacing" textLength="103" x="414.5" y="450.0151">HORIZONTAL_LINE</text><ellipse cx="405.5" cy="459.6094" rx="3" ry="3" style="stroke:#038048;stroke-width:1.0;fill:none;"/><text fill="#000000" font-family="sans-serif" font-size="11" lengthAdjust="spacing" textLength="84" x="414.5" y="462.8198">VERTICAL_LINE</text><ellipse cx="405.5" cy="472.4141" rx="3" ry="3" style="stroke:#038048;stroke-width:1.0;fill:none;"/><text fill="#000000" font-family="sans-serif" font-size="11" lengthAdjust="spacing" textLength="109" x="414.5" y="475.6245">ACTION_COMMAND</text><ellipse cx="405.5" cy="485.2188" rx="3" ry="3" style="stroke:#038048;stroke-width:1.0;fill:none;"/><text fill="#000000" font-family="sans-serif" font-size="11" lengthAdjust="spacing" textLength="100" x="414.5" y="488.4292">UNDO_COMMAND</text><ellipse cx="405.5" cy="498.0234" rx="3" ry="3" style="stroke:#038048;stroke-width:1.0;fill:none;"/><text fill="#000000" font-family="sans-serif" font-size="11" lengthAdjust="spacing" textLength="98" x="414.5" y="501.2339">REDO_COMMAND</text><ellipse cx="405.5" cy="510.8281" rx="3" ry="3" style="stroke:#038048;stroke-width:1.0;fill:none;"/><text fill="#000000" font-family="sans-serif" font-size="11" lengthAdjust="spacing" textLength="166" x="414.5" y="514.0386">ENTER_COORDINATE_TO_PUT</text><ellipse cx="405.5" cy="523.6328" rx="3" ry="3" style="stroke:#038048;stroke-width:1.0;fill:none;"/><text fill="#000000" font-family="sans-serif" font-size="11" lengthAdjust="spacing" textLength="124" x="414.5" y="526.8433">COORDINATE_TO_PUT</text><ellipse cx="405.5" cy="536.4375" rx="3" ry="3" style="stroke:#038048;stroke-width:1.0;fill:none;"/><text fill="#000000" font-family="sans-serif" font-size="11" lengthAdjust="spacing" textLength="150" x="414.5" y="539.6479">COORDINATE_TO_REMOVE</text><ellipse cx="405.5" cy="549.2422" rx="3" ry="3" style="stroke:#038048;stroke-width:1.0;fill:none;"/><text fill="#000000" font-family="sans-serif" font-size="11" lengthAdjust="spacing" textLength="136" x="414.5" y="552.4526">COORDINATE_TO_MOVE</text><ellipse cx="405.5" cy="562.0469" rx="3" ry="3" style="stroke:#038048;stroke-width:1.0;fill:none;"/><text fill="#000000" font-family="sans-serif" font-size="11" lengthAdjust="spacing" textLength="69" x="414.5" y="565.2573">PLAYER_WIN</text><ellipse cx="405.5" cy="574.8516" rx="3" ry="3" style="stroke:#038048;stroke-width:1.0;fill:none;"/><text fill="#000000" font-family="sans-serif" font-size="11" lengthAdjust="spacing" textLength="46" x="414.5" y="578.062">RESUME</text><line style="stroke:#A80036;stroke-width:1.5;" x1="395.5" x2="585.5" y1="584.6563" y2="584.6563"/><polygon fill="#4177AF" points="405.5,591.6563,401.5,597.6563,409.5,597.6563" style="stroke:#1963A0;stroke-width:1.0;"/><text fill="#000000" font-family="sans-serif" font-size="11" lengthAdjust="spacing" textLength="46" x="414.5" y="598.8667">writeln()</text><polygon fill="#4177AF" points="405.5,604.4609,401.5,610.4609,409.5,610.4609" style="stroke:#1963A0;stroke-width:1.0;"/><text fill="#000000" font-family="sans-serif" font-size="11" lengthAdjust="spacing" textLength="36" x="414.5" y="611.6714">write()</text><!--MD5=[947e6c573c2f2818382a8a631176de9a]
class views.PlayerView--><rect codeLine="53" fill="#FEFECE" filter="url(#f14bjlhrj8buid)" height="48" id="views.PlayerView" style="stroke:#A80036;stroke-width:1.5;" width="97" x="663" y="41"/><ellipse cx="678" cy="57" fill="#ADD1B2" rx="11" ry="11" style="stroke:#A80036;stroke-width:1.0;"/><path d="M680.3438,52.6719 C679.4063,52.2344 678.8125,52.0938 677.9375,52.0938 C675.3125,52.0938 673.3125,54.1719 673.3125,56.8906 L673.3125,58.0156 C673.3125,60.5938 675.4219,62.4844 678.3125,62.4844 C679.5313,62.4844 680.6875,62.1875 681.4375,61.6406 C682.0156,61.2344 682.3438,60.7813 682.3438,60.3906 C682.3438,59.9375 681.9531,59.5469 681.4844,59.5469 C681.2656,59.5469 681.0625,59.625 680.875,59.8125 C680.4219,60.2969 680.4219,60.2969 680.2344,60.3906 C679.8125,60.6563 679.125,60.7813 678.3594,60.7813 C676.3125,60.7813 675.0156,59.6875 675.0156,57.9844 L675.0156,56.8906 C675.0156,55.1094 676.2656,53.7969 678,53.7969 C678.5781,53.7969 679.1875,53.9531 679.6563,54.2031 C680.1406,54.4844 680.3125,54.7031 680.4063,55.1094 C680.4688,55.5156 680.5,55.6406 680.6406,55.7656 C680.7813,55.9063 681.0156,56.0156 681.2344,56.0156 C681.5,56.0156 681.7656,55.875 681.9375,55.6563 C682.0469,55.5 682.0781,55.3125 682.0781,54.8906 L682.0781,53.4688 C682.0781,53.0313 682.0625,52.9063 681.9688,52.75 C681.8125,52.4844 681.5313,52.3438 681.2344,52.3438 C680.9375,52.3438 680.7344,52.4375 680.5156,52.75 L680.3438,52.6719 Z " fill="#000000"/><text fill="#000000" font-family="sans-serif" font-size="12" lengthAdjust="spacing" textLength="65" x="692" y="61.1543">PlayerView</text><line style="stroke:#A80036;stroke-width:1.5;" x1="664" x2="759" y1="73" y2="73"/><line style="stroke:#A80036;stroke-width:1.5;" x1="664" x2="759" y1="81" y2="81"/><!--MD5=[086790dd88b6dc20f42fdfbd3a0210ab]
class views.CoordinateView--><rect codeLine="57" fill="#FEFECE" filter="url(#f14bjlhrj8buid)" height="60.8047" id="views.CoordinateView" style="stroke:#A80036;stroke-width:1.5;" width="129" x="750" y="474"/><ellipse cx="765.9" cy="490" fill="#ADD1B2" rx="11" ry="11" style="stroke:#A80036;stroke-width:1.0;"/><path d="M768.2438,485.6719 C767.3063,485.2344 766.7125,485.0938 765.8375,485.0938 C763.2125,485.0938 761.2125,487.1719 761.2125,489.8906 L761.2125,491.0156 C761.2125,493.5938 763.3219,495.4844 766.2125,495.4844 C767.4313,495.4844 768.5875,495.1875 769.3375,494.6406 C769.9156,494.2344 770.2438,493.7813 770.2438,493.3906 C770.2438,492.9375 769.8531,492.5469 769.3844,492.5469 C769.1656,492.5469 768.9625,492.625 768.775,492.8125 C768.3219,493.2969 768.3219,493.2969 768.1344,493.3906 C767.7125,493.6563 767.025,493.7813 766.2594,493.7813 C764.2125,493.7813 762.9156,492.6875 762.9156,490.9844 L762.9156,489.8906 C762.9156,488.1094 764.1656,486.7969 765.9,486.7969 C766.4781,486.7969 767.0875,486.9531 767.5563,487.2031 C768.0406,487.4844 768.2125,487.7031 768.3063,488.1094 C768.3688,488.5156 768.4,488.6406 768.5406,488.7656 C768.6813,488.9063 768.9156,489.0156 769.1344,489.0156 C769.4,489.0156 769.6656,488.875 769.8375,488.6563 C769.9469,488.5 769.9781,488.3125 769.9781,487.8906 L769.9781,486.4688 C769.9781,486.0313 769.9625,485.9063 769.8688,485.75 C769.7125,485.4844 769.4313,485.3438 769.1344,485.3438 C768.8375,485.3438 768.6344,485.4375 768.4156,485.75 L768.2438,485.6719 Z " fill="#000000"/><text fill="#000000" font-family="sans-serif" font-size="12" lengthAdjust="spacing" textLength="95" x="780.1" y="494.1543">CoordinateView</text><line style="stroke:#A80036;stroke-width:1.5;" x1="751" x2="878" y1="506" y2="506"/><line style="stroke:#A80036;stroke-width:1.5;" x1="751" x2="878" y1="514" y2="514"/><polygon fill="#4177AF" points="761,521,757,527,765,527" style="stroke:#1963A0;stroke-width:1.0;"/><text fill="#000000" font-family="sans-serif" font-size="11" lengthAdjust="spacing" textLength="103" x="770" y="528.2104">read(): Coordinate</text><!--MD5=[8c7d7abc12e214c3cc12c9ab70edee11]
class Coordinate--><rect codeLine="1" fill="#FEFECE" filter="url(#f14bjlhrj8buid)" height="53.9375" id="Coordinate" style="stroke:#A80036;stroke-width:1.5;" width="98" x="292.5" y="678"/><ellipse cx="307.5" cy="696.9688" fill="#ADD1B2" rx="11" ry="11" style="stroke:#A80036;stroke-width:1.0;"/><path d="M309.8438,692.6406 C308.9063,692.2031 308.3125,692.0625 307.4375,692.0625 C304.8125,692.0625 302.8125,694.1406 302.8125,696.8594 L302.8125,697.9844 C302.8125,700.5625 304.9219,702.4531 307.8125,702.4531 C309.0313,702.4531 310.1875,702.1563 310.9375,701.6094 C311.5156,701.2031 311.8438,700.75 311.8438,700.3594 C311.8438,699.9063 311.4531,699.5156 310.9844,699.5156 C310.7656,699.5156 310.5625,699.5938 310.375,699.7813 C309.9219,700.2656 309.9219,700.2656 309.7344,700.3594 C309.3125,700.625 308.625,700.75 307.8594,700.75 C305.8125,700.75 304.5156,699.6563 304.5156,697.9531 L304.5156,696.8594 C304.5156,695.0781 305.7656,693.7656 307.5,693.7656 C308.0781,693.7656 308.6875,693.9219 309.1563,694.1719 C309.6406,694.4531 309.8125,694.6719 309.9063,695.0781 C309.9688,695.4844 310,695.6094 310.1406,695.7344 C310.2813,695.875 310.5156,695.9844 310.7344,695.9844 C311,695.9844 311.2656,695.8438 311.4375,695.625 C311.5469,695.4688 311.5781,695.2813 311.5781,694.8594 L311.5781,693.4375 C311.5781,693 311.5625,692.875 311.4688,692.7188 C311.3125,692.4531 311.0313,692.3125 310.7344,692.3125 C310.4375,692.3125 310.2344,692.4063 310.0156,692.7188 L309.8438,692.6406 Z " fill="#000000"/><text fill="#000000" font-family="sans-serif" font-size="12" lengthAdjust="spacing" textLength="37" x="336" y="694.1387">types.</text><text fill="#000000" font-family="sans-serif" font-size="12" lengthAdjust="spacing" textLength="66" x="321.5" y="708.1074">Coordinate</text><line style="stroke:#A80036;stroke-width:1.5;" x1="293.5" x2="389.5" y1="715.9375" y2="715.9375"/><line style="stroke:#A80036;stroke-width:1.5;" x1="293.5" x2="389.5" y1="723.9375" y2="723.9375"/><!--MD5=[b8cfd8c4119a3b0a7a46bfc5fc780f85]
class Error--><rect codeLine="2" fill="#FEFECE" filter="url(#f14bjlhrj8buid)" height="53.9375" id="Error" style="stroke:#A80036;stroke-width:1.5;" width="69" x="1057" y="678"/><ellipse cx="1072" cy="696.9688" fill="#EB937F" rx="11" ry="11" style="stroke:#A80036;stroke-width:1.0;"/><path d="M1070.7969,697.8438 L1072.25,697.8438 L1072.25,697.9531 C1072.25,698.3594 1072.2813,698.5156 1072.3594,698.6719 C1072.5156,698.9219 1072.7969,699.0781 1073.0938,699.0781 C1073.3438,699.0781 1073.6094,698.9375 1073.7656,698.7188 C1073.8906,698.5625 1073.9219,698.4063 1073.9219,697.9531 L1073.9219,696.0313 C1073.9219,695.875 1073.9219,695.8281 1073.9063,695.6719 C1073.8438,695.2031 1073.5313,694.8906 1073.0781,694.8906 C1072.8281,694.8906 1072.5625,695.0313 1072.3906,695.25 C1072.2813,695.4219 1072.25,695.5781 1072.25,696.0313 L1072.25,696.1563 L1070.7969,696.1563 L1070.7969,693.75 L1074.7813,693.75 L1074.7813,694.6094 C1074.7813,695.0156 1074.8125,695.1875 1074.8906,695.3438 C1075.0625,695.5938 1075.3438,695.75 1075.625,695.75 C1075.8906,695.75 1076.1563,695.6094 1076.3281,695.3906 C1076.4375,695.2188 1076.4688,695.0781 1076.4688,694.6094 L1076.4688,692.0625 L1068.8438,692.0625 C1068.4063,692.0625 1068.2813,692.0781 1068.125,692.1719 C1067.875,692.3281 1067.7188,692.625 1067.7188,692.9063 C1067.7188,693.1875 1067.8594,693.4375 1068.0781,693.6094 C1068.2344,693.7188 1068.4219,693.75 1068.8438,693.75 L1069.0938,693.75 L1069.0938,700.2656 L1068.8438,700.2656 C1068.4375,700.2656 1068.2813,700.2813 1068.125,700.3906 C1067.875,700.5625 1067.7188,700.8281 1067.7188,701.125 C1067.7188,701.3906 1067.8594,701.6406 1068.0781,701.7969 C1068.2188,701.9219 1068.4531,701.9688 1068.8438,701.9688 L1076.8438,701.9688 L1076.8438,699.3906 C1076.8438,698.9531 1076.8125,698.8125 1076.7344,698.6563 C1076.5625,698.4063 1076.2813,698.25 1076,698.25 C1075.7344,698.25 1075.4688,698.3594 1075.2969,698.6094 C1075.1875,698.7656 1075.1563,698.9063 1075.1563,699.3906 L1075.1563,700.2656 L1070.7969,700.2656 L1070.7969,697.8438 Z " fill="#000000"/><text fill="#000000" font-family="sans-serif" font-size="12" lengthAdjust="spacing" textLength="37" x="1086" y="694.1387">types.</text><text fill="#000000" font-family="sans-serif" font-size="12" lengthAdjust="spacing" textLength="30" x="1089.5" y="708.1074">Error</text><line style="stroke:#A80036;stroke-width:1.5;" x1="1058" x2="1125" y1="715.9375" y2="715.9375"/><line style="stroke:#A80036;stroke-width:1.5;" x1="1058" x2="1125" y1="723.9375" y2="723.9375"/><!--MD5=[18eee71c88ab61f27581b8cbdd3ef5ee]
class Color--><rect codeLine="3" fill="#FEFECE" filter="url(#f14bjlhrj8buid)" height="53.9375" id="Color" style="stroke:#A80036;stroke-width:1.5;" width="69" x="177" y="678"/><ellipse cx="192" cy="696.9688" fill="#EB937F" rx="11" ry="11" style="stroke:#A80036;stroke-width:1.0;"/><path d="M190.7969,697.8438 L192.25,697.8438 L192.25,697.9531 C192.25,698.3594 192.2813,698.5156 192.3594,698.6719 C192.5156,698.9219 192.7969,699.0781 193.0938,699.0781 C193.3438,699.0781 193.6094,698.9375 193.7656,698.7188 C193.8906,698.5625 193.9219,698.4063 193.9219,697.9531 L193.9219,696.0313 C193.9219,695.875 193.9219,695.8281 193.9063,695.6719 C193.8438,695.2031 193.5313,694.8906 193.0781,694.8906 C192.8281,694.8906 192.5625,695.0313 192.3906,695.25 C192.2813,695.4219 192.25,695.5781 192.25,696.0313 L192.25,696.1563 L190.7969,696.1563 L190.7969,693.75 L194.7813,693.75 L194.7813,694.6094 C194.7813,695.0156 194.8125,695.1875 194.8906,695.3438 C195.0625,695.5938 195.3438,695.75 195.625,695.75 C195.8906,695.75 196.1563,695.6094 196.3281,695.3906 C196.4375,695.2188 196.4688,695.0781 196.4688,694.6094 L196.4688,692.0625 L188.8438,692.0625 C188.4063,692.0625 188.2813,692.0781 188.125,692.1719 C187.875,692.3281 187.7188,692.625 187.7188,692.9063 C187.7188,693.1875 187.8594,693.4375 188.0781,693.6094 C188.2344,693.7188 188.4219,693.75 188.8438,693.75 L189.0938,693.75 L189.0938,700.2656 L188.8438,700.2656 C188.4375,700.2656 188.2813,700.2813 188.125,700.3906 C187.875,700.5625 187.7188,700.8281 187.7188,701.125 C187.7188,701.3906 187.8594,701.6406 188.0781,701.7969 C188.2188,701.9219 188.4531,701.9688 188.8438,701.9688 L196.8438,701.9688 L196.8438,699.3906 C196.8438,698.9531 196.8125,698.8125 196.7344,698.6563 C196.5625,698.4063 196.2813,698.25 196,698.25 C195.7344,698.25 195.4688,698.3594 195.2969,698.6094 C195.1875,698.7656 195.1563,698.9063 195.1563,699.3906 L195.1563,700.2656 L190.7969,700.2656 L190.7969,697.8438 Z " fill="#000000"/><text fill="#000000" font-family="sans-serif" font-size="12" lengthAdjust="spacing" textLength="37" x="206" y="694.1387">types.</text><text fill="#000000" font-family="sans-serif" font-size="12" lengthAdjust="spacing" textLength="32" x="208.5" y="708.1074">Color</text><line style="stroke:#A80036;stroke-width:1.5;" x1="178" x2="245" y1="715.9375" y2="715.9375"/><line style="stroke:#A80036;stroke-width:1.5;" x1="178" x2="245" y1="723.9375" y2="723.9375"/><!--MD5=[47c371471411cfedeee61b1a5bdaee47]
class StartController--><rect codeLine="4" fill="#FEFECE" filter="url(#f14bjlhrj8buid)" height="53.9375" id="StartController" style="stroke:#A80036;stroke-width:1.5;" width="119" x="1048" y="477.5"/><ellipse cx="1063" cy="496.4688" fill="#ADD1B2" rx="11" ry="11" style="stroke:#A80036;stroke-width:1.0;"/><path d="M1065.3438,492.1406 C1064.4063,491.7031 1063.8125,491.5625 1062.9375,491.5625 C1060.3125,491.5625 1058.3125,493.6406 1058.3125,496.3594 L1058.3125,497.4844 C1058.3125,500.0625 1060.4219,501.9531 1063.3125,501.9531 C1064.5313,501.9531 1065.6875,501.6563 1066.4375,501.1094 C1067.0156,500.7031 1067.3438,500.25 1067.3438,499.8594 C1067.3438,499.4063 1066.9531,499.0156 1066.4844,499.0156 C1066.2656,499.0156 1066.0625,499.0938 1065.875,499.2813 C1065.4219,499.7656 1065.4219,499.7656 1065.2344,499.8594 C1064.8125,500.125 1064.125,500.25 1063.3594,500.25 C1061.3125,500.25 1060.0156,499.1563 1060.0156,497.4531 L1060.0156,496.3594 C1060.0156,494.5781 1061.2656,493.2656 1063,493.2656 C1063.5781,493.2656 1064.1875,493.4219 1064.6563,493.6719 C1065.1406,493.9531 1065.3125,494.1719 1065.4063,494.5781 C1065.4688,494.9844 1065.5,495.1094 1065.6406,495.2344 C1065.7813,495.375 1066.0156,495.4844 1066.2344,495.4844 C1066.5,495.4844 1066.7656,495.3438 1066.9375,495.125 C1067.0469,494.9688 1067.0781,494.7813 1067.0781,494.3594 L1067.0781,492.9375 C1067.0781,492.5 1067.0625,492.375 1066.9688,492.2188 C1066.8125,491.9531 1066.5313,491.8125 1066.2344,491.8125 C1065.9375,491.8125 1065.7344,491.9063 1065.5156,492.2188 L1065.3438,492.1406 Z " fill="#000000"/><text fill="#000000" font-family="sans-serif" font-size="12" lengthAdjust="spacing" textLength="68" x="1086.5" y="493.6387">controllers.</text><text fill="#000000" font-family="sans-serif" font-size="12" lengthAdjust="spacing" textLength="87" x="1077" y="507.6074">StartController</text><line style="stroke:#A80036;stroke-width:1.5;" x1="1049" x2="1166" y1="515.4375" y2="515.4375"/><line style="stroke:#A80036;stroke-width:1.5;" x1="1049" x2="1166" y1="523.4375" y2="523.4375"/><!--MD5=[cc8600b868f8dfab2c8d497bce62f90a]
class PlayController--><rect codeLine="5" fill="#FEFECE" filter="url(#f14bjlhrj8buid)" height="53.9375" id="PlayController" style="stroke:#A80036;stroke-width:1.5;" width="114" x="1118.5" y="273.5"/><ellipse cx="1133.5" cy="292.4688" fill="#ADD1B2" rx="11" ry="11" style="stroke:#A80036;stroke-width:1.0;"/><path d="M1135.8438,288.1406 C1134.9063,287.7031 1134.3125,287.5625 1133.4375,287.5625 C1130.8125,287.5625 1128.8125,289.6406 1128.8125,292.3594 L1128.8125,293.4844 C1128.8125,296.0625 1130.9219,297.9531 1133.8125,297.9531 C1135.0313,297.9531 1136.1875,297.6563 1136.9375,297.1094 C1137.5156,296.7031 1137.8438,296.25 1137.8438,295.8594 C1137.8438,295.4063 1137.4531,295.0156 1136.9844,295.0156 C1136.7656,295.0156 1136.5625,295.0938 1136.375,295.2813 C1135.9219,295.7656 1135.9219,295.7656 1135.7344,295.8594 C1135.3125,296.125 1134.625,296.25 1133.8594,296.25 C1131.8125,296.25 1130.5156,295.1563 1130.5156,293.4531 L1130.5156,292.3594 C1130.5156,290.5781 1131.7656,289.2656 1133.5,289.2656 C1134.0781,289.2656 1134.6875,289.4219 1135.1563,289.6719 C1135.6406,289.9531 1135.8125,290.1719 1135.9063,290.5781 C1135.9688,290.9844 1136,291.1094 1136.1406,291.2344 C1136.2813,291.375 1136.5156,291.4844 1136.7344,291.4844 C1137,291.4844 1137.2656,291.3438 1137.4375,291.125 C1137.5469,290.9688 1137.5781,290.7813 1137.5781,290.3594 L1137.5781,288.9375 C1137.5781,288.5 1137.5625,288.375 1137.4688,288.2188 C1137.3125,287.9531 1137.0313,287.8125 1136.7344,287.8125 C1136.4375,287.8125 1136.2344,287.9063 1136.0156,288.2188 L1135.8438,288.1406 Z " fill="#000000"/><text fill="#000000" font-family="sans-serif" font-size="12" lengthAdjust="spacing" textLength="68" x="1154.5" y="289.6387">controllers.</text><text fill="#000000" font-family="sans-serif" font-size="12" lengthAdjust="spacing" textLength="82" x="1147.5" y="303.6074">PlayController</text><line style="stroke:#A80036;stroke-width:1.5;" x1="1119.5" x2="1231.5" y1="311.4375" y2="311.4375"/><line style="stroke:#A80036;stroke-width:1.5;" x1="1119.5" x2="1231.5" y1="319.4375" y2="319.4375"/><!--MD5=[1a47bbf44ccee225df9b18c5b6629853]
class ResumeController--><rect codeLine="6" fill="#FEFECE" filter="url(#f14bjlhrj8buid)" height="53.9375" id="ResumeController" style="stroke:#A80036;stroke-width:1.5;" width="139" x="7" y="477.5"/><ellipse cx="22" cy="496.4688" fill="#ADD1B2" rx="11" ry="11" style="stroke:#A80036;stroke-width:1.0;"/><path d="M24.3438,492.1406 C23.4063,491.7031 22.8125,491.5625 21.9375,491.5625 C19.3125,491.5625 17.3125,493.6406 17.3125,496.3594 L17.3125,497.4844 C17.3125,500.0625 19.4219,501.9531 22.3125,501.9531 C23.5313,501.9531 24.6875,501.6563 25.4375,501.1094 C26.0156,500.7031 26.3438,500.25 26.3438,499.8594 C26.3438,499.4063 25.9531,499.0156 25.4844,499.0156 C25.2656,499.0156 25.0625,499.0938 24.875,499.2813 C24.4219,499.7656 24.4219,499.7656 24.2344,499.8594 C23.8125,500.125 23.125,500.25 22.3594,500.25 C20.3125,500.25 19.0156,499.1563 19.0156,497.4531 L19.0156,496.3594 C19.0156,494.5781 20.2656,493.2656 22,493.2656 C22.5781,493.2656 23.1875,493.4219 23.6563,493.6719 C24.1406,493.9531 24.3125,494.1719 24.4063,494.5781 C24.4688,494.9844 24.5,495.1094 24.6406,495.2344 C24.7813,495.375 25.0156,495.4844 25.2344,495.4844 C25.5,495.4844 25.7656,495.3438 25.9375,495.125 C26.0469,494.9688 26.0781,494.7813 26.0781,494.3594 L26.0781,492.9375 C26.0781,492.5 26.0625,492.375 25.9688,492.2188 C25.8125,491.9531 25.5313,491.8125 25.2344,491.8125 C24.9375,491.8125 24.7344,491.9063 24.5156,492.2188 L24.3438,492.1406 Z " fill="#000000"/><text fill="#000000" font-family="sans-serif" font-size="12" lengthAdjust="spacing" textLength="68" x="55.5" y="493.6387">controllers.</text><text fill="#000000" font-family="sans-serif" font-size="12" lengthAdjust="spacing" textLength="107" x="36" y="507.6074">ResumeController</text><line style="stroke:#A80036;stroke-width:1.5;" x1="8" x2="145" y1="515.4375" y2="515.4375"/><line style="stroke:#A80036;stroke-width:1.5;" x1="8" x2="145" y1="523.4375" y2="523.4375"/><!--MD5=[67c5dbc5f258340ee2b7aaadfd6765aa]
link views.PlayerView to views.StartView--><path codeLine="61" d="M711.5,101.038 C711.5,101.038 711.5,124.562 711.5,135.634 " fill="none" id="views.PlayerView-views.StartView" style="stroke:#A80036;stroke-width:1.0;"/><polygon fill="#A80036" points="711.5,148.65,715.5,139.65,711.5,143.65,707.5,139.65,711.5,148.65" style="stroke:#A80036;stroke-width:1.0;"/><line style="stroke:#A80036;stroke-width:1.0;" x1="711.5" x2="711.5" y1="143.65" y2="135.65"/><polygon fill="#A80036" points="711.5,89.038,707.5,95.038,711.5,101.038,715.5,95.038,711.5,89.038" style="stroke:#A80036;stroke-width:1.0;"/><!--MD5=[9911ff4f94ad66318e9363318070f9b5]
link views.PlayerView to views.PlayView--><path codeLine="62" d="M757.2081,95.5535 C757.2081,95.5535 805.707,126.91 828.436,141.605 " fill="none" id="views.PlayerView-views.PlayView" style="stroke:#A80036;stroke-width:1.0;"/><polygon fill="#A80036" points="839.655,148.859,834.269,140.6134,835.4562,146.1442,829.9253,147.3315,839.655,148.859" style="stroke:#A80036;stroke-width:1.0;"/><line style="stroke:#A80036;stroke-width:1.0;" x1="835.4562" x2="828.7375" y1="146.1442" y2="141.8"/><polygon fill="#A80036" points="747.131,89.038,749.9978,95.6548,757.2081,95.5535,754.3414,88.9367,747.131,89.038" style="stroke:#A80036;stroke-width:1.0;"/><!--MD5=[ebea6b3e947d8b3c55735d694b4eb772]
link views.PlayerView to views.ResumeView--><path codeLine="63" d="M677.2445,97.3387 C677.2445,97.3387 640.535,131.847 623.5,149 C587.013,185.739 546.912,229.18 519.015,259.923 " fill="none" id="views.PlayerView-views.ResumeView" style="stroke:#A80036;stroke-width:1.0;"/><polygon fill="#A80036" points="510.045,269.834,519.0499,265.845,513.4,266.1268,513.1183,260.4769,510.045,269.834" style="stroke:#A80036;stroke-width:1.0;"/><line style="stroke:#A80036;stroke-width:1.0;" x1="513.4" x2="518.7685" y1="266.1268" y2="260.195"/><polygon fill="#A80036" points="686.048,89.184,678.928,90.3269,677.2445,97.3387,684.3645,96.1958,686.048,89.184" style="stroke:#A80036;stroke-width:1.0;"/><!--MD5=[8507262084d539f4882e2752de5479e8]
link views.StartView to views.Message--><path codeLine="64" d="M692.336,210.23 C681.198,227.599 666.948,249.974 654.5,270 C637.76,296.93 635.14,304.651 617.5,331 C605.287,349.244 591.952,368.247 578.664,386.689 " fill="none" id="views.StartView-to-views.Message" style="stroke:#A80036;stroke-width:1.0;stroke-dasharray:7.0,7.0;"/><polygon fill="#A80036" points="575.65,390.863,584.1614,385.9075,578.5768,386.8092,577.6752,381.2246,575.65,390.863" style="stroke:#A80036;stroke-width:1.0;"/><!--MD5=[1b8a73df775c8bac903591bf669c8c66]
link views.StartView to views.BoardView--><path codeLine="65" d="M719.742,210.222 C724.31,226.692 730.014,247.264 734.796,264.508 " fill="none" id="views.StartView-to-views.BoardView" style="stroke:#A80036;stroke-width:1.0;stroke-dasharray:7.0,7.0;"/><polygon fill="#A80036" points="736.249,269.745,737.6995,260.0035,734.9134,264.9267,729.9902,262.1406,736.249,269.745" style="stroke:#A80036;stroke-width:1.0;"/><!--MD5=[93bed1ef04018f79b273cd77ea9f0db2]
link views.StartView to StartController--><path codeLine="66" d="M782.449,204.754 C788.202,206.577 793.939,208.348 799.5,210 C901.181,240.209 953.119,197.449 1030.5,270 C1088.15,324.053 1102.69,422.051 1106.32,472.159 " fill="none" id="views.StartView-to-StartController" style="stroke:#A80036;stroke-width:1.0;"/><polygon fill="#A80036" points="1106.66,477.149,1110.0437,467.8996,1106.3227,472.1604,1102.0619,468.4394,1106.66,477.149" style="stroke:#A80036;stroke-width:1.0;"/><!--MD5=[ebadaef8e2bbd4ba1e726984e015cfbe]
link views.BoardView to views.ColorView--><path codeLine="67" d="M733.286,331.306 C719.495,367.961 696.127,430.072 681.545,468.827 " fill="none" id="views.BoardView-to-views.ColorView" style="stroke:#A80036;stroke-width:1.0;stroke-dasharray:7.0,7.0;"/><polygon fill="#A80036" points="679.636,473.901,686.548,466.885,681.396,469.221,679.06,464.069,679.636,473.901" style="stroke:#A80036;stroke-width:1.0;"/><!--MD5=[095a9e8630f04b2395f4481b19b8906e]
link views.BoardView to views.Message--><path codeLine="68" d="M692.521,331.144 C665.359,347.509 632.116,368.95 604.5,391 C599.832,394.727 595.144,398.622 590.473,402.628 " fill="none" id="views.BoardView-to-views.Message" style="stroke:#A80036;stroke-width:1.0;stroke-dasharray:7.0,7.0;"/><polygon fill="#A80036" points="586.554,406.019,595.9774,403.1557,590.3353,402.7477,590.7433,397.1055,586.554,406.019" style="stroke:#A80036;stroke-width:1.0;"/><!--MD5=[f9d7272086e8e62f4b793c0eb33c0b4b]
link views.PlayView to views.Message--><path codeLine="69" d="M883.404,210.133 C879.387,244.16 867.672,299.345 833.5,331 C756.315,402.5 695.936,338.949 604.5,391 C599.875,393.633 595.304,396.501 590.805,399.555 " fill="none" id="views.PlayView-to-views.Message" style="stroke:#A80036;stroke-width:1.0;stroke-dasharray:7.0,7.0;"/><polygon fill="#A80036" points="586.694,402.41,596.3681,400.5631,590.8012,399.5585,591.8058,393.9916,586.694,402.41" style="stroke:#A80036;stroke-width:1.0;"/><!--MD5=[a9b9099bd570987dc5af9f0e9221dc51]
link views.PlayView to views.BoardView--><path codeLine="70" d="M850.283,210.222 C830.011,227.331 804.494,248.866 783.601,266.5 " fill="none" id="views.PlayView-to-views.BoardView" style="stroke:#A80036;stroke-width:1.0;stroke-dasharray:7.0,7.0;"/><polygon fill="#A80036" points="779.756,269.745,789.2141,266.9984,783.5775,266.5207,784.0552,260.884,779.756,269.745" style="stroke:#A80036;stroke-width:1.0;"/><!--MD5=[5def075edf52364bac0be7f62eb4aa14]
link views.PlayView to views.MovementView--><path codeLine="71" d="M901.735,210.222 C910.809,226.834 922.162,247.619 931.63,264.953 " fill="none" id="views.PlayView-to-views.MovementView" style="stroke:#A80036;stroke-width:1.0;stroke-dasharray:7.0,7.0;"/><polygon fill="#A80036" points="934.247,269.745,933.4431,259.929,931.8501,265.3569,926.4222,263.764,934.247,269.745" style="stroke:#A80036;stroke-width:1.0;"/><!--MD5=[bc8a2baa650750752d6e88c509172a1c]
link views.MovementView to views.ErrorView--><path codeLine="72" d="M952.418,331.306 C954.777,367.961 958.774,430.072 961.269,468.827 " fill="none" id="views.MovementView-to-views.ErrorView" style="stroke:#A80036;stroke-width:1.0;stroke-dasharray:7.0,7.0;"/><polygon fill="#A80036" points="961.595,473.901,965.008,464.6624,961.2735,468.9113,957.0246,465.1768,961.595,473.901" style="stroke:#A80036;stroke-width:1.0;"/><!--MD5=[43dd04138dcca8bbc729df36fdc1a987]
link views.ResumeView to views.Message--><path codeLine="73" d="M484.533,331.306 C485.052,346.279 485.718,365.5 486.416,385.642 " fill="none" id="views.ResumeView-to-views.Message" style="stroke:#A80036;stroke-width:1.0;stroke-dasharray:7.0,7.0;"/><polygon fill="#A80036" points="486.594,390.78,490.2779,381.646,486.4197,385.783,482.2827,381.9249,486.594,390.78" style="stroke:#A80036;stroke-width:1.0;"/><!--MD5=[8d2fcd9f8b54ab010933e46bca6b06e9]
link views.ResumeView to ResumeController--><path codeLine="74" d="M366.762,318.677 C305.632,331.606 231.62,353.734 173.5,391 C140.664,412.054 112.769,447.5 95.4382,472.982 " fill="none" id="views.ResumeView-to-ResumeController" style="stroke:#A80036;stroke-width:1.0;"/><polygon fill="#A80036" points="92.5375,477.3,100.8769,472.0603,95.3259,473.1498,94.2365,467.5988,92.5375,477.3" style="stroke:#A80036;stroke-width:1.0;"/><!--MD5=[27a8688df1a7e86c1bc534b33dd7c1a1]
link views.BoardView to Coordinate--><path codeLine="75" d="M672.391,318.673 C654.481,322.822 635.313,327.163 617.5,331 C483.723,359.818 402.326,285.227 315.5,391 C248.064,473.152 298.395,611.663 326.25,673.0799 " fill="none" id="views.BoardView-to-Coordinate" style="stroke:#A80036;stroke-width:1.0;stroke-dasharray:7.0,7.0;"/><polygon fill="#A80036" points="328.379,677.7207,328.2629,667.8725,326.2946,673.1759,320.9912,671.2076,328.379,677.7207" style="stroke:#A80036;stroke-width:1.0;"/><!--MD5=[b764f77f6244594f93a2b8a31497368e]
link views.MovementView to Coordinate--><path codeLine="76" d="M888.258,318.623 C870.648,323.078 851.401,327.58 833.5,331 C732.892,350.22 448.229,317.882 376.5,391 C301.639,467.311 320.706,609.614 333.898,672.6083 " fill="none" id="views.MovementView-to-Coordinate" style="stroke:#A80036;stroke-width:1.0;stroke-dasharray:7.0,7.0;"/><polygon fill="#A80036" points="334.995,677.7298,337.022,668.0918,333.9482,672.8406,329.1993,669.7667,334.995,677.7298" style="stroke:#A80036;stroke-width:1.0;"/><!--MD5=[58ce7257e9fedcdfac65620a403e3cb0]
link views.BoardView to StartController--><path codeLine="77" d="M816.583,318.583 C888.988,336.724 994.556,366.15 1028.5,391 C1057.51,412.235 1079.73,447.428 1093.11,472.802 " fill="none" id="views.BoardView-to-StartController" style="stroke:#A80036;stroke-width:1.0;stroke-dasharray:7.0,7.0;"/><polygon fill="#A80036" points="1095.5,477.42,1094.8992,467.5895,1093.1944,472.9833,1087.8005,471.2785,1095.5,477.42" style="stroke:#A80036;stroke-width:1.0;"/><!--MD5=[a52d604b77424a58e07034fe9d0c7f45]
link views.BoardView to Color--><path codeLine="78" d="M672.451,318.962 C654.54,323.102 635.356,327.367 617.5,331 C465.847,361.853 385.315,282.97 274.5,391 C196.903,466.647 201.083,609.3 207.392,672.4969 " fill="none" id="views.BoardView-to-Color" style="stroke:#A80036;stroke-width:1.0;stroke-dasharray:7.0,7.0;"/><polygon fill="#A80036" points="207.927,677.6352,210.9728,668.2691,207.4088,672.6621,203.0158,669.0982,207.927,677.6352" style="stroke:#A80036;stroke-width:1.0;"/><!--MD5=[339a50df6252398807c660c3d38a675e]
link views.MovementView to Error--><path codeLine="79" d="M1012.75,316.791 C1075.03,333.499 1164.4,361.798 1184.5,391 C1247.74,482.898 1237.14,543.644 1184.5,642 C1173.14,663.2243 1150.95,678.4377 1131.1,688.4818 " fill="none" id="views.MovementView-to-Error" style="stroke:#A80036;stroke-width:1.0;stroke-dasharray:7.0,7.0;"/><polygon fill="#A80036" points="1126.37,690.7982,1136.212,690.4296,1130.8599,688.5979,1132.6915,683.2458,1126.37,690.7982" style="stroke:#A80036;stroke-width:1.0;"/><!--MD5=[4874983008fa1a0e6fd69efc7cf96bbe]
link views.ErrorView to Error--><path codeLine="80" d="M974.832,535.237 C986.507,563.954 1006.374,607.975 1030.5,642 C1038.59,653.4094 1048.81,664.6791 1058.56,674.4166 " fill="none" id="views.ErrorView-to-Error" style="stroke:#A80036;stroke-width:1.0;stroke-dasharray:7.0,7.0;"/><polygon fill="#A80036" points="1062.13,677.9321,1058.534,668.7632,1058.5713,674.4199,1052.9145,674.4571,1062.13,677.9321" style="stroke:#A80036;stroke-width:1.0;"/><!--MD5=[13fa1849fb47ff0ddb9bf29562c915bb]
link views.PlayView to PlayController--><path codeLine="81" d="M953.859,208.551 C1003.928,229.096 1071.11,256.662 1118.33,276.042 " fill="none" id="views.PlayView-PlayController" style="stroke:#A80036;stroke-width:1.0;"/><!--MD5=[dd562b49b70ad482277daba60c47d936]
link views.ColorView to Color--><path codeLine="82" d="M663.151,535.183 C655.704,567.163 638.913,616.842 603.5,642 C543.542,684.5949 345.757,659.79 274.5,678 C266.715,679.9894 258.628,682.7528 250.946,685.7396 " fill="none" id="views.ColorView-to-Color" style="stroke:#A80036;stroke-width:1.0;stroke-dasharray:7.0,7.0;"/><polygon fill="#A80036" points="246.221,687.6233,256.0624,688.0063,250.8656,685.7718,253.1,680.575,246.221,687.6233" style="stroke:#A80036;stroke-width:1.0;"/><!--MD5=[ab0ec5f63c56da24f261b966745afc63]
link views.CoordinateView to Coordinate--><path codeLine="83" d="M805.222,535.021 C793.587,566.858 770.427,616.41 732.5,642 C678.47,678.4546 489.88,694.9241 395.772,701.0117 " fill="none" id="views.CoordinateView-to-Coordinate" style="stroke:#A80036;stroke-width:1.0;stroke-dasharray:7.0,7.0;"/><polygon fill="#A80036" points="390.537,701.3459,399.7736,704.7643,395.5268,701.0273,399.2639,696.7806,390.537,701.3459" style="stroke:#A80036;stroke-width:1.0;"/><!--MD5=[520b71290d2efd547a67b9a059ddf5cb]
link views.MovementView to views.CoordinateView--><path codeLine="84" d="M930.433,331.306 C905.653,368.111 863.595,430.579 837.526,469.3 " fill="none" id="views.MovementView-to-views.CoordinateView" style="stroke:#A80036;stroke-width:1.0;stroke-dasharray:7.0,7.0;"/><polygon fill="#A80036" points="834.428,473.901,842.773,468.6703,837.2209,469.7538,836.1375,464.2016,834.428,473.901" style="stroke:#A80036;stroke-width:1.0;"/><!--MD5=[47d2e6a75fc93bb401b406aef61e6826]
@startuml
class Coordinate as "types.\nCoordinate"
enum Error as "types.\nError"
enum Color as "types.\nColor"
class StartController as "controllers.\nStartController"
class PlayController as "controllers.\nPlayController"
class ResumeController as "controllers.\nResumeController"

class  views.BoardView{
    ~ write(StartController)
}

class  views.ErrorView{
    ~ writeln(Error)
}

class  views.PlayView{
    ~ play(PlayController)
}

class  views.ResumeView{
    ~ resume(ResumeController): boolean
}

class views.StartView{
    ~ start(StartController)
}

class  views.MovementView{
    ~ interact()
}

class  views.ColorView{
    ~ write(Color)
}

enum  views.Message{
    +TITLE
    +HORIZONTAL_LINE
    +VERTICAL_LINE
    +ACTION_COMMAND
    +UNDO_COMMAND
    +REDO_COMMAND
    +ENTER_COORDINATE_TO_PUT
    +COORDINATE_TO_PUT
    +COORDINATE_TO_REMOVE
    +COORDINATE_TO_MOVE
    +PLAYER_WIN
    +RESUME
    ~ writeln()
    ~ write()
}

class  views.PlayerView{
    
}

class  views.CoordinateView{
    ~ read(): Coordinate
}

views.PlayerView *-down-> views.StartView
views.PlayerView *-down-> views.PlayView
views.PlayerView *-down-> views.ResumeView
views.StartView ..> views.Message
views.StartView ..> views.BoardView
views.StartView -down-> StartController
views.BoardView ..> views.ColorView
views.BoardView ..> views.Message
views.PlayView ..> views.Message
views.PlayView ..> views.BoardView
views.PlayView ..> views.MovementView
views.MovementView ..> views.ErrorView
views.ResumeView ..> views.Message
views.ResumeView -down-> ResumeController
views.BoardView .down.> Coordinate
views.MovementView .down.> Coordinate
views.BoardView .down.> StartController
views.BoardView .down.> Color
views.MovementView .down.> Error
views.ErrorView .down.> Error
views.PlayView -down- PlayController
views.ColorView .down.> Color
views.CoordinateView .down.> Coordinate
views.MovementView ..> views.CoordinateView
@enduml

PlantUML version 1.2021.4beta3(Unknown compile time)
(GPL source distribution)
Java Runtime: Java(TM) SE Runtime Environment
JVM: Java HotSpot(TM) 64-Bit Server VM
Default Encoding: UTF-8
Language: en
Country: US
--></g></svg>