<?xml version="1.0" encoding="UTF-8" standalone="no"?><svg xmlns="http://www.w3.org/2000/svg" xmlns:xlink="http://www.w3.org/1999/xlink" contentScriptType="application/ecmascript" contentStyleType="text/css" height="452px" preserveAspectRatio="none" style="width:1074px;height:452px;" version="1.1" viewBox="0 0 1074 452" width="1074px" zoomAndPan="magnify"><defs><filter height="300%" id="fhk6y0mj29vdz" width="300%" x="-1" y="-1"><feGaussianBlur result="blurOut" stdDeviation="2.0"/><feColorMatrix in="blurOut" result="blurOut2" type="matrix" values="0 0 0 0 0 0 0 0 0 0 0 0 0 0 0 0 0 0 .4 0"/><feOffset dx="4.0" dy="4.0" in="blurOut2" result="blurOut3"/><feBlend in="SourceGraphic" in2="blurOut3" mode="normal"/></filter></defs><g><!--MD5=[f4e70ef68289585296b9045165e58692]
cluster controllers--><polygon fill="#FFFFFF" filter="url(#fhk6y0mj29vdz)" points="16,6,111,6,118,28.2969,723,28.2969,723,341,16,341,16,6" style="stroke:#000000;stroke-width:1.5;"/><line style="stroke:#000000;stroke-width:1.5;" x1="16" x2="118" y1="28.2969" y2="28.2969"/><text fill="#000000" font-family="sans-serif" font-size="14" font-weight="bold" lengthAdjust="spacing" textLength="89" x="20" y="20.9951">controllers</text><!--MD5=[d538e9e3e9ace5a9c5dcbfba7654f5f1]
class controllers.Controller--><rect codeLine="6" fill="#FEFECE" filter="url(#fhk6y0mj29vdz)" height="60.8047" id="controllers.Controller" style="stroke:#A80036;stroke-width:1.5;" width="180" x="527" y="41"/><ellipse cx="583.75" cy="57" fill="#A9DCDF" rx="11" ry="11" style="stroke:#A80036;stroke-width:1.0;"/><path d="M585.8281,58.8125 L586.2188,59.7969 L585.8281,59.7969 C585.375,59.7969 585.2656,59.8125 585.1094,59.9219 C584.8594,60.0781 584.7031,60.3594 584.7031,60.6563 C584.7031,60.9219 584.8438,61.1719 585.0625,61.3281 C585.2031,61.4531 585.4063,61.5 585.8281,61.5 L588.1875,61.5 C588.5469,61.5 588.7656,61.4688 588.9063,61.375 C589.1563,61.2344 589.3125,60.9375 589.3125,60.6563 C589.3125,60.375 589.1719,60.125 588.9531,59.9688 C588.7813,59.8281 588.625,59.7969 588.1563,59.7969 L584.7656,51.5938 L581.0938,51.5938 C580.6406,51.5938 580.5156,51.6094 580.3594,51.7031 C580.1094,51.875 579.9531,52.1563 579.9531,52.4375 C579.9531,52.7188 580.0938,52.9688 580.3125,53.1406 C580.4844,53.25 580.6563,53.2813 581.0938,53.2813 L582.1719,53.2813 L579.5313,59.7969 C579.1094,59.7969 578.9531,59.8125 578.7969,59.9219 C578.5469,60.0781 578.3906,60.3594 578.3906,60.6563 C578.3906,61.2188 578.7656,61.5 579.5156,61.5 L581.7813,61.5 C582.1406,61.5 582.3594,61.4688 582.4844,61.375 C582.75,61.2344 582.8906,60.9375 582.8906,60.6563 C582.8906,60.375 582.7656,60.125 582.5469,59.9531 C582.375,59.8281 582.2344,59.7969 581.7813,59.7969 L581.3906,59.7969 L581.7813,58.8125 L585.8281,58.8125 Z M585.125,57.1094 L582.4531,57.1094 L583.7969,53.8438 L585.125,57.1094 Z " fill="#000000"/><text fill="#000000" font-family="sans-serif" font-size="12" font-style="italic" lengthAdjust="spacing" textLength="58" x="604.25" y="61.1543">Controller</text><line style="stroke:#A80036;stroke-width:1.5;" x1="528" x2="706" y1="73" y2="73"/><line style="stroke:#A80036;stroke-width:1.5;" x1="528" x2="706" y1="81" y2="81"/><ellipse cx="538" cy="92" fill="#84BE84" rx="3" ry="3" style="stroke:#038048;stroke-width:1.0;"/><text fill="#000000" font-family="sans-serif" font-size="11" lengthAdjust="spacing" textLength="154" x="547" y="95.2104">getColor(Coordinate): Color</text><!--MD5=[aea2e2342048d554ddfb2813c9d667df]
class controllers.PlayController--><rect codeLine="10" fill="#FEFECE" filter="url(#fhk6y0mj29vdz)" height="163.2422" id="controllers.PlayController" style="stroke:#A80036;stroke-width:1.5;" width="346" x="32" y="162"/><ellipse cx="159.75" cy="178" fill="#ADD1B2" rx="11" ry="11" style="stroke:#A80036;stroke-width:1.0;"/><path d="M162.0938,173.6719 C161.1563,173.2344 160.5625,173.0938 159.6875,173.0938 C157.0625,173.0938 155.0625,175.1719 155.0625,177.8906 L155.0625,179.0156 C155.0625,181.5938 157.1719,183.4844 160.0625,183.4844 C161.2813,183.4844 162.4375,183.1875 163.1875,182.6406 C163.7656,182.2344 164.0938,181.7813 164.0938,181.3906 C164.0938,180.9375 163.7031,180.5469 163.2344,180.5469 C163.0156,180.5469 162.8125,180.625 162.625,180.8125 C162.1719,181.2969 162.1719,181.2969 161.9844,181.3906 C161.5625,181.6563 160.875,181.7813 160.1094,181.7813 C158.0625,181.7813 156.7656,180.6875 156.7656,178.9844 L156.7656,177.8906 C156.7656,176.1094 158.0156,174.7969 159.75,174.7969 C160.3281,174.7969 160.9375,174.9531 161.4063,175.2031 C161.8906,175.4844 162.0625,175.7031 162.1563,176.1094 C162.2188,176.5156 162.25,176.6406 162.3906,176.7656 C162.5313,176.9063 162.7656,177.0156 162.9844,177.0156 C163.25,177.0156 163.5156,176.875 163.6875,176.6563 C163.7969,176.5 163.8281,176.3125 163.8281,175.8906 L163.8281,174.4688 C163.8281,174.0313 163.8125,173.9063 163.7188,173.75 C163.5625,173.4844 163.2813,173.3438 162.9844,173.3438 C162.6875,173.3438 162.4844,173.4375 162.2656,173.75 L162.0938,173.6719 Z " fill="#000000"/><text fill="#000000" font-family="sans-serif" font-size="12" lengthAdjust="spacing" textLength="82" x="180.25" y="182.1543">PlayController</text><line style="stroke:#A80036;stroke-width:1.5;" x1="33" x2="377" y1="194" y2="194"/><line style="stroke:#A80036;stroke-width:1.5;" x1="33" x2="377" y1="202" y2="202"/><ellipse cx="43" cy="213" fill="#84BE84" rx="3" ry="3" style="stroke:#038048;stroke-width:1.0;"/><text fill="#000000" font-family="sans-serif" font-size="11" lengthAdjust="spacing" textLength="184" x="52" y="216.2104">areAllTokensOnBoard(): boolean</text><ellipse cx="43" cy="225.8047" fill="#84BE84" rx="3" ry="3" style="stroke:#038048;stroke-width:1.0;"/><text fill="#000000" font-family="sans-serif" font-size="11" lengthAdjust="spacing" textLength="123" x="52" y="229.0151">putToken(Coordinate)</text><ellipse cx="43" cy="238.6094" fill="#84BE84" rx="3" ry="3" style="stroke:#038048;stroke-width:1.0;"/><text fill="#000000" font-family="sans-serif" font-size="11" lengthAdjust="spacing" textLength="200" x="52" y="241.8198">getPutTokenError(Coordinate): Error</text><ellipse cx="43" cy="251.4141" fill="#84BE84" rx="3" ry="3" style="stroke:#038048;stroke-width:1.0;"/><text fill="#000000" font-family="sans-serif" font-size="11" lengthAdjust="spacing" textLength="207" x="52" y="254.6245">moveToken(Coordinate, Coordinate)</text><ellipse cx="43" cy="264.2188" fill="#84BE84" rx="3" ry="3" style="stroke:#038048;stroke-width:1.0;"/><text fill="#000000" font-family="sans-serif" font-size="11" lengthAdjust="spacing" textLength="247" x="52" y="267.4292">getOriginMoveTokenError(Coordinate): Error</text><ellipse cx="43" cy="277.0234" fill="#84BE84" rx="3" ry="3" style="stroke:#038048;stroke-width:1.0;"/><text fill="#000000" font-family="sans-serif" font-size="11" lengthAdjust="spacing" textLength="320" x="52" y="280.2339">getTargetMoveTokenError(Coordinate, Coordinate): Error</text><ellipse cx="43" cy="289.8281" fill="#84BE84" rx="3" ry="3" style="stroke:#038048;stroke-width:1.0;"/><text fill="#000000" font-family="sans-serif" font-size="11" lengthAdjust="spacing" textLength="34" x="52" y="293.0386">next()</text><ellipse cx="43" cy="302.6328" fill="#84BE84" rx="3" ry="3" style="stroke:#038048;stroke-width:1.0;"/><text fill="#000000" font-family="sans-serif" font-size="11" lengthAdjust="spacing" textLength="128" x="52" y="305.8433">getActiveColor(): Color</text><ellipse cx="43" cy="315.4375" fill="#84BE84" rx="3" ry="3" style="stroke:#038048;stroke-width:1.0;"/><text fill="#000000" font-family="sans-serif" font-size="11" lengthAdjust="spacing" textLength="128" x="52" y="318.6479">isTicTacToe(): boolean</text><!--MD5=[12e816d8ac45337d932400bf96e6eca7]
class controllers.ResumeController--><rect codeLine="22" fill="#FEFECE" filter="url(#fhk6y0mj29vdz)" height="60.8047" id="controllers.ResumeController" style="stroke:#A80036;stroke-width:1.5;" width="139" x="413.5" y="213"/><ellipse cx="428.5" cy="229" fill="#ADD1B2" rx="11" ry="11" style="stroke:#A80036;stroke-width:1.0;"/><path d="M430.8438,224.6719 C429.9063,224.2344 429.3125,224.0938 428.4375,224.0938 C425.8125,224.0938 423.8125,226.1719 423.8125,228.8906 L423.8125,230.0156 C423.8125,232.5938 425.9219,234.4844 428.8125,234.4844 C430.0313,234.4844 431.1875,234.1875 431.9375,233.6406 C432.5156,233.2344 432.8438,232.7813 432.8438,232.3906 C432.8438,231.9375 432.4531,231.5469 431.9844,231.5469 C431.7656,231.5469 431.5625,231.625 431.375,231.8125 C430.9219,232.2969 430.9219,232.2969 430.7344,232.3906 C430.3125,232.6563 429.625,232.7813 428.8594,232.7813 C426.8125,232.7813 425.5156,231.6875 425.5156,229.9844 L425.5156,228.8906 C425.5156,227.1094 426.7656,225.7969 428.5,225.7969 C429.0781,225.7969 429.6875,225.9531 430.1563,226.2031 C430.6406,226.4844 430.8125,226.7031 430.9063,227.1094 C430.9688,227.5156 431,227.6406 431.1406,227.7656 C431.2813,227.9063 431.5156,228.0156 431.7344,228.0156 C432,228.0156 432.2656,227.875 432.4375,227.6563 C432.5469,227.5 432.5781,227.3125 432.5781,226.8906 L432.5781,225.4688 C432.5781,225.0313 432.5625,224.9063 432.4688,224.75 C432.3125,224.4844 432.0313,224.3438 431.7344,224.3438 C431.4375,224.3438 431.2344,224.4375 431.0156,224.75 L430.8438,224.6719 Z " fill="#000000"/><text fill="#000000" font-family="sans-serif" font-size="12" lengthAdjust="spacing" textLength="107" x="442.5" y="233.1543">ResumeController</text><line style="stroke:#A80036;stroke-width:1.5;" x1="414.5" x2="551.5" y1="245" y2="245"/><line style="stroke:#A80036;stroke-width:1.5;" x1="414.5" x2="551.5" y1="253" y2="253"/><ellipse cx="424.5" cy="264" fill="#84BE84" rx="3" ry="3" style="stroke:#038048;stroke-width:1.0;"/><text fill="#000000" font-family="sans-serif" font-size="11" lengthAdjust="spacing" textLength="38" x="433.5" y="267.2104">reset()</text><!--MD5=[1ca606ade29448d66bff39c3ca169238]
class controllers.StartController--><rect codeLine="26" fill="#FEFECE" filter="url(#fhk6y0mj29vdz)" height="48" id="controllers.StartController" style="stroke:#A80036;stroke-width:1.5;" width="119" x="587.5" y="219.5"/><ellipse cx="602.5" cy="235.5" fill="#ADD1B2" rx="11" ry="11" style="stroke:#A80036;stroke-width:1.0;"/><path d="M604.8438,231.1719 C603.9063,230.7344 603.3125,230.5938 602.4375,230.5938 C599.8125,230.5938 597.8125,232.6719 597.8125,235.3906 L597.8125,236.5156 C597.8125,239.0938 599.9219,240.9844 602.8125,240.9844 C604.0313,240.9844 605.1875,240.6875 605.9375,240.1406 C606.5156,239.7344 606.8438,239.2813 606.8438,238.8906 C606.8438,238.4375 606.4531,238.0469 605.9844,238.0469 C605.7656,238.0469 605.5625,238.125 605.375,238.3125 C604.9219,238.7969 604.9219,238.7969 604.7344,238.8906 C604.3125,239.1563 603.625,239.2813 602.8594,239.2813 C600.8125,239.2813 599.5156,238.1875 599.5156,236.4844 L599.5156,235.3906 C599.5156,233.6094 600.7656,232.2969 602.5,232.2969 C603.0781,232.2969 603.6875,232.4531 604.1563,232.7031 C604.6406,232.9844 604.8125,233.2031 604.9063,233.6094 C604.9688,234.0156 605,234.1406 605.1406,234.2656 C605.2813,234.4063 605.5156,234.5156 605.7344,234.5156 C606,234.5156 606.2656,234.375 606.4375,234.1563 C606.5469,234 606.5781,233.8125 606.5781,233.3906 L606.5781,231.9688 C606.5781,231.5313 606.5625,231.4063 606.4688,231.25 C606.3125,230.9844 606.0313,230.8438 605.7344,230.8438 C605.4375,230.8438 605.2344,230.9375 605.0156,231.25 L604.8438,231.1719 Z " fill="#000000"/><text fill="#000000" font-family="sans-serif" font-size="12" lengthAdjust="spacing" textLength="87" x="616.5" y="239.6543">StartController</text><line style="stroke:#A80036;stroke-width:1.5;" x1="588.5" x2="705.5" y1="251.5" y2="251.5"/><line style="stroke:#A80036;stroke-width:1.5;" x1="588.5" x2="705.5" y1="259.5" y2="259.5"/><!--MD5=[8c7d7abc12e214c3cc12c9ab70edee11]
class Coordinate--><rect codeLine="1" fill="#FEFECE" filter="url(#fhk6y0mj29vdz)" height="53.9375" id="Coordinate" style="stroke:#A80036;stroke-width:1.5;" width="98" x="742" y="216.5"/><ellipse cx="757" cy="235.4688" fill="#ADD1B2" rx="11" ry="11" style="stroke:#A80036;stroke-width:1.0;"/><path d="M759.3438,231.1406 C758.4063,230.7031 757.8125,230.5625 756.9375,230.5625 C754.3125,230.5625 752.3125,232.6406 752.3125,235.3594 L752.3125,236.4844 C752.3125,239.0625 754.4219,240.9531 757.3125,240.9531 C758.5313,240.9531 759.6875,240.6563 760.4375,240.1094 C761.0156,239.7031 761.3438,239.25 761.3438,238.8594 C761.3438,238.4063 760.9531,238.0156 760.4844,238.0156 C760.2656,238.0156 760.0625,238.0938 759.875,238.2813 C759.4219,238.7656 759.4219,238.7656 759.2344,238.8594 C758.8125,239.125 758.125,239.25 757.3594,239.25 C755.3125,239.25 754.0156,238.1563 754.0156,236.4531 L754.0156,235.3594 C754.0156,233.5781 755.2656,232.2656 757,232.2656 C757.5781,232.2656 758.1875,232.4219 758.6563,232.6719 C759.1406,232.9531 759.3125,233.1719 759.4063,233.5781 C759.4688,233.9844 759.5,234.1094 759.6406,234.2344 C759.7813,234.375 760.0156,234.4844 760.2344,234.4844 C760.5,234.4844 760.7656,234.3438 760.9375,234.125 C761.0469,233.9688 761.0781,233.7813 761.0781,233.3594 L761.0781,231.9375 C761.0781,231.5 761.0625,231.375 760.9688,231.2188 C760.8125,230.9531 760.5313,230.8125 760.2344,230.8125 C759.9375,230.8125 759.7344,230.9063 759.5156,231.2188 L759.3438,231.1406 Z " fill="#000000"/><text fill="#000000" font-family="sans-serif" font-size="12" lengthAdjust="spacing" textLength="37" x="785.5" y="232.6387">types.</text><text fill="#000000" font-family="sans-serif" font-size="12" lengthAdjust="spacing" textLength="66" x="771" y="246.6074">Coordinate</text><line style="stroke:#A80036;stroke-width:1.5;" x1="743" x2="839" y1="254.4375" y2="254.4375"/><line style="stroke:#A80036;stroke-width:1.5;" x1="743" x2="839" y1="262.4375" y2="262.4375"/><!--MD5=[18eee71c88ab61f27581b8cbdd3ef5ee]
class Color--><rect codeLine="2" fill="#FEFECE" filter="url(#fhk6y0mj29vdz)" height="53.9375" id="Color" style="stroke:#A80036;stroke-width:1.5;" width="69" x="875.5" y="216.5"/><ellipse cx="890.5" cy="235.4688" fill="#EB937F" rx="11" ry="11" style="stroke:#A80036;stroke-width:1.0;"/><path d="M889.2969,236.3438 L890.75,236.3438 L890.75,236.4531 C890.75,236.8594 890.7813,237.0156 890.8594,237.1719 C891.0156,237.4219 891.2969,237.5781 891.5938,237.5781 C891.8438,237.5781 892.1094,237.4375 892.2656,237.2188 C892.3906,237.0625 892.4219,236.9063 892.4219,236.4531 L892.4219,234.5313 C892.4219,234.375 892.4219,234.3281 892.4063,234.1719 C892.3438,233.7031 892.0313,233.3906 891.5781,233.3906 C891.3281,233.3906 891.0625,233.5313 890.8906,233.75 C890.7813,233.9219 890.75,234.0781 890.75,234.5313 L890.75,234.6563 L889.2969,234.6563 L889.2969,232.25 L893.2813,232.25 L893.2813,233.1094 C893.2813,233.5156 893.3125,233.6875 893.3906,233.8438 C893.5625,234.0938 893.8438,234.25 894.125,234.25 C894.3906,234.25 894.6563,234.1094 894.8281,233.8906 C894.9375,233.7188 894.9688,233.5781 894.9688,233.1094 L894.9688,230.5625 L887.3438,230.5625 C886.9063,230.5625 886.7813,230.5781 886.625,230.6719 C886.375,230.8281 886.2188,231.125 886.2188,231.4063 C886.2188,231.6875 886.3594,231.9375 886.5781,232.1094 C886.7344,232.2188 886.9219,232.25 887.3438,232.25 L887.5938,232.25 L887.5938,238.7656 L887.3438,238.7656 C886.9375,238.7656 886.7813,238.7813 886.625,238.8906 C886.375,239.0625 886.2188,239.3281 886.2188,239.625 C886.2188,239.8906 886.3594,240.1406 886.5781,240.2969 C886.7188,240.4219 886.9531,240.4688 887.3438,240.4688 L895.3438,240.4688 L895.3438,237.8906 C895.3438,237.4531 895.3125,237.3125 895.2344,237.1563 C895.0625,236.9063 894.7813,236.75 894.5,236.75 C894.2344,236.75 893.9688,236.8594 893.7969,237.1094 C893.6875,237.2656 893.6563,237.4063 893.6563,237.8906 L893.6563,238.7656 L889.2969,238.7656 L889.2969,236.3438 Z " fill="#000000"/><text fill="#000000" font-family="sans-serif" font-size="12" lengthAdjust="spacing" textLength="37" x="904.5" y="232.6387">types.</text><text fill="#000000" font-family="sans-serif" font-size="12" lengthAdjust="spacing" textLength="32" x="907" y="246.6074">Color</text><line style="stroke:#A80036;stroke-width:1.5;" x1="876.5" x2="943.5" y1="254.4375" y2="254.4375"/><line style="stroke:#A80036;stroke-width:1.5;" x1="876.5" x2="943.5" y1="262.4375" y2="262.4375"/><!--MD5=[b8cfd8c4119a3b0a7a46bfc5fc780f85]
class Error--><rect codeLine="3" fill="#FEFECE" filter="url(#fhk6y0mj29vdz)" height="53.9375" id="Error" style="stroke:#A80036;stroke-width:1.5;" width="69" x="170.5" y="385"/><ellipse cx="185.5" cy="403.9688" fill="#EB937F" rx="11" ry="11" style="stroke:#A80036;stroke-width:1.0;"/><path d="M184.2969,404.8438 L185.75,404.8438 L185.75,404.9531 C185.75,405.3594 185.7813,405.5156 185.8594,405.6719 C186.0156,405.9219 186.2969,406.0781 186.5938,406.0781 C186.8438,406.0781 187.1094,405.9375 187.2656,405.7188 C187.3906,405.5625 187.4219,405.4063 187.4219,404.9531 L187.4219,403.0313 C187.4219,402.875 187.4219,402.8281 187.4063,402.6719 C187.3438,402.2031 187.0313,401.8906 186.5781,401.8906 C186.3281,401.8906 186.0625,402.0313 185.8906,402.25 C185.7813,402.4219 185.75,402.5781 185.75,403.0313 L185.75,403.1563 L184.2969,403.1563 L184.2969,400.75 L188.2813,400.75 L188.2813,401.6094 C188.2813,402.0156 188.3125,402.1875 188.3906,402.3438 C188.5625,402.5938 188.8438,402.75 189.125,402.75 C189.3906,402.75 189.6563,402.6094 189.8281,402.3906 C189.9375,402.2188 189.9688,402.0781 189.9688,401.6094 L189.9688,399.0625 L182.3438,399.0625 C181.9063,399.0625 181.7813,399.0781 181.625,399.1719 C181.375,399.3281 181.2188,399.625 181.2188,399.9063 C181.2188,400.1875 181.3594,400.4375 181.5781,400.6094 C181.7344,400.7188 181.9219,400.75 182.3438,400.75 L182.5938,400.75 L182.5938,407.2656 L182.3438,407.2656 C181.9375,407.2656 181.7813,407.2813 181.625,407.3906 C181.375,407.5625 181.2188,407.8281 181.2188,408.125 C181.2188,408.3906 181.3594,408.6406 181.5781,408.7969 C181.7188,408.9219 181.9531,408.9688 182.3438,408.9688 L190.3438,408.9688 L190.3438,406.3906 C190.3438,405.9531 190.3125,405.8125 190.2344,405.6563 C190.0625,405.4063 189.7813,405.25 189.5,405.25 C189.2344,405.25 188.9688,405.3594 188.7969,405.6094 C188.6875,405.7656 188.6563,405.9063 188.6563,406.3906 L188.6563,407.2656 L184.2969,407.2656 L184.2969,404.8438 Z " fill="#000000"/><text fill="#000000" font-family="sans-serif" font-size="12" lengthAdjust="spacing" textLength="37" x="199.5" y="401.1387">types.</text><text fill="#000000" font-family="sans-serif" font-size="12" lengthAdjust="spacing" textLength="30" x="203" y="415.1074">Error</text><line style="stroke:#A80036;stroke-width:1.5;" x1="171.5" x2="238.5" y1="422.9375" y2="422.9375"/><line style="stroke:#A80036;stroke-width:1.5;" x1="171.5" x2="238.5" y1="430.9375" y2="430.9375"/><!--MD5=[b6dcce5e5ef3c84b0b048d11301373dd]
class Game--><rect codeLine="4" fill="#FEFECE" filter="url(#fhk6y0mj29vdz)" height="53.9375" id="Game" style="stroke:#A80036;stroke-width:1.5;" width="80" x="980" y="216.5"/><ellipse cx="995" cy="235.4688" fill="#ADD1B2" rx="11" ry="11" style="stroke:#A80036;stroke-width:1.0;"/><path d="M997.3438,231.1406 C996.4063,230.7031 995.8125,230.5625 994.9375,230.5625 C992.3125,230.5625 990.3125,232.6406 990.3125,235.3594 L990.3125,236.4844 C990.3125,239.0625 992.4219,240.9531 995.3125,240.9531 C996.5313,240.9531 997.6875,240.6563 998.4375,240.1094 C999.0156,239.7031 999.3438,239.25 999.3438,238.8594 C999.3438,238.4063 998.9531,238.0156 998.4844,238.0156 C998.2656,238.0156 998.0625,238.0938 997.875,238.2813 C997.4219,238.7656 997.4219,238.7656 997.2344,238.8594 C996.8125,239.125 996.125,239.25 995.3594,239.25 C993.3125,239.25 992.0156,238.1563 992.0156,236.4531 L992.0156,235.3594 C992.0156,233.5781 993.2656,232.2656 995,232.2656 C995.5781,232.2656 996.1875,232.4219 996.6563,232.6719 C997.1406,232.9531 997.3125,233.1719 997.4063,233.5781 C997.4688,233.9844 997.5,234.1094 997.6406,234.2344 C997.7813,234.375 998.0156,234.4844 998.2344,234.4844 C998.5,234.4844 998.7656,234.3438 998.9375,234.125 C999.0469,233.9688 999.0781,233.7813 999.0781,233.3594 L999.0781,231.9375 C999.0781,231.5 999.0625,231.375 998.9688,231.2188 C998.8125,230.9531 998.5313,230.8125 998.2344,230.8125 C997.9375,230.8125 997.7344,230.9063 997.5156,231.2188 L997.3438,231.1406 Z " fill="#000000"/><text fill="#000000" font-family="sans-serif" font-size="12" lengthAdjust="spacing" textLength="48" x="1009" y="232.6387">models.</text><text fill="#000000" font-family="sans-serif" font-size="12" lengthAdjust="spacing" textLength="35" x="1015.5" y="246.6074">Game</text><line style="stroke:#A80036;stroke-width:1.5;" x1="981" x2="1059" y1="254.4375" y2="254.4375"/><line style="stroke:#A80036;stroke-width:1.5;" x1="981" x2="1059" y1="262.4375" y2="262.4375"/><!--MD5=[ef8c05d66c4b2b1e5a781c7196559dad]
reverse link controllers.Controller to controllers.StartController--><path codeLine="31" d="M625.703,121.816 C631.384,154.012 638.539,194.553 642.939,219.49 " fill="none" id="controllers.Controller-backto-controllers.StartController" style="stroke:#A80036;stroke-width:1.0;"/><polygon fill="none" points="618.808,123.024,622.226,102.112,632.595,120.591,618.808,123.024" style="stroke:#A80036;stroke-width:1.0;"/><!--MD5=[cd97b32f8cd0eecd774161c5480ca0be]
reverse link controllers.Controller to controllers.PlayController--><path codeLine="32" d="M524.409,109.66 C484.805,125.641 438.083,144.611 396,162 C390.097,164.439 384.094,166.927 378.034,169.445 " fill="none" id="controllers.Controller-backto-controllers.PlayController" style="stroke:#A80036;stroke-width:1.0;"/><polygon fill="none" points="522.061,103.059,543.227,102.074,527.295,116.044,522.061,103.059" style="stroke:#A80036;stroke-width:1.0;"/><!--MD5=[8b121a2dc1d192ba5b71e05f14e3e1fc]
reverse link controllers.Controller to controllers.ResumeController--><path codeLine="33" d="M581.259,117.843 C557.496,147.99 526.973,186.713 506.298,212.943 " fill="none" id="controllers.Controller-backto-controllers.ResumeController" style="stroke:#A80036;stroke-width:1.0;"/><polygon fill="none" points="575.781,113.486,593.659,102.112,586.776,122.152,575.781,113.486" style="stroke:#A80036;stroke-width:1.0;"/><!--MD5=[8ad6b98c80c2e8d67861489acf1dc191]
link controllers.Controller to Coordinate--><path codeLine="35" d="M655.137,102.101 C675.938,118.876 701.709,140.714 723,162 C738.61,177.607 754.611,196.384 767.167,211.876 " fill="none" id="controllers.Controller-to-Coordinate" style="stroke:#A80036;stroke-width:1.0;stroke-dasharray:7.0,7.0;"/><polygon fill="#A80036" points="770.613,216.154,768.0798,206.6365,767.4754,212.261,761.851,211.6566,770.613,216.154" style="stroke:#A80036;stroke-width:1.0;"/><!--MD5=[b94aa1a75f93d3abca94b07c4d13e11c]
link controllers.Controller to Game--><path codeLine="36" d="M707.18,79.001 C781.172,88.081 885.784,109.843 962,162 C980.191,174.449 994.689,194.567 1004.64,211.577 " fill="none" id="controllers.Controller-to-Game" style="stroke:#A80036;stroke-width:1.0;"/><polygon fill="#A80036" points="1007.32,216.283,1006.3354,206.4835,1004.8427,211.9399,999.3863,210.4472,1007.32,216.283" style="stroke:#A80036;stroke-width:1.0;"/><!--MD5=[2137a72d437bf538c060bbbb6b1da85a]
link controllers.Controller to Color--><path codeLine="37" d="M707.268,91.306 C755.781,104.829 814.407,127.005 858,162 C874.485,175.233 887.415,195.16 896.259,211.876 " fill="none" id="controllers.Controller-to-Color" style="stroke:#A80036;stroke-width:1.0;stroke-dasharray:7.0,7.0;"/><polygon fill="#A80036" points="898.644,216.498,898.0711,206.6658,896.351,212.0548,890.962,210.3347,898.644,216.498" style="stroke:#A80036;stroke-width:1.0;"/><!--MD5=[7ea9d56df08d1b80398b18ec4b9e65d2]
link controllers.PlayController to Error--><path codeLine="38" d="M205,325.311 C205,344.6658 205,364.1961 205,379.7131 " fill="none" id="controllers.PlayController-to-Error" style="stroke:#A80036;stroke-width:1.0;stroke-dasharray:7.0,7.0;"/><polygon fill="#A80036" points="205,384.8155,209,375.8155,205,379.8155,201,375.8155,205,384.8155" style="stroke:#A80036;stroke-width:1.0;"/><!--MD5=[6ef49b6cc8aa4c96594df3552bfe86e2]
@startuml
class Coordinate as "types.\nCoordinate"
enum Color as "types.\nColor"
enum Error as "types.\nError"
class Game as "models.\nGame"

abstract class  controllers.Controller{
    + getColor(Coordinate): Color
}

class  controllers.PlayController{
    +areAllTokensOnBoard(): boolean
    +putToken(Coordinate)
    +getPutTokenError(Coordinate): Error
    +moveToken(Coordinate, Coordinate)
    +getOriginMoveTokenError(Coordinate): Error
    +getTargetMoveTokenError(Coordinate, Coordinate): Error
    +next()
    +getActiveColor(): Color
    +isTicTacToe(): boolean
}

class  controllers.ResumeController{
    +reset()
}

class  controllers.StartController{

}


controllers.Controller <|- - controllers.StartController
controllers.Controller <|- - controllers.PlayController
controllers.Controller <|- - controllers.ResumeController

controllers.Controller .down.> Coordinate
controllers.Controller - -> Game
controllers.Controller ..> Color
controllers.PlayController .down.> Error
@enduml

PlantUML version 1.2021.4beta1(Unknown compile time)
(GPL source distribution)
Java Runtime: Java(TM) SE Runtime Environment
JVM: Java HotSpot(TM) 64-Bit Server VM
Default Encoding: UTF-8
Language: en
Country: US
--></g></svg>