<?xml version="1.0" encoding="UTF-8" standalone="no"?><svg xmlns="http://www.w3.org/2000/svg" xmlns:xlink="http://www.w3.org/1999/xlink" contentScriptType="application/ecmascript" contentStyleType="text/css" height="361px" preserveAspectRatio="none" style="width:282px;height:361px;" version="1.1" viewBox="0 0 282 361" width="282px" zoomAndPan="magnify"><defs><filter height="300%" id="ffjseuwp7ohfx" width="300%" x="-1" y="-1"><feGaussianBlur result="blurOut" stdDeviation="2.0"/><feColorMatrix in="blurOut" result="blurOut2" type="matrix" values="0 0 0 0 0 0 0 0 0 0 0 0 0 0 0 0 0 0 .4 0"/><feOffset dx="4.0" dy="4.0" in="blurOut2" result="blurOut3"/><feBlend in="SourceGraphic" in2="blurOut3" mode="normal"/></filter></defs><g><!--MD5=[67cd15ce44b6dd54f77054b62c31bf42]
cluster types--><polygon fill="#FFFFFF" filter="url(#ffjseuwp7ohfx)" points="16,6,67,6,74,28.2969,265,28.2969,265,354,16,354,16,6" style="stroke:#000000;stroke-width:1.5;"/><line style="stroke:#000000;stroke-width:1.5;" x1="16" x2="74" y1="28.2969" y2="28.2969"/><text fill="#000000" font-family="sans-serif" font-size="14" font-weight="bold" lengthAdjust="spacing" textLength="45" x="20" y="20.9951">types</text><!--MD5=[fbe1d668a1c0e7c27042fe6ad7304dc0]
class types.Coordinate--><rect codeLine="3" fill="#FEFECE" filter="url(#ffjseuwp7ohfx)" height="73.6094" id="types.Coordinate" style="stroke:#A80036;stroke-width:1.5;" width="114" x="32" y="60"/><ellipse cx="54.2" cy="76" fill="#ADD1B2" rx="11" ry="11" style="stroke:#A80036;stroke-width:1.0;"/><path d="M56.5438,71.6719 C55.6063,71.2344 55.0125,71.0938 54.1375,71.0938 C51.5125,71.0938 49.5125,73.1719 49.5125,75.8906 L49.5125,77.0156 C49.5125,79.5938 51.6219,81.4844 54.5125,81.4844 C55.7313,81.4844 56.8875,81.1875 57.6375,80.6406 C58.2156,80.2344 58.5438,79.7813 58.5438,79.3906 C58.5438,78.9375 58.1531,78.5469 57.6844,78.5469 C57.4656,78.5469 57.2625,78.625 57.075,78.8125 C56.6219,79.2969 56.6219,79.2969 56.4344,79.3906 C56.0125,79.6563 55.325,79.7813 54.5594,79.7813 C52.5125,79.7813 51.2156,78.6875 51.2156,76.9844 L51.2156,75.8906 C51.2156,74.1094 52.4656,72.7969 54.2,72.7969 C54.7781,72.7969 55.3875,72.9531 55.8563,73.2031 C56.3406,73.4844 56.5125,73.7031 56.6063,74.1094 C56.6688,74.5156 56.7,74.6406 56.8406,74.7656 C56.9813,74.9063 57.2156,75.0156 57.4344,75.0156 C57.7,75.0156 57.9656,74.875 58.1375,74.6563 C58.2469,74.5 58.2781,74.3125 58.2781,73.8906 L58.2781,72.4688 C58.2781,72.0313 58.2625,71.9063 58.1688,71.75 C58.0125,71.4844 57.7313,71.3438 57.4344,71.3438 C57.1375,71.3438 56.9344,71.4375 56.7156,71.75 L56.5438,71.6719 Z " fill="#000000"/><text fill="#000000" font-family="sans-serif" font-size="12" lengthAdjust="spacing" textLength="66" x="69.8" y="80.1543">Coordinate</text><line style="stroke:#A80036;stroke-width:1.5;" x1="33" x2="145" y1="92" y2="92"/><line style="stroke:#A80036;stroke-width:1.5;" x1="33" x2="145" y1="100" y2="100"/><polygon fill="#FFFF44" points="43,106,47,110,43,114,39,110" style="stroke:#B38D22;stroke-width:1.0;"/><text fill="#000000" font-family="sans-serif" font-size="11" lengthAdjust="spacing" textLength="88" x="52" y="114.2104">getDimension()</text><ellipse cx="43" cy="123.8047" fill="#84BE84" rx="3" ry="3" style="stroke:#038048;stroke-width:1.0;"/><text fill="#000000" font-family="sans-serif" font-size="11" lengthAdjust="spacing" textLength="83" x="52" y="127.0151">equals(Object)</text><!--MD5=[e88a50b03f092bdcaf627b677de9be1f]
class types.Color--><rect codeLine="8" fill="#FEFECE" filter="url(#ffjseuwp7ohfx)" height="112.0234" id="types.Color" style="stroke:#A80036;stroke-width:1.5;" width="67" x="181.5" y="41"/><ellipse cx="197.85" cy="57" fill="#EB937F" rx="11" ry="11" style="stroke:#A80036;stroke-width:1.0;"/><path d="M196.6469,57.875 L198.1,57.875 L198.1,57.9844 C198.1,58.3906 198.1313,58.5469 198.2094,58.7031 C198.3656,58.9531 198.6469,59.1094 198.9438,59.1094 C199.1938,59.1094 199.4594,58.9688 199.6156,58.75 C199.7406,58.5938 199.7719,58.4375 199.7719,57.9844 L199.7719,56.0625 C199.7719,55.9063 199.7719,55.8594 199.7563,55.7031 C199.6938,55.2344 199.3813,54.9219 198.9281,54.9219 C198.6781,54.9219 198.4125,55.0625 198.2406,55.2813 C198.1313,55.4531 198.1,55.6094 198.1,56.0625 L198.1,56.1875 L196.6469,56.1875 L196.6469,53.7813 L200.6313,53.7813 L200.6313,54.6406 C200.6313,55.0469 200.6625,55.2188 200.7406,55.375 C200.9125,55.625 201.1938,55.7813 201.475,55.7813 C201.7406,55.7813 202.0063,55.6406 202.1781,55.4219 C202.2875,55.25 202.3188,55.1094 202.3188,54.6406 L202.3188,52.0938 L194.6938,52.0938 C194.2563,52.0938 194.1313,52.1094 193.975,52.2031 C193.725,52.3594 193.5688,52.6563 193.5688,52.9375 C193.5688,53.2188 193.7094,53.4688 193.9281,53.6406 C194.0844,53.75 194.2719,53.7813 194.6938,53.7813 L194.9438,53.7813 L194.9438,60.2969 L194.6938,60.2969 C194.2875,60.2969 194.1313,60.3125 193.975,60.4219 C193.725,60.5938 193.5688,60.8594 193.5688,61.1563 C193.5688,61.4219 193.7094,61.6719 193.9281,61.8281 C194.0688,61.9531 194.3031,62 194.6938,62 L202.6938,62 L202.6938,59.4219 C202.6938,58.9844 202.6625,58.8438 202.5844,58.6875 C202.4125,58.4375 202.1313,58.2813 201.85,58.2813 C201.5844,58.2813 201.3188,58.3906 201.1469,58.6406 C201.0375,58.7969 201.0063,58.9375 201.0063,59.4219 L201.0063,60.2969 L196.6469,60.2969 L196.6469,57.875 Z " fill="#000000"/><text fill="#000000" font-family="sans-serif" font-size="12" lengthAdjust="spacing" textLength="32" x="212.15" y="61.1543">Color</text><line style="stroke:#A80036;stroke-width:1.5;" x1="182.5" x2="247.5" y1="73" y2="73"/><text fill="#000000" font-family="sans-serif" font-size="11" lengthAdjust="spacing" textLength="17" x="201.5" y="87.2104">+X</text><text fill="#000000" font-family="sans-serif" font-size="11" lengthAdjust="spacing" textLength="18" x="201.5" y="100.0151">+O</text><ellipse cx="192.5" cy="109.6094" rx="3" ry="3" style="stroke:#038048;stroke-width:1.0;fill:none;"/><text fill="#000000" font-family="sans-serif" font-size="11" lengthAdjust="spacing" textLength="28" x="201.5" y="112.8198">NULL</text><line style="stroke:#A80036;stroke-width:1.5;" x1="182.5" x2="247.5" y1="119.4141" y2="119.4141"/><ellipse cx="192.5" cy="130.4141" fill="#84BE84" rx="3" ry="3" style="stroke:#038048;stroke-width:1.0;"/><text fill="#000000" font-family="sans-serif" font-size="11" lengthAdjust="spacing" textLength="41" x="201.5" y="133.6245">get(Int)</text><ellipse cx="192.5" cy="143.2188" fill="#84BE84" rx="3" ry="3" style="stroke:#038048;stroke-width:1.0;"/><text fill="#000000" font-family="sans-serif" font-size="11" lengthAdjust="spacing" textLength="38" x="201.5" y="146.4292">isNull()</text><!--MD5=[f4a9730c613f2e33f7b8bab243e5b8e5]
class types.Error--><rect codeLine="16" fill="#FEFECE" filter="url(#ffjseuwp7ohfx)" height="124.8281" id="types.Error" style="stroke:#A80036;stroke-width:1.5;" width="159" x="32.5" y="213"/><ellipse cx="92.75" cy="229" fill="#EB937F" rx="11" ry="11" style="stroke:#A80036;stroke-width:1.0;"/><path d="M91.5469,229.875 L93,229.875 L93,229.9844 C93,230.3906 93.0313,230.5469 93.1094,230.7031 C93.2656,230.9531 93.5469,231.1094 93.8438,231.1094 C94.0938,231.1094 94.3594,230.9688 94.5156,230.75 C94.6406,230.5938 94.6719,230.4375 94.6719,229.9844 L94.6719,228.0625 C94.6719,227.9063 94.6719,227.8594 94.6563,227.7031 C94.5938,227.2344 94.2813,226.9219 93.8281,226.9219 C93.5781,226.9219 93.3125,227.0625 93.1406,227.2813 C93.0313,227.4531 93,227.6094 93,228.0625 L93,228.1875 L91.5469,228.1875 L91.5469,225.7813 L95.5313,225.7813 L95.5313,226.6406 C95.5313,227.0469 95.5625,227.2188 95.6406,227.375 C95.8125,227.625 96.0938,227.7813 96.375,227.7813 C96.6406,227.7813 96.9063,227.6406 97.0781,227.4219 C97.1875,227.25 97.2188,227.1094 97.2188,226.6406 L97.2188,224.0938 L89.5938,224.0938 C89.1563,224.0938 89.0313,224.1094 88.875,224.2031 C88.625,224.3594 88.4688,224.6563 88.4688,224.9375 C88.4688,225.2188 88.6094,225.4688 88.8281,225.6406 C88.9844,225.75 89.1719,225.7813 89.5938,225.7813 L89.8438,225.7813 L89.8438,232.2969 L89.5938,232.2969 C89.1875,232.2969 89.0313,232.3125 88.875,232.4219 C88.625,232.5938 88.4688,232.8594 88.4688,233.1563 C88.4688,233.4219 88.6094,233.6719 88.8281,233.8281 C88.9688,233.9531 89.2031,234 89.5938,234 L97.5938,234 L97.5938,231.4219 C97.5938,230.9844 97.5625,230.8438 97.4844,230.6875 C97.3125,230.4375 97.0313,230.2813 96.75,230.2813 C96.4844,230.2813 96.2188,230.3906 96.0469,230.6406 C95.9375,230.7969 95.9063,230.9375 95.9063,231.4219 L95.9063,232.2969 L91.5469,232.2969 L91.5469,229.875 Z " fill="#000000"/><text fill="#000000" font-family="sans-serif" font-size="12" lengthAdjust="spacing" textLength="30" x="113.25" y="233.1543">Error</text><line style="stroke:#A80036;stroke-width:1.5;" x1="33.5" x2="190.5" y1="245" y2="245"/><ellipse cx="43.5" cy="256" rx="3" ry="3" style="stroke:#038048;stroke-width:1.0;fill:none;"/><text fill="#000000" font-family="sans-serif" font-size="11" lengthAdjust="spacing" textLength="66" x="52.5" y="259.2104">NOT_EMPTY</text><ellipse cx="43.5" cy="268.8047" rx="3" ry="3" style="stroke:#038048;stroke-width:1.0;fill:none;"/><text fill="#000000" font-family="sans-serif" font-size="11" lengthAdjust="spacing" textLength="72" x="52.5" y="272.0151">NOT_OWNER</text><ellipse cx="43.5" cy="281.6094" rx="3" ry="3" style="stroke:#038048;stroke-width:1.0;fill:none;"/><text fill="#000000" font-family="sans-serif" font-size="11" lengthAdjust="spacing" textLength="121" x="52.5" y="284.8198">SAME_COORDINATES</text><ellipse cx="43.5" cy="294.4141" rx="3" ry="3" style="stroke:#038048;stroke-width:1.0;fill:none;"/><text fill="#000000" font-family="sans-serif" font-size="11" lengthAdjust="spacing" textLength="133" x="52.5" y="297.6245">WRONG_COORDINATES</text><ellipse cx="43.5" cy="307.2188" rx="3" ry="3" style="stroke:#038048;stroke-width:1.0;fill:none;"/><text fill="#000000" font-family="sans-serif" font-size="11" lengthAdjust="spacing" textLength="28" x="52.5" y="310.4292">NULL</text><line style="stroke:#A80036;stroke-width:1.5;" x1="33.5" x2="190.5" y1="317.0234" y2="317.0234"/><ellipse cx="43.5" cy="328.0234" fill="#84BE84" rx="3" ry="3" style="stroke:#038048;stroke-width:1.0;"/><text fill="#000000" font-family="sans-serif" font-size="11" lengthAdjust="spacing" textLength="38" x="52.5" y="331.2339">isNull()</text><!--MD5=[db4a842cdc949c7b7958a8c15140a76e]
link types.Coordinate to types.Color--><!--MD5=[076156e6f82886af7dd5e93bd4b33197]
link types.Coordinate to types.Error--><!--MD5=[ea8665d6b9a692c600acf77233f0bea8]
@startuml
package types  { }

class  types.Coordinate{
    #getDimension()
    +equals(Object)
}

enum  types.Color{
    +X
    +O
    +NULL
    +get(Int)
    +isNull()
}

enum  types.Error{
    +NOT_EMPTY
    +NOT_OWNER
    +SAME_COORDINATES
    +WRONG_COORDINATES
    +NULL
    +isNull()
}
@enduml

PlantUML version 1.2021.4beta3(Unknown compile time)
(GPL source distribution)
Java Runtime: Java(TM) SE Runtime Environment
JVM: Java HotSpot(TM) 64-Bit Server VM
Default Encoding: UTF-8
Language: en
Country: US
--></g></svg>