<?xml version="1.0" encoding="UTF-8" standalone="no"?><svg xmlns="http://www.w3.org/2000/svg" xmlns:xlink="http://www.w3.org/1999/xlink" contentScriptType="application/ecmascript" contentStyleType="text/css" height="3035px" preserveAspectRatio="none" style="width:848px;height:3035px;background:#FFFFFF;" version="1.1" viewBox="0 0 848 3035" width="848px" zoomAndPan="magnify"><defs><filter height="300%" id="f11n4ql4d6w927" width="300%" x="-1" y="-1"><feGaussianBlur result="blurOut" stdDeviation="2.0"/><feColorMatrix in="blurOut" result="blurOut2" type="matrix" values="0 0 0 0 0 0 0 0 0 0 0 0 0 0 0 0 0 0 .4 0"/><feOffset dx="4.0" dy="4.0" in="blurOut2" result="blurOut3"/><feBlend in="SourceGraphic" in2="blurOut3" mode="normal"/></filter></defs><g><text fill="#000000" font-family="sans-serif" font-size="18" lengthAdjust="spacing" textLength="259" x="288" y="18.6855">Secuencia versiones TicTacToe</text><!--MD5=[36b8a7bbb5f0395ae2e27563f70800ee]
cluster TicTacToe--><rect fill="#FEFECE" filter="url(#f11n4ql4d6w927)" height="2816" rx="12.5" ry="12.5" style="stroke:#A80036;stroke-width:1.5;" width="829" x="7" y="29.6406"/><rect fill="#FFFFFF" height="2782.3906" rx="12.5" ry="12.5" style="stroke:#FFFFFF;stroke-width:1.0;" width="823" x="10" y="60.25"/><line style="stroke:#A80036;stroke-width:1.5;" x1="7" x2="836" y1="57.25" y2="57.25"/><text fill="#000000" font-family="sans-serif" font-size="14" lengthAdjust="spacing" textLength="68" x="387.5" y="48.1738">TicTacToe</text><!--MD5=[f74145dbf3fdef62cf035b6662002a91]
cluster domainModel--><rect fill="#FEFECE" filter="url(#f11n4ql4d6w927)" height="663.5" rx="12.5" ry="12.5" style="stroke:#A80036;stroke-width:1.5;" width="240" x="31" y="73.6406"/><rect fill="#FFFFFF" height="629.8906" rx="12.5" ry="12.5" style="stroke:#FFFFFF;stroke-width:1.0;" width="234" x="34" y="104.25"/><line style="stroke:#A80036;stroke-width:1.5;" x1="31" x2="271" y1="101.25" y2="101.25"/><text fill="#000000" font-family="sans-serif" font-size="14" lengthAdjust="spacing" textLength="84" x="109" y="92.1738">domainModel</text><g id="TicTacToe.modelViewController"><rect fill="#AF9EAF" filter="url(#f11n4ql4d6w927)" height="52.7031" rx="12.5" ry="12.5" style="stroke:#A80036;stroke-width:1.5;" width="149" x="457.5" y="2695.6406"/><line style="stroke:#A80036;stroke-width:1.5;" x1="457.5" x2="606.5" y1="2723.25" y2="2723.25"/><text fill="#000000" font-family="sans-serif" font-size="14" lengthAdjust="spacing" textLength="129" x="467.5" y="2715.1738">modelViewController</text><text fill="#000000" font-family="sans-serif" font-size="12" lengthAdjust="spacing" textLength="99" x="462.5" y="2740.707">Baile de la Triada.</text></g><ellipse cx="532" cy="2819.6406" filter="url(#f11n4ql4d6w927)" rx="10" ry="10" style="stroke:#000000;stroke-width:1.0;fill:none;"/><ellipse cx="532.5" cy="2820.1406" fill="#000000" rx="6" ry="6" style="stroke:none;stroke-width:1.0;"/><rect fill="#FEFECE" filter="url(#f11n4ql4d6w927)" height="685.6094" rx="12.5" ry="12.5" style="stroke:#A80036;stroke-width:1.5;" width="530" x="290" y="336.6406"/><rect fill="#FFFFFF" height="652" rx="12.5" ry="12.5" style="stroke:#FFFFFF;stroke-width:1.0;" width="524" x="293" y="367.25"/><line style="stroke:#A80036;stroke-width:1.5;" x1="290" x2="820" y1="364.25" y2="364.25"/><text fill="#000000" font-family="sans-serif" font-size="14" lengthAdjust="spacing" textLength="91" x="509.5" y="356.1738">documentView</text><ellipse cx="497.5" cy="385.25" fill="#000000" filter="url(#f11n4ql4d6w927)" rx="10" ry="10" style="stroke:none;stroke-width:1.0;"/><g id="TicTacToe.documentView.dv.withPrototype"><rect fill="#ECEA58" filter="url(#f11n4ql4d6w927)" height="82.8906" rx="12.5" ry="12.5" style="stroke:#A80036;stroke-width:1.5;" width="179" x="302" y="765.25"/><line style="stroke:#A80036;stroke-width:1.5;" x1="302" x2="481" y1="792.8594" y2="792.8594"/><text fill="#000000" font-family="sans-serif" font-size="14" lengthAdjust="spacing" textLength="104" x="339.5" y="784.7832">dv.withPrototype</text><text fill="#000000" font-family="sans-serif" font-size="12" lengthAdjust="spacing" textLength="159" x="307" y="810.3164">Desacoplar modelos y vistas</text><text fill="#000000" font-family="sans-serif" font-size="12" lengthAdjust="spacing" textLength="140" x="307" y="825.4102">de las clases empleando</text><text fill="#000000" font-family="sans-serif" font-size="12" lengthAdjust="spacing" textLength="102" x="307" y="840.5039">el patrón Prototype</text></g><g id="TicTacToe.documentView.dv.withDoubleDispatching"><rect fill="#ECEA58" filter="url(#f11n4ql4d6w927)" height="82.8906" rx="12.5" ry="12.5" style="stroke:#A80036;stroke-width:1.5;" width="182" x="406.5" y="548.25"/><line style="stroke:#A80036;stroke-width:1.5;" x1="406.5" x2="588.5" y1="575.8594" y2="575.8594"/><text fill="#000000" font-family="sans-serif" font-size="14" lengthAdjust="spacing" textLength="162" x="416.5" y="567.7832">dv.withDoubleDispatching</text><text fill="#000000" font-family="sans-serif" font-size="12" lengthAdjust="spacing" textLength="159" x="411.5" y="593.3164">Desacoplar modelos y vistas</text><text fill="#000000" font-family="sans-serif" font-size="12" lengthAdjust="spacing" textLength="140" x="411.5" y="608.4102">de las clases empleando</text><text fill="#000000" font-family="sans-serif" font-size="12" lengthAdjust="spacing" textLength="144" x="411.5" y="623.5039">el patrón Doble Despacho</text></g><g id="TicTacToe.documentView.dv.basic"><rect fill="#AF9EAF" filter="url(#f11n4ql4d6w927)" height="97.9844" rx="12.5" ry="12.5" style="stroke:#A80036;stroke-width:1.5;" width="227" x="534" y="432.25"/><line style="stroke:#A80036;stroke-width:1.5;" x1="534" x2="761" y1="459.8594" y2="459.8594"/><text fill="#000000" font-family="sans-serif" font-size="14" lengthAdjust="spacing" textLength="52" x="621.5" y="451.7832">dv.basic</text><text fill="#000000" font-family="sans-serif" font-size="12" lengthAdjust="spacing" textLength="189" x="539" y="477.3164">Clases Vistas de Texto separadas</text><text fill="#000000" font-family="sans-serif" font-size="12" lengthAdjust="spacing" textLength="205" x="539" y="492.4102">de los Modelos del Dominio pero con</text><text fill="#000000" font-family="sans-serif" font-size="12" lengthAdjust="spacing" textLength="177" x="539" y="507.5039">Modelos de grano grueso con el</text><text fill="#000000" font-family="sans-serif" font-size="12" lengthAdjust="spacing" textLength="207" x="539" y="522.5977">advenimiento de nueva funcionalidad.</text></g><g id="TicTacToe.documentView.withoutFactoryMethod"><rect fill="#58ECEB" filter="url(#f11n4ql4d6w927)" height="97.9844" rx="12.5" ry="12.5" style="stroke:#A80036;stroke-width:1.5;" width="263" x="529" y="649.25"/><line style="stroke:#A80036;stroke-width:1.5;" x1="529" x2="792" y1="676.8594" y2="676.8594"/><text fill="#000000" font-family="sans-serif" font-size="14" lengthAdjust="spacing" textLength="139" x="591" y="668.7832">withoutFactoryMethod</text><text fill="#000000" font-family="sans-serif" font-size="12" lengthAdjust="spacing" textLength="235" x="534" y="694.3164">Clase Vistas de Interfaz Gráfica de Usuario</text><text fill="#000000" font-family="sans-serif" font-size="12" lengthAdjust="spacing" textLength="214" x="534" y="709.4102">pero con DRY en Vistas de tecnologías</text><text fill="#000000" font-family="sans-serif" font-size="12" lengthAdjust="spacing" textLength="230" x="534" y="724.5039">diferentes y con Modelos de grano grueso</text><text fill="#000000" font-family="sans-serif" font-size="12" lengthAdjust="spacing" textLength="243" x="534" y="739.5977">con el advenimiento de nueva funcionalidad.</text></g><g id="TicTacToe.documentView.withFactoryMethod"><rect fill="#58ECEB" filter="url(#f11n4ql4d6w927)" height="82.8906" rx="12.5" ry="12.5" style="stroke:#A80036;stroke-width:1.5;" width="279" x="525" y="866.25"/><line style="stroke:#A80036;stroke-width:1.5;" x1="525" x2="804" y1="893.8594" y2="893.8594"/><text fill="#000000" font-family="sans-serif" font-size="14" lengthAdjust="spacing" textLength="119" x="605" y="885.7832">withFactoryMethod</text><text fill="#000000" font-family="sans-serif" font-size="12" lengthAdjust="spacing" textLength="255" x="530" y="911.3164">Clase Vista abstracta para Open/Close de sus</text><text fill="#000000" font-family="sans-serif" font-size="12" lengthAdjust="spacing" textLength="259" x="530" y="926.4102">tecnologías pero con Modelos de grano grueso</text><text fill="#000000" font-family="sans-serif" font-size="12" lengthAdjust="spacing" textLength="243" x="530" y="941.5039">con el advenimiento de nueva funcionalidad.</text></g><ellipse cx="496.5" cy="996.25" filter="url(#f11n4ql4d6w927)" rx="10" ry="10" style="stroke:#000000;stroke-width:1.0;fill:none;"/><ellipse cx="497" cy="996.75" fill="#000000" rx="6" ry="6" style="stroke:none;stroke-width:1.0;"/><!--MD5=[15ace671faa81f2e260d5baaef884969]
link *start*documentView to dv.withPrototype--><path d="M491.75,393.44 C474.75,415.18 424.71,482.76 405.5,548.25 C384.48,619.9 384.9,707.47 387.76,759.82 " fill="none" id="*start*documentView-to-dv.withPrototype" style="stroke:#A80036;stroke-width:1.0;"/><polygon fill="#A80036" points="388.06,765.09,391.54,755.8765,387.7748,760.0981,383.5531,756.3329,388.06,765.09" style="stroke:#A80036;stroke-width:1.0;"/><!--MD5=[ce9ea9c685ac8b0dffcb77ef0583b518]
link *start*documentView to dv.withDoubleDispatching--><path d="M497.5,395.48 C497.5,421.08 497.5,494.34 497.5,542.94 " fill="none" id="*start*documentView-to-dv.withDoubleDispatching" style="stroke:#A80036;stroke-width:1.0;"/><polygon fill="#A80036" points="497.5,548.15,501.5,539.15,497.5,543.15,493.5,539.15,497.5,548.15" style="stroke:#A80036;stroke-width:1.0;"/><!--MD5=[69c00737c6cb8ae32fbd056dfd1d69c8]
link *start*documentView to dv.basic--><path d="M505.56,391.3 C517.59,398.84 541.47,413.8 566.26,429.34 " fill="none" id="*start*documentView-to-dv.basic" style="stroke:#A80036;stroke-width:1.0;"/><polygon fill="#A80036" points="570.57,432.04,565.0654,423.873,566.3324,429.3862,560.8193,430.6532,570.57,432.04" style="stroke:#A80036;stroke-width:1.0;"/><!--MD5=[9da31d68880a689a2cbecbe91d77e283]
link dv.basic to withoutFactoryMethod--><path d="M650.42,530.5 C652.46,564.25 655.18,609.33 657.29,644.11 " fill="none" id="dv.basic-to-withoutFactoryMethod" style="stroke:#A80036;stroke-width:1.0;"/><polygon fill="#A80036" points="657.59,649.16,661.0175,639.9268,657.2763,644.1698,653.0333,640.4287,657.59,649.16" style="stroke:#A80036;stroke-width:1.0;"/><text fill="#000000" font-family="sans-serif" font-size="13" lengthAdjust="spacing" textLength="143" x="657.5" y="595.2451">Mantenimiento perfectivo</text><!--MD5=[44919ee33113429d6b1c37cc254a4500]
link withoutFactoryMethod to withFactoryMethod--><path d="M661.43,747.38 C662.09,781.58 662.97,827.24 663.62,860.92 " fill="none" id="withoutFactoryMethod-to-withFactoryMethod" style="stroke:#A80036;stroke-width:1.0;"/><polygon fill="#A80036" points="663.72,866.22,667.5651,857.1528,663.6343,861.2207,659.5663,857.2899,663.72,866.22" style="stroke:#A80036;stroke-width:1.0;"/><text fill="#000000" font-family="sans-serif" font-size="13" lengthAdjust="spacing" textLength="144" x="664.5" y="812.2451">Mantenimiento correctivo</text><!--MD5=[afced52fc33ca989fa2a69a45c542e03]
link withFactoryMethod to *end*documentView--><path d="M585.42,949.47 C556.42,964.4 526.64,979.73 509.96,988.32 " fill="none" id="withFactoryMethod-to-*end*documentView" style="stroke:#A80036;stroke-width:1.0;"/><polygon fill="#A80036" points="505.22,990.76,515.0529,990.1996,509.6661,988.4726,511.3931,983.0858,505.22,990.76" style="stroke:#A80036;stroke-width:1.0;"/><!--MD5=[fd86ecf3806e4c55a90eaa758ecd55ce]
link dv.withPrototype to *end*documentView--><path d="M414.28,848.43 C438.13,891.02 474.18,955.39 489.36,982.5 " fill="none" id="dv.withPrototype-to-*end*documentView" style="stroke:#A80036;stroke-width:1.0;"/><polygon fill="#A80036" points="491.94,987.11,491.0414,977.3022,489.5009,982.7453,484.0578,981.2048,491.94,987.11" style="stroke:#A80036;stroke-width:1.0;"/><!--MD5=[39f9814dc1398f8574a7f5b58df72865]
link dv.withDoubleDispatching to *end*documentView--><path d="M497.4,631.39 C497.18,719.52 496.67,924.8 496.54,980.88 " fill="none" id="dv.withDoubleDispatching-to-*end*documentView" style="stroke:#A80036;stroke-width:1.0;"/><polygon fill="#A80036" points="496.52,986.11,500.5457,977.1215,496.5343,981.11,492.5457,977.0986,496.52,986.11" style="stroke:#A80036;stroke-width:1.0;"/><rect fill="#FEFECE" filter="url(#f11n4ql4d6w927)" height="1550.6094" rx="12.5" ry="12.5" style="stroke:#A80036;stroke-width:1.5;" width="575.5" x="244" y="1083.6406"/><rect fill="#FFFFFF" height="1517" rx="12.5" ry="12.5" style="stroke:#FFFFFF;stroke-width:1.0;" width="569.5" x="247" y="1114.25"/><line style="stroke:#A80036;stroke-width:1.5;" x1="244" x2="819.5" y1="1111.25" y2="1111.25"/><text fill="#000000" font-family="sans-serif" font-size="14" lengthAdjust="spacing" textLength="129" x="467.25" y="1103.1738">modelViewPresenter</text><ellipse cx="472" cy="1132.25" fill="#000000" filter="url(#f11n4ql4d6w927)" rx="10" ry="10" style="stroke:none;stroke-width:1.0;"/><g id="TicTacToe.modelViewPresenter.passiveView"><rect fill="#AF9EAF" filter="url(#f11n4ql4d6w927)" height="52.7031" rx="12.5" ry="12.5" style="stroke:#A80036;stroke-width:1.5;" width="119" x="368.5" y="1178.25"/><line style="stroke:#A80036;stroke-width:1.5;" x1="368.5" x2="487.5" y1="1205.8594" y2="1205.8594"/><text fill="#000000" font-family="sans-serif" font-size="14" lengthAdjust="spacing" textLength="77" x="389.5" y="1197.7832">passiveView</text><text fill="#000000" font-family="sans-serif" font-size="12" lengthAdjust="spacing" textLength="99" x="373.5" y="1223.3164">Baile de la Triada.</text></g><ellipse cx="472" cy="2608.25" filter="url(#f11n4ql4d6w927)" rx="10" ry="10" style="stroke:#000000;stroke-width:1.0;fill:none;"/><ellipse cx="472.5" cy="2608.75" fill="#000000" rx="6" ry="6" style="stroke:none;stroke-width:1.0;"/><g id="TicTacToe.modelViewPresenter.supervisorController"><rect fill="#AF9EAF" filter="url(#f11n4ql4d6w927)" height="52.7031" rx="12.5" ry="12.5" style="stroke:#A80036;stroke-width:1.5;" width="148" x="256" y="1888.25"/><line style="stroke:#A80036;stroke-width:1.5;" x1="256" x2="404" y1="1915.8594" y2="1915.8594"/><text fill="#000000" font-family="sans-serif" font-size="14" lengthAdjust="spacing" textLength="128" x="266" y="1907.7832">supervisorController</text><text fill="#000000" font-family="sans-serif" font-size="12" lengthAdjust="spacing" textLength="99" x="261" y="1933.3164">Baile de la Triada.</text></g><rect fill="#FEFECE" filter="url(#f11n4ql4d6w927)" height="1295.3125" rx="12.5" ry="12.5" style="stroke:#A80036;stroke-width:1.5;" width="383" x="422.5" y="1267.25"/><rect fill="#FFFFFF" height="1261.7031" rx="12.5" ry="12.5" style="stroke:#FFFFFF;stroke-width:1.0;" width="377" x="425.5" y="1297.8594"/><line style="stroke:#A80036;stroke-width:1.5;" x1="422.5" x2="805.5" y1="1294.8594" y2="1294.8594"/><text fill="#000000" font-family="sans-serif" font-size="14" lengthAdjust="spacing" textLength="117" x="555.5" y="1286.7832">presentationModel</text><ellipse cx="612" cy="1315.8594" fill="#000000" filter="url(#f11n4ql4d6w927)" rx="10" ry="10" style="stroke:none;stroke-width:1.0;"/><g id="TicTacToe.modelViewPresenter.presentationModel.pm.basic"><rect fill="#58ECEB" filter="url(#f11n4ql4d6w927)" height="82.8906" rx="12.5" ry="12.5" style="stroke:#A80036;stroke-width:1.5;" width="301" x="461.5" y="1361.8594"/><line style="stroke:#A80036;stroke-width:1.5;" x1="461.5" x2="762.5" y1="1389.4688" y2="1389.4688"/><text fill="#000000" font-family="sans-serif" font-size="14" lengthAdjust="spacing" textLength="56" x="584" y="1381.3926">pm.basic</text><text fill="#000000" font-family="sans-serif" font-size="12" lengthAdjust="spacing" textLength="269" x="466.5" y="1406.9258">Clases Controladoras entre Vistas y Modelos por</text><text fill="#000000" font-family="sans-serif" font-size="12" lengthAdjust="spacing" textLength="279" x="466.5" y="1422.0195">cada Caso de Uso pero con la clase Principal y las</text><text fill="#000000" font-family="sans-serif" font-size="12" lengthAdjust="spacing" textLength="281" x="466.5" y="1437.1133">Vistas acopladas a cada controlador actual y futuro.</text></g><g id="TicTacToe.modelViewPresenter.presentationModel.withFacade"><rect fill="#58ECEB" filter="url(#f11n4ql4d6w927)" height="67.7969" rx="12.5" ry="12.5" style="stroke:#A80036;stroke-width:1.5;" width="318" x="453" y="1480.8594"/><line style="stroke:#A80036;stroke-width:1.5;" x1="453" x2="771" y1="1508.4688" y2="1508.4688"/><text fill="#000000" font-family="sans-serif" font-size="14" lengthAdjust="spacing" textLength="72" x="576" y="1500.3926">withFacade</text><text fill="#000000" font-family="sans-serif" font-size="12" lengthAdjust="spacing" textLength="298" x="458" y="1525.9258">Clase Lógica que encapsula Controladores y Modelos</text><text fill="#000000" font-family="sans-serif" font-size="12" lengthAdjust="spacing" textLength="269" x="458" y="1541.0195">pero con Vistas con DRY en la Lógica de Control.</text></g><g id="TicTacToe.modelViewPresenter.presentationModel.withoutDoubleDispatching"><rect fill="#58ECEB" filter="url(#f11n4ql4d6w927)" height="82.8906" rx="12.5" ry="12.5" style="stroke:#A80036;stroke-width:1.5;" width="303" x="460.5" y="1584.8594"/><line style="stroke:#A80036;stroke-width:1.5;" x1="460.5" x2="763.5" y1="1612.4688" y2="1612.4688"/><text fill="#000000" font-family="sans-serif" font-size="14" lengthAdjust="spacing" textLength="163" x="530.5" y="1604.3926">withoutDoubleDispatching</text><text fill="#000000" font-family="sans-serif" font-size="12" lengthAdjust="spacing" textLength="283" x="465.5" y="1629.9258">Clase Estado para la Inversión de Control de Vistas</text><text fill="#000000" font-family="sans-serif" font-size="12" lengthAdjust="spacing" textLength="282" x="465.5" y="1645.0195">a la Lógica pero violando el Principio de Sustitución</text><text fill="#000000" font-family="sans-serif" font-size="12" lengthAdjust="spacing" textLength="55" x="465.5" y="1660.1133">de Liskov.</text></g><g id="TicTacToe.modelViewPresenter.presentationModel.withDoubleDispatching"><rect fill="#58ECEB" filter="url(#f11n4ql4d6w927)" height="67.7969" rx="12.5" ry="12.5" style="stroke:#A80036;stroke-width:1.5;" width="274" x="475" y="1703.8594"/><line style="stroke:#A80036;stroke-width:1.5;" x1="475" x2="749" y1="1731.4688" y2="1731.4688"/><text fill="#000000" font-family="sans-serif" font-size="14" lengthAdjust="spacing" textLength="143" x="540.5" y="1723.3926">withDoubleDispatching</text><text fill="#000000" font-family="sans-serif" font-size="12" lengthAdjust="spacing" textLength="254" x="480" y="1748.9258">Clase Vistador de Controladores para Técnica</text><text fill="#000000" font-family="sans-serif" font-size="12" lengthAdjust="spacing" textLength="110" x="480" y="1764.0195">de Doble Despacho</text></g><g id="TicTacToe.modelViewPresenter.presentationModel.withComposite"><rect fill="#D80732" filter="url(#f11n4ql4d6w927)" height="82.8906" rx="12.5" ry="12.5" style="stroke:#A80036;stroke-width:1.5;" width="310" x="457" y="1807.8594"/><line style="stroke:#A80036;stroke-width:1.5;" x1="457" x2="767" y1="1835.4688" y2="1835.4688"/><text fill="#000000" font-family="sans-serif" font-size="14" lengthAdjust="spacing" textLength="91" x="566.5" y="1827.3926">withComposite</text><text fill="#000000" font-family="sans-serif" font-size="12" lengthAdjust="spacing" textLength="290" x="462" y="1852.9258">Clase Comando del menú y Controlador Compuesto</text><text fill="#000000" font-family="sans-serif" font-size="12" lengthAdjust="spacing" textLength="200" x="462" y="1868.0195">de ciertos Estados para Open/Close</text><text fill="#000000" font-family="sans-serif" font-size="12" lengthAdjust="spacing" textLength="149" x="462" y="1883.1133">con nuevos Casos de Uso.</text></g><g id="TicTacToe.modelViewPresenter.presentationModel.withoutProxy"><rect fill="#8958EC" filter="url(#f11n4ql4d6w927)" height="82.8906" rx="12.5" ry="12.5" style="stroke:#A80036;stroke-width:1.5;" width="311" x="456.5" y="1926.8594"/><line style="stroke:#A80036;stroke-width:1.5;" x1="456.5" x2="767.5" y1="1954.4688" y2="1954.4688"/><text fill="#000000" font-family="sans-serif" font-size="14" lengthAdjust="spacing" textLength="79" x="572.5" y="1946.3926">withoutProxy</text><text fill="#000000" font-family="sans-serif" font-size="12" lengthAdjust="spacing" textLength="246" x="461.5" y="1971.9258">Clase TCP/IP para tecnología de Despliegue</text><text fill="#000000" font-family="sans-serif" font-size="12" lengthAdjust="spacing" textLength="291" x="461.5" y="1987.0195">pero con Controladores acoplados, poco cohesivos y</text><text fill="#000000" font-family="sans-serif" font-size="12" lengthAdjust="spacing" textLength="226" x="461.5" y="2002.1133">grano grueso con cada nueva tecnología.</text></g><g id="TicTacToe.modelViewPresenter.presentationModel.withProxy"><rect fill="#8958EC" filter="url(#f11n4ql4d6w927)" height="67.7969" rx="12.5" ry="12.5" style="stroke:#A80036;stroke-width:1.5;" width="260" x="482" y="2045.8594"/><line style="stroke:#A80036;stroke-width:1.5;" x1="482" x2="742" y1="2073.4688" y2="2073.4688"/><text fill="#000000" font-family="sans-serif" font-size="14" lengthAdjust="spacing" textLength="59" x="582.5" y="2065.3926">withProxy</text><text fill="#000000" font-family="sans-serif" font-size="12" lengthAdjust="spacing" textLength="240" x="487" y="2090.9258">Clases Proxy para Open/Close para nuevas</text><text fill="#000000" font-family="sans-serif" font-size="12" lengthAdjust="spacing" textLength="151" x="487" y="2106.0195">tecnologías de Despliegue.</text></g><g id="TicTacToe.modelViewPresenter.presentationModel.withoutDAO"><rect fill="#EC9B58" filter="url(#f11n4ql4d6w927)" height="97.9844" rx="12.5" ry="12.5" style="stroke:#A80036;stroke-width:1.5;" width="303" x="460.5" y="2149.8594"/><line style="stroke:#A80036;stroke-width:1.5;" x1="460.5" x2="763.5" y1="2177.4688" y2="2177.4688"/><text fill="#000000" font-family="sans-serif" font-size="14" lengthAdjust="spacing" textLength="74" x="575" y="2169.3926">withoutDAO</text><text fill="#000000" font-family="sans-serif" font-size="12" lengthAdjust="spacing" textLength="268" x="465.5" y="2194.9258">Clases Vistas y Controladores para la tecnología</text><text fill="#000000" font-family="sans-serif" font-size="12" lengthAdjust="spacing" textLength="283" x="465.5" y="2210.0195">de persistencia pero con Modelos de grano grueso,</text><text fill="#000000" font-family="sans-serif" font-size="12" lengthAdjust="spacing" textLength="264" x="465.5" y="2225.1133">baja cohesión y alto acoplamiento a tecnologías</text><text fill="#000000" font-family="sans-serif" font-size="12" lengthAdjust="spacing" textLength="152" x="465.5" y="2240.207">de persistencia de ficheros.</text></g><g id="TicTacToe.modelViewPresenter.presentationModel.withDAO"><rect fill="#EC9B58" filter="url(#f11n4ql4d6w927)" height="52.7031" rx="12.5" ry="12.5" style="stroke:#A80036;stroke-width:1.5;" width="84" x="570" y="2283.8594"/><line style="stroke:#A80036;stroke-width:1.5;" x1="570" x2="654" y1="2311.4688" y2="2311.4688"/><text fill="#000000" font-family="sans-serif" font-size="14" lengthAdjust="spacing" textLength="54" x="585" y="2303.3926">withDAO</text><text fill="#000000" font-family="sans-serif" font-size="12" lengthAdjust="spacing" textLength="64" x="575" y="2328.9258">Patrón DAO</text></g><g id="TicTacToe.modelViewPresenter.presentationModel.withoutPrototype"><rect fill="#75EC58" filter="url(#f11n4ql4d6w927)" height="82.8906" rx="12.5" ry="12.5" style="stroke:#A80036;stroke-width:1.5;" width="303" x="460.5" y="2372.8594"/><line style="stroke:#A80036;stroke-width:1.5;" x1="460.5" x2="763.5" y1="2400.4688" y2="2400.4688"/><text fill="#000000" font-family="sans-serif" font-size="14" lengthAdjust="spacing" textLength="105" x="559.5" y="2392.3926">withoutPrototype</text><text fill="#000000" font-family="sans-serif" font-size="12" lengthAdjust="spacing" textLength="260" x="465.5" y="2417.9258">Nuevas Vistas y DAOS para la nueva tecnología</text><text fill="#000000" font-family="sans-serif" font-size="12" lengthAdjust="spacing" textLength="283" x="465.5" y="2433.0195">pero con clase Principal acoplada a las tecnologías</text><text fill="#000000" font-family="sans-serif" font-size="12" lengthAdjust="spacing" textLength="187" x="465.5" y="2448.1133">actuales y futuras de persistencia.</text></g><g id="TicTacToe.modelViewPresenter.presentationModel.withPrototype"><rect fill="#75EC58" filter="url(#f11n4ql4d6w927)" height="52.7031" rx="12.5" ry="12.5" style="stroke:#A80036;stroke-width:1.5;" width="355" x="434.5" y="2491.8594"/><line style="stroke:#A80036;stroke-width:1.5;" x1="434.5" x2="789.5" y1="2519.4688" y2="2519.4688"/><text fill="#000000" font-family="sans-serif" font-size="14" lengthAdjust="spacing" textLength="85" x="569.5" y="2511.3926">withPrototype</text><text fill="#000000" font-family="sans-serif" font-size="12" lengthAdjust="spacing" textLength="335" x="439.5" y="2536.9258">Open/Close para arranque con configuración de persistencia</text></g><!--MD5=[40bb2b2387c4a99a3e059e75c42e5117]
link *start*presentationModel to pm.basic--><path d="M612,1326.0094 C612,1333.6194 612,1345.0794 612,1356.8194 " fill="none" id="*start*presentationModel-to-pm.basic" style="stroke:#A80036;stroke-width:1.0;"/><polygon fill="#A80036" points="612,1361.8594,616,1352.8594,612,1356.8594,608,1352.8594,612,1361.8594" style="stroke:#A80036;stroke-width:1.0;"/><!--MD5=[bf9265fad6dc8b66ac377742150884cc]
link pm.basic to withFacade--><path d="M612,1445.1294 C612,1455.0794 612,1465.6794 612,1475.4994 " fill="none" id="pm.basic-to-withFacade" style="stroke:#A80036;stroke-width:1.0;"/><polygon fill="#A80036" points="612,1480.5594,616,1471.5594,612,1475.5594,608,1471.5594,612,1480.5594" style="stroke:#A80036;stroke-width:1.0;"/><!--MD5=[c1c1d019b584ebff9b0ab735b7a104bf]
link withFacade to withoutDoubleDispatching--><path d="M612,1549.0094 C612,1558.5494 612,1569.1394 612,1579.3094 " fill="none" id="withFacade-to-withoutDoubleDispatching" style="stroke:#A80036;stroke-width:1.0;"/><polygon fill="#A80036" points="612,1584.5794,616,1575.5794,612,1579.5794,608,1575.5794,612,1584.5794" style="stroke:#A80036;stroke-width:1.0;"/><!--MD5=[24430434a700be59a4ea8737a590c3a0]
link withoutDoubleDispatching to withDoubleDispatching--><path d="M612,1668.1294 C612,1678.0794 612,1688.6794 612,1698.4994 " fill="none" id="withoutDoubleDispatching-to-withDoubleDispatching" style="stroke:#A80036;stroke-width:1.0;"/><polygon fill="#A80036" points="612,1703.5594,616,1694.5594,612,1698.5594,608,1694.5594,612,1703.5594" style="stroke:#A80036;stroke-width:1.0;"/><!--MD5=[ebde5cb072fda06263765320ca65a72d]
link withDoubleDispatching to withComposite--><path d="M612,1772.0094 C612,1781.5494 612,1792.1394 612,1802.3094 " fill="none" id="withDoubleDispatching-to-withComposite" style="stroke:#A80036;stroke-width:1.0;"/><polygon fill="#A80036" points="612,1807.5794,616,1798.5794,612,1802.5794,608,1798.5794,612,1807.5794" style="stroke:#A80036;stroke-width:1.0;"/><!--MD5=[364a111cbf1770e45fc4a46e4bc788cf]
link withComposite to withoutProxy--><path d="M612,1890.9494 C612,1900.8394 612,1911.4894 612,1921.6094 " fill="none" id="withComposite-to-withoutProxy" style="stroke:#A80036;stroke-width:1.0;"/><polygon fill="#A80036" points="612,1926.8394,616,1917.8394,612,1921.8394,608,1917.8394,612,1926.8394" style="stroke:#A80036;stroke-width:1.0;"/><!--MD5=[804380eee0a20e28f6a7d6f4d409b0b6]
link withoutProxy to withProxy--><path d="M612,2010.1294 C612,2020.0794 612,2030.6794 612,2040.4994 " fill="none" id="withoutProxy-to-withProxy" style="stroke:#A80036;stroke-width:1.0;"/><polygon fill="#A80036" points="612,2045.5594,616,2036.5594,612,2040.5594,608,2036.5594,612,2045.5594" style="stroke:#A80036;stroke-width:1.0;"/><!--MD5=[46c2e9a9cf2ed7ef4643cd90e27fde7d]
link withProxy to withoutDAO--><path d="M612,2114.0694 C612,2123.5994 612,2134.2194 612,2144.6294 " fill="none" id="withProxy-to-withoutDAO" style="stroke:#A80036;stroke-width:1.0;"/><polygon fill="#A80036" points="612,2149.7094,616,2140.7094,612,2144.7094,608,2140.7094,612,2149.7094" style="stroke:#A80036;stroke-width:1.0;"/><!--MD5=[a7820cc3926c5bdf33d2391d2dcbe981]
link withoutDAO to withDAO--><path d="M612,2247.8894 C612,2258.2594 612,2268.9694 612,2278.4794 " fill="none" id="withoutDAO-to-withDAO" style="stroke:#A80036;stroke-width:1.0;"/><polygon fill="#A80036" points="612,2283.6294,616,2274.6294,612,2278.6294,608,2274.6294,612,2283.6294" style="stroke:#A80036;stroke-width:1.0;"/><!--MD5=[7209f87c7d947f14ae6c752067128db0]
link withDAO to withoutPrototype--><path d="M612,2337.0994 C612,2346.3294 612,2357.0394 612,2367.4594 " fill="none" id="withDAO-to-withoutPrototype" style="stroke:#A80036;stroke-width:1.0;"/><polygon fill="#A80036" points="612,2372.5394,616,2363.5394,612,2367.5394,608,2363.5394,612,2372.5394" style="stroke:#A80036;stroke-width:1.0;"/><!--MD5=[800323b8fa4ad14057c5fe01900cd0da]
link withoutPrototype to withPrototype--><path d="M612,2455.9694 C612,2466.1794 612,2476.9894 612,2486.6294 " fill="none" id="withoutPrototype-to-withPrototype" style="stroke:#A80036;stroke-width:1.0;"/><polygon fill="#A80036" points="612,2491.8594,616,2482.8594,612,2486.8594,608,2482.8594,612,2491.8594" style="stroke:#A80036;stroke-width:1.0;"/><!--MD5=[7ae232c2aa7c3544a37d4b082554b4d9]
link *start*modelViewPresenter to presentationModel--><path d="M477.3,1140.83 C483.08,1149.47 492.16,1164.23 497,1178.25 C506.37,1205.4 515,1233.38 522.94,1261.83 " fill="none" id="*start*modelViewPresenter-to-presentationModel" style="stroke:#A80036;stroke-width:1.0;"/><polygon fill="#A80036" points="524.31,1266.78,525.7448,1257.0362,522.9666,1261.9638,518.039,1259.1856,524.31,1266.78" style="stroke:#A80036;stroke-width:1.0;"/><!--MD5=[0d987f3fce24ffc1b78bf8fe0017702d]
link *start*modelViewPresenter to passiveView--><path d="M467.12,1141.06 C462.18,1148.98 454.22,1161.74 446.77,1173.68 " fill="none" id="*start*modelViewPresenter-to-passiveView" style="stroke:#A80036;stroke-width:1.0;"/><polygon fill="#A80036" points="444.05,1178.03,452.212,1172.518,446.7,1173.79,445.428,1168.278,444.05,1178.03" style="stroke:#A80036;stroke-width:1.0;"/><!--MD5=[b934044e609716b7d867b3e269865697]
link presentationModel to *end*modelViewPresenter--><path d="M481.21,2562.41 C478.61,2575.04 476.5,2585.35 474.95,2592.89 " fill="none" id="presentationModel-to-*end*modelViewPresenter" style="stroke:#A80036;stroke-width:1.0;"/><polygon fill="#A80036" points="473.88,2598.11,479.5989,2590.0916,474.8798,2593.211,471.7604,2588.4919,473.88,2598.11" style="stroke:#A80036;stroke-width:1.0;"/><!--MD5=[6b55b9a0b0fb122ca19c9504d85212cd]
link passiveView to supervisorController--><path d="M421.08,1231.35 C418.29,1242.34 415.21,1255.36 413,1267.25 C369.39,1502.3 341.23,1789.67 332.72,1882.95 " fill="none" id="passiveView-to-supervisorController" style="stroke:#A80036;stroke-width:1.0;"/><polygon fill="#A80036" points="332.26,1888.03,337.0651,1879.4328,332.7165,1883.0509,329.0985,1878.7024,332.26,1888.03" style="stroke:#A80036;stroke-width:1.0;"/><!--MD5=[5f857abcd0251df97d4cb98f649baa57]
link supervisorController to *end*modelViewPresenter--><path d="M326.65,1941.38 C315.96,2032.93 290.25,2349.57 413,2562.25 C423.44,2580.34 444.31,2593.56 458.22,2600.83 " fill="none" id="supervisorController-to-*end*modelViewPresenter" style="stroke:#A80036;stroke-width:1.0;"/><polygon fill="#A80036" points="463,2603.23,456.7487,2595.6194,458.5307,2600.9882,453.1619,2602.7702,463,2603.23" style="stroke:#A80036;stroke-width:1.0;"/><ellipse cx="151" cy="119.6406" fill="#000000" filter="url(#f11n4ql4d6w927)" rx="10" ry="10" style="stroke:none;stroke-width:1.0;"/><g id="TicTacToe.domainModel.dm.basic"><rect fill="#AF9EAF" filter="url(#f11n4ql4d6w927)" height="67.7969" rx="12.5" ry="12.5" style="stroke:#A80036;stroke-width:1.5;" width="207" x="47.5" y="190.6406"/><line style="stroke:#A80036;stroke-width:1.5;" x1="47.5" x2="254.5" y1="218.25" y2="218.25"/><text fill="#000000" font-family="sans-serif" font-size="14" lengthAdjust="spacing" textLength="56" x="123" y="210.1738">dm.basic</text><text fill="#000000" font-family="sans-serif" font-size="12" lengthAdjust="spacing" textLength="173" x="52.5" y="235.707">Clases del modelo del dominio</text><text fill="#000000" font-family="sans-serif" font-size="12" lengthAdjust="spacing" textLength="187" x="52.5" y="250.8008">acopladas con interfaz de consola</text></g><g id="TicTacToe.domainModel.dm.machine"><rect fill="#ECEA58" filter="url(#f11n4ql4d6w927)" height="82.8906" rx="12.5" ry="12.5" style="stroke:#A80036;stroke-width:1.5;" width="207" x="47.5" y="638.1406"/><line style="stroke:#A80036;stroke-width:1.5;" x1="47.5" x2="254.5" y1="665.75" y2="665.75"/><text fill="#000000" font-family="sans-serif" font-size="14" lengthAdjust="spacing" textLength="76" x="113" y="657.6738">dm.machine</text><text fill="#000000" font-family="sans-serif" font-size="12" lengthAdjust="spacing" textLength="173" x="52.5" y="683.207">Clases del modelo del dominio</text><text fill="#000000" font-family="sans-serif" font-size="12" lengthAdjust="spacing" textLength="187" x="52.5" y="698.3008">acopladas con interfaz de consola</text><text fill="#000000" font-family="sans-serif" font-size="12" lengthAdjust="spacing" textLength="173" x="52.5" y="713.3945">añadiendo un jugador máquina</text></g><!--MD5=[25c1e2767ff104f9b85cc84ef3eaf8ce]
link *start*domainModel to dm.basic--><path d="M151,129.7806 C151,142.2206 151,165.2306 151,185.3506 " fill="none" id="*start*domainModel-to-dm.basic" style="stroke:#A80036;stroke-width:1.0;"/><polygon fill="#A80036" points="151,190.4006,155,181.4006,151,185.4006,147,181.4006,151,190.4006" style="stroke:#A80036;stroke-width:1.0;"/><!--MD5=[a3a8ee6eba829037268435676db5e40d]
link dm.basic to dm.machine--><path d="M151,258.9506 C151,338.8606 151,541.5806 151,632.8606 " fill="none" id="dm.basic-to-dm.machine" style="stroke:#A80036;stroke-width:1.0;"/><polygon fill="#A80036" points="151,637.9106,155,628.9106,151,632.9106,147,628.9106,151,637.9106" style="stroke:#A80036;stroke-width:1.0;"/><!--MD5=[c042dfc1a72c4746314a0fdf7c3dca11]
link dm.basic to documentView--><path d="M189.23,258.6806 C213.42,280.1406 244.94,309.1406 271,336.6406 C276.07,341.9906 281.15,347.4106 286.25,352.9006 " fill="none" id="dm.basic-to-documentView" style="stroke:#A80036;stroke-width:1.0;"/><polygon fill="#A80036" points="289.78,356.7106,286.5815,347.3956,286.3756,353.0487,280.7224,352.8427,289.78,356.7106" style="stroke:#A80036;stroke-width:1.0;"/><text fill="#000000" font-family="sans-serif" font-size="13" lengthAdjust="spacing" textLength="144" x="240" y="303.1357">Mantenimiento correctivo</text><!--MD5=[183448bff6351d59b7383cbcaa7719a0]
link documentView to modelViewPresenter--><path d="M548.32,1022.8006 C547.96,1040.8806 547.6,1059.3406 547.24,1078.0806 " fill="none" id="documentView-to-modelViewPresenter" style="stroke:#A80036;stroke-width:1.0;"/><polygon fill="#A80036" points="547.13,1083.3806,551.3092,1074.4624,547.23,1078.3816,543.3108,1074.3024,547.13,1083.3806" style="stroke:#A80036;stroke-width:1.0;"/><!--MD5=[ffce595a87410651ea4b2e3f36598386]
link modelViewPresenter to modelViewController--><path d="M532,2634.6406 C532,2657.0906 532,2675.9706 532,2690.3006 " fill="none" id="modelViewPresenter-to-modelViewController" style="stroke:#A80036;stroke-width:1.0;"/><polygon fill="#A80036" points="532,2695.3706,536,2686.3706,532,2690.3706,528,2686.3706,532,2695.3706" style="stroke:#A80036;stroke-width:1.0;"/><!--MD5=[ee3c09f0615b414ac8876dbce7dc0dfb]
link modelViewController to *end*TicTacToe--><path d="M532,2748.7306 C532,2766.4906 532,2789.4906 532,2804.1606 " fill="none" id="modelViewController-to-*end*TicTacToe" style="stroke:#A80036;stroke-width:1.0;"/><polygon fill="#A80036" points="532,2809.5306,536,2800.5306,532,2804.5306,528,2800.5306,532,2809.5306" style="stroke:#A80036;stroke-width:1.0;"/><rect fill="#DDDDDD" height="154.875" rx="5" ry="5" style="stroke:#000000;stroke-width:1.0;" width="201" x="316.5" y="2864.6406"/><text fill="#000000" font-family="sans-serif" font-size="14" font-weight="bold" lengthAdjust="spacing" textLength="177" x="330.5" y="2886.1738">Colores de los requisitos</text><rect fill="#AF9EAF" height="17.6094" style="stroke:none;stroke-width:1.0;" width="189" x="322.5" y="2889.25"/><text fill="#000000" font-family="sans-serif" font-size="14" lengthAdjust="spacing" textLength="42" x="326.5" y="2903.7832">Basica</text><rect fill="#ECEA58" height="17.6094" style="stroke:none;stroke-width:1.0;" width="189" x="322.5" y="2906.8594"/><text fill="#000000" font-family="sans-serif" font-size="14" lengthAdjust="spacing" textLength="53" x="326.5" y="2921.3926">Machine</text><rect fill="#EC9B58" height="17.6094" style="stroke:none;stroke-width:1.0;" width="189" x="322.5" y="2924.4688"/><text fill="#000000" font-family="sans-serif" font-size="14" lengthAdjust="spacing" textLength="55" x="326.5" y="2939.002">Ficheros</text><rect fill="#75EC58" height="17.6094" style="stroke:none;stroke-width:1.0;" width="189" x="322.5" y="2942.0781"/><text fill="#000000" font-family="sans-serif" font-size="14" lengthAdjust="spacing" textLength="69" x="326.5" y="2956.6113">BaseDatos</text><rect fill="#58ECEB" height="17.6094" style="stroke:none;stroke-width:1.0;" width="189" x="322.5" y="2959.6875"/><text fill="#000000" font-family="sans-serif" font-size="14" lengthAdjust="spacing" textLength="53" x="326.5" y="2974.2207">Graficos</text><rect fill="#8958EC" height="17.6094" style="stroke:none;stroke-width:1.0;" width="189" x="322.5" y="2977.2969"/><text fill="#000000" font-family="sans-serif" font-size="14" lengthAdjust="spacing" textLength="101" x="326.5" y="2991.8301">Cliente Servidor</text><rect fill="#D80732" height="17.6094" style="stroke:none;stroke-width:1.0;" width="189" x="322.5" y="2994.9063"/><text fill="#000000" font-family="sans-serif" font-size="14" lengthAdjust="spacing" textLength="67" x="326.5" y="3009.4395">UndoRedo</text><line style="stroke:#000000;stroke-width:1.0;" x1="322.5" x2="511.5" y1="2871.6406" y2="2871.6406"/><line style="stroke:#000000;stroke-width:1.0;" x1="322.5" x2="511.5" y1="2889.25" y2="2889.25"/><line style="stroke:#000000;stroke-width:1.0;" x1="322.5" x2="511.5" y1="2906.8594" y2="2906.8594"/><line style="stroke:#000000;stroke-width:1.0;" x1="322.5" x2="511.5" y1="2924.4688" y2="2924.4688"/><line style="stroke:#000000;stroke-width:1.0;" x1="322.5" x2="511.5" y1="2942.0781" y2="2942.0781"/><line style="stroke:#000000;stroke-width:1.0;" x1="322.5" x2="511.5" y1="2959.6875" y2="2959.6875"/><line style="stroke:#000000;stroke-width:1.0;" x1="322.5" x2="511.5" y1="2977.2969" y2="2977.2969"/><line style="stroke:#000000;stroke-width:1.0;" x1="322.5" x2="511.5" y1="2994.9063" y2="2994.9063"/><line style="stroke:#000000;stroke-width:1.0;" x1="322.5" x2="511.5" y1="3012.5156" y2="3012.5156"/><line style="stroke:#000000;stroke-width:1.0;" x1="322.5" x2="322.5" y1="2871.6406" y2="3012.5156"/><line style="stroke:#000000;stroke-width:1.0;" x1="511.5" x2="511.5" y1="2871.6406" y2="3012.5156"/><!--MD5=[5801204c9009ce0b2c5ed6b2d5405492]
@startuml TicTacToe

title Secuencia versiones TicTacToe

state TicTacToe {

state domainModel {
[*] - -> dm.basic
dm.basic - -> dm.machine
    state dm.basic #AF9EAF: Clases del modelo del dominio\nacopladas con interfaz de consola 

    state dm.machine #ECEA58: Clases del modelo del dominio\nacopladas con interfaz de consola\nañadiendo un jugador máquina
}


state documentView {
[*] - -> dv.withPrototype 
[*] - -> dv.withDoubleDispatching 
    state dv.withPrototype #ECEA58: Desacoplar modelos y vistas\nde las clases empleando\nel patrón Prototype

    state dv.withDoubleDispatching #ECEA58: Desacoplar modelos y vistas\nde las clases empleando\nel patrón Doble Despacho


    [*] - -> dv.basic 
    state dv.basic #AF9EAF: Clases Vistas de Texto separadas\nde los Modelos del Dominio pero con\nModelos de grano grueso con el\nadvenimiento de nueva funcionalidad.

    state withoutFactoryMethod #58ECEB:Clase Vistas de Interfaz Gráfica de Usuario\npero con DRY en Vistas de tecnologías\ndiferentes y con Modelos de grano grueso\ncon el advenimiento de nueva funcionalidad.

    state withFactoryMethod #58ECEB: Clase Vista abstracta para Open/Close de sus\ntecnologías pero con Modelos de grano grueso\ncon el advenimiento de nueva funcionalidad.


    dv.basic - -> withoutFactoryMethod:Mantenimiento perfectivo
    withoutFactoryMethod - -> withFactoryMethod:Mantenimiento correctivo
    withFactoryMethod- ->[*]
    
    dv.withPrototype - ->[*]
    dv.withDoubleDispatching- ->[*]
}

dm.basic - -> documentView:Mantenimiento correctivo
documentView - -> modelViewPresenter


state modelViewPresenter {
    [*] - -> presentationModel
    [*] - -> passiveView
    presentationModel- ->[*]


    state presentationModel {
    [*] - -> pm.basic

    state pm.basic #58ECEB:Clases Controladoras entre Vistas y Modelos por\ncada Caso de Uso pero con la clase Principal y las\nVistas acopladas a cada controlador actual y futuro.

    state withFacade #58ECEB:Clase Lógica que encapsula Controladores y Modelos\npero con Vistas con DRY en la Lógica de Control.

    state withoutDoubleDispatching #58ECEB:Clase Estado para la Inversión de Control de Vistas\na la Lógica pero violando el Principio de Sustitución\nde Liskov.

    state withDoubleDispatching #58ECEB:Clase Vistador de Controladores para Técnica\nde Doble Despacho

    state withComposite #D80732:Clase Comando del menú y Controlador Compuesto\nde ciertos Estados para Open/Close\ncon nuevos Casos de Uso.

    state withoutProxy #8958EC:Clase TCP/IP para tecnología de Despliegue\npero con Controladores acoplados, poco cohesivos y\ngrano grueso con cada nueva tecnología.

    state withProxy #8958EC:Clases Proxy para Open/Close para nuevas\ntecnologías de Despliegue.

    state withoutDAO #EC9B58:Clases Vistas y Controladores para la tecnología\nde persistencia pero con Modelos de grano grueso,\nbaja cohesión y alto acoplamiento a tecnologías\nde persistencia de ficheros.

    state withDAO #EC9B58: Patrón DAO

    state withoutPrototype #75EC58:Nuevas Vistas y DAOS para la nueva tecnología\npero con clase Principal acoplada a las tecnologías\nactuales y futuras de persistencia.

    state withPrototype #75EC58:Open/Close para arranque con configuración de persistencia


    pm.basic - -> withFacade
    withFacade - -> withoutDoubleDispatching
    withoutDoubleDispatching - -> withDoubleDispatching
    withDoubleDispatching - -> withComposite
    withComposite - -> withoutProxy
    withoutProxy - -> withProxy
    withProxy - -> withoutDAO
    withoutDAO - -> withDAO
    withDAO - -> withoutPrototype
    withoutPrototype - -> withPrototype
}

state passiveView #AF9EAF: Baile de la Triada.

state supervisorController #AF9EAF: Baile de la Triada.

passiveView- ->supervisorController
supervisorController- ->[*]
}
modelViewPresenter - -> modelViewController

state modelViewController #AF9EAF: Baile de la Triada.


modelViewController- ->[*]

}
legend
|=  Colores de los requisitos |
|<#AF9EAF> Basica |
|<#ECEA58> Machine |
|<#EC9B58> Ficheros |
|<#75EC58> BaseDatos |
|<#58ECEB> Graficos |
|<#8958EC> Cliente Servidor|
|<#D80732> UndoRedo |
endlegend

@enduml

PlantUML version 1.2021.7(Sun May 23 14:40:07 CEST 2021)
(GPL source distribution)
Java Runtime: Java(TM) SE Runtime Environment
JVM: Java HotSpot(TM) Client VM
Default Encoding: Cp1252
Language: es
Country: ES
--></g></svg>