<?xml version="1.0" encoding="UTF-8" standalone="no"?><svg xmlns="http://www.w3.org/2000/svg" xmlns:xlink="http://www.w3.org/1999/xlink" contentScriptType="application/ecmascript" contentStyleType="text/css" height="887px" preserveAspectRatio="none" style="width:1366px;height:887px;" version="1.1" viewBox="0 0 1366 887" width="1366px" zoomAndPan="magnify"><defs><filter height="300%" id="fcl7merhvkl6u" width="300%" x="-1" y="-1"><feGaussianBlur result="blurOut" stdDeviation="2.0"/><feColorMatrix in="blurOut" result="blurOut2" type="matrix" values="0 0 0 0 0 0 0 0 0 0 0 0 0 0 0 0 0 0 .4 0"/><feOffset dx="4.0" dy="4.0" in="blurOut2" result="blurOut3"/><feBlend in="SourceGraphic" in2="blurOut3" mode="normal"/></filter></defs><g><!--MD5=[a28bb7016f04a6176ed7bd94eda416fd]
cluster usantatecla.tictactoe.views--><polygon fill="#FFFFFF" filter="url(#fcl7merhvkl6u)" points="92.6311,6,327.6311,6,334.6311,28.2969,682.6308,28.2969,682.6308,762,92.6311,762,92.6311,6" style="stroke:#000000;stroke-width:1.5;"/><line style="stroke:#000000;stroke-width:1.5;" x1="92.6311" x2="334.6311" y1="28.2969" y2="28.2969"/><text fill="#000000" font-family="sans-serif" font-size="14" font-weight="bold" lengthAdjust="spacingAndGlyphs" textLength="229" x="96.6311" y="20.9951">usantatecla.tictactoe.views</text><!--MD5=[fde10afb78873198abddb67b7dc7e289]
class usantatecla.tictactoe.views.CoordinateView--><rect codeLine="8" fill="#FEFECE" filter="url(#fcl7merhvkl6u)" height="60.8047" id="usantatecla.tictactoe.views.CoordinateView" style="stroke:#A80036;stroke-width:1.5;" width="162" x="108.6311" y="340.5"/><ellipse cx="139.3811" cy="356.5" fill="#ADD1B2" rx="11" ry="11" style="stroke:#A80036;stroke-width:1.0;"/><path d="M141.7249,352.1719 C140.7874,351.7344 140.1936,351.5938 139.3186,351.5938 C136.6936,351.5938 134.6936,353.6719 134.6936,356.3906 L134.6936,357.5156 C134.6936,360.0938 136.803,361.9844 139.6936,361.9844 C140.9124,361.9844 142.0686,361.6875 142.8186,361.1406 C143.3967,360.7344 143.7249,360.2813 143.7249,359.8906 C143.7249,359.4375 143.3342,359.0469 142.8655,359.0469 C142.6467,359.0469 142.4436,359.125 142.2561,359.3125 C141.803,359.7969 141.803,359.7969 141.6155,359.8906 C141.1936,360.1563 140.5061,360.2813 139.7405,360.2813 C137.6936,360.2813 136.3967,359.1875 136.3967,357.4844 L136.3967,356.3906 C136.3967,354.6094 137.6467,353.2969 139.3811,353.2969 C139.9592,353.2969 140.5686,353.4531 141.0374,353.7031 C141.5217,353.9844 141.6936,354.2031 141.7874,354.6094 C141.8499,355.0156 141.8811,355.1406 142.0217,355.2656 C142.1624,355.4063 142.3967,355.5156 142.6155,355.5156 C142.8811,355.5156 143.1467,355.375 143.3186,355.1563 C143.428,355 143.4592,354.8125 143.4592,354.3906 L143.4592,352.9688 C143.4592,352.5313 143.4436,352.4063 143.3499,352.25 C143.1936,351.9844 142.9124,351.8438 142.6155,351.8438 C142.3186,351.8438 142.1155,351.9375 141.8967,352.25 L141.7249,352.1719 Z " fill="#000000"/><text fill="#000000" font-family="sans-serif" font-size="12" lengthAdjust="spacingAndGlyphs" textLength="95" x="156.8811" y="360.6543">CoordinateView</text><line style="stroke:#A80036;stroke-width:1.5;" x1="109.6311" x2="269.6311" y1="372.5" y2="372.5"/><line style="stroke:#A80036;stroke-width:1.5;" x1="109.6311" x2="269.6311" y1="380.5" y2="380.5"/><ellipse cx="119.6311" cy="391.5" fill="#84BE84" rx="3" ry="3" style="stroke:#038048;stroke-width:1.0;"/><text fill="#000000" font-family="sans-serif" font-size="11" lengthAdjust="spacingAndGlyphs" textLength="136" x="128.6311" y="394.7104">read(String): Coordinate</text><!--MD5=[9f3672d02251c6628f0caf7fed9e62dd]
class usantatecla.tictactoe.views.ErrorView--><rect codeLine="15" fill="#FEFECE" filter="url(#fcl7merhvkl6u)" height="86.4141" id="usantatecla.tictactoe.views.ErrorView" style="stroke:#A80036;stroke-width:1.5;" width="138" x="108.6311" y="564"/><ellipse cx="144.7811" cy="580" fill="#ADD1B2" rx="11" ry="11" style="stroke:#A80036;stroke-width:1.0;"/><path d="M147.1249,575.6719 C146.1874,575.2344 145.5936,575.0938 144.7186,575.0938 C142.0936,575.0938 140.0936,577.1719 140.0936,579.8906 L140.0936,581.0156 C140.0936,583.5938 142.203,585.4844 145.0936,585.4844 C146.3124,585.4844 147.4686,585.1875 148.2186,584.6406 C148.7967,584.2344 149.1249,583.7813 149.1249,583.3906 C149.1249,582.9375 148.7342,582.5469 148.2655,582.5469 C148.0467,582.5469 147.8436,582.625 147.6561,582.8125 C147.203,583.2969 147.203,583.2969 147.0155,583.3906 C146.5936,583.6563 145.9061,583.7813 145.1405,583.7813 C143.0936,583.7813 141.7967,582.6875 141.7967,580.9844 L141.7967,579.8906 C141.7967,578.1094 143.0467,576.7969 144.7811,576.7969 C145.3592,576.7969 145.9686,576.9531 146.4374,577.2031 C146.9217,577.4844 147.0936,577.7031 147.1874,578.1094 C147.2499,578.5156 147.2811,578.6406 147.4217,578.7656 C147.5624,578.9063 147.7967,579.0156 148.0155,579.0156 C148.2811,579.0156 148.5467,578.875 148.7186,578.6563 C148.828,578.5 148.8592,578.3125 148.8592,577.8906 L148.8592,576.4688 C148.8592,576.0313 148.8436,575.9063 148.7499,575.75 C148.5936,575.4844 148.3124,575.3438 148.0155,575.3438 C147.7186,575.3438 147.5155,575.4375 147.2967,575.75 L147.1249,575.6719 Z " fill="#000000"/><text fill="#000000" font-family="sans-serif" font-size="12" lengthAdjust="spacingAndGlyphs" textLength="59" x="163.4811" y="584.1543">ErrorView</text><line style="stroke:#A80036;stroke-width:1.5;" x1="109.6311" x2="245.6311" y1="596" y2="596"/><rect fill="none" height="6" style="stroke:#C82930;stroke-width:1.0;" width="6" x="116.6311" y="604"/><text fill="#000000" font-family="sans-serif" font-size="11" lengthAdjust="spacingAndGlyphs" text-decoration="underline" textLength="112" x="128.6311" y="610.2104">MESSAGES: String[]</text><line style="stroke:#A80036;stroke-width:1.5;" x1="109.6311" x2="245.6311" y1="616.8047" y2="616.8047"/><polygon fill="#4177AF" points="119.6311,623.8047,115.6311,629.8047,123.6311,629.8047" style="stroke:#1963A0;stroke-width:1.0;"/><text fill="#000000" font-family="sans-serif" font-size="11" lengthAdjust="spacingAndGlyphs" textLength="88" x="128.6311" y="631.0151">ErrorView(Error)</text><polygon fill="#4177AF" points="119.6311,636.6094,115.6311,642.6094,123.6311,642.6094" style="stroke:#1963A0;stroke-width:1.0;"/><text fill="#000000" font-family="sans-serif" font-size="11" lengthAdjust="spacingAndGlyphs" textLength="46" x="128.6311" y="643.8198">writeln()</text><!--MD5=[321ae26eaa7b9127c772bf6d0dbc87c2]
class usantatecla.tictactoe.views.BoardView--><rect codeLine="23" fill="#FEFECE" filter="url(#fcl7merhvkl6u)" height="73.6094" id="usantatecla.tictactoe.views.BoardView" style="stroke:#A80036;stroke-width:1.5;" width="130" x="533.6308" y="334"/><ellipse cx="563.4808" cy="350" fill="#ADD1B2" rx="11" ry="11" style="stroke:#A80036;stroke-width:1.0;"/><path d="M565.8246,345.6719 C564.8871,345.2344 564.2933,345.0938 563.4183,345.0938 C560.7933,345.0938 558.7933,347.1719 558.7933,349.8906 L558.7933,351.0156 C558.7933,353.5938 560.9027,355.4844 563.7933,355.4844 C565.0121,355.4844 566.1683,355.1875 566.9183,354.6406 C567.4964,354.2344 567.8246,353.7813 567.8246,353.3906 C567.8246,352.9375 567.4339,352.5469 566.9652,352.5469 C566.7464,352.5469 566.5433,352.625 566.3558,352.8125 C565.9027,353.2969 565.9027,353.2969 565.7152,353.3906 C565.2933,353.6563 564.6058,353.7813 563.8402,353.7813 C561.7933,353.7813 560.4964,352.6875 560.4964,350.9844 L560.4964,349.8906 C560.4964,348.1094 561.7464,346.7969 563.4808,346.7969 C564.0589,346.7969 564.6683,346.9531 565.1371,347.2031 C565.6214,347.4844 565.7933,347.7031 565.8871,348.1094 C565.9496,348.5156 565.9808,348.6406 566.1214,348.7656 C566.2621,348.9063 566.4964,349.0156 566.7152,349.0156 C566.9808,349.0156 567.2464,348.875 567.4183,348.6563 C567.5277,348.5 567.5589,348.3125 567.5589,347.8906 L567.5589,346.4688 C567.5589,346.0313 567.5433,345.9063 567.4496,345.75 C567.2933,345.4844 567.0121,345.3438 566.7152,345.3438 C566.4183,345.3438 566.2152,345.4375 565.9964,345.75 L565.8246,345.6719 Z " fill="#000000"/><text fill="#000000" font-family="sans-serif" font-size="12" lengthAdjust="spacingAndGlyphs" textLength="65" x="580.7808" y="354.1543">BoardView</text><line style="stroke:#A80036;stroke-width:1.5;" x1="534.6308" x2="662.6308" y1="366" y2="366"/><line style="stroke:#A80036;stroke-width:1.5;" x1="534.6308" x2="662.6308" y1="374" y2="374"/><polygon fill="#4177AF" points="544.6308,381,540.6308,387,548.6308,387" style="stroke:#1963A0;stroke-width:1.0;"/><text fill="#000000" font-family="sans-serif" font-size="11" lengthAdjust="spacingAndGlyphs" textLength="104" x="553.6308" y="388.2104">BoardView(Game)</text><polygon fill="#4177AF" points="544.6308,393.8047,540.6308,399.8047,548.6308,399.8047" style="stroke:#1963A0;stroke-width:1.0;"/><text fill="#000000" font-family="sans-serif" font-size="11" lengthAdjust="spacingAndGlyphs" textLength="36" x="553.6308" y="401.0151">write()</text><!--MD5=[a66996a88a04a7646fe7625221d515cb]
class usantatecla.tictactoe.views.Message--><rect codeLine="32" fill="#FEFECE" filter="url(#fcl7merhvkl6u)" height="278.4844" id="usantatecla.tictactoe.views.Message" style="stroke:#A80036;stroke-width:1.5;" width="218" x="281.6308" y="468"/><ellipse cx="358.8808" cy="484" fill="#EB937F" rx="11" ry="11" style="stroke:#A80036;stroke-width:1.0;"/><path d="M357.6777,484.875 L359.1308,484.875 L359.1308,484.9844 C359.1308,485.3906 359.1621,485.5469 359.2402,485.7031 C359.3964,485.9531 359.6777,486.1094 359.9746,486.1094 C360.2246,486.1094 360.4902,485.9688 360.6464,485.75 C360.7714,485.5938 360.8027,485.4375 360.8027,484.9844 L360.8027,483.0625 C360.8027,482.9063 360.8027,482.8594 360.7871,482.7031 C360.7246,482.2344 360.4121,481.9219 359.9589,481.9219 C359.7089,481.9219 359.4433,482.0625 359.2714,482.2813 C359.1621,482.4531 359.1308,482.6094 359.1308,483.0625 L359.1308,483.1875 L357.6777,483.1875 L357.6777,480.7813 L361.6621,480.7813 L361.6621,481.6406 C361.6621,482.0469 361.6933,482.2188 361.7714,482.375 C361.9433,482.625 362.2246,482.7813 362.5058,482.7813 C362.7714,482.7813 363.0371,482.6406 363.2089,482.4219 C363.3183,482.25 363.3496,482.1094 363.3496,481.6406 L363.3496,479.0938 L355.7246,479.0938 C355.2871,479.0938 355.1621,479.1094 355.0058,479.2031 C354.7558,479.3594 354.5996,479.6563 354.5996,479.9375 C354.5996,480.2188 354.7402,480.4688 354.9589,480.6406 C355.1152,480.75 355.3027,480.7813 355.7246,480.7813 L355.9746,480.7813 L355.9746,487.2969 L355.7246,487.2969 C355.3183,487.2969 355.1621,487.3125 355.0058,487.4219 C354.7558,487.5938 354.5996,487.8594 354.5996,488.1563 C354.5996,488.4219 354.7402,488.6719 354.9589,488.8281 C355.0996,488.9531 355.3339,489 355.7246,489 L363.7246,489 L363.7246,486.4219 C363.7246,485.9844 363.6933,485.8438 363.6152,485.6875 C363.4433,485.4375 363.1621,485.2813 362.8808,485.2813 C362.6152,485.2813 362.3496,485.3906 362.1777,485.6406 C362.0683,485.7969 362.0371,485.9375 362.0371,486.4219 L362.0371,487.2969 L357.6777,487.2969 L357.6777,484.875 Z " fill="#000000"/><text fill="#000000" font-family="sans-serif" font-size="12" lengthAdjust="spacingAndGlyphs" textLength="55" x="379.3808" y="488.1543">Message</text><line style="stroke:#A80036;stroke-width:1.5;" x1="282.6308" x2="498.6308" y1="500" y2="500"/><ellipse cx="292.6308" cy="511" fill="none" rx="3" ry="3" style="stroke:#038048;stroke-width:1.0;"/><text fill="#000000" font-family="sans-serif" font-size="11" lengthAdjust="spacingAndGlyphs" textLength="30" x="301.6308" y="514.2104">TITLE</text><ellipse cx="292.6308" cy="523.8047" fill="none" rx="3" ry="3" style="stroke:#038048;stroke-width:1.0;"/><text fill="#000000" font-family="sans-serif" font-size="11" lengthAdjust="spacingAndGlyphs" textLength="102" x="301.6308" y="527.0151">NUMBER_PLAYERS</text><ellipse cx="292.6308" cy="536.6094" fill="none" rx="3" ry="3" style="stroke:#038048;stroke-width:1.0;"/><text fill="#000000" font-family="sans-serif" font-size="11" lengthAdjust="spacingAndGlyphs" textLength="67" x="301.6308" y="539.8198">SEPARATOR</text><ellipse cx="292.6308" cy="549.4141" fill="none" rx="3" ry="3" style="stroke:#038048;stroke-width:1.0;"/><text fill="#000000" font-family="sans-serif" font-size="11" lengthAdjust="spacingAndGlyphs" textLength="116" x="301.6308" y="552.6245">VERTICAL_LINE_LEFT</text><ellipse cx="292.6308" cy="562.2188" fill="none" rx="3" ry="3" style="stroke:#038048;stroke-width:1.0;"/><text fill="#000000" font-family="sans-serif" font-size="11" lengthAdjust="spacingAndGlyphs" textLength="150" x="301.6308" y="565.4292">VERTICAL_LINE_CENTERED</text><ellipse cx="292.6308" cy="575.0234" fill="none" rx="3" ry="3" style="stroke:#038048;stroke-width:1.0;"/><text fill="#000000" font-family="sans-serif" font-size="11" lengthAdjust="spacingAndGlyphs" textLength="124" x="301.6308" y="578.2339">VERTICAL_LINE_RIGHT</text><ellipse cx="292.6308" cy="587.8281" fill="none" rx="3" ry="3" style="stroke:#038048;stroke-width:1.0;"/><text fill="#000000" font-family="sans-serif" font-size="11" lengthAdjust="spacingAndGlyphs" textLength="166" x="301.6308" y="591.0386">ENTER_COORDINATE_TO_PUT</text><ellipse cx="292.6308" cy="600.6328" fill="none" rx="3" ry="3" style="stroke:#038048;stroke-width:1.0;"/><text fill="#000000" font-family="sans-serif" font-size="11" lengthAdjust="spacingAndGlyphs" textLength="192" x="301.6308" y="603.8433">ENTER_COORDINATE_TO_REMOVE</text><ellipse cx="292.6308" cy="613.4375" fill="none" rx="3" ry="3" style="stroke:#038048;stroke-width:1.0;"/><text fill="#000000" font-family="sans-serif" font-size="11" lengthAdjust="spacingAndGlyphs" textLength="124" x="301.6308" y="616.6479">COORDINATE_TO_PUT</text><ellipse cx="292.6308" cy="626.2422" fill="none" rx="3" ry="3" style="stroke:#038048;stroke-width:1.0;"/><text fill="#000000" font-family="sans-serif" font-size="11" lengthAdjust="spacingAndGlyphs" textLength="150" x="301.6308" y="629.4526">COORDINATE_TO_REMOVE</text><ellipse cx="292.6308" cy="639.0469" fill="none" rx="3" ry="3" style="stroke:#038048;stroke-width:1.0;"/><text fill="#000000" font-family="sans-serif" font-size="11" lengthAdjust="spacingAndGlyphs" textLength="136" x="301.6308" y="642.2573">COORDINATE_TO_MOVE</text><ellipse cx="292.6308" cy="651.8516" fill="none" rx="3" ry="3" style="stroke:#038048;stroke-width:1.0;"/><text fill="#000000" font-family="sans-serif" font-size="11" lengthAdjust="spacingAndGlyphs" textLength="69" x="301.6308" y="655.062">PLAYER_WIN</text><ellipse cx="292.6308" cy="664.6563" fill="none" rx="3" ry="3" style="stroke:#038048;stroke-width:1.0;"/><text fill="#000000" font-family="sans-serif" font-size="11" lengthAdjust="spacingAndGlyphs" textLength="46" x="301.6308" y="667.8667">RESUME</text><rect fill="none" height="6" style="stroke:#C82930;stroke-width:1.0;" width="6" x="289.6308" y="674.4609"/><text fill="#000000" font-family="sans-serif" font-size="11" lengthAdjust="spacingAndGlyphs" textLength="93" x="301.6308" y="680.6714">message: String</text><line style="stroke:#A80036;stroke-width:1.5;" x1="282.6308" x2="498.6308" y1="687.2656" y2="687.2656"/><rect fill="#F24D5C" height="6" style="stroke:#C82930;stroke-width:1.0;" width="6" x="289.6308" y="695.2656"/><text fill="#000000" font-family="sans-serif" font-size="11" lengthAdjust="spacingAndGlyphs" textLength="92" x="301.6308" y="701.4761">Message(String)</text><polygon fill="#4177AF" points="292.6308,707.0703,288.6308,713.0703,296.6308,713.0703" style="stroke:#1963A0;stroke-width:1.0;"/><text fill="#000000" font-family="sans-serif" font-size="11" lengthAdjust="spacingAndGlyphs" textLength="36" x="301.6308" y="714.2808">write()</text><polygon fill="#4177AF" points="292.6308,719.875,288.6308,725.875,296.6308,725.875" style="stroke:#1963A0;stroke-width:1.0;"/><text fill="#000000" font-family="sans-serif" font-size="11" lengthAdjust="spacingAndGlyphs" textLength="46" x="301.6308" y="727.0854">writeln()</text><ellipse cx="292.6308" cy="736.6797" fill="#84BE84" rx="3" ry="3" style="stroke:#038048;stroke-width:1.0;"/><text fill="#000000" font-family="sans-serif" font-size="11" lengthAdjust="spacingAndGlyphs" textLength="92" x="301.6308" y="739.8901">toString(): String</text><!--MD5=[bba60f0de98cc25d7cb61dcbd97823bc]
class usantatecla.tictactoe.views.TokenView--><rect codeLine="93" fill="#FEFECE" filter="url(#fcl7merhvkl6u)" height="86.4141" id="usantatecla.tictactoe.views.TokenView" style="stroke:#A80036;stroke-width:1.5;" width="132" x="534.6308" y="564"/><ellipse cx="564.9308" cy="580" fill="#ADD1B2" rx="11" ry="11" style="stroke:#A80036;stroke-width:1.0;"/><path d="M567.2746,575.6719 C566.3371,575.2344 565.7433,575.0938 564.8683,575.0938 C562.2433,575.0938 560.2433,577.1719 560.2433,579.8906 L560.2433,581.0156 C560.2433,583.5938 562.3527,585.4844 565.2433,585.4844 C566.4621,585.4844 567.6183,585.1875 568.3683,584.6406 C568.9464,584.2344 569.2746,583.7813 569.2746,583.3906 C569.2746,582.9375 568.8839,582.5469 568.4152,582.5469 C568.1964,582.5469 567.9933,582.625 567.8058,582.8125 C567.3527,583.2969 567.3527,583.2969 567.1652,583.3906 C566.7433,583.6563 566.0558,583.7813 565.2902,583.7813 C563.2433,583.7813 561.9464,582.6875 561.9464,580.9844 L561.9464,579.8906 C561.9464,578.1094 563.1964,576.7969 564.9308,576.7969 C565.5089,576.7969 566.1183,576.9531 566.5871,577.2031 C567.0714,577.4844 567.2433,577.7031 567.3371,578.1094 C567.3996,578.5156 567.4308,578.6406 567.5714,578.7656 C567.7121,578.9063 567.9464,579.0156 568.1652,579.0156 C568.4308,579.0156 568.6964,578.875 568.8683,578.6563 C568.9777,578.5 569.0089,578.3125 569.0089,577.8906 L569.0089,576.4688 C569.0089,576.0313 568.9933,575.9063 568.8996,575.75 C568.7433,575.4844 568.4621,575.3438 568.1652,575.3438 C567.8683,575.3438 567.6652,575.4375 567.4464,575.75 L567.2746,575.6719 Z " fill="#000000"/><text fill="#000000" font-family="sans-serif" font-size="12" lengthAdjust="spacingAndGlyphs" textLength="66" x="582.3308" y="584.1543">TokenView</text><line style="stroke:#A80036;stroke-width:1.5;" x1="535.6308" x2="665.6308" y1="596" y2="596"/><rect fill="none" height="6" style="stroke:#C82930;stroke-width:1.0;" width="6" x="542.6308" y="604"/><text fill="#000000" font-family="sans-serif" font-size="11" lengthAdjust="spacingAndGlyphs" text-decoration="underline" textLength="86" x="554.6308" y="610.2104">SYMBOLS: char</text><line style="stroke:#A80036;stroke-width:1.5;" x1="535.6308" x2="665.6308" y1="616.8047" y2="616.8047"/><polygon fill="#4177AF" points="545.6308,623.8047,541.6308,629.8047,549.6308,629.8047" style="stroke:#1963A0;stroke-width:1.0;"/><text fill="#000000" font-family="sans-serif" font-size="11" lengthAdjust="spacingAndGlyphs" textLength="106" x="554.6308" y="631.0151">TokenView(Token)</text><polygon fill="#4177AF" points="545.6308,636.6094,541.6308,642.6094,549.6308,642.6094" style="stroke:#1963A0;stroke-width:1.0;"/><text fill="#000000" font-family="sans-serif" font-size="11" lengthAdjust="spacingAndGlyphs" textLength="36" x="554.6308" y="643.8198">write()</text><!--MD5=[b233b2828aa07505226ea5ca422b58ee]
class usantatecla.tictactoe.views.PlayView--><rect codeLine="54" fill="#FEFECE" filter="url(#fcl7merhvkl6u)" height="99.2188" id="usantatecla.tictactoe.views.PlayView" style="stroke:#A80036;stroke-width:1.5;" width="120" x="208.6308" y="175"/><ellipse cx="239.8308" cy="191" fill="#ADD1B2" rx="11" ry="11" style="stroke:#A80036;stroke-width:1.0;"/><path d="M242.1746,186.6719 C241.2371,186.2344 240.6433,186.0938 239.7683,186.0938 C237.1433,186.0938 235.1433,188.1719 235.1433,190.8906 L235.1433,192.0156 C235.1433,194.5938 237.2527,196.4844 240.1433,196.4844 C241.3621,196.4844 242.5183,196.1875 243.2683,195.6406 C243.8464,195.2344 244.1746,194.7813 244.1746,194.3906 C244.1746,193.9375 243.7839,193.5469 243.3152,193.5469 C243.0964,193.5469 242.8933,193.625 242.7058,193.8125 C242.2527,194.2969 242.2527,194.2969 242.0652,194.3906 C241.6433,194.6563 240.9558,194.7813 240.1902,194.7813 C238.1433,194.7813 236.8464,193.6875 236.8464,191.9844 L236.8464,190.8906 C236.8464,189.1094 238.0964,187.7969 239.8308,187.7969 C240.4089,187.7969 241.0183,187.9531 241.4871,188.2031 C241.9714,188.4844 242.1433,188.7031 242.2371,189.1094 C242.2996,189.5156 242.3308,189.6406 242.4714,189.7656 C242.6121,189.9063 242.8464,190.0156 243.0652,190.0156 C243.3308,190.0156 243.5964,189.875 243.7683,189.6563 C243.8777,189.5 243.9089,189.3125 243.9089,188.8906 L243.9089,187.4688 C243.9089,187.0313 243.8933,186.9063 243.7996,186.75 C243.6433,186.4844 243.3621,186.3438 243.0652,186.3438 C242.7683,186.3438 242.5652,186.4375 242.3464,186.75 L242.1746,186.6719 Z " fill="#000000"/><text fill="#000000" font-family="sans-serif" font-size="12" lengthAdjust="spacingAndGlyphs" textLength="52" x="257.4308" y="195.1543">PlayView</text><line style="stroke:#A80036;stroke-width:1.5;" x1="209.6308" x2="327.6308" y1="207" y2="207"/><line style="stroke:#A80036;stroke-width:1.5;" x1="209.6308" x2="327.6308" y1="215" y2="215"/><polygon fill="#4177AF" points="219.6308,222,215.6308,228,223.6308,228" style="stroke:#1963A0;stroke-width:1.0;"/><text fill="#000000" font-family="sans-serif" font-size="11" lengthAdjust="spacingAndGlyphs" textLength="94" x="228.6308" y="229.2104">PlayView(Game)</text><polygon fill="#4177AF" points="219.6308,234.8047,215.6308,240.8047,223.6308,240.8047" style="stroke:#1963A0;stroke-width:1.0;"/><text fill="#000000" font-family="sans-serif" font-size="11" lengthAdjust="spacingAndGlyphs" textLength="51" x="228.6308" y="242.0151">interact()</text><rect fill="#F24D5C" height="6" style="stroke:#C82930;stroke-width:1.0;" width="6" x="216.6308" y="248.6094"/><text fill="#000000" font-family="sans-serif" font-size="11" lengthAdjust="spacingAndGlyphs" textLength="26" x="228.6308" y="254.8198">put()</text><rect fill="#F24D5C" height="6" style="stroke:#C82930;stroke-width:1.0;" width="6" x="216.6308" y="261.4141"/><text fill="#000000" font-family="sans-serif" font-size="11" lengthAdjust="spacingAndGlyphs" textLength="41" x="228.6308" y="267.6245">move()</text><!--MD5=[4322e5e52d55cc21661d9e4dcdf2699b]
class usantatecla.tictactoe.views.WithGameView--><rect codeLine="87" fill="#FEFECE" filter="url(#fcl7merhvkl6u)" height="60.8047" id="usantatecla.tictactoe.views.WithGameView" style="stroke:#A80036;stroke-width:1.5;" width="157" x="359.1308" y="47.5"/><ellipse cx="389.4308" cy="63.5" fill="#A9DCDF" rx="11" ry="11" style="stroke:#A80036;stroke-width:1.0;"/><path d="M391.5089,65.3125 L391.8996,66.2969 L391.5089,66.2969 C391.0558,66.2969 390.9464,66.3125 390.7902,66.4219 C390.5402,66.5781 390.3839,66.8594 390.3839,67.1563 C390.3839,67.4219 390.5246,67.6719 390.7433,67.8281 C390.8839,67.9531 391.0871,68 391.5089,68 L393.8683,68 C394.2277,68 394.4464,67.9688 394.5871,67.875 C394.8371,67.7344 394.9933,67.4375 394.9933,67.1563 C394.9933,66.875 394.8527,66.625 394.6339,66.4688 C394.4621,66.3281 394.3058,66.2969 393.8371,66.2969 L390.4464,58.0938 L386.7746,58.0938 C386.3214,58.0938 386.1964,58.1094 386.0402,58.2031 C385.7902,58.375 385.6339,58.6563 385.6339,58.9375 C385.6339,59.2188 385.7746,59.4688 385.9933,59.6406 C386.1652,59.75 386.3371,59.7813 386.7746,59.7813 L387.8527,59.7813 L385.2121,66.2969 C384.7902,66.2969 384.6339,66.3125 384.4777,66.4219 C384.2277,66.5781 384.0714,66.8594 384.0714,67.1563 C384.0714,67.7188 384.4464,68 385.1964,68 L387.4621,68 C387.8214,68 388.0402,67.9688 388.1652,67.875 C388.4308,67.7344 388.5714,67.4375 388.5714,67.1563 C388.5714,66.875 388.4464,66.625 388.2277,66.4531 C388.0558,66.3281 387.9152,66.2969 387.4621,66.2969 L387.0714,66.2969 L387.4621,65.3125 L391.5089,65.3125 Z M390.8058,63.6094 L388.1339,63.6094 L389.4777,60.3438 L390.8058,63.6094 Z " fill="#000000"/><text fill="#000000" font-family="sans-serif" font-size="12" font-style="italic" lengthAdjust="spacingAndGlyphs" textLength="91" x="406.8308" y="67.6543">WithGameView</text><line style="stroke:#A80036;stroke-width:1.5;" x1="360.1308" x2="515.1308" y1="79.5" y2="79.5"/><line style="stroke:#A80036;stroke-width:1.5;" x1="360.1308" x2="515.1308" y1="87.5" y2="87.5"/><polygon fill="#4177AF" points="370.1308,94.5,366.1308,100.5,374.1308,100.5" style="stroke:#1963A0;stroke-width:1.0;"/><text fill="#000000" font-family="sans-serif" font-size="11" lengthAdjust="spacingAndGlyphs" textLength="131" x="379.1308" y="101.7104">WithGameView(Game)</text><!--MD5=[b7479e29779d6bdb64e415bb869b3d44]
class usantatecla.tictactoe.views.ResumeView--><rect codeLine="68" fill="#FEFECE" filter="url(#fcl7merhvkl6u)" height="73.6094" id="usantatecla.tictactoe.views.ResumeView" style="stroke:#A80036;stroke-width:1.5;" width="144" x="363.6308" y="187.5"/><ellipse cx="394.3808" cy="203.5" fill="#ADD1B2" rx="11" ry="11" style="stroke:#A80036;stroke-width:1.0;"/><path d="M396.7246,199.1719 C395.7871,198.7344 395.1933,198.5938 394.3183,198.5938 C391.6933,198.5938 389.6933,200.6719 389.6933,203.3906 L389.6933,204.5156 C389.6933,207.0938 391.8027,208.9844 394.6933,208.9844 C395.9121,208.9844 397.0683,208.6875 397.8183,208.1406 C398.3964,207.7344 398.7246,207.2813 398.7246,206.8906 C398.7246,206.4375 398.3339,206.0469 397.8652,206.0469 C397.6464,206.0469 397.4433,206.125 397.2558,206.3125 C396.8027,206.7969 396.8027,206.7969 396.6152,206.8906 C396.1933,207.1563 395.5058,207.2813 394.7402,207.2813 C392.6933,207.2813 391.3964,206.1875 391.3964,204.4844 L391.3964,203.3906 C391.3964,201.6094 392.6464,200.2969 394.3808,200.2969 C394.9589,200.2969 395.5683,200.4531 396.0371,200.7031 C396.5214,200.9844 396.6933,201.2031 396.7871,201.6094 C396.8496,202.0156 396.8808,202.1406 397.0214,202.2656 C397.1621,202.4063 397.3964,202.5156 397.6152,202.5156 C397.8808,202.5156 398.1464,202.375 398.3183,202.1563 C398.4277,202 398.4589,201.8125 398.4589,201.3906 L398.4589,199.9688 C398.4589,199.5313 398.4433,199.4063 398.3496,199.25 C398.1933,198.9844 397.9121,198.8438 397.6152,198.8438 C397.3183,198.8438 397.1152,198.9375 396.8964,199.25 L396.7246,199.1719 Z " fill="#000000"/><text fill="#000000" font-family="sans-serif" font-size="12" lengthAdjust="spacingAndGlyphs" textLength="77" x="411.8808" y="207.6543">ResumeView</text><line style="stroke:#A80036;stroke-width:1.5;" x1="364.6308" x2="506.6308" y1="219.5" y2="219.5"/><line style="stroke:#A80036;stroke-width:1.5;" x1="364.6308" x2="506.6308" y1="227.5" y2="227.5"/><polygon fill="#4177AF" points="374.6308,234.5,370.6308,240.5,378.6308,240.5" style="stroke:#1963A0;stroke-width:1.0;"/><text fill="#000000" font-family="sans-serif" font-size="11" lengthAdjust="spacingAndGlyphs" textLength="118" x="383.6308" y="241.7104">ResumeView(Game)</text><polygon fill="#4177AF" points="374.6308,247.3047,370.6308,253.3047,378.6308,253.3047" style="stroke:#1963A0;stroke-width:1.0;"/><text fill="#000000" font-family="sans-serif" font-size="11" lengthAdjust="spacingAndGlyphs" textLength="104" x="383.6308" y="254.5151">interact(): boolean</text><!--MD5=[fb418f07679bda78285a7b072868d1a3]
class usantatecla.tictactoe.views.StartView--><rect codeLine="77" fill="#FEFECE" filter="url(#fcl7merhvkl6u)" height="73.6094" id="usantatecla.tictactoe.views.StartView" style="stroke:#A80036;stroke-width:1.5;" width="124" x="542.6308" y="187.5"/><ellipse cx="573.3808" cy="203.5" fill="#ADD1B2" rx="11" ry="11" style="stroke:#A80036;stroke-width:1.0;"/><path d="M575.7246,199.1719 C574.7871,198.7344 574.1933,198.5938 573.3183,198.5938 C570.6933,198.5938 568.6933,200.6719 568.6933,203.3906 L568.6933,204.5156 C568.6933,207.0938 570.8027,208.9844 573.6933,208.9844 C574.9121,208.9844 576.0683,208.6875 576.8183,208.1406 C577.3964,207.7344 577.7246,207.2813 577.7246,206.8906 C577.7246,206.4375 577.3339,206.0469 576.8652,206.0469 C576.6464,206.0469 576.4433,206.125 576.2558,206.3125 C575.8027,206.7969 575.8027,206.7969 575.6152,206.8906 C575.1933,207.1563 574.5058,207.2813 573.7402,207.2813 C571.6933,207.2813 570.3964,206.1875 570.3964,204.4844 L570.3964,203.3906 C570.3964,201.6094 571.6464,200.2969 573.3808,200.2969 C573.9589,200.2969 574.5683,200.4531 575.0371,200.7031 C575.5214,200.9844 575.6933,201.2031 575.7871,201.6094 C575.8496,202.0156 575.8808,202.1406 576.0214,202.2656 C576.1621,202.4063 576.3964,202.5156 576.6152,202.5156 C576.8808,202.5156 577.1464,202.375 577.3183,202.1563 C577.4277,202 577.4589,201.8125 577.4589,201.3906 L577.4589,199.9688 C577.4589,199.5313 577.4433,199.4063 577.3496,199.25 C577.1933,198.9844 576.9121,198.8438 576.6152,198.8438 C576.3183,198.8438 576.1152,198.9375 575.8964,199.25 L575.7246,199.1719 Z " fill="#000000"/><text fill="#000000" font-family="sans-serif" font-size="12" lengthAdjust="spacingAndGlyphs" textLength="57" x="590.8808" y="207.6543">StartView</text><line style="stroke:#A80036;stroke-width:1.5;" x1="543.6308" x2="665.6308" y1="219.5" y2="219.5"/><line style="stroke:#A80036;stroke-width:1.5;" x1="543.6308" x2="665.6308" y1="227.5" y2="227.5"/><polygon fill="#4177AF" points="553.6308,234.5,549.6308,240.5,557.6308,240.5" style="stroke:#1963A0;stroke-width:1.0;"/><text fill="#000000" font-family="sans-serif" font-size="11" lengthAdjust="spacingAndGlyphs" textLength="98" x="562.6308" y="241.7104">StartView(Game)</text><polygon fill="#4177AF" points="553.6308,247.3047,549.6308,253.3047,557.6308,253.3047" style="stroke:#1963A0;stroke-width:1.0;"/><text fill="#000000" font-family="sans-serif" font-size="11" lengthAdjust="spacingAndGlyphs" textLength="51" x="562.6308" y="254.5151">interact()</text><!--MD5=[b8aaf1245d109720e7e93ad10575fc66]
class usantatecla.tictactoe.views.View--><rect codeLine="101" fill="#FEFECE" filter="url(#fcl7merhvkl6u)" height="73.6094" id="usantatecla.tictactoe.views.View" style="stroke:#A80036;stroke-width:1.5;" width="97" x="554.1308" y="41"/><ellipse cx="585.3308" cy="57" fill="#ADD1B2" rx="11" ry="11" style="stroke:#A80036;stroke-width:1.0;"/><path d="M587.6746,52.6719 C586.7371,52.2344 586.1433,52.0938 585.2683,52.0938 C582.6433,52.0938 580.6433,54.1719 580.6433,56.8906 L580.6433,58.0156 C580.6433,60.5938 582.7527,62.4844 585.6433,62.4844 C586.8621,62.4844 588.0183,62.1875 588.7683,61.6406 C589.3464,61.2344 589.6746,60.7813 589.6746,60.3906 C589.6746,59.9375 589.2839,59.5469 588.8152,59.5469 C588.5964,59.5469 588.3933,59.625 588.2058,59.8125 C587.7527,60.2969 587.7527,60.2969 587.5652,60.3906 C587.1433,60.6563 586.4558,60.7813 585.6902,60.7813 C583.6433,60.7813 582.3464,59.6875 582.3464,57.9844 L582.3464,56.8906 C582.3464,55.1094 583.5964,53.7969 585.3308,53.7969 C585.9089,53.7969 586.5183,53.9531 586.9871,54.2031 C587.4714,54.4844 587.6433,54.7031 587.7371,55.1094 C587.7996,55.5156 587.8308,55.6406 587.9714,55.7656 C588.1121,55.9063 588.3464,56.0156 588.5652,56.0156 C588.8308,56.0156 589.0964,55.875 589.2683,55.6563 C589.3777,55.5 589.4089,55.3125 589.4089,54.8906 L589.4089,53.4688 C589.4089,53.0313 589.3933,52.9063 589.2996,52.75 C589.1433,52.4844 588.8621,52.3438 588.5652,52.3438 C588.2683,52.3438 588.0652,52.4375 587.8464,52.75 L587.6746,52.6719 Z " fill="#000000"/><text fill="#000000" font-family="sans-serif" font-size="12" lengthAdjust="spacingAndGlyphs" textLength="29" x="602.9308" y="61.1543">View</text><line style="stroke:#A80036;stroke-width:1.5;" x1="555.1308" x2="650.1308" y1="73" y2="73"/><line style="stroke:#A80036;stroke-width:1.5;" x1="555.1308" x2="650.1308" y1="81" y2="81"/><ellipse cx="565.1308" cy="92" fill="#84BE84" rx="3" ry="3" style="stroke:#038048;stroke-width:1.0;"/><text fill="#000000" font-family="sans-serif" font-size="11" lengthAdjust="spacingAndGlyphs" textLength="71" x="574.1308" y="95.2104">View(Game)</text><ellipse cx="565.1308" cy="104.8047" fill="#84BE84" rx="3" ry="3" style="stroke:#038048;stroke-width:1.0;"/><text fill="#000000" font-family="sans-serif" font-size="11" lengthAdjust="spacingAndGlyphs" textLength="51" x="574.1308" y="108.0151">interact()</text><!--MD5=[315b61b427ec618d6861d47eee00cca3]
class Console--><rect codeLine="1" fill="#FEFECE" filter="url(#fcl7merhvkl6u)" height="53.9375" id="Console" style="stroke:#A80036;stroke-width:1.5;" width="130" x="303.6308" y="813"/><ellipse cx="318.6308" cy="831.9688" fill="#ADD1B2" rx="11" ry="11" style="stroke:#A80036;stroke-width:1.0;"/><path d="M320.9746,827.6406 C320.0371,827.2031 319.4433,827.0625 318.5683,827.0625 C315.9433,827.0625 313.9433,829.1406 313.9433,831.8594 L313.9433,832.9844 C313.9433,835.5625 316.0527,837.4531 318.9433,837.4531 C320.1621,837.4531 321.3183,837.1563 322.0683,836.6094 C322.6464,836.2031 322.9746,835.75 322.9746,835.3594 C322.9746,834.9063 322.5839,834.5156 322.1152,834.5156 C321.8964,834.5156 321.6933,834.5938 321.5058,834.7813 C321.0527,835.2656 321.0527,835.2656 320.8652,835.3594 C320.4433,835.625 319.7558,835.75 318.9902,835.75 C316.9433,835.75 315.6464,834.6563 315.6464,832.9531 L315.6464,831.8594 C315.6464,830.0781 316.8964,828.7656 318.6308,828.7656 C319.2089,828.7656 319.8183,828.9219 320.2871,829.1719 C320.7714,829.4531 320.9433,829.6719 321.0371,830.0781 C321.0996,830.4844 321.1308,830.6094 321.2714,830.7344 C321.4121,830.875 321.6464,830.9844 321.8652,830.9844 C322.1308,830.9844 322.3964,830.8438 322.5683,830.625 C322.6777,830.4688 322.7089,830.2813 322.7089,829.8594 L322.7089,828.4375 C322.7089,828 322.6933,827.875 322.5996,827.7188 C322.4433,827.4531 322.1621,827.3125 321.8652,827.3125 C321.5683,827.3125 321.3652,827.4063 321.1464,827.7188 L320.9746,827.6406 Z " fill="#000000"/><text fill="#000000" font-family="sans-serif" font-size="12" lengthAdjust="spacingAndGlyphs" textLength="98" x="332.6308" y="829.1387">usantatecla.utils.</text><text fill="#000000" font-family="sans-serif" font-size="12" lengthAdjust="spacingAndGlyphs" textLength="49" x="357.1308" y="843.1074">Console</text><line style="stroke:#A80036;stroke-width:1.5;" x1="304.6308" x2="432.6308" y1="850.9375" y2="850.9375"/><line style="stroke:#A80036;stroke-width:1.5;" x1="304.6308" x2="432.6308" y1="858.9375" y2="858.9375"/><!--MD5=[8c7d7abc12e214c3cc12c9ab70edee11]
class Coordinate--><rect codeLine="2" fill="#FEFECE" filter="url(#fcl7merhvkl6u)" height="67.9063" id="Coordinate" style="stroke:#A80036;stroke-width:1.5;" width="135" x="699.1308" y="337"/><ellipse cx="714.1308" cy="362.9531" fill="#ADD1B2" rx="11" ry="11" style="stroke:#A80036;stroke-width:1.0;"/><path d="M716.4746,358.625 C715.5371,358.1875 714.9433,358.0469 714.0683,358.0469 C711.4433,358.0469 709.4433,360.125 709.4433,362.8438 L709.4433,363.9688 C709.4433,366.5469 711.5527,368.4375 714.4433,368.4375 C715.6621,368.4375 716.8183,368.1406 717.5683,367.5938 C718.1464,367.1875 718.4746,366.7344 718.4746,366.3438 C718.4746,365.8906 718.0839,365.5 717.6152,365.5 C717.3964,365.5 717.1933,365.5781 717.0058,365.7656 C716.5527,366.25 716.5527,366.25 716.3652,366.3438 C715.9433,366.6094 715.2558,366.7344 714.4902,366.7344 C712.4433,366.7344 711.1464,365.6406 711.1464,363.9375 L711.1464,362.8438 C711.1464,361.0625 712.3964,359.75 714.1308,359.75 C714.7089,359.75 715.3183,359.9063 715.7871,360.1563 C716.2714,360.4375 716.4433,360.6563 716.5371,361.0625 C716.5996,361.4688 716.6308,361.5938 716.7714,361.7188 C716.9121,361.8594 717.1464,361.9688 717.3652,361.9688 C717.6308,361.9688 717.8964,361.8281 718.0683,361.6094 C718.1777,361.4531 718.2089,361.2656 718.2089,360.8438 L718.2089,359.4219 C718.2089,358.9844 718.1933,358.8594 718.0996,358.7031 C717.9433,358.4375 717.6621,358.2969 717.3652,358.2969 C717.0683,358.2969 716.8652,358.3906 716.6464,358.7031 L716.4746,358.625 Z " fill="#000000"/><text fill="#000000" font-family="sans-serif" font-size="12" lengthAdjust="spacingAndGlyphs" textLength="71" x="744.1308" y="353.1387">usantatecla.</text><text fill="#000000" font-family="sans-serif" font-size="12" lengthAdjust="spacingAndGlyphs" textLength="103" x="728.1308" y="367.1074">tictactoe.models.</text><text fill="#000000" font-family="sans-serif" font-size="12" lengthAdjust="spacingAndGlyphs" textLength="66" x="746.6308" y="381.0762">Coordinate</text><line style="stroke:#A80036;stroke-width:1.5;" x1="700.1308" x2="833.1308" y1="388.9063" y2="388.9063"/><line style="stroke:#A80036;stroke-width:1.5;" x1="700.1308" x2="833.1308" y1="396.9063" y2="396.9063"/><!--MD5=[b6dcce5e5ef3c84b0b048d11301373dd]
class Game--><rect codeLine="3" fill="#FEFECE" filter="url(#fcl7merhvkl6u)" height="67.9063" id="Game" style="stroke:#A80036;stroke-width:1.5;" width="135" x="1009.1308" y="573"/><ellipse cx="1024.1308" cy="598.9531" fill="#ADD1B2" rx="11" ry="11" style="stroke:#A80036;stroke-width:1.0;"/><path d="M1026.4746,594.625 C1025.5371,594.1875 1024.9433,594.0469 1024.0683,594.0469 C1021.4433,594.0469 1019.4433,596.125 1019.4433,598.8438 L1019.4433,599.9688 C1019.4433,602.5469 1021.5527,604.4375 1024.4433,604.4375 C1025.6621,604.4375 1026.8183,604.1406 1027.5683,603.5938 C1028.1464,603.1875 1028.4746,602.7344 1028.4746,602.3438 C1028.4746,601.8906 1028.0839,601.5 1027.6152,601.5 C1027.3964,601.5 1027.1933,601.5781 1027.0058,601.7656 C1026.5527,602.25 1026.5527,602.25 1026.3652,602.3438 C1025.9433,602.6094 1025.2558,602.7344 1024.4902,602.7344 C1022.4433,602.7344 1021.1464,601.6406 1021.1464,599.9375 L1021.1464,598.8438 C1021.1464,597.0625 1022.3964,595.75 1024.1308,595.75 C1024.7089,595.75 1025.3183,595.9063 1025.7871,596.1563 C1026.2714,596.4375 1026.4433,596.6563 1026.5371,597.0625 C1026.5996,597.4688 1026.6308,597.5938 1026.7714,597.7188 C1026.9121,597.8594 1027.1464,597.9688 1027.3652,597.9688 C1027.6308,597.9688 1027.8964,597.8281 1028.0683,597.6094 C1028.1777,597.4531 1028.2089,597.2656 1028.2089,596.8438 L1028.2089,595.4219 C1028.2089,594.9844 1028.1933,594.8594 1028.0996,594.7031 C1027.9433,594.4375 1027.6621,594.2969 1027.3652,594.2969 C1027.0683,594.2969 1026.8652,594.3906 1026.6464,594.7031 L1026.4746,594.625 Z " fill="#000000"/><text fill="#000000" font-family="sans-serif" font-size="12" lengthAdjust="spacingAndGlyphs" textLength="71" x="1054.1308" y="589.1387">usantatecla.</text><text fill="#000000" font-family="sans-serif" font-size="12" lengthAdjust="spacingAndGlyphs" textLength="103" x="1038.1308" y="603.1074">tictactoe.models.</text><text fill="#000000" font-family="sans-serif" font-size="12" lengthAdjust="spacingAndGlyphs" textLength="35" x="1072.1308" y="617.0762">Game</text><line style="stroke:#A80036;stroke-width:1.5;" x1="1010.1308" x2="1143.1308" y1="624.9063" y2="624.9063"/><line style="stroke:#A80036;stroke-width:1.5;" x1="1010.1308" x2="1143.1308" y1="632.9063" y2="632.9063"/><!--MD5=[58767b3ac92ed88fc68bd4b9dc66dad3]
class LimitedIntDialog--><rect codeLine="4" fill="#FEFECE" filter="url(#fcl7merhvkl6u)" height="53.9375" id="LimitedIntDialog" style="stroke:#A80036;stroke-width:1.5;" width="130" x="1011.6308" y="344"/><ellipse cx="1026.6308" cy="362.9688" fill="#ADD1B2" rx="11" ry="11" style="stroke:#A80036;stroke-width:1.0;"/><path d="M1028.9746,358.6406 C1028.0371,358.2031 1027.4433,358.0625 1026.5683,358.0625 C1023.9433,358.0625 1021.9433,360.1406 1021.9433,362.8594 L1021.9433,363.9844 C1021.9433,366.5625 1024.0527,368.4531 1026.9433,368.4531 C1028.1621,368.4531 1029.3183,368.1563 1030.0683,367.6094 C1030.6464,367.2031 1030.9746,366.75 1030.9746,366.3594 C1030.9746,365.9063 1030.5839,365.5156 1030.1152,365.5156 C1029.8964,365.5156 1029.6933,365.5938 1029.5058,365.7813 C1029.0527,366.2656 1029.0527,366.2656 1028.8652,366.3594 C1028.4433,366.625 1027.7558,366.75 1026.9902,366.75 C1024.9433,366.75 1023.6464,365.6563 1023.6464,363.9531 L1023.6464,362.8594 C1023.6464,361.0781 1024.8964,359.7656 1026.6308,359.7656 C1027.2089,359.7656 1027.8183,359.9219 1028.2871,360.1719 C1028.7714,360.4531 1028.9433,360.6719 1029.0371,361.0781 C1029.0996,361.4844 1029.1308,361.6094 1029.2714,361.7344 C1029.4121,361.875 1029.6464,361.9844 1029.8652,361.9844 C1030.1308,361.9844 1030.3964,361.8438 1030.5683,361.625 C1030.6777,361.4688 1030.7089,361.2813 1030.7089,360.8594 L1030.7089,359.4375 C1030.7089,359 1030.6933,358.875 1030.5996,358.7188 C1030.4433,358.4531 1030.1621,358.3125 1029.8652,358.3125 C1029.5683,358.3125 1029.3652,358.4063 1029.1464,358.7188 L1028.9746,358.6406 Z " fill="#000000"/><text fill="#000000" font-family="sans-serif" font-size="12" lengthAdjust="spacingAndGlyphs" textLength="98" x="1040.6308" y="360.1387">usantatecla.utils.</text><text fill="#000000" font-family="sans-serif" font-size="12" lengthAdjust="spacingAndGlyphs" textLength="95" x="1042.1308" y="374.1074">LimitedIntDialog</text><line style="stroke:#A80036;stroke-width:1.5;" x1="1012.6308" x2="1140.6308" y1="381.9375" y2="381.9375"/><line style="stroke:#A80036;stroke-width:1.5;" x1="1012.6308" x2="1140.6308" y1="389.9375" y2="389.9375"/><!--MD5=[d8c8cfd5ca149094f5b67f9f607a5ec7]
class Token--><rect codeLine="5" fill="#FEFECE" filter="url(#fcl7merhvkl6u)" height="67.9063" id="Token" style="stroke:#A80036;stroke-width:1.5;" width="135" x="533.1308" y="806"/><ellipse cx="548.1308" cy="831.9531" fill="#ADD1B2" rx="11" ry="11" style="stroke:#A80036;stroke-width:1.0;"/><path d="M550.4746,827.625 C549.5371,827.1875 548.9433,827.0469 548.0683,827.0469 C545.4433,827.0469 543.4433,829.125 543.4433,831.8438 L543.4433,832.9688 C543.4433,835.5469 545.5527,837.4375 548.4433,837.4375 C549.6621,837.4375 550.8183,837.1406 551.5683,836.5938 C552.1464,836.1875 552.4746,835.7344 552.4746,835.3438 C552.4746,834.8906 552.0839,834.5 551.6152,834.5 C551.3964,834.5 551.1933,834.5781 551.0058,834.7656 C550.5527,835.25 550.5527,835.25 550.3652,835.3438 C549.9433,835.6094 549.2558,835.7344 548.4902,835.7344 C546.4433,835.7344 545.1464,834.6406 545.1464,832.9375 L545.1464,831.8438 C545.1464,830.0625 546.3964,828.75 548.1308,828.75 C548.7089,828.75 549.3183,828.9063 549.7871,829.1563 C550.2714,829.4375 550.4433,829.6563 550.5371,830.0625 C550.5996,830.4688 550.6308,830.5938 550.7714,830.7188 C550.9121,830.8594 551.1464,830.9688 551.3652,830.9688 C551.6308,830.9688 551.8964,830.8281 552.0683,830.6094 C552.1777,830.4531 552.2089,830.2656 552.2089,829.8438 L552.2089,828.4219 C552.2089,827.9844 552.1933,827.8594 552.0996,827.7031 C551.9433,827.4375 551.6621,827.2969 551.3652,827.2969 C551.0683,827.2969 550.8652,827.3906 550.6464,827.7031 L550.4746,827.625 Z " fill="#000000"/><text fill="#000000" font-family="sans-serif" font-size="12" lengthAdjust="spacingAndGlyphs" textLength="71" x="578.1308" y="822.1387">usantatecla.</text><text fill="#000000" font-family="sans-serif" font-size="12" lengthAdjust="spacingAndGlyphs" textLength="103" x="562.1308" y="836.1074">tictactoe.models.</text><text fill="#000000" font-family="sans-serif" font-size="12" lengthAdjust="spacingAndGlyphs" textLength="37" x="595.1308" y="850.0762">Token</text><line style="stroke:#A80036;stroke-width:1.5;" x1="534.1308" x2="667.1308" y1="857.9063" y2="857.9063"/><line style="stroke:#A80036;stroke-width:1.5;" x1="534.1308" x2="667.1308" y1="865.9063" y2="865.9063"/><!--MD5=[b8cfd8c4119a3b0a7a46bfc5fc780f85]
class Error--><rect codeLine="6" fill="#FEFECE" filter="url(#fcl7merhvkl6u)" height="67.9063" id="Error" style="stroke:#A80036;stroke-width:1.5;" width="135" x="110.1311" y="806"/><ellipse cx="125.1311" cy="831.9531" fill="#ADD1B2" rx="11" ry="11" style="stroke:#A80036;stroke-width:1.0;"/><path d="M127.4749,827.625 C126.5374,827.1875 125.9436,827.0469 125.0686,827.0469 C122.4436,827.0469 120.4436,829.125 120.4436,831.8438 L120.4436,832.9688 C120.4436,835.5469 122.553,837.4375 125.4436,837.4375 C126.6624,837.4375 127.8186,837.1406 128.5686,836.5938 C129.1467,836.1875 129.4749,835.7344 129.4749,835.3438 C129.4749,834.8906 129.0842,834.5 128.6155,834.5 C128.3967,834.5 128.1936,834.5781 128.0061,834.7656 C127.553,835.25 127.553,835.25 127.3655,835.3438 C126.9436,835.6094 126.2561,835.7344 125.4905,835.7344 C123.4436,835.7344 122.1467,834.6406 122.1467,832.9375 L122.1467,831.8438 C122.1467,830.0625 123.3967,828.75 125.1311,828.75 C125.7092,828.75 126.3186,828.9063 126.7874,829.1563 C127.2717,829.4375 127.4436,829.6563 127.5374,830.0625 C127.5999,830.4688 127.6311,830.5938 127.7717,830.7188 C127.9124,830.8594 128.1467,830.9688 128.3655,830.9688 C128.6311,830.9688 128.8967,830.8281 129.0686,830.6094 C129.178,830.4531 129.2092,830.2656 129.2092,829.8438 L129.2092,828.4219 C129.2092,827.9844 129.1936,827.8594 129.0999,827.7031 C128.9436,827.4375 128.6624,827.2969 128.3655,827.2969 C128.0686,827.2969 127.8655,827.3906 127.6467,827.7031 L127.4749,827.625 Z " fill="#000000"/><text fill="#000000" font-family="sans-serif" font-size="12" lengthAdjust="spacingAndGlyphs" textLength="71" x="155.1311" y="822.1387">usantatecla.</text><text fill="#000000" font-family="sans-serif" font-size="12" lengthAdjust="spacingAndGlyphs" textLength="103" x="139.1311" y="836.1074">tictactoe.models.</text><text fill="#000000" font-family="sans-serif" font-size="12" lengthAdjust="spacingAndGlyphs" textLength="30" x="175.6311" y="850.0762">Error</text><line style="stroke:#A80036;stroke-width:1.5;" x1="111.1311" x2="244.1311" y1="857.9063" y2="857.9063"/><line style="stroke:#A80036;stroke-width:1.5;" x1="111.1311" x2="244.1311" y1="865.9063" y2="865.9063"/><!--MD5=[97e38d761d1a5c271fb5fc954e9321f9]
reverse link Console to usantatecla.tictactoe.views.CoordinateView--><path codeLine="11" d="M298.5198,816.1406 C286.5998,812.5511 274.3028,809.0308 262.6308,806 C187.0378,786.3699 139.8758,830.6192 90.6311,770 C6,665.821 38.3142,591.606 90.6311,468 C101.9226,441.322 124.6571,418.416 145.4948,401.677 " fill="none" id="Console-backto-usantatecla.tictactoe.views.CoordinateView" style="stroke:#A80036;stroke-width:1.0;stroke-dasharray:7.0,7.0;"/><polygon fill="#A80036" points="303.6028,817.682,296.1514,811.2417,298.8181,816.2306,293.8292,818.8973,303.6028,817.682" style="stroke:#A80036;stroke-width:1.0;"/><!--MD5=[53b9ee7bf231a626d966de88b4662c33]
reverse link Coordinate to usantatecla.tictactoe.views.CoordinateView--><path codeLine="12" d="M722.7278,333.947 C705.8248,321.95 685.6378,310.158 665.1308,304 C528.1968,262.88 361.3308,306.924 266.0928,340.48 " fill="none" id="Coordinate-backto-usantatecla.tictactoe.views.CoordinateView" style="stroke:#A80036;stroke-width:1.0;stroke-dasharray:7.0,7.0;"/><polygon fill="#A80036" points="726.9518,336.998,721.9997,328.4847,722.8991,334.0696,717.3142,334.9689,726.9518,336.998" style="stroke:#A80036;stroke-width:1.0;"/><!--MD5=[3cef1d23fdea37916a4187cded748fe8]
link usantatecla.tictactoe.views.CoordinateView to usantatecla.tictactoe.views.ErrorView--><path codeLine="13" d="M188.1118,401.636 C186.0788,441.268 182.4528,511.97 180.0448,558.931 " fill="none" id="usantatecla.tictactoe.views.CoordinateView-to-usantatecla.tictactoe.views.ErrorView" style="stroke:#A80036;stroke-width:1.0;stroke-dasharray:7.0,7.0;"/><polygon fill="#A80036" points="179.7868,563.967,184.2418,555.1833,180.0425,558.9735,176.2522,554.7742,179.7868,563.967" style="stroke:#A80036;stroke-width:1.0;"/><!--MD5=[e1a1ed879dec1c27872df24b01782659]
link usantatecla.tictactoe.views.ErrorView to Error--><path codeLine="20" d="M177.6308,662.1 C177.6308,662.1 177.6308,755.477 177.6308,792.7901 " fill="none" id="usantatecla.tictactoe.views.ErrorView-Error" style="stroke:#A80036;stroke-width:1.0;"/><polygon fill="#A80036" points="177.6308,805.7919,181.6308,796.7919,177.6308,800.7919,173.6308,796.7919,177.6308,805.7919" style="stroke:#A80036;stroke-width:1.0;"/><line style="stroke:#A80036;stroke-width:1.0;" x1="177.6308" x2="177.6308" y1="800.7919" y2="792.792"/><polygon fill="#A80036" points="177.6308,650.1,173.6308,656.1,177.6308,662.1,181.6308,656.1,177.6308,650.1" style="stroke:#A80036;stroke-width:1.0;"/><!--MD5=[b4340bdff9bb100be0cd4c4889a8557e]
reverse link Console to usantatecla.tictactoe.views.ErrorView--><path codeLine="21" d="M313.8098,810.2462 C296.3258,799.2806 277.8488,785.6103 263.6308,770 C231.4698,734.687 207.4718,685.138 193.1128,650.16 " fill="none" id="Console-backto-usantatecla.tictactoe.views.ErrorView" style="stroke:#A80036;stroke-width:1.0;stroke-dasharray:7.0,7.0;"/><polygon fill="#A80036" points="318.2298,812.9753,312.6738,804.8432,313.9755,810.3483,308.4705,811.65,318.2298,812.9753" style="stroke:#A80036;stroke-width:1.0;"/><!--MD5=[ec67190fcc80c583560506073d4cc245]
link usantatecla.tictactoe.views.BoardView to Game--><path codeLine="27" d="M674.8704,409.3227 C674.8704,409.3227 907.6988,523.301 996.9298,566.983 " fill="none" id="usantatecla.tictactoe.views.BoardView-Game" style="stroke:#A80036;stroke-width:1.0;"/><polygon fill="#A80036" points="1008.8788,572.832,1002.5541,565.2823,1004.388,570.6336,999.0367,572.4675,1008.8788,572.832" style="stroke:#A80036;stroke-width:1.0;"/><line style="stroke:#A80036;stroke-width:1.0;" x1="1004.388" x2="997.2023" y1="570.6336" y2="567.1165"/><polygon fill="#A80036" points="664.0928,404.046,667.7227,410.2769,674.8704,409.3227,671.2405,403.0918,664.0928,404.046" style="stroke:#A80036;stroke-width:1.0;"/><!--MD5=[276268a5339c03d1a4c68dfca10496cb]
link usantatecla.tictactoe.views.BoardView to usantatecla.tictactoe.views.Message--><path codeLine="28" d="M566.5868,408.05 C549.1548,427.661 526.4308,453.225 503.1348,479.433 " fill="none" id="usantatecla.tictactoe.views.BoardView-to-usantatecla.tictactoe.views.Message" style="stroke:#A80036;stroke-width:1.0;stroke-dasharray:7.0,7.0;"/><polygon fill="#A80036" points="499.6938,483.304,508.6633,479.236,503.0162,479.5674,502.6848,473.9203,499.6938,483.304" style="stroke:#A80036;stroke-width:1.0;"/><!--MD5=[e0808ffacd0941d80e14a0677407ca08]
link usantatecla.tictactoe.views.BoardView to Coordinate--><path codeLine="29" d="M663.9278,371 C673.8358,371 683.7428,371 693.6498,371 " fill="none" id="usantatecla.tictactoe.views.BoardView-to-Coordinate" style="stroke:#A80036;stroke-width:1.0;stroke-dasharray:7.0,7.0;"/><polygon fill="#A80036" points="698.8308,371,689.8308,367,693.8308,371,689.8308,375,698.8308,371" style="stroke:#A80036;stroke-width:1.0;"/><!--MD5=[4e7158f19c82b9a02e225fad24b07f83]
link usantatecla.tictactoe.views.BoardView to usantatecla.tictactoe.views.TokenView--><path codeLine="30" d="M598.9388,408.05 C599.2858,448.539 599.8478,514.398 600.2288,558.921 " fill="none" id="usantatecla.tictactoe.views.BoardView-to-usantatecla.tictactoe.views.TokenView" style="stroke:#A80036;stroke-width:1.0;stroke-dasharray:7.0,7.0;"/><polygon fill="#A80036" points="600.2718,563.971,604.1945,554.937,600.2289,558.9712,596.1948,555.0056,600.2718,563.971" style="stroke:#A80036;stroke-width:1.0;"/><!--MD5=[780d451bf192457496502a8748611a56]
link usantatecla.tictactoe.views.Message to Console--><path codeLine="52" d="M377.4838,746.042 C375.2718,769.269 373.1808,791.2313 371.5868,807.9704 " fill="none" id="usantatecla.tictactoe.views.Message-to-Console" style="stroke:#A80036;stroke-width:1.0;stroke-dasharray:7.0,7.0;"/><polygon fill="#A80036" points="371.1078,812.9932,375.9433,804.4131,371.582,808.0157,367.9793,803.6544,371.1078,812.9932" style="stroke:#A80036;stroke-width:1.0;"/><!--MD5=[3afbb2fb92919db18c74063732b235dd]
reverse link usantatecla.tictactoe.views.WithGameView to usantatecla.tictactoe.views.PlayView--><path codeLine="60" d="M387.7548,121.646 C368.2028,138.364 345.6598,157.638 325.4818,174.891 " fill="none" id="usantatecla.tictactoe.views.WithGameView-backto-usantatecla.tictactoe.views.PlayView" style="stroke:#A80036;stroke-width:1.0;"/><polygon fill="none" points="383.2738,116.267,403.0238,108.59,392.3718,126.908,383.2738,116.267" style="stroke:#A80036;stroke-width:1.0;"/><!--MD5=[69e897488793e4e9f26d900059f20885]
link usantatecla.tictactoe.views.PlayView to usantatecla.tictactoe.views.TokenView--><path codeLine="61" d="M326.0868,274.163 C379.1208,320.74 458.2638,394.584 516.6308,468 C539.3298,496.551 560.6428,531.705 576.1218,559.387 " fill="none" id="usantatecla.tictactoe.views.PlayView-to-usantatecla.tictactoe.views.TokenView" style="stroke:#A80036;stroke-width:1.0;stroke-dasharray:7.0,7.0;"/><polygon fill="#A80036" points="578.5548,563.763,577.6768,553.9534,576.1249,559.3932,570.6851,557.8412,578.5548,563.763" style="stroke:#A80036;stroke-width:1.0;"/><!--MD5=[88462a23f10be3da09b5048578ae61fb]
link usantatecla.tictactoe.views.PlayView to usantatecla.tictactoe.views.Message--><path codeLine="62" d="M284.2068,274.077 C299.4508,321.621 323.4258,396.396 344.7638,462.947 " fill="none" id="usantatecla.tictactoe.views.PlayView-to-usantatecla.tictactoe.views.Message" style="stroke:#A80036;stroke-width:1.0;stroke-dasharray:7.0,7.0;"/><polygon fill="#A80036" points="346.2958,467.724,347.3552,457.9323,344.7683,462.963,339.7376,460.3762,346.2958,467.724" style="stroke:#A80036;stroke-width:1.0;"/><!--MD5=[5a1fd8540cf3c654df35761b95f7edfc]
link usantatecla.tictactoe.views.PlayView to usantatecla.tictactoe.views.CoordinateView--><path codeLine="63" d="M242.1058,274.018 C231.0308,294.275 218.4258,317.331 208.3458,335.769 " fill="none" id="usantatecla.tictactoe.views.PlayView-to-usantatecla.tictactoe.views.CoordinateView" style="stroke:#A80036;stroke-width:1.0;stroke-dasharray:7.0,7.0;"/><polygon fill="#A80036" points="205.8398,340.352,213.6669,334.374,208.2384,335.9649,206.6475,330.5363,205.8398,340.352" style="stroke:#A80036;stroke-width:1.0;"/><!--MD5=[4841881f51743e8d86fdbf12e5749d05]
link usantatecla.tictactoe.views.PlayView to usantatecla.tictactoe.views.ErrorView--><path codeLine="64" d="M282.9668,274.232 C291.6878,311.401 299.1378,363.595 287.6308,408 C279.5638,439.131 236.9018,511.309 207.1438,559.374 " fill="none" id="usantatecla.tictactoe.views.PlayView-to-usantatecla.tictactoe.views.ErrorView" style="stroke:#A80036;stroke-width:1.0;stroke-dasharray:7.0,7.0;"/><polygon fill="#A80036" points="204.4858,563.658,212.6294,558.1188,207.1217,559.4092,205.8313,553.9015,204.4858,563.658" style="stroke:#A80036;stroke-width:1.0;"/><!--MD5=[dbe6a193bc47e430c556715af189fbce]
link usantatecla.tictactoe.views.PlayView to Game--><path codeLine="65" d="M328.7328,266.755 C334.2948,269.521 339.9718,271.998 345.6308,274 C559.1268,349.536 654.2098,223.045 851.6308,334 C888.0598,354.473 883.2668,375.579 909.6308,408 C955.6198,464.554 1010.3228,528.872 1044.2658,568.448 " fill="none" id="usantatecla.tictactoe.views.PlayView-to-Game" style="stroke:#A80036;stroke-width:1.0;stroke-dasharray:7.0,7.0;"/><polygon fill="#A80036" points="1047.8958,572.674,1045.0777,563.2369,1044.6427,568.877,1039.0026,568.4419,1047.8958,572.674" style="stroke:#A80036;stroke-width:1.0;"/><!--MD5=[798b734b5945624a37ea5e5da9eb98f4]
link usantatecla.tictactoe.views.PlayView to Coordinate--><path codeLine="66" d="M328.8638,266.399 C334.3988,269.242 340.0318,271.834 345.6308,274 C487.5158,328.892 536.8738,290.418 682.6308,334 C686.3718,335.119 690.1698,336.355 693.9798,337.676 " fill="none" id="usantatecla.tictactoe.views.PlayView-to-Coordinate" style="stroke:#A80036;stroke-width:1.0;stroke-dasharray:7.0,7.0;"/><polygon fill="#A80036" points="698.8078,339.391,691.6668,332.6083,694.0964,337.7167,688.988,340.1464,698.8078,339.391" style="stroke:#A80036;stroke-width:1.0;"/><!--MD5=[fdab1e78d730fc6e84ef65e42e261b3c]
reverse link usantatecla.tictactoe.views.WithGameView to usantatecla.tictactoe.views.ResumeView--><path codeLine="73" d="M436.9448,128.624 C436.6778,147.889 436.3778,169.54 436.1328,187.29 " fill="none" id="usantatecla.tictactoe.views.WithGameView-backto-usantatecla.tictactoe.views.ResumeView" style="stroke:#A80036;stroke-width:1.0;"/><polygon fill="none" points="429.9458,128.492,437.2218,108.59,443.9438,128.685,429.9458,128.492" style="stroke:#A80036;stroke-width:1.0;"/><!--MD5=[d722c2ffb06d94d467aacf8ccf7f5914]
link usantatecla.tictactoe.views.ResumeView to usantatecla.tictactoe.views.Message--><path codeLine="74" d="M431.3568,261.64 C425.9148,307.654 416.1878,389.907 407.6038,462.487 " fill="none" id="usantatecla.tictactoe.views.ResumeView-to-usantatecla.tictactoe.views.Message" style="stroke:#A80036;stroke-width:1.0;stroke-dasharray:7.0,7.0;"/><polygon fill="#A80036" points="406.9878,467.695,412.0193,459.2284,407.5763,462.7298,404.0749,458.2867,406.9878,467.695" style="stroke:#A80036;stroke-width:1.0;"/><!--MD5=[058a021fc4a22492523516b44b54843c]
link usantatecla.tictactoe.views.ResumeView to Game--><path codeLine="75" d="M495.1558,261.552 C504.7668,266.307 514.7958,270.675 524.6308,274 C690.3508,330.023 768.4648,236.387 913.6308,334 C998.0578,390.771 1045.5358,507.324 1065.4158,567.762 " fill="none" id="usantatecla.tictactoe.views.ResumeView-to-Game" style="stroke:#A80036;stroke-width:1.0;stroke-dasharray:7.0,7.0;"/><polygon fill="#A80036" points="1067.0258,572.723,1068.0515,562.9277,1065.482,567.9673,1060.4424,565.3978,1067.0258,572.723" style="stroke:#A80036;stroke-width:1.0;"/><!--MD5=[bc3687463c68825e14d5b9c97353defc]
reverse link usantatecla.tictactoe.views.WithGameView to usantatecla.tictactoe.views.StartView--><path codeLine="81" d="M487.2508,121.934 C511.2968,142.74 539.8558,167.452 562.7828,187.29 " fill="none" id="usantatecla.tictactoe.views.WithGameView-backto-usantatecla.tictactoe.views.StartView" style="stroke:#A80036;stroke-width:1.0;"/><polygon fill="none" points="482.3728,126.97,471.8288,108.59,491.5338,116.384,482.3728,126.97" style="stroke:#A80036;stroke-width:1.0;"/><!--MD5=[3c33f21797e7280b68783134da53ba17]
link usantatecla.tictactoe.views.StartView to usantatecla.tictactoe.views.BoardView--><path codeLine="82" d="M603.1328,261.591 C602.2838,282.021 601.2198,307.65 600.3398,328.858 " fill="none" id="usantatecla.tictactoe.views.StartView-to-usantatecla.tictactoe.views.BoardView" style="stroke:#A80036;stroke-width:1.0;stroke-dasharray:7.0,7.0;"/><polygon fill="#A80036" points="600.1318,333.869,604.5037,325.0437,600.3404,328.8734,596.5107,324.71,600.1318,333.869" style="stroke:#A80036;stroke-width:1.0;"/><!--MD5=[f0fd71cf1c9816476a95de6b47ac79e9]
link usantatecla.tictactoe.views.StartView to usantatecla.tictactoe.views.Message--><path codeLine="83" d="M570.8228,261.862 C553.0318,282.129 531.6498,308.386 515.6308,334 C490.4398,374.282 467.2998,420.48 447.9578,463.233 " fill="none" id="usantatecla.tictactoe.views.StartView-to-usantatecla.tictactoe.views.Message" style="stroke:#A80036;stroke-width:1.0;stroke-dasharray:7.0,7.0;"/><polygon fill="#A80036" points="445.8588,467.892,453.2033,461.3301,447.9131,463.3335,445.9097,458.0433,445.8588,467.892" style="stroke:#A80036;stroke-width:1.0;"/><!--MD5=[57cb4dabf8986639d9dc2aba2a2695f3]
link usantatecla.tictactoe.views.StartView to Game--><path codeLine="84" d="M666.6768,228.078 C798.1238,234.975 1097.6958,258.778 1159.6358,334 C1216.9458,403.602 1150.2558,512.314 1107.3058,568.921 " fill="none" id="usantatecla.tictactoe.views.StartView-to-Game" style="stroke:#A80036;stroke-width:1.0;stroke-dasharray:7.0,7.0;"/><polygon fill="#A80036" points="1104.2558,572.905,1112.9015,568.1878,1107.2941,568.934,1106.5478,563.3266,1104.2558,572.905" style="stroke:#A80036;stroke-width:1.0;"/><!--MD5=[0928562c329ea8b4a9c77ccd844e6de3]
link usantatecla.tictactoe.views.StartView to LimitedIntDialog--><path codeLine="85" d="M666.7238,241.29 C742.4248,260.985 873.9598,296.641 984.6308,334 C992.0328,336.499 999.7128,339.248 1007.3378,342.079 " fill="none" id="usantatecla.tictactoe.views.StartView-to-LimitedIntDialog" style="stroke:#A80036;stroke-width:1.0;stroke-dasharray:7.0,7.0;"/><polygon fill="#A80036" points="1012.0758,343.851,1005.0473,336.9517,1007.3926,342.0995,1002.2449,344.4448,1012.0758,343.851" style="stroke:#A80036;stroke-width:1.0;"/><!--MD5=[8f0fd5e06d544d302ef7a67cdbd1fd5b]
link usantatecla.tictactoe.views.WithGameView to Game--><path codeLine="91" d="M527.4963,111.8011 C527.4963,111.8011 534.0328,114.097 536.6308,115 C828.5538,216.486 1015.7498,83.401 1196.6358,334 C1249.3458,407.038 1174.4158,506.904 1121.3858,563.075 " fill="none" id="usantatecla.tictactoe.views.WithGameView-Game" style="stroke:#A80036;stroke-width:1.0;"/><polygon fill="#A80036" points="1112.0958,572.705,1121.2224,569.0029,1115.5665,569.1058,1115.4636,563.4498,1112.0958,572.705" style="stroke:#A80036;stroke-width:1.0;"/><line style="stroke:#A80036;stroke-width:1.0;" x1="1115.5665" x2="1121.1208" y1="569.1058" y2="563.346"/><polygon fill="#A80036" points="516.1848,107.795,520.5052,113.5686,527.4963,111.8011,523.1759,106.0275,516.1848,107.795" style="stroke:#A80036;stroke-width:1.0;"/><!--MD5=[7bd51cfd1ab93e3cf3c2396115fa3dc9]
link usantatecla.tictactoe.views.TokenView to Token--><path codeLine="98" d="M600.6308,662.1 C600.6308,662.1 600.6308,755.477 600.6308,792.7901 " fill="none" id="usantatecla.tictactoe.views.TokenView-Token" style="stroke:#A80036;stroke-width:1.0;"/><polygon fill="#A80036" points="600.6308,805.7919,604.6308,796.7919,600.6308,800.7919,596.6308,796.7919,600.6308,805.7919" style="stroke:#A80036;stroke-width:1.0;"/><line style="stroke:#A80036;stroke-width:1.0;" x1="600.6308" x2="600.6308" y1="800.7919" y2="792.792"/><polygon fill="#A80036" points="600.6308,650.1,596.6308,656.1,600.6308,662.1,604.6308,656.1,600.6308,650.1" style="stroke:#A80036;stroke-width:1.0;"/><!--MD5=[19a4089fd1b965bc35301fcd3e41e107]
link usantatecla.tictactoe.views.TokenView to Console--><path codeLine="99" d="M587.3868,650.339 C574.3348,686.145 551.2768,736.783 516.6308,770 C494.8618,790.8715 465.6288,806.3116 438.8938,817.2303 " fill="none" id="usantatecla.tictactoe.views.TokenView-to-Console" style="stroke:#A80036;stroke-width:1.0;stroke-dasharray:7.0,7.0;"/><polygon fill="#A80036" points="433.9338,819.2167,443.7758,819.5846,438.5755,817.3581,440.8021,812.1579,433.9338,819.2167" style="stroke:#A80036;stroke-width:1.0;"/><!--MD5=[b4182c9039d2bdb2ad2b875fff96bd5f]
link usantatecla.tictactoe.views.View to usantatecla.tictactoe.views.StartView--><path codeLine="105" d="M603.297,127.0898 C603.297,127.0898 603.7448,159.429 603.9498,174.247 " fill="none" id="usantatecla.tictactoe.views.View-usantatecla.tictactoe.views.StartView" style="stroke:#A80036;stroke-width:1.0;"/><polygon fill="#A80036" points="604.1308,187.369,608.0058,178.3145,604.0616,182.3695,600.0066,178.4252,604.1308,187.369" style="stroke:#A80036;stroke-width:1.0;"/><line style="stroke:#A80036;stroke-width:1.0;" x1="604.0616" x2="603.9513" y1="182.3695" y2="174.37"/><polygon fill="#A80036" points="603.1308,115.091,599.2143,121.1458,603.297,127.0898,607.2135,121.035,603.1308,115.091" style="stroke:#A80036;stroke-width:1.0;"/><!--MD5=[80eeea65d4b4d8d124540272ee088667]
link usantatecla.tictactoe.views.View to usantatecla.tictactoe.views.PlayView--><path codeLine="106" d="M543.2786,110.7592 C543.2786,110.7592 536.4728,113.816 533.6308,115 C452.6738,148.743 425.1518,137.998 345.6308,175 C343.8858,175.812 342.1318,176.657 340.3738,177.53 " fill="none" id="usantatecla.tictactoe.views.View-usantatecla.tictactoe.views.PlayView" style="stroke:#A80036;stroke-width:1.0;"/><polygon fill="#A80036" points="328.7728,183.637,338.6,182.9839,333.1971,181.3078,334.8732,175.905,328.7728,183.637" style="stroke:#A80036;stroke-width:1.0;"/><line style="stroke:#A80036;stroke-width:1.0;" x1="333.1971" x2="340.2763" y1="181.3078" y2="177.581"/><polygon fill="#A80036" points="554.1258,105.627,546.9915,104.5774,543.2786,110.7592,550.4129,111.8088,554.1258,105.627" style="stroke:#A80036;stroke-width:1.0;"/><!--MD5=[577bcf8005ed3901c27cd9ef0f664d27]
link usantatecla.tictactoe.views.View to usantatecla.tictactoe.views.ResumeView--><path codeLine="107" d="M551.8457,122.9423 C551.8457,122.9423 507.6308,161.201 487.3758,178.727 " fill="none" id="usantatecla.tictactoe.views.View-usantatecla.tictactoe.views.ResumeView" style="stroke:#A80036;stroke-width:1.0;"/><polygon fill="#A80036" points="477.3888,187.369,486.8118,184.5041,481.1696,184.097,481.5766,178.4548,477.3888,187.369" style="stroke:#A80036;stroke-width:1.0;"/><line style="stroke:#A80036;stroke-width:1.0;" x1="481.1696" x2="487.2193" y1="184.097" y2="178.8625"/><polygon fill="#A80036" points="560.9208,115.091,553.7662,115.9916,551.8457,122.9423,559.0004,122.0417,560.9208,115.091" style="stroke:#A80036;stroke-width:1.0;"/><!--MD5=[df75c91ec310a8a186288e5ba4f70827]
link usantatecla.tictactoe.views.View to Game--><path codeLine="108" d="M663.3447,82.9653 C663.3447,82.9653 1250.6158,127.87 1291.6358,175 C1359.6158,253.114 1333.2158,313.162 1291.6358,408 C1261.8258,475.973 1195.8958,530.909 1144.8458,565.516 " fill="none" id="usantatecla.tictactoe.views.View-Game" style="stroke:#A80036;stroke-width:1.0;"/><polygon fill="#A80036" points="1133.8658,572.803,1143.5767,571.1602,1138.0321,570.0386,1139.1537,564.4941,1133.8658,572.803" style="stroke:#A80036;stroke-width:1.0;"/><line style="stroke:#A80036;stroke-width:1.0;" x1="1138.0321" x2="1144.7008" y1="570.0386" y2="565.6125"/><polygon fill="#A80036" points="651.3728,82.145,657.0853,86.5458,663.3447,82.9653,657.6322,78.5645,651.3728,82.145" style="stroke:#A80036;stroke-width:1.0;"/><!--MD5=[d097d1487593102cdc8f7bad4692893e]
@startuml
class Console as "usantatecla.utils.\nConsole"
class Coordinate as "usantatecla.\ntictactoe.models.\nCoordinate" 
class Game as "usantatecla.\ntictactoe.models.\nGame"
class LimitedIntDialog as "usantatecla.utils.\nLimitedIntDialog"
class Token as "usantatecla.\ntictactoe.models.\nToken"
class Error as "usantatecla.\ntictactoe.models.\nError"

class  usantatecla.tictactoe.views.CoordinateView{
  + read(String): Coordinate
}
Console <..-down- usantatecla.tictactoe.views.CoordinateView
Coordinate <..-down- usantatecla.tictactoe.views.CoordinateView
usantatecla.tictactoe.views.CoordinateView ..> usantatecla.tictactoe.views.ErrorView

class  usantatecla.tictactoe.views.ErrorView{
  - {static} MESSAGES: String[]
  ~ ErrorView(Error)
  ~ writeln()
}
usantatecla.tictactoe.views.ErrorView *-down-> Error
Console <..-down- usantatecla.tictactoe.views.ErrorView

class  usantatecla.tictactoe.views.BoardView{
  ~ BoardView(Game)
  ~ write()
}
usantatecla.tictactoe.views.BoardView *-down-> Game
usantatecla.tictactoe.views.BoardView .down.> usantatecla.tictactoe.views.Message
usantatecla.tictactoe.views.BoardView .down.> Coordinate
usantatecla.tictactoe.views.BoardView .down.> usantatecla.tictactoe.views.TokenView

enum  usantatecla.tictactoe.views.Message{
  + TITLE
  + NUMBER_PLAYERS
  + SEPARATOR
  + VERTICAL_LINE_LEFT
  + VERTICAL_LINE_CENTERED
  + VERTICAL_LINE_RIGHT
  + ENTER_COORDINATE_TO_PUT
  + ENTER_COORDINATE_TO_REMOVE
  + COORDINATE_TO_PUT
  + COORDINATE_TO_REMOVE
  + COORDINATE_TO_MOVE
  +	PLAYER_WIN
  + RESUME
  - message: String
  - Message(String)
  ~ write()
  ~ writeln()
  + toString(): String
}
usantatecla.tictactoe.views.Message .down.> Console

class  usantatecla.tictactoe.views.PlayView{
  ~ PlayView(Game)
  ~ interact()
  - put()
  - move()
}
usantatecla.tictactoe.views.WithGameView <|-down- usantatecla.tictactoe.views.PlayView
usantatecla.tictactoe.views.PlayView .down.> usantatecla.tictactoe.views.TokenView
usantatecla.tictactoe.views.PlayView .down.> usantatecla.tictactoe.views.Message
usantatecla.tictactoe.views.PlayView .down.> usantatecla.tictactoe.views.CoordinateView
usantatecla.tictactoe.views.PlayView .down.> usantatecla.tictactoe.views.ErrorView
usantatecla.tictactoe.views.PlayView .down.> Game
usantatecla.tictactoe.views.PlayView .down.> Coordinate

class  usantatecla.tictactoe.views.ResumeView{
  ~ ResumeView(Game)
  ~ interact(): boolean

}
usantatecla.tictactoe.views.WithGameView <|-down- usantatecla.tictactoe.views.ResumeView
usantatecla.tictactoe.views.ResumeView .down.> usantatecla.tictactoe.views.Message
usantatecla.tictactoe.views.ResumeView .down.> Game

class usantatecla.tictactoe.views.StartView{
  ~ StartView(Game)
  ~ interact()
}
usantatecla.tictactoe.views.WithGameView <|-down- usantatecla.tictactoe.views.StartView
usantatecla.tictactoe.views.StartView .down.> usantatecla.tictactoe.views.BoardView
usantatecla.tictactoe.views.StartView .down.> usantatecla.tictactoe.views.Message
usantatecla.tictactoe.views.StartView .down.> Game
usantatecla.tictactoe.views.StartView .down.> LimitedIntDialog

abstract class usantatecla.tictactoe.views.WithGameView{
  ~ WithGameView(Game)
}

usantatecla.tictactoe.views.WithGameView *-down-> Game

class usantatecla.tictactoe.views.TokenView{
  - {static} SYMBOLS: char
  ~ TokenView(Token)
  ~ write()
}
usantatecla.tictactoe.views.TokenView *-down-> Token
usantatecla.tictactoe.views.TokenView .down.> Console

class  usantatecla.tictactoe.views.View{
  + View(Game)
  + interact()
}
usantatecla.tictactoe.views.View *-down-> usantatecla.tictactoe.views.StartView
usantatecla.tictactoe.views.View *-down-> usantatecla.tictactoe.views.PlayView
usantatecla.tictactoe.views.View *-down-> usantatecla.tictactoe.views.ResumeView
usantatecla.tictactoe.views.View *-down-> Game
@enduml

PlantUML version 1.2020.23beta3(Unknown compile time)
(GPL source distribution)
Java Runtime: Java(TM) SE Runtime Environment
JVM: Java HotSpot(TM) 64-Bit Server VM
Default Encoding: UTF-8
Language: en
Country: US
--></g></svg>