<?xml version="1.0" encoding="UTF-8" standalone="no"?><svg xmlns="http://www.w3.org/2000/svg" xmlns:xlink="http://www.w3.org/1999/xlink" contentScriptType="application/ecmascript" contentStyleType="text/css" height="866px" preserveAspectRatio="none" style="width:1646px;height:866px;" version="1.1" viewBox="0 0 1646 866" width="1646px" zoomAndPan="magnify"><defs><filter height="300%" id="foyl91f9nbp3n" width="300%" x="-1" y="-1"><feGaussianBlur result="blurOut" stdDeviation="2.0"/><feColorMatrix in="blurOut" result="blurOut2" type="matrix" values="0 0 0 0 0 0 0 0 0 0 0 0 0 0 0 0 0 0 .4 0"/><feOffset dx="4.0" dy="4.0" in="blurOut2" result="blurOut3"/><feBlend in="SourceGraphic" in2="blurOut3" mode="normal"/></filter></defs><g><!--MD5=[e2a75efa8a0f57c2afae8bf75386f79c]
cluster views--><polygon fill="#FFFFFF" filter="url(#foyl91f9nbp3n)" points="92.5,6,143.5,6,150.5,28.2969,786.5,28.2969,786.5,755,92.5,755,92.5,6" style="stroke:#000000;stroke-width:1.5;"/><line style="stroke:#000000;stroke-width:1.5;" x1="92.5" x2="150.5" y1="28.2969" y2="28.2969"/><text fill="#000000" font-family="sans-serif" font-size="14" font-weight="bold" lengthAdjust="spacing" textLength="45" x="96.5" y="20.9951">views</text><!--MD5=[5563f2eac69cd97c311bb50067a34021]
class views.BoardView--><rect codeLine="10" fill="#FEFECE" filter="url(#foyl91f9nbp3n)" height="60.8047" id="views.BoardView" style="stroke:#A80036;stroke-width:1.5;" width="144" x="451.5" y="270"/><ellipse cx="487.65" cy="286" fill="#ADD1B2" rx="11" ry="11" style="stroke:#A80036;stroke-width:1.0;"/><path d="M489.9938,281.6719 C489.0563,281.2344 488.4625,281.0938 487.5875,281.0938 C484.9625,281.0938 482.9625,283.1719 482.9625,285.8906 L482.9625,287.0156 C482.9625,289.5938 485.0719,291.4844 487.9625,291.4844 C489.1813,291.4844 490.3375,291.1875 491.0875,290.6406 C491.6656,290.2344 491.9938,289.7813 491.9938,289.3906 C491.9938,288.9375 491.6031,288.5469 491.1344,288.5469 C490.9156,288.5469 490.7125,288.625 490.525,288.8125 C490.0719,289.2969 490.0719,289.2969 489.8844,289.3906 C489.4625,289.6563 488.775,289.7813 488.0094,289.7813 C485.9625,289.7813 484.6656,288.6875 484.6656,286.9844 L484.6656,285.8906 C484.6656,284.1094 485.9156,282.7969 487.65,282.7969 C488.2281,282.7969 488.8375,282.9531 489.3063,283.2031 C489.7906,283.4844 489.9625,283.7031 490.0563,284.1094 C490.1188,284.5156 490.15,284.6406 490.2906,284.7656 C490.4313,284.9063 490.6656,285.0156 490.8844,285.0156 C491.15,285.0156 491.4156,284.875 491.5875,284.6563 C491.6969,284.5 491.7281,284.3125 491.7281,283.8906 L491.7281,282.4688 C491.7281,282.0313 491.7125,281.9063 491.6188,281.75 C491.4625,281.4844 491.1813,281.3438 490.8844,281.3438 C490.5875,281.3438 490.3844,281.4375 490.1656,281.75 L489.9938,281.6719 Z " fill="#000000"/><text fill="#000000" font-family="sans-serif" font-size="12" lengthAdjust="spacing" textLength="65" x="506.35" y="290.1543">BoardView</text><line style="stroke:#A80036;stroke-width:1.5;" x1="452.5" x2="594.5" y1="302" y2="302"/><line style="stroke:#A80036;stroke-width:1.5;" x1="452.5" x2="594.5" y1="310" y2="310"/><polygon fill="#4177AF" points="462.5,317,458.5,323,466.5,323" style="stroke:#1963A0;stroke-width:1.0;"/><text fill="#000000" font-family="sans-serif" font-size="11" lengthAdjust="spacing" textLength="118" x="471.5" y="324.2104">write(StartController)</text><!--MD5=[52a75152711b30ce05e31727f0039306]
class views.ErrorView--><rect codeLine="14" fill="#FEFECE" filter="url(#foyl91f9nbp3n)" height="60.8047" id="views.ErrorView" style="stroke:#A80036;stroke-width:1.5;" width="98" x="507.5" y="678"/><ellipse cx="525.65" cy="694" fill="#ADD1B2" rx="11" ry="11" style="stroke:#A80036;stroke-width:1.0;"/><path d="M527.9938,689.6719 C527.0563,689.2344 526.4625,689.0938 525.5875,689.0938 C522.9625,689.0938 520.9625,691.1719 520.9625,693.8906 L520.9625,695.0156 C520.9625,697.5938 523.0719,699.4844 525.9625,699.4844 C527.1813,699.4844 528.3375,699.1875 529.0875,698.6406 C529.6656,698.2344 529.9938,697.7813 529.9938,697.3906 C529.9938,696.9375 529.6031,696.5469 529.1344,696.5469 C528.9156,696.5469 528.7125,696.625 528.525,696.8125 C528.0719,697.2969 528.0719,697.2969 527.8844,697.3906 C527.4625,697.6563 526.775,697.7813 526.0094,697.7813 C523.9625,697.7813 522.6656,696.6875 522.6656,694.9844 L522.6656,693.8906 C522.6656,692.1094 523.9156,690.7969 525.65,690.7969 C526.2281,690.7969 526.8375,690.9531 527.3063,691.2031 C527.7906,691.4844 527.9625,691.7031 528.0563,692.1094 C528.1188,692.5156 528.15,692.6406 528.2906,692.7656 C528.4313,692.9063 528.6656,693.0156 528.8844,693.0156 C529.15,693.0156 529.4156,692.875 529.5875,692.6563 C529.6969,692.5 529.7281,692.3125 529.7281,691.8906 L529.7281,690.4688 C529.7281,690.0313 529.7125,689.9063 529.6188,689.75 C529.4625,689.4844 529.1813,689.3438 528.8844,689.3438 C528.5875,689.3438 528.3844,689.4375 528.1656,689.75 L527.9938,689.6719 Z " fill="#000000"/><text fill="#000000" font-family="sans-serif" font-size="12" lengthAdjust="spacing" textLength="59" x="540.35" y="698.1543">ErrorView</text><line style="stroke:#A80036;stroke-width:1.5;" x1="508.5" x2="604.5" y1="710" y2="710"/><line style="stroke:#A80036;stroke-width:1.5;" x1="508.5" x2="604.5" y1="718" y2="718"/><polygon fill="#4177AF" points="518.5,725,514.5,731,522.5,731" style="stroke:#1963A0;stroke-width:1.0;"/><text fill="#000000" font-family="sans-serif" font-size="11" lengthAdjust="spacing" textLength="72" x="527.5" y="732.2104">writeln(Error)</text><!--MD5=[15992c3de3db46d2901aebcad9c61d0d]
class views.PlayView--><rect codeLine="18" fill="#FEFECE" filter="url(#foyl91f9nbp3n)" height="60.8047" id="views.PlayView" style="stroke:#A80036;stroke-width:1.5;" width="136" x="590.5" y="149"/><ellipse cx="628.9" cy="165" fill="#ADD1B2" rx="11" ry="11" style="stroke:#A80036;stroke-width:1.0;"/><path d="M631.2438,160.6719 C630.3063,160.2344 629.7125,160.0938 628.8375,160.0938 C626.2125,160.0938 624.2125,162.1719 624.2125,164.8906 L624.2125,166.0156 C624.2125,168.5938 626.3219,170.4844 629.2125,170.4844 C630.4313,170.4844 631.5875,170.1875 632.3375,169.6406 C632.9156,169.2344 633.2438,168.7813 633.2438,168.3906 C633.2438,167.9375 632.8531,167.5469 632.3844,167.5469 C632.1656,167.5469 631.9625,167.625 631.775,167.8125 C631.3219,168.2969 631.3219,168.2969 631.1344,168.3906 C630.7125,168.6563 630.025,168.7813 629.2594,168.7813 C627.2125,168.7813 625.9156,167.6875 625.9156,165.9844 L625.9156,164.8906 C625.9156,163.1094 627.1656,161.7969 628.9,161.7969 C629.4781,161.7969 630.0875,161.9531 630.5563,162.2031 C631.0406,162.4844 631.2125,162.7031 631.3063,163.1094 C631.3688,163.5156 631.4,163.6406 631.5406,163.7656 C631.6813,163.9063 631.9156,164.0156 632.1344,164.0156 C632.4,164.0156 632.6656,163.875 632.8375,163.6563 C632.9469,163.5 632.9781,163.3125 632.9781,162.8906 L632.9781,161.4688 C632.9781,161.0313 632.9625,160.9063 632.8688,160.75 C632.7125,160.4844 632.4313,160.3438 632.1344,160.3438 C631.8375,160.3438 631.6344,160.4375 631.4156,160.75 L631.2438,160.6719 Z " fill="#000000"/><text fill="#000000" font-family="sans-serif" font-size="12" lengthAdjust="spacing" textLength="52" x="648.1" y="169.1543">PlayView</text><line style="stroke:#A80036;stroke-width:1.5;" x1="591.5" x2="725.5" y1="181" y2="181"/><line style="stroke:#A80036;stroke-width:1.5;" x1="591.5" x2="725.5" y1="189" y2="189"/><polygon fill="#4177AF" points="601.5,196,597.5,202,605.5,202" style="stroke:#1963A0;stroke-width:1.0;"/><text fill="#000000" font-family="sans-serif" font-size="11" lengthAdjust="spacing" textLength="110" x="610.5" y="203.2104">play(PlayController)</text><!--MD5=[efe083823ff420907f2c8e105cba547e]
class views.ResumeView--><rect codeLine="22" fill="#FEFECE" filter="url(#foyl91f9nbp3n)" height="60.8047" id="views.ResumeView" style="stroke:#A80036;stroke-width:1.5;" width="233" x="146" y="270"/><ellipse cx="219.75" cy="286" fill="#ADD1B2" rx="11" ry="11" style="stroke:#A80036;stroke-width:1.0;"/><path d="M222.0938,281.6719 C221.1563,281.2344 220.5625,281.0938 219.6875,281.0938 C217.0625,281.0938 215.0625,283.1719 215.0625,285.8906 L215.0625,287.0156 C215.0625,289.5938 217.1719,291.4844 220.0625,291.4844 C221.2813,291.4844 222.4375,291.1875 223.1875,290.6406 C223.7656,290.2344 224.0938,289.7813 224.0938,289.3906 C224.0938,288.9375 223.7031,288.5469 223.2344,288.5469 C223.0156,288.5469 222.8125,288.625 222.625,288.8125 C222.1719,289.2969 222.1719,289.2969 221.9844,289.3906 C221.5625,289.6563 220.875,289.7813 220.1094,289.7813 C218.0625,289.7813 216.7656,288.6875 216.7656,286.9844 L216.7656,285.8906 C216.7656,284.1094 218.0156,282.7969 219.75,282.7969 C220.3281,282.7969 220.9375,282.9531 221.4063,283.2031 C221.8906,283.4844 222.0625,283.7031 222.1563,284.1094 C222.2188,284.5156 222.25,284.6406 222.3906,284.7656 C222.5313,284.9063 222.7656,285.0156 222.9844,285.0156 C223.25,285.0156 223.5156,284.875 223.6875,284.6563 C223.7969,284.5 223.8281,284.3125 223.8281,283.8906 L223.8281,282.4688 C223.8281,282.0313 223.8125,281.9063 223.7188,281.75 C223.5625,281.4844 223.2813,281.3438 222.9844,281.3438 C222.6875,281.3438 222.4844,281.4375 222.2656,281.75 L222.0938,281.6719 Z " fill="#000000"/><text fill="#000000" font-family="sans-serif" font-size="12" lengthAdjust="spacing" textLength="77" x="240.25" y="290.1543">ResumeView</text><line style="stroke:#A80036;stroke-width:1.5;" x1="147" x2="378" y1="302" y2="302"/><line style="stroke:#A80036;stroke-width:1.5;" x1="147" x2="378" y1="310" y2="310"/><polygon fill="#4177AF" points="157,317,153,323,161,323" style="stroke:#1963A0;stroke-width:1.0;"/><text fill="#000000" font-family="sans-serif" font-size="11" lengthAdjust="spacing" textLength="207" x="166" y="324.2104">resume(ResumeController): boolean</text><!--MD5=[eba1bc73714f08f0da8dc05a139be9c1]
class views.StartView--><rect codeLine="26" fill="#FEFECE" filter="url(#foyl91f9nbp3n)" height="60.8047" id="views.StartView" style="stroke:#A80036;stroke-width:1.5;" width="141" x="414" y="149"/><ellipse cx="452.4" cy="165" fill="#ADD1B2" rx="11" ry="11" style="stroke:#A80036;stroke-width:1.0;"/><path d="M454.7438,160.6719 C453.8063,160.2344 453.2125,160.0938 452.3375,160.0938 C449.7125,160.0938 447.7125,162.1719 447.7125,164.8906 L447.7125,166.0156 C447.7125,168.5938 449.8219,170.4844 452.7125,170.4844 C453.9313,170.4844 455.0875,170.1875 455.8375,169.6406 C456.4156,169.2344 456.7438,168.7813 456.7438,168.3906 C456.7438,167.9375 456.3531,167.5469 455.8844,167.5469 C455.6656,167.5469 455.4625,167.625 455.275,167.8125 C454.8219,168.2969 454.8219,168.2969 454.6344,168.3906 C454.2125,168.6563 453.525,168.7813 452.7594,168.7813 C450.7125,168.7813 449.4156,167.6875 449.4156,165.9844 L449.4156,164.8906 C449.4156,163.1094 450.6656,161.7969 452.4,161.7969 C452.9781,161.7969 453.5875,161.9531 454.0563,162.2031 C454.5406,162.4844 454.7125,162.7031 454.8063,163.1094 C454.8688,163.5156 454.9,163.6406 455.0406,163.7656 C455.1813,163.9063 455.4156,164.0156 455.6344,164.0156 C455.9,164.0156 456.1656,163.875 456.3375,163.6563 C456.4469,163.5 456.4781,163.3125 456.4781,162.8906 L456.4781,161.4688 C456.4781,161.0313 456.4625,160.9063 456.3688,160.75 C456.2125,160.4844 455.9313,160.3438 455.6344,160.3438 C455.3375,160.3438 455.1344,160.4375 454.9156,160.75 L454.7438,160.6719 Z " fill="#000000"/><text fill="#000000" font-family="sans-serif" font-size="12" lengthAdjust="spacing" textLength="57" x="471.6" y="169.1543">StartView</text><line style="stroke:#A80036;stroke-width:1.5;" x1="415" x2="554" y1="181" y2="181"/><line style="stroke:#A80036;stroke-width:1.5;" x1="415" x2="554" y1="189" y2="189"/><polygon fill="#4177AF" points="425,196,421,202,429,202" style="stroke:#1963A0;stroke-width:1.0;"/><text fill="#000000" font-family="sans-serif" font-size="11" lengthAdjust="spacing" textLength="115" x="434" y="203.2104">start(StartController)</text><!--MD5=[625ef0ab1f49174a2477f77f78895d5e]
class views.MovementView--><rect codeLine="30" fill="#FEFECE" filter="url(#foyl91f9nbp3n)" height="60.8047" id="views.MovementView" style="stroke:#A80036;stroke-width:1.5;" width="124" x="638.5" y="474"/><ellipse cx="653.5" cy="490" fill="#ADD1B2" rx="11" ry="11" style="stroke:#A80036;stroke-width:1.0;"/><path d="M655.8438,485.6719 C654.9063,485.2344 654.3125,485.0938 653.4375,485.0938 C650.8125,485.0938 648.8125,487.1719 648.8125,489.8906 L648.8125,491.0156 C648.8125,493.5938 650.9219,495.4844 653.8125,495.4844 C655.0313,495.4844 656.1875,495.1875 656.9375,494.6406 C657.5156,494.2344 657.8438,493.7813 657.8438,493.3906 C657.8438,492.9375 657.4531,492.5469 656.9844,492.5469 C656.7656,492.5469 656.5625,492.625 656.375,492.8125 C655.9219,493.2969 655.9219,493.2969 655.7344,493.3906 C655.3125,493.6563 654.625,493.7813 653.8594,493.7813 C651.8125,493.7813 650.5156,492.6875 650.5156,490.9844 L650.5156,489.8906 C650.5156,488.1094 651.7656,486.7969 653.5,486.7969 C654.0781,486.7969 654.6875,486.9531 655.1563,487.2031 C655.6406,487.4844 655.8125,487.7031 655.9063,488.1094 C655.9688,488.5156 656,488.6406 656.1406,488.7656 C656.2813,488.9063 656.5156,489.0156 656.7344,489.0156 C657,489.0156 657.2656,488.875 657.4375,488.6563 C657.5469,488.5 657.5781,488.3125 657.5781,487.8906 L657.5781,486.4688 C657.5781,486.0313 657.5625,485.9063 657.4688,485.75 C657.3125,485.4844 657.0313,485.3438 656.7344,485.3438 C656.4375,485.3438 656.2344,485.4375 656.0156,485.75 L655.8438,485.6719 Z " fill="#000000"/><text fill="#000000" font-family="sans-serif" font-size="12" lengthAdjust="spacing" textLength="92" x="667.5" y="494.1543">MovementView</text><line style="stroke:#A80036;stroke-width:1.5;" x1="639.5" x2="761.5" y1="506" y2="506"/><line style="stroke:#A80036;stroke-width:1.5;" x1="639.5" x2="761.5" y1="514" y2="514"/><polygon fill="#4177AF" points="649.5,521,645.5,527,653.5,527" style="stroke:#1963A0;stroke-width:1.0;"/><text fill="#000000" font-family="sans-serif" font-size="11" lengthAdjust="spacing" textLength="51" x="658.5" y="528.2104">interact()</text><!--MD5=[17c5bd0e327a2997366869d748d685d5]
class views.ColorView--><rect codeLine="34" fill="#FEFECE" filter="url(#foyl91f9nbp3n)" height="60.8047" id="views.ColorView" style="stroke:#A80036;stroke-width:1.5;" width="93" x="436" y="474"/><ellipse cx="451" cy="490" fill="#ADD1B2" rx="11" ry="11" style="stroke:#A80036;stroke-width:1.0;"/><path d="M453.3438,485.6719 C452.4063,485.2344 451.8125,485.0938 450.9375,485.0938 C448.3125,485.0938 446.3125,487.1719 446.3125,489.8906 L446.3125,491.0156 C446.3125,493.5938 448.4219,495.4844 451.3125,495.4844 C452.5313,495.4844 453.6875,495.1875 454.4375,494.6406 C455.0156,494.2344 455.3438,493.7813 455.3438,493.3906 C455.3438,492.9375 454.9531,492.5469 454.4844,492.5469 C454.2656,492.5469 454.0625,492.625 453.875,492.8125 C453.4219,493.2969 453.4219,493.2969 453.2344,493.3906 C452.8125,493.6563 452.125,493.7813 451.3594,493.7813 C449.3125,493.7813 448.0156,492.6875 448.0156,490.9844 L448.0156,489.8906 C448.0156,488.1094 449.2656,486.7969 451,486.7969 C451.5781,486.7969 452.1875,486.9531 452.6563,487.2031 C453.1406,487.4844 453.3125,487.7031 453.4063,488.1094 C453.4688,488.5156 453.5,488.6406 453.6406,488.7656 C453.7813,488.9063 454.0156,489.0156 454.2344,489.0156 C454.5,489.0156 454.7656,488.875 454.9375,488.6563 C455.0469,488.5 455.0781,488.3125 455.0781,487.8906 L455.0781,486.4688 C455.0781,486.0313 455.0625,485.9063 454.9688,485.75 C454.8125,485.4844 454.5313,485.3438 454.2344,485.3438 C453.9375,485.3438 453.7344,485.4375 453.5156,485.75 L453.3438,485.6719 Z " fill="#000000"/><text fill="#000000" font-family="sans-serif" font-size="12" lengthAdjust="spacing" textLength="61" x="465" y="494.1543">ColorView</text><line style="stroke:#A80036;stroke-width:1.5;" x1="437" x2="528" y1="506" y2="506"/><line style="stroke:#A80036;stroke-width:1.5;" x1="437" x2="528" y1="514" y2="514"/><polygon fill="#4177AF" points="447,521,443,527,451,527" style="stroke:#1963A0;stroke-width:1.0;"/><text fill="#000000" font-family="sans-serif" font-size="11" lengthAdjust="spacing" textLength="65" x="456" y="528.2104">write(Color)</text><!--MD5=[692bbdbc7ace692555185cdf9d0c2e06]
class views.Message--><rect codeLine="38" fill="#FEFECE" filter="url(#foyl91f9nbp3n)" height="227.2656" id="views.Message" style="stroke:#A80036;stroke-width:1.5;" width="192" x="187.5" y="391"/><ellipse cx="251.75" cy="407" fill="#EB937F" rx="11" ry="11" style="stroke:#A80036;stroke-width:1.0;"/><path d="M250.5469,407.875 L252,407.875 L252,407.9844 C252,408.3906 252.0313,408.5469 252.1094,408.7031 C252.2656,408.9531 252.5469,409.1094 252.8438,409.1094 C253.0938,409.1094 253.3594,408.9688 253.5156,408.75 C253.6406,408.5938 253.6719,408.4375 253.6719,407.9844 L253.6719,406.0625 C253.6719,405.9063 253.6719,405.8594 253.6563,405.7031 C253.5938,405.2344 253.2813,404.9219 252.8281,404.9219 C252.5781,404.9219 252.3125,405.0625 252.1406,405.2813 C252.0313,405.4531 252,405.6094 252,406.0625 L252,406.1875 L250.5469,406.1875 L250.5469,403.7813 L254.5313,403.7813 L254.5313,404.6406 C254.5313,405.0469 254.5625,405.2188 254.6406,405.375 C254.8125,405.625 255.0938,405.7813 255.375,405.7813 C255.6406,405.7813 255.9063,405.6406 256.0781,405.4219 C256.1875,405.25 256.2188,405.1094 256.2188,404.6406 L256.2188,402.0938 L248.5938,402.0938 C248.1563,402.0938 248.0313,402.1094 247.875,402.2031 C247.625,402.3594 247.4688,402.6563 247.4688,402.9375 C247.4688,403.2188 247.6094,403.4688 247.8281,403.6406 C247.9844,403.75 248.1719,403.7813 248.5938,403.7813 L248.8438,403.7813 L248.8438,410.2969 L248.5938,410.2969 C248.1875,410.2969 248.0313,410.3125 247.875,410.4219 C247.625,410.5938 247.4688,410.8594 247.4688,411.1563 C247.4688,411.4219 247.6094,411.6719 247.8281,411.8281 C247.9688,411.9531 248.2031,412 248.5938,412 L256.5938,412 L256.5938,409.4219 C256.5938,408.9844 256.5625,408.8438 256.4844,408.6875 C256.3125,408.4375 256.0313,408.2813 255.75,408.2813 C255.4844,408.2813 255.2188,408.3906 255.0469,408.6406 C254.9375,408.7969 254.9063,408.9375 254.9063,409.4219 L254.9063,410.2969 L250.5469,410.2969 L250.5469,407.875 Z " fill="#000000"/><text fill="#000000" font-family="sans-serif" font-size="12" lengthAdjust="spacing" textLength="55" x="272.25" y="411.1543">Message</text><line style="stroke:#A80036;stroke-width:1.5;" x1="188.5" x2="378.5" y1="423" y2="423"/><ellipse cx="198.5" cy="434" rx="3" ry="3" style="stroke:#038048;stroke-width:1.0;fill:none;"/><text fill="#000000" font-family="sans-serif" font-size="11" lengthAdjust="spacing" textLength="30" x="207.5" y="437.2104">TITLE</text><ellipse cx="198.5" cy="446.8047" rx="3" ry="3" style="stroke:#038048;stroke-width:1.0;fill:none;"/><text fill="#000000" font-family="sans-serif" font-size="11" lengthAdjust="spacing" textLength="103" x="207.5" y="450.0151">HORIZONTAL_LINE</text><ellipse cx="198.5" cy="459.6094" rx="3" ry="3" style="stroke:#038048;stroke-width:1.0;fill:none;"/><text fill="#000000" font-family="sans-serif" font-size="11" lengthAdjust="spacing" textLength="84" x="207.5" y="462.8198">VERTICAL_LINE</text><ellipse cx="198.5" cy="472.4141" rx="3" ry="3" style="stroke:#038048;stroke-width:1.0;fill:none;"/><text fill="#000000" font-family="sans-serif" font-size="11" lengthAdjust="spacing" textLength="109" x="207.5" y="475.6245">ACTION_COMMAND</text><ellipse cx="198.5" cy="485.2188" rx="3" ry="3" style="stroke:#038048;stroke-width:1.0;fill:none;"/><text fill="#000000" font-family="sans-serif" font-size="11" lengthAdjust="spacing" textLength="100" x="207.5" y="488.4292">UNDO_COMMAND</text><ellipse cx="198.5" cy="498.0234" rx="3" ry="3" style="stroke:#038048;stroke-width:1.0;fill:none;"/><text fill="#000000" font-family="sans-serif" font-size="11" lengthAdjust="spacing" textLength="98" x="207.5" y="501.2339">REDO_COMMAND</text><ellipse cx="198.5" cy="510.8281" rx="3" ry="3" style="stroke:#038048;stroke-width:1.0;fill:none;"/><text fill="#000000" font-family="sans-serif" font-size="11" lengthAdjust="spacing" textLength="166" x="207.5" y="514.0386">ENTER_COORDINATE_TO_PUT</text><ellipse cx="198.5" cy="523.6328" rx="3" ry="3" style="stroke:#038048;stroke-width:1.0;fill:none;"/><text fill="#000000" font-family="sans-serif" font-size="11" lengthAdjust="spacing" textLength="124" x="207.5" y="526.8433">COORDINATE_TO_PUT</text><ellipse cx="198.5" cy="536.4375" rx="3" ry="3" style="stroke:#038048;stroke-width:1.0;fill:none;"/><text fill="#000000" font-family="sans-serif" font-size="11" lengthAdjust="spacing" textLength="150" x="207.5" y="539.6479">COORDINATE_TO_REMOVE</text><ellipse cx="198.5" cy="549.2422" rx="3" ry="3" style="stroke:#038048;stroke-width:1.0;fill:none;"/><text fill="#000000" font-family="sans-serif" font-size="11" lengthAdjust="spacing" textLength="136" x="207.5" y="552.4526">COORDINATE_TO_MOVE</text><ellipse cx="198.5" cy="562.0469" rx="3" ry="3" style="stroke:#038048;stroke-width:1.0;fill:none;"/><text fill="#000000" font-family="sans-serif" font-size="11" lengthAdjust="spacing" textLength="69" x="207.5" y="565.2573">PLAYER_WIN</text><ellipse cx="198.5" cy="574.8516" rx="3" ry="3" style="stroke:#038048;stroke-width:1.0;fill:none;"/><text fill="#000000" font-family="sans-serif" font-size="11" lengthAdjust="spacing" textLength="46" x="207.5" y="578.062">RESUME</text><line style="stroke:#A80036;stroke-width:1.5;" x1="188.5" x2="378.5" y1="584.6563" y2="584.6563"/><polygon fill="#4177AF" points="198.5,591.6563,194.5,597.6563,202.5,597.6563" style="stroke:#1963A0;stroke-width:1.0;"/><text fill="#000000" font-family="sans-serif" font-size="11" lengthAdjust="spacing" textLength="46" x="207.5" y="598.8667">writeln()</text><polygon fill="#4177AF" points="198.5,604.4609,194.5,610.4609,202.5,610.4609" style="stroke:#1963A0;stroke-width:1.0;"/><text fill="#000000" font-family="sans-serif" font-size="11" lengthAdjust="spacing" textLength="36" x="207.5" y="611.6714">write()</text><!--MD5=[947e6c573c2f2818382a8a631176de9a]
class views.PlayerView--><rect codeLine="55" fill="#FEFECE" filter="url(#foyl91f9nbp3n)" height="48" id="views.PlayerView" style="stroke:#A80036;stroke-width:1.5;" width="97" x="436" y="41"/><ellipse cx="451" cy="57" fill="#ADD1B2" rx="11" ry="11" style="stroke:#A80036;stroke-width:1.0;"/><path d="M453.3438,52.6719 C452.4063,52.2344 451.8125,52.0938 450.9375,52.0938 C448.3125,52.0938 446.3125,54.1719 446.3125,56.8906 L446.3125,58.0156 C446.3125,60.5938 448.4219,62.4844 451.3125,62.4844 C452.5313,62.4844 453.6875,62.1875 454.4375,61.6406 C455.0156,61.2344 455.3438,60.7813 455.3438,60.3906 C455.3438,59.9375 454.9531,59.5469 454.4844,59.5469 C454.2656,59.5469 454.0625,59.625 453.875,59.8125 C453.4219,60.2969 453.4219,60.2969 453.2344,60.3906 C452.8125,60.6563 452.125,60.7813 451.3594,60.7813 C449.3125,60.7813 448.0156,59.6875 448.0156,57.9844 L448.0156,56.8906 C448.0156,55.1094 449.2656,53.7969 451,53.7969 C451.5781,53.7969 452.1875,53.9531 452.6563,54.2031 C453.1406,54.4844 453.3125,54.7031 453.4063,55.1094 C453.4688,55.5156 453.5,55.6406 453.6406,55.7656 C453.7813,55.9063 454.0156,56.0156 454.2344,56.0156 C454.5,56.0156 454.7656,55.875 454.9375,55.6563 C455.0469,55.5 455.0781,55.3125 455.0781,54.8906 L455.0781,53.4688 C455.0781,53.0313 455.0625,52.9063 454.9688,52.75 C454.8125,52.4844 454.5313,52.3438 454.2344,52.3438 C453.9375,52.3438 453.7344,52.4375 453.5156,52.75 L453.3438,52.6719 Z " fill="#000000"/><text fill="#000000" font-family="sans-serif" font-size="12" lengthAdjust="spacing" textLength="65" x="465" y="61.1543">PlayerView</text><line style="stroke:#A80036;stroke-width:1.5;" x1="437" x2="532" y1="73" y2="73"/><line style="stroke:#A80036;stroke-width:1.5;" x1="437" x2="532" y1="81" y2="81"/><!--MD5=[280d60b3a1c00403d47604559a33a076]
class views.MenuView--><rect codeLine="59" fill="#FEFECE" filter="url(#foyl91f9nbp3n)" height="60.8047" id="views.MenuView" style="stroke:#A80036;stroke-width:1.5;" width="140" x="630.5" y="270"/><ellipse cx="666.65" cy="286" fill="#ADD1B2" rx="11" ry="11" style="stroke:#A80036;stroke-width:1.0;"/><path d="M668.9938,281.6719 C668.0563,281.2344 667.4625,281.0938 666.5875,281.0938 C663.9625,281.0938 661.9625,283.1719 661.9625,285.8906 L661.9625,287.0156 C661.9625,289.5938 664.0719,291.4844 666.9625,291.4844 C668.1813,291.4844 669.3375,291.1875 670.0875,290.6406 C670.6656,290.2344 670.9938,289.7813 670.9938,289.3906 C670.9938,288.9375 670.6031,288.5469 670.1344,288.5469 C669.9156,288.5469 669.7125,288.625 669.525,288.8125 C669.0719,289.2969 669.0719,289.2969 668.8844,289.3906 C668.4625,289.6563 667.775,289.7813 667.0094,289.7813 C664.9625,289.7813 663.6656,288.6875 663.6656,286.9844 L663.6656,285.8906 C663.6656,284.1094 664.9156,282.7969 666.65,282.7969 C667.2281,282.7969 667.8375,282.9531 668.3063,283.2031 C668.7906,283.4844 668.9625,283.7031 669.0563,284.1094 C669.1188,284.5156 669.15,284.6406 669.2906,284.7656 C669.4313,284.9063 669.6656,285.0156 669.8844,285.0156 C670.15,285.0156 670.4156,284.875 670.5875,284.6563 C670.6969,284.5 670.7281,284.3125 670.7281,283.8906 L670.7281,282.4688 C670.7281,282.0313 670.7125,281.9063 670.6188,281.75 C670.4625,281.4844 670.1813,281.3438 669.8844,281.3438 C669.5875,281.3438 669.3844,281.4375 669.1656,281.75 L668.9938,281.6719 Z " fill="#000000"/><text fill="#000000" font-family="sans-serif" font-size="12" lengthAdjust="spacing" textLength="61" x="685.35" y="290.1543">MenuView</text><line style="stroke:#A80036;stroke-width:1.5;" x1="631.5" x2="769.5" y1="302" y2="302"/><line style="stroke:#A80036;stroke-width:1.5;" x1="631.5" x2="769.5" y1="310" y2="310"/><polygon fill="#4177AF" points="641.5,317,637.5,323,645.5,323" style="stroke:#1963A0;stroke-width:1.0;"/><text fill="#000000" font-family="sans-serif" font-size="11" lengthAdjust="spacing" textLength="114" x="650.5" y="324.2104">write(PlayController)</text><!--MD5=[086790dd88b6dc20f42fdfbd3a0210ab]
class views.CoordinateView--><rect codeLine="63" fill="#FEFECE" filter="url(#foyl91f9nbp3n)" height="60.8047" id="views.CoordinateView" style="stroke:#A80036;stroke-width:1.5;" width="129" x="641" y="678"/><ellipse cx="656.9" cy="694" fill="#ADD1B2" rx="11" ry="11" style="stroke:#A80036;stroke-width:1.0;"/><path d="M659.2438,689.6719 C658.3063,689.2344 657.7125,689.0938 656.8375,689.0938 C654.2125,689.0938 652.2125,691.1719 652.2125,693.8906 L652.2125,695.0156 C652.2125,697.5938 654.3219,699.4844 657.2125,699.4844 C658.4313,699.4844 659.5875,699.1875 660.3375,698.6406 C660.9156,698.2344 661.2438,697.7813 661.2438,697.3906 C661.2438,696.9375 660.8531,696.5469 660.3844,696.5469 C660.1656,696.5469 659.9625,696.625 659.775,696.8125 C659.3219,697.2969 659.3219,697.2969 659.1344,697.3906 C658.7125,697.6563 658.025,697.7813 657.2594,697.7813 C655.2125,697.7813 653.9156,696.6875 653.9156,694.9844 L653.9156,693.8906 C653.9156,692.1094 655.1656,690.7969 656.9,690.7969 C657.4781,690.7969 658.0875,690.9531 658.5563,691.2031 C659.0406,691.4844 659.2125,691.7031 659.3063,692.1094 C659.3688,692.5156 659.4,692.6406 659.5406,692.7656 C659.6813,692.9063 659.9156,693.0156 660.1344,693.0156 C660.4,693.0156 660.6656,692.875 660.8375,692.6563 C660.9469,692.5 660.9781,692.3125 660.9781,691.8906 L660.9781,690.4688 C660.9781,690.0313 660.9625,689.9063 660.8688,689.75 C660.7125,689.4844 660.4313,689.3438 660.1344,689.3438 C659.8375,689.3438 659.6344,689.4375 659.4156,689.75 L659.2438,689.6719 Z " fill="#000000"/><text fill="#000000" font-family="sans-serif" font-size="12" lengthAdjust="spacing" textLength="95" x="671.1" y="698.1543">CoordinateView</text><line style="stroke:#A80036;stroke-width:1.5;" x1="642" x2="769" y1="710" y2="710"/><line style="stroke:#A80036;stroke-width:1.5;" x1="642" x2="769" y1="718" y2="718"/><polygon fill="#4177AF" points="652,725,648,731,656,731" style="stroke:#1963A0;stroke-width:1.0;"/><text fill="#000000" font-family="sans-serif" font-size="11" lengthAdjust="spacing" textLength="103" x="661" y="732.2104">read(): Coordinate</text><!--MD5=[8c7d7abc12e214c3cc12c9ab70edee11]
class Coordinate--><rect codeLine="1" fill="#FEFECE" filter="url(#foyl91f9nbp3n)" height="53.9375" id="Coordinate" style="stroke:#A80036;stroke-width:1.5;" width="98" x="774.5" y="799"/><ellipse cx="789.5" cy="817.9688" fill="#ADD1B2" rx="11" ry="11" style="stroke:#A80036;stroke-width:1.0;"/><path d="M791.8438,813.6406 C790.9063,813.2031 790.3125,813.0625 789.4375,813.0625 C786.8125,813.0625 784.8125,815.1406 784.8125,817.8594 L784.8125,818.9844 C784.8125,821.5625 786.9219,823.4531 789.8125,823.4531 C791.0313,823.4531 792.1875,823.1563 792.9375,822.6094 C793.5156,822.2031 793.8438,821.75 793.8438,821.3594 C793.8438,820.9063 793.4531,820.5156 792.9844,820.5156 C792.7656,820.5156 792.5625,820.5938 792.375,820.7813 C791.9219,821.2656 791.9219,821.2656 791.7344,821.3594 C791.3125,821.625 790.625,821.75 789.8594,821.75 C787.8125,821.75 786.5156,820.6563 786.5156,818.9531 L786.5156,817.8594 C786.5156,816.0781 787.7656,814.7656 789.5,814.7656 C790.0781,814.7656 790.6875,814.9219 791.1563,815.1719 C791.6406,815.4531 791.8125,815.6719 791.9063,816.0781 C791.9688,816.4844 792,816.6094 792.1406,816.7344 C792.2813,816.875 792.5156,816.9844 792.7344,816.9844 C793,816.9844 793.2656,816.8438 793.4375,816.625 C793.5469,816.4688 793.5781,816.2813 793.5781,815.8594 L793.5781,814.4375 C793.5781,814 793.5625,813.875 793.4688,813.7188 C793.3125,813.4531 793.0313,813.3125 792.7344,813.3125 C792.4375,813.3125 792.2344,813.4063 792.0156,813.7188 L791.8438,813.6406 Z " fill="#000000"/><text fill="#000000" font-family="sans-serif" font-size="12" lengthAdjust="spacing" textLength="37" x="818" y="815.1387">types.</text><text fill="#000000" font-family="sans-serif" font-size="12" lengthAdjust="spacing" textLength="66" x="803.5" y="829.1074">Coordinate</text><line style="stroke:#A80036;stroke-width:1.5;" x1="775.5" x2="871.5" y1="836.9375" y2="836.9375"/><line style="stroke:#A80036;stroke-width:1.5;" x1="775.5" x2="871.5" y1="844.9375" y2="844.9375"/><!--MD5=[b8cfd8c4119a3b0a7a46bfc5fc780f85]
class Error--><rect codeLine="2" fill="#FEFECE" filter="url(#foyl91f9nbp3n)" height="53.9375" id="Error" style="stroke:#A80036;stroke-width:1.5;" width="69" x="471" y="799"/><ellipse cx="486" cy="817.9688" fill="#EB937F" rx="11" ry="11" style="stroke:#A80036;stroke-width:1.0;"/><path d="M484.7969,818.8438 L486.25,818.8438 L486.25,818.9531 C486.25,819.3594 486.2813,819.5156 486.3594,819.6719 C486.5156,819.9219 486.7969,820.0781 487.0938,820.0781 C487.3438,820.0781 487.6094,819.9375 487.7656,819.7188 C487.8906,819.5625 487.9219,819.4063 487.9219,818.9531 L487.9219,817.0313 C487.9219,816.875 487.9219,816.8281 487.9063,816.6719 C487.8438,816.2031 487.5313,815.8906 487.0781,815.8906 C486.8281,815.8906 486.5625,816.0313 486.3906,816.25 C486.2813,816.4219 486.25,816.5781 486.25,817.0313 L486.25,817.1563 L484.7969,817.1563 L484.7969,814.75 L488.7813,814.75 L488.7813,815.6094 C488.7813,816.0156 488.8125,816.1875 488.8906,816.3438 C489.0625,816.5938 489.3438,816.75 489.625,816.75 C489.8906,816.75 490.1563,816.6094 490.3281,816.3906 C490.4375,816.2188 490.4688,816.0781 490.4688,815.6094 L490.4688,813.0625 L482.8438,813.0625 C482.4063,813.0625 482.2813,813.0781 482.125,813.1719 C481.875,813.3281 481.7188,813.625 481.7188,813.9063 C481.7188,814.1875 481.8594,814.4375 482.0781,814.6094 C482.2344,814.7188 482.4219,814.75 482.8438,814.75 L483.0938,814.75 L483.0938,821.2656 L482.8438,821.2656 C482.4375,821.2656 482.2813,821.2813 482.125,821.3906 C481.875,821.5625 481.7188,821.8281 481.7188,822.125 C481.7188,822.3906 481.8594,822.6406 482.0781,822.7969 C482.2188,822.9219 482.4531,822.9688 482.8438,822.9688 L490.8438,822.9688 L490.8438,820.3906 C490.8438,819.9531 490.8125,819.8125 490.7344,819.6563 C490.5625,819.4063 490.2813,819.25 490,819.25 C489.7344,819.25 489.4688,819.3594 489.2969,819.6094 C489.1875,819.7656 489.1563,819.9063 489.1563,820.3906 L489.1563,821.2656 L484.7969,821.2656 L484.7969,818.8438 Z " fill="#000000"/><text fill="#000000" font-family="sans-serif" font-size="12" lengthAdjust="spacing" textLength="37" x="500" y="815.1387">types.</text><text fill="#000000" font-family="sans-serif" font-size="12" lengthAdjust="spacing" textLength="30" x="503.5" y="829.1074">Error</text><line style="stroke:#A80036;stroke-width:1.5;" x1="472" x2="539" y1="836.9375" y2="836.9375"/><line style="stroke:#A80036;stroke-width:1.5;" x1="472" x2="539" y1="844.9375" y2="844.9375"/><!--MD5=[18eee71c88ab61f27581b8cbdd3ef5ee]
class Color--><rect codeLine="3" fill="#FEFECE" filter="url(#foyl91f9nbp3n)" height="53.9375" id="Color" style="stroke:#A80036;stroke-width:1.5;" width="69" x="7" y="681.5"/><ellipse cx="22" cy="700.4688" fill="#EB937F" rx="11" ry="11" style="stroke:#A80036;stroke-width:1.0;"/><path d="M20.7969,701.3438 L22.25,701.3438 L22.25,701.4531 C22.25,701.8594 22.2813,702.0156 22.3594,702.1719 C22.5156,702.4219 22.7969,702.5781 23.0938,702.5781 C23.3438,702.5781 23.6094,702.4375 23.7656,702.2188 C23.8906,702.0625 23.9219,701.9063 23.9219,701.4531 L23.9219,699.5313 C23.9219,699.375 23.9219,699.3281 23.9063,699.1719 C23.8438,698.7031 23.5313,698.3906 23.0781,698.3906 C22.8281,698.3906 22.5625,698.5313 22.3906,698.75 C22.2813,698.9219 22.25,699.0781 22.25,699.5313 L22.25,699.6563 L20.7969,699.6563 L20.7969,697.25 L24.7813,697.25 L24.7813,698.1094 C24.7813,698.5156 24.8125,698.6875 24.8906,698.8438 C25.0625,699.0938 25.3438,699.25 25.625,699.25 C25.8906,699.25 26.1563,699.1094 26.3281,698.8906 C26.4375,698.7188 26.4688,698.5781 26.4688,698.1094 L26.4688,695.5625 L18.8438,695.5625 C18.4063,695.5625 18.2813,695.5781 18.125,695.6719 C17.875,695.8281 17.7188,696.125 17.7188,696.4063 C17.7188,696.6875 17.8594,696.9375 18.0781,697.1094 C18.2344,697.2188 18.4219,697.25 18.8438,697.25 L19.0938,697.25 L19.0938,703.7656 L18.8438,703.7656 C18.4375,703.7656 18.2813,703.7813 18.125,703.8906 C17.875,704.0625 17.7188,704.3281 17.7188,704.625 C17.7188,704.8906 17.8594,705.1406 18.0781,705.2969 C18.2188,705.4219 18.4531,705.4688 18.8438,705.4688 L26.8438,705.4688 L26.8438,702.8906 C26.8438,702.4531 26.8125,702.3125 26.7344,702.1563 C26.5625,701.9063 26.2813,701.75 26,701.75 C25.7344,701.75 25.4688,701.8594 25.2969,702.1094 C25.1875,702.2656 25.1563,702.4063 25.1563,702.8906 L25.1563,703.7656 L20.7969,703.7656 L20.7969,701.3438 Z " fill="#000000"/><text fill="#000000" font-family="sans-serif" font-size="12" lengthAdjust="spacing" textLength="37" x="36" y="697.6387">types.</text><text fill="#000000" font-family="sans-serif" font-size="12" lengthAdjust="spacing" textLength="32" x="38.5" y="711.6074">Color</text><line style="stroke:#A80036;stroke-width:1.5;" x1="8" x2="75" y1="719.4375" y2="719.4375"/><line style="stroke:#A80036;stroke-width:1.5;" x1="8" x2="75" y1="727.4375" y2="727.4375"/><!--MD5=[47c371471411cfedeee61b1a5bdaee47]
class StartController--><rect codeLine="4" fill="#FEFECE" filter="url(#foyl91f9nbp3n)" height="53.9375" id="StartController" style="stroke:#A80036;stroke-width:1.5;" width="119" x="1364" y="477.5"/><ellipse cx="1379" cy="496.4688" fill="#ADD1B2" rx="11" ry="11" style="stroke:#A80036;stroke-width:1.0;"/><path d="M1381.3438,492.1406 C1380.4063,491.7031 1379.8125,491.5625 1378.9375,491.5625 C1376.3125,491.5625 1374.3125,493.6406 1374.3125,496.3594 L1374.3125,497.4844 C1374.3125,500.0625 1376.4219,501.9531 1379.3125,501.9531 C1380.5313,501.9531 1381.6875,501.6563 1382.4375,501.1094 C1383.0156,500.7031 1383.3438,500.25 1383.3438,499.8594 C1383.3438,499.4063 1382.9531,499.0156 1382.4844,499.0156 C1382.2656,499.0156 1382.0625,499.0938 1381.875,499.2813 C1381.4219,499.7656 1381.4219,499.7656 1381.2344,499.8594 C1380.8125,500.125 1380.125,500.25 1379.3594,500.25 C1377.3125,500.25 1376.0156,499.1563 1376.0156,497.4531 L1376.0156,496.3594 C1376.0156,494.5781 1377.2656,493.2656 1379,493.2656 C1379.5781,493.2656 1380.1875,493.4219 1380.6563,493.6719 C1381.1406,493.9531 1381.3125,494.1719 1381.4063,494.5781 C1381.4688,494.9844 1381.5,495.1094 1381.6406,495.2344 C1381.7813,495.375 1382.0156,495.4844 1382.2344,495.4844 C1382.5,495.4844 1382.7656,495.3438 1382.9375,495.125 C1383.0469,494.9688 1383.0781,494.7813 1383.0781,494.3594 L1383.0781,492.9375 C1383.0781,492.5 1383.0625,492.375 1382.9688,492.2188 C1382.8125,491.9531 1382.5313,491.8125 1382.2344,491.8125 C1381.9375,491.8125 1381.7344,491.9063 1381.5156,492.2188 L1381.3438,492.1406 Z " fill="#000000"/><text fill="#000000" font-family="sans-serif" font-size="12" lengthAdjust="spacing" textLength="68" x="1402.5" y="493.6387">controllers.</text><text fill="#000000" font-family="sans-serif" font-size="12" lengthAdjust="spacing" textLength="87" x="1393" y="507.6074">StartController</text><line style="stroke:#A80036;stroke-width:1.5;" x1="1365" x2="1482" y1="515.4375" y2="515.4375"/><line style="stroke:#A80036;stroke-width:1.5;" x1="1365" x2="1482" y1="523.4375" y2="523.4375"/><!--MD5=[cc8600b868f8dfab2c8d497bce62f90a]
class PlayController--><rect codeLine="5" fill="#FEFECE" filter="url(#foyl91f9nbp3n)" height="53.9375" id="PlayController" style="stroke:#A80036;stroke-width:1.5;" width="114" x="1518.5" y="477.5"/><ellipse cx="1533.5" cy="496.4688" fill="#ADD1B2" rx="11" ry="11" style="stroke:#A80036;stroke-width:1.0;"/><path d="M1535.8438,492.1406 C1534.9063,491.7031 1534.3125,491.5625 1533.4375,491.5625 C1530.8125,491.5625 1528.8125,493.6406 1528.8125,496.3594 L1528.8125,497.4844 C1528.8125,500.0625 1530.9219,501.9531 1533.8125,501.9531 C1535.0313,501.9531 1536.1875,501.6563 1536.9375,501.1094 C1537.5156,500.7031 1537.8438,500.25 1537.8438,499.8594 C1537.8438,499.4063 1537.4531,499.0156 1536.9844,499.0156 C1536.7656,499.0156 1536.5625,499.0938 1536.375,499.2813 C1535.9219,499.7656 1535.9219,499.7656 1535.7344,499.8594 C1535.3125,500.125 1534.625,500.25 1533.8594,500.25 C1531.8125,500.25 1530.5156,499.1563 1530.5156,497.4531 L1530.5156,496.3594 C1530.5156,494.5781 1531.7656,493.2656 1533.5,493.2656 C1534.0781,493.2656 1534.6875,493.4219 1535.1563,493.6719 C1535.6406,493.9531 1535.8125,494.1719 1535.9063,494.5781 C1535.9688,494.9844 1536,495.1094 1536.1406,495.2344 C1536.2813,495.375 1536.5156,495.4844 1536.7344,495.4844 C1537,495.4844 1537.2656,495.3438 1537.4375,495.125 C1537.5469,494.9688 1537.5781,494.7813 1537.5781,494.3594 L1537.5781,492.9375 C1537.5781,492.5 1537.5625,492.375 1537.4688,492.2188 C1537.3125,491.9531 1537.0313,491.8125 1536.7344,491.8125 C1536.4375,491.8125 1536.2344,491.9063 1536.0156,492.2188 L1535.8438,492.1406 Z " fill="#000000"/><text fill="#000000" font-family="sans-serif" font-size="12" lengthAdjust="spacing" textLength="68" x="1554.5" y="493.6387">controllers.</text><text fill="#000000" font-family="sans-serif" font-size="12" lengthAdjust="spacing" textLength="82" x="1547.5" y="507.6074">PlayController</text><line style="stroke:#A80036;stroke-width:1.5;" x1="1519.5" x2="1631.5" y1="515.4375" y2="515.4375"/><line style="stroke:#A80036;stroke-width:1.5;" x1="1519.5" x2="1631.5" y1="523.4375" y2="523.4375"/><!--MD5=[1a47bbf44ccee225df9b18c5b6629853]
class ResumeController--><rect codeLine="6" fill="#FEFECE" filter="url(#foyl91f9nbp3n)" height="53.9375" id="ResumeController" style="stroke:#A80036;stroke-width:1.5;" width="139" x="803" y="477.5"/><ellipse cx="818" cy="496.4688" fill="#ADD1B2" rx="11" ry="11" style="stroke:#A80036;stroke-width:1.0;"/><path d="M820.3438,492.1406 C819.4063,491.7031 818.8125,491.5625 817.9375,491.5625 C815.3125,491.5625 813.3125,493.6406 813.3125,496.3594 L813.3125,497.4844 C813.3125,500.0625 815.4219,501.9531 818.3125,501.9531 C819.5313,501.9531 820.6875,501.6563 821.4375,501.1094 C822.0156,500.7031 822.3438,500.25 822.3438,499.8594 C822.3438,499.4063 821.9531,499.0156 821.4844,499.0156 C821.2656,499.0156 821.0625,499.0938 820.875,499.2813 C820.4219,499.7656 820.4219,499.7656 820.2344,499.8594 C819.8125,500.125 819.125,500.25 818.3594,500.25 C816.3125,500.25 815.0156,499.1563 815.0156,497.4531 L815.0156,496.3594 C815.0156,494.5781 816.2656,493.2656 818,493.2656 C818.5781,493.2656 819.1875,493.4219 819.6563,493.6719 C820.1406,493.9531 820.3125,494.1719 820.4063,494.5781 C820.4688,494.9844 820.5,495.1094 820.6406,495.2344 C820.7813,495.375 821.0156,495.4844 821.2344,495.4844 C821.5,495.4844 821.7656,495.3438 821.9375,495.125 C822.0469,494.9688 822.0781,494.7813 822.0781,494.3594 L822.0781,492.9375 C822.0781,492.5 822.0625,492.375 821.9688,492.2188 C821.8125,491.9531 821.5313,491.8125 821.2344,491.8125 C820.9375,491.8125 820.7344,491.9063 820.5156,492.2188 L820.3438,492.1406 Z " fill="#000000"/><text fill="#000000" font-family="sans-serif" font-size="12" lengthAdjust="spacing" textLength="68" x="851.5" y="493.6387">controllers.</text><text fill="#000000" font-family="sans-serif" font-size="12" lengthAdjust="spacing" textLength="107" x="832" y="507.6074">ResumeController</text><line style="stroke:#A80036;stroke-width:1.5;" x1="804" x2="941" y1="515.4375" y2="515.4375"/><line style="stroke:#A80036;stroke-width:1.5;" x1="804" x2="941" y1="523.4375" y2="523.4375"/><!--MD5=[aab9612c5d46aa221e996c7d0ed5d7ab]
class UndoController--><rect codeLine="7" fill="#FEFECE" filter="url(#foyl91f9nbp3n)" height="53.9375" id="UndoController" style="stroke:#A80036;stroke-width:1.5;" width="123" x="1206" y="477.5"/><ellipse cx="1221" cy="496.4688" fill="#ADD1B2" rx="11" ry="11" style="stroke:#A80036;stroke-width:1.0;"/><path d="M1223.3438,492.1406 C1222.4063,491.7031 1221.8125,491.5625 1220.9375,491.5625 C1218.3125,491.5625 1216.3125,493.6406 1216.3125,496.3594 L1216.3125,497.4844 C1216.3125,500.0625 1218.4219,501.9531 1221.3125,501.9531 C1222.5313,501.9531 1223.6875,501.6563 1224.4375,501.1094 C1225.0156,500.7031 1225.3438,500.25 1225.3438,499.8594 C1225.3438,499.4063 1224.9531,499.0156 1224.4844,499.0156 C1224.2656,499.0156 1224.0625,499.0938 1223.875,499.2813 C1223.4219,499.7656 1223.4219,499.7656 1223.2344,499.8594 C1222.8125,500.125 1222.125,500.25 1221.3594,500.25 C1219.3125,500.25 1218.0156,499.1563 1218.0156,497.4531 L1218.0156,496.3594 C1218.0156,494.5781 1219.2656,493.2656 1221,493.2656 C1221.5781,493.2656 1222.1875,493.4219 1222.6563,493.6719 C1223.1406,493.9531 1223.3125,494.1719 1223.4063,494.5781 C1223.4688,494.9844 1223.5,495.1094 1223.6406,495.2344 C1223.7813,495.375 1224.0156,495.4844 1224.2344,495.4844 C1224.5,495.4844 1224.7656,495.3438 1224.9375,495.125 C1225.0469,494.9688 1225.0781,494.7813 1225.0781,494.3594 L1225.0781,492.9375 C1225.0781,492.5 1225.0625,492.375 1224.9688,492.2188 C1224.8125,491.9531 1224.5313,491.8125 1224.2344,491.8125 C1223.9375,491.8125 1223.7344,491.9063 1223.5156,492.2188 L1223.3438,492.1406 Z " fill="#000000"/><text fill="#000000" font-family="sans-serif" font-size="12" lengthAdjust="spacing" textLength="68" x="1246.5" y="493.6387">controllers.</text><text fill="#000000" font-family="sans-serif" font-size="12" lengthAdjust="spacing" textLength="91" x="1235" y="507.6074">UndoController</text><line style="stroke:#A80036;stroke-width:1.5;" x1="1207" x2="1328" y1="515.4375" y2="515.4375"/><line style="stroke:#A80036;stroke-width:1.5;" x1="1207" x2="1328" y1="523.4375" y2="523.4375"/><!--MD5=[09632e2f294dd01282ddf91519a686d7]
class RedoController--><rect codeLine="8" fill="#FEFECE" filter="url(#foyl91f9nbp3n)" height="53.9375" id="RedoController" style="stroke:#A80036;stroke-width:1.5;" width="122" x="1048.5" y="477.5"/><ellipse cx="1063.5" cy="496.4688" fill="#ADD1B2" rx="11" ry="11" style="stroke:#A80036;stroke-width:1.0;"/><path d="M1065.8438,492.1406 C1064.9063,491.7031 1064.3125,491.5625 1063.4375,491.5625 C1060.8125,491.5625 1058.8125,493.6406 1058.8125,496.3594 L1058.8125,497.4844 C1058.8125,500.0625 1060.9219,501.9531 1063.8125,501.9531 C1065.0313,501.9531 1066.1875,501.6563 1066.9375,501.1094 C1067.5156,500.7031 1067.8438,500.25 1067.8438,499.8594 C1067.8438,499.4063 1067.4531,499.0156 1066.9844,499.0156 C1066.7656,499.0156 1066.5625,499.0938 1066.375,499.2813 C1065.9219,499.7656 1065.9219,499.7656 1065.7344,499.8594 C1065.3125,500.125 1064.625,500.25 1063.8594,500.25 C1061.8125,500.25 1060.5156,499.1563 1060.5156,497.4531 L1060.5156,496.3594 C1060.5156,494.5781 1061.7656,493.2656 1063.5,493.2656 C1064.0781,493.2656 1064.6875,493.4219 1065.1563,493.6719 C1065.6406,493.9531 1065.8125,494.1719 1065.9063,494.5781 C1065.9688,494.9844 1066,495.1094 1066.1406,495.2344 C1066.2813,495.375 1066.5156,495.4844 1066.7344,495.4844 C1067,495.4844 1067.2656,495.3438 1067.4375,495.125 C1067.5469,494.9688 1067.5781,494.7813 1067.5781,494.3594 L1067.5781,492.9375 C1067.5781,492.5 1067.5625,492.375 1067.4688,492.2188 C1067.3125,491.9531 1067.0313,491.8125 1066.7344,491.8125 C1066.4375,491.8125 1066.2344,491.9063 1066.0156,492.2188 L1065.8438,492.1406 Z " fill="#000000"/><text fill="#000000" font-family="sans-serif" font-size="12" lengthAdjust="spacing" textLength="68" x="1088.5" y="493.6387">controllers.</text><text fill="#000000" font-family="sans-serif" font-size="12" lengthAdjust="spacing" textLength="90" x="1077.5" y="507.6074">RedoController</text><line style="stroke:#A80036;stroke-width:1.5;" x1="1049.5" x2="1169.5" y1="515.4375" y2="515.4375"/><line style="stroke:#A80036;stroke-width:1.5;" x1="1049.5" x2="1169.5" y1="523.4375" y2="523.4375"/><!--MD5=[67c5dbc5f258340ee2b7aaadfd6765aa]
link views.PlayerView to views.StartView--><path codeLine="67" d="M484.5,101.038 C484.5,101.038 484.5,124.562 484.5,135.634 " fill="none" id="views.PlayerView-views.StartView" style="stroke:#A80036;stroke-width:1.0;"/><polygon fill="#A80036" points="484.5,148.65,488.5,139.65,484.5,143.65,480.5,139.65,484.5,148.65" style="stroke:#A80036;stroke-width:1.0;"/><line style="stroke:#A80036;stroke-width:1.0;" x1="484.5" x2="484.5" y1="143.65" y2="135.65"/><polygon fill="#A80036" points="484.5,89.038,480.5,95.038,484.5,101.038,488.5,95.038,484.5,89.038" style="stroke:#A80036;stroke-width:1.0;"/><!--MD5=[9911ff4f94ad66318e9363318070f9b5]
link views.PlayerView to views.PlayView--><path codeLine="68" d="M530.2081,95.5535 C530.2081,95.5535 578.707,126.91 601.436,141.605 " fill="none" id="views.PlayerView-views.PlayView" style="stroke:#A80036;stroke-width:1.0;"/><polygon fill="#A80036" points="612.655,148.859,607.269,140.6134,608.4562,146.1442,602.9253,147.3315,612.655,148.859" style="stroke:#A80036;stroke-width:1.0;"/><line style="stroke:#A80036;stroke-width:1.0;" x1="608.4562" x2="601.7375" y1="146.1442" y2="141.8"/><polygon fill="#A80036" points="520.131,89.038,522.9978,95.6548,530.2081,95.5535,527.3414,88.9367,520.131,89.038" style="stroke:#A80036;stroke-width:1.0;"/><!--MD5=[ebea6b3e947d8b3c55735d694b4eb772]
link views.PlayerView to views.ResumeView--><path codeLine="69" d="M450.0772,97.1722 C450.0772,97.1722 413.347,131.663 396.5,149 C361.015,185.518 322.566,229.16 295.992,260.021 " fill="none" id="views.PlayerView-views.ResumeView" style="stroke:#A80036;stroke-width:1.0;"/><polygon fill="#A80036" points="287.457,269.968,296.3535,265.7427,290.713,266.1735,290.2823,260.5331,287.457,269.968" style="stroke:#A80036;stroke-width:1.0;"/><line style="stroke:#A80036;stroke-width:1.0;" x1="290.713" x2="295.923" y1="266.1735" y2="260.102"/><polygon fill="#A80036" points="458.906,89.045,451.7825,90.1657,450.0772,97.1722,457.2007,96.0516,458.906,89.045" style="stroke:#A80036;stroke-width:1.0;"/><!--MD5=[8507262084d539f4882e2752de5479e8]
link views.StartView to views.Message--><path codeLine="70" d="M413.626,188.102 C320.087,199.764 163.18,225.522 128.5,270 C88.6251,321.14 132.281,382.32 183.3,429.224 " fill="none" id="views.StartView-to-views.Message" style="stroke:#A80036;stroke-width:1.0;stroke-dasharray:7.0,7.0;"/><polygon fill="#A80036" points="187.301,432.861,183.3312,423.8476,183.6009,429.4981,177.9505,429.7678,187.301,432.861" style="stroke:#A80036;stroke-width:1.0;"/><!--MD5=[1b8a73df775c8bac903591bf669c8c66]
link views.StartView to views.BoardView--><path codeLine="71" d="M494.241,210.222 C499.685,226.834 506.497,247.619 512.178,264.953 " fill="none" id="views.StartView-to-views.BoardView" style="stroke:#A80036;stroke-width:1.0;stroke-dasharray:7.0,7.0;"/><polygon fill="#A80036" points="513.748,269.745,514.7463,259.9469,512.1909,264.9936,507.1441,262.4383,513.748,269.745" style="stroke:#A80036;stroke-width:1.0;"/><!--MD5=[93bed1ef04018f79b273cd77ea9f0db2]
link views.StartView to StartController--><path codeLine="72" d="M555.405,204.904 C561.169,206.694 566.92,208.416 572.5,210 C912.354,306.472 1054.96,191.478 1346.5,391 C1376.1,411.26 1397.64,446.964 1410.29,472.724 " fill="none" id="views.StartView-to-StartController" style="stroke:#A80036;stroke-width:1.0;"/><polygon fill="#A80036" points="1412.55,477.412,1412.2559,467.5675,1410.3838,472.9056,1405.0457,471.0335,1412.55,477.412" style="stroke:#A80036;stroke-width:1.0;"/><!--MD5=[ebadaef8e2bbd4ba1e726984e015cfbe]
link views.BoardView to views.ColorView--><path codeLine="73" d="M517.45,331.306 C510.01,367.961 497.404,430.072 489.538,468.827 " fill="none" id="views.BoardView-to-views.ColorView" style="stroke:#A80036;stroke-width:1.0;stroke-dasharray:7.0,7.0;"/><polygon fill="#A80036" points="488.508,473.901,494.2179,465.8762,489.5023,469.0009,486.3777,464.2853,488.508,473.901" style="stroke:#A80036;stroke-width:1.0;"/><!--MD5=[095a9e8630f04b2395f4481b19b8906e]
link views.BoardView to views.Message--><path codeLine="74" d="M488.345,331.089 C460.771,354.297 420.96,387.805 383.753,419.12 " fill="none" id="views.BoardView-to-views.Message" style="stroke:#A80036;stroke-width:1.0;stroke-dasharray:7.0,7.0;"/><polygon fill="#A80036" points="379.697,422.534,389.1579,419.7971,383.5218,419.3136,384.0053,413.6774,379.697,422.534" style="stroke:#A80036;stroke-width:1.0;"/><!--MD5=[f9d7272086e8e62f4b793c0eb33c0b4b]
link views.PlayView to views.Message--><path codeLine="75" d="M590.4,205.091 C528.914,227.697 446.178,259.276 433.5,270 C409.29,290.478 413.412,304.178 396.5,331 C385.234,348.867 373.158,367.662 361.245,386.006 " fill="none" id="views.PlayView-to-views.Message" style="stroke:#A80036;stroke-width:1.0;stroke-dasharray:7.0,7.0;"/><polygon fill="#A80036" points="358.221,390.66,366.4787,385.2925,360.9452,386.4673,359.7704,380.9338,358.221,390.66" style="stroke:#A80036;stroke-width:1.0;"/><!--MD5=[a9b9099bd570987dc5af9f0e9221dc51]
link views.PlayView to views.BoardView--><path codeLine="76" d="M624.782,210.222 C605.453,227.26 581.144,248.688 561.187,266.28 " fill="none" id="views.PlayView-to-views.BoardView" style="stroke:#A80036;stroke-width:1.0;stroke-dasharray:7.0,7.0;"/><polygon fill="#A80036" points="557.256,269.745,566.6524,266.7941,561.0067,266.4386,561.3622,260.793,557.256,269.745" style="stroke:#A80036;stroke-width:1.0;"/><!--MD5=[c5811be28ca2b32efdddcb59764d8c2d]
link views.PlayView to views.MenuView--><path codeLine="77" d="M668.99,210.222 C674.853,226.834 682.189,247.619 688.307,264.953 " fill="none" id="views.PlayView-to-views.MenuView" style="stroke:#A80036;stroke-width:1.0;stroke-dasharray:7.0,7.0;"/><polygon fill="#A80036" points="689.998,269.745,690.7738,259.9267,688.3335,265.0302,683.2301,262.5899,689.998,269.745" style="stroke:#A80036;stroke-width:1.0;"/><!--MD5=[e7feb43a398a066f104696f593d6a99e]
link views.MenuView to views.MovementView--><path codeLine="78" d="M700.5,331.306 C700.5,367.961 700.5,430.072 700.5,468.827 " fill="none" id="views.MenuView-to-views.MovementView" style="stroke:#A80036;stroke-width:1.0;stroke-dasharray:7.0,7.0;"/><polygon fill="#A80036" points="700.5,473.901,704.5,464.901,700.5,468.901,696.5,464.901,700.5,473.901" style="stroke:#A80036;stroke-width:1.0;"/><!--MD5=[8482c26b4e62fd447d7e9d7cf97696de]
link views.MenuView to PlayController--><path codeLine="79" d="M770.729,301.895 C942.5,304.025 1378.68,316.798 1500.5,391 C1531.07,409.623 1551.84,445.984 1563.63,472.339 " fill="none" id="views.MenuView-to-PlayController" style="stroke:#A80036;stroke-width:1.0;stroke-dasharray:7.0,7.0;"/><polygon fill="#A80036" points="1565.73,477.137,1565.7934,467.2883,1563.7288,472.555,1558.4621,470.4903,1565.73,477.137" style="stroke:#A80036;stroke-width:1.0;"/><!--MD5=[0361bb4af5ef2d8014cddfbbe1dff23b]
link views.MenuView to UndoController--><path codeLine="80" d="M770.604,307.795 C888.489,319.447 1120.24,347.251 1188.5,391 C1218.95,410.519 1241.04,446.36 1253.99,472.354 " fill="none" id="views.MenuView-to-UndoController" style="stroke:#A80036;stroke-width:1.0;stroke-dasharray:7.0,7.0;"/><polygon fill="#A80036" points="1256.3,477.087,1255.9507,467.2443,1254.1086,472.5928,1248.7601,470.7506,1256.3,477.087" style="stroke:#A80036;stroke-width:1.0;"/><!--MD5=[8955925879246cf845d3c7ebfaf3bdb2]
link views.MenuView to RedoController--><path codeLine="81" d="M770.574,308.241 C839.394,317.653 944.914,339.782 1021.5,391 C1052.68,411.849 1077.73,447.332 1093.02,472.88 " fill="none" id="views.MenuView-to-RedoController" style="stroke:#A80036;stroke-width:1.0;stroke-dasharray:7.0,7.0;"/><polygon fill="#A80036" points="1095.57,477.209,1094.4485,467.4242,1093.0322,472.9009,1087.5555,471.4847,1095.57,477.209" style="stroke:#A80036;stroke-width:1.0;"/><!--MD5=[bc8a2baa650750752d6e88c509172a1c]
link views.MovementView to views.ErrorView--><path codeLine="82" d="M679.252,535.306 C652.908,572.26 608.121,635.087 580.544,673.771 " fill="none" id="views.MovementView-to-views.ErrorView" style="stroke:#A80036;stroke-width:1.0;stroke-dasharray:7.0,7.0;"/><polygon fill="#A80036" points="577.6,677.901,586.0806,672.8931,580.5017,673.8291,579.5656,668.2503,577.6,677.901" style="stroke:#A80036;stroke-width:1.0;"/><!--MD5=[43dd04138dcca8bbc729df36fdc1a987]
link views.ResumeView to views.Message--><path codeLine="83" d="M265.599,331.306 C267.155,346.279 269.153,365.5 271.247,385.642 " fill="none" id="views.ResumeView-to-views.Message" style="stroke:#A80036;stroke-width:1.0;stroke-dasharray:7.0,7.0;"/><polygon fill="#A80036" points="271.782,390.78,274.8296,381.4145,271.2648,385.8068,266.8725,382.242,271.782,390.78" style="stroke:#A80036;stroke-width:1.0;"/><!--MD5=[8d2fcd9f8b54ab010933e46bca6b06e9]
link views.ResumeView to ResumeController--><path codeLine="84" d="M379.314,321.692 C397.454,324.816 415.981,328 433.5,331 C590.356,357.86 650.271,308.739 786.5,391 C818.729,410.461 843.174,446.897 857.615,473.034 " fill="none" id="views.ResumeView-to-ResumeController" style="stroke:#A80036;stroke-width:1.0;"/><polygon fill="#A80036" points="860.02,477.462,859.2387,467.6442,857.6332,473.0684,852.209,471.463,860.02,477.462" style="stroke:#A80036;stroke-width:1.0;"/><!--MD5=[27a8688df1a7e86c1bc534b33dd7c1a1]
link views.BoardView to Coordinate--><path codeLine="85" d="M595.609,326.399 C601.295,328.056 606.974,329.615 612.5,331 C688.406,350.03 909.099,331.136 959.5,391 C1063.79,514.874 913.71,718.8 849.88,795.0221 " fill="none" id="views.BoardView-to-Coordinate" style="stroke:#A80036;stroke-width:1.0;stroke-dasharray:7.0,7.0;"/><polygon fill="#A80036" points="846.538,798.9897,855.3943,794.681,849.7582,795.1648,849.2744,789.5286,846.538,798.9897" style="stroke:#A80036;stroke-width:1.0;"/><!--MD5=[b764f77f6244594f93a2b8a31497368e]
link views.MovementView to Coordinate--><path codeLine="86" d="M718.048,535.103 C737.361,568.742 768.217,625.767 787.5,678 C801.865,716.913 812.203,763.7341 818.018,793.9124 " fill="none" id="views.MovementView-to-Coordinate" style="stroke:#A80036;stroke-width:1.0;stroke-dasharray:7.0,7.0;"/><polygon fill="#A80036" points="818.982,798.9781,821.2296,789.3891,818.0476,794.0662,813.3706,790.8842,818.982,798.9781" style="stroke:#A80036;stroke-width:1.0;"/><!--MD5=[58ce7257e9fedcdfac65620a403e3cb0]
link views.BoardView to StartController--><path codeLine="87" d="M595.972,327.087 C601.524,328.565 607.077,329.896 612.5,331 C772.866,363.644 1204.97,308.822 1346.5,391 C1377.91,409.237 1399.33,446.032 1411.45,472.584 " fill="none" id="views.BoardView-to-StartController" style="stroke:#A80036;stroke-width:1.0;stroke-dasharray:7.0,7.0;"/><polygon fill="#A80036" points="1413.61,477.416,1413.6003,467.5671,1411.5748,472.8489,1406.293,470.8235,1413.61,477.416" style="stroke:#A80036;stroke-width:1.0;"/><!--MD5=[a52d604b77424a58e07034fe9d0c7f45]
link views.BoardView to Color--><path codeLine="88" d="M451.12,318.933 C349.147,343.616 174.898,386.294 169.5,391 C81.9407,467.341 53.4261,612.299 44.8691,676.064 " fill="none" id="views.BoardView-to-Color" style="stroke:#A80036;stroke-width:1.0;stroke-dasharray:7.0,7.0;"/><polygon fill="#A80036" points="44.1939,681.246,49.3251,672.8394,44.841,676.2881,41.3924,671.804,44.1939,681.246" style="stroke:#A80036;stroke-width:1.0;"/><!--MD5=[339a50df6252398807c660c3d38a675e]
link views.MovementView to Error--><path codeLine="89" d="M660.595,535.17 C602.044,579.132 498.748,658.494 489.5,678 C471.91,715.101 482.545,763.2236 493.003,794.1131 " fill="none" id="views.MovementView-to-Error" style="stroke:#A80036;stroke-width:1.0;stroke-dasharray:7.0,7.0;"/><polygon fill="#A80036" points="494.675,798.9184,495.4938,789.1036,493.0312,794.1963,487.9385,791.7337,494.675,798.9184" style="stroke:#A80036;stroke-width:1.0;"/><!--MD5=[4874983008fa1a0e6fd69efc7cf96bbe]
link views.ErrorView to Error--><path codeLine="90" d="M543.366,739.244 C535.921,756.1065 526.619,777.1721 519.098,794.2047 " fill="none" id="views.ErrorView-to-Error" style="stroke:#A80036;stroke-width:1.0;stroke-dasharray:7.0,7.0;"/><polygon fill="#A80036" points="517.027,798.895,524.3222,792.2783,519.0471,794.3213,517.0042,789.0462,517.027,798.895" style="stroke:#A80036;stroke-width:1.0;"/><!--MD5=[13fa1849fb47ff0ddb9bf29562c915bb]
link views.PlayView to PlayController--><path codeLine="91" d="M726.632,179.865 C880.792,181.865 1261.5,206.51 1500.5,391 C1528.31,412.47 1549.24,447.294 1561.83,472.516 " fill="none" id="views.PlayView-to-PlayController" style="stroke:#A80036;stroke-width:1.0;"/><polygon fill="#A80036" points="1564.08,477.108,1563.7032,467.2664,1561.876,472.62,1556.5224,470.7927,1564.08,477.108" style="stroke:#A80036;stroke-width:1.0;"/><!--MD5=[dd562b49b70ad482277daba60c47d936]
link views.ColorView to Color--><path codeLine="92" d="M467.873,535.07 C453.399,561.115 428.752,597.937 396.5,618 C279.562,690.744 221.407,629.533 92.5,678 C88.5775,679.475 84.6043,681.233 80.6972,683.146 " fill="none" id="views.ColorView-to-Color" style="stroke:#A80036;stroke-width:1.0;stroke-dasharray:7.0,7.0;"/><polygon fill="#A80036" points="76.1478,685.456,85.9836,684.9487,80.6062,683.1927,82.3622,677.8153,76.1478,685.456" style="stroke:#A80036;stroke-width:1.0;"/><!--MD5=[ab0ec5f63c56da24f261b966745afc63]
link views.CoordinateView to Coordinate--><path codeLine="93" d="M735.888,739.244 C753.41,756.3947 775.374,777.8935 792.927,795.0746 " fill="none" id="views.CoordinateView-to-Coordinate" style="stroke:#A80036;stroke-width:1.0;stroke-dasharray:7.0,7.0;"/><polygon fill="#A80036" points="796.83,798.895,793.1959,789.7411,793.2567,795.3977,787.6001,795.4585,796.83,798.895" style="stroke:#A80036;stroke-width:1.0;"/><!--MD5=[520b71290d2efd547a67b9a059ddf5cb]
link views.MovementView to views.CoordinateView--><path codeLine="94" d="M701.238,535.306 C702.145,571.961 703.682,634.072 704.642,672.827 " fill="none" id="views.MovementView-to-views.CoordinateView" style="stroke:#A80036;stroke-width:1.0;stroke-dasharray:7.0,7.0;"/><polygon fill="#A80036" points="704.767,677.901,708.5421,668.8044,704.6427,672.9025,700.5445,669.0032,704.767,677.901" style="stroke:#A80036;stroke-width:1.0;"/><!--MD5=[67f8fad894ca331436a1d94795195bcb]
@startuml
class Coordinate as "types.\nCoordinate"
enum Error as "types.\nError"
enum Color as "types.\nColor"
class StartController as "controllers.\nStartController"
class PlayController as "controllers.\nPlayController"
class ResumeController as "controllers.\nResumeController"
class UndoController as "controllers.\nUndoController"
class RedoController as "controllers.\nRedoController"

class  views.BoardView{
    ~ write(StartController)
}

class  views.ErrorView{
    ~ writeln(Error)
}

class  views.PlayView{
    ~ play(PlayController)
}

class  views.ResumeView{
    ~ resume(ResumeController): boolean
}

class views.StartView{
    ~ start(StartController)
}

class  views.MovementView{
    ~ interact()
}

class  views.ColorView{
    ~ write(Color)
}

enum  views.Message{
    +TITLE
    +HORIZONTAL_LINE
    +VERTICAL_LINE
    +ACTION_COMMAND
    +UNDO_COMMAND
    +REDO_COMMAND
    +ENTER_COORDINATE_TO_PUT
    +COORDINATE_TO_PUT
    +COORDINATE_TO_REMOVE
    +COORDINATE_TO_MOVE
    +PLAYER_WIN
    +RESUME
    ~ writeln()
    ~ write()
}

class  views.PlayerView{

}

class  views.MenuView{
    ~ write(PlayController)
}

class  views.CoordinateView{
    ~ read(): Coordinate
}

views.PlayerView *-down-> views.StartView
views.PlayerView *-down-> views.PlayView
views.PlayerView *-down-> views.ResumeView
views.StartView ..> views.Message
views.StartView ..> views.BoardView
views.StartView -down-> StartController
views.BoardView ..> views.ColorView
views.BoardView ..> views.Message
views.PlayView ..> views.Message
views.PlayView ..> views.BoardView
views.PlayView ..> views.MenuView
views.MenuView ..> views.MovementView
views.MenuView .down.> PlayController
views.MenuView .down.> UndoController
views.MenuView .down.> RedoController
views.MovementView ..> views.ErrorView
views.ResumeView ..> views.Message
views.ResumeView -down-> ResumeController
views.BoardView .down.> Coordinate
views.MovementView .down.> Coordinate
views.BoardView .down.> StartController
views.BoardView .down.> Color
views.MovementView .down.> Error
views.ErrorView .down.> Error
views.PlayView -down-> PlayController
views.ColorView .down.> Color
views.CoordinateView .down.> Coordinate
views.MovementView ..> views.CoordinateView
@enduml

PlantUML version 1.2021.4beta3(Unknown compile time)
(GPL source distribution)
Java Runtime: Java(TM) SE Runtime Environment
JVM: Java HotSpot(TM) 64-Bit Server VM
Default Encoding: UTF-8
Language: en
Country: US
--></g></svg>