<?xml version="1.0" encoding="UTF-8" standalone="no"?><svg xmlns="http://www.w3.org/2000/svg" xmlns:xlink="http://www.w3.org/1999/xlink" contentScriptType="application/ecmascript" contentStyleType="text/css" height="892px" preserveAspectRatio="none" style="width:2083px;height:892px;" version="1.1" viewBox="0 0 2083 892" width="2083px" zoomAndPan="magnify"><defs><filter height="300%" id="fqv2rhvfg8rlj" width="300%" x="-1" y="-1"><feGaussianBlur result="blurOut" stdDeviation="2.0"/><feColorMatrix in="blurOut" result="blurOut2" type="matrix" values="0 0 0 0 0 0 0 0 0 0 0 0 0 0 0 0 0 0 .4 0"/><feOffset dx="4.0" dy="4.0" in="blurOut2" result="blurOut3"/><feBlend in="SourceGraphic" in2="blurOut3" mode="normal"/></filter></defs><g><!--MD5=[e2a75efa8a0f57c2afae8bf75386f79c]
cluster views--><polygon fill="#FFFFFF" filter="url(#fqv2rhvfg8rlj)" points="292,6,343,6,350,28.2969,1222,28.2969,1222,781,292,781,292,6" style="stroke:#000000;stroke-width:1.5;"/><line style="stroke:#000000;stroke-width:1.5;" x1="292" x2="350" y1="28.2969" y2="28.2969"/><text fill="#000000" font-family="sans-serif" font-size="14" font-weight="bold" lengthAdjust="spacing" textLength="45" x="296" y="20.9951">views</text><!--MD5=[5563f2eac69cd97c311bb50067a34021]
class views.BoardView--><rect codeLine="13" fill="#FEFECE" filter="url(#fqv2rhvfg8rlj)" height="60.8047" id="views.BoardView" style="stroke:#A80036;stroke-width:1.5;" width="144" x="520" y="270"/><ellipse cx="556.15" cy="286" fill="#ADD1B2" rx="11" ry="11" style="stroke:#A80036;stroke-width:1.0;"/><path d="M558.4938,281.6719 C557.5563,281.2344 556.9625,281.0938 556.0875,281.0938 C553.4625,281.0938 551.4625,283.1719 551.4625,285.8906 L551.4625,287.0156 C551.4625,289.5938 553.5719,291.4844 556.4625,291.4844 C557.6813,291.4844 558.8375,291.1875 559.5875,290.6406 C560.1656,290.2344 560.4938,289.7813 560.4938,289.3906 C560.4938,288.9375 560.1031,288.5469 559.6344,288.5469 C559.4156,288.5469 559.2125,288.625 559.025,288.8125 C558.5719,289.2969 558.5719,289.2969 558.3844,289.3906 C557.9625,289.6563 557.275,289.7813 556.5094,289.7813 C554.4625,289.7813 553.1656,288.6875 553.1656,286.9844 L553.1656,285.8906 C553.1656,284.1094 554.4156,282.7969 556.15,282.7969 C556.7281,282.7969 557.3375,282.9531 557.8063,283.2031 C558.2906,283.4844 558.4625,283.7031 558.5563,284.1094 C558.6188,284.5156 558.65,284.6406 558.7906,284.7656 C558.9313,284.9063 559.1656,285.0156 559.3844,285.0156 C559.65,285.0156 559.9156,284.875 560.0875,284.6563 C560.1969,284.5 560.2281,284.3125 560.2281,283.8906 L560.2281,282.4688 C560.2281,282.0313 560.2125,281.9063 560.1188,281.75 C559.9625,281.4844 559.6813,281.3438 559.3844,281.3438 C559.0875,281.3438 558.8844,281.4375 558.6656,281.75 L558.4938,281.6719 Z " fill="#000000"/><text fill="#000000" font-family="sans-serif" font-size="12" lengthAdjust="spacing" textLength="65" x="574.85" y="290.1543">BoardView</text><line style="stroke:#A80036;stroke-width:1.5;" x1="521" x2="663" y1="302" y2="302"/><line style="stroke:#A80036;stroke-width:1.5;" x1="521" x2="663" y1="310" y2="310"/><polygon fill="#4177AF" points="531,317,527,323,535,323" style="stroke:#1963A0;stroke-width:1.0;"/><text fill="#000000" font-family="sans-serif" font-size="11" lengthAdjust="spacing" textLength="118" x="540" y="324.2104">write(StartController)</text><!--MD5=[52a75152711b30ce05e31727f0039306]
class views.ErrorView--><rect codeLine="17" fill="#FEFECE" filter="url(#fqv2rhvfg8rlj)" height="60.8047" id="views.ErrorView" style="stroke:#A80036;stroke-width:1.5;" width="98" x="569" y="704"/><ellipse cx="587.15" cy="720" fill="#ADD1B2" rx="11" ry="11" style="stroke:#A80036;stroke-width:1.0;"/><path d="M589.4938,715.6719 C588.5563,715.2344 587.9625,715.0938 587.0875,715.0938 C584.4625,715.0938 582.4625,717.1719 582.4625,719.8906 L582.4625,721.0156 C582.4625,723.5938 584.5719,725.4844 587.4625,725.4844 C588.6813,725.4844 589.8375,725.1875 590.5875,724.6406 C591.1656,724.2344 591.4938,723.7813 591.4938,723.3906 C591.4938,722.9375 591.1031,722.5469 590.6344,722.5469 C590.4156,722.5469 590.2125,722.625 590.025,722.8125 C589.5719,723.2969 589.5719,723.2969 589.3844,723.3906 C588.9625,723.6563 588.275,723.7813 587.5094,723.7813 C585.4625,723.7813 584.1656,722.6875 584.1656,720.9844 L584.1656,719.8906 C584.1656,718.1094 585.4156,716.7969 587.15,716.7969 C587.7281,716.7969 588.3375,716.9531 588.8063,717.2031 C589.2906,717.4844 589.4625,717.7031 589.5563,718.1094 C589.6188,718.5156 589.65,718.6406 589.7906,718.7656 C589.9313,718.9063 590.1656,719.0156 590.3844,719.0156 C590.65,719.0156 590.9156,718.875 591.0875,718.6563 C591.1969,718.5 591.2281,718.3125 591.2281,717.8906 L591.2281,716.4688 C591.2281,716.0313 591.2125,715.9063 591.1188,715.75 C590.9625,715.4844 590.6813,715.3438 590.3844,715.3438 C590.0875,715.3438 589.8844,715.4375 589.6656,715.75 L589.4938,715.6719 Z " fill="#000000"/><text fill="#000000" font-family="sans-serif" font-size="12" lengthAdjust="spacing" textLength="59" x="601.85" y="724.1543">ErrorView</text><line style="stroke:#A80036;stroke-width:1.5;" x1="570" x2="666" y1="736" y2="736"/><line style="stroke:#A80036;stroke-width:1.5;" x1="570" x2="666" y1="744" y2="744"/><polygon fill="#4177AF" points="580,751,576,757,584,757" style="stroke:#1963A0;stroke-width:1.0;"/><text fill="#000000" font-family="sans-serif" font-size="11" lengthAdjust="spacing" textLength="72" x="589" y="758.2104">writeln(Error)</text><!--MD5=[15992c3de3db46d2901aebcad9c61d0d]
class views.PlayView--><rect codeLine="21" fill="#FEFECE" filter="url(#fqv2rhvfg8rlj)" height="60.8047" id="views.PlayView" style="stroke:#A80036;stroke-width:1.5;" width="136" x="524" y="149"/><ellipse cx="562.4" cy="165" fill="#ADD1B2" rx="11" ry="11" style="stroke:#A80036;stroke-width:1.0;"/><path d="M564.7438,160.6719 C563.8063,160.2344 563.2125,160.0938 562.3375,160.0938 C559.7125,160.0938 557.7125,162.1719 557.7125,164.8906 L557.7125,166.0156 C557.7125,168.5938 559.8219,170.4844 562.7125,170.4844 C563.9313,170.4844 565.0875,170.1875 565.8375,169.6406 C566.4156,169.2344 566.7438,168.7813 566.7438,168.3906 C566.7438,167.9375 566.3531,167.5469 565.8844,167.5469 C565.6656,167.5469 565.4625,167.625 565.275,167.8125 C564.8219,168.2969 564.8219,168.2969 564.6344,168.3906 C564.2125,168.6563 563.525,168.7813 562.7594,168.7813 C560.7125,168.7813 559.4156,167.6875 559.4156,165.9844 L559.4156,164.8906 C559.4156,163.1094 560.6656,161.7969 562.4,161.7969 C562.9781,161.7969 563.5875,161.9531 564.0563,162.2031 C564.5406,162.4844 564.7125,162.7031 564.8063,163.1094 C564.8688,163.5156 564.9,163.6406 565.0406,163.7656 C565.1813,163.9063 565.4156,164.0156 565.6344,164.0156 C565.9,164.0156 566.1656,163.875 566.3375,163.6563 C566.4469,163.5 566.4781,163.3125 566.4781,162.8906 L566.4781,161.4688 C566.4781,161.0313 566.4625,160.9063 566.3688,160.75 C566.2125,160.4844 565.9313,160.3438 565.6344,160.3438 C565.3375,160.3438 565.1344,160.4375 564.9156,160.75 L564.7438,160.6719 Z " fill="#000000"/><text fill="#000000" font-family="sans-serif" font-size="12" lengthAdjust="spacing" textLength="52" x="581.6" y="169.1543">PlayView</text><line style="stroke:#A80036;stroke-width:1.5;" x1="525" x2="659" y1="181" y2="181"/><line style="stroke:#A80036;stroke-width:1.5;" x1="525" x2="659" y1="189" y2="189"/><polygon fill="#4177AF" points="535,196,531,202,539,202" style="stroke:#1963A0;stroke-width:1.0;"/><text fill="#000000" font-family="sans-serif" font-size="11" lengthAdjust="spacing" textLength="110" x="544" y="203.2104">play(PlayController)</text><!--MD5=[efe083823ff420907f2c8e105cba547e]
class views.ResumeView--><rect codeLine="25" fill="#FEFECE" filter="url(#fqv2rhvfg8rlj)" height="60.8047" id="views.ResumeView" style="stroke:#A80036;stroke-width:1.5;" width="233" x="972.5" y="270"/><ellipse cx="1046.25" cy="286" fill="#ADD1B2" rx="11" ry="11" style="stroke:#A80036;stroke-width:1.0;"/><path d="M1048.5938,281.6719 C1047.6563,281.2344 1047.0625,281.0938 1046.1875,281.0938 C1043.5625,281.0938 1041.5625,283.1719 1041.5625,285.8906 L1041.5625,287.0156 C1041.5625,289.5938 1043.6719,291.4844 1046.5625,291.4844 C1047.7813,291.4844 1048.9375,291.1875 1049.6875,290.6406 C1050.2656,290.2344 1050.5938,289.7813 1050.5938,289.3906 C1050.5938,288.9375 1050.2031,288.5469 1049.7344,288.5469 C1049.5156,288.5469 1049.3125,288.625 1049.125,288.8125 C1048.6719,289.2969 1048.6719,289.2969 1048.4844,289.3906 C1048.0625,289.6563 1047.375,289.7813 1046.6094,289.7813 C1044.5625,289.7813 1043.2656,288.6875 1043.2656,286.9844 L1043.2656,285.8906 C1043.2656,284.1094 1044.5156,282.7969 1046.25,282.7969 C1046.8281,282.7969 1047.4375,282.9531 1047.9063,283.2031 C1048.3906,283.4844 1048.5625,283.7031 1048.6563,284.1094 C1048.7188,284.5156 1048.75,284.6406 1048.8906,284.7656 C1049.0313,284.9063 1049.2656,285.0156 1049.4844,285.0156 C1049.75,285.0156 1050.0156,284.875 1050.1875,284.6563 C1050.2969,284.5 1050.3281,284.3125 1050.3281,283.8906 L1050.3281,282.4688 C1050.3281,282.0313 1050.3125,281.9063 1050.2188,281.75 C1050.0625,281.4844 1049.7813,281.3438 1049.4844,281.3438 C1049.1875,281.3438 1048.9844,281.4375 1048.7656,281.75 L1048.5938,281.6719 Z " fill="#000000"/><text fill="#000000" font-family="sans-serif" font-size="12" lengthAdjust="spacing" textLength="77" x="1066.75" y="290.1543">ResumeView</text><line style="stroke:#A80036;stroke-width:1.5;" x1="973.5" x2="1204.5" y1="302" y2="302"/><line style="stroke:#A80036;stroke-width:1.5;" x1="973.5" x2="1204.5" y1="310" y2="310"/><polygon fill="#4177AF" points="983.5,317,979.5,323,987.5,323" style="stroke:#1963A0;stroke-width:1.0;"/><text fill="#000000" font-family="sans-serif" font-size="11" lengthAdjust="spacing" textLength="207" x="992.5" y="324.2104">resume(ResumeController): boolean</text><!--MD5=[eba1bc73714f08f0da8dc05a139be9c1]
class views.StartView--><rect codeLine="29" fill="#FEFECE" filter="url(#fqv2rhvfg8rlj)" height="60.8047" id="views.StartView" style="stroke:#A80036;stroke-width:1.5;" width="141" x="712.5" y="149"/><ellipse cx="750.9" cy="165" fill="#ADD1B2" rx="11" ry="11" style="stroke:#A80036;stroke-width:1.0;"/><path d="M753.2438,160.6719 C752.3063,160.2344 751.7125,160.0938 750.8375,160.0938 C748.2125,160.0938 746.2125,162.1719 746.2125,164.8906 L746.2125,166.0156 C746.2125,168.5938 748.3219,170.4844 751.2125,170.4844 C752.4313,170.4844 753.5875,170.1875 754.3375,169.6406 C754.9156,169.2344 755.2438,168.7813 755.2438,168.3906 C755.2438,167.9375 754.8531,167.5469 754.3844,167.5469 C754.1656,167.5469 753.9625,167.625 753.775,167.8125 C753.3219,168.2969 753.3219,168.2969 753.1344,168.3906 C752.7125,168.6563 752.025,168.7813 751.2594,168.7813 C749.2125,168.7813 747.9156,167.6875 747.9156,165.9844 L747.9156,164.8906 C747.9156,163.1094 749.1656,161.7969 750.9,161.7969 C751.4781,161.7969 752.0875,161.9531 752.5563,162.2031 C753.0406,162.4844 753.2125,162.7031 753.3063,163.1094 C753.3688,163.5156 753.4,163.6406 753.5406,163.7656 C753.6813,163.9063 753.9156,164.0156 754.1344,164.0156 C754.4,164.0156 754.6656,163.875 754.8375,163.6563 C754.9469,163.5 754.9781,163.3125 754.9781,162.8906 L754.9781,161.4688 C754.9781,161.0313 754.9625,160.9063 754.8688,160.75 C754.7125,160.4844 754.4313,160.3438 754.1344,160.3438 C753.8375,160.3438 753.6344,160.4375 753.4156,160.75 L753.2438,160.6719 Z " fill="#000000"/><text fill="#000000" font-family="sans-serif" font-size="12" lengthAdjust="spacing" textLength="57" x="770.1" y="169.1543">StartView</text><line style="stroke:#A80036;stroke-width:1.5;" x1="713.5" x2="852.5" y1="181" y2="181"/><line style="stroke:#A80036;stroke-width:1.5;" x1="713.5" x2="852.5" y1="189" y2="189"/><polygon fill="#4177AF" points="723.5,196,719.5,202,727.5,202" style="stroke:#1963A0;stroke-width:1.0;"/><text fill="#000000" font-family="sans-serif" font-size="11" lengthAdjust="spacing" textLength="115" x="732.5" y="203.2104">start(StartController)</text><!--MD5=[625ef0ab1f49174a2477f77f78895d5e]
class views.MovementView--><rect codeLine="33" fill="#FEFECE" filter="url(#fqv2rhvfg8rlj)" height="60.8047" id="views.MovementView" style="stroke:#A80036;stroke-width:1.5;" width="124" x="556" y="487"/><ellipse cx="571" cy="503" fill="#ADD1B2" rx="11" ry="11" style="stroke:#A80036;stroke-width:1.0;"/><path d="M573.3438,498.6719 C572.4063,498.2344 571.8125,498.0938 570.9375,498.0938 C568.3125,498.0938 566.3125,500.1719 566.3125,502.8906 L566.3125,504.0156 C566.3125,506.5938 568.4219,508.4844 571.3125,508.4844 C572.5313,508.4844 573.6875,508.1875 574.4375,507.6406 C575.0156,507.2344 575.3438,506.7813 575.3438,506.3906 C575.3438,505.9375 574.9531,505.5469 574.4844,505.5469 C574.2656,505.5469 574.0625,505.625 573.875,505.8125 C573.4219,506.2969 573.4219,506.2969 573.2344,506.3906 C572.8125,506.6563 572.125,506.7813 571.3594,506.7813 C569.3125,506.7813 568.0156,505.6875 568.0156,503.9844 L568.0156,502.8906 C568.0156,501.1094 569.2656,499.7969 571,499.7969 C571.5781,499.7969 572.1875,499.9531 572.6563,500.2031 C573.1406,500.4844 573.3125,500.7031 573.4063,501.1094 C573.4688,501.5156 573.5,501.6406 573.6406,501.7656 C573.7813,501.9063 574.0156,502.0156 574.2344,502.0156 C574.5,502.0156 574.7656,501.875 574.9375,501.6563 C575.0469,501.5 575.0781,501.3125 575.0781,500.8906 L575.0781,499.4688 C575.0781,499.0313 575.0625,498.9063 574.9688,498.75 C574.8125,498.4844 574.5313,498.3438 574.2344,498.3438 C573.9375,498.3438 573.7344,498.4375 573.5156,498.75 L573.3438,498.6719 Z " fill="#000000"/><text fill="#000000" font-family="sans-serif" font-size="12" lengthAdjust="spacing" textLength="92" x="585" y="507.1543">MovementView</text><line style="stroke:#A80036;stroke-width:1.5;" x1="557" x2="679" y1="519" y2="519"/><line style="stroke:#A80036;stroke-width:1.5;" x1="557" x2="679" y1="527" y2="527"/><polygon fill="#4177AF" points="567,534,563,540,571,540" style="stroke:#1963A0;stroke-width:1.0;"/><text fill="#000000" font-family="sans-serif" font-size="11" lengthAdjust="spacing" textLength="51" x="576" y="541.2104">interact()</text><!--MD5=[17c5bd0e327a2997366869d748d685d5]
class views.ColorView--><rect codeLine="37" fill="#FEFECE" filter="url(#fqv2rhvfg8rlj)" height="60.8047" id="views.ColorView" style="stroke:#A80036;stroke-width:1.5;" width="93" x="421.5" y="487"/><ellipse cx="436.5" cy="503" fill="#ADD1B2" rx="11" ry="11" style="stroke:#A80036;stroke-width:1.0;"/><path d="M438.8438,498.6719 C437.9063,498.2344 437.3125,498.0938 436.4375,498.0938 C433.8125,498.0938 431.8125,500.1719 431.8125,502.8906 L431.8125,504.0156 C431.8125,506.5938 433.9219,508.4844 436.8125,508.4844 C438.0313,508.4844 439.1875,508.1875 439.9375,507.6406 C440.5156,507.2344 440.8438,506.7813 440.8438,506.3906 C440.8438,505.9375 440.4531,505.5469 439.9844,505.5469 C439.7656,505.5469 439.5625,505.625 439.375,505.8125 C438.9219,506.2969 438.9219,506.2969 438.7344,506.3906 C438.3125,506.6563 437.625,506.7813 436.8594,506.7813 C434.8125,506.7813 433.5156,505.6875 433.5156,503.9844 L433.5156,502.8906 C433.5156,501.1094 434.7656,499.7969 436.5,499.7969 C437.0781,499.7969 437.6875,499.9531 438.1563,500.2031 C438.6406,500.4844 438.8125,500.7031 438.9063,501.1094 C438.9688,501.5156 439,501.6406 439.1406,501.7656 C439.2813,501.9063 439.5156,502.0156 439.7344,502.0156 C440,502.0156 440.2656,501.875 440.4375,501.6563 C440.5469,501.5 440.5781,501.3125 440.5781,500.8906 L440.5781,499.4688 C440.5781,499.0313 440.5625,498.9063 440.4688,498.75 C440.3125,498.4844 440.0313,498.3438 439.7344,498.3438 C439.4375,498.3438 439.2344,498.4375 439.0156,498.75 L438.8438,498.6719 Z " fill="#000000"/><text fill="#000000" font-family="sans-serif" font-size="12" lengthAdjust="spacing" textLength="61" x="450.5" y="507.1543">ColorView</text><line style="stroke:#A80036;stroke-width:1.5;" x1="422.5" x2="513.5" y1="519" y2="519"/><line style="stroke:#A80036;stroke-width:1.5;" x1="422.5" x2="513.5" y1="527" y2="527"/><polygon fill="#4177AF" points="432.5,534,428.5,540,436.5,540" style="stroke:#1963A0;stroke-width:1.0;"/><text fill="#000000" font-family="sans-serif" font-size="11" lengthAdjust="spacing" textLength="65" x="441.5" y="541.2104">write(Color)</text><!--MD5=[5fb6404b27f4ef9dcdf9d19c88664cd6]
class views.SaveView--><rect codeLine="41" fill="#FEFECE" filter="url(#fqv2rhvfg8rlj)" height="60.8047" id="views.SaveView" style="stroke:#A80036;stroke-width:1.5;" width="147" x="888.5" y="149"/><ellipse cx="928.7" cy="165" fill="#ADD1B2" rx="11" ry="11" style="stroke:#A80036;stroke-width:1.0;"/><path d="M931.0438,160.6719 C930.1063,160.2344 929.5125,160.0938 928.6375,160.0938 C926.0125,160.0938 924.0125,162.1719 924.0125,164.8906 L924.0125,166.0156 C924.0125,168.5938 926.1219,170.4844 929.0125,170.4844 C930.2313,170.4844 931.3875,170.1875 932.1375,169.6406 C932.7156,169.2344 933.0438,168.7813 933.0438,168.3906 C933.0438,167.9375 932.6531,167.5469 932.1844,167.5469 C931.9656,167.5469 931.7625,167.625 931.575,167.8125 C931.1219,168.2969 931.1219,168.2969 930.9344,168.3906 C930.5125,168.6563 929.825,168.7813 929.0594,168.7813 C927.0125,168.7813 925.7156,167.6875 925.7156,165.9844 L925.7156,164.8906 C925.7156,163.1094 926.9656,161.7969 928.7,161.7969 C929.2781,161.7969 929.8875,161.9531 930.3563,162.2031 C930.8406,162.4844 931.0125,162.7031 931.1063,163.1094 C931.1688,163.5156 931.2,163.6406 931.3406,163.7656 C931.4813,163.9063 931.7156,164.0156 931.9344,164.0156 C932.2,164.0156 932.4656,163.875 932.6375,163.6563 C932.7469,163.5 932.7781,163.3125 932.7781,162.8906 L932.7781,161.4688 C932.7781,161.0313 932.7625,160.9063 932.6688,160.75 C932.5125,160.4844 932.2313,160.3438 931.9344,160.3438 C931.6375,160.3438 931.4344,160.4375 931.2156,160.75 L931.0438,160.6719 Z " fill="#000000"/><text fill="#000000" font-family="sans-serif" font-size="12" lengthAdjust="spacing" textLength="59" x="948.3" y="169.1543">SaveView</text><line style="stroke:#A80036;stroke-width:1.5;" x1="889.5" x2="1034.5" y1="181" y2="181"/><line style="stroke:#A80036;stroke-width:1.5;" x1="889.5" x2="1034.5" y1="189" y2="189"/><polygon fill="#4177AF" points="899.5,196,895.5,202,903.5,202" style="stroke:#1963A0;stroke-width:1.0;"/><text fill="#000000" font-family="sans-serif" font-size="11" lengthAdjust="spacing" textLength="121" x="908.5" y="203.2104">save(SaveController)</text><!--MD5=[eb005d1f9ef1a536a9bf8853c8f91c5b]
class views.OpenView--><rect codeLine="45" fill="#FEFECE" filter="url(#fqv2rhvfg8rlj)" height="60.8047" id="views.OpenView" style="stroke:#A80036;stroke-width:1.5;" width="163" x="736.5" y="270"/><ellipse cx="782.75" cy="286" fill="#ADD1B2" rx="11" ry="11" style="stroke:#A80036;stroke-width:1.0;"/><path d="M785.0938,281.6719 C784.1563,281.2344 783.5625,281.0938 782.6875,281.0938 C780.0625,281.0938 778.0625,283.1719 778.0625,285.8906 L778.0625,287.0156 C778.0625,289.5938 780.1719,291.4844 783.0625,291.4844 C784.2813,291.4844 785.4375,291.1875 786.1875,290.6406 C786.7656,290.2344 787.0938,289.7813 787.0938,289.3906 C787.0938,288.9375 786.7031,288.5469 786.2344,288.5469 C786.0156,288.5469 785.8125,288.625 785.625,288.8125 C785.1719,289.2969 785.1719,289.2969 784.9844,289.3906 C784.5625,289.6563 783.875,289.7813 783.1094,289.7813 C781.0625,289.7813 779.7656,288.6875 779.7656,286.9844 L779.7656,285.8906 C779.7656,284.1094 781.0156,282.7969 782.75,282.7969 C783.3281,282.7969 783.9375,282.9531 784.4063,283.2031 C784.8906,283.4844 785.0625,283.7031 785.1563,284.1094 C785.2188,284.5156 785.25,284.6406 785.3906,284.7656 C785.5313,284.9063 785.7656,285.0156 785.9844,285.0156 C786.25,285.0156 786.5156,284.875 786.6875,284.6563 C786.7969,284.5 786.8281,284.3125 786.8281,283.8906 L786.8281,282.4688 C786.8281,282.0313 786.8125,281.9063 786.7188,281.75 C786.5625,281.4844 786.2813,281.3438 785.9844,281.3438 C785.6875,281.3438 785.4844,281.4375 785.2656,281.75 L785.0938,281.6719 Z " fill="#000000"/><text fill="#000000" font-family="sans-serif" font-size="12" lengthAdjust="spacing" textLength="62" x="803.25" y="290.1543">OpenView</text><line style="stroke:#A80036;stroke-width:1.5;" x1="737.5" x2="898.5" y1="302" y2="302"/><line style="stroke:#A80036;stroke-width:1.5;" x1="737.5" x2="898.5" y1="310" y2="310"/><polygon fill="#4177AF" points="747.5,317,743.5,323,751.5,323" style="stroke:#1963A0;stroke-width:1.0;"/><text fill="#000000" font-family="sans-serif" font-size="11" lengthAdjust="spacing" textLength="137" x="756.5" y="324.2104">interact(OpenController)</text><!--MD5=[692bbdbc7ace692555185cdf9d0c2e06]
class views.Message--><rect codeLine="49" fill="#FEFECE" filter="url(#fqv2rhvfg8rlj)" height="252.875" id="views.Message" style="stroke:#A80036;stroke-width:1.5;" width="192" x="718" y="391"/><ellipse cx="782.25" cy="407" fill="#EB937F" rx="11" ry="11" style="stroke:#A80036;stroke-width:1.0;"/><path d="M781.0469,407.875 L782.5,407.875 L782.5,407.9844 C782.5,408.3906 782.5313,408.5469 782.6094,408.7031 C782.7656,408.9531 783.0469,409.1094 783.3438,409.1094 C783.5938,409.1094 783.8594,408.9688 784.0156,408.75 C784.1406,408.5938 784.1719,408.4375 784.1719,407.9844 L784.1719,406.0625 C784.1719,405.9063 784.1719,405.8594 784.1563,405.7031 C784.0938,405.2344 783.7813,404.9219 783.3281,404.9219 C783.0781,404.9219 782.8125,405.0625 782.6406,405.2813 C782.5313,405.4531 782.5,405.6094 782.5,406.0625 L782.5,406.1875 L781.0469,406.1875 L781.0469,403.7813 L785.0313,403.7813 L785.0313,404.6406 C785.0313,405.0469 785.0625,405.2188 785.1406,405.375 C785.3125,405.625 785.5938,405.7813 785.875,405.7813 C786.1406,405.7813 786.4063,405.6406 786.5781,405.4219 C786.6875,405.25 786.7188,405.1094 786.7188,404.6406 L786.7188,402.0938 L779.0938,402.0938 C778.6563,402.0938 778.5313,402.1094 778.375,402.2031 C778.125,402.3594 777.9688,402.6563 777.9688,402.9375 C777.9688,403.2188 778.1094,403.4688 778.3281,403.6406 C778.4844,403.75 778.6719,403.7813 779.0938,403.7813 L779.3438,403.7813 L779.3438,410.2969 L779.0938,410.2969 C778.6875,410.2969 778.5313,410.3125 778.375,410.4219 C778.125,410.5938 777.9688,410.8594 777.9688,411.1563 C777.9688,411.4219 778.1094,411.6719 778.3281,411.8281 C778.4688,411.9531 778.7031,412 779.0938,412 L787.0938,412 L787.0938,409.4219 C787.0938,408.9844 787.0625,408.8438 786.9844,408.6875 C786.8125,408.4375 786.5313,408.2813 786.25,408.2813 C785.9844,408.2813 785.7188,408.3906 785.5469,408.6406 C785.4375,408.7969 785.4063,408.9375 785.4063,409.4219 L785.4063,410.2969 L781.0469,410.2969 L781.0469,407.875 Z " fill="#000000"/><text fill="#000000" font-family="sans-serif" font-size="12" lengthAdjust="spacing" textLength="55" x="802.75" y="411.1543">Message</text><line style="stroke:#A80036;stroke-width:1.5;" x1="719" x2="909" y1="423" y2="423"/><ellipse cx="729" cy="434" rx="3" ry="3" style="stroke:#038048;stroke-width:1.0;fill:none;"/><text fill="#000000" font-family="sans-serif" font-size="11" lengthAdjust="spacing" textLength="30" x="738" y="437.2104">TITLE</text><ellipse cx="729" cy="446.8047" rx="3" ry="3" style="stroke:#038048;stroke-width:1.0;fill:none;"/><text fill="#000000" font-family="sans-serif" font-size="11" lengthAdjust="spacing" textLength="103" x="738" y="450.0151">HORIZONTAL_LINE</text><ellipse cx="729" cy="459.6094" rx="3" ry="3" style="stroke:#038048;stroke-width:1.0;fill:none;"/><text fill="#000000" font-family="sans-serif" font-size="11" lengthAdjust="spacing" textLength="84" x="738" y="462.8198">VERTICAL_LINE</text><ellipse cx="729" cy="472.4141" rx="3" ry="3" style="stroke:#038048;stroke-width:1.0;fill:none;"/><text fill="#000000" font-family="sans-serif" font-size="11" lengthAdjust="spacing" textLength="109" x="738" y="475.6245">ACTION_COMMAND</text><ellipse cx="729" cy="485.2188" rx="3" ry="3" style="stroke:#038048;stroke-width:1.0;fill:none;"/><text fill="#000000" font-family="sans-serif" font-size="11" lengthAdjust="spacing" textLength="100" x="738" y="488.4292">UNDO_COMMAND</text><ellipse cx="729" cy="498.0234" rx="3" ry="3" style="stroke:#038048;stroke-width:1.0;fill:none;"/><text fill="#000000" font-family="sans-serif" font-size="11" lengthAdjust="spacing" textLength="98" x="738" y="501.2339">REDO_COMMAND</text><ellipse cx="729" cy="510.8281" rx="3" ry="3" style="stroke:#038048;stroke-width:1.0;fill:none;"/><text fill="#000000" font-family="sans-serif" font-size="11" lengthAdjust="spacing" textLength="166" x="738" y="514.0386">ENTER_COORDINATE_TO_PUT</text><ellipse cx="729" cy="523.6328" rx="3" ry="3" style="stroke:#038048;stroke-width:1.0;fill:none;"/><text fill="#000000" font-family="sans-serif" font-size="11" lengthAdjust="spacing" textLength="124" x="738" y="526.8433">COORDINATE_TO_PUT</text><ellipse cx="729" cy="536.4375" rx="3" ry="3" style="stroke:#038048;stroke-width:1.0;fill:none;"/><text fill="#000000" font-family="sans-serif" font-size="11" lengthAdjust="spacing" textLength="150" x="738" y="539.6479">COORDINATE_TO_REMOVE</text><ellipse cx="729" cy="549.2422" rx="3" ry="3" style="stroke:#038048;stroke-width:1.0;fill:none;"/><text fill="#000000" font-family="sans-serif" font-size="11" lengthAdjust="spacing" textLength="136" x="738" y="552.4526">COORDINATE_TO_MOVE</text><ellipse cx="729" cy="562.0469" rx="3" ry="3" style="stroke:#038048;stroke-width:1.0;fill:none;"/><text fill="#000000" font-family="sans-serif" font-size="11" lengthAdjust="spacing" textLength="69" x="738" y="565.2573">PLAYER_WIN</text><ellipse cx="729" cy="574.8516" rx="3" ry="3" style="stroke:#038048;stroke-width:1.0;fill:none;"/><text fill="#000000" font-family="sans-serif" font-size="11" lengthAdjust="spacing" textLength="46" x="738" y="578.062">RESUME</text><ellipse cx="729" cy="587.6563" rx="3" ry="3" style="stroke:#038048;stroke-width:1.0;fill:none;"/><text fill="#000000" font-family="sans-serif" font-size="11" lengthAdjust="spacing" textLength="30" x="738" y="590.8667">OPEN</text><ellipse cx="729" cy="600.4609" rx="3" ry="3" style="stroke:#038048;stroke-width:1.0;fill:none;"/><text fill="#000000" font-family="sans-serif" font-size="11" lengthAdjust="spacing" textLength="31" x="738" y="603.6714">SAVE</text><line style="stroke:#A80036;stroke-width:1.5;" x1="719" x2="909" y1="610.2656" y2="610.2656"/><polygon fill="#4177AF" points="729,617.2656,725,623.2656,733,623.2656" style="stroke:#1963A0;stroke-width:1.0;"/><text fill="#000000" font-family="sans-serif" font-size="11" lengthAdjust="spacing" textLength="46" x="738" y="624.4761">writeln()</text><polygon fill="#4177AF" points="729,630.0703,725,636.0703,733,636.0703" style="stroke:#1963A0;stroke-width:1.0;"/><text fill="#000000" font-family="sans-serif" font-size="11" lengthAdjust="spacing" textLength="36" x="738" y="637.2808">write()</text><!--MD5=[947e6c573c2f2818382a8a631176de9a]
class views.PlayerView--><rect codeLine="68" fill="#FEFECE" filter="url(#fqv2rhvfg8rlj)" height="48" id="views.PlayerView" style="stroke:#A80036;stroke-width:1.5;" width="97" x="823.5" y="41"/><ellipse cx="838.5" cy="57" fill="#ADD1B2" rx="11" ry="11" style="stroke:#A80036;stroke-width:1.0;"/><path d="M840.8438,52.6719 C839.9063,52.2344 839.3125,52.0938 838.4375,52.0938 C835.8125,52.0938 833.8125,54.1719 833.8125,56.8906 L833.8125,58.0156 C833.8125,60.5938 835.9219,62.4844 838.8125,62.4844 C840.0313,62.4844 841.1875,62.1875 841.9375,61.6406 C842.5156,61.2344 842.8438,60.7813 842.8438,60.3906 C842.8438,59.9375 842.4531,59.5469 841.9844,59.5469 C841.7656,59.5469 841.5625,59.625 841.375,59.8125 C840.9219,60.2969 840.9219,60.2969 840.7344,60.3906 C840.3125,60.6563 839.625,60.7813 838.8594,60.7813 C836.8125,60.7813 835.5156,59.6875 835.5156,57.9844 L835.5156,56.8906 C835.5156,55.1094 836.7656,53.7969 838.5,53.7969 C839.0781,53.7969 839.6875,53.9531 840.1563,54.2031 C840.6406,54.4844 840.8125,54.7031 840.9063,55.1094 C840.9688,55.5156 841,55.6406 841.1406,55.7656 C841.2813,55.9063 841.5156,56.0156 841.7344,56.0156 C842,56.0156 842.2656,55.875 842.4375,55.6563 C842.5469,55.5 842.5781,55.3125 842.5781,54.8906 L842.5781,53.4688 C842.5781,53.0313 842.5625,52.9063 842.4688,52.75 C842.3125,52.4844 842.0313,52.3438 841.7344,52.3438 C841.4375,52.3438 841.2344,52.4375 841.0156,52.75 L840.8438,52.6719 Z " fill="#000000"/><text fill="#000000" font-family="sans-serif" font-size="12" lengthAdjust="spacing" textLength="65" x="852.5" y="61.1543">PlayerView</text><line style="stroke:#A80036;stroke-width:1.5;" x1="824.5" x2="919.5" y1="73" y2="73"/><line style="stroke:#A80036;stroke-width:1.5;" x1="824.5" x2="919.5" y1="81" y2="81"/><!--MD5=[280d60b3a1c00403d47604559a33a076]
class views.MenuView--><rect codeLine="72" fill="#FEFECE" filter="url(#fqv2rhvfg8rlj)" height="60.8047" id="views.MenuView" style="stroke:#A80036;stroke-width:1.5;" width="140" x="308" y="270"/><ellipse cx="344.15" cy="286" fill="#ADD1B2" rx="11" ry="11" style="stroke:#A80036;stroke-width:1.0;"/><path d="M346.4938,281.6719 C345.5563,281.2344 344.9625,281.0938 344.0875,281.0938 C341.4625,281.0938 339.4625,283.1719 339.4625,285.8906 L339.4625,287.0156 C339.4625,289.5938 341.5719,291.4844 344.4625,291.4844 C345.6813,291.4844 346.8375,291.1875 347.5875,290.6406 C348.1656,290.2344 348.4938,289.7813 348.4938,289.3906 C348.4938,288.9375 348.1031,288.5469 347.6344,288.5469 C347.4156,288.5469 347.2125,288.625 347.025,288.8125 C346.5719,289.2969 346.5719,289.2969 346.3844,289.3906 C345.9625,289.6563 345.275,289.7813 344.5094,289.7813 C342.4625,289.7813 341.1656,288.6875 341.1656,286.9844 L341.1656,285.8906 C341.1656,284.1094 342.4156,282.7969 344.15,282.7969 C344.7281,282.7969 345.3375,282.9531 345.8063,283.2031 C346.2906,283.4844 346.4625,283.7031 346.5563,284.1094 C346.6188,284.5156 346.65,284.6406 346.7906,284.7656 C346.9313,284.9063 347.1656,285.0156 347.3844,285.0156 C347.65,285.0156 347.9156,284.875 348.0875,284.6563 C348.1969,284.5 348.2281,284.3125 348.2281,283.8906 L348.2281,282.4688 C348.2281,282.0313 348.2125,281.9063 348.1188,281.75 C347.9625,281.4844 347.6813,281.3438 347.3844,281.3438 C347.0875,281.3438 346.8844,281.4375 346.6656,281.75 L346.4938,281.6719 Z " fill="#000000"/><text fill="#000000" font-family="sans-serif" font-size="12" lengthAdjust="spacing" textLength="61" x="362.85" y="290.1543">MenuView</text><line style="stroke:#A80036;stroke-width:1.5;" x1="309" x2="447" y1="302" y2="302"/><line style="stroke:#A80036;stroke-width:1.5;" x1="309" x2="447" y1="310" y2="310"/><polygon fill="#4177AF" points="319,317,315,323,323,323" style="stroke:#1963A0;stroke-width:1.0;"/><text fill="#000000" font-family="sans-serif" font-size="11" lengthAdjust="spacing" textLength="114" x="328" y="324.2104">write(PlayController)</text><!--MD5=[086790dd88b6dc20f42fdfbd3a0210ab]
class views.CoordinateView--><rect codeLine="76" fill="#FEFECE" filter="url(#fqv2rhvfg8rlj)" height="60.8047" id="views.CoordinateView" style="stroke:#A80036;stroke-width:1.5;" width="129" x="702.5" y="704"/><ellipse cx="718.4" cy="720" fill="#ADD1B2" rx="11" ry="11" style="stroke:#A80036;stroke-width:1.0;"/><path d="M720.7438,715.6719 C719.8063,715.2344 719.2125,715.0938 718.3375,715.0938 C715.7125,715.0938 713.7125,717.1719 713.7125,719.8906 L713.7125,721.0156 C713.7125,723.5938 715.8219,725.4844 718.7125,725.4844 C719.9313,725.4844 721.0875,725.1875 721.8375,724.6406 C722.4156,724.2344 722.7438,723.7813 722.7438,723.3906 C722.7438,722.9375 722.3531,722.5469 721.8844,722.5469 C721.6656,722.5469 721.4625,722.625 721.275,722.8125 C720.8219,723.2969 720.8219,723.2969 720.6344,723.3906 C720.2125,723.6563 719.525,723.7813 718.7594,723.7813 C716.7125,723.7813 715.4156,722.6875 715.4156,720.9844 L715.4156,719.8906 C715.4156,718.1094 716.6656,716.7969 718.4,716.7969 C718.9781,716.7969 719.5875,716.9531 720.0563,717.2031 C720.5406,717.4844 720.7125,717.7031 720.8063,718.1094 C720.8688,718.5156 720.9,718.6406 721.0406,718.7656 C721.1813,718.9063 721.4156,719.0156 721.6344,719.0156 C721.9,719.0156 722.1656,718.875 722.3375,718.6563 C722.4469,718.5 722.4781,718.3125 722.4781,717.8906 L722.4781,716.4688 C722.4781,716.0313 722.4625,715.9063 722.3688,715.75 C722.2125,715.4844 721.9313,715.3438 721.6344,715.3438 C721.3375,715.3438 721.1344,715.4375 720.9156,715.75 L720.7438,715.6719 Z " fill="#000000"/><text fill="#000000" font-family="sans-serif" font-size="12" lengthAdjust="spacing" textLength="95" x="732.6" y="724.1543">CoordinateView</text><line style="stroke:#A80036;stroke-width:1.5;" x1="703.5" x2="830.5" y1="736" y2="736"/><line style="stroke:#A80036;stroke-width:1.5;" x1="703.5" x2="830.5" y1="744" y2="744"/><polygon fill="#4177AF" points="713.5,751,709.5,757,717.5,757" style="stroke:#1963A0;stroke-width:1.0;"/><text fill="#000000" font-family="sans-serif" font-size="11" lengthAdjust="spacing" textLength="103" x="722.5" y="758.2104">read(): Coordinate</text><!--MD5=[8c7d7abc12e214c3cc12c9ab70edee11]
class Coordinate--><rect codeLine="1" fill="#FEFECE" filter="url(#fqv2rhvfg8rlj)" height="53.9375" id="Coordinate" style="stroke:#A80036;stroke-width:1.5;" width="98" x="836" y="825"/><ellipse cx="851" cy="843.9688" fill="#ADD1B2" rx="11" ry="11" style="stroke:#A80036;stroke-width:1.0;"/><path d="M853.3438,839.6406 C852.4063,839.2031 851.8125,839.0625 850.9375,839.0625 C848.3125,839.0625 846.3125,841.1406 846.3125,843.8594 L846.3125,844.9844 C846.3125,847.5625 848.4219,849.4531 851.3125,849.4531 C852.5313,849.4531 853.6875,849.1563 854.4375,848.6094 C855.0156,848.2031 855.3438,847.75 855.3438,847.3594 C855.3438,846.9063 854.9531,846.5156 854.4844,846.5156 C854.2656,846.5156 854.0625,846.5938 853.875,846.7813 C853.4219,847.2656 853.4219,847.2656 853.2344,847.3594 C852.8125,847.625 852.125,847.75 851.3594,847.75 C849.3125,847.75 848.0156,846.6563 848.0156,844.9531 L848.0156,843.8594 C848.0156,842.0781 849.2656,840.7656 851,840.7656 C851.5781,840.7656 852.1875,840.9219 852.6563,841.1719 C853.1406,841.4531 853.3125,841.6719 853.4063,842.0781 C853.4688,842.4844 853.5,842.6094 853.6406,842.7344 C853.7813,842.875 854.0156,842.9844 854.2344,842.9844 C854.5,842.9844 854.7656,842.8438 854.9375,842.625 C855.0469,842.4688 855.0781,842.2813 855.0781,841.8594 L855.0781,840.4375 C855.0781,840 855.0625,839.875 854.9688,839.7188 C854.8125,839.4531 854.5313,839.3125 854.2344,839.3125 C853.9375,839.3125 853.7344,839.4063 853.5156,839.7188 L853.3438,839.6406 Z " fill="#000000"/><text fill="#000000" font-family="sans-serif" font-size="12" lengthAdjust="spacing" textLength="37" x="879.5" y="841.1387">types.</text><text fill="#000000" font-family="sans-serif" font-size="12" lengthAdjust="spacing" textLength="66" x="865" y="855.1074">Coordinate</text><line style="stroke:#A80036;stroke-width:1.5;" x1="837" x2="933" y1="862.9375" y2="862.9375"/><line style="stroke:#A80036;stroke-width:1.5;" x1="837" x2="933" y1="870.9375" y2="870.9375"/><!--MD5=[b8cfd8c4119a3b0a7a46bfc5fc780f85]
class Error--><rect codeLine="2" fill="#FEFECE" filter="url(#fqv2rhvfg8rlj)" height="53.9375" id="Error" style="stroke:#A80036;stroke-width:1.5;" width="69" x="532.5" y="825"/><ellipse cx="547.5" cy="843.9688" fill="#EB937F" rx="11" ry="11" style="stroke:#A80036;stroke-width:1.0;"/><path d="M546.2969,844.8438 L547.75,844.8438 L547.75,844.9531 C547.75,845.3594 547.7813,845.5156 547.8594,845.6719 C548.0156,845.9219 548.2969,846.0781 548.5938,846.0781 C548.8438,846.0781 549.1094,845.9375 549.2656,845.7188 C549.3906,845.5625 549.4219,845.4063 549.4219,844.9531 L549.4219,843.0313 C549.4219,842.875 549.4219,842.8281 549.4063,842.6719 C549.3438,842.2031 549.0313,841.8906 548.5781,841.8906 C548.3281,841.8906 548.0625,842.0313 547.8906,842.25 C547.7813,842.4219 547.75,842.5781 547.75,843.0313 L547.75,843.1563 L546.2969,843.1563 L546.2969,840.75 L550.2813,840.75 L550.2813,841.6094 C550.2813,842.0156 550.3125,842.1875 550.3906,842.3438 C550.5625,842.5938 550.8438,842.75 551.125,842.75 C551.3906,842.75 551.6563,842.6094 551.8281,842.3906 C551.9375,842.2188 551.9688,842.0781 551.9688,841.6094 L551.9688,839.0625 L544.3438,839.0625 C543.9063,839.0625 543.7813,839.0781 543.625,839.1719 C543.375,839.3281 543.2188,839.625 543.2188,839.9063 C543.2188,840.1875 543.3594,840.4375 543.5781,840.6094 C543.7344,840.7188 543.9219,840.75 544.3438,840.75 L544.5938,840.75 L544.5938,847.2656 L544.3438,847.2656 C543.9375,847.2656 543.7813,847.2813 543.625,847.3906 C543.375,847.5625 543.2188,847.8281 543.2188,848.125 C543.2188,848.3906 543.3594,848.6406 543.5781,848.7969 C543.7188,848.9219 543.9531,848.9688 544.3438,848.9688 L552.3438,848.9688 L552.3438,846.3906 C552.3438,845.9531 552.3125,845.8125 552.2344,845.6563 C552.0625,845.4063 551.7813,845.25 551.5,845.25 C551.2344,845.25 550.9688,845.3594 550.7969,845.6094 C550.6875,845.7656 550.6563,845.9063 550.6563,846.3906 L550.6563,847.2656 L546.2969,847.2656 L546.2969,844.8438 Z " fill="#000000"/><text fill="#000000" font-family="sans-serif" font-size="12" lengthAdjust="spacing" textLength="37" x="561.5" y="841.1387">types.</text><text fill="#000000" font-family="sans-serif" font-size="12" lengthAdjust="spacing" textLength="30" x="565" y="855.1074">Error</text><line style="stroke:#A80036;stroke-width:1.5;" x1="533.5" x2="600.5" y1="862.9375" y2="862.9375"/><line style="stroke:#A80036;stroke-width:1.5;" x1="533.5" x2="600.5" y1="870.9375" y2="870.9375"/><!--MD5=[18eee71c88ab61f27581b8cbdd3ef5ee]
class Color--><rect codeLine="3" fill="#FEFECE" filter="url(#fqv2rhvfg8rlj)" height="53.9375" id="Color" style="stroke:#A80036;stroke-width:1.5;" width="69" x="206.5" y="707.5"/><ellipse cx="221.5" cy="726.4688" fill="#EB937F" rx="11" ry="11" style="stroke:#A80036;stroke-width:1.0;"/><path d="M220.2969,727.3438 L221.75,727.3438 L221.75,727.4531 C221.75,727.8594 221.7813,728.0156 221.8594,728.1719 C222.0156,728.4219 222.2969,728.5781 222.5938,728.5781 C222.8438,728.5781 223.1094,728.4375 223.2656,728.2188 C223.3906,728.0625 223.4219,727.9063 223.4219,727.4531 L223.4219,725.5313 C223.4219,725.375 223.4219,725.3281 223.4063,725.1719 C223.3438,724.7031 223.0313,724.3906 222.5781,724.3906 C222.3281,724.3906 222.0625,724.5313 221.8906,724.75 C221.7813,724.9219 221.75,725.0781 221.75,725.5313 L221.75,725.6563 L220.2969,725.6563 L220.2969,723.25 L224.2813,723.25 L224.2813,724.1094 C224.2813,724.5156 224.3125,724.6875 224.3906,724.8438 C224.5625,725.0938 224.8438,725.25 225.125,725.25 C225.3906,725.25 225.6563,725.1094 225.8281,724.8906 C225.9375,724.7188 225.9688,724.5781 225.9688,724.1094 L225.9688,721.5625 L218.3438,721.5625 C217.9063,721.5625 217.7813,721.5781 217.625,721.6719 C217.375,721.8281 217.2188,722.125 217.2188,722.4063 C217.2188,722.6875 217.3594,722.9375 217.5781,723.1094 C217.7344,723.2188 217.9219,723.25 218.3438,723.25 L218.5938,723.25 L218.5938,729.7656 L218.3438,729.7656 C217.9375,729.7656 217.7813,729.7813 217.625,729.8906 C217.375,730.0625 217.2188,730.3281 217.2188,730.625 C217.2188,730.8906 217.3594,731.1406 217.5781,731.2969 C217.7188,731.4219 217.9531,731.4688 218.3438,731.4688 L226.3438,731.4688 L226.3438,728.8906 C226.3438,728.4531 226.3125,728.3125 226.2344,728.1563 C226.0625,727.9063 225.7813,727.75 225.5,727.75 C225.2344,727.75 224.9688,727.8594 224.7969,728.1094 C224.6875,728.2656 224.6563,728.4063 224.6563,728.8906 L224.6563,729.7656 L220.2969,729.7656 L220.2969,727.3438 Z " fill="#000000"/><text fill="#000000" font-family="sans-serif" font-size="12" lengthAdjust="spacing" textLength="37" x="235.5" y="723.6387">types.</text><text fill="#000000" font-family="sans-serif" font-size="12" lengthAdjust="spacing" textLength="32" x="238" y="737.6074">Color</text><line style="stroke:#A80036;stroke-width:1.5;" x1="207.5" x2="274.5" y1="745.4375" y2="745.4375"/><line style="stroke:#A80036;stroke-width:1.5;" x1="207.5" x2="274.5" y1="753.4375" y2="753.4375"/><!--MD5=[47c371471411cfedeee61b1a5bdaee47]
class StartController--><rect codeLine="4" fill="#FEFECE" filter="url(#fqv2rhvfg8rlj)" height="53.9375" id="StartController" style="stroke:#A80036;stroke-width:1.5;" width="119" x="1950.5" y="490.5"/><ellipse cx="1965.5" cy="509.4688" fill="#ADD1B2" rx="11" ry="11" style="stroke:#A80036;stroke-width:1.0;"/><path d="M1967.8438,505.1406 C1966.9063,504.7031 1966.3125,504.5625 1965.4375,504.5625 C1962.8125,504.5625 1960.8125,506.6406 1960.8125,509.3594 L1960.8125,510.4844 C1960.8125,513.0625 1962.9219,514.9531 1965.8125,514.9531 C1967.0313,514.9531 1968.1875,514.6563 1968.9375,514.1094 C1969.5156,513.7031 1969.8438,513.25 1969.8438,512.8594 C1969.8438,512.4063 1969.4531,512.0156 1968.9844,512.0156 C1968.7656,512.0156 1968.5625,512.0938 1968.375,512.2813 C1967.9219,512.7656 1967.9219,512.7656 1967.7344,512.8594 C1967.3125,513.125 1966.625,513.25 1965.8594,513.25 C1963.8125,513.25 1962.5156,512.1563 1962.5156,510.4531 L1962.5156,509.3594 C1962.5156,507.5781 1963.7656,506.2656 1965.5,506.2656 C1966.0781,506.2656 1966.6875,506.4219 1967.1563,506.6719 C1967.6406,506.9531 1967.8125,507.1719 1967.9063,507.5781 C1967.9688,507.9844 1968,508.1094 1968.1406,508.2344 C1968.2813,508.375 1968.5156,508.4844 1968.7344,508.4844 C1969,508.4844 1969.2656,508.3438 1969.4375,508.125 C1969.5469,507.9688 1969.5781,507.7813 1969.5781,507.3594 L1969.5781,505.9375 C1969.5781,505.5 1969.5625,505.375 1969.4688,505.2188 C1969.3125,504.9531 1969.0313,504.8125 1968.7344,504.8125 C1968.4375,504.8125 1968.2344,504.9063 1968.0156,505.2188 L1967.8438,505.1406 Z " fill="#000000"/><text fill="#000000" font-family="sans-serif" font-size="12" lengthAdjust="spacing" textLength="68" x="1989" y="506.6387">controllers.</text><text fill="#000000" font-family="sans-serif" font-size="12" lengthAdjust="spacing" textLength="87" x="1979.5" y="520.6074">StartController</text><line style="stroke:#A80036;stroke-width:1.5;" x1="1951.5" x2="2068.5" y1="528.4375" y2="528.4375"/><line style="stroke:#A80036;stroke-width:1.5;" x1="1951.5" x2="2068.5" y1="536.4375" y2="536.4375"/><!--MD5=[cc8600b868f8dfab2c8d497bce62f90a]
class PlayController--><rect codeLine="5" fill="#FEFECE" filter="url(#fqv2rhvfg8rlj)" height="53.9375" id="PlayController" style="stroke:#A80036;stroke-width:1.5;" width="114" x="1468" y="490.5"/><ellipse cx="1483" cy="509.4688" fill="#ADD1B2" rx="11" ry="11" style="stroke:#A80036;stroke-width:1.0;"/><path d="M1485.3438,505.1406 C1484.4063,504.7031 1483.8125,504.5625 1482.9375,504.5625 C1480.3125,504.5625 1478.3125,506.6406 1478.3125,509.3594 L1478.3125,510.4844 C1478.3125,513.0625 1480.4219,514.9531 1483.3125,514.9531 C1484.5313,514.9531 1485.6875,514.6563 1486.4375,514.1094 C1487.0156,513.7031 1487.3438,513.25 1487.3438,512.8594 C1487.3438,512.4063 1486.9531,512.0156 1486.4844,512.0156 C1486.2656,512.0156 1486.0625,512.0938 1485.875,512.2813 C1485.4219,512.7656 1485.4219,512.7656 1485.2344,512.8594 C1484.8125,513.125 1484.125,513.25 1483.3594,513.25 C1481.3125,513.25 1480.0156,512.1563 1480.0156,510.4531 L1480.0156,509.3594 C1480.0156,507.5781 1481.2656,506.2656 1483,506.2656 C1483.5781,506.2656 1484.1875,506.4219 1484.6563,506.6719 C1485.1406,506.9531 1485.3125,507.1719 1485.4063,507.5781 C1485.4688,507.9844 1485.5,508.1094 1485.6406,508.2344 C1485.7813,508.375 1486.0156,508.4844 1486.2344,508.4844 C1486.5,508.4844 1486.7656,508.3438 1486.9375,508.125 C1487.0469,507.9688 1487.0781,507.7813 1487.0781,507.3594 L1487.0781,505.9375 C1487.0781,505.5 1487.0625,505.375 1486.9688,505.2188 C1486.8125,504.9531 1486.5313,504.8125 1486.2344,504.8125 C1485.9375,504.8125 1485.7344,504.9063 1485.5156,505.2188 L1485.3438,505.1406 Z " fill="#000000"/><text fill="#000000" font-family="sans-serif" font-size="12" lengthAdjust="spacing" textLength="68" x="1504" y="506.6387">controllers.</text><text fill="#000000" font-family="sans-serif" font-size="12" lengthAdjust="spacing" textLength="82" x="1497" y="520.6074">PlayController</text><line style="stroke:#A80036;stroke-width:1.5;" x1="1469" x2="1581" y1="528.4375" y2="528.4375"/><line style="stroke:#A80036;stroke-width:1.5;" x1="1469" x2="1581" y1="536.4375" y2="536.4375"/><!--MD5=[1a47bbf44ccee225df9b18c5b6629853]
class ResumeController--><rect codeLine="6" fill="#FEFECE" filter="url(#fqv2rhvfg8rlj)" height="53.9375" id="ResumeController" style="stroke:#A80036;stroke-width:1.5;" width="139" x="1776.5" y="490.5"/><ellipse cx="1791.5" cy="509.4688" fill="#ADD1B2" rx="11" ry="11" style="stroke:#A80036;stroke-width:1.0;"/><path d="M1793.8438,505.1406 C1792.9063,504.7031 1792.3125,504.5625 1791.4375,504.5625 C1788.8125,504.5625 1786.8125,506.6406 1786.8125,509.3594 L1786.8125,510.4844 C1786.8125,513.0625 1788.9219,514.9531 1791.8125,514.9531 C1793.0313,514.9531 1794.1875,514.6563 1794.9375,514.1094 C1795.5156,513.7031 1795.8438,513.25 1795.8438,512.8594 C1795.8438,512.4063 1795.4531,512.0156 1794.9844,512.0156 C1794.7656,512.0156 1794.5625,512.0938 1794.375,512.2813 C1793.9219,512.7656 1793.9219,512.7656 1793.7344,512.8594 C1793.3125,513.125 1792.625,513.25 1791.8594,513.25 C1789.8125,513.25 1788.5156,512.1563 1788.5156,510.4531 L1788.5156,509.3594 C1788.5156,507.5781 1789.7656,506.2656 1791.5,506.2656 C1792.0781,506.2656 1792.6875,506.4219 1793.1563,506.6719 C1793.6406,506.9531 1793.8125,507.1719 1793.9063,507.5781 C1793.9688,507.9844 1794,508.1094 1794.1406,508.2344 C1794.2813,508.375 1794.5156,508.4844 1794.7344,508.4844 C1795,508.4844 1795.2656,508.3438 1795.4375,508.125 C1795.5469,507.9688 1795.5781,507.7813 1795.5781,507.3594 L1795.5781,505.9375 C1795.5781,505.5 1795.5625,505.375 1795.4688,505.2188 C1795.3125,504.9531 1795.0313,504.8125 1794.7344,504.8125 C1794.4375,504.8125 1794.2344,504.9063 1794.0156,505.2188 L1793.8438,505.1406 Z " fill="#000000"/><text fill="#000000" font-family="sans-serif" font-size="12" lengthAdjust="spacing" textLength="68" x="1825" y="506.6387">controllers.</text><text fill="#000000" font-family="sans-serif" font-size="12" lengthAdjust="spacing" textLength="107" x="1805.5" y="520.6074">ResumeController</text><line style="stroke:#A80036;stroke-width:1.5;" x1="1777.5" x2="1914.5" y1="528.4375" y2="528.4375"/><line style="stroke:#A80036;stroke-width:1.5;" x1="1777.5" x2="1914.5" y1="536.4375" y2="536.4375"/><!--MD5=[aab9612c5d46aa221e996c7d0ed5d7ab]
class UndoController--><rect codeLine="7" fill="#FEFECE" filter="url(#fqv2rhvfg8rlj)" height="53.9375" id="UndoController" style="stroke:#A80036;stroke-width:1.5;" width="123" x="1238.5" y="490.5"/><ellipse cx="1253.5" cy="509.4688" fill="#ADD1B2" rx="11" ry="11" style="stroke:#A80036;stroke-width:1.0;"/><path d="M1255.8438,505.1406 C1254.9063,504.7031 1254.3125,504.5625 1253.4375,504.5625 C1250.8125,504.5625 1248.8125,506.6406 1248.8125,509.3594 L1248.8125,510.4844 C1248.8125,513.0625 1250.9219,514.9531 1253.8125,514.9531 C1255.0313,514.9531 1256.1875,514.6563 1256.9375,514.1094 C1257.5156,513.7031 1257.8438,513.25 1257.8438,512.8594 C1257.8438,512.4063 1257.4531,512.0156 1256.9844,512.0156 C1256.7656,512.0156 1256.5625,512.0938 1256.375,512.2813 C1255.9219,512.7656 1255.9219,512.7656 1255.7344,512.8594 C1255.3125,513.125 1254.625,513.25 1253.8594,513.25 C1251.8125,513.25 1250.5156,512.1563 1250.5156,510.4531 L1250.5156,509.3594 C1250.5156,507.5781 1251.7656,506.2656 1253.5,506.2656 C1254.0781,506.2656 1254.6875,506.4219 1255.1563,506.6719 C1255.6406,506.9531 1255.8125,507.1719 1255.9063,507.5781 C1255.9688,507.9844 1256,508.1094 1256.1406,508.2344 C1256.2813,508.375 1256.5156,508.4844 1256.7344,508.4844 C1257,508.4844 1257.2656,508.3438 1257.4375,508.125 C1257.5469,507.9688 1257.5781,507.7813 1257.5781,507.3594 L1257.5781,505.9375 C1257.5781,505.5 1257.5625,505.375 1257.4688,505.2188 C1257.3125,504.9531 1257.0313,504.8125 1256.7344,504.8125 C1256.4375,504.8125 1256.2344,504.9063 1256.0156,505.2188 L1255.8438,505.1406 Z " fill="#000000"/><text fill="#000000" font-family="sans-serif" font-size="12" lengthAdjust="spacing" textLength="68" x="1279" y="506.6387">controllers.</text><text fill="#000000" font-family="sans-serif" font-size="12" lengthAdjust="spacing" textLength="91" x="1267.5" y="520.6074">UndoController</text><line style="stroke:#A80036;stroke-width:1.5;" x1="1239.5" x2="1360.5" y1="528.4375" y2="528.4375"/><line style="stroke:#A80036;stroke-width:1.5;" x1="1239.5" x2="1360.5" y1="536.4375" y2="536.4375"/><!--MD5=[09632e2f294dd01282ddf91519a686d7]
class RedoController--><rect codeLine="8" fill="#FEFECE" filter="url(#fqv2rhvfg8rlj)" height="53.9375" id="RedoController" style="stroke:#A80036;stroke-width:1.5;" width="122" x="7" y="490.5"/><ellipse cx="22" cy="509.4688" fill="#ADD1B2" rx="11" ry="11" style="stroke:#A80036;stroke-width:1.0;"/><path d="M24.3438,505.1406 C23.4063,504.7031 22.8125,504.5625 21.9375,504.5625 C19.3125,504.5625 17.3125,506.6406 17.3125,509.3594 L17.3125,510.4844 C17.3125,513.0625 19.4219,514.9531 22.3125,514.9531 C23.5313,514.9531 24.6875,514.6563 25.4375,514.1094 C26.0156,513.7031 26.3438,513.25 26.3438,512.8594 C26.3438,512.4063 25.9531,512.0156 25.4844,512.0156 C25.2656,512.0156 25.0625,512.0938 24.875,512.2813 C24.4219,512.7656 24.4219,512.7656 24.2344,512.8594 C23.8125,513.125 23.125,513.25 22.3594,513.25 C20.3125,513.25 19.0156,512.1563 19.0156,510.4531 L19.0156,509.3594 C19.0156,507.5781 20.2656,506.2656 22,506.2656 C22.5781,506.2656 23.1875,506.4219 23.6563,506.6719 C24.1406,506.9531 24.3125,507.1719 24.4063,507.5781 C24.4688,507.9844 24.5,508.1094 24.6406,508.2344 C24.7813,508.375 25.0156,508.4844 25.2344,508.4844 C25.5,508.4844 25.7656,508.3438 25.9375,508.125 C26.0469,507.9688 26.0781,507.7813 26.0781,507.3594 L26.0781,505.9375 C26.0781,505.5 26.0625,505.375 25.9688,505.2188 C25.8125,504.9531 25.5313,504.8125 25.2344,504.8125 C24.9375,504.8125 24.7344,504.9063 24.5156,505.2188 L24.3438,505.1406 Z " fill="#000000"/><text fill="#000000" font-family="sans-serif" font-size="12" lengthAdjust="spacing" textLength="68" x="47" y="506.6387">controllers.</text><text fill="#000000" font-family="sans-serif" font-size="12" lengthAdjust="spacing" textLength="90" x="36" y="520.6074">RedoController</text><line style="stroke:#A80036;stroke-width:1.5;" x1="8" x2="128" y1="528.4375" y2="528.4375"/><line style="stroke:#A80036;stroke-width:1.5;" x1="8" x2="128" y1="536.4375" y2="536.4375"/><!--MD5=[d3858c961aee0496f0645a7642abb006]
class OpenController--><rect codeLine="9" fill="#FEFECE" filter="url(#fqv2rhvfg8rlj)" height="53.9375" id="OpenController" style="stroke:#A80036;stroke-width:1.5;" width="124" x="1617" y="490.5"/><ellipse cx="1632" cy="509.4688" fill="#ADD1B2" rx="11" ry="11" style="stroke:#A80036;stroke-width:1.0;"/><path d="M1634.3438,505.1406 C1633.4063,504.7031 1632.8125,504.5625 1631.9375,504.5625 C1629.3125,504.5625 1627.3125,506.6406 1627.3125,509.3594 L1627.3125,510.4844 C1627.3125,513.0625 1629.4219,514.9531 1632.3125,514.9531 C1633.5313,514.9531 1634.6875,514.6563 1635.4375,514.1094 C1636.0156,513.7031 1636.3438,513.25 1636.3438,512.8594 C1636.3438,512.4063 1635.9531,512.0156 1635.4844,512.0156 C1635.2656,512.0156 1635.0625,512.0938 1634.875,512.2813 C1634.4219,512.7656 1634.4219,512.7656 1634.2344,512.8594 C1633.8125,513.125 1633.125,513.25 1632.3594,513.25 C1630.3125,513.25 1629.0156,512.1563 1629.0156,510.4531 L1629.0156,509.3594 C1629.0156,507.5781 1630.2656,506.2656 1632,506.2656 C1632.5781,506.2656 1633.1875,506.4219 1633.6563,506.6719 C1634.1406,506.9531 1634.3125,507.1719 1634.4063,507.5781 C1634.4688,507.9844 1634.5,508.1094 1634.6406,508.2344 C1634.7813,508.375 1635.0156,508.4844 1635.2344,508.4844 C1635.5,508.4844 1635.7656,508.3438 1635.9375,508.125 C1636.0469,507.9688 1636.0781,507.7813 1636.0781,507.3594 L1636.0781,505.9375 C1636.0781,505.5 1636.0625,505.375 1635.9688,505.2188 C1635.8125,504.9531 1635.5313,504.8125 1635.2344,504.8125 C1634.9375,504.8125 1634.7344,504.9063 1634.5156,505.2188 L1634.3438,505.1406 Z " fill="#000000"/><text fill="#000000" font-family="sans-serif" font-size="12" lengthAdjust="spacing" textLength="68" x="1658" y="506.6387">controllers.</text><text fill="#000000" font-family="sans-serif" font-size="12" lengthAdjust="spacing" textLength="92" x="1646" y="520.6074">OpenController</text><line style="stroke:#A80036;stroke-width:1.5;" x1="1618" x2="1740" y1="528.4375" y2="528.4375"/><line style="stroke:#A80036;stroke-width:1.5;" x1="1618" x2="1740" y1="536.4375" y2="536.4375"/><!--MD5=[f85404c7f6f4e11de0322e40335fa6aa]
class SaveController--><rect codeLine="10" fill="#FEFECE" filter="url(#fqv2rhvfg8rlj)" height="53.9375" id="SaveController" style="stroke:#A80036;stroke-width:1.5;" width="121" x="1383.5" y="273.5"/><ellipse cx="1398.5" cy="292.4688" fill="#ADD1B2" rx="11" ry="11" style="stroke:#A80036;stroke-width:1.0;"/><path d="M1400.8438,288.1406 C1399.9063,287.7031 1399.3125,287.5625 1398.4375,287.5625 C1395.8125,287.5625 1393.8125,289.6406 1393.8125,292.3594 L1393.8125,293.4844 C1393.8125,296.0625 1395.9219,297.9531 1398.8125,297.9531 C1400.0313,297.9531 1401.1875,297.6563 1401.9375,297.1094 C1402.5156,296.7031 1402.8438,296.25 1402.8438,295.8594 C1402.8438,295.4063 1402.4531,295.0156 1401.9844,295.0156 C1401.7656,295.0156 1401.5625,295.0938 1401.375,295.2813 C1400.9219,295.7656 1400.9219,295.7656 1400.7344,295.8594 C1400.3125,296.125 1399.625,296.25 1398.8594,296.25 C1396.8125,296.25 1395.5156,295.1563 1395.5156,293.4531 L1395.5156,292.3594 C1395.5156,290.5781 1396.7656,289.2656 1398.5,289.2656 C1399.0781,289.2656 1399.6875,289.4219 1400.1563,289.6719 C1400.6406,289.9531 1400.8125,290.1719 1400.9063,290.5781 C1400.9688,290.9844 1401,291.1094 1401.1406,291.2344 C1401.2813,291.375 1401.5156,291.4844 1401.7344,291.4844 C1402,291.4844 1402.2656,291.3438 1402.4375,291.125 C1402.5469,290.9688 1402.5781,290.7813 1402.5781,290.3594 L1402.5781,288.9375 C1402.5781,288.5 1402.5625,288.375 1402.4688,288.2188 C1402.3125,287.9531 1402.0313,287.8125 1401.7344,287.8125 C1401.4375,287.8125 1401.2344,287.9063 1401.0156,288.2188 L1400.8438,288.1406 Z " fill="#000000"/><text fill="#000000" font-family="sans-serif" font-size="12" lengthAdjust="spacing" textLength="68" x="1423" y="289.6387">controllers.</text><text fill="#000000" font-family="sans-serif" font-size="12" lengthAdjust="spacing" textLength="89" x="1412.5" y="303.6074">SaveController</text><line style="stroke:#A80036;stroke-width:1.5;" x1="1384.5" x2="1503.5" y1="311.4375" y2="311.4375"/><line style="stroke:#A80036;stroke-width:1.5;" x1="1384.5" x2="1503.5" y1="319.4375" y2="319.4375"/><!--MD5=[20f01773b9667c744e5118bba2278641]
class ExitController--><rect codeLine="11" fill="#FEFECE" filter="url(#fqv2rhvfg8rlj)" height="53.9375" id="ExitController" style="stroke:#A80036;stroke-width:1.5;" width="112" x="164" y="490.5"/><ellipse cx="179" cy="509.4688" fill="#ADD1B2" rx="11" ry="11" style="stroke:#A80036;stroke-width:1.0;"/><path d="M181.3438,505.1406 C180.4063,504.7031 179.8125,504.5625 178.9375,504.5625 C176.3125,504.5625 174.3125,506.6406 174.3125,509.3594 L174.3125,510.4844 C174.3125,513.0625 176.4219,514.9531 179.3125,514.9531 C180.5313,514.9531 181.6875,514.6563 182.4375,514.1094 C183.0156,513.7031 183.3438,513.25 183.3438,512.8594 C183.3438,512.4063 182.9531,512.0156 182.4844,512.0156 C182.2656,512.0156 182.0625,512.0938 181.875,512.2813 C181.4219,512.7656 181.4219,512.7656 181.2344,512.8594 C180.8125,513.125 180.125,513.25 179.3594,513.25 C177.3125,513.25 176.0156,512.1563 176.0156,510.4531 L176.0156,509.3594 C176.0156,507.5781 177.2656,506.2656 179,506.2656 C179.5781,506.2656 180.1875,506.4219 180.6563,506.6719 C181.1406,506.9531 181.3125,507.1719 181.4063,507.5781 C181.4688,507.9844 181.5,508.1094 181.6406,508.2344 C181.7813,508.375 182.0156,508.4844 182.2344,508.4844 C182.5,508.4844 182.7656,508.3438 182.9375,508.125 C183.0469,507.9688 183.0781,507.7813 183.0781,507.3594 L183.0781,505.9375 C183.0781,505.5 183.0625,505.375 182.9688,505.2188 C182.8125,504.9531 182.5313,504.8125 182.2344,504.8125 C181.9375,504.8125 181.7344,504.9063 181.5156,505.2188 L181.3438,505.1406 Z " fill="#000000"/><text fill="#000000" font-family="sans-serif" font-size="12" lengthAdjust="spacing" textLength="68" x="199" y="506.6387">controllers.</text><text fill="#000000" font-family="sans-serif" font-size="12" lengthAdjust="spacing" textLength="80" x="193" y="520.6074">ExitController</text><line style="stroke:#A80036;stroke-width:1.5;" x1="165" x2="275" y1="528.4375" y2="528.4375"/><line style="stroke:#A80036;stroke-width:1.5;" x1="165" x2="275" y1="536.4375" y2="536.4375"/><!--MD5=[67c5dbc5f258340ee2b7aaadfd6765aa]
link views.PlayerView to views.StartView--><path codeLine="80" d="M846.3293,98.4487 C846.3293,98.4487 824.915,125.517 814.82,138.278 " fill="none" id="views.PlayerView-views.StartView" style="stroke:#A80036;stroke-width:1.0;"/><polygon fill="#A80036" points="806.615,148.65,815.3359,144.0733,809.7171,144.7287,809.0618,139.1099,806.615,148.65" style="stroke:#A80036;stroke-width:1.0;"/><line style="stroke:#A80036;stroke-width:1.0;" x1="809.7171" x2="814.6805" y1="144.7287" y2="138.454"/><polygon fill="#A80036" points="853.775,89.038,846.9152,91.2614,846.3293,98.4487,853.189,96.2253,853.775,89.038" style="stroke:#A80036;stroke-width:1.0;"/><!--MD5=[9911ff4f94ad66318e9363318070f9b5]
link views.PlayerView to views.PlayView--><path codeLine="81" d="M812.0928,90.0691 C812.0928,90.0691 716.507,128.475 672.322,146.228 " fill="none" id="views.PlayerView-views.PlayView" style="stroke:#A80036;stroke-width:1.0;"/><polygon fill="#A80036" points="660.138,151.123,669.9804,151.4789,664.7775,149.2588,666.9976,144.0558,660.138,151.123" style="stroke:#A80036;stroke-width:1.0;"/><line style="stroke:#A80036;stroke-width:1.0;" x1="664.7775" x2="672.2005" y1="149.2588" y2="146.277"/><polygon fill="#A80036" points="823.228,85.596,816.1694,84.1208,812.0928,90.0691,819.1514,91.5442,823.228,85.596" style="stroke:#A80036;stroke-width:1.0;"/><!--MD5=[49dfe96bd1a760601edf5e80ab8667f3]
link views.PlayerView to views.SaveView--><path codeLine="82" d="M897.9265,98.4083 C897.9265,98.4083 919.614,125.517 929.822,138.278 " fill="none" id="views.PlayerView-views.SaveView" style="stroke:#A80036;stroke-width:1.0;"/><polygon fill="#A80036" points="938.12,148.65,935.6211,139.1234,934.9965,144.7457,929.3742,144.1211,938.12,148.65" style="stroke:#A80036;stroke-width:1.0;"/><line style="stroke:#A80036;stroke-width:1.0;" x1="934.9965" x2="929.999" y1="144.7457" y2="138.4985"/><polygon fill="#A80036" points="890.43,89.038,891.0548,96.222,897.9265,98.4083,897.3017,91.2243,890.43,89.038" style="stroke:#A80036;stroke-width:1.0;"/><!--MD5=[c6d9307e5a48d0ef6c3bbd85a6f2c2b4]
link views.SaveView to views.Message--><path codeLine="83" d="M952.2633,221.6421 C952.2633,221.6421 931.941,295.534 917,331 C910.297,346.912 902.595,363.216 894.486,379.235 " fill="none" id="views.SaveView-views.Message" style="stroke:#A80036;stroke-width:1.0;"/><polygon fill="#A80036" points="888.517,390.839,896.1905,384.6651,890.8039,386.3927,889.0764,381.006,888.517,390.839" style="stroke:#A80036;stroke-width:1.0;"/><line style="stroke:#A80036;stroke-width:1.0;" x1="890.8039" x2="894.463" y1="386.3927" y2="379.279"/><polygon fill="#A80036" points="955.192,210.005,949.8486,214.8473,952.2633,221.6421,957.6067,216.7998,955.192,210.005" style="stroke:#A80036;stroke-width:1.0;"/><!--MD5=[87fc87dca3582a8760b4008423916a2b]
link views.SaveView to SaveController--><path codeLine="84" d="M1047.2876,197.3078 C1047.2876,197.3078 1251.24,240.621 1356,270 C1360.7,271.318 1365.52,272.736 1370.36,274.213 " fill="none" id="views.SaveView-SaveController" style="stroke:#A80036;stroke-width:1.0;"/><polygon fill="#A80036" points="1383.18,278.232,1375.7873,271.7245,1378.4086,276.7373,1373.3958,279.3587,1383.18,278.232" style="stroke:#A80036;stroke-width:1.0;"/><line style="stroke:#A80036;stroke-width:1.0;" x1="1378.4086" x2="1370.77" y1="276.7373" y2="274.3425"/><polygon fill="#A80036" points="1035.53,194.908,1040.6089,200.0271,1047.2876,197.3078,1042.2087,192.1887,1035.53,194.908" style="stroke:#A80036;stroke-width:1.0;"/><!--MD5=[ebea6b3e947d8b3c55735d694b4eb772]
link views.PlayerView to views.ResumeView--><path codeLine="85" d="M932.3823,79.104 C932.3823,79.104 1022.96,112.445 1053,149 C1077.85,179.241 1086.07,223.804 1088.55,256.594 " fill="none" id="views.PlayerView-views.ResumeView" style="stroke:#A80036;stroke-width:1.0;"/><polygon fill="#A80036" points="1089.29,269.85,1092.7816,260.6408,1089.011,264.8578,1084.794,261.0872,1089.29,269.85" style="stroke:#A80036;stroke-width:1.0;"/><line style="stroke:#A80036;stroke-width:1.0;" x1="1089.011" x2="1088.565" y1="264.8578" y2="256.87"/><polygon fill="#A80036" points="920.828,75.864,925.5252,81.3354,932.3823,79.104,927.6852,73.6326,920.828,75.864" style="stroke:#A80036;stroke-width:1.0;"/><!--MD5=[8507262084d539f4882e2752de5479e8]
link views.StartView to views.Message--><path codeLine="86" d="M754.602,210.154 C740.987,226.442 726.118,247.809 719,270 C710.719,295.816 712.644,304.645 719,331 C723.42,349.326 729.975,367.876 737.615,385.801 " fill="none" id="views.StartView-to-views.Message" style="stroke:#A80036;stroke-width:1.0;stroke-dasharray:7.0,7.0;"/><polygon fill="#A80036" points="739.797,390.839,739.8899,380.9906,737.8095,386.251,732.5491,384.1706,739.797,390.839" style="stroke:#A80036;stroke-width:1.0;"/><!--MD5=[1b8a73df775c8bac903591bf669c8c66]
link views.StartView to views.BoardView--><path codeLine="87" d="M735.295,210.222 C707.501,227.538 672.43,249.389 643.941,267.139 " fill="none" id="views.StartView-to-views.BoardView" style="stroke:#A80036;stroke-width:1.0;stroke-dasharray:7.0,7.0;"/><polygon fill="#A80036" points="639.427,269.951,649.1811,268.5878,643.671,267.3074,644.9513,261.7974,639.427,269.951" style="stroke:#A80036;stroke-width:1.0;"/><!--MD5=[f8711620e46a9bb12c4eb5ecbbdd55f6]
link views.StartView to views.OpenView--><path codeLine="88" d="M791.742,210.222 C796.586,226.692 802.637,247.264 807.708,264.508 " fill="none" id="views.StartView-to-views.OpenView" style="stroke:#A80036;stroke-width:1.0;stroke-dasharray:7.0,7.0;"/><polygon fill="#A80036" points="809.248,269.745,810.5442,259.9818,807.8363,264.9484,802.8697,262.2405,809.248,269.745" style="stroke:#A80036;stroke-width:1.0;"/><!--MD5=[648413e1af523d88cea85261d7692fb9]
link views.OpenView to OpenController--><path codeLine="89" d="M899.566,320.733 C917.737,324.55 936.964,328.229 955,331 C1097.28,352.857 1477.34,315.652 1600,391 C1634.94,412.465 1656.99,455.805 1668.65,485.488 " fill="none" id="views.OpenView-to-OpenController" style="stroke:#A80036;stroke-width:1.0;stroke-dasharray:7.0,7.0;"/><polygon fill="#A80036" points="1670.58,490.496,1671.0922,480.6605,1668.7897,485.8275,1663.6227,483.525,1670.58,490.496" style="stroke:#A80036;stroke-width:1.0;"/><!--MD5=[b44b9a3b0941b0b317b70a2927659d27]
link views.OpenView to views.Message--><path codeLine="90" d="M817.444,331.395 C817.167,346.286 816.811,365.432 816.433,385.742 " fill="none" id="views.OpenView-to-views.Message" style="stroke:#A80036;stroke-width:1.0;stroke-dasharray:7.0,7.0;"/><polygon fill="#A80036" points="816.336,390.928,820.505,382.005,816.4303,385.9289,812.5064,381.8542,816.336,390.928" style="stroke:#A80036;stroke-width:1.0;"/><!--MD5=[93bed1ef04018f79b273cd77ea9f0db2]
link views.StartView to StartController--><path codeLine="91" d="M853.763,205.448 C859.559,207.116 865.356,208.661 871,210 C1054.05,253.408 1117.42,195.136 1290,270 C1329.73,287.236 1325.95,314.498 1366,331 C1600.29,427.55 1718.7,255.76 1933,391 C1967.33,412.666 1988.7,455.749 1999.98,485.338 " fill="none" id="views.StartView-to-StartController" style="stroke:#A80036;stroke-width:1.0;"/><polygon fill="#A80036" points="2001.83,490.331,2002.4441,480.5013,2000.0882,485.6442,1994.9453,483.2882,2001.83,490.331" style="stroke:#A80036;stroke-width:1.0;"/><!--MD5=[ebadaef8e2bbd4ba1e726984e015cfbe]
link views.BoardView to views.ColorView--><path codeLine="92" d="M573.744,331.182 C563.159,348.534 549.659,370.909 538,391 C520.199,421.673 500.584,456.979 486.657,482.314 " fill="none" id="views.BoardView-to-views.ColorView" style="stroke:#A80036;stroke-width:1.0;stroke-dasharray:7.0,7.0;"/><polygon fill="#A80036" points="484.125,486.925,491.9636,480.962,486.532,482.5425,484.9515,477.1109,484.125,486.925" style="stroke:#A80036;stroke-width:1.0;"/><!--MD5=[095a9e8630f04b2395f4481b19b8906e]
link views.BoardView to views.Message--><path codeLine="93" d="M628.858,331.16 C649.413,348.132 675.19,370.139 697,391 C702.705,396.456 708.482,402.128 714.256,407.911 " fill="none" id="views.BoardView-to-views.Message" style="stroke:#A80036;stroke-width:1.0;stroke-dasharray:7.0,7.0;"/><polygon fill="#A80036" points="717.849,411.526,714.3395,402.3236,714.3235,407.9805,708.6666,407.9645,717.849,411.526" style="stroke:#A80036;stroke-width:1.0;"/><!--MD5=[f9d7272086e8e62f4b793c0eb33c0b4b]
link views.PlayView to views.Message--><path codeLine="94" d="M552.991,210.138 C516.794,241.291 472.609,291.206 502,331 C555.871,403.939 620.148,342.875 697,391 C702.633,394.527 708.173,398.393 713.593,402.512 " fill="none" id="views.PlayView-to-views.Message" style="stroke:#A80036;stroke-width:1.0;stroke-dasharray:7.0,7.0;"/><polygon fill="#A80036" points="717.714,405.709,713.0567,397.0309,713.7641,402.6434,708.1516,403.3508,717.714,405.709" style="stroke:#A80036;stroke-width:1.0;"/><!--MD5=[a9b9099bd570987dc5af9f0e9221dc51]
link views.PlayView to views.BoardView--><path codeLine="95" d="M592,210.222 C592,226.692 592,247.264 592,264.508 " fill="none" id="views.PlayView-to-views.BoardView" style="stroke:#A80036;stroke-width:1.0;stroke-dasharray:7.0,7.0;"/><polygon fill="#A80036" points="592,269.745,596,260.745,592,264.745,588,260.745,592,269.745" style="stroke:#A80036;stroke-width:1.0;"/><!--MD5=[c5811be28ca2b32efdddcb59764d8c2d]
link views.PlayView to views.MenuView--><path codeLine="96" d="M538.826,210.069 C507.56,227.455 468.004,249.451 435.945,267.278 " fill="none" id="views.PlayView-to-views.MenuView" style="stroke:#A80036;stroke-width:1.0;stroke-dasharray:7.0,7.0;"/><polygon fill="#A80036" points="431.271,269.877,441.0806,268.999,435.6408,267.4471,437.1928,262.0073,431.271,269.877" style="stroke:#A80036;stroke-width:1.0;"/><!--MD5=[e7feb43a398a066f104696f593d6a99e]
link views.MenuView to views.MovementView--><path codeLine="97" d="M442.971,331.025 C472.213,346.287 505.937,366.805 532,391 C560.547,417.5 584.742,455.115 600.127,482.245 " fill="none" id="views.MenuView-to-views.MovementView" style="stroke:#A80036;stroke-width:1.0;stroke-dasharray:7.0,7.0;"/><polygon fill="#A80036" points="602.708,486.844,601.7911,477.0379,600.2608,482.4838,594.8148,480.9535,602.708,486.844" style="stroke:#A80036;stroke-width:1.0;"/><!--MD5=[8482c26b4e62fd447d7e9d7cf97696de]
link views.MenuView to PlayController--><path codeLine="98" d="M448.097,320.307 C465.592,324.411 484.389,328.322 502,331 C695.124,360.373 1198.26,316.882 1379,391 C1429.02,411.512 1474.11,456.2 1500.54,486.328 " fill="none" id="views.MenuView-to-PlayController" style="stroke:#A80036;stroke-width:1.0;stroke-dasharray:7.0,7.0;"/><polygon fill="#A80036" points="1503.98,490.294,1501.1118,480.872,1500.7067,486.5144,1495.0644,486.1093,1503.98,490.294" style="stroke:#A80036;stroke-width:1.0;"/><!--MD5=[0361bb4af5ef2d8014cddfbbe1dff23b]
link views.MenuView to UndoController--><path codeLine="99" d="M448.126,320.123 C465.62,324.232 484.409,328.191 502,331 C660.546,356.318 1085.03,307.227 1222,391 C1256.86,412.321 1278.54,455.696 1289.94,485.427 " fill="none" id="views.MenuView-to-UndoController" style="stroke:#A80036;stroke-width:1.0;stroke-dasharray:7.0,7.0;"/><polygon fill="#A80036" points="1291.82,490.443,1292.4131,480.612,1290.0681,485.7599,1284.9202,483.415,1291.82,490.443" style="stroke:#A80036;stroke-width:1.0;"/><!--MD5=[8955925879246cf845d3c7ebfaf3bdb2]
link views.MenuView to RedoController--><path codeLine="100" d="M307.998,315.958 C258.508,328.977 192.891,352.185 146,391 C115.177,416.515 92.958,457.527 80.301,485.68 " fill="none" id="views.MenuView-to-RedoController" style="stroke:#A80036;stroke-width:1.0;stroke-dasharray:7.0,7.0;"/><polygon fill="#A80036" points="78.2005,490.432,85.4976,483.8175,80.2219,485.8588,78.1806,480.5832,78.2005,490.432" style="stroke:#A80036;stroke-width:1.0;"/><!--MD5=[5b52cf1906fbf89c6a02722cd8b7c5b7]
link views.MenuView to ExitController--><path codeLine="101" d="M345.767,331.293 C328.703,347.951 308.025,369.618 292,391 C269.309,421.276 248.394,459.372 235.021,485.603 " fill="none" id="views.MenuView-to-ExitController" style="stroke:#A80036;stroke-width:1.0;stroke-dasharray:7.0,7.0;"/><polygon fill="#A80036" points="232.613,490.359,240.2467,484.136,234.8713,485.8981,233.1092,480.5227,232.613,490.359" style="stroke:#A80036;stroke-width:1.0;"/><!--MD5=[bc8a2baa650750752d6e88c509172a1c]
link views.MovementView to views.ErrorView--><path codeLine="102" d="M618,548.395 C618,587.786 618,656.946 618,698.662 " fill="none" id="views.MovementView-to-views.ErrorView" style="stroke:#A80036;stroke-width:1.0;stroke-dasharray:7.0,7.0;"/><polygon fill="#A80036" points="618,703.859,622,694.859,618,698.859,614,694.859,618,703.859" style="stroke:#A80036;stroke-width:1.0;"/><!--MD5=[43dd04138dcca8bbc729df36fdc1a987]
link views.ResumeView to views.Message--><path codeLine="103" d="M1051.05,331.169 C1015.8,358.732 961.721,401.009 914.116,438.228 " fill="none" id="views.ResumeView-to-views.Message" style="stroke:#A80036;stroke-width:1.0;stroke-dasharray:7.0,7.0;"/><polygon fill="#A80036" points="910.117,441.354,919.6707,438.9608,914.0557,438.2739,914.7425,432.6589,910.117,441.354" style="stroke:#A80036;stroke-width:1.0;"/><!--MD5=[8d2fcd9f8b54ab010933e46bca6b06e9]
link views.ResumeView to ResumeController--><path codeLine="104" d="M1205.59,317.611 C1237.49,321.988 1272.07,326.705 1304,331 C1506.15,358.197 1584.88,284.756 1759,391 C1795.09,413.021 1819.98,456.306 1833.61,485.818 " fill="none" id="views.ResumeView-to-ResumeController" style="stroke:#A80036;stroke-width:1.0;"/><polygon fill="#A80036" points="1835.7,490.431,1835.6158,480.5825,1833.6303,485.8795,1828.3334,483.894,1835.7,490.431" style="stroke:#A80036;stroke-width:1.0;"/><!--MD5=[27a8688df1a7e86c1bc534b33dd7c1a1]
link views.BoardView to Coordinate--><path codeLine="105" d="M664.193,320.081 C682.014,324.166 701.121,328.125 719,331 C791.702,342.691 1329.34,336.626 1379,391 C1454.83,474.032 1441.28,550.378 1379,644 C1278.84,794.5628 1045.79,835.8285 939.542,846.9673 " fill="none" id="views.BoardView-to-Coordinate" style="stroke:#A80036;stroke-width:1.0;stroke-dasharray:7.0,7.0;"/><polygon fill="#A80036" points="934.271,847.506,943.6312,850.5698,939.2451,846.9974,942.8175,842.6113,934.271,847.506" style="stroke:#A80036;stroke-width:1.0;"/><!--MD5=[b764f77f6244594f93a2b8a31497368e]
link views.MovementView to Coordinate--><path codeLine="106" d="M630.877,548.121 C644.431,576.216 668.217,617.906 700,644 C755.176,689.301 802.246,650.051 849,704 C877.095,736.418 883.997,787.2762 885.31,819.8684 " fill="none" id="views.MovementView-to-Coordinate" style="stroke:#A80036;stroke-width:1.0;stroke-dasharray:7.0,7.0;"/><polygon fill="#A80036" points="885.476,824.9368,889.1805,815.8112,885.313,819.9395,881.1847,816.072,885.476,824.9368" style="stroke:#A80036;stroke-width:1.0;"/><!--MD5=[58ce7257e9fedcdfac65620a403e3cb0]
link views.BoardView to StartController--><path codeLine="107" d="M664.114,320.605 C681.938,324.674 701.066,328.494 719,331 C852.755,349.687 1816.81,322.152 1933,391 C1968.13,411.818 1989.4,455.528 2000.43,485.451 " fill="none" id="views.BoardView-to-StartController" style="stroke:#A80036;stroke-width:1.0;stroke-dasharray:7.0,7.0;"/><polygon fill="#A80036" points="2002.24,490.499,2002.9588,480.6764,2000.5482,485.7939,1995.4307,483.3833,2002.24,490.499" style="stroke:#A80036;stroke-width:1.0;"/><!--MD5=[a52d604b77424a58e07034fe9d0c7f45]
link views.BoardView to Color--><path codeLine="108" d="M519.866,322.17 C481.379,336.284 435.58,358.43 404,391 C318.524,479.156 348.598,534.518 293,644 C282.885,663.918 270.332,685.596 260.094,702.629 " fill="none" id="views.BoardView-to-Color" style="stroke:#A80036;stroke-width:1.0;stroke-dasharray:7.0,7.0;"/><polygon fill="#A80036" points="257.271,707.304,265.3472,701.6671,259.8554,703.0237,258.4988,697.532,257.271,707.304" style="stroke:#A80036;stroke-width:1.0;"/><!--MD5=[339a50df6252398807c660c3d38a675e]
link views.MovementView to Error--><path codeLine="109" d="M603.649,548.142 C587.135,584.045 561.008,646.831 551,704 C544.486,741.212 546.242,751.523 551,789 C552.288,799.1423 554.715,809.9992 557.297,819.7483 " fill="none" id="views.MovementView-to-Error" style="stroke:#A80036;stroke-width:1.0;stroke-dasharray:7.0,7.0;"/><polygon fill="#A80036" points="558.656,824.7358,560.1489,815.0007,557.3413,819.9117,552.4304,817.1042,558.656,824.7358" style="stroke:#A80036;stroke-width:1.0;"/><!--MD5=[4874983008fa1a0e6fd69efc7cf96bbe]
link views.ErrorView to Error--><path codeLine="110" d="M604.866,765.244 C597.421,782.1065 588.119,803.1721 580.598,820.2047 " fill="none" id="views.ErrorView-to-Error" style="stroke:#A80036;stroke-width:1.0;stroke-dasharray:7.0,7.0;"/><polygon fill="#A80036" points="578.527,824.895,585.8222,818.2783,580.5471,820.3213,578.5042,815.0462,578.527,824.895" style="stroke:#A80036;stroke-width:1.0;"/><!--MD5=[13fa1849fb47ff0ddb9bf29562c915bb]
link views.PlayView to PlayController--><path codeLine="111" d="M660.036,201.702 C671.623,204.818 683.597,207.735 695,210 C926.653,256.005 1003.611,182.548 1223,270 C1264.86,286.687 1265.1,308.251 1304,331 C1361.38,364.554 1390.03,348.336 1441,391 C1472.26,417.167 1496.54,457.852 1510.78,485.761 " fill="none" id="views.PlayView-to-PlayController" style="stroke:#A80036;stroke-width:1.0;"/><polygon fill="#A80036" points="1513.15,490.472,1512.6827,480.6342,1510.9048,486.0044,1505.5346,484.2266,1513.15,490.472" style="stroke:#A80036;stroke-width:1.0;"/><!--MD5=[dd562b49b70ad482277daba60c47d936]
link views.ColorView to Color--><path codeLine="112" d="M452.03,548.115 C436.411,575.239 410.69,615.399 381,644 C364.696,659.706 315.759,689.796 280.333,710.728 " fill="none" id="views.ColorView-to-Color" style="stroke:#A80036;stroke-width:1.0;stroke-dasharray:7.0,7.0;"/><polygon fill="#A80036" points="275.647,713.49,285.4315,712.3662,279.9545,710.9512,281.3695,705.4742,275.647,713.49" style="stroke:#A80036;stroke-width:1.0;"/><!--MD5=[ab0ec5f63c56da24f261b966745afc63]
link views.CoordinateView to Coordinate--><path codeLine="113" d="M797.388,765.244 C814.91,782.3947 836.874,803.8935 854.427,821.0746 " fill="none" id="views.CoordinateView-to-Coordinate" style="stroke:#A80036;stroke-width:1.0;stroke-dasharray:7.0,7.0;"/><polygon fill="#A80036" points="858.33,824.895,854.6959,815.7411,854.7567,821.3977,849.1001,821.4585,858.33,824.895" style="stroke:#A80036;stroke-width:1.0;"/><!--MD5=[520b71290d2efd547a67b9a059ddf5cb]
link views.MovementView to views.CoordinateView--><path codeLine="114" d="M636.533,548.015 C652.822,573.674 677.39,611.696 700,644 C713.031,662.617 728.156,682.925 740.735,699.484 " fill="none" id="views.MovementView-to-views.CoordinateView" style="stroke:#A80036;stroke-width:1.0;stroke-dasharray:7.0,7.0;"/><polygon fill="#A80036" points="743.875,703.609,741.6065,694.025,740.8465,699.6305,735.2409,698.8705,743.875,703.609" style="stroke:#A80036;stroke-width:1.0;"/><!--MD5=[1218f44ef87a0e0d1f926cc2d0e4d0e6]
@startuml
class Coordinate as "types.\nCoordinate"
enum Error as "types.\nError"
enum Color as "types.\nColor"
class StartController as "controllers.\nStartController"
class PlayController as "controllers.\nPlayController"
class ResumeController as "controllers.\nResumeController"
class UndoController as "controllers.\nUndoController"
class RedoController as "controllers.\nRedoController"
class OpenController as "controllers.\nOpenController"
class SaveController as "controllers.\nSaveController"
class ExitController as "controllers.\nExitController"

class  views.BoardView{
    ~ write(StartController)
}

class  views.ErrorView{
    ~ writeln(Error)
}

class  views.PlayView{
    ~ play(PlayController)
}

class  views.ResumeView{
    ~ resume(ResumeController): boolean
}

class views.StartView{
    ~ start(StartController)
}

class  views.MovementView{
    ~ interact()
}

class  views.ColorView{
    ~ write(Color)
}

class  views.SaveView{
    ~ save(SaveController)
}

class  views.OpenView{
    ~ interact(OpenController)
}

enum  views.Message{
    +TITLE
    +HORIZONTAL_LINE
    +VERTICAL_LINE
    +ACTION_COMMAND
    +UNDO_COMMAND
    +REDO_COMMAND
    +ENTER_COORDINATE_TO_PUT
    +COORDINATE_TO_PUT
    +COORDINATE_TO_REMOVE
    +COORDINATE_TO_MOVE
    +PLAYER_WIN
    +RESUME
    +OPEN
    +SAVE
    ~ writeln()
    ~ write()
}

class  views.PlayerView{

}

class  views.MenuView{
    ~ write(PlayController)
}

class  views.CoordinateView{
    ~ read(): Coordinate
}

views.PlayerView *-down-> views.StartView
views.PlayerView *-down-> views.PlayView
views.PlayerView *-down-> views.SaveView
views.SaveView *-down-> views.Message
views.SaveView *-down-> SaveController
views.PlayerView *-down-> views.ResumeView
views.StartView ..> views.Message
views.StartView ..> views.BoardView
views.StartView ..> views.OpenView
views.OpenView ..> OpenController
views.OpenView ..> views.Message
views.StartView -down-> StartController
views.BoardView ..> views.ColorView
views.BoardView ..> views.Message
views.PlayView ..> views.Message
views.PlayView ..> views.BoardView
views.PlayView ..> views.MenuView
views.MenuView ..> views.MovementView
views.MenuView .down.> PlayController
views.MenuView .down.> UndoController
views.MenuView .down.> RedoController
views.MenuView .down.> ExitController
views.MovementView ..> views.ErrorView
views.ResumeView ..> views.Message
views.ResumeView -down-> ResumeController
views.BoardView .down.> Coordinate
views.MovementView .down.> Coordinate
views.BoardView .down.> StartController
views.BoardView .down.> Color
views.MovementView .down.> Error
views.ErrorView .down.> Error
views.PlayView -down-> PlayController
views.ColorView .down.> Color
views.CoordinateView .down.> Coordinate
views.MovementView ..> views.CoordinateView
@enduml

PlantUML version 1.2021.4beta3(Unknown compile time)
(GPL source distribution)
Java Runtime: Java(TM) SE Runtime Environment
JVM: Java HotSpot(TM) 64-Bit Server VM
Default Encoding: UTF-8
Language: en
Country: US
--></g></svg>