<?xml version="1.0" encoding="UTF-8" standalone="no"?><svg xmlns="http://www.w3.org/2000/svg" xmlns:xlink="http://www.w3.org/1999/xlink" contentScriptType="application/ecmascript" contentStyleType="text/css" height="729px" preserveAspectRatio="none" style="width:2523px;height:729px;" version="1.1" viewBox="0 0 2523 729" width="2523px" zoomAndPan="magnify"><defs><filter height="300%" id="f14e0rvrmasuh9" width="300%" x="-1" y="-1"><feGaussianBlur result="blurOut" stdDeviation="2.0"/><feColorMatrix in="blurOut" result="blurOut2" type="matrix" values="0 0 0 0 0 0 0 0 0 0 0 0 0 0 0 0 0 0 .4 0"/><feOffset dx="4.0" dy="4.0" in="blurOut2" result="blurOut3"/><feBlend in="SourceGraphic" in2="blurOut3" mode="normal"/></filter></defs><g><!--MD5=[f4e70ef68289585296b9045165e58692]
cluster controllers--><polygon fill="#FFFFFF" filter="url(#f14e0rvrmasuh9)" points="724,121,819,121,826,143.2969,2001,143.2969,2001,351,724,351,724,121" style="stroke:#000000;stroke-width:1.5;"/><line style="stroke:#000000;stroke-width:1.5;" x1="724" x2="826" y1="143.2969" y2="143.2969"/><text fill="#000000" font-family="sans-serif" font-size="14" font-weight="bold" lengthAdjust="spacing" textLength="89" x="728" y="135.9951">controllers</text><!--MD5=[a60570e4b426f702ccbb0d459e3b9417]
cluster models--><polygon fill="#FFFFFF" filter="url(#f14e0rvrmasuh9)" points="2041,236,2105,236,2112,258.2969,2202,258.2969,2202,722,2041,722,2041,236" style="stroke:#000000;stroke-width:1.5;"/><line style="stroke:#000000;stroke-width:1.5;" x1="2041" x2="2112" y1="258.2969" y2="258.2969"/><text fill="#000000" font-family="sans-serif" font-size="14" font-weight="bold" lengthAdjust="spacing" textLength="58" x="2045" y="250.9951">models</text><!--MD5=[67cd15ce44b6dd54f77054b62c31bf42]
cluster types--><polygon fill="#FFFFFF" filter="url(#f14e0rvrmasuh9)" points="2242,391,2293,391,2300,413.2969,2506,413.2969,2506,614,2242,614,2242,391" style="stroke:#000000;stroke-width:1.5;"/><line style="stroke:#000000;stroke-width:1.5;" x1="2242" x2="2300" y1="413.2969" y2="413.2969"/><text fill="#000000" font-family="sans-serif" font-size="14" font-weight="bold" lengthAdjust="spacing" textLength="45" x="2246" y="405.9951">types</text><!--MD5=[e2a75efa8a0f57c2afae8bf75386f79c]
cluster views--><polygon fill="#FFFFFF" filter="url(#f14e0rvrmasuh9)" points="16,6,67,6,74,28.2969,684,28.2969,684,614,16,614,16,6" style="stroke:#000000;stroke-width:1.5;"/><line style="stroke:#000000;stroke-width:1.5;" x1="16" x2="74" y1="28.2969" y2="28.2969"/><text fill="#000000" font-family="sans-serif" font-size="14" font-weight="bold" lengthAdjust="spacing" textLength="45" x="20" y="20.9951">views</text><!--MD5=[d538e9e3e9ace5a9c5dcbfba7654f5f1]
class controllers.Controller--><rect codeLine="43" fill="#FEFECE" filter="url(#f14e0rvrmasuh9)" height="48" id="controllers.Controller" style="stroke:#A80036;stroke-width:1.5;" width="90" x="1306" y="164"/><ellipse cx="1321" cy="180" fill="#A9DCDF" rx="11" ry="11" style="stroke:#A80036;stroke-width:1.0;"/><path d="M1323.0781,181.8125 L1323.4688,182.7969 L1323.0781,182.7969 C1322.625,182.7969 1322.5156,182.8125 1322.3594,182.9219 C1322.1094,183.0781 1321.9531,183.3594 1321.9531,183.6563 C1321.9531,183.9219 1322.0938,184.1719 1322.3125,184.3281 C1322.4531,184.4531 1322.6563,184.5 1323.0781,184.5 L1325.4375,184.5 C1325.7969,184.5 1326.0156,184.4688 1326.1563,184.375 C1326.4063,184.2344 1326.5625,183.9375 1326.5625,183.6563 C1326.5625,183.375 1326.4219,183.125 1326.2031,182.9688 C1326.0313,182.8281 1325.875,182.7969 1325.4063,182.7969 L1322.0156,174.5938 L1318.3438,174.5938 C1317.8906,174.5938 1317.7656,174.6094 1317.6094,174.7031 C1317.3594,174.875 1317.2031,175.1563 1317.2031,175.4375 C1317.2031,175.7188 1317.3438,175.9688 1317.5625,176.1406 C1317.7344,176.25 1317.9063,176.2813 1318.3438,176.2813 L1319.4219,176.2813 L1316.7813,182.7969 C1316.3594,182.7969 1316.2031,182.8125 1316.0469,182.9219 C1315.7969,183.0781 1315.6406,183.3594 1315.6406,183.6563 C1315.6406,184.2188 1316.0156,184.5 1316.7656,184.5 L1319.0313,184.5 C1319.3906,184.5 1319.6094,184.4688 1319.7344,184.375 C1320,184.2344 1320.1406,183.9375 1320.1406,183.6563 C1320.1406,183.375 1320.0156,183.125 1319.7969,182.9531 C1319.625,182.8281 1319.4844,182.7969 1319.0313,182.7969 L1318.6406,182.7969 L1319.0313,181.8125 L1323.0781,181.8125 Z M1322.375,180.1094 L1319.7031,180.1094 L1321.0469,176.8438 L1322.375,180.1094 Z " fill="#000000"/><text fill="#000000" font-family="sans-serif" font-size="12" font-style="italic" lengthAdjust="spacing" textLength="58" x="1335" y="184.1543">Controller</text><line style="stroke:#A80036;stroke-width:1.5;" x1="1307" x2="1395" y1="196" y2="196"/><line style="stroke:#A80036;stroke-width:1.5;" x1="1307" x2="1395" y1="204" y2="204"/><!--MD5=[aea2e2342048d554ddfb2813c9d667df]
class controllers.PlayController--><rect codeLine="47" fill="#FEFECE" filter="url(#f14e0rvrmasuh9)" height="48" id="controllers.PlayController" style="stroke:#A80036;stroke-width:1.5;" width="114" x="1368" y="279"/><ellipse cx="1383" cy="295" fill="#ADD1B2" rx="11" ry="11" style="stroke:#A80036;stroke-width:1.0;"/><path d="M1385.3438,290.6719 C1384.4063,290.2344 1383.8125,290.0938 1382.9375,290.0938 C1380.3125,290.0938 1378.3125,292.1719 1378.3125,294.8906 L1378.3125,296.0156 C1378.3125,298.5938 1380.4219,300.4844 1383.3125,300.4844 C1384.5313,300.4844 1385.6875,300.1875 1386.4375,299.6406 C1387.0156,299.2344 1387.3438,298.7813 1387.3438,298.3906 C1387.3438,297.9375 1386.9531,297.5469 1386.4844,297.5469 C1386.2656,297.5469 1386.0625,297.625 1385.875,297.8125 C1385.4219,298.2969 1385.4219,298.2969 1385.2344,298.3906 C1384.8125,298.6563 1384.125,298.7813 1383.3594,298.7813 C1381.3125,298.7813 1380.0156,297.6875 1380.0156,295.9844 L1380.0156,294.8906 C1380.0156,293.1094 1381.2656,291.7969 1383,291.7969 C1383.5781,291.7969 1384.1875,291.9531 1384.6563,292.2031 C1385.1406,292.4844 1385.3125,292.7031 1385.4063,293.1094 C1385.4688,293.5156 1385.5,293.6406 1385.6406,293.7656 C1385.7813,293.9063 1386.0156,294.0156 1386.2344,294.0156 C1386.5,294.0156 1386.7656,293.875 1386.9375,293.6563 C1387.0469,293.5 1387.0781,293.3125 1387.0781,292.8906 L1387.0781,291.4688 C1387.0781,291.0313 1387.0625,290.9063 1386.9688,290.75 C1386.8125,290.4844 1386.5313,290.3438 1386.2344,290.3438 C1385.9375,290.3438 1385.7344,290.4375 1385.5156,290.75 L1385.3438,290.6719 Z " fill="#000000"/><text fill="#000000" font-family="sans-serif" font-size="12" lengthAdjust="spacing" textLength="82" x="1397" y="299.1543">PlayController</text><line style="stroke:#A80036;stroke-width:1.5;" x1="1369" x2="1481" y1="311" y2="311"/><line style="stroke:#A80036;stroke-width:1.5;" x1="1369" x2="1481" y1="319" y2="319"/><!--MD5=[12e816d8ac45337d932400bf96e6eca7]
class controllers.ResumeController--><rect codeLine="51" fill="#FEFECE" filter="url(#f14e0rvrmasuh9)" height="48" id="controllers.ResumeController" style="stroke:#A80036;stroke-width:1.5;" width="139" x="1517.5" y="279"/><ellipse cx="1532.5" cy="295" fill="#ADD1B2" rx="11" ry="11" style="stroke:#A80036;stroke-width:1.0;"/><path d="M1534.8438,290.6719 C1533.9063,290.2344 1533.3125,290.0938 1532.4375,290.0938 C1529.8125,290.0938 1527.8125,292.1719 1527.8125,294.8906 L1527.8125,296.0156 C1527.8125,298.5938 1529.9219,300.4844 1532.8125,300.4844 C1534.0313,300.4844 1535.1875,300.1875 1535.9375,299.6406 C1536.5156,299.2344 1536.8438,298.7813 1536.8438,298.3906 C1536.8438,297.9375 1536.4531,297.5469 1535.9844,297.5469 C1535.7656,297.5469 1535.5625,297.625 1535.375,297.8125 C1534.9219,298.2969 1534.9219,298.2969 1534.7344,298.3906 C1534.3125,298.6563 1533.625,298.7813 1532.8594,298.7813 C1530.8125,298.7813 1529.5156,297.6875 1529.5156,295.9844 L1529.5156,294.8906 C1529.5156,293.1094 1530.7656,291.7969 1532.5,291.7969 C1533.0781,291.7969 1533.6875,291.9531 1534.1563,292.2031 C1534.6406,292.4844 1534.8125,292.7031 1534.9063,293.1094 C1534.9688,293.5156 1535,293.6406 1535.1406,293.7656 C1535.2813,293.9063 1535.5156,294.0156 1535.7344,294.0156 C1536,294.0156 1536.2656,293.875 1536.4375,293.6563 C1536.5469,293.5 1536.5781,293.3125 1536.5781,292.8906 L1536.5781,291.4688 C1536.5781,291.0313 1536.5625,290.9063 1536.4688,290.75 C1536.3125,290.4844 1536.0313,290.3438 1535.7344,290.3438 C1535.4375,290.3438 1535.2344,290.4375 1535.0156,290.75 L1534.8438,290.6719 Z " fill="#000000"/><text fill="#000000" font-family="sans-serif" font-size="12" lengthAdjust="spacing" textLength="107" x="1546.5" y="299.1543">ResumeController</text><line style="stroke:#A80036;stroke-width:1.5;" x1="1518.5" x2="1655.5" y1="311" y2="311"/><line style="stroke:#A80036;stroke-width:1.5;" x1="1518.5" x2="1655.5" y1="319" y2="319"/><!--MD5=[1ca606ade29448d66bff39c3ca169238]
class controllers.StartController--><rect codeLine="55" fill="#FEFECE" filter="url(#f14e0rvrmasuh9)" height="48" id="controllers.StartController" style="stroke:#A80036;stroke-width:1.5;" width="119" x="1691.5" y="279"/><ellipse cx="1706.5" cy="295" fill="#ADD1B2" rx="11" ry="11" style="stroke:#A80036;stroke-width:1.0;"/><path d="M1708.8438,290.6719 C1707.9063,290.2344 1707.3125,290.0938 1706.4375,290.0938 C1703.8125,290.0938 1701.8125,292.1719 1701.8125,294.8906 L1701.8125,296.0156 C1701.8125,298.5938 1703.9219,300.4844 1706.8125,300.4844 C1708.0313,300.4844 1709.1875,300.1875 1709.9375,299.6406 C1710.5156,299.2344 1710.8438,298.7813 1710.8438,298.3906 C1710.8438,297.9375 1710.4531,297.5469 1709.9844,297.5469 C1709.7656,297.5469 1709.5625,297.625 1709.375,297.8125 C1708.9219,298.2969 1708.9219,298.2969 1708.7344,298.3906 C1708.3125,298.6563 1707.625,298.7813 1706.8594,298.7813 C1704.8125,298.7813 1703.5156,297.6875 1703.5156,295.9844 L1703.5156,294.8906 C1703.5156,293.1094 1704.7656,291.7969 1706.5,291.7969 C1707.0781,291.7969 1707.6875,291.9531 1708.1563,292.2031 C1708.6406,292.4844 1708.8125,292.7031 1708.9063,293.1094 C1708.9688,293.5156 1709,293.6406 1709.1406,293.7656 C1709.2813,293.9063 1709.5156,294.0156 1709.7344,294.0156 C1710,294.0156 1710.2656,293.875 1710.4375,293.6563 C1710.5469,293.5 1710.5781,293.3125 1710.5781,292.8906 L1710.5781,291.4688 C1710.5781,291.0313 1710.5625,290.9063 1710.4688,290.75 C1710.3125,290.4844 1710.0313,290.3438 1709.7344,290.3438 C1709.4375,290.3438 1709.2344,290.4375 1709.0156,290.75 L1708.8438,290.6719 Z " fill="#000000"/><text fill="#000000" font-family="sans-serif" font-size="12" lengthAdjust="spacing" textLength="87" x="1720.5" y="299.1543">StartController</text><line style="stroke:#A80036;stroke-width:1.5;" x1="1692.5" x2="1809.5" y1="311" y2="311"/><line style="stroke:#A80036;stroke-width:1.5;" x1="1692.5" x2="1809.5" y1="319" y2="319"/><!--MD5=[97bd40d9f9de957b3464a0ea5bcc6be7]
class controllers.UndoController--><rect codeLine="59" fill="#FEFECE" filter="url(#f14e0rvrmasuh9)" height="48" id="controllers.UndoController" style="stroke:#A80036;stroke-width:1.5;" width="123" x="1845.5" y="279"/><ellipse cx="1860.5" cy="295" fill="#ADD1B2" rx="11" ry="11" style="stroke:#A80036;stroke-width:1.0;"/><path d="M1862.8438,290.6719 C1861.9063,290.2344 1861.3125,290.0938 1860.4375,290.0938 C1857.8125,290.0938 1855.8125,292.1719 1855.8125,294.8906 L1855.8125,296.0156 C1855.8125,298.5938 1857.9219,300.4844 1860.8125,300.4844 C1862.0313,300.4844 1863.1875,300.1875 1863.9375,299.6406 C1864.5156,299.2344 1864.8438,298.7813 1864.8438,298.3906 C1864.8438,297.9375 1864.4531,297.5469 1863.9844,297.5469 C1863.7656,297.5469 1863.5625,297.625 1863.375,297.8125 C1862.9219,298.2969 1862.9219,298.2969 1862.7344,298.3906 C1862.3125,298.6563 1861.625,298.7813 1860.8594,298.7813 C1858.8125,298.7813 1857.5156,297.6875 1857.5156,295.9844 L1857.5156,294.8906 C1857.5156,293.1094 1858.7656,291.7969 1860.5,291.7969 C1861.0781,291.7969 1861.6875,291.9531 1862.1563,292.2031 C1862.6406,292.4844 1862.8125,292.7031 1862.9063,293.1094 C1862.9688,293.5156 1863,293.6406 1863.1406,293.7656 C1863.2813,293.9063 1863.5156,294.0156 1863.7344,294.0156 C1864,294.0156 1864.2656,293.875 1864.4375,293.6563 C1864.5469,293.5 1864.5781,293.3125 1864.5781,292.8906 L1864.5781,291.4688 C1864.5781,291.0313 1864.5625,290.9063 1864.4688,290.75 C1864.3125,290.4844 1864.0313,290.3438 1863.7344,290.3438 C1863.4375,290.3438 1863.2344,290.4375 1863.0156,290.75 L1862.8438,290.6719 Z " fill="#000000"/><text fill="#000000" font-family="sans-serif" font-size="12" lengthAdjust="spacing" textLength="91" x="1874.5" y="299.1543">UndoController</text><line style="stroke:#A80036;stroke-width:1.5;" x1="1846.5" x2="1967.5" y1="311" y2="311"/><line style="stroke:#A80036;stroke-width:1.5;" x1="1846.5" x2="1967.5" y1="319" y2="319"/><!--MD5=[773a588f1b5cfd88fb5609eb6c3fc040]
class controllers.RedoController--><rect codeLine="63" fill="#FEFECE" filter="url(#f14e0rvrmasuh9)" height="48" id="controllers.RedoController" style="stroke:#A80036;stroke-width:1.5;" width="122" x="748" y="279"/><ellipse cx="763" cy="295" fill="#ADD1B2" rx="11" ry="11" style="stroke:#A80036;stroke-width:1.0;"/><path d="M765.3438,290.6719 C764.4063,290.2344 763.8125,290.0938 762.9375,290.0938 C760.3125,290.0938 758.3125,292.1719 758.3125,294.8906 L758.3125,296.0156 C758.3125,298.5938 760.4219,300.4844 763.3125,300.4844 C764.5313,300.4844 765.6875,300.1875 766.4375,299.6406 C767.0156,299.2344 767.3438,298.7813 767.3438,298.3906 C767.3438,297.9375 766.9531,297.5469 766.4844,297.5469 C766.2656,297.5469 766.0625,297.625 765.875,297.8125 C765.4219,298.2969 765.4219,298.2969 765.2344,298.3906 C764.8125,298.6563 764.125,298.7813 763.3594,298.7813 C761.3125,298.7813 760.0156,297.6875 760.0156,295.9844 L760.0156,294.8906 C760.0156,293.1094 761.2656,291.7969 763,291.7969 C763.5781,291.7969 764.1875,291.9531 764.6563,292.2031 C765.1406,292.4844 765.3125,292.7031 765.4063,293.1094 C765.4688,293.5156 765.5,293.6406 765.6406,293.7656 C765.7813,293.9063 766.0156,294.0156 766.2344,294.0156 C766.5,294.0156 766.7656,293.875 766.9375,293.6563 C767.0469,293.5 767.0781,293.3125 767.0781,292.8906 L767.0781,291.4688 C767.0781,291.0313 767.0625,290.9063 766.9688,290.75 C766.8125,290.4844 766.5313,290.3438 766.2344,290.3438 C765.9375,290.3438 765.7344,290.4375 765.5156,290.75 L765.3438,290.6719 Z " fill="#000000"/><text fill="#000000" font-family="sans-serif" font-size="12" lengthAdjust="spacing" textLength="90" x="777" y="299.1543">RedoController</text><line style="stroke:#A80036;stroke-width:1.5;" x1="749" x2="869" y1="311" y2="311"/><line style="stroke:#A80036;stroke-width:1.5;" x1="749" x2="869" y1="319" y2="319"/><!--MD5=[91d1b4354f3adedf5c3aea5a35dbd179]
class controllers.SaveController--><rect codeLine="67" fill="#FEFECE" filter="url(#f14e0rvrmasuh9)" height="48" id="controllers.SaveController" style="stroke:#A80036;stroke-width:1.5;" width="121" x="905.5" y="279"/><ellipse cx="920.5" cy="295" fill="#ADD1B2" rx="11" ry="11" style="stroke:#A80036;stroke-width:1.0;"/><path d="M922.8438,290.6719 C921.9063,290.2344 921.3125,290.0938 920.4375,290.0938 C917.8125,290.0938 915.8125,292.1719 915.8125,294.8906 L915.8125,296.0156 C915.8125,298.5938 917.9219,300.4844 920.8125,300.4844 C922.0313,300.4844 923.1875,300.1875 923.9375,299.6406 C924.5156,299.2344 924.8438,298.7813 924.8438,298.3906 C924.8438,297.9375 924.4531,297.5469 923.9844,297.5469 C923.7656,297.5469 923.5625,297.625 923.375,297.8125 C922.9219,298.2969 922.9219,298.2969 922.7344,298.3906 C922.3125,298.6563 921.625,298.7813 920.8594,298.7813 C918.8125,298.7813 917.5156,297.6875 917.5156,295.9844 L917.5156,294.8906 C917.5156,293.1094 918.7656,291.7969 920.5,291.7969 C921.0781,291.7969 921.6875,291.9531 922.1563,292.2031 C922.6406,292.4844 922.8125,292.7031 922.9063,293.1094 C922.9688,293.5156 923,293.6406 923.1406,293.7656 C923.2813,293.9063 923.5156,294.0156 923.7344,294.0156 C924,294.0156 924.2656,293.875 924.4375,293.6563 C924.5469,293.5 924.5781,293.3125 924.5781,292.8906 L924.5781,291.4688 C924.5781,291.0313 924.5625,290.9063 924.4688,290.75 C924.3125,290.4844 924.0313,290.3438 923.7344,290.3438 C923.4375,290.3438 923.2344,290.4375 923.0156,290.75 L922.8438,290.6719 Z " fill="#000000"/><text fill="#000000" font-family="sans-serif" font-size="12" lengthAdjust="spacing" textLength="89" x="934.5" y="299.1543">SaveController</text><line style="stroke:#A80036;stroke-width:1.5;" x1="906.5" x2="1025.5" y1="311" y2="311"/><line style="stroke:#A80036;stroke-width:1.5;" x1="906.5" x2="1025.5" y1="319" y2="319"/><!--MD5=[e3bda80bf751c47429430ce37694df8e]
class controllers.OpenController--><rect codeLine="71" fill="#FEFECE" filter="url(#f14e0rvrmasuh9)" height="48" id="controllers.OpenController" style="stroke:#A80036;stroke-width:1.5;" width="124" x="1062" y="279"/><ellipse cx="1077" cy="295" fill="#ADD1B2" rx="11" ry="11" style="stroke:#A80036;stroke-width:1.0;"/><path d="M1079.3438,290.6719 C1078.4063,290.2344 1077.8125,290.0938 1076.9375,290.0938 C1074.3125,290.0938 1072.3125,292.1719 1072.3125,294.8906 L1072.3125,296.0156 C1072.3125,298.5938 1074.4219,300.4844 1077.3125,300.4844 C1078.5313,300.4844 1079.6875,300.1875 1080.4375,299.6406 C1081.0156,299.2344 1081.3438,298.7813 1081.3438,298.3906 C1081.3438,297.9375 1080.9531,297.5469 1080.4844,297.5469 C1080.2656,297.5469 1080.0625,297.625 1079.875,297.8125 C1079.4219,298.2969 1079.4219,298.2969 1079.2344,298.3906 C1078.8125,298.6563 1078.125,298.7813 1077.3594,298.7813 C1075.3125,298.7813 1074.0156,297.6875 1074.0156,295.9844 L1074.0156,294.8906 C1074.0156,293.1094 1075.2656,291.7969 1077,291.7969 C1077.5781,291.7969 1078.1875,291.9531 1078.6563,292.2031 C1079.1406,292.4844 1079.3125,292.7031 1079.4063,293.1094 C1079.4688,293.5156 1079.5,293.6406 1079.6406,293.7656 C1079.7813,293.9063 1080.0156,294.0156 1080.2344,294.0156 C1080.5,294.0156 1080.7656,293.875 1080.9375,293.6563 C1081.0469,293.5 1081.0781,293.3125 1081.0781,292.8906 L1081.0781,291.4688 C1081.0781,291.0313 1081.0625,290.9063 1080.9688,290.75 C1080.8125,290.4844 1080.5313,290.3438 1080.2344,290.3438 C1079.9375,290.3438 1079.7344,290.4375 1079.5156,290.75 L1079.3438,290.6719 Z " fill="#000000"/><text fill="#000000" font-family="sans-serif" font-size="12" lengthAdjust="spacing" textLength="92" x="1091" y="299.1543">OpenController</text><line style="stroke:#A80036;stroke-width:1.5;" x1="1063" x2="1185" y1="311" y2="311"/><line style="stroke:#A80036;stroke-width:1.5;" x1="1063" x2="1185" y1="319" y2="319"/><!--MD5=[90ad8fcc28625cee403c51b0bcf915c5]
class controllers.ExitController--><rect codeLine="75" fill="#FEFECE" filter="url(#f14e0rvrmasuh9)" height="48" id="controllers.ExitController" style="stroke:#A80036;stroke-width:1.5;" width="112" x="1221" y="279"/><ellipse cx="1236" cy="295" fill="#ADD1B2" rx="11" ry="11" style="stroke:#A80036;stroke-width:1.0;"/><path d="M1238.3438,290.6719 C1237.4063,290.2344 1236.8125,290.0938 1235.9375,290.0938 C1233.3125,290.0938 1231.3125,292.1719 1231.3125,294.8906 L1231.3125,296.0156 C1231.3125,298.5938 1233.4219,300.4844 1236.3125,300.4844 C1237.5313,300.4844 1238.6875,300.1875 1239.4375,299.6406 C1240.0156,299.2344 1240.3438,298.7813 1240.3438,298.3906 C1240.3438,297.9375 1239.9531,297.5469 1239.4844,297.5469 C1239.2656,297.5469 1239.0625,297.625 1238.875,297.8125 C1238.4219,298.2969 1238.4219,298.2969 1238.2344,298.3906 C1237.8125,298.6563 1237.125,298.7813 1236.3594,298.7813 C1234.3125,298.7813 1233.0156,297.6875 1233.0156,295.9844 L1233.0156,294.8906 C1233.0156,293.1094 1234.2656,291.7969 1236,291.7969 C1236.5781,291.7969 1237.1875,291.9531 1237.6563,292.2031 C1238.1406,292.4844 1238.3125,292.7031 1238.4063,293.1094 C1238.4688,293.5156 1238.5,293.6406 1238.6406,293.7656 C1238.7813,293.9063 1239.0156,294.0156 1239.2344,294.0156 C1239.5,294.0156 1239.7656,293.875 1239.9375,293.6563 C1240.0469,293.5 1240.0781,293.3125 1240.0781,292.8906 L1240.0781,291.4688 C1240.0781,291.0313 1240.0625,290.9063 1239.9688,290.75 C1239.8125,290.4844 1239.5313,290.3438 1239.2344,290.3438 C1238.9375,290.3438 1238.7344,290.4375 1238.5156,290.75 L1238.3438,290.6719 Z " fill="#000000"/><text fill="#000000" font-family="sans-serif" font-size="12" lengthAdjust="spacing" textLength="80" x="1250" y="299.1543">ExitController</text><line style="stroke:#A80036;stroke-width:1.5;" x1="1222" x2="1332" y1="311" y2="311"/><line style="stroke:#A80036;stroke-width:1.5;" x1="1222" x2="1332" y1="319" y2="319"/><!--MD5=[fbcab1a7378abda673044953d979be95]
class models.Board--><rect codeLine="15" fill="#FEFECE" filter="url(#f14e0rvrmasuh9)" height="48" id="models.Board" style="stroke:#A80036;stroke-width:1.5;" width="68" x="2083" y="650"/><ellipse cx="2098" cy="666" fill="#ADD1B2" rx="11" ry="11" style="stroke:#A80036;stroke-width:1.0;"/><path d="M2100.3438,661.6719 C2099.4063,661.2344 2098.8125,661.0938 2097.9375,661.0938 C2095.3125,661.0938 2093.3125,663.1719 2093.3125,665.8906 L2093.3125,667.0156 C2093.3125,669.5938 2095.4219,671.4844 2098.3125,671.4844 C2099.5313,671.4844 2100.6875,671.1875 2101.4375,670.6406 C2102.0156,670.2344 2102.3438,669.7813 2102.3438,669.3906 C2102.3438,668.9375 2101.9531,668.5469 2101.4844,668.5469 C2101.2656,668.5469 2101.0625,668.625 2100.875,668.8125 C2100.4219,669.2969 2100.4219,669.2969 2100.2344,669.3906 C2099.8125,669.6563 2099.125,669.7813 2098.3594,669.7813 C2096.3125,669.7813 2095.0156,668.6875 2095.0156,666.9844 L2095.0156,665.8906 C2095.0156,664.1094 2096.2656,662.7969 2098,662.7969 C2098.5781,662.7969 2099.1875,662.9531 2099.6563,663.2031 C2100.1406,663.4844 2100.3125,663.7031 2100.4063,664.1094 C2100.4688,664.5156 2100.5,664.6406 2100.6406,664.7656 C2100.7813,664.9063 2101.0156,665.0156 2101.2344,665.0156 C2101.5,665.0156 2101.7656,664.875 2101.9375,664.6563 C2102.0469,664.5 2102.0781,664.3125 2102.0781,663.8906 L2102.0781,662.4688 C2102.0781,662.0313 2102.0625,661.9063 2101.9688,661.75 C2101.8125,661.4844 2101.5313,661.3438 2101.2344,661.3438 C2100.9375,661.3438 2100.7344,661.4375 2100.5156,661.75 L2100.3438,661.6719 Z " fill="#000000"/><text fill="#000000" font-family="sans-serif" font-size="12" lengthAdjust="spacing" textLength="36" x="2112" y="670.1543">Board</text><line style="stroke:#A80036;stroke-width:1.5;" x1="2084" x2="2150" y1="682" y2="682"/><line style="stroke:#A80036;stroke-width:1.5;" x1="2084" x2="2150" y1="690" y2="690"/><!--MD5=[1ea5cf3e691bb3552ec8d5f9a56af156]
class models.Game--><rect codeLine="19" fill="#FEFECE" filter="url(#f14e0rvrmasuh9)" height="48" id="models.Game" style="stroke:#A80036;stroke-width:1.5;" width="67" x="2078.5" y="279"/><ellipse cx="2093.5" cy="295" fill="#ADD1B2" rx="11" ry="11" style="stroke:#A80036;stroke-width:1.0;"/><path d="M2095.8438,290.6719 C2094.9063,290.2344 2094.3125,290.0938 2093.4375,290.0938 C2090.8125,290.0938 2088.8125,292.1719 2088.8125,294.8906 L2088.8125,296.0156 C2088.8125,298.5938 2090.9219,300.4844 2093.8125,300.4844 C2095.0313,300.4844 2096.1875,300.1875 2096.9375,299.6406 C2097.5156,299.2344 2097.8438,298.7813 2097.8438,298.3906 C2097.8438,297.9375 2097.4531,297.5469 2096.9844,297.5469 C2096.7656,297.5469 2096.5625,297.625 2096.375,297.8125 C2095.9219,298.2969 2095.9219,298.2969 2095.7344,298.3906 C2095.3125,298.6563 2094.625,298.7813 2093.8594,298.7813 C2091.8125,298.7813 2090.5156,297.6875 2090.5156,295.9844 L2090.5156,294.8906 C2090.5156,293.1094 2091.7656,291.7969 2093.5,291.7969 C2094.0781,291.7969 2094.6875,291.9531 2095.1563,292.2031 C2095.6406,292.4844 2095.8125,292.7031 2095.9063,293.1094 C2095.9688,293.5156 2096,293.6406 2096.1406,293.7656 C2096.2813,293.9063 2096.5156,294.0156 2096.7344,294.0156 C2097,294.0156 2097.2656,293.875 2097.4375,293.6563 C2097.5469,293.5 2097.5781,293.3125 2097.5781,292.8906 L2097.5781,291.4688 C2097.5781,291.0313 2097.5625,290.9063 2097.4688,290.75 C2097.3125,290.4844 2097.0313,290.3438 2096.7344,290.3438 C2096.4375,290.3438 2096.2344,290.4375 2096.0156,290.75 L2095.8438,290.6719 Z " fill="#000000"/><text fill="#000000" font-family="sans-serif" font-size="12" lengthAdjust="spacing" textLength="35" x="2107.5" y="299.1543">Game</text><line style="stroke:#A80036;stroke-width:1.5;" x1="2079.5" x2="2144.5" y1="311" y2="311"/><line style="stroke:#A80036;stroke-width:1.5;" x1="2079.5" x2="2144.5" y1="319" y2="319"/><!--MD5=[6e8c5ac4fcf3c90f745643fbee571d05]
class models.Player--><rect codeLine="23" fill="#FEFECE" filter="url(#f14e0rvrmasuh9)" height="48" id="models.Player" style="stroke:#A80036;stroke-width:1.5;" width="68" x="2102" y="542"/><ellipse cx="2117" cy="558" fill="#ADD1B2" rx="11" ry="11" style="stroke:#A80036;stroke-width:1.0;"/><path d="M2119.3438,553.6719 C2118.4063,553.2344 2117.8125,553.0938 2116.9375,553.0938 C2114.3125,553.0938 2112.3125,555.1719 2112.3125,557.8906 L2112.3125,559.0156 C2112.3125,561.5938 2114.4219,563.4844 2117.3125,563.4844 C2118.5313,563.4844 2119.6875,563.1875 2120.4375,562.6406 C2121.0156,562.2344 2121.3438,561.7813 2121.3438,561.3906 C2121.3438,560.9375 2120.9531,560.5469 2120.4844,560.5469 C2120.2656,560.5469 2120.0625,560.625 2119.875,560.8125 C2119.4219,561.2969 2119.4219,561.2969 2119.2344,561.3906 C2118.8125,561.6563 2118.125,561.7813 2117.3594,561.7813 C2115.3125,561.7813 2114.0156,560.6875 2114.0156,558.9844 L2114.0156,557.8906 C2114.0156,556.1094 2115.2656,554.7969 2117,554.7969 C2117.5781,554.7969 2118.1875,554.9531 2118.6563,555.2031 C2119.1406,555.4844 2119.3125,555.7031 2119.4063,556.1094 C2119.4688,556.5156 2119.5,556.6406 2119.6406,556.7656 C2119.7813,556.9063 2120.0156,557.0156 2120.2344,557.0156 C2120.5,557.0156 2120.7656,556.875 2120.9375,556.6563 C2121.0469,556.5 2121.0781,556.3125 2121.0781,555.8906 L2121.0781,554.4688 C2121.0781,554.0313 2121.0625,553.9063 2120.9688,553.75 C2120.8125,553.4844 2120.5313,553.3438 2120.2344,553.3438 C2119.9375,553.3438 2119.7344,553.4375 2119.5156,553.75 L2119.3438,553.6719 Z " fill="#000000"/><text fill="#000000" font-family="sans-serif" font-size="12" lengthAdjust="spacing" textLength="36" x="2131" y="562.1543">Player</text><line style="stroke:#A80036;stroke-width:1.5;" x1="2103" x2="2169" y1="574" y2="574"/><line style="stroke:#A80036;stroke-width:1.5;" x1="2103" x2="2169" y1="582" y2="582"/><!--MD5=[06029ca6144b724b5ba6f17e981b093f]
class models.Turn--><rect codeLine="27" fill="#FEFECE" filter="url(#f14e0rvrmasuh9)" height="48" id="models.Turn" style="stroke:#A80036;stroke-width:1.5;" width="58" x="2104" y="434"/><ellipse cx="2119" cy="450" fill="#ADD1B2" rx="11" ry="11" style="stroke:#A80036;stroke-width:1.0;"/><path d="M2121.3438,445.6719 C2120.4063,445.2344 2119.8125,445.0938 2118.9375,445.0938 C2116.3125,445.0938 2114.3125,447.1719 2114.3125,449.8906 L2114.3125,451.0156 C2114.3125,453.5938 2116.4219,455.4844 2119.3125,455.4844 C2120.5313,455.4844 2121.6875,455.1875 2122.4375,454.6406 C2123.0156,454.2344 2123.3438,453.7813 2123.3438,453.3906 C2123.3438,452.9375 2122.9531,452.5469 2122.4844,452.5469 C2122.2656,452.5469 2122.0625,452.625 2121.875,452.8125 C2121.4219,453.2969 2121.4219,453.2969 2121.2344,453.3906 C2120.8125,453.6563 2120.125,453.7813 2119.3594,453.7813 C2117.3125,453.7813 2116.0156,452.6875 2116.0156,450.9844 L2116.0156,449.8906 C2116.0156,448.1094 2117.2656,446.7969 2119,446.7969 C2119.5781,446.7969 2120.1875,446.9531 2120.6563,447.2031 C2121.1406,447.4844 2121.3125,447.7031 2121.4063,448.1094 C2121.4688,448.5156 2121.5,448.6406 2121.6406,448.7656 C2121.7813,448.9063 2122.0156,449.0156 2122.2344,449.0156 C2122.5,449.0156 2122.7656,448.875 2122.9375,448.6563 C2123.0469,448.5 2123.0781,448.3125 2123.0781,447.8906 L2123.0781,446.4688 C2123.0781,446.0313 2123.0625,445.9063 2122.9688,445.75 C2122.8125,445.4844 2122.5313,445.3438 2122.2344,445.3438 C2121.9375,445.3438 2121.7344,445.4375 2121.5156,445.75 L2121.3438,445.6719 Z " fill="#000000"/><text fill="#000000" font-family="sans-serif" font-size="12" lengthAdjust="spacing" textLength="26" x="2133" y="454.1543">Turn</text><line style="stroke:#A80036;stroke-width:1.5;" x1="2105" x2="2161" y1="466" y2="466"/><line style="stroke:#A80036;stroke-width:1.5;" x1="2105" x2="2161" y1="474" y2="474"/><!--MD5=[fbe1d668a1c0e7c27042fe6ad7304dc0]
class types.Coordinate--><rect codeLine="31" fill="#FEFECE" filter="url(#f14e0rvrmasuh9)" height="48" id="types.Coordinate" style="stroke:#A80036;stroke-width:1.5;" width="98" x="2285" y="434"/><ellipse cx="2300" cy="450" fill="#ADD1B2" rx="11" ry="11" style="stroke:#A80036;stroke-width:1.0;"/><path d="M2302.3438,445.6719 C2301.4063,445.2344 2300.8125,445.0938 2299.9375,445.0938 C2297.3125,445.0938 2295.3125,447.1719 2295.3125,449.8906 L2295.3125,451.0156 C2295.3125,453.5938 2297.4219,455.4844 2300.3125,455.4844 C2301.5313,455.4844 2302.6875,455.1875 2303.4375,454.6406 C2304.0156,454.2344 2304.3438,453.7813 2304.3438,453.3906 C2304.3438,452.9375 2303.9531,452.5469 2303.4844,452.5469 C2303.2656,452.5469 2303.0625,452.625 2302.875,452.8125 C2302.4219,453.2969 2302.4219,453.2969 2302.2344,453.3906 C2301.8125,453.6563 2301.125,453.7813 2300.3594,453.7813 C2298.3125,453.7813 2297.0156,452.6875 2297.0156,450.9844 L2297.0156,449.8906 C2297.0156,448.1094 2298.2656,446.7969 2300,446.7969 C2300.5781,446.7969 2301.1875,446.9531 2301.6563,447.2031 C2302.1406,447.4844 2302.3125,447.7031 2302.4063,448.1094 C2302.4688,448.5156 2302.5,448.6406 2302.6406,448.7656 C2302.7813,448.9063 2303.0156,449.0156 2303.2344,449.0156 C2303.5,449.0156 2303.7656,448.875 2303.9375,448.6563 C2304.0469,448.5 2304.0781,448.3125 2304.0781,447.8906 L2304.0781,446.4688 C2304.0781,446.0313 2304.0625,445.9063 2303.9688,445.75 C2303.8125,445.4844 2303.5313,445.3438 2303.2344,445.3438 C2302.9375,445.3438 2302.7344,445.4375 2302.5156,445.75 L2302.3438,445.6719 Z " fill="#000000"/><text fill="#000000" font-family="sans-serif" font-size="12" lengthAdjust="spacing" textLength="66" x="2314" y="454.1543">Coordinate</text><line style="stroke:#A80036;stroke-width:1.5;" x1="2286" x2="2382" y1="466" y2="466"/><line style="stroke:#A80036;stroke-width:1.5;" x1="2286" x2="2382" y1="474" y2="474"/><!--MD5=[e88a50b03f092bdcaf627b677de9be1f]
class types.Color--><rect codeLine="35" fill="#FEFECE" filter="url(#f14e0rvrmasuh9)" height="48" id="types.Color" style="stroke:#A80036;stroke-width:1.5;" width="64" x="2418" y="434"/><ellipse cx="2433" cy="450" fill="#EB937F" rx="11" ry="11" style="stroke:#A80036;stroke-width:1.0;"/><path d="M2431.7969,450.875 L2433.25,450.875 L2433.25,450.9844 C2433.25,451.3906 2433.2813,451.5469 2433.3594,451.7031 C2433.5156,451.9531 2433.7969,452.1094 2434.0938,452.1094 C2434.3438,452.1094 2434.6094,451.9688 2434.7656,451.75 C2434.8906,451.5938 2434.9219,451.4375 2434.9219,450.9844 L2434.9219,449.0625 C2434.9219,448.9063 2434.9219,448.8594 2434.9063,448.7031 C2434.8438,448.2344 2434.5313,447.9219 2434.0781,447.9219 C2433.8281,447.9219 2433.5625,448.0625 2433.3906,448.2813 C2433.2813,448.4531 2433.25,448.6094 2433.25,449.0625 L2433.25,449.1875 L2431.7969,449.1875 L2431.7969,446.7813 L2435.7813,446.7813 L2435.7813,447.6406 C2435.7813,448.0469 2435.8125,448.2188 2435.8906,448.375 C2436.0625,448.625 2436.3438,448.7813 2436.625,448.7813 C2436.8906,448.7813 2437.1563,448.6406 2437.3281,448.4219 C2437.4375,448.25 2437.4688,448.1094 2437.4688,447.6406 L2437.4688,445.0938 L2429.8438,445.0938 C2429.4063,445.0938 2429.2813,445.1094 2429.125,445.2031 C2428.875,445.3594 2428.7188,445.6563 2428.7188,445.9375 C2428.7188,446.2188 2428.8594,446.4688 2429.0781,446.6406 C2429.2344,446.75 2429.4219,446.7813 2429.8438,446.7813 L2430.0938,446.7813 L2430.0938,453.2969 L2429.8438,453.2969 C2429.4375,453.2969 2429.2813,453.3125 2429.125,453.4219 C2428.875,453.5938 2428.7188,453.8594 2428.7188,454.1563 C2428.7188,454.4219 2428.8594,454.6719 2429.0781,454.8281 C2429.2188,454.9531 2429.4531,455 2429.8438,455 L2437.8438,455 L2437.8438,452.4219 C2437.8438,451.9844 2437.8125,451.8438 2437.7344,451.6875 C2437.5625,451.4375 2437.2813,451.2813 2437,451.2813 C2436.7344,451.2813 2436.4688,451.3906 2436.2969,451.6406 C2436.1875,451.7969 2436.1563,451.9375 2436.1563,452.4219 L2436.1563,453.2969 L2431.7969,453.2969 L2431.7969,450.875 Z " fill="#000000"/><text fill="#000000" font-family="sans-serif" font-size="12" lengthAdjust="spacing" textLength="32" x="2447" y="454.1543">Color</text><line style="stroke:#A80036;stroke-width:1.5;" x1="2419" x2="2481" y1="466" y2="466"/><line style="stroke:#A80036;stroke-width:1.5;" x1="2419" x2="2481" y1="474" y2="474"/><!--MD5=[f4a9730c613f2e33f7b8bab243e5b8e5]
class types.Error--><rect codeLine="39" fill="#FEFECE" filter="url(#f14e0rvrmasuh9)" height="48" id="types.Error" style="stroke:#A80036;stroke-width:1.5;" width="62" x="2303" y="542"/><ellipse cx="2318" cy="558" fill="#EB937F" rx="11" ry="11" style="stroke:#A80036;stroke-width:1.0;"/><path d="M2316.7969,558.875 L2318.25,558.875 L2318.25,558.9844 C2318.25,559.3906 2318.2813,559.5469 2318.3594,559.7031 C2318.5156,559.9531 2318.7969,560.1094 2319.0938,560.1094 C2319.3438,560.1094 2319.6094,559.9688 2319.7656,559.75 C2319.8906,559.5938 2319.9219,559.4375 2319.9219,558.9844 L2319.9219,557.0625 C2319.9219,556.9063 2319.9219,556.8594 2319.9063,556.7031 C2319.8438,556.2344 2319.5313,555.9219 2319.0781,555.9219 C2318.8281,555.9219 2318.5625,556.0625 2318.3906,556.2813 C2318.2813,556.4531 2318.25,556.6094 2318.25,557.0625 L2318.25,557.1875 L2316.7969,557.1875 L2316.7969,554.7813 L2320.7813,554.7813 L2320.7813,555.6406 C2320.7813,556.0469 2320.8125,556.2188 2320.8906,556.375 C2321.0625,556.625 2321.3438,556.7813 2321.625,556.7813 C2321.8906,556.7813 2322.1563,556.6406 2322.3281,556.4219 C2322.4375,556.25 2322.4688,556.1094 2322.4688,555.6406 L2322.4688,553.0938 L2314.8438,553.0938 C2314.4063,553.0938 2314.2813,553.1094 2314.125,553.2031 C2313.875,553.3594 2313.7188,553.6563 2313.7188,553.9375 C2313.7188,554.2188 2313.8594,554.4688 2314.0781,554.6406 C2314.2344,554.75 2314.4219,554.7813 2314.8438,554.7813 L2315.0938,554.7813 L2315.0938,561.2969 L2314.8438,561.2969 C2314.4375,561.2969 2314.2813,561.3125 2314.125,561.4219 C2313.875,561.5938 2313.7188,561.8594 2313.7188,562.1563 C2313.7188,562.4219 2313.8594,562.6719 2314.0781,562.8281 C2314.2188,562.9531 2314.4531,563 2314.8438,563 L2322.8438,563 L2322.8438,560.4219 C2322.8438,559.9844 2322.8125,559.8438 2322.7344,559.6875 C2322.5625,559.4375 2322.2813,559.2813 2322,559.2813 C2321.7344,559.2813 2321.4688,559.3906 2321.2969,559.6406 C2321.1875,559.7969 2321.1563,559.9375 2321.1563,560.4219 L2321.1563,561.2969 L2316.7969,561.2969 L2316.7969,558.875 Z " fill="#000000"/><text fill="#000000" font-family="sans-serif" font-size="12" lengthAdjust="spacing" textLength="30" x="2332" y="562.1543">Error</text><line style="stroke:#A80036;stroke-width:1.5;" x1="2304" x2="2364" y1="574" y2="574"/><line style="stroke:#A80036;stroke-width:1.5;" x1="2304" x2="2364" y1="582" y2="582"/><!--MD5=[5563f2eac69cd97c311bb50067a34021]
class views.BoardView--><rect codeLine="79" fill="#FEFECE" filter="url(#f14e0rvrmasuh9)" height="48" id="views.BoardView" style="stroke:#A80036;stroke-width:1.5;" width="97" x="206.5" y="279"/><ellipse cx="221.5" cy="295" fill="#ADD1B2" rx="11" ry="11" style="stroke:#A80036;stroke-width:1.0;"/><path d="M223.8438,290.6719 C222.9063,290.2344 222.3125,290.0938 221.4375,290.0938 C218.8125,290.0938 216.8125,292.1719 216.8125,294.8906 L216.8125,296.0156 C216.8125,298.5938 218.9219,300.4844 221.8125,300.4844 C223.0313,300.4844 224.1875,300.1875 224.9375,299.6406 C225.5156,299.2344 225.8438,298.7813 225.8438,298.3906 C225.8438,297.9375 225.4531,297.5469 224.9844,297.5469 C224.7656,297.5469 224.5625,297.625 224.375,297.8125 C223.9219,298.2969 223.9219,298.2969 223.7344,298.3906 C223.3125,298.6563 222.625,298.7813 221.8594,298.7813 C219.8125,298.7813 218.5156,297.6875 218.5156,295.9844 L218.5156,294.8906 C218.5156,293.1094 219.7656,291.7969 221.5,291.7969 C222.0781,291.7969 222.6875,291.9531 223.1563,292.2031 C223.6406,292.4844 223.8125,292.7031 223.9063,293.1094 C223.9688,293.5156 224,293.6406 224.1406,293.7656 C224.2813,293.9063 224.5156,294.0156 224.7344,294.0156 C225,294.0156 225.2656,293.875 225.4375,293.6563 C225.5469,293.5 225.5781,293.3125 225.5781,292.8906 L225.5781,291.4688 C225.5781,291.0313 225.5625,290.9063 225.4688,290.75 C225.3125,290.4844 225.0313,290.3438 224.7344,290.3438 C224.4375,290.3438 224.2344,290.4375 224.0156,290.75 L223.8438,290.6719 Z " fill="#000000"/><text fill="#000000" font-family="sans-serif" font-size="12" lengthAdjust="spacing" textLength="65" x="235.5" y="299.1543">BoardView</text><line style="stroke:#A80036;stroke-width:1.5;" x1="207.5" x2="302.5" y1="311" y2="311"/><line style="stroke:#A80036;stroke-width:1.5;" x1="207.5" x2="302.5" y1="319" y2="319"/><!--MD5=[52a75152711b30ce05e31727f0039306]
class views.ErrorView--><rect codeLine="83" fill="#FEFECE" filter="url(#f14e0rvrmasuh9)" height="48" id="views.ErrorView" style="stroke:#A80036;stroke-width:1.5;" width="91" x="48.5" y="542"/><ellipse cx="63.5" cy="558" fill="#ADD1B2" rx="11" ry="11" style="stroke:#A80036;stroke-width:1.0;"/><path d="M65.8438,553.6719 C64.9063,553.2344 64.3125,553.0938 63.4375,553.0938 C60.8125,553.0938 58.8125,555.1719 58.8125,557.8906 L58.8125,559.0156 C58.8125,561.5938 60.9219,563.4844 63.8125,563.4844 C65.0313,563.4844 66.1875,563.1875 66.9375,562.6406 C67.5156,562.2344 67.8438,561.7813 67.8438,561.3906 C67.8438,560.9375 67.4531,560.5469 66.9844,560.5469 C66.7656,560.5469 66.5625,560.625 66.375,560.8125 C65.9219,561.2969 65.9219,561.2969 65.7344,561.3906 C65.3125,561.6563 64.625,561.7813 63.8594,561.7813 C61.8125,561.7813 60.5156,560.6875 60.5156,558.9844 L60.5156,557.8906 C60.5156,556.1094 61.7656,554.7969 63.5,554.7969 C64.0781,554.7969 64.6875,554.9531 65.1563,555.2031 C65.6406,555.4844 65.8125,555.7031 65.9063,556.1094 C65.9688,556.5156 66,556.6406 66.1406,556.7656 C66.2813,556.9063 66.5156,557.0156 66.7344,557.0156 C67,557.0156 67.2656,556.875 67.4375,556.6563 C67.5469,556.5 67.5781,556.3125 67.5781,555.8906 L67.5781,554.4688 C67.5781,554.0313 67.5625,553.9063 67.4688,553.75 C67.3125,553.4844 67.0313,553.3438 66.7344,553.3438 C66.4375,553.3438 66.2344,553.4375 66.0156,553.75 L65.8438,553.6719 Z " fill="#000000"/><text fill="#000000" font-family="sans-serif" font-size="12" lengthAdjust="spacing" textLength="59" x="77.5" y="562.1543">ErrorView</text><line style="stroke:#A80036;stroke-width:1.5;" x1="49.5" x2="138.5" y1="574" y2="574"/><line style="stroke:#A80036;stroke-width:1.5;" x1="49.5" x2="138.5" y1="582" y2="582"/><!--MD5=[15992c3de3db46d2901aebcad9c61d0d]
class views.PlayView--><rect codeLine="87" fill="#FEFECE" filter="url(#f14e0rvrmasuh9)" height="48" id="views.PlayView" style="stroke:#A80036;stroke-width:1.5;" width="84" x="171" y="164"/><ellipse cx="186" cy="180" fill="#ADD1B2" rx="11" ry="11" style="stroke:#A80036;stroke-width:1.0;"/><path d="M188.3438,175.6719 C187.4063,175.2344 186.8125,175.0938 185.9375,175.0938 C183.3125,175.0938 181.3125,177.1719 181.3125,179.8906 L181.3125,181.0156 C181.3125,183.5938 183.4219,185.4844 186.3125,185.4844 C187.5313,185.4844 188.6875,185.1875 189.4375,184.6406 C190.0156,184.2344 190.3438,183.7813 190.3438,183.3906 C190.3438,182.9375 189.9531,182.5469 189.4844,182.5469 C189.2656,182.5469 189.0625,182.625 188.875,182.8125 C188.4219,183.2969 188.4219,183.2969 188.2344,183.3906 C187.8125,183.6563 187.125,183.7813 186.3594,183.7813 C184.3125,183.7813 183.0156,182.6875 183.0156,180.9844 L183.0156,179.8906 C183.0156,178.1094 184.2656,176.7969 186,176.7969 C186.5781,176.7969 187.1875,176.9531 187.6563,177.2031 C188.1406,177.4844 188.3125,177.7031 188.4063,178.1094 C188.4688,178.5156 188.5,178.6406 188.6406,178.7656 C188.7813,178.9063 189.0156,179.0156 189.2344,179.0156 C189.5,179.0156 189.7656,178.875 189.9375,178.6563 C190.0469,178.5 190.0781,178.3125 190.0781,177.8906 L190.0781,176.4688 C190.0781,176.0313 190.0625,175.9063 189.9688,175.75 C189.8125,175.4844 189.5313,175.3438 189.2344,175.3438 C188.9375,175.3438 188.7344,175.4375 188.5156,175.75 L188.3438,175.6719 Z " fill="#000000"/><text fill="#000000" font-family="sans-serif" font-size="12" lengthAdjust="spacing" textLength="52" x="200" y="184.1543">PlayView</text><line style="stroke:#A80036;stroke-width:1.5;" x1="172" x2="254" y1="196" y2="196"/><line style="stroke:#A80036;stroke-width:1.5;" x1="172" x2="254" y1="204" y2="204"/><!--MD5=[efe083823ff420907f2c8e105cba547e]
class views.ResumeView--><rect codeLine="91" fill="#FEFECE" filter="url(#f14e0rvrmasuh9)" height="48" id="views.ResumeView" style="stroke:#A80036;stroke-width:1.5;" width="109" x="542.5" y="279"/><ellipse cx="557.5" cy="295" fill="#ADD1B2" rx="11" ry="11" style="stroke:#A80036;stroke-width:1.0;"/><path d="M559.8438,290.6719 C558.9063,290.2344 558.3125,290.0938 557.4375,290.0938 C554.8125,290.0938 552.8125,292.1719 552.8125,294.8906 L552.8125,296.0156 C552.8125,298.5938 554.9219,300.4844 557.8125,300.4844 C559.0313,300.4844 560.1875,300.1875 560.9375,299.6406 C561.5156,299.2344 561.8438,298.7813 561.8438,298.3906 C561.8438,297.9375 561.4531,297.5469 560.9844,297.5469 C560.7656,297.5469 560.5625,297.625 560.375,297.8125 C559.9219,298.2969 559.9219,298.2969 559.7344,298.3906 C559.3125,298.6563 558.625,298.7813 557.8594,298.7813 C555.8125,298.7813 554.5156,297.6875 554.5156,295.9844 L554.5156,294.8906 C554.5156,293.1094 555.7656,291.7969 557.5,291.7969 C558.0781,291.7969 558.6875,291.9531 559.1563,292.2031 C559.6406,292.4844 559.8125,292.7031 559.9063,293.1094 C559.9688,293.5156 560,293.6406 560.1406,293.7656 C560.2813,293.9063 560.5156,294.0156 560.7344,294.0156 C561,294.0156 561.2656,293.875 561.4375,293.6563 C561.5469,293.5 561.5781,293.3125 561.5781,292.8906 L561.5781,291.4688 C561.5781,291.0313 561.5625,290.9063 561.4688,290.75 C561.3125,290.4844 561.0313,290.3438 560.7344,290.3438 C560.4375,290.3438 560.2344,290.4375 560.0156,290.75 L559.8438,290.6719 Z " fill="#000000"/><text fill="#000000" font-family="sans-serif" font-size="12" lengthAdjust="spacing" textLength="77" x="571.5" y="299.1543">ResumeView</text><line style="stroke:#A80036;stroke-width:1.5;" x1="543.5" x2="650.5" y1="311" y2="311"/><line style="stroke:#A80036;stroke-width:1.5;" x1="543.5" x2="650.5" y1="319" y2="319"/><!--MD5=[eba1bc73714f08f0da8dc05a139be9c1]
class views.StartView--><rect codeLine="95" fill="#FEFECE" filter="url(#f14e0rvrmasuh9)" height="48" id="views.StartView" style="stroke:#A80036;stroke-width:1.5;" width="89" x="338.5" y="164"/><ellipse cx="353.5" cy="180" fill="#ADD1B2" rx="11" ry="11" style="stroke:#A80036;stroke-width:1.0;"/><path d="M355.8438,175.6719 C354.9063,175.2344 354.3125,175.0938 353.4375,175.0938 C350.8125,175.0938 348.8125,177.1719 348.8125,179.8906 L348.8125,181.0156 C348.8125,183.5938 350.9219,185.4844 353.8125,185.4844 C355.0313,185.4844 356.1875,185.1875 356.9375,184.6406 C357.5156,184.2344 357.8438,183.7813 357.8438,183.3906 C357.8438,182.9375 357.4531,182.5469 356.9844,182.5469 C356.7656,182.5469 356.5625,182.625 356.375,182.8125 C355.9219,183.2969 355.9219,183.2969 355.7344,183.3906 C355.3125,183.6563 354.625,183.7813 353.8594,183.7813 C351.8125,183.7813 350.5156,182.6875 350.5156,180.9844 L350.5156,179.8906 C350.5156,178.1094 351.7656,176.7969 353.5,176.7969 C354.0781,176.7969 354.6875,176.9531 355.1563,177.2031 C355.6406,177.4844 355.8125,177.7031 355.9063,178.1094 C355.9688,178.5156 356,178.6406 356.1406,178.7656 C356.2813,178.9063 356.5156,179.0156 356.7344,179.0156 C357,179.0156 357.2656,178.875 357.4375,178.6563 C357.5469,178.5 357.5781,178.3125 357.5781,177.8906 L357.5781,176.4688 C357.5781,176.0313 357.5625,175.9063 357.4688,175.75 C357.3125,175.4844 357.0313,175.3438 356.7344,175.3438 C356.4375,175.3438 356.2344,175.4375 356.0156,175.75 L355.8438,175.6719 Z " fill="#000000"/><text fill="#000000" font-family="sans-serif" font-size="12" lengthAdjust="spacing" textLength="57" x="367.5" y="184.1543">StartView</text><line style="stroke:#A80036;stroke-width:1.5;" x1="339.5" x2="426.5" y1="196" y2="196"/><line style="stroke:#A80036;stroke-width:1.5;" x1="339.5" x2="426.5" y1="204" y2="204"/><!--MD5=[625ef0ab1f49174a2477f77f78895d5e]
class views.MovementView--><rect codeLine="99" fill="#FEFECE" filter="url(#f14e0rvrmasuh9)" height="48" id="views.MovementView" style="stroke:#A80036;stroke-width:1.5;" width="124" x="40" y="434"/><ellipse cx="55" cy="450" fill="#ADD1B2" rx="11" ry="11" style="stroke:#A80036;stroke-width:1.0;"/><path d="M57.3438,445.6719 C56.4063,445.2344 55.8125,445.0938 54.9375,445.0938 C52.3125,445.0938 50.3125,447.1719 50.3125,449.8906 L50.3125,451.0156 C50.3125,453.5938 52.4219,455.4844 55.3125,455.4844 C56.5313,455.4844 57.6875,455.1875 58.4375,454.6406 C59.0156,454.2344 59.3438,453.7813 59.3438,453.3906 C59.3438,452.9375 58.9531,452.5469 58.4844,452.5469 C58.2656,452.5469 58.0625,452.625 57.875,452.8125 C57.4219,453.2969 57.4219,453.2969 57.2344,453.3906 C56.8125,453.6563 56.125,453.7813 55.3594,453.7813 C53.3125,453.7813 52.0156,452.6875 52.0156,450.9844 L52.0156,449.8906 C52.0156,448.1094 53.2656,446.7969 55,446.7969 C55.5781,446.7969 56.1875,446.9531 56.6563,447.2031 C57.1406,447.4844 57.3125,447.7031 57.4063,448.1094 C57.4688,448.5156 57.5,448.6406 57.6406,448.7656 C57.7813,448.9063 58.0156,449.0156 58.2344,449.0156 C58.5,449.0156 58.7656,448.875 58.9375,448.6563 C59.0469,448.5 59.0781,448.3125 59.0781,447.8906 L59.0781,446.4688 C59.0781,446.0313 59.0625,445.9063 58.9688,445.75 C58.8125,445.4844 58.5313,445.3438 58.2344,445.3438 C57.9375,445.3438 57.7344,445.4375 57.5156,445.75 L57.3438,445.6719 Z " fill="#000000"/><text fill="#000000" font-family="sans-serif" font-size="12" lengthAdjust="spacing" textLength="92" x="69" y="454.1543">MovementView</text><line style="stroke:#A80036;stroke-width:1.5;" x1="41" x2="163" y1="466" y2="466"/><line style="stroke:#A80036;stroke-width:1.5;" x1="41" x2="163" y1="474" y2="474"/><!--MD5=[17c5bd0e327a2997366869d748d685d5]
class views.ColorView--><rect codeLine="103" fill="#FEFECE" filter="url(#f14e0rvrmasuh9)" height="48" id="views.ColorView" style="stroke:#A80036;stroke-width:1.5;" width="93" x="208.5" y="434"/><ellipse cx="223.5" cy="450" fill="#ADD1B2" rx="11" ry="11" style="stroke:#A80036;stroke-width:1.0;"/><path d="M225.8438,445.6719 C224.9063,445.2344 224.3125,445.0938 223.4375,445.0938 C220.8125,445.0938 218.8125,447.1719 218.8125,449.8906 L218.8125,451.0156 C218.8125,453.5938 220.9219,455.4844 223.8125,455.4844 C225.0313,455.4844 226.1875,455.1875 226.9375,454.6406 C227.5156,454.2344 227.8438,453.7813 227.8438,453.3906 C227.8438,452.9375 227.4531,452.5469 226.9844,452.5469 C226.7656,452.5469 226.5625,452.625 226.375,452.8125 C225.9219,453.2969 225.9219,453.2969 225.7344,453.3906 C225.3125,453.6563 224.625,453.7813 223.8594,453.7813 C221.8125,453.7813 220.5156,452.6875 220.5156,450.9844 L220.5156,449.8906 C220.5156,448.1094 221.7656,446.7969 223.5,446.7969 C224.0781,446.7969 224.6875,446.9531 225.1563,447.2031 C225.6406,447.4844 225.8125,447.7031 225.9063,448.1094 C225.9688,448.5156 226,448.6406 226.1406,448.7656 C226.2813,448.9063 226.5156,449.0156 226.7344,449.0156 C227,449.0156 227.2656,448.875 227.4375,448.6563 C227.5469,448.5 227.5781,448.3125 227.5781,447.8906 L227.5781,446.4688 C227.5781,446.0313 227.5625,445.9063 227.4688,445.75 C227.3125,445.4844 227.0313,445.3438 226.7344,445.3438 C226.4375,445.3438 226.2344,445.4375 226.0156,445.75 L225.8438,445.6719 Z " fill="#000000"/><text fill="#000000" font-family="sans-serif" font-size="12" lengthAdjust="spacing" textLength="61" x="237.5" y="454.1543">ColorView</text><line style="stroke:#A80036;stroke-width:1.5;" x1="209.5" x2="300.5" y1="466" y2="466"/><line style="stroke:#A80036;stroke-width:1.5;" x1="209.5" x2="300.5" y1="474" y2="474"/><!--MD5=[692bbdbc7ace692555185cdf9d0c2e06]
class views.Message--><rect codeLine="107" fill="#FEFECE" filter="url(#f14e0rvrmasuh9)" height="48" id="views.Message" style="stroke:#A80036;stroke-width:1.5;" width="87" x="342.5" y="434"/><ellipse cx="357.5" cy="450" fill="#EB937F" rx="11" ry="11" style="stroke:#A80036;stroke-width:1.0;"/><path d="M356.2969,450.875 L357.75,450.875 L357.75,450.9844 C357.75,451.3906 357.7813,451.5469 357.8594,451.7031 C358.0156,451.9531 358.2969,452.1094 358.5938,452.1094 C358.8438,452.1094 359.1094,451.9688 359.2656,451.75 C359.3906,451.5938 359.4219,451.4375 359.4219,450.9844 L359.4219,449.0625 C359.4219,448.9063 359.4219,448.8594 359.4063,448.7031 C359.3438,448.2344 359.0313,447.9219 358.5781,447.9219 C358.3281,447.9219 358.0625,448.0625 357.8906,448.2813 C357.7813,448.4531 357.75,448.6094 357.75,449.0625 L357.75,449.1875 L356.2969,449.1875 L356.2969,446.7813 L360.2813,446.7813 L360.2813,447.6406 C360.2813,448.0469 360.3125,448.2188 360.3906,448.375 C360.5625,448.625 360.8438,448.7813 361.125,448.7813 C361.3906,448.7813 361.6563,448.6406 361.8281,448.4219 C361.9375,448.25 361.9688,448.1094 361.9688,447.6406 L361.9688,445.0938 L354.3438,445.0938 C353.9063,445.0938 353.7813,445.1094 353.625,445.2031 C353.375,445.3594 353.2188,445.6563 353.2188,445.9375 C353.2188,446.2188 353.3594,446.4688 353.5781,446.6406 C353.7344,446.75 353.9219,446.7813 354.3438,446.7813 L354.5938,446.7813 L354.5938,453.2969 L354.3438,453.2969 C353.9375,453.2969 353.7813,453.3125 353.625,453.4219 C353.375,453.5938 353.2188,453.8594 353.2188,454.1563 C353.2188,454.4219 353.3594,454.6719 353.5781,454.8281 C353.7188,454.9531 353.9531,455 354.3438,455 L362.3438,455 L362.3438,452.4219 C362.3438,451.9844 362.3125,451.8438 362.2344,451.6875 C362.0625,451.4375 361.7813,451.2813 361.5,451.2813 C361.2344,451.2813 360.9688,451.3906 360.7969,451.6406 C360.6875,451.7969 360.6563,451.9375 360.6563,452.4219 L360.6563,453.2969 L356.2969,453.2969 L356.2969,450.875 Z " fill="#000000"/><text fill="#000000" font-family="sans-serif" font-size="12" lengthAdjust="spacing" textLength="55" x="371.5" y="454.1543">Message</text><line style="stroke:#A80036;stroke-width:1.5;" x1="343.5" x2="428.5" y1="466" y2="466"/><line style="stroke:#A80036;stroke-width:1.5;" x1="343.5" x2="428.5" y1="474" y2="474"/><!--MD5=[947e6c573c2f2818382a8a631176de9a]
class views.PlayerView--><rect codeLine="111" fill="#FEFECE" filter="url(#f14e0rvrmasuh9)" height="48" id="views.PlayerView" style="stroke:#A80036;stroke-width:1.5;" width="97" x="396.5" y="49"/><ellipse cx="411.5" cy="65" fill="#ADD1B2" rx="11" ry="11" style="stroke:#A80036;stroke-width:1.0;"/><path d="M413.8438,60.6719 C412.9063,60.2344 412.3125,60.0938 411.4375,60.0938 C408.8125,60.0938 406.8125,62.1719 406.8125,64.8906 L406.8125,66.0156 C406.8125,68.5938 408.9219,70.4844 411.8125,70.4844 C413.0313,70.4844 414.1875,70.1875 414.9375,69.6406 C415.5156,69.2344 415.8438,68.7813 415.8438,68.3906 C415.8438,67.9375 415.4531,67.5469 414.9844,67.5469 C414.7656,67.5469 414.5625,67.625 414.375,67.8125 C413.9219,68.2969 413.9219,68.2969 413.7344,68.3906 C413.3125,68.6563 412.625,68.7813 411.8594,68.7813 C409.8125,68.7813 408.5156,67.6875 408.5156,65.9844 L408.5156,64.8906 C408.5156,63.1094 409.7656,61.7969 411.5,61.7969 C412.0781,61.7969 412.6875,61.9531 413.1563,62.2031 C413.6406,62.4844 413.8125,62.7031 413.9063,63.1094 C413.9688,63.5156 414,63.6406 414.1406,63.7656 C414.2813,63.9063 414.5156,64.0156 414.7344,64.0156 C415,64.0156 415.2656,63.875 415.4375,63.6563 C415.5469,63.5 415.5781,63.3125 415.5781,62.8906 L415.5781,61.4688 C415.5781,61.0313 415.5625,60.9063 415.4688,60.75 C415.3125,60.4844 415.0313,60.3438 414.7344,60.3438 C414.4375,60.3438 414.2344,60.4375 414.0156,60.75 L413.8438,60.6719 Z " fill="#000000"/><text fill="#000000" font-family="sans-serif" font-size="12" lengthAdjust="spacing" textLength="65" x="425.5" y="69.1543">PlayerView</text><line style="stroke:#A80036;stroke-width:1.5;" x1="397.5" x2="492.5" y1="81" y2="81"/><line style="stroke:#A80036;stroke-width:1.5;" x1="397.5" x2="492.5" y1="89" y2="89"/><!--MD5=[086790dd88b6dc20f42fdfbd3a0210ab]
class views.CoordinateView--><rect codeLine="115" fill="#FEFECE" filter="url(#f14e0rvrmasuh9)" height="48" id="views.CoordinateView" style="stroke:#A80036;stroke-width:1.5;" width="127" x="174.5" y="542"/><ellipse cx="189.5" cy="558" fill="#ADD1B2" rx="11" ry="11" style="stroke:#A80036;stroke-width:1.0;"/><path d="M191.8438,553.6719 C190.9063,553.2344 190.3125,553.0938 189.4375,553.0938 C186.8125,553.0938 184.8125,555.1719 184.8125,557.8906 L184.8125,559.0156 C184.8125,561.5938 186.9219,563.4844 189.8125,563.4844 C191.0313,563.4844 192.1875,563.1875 192.9375,562.6406 C193.5156,562.2344 193.8438,561.7813 193.8438,561.3906 C193.8438,560.9375 193.4531,560.5469 192.9844,560.5469 C192.7656,560.5469 192.5625,560.625 192.375,560.8125 C191.9219,561.2969 191.9219,561.2969 191.7344,561.3906 C191.3125,561.6563 190.625,561.7813 189.8594,561.7813 C187.8125,561.7813 186.5156,560.6875 186.5156,558.9844 L186.5156,557.8906 C186.5156,556.1094 187.7656,554.7969 189.5,554.7969 C190.0781,554.7969 190.6875,554.9531 191.1563,555.2031 C191.6406,555.4844 191.8125,555.7031 191.9063,556.1094 C191.9688,556.5156 192,556.6406 192.1406,556.7656 C192.2813,556.9063 192.5156,557.0156 192.7344,557.0156 C193,557.0156 193.2656,556.875 193.4375,556.6563 C193.5469,556.5 193.5781,556.3125 193.5781,555.8906 L193.5781,554.4688 C193.5781,554.0313 193.5625,553.9063 193.4688,553.75 C193.3125,553.4844 193.0313,553.3438 192.7344,553.3438 C192.4375,553.3438 192.2344,553.4375 192.0156,553.75 L191.8438,553.6719 Z " fill="#000000"/><text fill="#000000" font-family="sans-serif" font-size="12" lengthAdjust="spacing" textLength="95" x="203.5" y="562.1543">CoordinateView</text><line style="stroke:#A80036;stroke-width:1.5;" x1="175.5" x2="300.5" y1="574" y2="574"/><line style="stroke:#A80036;stroke-width:1.5;" x1="175.5" x2="300.5" y1="582" y2="582"/><!--MD5=[280d60b3a1c00403d47604559a33a076]
class views.MenuView--><rect codeLine="119" fill="#FEFECE" filter="url(#f14e0rvrmasuh9)" height="48" id="views.MenuView" style="stroke:#A80036;stroke-width:1.5;" width="93" x="40.5" y="279"/><ellipse cx="55.5" cy="295" fill="#ADD1B2" rx="11" ry="11" style="stroke:#A80036;stroke-width:1.0;"/><path d="M57.8438,290.6719 C56.9063,290.2344 56.3125,290.0938 55.4375,290.0938 C52.8125,290.0938 50.8125,292.1719 50.8125,294.8906 L50.8125,296.0156 C50.8125,298.5938 52.9219,300.4844 55.8125,300.4844 C57.0313,300.4844 58.1875,300.1875 58.9375,299.6406 C59.5156,299.2344 59.8438,298.7813 59.8438,298.3906 C59.8438,297.9375 59.4531,297.5469 58.9844,297.5469 C58.7656,297.5469 58.5625,297.625 58.375,297.8125 C57.9219,298.2969 57.9219,298.2969 57.7344,298.3906 C57.3125,298.6563 56.625,298.7813 55.8594,298.7813 C53.8125,298.7813 52.5156,297.6875 52.5156,295.9844 L52.5156,294.8906 C52.5156,293.1094 53.7656,291.7969 55.5,291.7969 C56.0781,291.7969 56.6875,291.9531 57.1563,292.2031 C57.6406,292.4844 57.8125,292.7031 57.9063,293.1094 C57.9688,293.5156 58,293.6406 58.1406,293.7656 C58.2813,293.9063 58.5156,294.0156 58.7344,294.0156 C59,294.0156 59.2656,293.875 59.4375,293.6563 C59.5469,293.5 59.5781,293.3125 59.5781,292.8906 L59.5781,291.4688 C59.5781,291.0313 59.5625,290.9063 59.4688,290.75 C59.3125,290.4844 59.0313,290.3438 58.7344,290.3438 C58.4375,290.3438 58.2344,290.4375 58.0156,290.75 L57.8438,290.6719 Z " fill="#000000"/><text fill="#000000" font-family="sans-serif" font-size="12" lengthAdjust="spacing" textLength="61" x="69.5" y="299.1543">MenuView</text><line style="stroke:#A80036;stroke-width:1.5;" x1="41.5" x2="132.5" y1="311" y2="311"/><line style="stroke:#A80036;stroke-width:1.5;" x1="41.5" x2="132.5" y1="319" y2="319"/><!--MD5=[eb005d1f9ef1a536a9bf8853c8f91c5b]
class views.OpenView--><rect codeLine="123" fill="#FEFECE" filter="url(#f14e0rvrmasuh9)" height="48" id="views.OpenView" style="stroke:#A80036;stroke-width:1.5;" width="94" x="339" y="279"/><ellipse cx="354" cy="295" fill="#ADD1B2" rx="11" ry="11" style="stroke:#A80036;stroke-width:1.0;"/><path d="M356.3438,290.6719 C355.4063,290.2344 354.8125,290.0938 353.9375,290.0938 C351.3125,290.0938 349.3125,292.1719 349.3125,294.8906 L349.3125,296.0156 C349.3125,298.5938 351.4219,300.4844 354.3125,300.4844 C355.5313,300.4844 356.6875,300.1875 357.4375,299.6406 C358.0156,299.2344 358.3438,298.7813 358.3438,298.3906 C358.3438,297.9375 357.9531,297.5469 357.4844,297.5469 C357.2656,297.5469 357.0625,297.625 356.875,297.8125 C356.4219,298.2969 356.4219,298.2969 356.2344,298.3906 C355.8125,298.6563 355.125,298.7813 354.3594,298.7813 C352.3125,298.7813 351.0156,297.6875 351.0156,295.9844 L351.0156,294.8906 C351.0156,293.1094 352.2656,291.7969 354,291.7969 C354.5781,291.7969 355.1875,291.9531 355.6563,292.2031 C356.1406,292.4844 356.3125,292.7031 356.4063,293.1094 C356.4688,293.5156 356.5,293.6406 356.6406,293.7656 C356.7813,293.9063 357.0156,294.0156 357.2344,294.0156 C357.5,294.0156 357.7656,293.875 357.9375,293.6563 C358.0469,293.5 358.0781,293.3125 358.0781,292.8906 L358.0781,291.4688 C358.0781,291.0313 358.0625,290.9063 357.9688,290.75 C357.8125,290.4844 357.5313,290.3438 357.2344,290.3438 C356.9375,290.3438 356.7344,290.4375 356.5156,290.75 L356.3438,290.6719 Z " fill="#000000"/><text fill="#000000" font-family="sans-serif" font-size="12" lengthAdjust="spacing" textLength="62" x="368" y="299.1543">OpenView</text><line style="stroke:#A80036;stroke-width:1.5;" x1="340" x2="432" y1="311" y2="311"/><line style="stroke:#A80036;stroke-width:1.5;" x1="340" x2="432" y1="319" y2="319"/><!--MD5=[5fb6404b27f4ef9dcdf9d19c88664cd6]
class views.SaveView--><rect codeLine="127" fill="#FEFECE" filter="url(#f14e0rvrmasuh9)" height="48" id="views.SaveView" style="stroke:#A80036;stroke-width:1.5;" width="91" x="462.5" y="164"/><ellipse cx="477.5" cy="180" fill="#ADD1B2" rx="11" ry="11" style="stroke:#A80036;stroke-width:1.0;"/><path d="M479.8438,175.6719 C478.9063,175.2344 478.3125,175.0938 477.4375,175.0938 C474.8125,175.0938 472.8125,177.1719 472.8125,179.8906 L472.8125,181.0156 C472.8125,183.5938 474.9219,185.4844 477.8125,185.4844 C479.0313,185.4844 480.1875,185.1875 480.9375,184.6406 C481.5156,184.2344 481.8438,183.7813 481.8438,183.3906 C481.8438,182.9375 481.4531,182.5469 480.9844,182.5469 C480.7656,182.5469 480.5625,182.625 480.375,182.8125 C479.9219,183.2969 479.9219,183.2969 479.7344,183.3906 C479.3125,183.6563 478.625,183.7813 477.8594,183.7813 C475.8125,183.7813 474.5156,182.6875 474.5156,180.9844 L474.5156,179.8906 C474.5156,178.1094 475.7656,176.7969 477.5,176.7969 C478.0781,176.7969 478.6875,176.9531 479.1563,177.2031 C479.6406,177.4844 479.8125,177.7031 479.9063,178.1094 C479.9688,178.5156 480,178.6406 480.1406,178.7656 C480.2813,178.9063 480.5156,179.0156 480.7344,179.0156 C481,179.0156 481.2656,178.875 481.4375,178.6563 C481.5469,178.5 481.5781,178.3125 481.5781,177.8906 L481.5781,176.4688 C481.5781,176.0313 481.5625,175.9063 481.4688,175.75 C481.3125,175.4844 481.0313,175.3438 480.7344,175.3438 C480.4375,175.3438 480.2344,175.4375 480.0156,175.75 L479.8438,175.6719 Z " fill="#000000"/><text fill="#000000" font-family="sans-serif" font-size="12" lengthAdjust="spacing" textLength="59" x="491.5" y="184.1543">SaveView</text><line style="stroke:#A80036;stroke-width:1.5;" x1="463.5" x2="552.5" y1="196" y2="196"/><line style="stroke:#A80036;stroke-width:1.5;" x1="463.5" x2="552.5" y1="204" y2="204"/><!--MD5=[6bfde5656e7ece32836aeea1e9e8a819]
link controllers to models--><path d="M2001.177,189.0453 C2001.3256,189.0469 2001.4759,189.0486 2001.6281,189.0503 C2006.4971,189.1059 2013.2148,189.2209 2021.2283,189.4565 C2037.2553,189.9279 2058.4656,190.8821 2080.4362,192.8105 C2124.3775,196.6673 2171.36,204.4205 2186,220 C2189.0363,223.2311 2191.4545,226.8821 2193.36,230.804 C2193.8363,231.7844 2194.2807,232.7818 2194.6946,233.7938 C2194.9015,234.2998 2195.1009,234.8094 2195.2928,235.3224 C2195.3408,235.4507 2195.3883,235.5791 2195.4354,235.7078 " fill="none" id="controllers-to-models" style="stroke:#A80036;stroke-width:1.0;stroke-dasharray:7.0,7.0;"/><polygon fill="#A80036" points="2195.4354,235.7078,2196.1,225.8814,2193.7177,231.0121,2188.587,228.6297,2195.4354,235.7078" style="stroke:#A80036;stroke-width:1.0;"/><!--MD5=[9da2d375dc0417b2d3724b966d4c0d45]
link models to types--><path d="M2202.0643,326.0326 C2202.1414,326.2432 2202.2189,326.455 2202.2968,326.6679 C2202.6085,327.5195 2202.9269,328.3892 2203.2514,329.2758 C2208.4441,343.4621 2215.2281,361.9963 2222.0113,380.5283 C2228.7944,399.0603 2235.5766,417.5901 2240.7655,431.7676 C2241.0898,432.6537 2241.4079,433.5227 2241.7193,434.3738 C2241.7972,434.5865 2241.8747,434.7982 2241.9517,435.0086 " fill="none" id="models-to-types" style="stroke:#A80036;stroke-width:1.0;stroke-dasharray:7.0,7.0;"/><polygon fill="#A80036" points="2241.9517,435.0086,2242.6147,425.1821,2240.2332,430.3132,2235.1021,427.9317,2241.9517,435.0086" style="stroke:#A80036;stroke-width:1.0;"/><!--MD5=[fd4dadafb7dfafd89665a9151015bafc]
link views to controllers--><path d="M684.1344,74.0419 C684.5789,74.0442 685.0411,74.0467 685.5207,74.0493 C687.4393,74.0596 689.6374,74.0716 692.1055,74.0853 C701.9778,74.1401 716.1694,74.2223 734.0679,74.3347 C769.8649,74.5597 820.4894,74.9058 881.0423,75.3969 C1002.148,76.379 1162.9669,77.9408 1324.3045,80.2716 C1646.9798,84.9332 1971.73,92.671 1985,105 C1988.2488,108.018 1990.828,111.5075 1992.8522,115.3101 C1993.3582,116.2607 1993.8296,117.2309 1994.268,118.2182 C1994.4873,118.7118 1994.6983,119.2098 1994.9013,119.7116 C1995.0028,119.9626 1995.1023,120.2145 1995.1998,120.4674 C1995.2486,120.5938 1995.2969,120.7205 1995.3446,120.8474 " fill="none" id="views-to-controllers" style="stroke:#A80036;stroke-width:1.0;stroke-dasharray:7.0,7.0;"/><polygon fill="#A80036" points="1995.3446,120.8474,1995.917,111.0152,1993.5829,116.1681,1988.43,113.834,1995.3446,120.8474" style="stroke:#A80036;stroke-width:1.0;"/><!--MD5=[a47103ae2ffafd08434d69e1e4d1349a]
link views to types--><path d="M684.8517,73.9408 C686.6372,73.9293 688.6837,73.9164 690.9826,73.9024 C700.1782,73.8461 713.4131,73.7706 730.1476,73.6898 C763.6164,73.5281 811.083,73.345 868.2276,73.2508 C982.5169,73.0624 1135.5183,73.2298 1292.6741,74.6357 C1606.9857,77.4477 1937.915,85.2145 2009,105 C2108.15,132.598 2151.11,135.591 2210,220 C2240.085,263.12 2250.245,321.2068 2252.8062,369.0815 C2253.1264,375.0658 2253.3278,380.8906 2253.4346,386.5067 C2253.4613,387.9107 2253.4821,389.3016 2253.4973,390.6788 " fill="none" id="views-to-types" style="stroke:#A80036;stroke-width:1.0;stroke-dasharray:7.0,7.0;"/><polygon fill="#A80036" points="2253.4973,390.6788,2257.3975,381.6351,2253.442,385.6791,2249.398,381.7236,2253.4973,390.6788" style="stroke:#A80036;stroke-width:1.0;"/><!--MD5=[c5811be28ca2b32efdddcb59764d8c2d]
link views.PlayView to views.MenuView--><path codeLine="131" d="M171.623,212.085 C167.929,214.614 164.331,217.267 161,220 C141.32,236.147 122.152,257.597 108.257,274.509 " fill="none" id="views.PlayView-to-views.MenuView" style="stroke:#A80036;stroke-width:1.0;stroke-dasharray:7.0,7.0;"/><polygon fill="#A80036" points="104.841,278.705,113.6248,274.2503,107.9975,274.8273,107.4204,269.1999,104.841,278.705" style="stroke:#A80036;stroke-width:1.0;"/><!--MD5=[67c5dbc5f258340ee2b7aaadfd6765aa]
link views.PlayerView to views.StartView--><path codeLine="132" d="M426.531,107.6601 C426.531,107.6601 409.638,138.449 402.022,152.331 " fill="none" id="views.PlayerView-views.StartView" style="stroke:#A80036;stroke-width:1.0;"/><polygon fill="#A80036" points="395.679,163.891,403.5154,157.9253,398.0844,159.5076,396.5021,154.0766,395.679,163.891" style="stroke:#A80036;stroke-width:1.0;"/><line style="stroke:#A80036;stroke-width:1.0;" x1="398.0844" x2="401.933" y1="159.5076" y2="152.494"/><polygon fill="#A80036" points="432.304,97.14,425.9108,100.4757,426.531,107.6601,432.9242,104.3244,432.304,97.14" style="stroke:#A80036;stroke-width:1.0;"/><!--MD5=[9911ff4f94ad66318e9363318070f9b5]
link views.PlayerView to views.PlayView--><path codeLine="133" d="M384.6028,83.9817 C384.6028,83.9817 340.46,95.667 321,105 C294.066,117.917 267.301,138.174 247.153,155.321 " fill="none" id="views.PlayerView-views.PlayView" style="stroke:#A80036;stroke-width:1.0;"/><polygon fill="#A80036" points="237.254,163.949,246.6669,161.0511,241.0233,160.6638,241.4105,155.0202,237.254,163.949" style="stroke:#A80036;stroke-width:1.0;"/><line style="stroke:#A80036;stroke-width:1.0;" x1="241.0233" x2="247.0535" y1="160.6638" y2="155.407"/><polygon fill="#A80036" points="396.331,81.442,389.6203,78.8025,384.6028,83.9817,391.3135,86.6213,396.331,81.442" style="stroke:#A80036;stroke-width:1.0;"/><!--MD5=[ebea6b3e947d8b3c55735d694b4eb772]
link views.PlayerView to views.ResumeView--><path codeLine="134" d="M505.4397,97.6404 C505.4397,97.6404 561.34,95.565 571,105 C613.514,146.525 610.584,221.371 604.12,265.889 " fill="none" id="views.PlayerView-views.ResumeView" style="stroke:#A80036;stroke-width:1.0;"/><polygon fill="#A80036" points="601.998,278.928,607.3919,270.6875,602.8013,273.9929,599.4959,269.4023,601.998,278.928" style="stroke:#A80036;stroke-width:1.0;"/><line style="stroke:#A80036;stroke-width:1.0;" x1="602.8013" x2="604.086" y1="273.9929" y2="266.097"/><polygon fill="#A80036" points="493.55,96.017,498.9537,100.7919,505.4397,97.6404,500.036,92.8654,493.55,96.017" style="stroke:#A80036;stroke-width:1.0;"/><!--MD5=[49dfe96bd1a760601edf5e80ab8667f3]
link views.PlayerView to views.SaveView--><path codeLine="135" d="M463.7437,107.6215 C463.7437,107.6215 480.932,138.449 488.671,152.331 " fill="none" id="views.PlayerView-views.SaveView" style="stroke:#A80036;stroke-width:1.0;"/><polygon fill="#A80036" points="495.116,163.891,494.2273,154.0823,492.6813,159.5238,487.2398,157.9778,495.116,163.891" style="stroke:#A80036;stroke-width:1.0;"/><line style="stroke:#A80036;stroke-width:1.0;" x1="492.6813" x2="488.786" y1="159.5238" y2="152.5365"/><polygon fill="#A80036" points="457.901,97.14,457.3285,104.3283,463.7437,107.6215,464.3162,100.4332,457.901,97.14" style="stroke:#A80036;stroke-width:1.0;"/><!--MD5=[8507262084d539f4882e2752de5479e8]
link views.StartView to views.Message--><path codeLine="136" d="M427.666,201.077 C436.506,205.567 444.685,211.685 450,220 C485.186,275.049 469.873,304.762 450,367 C442.527,390.404 426.5,412.928 412.355,429.589 " fill="none" id="views.StartView-to-views.Message" style="stroke:#A80036;stroke-width:1.0;stroke-dasharray:7.0,7.0;"/><polygon fill="#A80036" points="408.805,433.695,417.7168,429.5021,412.0748,429.9124,411.6645,424.2704,408.805,433.695" style="stroke:#A80036;stroke-width:1.0;"/><!--MD5=[f8711620e46a9bb12c4eb5ecbbdd55f6]
link views.StartView to views.OpenView--><path codeLine="137" d="M383.614,212.14 C384.088,229.964 384.744,254.69 385.248,273.693 " fill="none" id="views.StartView-to-views.OpenView" style="stroke:#A80036;stroke-width:1.0;stroke-dasharray:7.0,7.0;"/><polygon fill="#A80036" points="385.386,278.891,389.1455,269.7879,385.2532,273.8928,381.1483,270.0005,385.386,278.891" style="stroke:#A80036;stroke-width:1.0;"/><!--MD5=[b44b9a3b0941b0b317b70a2927659d27]
link views.OpenView to views.Message--><path codeLine="138" d="M386,327.237 C386,354.31 386,399.049 386,428.275 " fill="none" id="views.OpenView-to-views.Message" style="stroke:#A80036;stroke-width:1.0;stroke-dasharray:7.0,7.0;"/><polygon fill="#A80036" points="386,433.544,390,424.544,386,428.544,382,424.544,386,433.544" style="stroke:#A80036;stroke-width:1.0;"/><!--MD5=[c6d9307e5a48d0ef6c3bbd85a6f2c2b4]
link views.SaveView to views.Message--><path codeLine="139" d="M506.975,212.238 C504.578,247.552 496.589,316.005 470,367 C457.322,391.314 436.254,413.863 418.39,430.308 " fill="none" id="views.SaveView-to-views.Message" style="stroke:#A80036;stroke-width:1.0;stroke-dasharray:7.0,7.0;"/><polygon fill="#A80036" points="414.396,433.933,423.7483,430.8454,418.0981,430.5723,418.3712,424.922,414.396,433.933" style="stroke:#A80036;stroke-width:1.0;"/><!--MD5=[1b8a73df775c8bac903591bf669c8c66]
link views.StartView to views.BoardView--><path codeLine="140" d="M338.21,208.455 C332.166,211.909 326.247,215.771 321,220 C301.849,235.435 284.592,257.306 272.531,274.579 " fill="none" id="views.StartView-to-views.BoardView" style="stroke:#A80036;stroke-width:1.0;stroke-dasharray:7.0,7.0;"/><polygon fill="#A80036" points="269.579,278.865,277.9783,273.7219,272.4152,274.7472,271.3899,269.184,269.579,278.865" style="stroke:#A80036;stroke-width:1.0;"/><!--MD5=[ebadaef8e2bbd4ba1e726984e015cfbe]
link views.BoardView to views.ColorView--><path codeLine="141" d="M255,327.237 C255,354.31 255,399.049 255,428.275 " fill="none" id="views.BoardView-to-views.ColorView" style="stroke:#A80036;stroke-width:1.0;stroke-dasharray:7.0,7.0;"/><polygon fill="#A80036" points="255,433.544,259,424.544,255,428.544,251,424.544,255,433.544" style="stroke:#A80036;stroke-width:1.0;"/><!--MD5=[095a9e8630f04b2395f4481b19b8906e]
link views.BoardView to views.Message--><path codeLine="142" d="M276.33,327.091 C288.915,340.854 305.057,358.756 319,375 C334.454,393.004 351.355,413.696 364.316,429.79 " fill="none" id="views.BoardView-to-views.Message" style="stroke:#A80036;stroke-width:1.0;stroke-dasharray:7.0,7.0;"/><polygon fill="#A80036" points="367.523,433.778,365,424.2578,364.3896,429.8816,358.7658,429.2712,367.523,433.778" style="stroke:#A80036;stroke-width:1.0;"/><!--MD5=[f9d7272086e8e62f4b793c0eb33c0b4b]
link views.PlayView to views.Message--><path codeLine="143" d="M192.665,212.1 C191.192,214.643 189.925,217.295 189,220 C167.866,281.821 144.244,319.405 189,367 C198.914,377.543 306.121,368.4 319,375 C341.925,386.749 359.827,410.204 371.336,429.03 " fill="none" id="views.PlayView-to-views.Message" style="stroke:#A80036;stroke-width:1.0;stroke-dasharray:7.0,7.0;"/><polygon fill="#A80036" points="374.124,433.706,372.9513,423.9272,371.5637,429.4112,366.0797,428.0237,374.124,433.706" style="stroke:#A80036;stroke-width:1.0;"/><!--MD5=[a9b9099bd570987dc5af9f0e9221dc51]
link views.PlayView to views.BoardView--><path codeLine="144" d="M221.601,212.14 C228.282,230.116 237.573,255.113 244.66,274.179 " fill="none" id="views.PlayView-to-views.BoardView" style="stroke:#A80036;stroke-width:1.0;stroke-dasharray:7.0,7.0;"/><polygon fill="#A80036" points="246.411,278.891,247.0261,269.0614,244.6696,274.204,239.527,271.8476,246.411,278.891" style="stroke:#A80036;stroke-width:1.0;"/><!--MD5=[e7feb43a398a066f104696f593d6a99e]
link views.MenuView to views.MovementView--><path codeLine="145" d="M89.2782,327.237 C91.9323,354.31 96.318,399.049 99.184,428.275 " fill="none" id="views.MenuView-to-views.MovementView" style="stroke:#A80036;stroke-width:1.0;stroke-dasharray:7.0,7.0;"/><polygon fill="#A80036" points="99.7,433.544,102.8014,424.1962,99.2114,428.5679,94.8397,424.978,99.7,433.544" style="stroke:#A80036;stroke-width:1.0;"/><!--MD5=[10596a91828e477a3125b8bcff20f0cc]
link views.MenuView to views.Message--><path codeLine="146" d="M106.779,327.285 C120.409,341.535 139.83,358.595 161,367 C193.675,379.973 287.627,359.136 319,375 C341.989,386.624 359.885,410.091 371.376,428.953 " fill="none" id="views.MenuView-to-views.Message" style="stroke:#A80036;stroke-width:1.0;stroke-dasharray:7.0,7.0;"/><polygon fill="#A80036" points="374.158,433.639,373.0016,423.8583,371.6049,429.34,366.1232,427.9433,374.158,433.639" style="stroke:#A80036;stroke-width:1.0;"/><!--MD5=[bc8a2baa650750752d6e88c509172a1c]
link views.MovementView to views.ErrorView--><path codeLine="147" d="M100.264,482 C99.056,498.003 97.438,519.446 96.149,536.528 " fill="none" id="views.MovementView-to-views.ErrorView" style="stroke:#A80036;stroke-width:1.0;stroke-dasharray:7.0,7.0;"/><polygon fill="#A80036" points="95.76,541.678,100.4248,533.0039,96.1356,536.6921,92.4474,532.4029,95.76,541.678" style="stroke:#A80036;stroke-width:1.0;"/><!--MD5=[43dd04138dcca8bbc729df36fdc1a987]
link views.ResumeView to views.Message--><path codeLine="148" d="M567.643,327.076 C552.121,339.144 532.67,354.059 515,367 C484.906,389.04 450.2,413.184 424.371,430.911 " fill="none" id="views.ResumeView-to-views.Message" style="stroke:#A80036;stroke-width:1.0;stroke-dasharray:7.0,7.0;"/><polygon fill="#A80036" points="419.98,433.922,429.6645,432.1304,424.1034,431.094,425.1398,425.5329,419.98,433.922" style="stroke:#A80036;stroke-width:1.0;"/><!--MD5=[520b71290d2efd547a67b9a059ddf5cb]
link views.MovementView to views.CoordinateView--><path codeLine="149" d="M131.51,482 C152.838,498.624 181.698,521.118 203.995,538.496 " fill="none" id="views.MovementView-to-views.CoordinateView" style="stroke:#A80036;stroke-width:1.0;stroke-dasharray:7.0,7.0;"/><polygon fill="#A80036" points="208.078,541.678,203.4366,532.9914,204.1337,538.6051,198.52,539.3023,208.078,541.678" style="stroke:#A80036;stroke-width:1.0;"/><!--MD5=[ef8c05d66c4b2b1e5a781c7196559dad]
reverse link controllers.Controller to controllers.StartController--><path codeLine="151" d="M1416.13,213.155 C1480.07,216.581 1649.64,209.035 1674,220 C1701.25,232.266 1723.43,259.16 1736.87,278.816 " fill="none" id="controllers.Controller-backto-controllers.StartController" style="stroke:#A80036;stroke-width:1.0;"/><polygon fill="none" points="1415.27,220.103,1396.15,210.983,1416.78,206.185,1415.27,220.103" style="stroke:#A80036;stroke-width:1.0;"/><!--MD5=[cd97b32f8cd0eecd774161c5480ca0be]
reverse link controllers.Controller to controllers.PlayController--><path codeLine="152" d="M1377.27,229.118 C1388.2,245.804 1400.49,264.577 1409.87,278.891 " fill="none" id="controllers.Controller-backto-controllers.PlayController" style="stroke:#A80036;stroke-width:1.0;"/><polygon fill="none" points="1371.25,232.706,1366.15,212.14,1382.97,225.037,1371.25,232.706" style="stroke:#A80036;stroke-width:1.0;"/><!--MD5=[8b121a2dc1d192ba5b71e05f14e3e1fc]
reverse link controllers.Controller to controllers.ResumeController--><path codeLine="153" d="M1415.93,214.544 C1448.24,217.679 1464.92,204.97 1499,220 C1528.04,232.809 1553.62,259.315 1569.61,278.738 " fill="none" id="controllers.Controller-backto-controllers.ResumeController" style="stroke:#A80036;stroke-width:1.0;"/><polygon fill="none" points="1414.56,221.409,1396.17,210.895,1417.11,207.642,1414.56,221.409" style="stroke:#A80036;stroke-width:1.0;"/><!--MD5=[ac6216610106df8653a0bdb9b1c5556b]
reverse link controllers.Controller to controllers.UndoController--><path codeLine="154" d="M1416.28,212.638 C1501.29,216.1 1808.54,211.512 1828,220 C1855.72,232.094 1878.53,259.021 1892.39,278.732 " fill="none" id="controllers.Controller-backto-controllers.UndoController" style="stroke:#A80036;stroke-width:1.0;"/><polygon fill="none" points="1415.51,219.598,1396.14,211.001,1416.64,205.644,1415.51,219.598" style="stroke:#A80036;stroke-width:1.0;"/><!--MD5=[6dd0cf0e356f363ae1914a7a2b11d4f3]
reverse link controllers.Controller to controllers.RedoController--><path codeLine="155" d="M1285.62,190.774 C1166.5,194.387 923.099,203.671 888,220 C860.756,232.674 838.014,259.206 824.032,278.671 " fill="none" id="controllers.Controller-backto-controllers.RedoController" style="stroke:#A80036;stroke-width:1.0;"/><polygon fill="none" points="1285.46,183.775,1305.66,190.184,1285.88,197.769,1285.46,183.775" style="stroke:#A80036;stroke-width:1.0;"/><!--MD5=[498f486c86c90de7517ead4cddc58d14]
reverse link controllers.Controller to controllers.ExitController--><path codeLine="156" d="M1324.73,229.118 C1313.8,245.804 1301.51,264.577 1292.13,278.891 " fill="none" id="controllers.Controller-backto-controllers.ExitController" style="stroke:#A80036;stroke-width:1.0;"/><polygon fill="none" points="1319.03,225.037,1335.85,212.14,1330.75,232.706,1319.03,225.037" style="stroke:#A80036;stroke-width:1.0;"/><!--MD5=[c87151417def0ba02ac594fe4a4b8864]
reverse link controllers.Controller to controllers.SaveController--><path codeLine="157" d="M1285.45,190.322 C1208.19,192.794 1085.11,199.859 1044,220 C1017.18,233.138 994.71,259.583 980.881,278.901 " fill="none" id="controllers.Controller-backto-controllers.SaveController" style="stroke:#A80036;stroke-width:1.0;"/><polygon fill="none" points="1285.73,183.312,1305.92,189.74,1286.12,197.306,1285.73,183.312" style="stroke:#A80036;stroke-width:1.0;"/><!--MD5=[3f69ee73c865a3817a89de13e067a8a0]
reverse link controllers.Controller to controllers.OpenController--><path codeLine="158" d="M1285.73,194.175 C1258.83,198.413 1228.14,206.095 1203,220 C1177.05,234.352 1154.39,260.038 1140.07,278.848 " fill="none" id="controllers.Controller-backto-controllers.OpenController" style="stroke:#A80036;stroke-width:1.0;"/><polygon fill="none" points="1285.11,187.196,1305.86,191.51,1286.95,201.075,1285.11,187.196" style="stroke:#A80036;stroke-width:1.0;"/><!--MD5=[f59d5386026bb4a52ecda18ff7a4c496]
link models.Game to models.Turn--><path codeLine="160" d="M2116.8204,339.1257 C2116.8204,339.1257 2124.68,396.38 2128,420.605 " fill="none" id="models.Game-models.Turn" style="stroke:#A80036;stroke-width:1.0;"/><polygon fill="#A80036" points="2129.78,433.544,2132.5201,424.084,2129.1007,428.5904,2124.5943,425.1709,2129.78,433.544" style="stroke:#A80036;stroke-width:1.0;"/><line style="stroke:#A80036;stroke-width:1.0;" x1="2129.1007" x2="2128.01" y1="428.5904" y2="420.6645"/><polygon fill="#A80036" points="2115.19,327.237,2112.0423,333.7248,2116.8204,339.1257,2119.9681,332.6379,2115.19,327.237" style="stroke:#A80036;stroke-width:1.0;"/><!--MD5=[d4d2321dd53b51862935e01c3c028505]
link models.Game to models.Board--><path codeLine="161" d="M2096.8201,338.2494 C2096.8201,338.2494 2088.18,363.122 2086,375 C2065.54,486.475 2047.57,522.679 2084,630 C2085,632.932 2086.28,635.821 2087.76,638.629 " fill="none" id="models.Game-models.Board" style="stroke:#A80036;stroke-width:1.0;"/><polygon fill="#A80036" points="2094.75,649.6238,2093.3011,639.8821,2092.0693,645.4032,2086.5482,644.1713,2094.75,649.6238" style="stroke:#A80036;stroke-width:1.0;"/><line style="stroke:#A80036;stroke-width:1.0;" x1="2092.0693" x2="2087.78" y1="645.4032" y2="638.65"/><polygon fill="#A80036" points="2101.27,327.105,2095.3303,331.1939,2096.8201,338.2494,2102.7599,334.1605,2101.27,327.105" style="stroke:#A80036;stroke-width:1.0;"/><!--MD5=[58201eb69d9a19662cac6d4497ced9d6]
link models.Turn to models.Player--><path codeLine="162" d="M2133.9901,493.9952 C2133.9901,493.9952 2134.66,517.677 2134.96,528.364 " fill="none" id="models.Turn-models.Player" style="stroke:#A80036;stroke-width:1.0;"/><polygon fill="#A80036" points="2135.34,541.678,2139.0843,532.5687,2135.1988,536.68,2131.0875,532.7945,2135.34,541.678" style="stroke:#A80036;stroke-width:1.0;"/><line style="stroke:#A80036;stroke-width:1.0;" x1="2135.1988" x2="2134.97" y1="536.68" y2="528.6835"/><polygon fill="#A80036" points="2133.65,482,2129.8216,488.111,2133.9901,493.9952,2137.8184,487.8842,2133.65,482" style="stroke:#A80036;stroke-width:1.0;"/><!--MD5=[bdba57f5dc648df4d8ec19013df38583]
link models.Player to models.Board--><path codeLine="163" d="M2131.88,590 C2129.01,606.003 2125.17,627.446 2122.1,644.528 " fill="none" id="models.Player-to-models.Board" style="stroke:#A80036;stroke-width:1.0;"/><polygon fill="#A80036" points="2121.18,649.6784,2126.7042,641.5247,2122.0616,644.7567,2118.8296,640.1141,2121.18,649.6784" style="stroke:#A80036;stroke-width:1.0;"/><!--MD5=[db4a842cdc949c7b7958a8c15140a76e]
link types.Coordinate to types.Color--><!--MD5=[076156e6f82886af7dd5e93bd4b33197]
link types.Coordinate to types.Error--><!--MD5=[1e0ed2abf36323a2689a2048e9f0efcf]
@startuml
package controllers  { }


package models  { }

package types  { }


package views { }
controllers .down.> models
models .down.> types
views .up.> controllers
views .up.> types

class  models.Board{

}

class  models.Game{

}

class  models.Player{

}

class  models.Turn{

}

class  types.Coordinate{

}

enum  types.Color{

}

enum  types.Error{

}

abstract class  controllers.Controller{

}

class  controllers.PlayController{

}

class  controllers.ResumeController{

}

class  controllers.StartController{

}

class  controllers.UndoController{

}

class  controllers.RedoController{

}

class  controllers.SaveController{

}

class  controllers.OpenController{

}

class  controllers.ExitController{

}

class  views.BoardView{

}

class  views.ErrorView{

}

class  views.PlayView{

}

class  views.ResumeView{

}

class views.StartView{

}

class  views.MovementView{

}

class  views.ColorView{

}

enum  views.Message{

}

class  views.PlayerView{

}

class views.CoordinateView {

}

class views.MenuView {

}

class views.OpenView {

}

class views.SaveView {

}

views.PlayView ..> views.MenuView
views.PlayerView *-down-> views.StartView
views.PlayerView *-down-> views.PlayView
views.PlayerView *-down-> views.ResumeView
views.PlayerView *-down-> views.SaveView
views.StartView ..> views.Message
views.StartView ..> views.OpenView
views.OpenView ..> views.Message
views.SaveView ..> views.Message
views.StartView ..> views.BoardView
views.BoardView ..> views.ColorView
views.BoardView ..> views.Message
views.PlayView ..> views.Message
views.PlayView ..> views.BoardView
views.MenuView ..> views.MovementView
views.MenuView ..> views.Message
views.MovementView ..> views.ErrorView
views.ResumeView ..> views.Message
views.MovementView ..> views.CoordinateView

controllers.Controller <|- - controllers.StartController
controllers.Controller <|- - controllers.PlayController
controllers.Controller <|- - controllers.ResumeController
controllers.Controller <|- - controllers.UndoController
controllers.Controller <|- - controllers.RedoController
controllers.Controller <|- - controllers.ExitController
controllers.Controller <|- - controllers.SaveController
controllers.Controller <|- - controllers.OpenController

models.Game *-down-> models.Turn
models.Game *-down-> models.Board
models.Turn *-down-> models.Player
models.Player - -> models.Board
@enduml

PlantUML version 1.2021.4beta3(Unknown compile time)
(GPL source distribution)
Java Runtime: Java(TM) SE Runtime Environment
JVM: Java HotSpot(TM) 64-Bit Server VM
Default Encoding: UTF-8
Language: en
Country: US
--></g></svg>