<?xml version="1.0" encoding="UTF-8" standalone="no"?><svg xmlns="http://www.w3.org/2000/svg" xmlns:xlink="http://www.w3.org/1999/xlink" contentScriptType="application/ecmascript" contentStyleType="text/css" height="729px" preserveAspectRatio="none" style="width:1893px;height:729px;" version="1.1" viewBox="0 0 1893 729" width="1893px" zoomAndPan="magnify"><defs><filter height="300%" id="fbjngy45615jz" width="300%" x="-1" y="-1"><feGaussianBlur result="blurOut" stdDeviation="2.0"/><feColorMatrix in="blurOut" result="blurOut2" type="matrix" values="0 0 0 0 0 0 0 0 0 0 0 0 0 0 0 0 0 0 .4 0"/><feOffset dx="4.0" dy="4.0" in="blurOut2" result="blurOut3"/><feBlend in="SourceGraphic" in2="blurOut3" mode="normal"/></filter></defs><g><!--MD5=[f4e70ef68289585296b9045165e58692]
cluster controllers--><polygon fill="#FFFFFF" filter="url(#fbjngy45615jz)" points="557,121,652,121,659,143.2969,1371,143.2969,1371,351,557,351,557,121" style="stroke:#000000;stroke-width:1.5;"/><line style="stroke:#000000;stroke-width:1.5;" x1="557" x2="659" y1="143.2969" y2="143.2969"/><text fill="#000000" font-family="sans-serif" font-size="14" font-weight="bold" lengthAdjust="spacing" textLength="89" x="561" y="135.9951">controllers</text><!--MD5=[a60570e4b426f702ccbb0d459e3b9417]
cluster models--><polygon fill="#FFFFFF" filter="url(#fbjngy45615jz)" points="1411,236,1475,236,1482,258.2969,1572,258.2969,1572,722,1411,722,1411,236" style="stroke:#000000;stroke-width:1.5;"/><line style="stroke:#000000;stroke-width:1.5;" x1="1411" x2="1482" y1="258.2969" y2="258.2969"/><text fill="#000000" font-family="sans-serif" font-size="14" font-weight="bold" lengthAdjust="spacing" textLength="58" x="1415" y="250.9951">models</text><!--MD5=[67cd15ce44b6dd54f77054b62c31bf42]
cluster types--><polygon fill="#FFFFFF" filter="url(#fbjngy45615jz)" points="1612,391,1663,391,1670,413.2969,1876,413.2969,1876,614,1612,614,1612,391" style="stroke:#000000;stroke-width:1.5;"/><line style="stroke:#000000;stroke-width:1.5;" x1="1612" x2="1670" y1="413.2969" y2="413.2969"/><text fill="#000000" font-family="sans-serif" font-size="14" font-weight="bold" lengthAdjust="spacing" textLength="45" x="1616" y="405.9951">types</text><!--MD5=[e2a75efa8a0f57c2afae8bf75386f79c]
cluster views--><polygon fill="#FFFFFF" filter="url(#fbjngy45615jz)" points="16,6,67,6,74,28.2969,517,28.2969,517,614,16,614,16,6" style="stroke:#000000;stroke-width:1.5;"/><line style="stroke:#000000;stroke-width:1.5;" x1="16" x2="74" y1="28.2969" y2="28.2969"/><text fill="#000000" font-family="sans-serif" font-size="14" font-weight="bold" lengthAdjust="spacing" textLength="45" x="20" y="20.9951">views</text><!--MD5=[d538e9e3e9ace5a9c5dcbfba7654f5f1]
class controllers.Controller--><rect codeLine="43" fill="#FEFECE" filter="url(#fbjngy45615jz)" height="48" id="controllers.Controller" style="stroke:#A80036;stroke-width:1.5;" width="90" x="926" y="164"/><ellipse cx="941" cy="180" fill="#A9DCDF" rx="11" ry="11" style="stroke:#A80036;stroke-width:1.0;"/><path d="M943.0781,181.8125 L943.4688,182.7969 L943.0781,182.7969 C942.625,182.7969 942.5156,182.8125 942.3594,182.9219 C942.1094,183.0781 941.9531,183.3594 941.9531,183.6563 C941.9531,183.9219 942.0938,184.1719 942.3125,184.3281 C942.4531,184.4531 942.6563,184.5 943.0781,184.5 L945.4375,184.5 C945.7969,184.5 946.0156,184.4688 946.1563,184.375 C946.4063,184.2344 946.5625,183.9375 946.5625,183.6563 C946.5625,183.375 946.4219,183.125 946.2031,182.9688 C946.0313,182.8281 945.875,182.7969 945.4063,182.7969 L942.0156,174.5938 L938.3438,174.5938 C937.8906,174.5938 937.7656,174.6094 937.6094,174.7031 C937.3594,174.875 937.2031,175.1563 937.2031,175.4375 C937.2031,175.7188 937.3438,175.9688 937.5625,176.1406 C937.7344,176.25 937.9063,176.2813 938.3438,176.2813 L939.4219,176.2813 L936.7813,182.7969 C936.3594,182.7969 936.2031,182.8125 936.0469,182.9219 C935.7969,183.0781 935.6406,183.3594 935.6406,183.6563 C935.6406,184.2188 936.0156,184.5 936.7656,184.5 L939.0313,184.5 C939.3906,184.5 939.6094,184.4688 939.7344,184.375 C940,184.2344 940.1406,183.9375 940.1406,183.6563 C940.1406,183.375 940.0156,183.125 939.7969,182.9531 C939.625,182.8281 939.4844,182.7969 939.0313,182.7969 L938.6406,182.7969 L939.0313,181.8125 L943.0781,181.8125 Z M942.375,180.1094 L939.7031,180.1094 L941.0469,176.8438 L942.375,180.1094 Z " fill="#000000"/><text fill="#000000" font-family="sans-serif" font-size="12" font-style="italic" lengthAdjust="spacing" textLength="58" x="955" y="184.1543">Controller</text><line style="stroke:#A80036;stroke-width:1.5;" x1="927" x2="1015" y1="196" y2="196"/><line style="stroke:#A80036;stroke-width:1.5;" x1="927" x2="1015" y1="204" y2="204"/><!--MD5=[aea2e2342048d554ddfb2813c9d667df]
class controllers.PlayController--><rect codeLine="47" fill="#FEFECE" filter="url(#fbjngy45615jz)" height="48" id="controllers.PlayController" style="stroke:#A80036;stroke-width:1.5;" width="114" x="1225" y="279"/><ellipse cx="1240" cy="295" fill="#ADD1B2" rx="11" ry="11" style="stroke:#A80036;stroke-width:1.0;"/><path d="M1242.3438,290.6719 C1241.4063,290.2344 1240.8125,290.0938 1239.9375,290.0938 C1237.3125,290.0938 1235.3125,292.1719 1235.3125,294.8906 L1235.3125,296.0156 C1235.3125,298.5938 1237.4219,300.4844 1240.3125,300.4844 C1241.5313,300.4844 1242.6875,300.1875 1243.4375,299.6406 C1244.0156,299.2344 1244.3438,298.7813 1244.3438,298.3906 C1244.3438,297.9375 1243.9531,297.5469 1243.4844,297.5469 C1243.2656,297.5469 1243.0625,297.625 1242.875,297.8125 C1242.4219,298.2969 1242.4219,298.2969 1242.2344,298.3906 C1241.8125,298.6563 1241.125,298.7813 1240.3594,298.7813 C1238.3125,298.7813 1237.0156,297.6875 1237.0156,295.9844 L1237.0156,294.8906 C1237.0156,293.1094 1238.2656,291.7969 1240,291.7969 C1240.5781,291.7969 1241.1875,291.9531 1241.6563,292.2031 C1242.1406,292.4844 1242.3125,292.7031 1242.4063,293.1094 C1242.4688,293.5156 1242.5,293.6406 1242.6406,293.7656 C1242.7813,293.9063 1243.0156,294.0156 1243.2344,294.0156 C1243.5,294.0156 1243.7656,293.875 1243.9375,293.6563 C1244.0469,293.5 1244.0781,293.3125 1244.0781,292.8906 L1244.0781,291.4688 C1244.0781,291.0313 1244.0625,290.9063 1243.9688,290.75 C1243.8125,290.4844 1243.5313,290.3438 1243.2344,290.3438 C1242.9375,290.3438 1242.7344,290.4375 1242.5156,290.75 L1242.3438,290.6719 Z " fill="#000000"/><text fill="#000000" font-family="sans-serif" font-size="12" lengthAdjust="spacing" textLength="82" x="1254" y="299.1543">PlayController</text><line style="stroke:#A80036;stroke-width:1.5;" x1="1226" x2="1338" y1="311" y2="311"/><line style="stroke:#A80036;stroke-width:1.5;" x1="1226" x2="1338" y1="319" y2="319"/><!--MD5=[12e816d8ac45337d932400bf96e6eca7]
class controllers.ResumeController--><rect codeLine="51" fill="#FEFECE" filter="url(#fbjngy45615jz)" height="48" id="controllers.ResumeController" style="stroke:#A80036;stroke-width:1.5;" width="139" x="581.5" y="279"/><ellipse cx="596.5" cy="295" fill="#ADD1B2" rx="11" ry="11" style="stroke:#A80036;stroke-width:1.0;"/><path d="M598.8438,290.6719 C597.9063,290.2344 597.3125,290.0938 596.4375,290.0938 C593.8125,290.0938 591.8125,292.1719 591.8125,294.8906 L591.8125,296.0156 C591.8125,298.5938 593.9219,300.4844 596.8125,300.4844 C598.0313,300.4844 599.1875,300.1875 599.9375,299.6406 C600.5156,299.2344 600.8438,298.7813 600.8438,298.3906 C600.8438,297.9375 600.4531,297.5469 599.9844,297.5469 C599.7656,297.5469 599.5625,297.625 599.375,297.8125 C598.9219,298.2969 598.9219,298.2969 598.7344,298.3906 C598.3125,298.6563 597.625,298.7813 596.8594,298.7813 C594.8125,298.7813 593.5156,297.6875 593.5156,295.9844 L593.5156,294.8906 C593.5156,293.1094 594.7656,291.7969 596.5,291.7969 C597.0781,291.7969 597.6875,291.9531 598.1563,292.2031 C598.6406,292.4844 598.8125,292.7031 598.9063,293.1094 C598.9688,293.5156 599,293.6406 599.1406,293.7656 C599.2813,293.9063 599.5156,294.0156 599.7344,294.0156 C600,294.0156 600.2656,293.875 600.4375,293.6563 C600.5469,293.5 600.5781,293.3125 600.5781,292.8906 L600.5781,291.4688 C600.5781,291.0313 600.5625,290.9063 600.4688,290.75 C600.3125,290.4844 600.0313,290.3438 599.7344,290.3438 C599.4375,290.3438 599.2344,290.4375 599.0156,290.75 L598.8438,290.6719 Z " fill="#000000"/><text fill="#000000" font-family="sans-serif" font-size="12" lengthAdjust="spacing" textLength="107" x="610.5" y="299.1543">ResumeController</text><line style="stroke:#A80036;stroke-width:1.5;" x1="582.5" x2="719.5" y1="311" y2="311"/><line style="stroke:#A80036;stroke-width:1.5;" x1="582.5" x2="719.5" y1="319" y2="319"/><!--MD5=[1ca606ade29448d66bff39c3ca169238]
class controllers.StartController--><rect codeLine="55" fill="#FEFECE" filter="url(#fbjngy45615jz)" height="48" id="controllers.StartController" style="stroke:#A80036;stroke-width:1.5;" width="119" x="755.5" y="279"/><ellipse cx="770.5" cy="295" fill="#ADD1B2" rx="11" ry="11" style="stroke:#A80036;stroke-width:1.0;"/><path d="M772.8438,290.6719 C771.9063,290.2344 771.3125,290.0938 770.4375,290.0938 C767.8125,290.0938 765.8125,292.1719 765.8125,294.8906 L765.8125,296.0156 C765.8125,298.5938 767.9219,300.4844 770.8125,300.4844 C772.0313,300.4844 773.1875,300.1875 773.9375,299.6406 C774.5156,299.2344 774.8438,298.7813 774.8438,298.3906 C774.8438,297.9375 774.4531,297.5469 773.9844,297.5469 C773.7656,297.5469 773.5625,297.625 773.375,297.8125 C772.9219,298.2969 772.9219,298.2969 772.7344,298.3906 C772.3125,298.6563 771.625,298.7813 770.8594,298.7813 C768.8125,298.7813 767.5156,297.6875 767.5156,295.9844 L767.5156,294.8906 C767.5156,293.1094 768.7656,291.7969 770.5,291.7969 C771.0781,291.7969 771.6875,291.9531 772.1563,292.2031 C772.6406,292.4844 772.8125,292.7031 772.9063,293.1094 C772.9688,293.5156 773,293.6406 773.1406,293.7656 C773.2813,293.9063 773.5156,294.0156 773.7344,294.0156 C774,294.0156 774.2656,293.875 774.4375,293.6563 C774.5469,293.5 774.5781,293.3125 774.5781,292.8906 L774.5781,291.4688 C774.5781,291.0313 774.5625,290.9063 774.4688,290.75 C774.3125,290.4844 774.0313,290.3438 773.7344,290.3438 C773.4375,290.3438 773.2344,290.4375 773.0156,290.75 L772.8438,290.6719 Z " fill="#000000"/><text fill="#000000" font-family="sans-serif" font-size="12" lengthAdjust="spacing" textLength="87" x="784.5" y="299.1543">StartController</text><line style="stroke:#A80036;stroke-width:1.5;" x1="756.5" x2="873.5" y1="311" y2="311"/><line style="stroke:#A80036;stroke-width:1.5;" x1="756.5" x2="873.5" y1="319" y2="319"/><!--MD5=[97bd40d9f9de957b3464a0ea5bcc6be7]
class controllers.UndoController--><rect codeLine="59" fill="#FEFECE" filter="url(#fbjngy45615jz)" height="48" id="controllers.UndoController" style="stroke:#A80036;stroke-width:1.5;" width="123" x="909.5" y="279"/><ellipse cx="924.5" cy="295" fill="#ADD1B2" rx="11" ry="11" style="stroke:#A80036;stroke-width:1.0;"/><path d="M926.8438,290.6719 C925.9063,290.2344 925.3125,290.0938 924.4375,290.0938 C921.8125,290.0938 919.8125,292.1719 919.8125,294.8906 L919.8125,296.0156 C919.8125,298.5938 921.9219,300.4844 924.8125,300.4844 C926.0313,300.4844 927.1875,300.1875 927.9375,299.6406 C928.5156,299.2344 928.8438,298.7813 928.8438,298.3906 C928.8438,297.9375 928.4531,297.5469 927.9844,297.5469 C927.7656,297.5469 927.5625,297.625 927.375,297.8125 C926.9219,298.2969 926.9219,298.2969 926.7344,298.3906 C926.3125,298.6563 925.625,298.7813 924.8594,298.7813 C922.8125,298.7813 921.5156,297.6875 921.5156,295.9844 L921.5156,294.8906 C921.5156,293.1094 922.7656,291.7969 924.5,291.7969 C925.0781,291.7969 925.6875,291.9531 926.1563,292.2031 C926.6406,292.4844 926.8125,292.7031 926.9063,293.1094 C926.9688,293.5156 927,293.6406 927.1406,293.7656 C927.2813,293.9063 927.5156,294.0156 927.7344,294.0156 C928,294.0156 928.2656,293.875 928.4375,293.6563 C928.5469,293.5 928.5781,293.3125 928.5781,292.8906 L928.5781,291.4688 C928.5781,291.0313 928.5625,290.9063 928.4688,290.75 C928.3125,290.4844 928.0313,290.3438 927.7344,290.3438 C927.4375,290.3438 927.2344,290.4375 927.0156,290.75 L926.8438,290.6719 Z " fill="#000000"/><text fill="#000000" font-family="sans-serif" font-size="12" lengthAdjust="spacing" textLength="91" x="938.5" y="299.1543">UndoController</text><line style="stroke:#A80036;stroke-width:1.5;" x1="910.5" x2="1031.5" y1="311" y2="311"/><line style="stroke:#A80036;stroke-width:1.5;" x1="910.5" x2="1031.5" y1="319" y2="319"/><!--MD5=[773a588f1b5cfd88fb5609eb6c3fc040]
class controllers.RedoController--><rect codeLine="63" fill="#FEFECE" filter="url(#fbjngy45615jz)" height="48" id="controllers.RedoController" style="stroke:#A80036;stroke-width:1.5;" width="122" x="1068" y="279"/><ellipse cx="1083" cy="295" fill="#ADD1B2" rx="11" ry="11" style="stroke:#A80036;stroke-width:1.0;"/><path d="M1085.3438,290.6719 C1084.4063,290.2344 1083.8125,290.0938 1082.9375,290.0938 C1080.3125,290.0938 1078.3125,292.1719 1078.3125,294.8906 L1078.3125,296.0156 C1078.3125,298.5938 1080.4219,300.4844 1083.3125,300.4844 C1084.5313,300.4844 1085.6875,300.1875 1086.4375,299.6406 C1087.0156,299.2344 1087.3438,298.7813 1087.3438,298.3906 C1087.3438,297.9375 1086.9531,297.5469 1086.4844,297.5469 C1086.2656,297.5469 1086.0625,297.625 1085.875,297.8125 C1085.4219,298.2969 1085.4219,298.2969 1085.2344,298.3906 C1084.8125,298.6563 1084.125,298.7813 1083.3594,298.7813 C1081.3125,298.7813 1080.0156,297.6875 1080.0156,295.9844 L1080.0156,294.8906 C1080.0156,293.1094 1081.2656,291.7969 1083,291.7969 C1083.5781,291.7969 1084.1875,291.9531 1084.6563,292.2031 C1085.1406,292.4844 1085.3125,292.7031 1085.4063,293.1094 C1085.4688,293.5156 1085.5,293.6406 1085.6406,293.7656 C1085.7813,293.9063 1086.0156,294.0156 1086.2344,294.0156 C1086.5,294.0156 1086.7656,293.875 1086.9375,293.6563 C1087.0469,293.5 1087.0781,293.3125 1087.0781,292.8906 L1087.0781,291.4688 C1087.0781,291.0313 1087.0625,290.9063 1086.9688,290.75 C1086.8125,290.4844 1086.5313,290.3438 1086.2344,290.3438 C1085.9375,290.3438 1085.7344,290.4375 1085.5156,290.75 L1085.3438,290.6719 Z " fill="#000000"/><text fill="#000000" font-family="sans-serif" font-size="12" lengthAdjust="spacing" textLength="90" x="1097" y="299.1543">RedoController</text><line style="stroke:#A80036;stroke-width:1.5;" x1="1069" x2="1189" y1="311" y2="311"/><line style="stroke:#A80036;stroke-width:1.5;" x1="1069" x2="1189" y1="319" y2="319"/><!--MD5=[fbcab1a7378abda673044953d979be95]
class models.Board--><rect codeLine="15" fill="#FEFECE" filter="url(#fbjngy45615jz)" height="48" id="models.Board" style="stroke:#A80036;stroke-width:1.5;" width="68" x="1453" y="650"/><ellipse cx="1468" cy="666" fill="#ADD1B2" rx="11" ry="11" style="stroke:#A80036;stroke-width:1.0;"/><path d="M1470.3438,661.6719 C1469.4063,661.2344 1468.8125,661.0938 1467.9375,661.0938 C1465.3125,661.0938 1463.3125,663.1719 1463.3125,665.8906 L1463.3125,667.0156 C1463.3125,669.5938 1465.4219,671.4844 1468.3125,671.4844 C1469.5313,671.4844 1470.6875,671.1875 1471.4375,670.6406 C1472.0156,670.2344 1472.3438,669.7813 1472.3438,669.3906 C1472.3438,668.9375 1471.9531,668.5469 1471.4844,668.5469 C1471.2656,668.5469 1471.0625,668.625 1470.875,668.8125 C1470.4219,669.2969 1470.4219,669.2969 1470.2344,669.3906 C1469.8125,669.6563 1469.125,669.7813 1468.3594,669.7813 C1466.3125,669.7813 1465.0156,668.6875 1465.0156,666.9844 L1465.0156,665.8906 C1465.0156,664.1094 1466.2656,662.7969 1468,662.7969 C1468.5781,662.7969 1469.1875,662.9531 1469.6563,663.2031 C1470.1406,663.4844 1470.3125,663.7031 1470.4063,664.1094 C1470.4688,664.5156 1470.5,664.6406 1470.6406,664.7656 C1470.7813,664.9063 1471.0156,665.0156 1471.2344,665.0156 C1471.5,665.0156 1471.7656,664.875 1471.9375,664.6563 C1472.0469,664.5 1472.0781,664.3125 1472.0781,663.8906 L1472.0781,662.4688 C1472.0781,662.0313 1472.0625,661.9063 1471.9688,661.75 C1471.8125,661.4844 1471.5313,661.3438 1471.2344,661.3438 C1470.9375,661.3438 1470.7344,661.4375 1470.5156,661.75 L1470.3438,661.6719 Z " fill="#000000"/><text fill="#000000" font-family="sans-serif" font-size="12" lengthAdjust="spacing" textLength="36" x="1482" y="670.1543">Board</text><line style="stroke:#A80036;stroke-width:1.5;" x1="1454" x2="1520" y1="682" y2="682"/><line style="stroke:#A80036;stroke-width:1.5;" x1="1454" x2="1520" y1="690" y2="690"/><!--MD5=[1ea5cf3e691bb3552ec8d5f9a56af156]
class models.Game--><rect codeLine="19" fill="#FEFECE" filter="url(#fbjngy45615jz)" height="48" id="models.Game" style="stroke:#A80036;stroke-width:1.5;" width="67" x="1448.5" y="279"/><ellipse cx="1463.5" cy="295" fill="#ADD1B2" rx="11" ry="11" style="stroke:#A80036;stroke-width:1.0;"/><path d="M1465.8438,290.6719 C1464.9063,290.2344 1464.3125,290.0938 1463.4375,290.0938 C1460.8125,290.0938 1458.8125,292.1719 1458.8125,294.8906 L1458.8125,296.0156 C1458.8125,298.5938 1460.9219,300.4844 1463.8125,300.4844 C1465.0313,300.4844 1466.1875,300.1875 1466.9375,299.6406 C1467.5156,299.2344 1467.8438,298.7813 1467.8438,298.3906 C1467.8438,297.9375 1467.4531,297.5469 1466.9844,297.5469 C1466.7656,297.5469 1466.5625,297.625 1466.375,297.8125 C1465.9219,298.2969 1465.9219,298.2969 1465.7344,298.3906 C1465.3125,298.6563 1464.625,298.7813 1463.8594,298.7813 C1461.8125,298.7813 1460.5156,297.6875 1460.5156,295.9844 L1460.5156,294.8906 C1460.5156,293.1094 1461.7656,291.7969 1463.5,291.7969 C1464.0781,291.7969 1464.6875,291.9531 1465.1563,292.2031 C1465.6406,292.4844 1465.8125,292.7031 1465.9063,293.1094 C1465.9688,293.5156 1466,293.6406 1466.1406,293.7656 C1466.2813,293.9063 1466.5156,294.0156 1466.7344,294.0156 C1467,294.0156 1467.2656,293.875 1467.4375,293.6563 C1467.5469,293.5 1467.5781,293.3125 1467.5781,292.8906 L1467.5781,291.4688 C1467.5781,291.0313 1467.5625,290.9063 1467.4688,290.75 C1467.3125,290.4844 1467.0313,290.3438 1466.7344,290.3438 C1466.4375,290.3438 1466.2344,290.4375 1466.0156,290.75 L1465.8438,290.6719 Z " fill="#000000"/><text fill="#000000" font-family="sans-serif" font-size="12" lengthAdjust="spacing" textLength="35" x="1477.5" y="299.1543">Game</text><line style="stroke:#A80036;stroke-width:1.5;" x1="1449.5" x2="1514.5" y1="311" y2="311"/><line style="stroke:#A80036;stroke-width:1.5;" x1="1449.5" x2="1514.5" y1="319" y2="319"/><!--MD5=[6e8c5ac4fcf3c90f745643fbee571d05]
class models.Player--><rect codeLine="23" fill="#FEFECE" filter="url(#fbjngy45615jz)" height="48" id="models.Player" style="stroke:#A80036;stroke-width:1.5;" width="68" x="1472" y="542"/><ellipse cx="1487" cy="558" fill="#ADD1B2" rx="11" ry="11" style="stroke:#A80036;stroke-width:1.0;"/><path d="M1489.3438,553.6719 C1488.4063,553.2344 1487.8125,553.0938 1486.9375,553.0938 C1484.3125,553.0938 1482.3125,555.1719 1482.3125,557.8906 L1482.3125,559.0156 C1482.3125,561.5938 1484.4219,563.4844 1487.3125,563.4844 C1488.5313,563.4844 1489.6875,563.1875 1490.4375,562.6406 C1491.0156,562.2344 1491.3438,561.7813 1491.3438,561.3906 C1491.3438,560.9375 1490.9531,560.5469 1490.4844,560.5469 C1490.2656,560.5469 1490.0625,560.625 1489.875,560.8125 C1489.4219,561.2969 1489.4219,561.2969 1489.2344,561.3906 C1488.8125,561.6563 1488.125,561.7813 1487.3594,561.7813 C1485.3125,561.7813 1484.0156,560.6875 1484.0156,558.9844 L1484.0156,557.8906 C1484.0156,556.1094 1485.2656,554.7969 1487,554.7969 C1487.5781,554.7969 1488.1875,554.9531 1488.6563,555.2031 C1489.1406,555.4844 1489.3125,555.7031 1489.4063,556.1094 C1489.4688,556.5156 1489.5,556.6406 1489.6406,556.7656 C1489.7813,556.9063 1490.0156,557.0156 1490.2344,557.0156 C1490.5,557.0156 1490.7656,556.875 1490.9375,556.6563 C1491.0469,556.5 1491.0781,556.3125 1491.0781,555.8906 L1491.0781,554.4688 C1491.0781,554.0313 1491.0625,553.9063 1490.9688,553.75 C1490.8125,553.4844 1490.5313,553.3438 1490.2344,553.3438 C1489.9375,553.3438 1489.7344,553.4375 1489.5156,553.75 L1489.3438,553.6719 Z " fill="#000000"/><text fill="#000000" font-family="sans-serif" font-size="12" lengthAdjust="spacing" textLength="36" x="1501" y="562.1543">Player</text><line style="stroke:#A80036;stroke-width:1.5;" x1="1473" x2="1539" y1="574" y2="574"/><line style="stroke:#A80036;stroke-width:1.5;" x1="1473" x2="1539" y1="582" y2="582"/><!--MD5=[06029ca6144b724b5ba6f17e981b093f]
class models.Turn--><rect codeLine="27" fill="#FEFECE" filter="url(#fbjngy45615jz)" height="48" id="models.Turn" style="stroke:#A80036;stroke-width:1.5;" width="58" x="1474" y="434"/><ellipse cx="1489" cy="450" fill="#ADD1B2" rx="11" ry="11" style="stroke:#A80036;stroke-width:1.0;"/><path d="M1491.3438,445.6719 C1490.4063,445.2344 1489.8125,445.0938 1488.9375,445.0938 C1486.3125,445.0938 1484.3125,447.1719 1484.3125,449.8906 L1484.3125,451.0156 C1484.3125,453.5938 1486.4219,455.4844 1489.3125,455.4844 C1490.5313,455.4844 1491.6875,455.1875 1492.4375,454.6406 C1493.0156,454.2344 1493.3438,453.7813 1493.3438,453.3906 C1493.3438,452.9375 1492.9531,452.5469 1492.4844,452.5469 C1492.2656,452.5469 1492.0625,452.625 1491.875,452.8125 C1491.4219,453.2969 1491.4219,453.2969 1491.2344,453.3906 C1490.8125,453.6563 1490.125,453.7813 1489.3594,453.7813 C1487.3125,453.7813 1486.0156,452.6875 1486.0156,450.9844 L1486.0156,449.8906 C1486.0156,448.1094 1487.2656,446.7969 1489,446.7969 C1489.5781,446.7969 1490.1875,446.9531 1490.6563,447.2031 C1491.1406,447.4844 1491.3125,447.7031 1491.4063,448.1094 C1491.4688,448.5156 1491.5,448.6406 1491.6406,448.7656 C1491.7813,448.9063 1492.0156,449.0156 1492.2344,449.0156 C1492.5,449.0156 1492.7656,448.875 1492.9375,448.6563 C1493.0469,448.5 1493.0781,448.3125 1493.0781,447.8906 L1493.0781,446.4688 C1493.0781,446.0313 1493.0625,445.9063 1492.9688,445.75 C1492.8125,445.4844 1492.5313,445.3438 1492.2344,445.3438 C1491.9375,445.3438 1491.7344,445.4375 1491.5156,445.75 L1491.3438,445.6719 Z " fill="#000000"/><text fill="#000000" font-family="sans-serif" font-size="12" lengthAdjust="spacing" textLength="26" x="1503" y="454.1543">Turn</text><line style="stroke:#A80036;stroke-width:1.5;" x1="1475" x2="1531" y1="466" y2="466"/><line style="stroke:#A80036;stroke-width:1.5;" x1="1475" x2="1531" y1="474" y2="474"/><!--MD5=[fbe1d668a1c0e7c27042fe6ad7304dc0]
class types.Coordinate--><rect codeLine="31" fill="#FEFECE" filter="url(#fbjngy45615jz)" height="48" id="types.Coordinate" style="stroke:#A80036;stroke-width:1.5;" width="98" x="1655" y="434"/><ellipse cx="1670" cy="450" fill="#ADD1B2" rx="11" ry="11" style="stroke:#A80036;stroke-width:1.0;"/><path d="M1672.3438,445.6719 C1671.4063,445.2344 1670.8125,445.0938 1669.9375,445.0938 C1667.3125,445.0938 1665.3125,447.1719 1665.3125,449.8906 L1665.3125,451.0156 C1665.3125,453.5938 1667.4219,455.4844 1670.3125,455.4844 C1671.5313,455.4844 1672.6875,455.1875 1673.4375,454.6406 C1674.0156,454.2344 1674.3438,453.7813 1674.3438,453.3906 C1674.3438,452.9375 1673.9531,452.5469 1673.4844,452.5469 C1673.2656,452.5469 1673.0625,452.625 1672.875,452.8125 C1672.4219,453.2969 1672.4219,453.2969 1672.2344,453.3906 C1671.8125,453.6563 1671.125,453.7813 1670.3594,453.7813 C1668.3125,453.7813 1667.0156,452.6875 1667.0156,450.9844 L1667.0156,449.8906 C1667.0156,448.1094 1668.2656,446.7969 1670,446.7969 C1670.5781,446.7969 1671.1875,446.9531 1671.6563,447.2031 C1672.1406,447.4844 1672.3125,447.7031 1672.4063,448.1094 C1672.4688,448.5156 1672.5,448.6406 1672.6406,448.7656 C1672.7813,448.9063 1673.0156,449.0156 1673.2344,449.0156 C1673.5,449.0156 1673.7656,448.875 1673.9375,448.6563 C1674.0469,448.5 1674.0781,448.3125 1674.0781,447.8906 L1674.0781,446.4688 C1674.0781,446.0313 1674.0625,445.9063 1673.9688,445.75 C1673.8125,445.4844 1673.5313,445.3438 1673.2344,445.3438 C1672.9375,445.3438 1672.7344,445.4375 1672.5156,445.75 L1672.3438,445.6719 Z " fill="#000000"/><text fill="#000000" font-family="sans-serif" font-size="12" lengthAdjust="spacing" textLength="66" x="1684" y="454.1543">Coordinate</text><line style="stroke:#A80036;stroke-width:1.5;" x1="1656" x2="1752" y1="466" y2="466"/><line style="stroke:#A80036;stroke-width:1.5;" x1="1656" x2="1752" y1="474" y2="474"/><!--MD5=[e88a50b03f092bdcaf627b677de9be1f]
class types.Color--><rect codeLine="35" fill="#FEFECE" filter="url(#fbjngy45615jz)" height="48" id="types.Color" style="stroke:#A80036;stroke-width:1.5;" width="64" x="1788" y="434"/><ellipse cx="1803" cy="450" fill="#EB937F" rx="11" ry="11" style="stroke:#A80036;stroke-width:1.0;"/><path d="M1801.7969,450.875 L1803.25,450.875 L1803.25,450.9844 C1803.25,451.3906 1803.2813,451.5469 1803.3594,451.7031 C1803.5156,451.9531 1803.7969,452.1094 1804.0938,452.1094 C1804.3438,452.1094 1804.6094,451.9688 1804.7656,451.75 C1804.8906,451.5938 1804.9219,451.4375 1804.9219,450.9844 L1804.9219,449.0625 C1804.9219,448.9063 1804.9219,448.8594 1804.9063,448.7031 C1804.8438,448.2344 1804.5313,447.9219 1804.0781,447.9219 C1803.8281,447.9219 1803.5625,448.0625 1803.3906,448.2813 C1803.2813,448.4531 1803.25,448.6094 1803.25,449.0625 L1803.25,449.1875 L1801.7969,449.1875 L1801.7969,446.7813 L1805.7813,446.7813 L1805.7813,447.6406 C1805.7813,448.0469 1805.8125,448.2188 1805.8906,448.375 C1806.0625,448.625 1806.3438,448.7813 1806.625,448.7813 C1806.8906,448.7813 1807.1563,448.6406 1807.3281,448.4219 C1807.4375,448.25 1807.4688,448.1094 1807.4688,447.6406 L1807.4688,445.0938 L1799.8438,445.0938 C1799.4063,445.0938 1799.2813,445.1094 1799.125,445.2031 C1798.875,445.3594 1798.7188,445.6563 1798.7188,445.9375 C1798.7188,446.2188 1798.8594,446.4688 1799.0781,446.6406 C1799.2344,446.75 1799.4219,446.7813 1799.8438,446.7813 L1800.0938,446.7813 L1800.0938,453.2969 L1799.8438,453.2969 C1799.4375,453.2969 1799.2813,453.3125 1799.125,453.4219 C1798.875,453.5938 1798.7188,453.8594 1798.7188,454.1563 C1798.7188,454.4219 1798.8594,454.6719 1799.0781,454.8281 C1799.2188,454.9531 1799.4531,455 1799.8438,455 L1807.8438,455 L1807.8438,452.4219 C1807.8438,451.9844 1807.8125,451.8438 1807.7344,451.6875 C1807.5625,451.4375 1807.2813,451.2813 1807,451.2813 C1806.7344,451.2813 1806.4688,451.3906 1806.2969,451.6406 C1806.1875,451.7969 1806.1563,451.9375 1806.1563,452.4219 L1806.1563,453.2969 L1801.7969,453.2969 L1801.7969,450.875 Z " fill="#000000"/><text fill="#000000" font-family="sans-serif" font-size="12" lengthAdjust="spacing" textLength="32" x="1817" y="454.1543">Color</text><line style="stroke:#A80036;stroke-width:1.5;" x1="1789" x2="1851" y1="466" y2="466"/><line style="stroke:#A80036;stroke-width:1.5;" x1="1789" x2="1851" y1="474" y2="474"/><!--MD5=[f4a9730c613f2e33f7b8bab243e5b8e5]
class types.Error--><rect codeLine="39" fill="#FEFECE" filter="url(#fbjngy45615jz)" height="48" id="types.Error" style="stroke:#A80036;stroke-width:1.5;" width="62" x="1673" y="542"/><ellipse cx="1688" cy="558" fill="#EB937F" rx="11" ry="11" style="stroke:#A80036;stroke-width:1.0;"/><path d="M1686.7969,558.875 L1688.25,558.875 L1688.25,558.9844 C1688.25,559.3906 1688.2813,559.5469 1688.3594,559.7031 C1688.5156,559.9531 1688.7969,560.1094 1689.0938,560.1094 C1689.3438,560.1094 1689.6094,559.9688 1689.7656,559.75 C1689.8906,559.5938 1689.9219,559.4375 1689.9219,558.9844 L1689.9219,557.0625 C1689.9219,556.9063 1689.9219,556.8594 1689.9063,556.7031 C1689.8438,556.2344 1689.5313,555.9219 1689.0781,555.9219 C1688.8281,555.9219 1688.5625,556.0625 1688.3906,556.2813 C1688.2813,556.4531 1688.25,556.6094 1688.25,557.0625 L1688.25,557.1875 L1686.7969,557.1875 L1686.7969,554.7813 L1690.7813,554.7813 L1690.7813,555.6406 C1690.7813,556.0469 1690.8125,556.2188 1690.8906,556.375 C1691.0625,556.625 1691.3438,556.7813 1691.625,556.7813 C1691.8906,556.7813 1692.1563,556.6406 1692.3281,556.4219 C1692.4375,556.25 1692.4688,556.1094 1692.4688,555.6406 L1692.4688,553.0938 L1684.8438,553.0938 C1684.4063,553.0938 1684.2813,553.1094 1684.125,553.2031 C1683.875,553.3594 1683.7188,553.6563 1683.7188,553.9375 C1683.7188,554.2188 1683.8594,554.4688 1684.0781,554.6406 C1684.2344,554.75 1684.4219,554.7813 1684.8438,554.7813 L1685.0938,554.7813 L1685.0938,561.2969 L1684.8438,561.2969 C1684.4375,561.2969 1684.2813,561.3125 1684.125,561.4219 C1683.875,561.5938 1683.7188,561.8594 1683.7188,562.1563 C1683.7188,562.4219 1683.8594,562.6719 1684.0781,562.8281 C1684.2188,562.9531 1684.4531,563 1684.8438,563 L1692.8438,563 L1692.8438,560.4219 C1692.8438,559.9844 1692.8125,559.8438 1692.7344,559.6875 C1692.5625,559.4375 1692.2813,559.2813 1692,559.2813 C1691.7344,559.2813 1691.4688,559.3906 1691.2969,559.6406 C1691.1875,559.7969 1691.1563,559.9375 1691.1563,560.4219 L1691.1563,561.2969 L1686.7969,561.2969 L1686.7969,558.875 Z " fill="#000000"/><text fill="#000000" font-family="sans-serif" font-size="12" lengthAdjust="spacing" textLength="30" x="1702" y="562.1543">Error</text><line style="stroke:#A80036;stroke-width:1.5;" x1="1674" x2="1734" y1="574" y2="574"/><line style="stroke:#A80036;stroke-width:1.5;" x1="1674" x2="1734" y1="582" y2="582"/><!--MD5=[5563f2eac69cd97c311bb50067a34021]
class views.BoardView--><rect codeLine="67" fill="#FEFECE" filter="url(#fbjngy45615jz)" height="48" id="views.BoardView" style="stroke:#A80036;stroke-width:1.5;" width="97" x="350.5" y="279"/><ellipse cx="365.5" cy="295" fill="#ADD1B2" rx="11" ry="11" style="stroke:#A80036;stroke-width:1.0;"/><path d="M367.8438,290.6719 C366.9063,290.2344 366.3125,290.0938 365.4375,290.0938 C362.8125,290.0938 360.8125,292.1719 360.8125,294.8906 L360.8125,296.0156 C360.8125,298.5938 362.9219,300.4844 365.8125,300.4844 C367.0313,300.4844 368.1875,300.1875 368.9375,299.6406 C369.5156,299.2344 369.8438,298.7813 369.8438,298.3906 C369.8438,297.9375 369.4531,297.5469 368.9844,297.5469 C368.7656,297.5469 368.5625,297.625 368.375,297.8125 C367.9219,298.2969 367.9219,298.2969 367.7344,298.3906 C367.3125,298.6563 366.625,298.7813 365.8594,298.7813 C363.8125,298.7813 362.5156,297.6875 362.5156,295.9844 L362.5156,294.8906 C362.5156,293.1094 363.7656,291.7969 365.5,291.7969 C366.0781,291.7969 366.6875,291.9531 367.1563,292.2031 C367.6406,292.4844 367.8125,292.7031 367.9063,293.1094 C367.9688,293.5156 368,293.6406 368.1406,293.7656 C368.2813,293.9063 368.5156,294.0156 368.7344,294.0156 C369,294.0156 369.2656,293.875 369.4375,293.6563 C369.5469,293.5 369.5781,293.3125 369.5781,292.8906 L369.5781,291.4688 C369.5781,291.0313 369.5625,290.9063 369.4688,290.75 C369.3125,290.4844 369.0313,290.3438 368.7344,290.3438 C368.4375,290.3438 368.2344,290.4375 368.0156,290.75 L367.8438,290.6719 Z " fill="#000000"/><text fill="#000000" font-family="sans-serif" font-size="12" lengthAdjust="spacing" textLength="65" x="379.5" y="299.1543">BoardView</text><line style="stroke:#A80036;stroke-width:1.5;" x1="351.5" x2="446.5" y1="311" y2="311"/><line style="stroke:#A80036;stroke-width:1.5;" x1="351.5" x2="446.5" y1="319" y2="319"/><!--MD5=[52a75152711b30ce05e31727f0039306]
class views.ErrorView--><rect codeLine="71" fill="#FEFECE" filter="url(#fbjngy45615jz)" height="48" id="views.ErrorView" style="stroke:#A80036;stroke-width:1.5;" width="91" x="48.5" y="542"/><ellipse cx="63.5" cy="558" fill="#ADD1B2" rx="11" ry="11" style="stroke:#A80036;stroke-width:1.0;"/><path d="M65.8438,553.6719 C64.9063,553.2344 64.3125,553.0938 63.4375,553.0938 C60.8125,553.0938 58.8125,555.1719 58.8125,557.8906 L58.8125,559.0156 C58.8125,561.5938 60.9219,563.4844 63.8125,563.4844 C65.0313,563.4844 66.1875,563.1875 66.9375,562.6406 C67.5156,562.2344 67.8438,561.7813 67.8438,561.3906 C67.8438,560.9375 67.4531,560.5469 66.9844,560.5469 C66.7656,560.5469 66.5625,560.625 66.375,560.8125 C65.9219,561.2969 65.9219,561.2969 65.7344,561.3906 C65.3125,561.6563 64.625,561.7813 63.8594,561.7813 C61.8125,561.7813 60.5156,560.6875 60.5156,558.9844 L60.5156,557.8906 C60.5156,556.1094 61.7656,554.7969 63.5,554.7969 C64.0781,554.7969 64.6875,554.9531 65.1563,555.2031 C65.6406,555.4844 65.8125,555.7031 65.9063,556.1094 C65.9688,556.5156 66,556.6406 66.1406,556.7656 C66.2813,556.9063 66.5156,557.0156 66.7344,557.0156 C67,557.0156 67.2656,556.875 67.4375,556.6563 C67.5469,556.5 67.5781,556.3125 67.5781,555.8906 L67.5781,554.4688 C67.5781,554.0313 67.5625,553.9063 67.4688,553.75 C67.3125,553.4844 67.0313,553.3438 66.7344,553.3438 C66.4375,553.3438 66.2344,553.4375 66.0156,553.75 L65.8438,553.6719 Z " fill="#000000"/><text fill="#000000" font-family="sans-serif" font-size="12" lengthAdjust="spacing" textLength="59" x="77.5" y="562.1543">ErrorView</text><line style="stroke:#A80036;stroke-width:1.5;" x1="49.5" x2="138.5" y1="574" y2="574"/><line style="stroke:#A80036;stroke-width:1.5;" x1="49.5" x2="138.5" y1="582" y2="582"/><!--MD5=[15992c3de3db46d2901aebcad9c61d0d]
class views.PlayView--><rect codeLine="75" fill="#FEFECE" filter="url(#fbjngy45615jz)" height="48" id="views.PlayView" style="stroke:#A80036;stroke-width:1.5;" width="84" x="135" y="164"/><ellipse cx="150" cy="180" fill="#ADD1B2" rx="11" ry="11" style="stroke:#A80036;stroke-width:1.0;"/><path d="M152.3438,175.6719 C151.4063,175.2344 150.8125,175.0938 149.9375,175.0938 C147.3125,175.0938 145.3125,177.1719 145.3125,179.8906 L145.3125,181.0156 C145.3125,183.5938 147.4219,185.4844 150.3125,185.4844 C151.5313,185.4844 152.6875,185.1875 153.4375,184.6406 C154.0156,184.2344 154.3438,183.7813 154.3438,183.3906 C154.3438,182.9375 153.9531,182.5469 153.4844,182.5469 C153.2656,182.5469 153.0625,182.625 152.875,182.8125 C152.4219,183.2969 152.4219,183.2969 152.2344,183.3906 C151.8125,183.6563 151.125,183.7813 150.3594,183.7813 C148.3125,183.7813 147.0156,182.6875 147.0156,180.9844 L147.0156,179.8906 C147.0156,178.1094 148.2656,176.7969 150,176.7969 C150.5781,176.7969 151.1875,176.9531 151.6563,177.2031 C152.1406,177.4844 152.3125,177.7031 152.4063,178.1094 C152.4688,178.5156 152.5,178.6406 152.6406,178.7656 C152.7813,178.9063 153.0156,179.0156 153.2344,179.0156 C153.5,179.0156 153.7656,178.875 153.9375,178.6563 C154.0469,178.5 154.0781,178.3125 154.0781,177.8906 L154.0781,176.4688 C154.0781,176.0313 154.0625,175.9063 153.9688,175.75 C153.8125,175.4844 153.5313,175.3438 153.2344,175.3438 C152.9375,175.3438 152.7344,175.4375 152.5156,175.75 L152.3438,175.6719 Z " fill="#000000"/><text fill="#000000" font-family="sans-serif" font-size="12" lengthAdjust="spacing" textLength="52" x="164" y="184.1543">PlayView</text><line style="stroke:#A80036;stroke-width:1.5;" x1="136" x2="218" y1="196" y2="196"/><line style="stroke:#A80036;stroke-width:1.5;" x1="136" x2="218" y1="204" y2="204"/><!--MD5=[efe083823ff420907f2c8e105cba547e]
class views.ResumeView--><rect codeLine="79" fill="#FEFECE" filter="url(#fbjngy45615jz)" height="48" id="views.ResumeView" style="stroke:#A80036;stroke-width:1.5;" width="109" x="206.5" y="279"/><ellipse cx="221.5" cy="295" fill="#ADD1B2" rx="11" ry="11" style="stroke:#A80036;stroke-width:1.0;"/><path d="M223.8438,290.6719 C222.9063,290.2344 222.3125,290.0938 221.4375,290.0938 C218.8125,290.0938 216.8125,292.1719 216.8125,294.8906 L216.8125,296.0156 C216.8125,298.5938 218.9219,300.4844 221.8125,300.4844 C223.0313,300.4844 224.1875,300.1875 224.9375,299.6406 C225.5156,299.2344 225.8438,298.7813 225.8438,298.3906 C225.8438,297.9375 225.4531,297.5469 224.9844,297.5469 C224.7656,297.5469 224.5625,297.625 224.375,297.8125 C223.9219,298.2969 223.9219,298.2969 223.7344,298.3906 C223.3125,298.6563 222.625,298.7813 221.8594,298.7813 C219.8125,298.7813 218.5156,297.6875 218.5156,295.9844 L218.5156,294.8906 C218.5156,293.1094 219.7656,291.7969 221.5,291.7969 C222.0781,291.7969 222.6875,291.9531 223.1563,292.2031 C223.6406,292.4844 223.8125,292.7031 223.9063,293.1094 C223.9688,293.5156 224,293.6406 224.1406,293.7656 C224.2813,293.9063 224.5156,294.0156 224.7344,294.0156 C225,294.0156 225.2656,293.875 225.4375,293.6563 C225.5469,293.5 225.5781,293.3125 225.5781,292.8906 L225.5781,291.4688 C225.5781,291.0313 225.5625,290.9063 225.4688,290.75 C225.3125,290.4844 225.0313,290.3438 224.7344,290.3438 C224.4375,290.3438 224.2344,290.4375 224.0156,290.75 L223.8438,290.6719 Z " fill="#000000"/><text fill="#000000" font-family="sans-serif" font-size="12" lengthAdjust="spacing" textLength="77" x="235.5" y="299.1543">ResumeView</text><line style="stroke:#A80036;stroke-width:1.5;" x1="207.5" x2="314.5" y1="311" y2="311"/><line style="stroke:#A80036;stroke-width:1.5;" x1="207.5" x2="314.5" y1="319" y2="319"/><!--MD5=[eba1bc73714f08f0da8dc05a139be9c1]
class views.StartView--><rect codeLine="83" fill="#FEFECE" filter="url(#fbjngy45615jz)" height="48" id="views.StartView" style="stroke:#A80036;stroke-width:1.5;" width="89" x="354.5" y="164"/><ellipse cx="369.5" cy="180" fill="#ADD1B2" rx="11" ry="11" style="stroke:#A80036;stroke-width:1.0;"/><path d="M371.8438,175.6719 C370.9063,175.2344 370.3125,175.0938 369.4375,175.0938 C366.8125,175.0938 364.8125,177.1719 364.8125,179.8906 L364.8125,181.0156 C364.8125,183.5938 366.9219,185.4844 369.8125,185.4844 C371.0313,185.4844 372.1875,185.1875 372.9375,184.6406 C373.5156,184.2344 373.8438,183.7813 373.8438,183.3906 C373.8438,182.9375 373.4531,182.5469 372.9844,182.5469 C372.7656,182.5469 372.5625,182.625 372.375,182.8125 C371.9219,183.2969 371.9219,183.2969 371.7344,183.3906 C371.3125,183.6563 370.625,183.7813 369.8594,183.7813 C367.8125,183.7813 366.5156,182.6875 366.5156,180.9844 L366.5156,179.8906 C366.5156,178.1094 367.7656,176.7969 369.5,176.7969 C370.0781,176.7969 370.6875,176.9531 371.1563,177.2031 C371.6406,177.4844 371.8125,177.7031 371.9063,178.1094 C371.9688,178.5156 372,178.6406 372.1406,178.7656 C372.2813,178.9063 372.5156,179.0156 372.7344,179.0156 C373,179.0156 373.2656,178.875 373.4375,178.6563 C373.5469,178.5 373.5781,178.3125 373.5781,177.8906 L373.5781,176.4688 C373.5781,176.0313 373.5625,175.9063 373.4688,175.75 C373.3125,175.4844 373.0313,175.3438 372.7344,175.3438 C372.4375,175.3438 372.2344,175.4375 372.0156,175.75 L371.8438,175.6719 Z " fill="#000000"/><text fill="#000000" font-family="sans-serif" font-size="12" lengthAdjust="spacing" textLength="57" x="383.5" y="184.1543">StartView</text><line style="stroke:#A80036;stroke-width:1.5;" x1="355.5" x2="442.5" y1="196" y2="196"/><line style="stroke:#A80036;stroke-width:1.5;" x1="355.5" x2="442.5" y1="204" y2="204"/><!--MD5=[625ef0ab1f49174a2477f77f78895d5e]
class views.MovementView--><rect codeLine="87" fill="#FEFECE" filter="url(#fbjngy45615jz)" height="48" id="views.MovementView" style="stroke:#A80036;stroke-width:1.5;" width="124" x="40" y="434"/><ellipse cx="55" cy="450" fill="#ADD1B2" rx="11" ry="11" style="stroke:#A80036;stroke-width:1.0;"/><path d="M57.3438,445.6719 C56.4063,445.2344 55.8125,445.0938 54.9375,445.0938 C52.3125,445.0938 50.3125,447.1719 50.3125,449.8906 L50.3125,451.0156 C50.3125,453.5938 52.4219,455.4844 55.3125,455.4844 C56.5313,455.4844 57.6875,455.1875 58.4375,454.6406 C59.0156,454.2344 59.3438,453.7813 59.3438,453.3906 C59.3438,452.9375 58.9531,452.5469 58.4844,452.5469 C58.2656,452.5469 58.0625,452.625 57.875,452.8125 C57.4219,453.2969 57.4219,453.2969 57.2344,453.3906 C56.8125,453.6563 56.125,453.7813 55.3594,453.7813 C53.3125,453.7813 52.0156,452.6875 52.0156,450.9844 L52.0156,449.8906 C52.0156,448.1094 53.2656,446.7969 55,446.7969 C55.5781,446.7969 56.1875,446.9531 56.6563,447.2031 C57.1406,447.4844 57.3125,447.7031 57.4063,448.1094 C57.4688,448.5156 57.5,448.6406 57.6406,448.7656 C57.7813,448.9063 58.0156,449.0156 58.2344,449.0156 C58.5,449.0156 58.7656,448.875 58.9375,448.6563 C59.0469,448.5 59.0781,448.3125 59.0781,447.8906 L59.0781,446.4688 C59.0781,446.0313 59.0625,445.9063 58.9688,445.75 C58.8125,445.4844 58.5313,445.3438 58.2344,445.3438 C57.9375,445.3438 57.7344,445.4375 57.5156,445.75 L57.3438,445.6719 Z " fill="#000000"/><text fill="#000000" font-family="sans-serif" font-size="12" lengthAdjust="spacing" textLength="92" x="69" y="454.1543">MovementView</text><line style="stroke:#A80036;stroke-width:1.5;" x1="41" x2="163" y1="466" y2="466"/><line style="stroke:#A80036;stroke-width:1.5;" x1="41" x2="163" y1="474" y2="474"/><!--MD5=[17c5bd0e327a2997366869d748d685d5]
class views.ColorView--><rect codeLine="91" fill="#FEFECE" filter="url(#fbjngy45615jz)" height="48" id="views.ColorView" style="stroke:#A80036;stroke-width:1.5;" width="93" x="352.5" y="434"/><ellipse cx="367.5" cy="450" fill="#ADD1B2" rx="11" ry="11" style="stroke:#A80036;stroke-width:1.0;"/><path d="M369.8438,445.6719 C368.9063,445.2344 368.3125,445.0938 367.4375,445.0938 C364.8125,445.0938 362.8125,447.1719 362.8125,449.8906 L362.8125,451.0156 C362.8125,453.5938 364.9219,455.4844 367.8125,455.4844 C369.0313,455.4844 370.1875,455.1875 370.9375,454.6406 C371.5156,454.2344 371.8438,453.7813 371.8438,453.3906 C371.8438,452.9375 371.4531,452.5469 370.9844,452.5469 C370.7656,452.5469 370.5625,452.625 370.375,452.8125 C369.9219,453.2969 369.9219,453.2969 369.7344,453.3906 C369.3125,453.6563 368.625,453.7813 367.8594,453.7813 C365.8125,453.7813 364.5156,452.6875 364.5156,450.9844 L364.5156,449.8906 C364.5156,448.1094 365.7656,446.7969 367.5,446.7969 C368.0781,446.7969 368.6875,446.9531 369.1563,447.2031 C369.6406,447.4844 369.8125,447.7031 369.9063,448.1094 C369.9688,448.5156 370,448.6406 370.1406,448.7656 C370.2813,448.9063 370.5156,449.0156 370.7344,449.0156 C371,449.0156 371.2656,448.875 371.4375,448.6563 C371.5469,448.5 371.5781,448.3125 371.5781,447.8906 L371.5781,446.4688 C371.5781,446.0313 371.5625,445.9063 371.4688,445.75 C371.3125,445.4844 371.0313,445.3438 370.7344,445.3438 C370.4375,445.3438 370.2344,445.4375 370.0156,445.75 L369.8438,445.6719 Z " fill="#000000"/><text fill="#000000" font-family="sans-serif" font-size="12" lengthAdjust="spacing" textLength="61" x="381.5" y="454.1543">ColorView</text><line style="stroke:#A80036;stroke-width:1.5;" x1="353.5" x2="444.5" y1="466" y2="466"/><line style="stroke:#A80036;stroke-width:1.5;" x1="353.5" x2="444.5" y1="474" y2="474"/><!--MD5=[692bbdbc7ace692555185cdf9d0c2e06]
class views.Message--><rect codeLine="95" fill="#FEFECE" filter="url(#fbjngy45615jz)" height="48" id="views.Message" style="stroke:#A80036;stroke-width:1.5;" width="87" x="217.5" y="434"/><ellipse cx="232.5" cy="450" fill="#EB937F" rx="11" ry="11" style="stroke:#A80036;stroke-width:1.0;"/><path d="M231.2969,450.875 L232.75,450.875 L232.75,450.9844 C232.75,451.3906 232.7813,451.5469 232.8594,451.7031 C233.0156,451.9531 233.2969,452.1094 233.5938,452.1094 C233.8438,452.1094 234.1094,451.9688 234.2656,451.75 C234.3906,451.5938 234.4219,451.4375 234.4219,450.9844 L234.4219,449.0625 C234.4219,448.9063 234.4219,448.8594 234.4063,448.7031 C234.3438,448.2344 234.0313,447.9219 233.5781,447.9219 C233.3281,447.9219 233.0625,448.0625 232.8906,448.2813 C232.7813,448.4531 232.75,448.6094 232.75,449.0625 L232.75,449.1875 L231.2969,449.1875 L231.2969,446.7813 L235.2813,446.7813 L235.2813,447.6406 C235.2813,448.0469 235.3125,448.2188 235.3906,448.375 C235.5625,448.625 235.8438,448.7813 236.125,448.7813 C236.3906,448.7813 236.6563,448.6406 236.8281,448.4219 C236.9375,448.25 236.9688,448.1094 236.9688,447.6406 L236.9688,445.0938 L229.3438,445.0938 C228.9063,445.0938 228.7813,445.1094 228.625,445.2031 C228.375,445.3594 228.2188,445.6563 228.2188,445.9375 C228.2188,446.2188 228.3594,446.4688 228.5781,446.6406 C228.7344,446.75 228.9219,446.7813 229.3438,446.7813 L229.5938,446.7813 L229.5938,453.2969 L229.3438,453.2969 C228.9375,453.2969 228.7813,453.3125 228.625,453.4219 C228.375,453.5938 228.2188,453.8594 228.2188,454.1563 C228.2188,454.4219 228.3594,454.6719 228.5781,454.8281 C228.7188,454.9531 228.9531,455 229.3438,455 L237.3438,455 L237.3438,452.4219 C237.3438,451.9844 237.3125,451.8438 237.2344,451.6875 C237.0625,451.4375 236.7813,451.2813 236.5,451.2813 C236.2344,451.2813 235.9688,451.3906 235.7969,451.6406 C235.6875,451.7969 235.6563,451.9375 235.6563,452.4219 L235.6563,453.2969 L231.2969,453.2969 L231.2969,450.875 Z " fill="#000000"/><text fill="#000000" font-family="sans-serif" font-size="12" lengthAdjust="spacing" textLength="55" x="246.5" y="454.1543">Message</text><line style="stroke:#A80036;stroke-width:1.5;" x1="218.5" x2="303.5" y1="466" y2="466"/><line style="stroke:#A80036;stroke-width:1.5;" x1="218.5" x2="303.5" y1="474" y2="474"/><!--MD5=[947e6c573c2f2818382a8a631176de9a]
class views.PlayerView--><rect codeLine="99" fill="#FEFECE" filter="url(#fbjngy45615jz)" height="48" id="views.PlayerView" style="stroke:#A80036;stroke-width:1.5;" width="97" x="212.5" y="49"/><ellipse cx="227.5" cy="65" fill="#ADD1B2" rx="11" ry="11" style="stroke:#A80036;stroke-width:1.0;"/><path d="M229.8438,60.6719 C228.9063,60.2344 228.3125,60.0938 227.4375,60.0938 C224.8125,60.0938 222.8125,62.1719 222.8125,64.8906 L222.8125,66.0156 C222.8125,68.5938 224.9219,70.4844 227.8125,70.4844 C229.0313,70.4844 230.1875,70.1875 230.9375,69.6406 C231.5156,69.2344 231.8438,68.7813 231.8438,68.3906 C231.8438,67.9375 231.4531,67.5469 230.9844,67.5469 C230.7656,67.5469 230.5625,67.625 230.375,67.8125 C229.9219,68.2969 229.9219,68.2969 229.7344,68.3906 C229.3125,68.6563 228.625,68.7813 227.8594,68.7813 C225.8125,68.7813 224.5156,67.6875 224.5156,65.9844 L224.5156,64.8906 C224.5156,63.1094 225.7656,61.7969 227.5,61.7969 C228.0781,61.7969 228.6875,61.9531 229.1563,62.2031 C229.6406,62.4844 229.8125,62.7031 229.9063,63.1094 C229.9688,63.5156 230,63.6406 230.1406,63.7656 C230.2813,63.9063 230.5156,64.0156 230.7344,64.0156 C231,64.0156 231.2656,63.875 231.4375,63.6563 C231.5469,63.5 231.5781,63.3125 231.5781,62.8906 L231.5781,61.4688 C231.5781,61.0313 231.5625,60.9063 231.4688,60.75 C231.3125,60.4844 231.0313,60.3438 230.7344,60.3438 C230.4375,60.3438 230.2344,60.4375 230.0156,60.75 L229.8438,60.6719 Z " fill="#000000"/><text fill="#000000" font-family="sans-serif" font-size="12" lengthAdjust="spacing" textLength="65" x="241.5" y="69.1543">PlayerView</text><line style="stroke:#A80036;stroke-width:1.5;" x1="213.5" x2="308.5" y1="81" y2="81"/><line style="stroke:#A80036;stroke-width:1.5;" x1="213.5" x2="308.5" y1="89" y2="89"/><!--MD5=[086790dd88b6dc20f42fdfbd3a0210ab]
class views.CoordinateView--><rect codeLine="103" fill="#FEFECE" filter="url(#fbjngy45615jz)" height="48" id="views.CoordinateView" style="stroke:#A80036;stroke-width:1.5;" width="127" x="174.5" y="542"/><ellipse cx="189.5" cy="558" fill="#ADD1B2" rx="11" ry="11" style="stroke:#A80036;stroke-width:1.0;"/><path d="M191.8438,553.6719 C190.9063,553.2344 190.3125,553.0938 189.4375,553.0938 C186.8125,553.0938 184.8125,555.1719 184.8125,557.8906 L184.8125,559.0156 C184.8125,561.5938 186.9219,563.4844 189.8125,563.4844 C191.0313,563.4844 192.1875,563.1875 192.9375,562.6406 C193.5156,562.2344 193.8438,561.7813 193.8438,561.3906 C193.8438,560.9375 193.4531,560.5469 192.9844,560.5469 C192.7656,560.5469 192.5625,560.625 192.375,560.8125 C191.9219,561.2969 191.9219,561.2969 191.7344,561.3906 C191.3125,561.6563 190.625,561.7813 189.8594,561.7813 C187.8125,561.7813 186.5156,560.6875 186.5156,558.9844 L186.5156,557.8906 C186.5156,556.1094 187.7656,554.7969 189.5,554.7969 C190.0781,554.7969 190.6875,554.9531 191.1563,555.2031 C191.6406,555.4844 191.8125,555.7031 191.9063,556.1094 C191.9688,556.5156 192,556.6406 192.1406,556.7656 C192.2813,556.9063 192.5156,557.0156 192.7344,557.0156 C193,557.0156 193.2656,556.875 193.4375,556.6563 C193.5469,556.5 193.5781,556.3125 193.5781,555.8906 L193.5781,554.4688 C193.5781,554.0313 193.5625,553.9063 193.4688,553.75 C193.3125,553.4844 193.0313,553.3438 192.7344,553.3438 C192.4375,553.3438 192.2344,553.4375 192.0156,553.75 L191.8438,553.6719 Z " fill="#000000"/><text fill="#000000" font-family="sans-serif" font-size="12" lengthAdjust="spacing" textLength="95" x="203.5" y="562.1543">CoordinateView</text><line style="stroke:#A80036;stroke-width:1.5;" x1="175.5" x2="300.5" y1="574" y2="574"/><line style="stroke:#A80036;stroke-width:1.5;" x1="175.5" x2="300.5" y1="582" y2="582"/><!--MD5=[280d60b3a1c00403d47604559a33a076]
class views.MenuView--><rect codeLine="107" fill="#FEFECE" filter="url(#fbjngy45615jz)" height="48" id="views.MenuView" style="stroke:#A80036;stroke-width:1.5;" width="93" x="40.5" y="279"/><ellipse cx="55.5" cy="295" fill="#ADD1B2" rx="11" ry="11" style="stroke:#A80036;stroke-width:1.0;"/><path d="M57.8438,290.6719 C56.9063,290.2344 56.3125,290.0938 55.4375,290.0938 C52.8125,290.0938 50.8125,292.1719 50.8125,294.8906 L50.8125,296.0156 C50.8125,298.5938 52.9219,300.4844 55.8125,300.4844 C57.0313,300.4844 58.1875,300.1875 58.9375,299.6406 C59.5156,299.2344 59.8438,298.7813 59.8438,298.3906 C59.8438,297.9375 59.4531,297.5469 58.9844,297.5469 C58.7656,297.5469 58.5625,297.625 58.375,297.8125 C57.9219,298.2969 57.9219,298.2969 57.7344,298.3906 C57.3125,298.6563 56.625,298.7813 55.8594,298.7813 C53.8125,298.7813 52.5156,297.6875 52.5156,295.9844 L52.5156,294.8906 C52.5156,293.1094 53.7656,291.7969 55.5,291.7969 C56.0781,291.7969 56.6875,291.9531 57.1563,292.2031 C57.6406,292.4844 57.8125,292.7031 57.9063,293.1094 C57.9688,293.5156 58,293.6406 58.1406,293.7656 C58.2813,293.9063 58.5156,294.0156 58.7344,294.0156 C59,294.0156 59.2656,293.875 59.4375,293.6563 C59.5469,293.5 59.5781,293.3125 59.5781,292.8906 L59.5781,291.4688 C59.5781,291.0313 59.5625,290.9063 59.4688,290.75 C59.3125,290.4844 59.0313,290.3438 58.7344,290.3438 C58.4375,290.3438 58.2344,290.4375 58.0156,290.75 L57.8438,290.6719 Z " fill="#000000"/><text fill="#000000" font-family="sans-serif" font-size="12" lengthAdjust="spacing" textLength="61" x="69.5" y="299.1543">MenuView</text><line style="stroke:#A80036;stroke-width:1.5;" x1="41.5" x2="132.5" y1="311" y2="311"/><line style="stroke:#A80036;stroke-width:1.5;" x1="41.5" x2="132.5" y1="319" y2="319"/><!--MD5=[6bfde5656e7ece32836aeea1e9e8a819]
link controllers to models--><path d="M1371.177,189.0453 C1371.3256,189.0469 1371.4759,189.0486 1371.6281,189.0503 C1376.4971,189.1059 1383.2148,189.2209 1391.2283,189.4565 C1407.2553,189.9279 1428.4656,190.8821 1450.4363,192.8105 C1494.3775,196.6673 1541.36,204.4205 1556,220 C1559.0363,223.2311 1561.4545,226.8821 1563.36,230.804 C1563.8363,231.7844 1564.2807,232.7818 1564.6946,233.7938 C1564.9015,234.2998 1565.1009,234.8094 1565.2928,235.3224 C1565.3408,235.4507 1565.3883,235.5791 1565.4354,235.7078 " fill="none" id="controllers-to-models" style="stroke:#A80036;stroke-width:1.0;stroke-dasharray:7.0,7.0;"/><polygon fill="#A80036" points="1565.4354,235.7078,1566.1,225.8814,1563.7177,231.0121,1558.587,228.6297,1565.4354,235.7078" style="stroke:#A80036;stroke-width:1.0;"/><!--MD5=[9da2d375dc0417b2d3724b966d4c0d45]
link models to types--><path d="M1572.0643,326.0326 C1572.1414,326.2432 1572.2189,326.455 1572.2968,326.6679 C1572.6085,327.5195 1572.9269,328.3892 1573.2514,329.2758 C1578.4441,343.4621 1585.2281,361.9963 1592.0113,380.5283 C1598.7944,399.0603 1605.5766,417.5901 1610.7655,431.7676 C1611.0898,432.6537 1611.4079,433.5227 1611.7193,434.3738 C1611.7972,434.5865 1611.8747,434.7982 1611.9517,435.0086 " fill="none" id="models-to-types" style="stroke:#A80036;stroke-width:1.0;stroke-dasharray:7.0,7.0;"/><polygon fill="#A80036" points="1611.9517,435.0086,1612.6147,425.1821,1610.2332,430.3132,1605.1021,427.9317,1611.9517,435.0086" style="stroke:#A80036;stroke-width:1.0;"/><!--MD5=[fd4dadafb7dfafd89665a9151015bafc]
link views to controllers--><path d="M518.0031,73.9943 C518.7368,73.9941 519.5133,73.994 520.332,73.994 C526.8811,73.9938 536.1251,73.9982 547.6849,74.0154 C570.8046,74.0499 603.1877,74.1358 641.8023,74.3392 C719.0316,74.7462 821.1873,75.6235 924.0145,77.5007 C1129.669,81.2552 1338.01,89.0095 1355,105 C1358.2288,108.039 1360.7928,111.5444 1362.8058,115.3587 C1363.3091,116.3123 1363.7779,117.2852 1364.214,118.2749 C1364.4321,118.7698 1364.642,119.2689 1364.844,119.7719 C1364.945,120.0233 1365.0439,120.2758 1365.141,120.5292 C1365.1895,120.6559 1365.2375,120.7829 1365.2851,120.91 " fill="none" id="views-to-controllers" style="stroke:#A80036;stroke-width:1.0;stroke-dasharray:7.0,7.0;"/><polygon fill="#A80036" points="1365.2851,120.91,1365.8801,111.0792,1363.5341,116.2266,1358.3866,113.8807,1365.2851,120.91" style="stroke:#A80036;stroke-width:1.0;"/><!--MD5=[a47103ae2ffafd08434d69e1e4d1349a]
link views to types--><path d="M517.6321,74.0561 C518.3362,74.061 519.0815,74.0661 519.8673,74.0717 C526.1541,74.1158 535.0364,74.1819 546.1659,74.2741 C568.4249,74.4586 599.6726,74.7477 637.122,75.1748 C712.0207,76.0291 811.7262,77.4356 913.9424,79.662 C1118.3748,84.1147 1332.85,91.847 1379,105 C1477.98,133.21 1521.11,135.591 1580,220 C1610.085,263.12 1620.245,321.2068 1622.8063,369.0815 C1623.1264,375.0658 1623.3278,380.8906 1623.4346,386.5067 C1623.4613,387.9107 1623.4821,389.3016 1623.4973,390.6788 " fill="none" id="views-to-types" style="stroke:#A80036;stroke-width:1.0;stroke-dasharray:7.0,7.0;"/><polygon fill="#A80036" points="1623.4973,390.6788,1627.3975,381.6351,1623.442,385.6791,1619.398,381.7236,1623.4973,390.6788" style="stroke:#A80036;stroke-width:1.0;"/><!--MD5=[c5811be28ca2b32efdddcb59764d8c2d]
link views.PlayView to views.MenuView--><path codeLine="111" d="M158.57,212.14 C144.131,230.269 124.006,255.537 108.773,274.663 " fill="none" id="views.PlayView-to-views.MenuView" style="stroke:#A80036;stroke-width:1.0;stroke-dasharray:7.0,7.0;"/><polygon fill="#A80036" points="105.405,278.891,114.141,274.3432,108.5201,274.98,107.8834,269.3591,105.405,278.891" style="stroke:#A80036;stroke-width:1.0;"/><!--MD5=[67c5dbc5f258340ee2b7aaadfd6765aa]
link views.PlayerView to views.StartView--><path codeLine="112" d="M298.5433,104.7428 C298.5433,104.7428 341.589,139.99 360.644,155.593 " fill="none" id="views.PlayerView-views.StartView" style="stroke:#A80036;stroke-width:1.0;"/><polygon fill="#A80036" points="370.778,163.891,366.3491,155.0941,366.9096,160.7232,361.2805,161.2836,370.778,163.891" style="stroke:#A80036;stroke-width:1.0;"/><line style="stroke:#A80036;stroke-width:1.0;" x1="366.9096" x2="360.7205" y1="160.7232" y2="155.655"/><polygon fill="#A80036" points="289.259,97.14,291.3669,104.0362,298.5433,104.7428,296.4354,97.8466,289.259,97.14" style="stroke:#A80036;stroke-width:1.0;"/><!--MD5=[9911ff4f94ad66318e9363318070f9b5]
link views.PlayerView to views.PlayView--><path codeLine="113" d="M236.6404,106.7709 C236.6404,106.7709 212.743,138.917 201.992,153.38 " fill="none" id="views.PlayerView-views.PlayView" style="stroke:#A80036;stroke-width:1.0;"/><polygon fill="#A80036" points="194.178,163.891,202.7572,159.054,197.1607,159.8781,196.3366,154.2816,194.178,163.891" style="stroke:#A80036;stroke-width:1.0;"/><line style="stroke:#A80036;stroke-width:1.0;" x1="197.1607" x2="201.934" y1="159.8781" y2="153.4575"/><polygon fill="#A80036" points="243.799,97.14,237.0094,99.5693,236.6404,106.7709,243.43,104.3417,243.799,97.14" style="stroke:#A80036;stroke-width:1.0;"/><!--MD5=[ebea6b3e947d8b3c55735d694b4eb772]
link views.PlayerView to views.ResumeView--><path codeLine="114" d="M261,109.117 C261,109.117 261,223.214 261,265.784 " fill="none" id="views.PlayerView-views.ResumeView" style="stroke:#A80036;stroke-width:1.0;"/><polygon fill="#A80036" points="261,278.822,265,269.822,261,273.822,257,269.822,261,278.822" style="stroke:#A80036;stroke-width:1.0;"/><line style="stroke:#A80036;stroke-width:1.0;" x1="261" x2="261" y1="273.822" y2="265.822"/><polygon fill="#A80036" points="261,97.117,257,103.117,261,109.117,265,103.117,261,97.117" style="stroke:#A80036;stroke-width:1.0;"/><!--MD5=[8507262084d539f4882e2752de5479e8]
link views.StartView to views.Message--><path codeLine="115" d="M443.691,201.557 C452.137,206.006 459.91,211.985 465,220 C500.027,275.15 509.756,319.405 465,367 C455.086,377.543 348.037,368.718 335,375 C310.588,386.763 290.579,410.526 277.55,429.456 " fill="none" id="views.StartView-to-views.Message" style="stroke:#A80036;stroke-width:1.0;stroke-dasharray:7.0,7.0;"/><polygon fill="#A80036" points="274.715,433.661,283.0634,428.4356,277.5105,429.5155,276.4306,423.9627,274.715,433.661" style="stroke:#A80036;stroke-width:1.0;"/><!--MD5=[1b8a73df775c8bac903591bf669c8c66]
link views.StartView to views.BoardView--><path codeLine="116" d="M399,212.14 C399,229.964 399,254.69 399,273.693 " fill="none" id="views.StartView-to-views.BoardView" style="stroke:#A80036;stroke-width:1.0;stroke-dasharray:7.0,7.0;"/><polygon fill="#A80036" points="399,278.891,403,269.891,399,273.891,395,269.891,399,278.891" style="stroke:#A80036;stroke-width:1.0;"/><!--MD5=[ebadaef8e2bbd4ba1e726984e015cfbe]
link views.BoardView to views.ColorView--><path codeLine="117" d="M399,327.237 C399,354.31 399,399.049 399,428.275 " fill="none" id="views.BoardView-to-views.ColorView" style="stroke:#A80036;stroke-width:1.0;stroke-dasharray:7.0,7.0;"/><polygon fill="#A80036" points="399,433.544,403,424.544,399,428.544,395,424.544,399,433.544" style="stroke:#A80036;stroke-width:1.0;"/><!--MD5=[095a9e8630f04b2395f4481b19b8906e]
link views.BoardView to views.Message--><path codeLine="118" d="M378.041,327.237 C353.218,354.759 311.926,400.539 285.608,429.717 " fill="none" id="views.BoardView-to-views.Message" style="stroke:#A80036;stroke-width:1.0;stroke-dasharray:7.0,7.0;"/><polygon fill="#A80036" points="282.156,433.544,291.154,429.5396,285.5047,429.831,285.2133,424.1817,282.156,433.544" style="stroke:#A80036;stroke-width:1.0;"/><!--MD5=[f9d7272086e8e62f4b793c0eb33c0b4b]
link views.PlayView to views.Message--><path codeLine="119" d="M174.279,212.14 C171.105,247.034 168.618,314.609 189,367 C198.308,390.925 216.37,413.474 232.074,430.017 " fill="none" id="views.PlayView-to-views.Message" style="stroke:#A80036;stroke-width:1.0;stroke-dasharray:7.0,7.0;"/><polygon fill="#A80036" points="235.592,433.666,232.2261,424.4102,232.1221,430.0661,226.4662,429.9621,235.592,433.666" style="stroke:#A80036;stroke-width:1.0;"/><!--MD5=[a9b9099bd570987dc5af9f0e9221dc51]
link views.PlayView to views.BoardView--><path codeLine="120" d="M219.217,189.66 C252.312,191.918 298.4,199.041 333,220 C354.614,233.092 372.135,255.966 383.679,274.234 " fill="none" id="views.PlayView-to-views.BoardView" style="stroke:#A80036;stroke-width:1.0;stroke-dasharray:7.0,7.0;"/><polygon fill="#A80036" points="386.483,278.771,385.1538,269.0123,383.8542,274.5178,378.3487,273.2183,386.483,278.771" style="stroke:#A80036;stroke-width:1.0;"/><!--MD5=[e7feb43a398a066f104696f593d6a99e]
link views.MenuView to views.MovementView--><path codeLine="121" d="M89.2782,327.237 C91.9323,354.31 96.318,399.049 99.184,428.275 " fill="none" id="views.MenuView-to-views.MovementView" style="stroke:#A80036;stroke-width:1.0;stroke-dasharray:7.0,7.0;"/><polygon fill="#A80036" points="99.7,433.544,102.8014,424.1962,99.2114,428.5679,94.8397,424.978,99.7,433.544" style="stroke:#A80036;stroke-width:1.0;"/><!--MD5=[10596a91828e477a3125b8bcff20f0cc]
link views.MenuView to views.Message--><path codeLine="122" d="M110.131,327.132 C124.008,340.093 142.508,355.843 161,367 C169.197,371.946 173.04,369.681 181,375 C203.599,390.103 224.868,412.45 239.787,430.002 " fill="none" id="views.MenuView-to-views.Message" style="stroke:#A80036;stroke-width:1.0;stroke-dasharray:7.0,7.0;"/><polygon fill="#A80036" points="243.061,433.897,240.3334,424.4334,239.8444,430.069,234.2087,429.58,243.061,433.897" style="stroke:#A80036;stroke-width:1.0;"/><!--MD5=[bc8a2baa650750752d6e88c509172a1c]
link views.MovementView to views.ErrorView--><path codeLine="123" d="M100.264,482 C99.056,498.003 97.438,519.446 96.149,536.528 " fill="none" id="views.MovementView-to-views.ErrorView" style="stroke:#A80036;stroke-width:1.0;stroke-dasharray:7.0,7.0;"/><polygon fill="#A80036" points="95.76,541.678,100.4248,533.0039,96.1356,536.6921,92.4474,532.4029,95.76,541.678" style="stroke:#A80036;stroke-width:1.0;"/><!--MD5=[43dd04138dcca8bbc729df36fdc1a987]
link views.ResumeView to views.Message--><path codeLine="124" d="M261,327.237 C261,354.31 261,399.049 261,428.275 " fill="none" id="views.ResumeView-to-views.Message" style="stroke:#A80036;stroke-width:1.0;stroke-dasharray:7.0,7.0;"/><polygon fill="#A80036" points="261,433.544,265,424.544,261,428.544,257,424.544,261,433.544" style="stroke:#A80036;stroke-width:1.0;"/><!--MD5=[520b71290d2efd547a67b9a059ddf5cb]
link views.MovementView to views.CoordinateView--><path codeLine="125" d="M131.51,482 C152.838,498.624 181.698,521.118 203.995,538.496 " fill="none" id="views.MovementView-to-views.CoordinateView" style="stroke:#A80036;stroke-width:1.0;stroke-dasharray:7.0,7.0;"/><polygon fill="#A80036" points="208.078,541.678,203.4366,532.9914,204.1337,538.6051,198.52,539.3023,208.078,541.678" style="stroke:#A80036;stroke-width:1.0;"/><!--MD5=[ef8c05d66c4b2b1e5a781c7196559dad]
reverse link controllers.Controller to controllers.StartController--><path codeLine="127" d="M907.349,211.036 C901.998,213.76 896.803,216.746 892,220 C868.232,236.1 846.371,260.748 832.064,278.818 " fill="none" id="controllers.Controller-backto-controllers.StartController" style="stroke:#A80036;stroke-width:1.0;"/><polygon fill="none" points="904.696,204.555,925.811,202.778,910.413,217.334,904.696,204.555" style="stroke:#A80036;stroke-width:1.0;"/><!--MD5=[cd97b32f8cd0eecd774161c5480ca0be]
reverse link controllers.Controller to controllers.PlayController--><path codeLine="128" d="M1036.19,213.825 C1087.29,217.509 1174.16,204.687 1207,220 C1233.75,232.475 1255.32,259.329 1268.34,278.918 " fill="none" id="controllers.Controller-backto-controllers.PlayController" style="stroke:#A80036;stroke-width:1.0;"/><polygon fill="none" points="1034.96,220.719,1016.15,210.96,1036.94,206.86,1034.96,220.719" style="stroke:#A80036;stroke-width:1.0;"/><!--MD5=[8b121a2dc1d192ba5b71e05f14e3e1fc]
reverse link controllers.Controller to controllers.ResumeController--><path codeLine="129" d="M905.999,193.179 C847.644,197.735 766.863,206.269 738,220 C709.698,233.464 684.515,259.574 668.618,278.727 " fill="none" id="controllers.Controller-backto-controllers.ResumeController" style="stroke:#A80036;stroke-width:1.0;"/><polygon fill="none" points="905.503,186.197,925.964,191.705,906.534,200.159,905.503,186.197" style="stroke:#A80036;stroke-width:1.0;"/><!--MD5=[ac6216610106df8653a0bdb9b1c5556b]
reverse link controllers.Controller to controllers.UndoController--><path codeLine="130" d="M971,232.337 C971,248.182 971,265.491 971,278.891 " fill="none" id="controllers.Controller-backto-controllers.UndoController" style="stroke:#A80036;stroke-width:1.0;"/><polygon fill="none" points="964,232.14,971,212.14,978,232.14,964,232.14" style="stroke:#A80036;stroke-width:1.0;"/><!--MD5=[6dd0cf0e356f363ae1914a7a2b11d4f3]
reverse link controllers.Controller to controllers.RedoController--><path codeLine="131" d="M1035.84,215.106 C1040.33,215.793 1044.43,216.717 1050,220 C1075.38,234.949 1097.98,260.275 1112.43,278.834 " fill="none" id="controllers.Controller-backto-controllers.RedoController" style="stroke:#A80036;stroke-width:1.0;"/><polygon fill="none" points="1034.18,221.906,1016.26,210.593,1037.32,208.264,1034.18,221.906" style="stroke:#A80036;stroke-width:1.0;"/><!--MD5=[f59d5386026bb4a52ecda18ff7a4c496]
link models.Game to models.Turn--><path codeLine="133" d="M1486.8204,339.1257 C1486.8204,339.1257 1494.68,396.38 1498,420.605 " fill="none" id="models.Game-models.Turn" style="stroke:#A80036;stroke-width:1.0;"/><polygon fill="#A80036" points="1499.78,433.544,1502.5201,424.084,1499.1007,428.5904,1494.5943,425.1709,1499.78,433.544" style="stroke:#A80036;stroke-width:1.0;"/><line style="stroke:#A80036;stroke-width:1.0;" x1="1499.1007" x2="1498.01" y1="428.5904" y2="420.6645"/><polygon fill="#A80036" points="1485.19,327.237,1482.0423,333.7248,1486.8204,339.1257,1489.9681,332.6379,1485.19,327.237" style="stroke:#A80036;stroke-width:1.0;"/><!--MD5=[d4d2321dd53b51862935e01c3c028505]
link models.Game to models.Board--><path codeLine="134" d="M1466.8201,338.2494 C1466.8201,338.2494 1458.18,363.122 1456,375 C1435.54,486.475 1417.57,522.679 1454,630 C1455,632.932 1456.28,635.821 1457.76,638.629 " fill="none" id="models.Game-models.Board" style="stroke:#A80036;stroke-width:1.0;"/><polygon fill="#A80036" points="1464.75,649.6238,1463.3011,639.8821,1462.0693,645.4032,1456.5482,644.1713,1464.75,649.6238" style="stroke:#A80036;stroke-width:1.0;"/><line style="stroke:#A80036;stroke-width:1.0;" x1="1462.0693" x2="1457.78" y1="645.4032" y2="638.65"/><polygon fill="#A80036" points="1471.27,327.105,1465.3303,331.1939,1466.8201,338.2494,1472.7599,334.1605,1471.27,327.105" style="stroke:#A80036;stroke-width:1.0;"/><!--MD5=[58201eb69d9a19662cac6d4497ced9d6]
link models.Turn to models.Player--><path codeLine="135" d="M1503.9901,493.9952 C1503.9901,493.9952 1504.66,517.677 1504.96,528.364 " fill="none" id="models.Turn-models.Player" style="stroke:#A80036;stroke-width:1.0;"/><polygon fill="#A80036" points="1505.34,541.678,1509.0843,532.5687,1505.1988,536.68,1501.0875,532.7945,1505.34,541.678" style="stroke:#A80036;stroke-width:1.0;"/><line style="stroke:#A80036;stroke-width:1.0;" x1="1505.1988" x2="1504.97" y1="536.68" y2="528.6835"/><polygon fill="#A80036" points="1503.65,482,1499.8216,488.111,1503.9901,493.9952,1507.8184,487.8842,1503.65,482" style="stroke:#A80036;stroke-width:1.0;"/><!--MD5=[bdba57f5dc648df4d8ec19013df38583]
link models.Player to models.Board--><path codeLine="136" d="M1501.88,590 C1499.01,606.003 1495.17,627.446 1492.1,644.528 " fill="none" id="models.Player-to-models.Board" style="stroke:#A80036;stroke-width:1.0;"/><polygon fill="#A80036" points="1491.18,649.6784,1496.7042,641.5247,1492.0616,644.7567,1488.8296,640.1141,1491.18,649.6784" style="stroke:#A80036;stroke-width:1.0;"/><!--MD5=[db4a842cdc949c7b7958a8c15140a76e]
link types.Coordinate to types.Color--><!--MD5=[076156e6f82886af7dd5e93bd4b33197]
link types.Coordinate to types.Error--><!--MD5=[33fab0656e57a922bbc9d247fcf0d9ab]
@startuml
package controllers  { }


package models  { }

package types  { }


package views { }
controllers .down.> models
models .down.> types
views .up.> controllers
views .up.> types

class  models.Board{

}

class  models.Game{

}

class  models.Player{

}

class  models.Turn{

}

class  types.Coordinate{

}

enum  types.Color{

}

enum  types.Error{

}

abstract class  controllers.Controller{

}

class  controllers.PlayController{

}

class  controllers.ResumeController{

}

class  controllers.StartController{

}

class  controllers.UndoController{

}

class  controllers.RedoController{

}

class  views.BoardView{

}

class  views.ErrorView{

}

class  views.PlayView{

}

class  views.ResumeView{

}

class views.StartView{

}

class  views.MovementView{

}

class  views.ColorView{

}

enum  views.Message{

}

class  views.PlayerView{

}

class views.CoordinateView {

}

class views.MenuView {

}

views.PlayView ..> views.MenuView
views.PlayerView *-down-> views.StartView
views.PlayerView *-down-> views.PlayView
views.PlayerView *-down-> views.ResumeView
views.StartView ..> views.Message
views.StartView ..> views.BoardView
views.BoardView ..> views.ColorView
views.BoardView ..> views.Message
views.PlayView ..> views.Message
views.PlayView ..> views.BoardView
views.MenuView ..> views.MovementView
views.MenuView ..> views.Message
views.MovementView ..> views.ErrorView
views.ResumeView ..> views.Message
views.MovementView ..> views.CoordinateView

controllers.Controller <|- - controllers.StartController
controllers.Controller <|- - controllers.PlayController
controllers.Controller <|- - controllers.ResumeController
controllers.Controller <|- - controllers.UndoController
controllers.Controller <|- - controllers.RedoController

models.Game *-down-> models.Turn
models.Game *-down-> models.Board
models.Turn *-down-> models.Player
models.Player - -> models.Board
@enduml

PlantUML version 1.2021.4beta1(Unknown compile time)
(GPL source distribution)
Java Runtime: Java(TM) SE Runtime Environment
JVM: Java HotSpot(TM) 64-Bit Server VM
Default Encoding: UTF-8
Language: en
Country: US
--></g></svg>