<?xml version="1.0" encoding="UTF-8" standalone="no"?><svg xmlns="http://www.w3.org/2000/svg" xmlns:xlink="http://www.w3.org/1999/xlink" contentScriptType="application/ecmascript" contentStyleType="text/css" height="630px" preserveAspectRatio="none" style="width:913px;height:630px;" version="1.1" viewBox="0 0 913 630" width="913px" zoomAndPan="magnify"><defs><filter height="300%" id="f17ymaro1g6i7i" width="300%" x="-1" y="-1"><feGaussianBlur result="blurOut" stdDeviation="2.0"/><feColorMatrix in="blurOut" result="blurOut2" type="matrix" values="0 0 0 0 0 0 0 0 0 0 0 0 0 0 0 0 0 0 .4 0"/><feOffset dx="4.0" dy="4.0" in="blurOut2" result="blurOut3"/><feBlend in="SourceGraphic" in2="blurOut3" mode="normal"/></filter></defs><g><polygon fill="#DDDDDD" filter="url(#f17ymaro1g6i7i)" points="206.2403,6,288.2403,6,295.2403,28.2969,302.2403,28.2969,302.2403,58.5938,206.2403,58.5938,206.2403,6" style="stroke:#000000;stroke-width:1.5;"/><line style="stroke:#000000;stroke-width:1.5;" x1="206.2403" x2="295.2403" y1="28.2969" y2="28.2969"/><text fill="#000000" font-family="sans-serif" font-size="14" font-weight="bold" lengthAdjust="spacingAndGlyphs" textLength="76" x="210.2403" y="20.9951">tictactoe</text><polygon fill="#DDDDDD" filter="url(#f17ymaro1g6i7i)" points="229.2403,232,361.2403,232,368.2403,254.2969,375.2403,254.2969,375.2403,284.5938,229.2403,284.5938,229.2403,232" style="stroke:#000000;stroke-width:1.5;"/><line style="stroke:#000000;stroke-width:1.5;" x1="229.2403" x2="368.2403" y1="254.2969" y2="254.2969"/><text fill="#000000" font-family="sans-serif" font-size="14" font-weight="bold" lengthAdjust="spacingAndGlyphs" textLength="126" x="233.2403" y="246.9951">tictactoe.views</text><polygon fill="#DDDDDD" filter="url(#f17ymaro1g6i7i)" points="186.2403,345,362.2403,345,369.2403,367.2969,376.2403,367.2969,376.2403,397.5938,186.2403,397.5938,186.2403,345" style="stroke:#000000;stroke-width:1.5;"/><line style="stroke:#000000;stroke-width:1.5;" x1="186.2403" x2="369.2403" y1="367.2969" y2="367.2969"/><text fill="#000000" font-family="sans-serif" font-size="14" font-weight="bold" lengthAdjust="spacingAndGlyphs" textLength="170" x="190.2403" y="359.9951">tictactoe.controllers</text><polygon fill="#DDDDDD" filter="url(#f17ymaro1g6i7i)" points="135.7403,458,280.7403,458,287.7403,480.2969,294.7403,480.2969,294.7403,510.5938,135.7403,510.5938,135.7403,458" style="stroke:#000000;stroke-width:1.5;"/><line style="stroke:#000000;stroke-width:1.5;" x1="135.7403" x2="287.7403" y1="480.2969" y2="480.2969"/><text fill="#000000" font-family="sans-serif" font-size="14" font-weight="bold" lengthAdjust="spacingAndGlyphs" textLength="139" x="139.7403" y="472.9951">tictactoe.models</text><polygon fill="#FFFFFF" filter="url(#f17ymaro1g6i7i)" points="237.7403,571,310.7403,571,317.7403,593.2969,324.7403,593.2969,324.7403,623.5938,237.7403,623.5938,237.7403,571" style="stroke:#000000;stroke-width:1.5;"/><line style="stroke:#000000;stroke-width:1.5;" x1="237.7403" x2="317.7403" y1="593.2969" y2="593.2969"/><text fill="#000000" font-family="sans-serif" font-size="14" font-weight="bold" lengthAdjust="spacingAndGlyphs" textLength="67" x="241.7403" y="585.9951">java.util</text><polygon fill="#DDDDDD" filter="url(#f17ymaro1g6i7i)" points="65.7407,232,108.7407,232,115.7407,254.2969,122.7407,254.2969,122.7407,284.5938,65.7407,284.5938,65.7407,232" style="stroke:#000000;stroke-width:1.5;"/><line style="stroke:#000000;stroke-width:1.5;" x1="65.7407" x2="115.7407" y1="254.2969" y2="254.2969"/><text fill="#000000" font-family="sans-serif" font-size="14" font-weight="bold" lengthAdjust="spacingAndGlyphs" textLength="37" x="69.7407" y="246.9951">utils</text><polygon fill="#FFFFFF" filter="url(#f17ymaro1g6i7i)" points="57.2407,345,117.2407,345,124.2407,367.2969,131.2407,367.2969,131.2407,397.5938,57.2407,397.5938,57.2407,345" style="stroke:#000000;stroke-width:1.5;"/><line style="stroke:#000000;stroke-width:1.5;" x1="57.2407" x2="124.2407" y1="367.2969" y2="367.2969"/><text fill="#000000" font-family="sans-serif" font-size="14" font-weight="bold" lengthAdjust="spacingAndGlyphs" textLength="54" x="61.2407" y="359.9951">java.io</text><polygon fill="#DDDDDD" filter="url(#f17ymaro1g6i7i)" points="67.7407,119,266.7407,119,273.7407,141.2969,280.7407,141.2969,280.7407,171.5938,67.7407,171.5938,67.7407,119" style="stroke:#000000;stroke-width:1.5;"/><line style="stroke:#000000;stroke-width:1.5;" x1="67.7407" x2="273.7407" y1="141.2969" y2="141.2969"/><text fill="#000000" font-family="sans-serif" font-size="14" font-weight="bold" lengthAdjust="spacingAndGlyphs" textLength="193" x="71.7407" y="133.9951">tictactoe.views.console</text><polygon fill="#DDDDDD" filter="url(#f17ymaro1g6i7i)" points="402.7403,119,609.7403,119,616.7403,141.2969,623.7403,141.2969,623.7403,171.5938,402.7403,171.5938,402.7403,119" style="stroke:#000000;stroke-width:1.5;"/><line style="stroke:#000000;stroke-width:1.5;" x1="402.7403" x2="616.7403" y1="141.2969" y2="141.2969"/><text fill="#000000" font-family="sans-serif" font-size="14" font-weight="bold" lengthAdjust="spacingAndGlyphs" textLength="201" x="406.7403" y="133.9951">tictactoe.views.graphics</text><polygon fill="#FFFFFF" filter="url(#f17ymaro1g6i7i)" points="481.2403,232,557.2403,232,564.2403,254.2969,571.2403,254.2969,571.2403,284.5938,481.2403,284.5938,481.2403,232" style="stroke:#000000;stroke-width:1.5;"/><line style="stroke:#000000;stroke-width:1.5;" x1="481.2403" x2="564.2403" y1="254.2969" y2="254.2969"/><text fill="#000000" font-family="sans-serif" font-size="14" font-weight="bold" lengthAdjust="spacingAndGlyphs" textLength="70" x="485.2403" y="246.9951">java.awt</text><polygon fill="#FFFFFF" filter="url(#f17ymaro1g6i7i)" points="606.2403,232,732.2403,232,739.2403,254.2969,746.2403,254.2969,746.2403,284.5938,606.2403,284.5938,606.2403,232" style="stroke:#000000;stroke-width:1.5;"/><line style="stroke:#000000;stroke-width:1.5;" x1="606.2403" x2="739.2403" y1="254.2969" y2="254.2969"/><text fill="#000000" font-family="sans-serif" font-size="14" font-weight="bold" lengthAdjust="spacingAndGlyphs" textLength="120" x="610.2403" y="246.9951">java.awt.event</text><polygon fill="#FFFFFF" filter="url(#f17ymaro1g6i7i)" points="781.7403,232,882.7403,232,889.7403,254.2969,896.7403,254.2969,896.7403,284.5938,781.7403,284.5938,781.7403,232" style="stroke:#000000;stroke-width:1.5;"/><line style="stroke:#000000;stroke-width:1.5;" x1="781.7403" x2="889.7403" y1="254.2969" y2="254.2969"/><text fill="#000000" font-family="sans-serif" font-size="14" font-weight="bold" lengthAdjust="spacingAndGlyphs" textLength="95" x="785.7403" y="246.9951">javax.swing</text><!--MD5=[e75f446ce7e4e6233c0f378e4a80c309]
link tictactoe to tictactoe.views.graphics--><path codeLine="2" d="M302.3493,54.118 C343.6483,71.817 403.5193,97.476 448.9263,116.936 " fill="none" id="tictactoe-to-tictactoe.views.graphics" style="stroke:#A80036;stroke-width:1.0;stroke-dasharray:7.0,7.0;"/><polygon fill="#A80036" points="453.5513,118.919,446.8552,111.6966,448.9557,116.9491,443.7033,119.0496,453.5513,118.919" style="stroke:#A80036;stroke-width:1.0;"/><!--MD5=[14e8060986a8fc6b4a58b3b27491f648]
link tictactoe to tictactoe.views.console--><path codeLine="3" d="M235.6863,59.245 C223.7713,75.776 208.2533,97.308 195.7923,114.597 " fill="none" id="tictactoe-to-tictactoe.views.console" style="stroke:#A80036;stroke-width:1.0;stroke-dasharray:7.0,7.0;"/><polygon fill="#A80036" points="192.6943,118.895,201.2017,113.9327,195.6179,114.8388,194.7118,109.255,192.6943,118.895" style="stroke:#A80036;stroke-width:1.0;"/><!--MD5=[4c8e626184b37a51cac3aeda5d7a8756]
link tictactoe to tictactoe.controllers--><path codeLine="4" d="M206.0463,38.79 C157.5703,46.947 85.1518,67.509 50.2407,119 C8.8353,180.07 6,224.505 48.2407,285 C64.4639,308.234 125.5243,330.164 181.0643,345.996 " fill="none" id="tictactoe-to-tictactoe.controllers" style="stroke:#A80036;stroke-width:1.0;stroke-dasharray:7.0,7.0;"/><polygon fill="#A80036" points="186.0773,347.412,178.5046,341.1148,181.2658,346.052,176.3286,348.8132,186.0773,347.412" style="stroke:#A80036;stroke-width:1.0;"/><!--MD5=[8fe1157dabbcf20ee852fc992046f19b]
link tictactoe to tictactoe.views--><path d="M271.3413,59.227 C281.2183,75.595 292.7443,97.66 298.2403,119 C307.5323,155.075 307.0463,198.187 305.2113,226.621 " fill="none" id="tictactoe-to-tictactoe.views" style="stroke:#A80036;stroke-width:1.0;stroke-dasharray:7.0,7.0;"/><polygon fill="#A80036" points="304.8553,231.754,309.4681,223.0522,305.2011,226.766,301.4873,222.4989,304.8553,231.754" style="stroke:#A80036;stroke-width:1.0;"/><!--MD5=[f6dfdd433beafcf2daacaf58db85d2a6]
link tictactoe.controllers to tictactoe.models--><path codeLine="8" d="M265.9333,398.245 C256.1033,414.776 243.3013,436.308 233.0213,453.597 " fill="none" id="tictactoe.controllers-to-tictactoe.models" style="stroke:#A80036;stroke-width:1.0;stroke-dasharray:7.0,7.0;"/><polygon fill="#A80036" points="230.4653,457.895,238.5029,452.2032,233.0205,453.5972,231.6265,448.1148,230.4653,457.895" style="stroke:#A80036;stroke-width:1.0;"/><!--MD5=[e6c0f23e74b5161a168046a341518387]
link tictactoe.models to java.util--><path d="M230.5483,511.245 C240.3773,527.776 253.1803,549.3079 263.4603,566.5966 " fill="none" id="tictactoe.models-to-java.util" style="stroke:#A80036;stroke-width:1.0;stroke-dasharray:7.0,7.0;"/><polygon fill="#A80036" points="266.0163,570.895,264.8556,561.1148,263.4613,566.5971,257.9789,565.2028,266.0163,570.895" style="stroke:#A80036;stroke-width:1.0;"/><!--MD5=[c868621a8ffa7a8485ccb8c9dbdaad11]
link tictactoe.controllers to java.util--><path d="M293.1573,398.048 C300.2573,414.712 308.5793,437.161 312.2403,458 C316.3163,481.2 316.3163,487.8 312.2403,511 C308.9233,529.8849 301.7773,550.0925 295.1813,566.1185 " fill="none" id="tictactoe.controllers-to-java.util" style="stroke:#A80036;stroke-width:1.0;stroke-dasharray:7.0,7.0;"/><polygon fill="#A80036" points="293.1573,570.9517,300.3231,564.1951,295.0885,566.3397,292.9439,561.1052,293.1573,570.9517" style="stroke:#A80036;stroke-width:1.0;"/><!--MD5=[e79504c030c2940e8dd8427e90ad9823]
link utils to java.io--><path d="M94.2407,285.245 C94.2407,301.496 94.2407,322.579 94.2407,339.714 " fill="none" id="utils-to-java.io" style="stroke:#A80036;stroke-width:1.0;stroke-dasharray:7.0,7.0;"/><polygon fill="#A80036" points="94.2407,344.895,98.2407,335.895,94.2407,339.895,90.2407,335.895,94.2407,344.895" style="stroke:#A80036;stroke-width:1.0;"/><!--MD5=[6ba7a600a15b805df477e9f81c752d07]
link tictactoe.views to tictactoe.controllers--><path d="M297.3703,285.245 C294.2953,301.496 290.3063,322.579 287.0653,339.714 " fill="none" id="tictactoe.views-to-tictactoe.controllers" style="stroke:#A80036;stroke-width:1.0;stroke-dasharray:7.0,7.0;"/><polygon fill="#A80036" points="286.0853,344.895,291.6872,336.7945,287.0139,339.982,283.8264,335.3087,286.0853,344.895" style="stroke:#A80036;stroke-width:1.0;"/><!--MD5=[d9231b12cc9710bcc39738b6493510f9]
link tictactoe.views.console to tictactoe.views--><path d="M203.9283,172.245 C223.3143,189.056 248.6643,211.039 268.7673,228.472 " fill="none" id="tictactoe.views.console-to-tictactoe.views" style="stroke:#A80036;stroke-width:1.0;stroke-dasharray:7.0,7.0;"/><polygon fill="#A80036" points="272.7143,231.895,268.5358,222.9765,268.9369,228.6191,263.2943,229.0203,272.7143,231.895" style="stroke:#A80036;stroke-width:1.0;"/><!--MD5=[ae85e2051aac6338671b2c0e494e498c]
link tictactoe.views.console to tictactoe.controllers--><path d="M177.7583,172.185 C182.4353,200.912 192.3993,248.232 211.2403,285 C221.7253,305.461 237.7343,325.502 251.7973,341.033 " fill="none" id="tictactoe.views.console-to-tictactoe.controllers" style="stroke:#A80036;stroke-width:1.0;stroke-dasharray:7.0,7.0;"/><polygon fill="#A80036" points="255.3263,344.882,252.1934,335.5447,251.9477,341.1962,246.2962,340.9505,255.3263,344.882" style="stroke:#A80036;stroke-width:1.0;"/><!--MD5=[b62e8057ebb64db4cc41eb56011c03b5]
link tictactoe.views.console to utils--><path d="M155.6863,172.245 C143.7713,188.776 128.2533,210.308 115.7927,227.597 " fill="none" id="tictactoe.views.console-to-utils" style="stroke:#A80036;stroke-width:1.0;stroke-dasharray:7.0,7.0;"/><polygon fill="#A80036" points="112.6948,231.895,121.2027,226.9336,115.6188,227.8391,114.7133,222.2552,112.6948,231.895" style="stroke:#A80036;stroke-width:1.0;"/><!--MD5=[c7abc341df818e9399752b73ea287ffa]
link tictactoe.views.graphics to java.awt--><path d="M516.2563,172.245 C518.1593,188.496 520.6283,209.579 522.6353,226.714 " fill="none" id="tictactoe.views.graphics-to-java.awt" style="stroke:#A80036;stroke-width:1.0;stroke-dasharray:7.0,7.0;"/><polygon fill="#A80036" points="523.2423,231.895,526.1658,222.4901,522.6594,226.9291,518.2204,223.4227,523.2423,231.895" style="stroke:#A80036;stroke-width:1.0;"/><!--MD5=[1c28faa5b8dc6ea7b3ae1a3bac7bae3d]
link tictactoe.views.graphics to java.awt.event--><path d="M551.0463,172.245 C575.9393,189.196 608.5533,211.406 634.2523,228.907 " fill="none" id="tictactoe.views.graphics-to-java.awt.event" style="stroke:#A80036;stroke-width:1.0;stroke-dasharray:7.0,7.0;"/><polygon fill="#A80036" points="638.6403,231.895,633.4546,223.5219,634.5082,229.0798,628.9503,230.1333,638.6403,231.895" style="stroke:#A80036;stroke-width:1.0;"/><!--MD5=[36236f1ad998eba9fea5e75bc6a115c4]
link tictactoe.views.graphics to tictactoe.views--><path d="M464.5683,172.105 C431.9543,189.262 389.0143,211.851 355.4903,229.487 " fill="none" id="tictactoe.views.graphics-to-tictactoe.views" style="stroke:#A80036;stroke-width:1.0;stroke-dasharray:7.0,7.0;"/><polygon fill="#A80036" points="351.0333,231.832,360.8606,231.1813,355.4582,229.5039,357.1356,224.1014,351.0333,231.832" style="stroke:#A80036;stroke-width:1.0;"/><!--MD5=[e76a6be31849206907fd12c2469d4e43]
link tictactoe.views.graphics to tictactoe.controllers--><path d="M493.4163,172.096 C470.5073,200.952 430.9733,248.587 392.2403,285 C370.4753,305.462 344.0463,325.969 322.4383,341.769 " fill="none" id="tictactoe.views.graphics-to-tictactoe.controllers" style="stroke:#A80036;stroke-width:1.0;stroke-dasharray:7.0,7.0;"/><polygon fill="#A80036" points="318.1843,344.864,327.8152,342.8036,322.2274,341.9224,323.1086,336.3346,318.1843,344.864" style="stroke:#A80036;stroke-width:1.0;"/><!--MD5=[b630ab80351c1f98f91c87ac09bf7168]
link tictactoe.views.graphics to javax.swing--><path d="M588.4413,172.105 C645.5723,191.558 723.2163,217.995 776.9093,236.277 " fill="none" id="tictactoe.views.graphics-to-javax.swing" style="stroke:#A80036;stroke-width:1.0;stroke-dasharray:7.0,7.0;"/><polygon fill="#A80036" points="781.7033,237.909,774.4728,231.2217,776.9701,236.2975,771.8944,238.7948,781.7033,237.909" style="stroke:#A80036;stroke-width:1.0;"/><!--MD5=[a8e8d3484133facbc78b1d24b008d691]
@startuml
package tictactoe #DDDDDD { }
tictactoe .down.> tictactoe.views.graphics
tictactoe .down.> tictactoe.views.console
tictactoe .down.> tictactoe.controllers
tictactoe .down.> tictactoe.views

package tictactoe.controllers #DDDDDD { }
tictactoe.controllers .down.> tictactoe.models

package tictactoe.models #DDDDDD { }
package java.util{ }
tictactoe.models .down.> java.util
tictactoe.controllers .down.> java.util

package utils #DDDDDD { }
package java.io{ }
utils .down.> java.io

package tictactoe.views #DDDDDD { }
tictactoe.views .down.> tictactoe.controllers

package tictactoe.views.console #DDDDDD { }
tictactoe.views.console .down.> tictactoe.views
tictactoe.views.console .down.> tictactoe.controllers
tictactoe.views.console .down.> utils

package tictactoe.views.graphics #DDDDDD { }
package java.awt{ }
tictactoe.views.graphics .down.> java.awt
package java.awt.event{ }
tictactoe.views.graphics .down.> java.awt.event
tictactoe.views.graphics .down.> tictactoe.views
tictactoe.views.graphics .down.> tictactoe.controllers
package javax.swing{ }
tictactoe.views.graphics .down.> javax.swing
@enduml

PlantUML version 1.2020.22(Sun Dec 06 09:36:27 UTC 2020)
(GPL source distribution)
Java Runtime: Java(TM) SE Runtime Environment
JVM: Java HotSpot(TM) 64-Bit Server VM
Default Encoding: UTF-8
Language: en
Country: US
--></g></svg>