<?xml version="1.0" encoding="UTF-8" standalone="no"?><svg xmlns="http://www.w3.org/2000/svg" xmlns:xlink="http://www.w3.org/1999/xlink" contentScriptType="application/ecmascript" contentStyleType="text/css" height="1104px" preserveAspectRatio="none" style="width:861px;height:1104px;" version="1.1" viewBox="0 0 861 1104" width="861px" zoomAndPan="magnify"><defs><filter height="300%" id="f1cjj8gcjn83h8" width="300%" x="-1" y="-1"><feGaussianBlur result="blurOut" stdDeviation="2.0"/><feColorMatrix in="blurOut" result="blurOut2" type="matrix" values="0 0 0 0 0 0 0 0 0 0 0 0 0 0 0 0 0 0 .4 0"/><feOffset dx="4.0" dy="4.0" in="blurOut2" result="blurOut3"/><feBlend in="SourceGraphic" in2="blurOut3" mode="normal"/></filter></defs><g><!--MD5=[a60570e4b426f702ccbb0d459e3b9417]
cluster models--><polygon fill="#FFFFFF" filter="url(#f1cjj8gcjn83h8)" points="348.1952,6,412.1952,6,419.1952,28.2969,763.1952,28.2969,763.1952,993,348.1952,993,348.1952,6" style="stroke:#000000;stroke-width:1.5;"/><line style="stroke:#000000;stroke-width:1.5;" x1="348.1952" x2="419.1952" y1="28.2969" y2="28.2969"/><text fill="#000000" font-family="sans-serif" font-size="14" font-weight="bold" lengthAdjust="spacing" textLength="58" x="352.1952" y="20.9951">models</text><!--MD5=[fbcab1a7378abda673044953d979be95]
class models.Board--><rect codeLine="5" fill="#FEFECE" filter="url(#f1cjj8gcjn83h8)" height="163.2422" id="models.Board" style="stroke:#A80036;stroke-width:1.5;" width="180" x="459.1952" y="814"/><ellipse cx="526.9452" cy="830" fill="#ADD1B2" rx="11" ry="11" style="stroke:#A80036;stroke-width:1.0;"/><path d="M529.289,825.6719 C528.3515,825.2344 527.7577,825.0938 526.8827,825.0938 C524.2577,825.0938 522.2577,827.1719 522.2577,829.8906 L522.2577,831.0156 C522.2577,833.5938 524.3671,835.4844 527.2577,835.4844 C528.4765,835.4844 529.6327,835.1875 530.3827,834.6406 C530.9608,834.2344 531.289,833.7813 531.289,833.3906 C531.289,832.9375 530.8983,832.5469 530.4296,832.5469 C530.2108,832.5469 530.0077,832.625 529.8202,832.8125 C529.3671,833.2969 529.3671,833.2969 529.1796,833.3906 C528.7577,833.6563 528.0702,833.7813 527.3046,833.7813 C525.2577,833.7813 523.9608,832.6875 523.9608,830.9844 L523.9608,829.8906 C523.9608,828.1094 525.2108,826.7969 526.9452,826.7969 C527.5233,826.7969 528.1327,826.9531 528.6015,827.2031 C529.0858,827.4844 529.2577,827.7031 529.3515,828.1094 C529.414,828.5156 529.4452,828.6406 529.5858,828.7656 C529.7265,828.9063 529.9608,829.0156 530.1796,829.0156 C530.4452,829.0156 530.7108,828.875 530.8827,828.6563 C530.9921,828.5 531.0233,828.3125 531.0233,827.8906 L531.0233,826.4688 C531.0233,826.0313 531.0077,825.9063 530.914,825.75 C530.7577,825.4844 530.4765,825.3438 530.1796,825.3438 C529.8827,825.3438 529.6796,825.4375 529.4608,825.75 L529.289,825.6719 Z " fill="#000000"/><text fill="#000000" font-family="sans-serif" font-size="12" lengthAdjust="spacing" textLength="36" x="547.4452" y="834.1543">Board</text><line style="stroke:#A80036;stroke-width:1.5;" x1="460.1952" x2="638.1952" y1="846" y2="846"/><line style="stroke:#A80036;stroke-width:1.5;" x1="460.1952" x2="638.1952" y1="854" y2="854"/><polygon fill="#4177AF" points="470.1952,861,466.1952,867,474.1952,867" style="stroke:#1963A0;stroke-width:1.0;"/><text fill="#000000" font-family="sans-serif" font-size="11" lengthAdjust="spacing" textLength="38" x="479.1952" y="868.2104">reset()</text><polygon fill="#4177AF" points="470.1952,873.8047,466.1952,879.8047,474.1952,879.8047" style="stroke:#1963A0;stroke-width:1.0;"/><text fill="#000000" font-family="sans-serif" font-size="11" lengthAdjust="spacing" textLength="128" x="479.1952" y="881.0151">isTicTacToe(): boolean</text><polygon fill="#4177AF" points="470.1952,886.6094,466.1952,892.6094,474.1952,892.6094" style="stroke:#1963A0;stroke-width:1.0;"/><text fill="#000000" font-family="sans-serif" font-size="11" lengthAdjust="spacing" textLength="154" x="479.1952" y="893.8198">getColor(Coordinate): Color</text><polygon fill="#4177AF" points="470.1952,899.4141,466.1952,905.4141,474.1952,905.4141" style="stroke:#1963A0;stroke-width:1.0;"/><text fill="#000000" font-family="sans-serif" font-size="11" lengthAdjust="spacing" textLength="114" x="479.1952" y="906.6245">undoable(): boolean</text><polygon fill="#4177AF" points="470.1952,912.2188,466.1952,918.2188,474.1952,918.2188" style="stroke:#1963A0;stroke-width:1.0;"/><text fill="#000000" font-family="sans-serif" font-size="11" lengthAdjust="spacing" textLength="36" x="479.1952" y="919.4292">undo()</text><polygon fill="#4177AF" points="470.1952,925.0234,466.1952,931.0234,474.1952,931.0234" style="stroke:#1963A0;stroke-width:1.0;"/><text fill="#000000" font-family="sans-serif" font-size="11" lengthAdjust="spacing" textLength="112" x="479.1952" y="932.2339">redoable(): boolean</text><polygon fill="#4177AF" points="470.1952,937.8281,466.1952,943.8281,474.1952,943.8281" style="stroke:#1963A0;stroke-width:1.0;"/><text fill="#000000" font-family="sans-serif" font-size="11" lengthAdjust="spacing" textLength="34" x="479.1952" y="945.0386">redo()</text><polygon fill="#4177AF" points="470.1952,950.6328,466.1952,956.6328,474.1952,956.6328" style="stroke:#1963A0;stroke-width:1.0;"/><text fill="#000000" font-family="sans-serif" font-size="11" lengthAdjust="spacing" textLength="70" x="479.1952" y="957.8433">open(String)</text><polygon fill="#4177AF" points="470.1952,963.4375,466.1952,969.4375,474.1952,969.4375" style="stroke:#1963A0;stroke-width:1.0;"/><text fill="#000000" font-family="sans-serif" font-size="11" lengthAdjust="spacing" textLength="69" x="479.1952" y="970.6479">save(String)</text><!--MD5=[1ea5cf3e691bb3552ec8d5f9a56af156]
class models.Game--><rect codeLine="17" fill="#FEFECE" filter="url(#f1cjj8gcjn83h8)" height="265.6797" id="models.Game" style="stroke:#A80036;stroke-width:1.5;" width="346" x="364.1952" y="41"/><ellipse cx="515.4452" cy="57" fill="#ADD1B2" rx="11" ry="11" style="stroke:#A80036;stroke-width:1.0;"/><path d="M517.789,52.6719 C516.8515,52.2344 516.2577,52.0938 515.3827,52.0938 C512.7577,52.0938 510.7577,54.1719 510.7577,56.8906 L510.7577,58.0156 C510.7577,60.5938 512.8671,62.4844 515.7577,62.4844 C516.9765,62.4844 518.1327,62.1875 518.8827,61.6406 C519.4608,61.2344 519.789,60.7813 519.789,60.3906 C519.789,59.9375 519.3983,59.5469 518.9296,59.5469 C518.7108,59.5469 518.5077,59.625 518.3202,59.8125 C517.8671,60.2969 517.8671,60.2969 517.6796,60.3906 C517.2577,60.6563 516.5702,60.7813 515.8046,60.7813 C513.7577,60.7813 512.4608,59.6875 512.4608,57.9844 L512.4608,56.8906 C512.4608,55.1094 513.7108,53.7969 515.4452,53.7969 C516.0233,53.7969 516.6327,53.9531 517.1015,54.2031 C517.5858,54.4844 517.7577,54.7031 517.8515,55.1094 C517.914,55.5156 517.9452,55.6406 518.0858,55.7656 C518.2265,55.9063 518.4608,56.0156 518.6796,56.0156 C518.9452,56.0156 519.2108,55.875 519.3827,55.6563 C519.4921,55.5 519.5233,55.3125 519.5233,54.8906 L519.5233,53.4688 C519.5233,53.0313 519.5077,52.9063 519.414,52.75 C519.2577,52.4844 518.9765,52.3438 518.6796,52.3438 C518.3827,52.3438 518.1796,52.4375 517.9608,52.75 L517.789,52.6719 Z " fill="#000000"/><text fill="#000000" font-family="sans-serif" font-size="12" lengthAdjust="spacing" textLength="35" x="535.9452" y="61.1543">Game</text><line style="stroke:#A80036;stroke-width:1.5;" x1="365.1952" x2="709.1952" y1="73" y2="73"/><line style="stroke:#A80036;stroke-width:1.5;" x1="365.1952" x2="709.1952" y1="81" y2="81"/><ellipse cx="375.1952" cy="92" fill="#84BE84" rx="3" ry="3" style="stroke:#038048;stroke-width:1.0;"/><text fill="#000000" font-family="sans-serif" font-size="11" lengthAdjust="spacing" textLength="38" x="384.1952" y="95.2104">reset()</text><ellipse cx="375.1952" cy="104.8047" fill="#84BE84" rx="3" ry="3" style="stroke:#038048;stroke-width:1.0;"/><text fill="#000000" font-family="sans-serif" font-size="11" lengthAdjust="spacing" textLength="184" x="384.1952" y="108.0151">areAllTokensOnBoard(): boolean</text><ellipse cx="375.1952" cy="117.6094" fill="#84BE84" rx="3" ry="3" style="stroke:#038048;stroke-width:1.0;"/><text fill="#000000" font-family="sans-serif" font-size="11" lengthAdjust="spacing" textLength="123" x="384.1952" y="120.8198">putToken(Coordinate)</text><ellipse cx="375.1952" cy="130.4141" fill="#84BE84" rx="3" ry="3" style="stroke:#038048;stroke-width:1.0;"/><text fill="#000000" font-family="sans-serif" font-size="11" lengthAdjust="spacing" textLength="200" x="384.1952" y="133.6245">getPutTokenError(Coordinate): Error</text><ellipse cx="375.1952" cy="143.2188" fill="#84BE84" rx="3" ry="3" style="stroke:#038048;stroke-width:1.0;"/><text fill="#000000" font-family="sans-serif" font-size="11" lengthAdjust="spacing" textLength="207" x="384.1952" y="146.4292">moveToken(Coordinate, Coordinate)</text><ellipse cx="375.1952" cy="156.0234" fill="#84BE84" rx="3" ry="3" style="stroke:#038048;stroke-width:1.0;"/><text fill="#000000" font-family="sans-serif" font-size="11" lengthAdjust="spacing" textLength="247" x="384.1952" y="159.2339">getOriginMoveTokenError(Coordinate): Error</text><ellipse cx="375.1952" cy="168.8281" fill="#84BE84" rx="3" ry="3" style="stroke:#038048;stroke-width:1.0;"/><text fill="#000000" font-family="sans-serif" font-size="11" lengthAdjust="spacing" textLength="320" x="384.1952" y="172.0386">getTargetMoveTokenError(Coordinate, Coordinate): Error</text><ellipse cx="375.1952" cy="181.6328" fill="#84BE84" rx="3" ry="3" style="stroke:#038048;stroke-width:1.0;"/><text fill="#000000" font-family="sans-serif" font-size="11" lengthAdjust="spacing" textLength="34" x="384.1952" y="184.8433">next()</text><ellipse cx="375.1952" cy="194.4375" fill="#84BE84" rx="3" ry="3" style="stroke:#038048;stroke-width:1.0;"/><text fill="#000000" font-family="sans-serif" font-size="11" lengthAdjust="spacing" textLength="128" x="384.1952" y="197.6479">getActiveColor(): Color</text><ellipse cx="375.1952" cy="207.2422" fill="#84BE84" rx="3" ry="3" style="stroke:#038048;stroke-width:1.0;"/><text fill="#000000" font-family="sans-serif" font-size="11" lengthAdjust="spacing" textLength="128" x="384.1952" y="210.4526">isTicTacToe(): boolean</text><ellipse cx="375.1952" cy="220.0469" fill="#84BE84" rx="3" ry="3" style="stroke:#038048;stroke-width:1.0;"/><text fill="#000000" font-family="sans-serif" font-size="11" lengthAdjust="spacing" textLength="154" x="384.1952" y="223.2573">getColor(Coordinate): Color</text><ellipse cx="375.1952" cy="232.8516" fill="#84BE84" rx="3" ry="3" style="stroke:#038048;stroke-width:1.0;"/><text fill="#000000" font-family="sans-serif" font-size="11" lengthAdjust="spacing" textLength="114" x="384.1952" y="236.062">undoable(): boolean</text><ellipse cx="375.1952" cy="245.6563" fill="#84BE84" rx="3" ry="3" style="stroke:#038048;stroke-width:1.0;"/><text fill="#000000" font-family="sans-serif" font-size="11" lengthAdjust="spacing" textLength="36" x="384.1952" y="248.8667">undo()</text><ellipse cx="375.1952" cy="258.4609" fill="#84BE84" rx="3" ry="3" style="stroke:#038048;stroke-width:1.0;"/><text fill="#000000" font-family="sans-serif" font-size="11" lengthAdjust="spacing" textLength="112" x="384.1952" y="261.6714">redoable(): boolean</text><ellipse cx="375.1952" cy="271.2656" fill="#84BE84" rx="3" ry="3" style="stroke:#038048;stroke-width:1.0;"/><text fill="#000000" font-family="sans-serif" font-size="11" lengthAdjust="spacing" textLength="34" x="384.1952" y="274.4761">redo()</text><polygon fill="#4177AF" points="375.1952,280.0703,371.1952,286.0703,379.1952,286.0703" style="stroke:#1963A0;stroke-width:1.0;"/><text fill="#000000" font-family="sans-serif" font-size="11" lengthAdjust="spacing" textLength="70" x="384.1952" y="287.2808">open(String)</text><polygon fill="#4177AF" points="375.1952,292.875,371.1952,298.875,379.1952,298.875" style="stroke:#1963A0;stroke-width:1.0;"/><text fill="#000000" font-family="sans-serif" font-size="11" lengthAdjust="spacing" textLength="69" x="384.1952" y="300.0854">save(String)</text><!--MD5=[6e8c5ac4fcf3c90f745643fbee571d05]
class models.Player--><rect codeLine="37" fill="#FEFECE" filter="url(#f1cjj8gcjn83h8)" height="137.6328" id="models.Player" style="stroke:#A80036;stroke-width:1.5;" width="346" x="364.1952" y="616"/><ellipse cx="514.9452" cy="632" fill="#ADD1B2" rx="11" ry="11" style="stroke:#A80036;stroke-width:1.0;"/><path d="M517.289,627.6719 C516.3515,627.2344 515.7577,627.0938 514.8827,627.0938 C512.2577,627.0938 510.2577,629.1719 510.2577,631.8906 L510.2577,633.0156 C510.2577,635.5938 512.3671,637.4844 515.2577,637.4844 C516.4765,637.4844 517.6327,637.1875 518.3827,636.6406 C518.9608,636.2344 519.289,635.7813 519.289,635.3906 C519.289,634.9375 518.8983,634.5469 518.4296,634.5469 C518.2108,634.5469 518.0077,634.625 517.8202,634.8125 C517.3671,635.2969 517.3671,635.2969 517.1796,635.3906 C516.7577,635.6563 516.0702,635.7813 515.3046,635.7813 C513.2577,635.7813 511.9608,634.6875 511.9608,632.9844 L511.9608,631.8906 C511.9608,630.1094 513.2108,628.7969 514.9452,628.7969 C515.5233,628.7969 516.1327,628.9531 516.6015,629.2031 C517.0858,629.4844 517.2577,629.7031 517.3515,630.1094 C517.414,630.5156 517.4452,630.6406 517.5858,630.7656 C517.7265,630.9063 517.9608,631.0156 518.1796,631.0156 C518.4452,631.0156 518.7108,630.875 518.8827,630.6563 C518.9921,630.5 519.0233,630.3125 519.0233,629.8906 L519.0233,628.4688 C519.0233,628.0313 519.0077,627.9063 518.914,627.75 C518.7577,627.4844 518.4765,627.3438 518.1796,627.3438 C517.8827,627.3438 517.6796,627.4375 517.4608,627.75 L517.289,627.6719 Z " fill="#000000"/><text fill="#000000" font-family="sans-serif" font-size="12" lengthAdjust="spacing" textLength="36" x="535.4452" y="636.1543">Player</text><line style="stroke:#A80036;stroke-width:1.5;" x1="365.1952" x2="709.1952" y1="648" y2="648"/><line style="stroke:#A80036;stroke-width:1.5;" x1="365.1952" x2="709.1952" y1="656" y2="656"/><polygon fill="#4177AF" points="375.1952,663,371.1952,669,379.1952,669" style="stroke:#1963A0;stroke-width:1.0;"/><text fill="#000000" font-family="sans-serif" font-size="11" lengthAdjust="spacing" textLength="92" x="384.1952" y="670.2104">getColor(): Color</text><polygon fill="#4177AF" points="375.1952,675.8047,371.1952,681.8047,379.1952,681.8047" style="stroke:#1963A0;stroke-width:1.0;"/><text fill="#000000" font-family="sans-serif" font-size="11" lengthAdjust="spacing" textLength="184" x="384.1952" y="683.0151">areAllTokensOnBoard(): boolean</text><polygon fill="#4177AF" points="375.1952,688.6094,371.1952,694.6094,379.1952,694.6094" style="stroke:#1963A0;stroke-width:1.0;"/><text fill="#000000" font-family="sans-serif" font-size="11" lengthAdjust="spacing" textLength="123" x="384.1952" y="695.8198">putToken(Coordinate)</text><polygon fill="#4177AF" points="375.1952,701.4141,371.1952,707.4141,379.1952,707.4141" style="stroke:#1963A0;stroke-width:1.0;"/><text fill="#000000" font-family="sans-serif" font-size="11" lengthAdjust="spacing" textLength="200" x="384.1952" y="708.6245">getPutTokenError(Coordinate): Error</text><polygon fill="#4177AF" points="375.1952,714.2188,371.1952,720.2188,379.1952,720.2188" style="stroke:#1963A0;stroke-width:1.0;"/><text fill="#000000" font-family="sans-serif" font-size="11" lengthAdjust="spacing" textLength="207" x="384.1952" y="721.4292">moveToken(Coordinate, Coordinate)</text><polygon fill="#4177AF" points="375.1952,727.0234,371.1952,733.0234,379.1952,733.0234" style="stroke:#1963A0;stroke-width:1.0;"/><text fill="#000000" font-family="sans-serif" font-size="11" lengthAdjust="spacing" textLength="247" x="384.1952" y="734.2339">getOriginMoveTokenError(Coordinate): Error</text><polygon fill="#4177AF" points="375.1952,739.8281,371.1952,745.8281,379.1952,745.8281" style="stroke:#1963A0;stroke-width:1.0;"/><text fill="#000000" font-family="sans-serif" font-size="11" lengthAdjust="spacing" textLength="320" x="384.1952" y="747.0386">getTargetMoveTokenError(Coordinate, Coordinate): Error</text><!--MD5=[06029ca6144b724b5ba6f17e981b093f]
class models.Turn--><rect codeLine="47" fill="#FEFECE" filter="url(#f1cjj8gcjn83h8)" height="188.8516" id="models.Turn" style="stroke:#A80036;stroke-width:1.5;" width="346" x="364.1952" y="367"/><ellipse cx="519.9452" cy="383" fill="#ADD1B2" rx="11" ry="11" style="stroke:#A80036;stroke-width:1.0;"/><path d="M522.289,378.6719 C521.3515,378.2344 520.7577,378.0938 519.8827,378.0938 C517.2577,378.0938 515.2577,380.1719 515.2577,382.8906 L515.2577,384.0156 C515.2577,386.5938 517.3671,388.4844 520.2577,388.4844 C521.4765,388.4844 522.6327,388.1875 523.3827,387.6406 C523.9608,387.2344 524.289,386.7813 524.289,386.3906 C524.289,385.9375 523.8983,385.5469 523.4296,385.5469 C523.2108,385.5469 523.0077,385.625 522.8202,385.8125 C522.3671,386.2969 522.3671,386.2969 522.1796,386.3906 C521.7577,386.6563 521.0702,386.7813 520.3046,386.7813 C518.2577,386.7813 516.9608,385.6875 516.9608,383.9844 L516.9608,382.8906 C516.9608,381.1094 518.2108,379.7969 519.9452,379.7969 C520.5233,379.7969 521.1327,379.9531 521.6015,380.2031 C522.0858,380.4844 522.2577,380.7031 522.3515,381.1094 C522.414,381.5156 522.4452,381.6406 522.5858,381.7656 C522.7265,381.9063 522.9608,382.0156 523.1796,382.0156 C523.4452,382.0156 523.7108,381.875 523.8827,381.6563 C523.9921,381.5 524.0233,381.3125 524.0233,380.8906 L524.0233,379.4688 C524.0233,379.0313 524.0077,378.9063 523.914,378.75 C523.7577,378.4844 523.4765,378.3438 523.1796,378.3438 C522.8827,378.3438 522.6796,378.4375 522.4608,378.75 L522.289,378.6719 Z " fill="#000000"/><text fill="#000000" font-family="sans-serif" font-size="12" lengthAdjust="spacing" textLength="26" x="540.4452" y="387.1543">Turn</text><line style="stroke:#A80036;stroke-width:1.5;" x1="365.1952" x2="709.1952" y1="399" y2="399"/><line style="stroke:#A80036;stroke-width:1.5;" x1="365.1952" x2="709.1952" y1="407" y2="407"/><polygon fill="#4177AF" points="375.1952,414,371.1952,420,379.1952,420" style="stroke:#1963A0;stroke-width:1.0;"/><text fill="#000000" font-family="sans-serif" font-size="11" lengthAdjust="spacing" textLength="38" x="384.1952" y="421.2104">reset()</text><polygon fill="#4177AF" points="375.1952,426.8047,371.1952,432.8047,379.1952,432.8047" style="stroke:#1963A0;stroke-width:1.0;"/><text fill="#000000" font-family="sans-serif" font-size="11" lengthAdjust="spacing" textLength="34" x="384.1952" y="434.0151">next()</text><polygon fill="#4177AF" points="375.1952,439.6094,371.1952,445.6094,379.1952,445.6094" style="stroke:#1963A0;stroke-width:1.0;"/><text fill="#000000" font-family="sans-serif" font-size="11" lengthAdjust="spacing" textLength="128" x="384.1952" y="446.8198">getActiveColor(): Color</text><polygon fill="#4177AF" points="375.1952,452.4141,371.1952,458.4141,379.1952,458.4141" style="stroke:#1963A0;stroke-width:1.0;"/><text fill="#000000" font-family="sans-serif" font-size="11" lengthAdjust="spacing" textLength="184" x="384.1952" y="459.6245">areAllTokensOnBoard(): boolean</text><polygon fill="#4177AF" points="375.1952,465.2188,371.1952,471.2188,379.1952,471.2188" style="stroke:#1963A0;stroke-width:1.0;"/><text fill="#000000" font-family="sans-serif" font-size="11" lengthAdjust="spacing" textLength="123" x="384.1952" y="472.4292">putToken(Coordinate)</text><polygon fill="#4177AF" points="375.1952,478.0234,371.1952,484.0234,379.1952,484.0234" style="stroke:#1963A0;stroke-width:1.0;"/><text fill="#000000" font-family="sans-serif" font-size="11" lengthAdjust="spacing" textLength="200" x="384.1952" y="485.2339">getPutTokenError(Coordinate): Error</text><polygon fill="#4177AF" points="375.1952,490.8281,371.1952,496.8281,379.1952,496.8281" style="stroke:#1963A0;stroke-width:1.0;"/><text fill="#000000" font-family="sans-serif" font-size="11" lengthAdjust="spacing" textLength="207" x="384.1952" y="498.0386">moveToken(Coordinate, Coordinate)</text><polygon fill="#4177AF" points="375.1952,503.6328,371.1952,509.6328,379.1952,509.6328" style="stroke:#1963A0;stroke-width:1.0;"/><text fill="#000000" font-family="sans-serif" font-size="11" lengthAdjust="spacing" textLength="247" x="384.1952" y="510.8433">getOriginMoveTokenError(Coordinate): Error</text><polygon fill="#4177AF" points="375.1952,516.4375,371.1952,522.4375,379.1952,522.4375" style="stroke:#1963A0;stroke-width:1.0;"/><text fill="#000000" font-family="sans-serif" font-size="11" lengthAdjust="spacing" textLength="320" x="384.1952" y="523.6479">getTargetMoveTokenError(Coordinate, Coordinate): Error</text><polygon fill="#4177AF" points="375.1952,529.2422,371.1952,535.2422,379.1952,535.2422" style="stroke:#1963A0;stroke-width:1.0;"/><text fill="#000000" font-family="sans-serif" font-size="11" lengthAdjust="spacing" textLength="70" x="384.1952" y="536.4526">open(String)</text><polygon fill="#4177AF" points="375.1952,542.0469,371.1952,548.0469,379.1952,548.0469" style="stroke:#1963A0;stroke-width:1.0;"/><text fill="#000000" font-family="sans-serif" font-size="11" lengthAdjust="spacing" textLength="69" x="384.1952" y="549.2573">save(String)</text><!--MD5=[8c7d7abc12e214c3cc12c9ab70edee11]
class Coordinate--><rect codeLine="1" fill="#FEFECE" filter="url(#f1cjj8gcjn83h8)" height="53.9375" id="Coordinate" style="stroke:#A80036;stroke-width:1.5;" width="98" x="709.1952" y="1037"/><ellipse cx="724.1952" cy="1055.9688" fill="#ADD1B2" rx="11" ry="11" style="stroke:#A80036;stroke-width:1.0;"/><path d="M726.5389,1051.6406 C725.6014,1051.2031 725.0077,1051.0625 724.1327,1051.0625 C721.5077,1051.0625 719.5077,1053.1406 719.5077,1055.8594 L719.5077,1056.9844 C719.5077,1059.5625 721.6171,1061.4531 724.5077,1061.4531 C725.7264,1061.4531 726.8827,1061.1563 727.6327,1060.6094 C728.2108,1060.2031 728.5389,1059.75 728.5389,1059.3594 C728.5389,1058.9063 728.1483,1058.5156 727.6796,1058.5156 C727.4608,1058.5156 727.2577,1058.5938 727.0702,1058.7813 C726.6171,1059.2656 726.6171,1059.2656 726.4296,1059.3594 C726.0077,1059.625 725.3202,1059.75 724.5546,1059.75 C722.5077,1059.75 721.2108,1058.6563 721.2108,1056.9531 L721.2108,1055.8594 C721.2108,1054.0781 722.4608,1052.7656 724.1952,1052.7656 C724.7733,1052.7656 725.3827,1052.9219 725.8514,1053.1719 C726.3358,1053.4531 726.5077,1053.6719 726.6014,1054.0781 C726.6639,1054.4844 726.6952,1054.6094 726.8358,1054.7344 C726.9764,1054.875 727.2108,1054.9844 727.4296,1054.9844 C727.6952,1054.9844 727.9608,1054.8438 728.1327,1054.625 C728.2421,1054.4688 728.2733,1054.2813 728.2733,1053.8594 L728.2733,1052.4375 C728.2733,1052 728.2577,1051.875 728.1639,1051.7188 C728.0077,1051.4531 727.7264,1051.3125 727.4296,1051.3125 C727.1327,1051.3125 726.9296,1051.4063 726.7108,1051.7188 L726.5389,1051.6406 Z " fill="#000000"/><text fill="#000000" font-family="sans-serif" font-size="12" lengthAdjust="spacing" textLength="37" x="752.6952" y="1053.1387">types.</text><text fill="#000000" font-family="sans-serif" font-size="12" lengthAdjust="spacing" textLength="66" x="738.1952" y="1067.1074">Coordinate</text><line style="stroke:#A80036;stroke-width:1.5;" x1="710.1952" x2="806.1952" y1="1074.9375" y2="1074.9375"/><line style="stroke:#A80036;stroke-width:1.5;" x1="710.1952" x2="806.1952" y1="1082.9375" y2="1082.9375"/><!--MD5=[b8cfd8c4119a3b0a7a46bfc5fc780f85]
class Error--><rect codeLine="2" fill="#FEFECE" filter="url(#f1cjj8gcjn83h8)" height="53.9375" id="Error" style="stroke:#A80036;stroke-width:1.5;" width="69" x="188.6952" y="868.5"/><ellipse cx="203.6952" cy="887.4688" fill="#EB937F" rx="11" ry="11" style="stroke:#A80036;stroke-width:1.0;"/><path d="M202.4921,888.3438 L203.9452,888.3438 L203.9452,888.4531 C203.9452,888.8594 203.9765,889.0156 204.0546,889.1719 C204.2108,889.4219 204.4921,889.5781 204.789,889.5781 C205.039,889.5781 205.3046,889.4375 205.4608,889.2188 C205.5858,889.0625 205.6171,888.9063 205.6171,888.4531 L205.6171,886.5313 C205.6171,886.375 205.6171,886.3281 205.6015,886.1719 C205.539,885.7031 205.2265,885.3906 204.7733,885.3906 C204.5233,885.3906 204.2577,885.5313 204.0858,885.75 C203.9765,885.9219 203.9452,886.0781 203.9452,886.5313 L203.9452,886.6563 L202.4921,886.6563 L202.4921,884.25 L206.4765,884.25 L206.4765,885.1094 C206.4765,885.5156 206.5077,885.6875 206.5858,885.8438 C206.7577,886.0938 207.039,886.25 207.3202,886.25 C207.5858,886.25 207.8515,886.1094 208.0233,885.8906 C208.1327,885.7188 208.164,885.5781 208.164,885.1094 L208.164,882.5625 L200.539,882.5625 C200.1015,882.5625 199.9765,882.5781 199.8202,882.6719 C199.5702,882.8281 199.414,883.125 199.414,883.4063 C199.414,883.6875 199.5546,883.9375 199.7733,884.1094 C199.9296,884.2188 200.1171,884.25 200.539,884.25 L200.789,884.25 L200.789,890.7656 L200.539,890.7656 C200.1327,890.7656 199.9765,890.7813 199.8202,890.8906 C199.5702,891.0625 199.414,891.3281 199.414,891.625 C199.414,891.8906 199.5546,892.1406 199.7733,892.2969 C199.914,892.4219 200.1483,892.4688 200.539,892.4688 L208.539,892.4688 L208.539,889.8906 C208.539,889.4531 208.5077,889.3125 208.4296,889.1563 C208.2577,888.9063 207.9765,888.75 207.6952,888.75 C207.4296,888.75 207.164,888.8594 206.9921,889.1094 C206.8827,889.2656 206.8515,889.4063 206.8515,889.8906 L206.8515,890.7656 L202.4921,890.7656 L202.4921,888.3438 Z " fill="#000000"/><text fill="#000000" font-family="sans-serif" font-size="12" lengthAdjust="spacing" textLength="37" x="217.6952" y="884.6387">types.</text><text fill="#000000" font-family="sans-serif" font-size="12" lengthAdjust="spacing" textLength="30" x="221.1952" y="898.6074">Error</text><line style="stroke:#A80036;stroke-width:1.5;" x1="189.6952" x2="256.6952" y1="906.4375" y2="906.4375"/><line style="stroke:#A80036;stroke-width:1.5;" x1="189.6952" x2="256.6952" y1="914.4375" y2="914.4375"/><!--MD5=[18eee71c88ab61f27581b8cbdd3ef5ee]
class Color--><rect codeLine="3" fill="#FEFECE" filter="url(#f1cjj8gcjn83h8)" height="53.9375" id="Color" style="stroke:#A80036;stroke-width:1.5;" width="69" x="320.6952" y="1037"/><ellipse cx="335.6952" cy="1055.9688" fill="#EB937F" rx="11" ry="11" style="stroke:#A80036;stroke-width:1.0;"/><path d="M334.4921,1056.8438 L335.9452,1056.8438 L335.9452,1056.9531 C335.9452,1057.3594 335.9765,1057.5156 336.0546,1057.6719 C336.2108,1057.9219 336.4921,1058.0781 336.789,1058.0781 C337.039,1058.0781 337.3046,1057.9375 337.4608,1057.7188 C337.5858,1057.5625 337.6171,1057.4063 337.6171,1056.9531 L337.6171,1055.0313 C337.6171,1054.875 337.6171,1054.8281 337.6015,1054.6719 C337.539,1054.2031 337.2265,1053.8906 336.7733,1053.8906 C336.5233,1053.8906 336.2577,1054.0313 336.0858,1054.25 C335.9765,1054.4219 335.9452,1054.5781 335.9452,1055.0313 L335.9452,1055.1563 L334.4921,1055.1563 L334.4921,1052.75 L338.4765,1052.75 L338.4765,1053.6094 C338.4765,1054.0156 338.5077,1054.1875 338.5858,1054.3438 C338.7577,1054.5938 339.039,1054.75 339.3202,1054.75 C339.5858,1054.75 339.8515,1054.6094 340.0233,1054.3906 C340.1327,1054.2188 340.164,1054.0781 340.164,1053.6094 L340.164,1051.0625 L332.539,1051.0625 C332.1015,1051.0625 331.9765,1051.0781 331.8202,1051.1719 C331.5702,1051.3281 331.414,1051.625 331.414,1051.9063 C331.414,1052.1875 331.5546,1052.4375 331.7733,1052.6094 C331.9296,1052.7188 332.1171,1052.75 332.539,1052.75 L332.789,1052.75 L332.789,1059.2656 L332.539,1059.2656 C332.1327,1059.2656 331.9765,1059.2813 331.8202,1059.3906 C331.5702,1059.5625 331.414,1059.8281 331.414,1060.125 C331.414,1060.3906 331.5546,1060.6406 331.7733,1060.7969 C331.914,1060.9219 332.1483,1060.9688 332.539,1060.9688 L340.539,1060.9688 L340.539,1058.3906 C340.539,1057.9531 340.5077,1057.8125 340.4296,1057.6563 C340.2577,1057.4063 339.9765,1057.25 339.6952,1057.25 C339.4296,1057.25 339.164,1057.3594 338.9921,1057.6094 C338.8827,1057.7656 338.8515,1057.9063 338.8515,1058.3906 L338.8515,1059.2656 L334.4921,1059.2656 L334.4921,1056.8438 Z " fill="#000000"/><text fill="#000000" font-family="sans-serif" font-size="12" lengthAdjust="spacing" textLength="37" x="349.6952" y="1053.1387">types.</text><text fill="#000000" font-family="sans-serif" font-size="12" lengthAdjust="spacing" textLength="32" x="352.1952" y="1067.1074">Color</text><line style="stroke:#A80036;stroke-width:1.5;" x1="321.6952" x2="388.6952" y1="1074.9375" y2="1074.9375"/><line style="stroke:#A80036;stroke-width:1.5;" x1="321.6952" x2="388.6952" y1="1082.9375" y2="1082.9375"/><!--MD5=[f59d5386026bb4a52ecda18ff7a4c496]
link models.Game to models.Turn--><path codeLine="61" d="M537.1952,319.303 C537.1952,319.303 537.1952,342.923 537.1952,353.805 " fill="none" id="models.Game-models.Turn" style="stroke:#A80036;stroke-width:1.0;"/><polygon fill="#A80036" points="537.1952,366.913,541.1952,357.913,537.1952,361.913,533.1952,357.913,537.1952,366.913" style="stroke:#A80036;stroke-width:1.0;"/><line style="stroke:#A80036;stroke-width:1.0;" x1="537.1952" x2="537.1952" y1="361.913" y2="353.913"/><polygon fill="#A80036" points="537.1952,307.303,533.1952,313.303,537.1952,319.303,541.1952,313.303,537.1952,307.303" style="stroke:#A80036;stroke-width:1.0;"/><!--MD5=[d4d2321dd53b51862935e01c3c028505]
link models.Game to models.Board--><path codeLine="62" d="M699.1373,316.878 C699.1373,316.878 720.1322,349.82 727.1952,367 C792.6012,526.079 802.2102,599.22 727.1952,754 C710.4532,788.544 680.6432,817.155 650.1482,839.343 " fill="none" id="models.Game-models.Board" style="stroke:#A80036;stroke-width:1.0;"/><polygon fill="#A80036" points="639.3532,846.922,649.0175,845.0244,643.4454,844.049,644.4207,838.4769,639.3532,846.922" style="stroke:#A80036;stroke-width:1.0;"/><line style="stroke:#A80036;stroke-width:1.0;" x1="643.4454" x2="649.9927" y1="844.049" y2="839.452"/><polygon fill="#A80036" points="692.0562,307.19,692.3674,314.3944,699.1373,316.878,698.8261,309.6737,692.0562,307.19" style="stroke:#A80036;stroke-width:1.0;"/><!--MD5=[58201eb69d9a19662cac6d4497ced9d6]
link models.Turn to models.Player--><path codeLine="63" d="M537.1952,568.115 C537.1952,568.115 537.1952,591.949 537.1952,602.852 " fill="none" id="models.Turn-models.Player" style="stroke:#A80036;stroke-width:1.0;"/><polygon fill="#A80036" points="537.1952,615.916,541.1952,606.916,537.1952,610.916,533.1952,606.916,537.1952,615.916" style="stroke:#A80036;stroke-width:1.0;"/><line style="stroke:#A80036;stroke-width:1.0;" x1="537.1952" x2="537.1952" y1="610.916" y2="602.916"/><polygon fill="#A80036" points="537.1952,556.115,533.1952,562.115,537.1952,568.115,541.1952,562.115,537.1952,556.115" style="stroke:#A80036;stroke-width:1.0;"/><!--MD5=[f99f9ed4303228355eacb5b5df8d5aff]
link models.Turn to Coordinate--><path codeLine="64" d="M681.5002,556.332 C699.5892,574.037 715.7342,593.999 727.1952,616 C800.1972,756.138 776.8682,955.309 764.1172,1031.6049 " fill="none" id="models.Turn-to-Coordinate" style="stroke:#A80036;stroke-width:1.0;stroke-dasharray:7.0,7.0;"/><polygon fill="#A80036" points="763.2192,1036.8834,768.6724,1028.682,764.0581,1031.9543,760.7858,1027.3399,763.2192,1036.8834" style="stroke:#A80036;stroke-width:1.0;"/><!--MD5=[de68206cbfcbe696a26d5d43808ccb78]
link models.Player to Coordinate--><path codeLine="65" d="M609.1232,754.3 C625.9742,772.624 642.8742,793.166 656.1952,814 C702.4222,886.297 734.8262,983.044 749.4432,1031.9296 " fill="none" id="models.Player-to-Coordinate" style="stroke:#A80036;stroke-width:1.0;stroke-dasharray:7.0,7.0;"/><polygon fill="#A80036" points="750.8862,1036.794,752.1618,1027.0281,749.4644,1032.0004,744.4921,1029.303,750.8862,1036.794" style="stroke:#A80036;stroke-width:1.0;"/><!--MD5=[bdba57f5dc648df4d8ec19013df38583]
link models.Player to models.Board--><path codeLine="66" d="M541.1242,754.271 C542.1242,771.64 543.2112,790.528 544.2542,808.65 " fill="none" id="models.Player-to-models.Board" style="stroke:#A80036;stroke-width:1.0;"/><polygon fill="#A80036" points="544.5472,813.739,548.0237,804.5241,544.26,808.7473,540.0369,804.9836,544.5472,813.739" style="stroke:#A80036;stroke-width:1.0;"/><!--MD5=[d46ff6a411a8b315bd0d096155cc0bd3]
link models.Board to Color--><path codeLine="67" d="M449.9056,981.7169 C449.9056,981.7169 411.4302,1014.737 395.7022,1028.2352 " fill="none" id="models.Board-Color" style="stroke:#A80036;stroke-width:1.0;"/><polygon fill="#A80036" points="385.8352,1036.7037,395.2698,1033.8773,389.6293,1033.4472,390.0594,1027.8067,385.8352,1036.7037" style="stroke:#A80036;stroke-width:1.0;"/><line style="stroke:#A80036;stroke-width:1.0;" x1="389.6293" x2="395.6997" y1="1033.4472" y2="1028.2372"/><polygon fill="#A80036" points="459.0112,973.901,451.8531,974.7738,449.9056,981.7169,457.0637,980.8441,459.0112,973.901" style="stroke:#A80036;stroke-width:1.0;"/><!--MD5=[dbb27825254d1911bcb4dab9f16cad1d]
link models.Turn to Color--><path codeLine="68" d="M390.3022,556.001 C372.4952,573.702 356.8592,593.749 346.1952,616 C278.1372,758.01 323.6042,955.677 345.4032,1031.5928 " fill="none" id="models.Turn-to-Color" style="stroke:#A80036;stroke-width:1.0;stroke-dasharray:7.0,7.0;"/><polygon fill="#A80036" points="346.9302,1036.8459,348.2595,1027.0872,345.5348,1032.0446,340.5774,1029.3198,346.9302,1036.8459" style="stroke:#A80036;stroke-width:1.0;"/><!--MD5=[4279ee0543d366a8b5b06b8bda3ae05d]
link models.Game to Color--><path codeLine="69" d="M364.0872,249.73 C314.6922,279.273 265.7642,318.072 234.1952,367 C80.6747,604.937 6,771.015 171.1954,1001 C203.8882,1046.5144 271.7132,1059.0615 315.2552,1062.2648 " fill="none" id="models.Game-to-Color" style="stroke:#A80036;stroke-width:1.0;stroke-dasharray:7.0,7.0;"/><polygon fill="#A80036" points="320.4412,1062.6107,311.7274,1058.0204,315.4523,1062.2778,311.1949,1066.0027,320.4412,1062.6107" style="stroke:#A80036;stroke-width:1.0;"/><!--MD5=[2b2ef141030e7d66b9eccb4f76abded3]
link models.Board to Coordinate--><path codeLine="70" d="M639.3462,968.319 C668.1562,991.2704 698.4492,1015.4032 721.2412,1033.5604 " fill="none" id="models.Board-to-Coordinate" style="stroke:#A80036;stroke-width:1.0;stroke-dasharray:7.0,7.0;"/><polygon fill="#A80036" points="725.4072,1036.8796,720.8605,1028.1431,721.4965,1033.764,715.8756,1034.4001,725.4072,1036.8796" style="stroke:#A80036;stroke-width:1.0;"/><!--MD5=[efca091aa3778ee1ef27b953f47b9b03]
link models.Player to Color--><path codeLine="71" d="M479.9862,754.125 C466.0652,772.773 452.0712,793.513 441.1952,814 C401.9872,887.859 374.9162,983.23 362.6462,1031.71 " fill="none" id="models.Player-to-Color" style="stroke:#A80036;stroke-width:1.0;"/><polygon fill="#A80036" points="361.3632,1036.8194,367.4334,1029.0636,362.5801,1031.9697,359.6739,1027.1165,361.3632,1036.8194" style="stroke:#A80036;stroke-width:1.0;"/><!--MD5=[d6271f25edce2d461672a5467d46fb87]
link models.Player to Error--><path codeLine="72" d="M434.3802,754.271 C375.4142,793.425 304.8262,840.296 262.0302,868.713 " fill="none" id="models.Player-to-Error" style="stroke:#A80036;stroke-width:1.0;stroke-dasharray:7.0,7.0;"/><polygon fill="#A80036" points="257.7202,871.575,267.4306,869.9294,261.8857,868.8094,263.0057,863.2645,257.7202,871.575" style="stroke:#A80036;stroke-width:1.0;"/><!--MD5=[28842877639b88ce24a6101da8a3e24d]
link models.Turn to Error--><path codeLine="73" d="M364.1532,541.891 C334.1692,562.332 305.9962,586.948 285.1952,616 C230.5822,692.278 222.8422,808.121 222.5112,863.24 " fill="none" id="models.Turn-to-Error" style="stroke:#A80036;stroke-width:1.0;stroke-dasharray:7.0,7.0;"/><polygon fill="#A80036" points="222.5012,868.381,226.5192,859.389,222.5112,863.381,218.5192,859.373,222.5012,868.381" style="stroke:#A80036;stroke-width:1.0;"/><!--MD5=[dfbaa461adf1b4a9fe19c73759f2f2cc]
link models.Game to Error--><path codeLine="74" d="M394.8302,307.123 C377.4232,326.36 360.6932,346.588 346.1952,367 C274.9482,467.315 253.2172,496.192 225.1952,616 C204.7012,703.622 212.9482,811.034 218.9782,863.153 " fill="none" id="models.Game-to-Error" style="stroke:#A80036;stroke-width:1.0;stroke-dasharray:7.0,7.0;"/><polygon fill="#A80036" points="219.5912,868.324,222.5067,858.9166,219.0041,863.3586,214.5621,859.8559,219.5912,868.324" style="stroke:#A80036;stroke-width:1.0;"/><!--MD5=[b3c2ab36e5e380184f9e763cf95715aa]
link models.Game to Coordinate--><path codeLine="75" d="M710.3162,295.337 C731.1882,316.877 749.8142,340.882 763.1952,367 C854.0742,544.385 791.1892,614.851 799.1952,814 C802.5342,897.044 823.1312,921.41 799.1952,1001 C795.8432,1012.1452 789.7652,1023.1325 783.2962,1032.69 " fill="none" id="models.Game-to-Coordinate" style="stroke:#A80036;stroke-width:1.0;stroke-dasharray:7.0,7.0;"/><polygon fill="#A80036" points="780.3052,1036.9761,788.7361,1031.885,783.1668,1032.8759,782.1759,1027.3065,780.3052,1036.9761" style="stroke:#A80036;stroke-width:1.0;"/><!--MD5=[5f8cf13488e828ef742d9f8230d9a653]
@startuml
class Coordinate as "types.\nCoordinate"
enum Error as "types.\nError"
enum Color as "types.\nColor"

class  models.Board{
    ~reset()
    ~isTicTacToe(): boolean
    ~getColor(Coordinate): Color
    ~undoable(): boolean
    ~undo()
    ~redoable(): boolean
    ~redo()
    ~open(String)
    ~save(String)
}

class  models.Game{
    +reset()
    +areAllTokensOnBoard(): boolean
    +putToken(Coordinate)
    +getPutTokenError(Coordinate): Error
    +moveToken(Coordinate, Coordinate)
    +getOriginMoveTokenError(Coordinate): Error
    +getTargetMoveTokenError(Coordinate, Coordinate): Error
    +next()
    +getActiveColor(): Color
    +isTicTacToe(): boolean
    +getColor(Coordinate): Color
    +undoable(): boolean
    +undo()
    +redoable(): boolean
    +redo()
    ~open(String)
    ~save(String)
}

class  models.Player{
    ~getColor(): Color
    ~areAllTokensOnBoard(): boolean
    ~putToken(Coordinate)
    ~getPutTokenError(Coordinate): Error
    ~moveToken(Coordinate, Coordinate)
    ~getOriginMoveTokenError(Coordinate): Error
    ~getTargetMoveTokenError(Coordinate, Coordinate): Error
}

class  models.Turn{
    ~reset()
    ~next()
    ~getActiveColor(): Color
    ~areAllTokensOnBoard(): boolean
    ~putToken(Coordinate)
    ~getPutTokenError(Coordinate): Error
    ~moveToken(Coordinate, Coordinate)
    ~getOriginMoveTokenError(Coordinate): Error
    ~getTargetMoveTokenError(Coordinate, Coordinate): Error
    ~open(String)
    ~save(String)
}

models.Game *-down-> models.Turn
models.Game *-down-> models.Board
models.Turn *-down-> models.Player
models.Turn ..> Coordinate
models.Player ..> Coordinate
models.Player - -> models.Board
models.Board *-down-> Color
models.Turn ..> Color
models.Game ..> Color
models.Board ..> Coordinate
models.Player - -> Color
models.Player ..> Error
models.Turn ..> Error
models.Game ..> Error
models.Game ..> Coordinate
@enduml

PlantUML version 1.2021.4beta3(Unknown compile time)
(GPL source distribution)
Java Runtime: Java(TM) SE Runtime Environment
JVM: Java HotSpot(TM) 64-Bit Server VM
Default Encoding: UTF-8
Language: en
Country: US
--></g></svg>