<?xml version="1.0" encoding="UTF-8" standalone="no"?><svg xmlns="http://www.w3.org/2000/svg" xmlns:xlink="http://www.w3.org/1999/xlink" contentScriptType="application/ecmascript" contentStyleType="text/css" height="1027px" preserveAspectRatio="none" style="width:844px;height:1027px;" version="1.1" viewBox="0 0 844 1027" width="844px" zoomAndPan="magnify"><defs><filter height="300%" id="f1c3hc8hrrfppt" width="300%" x="-1" y="-1"><feGaussianBlur result="blurOut" stdDeviation="2.0"/><feColorMatrix in="blurOut" result="blurOut2" type="matrix" values="0 0 0 0 0 0 0 0 0 0 0 0 0 0 0 0 0 0 .4 0"/><feOffset dx="4.0" dy="4.0" in="blurOut2" result="blurOut3"/><feBlend in="SourceGraphic" in2="blurOut3" mode="normal"/></filter></defs><g><!--MD5=[a60570e4b426f702ccbb0d459e3b9417]
cluster models--><polygon fill="#FFFFFF" filter="url(#f1c3hc8hrrfppt)" points="335.0706,6,399.0706,6,406.0706,28.2969,750.0706,28.2969,750.0706,916,335.0706,916,335.0706,6" style="stroke:#000000;stroke-width:1.5;"/><line style="stroke:#000000;stroke-width:1.5;" x1="335.0706" x2="406.0706" y1="28.2969" y2="28.2969"/><text fill="#000000" font-family="sans-serif" font-size="14" font-weight="bold" lengthAdjust="spacing" textLength="58" x="339.0706" y="20.9951">models</text><!--MD5=[fbcab1a7378abda673044953d979be95]
class models.Board--><rect codeLine="5" fill="#FEFECE" filter="url(#f1c3hc8hrrfppt)" height="137.6328" id="models.Board" style="stroke:#A80036;stroke-width:1.5;" width="180" x="446.0706" y="762"/><ellipse cx="513.8206" cy="778" fill="#ADD1B2" rx="11" ry="11" style="stroke:#A80036;stroke-width:1.0;"/><path d="M516.1644,773.6719 C515.2269,773.2344 514.6331,773.0938 513.7581,773.0938 C511.1331,773.0938 509.1331,775.1719 509.1331,777.8906 L509.1331,779.0156 C509.1331,781.5938 511.2425,783.4844 514.1331,783.4844 C515.3519,783.4844 516.5081,783.1875 517.2581,782.6406 C517.8362,782.2344 518.1644,781.7813 518.1644,781.3906 C518.1644,780.9375 517.7737,780.5469 517.305,780.5469 C517.0862,780.5469 516.8831,780.625 516.6956,780.8125 C516.2425,781.2969 516.2425,781.2969 516.055,781.3906 C515.6331,781.6563 514.9456,781.7813 514.18,781.7813 C512.1331,781.7813 510.8362,780.6875 510.8362,778.9844 L510.8362,777.8906 C510.8362,776.1094 512.0862,774.7969 513.8206,774.7969 C514.3987,774.7969 515.0081,774.9531 515.4769,775.2031 C515.9612,775.4844 516.1331,775.7031 516.2269,776.1094 C516.2894,776.5156 516.3206,776.6406 516.4612,776.7656 C516.6019,776.9063 516.8362,777.0156 517.055,777.0156 C517.3206,777.0156 517.5862,776.875 517.7581,776.6563 C517.8675,776.5 517.8987,776.3125 517.8987,775.8906 L517.8987,774.4688 C517.8987,774.0313 517.8831,773.9063 517.7894,773.75 C517.6331,773.4844 517.3519,773.3438 517.055,773.3438 C516.7581,773.3438 516.555,773.4375 516.3362,773.75 L516.1644,773.6719 Z " fill="#000000"/><text fill="#000000" font-family="sans-serif" font-size="12" lengthAdjust="spacing" textLength="36" x="534.3206" y="782.1543">Board</text><line style="stroke:#A80036;stroke-width:1.5;" x1="447.0706" x2="625.0706" y1="794" y2="794"/><line style="stroke:#A80036;stroke-width:1.5;" x1="447.0706" x2="625.0706" y1="802" y2="802"/><polygon fill="#4177AF" points="457.0706,809,453.0706,815,461.0706,815" style="stroke:#1963A0;stroke-width:1.0;"/><text fill="#000000" font-family="sans-serif" font-size="11" lengthAdjust="spacing" textLength="38" x="466.0706" y="816.2104">reset()</text><polygon fill="#4177AF" points="457.0706,821.8047,453.0706,827.8047,461.0706,827.8047" style="stroke:#1963A0;stroke-width:1.0;"/><text fill="#000000" font-family="sans-serif" font-size="11" lengthAdjust="spacing" textLength="128" x="466.0706" y="829.0151">isTicTacToe(): boolean</text><polygon fill="#4177AF" points="457.0706,834.6094,453.0706,840.6094,461.0706,840.6094" style="stroke:#1963A0;stroke-width:1.0;"/><text fill="#000000" font-family="sans-serif" font-size="11" lengthAdjust="spacing" textLength="154" x="466.0706" y="841.8198">getColor(Coordinate): Color</text><polygon fill="#4177AF" points="457.0706,847.4141,453.0706,853.4141,461.0706,853.4141" style="stroke:#1963A0;stroke-width:1.0;"/><text fill="#000000" font-family="sans-serif" font-size="11" lengthAdjust="spacing" textLength="114" x="466.0706" y="854.6245">undoable(): boolean</text><polygon fill="#4177AF" points="457.0706,860.2188,453.0706,866.2188,461.0706,866.2188" style="stroke:#1963A0;stroke-width:1.0;"/><text fill="#000000" font-family="sans-serif" font-size="11" lengthAdjust="spacing" textLength="36" x="466.0706" y="867.4292">undo()</text><polygon fill="#4177AF" points="457.0706,873.0234,453.0706,879.0234,461.0706,879.0234" style="stroke:#1963A0;stroke-width:1.0;"/><text fill="#000000" font-family="sans-serif" font-size="11" lengthAdjust="spacing" textLength="112" x="466.0706" y="880.2339">redoable(): boolean</text><polygon fill="#4177AF" points="457.0706,885.8281,453.0706,891.8281,461.0706,891.8281" style="stroke:#1963A0;stroke-width:1.0;"/><text fill="#000000" font-family="sans-serif" font-size="11" lengthAdjust="spacing" textLength="34" x="466.0706" y="893.0386">redo()</text><!--MD5=[1ea5cf3e691bb3552ec8d5f9a56af156]
class models.Game--><rect codeLine="15" fill="#FEFECE" filter="url(#f1c3hc8hrrfppt)" height="240.0703" id="models.Game" style="stroke:#A80036;stroke-width:1.5;" width="346" x="351.0706" y="41"/><ellipse cx="502.3206" cy="57" fill="#ADD1B2" rx="11" ry="11" style="stroke:#A80036;stroke-width:1.0;"/><path d="M504.6644,52.6719 C503.7269,52.2344 503.1331,52.0938 502.2581,52.0938 C499.6331,52.0938 497.6331,54.1719 497.6331,56.8906 L497.6331,58.0156 C497.6331,60.5938 499.7425,62.4844 502.6331,62.4844 C503.8519,62.4844 505.0081,62.1875 505.7581,61.6406 C506.3362,61.2344 506.6644,60.7813 506.6644,60.3906 C506.6644,59.9375 506.2737,59.5469 505.805,59.5469 C505.5862,59.5469 505.3831,59.625 505.1956,59.8125 C504.7425,60.2969 504.7425,60.2969 504.555,60.3906 C504.1331,60.6563 503.4456,60.7813 502.68,60.7813 C500.6331,60.7813 499.3362,59.6875 499.3362,57.9844 L499.3362,56.8906 C499.3362,55.1094 500.5862,53.7969 502.3206,53.7969 C502.8987,53.7969 503.5081,53.9531 503.9769,54.2031 C504.4612,54.4844 504.6331,54.7031 504.7269,55.1094 C504.7894,55.5156 504.8206,55.6406 504.9612,55.7656 C505.1019,55.9063 505.3362,56.0156 505.555,56.0156 C505.8206,56.0156 506.0862,55.875 506.2581,55.6563 C506.3675,55.5 506.3987,55.3125 506.3987,54.8906 L506.3987,53.4688 C506.3987,53.0313 506.3831,52.9063 506.2894,52.75 C506.1331,52.4844 505.8519,52.3438 505.555,52.3438 C505.2581,52.3438 505.055,52.4375 504.8362,52.75 L504.6644,52.6719 Z " fill="#000000"/><text fill="#000000" font-family="sans-serif" font-size="12" lengthAdjust="spacing" textLength="35" x="522.8206" y="61.1543">Game</text><line style="stroke:#A80036;stroke-width:1.5;" x1="352.0706" x2="696.0706" y1="73" y2="73"/><line style="stroke:#A80036;stroke-width:1.5;" x1="352.0706" x2="696.0706" y1="81" y2="81"/><ellipse cx="362.0706" cy="92" fill="#84BE84" rx="3" ry="3" style="stroke:#038048;stroke-width:1.0;"/><text fill="#000000" font-family="sans-serif" font-size="11" lengthAdjust="spacing" textLength="38" x="371.0706" y="95.2104">reset()</text><ellipse cx="362.0706" cy="104.8047" fill="#84BE84" rx="3" ry="3" style="stroke:#038048;stroke-width:1.0;"/><text fill="#000000" font-family="sans-serif" font-size="11" lengthAdjust="spacing" textLength="184" x="371.0706" y="108.0151">areAllTokensOnBoard(): boolean</text><ellipse cx="362.0706" cy="117.6094" fill="#84BE84" rx="3" ry="3" style="stroke:#038048;stroke-width:1.0;"/><text fill="#000000" font-family="sans-serif" font-size="11" lengthAdjust="spacing" textLength="123" x="371.0706" y="120.8198">putToken(Coordinate)</text><ellipse cx="362.0706" cy="130.4141" fill="#84BE84" rx="3" ry="3" style="stroke:#038048;stroke-width:1.0;"/><text fill="#000000" font-family="sans-serif" font-size="11" lengthAdjust="spacing" textLength="200" x="371.0706" y="133.6245">getPutTokenError(Coordinate): Error</text><ellipse cx="362.0706" cy="143.2188" fill="#84BE84" rx="3" ry="3" style="stroke:#038048;stroke-width:1.0;"/><text fill="#000000" font-family="sans-serif" font-size="11" lengthAdjust="spacing" textLength="207" x="371.0706" y="146.4292">moveToken(Coordinate, Coordinate)</text><ellipse cx="362.0706" cy="156.0234" fill="#84BE84" rx="3" ry="3" style="stroke:#038048;stroke-width:1.0;"/><text fill="#000000" font-family="sans-serif" font-size="11" lengthAdjust="spacing" textLength="247" x="371.0706" y="159.2339">getOriginMoveTokenError(Coordinate): Error</text><ellipse cx="362.0706" cy="168.8281" fill="#84BE84" rx="3" ry="3" style="stroke:#038048;stroke-width:1.0;"/><text fill="#000000" font-family="sans-serif" font-size="11" lengthAdjust="spacing" textLength="320" x="371.0706" y="172.0386">getTargetMoveTokenError(Coordinate, Coordinate): Error</text><ellipse cx="362.0706" cy="181.6328" fill="#84BE84" rx="3" ry="3" style="stroke:#038048;stroke-width:1.0;"/><text fill="#000000" font-family="sans-serif" font-size="11" lengthAdjust="spacing" textLength="34" x="371.0706" y="184.8433">next()</text><ellipse cx="362.0706" cy="194.4375" fill="#84BE84" rx="3" ry="3" style="stroke:#038048;stroke-width:1.0;"/><text fill="#000000" font-family="sans-serif" font-size="11" lengthAdjust="spacing" textLength="128" x="371.0706" y="197.6479">getActiveColor(): Color</text><ellipse cx="362.0706" cy="207.2422" fill="#84BE84" rx="3" ry="3" style="stroke:#038048;stroke-width:1.0;"/><text fill="#000000" font-family="sans-serif" font-size="11" lengthAdjust="spacing" textLength="128" x="371.0706" y="210.4526">isTicTacToe(): boolean</text><ellipse cx="362.0706" cy="220.0469" fill="#84BE84" rx="3" ry="3" style="stroke:#038048;stroke-width:1.0;"/><text fill="#000000" font-family="sans-serif" font-size="11" lengthAdjust="spacing" textLength="154" x="371.0706" y="223.2573">getColor(Coordinate): Color</text><ellipse cx="362.0706" cy="232.8516" fill="#84BE84" rx="3" ry="3" style="stroke:#038048;stroke-width:1.0;"/><text fill="#000000" font-family="sans-serif" font-size="11" lengthAdjust="spacing" textLength="114" x="371.0706" y="236.062">undoable(): boolean</text><ellipse cx="362.0706" cy="245.6563" fill="#84BE84" rx="3" ry="3" style="stroke:#038048;stroke-width:1.0;"/><text fill="#000000" font-family="sans-serif" font-size="11" lengthAdjust="spacing" textLength="36" x="371.0706" y="248.8667">undo()</text><ellipse cx="362.0706" cy="258.4609" fill="#84BE84" rx="3" ry="3" style="stroke:#038048;stroke-width:1.0;"/><text fill="#000000" font-family="sans-serif" font-size="11" lengthAdjust="spacing" textLength="112" x="371.0706" y="261.6714">redoable(): boolean</text><ellipse cx="362.0706" cy="271.2656" fill="#84BE84" rx="3" ry="3" style="stroke:#038048;stroke-width:1.0;"/><text fill="#000000" font-family="sans-serif" font-size="11" lengthAdjust="spacing" textLength="34" x="371.0706" y="274.4761">redo()</text><!--MD5=[6e8c5ac4fcf3c90f745643fbee571d05]
class models.Player--><rect codeLine="33" fill="#FEFECE" filter="url(#f1c3hc8hrrfppt)" height="137.6328" id="models.Player" style="stroke:#A80036;stroke-width:1.5;" width="346" x="351.0706" y="564"/><ellipse cx="501.8206" cy="580" fill="#ADD1B2" rx="11" ry="11" style="stroke:#A80036;stroke-width:1.0;"/><path d="M504.1644,575.6719 C503.2269,575.2344 502.6331,575.0938 501.7581,575.0938 C499.1331,575.0938 497.1331,577.1719 497.1331,579.8906 L497.1331,581.0156 C497.1331,583.5938 499.2425,585.4844 502.1331,585.4844 C503.3519,585.4844 504.5081,585.1875 505.2581,584.6406 C505.8362,584.2344 506.1644,583.7813 506.1644,583.3906 C506.1644,582.9375 505.7737,582.5469 505.305,582.5469 C505.0862,582.5469 504.8831,582.625 504.6956,582.8125 C504.2425,583.2969 504.2425,583.2969 504.055,583.3906 C503.6331,583.6563 502.9456,583.7813 502.18,583.7813 C500.1331,583.7813 498.8362,582.6875 498.8362,580.9844 L498.8362,579.8906 C498.8362,578.1094 500.0862,576.7969 501.8206,576.7969 C502.3987,576.7969 503.0081,576.9531 503.4769,577.2031 C503.9612,577.4844 504.1331,577.7031 504.2269,578.1094 C504.2894,578.5156 504.3206,578.6406 504.4612,578.7656 C504.6019,578.9063 504.8362,579.0156 505.055,579.0156 C505.3206,579.0156 505.5862,578.875 505.7581,578.6563 C505.8675,578.5 505.8987,578.3125 505.8987,577.8906 L505.8987,576.4688 C505.8987,576.0313 505.8831,575.9063 505.7894,575.75 C505.6331,575.4844 505.3519,575.3438 505.055,575.3438 C504.7581,575.3438 504.555,575.4375 504.3362,575.75 L504.1644,575.6719 Z " fill="#000000"/><text fill="#000000" font-family="sans-serif" font-size="12" lengthAdjust="spacing" textLength="36" x="522.3206" y="584.1543">Player</text><line style="stroke:#A80036;stroke-width:1.5;" x1="352.0706" x2="696.0706" y1="596" y2="596"/><line style="stroke:#A80036;stroke-width:1.5;" x1="352.0706" x2="696.0706" y1="604" y2="604"/><polygon fill="#4177AF" points="362.0706,611,358.0706,617,366.0706,617" style="stroke:#1963A0;stroke-width:1.0;"/><text fill="#000000" font-family="sans-serif" font-size="11" lengthAdjust="spacing" textLength="92" x="371.0706" y="618.2104">getColor(): Color</text><polygon fill="#4177AF" points="362.0706,623.8047,358.0706,629.8047,366.0706,629.8047" style="stroke:#1963A0;stroke-width:1.0;"/><text fill="#000000" font-family="sans-serif" font-size="11" lengthAdjust="spacing" textLength="184" x="371.0706" y="631.0151">areAllTokensOnBoard(): boolean</text><polygon fill="#4177AF" points="362.0706,636.6094,358.0706,642.6094,366.0706,642.6094" style="stroke:#1963A0;stroke-width:1.0;"/><text fill="#000000" font-family="sans-serif" font-size="11" lengthAdjust="spacing" textLength="123" x="371.0706" y="643.8198">putToken(Coordinate)</text><polygon fill="#4177AF" points="362.0706,649.4141,358.0706,655.4141,366.0706,655.4141" style="stroke:#1963A0;stroke-width:1.0;"/><text fill="#000000" font-family="sans-serif" font-size="11" lengthAdjust="spacing" textLength="200" x="371.0706" y="656.6245">getPutTokenError(Coordinate): Error</text><polygon fill="#4177AF" points="362.0706,662.2188,358.0706,668.2188,366.0706,668.2188" style="stroke:#1963A0;stroke-width:1.0;"/><text fill="#000000" font-family="sans-serif" font-size="11" lengthAdjust="spacing" textLength="207" x="371.0706" y="669.4292">moveToken(Coordinate, Coordinate)</text><polygon fill="#4177AF" points="362.0706,675.0234,358.0706,681.0234,366.0706,681.0234" style="stroke:#1963A0;stroke-width:1.0;"/><text fill="#000000" font-family="sans-serif" font-size="11" lengthAdjust="spacing" textLength="247" x="371.0706" y="682.2339">getOriginMoveTokenError(Coordinate): Error</text><polygon fill="#4177AF" points="362.0706,687.8281,358.0706,693.8281,366.0706,693.8281" style="stroke:#1963A0;stroke-width:1.0;"/><text fill="#000000" font-family="sans-serif" font-size="11" lengthAdjust="spacing" textLength="320" x="371.0706" y="695.0386">getTargetMoveTokenError(Coordinate, Coordinate): Error</text><!--MD5=[06029ca6144b724b5ba6f17e981b093f]
class models.Turn--><rect codeLine="43" fill="#FEFECE" filter="url(#f1c3hc8hrrfppt)" height="163.2422" id="models.Turn" style="stroke:#A80036;stroke-width:1.5;" width="346" x="351.0706" y="341"/><ellipse cx="506.8206" cy="357" fill="#ADD1B2" rx="11" ry="11" style="stroke:#A80036;stroke-width:1.0;"/><path d="M509.1644,352.6719 C508.2269,352.2344 507.6331,352.0938 506.7581,352.0938 C504.1331,352.0938 502.1331,354.1719 502.1331,356.8906 L502.1331,358.0156 C502.1331,360.5938 504.2425,362.4844 507.1331,362.4844 C508.3519,362.4844 509.5081,362.1875 510.2581,361.6406 C510.8362,361.2344 511.1644,360.7813 511.1644,360.3906 C511.1644,359.9375 510.7737,359.5469 510.305,359.5469 C510.0862,359.5469 509.8831,359.625 509.6956,359.8125 C509.2425,360.2969 509.2425,360.2969 509.055,360.3906 C508.6331,360.6563 507.9456,360.7813 507.18,360.7813 C505.1331,360.7813 503.8362,359.6875 503.8362,357.9844 L503.8362,356.8906 C503.8362,355.1094 505.0862,353.7969 506.8206,353.7969 C507.3987,353.7969 508.0081,353.9531 508.4769,354.2031 C508.9612,354.4844 509.1331,354.7031 509.2269,355.1094 C509.2894,355.5156 509.3206,355.6406 509.4612,355.7656 C509.6019,355.9063 509.8362,356.0156 510.055,356.0156 C510.3206,356.0156 510.5862,355.875 510.7581,355.6563 C510.8675,355.5 510.8987,355.3125 510.8987,354.8906 L510.8987,353.4688 C510.8987,353.0313 510.8831,352.9063 510.7894,352.75 C510.6331,352.4844 510.3519,352.3438 510.055,352.3438 C509.7581,352.3438 509.555,352.4375 509.3362,352.75 L509.1644,352.6719 Z " fill="#000000"/><text fill="#000000" font-family="sans-serif" font-size="12" lengthAdjust="spacing" textLength="26" x="527.3206" y="361.1543">Turn</text><line style="stroke:#A80036;stroke-width:1.5;" x1="352.0706" x2="696.0706" y1="373" y2="373"/><line style="stroke:#A80036;stroke-width:1.5;" x1="352.0706" x2="696.0706" y1="381" y2="381"/><polygon fill="#4177AF" points="362.0706,388,358.0706,394,366.0706,394" style="stroke:#1963A0;stroke-width:1.0;"/><text fill="#000000" font-family="sans-serif" font-size="11" lengthAdjust="spacing" textLength="38" x="371.0706" y="395.2104">reset()</text><polygon fill="#4177AF" points="362.0706,400.8047,358.0706,406.8047,366.0706,406.8047" style="stroke:#1963A0;stroke-width:1.0;"/><text fill="#000000" font-family="sans-serif" font-size="11" lengthAdjust="spacing" textLength="34" x="371.0706" y="408.0151">next()</text><polygon fill="#4177AF" points="362.0706,413.6094,358.0706,419.6094,366.0706,419.6094" style="stroke:#1963A0;stroke-width:1.0;"/><text fill="#000000" font-family="sans-serif" font-size="11" lengthAdjust="spacing" textLength="128" x="371.0706" y="420.8198">getActiveColor(): Color</text><polygon fill="#4177AF" points="362.0706,426.4141,358.0706,432.4141,366.0706,432.4141" style="stroke:#1963A0;stroke-width:1.0;"/><text fill="#000000" font-family="sans-serif" font-size="11" lengthAdjust="spacing" textLength="184" x="371.0706" y="433.6245">areAllTokensOnBoard(): boolean</text><polygon fill="#4177AF" points="362.0706,439.2188,358.0706,445.2188,366.0706,445.2188" style="stroke:#1963A0;stroke-width:1.0;"/><text fill="#000000" font-family="sans-serif" font-size="11" lengthAdjust="spacing" textLength="123" x="371.0706" y="446.4292">putToken(Coordinate)</text><polygon fill="#4177AF" points="362.0706,452.0234,358.0706,458.0234,366.0706,458.0234" style="stroke:#1963A0;stroke-width:1.0;"/><text fill="#000000" font-family="sans-serif" font-size="11" lengthAdjust="spacing" textLength="200" x="371.0706" y="459.2339">getPutTokenError(Coordinate): Error</text><polygon fill="#4177AF" points="362.0706,464.8281,358.0706,470.8281,366.0706,470.8281" style="stroke:#1963A0;stroke-width:1.0;"/><text fill="#000000" font-family="sans-serif" font-size="11" lengthAdjust="spacing" textLength="207" x="371.0706" y="472.0386">moveToken(Coordinate, Coordinate)</text><polygon fill="#4177AF" points="362.0706,477.6328,358.0706,483.6328,366.0706,483.6328" style="stroke:#1963A0;stroke-width:1.0;"/><text fill="#000000" font-family="sans-serif" font-size="11" lengthAdjust="spacing" textLength="247" x="371.0706" y="484.8433">getOriginMoveTokenError(Coordinate): Error</text><polygon fill="#4177AF" points="362.0706,490.4375,358.0706,496.4375,366.0706,496.4375" style="stroke:#1963A0;stroke-width:1.0;"/><text fill="#000000" font-family="sans-serif" font-size="11" lengthAdjust="spacing" textLength="320" x="371.0706" y="497.6479">getTargetMoveTokenError(Coordinate, Coordinate): Error</text><!--MD5=[8c7d7abc12e214c3cc12c9ab70edee11]
class Coordinate--><rect codeLine="1" fill="#FEFECE" filter="url(#f1c3hc8hrrfppt)" height="53.9375" id="Coordinate" style="stroke:#A80036;stroke-width:1.5;" width="98" x="696.0706" y="960"/><ellipse cx="711.0706" cy="978.9688" fill="#ADD1B2" rx="11" ry="11" style="stroke:#A80036;stroke-width:1.0;"/><path d="M713.4144,974.6406 C712.4769,974.2031 711.8831,974.0625 711.0081,974.0625 C708.3831,974.0625 706.3831,976.1406 706.3831,978.8594 L706.3831,979.9844 C706.3831,982.5625 708.4925,984.4531 711.3831,984.4531 C712.6019,984.4531 713.7581,984.1563 714.5081,983.6094 C715.0862,983.2031 715.4144,982.75 715.4144,982.3594 C715.4144,981.9063 715.0237,981.5156 714.555,981.5156 C714.3362,981.5156 714.1331,981.5938 713.9456,981.7813 C713.4925,982.2656 713.4925,982.2656 713.305,982.3594 C712.8831,982.625 712.1956,982.75 711.43,982.75 C709.3831,982.75 708.0862,981.6563 708.0862,979.9531 L708.0862,978.8594 C708.0862,977.0781 709.3362,975.7656 711.0706,975.7656 C711.6487,975.7656 712.2581,975.9219 712.7269,976.1719 C713.2112,976.4531 713.3831,976.6719 713.4769,977.0781 C713.5394,977.4844 713.5706,977.6094 713.7112,977.7344 C713.8519,977.875 714.0862,977.9844 714.305,977.9844 C714.5706,977.9844 714.8362,977.8438 715.0081,977.625 C715.1175,977.4688 715.1487,977.2813 715.1487,976.8594 L715.1487,975.4375 C715.1487,975 715.1331,974.875 715.0394,974.7188 C714.8831,974.4531 714.6019,974.3125 714.305,974.3125 C714.0081,974.3125 713.805,974.4063 713.5862,974.7188 L713.4144,974.6406 Z " fill="#000000"/><text fill="#000000" font-family="sans-serif" font-size="12" lengthAdjust="spacing" textLength="37" x="739.5706" y="976.1387">types.</text><text fill="#000000" font-family="sans-serif" font-size="12" lengthAdjust="spacing" textLength="66" x="725.0706" y="990.1074">Coordinate</text><line style="stroke:#A80036;stroke-width:1.5;" x1="697.0706" x2="793.0706" y1="997.9375" y2="997.9375"/><line style="stroke:#A80036;stroke-width:1.5;" x1="697.0706" x2="793.0706" y1="1005.9375" y2="1005.9375"/><!--MD5=[b8cfd8c4119a3b0a7a46bfc5fc780f85]
class Error--><rect codeLine="2" fill="#FEFECE" filter="url(#f1c3hc8hrrfppt)" height="53.9375" id="Error" style="stroke:#A80036;stroke-width:1.5;" width="69" x="175.5706" y="804"/><ellipse cx="190.5706" cy="822.9688" fill="#EB937F" rx="11" ry="11" style="stroke:#A80036;stroke-width:1.0;"/><path d="M189.3675,823.8438 L190.8206,823.8438 L190.8206,823.9531 C190.8206,824.3594 190.8519,824.5156 190.93,824.6719 C191.0862,824.9219 191.3675,825.0781 191.6644,825.0781 C191.9144,825.0781 192.18,824.9375 192.3362,824.7188 C192.4612,824.5625 192.4925,824.4063 192.4925,823.9531 L192.4925,822.0313 C192.4925,821.875 192.4925,821.8281 192.4769,821.6719 C192.4144,821.2031 192.1019,820.8906 191.6487,820.8906 C191.3987,820.8906 191.1331,821.0313 190.9612,821.25 C190.8519,821.4219 190.8206,821.5781 190.8206,822.0313 L190.8206,822.1563 L189.3675,822.1563 L189.3675,819.75 L193.3519,819.75 L193.3519,820.6094 C193.3519,821.0156 193.3831,821.1875 193.4612,821.3438 C193.6331,821.5938 193.9144,821.75 194.1956,821.75 C194.4612,821.75 194.7269,821.6094 194.8987,821.3906 C195.0081,821.2188 195.0394,821.0781 195.0394,820.6094 L195.0394,818.0625 L187.4144,818.0625 C186.9769,818.0625 186.8519,818.0781 186.6956,818.1719 C186.4456,818.3281 186.2894,818.625 186.2894,818.9063 C186.2894,819.1875 186.43,819.4375 186.6487,819.6094 C186.805,819.7188 186.9925,819.75 187.4144,819.75 L187.6644,819.75 L187.6644,826.2656 L187.4144,826.2656 C187.0081,826.2656 186.8519,826.2813 186.6956,826.3906 C186.4456,826.5625 186.2894,826.8281 186.2894,827.125 C186.2894,827.3906 186.43,827.6406 186.6487,827.7969 C186.7894,827.9219 187.0237,827.9688 187.4144,827.9688 L195.4144,827.9688 L195.4144,825.3906 C195.4144,824.9531 195.3831,824.8125 195.305,824.6563 C195.1331,824.4063 194.8519,824.25 194.5706,824.25 C194.305,824.25 194.0394,824.3594 193.8675,824.6094 C193.7581,824.7656 193.7269,824.9063 193.7269,825.3906 L193.7269,826.2656 L189.3675,826.2656 L189.3675,823.8438 Z " fill="#000000"/><text fill="#000000" font-family="sans-serif" font-size="12" lengthAdjust="spacing" textLength="37" x="204.5706" y="820.1387">types.</text><text fill="#000000" font-family="sans-serif" font-size="12" lengthAdjust="spacing" textLength="30" x="208.0706" y="834.1074">Error</text><line style="stroke:#A80036;stroke-width:1.5;" x1="176.5706" x2="243.5706" y1="841.9375" y2="841.9375"/><line style="stroke:#A80036;stroke-width:1.5;" x1="176.5706" x2="243.5706" y1="849.9375" y2="849.9375"/><!--MD5=[18eee71c88ab61f27581b8cbdd3ef5ee]
class Color--><rect codeLine="3" fill="#FEFECE" filter="url(#f1c3hc8hrrfppt)" height="53.9375" id="Color" style="stroke:#A80036;stroke-width:1.5;" width="69" x="307.5706" y="960"/><ellipse cx="322.5706" cy="978.9688" fill="#EB937F" rx="11" ry="11" style="stroke:#A80036;stroke-width:1.0;"/><path d="M321.3675,979.8438 L322.8206,979.8438 L322.8206,979.9531 C322.8206,980.3594 322.8519,980.5156 322.93,980.6719 C323.0862,980.9219 323.3675,981.0781 323.6644,981.0781 C323.9144,981.0781 324.18,980.9375 324.3362,980.7188 C324.4612,980.5625 324.4925,980.4063 324.4925,979.9531 L324.4925,978.0313 C324.4925,977.875 324.4925,977.8281 324.4769,977.6719 C324.4144,977.2031 324.1019,976.8906 323.6487,976.8906 C323.3987,976.8906 323.1331,977.0313 322.9612,977.25 C322.8519,977.4219 322.8206,977.5781 322.8206,978.0313 L322.8206,978.1563 L321.3675,978.1563 L321.3675,975.75 L325.3519,975.75 L325.3519,976.6094 C325.3519,977.0156 325.3831,977.1875 325.4612,977.3438 C325.6331,977.5938 325.9144,977.75 326.1956,977.75 C326.4612,977.75 326.7269,977.6094 326.8987,977.3906 C327.0081,977.2188 327.0394,977.0781 327.0394,976.6094 L327.0394,974.0625 L319.4144,974.0625 C318.9769,974.0625 318.8519,974.0781 318.6956,974.1719 C318.4456,974.3281 318.2894,974.625 318.2894,974.9063 C318.2894,975.1875 318.43,975.4375 318.6487,975.6094 C318.805,975.7188 318.9925,975.75 319.4144,975.75 L319.6644,975.75 L319.6644,982.2656 L319.4144,982.2656 C319.0081,982.2656 318.8519,982.2813 318.6956,982.3906 C318.4456,982.5625 318.2894,982.8281 318.2894,983.125 C318.2894,983.3906 318.43,983.6406 318.6487,983.7969 C318.7894,983.9219 319.0237,983.9688 319.4144,983.9688 L327.4144,983.9688 L327.4144,981.3906 C327.4144,980.9531 327.3831,980.8125 327.305,980.6563 C327.1331,980.4063 326.8519,980.25 326.5706,980.25 C326.305,980.25 326.0394,980.3594 325.8675,980.6094 C325.7581,980.7656 325.7269,980.9063 325.7269,981.3906 L325.7269,982.2656 L321.3675,982.2656 L321.3675,979.8438 Z " fill="#000000"/><text fill="#000000" font-family="sans-serif" font-size="12" lengthAdjust="spacing" textLength="37" x="336.5706" y="976.1387">types.</text><text fill="#000000" font-family="sans-serif" font-size="12" lengthAdjust="spacing" textLength="32" x="339.0706" y="990.1074">Color</text><line style="stroke:#A80036;stroke-width:1.5;" x1="308.5706" x2="375.5706" y1="997.9375" y2="997.9375"/><line style="stroke:#A80036;stroke-width:1.5;" x1="308.5706" x2="375.5706" y1="1005.9375" y2="1005.9375"/><!--MD5=[f59d5386026bb4a52ecda18ff7a4c496]
link models.Game to models.Turn--><path codeLine="55" d="M524.0706,293.117 C524.0706,293.117 524.0706,316.97 524.0706,327.855 " fill="none" id="models.Game-models.Turn" style="stroke:#A80036;stroke-width:1.0;"/><polygon fill="#A80036" points="524.0706,340.926,528.0706,331.926,524.0706,335.926,520.0706,331.926,524.0706,340.926" style="stroke:#A80036;stroke-width:1.0;"/><line style="stroke:#A80036;stroke-width:1.0;" x1="524.0706" x2="524.0706" y1="335.926" y2="327.926"/><polygon fill="#A80036" points="524.0706,281.117,520.0706,287.117,524.0706,293.117,528.0706,287.117,524.0706,281.117" style="stroke:#A80036;stroke-width:1.0;"/><!--MD5=[d4d2321dd53b51862935e01c3c028505]
link models.Game to models.Board--><path codeLine="56" d="M683.8444,290.5616 C683.8444,290.5616 706.5536,323.59 714.0706,341 C777.6716,488.3 787.2596,559.221 714.0706,702 C697.2916,734.732 667.8176,760.991 637.6236,781 " fill="none" id="models.Game-models.Board" style="stroke:#A80036;stroke-width:1.0;"/><polygon fill="#A80036" points="626.4886,788.09,636.2286,786.6298,630.7061,785.4043,631.9316,779.8818,626.4886,788.09" style="stroke:#A80036;stroke-width:1.0;"/><line style="stroke:#A80036;stroke-width:1.0;" x1="630.7061" x2="637.4546" y1="785.4043" y2="781.108"/><polygon fill="#A80036" points="676.3846,281.162,676.9813,288.3484,683.8444,290.5616,683.2477,283.3752,676.3846,281.162" style="stroke:#A80036;stroke-width:1.0;"/><!--MD5=[58201eb69d9a19662cac6d4497ced9d6]
link models.Turn to models.Player--><path codeLine="57" d="M524.0706,516.112 C524.0706,516.112 524.0706,539.661 524.0706,550.625 " fill="none" id="models.Turn-models.Player" style="stroke:#A80036;stroke-width:1.0;"/><polygon fill="#A80036" points="524.0706,563.788,528.0706,554.788,524.0706,558.788,520.0706,554.788,524.0706,563.788" style="stroke:#A80036;stroke-width:1.0;"/><line style="stroke:#A80036;stroke-width:1.0;" x1="524.0706" x2="524.0706" y1="558.788" y2="550.788"/><polygon fill="#A80036" points="524.0706,504.112,520.0706,510.112,524.0706,516.112,528.0706,510.112,524.0706,504.112" style="stroke:#A80036;stroke-width:1.0;"/><!--MD5=[f99f9ed4303228355eacb5b5df8d5aff]
link models.Turn to Coordinate--><path codeLine="58" d="M663.9426,504.064 C683.7536,521.36 701.5956,541.364 714.0706,564 C785.6606,693.901 763.6086,881.396 751.0926,954.8347 " fill="none" id="models.Turn-to-Coordinate" style="stroke:#A80036;stroke-width:1.0;stroke-dasharray:7.0,7.0;"/><polygon fill="#A80036" points="750.2096,959.9229,755.6903,951.7399,751.065,954.9966,747.8083,950.3713,750.2096,959.9229" style="stroke:#A80036;stroke-width:1.0;"/><!--MD5=[de68206cbfcbe696a26d5d43808ccb78]
link models.Player to Coordinate--><path codeLine="59" d="M595.1326,702.326 C612.0966,720.728 629.2666,741.3 643.0706,762 C685.6166,825.8 718.6366,910.23 734.5786,955.0126 " fill="none" id="models.Player-to-Coordinate" style="stroke:#A80036;stroke-width:1.0;stroke-dasharray:7.0,7.0;"/><polygon fill="#A80036" points="736.2536,959.7471,737.0232,949.9284,734.5861,955.0333,729.4812,952.5963,736.2536,959.7471" style="stroke:#A80036;stroke-width:1.0;"/><!--MD5=[bdba57f5dc648df4d8ec19013df38583]
link models.Player to models.Board--><path codeLine="60" d="M528.2336,702.001 C529.3166,719.687 530.4876,738.816 531.5866,756.76 " fill="none" id="models.Player-to-models.Board" style="stroke:#A80036;stroke-width:1.0;"/><polygon fill="#A80036" points="531.8946,761.787,535.3369,752.5593,531.5889,756.7964,527.3519,753.0484,531.8946,761.787" style="stroke:#A80036;stroke-width:1.0;"/><!--MD5=[d46ff6a411a8b315bd0d096155cc0bd3]
link models.Board to Color--><path codeLine="61" d="M440.7326,907.6794 C440.7326,907.6794 401.6166,938.7318 385.4086,951.5973 " fill="none" id="models.Board-Color" style="stroke:#A80036;stroke-width:1.0;"/><polygon fill="#A80036" points="375.2096,959.6939,384.7455,957.231,379.1257,956.5852,379.7716,950.9653,375.2096,959.6939" style="stroke:#A80036;stroke-width:1.0;"/><line style="stroke:#A80036;stroke-width:1.0;" x1="379.1257" x2="385.3916" y1="956.5852" y2="951.6113"/><polygon fill="#A80036" points="450.1316,900.219,442.9453,900.8162,440.7326,907.6794,447.9189,907.0822,450.1316,900.219" style="stroke:#A80036;stroke-width:1.0;"/><!--MD5=[dbb27825254d1911bcb4dab9f16cad1d]
link models.Turn to Color--><path codeLine="62" d="M381.0996,504.032 C361.7336,521.241 344.5906,541.225 333.0706,564 C266.3696,695.868 310.3386,881.844 332.0106,954.855 " fill="none" id="models.Turn-to-Color" style="stroke:#A80036;stroke-width:1.0;stroke-dasharray:7.0,7.0;"/><polygon fill="#A80036" points="333.5306,959.9143,334.7718,950.144,332.0919,955.1258,327.1101,952.4459,333.5306,959.9143" style="stroke:#A80036;stroke-width:1.0;"/><!--MD5=[4279ee0543d366a8b5b06b8bda3ae05d]
link models.Game to Color--><path codeLine="63" d="M350.8296,230.359 C302.0226,257.728 253.6766,294.132 222.0706,341 C76.3296,557.119 6,712.287 158.0705,924 C190.7626,969.5144 258.5886,982.0615 302.1306,985.2648 " fill="none" id="models.Game-to-Color" style="stroke:#A80036;stroke-width:1.0;stroke-dasharray:7.0,7.0;"/><polygon fill="#A80036" points="307.3166,985.6107,298.6028,981.0204,302.3277,985.2778,298.0703,989.0027,307.3166,985.6107" style="stroke:#A80036;stroke-width:1.0;"/><!--MD5=[2b2ef141030e7d66b9eccb4f76abded3]
link models.Board to Coordinate--><path codeLine="64" d="M626.2216,898.427 C653.9916,918.8891 683.1396,940.3664 705.6186,956.9305 " fill="none" id="models.Board-to-Coordinate" style="stroke:#A80036;stroke-width:1.0;stroke-dasharray:7.0,7.0;"/><polygon fill="#A80036" points="709.7366,959.9648,704.8635,951.406,705.7112,956.999,700.1182,957.8467,709.7366,959.9648" style="stroke:#A80036;stroke-width:1.0;"/><!--MD5=[efca091aa3778ee1ef27b953f47b9b03]
link models.Player to Color--><path codeLine="65" d="M467.5846,702.046 C453.5766,720.779 439.3606,741.58 428.0706,762 C392.0706,827.116 364.4406,910.413 351.0256,954.8207 " fill="none" id="models.Player-to-Color" style="stroke:#A80036;stroke-width:1.0;"/><polygon fill="#A80036" points="349.5386,959.7785,355.9556,952.3071,350.9751,954.9893,348.2929,950.0087,349.5386,959.7785" style="stroke:#A80036;stroke-width:1.0;"/><!--MD5=[d6271f25edce2d461672a5467d46fb87]
link models.Player to Error--><path codeLine="66" d="M415.1296,702.001 C357.5356,737.952 290.3916,779.863 249.0556,805.665 " fill="none" id="models.Player-to-Error" style="stroke:#A80036;stroke-width:1.0;stroke-dasharray:7.0,7.0;"/><polygon fill="#A80036" points="244.6416,808.421,254.3947,807.0507,248.8837,805.7743,250.16,800.2634,244.6416,808.421" style="stroke:#A80036;stroke-width:1.0;"/><!--MD5=[28842877639b88ce24a6101da8a3e24d]
link models.Turn to Error--><path codeLine="67" d="M351.0556,494.283 C321.1626,513.13 293.0166,536.193 272.0706,564 C218.5596,635.038 210.1786,744.767 209.5216,798.361 " fill="none" id="models.Turn-to-Error" style="stroke:#A80036;stroke-width:1.0;stroke-dasharray:7.0,7.0;"/><polygon fill="#A80036" points="209.4796,803.68,213.5489,794.7111,209.5182,798.6801,205.5491,794.6494,209.4796,803.68" style="stroke:#A80036;stroke-width:1.0;"/><!--MD5=[dfbaa461adf1b4a9fe19c73759f2f2cc]
link models.Game to Error--><path codeLine="68" d="M386.0226,281.21 C367.2066,300.291 348.9366,320.523 333.0706,341 C263.8746,430.303 239.2596,454.6 211.0706,564 C189.7926,646.58 198.6906,748.427 205.3026,798.78 " fill="none" id="models.Game-to-Error" style="stroke:#A80036;stroke-width:1.0;stroke-dasharray:7.0,7.0;"/><polygon fill="#A80036" points="205.9746,803.782,208.7408,794.3296,205.3089,798.8265,200.812,795.3947,205.9746,803.782" style="stroke:#A80036;stroke-width:1.0;"/><!--MD5=[b3c2ab36e5e380184f9e763cf95715aa]
link models.Game to Coordinate--><path codeLine="69" d="M697.2466,274.897 C717.2106,294.67 735.0466,316.776 748.0706,341 C837.0356,506.472 777.6176,574.318 786.0706,762 C789.3096,833.927 806.8066,855.051 786.0706,924 C782.7186,935.1452 776.6396,946.1325 770.1716,955.69 " fill="none" id="models.Game-to-Coordinate" style="stroke:#A80036;stroke-width:1.0;stroke-dasharray:7.0,7.0;"/><polygon fill="#A80036" points="767.1806,959.9761,775.6107,954.8836,770.0415,955.8754,769.0497,950.3062,767.1806,959.9761" style="stroke:#A80036;stroke-width:1.0;"/><!--MD5=[2be2d087a2674815ae9680142796d1de]
@startuml
class Coordinate as "types.\nCoordinate"
enum Error as "types.\nError"
enum Color as "types.\nColor"

class  models.Board{
    ~reset()
    ~isTicTacToe(): boolean
    ~getColor(Coordinate): Color
    ~undoable(): boolean
    ~undo()
    ~redoable(): boolean
    ~redo()
}

class  models.Game{
    +reset()
    +areAllTokensOnBoard(): boolean
    +putToken(Coordinate)
    +getPutTokenError(Coordinate): Error
    +moveToken(Coordinate, Coordinate)
    +getOriginMoveTokenError(Coordinate): Error
    +getTargetMoveTokenError(Coordinate, Coordinate): Error
    +next()
    +getActiveColor(): Color
    +isTicTacToe(): boolean
    +getColor(Coordinate): Color
    +undoable(): boolean
    +undo()
    +redoable(): boolean
    +redo()
}

class  models.Player{
    ~getColor(): Color
    ~areAllTokensOnBoard(): boolean
    ~putToken(Coordinate)
    ~getPutTokenError(Coordinate): Error
    ~moveToken(Coordinate, Coordinate)
    ~getOriginMoveTokenError(Coordinate): Error
    ~getTargetMoveTokenError(Coordinate, Coordinate): Error
}

class  models.Turn{
    ~reset()
    ~next()
    ~getActiveColor(): Color
    ~areAllTokensOnBoard(): boolean
    ~putToken(Coordinate)
    ~getPutTokenError(Coordinate): Error
    ~moveToken(Coordinate, Coordinate)
    ~getOriginMoveTokenError(Coordinate): Error
    ~getTargetMoveTokenError(Coordinate, Coordinate): Error
}

models.Game *-down-> models.Turn
models.Game *-down-> models.Board
models.Turn *-down-> models.Player
models.Turn ..> Coordinate
models.Player ..> Coordinate
models.Player - -> models.Board
models.Board *-down-> Color
models.Turn ..> Color
models.Game ..> Color
models.Board ..> Coordinate
models.Player - -> Color
models.Player ..> Error
models.Turn ..> Error
models.Game ..> Error
models.Game ..> Coordinate
@enduml

PlantUML version 1.2021.4beta3(Unknown compile time)
(GPL source distribution)
Java Runtime: Java(TM) SE Runtime Environment
JVM: Java HotSpot(TM) 64-Bit Server VM
Default Encoding: UTF-8
Language: en
Country: US
--></g></svg>