<?xml version="1.0" encoding="UTF-8" standalone="no"?><svg xmlns="http://www.w3.org/2000/svg" xmlns:xlink="http://www.w3.org/1999/xlink" contentScriptType="application/ecmascript" contentStyleType="text/css" height="159px" preserveAspectRatio="none" style="width:2512px;height:159px;" version="1.1" viewBox="0 0 2512 159" width="2512px" zoomAndPan="magnify"><defs><filter height="300%" id="feu39igxq90cp" width="300%" x="-1" y="-1"><feGaussianBlur result="blurOut" stdDeviation="2.0"/><feColorMatrix in="blurOut" result="blurOut2" type="matrix" values="0 0 0 0 0 0 0 0 0 0 0 0 0 0 0 0 0 0 .4 0"/><feOffset dx="4.0" dy="4.0" in="blurOut2" result="blurOut3"/><feBlend in="SourceGraphic" in2="blurOut3" mode="normal"/></filter></defs><g><!--MD5=[acdcbb1bbc8d56ea383ed909c292e8b2]
entity usantatecla.tictactoe--><polygon fill="#FFFFFF" filter="url(#feu39igxq90cp)" points="16,113,201,113,208,135.2969,225,135.2969,225,152.2969,16,152.2969,16,113" style="stroke: #000000; stroke-width: 1.5;"/><line style="stroke: #000000; stroke-width: 1.5;" x1="16" x2="208" y1="135.2969" y2="135.2969"/><text fill="#000000" font-family="sans-serif" font-size="14" font-weight="bold" lengthAdjust="spacingAndGlyphs" textLength="179" x="20" y="128.9951">usantatecla.tictactoe</text><!--MD5=[8a7221fb26a81e9372d3fe2d21fa25b8]
entity usantatecla.tictactoe.models--><polygon fill="#FFFFFF" filter="url(#feu39igxq90cp)" points="260.5,113,508.5,113,515.5,135.2969,532.5,135.2969,532.5,152.2969,260.5,152.2969,260.5,113" style="stroke: #000000; stroke-width: 1.5;"/><line style="stroke: #000000; stroke-width: 1.5;" x1="260.5" x2="515.5" y1="135.2969" y2="135.2969"/><text fill="#000000" font-family="sans-serif" font-size="14" font-weight="bold" lengthAdjust="spacingAndGlyphs" textLength="242" x="264.5" y="128.9951">usantatecla.tictactoe.models</text><!--MD5=[5f8519f2225fbca3fd672cc319e1c1fd]
entity usantatecla.tictactoe.views--><polygon fill="#FFFFFF" filter="url(#feu39igxq90cp)" points="568,113,803,113,810,135.2969,827,135.2969,827,152.2969,568,152.2969,568,113" style="stroke: #000000; stroke-width: 1.5;"/><line style="stroke: #000000; stroke-width: 1.5;" x1="568" x2="810" y1="135.2969" y2="135.2969"/><text fill="#000000" font-family="sans-serif" font-size="14" font-weight="bold" lengthAdjust="spacingAndGlyphs" textLength="229" x="572" y="128.9951">usantatecla.tictactoe.views</text><!--MD5=[d1d1428a72447ff412a6f03066fe644b]
entity usantatecla.tictactoe.views.console--><polygon fill="#FFFFFF" filter="url(#feu39igxq90cp)" points="862.5,113,1164.5,113,1171.5,135.2969,1188.5,135.2969,1188.5,152.2969,862.5,152.2969,862.5,113" style="stroke: #000000; stroke-width: 1.5;"/><line style="stroke: #000000; stroke-width: 1.5;" x1="862.5" x2="1171.5" y1="135.2969" y2="135.2969"/><text fill="#000000" font-family="sans-serif" font-size="14" font-weight="bold" lengthAdjust="spacingAndGlyphs" textLength="296" x="866.5" y="128.9951">usantatecla.tictactoe.views.console</text><!--MD5=[bf75a220f353adc798e3afcef5c51b7a]
entity usantatecla.tictactoe.views.graphics--><polygon fill="#FFFFFF" filter="url(#feu39igxq90cp)" points="1223.5,113,1533.5,113,1540.5,135.2969,1557.5,135.2969,1557.5,152.2969,1223.5,152.2969,1223.5,113" style="stroke: #000000; stroke-width: 1.5;"/><line style="stroke: #000000; stroke-width: 1.5;" x1="1223.5" x2="1540.5" y1="135.2969" y2="135.2969"/><text fill="#000000" font-family="sans-serif" font-size="14" font-weight="bold" lengthAdjust="spacingAndGlyphs" textLength="304" x="1227.5" y="128.9951">usantatecla.tictactoe.views.graphics</text><!--MD5=[612a536d1c85efa17c7d118cc1e7b020]
entity usantatecla.utils--><polygon fill="#FFFFFF" filter="url(#feu39igxq90cp)" points="1592.5,113,1738.5,113,1745.5,135.2969,1762.5,135.2969,1762.5,152.2969,1592.5,152.2969,1592.5,113" style="stroke: #000000; stroke-width: 1.5;"/><line style="stroke: #000000; stroke-width: 1.5;" x1="1592.5" x2="1745.5" y1="135.2969" y2="135.2969"/><text fill="#000000" font-family="sans-serif" font-size="14" font-weight="bold" lengthAdjust="spacingAndGlyphs" textLength="140" x="1596.5" y="128.9951">usantatecla.utils</text><!--MD5=[48fa9072fd51d9920e6db8484beec696]
entity java.io--><polygon fill="#FFFFFF" filter="url(#feu39igxq90cp)" points="1797.5,113,1857.5,113,1864.5,135.2969,1881.5,135.2969,1881.5,152.2969,1797.5,152.2969,1797.5,113" style="stroke: #000000; stroke-width: 1.5;"/><line style="stroke: #000000; stroke-width: 1.5;" x1="1797.5" x2="1864.5" y1="135.2969" y2="135.2969"/><text fill="#000000" font-family="sans-serif" font-size="14" font-weight="bold" lengthAdjust="spacingAndGlyphs" textLength="54" x="1801.5" y="128.9951">java.io</text><!--MD5=[034f0f7ed136bf78fc117f7e41f76e93]
entity java.util--><polygon fill="#FFFFFF" filter="url(#feu39igxq90cp)" points="1917,113,1990,113,1997,135.2969,2014,135.2969,2014,152.2969,1917,152.2969,1917,113" style="stroke: #000000; stroke-width: 1.5;"/><line style="stroke: #000000; stroke-width: 1.5;" x1="1917" x2="1997" y1="135.2969" y2="135.2969"/><text fill="#000000" font-family="sans-serif" font-size="14" font-weight="bold" lengthAdjust="spacingAndGlyphs" textLength="67" x="1921" y="128.9951">java.util</text><!--MD5=[cee830b0dacb2a92fd7272b0f6421cad]
entity java.awt--><polygon fill="#FFFFFF" filter="url(#feu39igxq90cp)" points="2049.5,113,2125.5,113,2132.5,135.2969,2149.5,135.2969,2149.5,152.2969,2049.5,152.2969,2049.5,113" style="stroke: #000000; stroke-width: 1.5;"/><line style="stroke: #000000; stroke-width: 1.5;" x1="2049.5" x2="2132.5" y1="135.2969" y2="135.2969"/><text fill="#000000" font-family="sans-serif" font-size="14" font-weight="bold" lengthAdjust="spacingAndGlyphs" textLength="70" x="2053.5" y="128.9951">java.awt</text><!--MD5=[518d1bd3a278ae5fa44dea63a13588cc]
entity java.awt.event--><polygon fill="#FFFFFF" filter="url(#feu39igxq90cp)" points="2184.5,113,2310.5,113,2317.5,135.2969,2334.5,135.2969,2334.5,152.2969,2184.5,152.2969,2184.5,113" style="stroke: #000000; stroke-width: 1.5;"/><line style="stroke: #000000; stroke-width: 1.5;" x1="2184.5" x2="2317.5" y1="135.2969" y2="135.2969"/><text fill="#000000" font-family="sans-serif" font-size="14" font-weight="bold" lengthAdjust="spacingAndGlyphs" textLength="120" x="2188.5" y="128.9951">java.awt.event</text><!--MD5=[5cd50222042deac7751bbdb096247501]
entity javax.swing--><polygon fill="#FFFFFF" filter="url(#feu39igxq90cp)" points="2370,113,2471,113,2478,135.2969,2495,135.2969,2495,152.2969,2370,152.2969,2370,113" style="stroke: #000000; stroke-width: 1.5;"/><line style="stroke: #000000; stroke-width: 1.5;" x1="2370" x2="2478" y1="135.2969" y2="135.2969"/><text fill="#000000" font-family="sans-serif" font-size="14" font-weight="bold" lengthAdjust="spacingAndGlyphs" textLength="95" x="2374" y="128.9951">javax.swing</text><!--MD5=[c2796faf4134bd8b5f3bc71f44d02e74]
entity jar--><rect fill="#FEFECE" filter="url(#feu39igxq90cp)" height="46.2969" style="stroke: #A80036; stroke-width: 1.5;" width="130" x="1612.5" y="7"/><rect fill="#FEFECE" height="10" style="stroke: #A80036; stroke-width: 1.5;" width="15" x="1722.5" y="12"/><rect fill="#FEFECE" height="2" style="stroke: #A80036; stroke-width: 1.5;" width="4" x="1720.5" y="14"/><rect fill="#FEFECE" height="2" style="stroke: #A80036; stroke-width: 1.5;" width="4" x="1720.5" y="18"/><text fill="#000000" font-family="sans-serif" font-size="14" lengthAdjust="spacingAndGlyphs" textLength="90" x="1627.5" y="39.9951">tictactoe.jar</text><!--MD5=[a9fe4fe342d89d0ce2cdef79d4c44adf]
link jar to usantatecla.tictactoe--><path d="M1600.2542,32.8745 C1600.2542,32.8745 758.492,59.2537 242.5,113 C241.088,113.147 239.668,113.2989 238.241,113.4551 " fill="none" id="jar-usantatecla.tictactoe" style="stroke: #A80036; stroke-width: 1.0;"/><polygon fill="#A80036" points="225.235,114.9717,234.6377,117.9024,230.2013,114.3926,233.7111,109.9562,225.235,114.9717" style="stroke: #A80036; stroke-width: 1.0;"/><line style="stroke: #A80036; stroke-width: 1.0;" x1="230.2013" x2="238.147" y1="114.3926" y2="113.4659"/><polygon fill="#A80036" points="1612.25,32.558,1606.1466,28.7176,1600.2542,32.8745,1606.3576,36.7148,1612.25,32.558" style="stroke: #A80036; stroke-width: 1.0;"/><!--MD5=[38cef3452a3e8206f67d96a1c7b5c74e]
link jar to usantatecla.tictactoe.models--><path d="M1600.3204,35.3689 C1600.3204,35.3689 943.654,75.1035 550.5,113 C548.841,113.1599 547.173,113.3228 545.497,113.4886 " fill="none" id="jar-usantatecla.tictactoe.models" style="stroke: #A80036; stroke-width: 1.0;"/><polygon fill="#A80036" points="532.503,114.8111,541.862,117.8787,537.4773,114.3045,541.0514,109.9198,532.503,114.8111" style="stroke: #A80036; stroke-width: 1.0;"/><line style="stroke: #A80036; stroke-width: 1.0;" x1="537.4773" x2="545.436" y1="114.3045" y2="113.4947"/><polygon fill="#A80036" points="1612.3,34.67,1606.0772,31.0262,1600.3204,35.3689,1606.5431,39.0126,1612.3,34.67" style="stroke: #A80036; stroke-width: 1.0;"/><!--MD5=[57eef1ebc25ffbff7001aac32c44d3c3]
link jar to usantatecla.tictactoe.views--><path d="M1600.4188,37.8883 C1600.4188,37.8883 1121.6,81.9299 844.5,113 C843.094,113.1576 841.681,113.317 840.261,113.4781 " fill="none" id="jar-usantatecla.tictactoe.views" style="stroke: #A80036; stroke-width: 1.0;"/><polygon fill="#A80036" points="827.334,114.9669,836.7325,117.9111,832.3012,114.3949,835.8173,109.9636,827.334,114.9669" style="stroke: #A80036; stroke-width: 1.0;"/><line style="stroke: #A80036; stroke-width: 1.0;" x1="832.3012" x2="840.2485" y1="114.3949" y2="113.4794"/><polygon fill="#A80036" points="1612.37,36.807,1606.034,33.3639,1600.4188,37.8883,1606.7548,41.3314,1612.37,36.807" style="stroke: #A80036; stroke-width: 1.0;"/><!--MD5=[0297ecf46442c86d966e8c6c751cba21]
link jar to usantatecla.tictactoe.views.console--><path d="M1600.4388,42.8701 C1600.4388,42.8701 1291.25,90.5362 1158.62,110.9814 " fill="none" id="jar-usantatecla.tictactoe.views.console" style="stroke: #A80036; stroke-width: 1.0;"/><polygon fill="#A80036" points="1145.59,112.9888,1155.0925,115.5776,1150.5322,112.2305,1153.8792,107.6701,1145.59,112.9888" style="stroke: #A80036; stroke-width: 1.0;"/><line style="stroke: #A80036; stroke-width: 1.0;" x1="1150.5322" x2="1158.44" y1="112.2305" y2="111.0083"/><polygon fill="#A80036" points="1612.3,41.05,1605.7627,38.0063,1600.4388,42.8701,1606.9761,45.9138,1612.3,41.05" style="stroke: #A80036; stroke-width: 1.0;"/><!--MD5=[4dbe4a79c553609c437e05b42b16d57a]
link jar to usantatecla.tictactoe.views.graphics--><path d="M1603.1953,57.0241 C1603.1953,57.0241 1499.66,93.2751 1456.16,108.5062 " fill="none" id="jar-usantatecla.tictactoe.views.graphics" style="stroke: #A80036; stroke-width: 1.0;"/><polygon fill="#A80036" points="1443.71,112.868,1453.5265,113.6662,1448.4286,111.2143,1450.8805,106.1164,1443.71,112.868" style="stroke: #A80036; stroke-width: 1.0;"/><line style="stroke: #A80036; stroke-width: 1.0;" x1="1448.4286" x2="1455.975" y1="111.2143" y2="108.5715"/><polygon fill="#A80036" points="1614.52,53.0552,1607.5347,51.2648,1603.1953,57.0241,1610.1806,58.8145,1614.52,53.0552" style="stroke: #A80036; stroke-width: 1.0;"/><!--MD5=[8059cd5737844cbfa7541e4ee98eb909]
link jar to usantatecla.utils--><path d="M1677.5,65.3042 C1677.5,65.3042 1677.5,89.2598 1677.5,99.9085 " fill="none" id="jar-usantatecla.utils" style="stroke: #A80036; stroke-width: 1.0;"/><polygon fill="#A80036" points="1677.5,112.9606,1681.5,103.9606,1677.5,107.9606,1673.5,103.9606,1677.5,112.9606" style="stroke: #A80036; stroke-width: 1.0;"/><line style="stroke: #A80036; stroke-width: 1.0;" x1="1677.5" x2="1677.5" y1="107.9606" y2="99.9607"/><polygon fill="#A80036" points="1677.5,53.3042,1673.5,59.3042,1677.5,65.3042,1681.5,59.3042,1677.5,53.3042" style="stroke: #A80036; stroke-width: 1.0;"/><!--MD5=[f17a38c250a1605cd3da9b9fac2ef94b]
link jar to java.io--><path d="M1723.2455,59.3838 C1723.2455,59.3838 1775.7,91.9217 1798.23,105.8998 " fill="none" id="jar-java.io" style="stroke: #A80036; stroke-width: 1.0;"/><polygon fill="#A80036" points="1809.47,112.868,1803.9329,104.723,1805.2219,110.2311,1799.7138,111.52,1809.47,112.868" style="stroke: #A80036; stroke-width: 1.0;"/><line style="stroke: #A80036; stroke-width: 1.0;" x1="1805.2219" x2="1798.42" y1="110.2311" y2="106.0148"/><polygon fill="#A80036" points="1713.05,53.0552,1716.0382,59.618,1723.2455,59.3838,1720.2573,52.821,1713.05,53.0552" style="stroke: #A80036; stroke-width: 1.0;"/><!--MD5=[a929e6d2b54380e4c3e4c2b17ce7cd9b]
link jar to java.util--><path d="M1752.0292,57.011 C1752.0292,57.011 1860.28,94.782 1904.43,110.1885 " fill="none" id="jar-java.util" style="stroke: #A80036; stroke-width: 1.0;"/><polygon fill="#A80036" points="1916.73,114.48,1909.5517,107.7367,1912.0095,112.8318,1906.9145,115.2896,1916.73,114.48" style="stroke: #A80036; stroke-width: 1.0;"/><line style="stroke: #A80036; stroke-width: 1.0;" x1="1912.0095" x2="1904.45" y1="112.8318" y2="110.1968"/><polygon fill="#A80036" points="1740.7,53.0552,1745.046,58.8095,1752.0292,57.011,1747.6832,51.2567,1740.7,53.0552" style="stroke: #A80036; stroke-width: 1.0;"/><!--MD5=[5c3a1a3f46264e9db3e30d7bbbf0baac]
link jar to java.awt--><path d="M1754.3125,47.9118 C1754.3125,47.9118 1936.9,89.1855 2031.5,113 C2033.23,113.4345 2034.98,113.8794 2036.74,114.332 " fill="none" id="jar-java.awt" style="stroke: #A80036; stroke-width: 1.0;"/><polygon fill="#A80036" points="2049.42,117.6446,2041.7232,111.4998,2044.5823,116.3809,2039.7012,119.24,2049.42,117.6446" style="stroke: #A80036; stroke-width: 1.0;"/><line style="stroke: #A80036; stroke-width: 1.0;" x1="2044.5823" x2="2036.85" y1="116.3809" y2="114.3595"/><polygon fill="#A80036" points="1742.6,45.301,1747.586,50.5106,1754.3125,47.9118,1749.3265,42.7022,1742.6,45.301" style="stroke: #A80036; stroke-width: 1.0;"/><!--MD5=[3b7f23bc43aaeafb3da1fe03574e9b5d]
link jar to java.awt.event--><path d="M1754.463,43.0758 C1754.463,43.0758 2022.33,86.2654 2167.5,113 C2168.78,113.2351 2170.06,113.4736 2171.36,113.7149 " fill="none" id="jar-java.awt.event" style="stroke: #A80036; stroke-width: 1.0;"/><polygon fill="#A80036" points="2184.23,116.1557,2176.1295,110.5537,2179.317,115.227,2174.6437,118.4145,2184.23,116.1557" style="stroke: #A80036; stroke-width: 1.0;"/><line style="stroke: #A80036; stroke-width: 1.0;" x1="2179.317" x2="2171.455" y1="115.227" y2="113.7333"/><polygon fill="#A80036" points="1742.61,41.203,1747.9122,46.0904,1754.463,43.0758,1749.1608,38.1884,1742.61,41.203" style="stroke: #A80036; stroke-width: 1.0;"/><!--MD5=[d7db4d17f150ddbfee08d92ae5b03c8c]
link jar to javax.swing--><path d="M1754.48,37.6734 C1754.48,37.6734 2137.96,75.2728 2352.5,113 C2353.9,113.2469 2355.32,113.5027 2356.75,113.7664 " fill="none" id="jar-javax.swing" style="stroke: #A80036; stroke-width: 1.0;"/><polygon fill="#A80036" points="2369.74,116.3231,2361.6835,110.6581,2364.8344,115.3561,2360.1363,118.5071,2369.74,116.3231" style="stroke: #A80036; stroke-width: 1.0;"/><line style="stroke: #A80036; stroke-width: 1.0;" x1="2364.8344" x2="2356.99" y1="115.3561" y2="113.814"/><polygon fill="#A80036" points="1742.53,36.579,1748.1402,41.1095,1754.48,37.6734,1748.8698,33.1429,1742.53,36.579" style="stroke: #A80036; stroke-width: 1.0;"/><!--MD5=[ebb50702893313f0839539bff1f6d099]
@startuml
package "  "  as usantatecla.tictactoe {
}
package "  "  as usantatecla.tictactoe.models {
}
package "  "  as usantatecla.tictactoe.views {
}
package "  "  as usantatecla.tictactoe.views.console {
}
package "  "  as usantatecla.tictactoe.views.graphics {
}
package "  "  as usantatecla.utils {
}
package "  "  as java.io {
}
package "  "  as java.util {
}
package "  "  as java.awt{
}
package "  "  as java.awt.event{
}
package "  "  as javax.swing{
}

[tictactoe.jar] as jar

jar *- -> usantatecla.tictactoe
jar *- -> usantatecla.tictactoe.models
jar *- -> usantatecla.tictactoe.views
jar *- -> usantatecla.tictactoe.views.console
jar *- -> usantatecla.tictactoe.views.graphics
jar *- -> usantatecla.utils
jar *- -> java.io
jar *- -> java.util
jar *- -> java.awt
jar *- -> java.awt.event
jar *- -> javax.swing
@enduml

PlantUML version 1.2020.20beta8(Unknown compile time)
(GPL source distribution)
Java Runtime: Java(TM) SE Runtime Environment
JVM: Java HotSpot(TM) 64-Bit Server VM
Default Encoding: UTF-8
Language: en
Country: US
--></g></svg>