<?xml version="1.0" encoding="UTF-8" standalone="no"?><svg xmlns="http://www.w3.org/2000/svg" xmlns:xlink="http://www.w3.org/1999/xlink" contentScriptType="application/ecmascript" contentStyleType="text/css" height="328px" preserveAspectRatio="none" style="width:556px;height:328px;" version="1.1" viewBox="0 0 556 328" width="556px" zoomAndPan="magnify"><defs><filter height="300%" id="f2qdn4swm1dot" width="300%" x="-1" y="-1"><feGaussianBlur result="blurOut" stdDeviation="2.0"/><feColorMatrix in="blurOut" result="blurOut2" type="matrix" values="0 0 0 0 0 0 0 0 0 0 0 0 0 0 0 0 0 0 .4 0"/><feOffset dx="4.0" dy="4.0" in="blurOut2" result="blurOut3"/><feBlend in="SourceGraphic" in2="blurOut3" mode="normal"/></filter></defs><g><!--MD5=[c6efd01a6f310cf3950d2522b9f474d7]
cluster tictactoe.views.graphics--><polygon fill="#FFFFFF" filter="url(#f2qdn4swm1dot)" points="166.5,80,373.5,80,380.5,102.2969,383.5,102.2969,383.5,217,166.5,217,166.5,80" style="stroke:#000000;stroke-width:1.5;"/><line style="stroke:#000000;stroke-width:1.5;" x1="166.5" x2="380.5" y1="102.2969" y2="102.2969"/><text fill="#000000" font-family="sans-serif" font-size="14" font-weight="bold" lengthAdjust="spacingAndGlyphs" textLength="201" x="170.5" y="94.9951">tictactoe.views.graphics</text><!--MD5=[772dd3201fd937c98b35c61c5b2a37e1]
class tictactoe.views.graphics.GraphicsView--><rect codeLine="6" fill="#FEFECE" filter="url(#f2qdn4swm1dot)" height="86.4141" id="tictactoe.views.graphics.GraphicsView" style="stroke:#A80036;stroke-width:1.5;" width="159" x="195" y="115"/><ellipse cx="230.25" cy="131" fill="#ADD1B2" rx="11" ry="11" style="stroke:#A80036;stroke-width:1.0;"/><path d="M232.5938,126.6719 C231.6563,126.2344 231.0625,126.0938 230.1875,126.0938 C227.5625,126.0938 225.5625,128.1719 225.5625,130.8906 L225.5625,132.0156 C225.5625,134.5938 227.6719,136.4844 230.5625,136.4844 C231.7813,136.4844 232.9375,136.1875 233.6875,135.6406 C234.2656,135.2344 234.5938,134.7813 234.5938,134.3906 C234.5938,133.9375 234.2031,133.5469 233.7344,133.5469 C233.5156,133.5469 233.3125,133.625 233.125,133.8125 C232.6719,134.2969 232.6719,134.2969 232.4844,134.3906 C232.0625,134.6563 231.375,134.7813 230.6094,134.7813 C228.5625,134.7813 227.2656,133.6875 227.2656,131.9844 L227.2656,130.8906 C227.2656,129.1094 228.5156,127.7969 230.25,127.7969 C230.8281,127.7969 231.4375,127.9531 231.9063,128.2031 C232.3906,128.4844 232.5625,128.7031 232.6563,129.1094 C232.7188,129.5156 232.75,129.6406 232.8906,129.7656 C233.0313,129.9063 233.2656,130.0156 233.4844,130.0156 C233.75,130.0156 234.0156,129.875 234.1875,129.6563 C234.2969,129.5 234.3281,129.3125 234.3281,128.8906 L234.3281,127.4688 C234.3281,127.0313 234.3125,126.9063 234.2188,126.75 C234.0625,126.4844 233.7813,126.3438 233.4844,126.3438 C233.1875,126.3438 232.9844,126.4375 232.7656,126.75 L232.5938,126.6719 Z " fill="#000000"/><text fill="#000000" font-family="sans-serif" font-size="12" lengthAdjust="spacingAndGlyphs" textLength="82" x="248.75" y="135.1543">GraphicsView</text><line style="stroke:#A80036;stroke-width:1.5;" x1="196" x2="353" y1="147" y2="147"/><line style="stroke:#A80036;stroke-width:1.5;" x1="196" x2="353" y1="155" y2="155"/><ellipse cx="206" cy="166" fill="#84BE84" rx="3" ry="3" style="stroke:#038048;stroke-width:1.0;"/><text fill="#000000" font-family="sans-serif" font-size="11" lengthAdjust="spacingAndGlyphs" textLength="113" x="215" y="169.2104">visit(StartController)</text><ellipse cx="206" cy="178.8047" fill="#84BE84" rx="3" ry="3" style="stroke:#038048;stroke-width:1.0;"/><text fill="#000000" font-family="sans-serif" font-size="11" lengthAdjust="spacingAndGlyphs" textLength="109" x="215" y="182.0151">visit(PlayController)</text><ellipse cx="206" cy="191.6094" fill="#84BE84" rx="3" ry="3" style="stroke:#038048;stroke-width:1.0;"/><text fill="#000000" font-family="sans-serif" font-size="11" lengthAdjust="spacingAndGlyphs" textLength="133" x="215" y="194.8198">visit(ResumeController)</text><!--MD5=[c045e12321b83266d36d22b9096c24ea]
class View--><rect codeLine="1" fill="#FEFECE" filter="url(#f2qdn4swm1dot)" height="48" id="View" style="stroke:#A80036;stroke-width:1.5;" width="154" x="197.5" y="7"/><ellipse cx="212.5" cy="23" fill="#ADD1B2" rx="11" ry="11" style="stroke:#A80036;stroke-width:1.0;"/><path d="M214.8438,18.6719 C213.9063,18.2344 213.3125,18.0938 212.4375,18.0938 C209.8125,18.0938 207.8125,20.1719 207.8125,22.8906 L207.8125,24.0156 C207.8125,26.5938 209.9219,28.4844 212.8125,28.4844 C214.0313,28.4844 215.1875,28.1875 215.9375,27.6406 C216.5156,27.2344 216.8438,26.7813 216.8438,26.3906 C216.8438,25.9375 216.4531,25.5469 215.9844,25.5469 C215.7656,25.5469 215.5625,25.625 215.375,25.8125 C214.9219,26.2969 214.9219,26.2969 214.7344,26.3906 C214.3125,26.6563 213.625,26.7813 212.8594,26.7813 C210.8125,26.7813 209.5156,25.6875 209.5156,23.9844 L209.5156,22.8906 C209.5156,21.1094 210.7656,19.7969 212.5,19.7969 C213.0781,19.7969 213.6875,19.9531 214.1563,20.2031 C214.6406,20.4844 214.8125,20.7031 214.9063,21.1094 C214.9688,21.5156 215,21.6406 215.1406,21.7656 C215.2813,21.9063 215.5156,22.0156 215.7344,22.0156 C216,22.0156 216.2656,21.875 216.4375,21.6563 C216.5469,21.5 216.5781,21.3125 216.5781,20.8906 L216.5781,19.4688 C216.5781,19.0313 216.5625,18.9063 216.4688,18.75 C216.3125,18.4844 216.0313,18.3438 215.7344,18.3438 C215.4375,18.3438 215.2344,18.4375 215.0156,18.75 L214.8438,18.6719 Z " fill="#000000"/><text fill="#000000" font-family="sans-serif" font-size="12" lengthAdjust="spacingAndGlyphs" textLength="122" x="226.5" y="27.1543">tictactoe.views.View</text><line style="stroke:#A80036;stroke-width:1.5;" x1="198.5" x2="350.5" y1="39" y2="39"/><line style="stroke:#A80036;stroke-width:1.5;" x1="198.5" x2="350.5" y1="47" y2="47"/><!--MD5=[47c371471411cfedeee61b1a5bdaee47]
class StartController--><rect codeLine="2" fill="#FEFECE" filter="url(#f2qdn4swm1dot)" height="53.9375" id="StartController" style="stroke:#A80036;stroke-width:1.5;" width="155" x="7" y="261"/><ellipse cx="22" cy="279.9688" fill="#ADD1B2" rx="11" ry="11" style="stroke:#A80036;stroke-width:1.0;"/><path d="M24.3438,275.6406 C23.4063,275.2031 22.8125,275.0625 21.9375,275.0625 C19.3125,275.0625 17.3125,277.1406 17.3125,279.8594 L17.3125,280.9844 C17.3125,283.5625 19.4219,285.4531 22.3125,285.4531 C23.5313,285.4531 24.6875,285.1563 25.4375,284.6094 C26.0156,284.2031 26.3438,283.75 26.3438,283.3594 C26.3438,282.9063 25.9531,282.5156 25.4844,282.5156 C25.2656,282.5156 25.0625,282.5938 24.875,282.7813 C24.4219,283.2656 24.4219,283.2656 24.2344,283.3594 C23.8125,283.625 23.125,283.75 22.3594,283.75 C20.3125,283.75 19.0156,282.6563 19.0156,280.9531 L19.0156,279.8594 C19.0156,278.0781 20.2656,276.7656 22,276.7656 C22.5781,276.7656 23.1875,276.9219 23.6563,277.1719 C24.1406,277.4531 24.3125,277.6719 24.4063,278.0781 C24.4688,278.4844 24.5,278.6094 24.6406,278.7344 C24.7813,278.875 25.0156,278.9844 25.2344,278.9844 C25.5,278.9844 25.7656,278.8438 25.9375,278.625 C26.0469,278.4688 26.0781,278.2813 26.0781,277.8594 L26.0781,276.4375 C26.0781,276 26.0625,275.875 25.9688,275.7188 C25.8125,275.4531 25.5313,275.3125 25.2344,275.3125 C24.9375,275.3125 24.7344,275.4063 24.5156,275.7188 L24.3438,275.6406 Z " fill="#000000"/><text fill="#000000" font-family="sans-serif" font-size="12" lengthAdjust="spacingAndGlyphs" textLength="123" x="36" y="277.1387">tictactoe.controllers.</text><text fill="#000000" font-family="sans-serif" font-size="12" lengthAdjust="spacingAndGlyphs" textLength="87" x="54" y="291.1074">StartController</text><line style="stroke:#A80036;stroke-width:1.5;" x1="8" x2="161" y1="298.9375" y2="298.9375"/><line style="stroke:#A80036;stroke-width:1.5;" x1="8" x2="161" y1="306.9375" y2="306.9375"/><!--MD5=[cc8600b868f8dfab2c8d497bce62f90a]
class PlayController--><rect codeLine="3" fill="#FEFECE" filter="url(#f2qdn4swm1dot)" height="53.9375" id="PlayController" style="stroke:#A80036;stroke-width:1.5;" width="155" x="197" y="261"/><ellipse cx="212" cy="279.9688" fill="#ADD1B2" rx="11" ry="11" style="stroke:#A80036;stroke-width:1.0;"/><path d="M214.3438,275.6406 C213.4063,275.2031 212.8125,275.0625 211.9375,275.0625 C209.3125,275.0625 207.3125,277.1406 207.3125,279.8594 L207.3125,280.9844 C207.3125,283.5625 209.4219,285.4531 212.3125,285.4531 C213.5313,285.4531 214.6875,285.1563 215.4375,284.6094 C216.0156,284.2031 216.3438,283.75 216.3438,283.3594 C216.3438,282.9063 215.9531,282.5156 215.4844,282.5156 C215.2656,282.5156 215.0625,282.5938 214.875,282.7813 C214.4219,283.2656 214.4219,283.2656 214.2344,283.3594 C213.8125,283.625 213.125,283.75 212.3594,283.75 C210.3125,283.75 209.0156,282.6563 209.0156,280.9531 L209.0156,279.8594 C209.0156,278.0781 210.2656,276.7656 212,276.7656 C212.5781,276.7656 213.1875,276.9219 213.6563,277.1719 C214.1406,277.4531 214.3125,277.6719 214.4063,278.0781 C214.4688,278.4844 214.5,278.6094 214.6406,278.7344 C214.7813,278.875 215.0156,278.9844 215.2344,278.9844 C215.5,278.9844 215.7656,278.8438 215.9375,278.625 C216.0469,278.4688 216.0781,278.2813 216.0781,277.8594 L216.0781,276.4375 C216.0781,276 216.0625,275.875 215.9688,275.7188 C215.8125,275.4531 215.5313,275.3125 215.2344,275.3125 C214.9375,275.3125 214.7344,275.4063 214.5156,275.7188 L214.3438,275.6406 Z " fill="#000000"/><text fill="#000000" font-family="sans-serif" font-size="12" lengthAdjust="spacingAndGlyphs" textLength="123" x="226" y="277.1387">tictactoe.controllers.</text><text fill="#000000" font-family="sans-serif" font-size="12" lengthAdjust="spacingAndGlyphs" textLength="82" x="246.5" y="291.1074">PlayController</text><line style="stroke:#A80036;stroke-width:1.5;" x1="198" x2="351" y1="298.9375" y2="298.9375"/><line style="stroke:#A80036;stroke-width:1.5;" x1="198" x2="351" y1="306.9375" y2="306.9375"/><!--MD5=[1a47bbf44ccee225df9b18c5b6629853]
class ResumeController--><rect codeLine="4" fill="#FEFECE" filter="url(#f2qdn4swm1dot)" height="53.9375" id="ResumeController" style="stroke:#A80036;stroke-width:1.5;" width="155" x="387" y="261"/><ellipse cx="402" cy="279.9688" fill="#ADD1B2" rx="11" ry="11" style="stroke:#A80036;stroke-width:1.0;"/><path d="M404.3438,275.6406 C403.4063,275.2031 402.8125,275.0625 401.9375,275.0625 C399.3125,275.0625 397.3125,277.1406 397.3125,279.8594 L397.3125,280.9844 C397.3125,283.5625 399.4219,285.4531 402.3125,285.4531 C403.5313,285.4531 404.6875,285.1563 405.4375,284.6094 C406.0156,284.2031 406.3438,283.75 406.3438,283.3594 C406.3438,282.9063 405.9531,282.5156 405.4844,282.5156 C405.2656,282.5156 405.0625,282.5938 404.875,282.7813 C404.4219,283.2656 404.4219,283.2656 404.2344,283.3594 C403.8125,283.625 403.125,283.75 402.3594,283.75 C400.3125,283.75 399.0156,282.6563 399.0156,280.9531 L399.0156,279.8594 C399.0156,278.0781 400.2656,276.7656 402,276.7656 C402.5781,276.7656 403.1875,276.9219 403.6563,277.1719 C404.1406,277.4531 404.3125,277.6719 404.4063,278.0781 C404.4688,278.4844 404.5,278.6094 404.6406,278.7344 C404.7813,278.875 405.0156,278.9844 405.2344,278.9844 C405.5,278.9844 405.7656,278.8438 405.9375,278.625 C406.0469,278.4688 406.0781,278.2813 406.0781,277.8594 L406.0781,276.4375 C406.0781,276 406.0625,275.875 405.9688,275.7188 C405.8125,275.4531 405.5313,275.3125 405.2344,275.3125 C404.9375,275.3125 404.7344,275.4063 404.5156,275.7188 L404.3438,275.6406 Z " fill="#000000"/><text fill="#000000" font-family="sans-serif" font-size="12" lengthAdjust="spacingAndGlyphs" textLength="123" x="416" y="277.1387">tictactoe.controllers.</text><text fill="#000000" font-family="sans-serif" font-size="12" lengthAdjust="spacingAndGlyphs" textLength="107" x="424" y="291.1074">ResumeController</text><line style="stroke:#A80036;stroke-width:1.5;" x1="388" x2="541" y1="298.9375" y2="298.9375"/><line style="stroke:#A80036;stroke-width:1.5;" x1="388" x2="541" y1="306.9375" y2="306.9375"/><!--MD5=[0db36e31be561cd0cbdab8f689c30700]
link tictactoe.views.graphics.GraphicsView to StartController--><path codeLine="11" d="M212.024,201.089 C184.315,219.7559 152.409,241.2507 127.443,258.0702 " fill="none" id="tictactoe.views.graphics.GraphicsView-to-StartController" style="stroke:#A80036;stroke-width:1.0;stroke-dasharray:7.0,7.0;"/><polygon fill="#A80036" points="123.181,260.9409,132.8799,259.2287,127.3274,258.1468,128.4093,252.5944,123.181,260.9409" style="stroke:#A80036;stroke-width:1.0;"/><!--MD5=[72f7856ffc55acc0f0f43c8a09b21d70]
link tictactoe.views.graphics.GraphicsView to PlayController--><path codeLine="12" d="M274.5,201.267 C274.5,218.9311 274.5,239.102 274.5,255.4392 " fill="none" id="tictactoe.views.graphics.GraphicsView-to-PlayController" style="stroke:#A80036;stroke-width:1.0;stroke-dasharray:7.0,7.0;"/><polygon fill="#A80036" points="274.5,260.8235,278.5,251.8235,274.5,255.8235,270.5,251.8235,274.5,260.8235" style="stroke:#A80036;stroke-width:1.0;"/><!--MD5=[0fd5a399c03e8117044e221fa1efaf9c]
link tictactoe.views.graphics.GraphicsView to ResumeController--><path codeLine="13" d="M336.976,201.089 C364.685,219.7559 396.591,241.2507 421.557,258.0702 " fill="none" id="tictactoe.views.graphics.GraphicsView-to-ResumeController" style="stroke:#A80036;stroke-width:1.0;stroke-dasharray:7.0,7.0;"/><polygon fill="#A80036" points="425.819,260.9409,420.5907,252.5944,421.6726,258.1468,416.1201,259.2287,425.819,260.9409" style="stroke:#A80036;stroke-width:1.0;"/><!--MD5=[dd49f0cbe1ae6e82d2a046a768a45f47]
reverse link View to tictactoe.views.graphics.GraphicsView--><path codeLine="15" d="M274.5,75.269 C274.5,88.117 274.5,102.166 274.5,114.936 " fill="none" id="View-backto-tictactoe.views.graphics.GraphicsView" style="stroke:#A80036;stroke-width:1.0;"/><polygon fill="none" points="267.5,75.219,274.5,55.219,281.5,75.219,267.5,75.219" style="stroke:#A80036;stroke-width:1.0;"/><!--MD5=[83c9e508546469427579974f7f174315]
@startuml
class View as "tictactoe.views.View" {}
class StartController as "tictactoe.controllers.\nStartController" {}
class PlayController as "tictactoe.controllers.\nPlayController" {}
class ResumeController as "tictactoe.controllers.\nResumeController" {}

class  tictactoe.views.graphics.GraphicsView{
  + visit(StartController)
  + visit(PlayController)
  + visit(ResumeController)
}
tictactoe.views.graphics.GraphicsView .down.> StartController
tictactoe.views.graphics.GraphicsView .down.> PlayController
tictactoe.views.graphics.GraphicsView .down.> ResumeController

View <|-down- tictactoe.views.graphics.GraphicsView
@enduml

PlantUML version 1.2020.22(Sun Dec 06 09:36:27 UTC 2020)
(GPL source distribution)
Java Runtime: Java(TM) SE Runtime Environment
JVM: Java HotSpot(TM) 64-Bit Server VM
Default Encoding: UTF-8
Language: en
Country: US
--></g></svg>