<?xml version="1.0" encoding="UTF-8" standalone="no"?><svg xmlns="http://www.w3.org/2000/svg" xmlns:xlink="http://www.w3.org/1999/xlink" contentScriptType="application/ecmascript" contentStyleType="text/css" height="1339px" preserveAspectRatio="none" style="width:982px;height:1339px;" version="1.1" viewBox="0 0 982 1339" width="982px" zoomAndPan="magnify"><defs><filter height="300%" id="f3wblbmkrf399" width="300%" x="-1" y="-1"><feGaussianBlur result="blurOut" stdDeviation="2.0"/><feColorMatrix in="blurOut" result="blurOut2" type="matrix" values="0 0 0 0 0 0 0 0 0 0 0 0 0 0 0 0 0 0 .4 0"/><feOffset dx="4.0" dy="4.0" in="blurOut2" result="blurOut3"/><feBlend in="SourceGraphic" in2="blurOut3" mode="normal"/></filter></defs><g><!--MD5=[51cd642fcc96b47682a93d9084d46dec]
cluster tictactoe.models--><polygon fill="#FFFFFF" filter="url(#f3wblbmkrf399)" points="335.5,6,480.5,6,487.5,28.2969,822.5,28.2969,822.5,1228,335.5,1228,335.5,6" style="stroke:#000000;stroke-width:1.5;"/><line style="stroke:#000000;stroke-width:1.5;" x1="335.5" x2="487.5" y1="28.2969" y2="28.2969"/><text fill="#000000" font-family="sans-serif" font-size="14" font-weight="bold" lengthAdjust="spacingAndGlyphs" textLength="139" x="339.5" y="20.9951">tictactoe.models</text><!--MD5=[f2254b5fdbf93effa50eb20dc057829b]
class tictactoe.models.Board--><rect codeLine="6" fill="#FEFECE" filter="url(#f3wblbmkrf399)" height="201.6563" id="tictactoe.models.Board" style="stroke:#A80036;stroke-width:1.5;" width="262" x="489.5" y="800"/><ellipse cx="598.25" cy="816" fill="#ADD1B2" rx="11" ry="11" style="stroke:#A80036;stroke-width:1.0;"/><path d="M600.5938,811.6719 C599.6563,811.2344 599.0625,811.0938 598.1875,811.0938 C595.5625,811.0938 593.5625,813.1719 593.5625,815.8906 L593.5625,817.0156 C593.5625,819.5938 595.6719,821.4844 598.5625,821.4844 C599.7813,821.4844 600.9375,821.1875 601.6875,820.6406 C602.2656,820.2344 602.5938,819.7813 602.5938,819.3906 C602.5938,818.9375 602.2031,818.5469 601.7344,818.5469 C601.5156,818.5469 601.3125,818.625 601.125,818.8125 C600.6719,819.2969 600.6719,819.2969 600.4844,819.3906 C600.0625,819.6563 599.375,819.7813 598.6094,819.7813 C596.5625,819.7813 595.2656,818.6875 595.2656,816.9844 L595.2656,815.8906 C595.2656,814.1094 596.5156,812.7969 598.25,812.7969 C598.8281,812.7969 599.4375,812.9531 599.9063,813.2031 C600.3906,813.4844 600.5625,813.7031 600.6563,814.1094 C600.7188,814.5156 600.75,814.6406 600.8906,814.7656 C601.0313,814.9063 601.2656,815.0156 601.4844,815.0156 C601.75,815.0156 602.0156,814.875 602.1875,814.6563 C602.2969,814.5 602.3281,814.3125 602.3281,813.8906 L602.3281,812.4688 C602.3281,812.0313 602.3125,811.9063 602.2188,811.75 C602.0625,811.4844 601.7813,811.3438 601.4844,811.3438 C601.1875,811.3438 600.9844,811.4375 600.7656,811.75 L600.5938,811.6719 Z " fill="#000000"/><text fill="#000000" font-family="sans-serif" font-size="12" lengthAdjust="spacingAndGlyphs" textLength="36" x="618.75" y="820.1543">Board</text><line style="stroke:#A80036;stroke-width:1.5;" x1="490.5" x2="750.5" y1="832" y2="832"/><line style="stroke:#A80036;stroke-width:1.5;" x1="490.5" x2="750.5" y1="840" y2="840"/><ellipse cx="500.5" cy="851" fill="#84BE84" rx="3" ry="3" style="stroke:#038048;stroke-width:1.0;"/><text fill="#000000" font-family="sans-serif" font-size="11" lengthAdjust="spacingAndGlyphs" textLength="41" x="509.5" y="854.2104">Board()</text><rect fill="#F24D5C" height="6" style="stroke:#C82930;stroke-width:1.0;" width="6" x="497.5" y="860.8047"/><text fill="#000000" font-family="sans-serif" font-size="11" lengthAdjust="spacingAndGlyphs" textLength="74" x="509.5" y="867.0151">Board(Board)</text><polygon fill="#4177AF" points="500.5,872.6094,496.5,878.6094,504.5,878.6094" style="stroke:#1963A0;stroke-width:1.0;"/><text fill="#000000" font-family="sans-serif" font-size="11" lengthAdjust="spacingAndGlyphs" textLength="75" x="509.5" y="879.8198">copy(): Board</text><polygon fill="#4177AF" points="500.5,885.4141,496.5,891.4141,504.5,891.4141" style="stroke:#1963A0;stroke-width:1.0;"/><text fill="#000000" font-family="sans-serif" font-size="11" lengthAdjust="spacingAndGlyphs" textLength="166" x="509.5" y="892.6245">getToken(Coordinate): Token</text><polygon fill="#4177AF" points="500.5,898.2188,496.5,904.2188,504.5,904.2188" style="stroke:#1963A0;stroke-width:1.0;"/><text fill="#000000" font-family="sans-serif" font-size="11" lengthAdjust="spacingAndGlyphs" textLength="130" x="509.5" y="905.4292">put(Coordinate, Token)</text><polygon fill="#4177AF" points="500.5,911.0234,496.5,917.0234,504.5,917.0234" style="stroke:#1963A0;stroke-width:1.0;"/><text fill="#000000" font-family="sans-serif" font-size="11" lengthAdjust="spacingAndGlyphs" textLength="172" x="509.5" y="918.2339">move(Coordinate, Coordinate)</text><polygon fill="#4177AF" points="500.5,923.8281,496.5,929.8281,504.5,929.8281" style="stroke:#1963A0;stroke-width:1.0;"/><text fill="#000000" font-family="sans-serif" font-size="11" lengthAdjust="spacingAndGlyphs" textLength="133" x="509.5" y="931.0386">isCompleted(): boolean</text><polygon fill="#4177AF" points="500.5,936.6328,496.5,942.6328,504.5,942.6328" style="stroke:#1963A0;stroke-width:1.0;"/><text fill="#000000" font-family="sans-serif" font-size="11" lengthAdjust="spacingAndGlyphs" textLength="227" x="509.5" y="943.8433">isOccupied(Coordinate, Token): boolean</text><polygon fill="#4177AF" points="500.5,949.4375,496.5,955.4375,504.5,955.4375" style="stroke:#1963A0;stroke-width:1.0;"/><text fill="#000000" font-family="sans-serif" font-size="11" lengthAdjust="spacingAndGlyphs" textLength="168" x="509.5" y="956.6479">isEmpty(Coordinate): boolean</text><polygon fill="#4177AF" points="500.5,962.2422,496.5,968.2422,504.5,968.2422" style="stroke:#1963A0;stroke-width:1.0;"/><text fill="#000000" font-family="sans-serif" font-size="11" lengthAdjust="spacingAndGlyphs" textLength="163" x="509.5" y="969.4526">isTicTacToe(Token): boolean</text><rect fill="#F24D5C" height="6" style="stroke:#C82930;stroke-width:1.0;" width="6" x="497.5" y="976.0469"/><text fill="#000000" font-family="sans-serif" font-size="11" lengthAdjust="spacingAndGlyphs" textLength="236" x="509.5" y="982.2573">getCoordinates(Token): List&lt;Coordinate&gt;</text><ellipse cx="500.5" cy="991.8516" fill="#84BE84" rx="3" ry="3" style="stroke:#038048;stroke-width:1.0;"/><text fill="#000000" font-family="sans-serif" font-size="11" lengthAdjust="spacingAndGlyphs" textLength="136" x="509.5" y="995.062">equals(Object): boolean</text><!--MD5=[55d70ecb9e3ba4786ec1f15d0b7dce13]
class tictactoe.models.Coordinate--><rect codeLine="25" fill="#FEFECE" filter="url(#f3wblbmkrf399)" height="150.4375" id="tictactoe.models.Coordinate" style="stroke:#A80036;stroke-width:1.5;" width="224" x="351.5" y="1062"/><ellipse cx="426.25" cy="1078" fill="#ADD1B2" rx="11" ry="11" style="stroke:#A80036;stroke-width:1.0;"/><path d="M428.5938,1073.6719 C427.6563,1073.2344 427.0625,1073.0938 426.1875,1073.0938 C423.5625,1073.0938 421.5625,1075.1719 421.5625,1077.8906 L421.5625,1079.0156 C421.5625,1081.5938 423.6719,1083.4844 426.5625,1083.4844 C427.7813,1083.4844 428.9375,1083.1875 429.6875,1082.6406 C430.2656,1082.2344 430.5938,1081.7813 430.5938,1081.3906 C430.5938,1080.9375 430.2031,1080.5469 429.7344,1080.5469 C429.5156,1080.5469 429.3125,1080.625 429.125,1080.8125 C428.6719,1081.2969 428.6719,1081.2969 428.4844,1081.3906 C428.0625,1081.6563 427.375,1081.7813 426.6094,1081.7813 C424.5625,1081.7813 423.2656,1080.6875 423.2656,1078.9844 L423.2656,1077.8906 C423.2656,1076.1094 424.5156,1074.7969 426.25,1074.7969 C426.8281,1074.7969 427.4375,1074.9531 427.9063,1075.2031 C428.3906,1075.4844 428.5625,1075.7031 428.6563,1076.1094 C428.7188,1076.5156 428.75,1076.6406 428.8906,1076.7656 C429.0313,1076.9063 429.2656,1077.0156 429.4844,1077.0156 C429.75,1077.0156 430.0156,1076.875 430.1875,1076.6563 C430.2969,1076.5 430.3281,1076.3125 430.3281,1075.8906 L430.3281,1074.4688 C430.3281,1074.0313 430.3125,1073.9063 430.2188,1073.75 C430.0625,1073.4844 429.7813,1073.3438 429.4844,1073.3438 C429.1875,1073.3438 428.9844,1073.4375 428.7656,1073.75 L428.5938,1073.6719 Z " fill="#000000"/><text fill="#000000" font-family="sans-serif" font-size="12" lengthAdjust="spacingAndGlyphs" textLength="66" x="446.75" y="1082.1543">Coordinate</text><line style="stroke:#A80036;stroke-width:1.5;" x1="352.5" x2="574.5" y1="1094" y2="1094"/><polygon fill="none" points="362.5,1101,358.5,1107,366.5,1107" style="stroke:#1963A0;stroke-width:1.0;"/><text fill="#000000" font-family="sans-serif" font-size="11" lengthAdjust="spacingAndGlyphs" text-decoration="underline" textLength="178" x="371.5" y="1108.2104">NULL_COORDINATE: Coordinate</text><ellipse cx="362.5" cy="1117.8047" fill="none" rx="3" ry="3" style="stroke:#038048;stroke-width:1.0;"/><text fill="#000000" font-family="sans-serif" font-size="11" lengthAdjust="spacingAndGlyphs" text-decoration="underline" textLength="85" x="371.5" y="1121.0151">DIMENSION: int</text><line style="stroke:#A80036;stroke-width:1.5;" x1="352.5" x2="574.5" y1="1127.6094" y2="1127.6094"/><ellipse cx="362.5" cy="1138.6094" fill="#84BE84" rx="3" ry="3" style="stroke:#038048;stroke-width:1.0;"/><text fill="#000000" font-family="sans-serif" font-size="11" lengthAdjust="spacingAndGlyphs" textLength="70" x="371.5" y="1141.8198">Coordinate()</text><ellipse cx="362.5" cy="1151.4141" fill="#84BE84" rx="3" ry="3" style="stroke:#038048;stroke-width:1.0;"/><text fill="#000000" font-family="sans-serif" font-size="11" lengthAdjust="spacingAndGlyphs" textLength="105" x="371.5" y="1154.6245">Coordinate(int, int)</text><ellipse cx="362.5" cy="1164.2188" fill="#84BE84" rx="3" ry="3" style="stroke:#038048;stroke-width:1.0;"/><text fill="#000000" font-family="sans-serif" font-size="11" lengthAdjust="spacingAndGlyphs" textLength="91" x="371.5" y="1167.4292">isNull(): boolean</text><ellipse cx="362.5" cy="1177.0234" fill="#84BE84" rx="3" ry="3" style="stroke:#038048;stroke-width:1.0;"/><text fill="#000000" font-family="sans-serif" font-size="11" lengthAdjust="spacingAndGlyphs" textLength="198" x="371.5" y="1180.2339">getDirection(Coordinate): Direction</text><rect fill="#F24D5C" height="6" style="stroke:#C82930;stroke-width:1.0;" width="6" x="359.5" y="1186.8281"/><text fill="#000000" font-family="sans-serif" font-size="11" lengthAdjust="spacingAndGlyphs" textLength="164" x="371.5" y="1193.0386">inInverseDiagonal(): boolean</text><ellipse cx="362.5" cy="1202.6328" fill="#84BE84" rx="3" ry="3" style="stroke:#038048;stroke-width:1.0;"/><text fill="#000000" font-family="sans-serif" font-size="11" lengthAdjust="spacingAndGlyphs" textLength="51" x="371.5" y="1205.8433">random()</text><!--MD5=[8d3188f3c370ea7d5d91d12bca83b67a]
class tictactoe.models.Game--><rect codeLine="38" fill="#FEFECE" filter="url(#f3wblbmkrf399)" height="214.4609" id="tictactoe.models.Game" style="stroke:#A80036;stroke-width:1.5;" width="231" x="575" y="41"/><ellipse cx="668.75" cy="57" fill="#ADD1B2" rx="11" ry="11" style="stroke:#A80036;stroke-width:1.0;"/><path d="M671.0938,52.6719 C670.1563,52.2344 669.5625,52.0938 668.6875,52.0938 C666.0625,52.0938 664.0625,54.1719 664.0625,56.8906 L664.0625,58.0156 C664.0625,60.5938 666.1719,62.4844 669.0625,62.4844 C670.2813,62.4844 671.4375,62.1875 672.1875,61.6406 C672.7656,61.2344 673.0938,60.7813 673.0938,60.3906 C673.0938,59.9375 672.7031,59.5469 672.2344,59.5469 C672.0156,59.5469 671.8125,59.625 671.625,59.8125 C671.1719,60.2969 671.1719,60.2969 670.9844,60.3906 C670.5625,60.6563 669.875,60.7813 669.1094,60.7813 C667.0625,60.7813 665.7656,59.6875 665.7656,57.9844 L665.7656,56.8906 C665.7656,55.1094 667.0156,53.7969 668.75,53.7969 C669.3281,53.7969 669.9375,53.9531 670.4063,54.2031 C670.8906,54.4844 671.0625,54.7031 671.1563,55.1094 C671.2188,55.5156 671.25,55.6406 671.3906,55.7656 C671.5313,55.9063 671.7656,56.0156 671.9844,56.0156 C672.25,56.0156 672.5156,55.875 672.6875,55.6563 C672.7969,55.5 672.8281,55.3125 672.8281,54.8906 L672.8281,53.4688 C672.8281,53.0313 672.8125,52.9063 672.7188,52.75 C672.5625,52.4844 672.2813,52.3438 671.9844,52.3438 C671.6875,52.3438 671.4844,52.4375 671.2656,52.75 L671.0938,52.6719 Z " fill="#000000"/><text fill="#000000" font-family="sans-serif" font-size="12" lengthAdjust="spacingAndGlyphs" textLength="35" x="689.25" y="61.1543">Game</text><line style="stroke:#A80036;stroke-width:1.5;" x1="576" x2="805" y1="73" y2="73"/><line style="stroke:#A80036;stroke-width:1.5;" x1="576" x2="805" y1="81" y2="81"/><ellipse cx="586" cy="92" fill="#84BE84" rx="3" ry="3" style="stroke:#038048;stroke-width:1.0;"/><text fill="#000000" font-family="sans-serif" font-size="11" lengthAdjust="spacingAndGlyphs" textLength="43" x="595" y="95.2104">Game()</text><ellipse cx="586" cy="104.8047" fill="#84BE84" rx="3" ry="3" style="stroke:#038048;stroke-width:1.0;"/><text fill="#000000" font-family="sans-serif" font-size="11" lengthAdjust="spacingAndGlyphs" textLength="38" x="595" y="108.0151">reset()</text><ellipse cx="586" cy="117.6094" fill="#84BE84" rx="3" ry="3" style="stroke:#038048;stroke-width:1.0;"/><text fill="#000000" font-family="sans-serif" font-size="11" lengthAdjust="spacingAndGlyphs" textLength="72" x="595" y="120.8198">setUsers(int)</text><ellipse cx="586" cy="130.4141" fill="#84BE84" rx="3" ry="3" style="stroke:#038048;stroke-width:1.0;"/><text fill="#000000" font-family="sans-serif" font-size="11" lengthAdjust="spacingAndGlyphs" textLength="159" x="595" y="133.6245">isBoardComplete(): boolean</text><ellipse cx="586" cy="143.2188" fill="#84BE84" rx="3" ry="3" style="stroke:#038048;stroke-width:1.0;"/><text fill="#000000" font-family="sans-serif" font-size="11" lengthAdjust="spacingAndGlyphs" textLength="96" x="595" y="146.4292">isUser(): boolean</text><ellipse cx="586" cy="156.0234" fill="#84BE84" rx="3" ry="3" style="stroke:#038048;stroke-width:1.0;"/><text fill="#000000" font-family="sans-serif" font-size="11" lengthAdjust="spacingAndGlyphs" textLength="121" x="595" y="159.2339">put(Coordinate): Error</text><ellipse cx="586" cy="168.8281" fill="#84BE84" rx="3" ry="3" style="stroke:#038048;stroke-width:1.0;"/><text fill="#000000" font-family="sans-serif" font-size="11" lengthAdjust="spacingAndGlyphs" textLength="205" x="595" y="172.0386">move(Coordinate, Coordinate): Error</text><ellipse cx="586" cy="181.6328" fill="#84BE84" rx="3" ry="3" style="stroke:#038048;stroke-width:1.0;"/><text fill="#000000" font-family="sans-serif" font-size="11" lengthAdjust="spacingAndGlyphs" textLength="60" x="595" y="184.8433">next(Error)</text><ellipse cx="586" cy="194.4375" fill="#84BE84" rx="3" ry="3" style="stroke:#038048;stroke-width:1.0;"/><text fill="#000000" font-family="sans-serif" font-size="11" lengthAdjust="spacingAndGlyphs" textLength="128" x="595" y="197.6479">isTicTacToe(): boolean</text><ellipse cx="586" cy="207.2422" fill="#84BE84" rx="3" ry="3" style="stroke:#038048;stroke-width:1.0;"/><text fill="#000000" font-family="sans-serif" font-size="11" lengthAdjust="spacingAndGlyphs" textLength="166" x="595" y="210.4526">getToken(Coordinate): Token</text><ellipse cx="586" cy="220.0469" fill="#84BE84" rx="3" ry="3" style="stroke:#038048;stroke-width:1.0;"/><text fill="#000000" font-family="sans-serif" font-size="11" lengthAdjust="spacingAndGlyphs" textLength="104" x="595" y="223.2573">getToken(): Token</text><ellipse cx="586" cy="232.8516" fill="#84BE84" rx="3" ry="3" style="stroke:#038048;stroke-width:1.0;"/><text fill="#000000" font-family="sans-serif" font-size="11" lengthAdjust="spacingAndGlyphs" textLength="112" x="595" y="236.062">getMaxPlayers(): int</text><ellipse cx="586" cy="245.6563" fill="#84BE84" rx="3" ry="3" style="stroke:#038048;stroke-width:1.0;"/><text fill="#000000" font-family="sans-serif" font-size="11" lengthAdjust="spacingAndGlyphs" textLength="136" x="595" y="248.8667">equals(Object): boolean</text><!--MD5=[b42b9147ed7462532394f7fe6f96703d]
class tictactoe.models.Turn--><rect codeLine="87" fill="#FEFECE" filter="url(#f3wblbmkrf399)" height="240.0703" id="tictactoe.models.Turn" style="stroke:#A80036;stroke-width:1.5;" width="231" x="483" y="315"/><ellipse cx="581.25" cy="331" fill="#ADD1B2" rx="11" ry="11" style="stroke:#A80036;stroke-width:1.0;"/><path d="M583.5938,326.6719 C582.6563,326.2344 582.0625,326.0938 581.1875,326.0938 C578.5625,326.0938 576.5625,328.1719 576.5625,330.8906 L576.5625,332.0156 C576.5625,334.5938 578.6719,336.4844 581.5625,336.4844 C582.7813,336.4844 583.9375,336.1875 584.6875,335.6406 C585.2656,335.2344 585.5938,334.7813 585.5938,334.3906 C585.5938,333.9375 585.2031,333.5469 584.7344,333.5469 C584.5156,333.5469 584.3125,333.625 584.125,333.8125 C583.6719,334.2969 583.6719,334.2969 583.4844,334.3906 C583.0625,334.6563 582.375,334.7813 581.6094,334.7813 C579.5625,334.7813 578.2656,333.6875 578.2656,331.9844 L578.2656,330.8906 C578.2656,329.1094 579.5156,327.7969 581.25,327.7969 C581.8281,327.7969 582.4375,327.9531 582.9063,328.2031 C583.3906,328.4844 583.5625,328.7031 583.6563,329.1094 C583.7188,329.5156 583.75,329.6406 583.8906,329.7656 C584.0313,329.9063 584.2656,330.0156 584.4844,330.0156 C584.75,330.0156 585.0156,329.875 585.1875,329.6563 C585.2969,329.5 585.3281,329.3125 585.3281,328.8906 L585.3281,327.4688 C585.3281,327.0313 585.3125,326.9063 585.2188,326.75 C585.0625,326.4844 584.7813,326.3438 584.4844,326.3438 C584.1875,326.3438 583.9844,326.4375 583.7656,326.75 L583.5938,326.6719 Z " fill="#000000"/><text fill="#000000" font-family="sans-serif" font-size="12" lengthAdjust="spacingAndGlyphs" textLength="26" x="601.75" y="335.1543">Turn</text><line style="stroke:#A80036;stroke-width:1.5;" x1="484" x2="713" y1="347" y2="347"/><ellipse cx="494" cy="358" fill="none" rx="3" ry="3" style="stroke:#038048;stroke-width:1.0;"/><text fill="#000000" font-family="sans-serif" font-size="11" lengthAdjust="spacingAndGlyphs" text-decoration="underline" textLength="123" x="503" y="361.2104">NUMBER_PLAYERS: int</text><rect fill="none" height="6" style="stroke:#C82930;stroke-width:1.0;" width="6" x="491" y="367.8047"/><text fill="#000000" font-family="sans-serif" font-size="11" lengthAdjust="spacingAndGlyphs" textLength="56" x="503" y="374.0151">active: int</text><rect fill="none" height="6" style="stroke:#C82930;stroke-width:1.0;" width="6" x="491" y="380.6094"/><text fill="#000000" font-family="sans-serif" font-size="11" lengthAdjust="spacingAndGlyphs" textLength="52" x="503" y="386.8198">users: int</text><line style="stroke:#A80036;stroke-width:1.5;" x1="484" x2="713" y1="393.4141" y2="393.4141"/><polygon fill="#4177AF" points="494,400.4141,490,406.4141,498,406.4141" style="stroke:#1963A0;stroke-width:1.0;"/><text fill="#000000" font-family="sans-serif" font-size="11" lengthAdjust="spacingAndGlyphs" textLength="66" x="503" y="407.6245">Turn(Board)</text><ellipse cx="494" cy="417.2188" fill="#84BE84" rx="3" ry="3" style="stroke:#038048;stroke-width:1.0;"/><text fill="#000000" font-family="sans-serif" font-size="11" lengthAdjust="spacingAndGlyphs" textLength="98" x="503" y="420.4292">Turn(Turn, Board)</text><ellipse cx="494" cy="430.0234" fill="#84BE84" rx="3" ry="3" style="stroke:#038048;stroke-width:1.0;"/><text fill="#000000" font-family="sans-serif" font-size="11" lengthAdjust="spacingAndGlyphs" textLength="100" x="503" y="433.2339">copy(Board): Turn</text><polygon fill="#4177AF" points="494,438.8281,490,444.8281,498,444.8281" style="stroke:#1963A0;stroke-width:1.0;"/><text fill="#000000" font-family="sans-serif" font-size="11" lengthAdjust="spacingAndGlyphs" textLength="72" x="503" y="446.0386">setUsers(int)</text><polygon fill="#4177AF" points="494,451.6328,490,457.6328,498,457.6328" style="stroke:#1963A0;stroke-width:1.0;"/><text fill="#000000" font-family="sans-serif" font-size="11" lengthAdjust="spacingAndGlyphs" textLength="40" x="503" y="458.8433">set(int)</text><polygon fill="#4177AF" points="494,464.4375,490,470.4375,498,470.4375" style="stroke:#1963A0;stroke-width:1.0;"/><text fill="#000000" font-family="sans-serif" font-size="11" lengthAdjust="spacingAndGlyphs" textLength="34" x="503" y="471.6479">next()</text><polygon fill="#4177AF" points="494,477.2422,490,483.2422,498,483.2422" style="stroke:#1963A0;stroke-width:1.0;"/><text fill="#000000" font-family="sans-serif" font-size="11" lengthAdjust="spacingAndGlyphs" textLength="96" x="503" y="484.4526">isUser(): boolean</text><polygon fill="#4177AF" points="494,490.0469,490,496.0469,498,496.0469" style="stroke:#1963A0;stroke-width:1.0;"/><text fill="#000000" font-family="sans-serif" font-size="11" lengthAdjust="spacingAndGlyphs" textLength="121" x="503" y="497.2573">put(Coordinate): Error</text><polygon fill="#4177AF" points="494,502.8516,490,508.8516,498,508.8516" style="stroke:#1963A0;stroke-width:1.0;"/><text fill="#000000" font-family="sans-serif" font-size="11" lengthAdjust="spacingAndGlyphs" textLength="104" x="503" y="510.062">getPlayer(): Player</text><polygon fill="#4177AF" points="494,515.6563,490,521.6563,498,521.6563" style="stroke:#1963A0;stroke-width:1.0;"/><text fill="#000000" font-family="sans-serif" font-size="11" lengthAdjust="spacingAndGlyphs" textLength="205" x="503" y="522.8667">move(Coordinate, Coordinate): Error</text><polygon fill="#4177AF" points="494,528.4609,490,534.4609,498,534.4609" style="stroke:#1963A0;stroke-width:1.0;"/><text fill="#000000" font-family="sans-serif" font-size="11" lengthAdjust="spacingAndGlyphs" textLength="104" x="503" y="535.6714">getToken(): Token</text><ellipse cx="494" cy="545.2656" fill="#84BE84" rx="3" ry="3" style="stroke:#038048;stroke-width:1.0;"/><text fill="#000000" font-family="sans-serif" font-size="11" lengthAdjust="spacingAndGlyphs" textLength="136" x="503" y="548.4761">equals(Object): boolean</text><!--MD5=[3b54484399e9c5d8797124604fd4af65]
class tictactoe.models.Player--><rect codeLine="59" fill="#FEFECE" filter="url(#f3wblbmkrf399)" height="124.8281" id="tictactoe.models.Player" style="stroke:#A80036;stroke-width:1.5;" width="231" x="446" y="615"/><ellipse cx="539.25" cy="631" fill="#ADD1B2" rx="11" ry="11" style="stroke:#A80036;stroke-width:1.0;"/><path d="M541.5938,626.6719 C540.6563,626.2344 540.0625,626.0938 539.1875,626.0938 C536.5625,626.0938 534.5625,628.1719 534.5625,630.8906 L534.5625,632.0156 C534.5625,634.5938 536.6719,636.4844 539.5625,636.4844 C540.7813,636.4844 541.9375,636.1875 542.6875,635.6406 C543.2656,635.2344 543.5938,634.7813 543.5938,634.3906 C543.5938,633.9375 543.2031,633.5469 542.7344,633.5469 C542.5156,633.5469 542.3125,633.625 542.125,633.8125 C541.6719,634.2969 541.6719,634.2969 541.4844,634.3906 C541.0625,634.6563 540.375,634.7813 539.6094,634.7813 C537.5625,634.7813 536.2656,633.6875 536.2656,631.9844 L536.2656,630.8906 C536.2656,629.1094 537.5156,627.7969 539.25,627.7969 C539.8281,627.7969 540.4375,627.9531 540.9063,628.2031 C541.3906,628.4844 541.5625,628.7031 541.6563,629.1094 C541.7188,629.5156 541.75,629.6406 541.8906,629.7656 C542.0313,629.9063 542.2656,630.0156 542.4844,630.0156 C542.75,630.0156 543.0156,629.875 543.1875,629.6563 C543.2969,629.5 543.3281,629.3125 543.3281,628.8906 L543.3281,627.4688 C543.3281,627.0313 543.3125,626.9063 543.2188,626.75 C543.0625,626.4844 542.7813,626.3438 542.4844,626.3438 C542.1875,626.3438 541.9844,626.4375 541.7656,626.75 L541.5938,626.6719 Z " fill="#000000"/><text fill="#000000" font-family="sans-serif" font-size="12" lengthAdjust="spacingAndGlyphs" textLength="36" x="559.75" y="635.1543">Player</text><line style="stroke:#A80036;stroke-width:1.5;" x1="447" x2="676" y1="647" y2="647"/><line style="stroke:#A80036;stroke-width:1.5;" x1="447" x2="676" y1="655" y2="655"/><polygon fill="#4177AF" points="457,662,453,668,461,668" style="stroke:#1963A0;stroke-width:1.0;"/><text fill="#000000" font-family="sans-serif" font-size="11" lengthAdjust="spacingAndGlyphs" textLength="118" x="466" y="669.2104">Player(Token, Board)</text><polygon fill="#4177AF" points="457,674.8047,453,680.8047,461,680.8047" style="stroke:#1963A0;stroke-width:1.0;"/><text fill="#000000" font-family="sans-serif" font-size="11" lengthAdjust="spacingAndGlyphs" textLength="121" x="466" y="682.0151">put(Coordinate): Error</text><polygon fill="#4177AF" points="457,687.6094,453,693.6094,461,693.6094" style="stroke:#1963A0;stroke-width:1.0;"/><text fill="#000000" font-family="sans-serif" font-size="11" lengthAdjust="spacingAndGlyphs" textLength="205" x="466" y="694.8198">move(Coordinate, Coordinate): Error</text><polygon fill="#4177AF" points="457,700.4141,453,706.4141,461,706.4141" style="stroke:#1963A0;stroke-width:1.0;"/><text fill="#000000" font-family="sans-serif" font-size="11" lengthAdjust="spacingAndGlyphs" textLength="104" x="466" y="707.6245">getToken(): Token</text><ellipse cx="457" cy="717.2188" fill="#84BE84" rx="3" ry="3" style="stroke:#038048;stroke-width:1.0;"/><text fill="#000000" font-family="sans-serif" font-size="11" lengthAdjust="spacingAndGlyphs" textLength="110" x="466" y="720.4292">copy(Board): Player</text><ellipse cx="457" cy="730.0234" fill="#84BE84" rx="3" ry="3" style="stroke:#038048;stroke-width:1.0;"/><text fill="#000000" font-family="sans-serif" font-size="11" lengthAdjust="spacingAndGlyphs" textLength="136" x="466" y="733.2339">equals(Object): boolean</text><!--MD5=[895b6132a90c2908aef15a128e2ee1f5]
class tictactoe.models.State--><rect codeLine="72" fill="#FEFECE" filter="url(#f3wblbmkrf399)" height="99.2188" id="tictactoe.models.State" style="stroke:#A80036;stroke-width:1.5;" width="188" x="351.5" y="98.5"/><ellipse cx="425.75" cy="114.5" fill="#ADD1B2" rx="11" ry="11" style="stroke:#A80036;stroke-width:1.0;"/><path d="M428.0938,110.1719 C427.1563,109.7344 426.5625,109.5938 425.6875,109.5938 C423.0625,109.5938 421.0625,111.6719 421.0625,114.3906 L421.0625,115.5156 C421.0625,118.0938 423.1719,119.9844 426.0625,119.9844 C427.2813,119.9844 428.4375,119.6875 429.1875,119.1406 C429.7656,118.7344 430.0938,118.2813 430.0938,117.8906 C430.0938,117.4375 429.7031,117.0469 429.2344,117.0469 C429.0156,117.0469 428.8125,117.125 428.625,117.3125 C428.1719,117.7969 428.1719,117.7969 427.9844,117.8906 C427.5625,118.1563 426.875,118.2813 426.1094,118.2813 C424.0625,118.2813 422.7656,117.1875 422.7656,115.4844 L422.7656,114.3906 C422.7656,112.6094 424.0156,111.2969 425.75,111.2969 C426.3281,111.2969 426.9375,111.4531 427.4063,111.7031 C427.8906,111.9844 428.0625,112.2031 428.1563,112.6094 C428.2188,113.0156 428.25,113.1406 428.3906,113.2656 C428.5313,113.4063 428.7656,113.5156 428.9844,113.5156 C429.25,113.5156 429.5156,113.375 429.6875,113.1563 C429.7969,113 429.8281,112.8125 429.8281,112.3906 L429.8281,110.9688 C429.8281,110.5313 429.8125,110.4063 429.7188,110.25 C429.5625,109.9844 429.2813,109.8438 428.9844,109.8438 C428.6875,109.8438 428.4844,109.9375 428.2656,110.25 L428.0938,110.1719 Z " fill="#000000"/><text fill="#000000" font-family="sans-serif" font-size="12" lengthAdjust="spacingAndGlyphs" textLength="31" x="446.25" y="118.6543">State</text><line style="stroke:#A80036;stroke-width:1.5;" x1="352.5" x2="538.5" y1="130.5" y2="130.5"/><line style="stroke:#A80036;stroke-width:1.5;" x1="352.5" x2="538.5" y1="138.5" y2="138.5"/><ellipse cx="362.5" cy="149.5" fill="#84BE84" rx="3" ry="3" style="stroke:#038048;stroke-width:1.0;"/><text fill="#000000" font-family="sans-serif" font-size="11" lengthAdjust="spacingAndGlyphs" textLength="39" x="371.5" y="152.7104">State()</text><ellipse cx="362.5" cy="162.3047" fill="#84BE84" rx="3" ry="3" style="stroke:#038048;stroke-width:1.0;"/><text fill="#000000" font-family="sans-serif" font-size="11" lengthAdjust="spacingAndGlyphs" textLength="38" x="371.5" y="165.5151">reset()</text><ellipse cx="362.5" cy="175.1094" fill="#84BE84" rx="3" ry="3" style="stroke:#038048;stroke-width:1.0;"/><text fill="#000000" font-family="sans-serif" font-size="11" lengthAdjust="spacingAndGlyphs" textLength="34" x="371.5" y="178.3198">next()</text><ellipse cx="362.5" cy="187.9141" fill="#84BE84" rx="3" ry="3" style="stroke:#038048;stroke-width:1.0;"/><text fill="#000000" font-family="sans-serif" font-size="11" lengthAdjust="spacingAndGlyphs" textLength="162" x="371.5" y="191.1245">getValueState(): StateValue</text><!--MD5=[c8f7ee38df84fc6c47e5792f2767cf35]
class tictactoe.models.StateValue--><rect codeLine="80" fill="#FEFECE" filter="url(#f3wblbmkrf399)" height="99.2188" id="tictactoe.models.StateValue" style="stroke:#A80036;stroke-width:1.5;" width="96" x="351.5" y="385.5"/><ellipse cx="366.5" cy="401.5" fill="#EB937F" rx="11" ry="11" style="stroke:#A80036;stroke-width:1.0;"/><path d="M365.2969,402.375 L366.75,402.375 L366.75,402.4844 C366.75,402.8906 366.7813,403.0469 366.8594,403.2031 C367.0156,403.4531 367.2969,403.6094 367.5938,403.6094 C367.8438,403.6094 368.1094,403.4688 368.2656,403.25 C368.3906,403.0938 368.4219,402.9375 368.4219,402.4844 L368.4219,400.5625 C368.4219,400.4063 368.4219,400.3594 368.4063,400.2031 C368.3438,399.7344 368.0313,399.4219 367.5781,399.4219 C367.3281,399.4219 367.0625,399.5625 366.8906,399.7813 C366.7813,399.9531 366.75,400.1094 366.75,400.5625 L366.75,400.6875 L365.2969,400.6875 L365.2969,398.2813 L369.2813,398.2813 L369.2813,399.1406 C369.2813,399.5469 369.3125,399.7188 369.3906,399.875 C369.5625,400.125 369.8438,400.2813 370.125,400.2813 C370.3906,400.2813 370.6563,400.1406 370.8281,399.9219 C370.9375,399.75 370.9688,399.6094 370.9688,399.1406 L370.9688,396.5938 L363.3438,396.5938 C362.9063,396.5938 362.7813,396.6094 362.625,396.7031 C362.375,396.8594 362.2188,397.1563 362.2188,397.4375 C362.2188,397.7188 362.3594,397.9688 362.5781,398.1406 C362.7344,398.25 362.9219,398.2813 363.3438,398.2813 L363.5938,398.2813 L363.5938,404.7969 L363.3438,404.7969 C362.9375,404.7969 362.7813,404.8125 362.625,404.9219 C362.375,405.0938 362.2188,405.3594 362.2188,405.6563 C362.2188,405.9219 362.3594,406.1719 362.5781,406.3281 C362.7188,406.4531 362.9531,406.5 363.3438,406.5 L371.3438,406.5 L371.3438,403.9219 C371.3438,403.4844 371.3125,403.3438 371.2344,403.1875 C371.0625,402.9375 370.7813,402.7813 370.5,402.7813 C370.2344,402.7813 369.9688,402.8906 369.7969,403.1406 C369.6875,403.2969 369.6563,403.4375 369.6563,403.9219 L369.6563,404.7969 L365.2969,404.7969 L365.2969,402.375 Z " fill="#000000"/><text fill="#000000" font-family="sans-serif" font-size="12" lengthAdjust="spacingAndGlyphs" textLength="64" x="380.5" y="405.6543">StateValue</text><line style="stroke:#A80036;stroke-width:1.5;" x1="352.5" x2="446.5" y1="417.5" y2="417.5"/><ellipse cx="362.5" cy="428.5" fill="none" rx="3" ry="3" style="stroke:#038048;stroke-width:1.0;"/><text fill="#000000" font-family="sans-serif" font-size="11" lengthAdjust="spacingAndGlyphs" textLength="38" x="371.5" y="431.7104">INITIAL</text><ellipse cx="362.5" cy="441.3047" fill="none" rx="3" ry="3" style="stroke:#038048;stroke-width:1.0;"/><text fill="#000000" font-family="sans-serif" font-size="11" lengthAdjust="spacingAndGlyphs" textLength="50" x="371.5" y="444.5151">IN_GAME</text><ellipse cx="362.5" cy="454.1094" fill="none" rx="3" ry="3" style="stroke:#038048;stroke-width:1.0;"/><text fill="#000000" font-family="sans-serif" font-size="11" lengthAdjust="spacingAndGlyphs" textLength="46" x="371.5" y="457.3198">RESUME</text><ellipse cx="362.5" cy="466.9141" fill="none" rx="3" ry="3" style="stroke:#038048;stroke-width:1.0;"/><text fill="#000000" font-family="sans-serif" font-size="11" lengthAdjust="spacingAndGlyphs" textLength="25" x="371.5" y="470.1245">EXIT</text><line style="stroke:#A80036;stroke-width:1.5;" x1="352.5" x2="446.5" y1="476.7188" y2="476.7188"/><!--MD5=[4ac948797cb0d646e058fac8f0726737]
class ConcreteCoordinate--><rect codeLine="1" fill="#FEFECE" filter="url(#f3wblbmkrf399)" height="53.9375" id="ConcreteCoordinate" style="stroke:#A80036;stroke-width:1.5;" width="153" x="7" y="874"/><ellipse cx="22" cy="892.9688" fill="#ADD1B2" rx="11" ry="11" style="stroke:#A80036;stroke-width:1.0;"/><path d="M24.3438,888.6406 C23.4063,888.2031 22.8125,888.0625 21.9375,888.0625 C19.3125,888.0625 17.3125,890.1406 17.3125,892.8594 L17.3125,893.9844 C17.3125,896.5625 19.4219,898.4531 22.3125,898.4531 C23.5313,898.4531 24.6875,898.1563 25.4375,897.6094 C26.0156,897.2031 26.3438,896.75 26.3438,896.3594 C26.3438,895.9063 25.9531,895.5156 25.4844,895.5156 C25.2656,895.5156 25.0625,895.5938 24.875,895.7813 C24.4219,896.2656 24.4219,896.2656 24.2344,896.3594 C23.8125,896.625 23.125,896.75 22.3594,896.75 C20.3125,896.75 19.0156,895.6563 19.0156,893.9531 L19.0156,892.8594 C19.0156,891.0781 20.2656,889.7656 22,889.7656 C22.5781,889.7656 23.1875,889.9219 23.6563,890.1719 C24.1406,890.4531 24.3125,890.6719 24.4063,891.0781 C24.4688,891.4844 24.5,891.6094 24.6406,891.7344 C24.7813,891.875 25.0156,891.9844 25.2344,891.9844 C25.5,891.9844 25.7656,891.8438 25.9375,891.625 C26.0469,891.4688 26.0781,891.2813 26.0781,890.8594 L26.0781,889.4375 C26.0781,889 26.0625,888.875 25.9688,888.7188 C25.8125,888.4531 25.5313,888.3125 25.2344,888.3125 C24.9375,888.3125 24.7344,888.4063 24.5156,888.7188 L24.3438,888.6406 Z " fill="#000000"/><text fill="#000000" font-family="sans-serif" font-size="12" lengthAdjust="spacingAndGlyphs" textLength="98" x="47.5" y="890.1387">usantatecla.utils.</text><text fill="#000000" font-family="sans-serif" font-size="12" lengthAdjust="spacingAndGlyphs" textLength="121" x="36" y="904.1074">ConcreteCoordinate</text><line style="stroke:#A80036;stroke-width:1.5;" x1="8" x2="159" y1="911.9375" y2="911.9375"/><line style="stroke:#A80036;stroke-width:1.5;" x1="8" x2="159" y1="919.9375" y2="919.9375"/><!--MD5=[02f7077ed79257124e28b791f351f1d7]
class Direction--><rect codeLine="2" fill="#FEFECE" filter="url(#f3wblbmkrf399)" height="53.9375" id="Direction" style="stroke:#A80036;stroke-width:1.5;" width="130" x="480.5" y="1272"/><ellipse cx="495.5" cy="1290.9688" fill="#ADD1B2" rx="11" ry="11" style="stroke:#A80036;stroke-width:1.0;"/><path d="M497.8438,1286.6406 C496.9063,1286.2031 496.3125,1286.0625 495.4375,1286.0625 C492.8125,1286.0625 490.8125,1288.1406 490.8125,1290.8594 L490.8125,1291.9844 C490.8125,1294.5625 492.9219,1296.4531 495.8125,1296.4531 C497.0313,1296.4531 498.1875,1296.1563 498.9375,1295.6094 C499.5156,1295.2031 499.8438,1294.75 499.8438,1294.3594 C499.8438,1293.9063 499.4531,1293.5156 498.9844,1293.5156 C498.7656,1293.5156 498.5625,1293.5938 498.375,1293.7813 C497.9219,1294.2656 497.9219,1294.2656 497.7344,1294.3594 C497.3125,1294.625 496.625,1294.75 495.8594,1294.75 C493.8125,1294.75 492.5156,1293.6563 492.5156,1291.9531 L492.5156,1290.8594 C492.5156,1289.0781 493.7656,1287.7656 495.5,1287.7656 C496.0781,1287.7656 496.6875,1287.9219 497.1563,1288.1719 C497.6406,1288.4531 497.8125,1288.6719 497.9063,1289.0781 C497.9688,1289.4844 498,1289.6094 498.1406,1289.7344 C498.2813,1289.875 498.5156,1289.9844 498.7344,1289.9844 C499,1289.9844 499.2656,1289.8438 499.4375,1289.625 C499.5469,1289.4688 499.5781,1289.2813 499.5781,1288.8594 L499.5781,1287.4375 C499.5781,1287 499.5625,1286.875 499.4688,1286.7188 C499.3125,1286.4531 499.0313,1286.3125 498.7344,1286.3125 C498.4375,1286.3125 498.2344,1286.4063 498.0156,1286.7188 L497.8438,1286.6406 Z " fill="#000000"/><text fill="#000000" font-family="sans-serif" font-size="12" lengthAdjust="spacingAndGlyphs" textLength="98" x="509.5" y="1288.1387">usantatecla.utils.</text><text fill="#000000" font-family="sans-serif" font-size="12" lengthAdjust="spacingAndGlyphs" textLength="54" x="531.5" y="1302.1074">Direction</text><line style="stroke:#A80036;stroke-width:1.5;" x1="481.5" x2="609.5" y1="1309.9375" y2="1309.9375"/><line style="stroke:#A80036;stroke-width:1.5;" x1="481.5" x2="609.5" y1="1317.9375" y2="1317.9375"/><!--MD5=[b8cfd8c4119a3b0a7a46bfc5fc780f85]
class Error--><rect codeLine="3" fill="#FEFECE" filter="url(#f3wblbmkrf399)" height="53.9375" id="Error" style="stroke:#A80036;stroke-width:1.5;" width="124" x="195.5" y="874"/><ellipse cx="210.5" cy="892.9688" fill="#ADD1B2" rx="11" ry="11" style="stroke:#A80036;stroke-width:1.0;"/><path d="M212.8438,888.6406 C211.9063,888.2031 211.3125,888.0625 210.4375,888.0625 C207.8125,888.0625 205.8125,890.1406 205.8125,892.8594 L205.8125,893.9844 C205.8125,896.5625 207.9219,898.4531 210.8125,898.4531 C212.0313,898.4531 213.1875,898.1563 213.9375,897.6094 C214.5156,897.2031 214.8438,896.75 214.8438,896.3594 C214.8438,895.9063 214.4531,895.5156 213.9844,895.5156 C213.7656,895.5156 213.5625,895.5938 213.375,895.7813 C212.9219,896.2656 212.9219,896.2656 212.7344,896.3594 C212.3125,896.625 211.625,896.75 210.8594,896.75 C208.8125,896.75 207.5156,895.6563 207.5156,893.9531 L207.5156,892.8594 C207.5156,891.0781 208.7656,889.7656 210.5,889.7656 C211.0781,889.7656 211.6875,889.9219 212.1563,890.1719 C212.6406,890.4531 212.8125,890.6719 212.9063,891.0781 C212.9688,891.4844 213,891.6094 213.1406,891.7344 C213.2813,891.875 213.5156,891.9844 213.7344,891.9844 C214,891.9844 214.2656,891.8438 214.4375,891.625 C214.5469,891.4688 214.5781,891.2813 214.5781,890.8594 L214.5781,889.4375 C214.5781,889 214.5625,888.875 214.4688,888.7188 C214.3125,888.4531 214.0313,888.3125 213.7344,888.3125 C213.4375,888.3125 213.2344,888.4063 213.0156,888.7188 L212.8438,888.6406 Z " fill="#000000"/><text fill="#000000" font-family="sans-serif" font-size="12" lengthAdjust="spacingAndGlyphs" textLength="92" x="224.5" y="890.1387">tictactoe.types.</text><text fill="#000000" font-family="sans-serif" font-size="12" lengthAdjust="spacingAndGlyphs" textLength="30" x="255.5" y="904.1074">Error</text><line style="stroke:#A80036;stroke-width:1.5;" x1="196.5" x2="318.5" y1="911.9375" y2="911.9375"/><line style="stroke:#A80036;stroke-width:1.5;" x1="196.5" x2="318.5" y1="919.9375" y2="919.9375"/><!--MD5=[d8c8cfd5ca149094f5b67f9f607a5ec7]
class Token--><rect codeLine="4" fill="#FEFECE" filter="url(#f3wblbmkrf399)" height="53.9375" id="Token" style="stroke:#A80036;stroke-width:1.5;" width="124" x="844.5" y="1110"/><ellipse cx="859.5" cy="1128.9688" fill="#ADD1B2" rx="11" ry="11" style="stroke:#A80036;stroke-width:1.0;"/><path d="M861.8438,1124.6406 C860.9063,1124.2031 860.3125,1124.0625 859.4375,1124.0625 C856.8125,1124.0625 854.8125,1126.1406 854.8125,1128.8594 L854.8125,1129.9844 C854.8125,1132.5625 856.9219,1134.4531 859.8125,1134.4531 C861.0313,1134.4531 862.1875,1134.1563 862.9375,1133.6094 C863.5156,1133.2031 863.8438,1132.75 863.8438,1132.3594 C863.8438,1131.9063 863.4531,1131.5156 862.9844,1131.5156 C862.7656,1131.5156 862.5625,1131.5938 862.375,1131.7813 C861.9219,1132.2656 861.9219,1132.2656 861.7344,1132.3594 C861.3125,1132.625 860.625,1132.75 859.8594,1132.75 C857.8125,1132.75 856.5156,1131.6563 856.5156,1129.9531 L856.5156,1128.8594 C856.5156,1127.0781 857.7656,1125.7656 859.5,1125.7656 C860.0781,1125.7656 860.6875,1125.9219 861.1563,1126.1719 C861.6406,1126.4531 861.8125,1126.6719 861.9063,1127.0781 C861.9688,1127.4844 862,1127.6094 862.1406,1127.7344 C862.2813,1127.875 862.5156,1127.9844 862.7344,1127.9844 C863,1127.9844 863.2656,1127.8438 863.4375,1127.625 C863.5469,1127.4688 863.5781,1127.2813 863.5781,1126.8594 L863.5781,1125.4375 C863.5781,1125 863.5625,1124.875 863.4688,1124.7188 C863.3125,1124.4531 863.0313,1124.3125 862.7344,1124.3125 C862.4375,1124.3125 862.2344,1124.4063 862.0156,1124.7188 L861.8438,1124.6406 Z " fill="#000000"/><text fill="#000000" font-family="sans-serif" font-size="12" lengthAdjust="spacingAndGlyphs" textLength="92" x="873.5" y="1126.1387">tictactoe.types.</text><text fill="#000000" font-family="sans-serif" font-size="12" lengthAdjust="spacingAndGlyphs" textLength="37" x="901" y="1140.1074">Token</text><line style="stroke:#A80036;stroke-width:1.5;" x1="845.5" x2="967.5" y1="1147.9375" y2="1147.9375"/><line style="stroke:#A80036;stroke-width:1.5;" x1="845.5" x2="967.5" y1="1155.9375" y2="1155.9375"/><!--MD5=[715d8bc148b7807b721da6bea55ba6f0]
link tictactoe.models.Board to Token--><path codeLine="21" d="M758.3753,1009.6375 C758.3753,1009.6375 802.29,1045.114 822.5,1062 C837.502,1074.535 853.683,1088.643 867.8,1101.154 " fill="none" id="tictactoe.models.Board-Token" style="stroke:#A80036;stroke-width:1.0;"/><polygon fill="#A80036" points="877.669,1109.936,873.6044,1100.965,873.9337,1106.6122,868.2864,1106.9415,877.669,1109.936" style="stroke:#A80036;stroke-width:1.0;"/><line style="stroke:#A80036;stroke-width:1.0;" x1="873.9337" x2="867.9575" y1="1106.6122" y2="1101.294"/><polygon fill="#A80036" points="749.005,1002.141,751.1913,1009.0127,758.3753,1009.6375,756.189,1002.7658,749.005,1002.141" style="stroke:#A80036;stroke-width:1.0;"/><text fill="#000000" font-family="sans-serif" font-size="13" lengthAdjust="spacingAndGlyphs" textLength="7" x="863.1925" y="1099.0326">*</text><!--MD5=[9415c0c61774263745e2cedb44e639c6]
link tictactoe.models.Board to tictactoe.models.Coordinate--><path codeLine="22" d="M553.235,1002.255 C540.882,1020.667 528.15,1039.642 516.297,1057.309 " fill="none" id="tictactoe.models.Board-to-tictactoe.models.Coordinate" style="stroke:#A80036;stroke-width:1.0;stroke-dasharray:7.0,7.0;"/><polygon fill="#A80036" points="513.303,1061.771,521.6393,1056.5264,516.089,1057.6191,514.9963,1052.0688,513.303,1061.771" style="stroke:#A80036;stroke-width:1.0;"/><!--MD5=[95371b819337377421bee880416b6571]
link tictactoe.models.Board to Direction--><path codeLine="23" d="M626.465,1002.049 C627.118,1070.153 621.197,1161.157 592.5,1236 C588.142,1247.3664 581.027,1258.414 573.637,1267.9584 " fill="none" id="tictactoe.models.Board-to-Direction" style="stroke:#A80036;stroke-width:1.0;stroke-dasharray:7.0,7.0;"/><polygon fill="#A80036" points="570.46,1271.9535,579.1921,1267.3981,573.5717,1268.0398,572.9301,1262.4194,570.46,1271.9535" style="stroke:#A80036;stroke-width:1.0;"/><!--MD5=[4ae82c12558cb4b2e8949f940e9da2cf]
reverse link ConcreteCoordinate to tictactoe.models.Coordinate--><path codeLine="35" d="M116.165,943.477 C132.997,962.975 154.742,985.503 177.5,1002 C230.441,1040.377 296.119,1072.077 351.18,1094.993 " fill="none" id="ConcreteCoordinate-backto-tictactoe.models.Coordinate" style="stroke:#A80036;stroke-width:1.0;"/><polygon fill="none" points="110.7,947.854,103.2667,928.011,121.452,938.888,110.7,947.854" style="stroke:#A80036;stroke-width:1.0;"/><!--MD5=[787386d7ca2e6f5e643967cb883a78fa]
link tictactoe.models.Coordinate to Direction--><path codeLine="36" d="M501.619,1212.379 C511.55,1231.7558 521.707,1251.5744 529.745,1267.2579 " fill="none" id="tictactoe.models.Coordinate-to-Direction" style="stroke:#A80036;stroke-width:1.0;stroke-dasharray:7.0,7.0;"/><polygon fill="#A80036" points="532.169,1271.9873,531.623,1262.1536,529.8881,1267.5379,524.5039,1265.803,532.169,1271.9873" style="stroke:#A80036;stroke-width:1.0;"/><!--MD5=[b634369fa6e65a8dead148f8efc150f7]
link tictactoe.models.Game to tictactoe.models.Board--><path codeLine="53" d="M723.2636,266.7269 C723.2636,266.7269 729.637,299.69 731.5,315 C754.347,502.781 766.795,560.041 708.5,740 C703.323,755.982 696.518,772.203 688.982,787.88 " fill="none" id="tictactoe.models.Game-tictactoe.models.Board" style="stroke:#A80036;stroke-width:1.0;"/><polygon fill="#A80036" points="683.091,799.749,690.6754,793.466,685.3141,795.2704,683.5097,789.909,683.091,799.749" style="stroke:#A80036;stroke-width:1.0;"/><line style="stroke:#A80036;stroke-width:1.0;" x1="685.3141" x2="688.8705" y1="795.2704" y2="788.104"/><polygon fill="#A80036" points="720.718,255,718.0818,261.712,723.2636,266.7269,725.8998,260.0149,720.718,255" style="stroke:#A80036;stroke-width:1.0;"/><!--MD5=[aa5c2eaa34da3707c874f29e1edc60f9]
link tictactoe.models.Game to tictactoe.models.Turn--><path codeLine="54" d="M652.5632,266.5419 C652.5632,266.5419 644.751,290.72 641.009,302.32 " fill="none" id="tictactoe.models.Game-tictactoe.models.Turn" style="stroke:#A80036;stroke-width:1.0;"/><polygon fill="#A80036" points="636.964,314.84,643.5388,307.5071,638.5022,310.0825,635.9268,305.0459,636.964,314.84" style="stroke:#A80036;stroke-width:1.0;"/><line style="stroke:#A80036;stroke-width:1.0;" x1="638.5022" x2="640.958" y1="310.0825" y2="302.47"/><polygon fill="#A80036" points="656.243,255.12,650.5958,259.6043,652.5632,266.5419,658.2104,262.0575,656.243,255.12" style="stroke:#A80036;stroke-width:1.0;"/><!--MD5=[3af71857b9ad654b2037bc7ee0d85849]
link tictactoe.models.Game to tictactoe.models.Coordinate--><path codeLine="55" d="M734.365,255.23 C740.873,274.81 746.67,295.3 750.5,315 C779.637,464.914 851.992,874.124 768.5,1002 C727.052,1065.482 648.081,1099.086 580.882,1116.766 " fill="none" id="tictactoe.models.Game-to-tictactoe.models.Coordinate" style="stroke:#A80036;stroke-width:1.0;stroke-dasharray:7.0,7.0;"/><polygon fill="#A80036" points="575.655,1118.115,585.3692,1119.7381,580.4962,1116.865,583.3693,1111.9921,575.655,1118.115" style="stroke:#A80036;stroke-width:1.0;"/><!--MD5=[1e1952a5c407ff6ca98def89eca250c2]
link tictactoe.models.Game to Error--><path codeLine="56" d="M574.697,244.97 C568.676,248.56 562.595,251.93 556.5,255 C464.81,301.12 401.067,237.74 333.5,315 C190.429,478.594 232.326,772.933 250.85,868.856 " fill="none" id="tictactoe.models.Game-to-Error" style="stroke:#A80036;stroke-width:1.0;stroke-dasharray:7.0,7.0;"/><polygon fill="#A80036" points="251.82,873.813,254.0176,864.2125,250.86,868.906,246.1665,865.7484,251.82,873.813" style="stroke:#A80036;stroke-width:1.0;"/><!--MD5=[f108930b09104f9d68882eaac6c296c4]
link tictactoe.models.Game to Token--><path codeLine="57" d="M766.276,255.32 C777.66,274.54 788.309,294.89 796.5,315 C914.249,604.082 911.403,993.159 907.813,1104.85 " fill="none" id="tictactoe.models.Game-to-Token" style="stroke:#A80036;stroke-width:1.0;stroke-dasharray:7.0,7.0;"/><polygon fill="#A80036" points="907.642,1109.957,911.9432,1101.097,907.8106,1104.9598,903.9477,1100.8273,907.642,1109.957" style="stroke:#A80036;stroke-width:1.0;"/><!--MD5=[ddcf232c751077f9b10d6064c369d290]
link tictactoe.models.Player to Token--><path codeLine="67" d="M687.4703,734.9181 C687.4703,734.9181 746.435,774.58 768.5,800 C846.427,889.775 884.418,1029.53 899.032,1096.976 " fill="none" id="tictactoe.models.Player-Token" style="stroke:#A80036;stroke-width:1.0;"/><polygon fill="#A80036" points="901.725,1109.846,903.7967,1100.2175,900.7008,1104.952,895.9663,1101.8562,901.725,1109.846" style="stroke:#A80036;stroke-width:1.0;"/><line style="stroke:#A80036;stroke-width:1.0;" x1="900.7008" x2="899.0625" y1="1104.952" y2="1097.122"/><polygon fill="#A80036" points="677.11,728.863,680.2718,735.344,687.4703,734.9181,684.3085,728.4371,677.11,728.863" style="stroke:#A80036;stroke-width:1.0;"/><!--MD5=[4d61797189bd4e3921b05d5b1c2f3641]
link tictactoe.models.Player to tictactoe.models.Board--><path codeLine="68" d="M581.0232,751.7958 C581.0232,751.7958 587.28,775.285 590.321,786.701 " fill="none" id="tictactoe.models.Player-tictactoe.models.Board" style="stroke:#A80036;stroke-width:1.0;"/><polygon fill="#A80036" points="593.751,799.579,595.3001,789.8527,592.4643,794.7474,587.5696,791.9115,593.751,799.579" style="stroke:#A80036;stroke-width:1.0;"/><line style="stroke:#A80036;stroke-width:1.0;" x1="592.4643" x2="590.405" y1="794.7474" y2="787.017"/><polygon fill="#A80036" points="577.935,740.2,575.6138,747.0273,581.0232,751.7958,583.3444,744.9685,577.935,740.2" style="stroke:#A80036;stroke-width:1.0;"/><!--MD5=[8c8274b143d2ce23d56b10c65f754674]
link tictactoe.models.Player to tictactoe.models.Coordinate--><path codeLine="69" d="M504.609,740.145 C491.246,758.171 478.787,778.772 471.5,800 C442.65,884.043 445.292,986.993 452.169,1056.618 " fill="none" id="tictactoe.models.Player-to-tictactoe.models.Coordinate" style="stroke:#A80036;stroke-width:1.0;stroke-dasharray:7.0,7.0;"/><polygon fill="#A80036" points="452.714,1061.991,455.7858,1052.6334,452.2097,1057.0165,447.8266,1053.4403,452.714,1061.991" style="stroke:#A80036;stroke-width:1.0;"/><!--MD5=[5f38bb10c8a4955eb5b1e5512962abb2]
link tictactoe.models.Player to Error--><path codeLine="70" d="M445.892,728.94 C408.555,748.193 368.356,772.279 335.5,800 C311.835,819.966 290.633,848.172 276.328,869.54 " fill="none" id="tictactoe.models.Player-to-Error" style="stroke:#A80036;stroke-width:1.0;stroke-dasharray:7.0,7.0;"/><polygon fill="#A80036" points="273.561,873.718,281.866,868.424,276.3223,869.5496,275.1966,864.0059,273.561,873.718" style="stroke:#A80036;stroke-width:1.0;"/><!--MD5=[69cbcab07352f712aee3f1faba0680a5]
link tictactoe.models.State to tictactoe.models.StateValue--><path codeLine="78" d="M435.733,209.5167 C435.733,209.5167 417.204,324.31 409.493,372.086 " fill="none" id="tictactoe.models.State-tictactoe.models.StateValue" style="stroke:#A80036;stroke-width:1.0;"/><polygon fill="#A80036" points="407.4,385.054,412.7831,376.8064,408.1968,380.1179,404.8853,375.5316,407.4,385.054" style="stroke:#A80036;stroke-width:1.0;"/><line style="stroke:#A80036;stroke-width:1.0;" x1="408.1968" x2="409.4715" y1="380.1179" y2="372.22"/><polygon fill="#A80036" points="437.645,197.67,432.7401,202.956,435.733,209.5167,440.6379,204.2307,437.645,197.67" style="stroke:#A80036;stroke-width:1.0;"/><!--MD5=[445ca9be6ac7acaf2fbd96fa00e05ee8]
link tictactoe.models.Turn to tictactoe.models.Player--><path codeLine="105" d="M578.3379,567.0534 C578.3379,567.0534 574.624,591.196 572.96,602.011 " fill="none" id="tictactoe.models.Turn-tictactoe.models.Player" style="stroke:#A80036;stroke-width:1.0;"/><polygon fill="#A80036" points="570.979,614.886,576.3013,606.5991,571.7395,609.9442,568.3943,605.3823,570.979,614.886" style="stroke:#A80036;stroke-width:1.0;"/><line style="stroke:#A80036;stroke-width:1.0;" x1="571.7395" x2="572.956" y1="609.9442" y2="602.037"/><polygon fill="#A80036" points="580.163,555.193,575.297,560.5148,578.3379,567.0534,583.2039,561.7316,580.163,555.193" style="stroke:#A80036;stroke-width:1.0;"/><text fill="#000000" font-family="sans-serif" font-size="13" lengthAdjust="spacingAndGlyphs" textLength="7" x="564.6703" y="603.8636">*</text><!--MD5=[11aca849becf2c66e9fb721656f4b409]
link tictactoe.models.Turn to tictactoe.models.Board--><path codeLine="106" d="M677.454,565.9628 C677.454,565.9628 690.46,598.92 694.5,615 C708.037,668.881 706.439,685.743 694.5,740 C691.023,755.802 685.826,771.901 679.768,787.5 " fill="none" id="tictactoe.models.Turn-tictactoe.models.Board" style="stroke:#A80036;stroke-width:1.0;"/><polygon fill="#A80036" points="674.741,799.888,681.8318,793.0528,676.6212,795.255,674.419,790.0444,674.741,799.888" style="stroke:#A80036;stroke-width:1.0;"/><line style="stroke:#A80036;stroke-width:1.0;" x1="676.6212" x2="679.629" y1="795.255" y2="787.842"/><polygon fill="#A80036" points="672.547,555.012,671.3502,562.1231,677.454,565.9628,678.6508,558.8517,672.547,555.012" style="stroke:#A80036;stroke-width:1.0;"/><!--MD5=[2ce67dc7b8904d2487e2a382b8293df9]
link tictactoe.models.Turn to Token--><path codeLine="107" d="M698.804,555.28 C750.656,622.995 810.463,711.675 846.5,800 C889.742,905.983 901.888,1043.333 905.246,1104.369 " fill="none" id="tictactoe.models.Turn-to-Token" style="stroke:#A80036;stroke-width:1.0;stroke-dasharray:7.0,7.0;"/><polygon fill="#A80036" points="905.526,1109.684,909.0447,1100.4851,905.2617,1104.691,901.0559,1100.908,905.526,1109.684" style="stroke:#A80036;stroke-width:1.0;"/><!--MD5=[48951ad2288b716169f812a2c734d472]
link tictactoe.models.Turn to tictactoe.models.Coordinate--><path codeLine="108" d="M482.649,544.86 C457.009,571.767 435.372,597.785 428.5,615 C369.692,762.318 407.624,951.643 437.526,1056.733 " fill="none" id="tictactoe.models.Turn-to-tictactoe.models.Coordinate" style="stroke:#A80036;stroke-width:1.0;stroke-dasharray:7.0,7.0;"/><polygon fill="#A80036" points="438.944,1061.673,440.3073,1051.9189,437.5653,1056.8668,432.6174,1054.1249,438.944,1061.673" style="stroke:#A80036;stroke-width:1.0;"/><!--MD5=[448c7c6490121f34126ed8904289109a]
link tictactoe.models.Turn to Error--><path codeLine="109" d="M482.8,539.055 C441.626,576.013 404.367,609.918 400.5,615 C337.051,698.393 289.25,814.278 268.646,869.014 " fill="none" id="tictactoe.models.Turn-to-Error" style="stroke:#A80036;stroke-width:1.0;stroke-dasharray:7.0,7.0;"/><polygon fill="#A80036" points="266.855,873.8,273.7543,866.7715,268.6065,869.1168,266.2612,863.9691,266.855,873.8" style="stroke:#A80036;stroke-width:1.0;"/><!--MD5=[14d24265e4f3a1c35b8ff90e7c108234]
@startuml
class ConcreteCoordinate as "usantatecla.utils.\nConcreteCoordinate" {}
class Direction as "usantatecla.utils.\nDirection" {}
class Error as "tictactoe.types.\nError" {}
class Token as "tictactoe.types.\nToken" {}

class tictactoe.models.Board{
  + Board()
  - Board(Board)
  ~ copy(): Board
  ~ getToken(Coordinate): Token
  ~ put(Coordinate, Token)
  ~ move(Coordinate, Coordinate)
  ~ isCompleted(): boolean
  ~ isOccupied(Coordinate, Token): boolean
  ~ isEmpty(Coordinate): boolean
  ~ isTicTacToe(Token): boolean
  - getCoordinates(Token): List<Coordinate>
  + equals(Object): boolean
}

tictactoe.models.Board *-down-> "*" Token
tictactoe.models.Board .down.> tictactoe.models.Coordinate
tictactoe.models.Board .down.> Direction

class tictactoe.models.Coordinate{
  ~ {static} NULL_COORDINATE: Coordinate
  + {static} DIMENSION: int
  + Coordinate()
  + Coordinate(int, int)
  + isNull(): boolean
  + getDirection(Coordinate): Direction
  - inInverseDiagonal(): boolean
  + random()
}
ConcreteCoordinate <|-down- tictactoe.models.Coordinate
tictactoe.models.Coordinate .down.> Direction

class tictactoe.models.Game{
  + Game()
  + reset()
  + setUsers(int)
  + isBoardComplete(): boolean
  + isUser(): boolean
  + put(Coordinate): Error
  + move(Coordinate, Coordinate): Error
  + next(Error)
  + isTicTacToe(): boolean
  + getToken(Coordinate): Token
  + getToken(): Token
  + getMaxPlayers(): int
  + equals(Object): boolean
}
tictactoe.models.Game *-down-> tictactoe.models.Board
tictactoe.models.Game *-down-> tictactoe.models.Turn
tictactoe.models.Game .down.> tictactoe.models.Coordinate
tictactoe.models.Game .down.> Error
tictactoe.models.Game .down.> Token

class tictactoe.models.Player{
  ~ Player(Token, Board)
  ~ put(Coordinate): Error
  ~ move(Coordinate, Coordinate): Error
  ~ getToken(): Token
  + copy(Board): Player
  + equals(Object): boolean
}
tictactoe.models.Player *-down-> Token
tictactoe.models.Player *-down-> tictactoe.models.Board
tictactoe.models.Player .down.> tictactoe.models.Coordinate
tictactoe.models.Player .down.> Error

class tictactoe.models.State{
  + State()
  + reset()
  + next()
  + getValueState(): StateValue
}
tictactoe.models.State *-down-> tictactoe.models.StateValue

enum tictactoe.models.StateValue{
  + INITIAL
  + IN_GAME
  + RESUME
  + EXIT
}

class tictactoe.models.Turn{
  + {static} NUMBER_PLAYERS: int
  - active: int
  - users: int
  ~ Turn(Board)
  + Turn(Turn, Board)
  + copy(Board): Turn
  ~ setUsers(int)
  ~ set(int)
  ~ next()
  ~ isUser(): boolean
  ~ put(Coordinate): Error
  ~ getPlayer(): Player
  ~ move(Coordinate, Coordinate): Error
  ~ getToken(): Token
  + equals(Object): boolean
}

tictactoe.models.Turn *-down-> "*" tictactoe.models.Player
tictactoe.models.Turn *-down-> tictactoe.models.Board
tictactoe.models.Turn .down.-> Token
tictactoe.models.Turn .down.-> tictactoe.models.Coordinate
tictactoe.models.Turn .down.-> Error
@enduml

PlantUML version 1.2020.22(Sun Dec 06 09:36:27 UTC 2020)
(GPL source distribution)
Java Runtime: Java(TM) SE Runtime Environment
JVM: Java HotSpot(TM) 64-Bit Server VM
Default Encoding: UTF-8
Language: en
Country: US
--></g></svg>