<?xml version="1.0" encoding="UTF-8" standalone="no"?><svg xmlns="http://www.w3.org/2000/svg" xmlns:xlink="http://www.w3.org/1999/xlink" contentScriptType="application/ecmascript" contentStyleType="text/css" height="679px" preserveAspectRatio="none" style="width:1739px;height:679px;" version="1.1" viewBox="0 0 1739 679" width="1739px" zoomAndPan="magnify"><defs><filter height="300%" id="f16906k8ccrr6b" width="300%" x="-1" y="-1"><feGaussianBlur result="blurOut" stdDeviation="2.0"/><feColorMatrix in="blurOut" result="blurOut2" type="matrix" values="0 0 0 0 0 0 0 0 0 0 0 0 0 0 0 0 0 0 .4 0"/><feOffset dx="4.0" dy="4.0" in="blurOut2" result="blurOut3"/><feBlend in="SourceGraphic" in2="blurOut3" mode="normal"/></filter></defs><g><!--MD5=[ee7e9a007a7c4d40c0679a27f272732d]
cluster tictactoe.controllers--><polygon fill="#FFFFFF" filter="url(#f16906k8ccrr6b)" points="653.5,6,829.5,6,836.5,28.2969,1414.5,28.2969,1414.5,672,653.5,672,653.5,6" style="stroke:#000000;stroke-width:1.5;"/><line style="stroke:#000000;stroke-width:1.5;" x1="653.5" x2="836.5" y1="28.2969" y2="28.2969"/><text fill="#000000" font-family="sans-serif" font-size="14" font-weight="bold" lengthAdjust="spacingAndGlyphs" textLength="170" x="657.5" y="20.9951">tictactoe.controllers</text><!--MD5=[957eef6538bab7382edbc29d98579a60]
class tictactoe.controllers.Controller--><rect codeLine="9" fill="#FEFECE" filter="url(#f16906k8ccrr6b)" height="99.2188" id="tictactoe.controllers.Controller" style="stroke:#A80036;stroke-width:1.5;" width="192" x="931.5" y="175"/><ellipse cx="994.25" cy="191" fill="#A9DCDF" rx="11" ry="11" style="stroke:#A80036;stroke-width:1.0;"/><path d="M996.3281,192.8125 L996.7188,193.7969 L996.3281,193.7969 C995.875,193.7969 995.7656,193.8125 995.6094,193.9219 C995.3594,194.0781 995.2031,194.3594 995.2031,194.6563 C995.2031,194.9219 995.3438,195.1719 995.5625,195.3281 C995.7031,195.4531 995.9063,195.5 996.3281,195.5 L998.6875,195.5 C999.0469,195.5 999.2656,195.4688 999.4063,195.375 C999.6563,195.2344 999.8125,194.9375 999.8125,194.6563 C999.8125,194.375 999.6719,194.125 999.4531,193.9688 C999.2813,193.8281 999.125,193.7969 998.6563,193.7969 L995.2656,185.5938 L991.5938,185.5938 C991.1406,185.5938 991.0156,185.6094 990.8594,185.7031 C990.6094,185.875 990.4531,186.1563 990.4531,186.4375 C990.4531,186.7188 990.5938,186.9688 990.8125,187.1406 C990.9844,187.25 991.1563,187.2813 991.5938,187.2813 L992.6719,187.2813 L990.0313,193.7969 C989.6094,193.7969 989.4531,193.8125 989.2969,193.9219 C989.0469,194.0781 988.8906,194.3594 988.8906,194.6563 C988.8906,195.2188 989.2656,195.5 990.0156,195.5 L992.2813,195.5 C992.6406,195.5 992.8594,195.4688 992.9844,195.375 C993.25,195.2344 993.3906,194.9375 993.3906,194.6563 C993.3906,194.375 993.2656,194.125 993.0469,193.9531 C992.875,193.8281 992.7344,193.7969 992.2813,193.7969 L991.8906,193.7969 L992.2813,192.8125 L996.3281,192.8125 Z M995.625,191.1094 L992.9531,191.1094 L994.2969,187.8438 L995.625,191.1094 Z " fill="#000000"/><text fill="#000000" font-family="sans-serif" font-size="12" font-style="italic" lengthAdjust="spacingAndGlyphs" textLength="58" x="1014.75" y="195.1543">Controller</text><line style="stroke:#A80036;stroke-width:1.5;" x1="932.5" x2="1122.5" y1="207" y2="207"/><line style="stroke:#A80036;stroke-width:1.5;" x1="932.5" x2="1122.5" y1="215" y2="215"/><polygon fill="#4177AF" points="942.5,222,938.5,228,946.5,228" style="stroke:#1963A0;stroke-width:1.0;"/><text fill="#000000" font-family="sans-serif" font-size="11" lengthAdjust="spacingAndGlyphs" textLength="132" x="951.5" y="229.2104">Controller(Game,State)</text><ellipse cx="942.5" cy="238.8047" fill="#84BE84" rx="3" ry="3" style="stroke:#038048;stroke-width:1.0;"/><text fill="#000000" font-family="sans-serif" font-size="11" lengthAdjust="spacingAndGlyphs" textLength="166" x="951.5" y="242.0151">getToken(Coordinate): Token</text><ellipse cx="942.5" cy="251.6094" fill="#84BE84" rx="3" ry="3" style="stroke:#038048;stroke-width:1.0;"/><text fill="#000000" font-family="sans-serif" font-size="11" lengthAdjust="spacingAndGlyphs" textLength="34" x="951.5" y="254.8198">next()</text><ellipse cx="942.5" cy="264.4141" fill="#84BE84" rx="3" ry="3" style="stroke:#038048;stroke-width:1.0;"/><text fill="#000000" font-family="sans-serif" font-size="11" font-style="italic" lengthAdjust="spacingAndGlyphs" textLength="143" x="951.5" y="267.6245">accept(ControllersVisitor)</text><!--MD5=[cd4f094777041ea0b287ad7c5b510f06]
class tictactoe.controllers.ControllersVisitor--><rect codeLine="21" fill="#FEFECE" filter="url(#f16906k8ccrr6b)" height="86.4141" id="tictactoe.controllers.ControllersVisitor" style="stroke:#A80036;stroke-width:1.5;" width="159" x="1012" y="570"/><ellipse cx="1038.7" cy="586" fill="#B4A7E5" rx="11" ry="11" style="stroke:#A80036;stroke-width:1.0;"/><path d="M1039.6531,582.7813 L1041.3719,582.7813 C1041.7625,582.7813 1041.95,582.75 1042.075,582.6719 C1042.3406,582.5156 1042.4813,582.2344 1042.4813,581.9375 C1042.4813,581.6719 1042.3719,581.4063 1042.1375,581.2344 C1041.9656,581.125 1041.825,581.0938 1041.3719,581.0938 L1036.2313,581.0938 C1035.7938,581.0938 1035.6688,581.1094 1035.5125,581.2031 C1035.2625,581.3594 1035.1063,581.6563 1035.1063,581.9375 C1035.1063,582.2188 1035.2469,582.4688 1035.4656,582.6406 C1035.6219,582.75 1035.8094,582.7813 1036.2313,582.7813 L1037.95,582.7813 L1037.95,589.2969 L1036.2313,589.2969 C1035.7938,589.2969 1035.6688,589.3125 1035.5125,589.4219 C1035.2625,589.5781 1035.1063,589.8594 1035.1063,590.1563 C1035.1063,590.4063 1035.2469,590.6719 1035.4656,590.8281 C1035.6219,590.9531 1035.825,591 1036.2313,591 L1041.3719,591 C1042.1219,591 1042.4813,590.7188 1042.4813,590.1563 C1042.4813,589.875 1042.3719,589.625 1042.1375,589.4531 C1041.9656,589.3281 1041.825,589.2969 1041.3719,589.2969 L1039.6531,589.2969 L1039.6531,582.7813 Z " fill="#000000"/><text fill="#000000" font-family="sans-serif" font-size="12" font-style="italic" lengthAdjust="spacingAndGlyphs" textLength="101" x="1055.3" y="590.1543">ControllersVisitor</text><line style="stroke:#A80036;stroke-width:1.5;" x1="1013" x2="1170" y1="602" y2="602"/><line style="stroke:#A80036;stroke-width:1.5;" x1="1013" x2="1170" y1="610" y2="610"/><polygon fill="#4177AF" points="1023,617,1019,623,1027,623" style="stroke:#1963A0;stroke-width:1.0;"/><text fill="#000000" font-family="sans-serif" font-size="11" lengthAdjust="spacingAndGlyphs" textLength="113" x="1032" y="624.2104">visit(StartController)</text><polygon fill="#4177AF" points="1023,629.8047,1019,635.8047,1027,635.8047" style="stroke:#1963A0;stroke-width:1.0;"/><text fill="#000000" font-family="sans-serif" font-size="11" lengthAdjust="spacingAndGlyphs" textLength="109" x="1032" y="637.0151">visit(PlayController)</text><polygon fill="#4177AF" points="1023,642.6094,1019,648.6094,1027,648.6094" style="stroke:#1963A0;stroke-width:1.0;"/><text fill="#000000" font-family="sans-serif" font-size="11" lengthAdjust="spacingAndGlyphs" textLength="133" x="1032" y="649.8198">visit(ResumeController)</text><!--MD5=[3b8962fd5847b9038b2e29740dae8054]
class tictactoe.controllers.Logic--><rect codeLine="27" fill="#FEFECE" filter="url(#f16906k8ccrr6b)" height="73.6094" id="tictactoe.controllers.Logic" style="stroke:#A80036;stroke-width:1.5;" width="170" x="1085.5" y="41"/><ellipse cx="1150.25" cy="57" fill="#ADD1B2" rx="11" ry="11" style="stroke:#A80036;stroke-width:1.0;"/><path d="M1152.5938,52.6719 C1151.6563,52.2344 1151.0625,52.0938 1150.1875,52.0938 C1147.5625,52.0938 1145.5625,54.1719 1145.5625,56.8906 L1145.5625,58.0156 C1145.5625,60.5938 1147.6719,62.4844 1150.5625,62.4844 C1151.7813,62.4844 1152.9375,62.1875 1153.6875,61.6406 C1154.2656,61.2344 1154.5938,60.7813 1154.5938,60.3906 C1154.5938,59.9375 1154.2031,59.5469 1153.7344,59.5469 C1153.5156,59.5469 1153.3125,59.625 1153.125,59.8125 C1152.6719,60.2969 1152.6719,60.2969 1152.4844,60.3906 C1152.0625,60.6563 1151.375,60.7813 1150.6094,60.7813 C1148.5625,60.7813 1147.2656,59.6875 1147.2656,57.9844 L1147.2656,56.8906 C1147.2656,55.1094 1148.5156,53.7969 1150.25,53.7969 C1150.8281,53.7969 1151.4375,53.9531 1151.9063,54.2031 C1152.3906,54.4844 1152.5625,54.7031 1152.6563,55.1094 C1152.7188,55.5156 1152.75,55.6406 1152.8906,55.7656 C1153.0313,55.9063 1153.2656,56.0156 1153.4844,56.0156 C1153.75,56.0156 1154.0156,55.875 1154.1875,55.6563 C1154.2969,55.5 1154.3281,55.3125 1154.3281,54.8906 L1154.3281,53.4688 C1154.3281,53.0313 1154.3125,52.9063 1154.2188,52.75 C1154.0625,52.4844 1153.7813,52.3438 1153.4844,52.3438 C1153.1875,52.3438 1152.9844,52.4375 1152.7656,52.75 L1152.5938,52.6719 Z " fill="#000000"/><text fill="#000000" font-family="sans-serif" font-size="12" lengthAdjust="spacingAndGlyphs" textLength="32" x="1170.75" y="61.1543">Logic</text><line style="stroke:#A80036;stroke-width:1.5;" x1="1086.5" x2="1254.5" y1="73" y2="73"/><line style="stroke:#A80036;stroke-width:1.5;" x1="1086.5" x2="1254.5" y1="81" y2="81"/><ellipse cx="1096.5" cy="92" fill="#84BE84" rx="3" ry="3" style="stroke:#038048;stroke-width:1.0;"/><text fill="#000000" font-family="sans-serif" font-size="11" lengthAdjust="spacingAndGlyphs" textLength="37" x="1105.5" y="95.2104">Logic()</text><ellipse cx="1096.5" cy="104.8047" fill="#84BE84" rx="3" ry="3" style="stroke:#038048;stroke-width:1.0;"/><text fill="#000000" font-family="sans-serif" font-size="11" lengthAdjust="spacingAndGlyphs" textLength="144" x="1105.5" y="108.0151">getController(): Controller</text><!--MD5=[b574e60c06c50037ff1b014277a67d62]
class tictactoe.controllers.PlayController--><rect codeLine="37" fill="#FEFECE" filter="url(#f16906k8ccrr6b)" height="176.0469" id="tictactoe.controllers.PlayController" style="stroke:#A80036;stroke-width:1.5;" width="230" x="669.5" y="334"/><ellipse cx="739.25" cy="350" fill="#ADD1B2" rx="11" ry="11" style="stroke:#A80036;stroke-width:1.0;"/><path d="M741.5938,345.6719 C740.6563,345.2344 740.0625,345.0938 739.1875,345.0938 C736.5625,345.0938 734.5625,347.1719 734.5625,349.8906 L734.5625,351.0156 C734.5625,353.5938 736.6719,355.4844 739.5625,355.4844 C740.7813,355.4844 741.9375,355.1875 742.6875,354.6406 C743.2656,354.2344 743.5938,353.7813 743.5938,353.3906 C743.5938,352.9375 743.2031,352.5469 742.7344,352.5469 C742.5156,352.5469 742.3125,352.625 742.125,352.8125 C741.6719,353.2969 741.6719,353.2969 741.4844,353.3906 C741.0625,353.6563 740.375,353.7813 739.6094,353.7813 C737.5625,353.7813 736.2656,352.6875 736.2656,350.9844 L736.2656,349.8906 C736.2656,348.1094 737.5156,346.7969 739.25,346.7969 C739.8281,346.7969 740.4375,346.9531 740.9063,347.2031 C741.3906,347.4844 741.5625,347.7031 741.6563,348.1094 C741.7188,348.5156 741.75,348.6406 741.8906,348.7656 C742.0313,348.9063 742.2656,349.0156 742.4844,349.0156 C742.75,349.0156 743.0156,348.875 743.1875,348.6563 C743.2969,348.5 743.3281,348.3125 743.3281,347.8906 L743.3281,346.4688 C743.3281,346.0313 743.3125,345.9063 743.2188,345.75 C743.0625,345.4844 742.7813,345.3438 742.4844,345.3438 C742.1875,345.3438 741.9844,345.4375 741.7656,345.75 L741.5938,345.6719 Z " fill="#000000"/><text fill="#000000" font-family="sans-serif" font-size="12" lengthAdjust="spacingAndGlyphs" textLength="82" x="759.75" y="354.1543">PlayController</text><line style="stroke:#A80036;stroke-width:1.5;" x1="670.5" x2="898.5" y1="366" y2="366"/><line style="stroke:#A80036;stroke-width:1.5;" x1="670.5" x2="898.5" y1="374" y2="374"/><ellipse cx="680.5" cy="385" fill="#84BE84" rx="3" ry="3" style="stroke:#038048;stroke-width:1.0;"/><text fill="#000000" font-family="sans-serif" font-size="11" lengthAdjust="spacingAndGlyphs" textLength="155" x="689.5" y="388.2104">PlayController(Game,State)</text><ellipse cx="680.5" cy="397.8047" fill="#84BE84" rx="3" ry="3" style="stroke:#038048;stroke-width:1.0;"/><text fill="#000000" font-family="sans-serif" font-size="11" lengthAdjust="spacingAndGlyphs" textLength="159" x="689.5" y="401.0151">isBoardComplete(): boolean</text><ellipse cx="680.5" cy="410.6094" fill="#84BE84" rx="3" ry="3" style="stroke:#038048;stroke-width:1.0;"/><text fill="#000000" font-family="sans-serif" font-size="11" lengthAdjust="spacingAndGlyphs" textLength="128" x="689.5" y="413.8198">isTicTacToe(): boolean</text><ellipse cx="680.5" cy="423.4141" fill="#84BE84" rx="3" ry="3" style="stroke:#038048;stroke-width:1.0;"/><text fill="#000000" font-family="sans-serif" font-size="11" lengthAdjust="spacingAndGlyphs" textLength="104" x="689.5" y="426.6245">getToken(): Token</text><ellipse cx="680.5" cy="436.2188" fill="#84BE84" rx="3" ry="3" style="stroke:#038048;stroke-width:1.0;"/><text fill="#000000" font-family="sans-serif" font-size="11" lengthAdjust="spacingAndGlyphs" textLength="96" x="689.5" y="439.4292">isUser(): boolean</text><ellipse cx="680.5" cy="449.0234" fill="#84BE84" rx="3" ry="3" style="stroke:#038048;stroke-width:1.0;"/><text fill="#000000" font-family="sans-serif" font-size="11" lengthAdjust="spacingAndGlyphs" textLength="202" x="689.5" y="452.2339">isValidCoordinate(Coordinate): Error</text><ellipse cx="680.5" cy="461.8281" fill="#84BE84" rx="3" ry="3" style="stroke:#038048;stroke-width:1.0;"/><text fill="#000000" font-family="sans-serif" font-size="11" lengthAdjust="spacingAndGlyphs" textLength="204" x="689.5" y="465.0386">getRandomCoordinate(): Coordinate</text><ellipse cx="680.5" cy="474.6328" fill="#84BE84" rx="3" ry="3" style="stroke:#038048;stroke-width:1.0;"/><text fill="#000000" font-family="sans-serif" font-size="11" lengthAdjust="spacingAndGlyphs" textLength="121" x="689.5" y="477.8433">put(Coordinate): Error</text><ellipse cx="680.5" cy="487.4375" fill="#84BE84" rx="3" ry="3" style="stroke:#038048;stroke-width:1.0;"/><text fill="#000000" font-family="sans-serif" font-size="11" lengthAdjust="spacingAndGlyphs" textLength="201" x="689.5" y="490.6479">move(Coordinate,Coordinate): Error</text><ellipse cx="680.5" cy="500.2422" fill="#84BE84" rx="3" ry="3" style="stroke:#038048;stroke-width:1.0;"/><text fill="#000000" font-family="sans-serif" font-size="11" lengthAdjust="spacingAndGlyphs" textLength="142" x="689.5" y="503.4526">accept(ControllersVisitor)</text><!--MD5=[d75e1ad11e6a17be2ba08b218e20e3d7]
class tictactoe.controllers.ResumeController--><rect codeLine="58" fill="#FEFECE" filter="url(#f16906k8ccrr6b)" height="86.4141" id="tictactoe.controllers.ResumeController" style="stroke:#A80036;stroke-width:1.5;" width="205" x="1193" y="379"/><ellipse cx="1237.75" cy="395" fill="#ADD1B2" rx="11" ry="11" style="stroke:#A80036;stroke-width:1.0;"/><path d="M1240.0938,390.6719 C1239.1563,390.2344 1238.5625,390.0938 1237.6875,390.0938 C1235.0625,390.0938 1233.0625,392.1719 1233.0625,394.8906 L1233.0625,396.0156 C1233.0625,398.5938 1235.1719,400.4844 1238.0625,400.4844 C1239.2813,400.4844 1240.4375,400.1875 1241.1875,399.6406 C1241.7656,399.2344 1242.0938,398.7813 1242.0938,398.3906 C1242.0938,397.9375 1241.7031,397.5469 1241.2344,397.5469 C1241.0156,397.5469 1240.8125,397.625 1240.625,397.8125 C1240.1719,398.2969 1240.1719,398.2969 1239.9844,398.3906 C1239.5625,398.6563 1238.875,398.7813 1238.1094,398.7813 C1236.0625,398.7813 1234.7656,397.6875 1234.7656,395.9844 L1234.7656,394.8906 C1234.7656,393.1094 1236.0156,391.7969 1237.75,391.7969 C1238.3281,391.7969 1238.9375,391.9531 1239.4063,392.2031 C1239.8906,392.4844 1240.0625,392.7031 1240.1563,393.1094 C1240.2188,393.5156 1240.25,393.6406 1240.3906,393.7656 C1240.5313,393.9063 1240.7656,394.0156 1240.9844,394.0156 C1241.25,394.0156 1241.5156,393.875 1241.6875,393.6563 C1241.7969,393.5 1241.8281,393.3125 1241.8281,392.8906 L1241.8281,391.4688 C1241.8281,391.0313 1241.8125,390.9063 1241.7188,390.75 C1241.5625,390.4844 1241.2813,390.3438 1240.9844,390.3438 C1240.6875,390.3438 1240.4844,390.4375 1240.2656,390.75 L1240.0938,390.6719 Z " fill="#000000"/><text fill="#000000" font-family="sans-serif" font-size="12" lengthAdjust="spacingAndGlyphs" textLength="107" x="1258.25" y="399.1543">ResumeController</text><line style="stroke:#A80036;stroke-width:1.5;" x1="1194" x2="1397" y1="411" y2="411"/><line style="stroke:#A80036;stroke-width:1.5;" x1="1194" x2="1397" y1="419" y2="419"/><ellipse cx="1204" cy="430" fill="#84BE84" rx="3" ry="3" style="stroke:#038048;stroke-width:1.0;"/><text fill="#000000" font-family="sans-serif" font-size="11" lengthAdjust="spacingAndGlyphs" textLength="179" x="1213" y="433.2104">ResumeController(Game,State)</text><ellipse cx="1204" cy="442.8047" fill="#84BE84" rx="3" ry="3" style="stroke:#038048;stroke-width:1.0;"/><text fill="#000000" font-family="sans-serif" font-size="11" lengthAdjust="spacingAndGlyphs" textLength="52" x="1213" y="446.0151">resume()</text><ellipse cx="1204" cy="455.6094" fill="#84BE84" rx="3" ry="3" style="stroke:#038048;stroke-width:1.0;"/><text fill="#000000" font-family="sans-serif" font-size="11" lengthAdjust="spacingAndGlyphs" textLength="142" x="1213" y="458.8198">accept(ControllersVisitor)</text><!--MD5=[8ede4dbfb3b498095887802b64b699f0]
class tictactoe.controllers.StartController--><rect codeLine="68" fill="#FEFECE" filter="url(#f16906k8ccrr6b)" height="99.2188" id="tictactoe.controllers.StartController" style="stroke:#A80036;stroke-width:1.5;" width="185" x="935" y="372.5"/><ellipse cx="979.75" cy="388.5" fill="#ADD1B2" rx="11" ry="11" style="stroke:#A80036;stroke-width:1.0;"/><path d="M982.0938,384.1719 C981.1563,383.7344 980.5625,383.5938 979.6875,383.5938 C977.0625,383.5938 975.0625,385.6719 975.0625,388.3906 L975.0625,389.5156 C975.0625,392.0938 977.1719,393.9844 980.0625,393.9844 C981.2813,393.9844 982.4375,393.6875 983.1875,393.1406 C983.7656,392.7344 984.0938,392.2813 984.0938,391.8906 C984.0938,391.4375 983.7031,391.0469 983.2344,391.0469 C983.0156,391.0469 982.8125,391.125 982.625,391.3125 C982.1719,391.7969 982.1719,391.7969 981.9844,391.8906 C981.5625,392.1563 980.875,392.2813 980.1094,392.2813 C978.0625,392.2813 976.7656,391.1875 976.7656,389.4844 L976.7656,388.3906 C976.7656,386.6094 978.0156,385.2969 979.75,385.2969 C980.3281,385.2969 980.9375,385.4531 981.4063,385.7031 C981.8906,385.9844 982.0625,386.2031 982.1563,386.6094 C982.2188,387.0156 982.25,387.1406 982.3906,387.2656 C982.5313,387.4063 982.7656,387.5156 982.9844,387.5156 C983.25,387.5156 983.5156,387.375 983.6875,387.1563 C983.7969,387 983.8281,386.8125 983.8281,386.3906 L983.8281,384.9688 C983.8281,384.5313 983.8125,384.4063 983.7188,384.25 C983.5625,383.9844 983.2813,383.8438 982.9844,383.8438 C982.6875,383.8438 982.4844,383.9375 982.2656,384.25 L982.0938,384.1719 Z " fill="#000000"/><text fill="#000000" font-family="sans-serif" font-size="12" lengthAdjust="spacingAndGlyphs" textLength="87" x="1000.25" y="392.6543">StartController</text><line style="stroke:#A80036;stroke-width:1.5;" x1="936" x2="1119" y1="404.5" y2="404.5"/><line style="stroke:#A80036;stroke-width:1.5;" x1="936" x2="1119" y1="412.5" y2="412.5"/><ellipse cx="946" cy="423.5" fill="#84BE84" rx="3" ry="3" style="stroke:#038048;stroke-width:1.0;"/><text fill="#000000" font-family="sans-serif" font-size="11" lengthAdjust="spacingAndGlyphs" textLength="159" x="955" y="426.7104">StartController(Game,State)</text><ellipse cx="946" cy="436.3047" fill="#84BE84" rx="3" ry="3" style="stroke:#038048;stroke-width:1.0;"/><text fill="#000000" font-family="sans-serif" font-size="11" lengthAdjust="spacingAndGlyphs" textLength="72" x="955" y="439.5151">setUsers(int)</text><ellipse cx="946" cy="449.1094" fill="#84BE84" rx="3" ry="3" style="stroke:#038048;stroke-width:1.0;"/><text fill="#000000" font-family="sans-serif" font-size="11" lengthAdjust="spacingAndGlyphs" textLength="112" x="955" y="452.3198">getMaxPlayers(): int</text><ellipse cx="946" cy="461.9141" fill="#84BE84" rx="3" ry="3" style="stroke:#038048;stroke-width:1.0;"/><text fill="#000000" font-family="sans-serif" font-size="11" lengthAdjust="spacingAndGlyphs" textLength="142" x="955" y="465.1245">accept(ControllersVisitor)</text><!--MD5=[b6dcce5e5ef3c84b0b048d11301373dd]
class Game--><rect codeLine="1" fill="#FEFECE" filter="url(#f16906k8ccrr6b)" height="53.9375" id="Game" style="stroke:#A80036;stroke-width:1.5;" width="135" x="337" y="586"/><ellipse cx="352" cy="604.9688" fill="#ADD1B2" rx="11" ry="11" style="stroke:#A80036;stroke-width:1.0;"/><path d="M354.3438,600.6406 C353.4063,600.2031 352.8125,600.0625 351.9375,600.0625 C349.3125,600.0625 347.3125,602.1406 347.3125,604.8594 L347.3125,605.9844 C347.3125,608.5625 349.4219,610.4531 352.3125,610.4531 C353.5313,610.4531 354.6875,610.1563 355.4375,609.6094 C356.0156,609.2031 356.3438,608.75 356.3438,608.3594 C356.3438,607.9063 355.9531,607.5156 355.4844,607.5156 C355.2656,607.5156 355.0625,607.5938 354.875,607.7813 C354.4219,608.2656 354.4219,608.2656 354.2344,608.3594 C353.8125,608.625 353.125,608.75 352.3594,608.75 C350.3125,608.75 349.0156,607.6563 349.0156,605.9531 L349.0156,604.8594 C349.0156,603.0781 350.2656,601.7656 352,601.7656 C352.5781,601.7656 353.1875,601.9219 353.6563,602.1719 C354.1406,602.4531 354.3125,602.6719 354.4063,603.0781 C354.4688,603.4844 354.5,603.6094 354.6406,603.7344 C354.7813,603.875 355.0156,603.9844 355.2344,603.9844 C355.5,603.9844 355.7656,603.8438 355.9375,603.625 C356.0469,603.4688 356.0781,603.2813 356.0781,602.8594 L356.0781,601.4375 C356.0781,601 356.0625,600.875 355.9688,600.7188 C355.8125,600.4531 355.5313,600.3125 355.2344,600.3125 C354.9375,600.3125 354.7344,600.4063 354.5156,600.7188 L354.3438,600.6406 Z " fill="#000000"/><text fill="#000000" font-family="sans-serif" font-size="12" lengthAdjust="spacingAndGlyphs" textLength="103" x="366" y="602.1387">tictactoe.models.</text><text fill="#000000" font-family="sans-serif" font-size="12" lengthAdjust="spacingAndGlyphs" textLength="35" x="400" y="616.1074">Game</text><line style="stroke:#A80036;stroke-width:1.5;" x1="338" x2="471" y1="623.9375" y2="623.9375"/><line style="stroke:#A80036;stroke-width:1.5;" x1="338" x2="471" y1="631.9375" y2="631.9375"/><!--MD5=[8c7d7abc12e214c3cc12c9ab70edee11]
class Coordinate--><rect codeLine="2" fill="#FEFECE" filter="url(#f16906k8ccrr6b)" height="53.9375" id="Coordinate" style="stroke:#A80036;stroke-width:1.5;" width="135" x="7" y="586"/><ellipse cx="22" cy="604.9688" fill="#ADD1B2" rx="11" ry="11" style="stroke:#A80036;stroke-width:1.0;"/><path d="M24.3438,600.6406 C23.4063,600.2031 22.8125,600.0625 21.9375,600.0625 C19.3125,600.0625 17.3125,602.1406 17.3125,604.8594 L17.3125,605.9844 C17.3125,608.5625 19.4219,610.4531 22.3125,610.4531 C23.5313,610.4531 24.6875,610.1563 25.4375,609.6094 C26.0156,609.2031 26.3438,608.75 26.3438,608.3594 C26.3438,607.9063 25.9531,607.5156 25.4844,607.5156 C25.2656,607.5156 25.0625,607.5938 24.875,607.7813 C24.4219,608.2656 24.4219,608.2656 24.2344,608.3594 C23.8125,608.625 23.125,608.75 22.3594,608.75 C20.3125,608.75 19.0156,607.6563 19.0156,605.9531 L19.0156,604.8594 C19.0156,603.0781 20.2656,601.7656 22,601.7656 C22.5781,601.7656 23.1875,601.9219 23.6563,602.1719 C24.1406,602.4531 24.3125,602.6719 24.4063,603.0781 C24.4688,603.4844 24.5,603.6094 24.6406,603.7344 C24.7813,603.875 25.0156,603.9844 25.2344,603.9844 C25.5,603.9844 25.7656,603.8438 25.9375,603.625 C26.0469,603.4688 26.0781,603.2813 26.0781,602.8594 L26.0781,601.4375 C26.0781,601 26.0625,600.875 25.9688,600.7188 C25.8125,600.4531 25.5313,600.3125 25.2344,600.3125 C24.9375,600.3125 24.7344,600.4063 24.5156,600.7188 L24.3438,600.6406 Z " fill="#000000"/><text fill="#000000" font-family="sans-serif" font-size="12" lengthAdjust="spacingAndGlyphs" textLength="103" x="36" y="602.1387">tictactoe.models.</text><text fill="#000000" font-family="sans-serif" font-size="12" lengthAdjust="spacingAndGlyphs" textLength="66" x="54.5" y="616.1074">Coordinate</text><line style="stroke:#A80036;stroke-width:1.5;" x1="8" x2="141" y1="623.9375" y2="623.9375"/><line style="stroke:#A80036;stroke-width:1.5;" x1="8" x2="141" y1="631.9375" y2="631.9375"/><!--MD5=[b8cfd8c4119a3b0a7a46bfc5fc780f85]
class Error--><rect codeLine="3" fill="#FEFECE" filter="url(#f16906k8ccrr6b)" height="53.9375" id="Error" style="stroke:#A80036;stroke-width:1.5;" width="124" x="1430.5" y="586"/><ellipse cx="1445.5" cy="604.9688" fill="#ADD1B2" rx="11" ry="11" style="stroke:#A80036;stroke-width:1.0;"/><path d="M1447.8438,600.6406 C1446.9063,600.2031 1446.3125,600.0625 1445.4375,600.0625 C1442.8125,600.0625 1440.8125,602.1406 1440.8125,604.8594 L1440.8125,605.9844 C1440.8125,608.5625 1442.9219,610.4531 1445.8125,610.4531 C1447.0313,610.4531 1448.1875,610.1563 1448.9375,609.6094 C1449.5156,609.2031 1449.8438,608.75 1449.8438,608.3594 C1449.8438,607.9063 1449.4531,607.5156 1448.9844,607.5156 C1448.7656,607.5156 1448.5625,607.5938 1448.375,607.7813 C1447.9219,608.2656 1447.9219,608.2656 1447.7344,608.3594 C1447.3125,608.625 1446.625,608.75 1445.8594,608.75 C1443.8125,608.75 1442.5156,607.6563 1442.5156,605.9531 L1442.5156,604.8594 C1442.5156,603.0781 1443.7656,601.7656 1445.5,601.7656 C1446.0781,601.7656 1446.6875,601.9219 1447.1563,602.1719 C1447.6406,602.4531 1447.8125,602.6719 1447.9063,603.0781 C1447.9688,603.4844 1448,603.6094 1448.1406,603.7344 C1448.2813,603.875 1448.5156,603.9844 1448.7344,603.9844 C1449,603.9844 1449.2656,603.8438 1449.4375,603.625 C1449.5469,603.4688 1449.5781,603.2813 1449.5781,602.8594 L1449.5781,601.4375 C1449.5781,601 1449.5625,600.875 1449.4688,600.7188 C1449.3125,600.4531 1449.0313,600.3125 1448.7344,600.3125 C1448.4375,600.3125 1448.2344,600.4063 1448.0156,600.7188 L1447.8438,600.6406 Z " fill="#000000"/><text fill="#000000" font-family="sans-serif" font-size="12" lengthAdjust="spacingAndGlyphs" textLength="92" x="1459.5" y="602.1387">tictactoe.types.</text><text fill="#000000" font-family="sans-serif" font-size="12" lengthAdjust="spacingAndGlyphs" textLength="30" x="1490.5" y="616.1074">Error</text><line style="stroke:#A80036;stroke-width:1.5;" x1="1431.5" x2="1553.5" y1="623.9375" y2="623.9375"/><line style="stroke:#A80036;stroke-width:1.5;" x1="1431.5" x2="1553.5" y1="631.9375" y2="631.9375"/><!--MD5=[d8c8cfd5ca149094f5b67f9f607a5ec7]
class Token--><rect codeLine="4" fill="#FEFECE" filter="url(#f16906k8ccrr6b)" height="53.9375" id="Token" style="stroke:#A80036;stroke-width:1.5;" width="124" x="177.5" y="586"/><ellipse cx="192.5" cy="604.9688" fill="#ADD1B2" rx="11" ry="11" style="stroke:#A80036;stroke-width:1.0;"/><path d="M194.8438,600.6406 C193.9063,600.2031 193.3125,600.0625 192.4375,600.0625 C189.8125,600.0625 187.8125,602.1406 187.8125,604.8594 L187.8125,605.9844 C187.8125,608.5625 189.9219,610.4531 192.8125,610.4531 C194.0313,610.4531 195.1875,610.1563 195.9375,609.6094 C196.5156,609.2031 196.8438,608.75 196.8438,608.3594 C196.8438,607.9063 196.4531,607.5156 195.9844,607.5156 C195.7656,607.5156 195.5625,607.5938 195.375,607.7813 C194.9219,608.2656 194.9219,608.2656 194.7344,608.3594 C194.3125,608.625 193.625,608.75 192.8594,608.75 C190.8125,608.75 189.5156,607.6563 189.5156,605.9531 L189.5156,604.8594 C189.5156,603.0781 190.7656,601.7656 192.5,601.7656 C193.0781,601.7656 193.6875,601.9219 194.1563,602.1719 C194.6406,602.4531 194.8125,602.6719 194.9063,603.0781 C194.9688,603.4844 195,603.6094 195.1406,603.7344 C195.2813,603.875 195.5156,603.9844 195.7344,603.9844 C196,603.9844 196.2656,603.8438 196.4375,603.625 C196.5469,603.4688 196.5781,603.2813 196.5781,602.8594 L196.5781,601.4375 C196.5781,601 196.5625,600.875 196.4688,600.7188 C196.3125,600.4531 196.0313,600.3125 195.7344,600.3125 C195.4375,600.3125 195.2344,600.4063 195.0156,600.7188 L194.8438,600.6406 Z " fill="#000000"/><text fill="#000000" font-family="sans-serif" font-size="12" lengthAdjust="spacingAndGlyphs" textLength="92" x="206.5" y="602.1387">tictactoe.types.</text><text fill="#000000" font-family="sans-serif" font-size="12" lengthAdjust="spacingAndGlyphs" textLength="37" x="234" y="616.1074">Token</text><line style="stroke:#A80036;stroke-width:1.5;" x1="178.5" x2="300.5" y1="623.9375" y2="623.9375"/><line style="stroke:#A80036;stroke-width:1.5;" x1="178.5" x2="300.5" y1="631.9375" y2="631.9375"/><!--MD5=[60d6b92408f98aed8df94d5c6e04aa63]
class State--><rect codeLine="5" fill="#FEFECE" filter="url(#f16906k8ccrr6b)" height="53.9375" id="State" style="stroke:#A80036;stroke-width:1.5;" width="135" x="1590" y="586"/><ellipse cx="1605" cy="604.9688" fill="#ADD1B2" rx="11" ry="11" style="stroke:#A80036;stroke-width:1.0;"/><path d="M1607.3438,600.6406 C1606.4063,600.2031 1605.8125,600.0625 1604.9375,600.0625 C1602.3125,600.0625 1600.3125,602.1406 1600.3125,604.8594 L1600.3125,605.9844 C1600.3125,608.5625 1602.4219,610.4531 1605.3125,610.4531 C1606.5313,610.4531 1607.6875,610.1563 1608.4375,609.6094 C1609.0156,609.2031 1609.3438,608.75 1609.3438,608.3594 C1609.3438,607.9063 1608.9531,607.5156 1608.4844,607.5156 C1608.2656,607.5156 1608.0625,607.5938 1607.875,607.7813 C1607.4219,608.2656 1607.4219,608.2656 1607.2344,608.3594 C1606.8125,608.625 1606.125,608.75 1605.3594,608.75 C1603.3125,608.75 1602.0156,607.6563 1602.0156,605.9531 L1602.0156,604.8594 C1602.0156,603.0781 1603.2656,601.7656 1605,601.7656 C1605.5781,601.7656 1606.1875,601.9219 1606.6563,602.1719 C1607.1406,602.4531 1607.3125,602.6719 1607.4063,603.0781 C1607.4688,603.4844 1607.5,603.6094 1607.6406,603.7344 C1607.7813,603.875 1608.0156,603.9844 1608.2344,603.9844 C1608.5,603.9844 1608.7656,603.8438 1608.9375,603.625 C1609.0469,603.4688 1609.0781,603.2813 1609.0781,602.8594 L1609.0781,601.4375 C1609.0781,601 1609.0625,600.875 1608.9688,600.7188 C1608.8125,600.4531 1608.5313,600.3125 1608.2344,600.3125 C1607.9375,600.3125 1607.7344,600.4063 1607.5156,600.7188 L1607.3438,600.6406 Z " fill="#000000"/><text fill="#000000" font-family="sans-serif" font-size="12" lengthAdjust="spacingAndGlyphs" textLength="103" x="1619" y="602.1387">tictactoe.models.</text><text fill="#000000" font-family="sans-serif" font-size="12" lengthAdjust="spacingAndGlyphs" textLength="31" x="1655" y="616.1074">State</text><line style="stroke:#A80036;stroke-width:1.5;" x1="1591" x2="1724" y1="623.9375" y2="623.9375"/><line style="stroke:#A80036;stroke-width:1.5;" x1="1591" x2="1724" y1="631.9375" y2="631.9375"/><!--MD5=[167506e288131cdf3986fedef83acd94]
class StateValue--><rect codeLine="6" fill="#FEFECE" filter="url(#f16906k8ccrr6b)" height="53.9375" id="StateValue" style="stroke:#A80036;stroke-width:1.5;" width="135" x="1576" y="197.5"/><ellipse cx="1591" cy="216.4688" fill="#ADD1B2" rx="11" ry="11" style="stroke:#A80036;stroke-width:1.0;"/><path d="M1593.3438,212.1406 C1592.4063,211.7031 1591.8125,211.5625 1590.9375,211.5625 C1588.3125,211.5625 1586.3125,213.6406 1586.3125,216.3594 L1586.3125,217.4844 C1586.3125,220.0625 1588.4219,221.9531 1591.3125,221.9531 C1592.5313,221.9531 1593.6875,221.6563 1594.4375,221.1094 C1595.0156,220.7031 1595.3438,220.25 1595.3438,219.8594 C1595.3438,219.4063 1594.9531,219.0156 1594.4844,219.0156 C1594.2656,219.0156 1594.0625,219.0938 1593.875,219.2813 C1593.4219,219.7656 1593.4219,219.7656 1593.2344,219.8594 C1592.8125,220.125 1592.125,220.25 1591.3594,220.25 C1589.3125,220.25 1588.0156,219.1563 1588.0156,217.4531 L1588.0156,216.3594 C1588.0156,214.5781 1589.2656,213.2656 1591,213.2656 C1591.5781,213.2656 1592.1875,213.4219 1592.6563,213.6719 C1593.1406,213.9531 1593.3125,214.1719 1593.4063,214.5781 C1593.4688,214.9844 1593.5,215.1094 1593.6406,215.2344 C1593.7813,215.375 1594.0156,215.4844 1594.2344,215.4844 C1594.5,215.4844 1594.7656,215.3438 1594.9375,215.125 C1595.0469,214.9688 1595.0781,214.7813 1595.0781,214.3594 L1595.0781,212.9375 C1595.0781,212.5 1595.0625,212.375 1594.9688,212.2188 C1594.8125,211.9531 1594.5313,211.8125 1594.2344,211.8125 C1593.9375,211.8125 1593.7344,211.9063 1593.5156,212.2188 L1593.3438,212.1406 Z " fill="#000000"/><text fill="#000000" font-family="sans-serif" font-size="12" lengthAdjust="spacingAndGlyphs" textLength="103" x="1605" y="213.6387">tictactoe.models.</text><text fill="#000000" font-family="sans-serif" font-size="12" lengthAdjust="spacingAndGlyphs" textLength="64" x="1624.5" y="227.6074">StateValue</text><line style="stroke:#A80036;stroke-width:1.5;" x1="1577" x2="1710" y1="235.4375" y2="235.4375"/><line style="stroke:#A80036;stroke-width:1.5;" x1="1577" x2="1710" y1="243.4375" y2="243.4375"/><!--MD5=[f0e50675208408ddbf1ed7a91f4eb071]
class ClosedInterval--><rect codeLine="7" fill="#FEFECE" filter="url(#f16906k8ccrr6b)" height="53.9375" id="ClosedInterval" style="stroke:#A80036;stroke-width:1.5;" width="130" x="507.5" y="586"/><ellipse cx="522.5" cy="604.9688" fill="#ADD1B2" rx="11" ry="11" style="stroke:#A80036;stroke-width:1.0;"/><path d="M524.8438,600.6406 C523.9063,600.2031 523.3125,600.0625 522.4375,600.0625 C519.8125,600.0625 517.8125,602.1406 517.8125,604.8594 L517.8125,605.9844 C517.8125,608.5625 519.9219,610.4531 522.8125,610.4531 C524.0313,610.4531 525.1875,610.1563 525.9375,609.6094 C526.5156,609.2031 526.8438,608.75 526.8438,608.3594 C526.8438,607.9063 526.4531,607.5156 525.9844,607.5156 C525.7656,607.5156 525.5625,607.5938 525.375,607.7813 C524.9219,608.2656 524.9219,608.2656 524.7344,608.3594 C524.3125,608.625 523.625,608.75 522.8594,608.75 C520.8125,608.75 519.5156,607.6563 519.5156,605.9531 L519.5156,604.8594 C519.5156,603.0781 520.7656,601.7656 522.5,601.7656 C523.0781,601.7656 523.6875,601.9219 524.1563,602.1719 C524.6406,602.4531 524.8125,602.6719 524.9063,603.0781 C524.9688,603.4844 525,603.6094 525.1406,603.7344 C525.2813,603.875 525.5156,603.9844 525.7344,603.9844 C526,603.9844 526.2656,603.8438 526.4375,603.625 C526.5469,603.4688 526.5781,603.2813 526.5781,602.8594 L526.5781,601.4375 C526.5781,601 526.5625,600.875 526.4688,600.7188 C526.3125,600.4531 526.0313,600.3125 525.7344,600.3125 C525.4375,600.3125 525.2344,600.4063 525.0156,600.7188 L524.8438,600.6406 Z " fill="#000000"/><text fill="#000000" font-family="sans-serif" font-size="12" lengthAdjust="spacingAndGlyphs" textLength="98" x="536.5" y="602.1387">usantatecla.utils.</text><text fill="#000000" font-family="sans-serif" font-size="12" lengthAdjust="spacingAndGlyphs" textLength="86" x="542.5" y="616.1074">ClosedInterval</text><line style="stroke:#A80036;stroke-width:1.5;" x1="508.5" x2="636.5" y1="623.9375" y2="623.9375"/><line style="stroke:#A80036;stroke-width:1.5;" x1="508.5" x2="636.5" y1="631.9375" y2="631.9375"/><!--MD5=[6068204d1fdba78d641ceb3415898910]
link tictactoe.controllers.Controller to Game--><path codeLine="15" d="M919.2211,235.4114 C919.2211,235.4114 728.708,274.717 651.5,334 C579.074,389.611 607.295,442.772 545.5,510 C520.971,536.686 488.466,560.761 460.848,578.812 " fill="none" id="tictactoe.controllers.Controller-Game" style="stroke:#A80036;stroke-width:1.0;"/><polygon fill="#A80036" points="449.744,585.921,459.4804,584.4368,453.9548,583.2249,455.1667,577.6994,449.744,585.921" style="stroke:#A80036;stroke-width:1.0;"/><line style="stroke:#A80036;stroke-width:1.0;" x1="453.9548" x2="460.6925" y1="583.2249" y2="578.911"/><polygon fill="#A80036" points="931.098,233.697,924.5881,230.5952,919.2211,235.4114,925.731,238.5132,931.098,233.697" style="stroke:#A80036;stroke-width:1.0;"/><!--MD5=[dfe8d9a445fb1aefc03baf228bcfa309]
link tictactoe.controllers.Controller to State--><path codeLine="16" d="M1135.6773,231.4377 C1135.6773,231.4377 1337.49,267.482 1415.5,334 C1481.02,389.872 1439.81,445.189 1496.5,510 C1511.87,527.567 1559.19,556.748 1598.58,579.408 " fill="none" id="tictactoe.controllers.Controller-State" style="stroke:#A80036;stroke-width:1.0;"/><polygon fill="#A80036" points="1609.98,585.91,1604.1454,577.9754,1605.6372,583.432,1600.1806,584.9239,1609.98,585.91" style="stroke:#A80036;stroke-width:1.0;"/><line style="stroke:#A80036;stroke-width:1.0;" x1="1605.6372" x2="1598.685" y1="583.432" y2="579.467"/><polygon fill="#A80036" points="1123.75,230.119,1129.2741,234.7541,1135.6773,231.4377,1130.1532,226.8026,1123.75,230.119" style="stroke:#A80036;stroke-width:1.0;"/><!--MD5=[342bd2846cb7233760b6e78f5d6e228f]
link tictactoe.controllers.Controller to Coordinate--><path codeLine="17" d="M931.367,232.246 C763.705,245.325 425.814,277.889 322.5,334 C212.268,393.868 126.717,522.586 91.7196,581.47 " fill="none" id="tictactoe.controllers.Controller-to-Coordinate" style="stroke:#A80036;stroke-width:1.0;stroke-dasharray:7.0,7.0;"/><polygon fill="#A80036" points="89.0877,585.927,97.1072,580.2097,91.6293,581.6212,90.2179,576.1432,89.0877,585.927" style="stroke:#A80036;stroke-width:1.0;"/><!--MD5=[46f9f2e2fca1b0ad7cf51ac0d9d0f196]
link tictactoe.controllers.Controller to Token--><path codeLine="18" d="M931.123,232.199 C829.257,242.566 666.372,268.697 541.5,334 C419.396,397.855 309.456,523.847 262.964,581.681 " fill="none" id="tictactoe.controllers.Controller-to-Token" style="stroke:#A80036;stroke-width:1.0;stroke-dasharray:7.0,7.0;"/><polygon fill="#A80036" points="259.727,585.726,268.4733,581.1981,262.851,581.8221,262.2271,576.1997,259.727,585.726" style="stroke:#A80036;stroke-width:1.0;"/><!--MD5=[4127cc8c86163a8135ac1ffbe5841b27]
link tictactoe.controllers.Controller to tictactoe.controllers.ControllersVisitor--><path codeLine="19" d="M1093.37,274.002 C1111.09,290.817 1127.98,311.233 1137.5,334 C1167.68,406.165 1153.95,433.526 1137.5,510 C1133.47,528.748 1125.71,548.205 1117.69,565.035 " fill="none" id="tictactoe.controllers.Controller-to-tictactoe.controllers.ControllersVisitor" style="stroke:#A80036;stroke-width:1.0;stroke-dasharray:7.0,7.0;"/><polygon fill="#A80036" points="1115.42,569.71,1122.9453,563.3562,1117.6011,565.2108,1115.7465,559.8666,1115.42,569.71" style="stroke:#A80036;stroke-width:1.0;"/><!--MD5=[44e666a769b5edea767f63d227a49329]
link tictactoe.controllers.Logic to Game--><path codeLine="32" d="M1073.5389,94.8246 C1073.5389,94.8246 690.031,188.353 537.5,334 C466.958,401.358 429.439,513.757 413.683,572.892 " fill="none" id="tictactoe.controllers.Logic-Game" style="stroke:#A80036;stroke-width:1.0;"/><polygon fill="#A80036" points="410.392,585.695,416.5072,577.9746,411.6371,580.8525,408.7592,575.9824,410.392,585.695" style="stroke:#A80036;stroke-width:1.0;"/><line style="stroke:#A80036;stroke-width:1.0;" x1="411.6371" x2="413.6285" y1="580.8525" y2="573.104"/><polygon fill="#A80036" points="1085.32,92.543,1078.6689,89.7568,1073.5389,94.8246,1080.19,97.6108,1085.32,92.543" style="stroke:#A80036;stroke-width:1.0;"/><!--MD5=[b570711734804a279ee943a47a4c4fab]
link tictactoe.controllers.Logic to State--><path codeLine="33" d="M1234.4979,121.8781 C1234.4979,121.8781 1407.46,249.085 1482.5,334 C1550.79,411.277 1609.92,518.086 1638.76,574.152 " fill="none" id="tictactoe.controllers.Logic-State" style="stroke:#A80036;stroke-width:1.0;"/><polygon fill="#A80036" points="1644.77,585.968,1644.2512,576.1328,1642.5015,581.5122,1637.122,579.7625,1644.77,585.968" style="stroke:#A80036;stroke-width:1.0;"/><line style="stroke:#A80036;stroke-width:1.0;" x1="1642.5015" x2="1638.875" y1="581.5122" y2="574.3825"/><polygon fill="#A80036" points="1224.65,115.021,1227.2882,121.7322,1234.4979,121.8781,1231.8596,115.1669,1224.65,115.021" style="stroke:#A80036;stroke-width:1.0;"/><!--MD5=[69f3bd2f5484c60601538f4b457ba790]
link tictactoe.controllers.Logic to StateValue--><path codeLine="34" d="M1267.6121,97.4146 C1267.6121,97.4146 1456.11,140.186 1548.5,175 C1560.85,179.653 1573.68,185.472 1585.77,191.449 " fill="none" id="tictactoe.controllers.Logic-StateValue" style="stroke:#A80036;stroke-width:1.0;"/><polygon fill="#A80036" points="1597.57,197.441,1591.3562,189.7997,1593.1118,195.1773,1587.7343,196.9329,1597.57,197.441" style="stroke:#A80036;stroke-width:1.0;"/><line style="stroke:#A80036;stroke-width:1.0;" x1="1593.1118" x2="1585.98" y1="195.1773" y2="191.555"/><polygon fill="#A80036" points="1255.86,94.988,1260.9272,100.1187,1267.6121,97.4146,1262.5449,92.284,1255.86,94.988" style="stroke:#A80036;stroke-width:1.0;"/><!--MD5=[12d6b2ee7a1b6faf9fe809f483963ab7]
link tictactoe.controllers.Logic to tictactoe.controllers.Controller--><path codeLine="35" d="M1126.3337,123.6151 C1126.3337,123.6151 1098.3,151.961 1084.86,165.537 " fill="none" id="tictactoe.controllers.Logic-tictactoe.controllers.Controller" style="stroke:#A80036;stroke-width:1.0;"/><polygon fill="#A80036" points="1075.7,174.799,1084.8761,171.2213,1079.2193,171.2473,1079.1933,165.5905,1075.7,174.799" style="stroke:#A80036;stroke-width:1.0;"/><line style="stroke:#A80036;stroke-width:1.0;" x1="1079.2193" x2="1084.84" y1="171.2473" y2="165.5585"/><polygon fill="#A80036" points="1134.78,115.091,1127.7155,116.5376,1126.3337,123.6151,1133.3982,122.1685,1134.78,115.091" style="stroke:#A80036;stroke-width:1.0;"/><text fill="#000000" font-family="sans-serif" font-size="13" lengthAdjust="spacingAndGlyphs" textLength="7" x="1074.9859" y="163.816">*</text><!--MD5=[5700b97431232c099330215bddfcc855]
reverse link tictactoe.controllers.Controller to tictactoe.controllers.PlayController--><path codeLine="49" d="M951.306,286.8 C932.768,301.714 912.588,317.95 892.875,333.81 " fill="none" id="tictactoe.controllers.Controller-backto-tictactoe.controllers.PlayController" style="stroke:#A80036;stroke-width:1.0;"/><polygon fill="none" points="947.15,281.16,967.12,274.077,955.925,292.068,947.15,281.16" style="stroke:#A80036;stroke-width:1.0;"/><!--MD5=[fe83eea10e25d043c5deb7f71d3efefa]
link tictactoe.controllers.PlayController to Coordinate--><path codeLine="50" d="M669.337,441.942 C542.191,464.716 332.586,507.804 159.5,570 C148.888,573.813 137.868,578.593 127.419,583.55 " fill="none" id="tictactoe.controllers.PlayController-to-Coordinate" style="stroke:#A80036;stroke-width:1.0;stroke-dasharray:7.0,7.0;"/><polygon fill="#A80036" points="122.662,585.837,132.5064,585.5419,127.1682,583.6703,129.0398,578.3321,122.662,585.837" style="stroke:#A80036;stroke-width:1.0;"/><!--MD5=[17f566e5019e25cb4796a68af68f3905]
link tictactoe.controllers.PlayController to Error--><path codeLine="51" d="M899.656,502.616 C905.574,505.34 911.538,507.826 917.5,510 C1126.53,586.232 1202.41,502.754 1414.5,570 C1425.18,573.386 1436.1,578.246 1446.25,583.466 " fill="none" id="tictactoe.controllers.PlayController-to-Error" style="stroke:#A80036;stroke-width:1.0;stroke-dasharray:7.0,7.0;"/><polygon fill="#A80036" points="1450.86,585.886,1444.7567,578.1562,1446.4348,583.5584,1441.0326,585.2366,1450.86,585.886" style="stroke:#A80036;stroke-width:1.0;"/><!--MD5=[ba4453740163cde41a3c637e3b1e755a]
link tictactoe.controllers.PlayController to Game--><path codeLine="52" d="M669.49,491.271 C657.45,497.813 645.3,504.172 633.5,510 C571.335,540.703 552.612,541.295 489.5,570 C480.1,574.275 470.203,578.977 460.617,583.64 " fill="none" id="tictactoe.controllers.PlayController-to-Game" style="stroke:#A80036;stroke-width:1.0;stroke-dasharray:7.0,7.0;"/><polygon fill="#A80036" points="455.939,585.924,465.7814,585.5686,460.4318,583.7297,462.2706,578.3801,455.939,585.924" style="stroke:#A80036;stroke-width:1.0;"/><!--MD5=[2ada365b675ffc8168b7291fcf650ab7]
link tictactoe.controllers.PlayController to Token--><path codeLine="53" d="M669.425,467.253 C630.346,481.648 586.259,497.199 545.5,510 C446.351,541.139 416.336,532.277 319.5,570 C309.486,573.901 299.103,578.722 289.265,583.691 " fill="none" id="tictactoe.controllers.PlayController-to-Token" style="stroke:#A80036;stroke-width:1.0;stroke-dasharray:7.0,7.0;"/><polygon fill="#A80036" points="284.787,585.982,294.6212,585.4443,289.2384,583.7049,290.9778,578.3221,284.787,585.982" style="stroke:#A80036;stroke-width:1.0;"/><!--MD5=[df6061b2bf3aad39d3892863768243a0]
link tictactoe.controllers.PlayController to State--><path codeLine="54" d="M899.58,502.83 C905.518,505.496 911.507,507.912 917.5,510 C1193.55,606.1953 1291.17,490.579 1572.5,570 C1584.28,573.326 1596.39,578.264 1607.65,583.598 " fill="none" id="tictactoe.controllers.PlayController-to-State" style="stroke:#A80036;stroke-width:1.0;stroke-dasharray:7.0,7.0;"/><polygon fill="#A80036" points="1612.41,585.904,1606.0418,578.391,1607.9066,583.7316,1602.5659,585.5964,1612.41,585.904" style="stroke:#A80036;stroke-width:1.0;"/><!--MD5=[635b380301c260d9705613349eb74f13]
link tictactoe.controllers.PlayController to ClosedInterval--><path codeLine="55" d="M686.877,510.032 C657.823,535.934 627.924,562.589 605.985,582.148 " fill="none" id="tictactoe.controllers.PlayController-to-ClosedInterval" style="stroke:#A80036;stroke-width:1.0;stroke-dasharray:7.0,7.0;"/><polygon fill="#A80036" points="601.983,585.716,611.3631,582.7137,605.7156,582.3891,606.0401,576.7416,601.983,585.716" style="stroke:#A80036;stroke-width:1.0;"/><!--MD5=[23cbcec275552d5168a12b754cf1cb3c]
link tictactoe.controllers.PlayController to tictactoe.controllers.ControllersVisitor--><path codeLine="56" d="M899.62,498.798 C905.65,502.613 911.637,506.367 917.5,510 C948.565,529.249 983.22,549.757 1013.38,567.296 " fill="none" id="tictactoe.controllers.PlayController-to-tictactoe.controllers.ControllersVisitor" style="stroke:#A80036;stroke-width:1.0;stroke-dasharray:7.0,7.0;"/><polygon fill="#A80036" points="1017.79,569.862,1012.0213,561.8794,1013.4679,567.3482,1007.9991,568.7948,1017.79,569.862" style="stroke:#A80036;stroke-width:1.0;"/><!--MD5=[549c2b0fc6f493adecd03b65ab276634]
reverse link tictactoe.controllers.Controller to tictactoe.controllers.ResumeController--><path codeLine="63" d="M1110.4,285.972 C1151.74,316.127 1200.7,351.848 1237.89,378.974 " fill="none" id="tictactoe.controllers.Controller-backto-tictactoe.controllers.ResumeController" style="stroke:#A80036;stroke-width:1.0;"/><polygon fill="none" points="1106.12,291.519,1094.09,274.077,1114.37,280.209,1106.12,291.519" style="stroke:#A80036;stroke-width:1.0;"/><!--MD5=[a35ef516318c5bb82096013ec88f75bf]
link tictactoe.controllers.ResumeController to Game--><path codeLine="64" d="M1233.21,465.071 C1205.15,481.93 1170.88,499.754 1137.5,510 C861.001,594.8738 767.815,491.285 489.5,570 C477.72,573.332 465.61,578.273 454.357,583.606 " fill="none" id="tictactoe.controllers.ResumeController-to-Game" style="stroke:#A80036;stroke-width:1.0;stroke-dasharray:7.0,7.0;"/><polygon fill="#A80036" points="449.59,585.913,459.4336,585.5915,454.0903,583.7343,455.9476,578.391,449.59,585.913" style="stroke:#A80036;stroke-width:1.0;"/><!--MD5=[d25719629d58aae1ac339b0027e60a9e]
link tictactoe.controllers.ResumeController to State--><path codeLine="65" d="M1352.83,465.011 C1374.93,480.221 1400.8,496.869 1425.5,510 C1487.81,543.126 1508.16,541.018 1572.5,570 C1581.92,574.241 1591.82,578.926 1601.41,583.582 " fill="none" id="tictactoe.controllers.ResumeController-to-State" style="stroke:#A80036;stroke-width:1.0;stroke-dasharray:7.0,7.0;"/><polygon fill="#A80036" points="1606.09,585.863,1599.7458,578.3297,1601.5936,583.6762,1596.247,585.524,1606.09,585.863" style="stroke:#A80036;stroke-width:1.0;"/><!--MD5=[cd482f0c1615f897b94c1cda1bc41643]
link tictactoe.controllers.ResumeController to tictactoe.controllers.ControllersVisitor--><path codeLine="66" d="M1249.97,465.18 C1217.59,495.184 1174.11,535.464 1140.89,566.244 " fill="none" id="tictactoe.controllers.ResumeController-to-tictactoe.controllers.ControllersVisitor" style="stroke:#A80036;stroke-width:1.0;stroke-dasharray:7.0,7.0;"/><polygon fill="#A80036" points="1136.89,569.949,1146.2094,566.7632,1140.5566,566.5495,1140.7702,560.8967,1136.89,569.949" style="stroke:#A80036;stroke-width:1.0;"/><!--MD5=[5deb1e5c7bf9906a35de112138d88f9c]
reverse link tictactoe.controllers.Controller to tictactoe.controllers.StartController--><path codeLine="74" d="M1027.5,294.381 C1027.5,320.12 1027.5,348.792 1027.5,372.334 " fill="none" id="tictactoe.controllers.Controller-backto-tictactoe.controllers.StartController" style="stroke:#A80036;stroke-width:1.0;"/><polygon fill="none" points="1020.5,294.077,1027.5,274.077,1034.5,294.077,1020.5,294.077" style="stroke:#A80036;stroke-width:1.0;"/><!--MD5=[479e7112b5bc5a94513afe00b27faaff]
link tictactoe.controllers.StartController to Game--><path codeLine="75" d="M976.968,471.691 C959.147,486.265 938.13,500.799 916.5,510 C740.15,585.015 672.624,513.5 489.5,570 C478.077,573.524 466.295,578.429 455.276,583.648 " fill="none" id="tictactoe.controllers.StartController-to-Game" style="stroke:#A80036;stroke-width:1.0;stroke-dasharray:7.0,7.0;"/><polygon fill="#A80036" points="450.603,585.9,460.4471,585.5949,455.107,583.7287,456.9731,578.3886,450.603,585.9" style="stroke:#A80036;stroke-width:1.0;"/><!--MD5=[8d9c52d5c7700f08e92c7dd078a553a4]
link tictactoe.controllers.StartController to State--><path codeLine="76" d="M1097.82,471.723 C1121.55,486.118 1148.81,500.538 1175.5,510 C1343.69,569.63 1402.26,516.504 1572.5,570 C1583.9,573.584 1595.68,578.514 1606.7,583.739 " fill="none" id="tictactoe.controllers.StartController-to-State" style="stroke:#A80036;stroke-width:1.0;stroke-dasharray:7.0,7.0;"/><polygon fill="#A80036" points="1611.37,585.993,1605.0202,578.4644,1606.8719,583.8096,1601.5267,585.6614,1611.37,585.993" style="stroke:#A80036;stroke-width:1.0;"/><!--MD5=[3982cc41c3ae9900c4a9f558e21fa5e9]
link tictactoe.controllers.StartController to tictactoe.controllers.ControllersVisitor--><path codeLine="77" d="M1043.98,471.672 C1053.71,500.415 1065.98,536.622 1075.6,565.058 " fill="none" id="tictactoe.controllers.StartController-to-tictactoe.controllers.ControllersVisitor" style="stroke:#A80036;stroke-width:1.0;stroke-dasharray:7.0,7.0;"/><polygon fill="#A80036" points="1077.25,569.912,1078.149,560.1043,1075.6448,565.1767,1070.5724,562.6725,1077.25,569.912" style="stroke:#A80036;stroke-width:1.0;"/><!--MD5=[9d323c45a742ef3802a94b30da297dca]
@startuml
class Game as "tictactoe.models.\nGame" {}
class Coordinate as "tictactoe.models.\nCoordinate" {}
class Error as "tictactoe.types.\nError" {}
class Token as "tictactoe.types.\nToken" {}
class State as "tictactoe.models.\nState" {}
class StateValue as "tictactoe.models.\nStateValue" {}
class ClosedInterval as "usantatecla.utils.\nClosedInterval" {}

abstract class tictactoe.controllers.Controller{
  ~ Controller(Game,State)
  + getToken(Coordinate): Token
  + next()
  + {abstract} accept(ControllersVisitor)
}
tictactoe.controllers.Controller *-down-> Game
tictactoe.controllers.Controller *-down-> State
tictactoe.controllers.Controller .down.> Coordinate
tictactoe.controllers.Controller .down.> Token
tictactoe.controllers.Controller .down.> tictactoe.controllers.ControllersVisitor

interface tictactoe.controllers.ControllersVisitor{
  ~ visit(StartController)
  ~ visit(PlayController)
  ~ visit(ResumeController)
}

class tictactoe.controllers.Logic{
  + Logic()
  + getController(): Controller
}

tictactoe.controllers.Logic *-down-> Game
tictactoe.controllers.Logic *-down-> State
tictactoe.controllers.Logic *-down-> StateValue
tictactoe.controllers.Logic *-down-> "*"tictactoe.controllers.Controller

class tictactoe.controllers.PlayController{
  + PlayController(Game,State)
  + isBoardComplete(): boolean
  + isTicTacToe(): boolean
  + getToken(): Token
  + isUser(): boolean
  + isValidCoordinate(Coordinate): Error
  + getRandomCoordinate(): Coordinate
  + put(Coordinate): Error
  + move(Coordinate,Coordinate): Error
  + accept(ControllersVisitor)
}
tictactoe.controllers.Controller <|-down- tictactoe.controllers.PlayController
tictactoe.controllers.PlayController .down.> Coordinate
tictactoe.controllers.PlayController .down.> Error
tictactoe.controllers.PlayController .down.> Game
tictactoe.controllers.PlayController .down.> Token
tictactoe.controllers.PlayController .down.> State
tictactoe.controllers.PlayController .down.> ClosedInterval
tictactoe.controllers.PlayController .down.> tictactoe.controllers.ControllersVisitor

class tictactoe.controllers.ResumeController{
  + ResumeController(Game,State)
  + resume()
  + accept(ControllersVisitor)
}
tictactoe.controllers.Controller <|-down- tictactoe.controllers.ResumeController
tictactoe.controllers.ResumeController .down.> Game
tictactoe.controllers.ResumeController .down.> State
tictactoe.controllers.ResumeController .down.> tictactoe.controllers.ControllersVisitor

class tictactoe.controllers.StartController{
  + StartController(Game,State)
  + setUsers(int)
  + getMaxPlayers(): int
  + accept(ControllersVisitor)
}
tictactoe.controllers.Controller <|-down- tictactoe.controllers.StartController
tictactoe.controllers.StartController .down.> Game
tictactoe.controllers.StartController .down.> State
tictactoe.controllers.StartController .down.> tictactoe.controllers.ControllersVisitor
@enduml

PlantUML version 1.2020.22(Sun Dec 06 09:36:27 UTC 2020)
(GPL source distribution)
Java Runtime: Java(TM) SE Runtime Environment
JVM: Java HotSpot(TM) 64-Bit Server VM
Default Encoding: UTF-8
Language: en
Country: US
--></g></svg>