<?xml version="1.0" encoding="UTF-8" standalone="no"?><svg xmlns="http://www.w3.org/2000/svg" xmlns:xlink="http://www.w3.org/1999/xlink" contentScriptType="application/ecmascript" contentStyleType="text/css" height="501px" preserveAspectRatio="none" style="width:623px;height:501px;" version="1.1" viewBox="0 0 623 501" width="623px" zoomAndPan="magnify"><defs><filter height="300%" id="ftkd5k3lfxn5j" width="300%" x="-1" y="-1"><feGaussianBlur result="blurOut" stdDeviation="2.0"/><feColorMatrix in="blurOut" result="blurOut2" type="matrix" values="0 0 0 0 0 0 0 0 0 0 0 0 0 0 0 0 0 0 .4 0"/><feOffset dx="4.0" dy="4.0" in="blurOut2" result="blurOut3"/><feBlend in="SourceGraphic" in2="blurOut3" mode="normal"/></filter></defs><g><!--MD5=[f4e83a21a957c5b9ba9691e6361db36b]
cluster tictactoe.views--><polygon fill="#FFFFFF" filter="url(#ftkd5k3lfxn5j)" points="16,86,148,86,155,108.2969,606,108.2969,606,390,16,390,16,86" style="stroke:#000000;stroke-width:1.5;"/><line style="stroke:#000000;stroke-width:1.5;" x1="16" x2="155" y1="108.2969" y2="108.2969"/><text fill="#000000" font-family="sans-serif" font-size="14" font-weight="bold" lengthAdjust="spacingAndGlyphs" textLength="126" x="20" y="100.9951">tictactoe.views</text><!--MD5=[17799e03bfee0ccb3aa03b93da9c26d6]
class tictactoe.views.ErrorView--><rect codeLine="4" fill="#FEFECE" filter="url(#ftkd5k3lfxn5j)" height="73.6094" id="tictactoe.views.ErrorView" style="stroke:#A80036;stroke-width:1.5;" width="138" x="452" y="210.5"/><ellipse cx="488.15" cy="226.5" fill="#ADD1B2" rx="11" ry="11" style="stroke:#A80036;stroke-width:1.0;"/><path d="M490.4938,222.1719 C489.5563,221.7344 488.9625,221.5938 488.0875,221.5938 C485.4625,221.5938 483.4625,223.6719 483.4625,226.3906 L483.4625,227.5156 C483.4625,230.0938 485.5719,231.9844 488.4625,231.9844 C489.6813,231.9844 490.8375,231.6875 491.5875,231.1406 C492.1656,230.7344 492.4938,230.2813 492.4938,229.8906 C492.4938,229.4375 492.1031,229.0469 491.6344,229.0469 C491.4156,229.0469 491.2125,229.125 491.025,229.3125 C490.5719,229.7969 490.5719,229.7969 490.3844,229.8906 C489.9625,230.1563 489.275,230.2813 488.5094,230.2813 C486.4625,230.2813 485.1656,229.1875 485.1656,227.4844 L485.1656,226.3906 C485.1656,224.6094 486.4156,223.2969 488.15,223.2969 C488.7281,223.2969 489.3375,223.4531 489.8063,223.7031 C490.2906,223.9844 490.4625,224.2031 490.5563,224.6094 C490.6188,225.0156 490.65,225.1406 490.7906,225.2656 C490.9313,225.4063 491.1656,225.5156 491.3844,225.5156 C491.65,225.5156 491.9156,225.375 492.0875,225.1563 C492.1969,225 492.2281,224.8125 492.2281,224.3906 L492.2281,222.9688 C492.2281,222.5313 492.2125,222.4063 492.1188,222.25 C491.9625,221.9844 491.6813,221.8438 491.3844,221.8438 C491.0875,221.8438 490.8844,221.9375 490.6656,222.25 L490.4938,222.1719 Z " fill="#000000"/><text fill="#000000" font-family="sans-serif" font-size="12" lengthAdjust="spacingAndGlyphs" textLength="59" x="506.85" y="230.6543">ErrorView</text><line style="stroke:#A80036;stroke-width:1.5;" x1="453" x2="589" y1="242.5" y2="242.5"/><ellipse cx="463" cy="253.5" fill="none" rx="3" ry="3" style="stroke:#038048;stroke-width:1.0;"/><text fill="#000000" font-family="sans-serif" font-size="11" lengthAdjust="spacingAndGlyphs" text-decoration="underline" textLength="112" x="472" y="256.7104">MESSAGES: String[]</text><line style="stroke:#A80036;stroke-width:1.5;" x1="453" x2="589" y1="263.3047" y2="263.3047"/><ellipse cx="463" cy="274.3047" fill="#84BE84" rx="3" ry="3" style="stroke:#038048;stroke-width:1.0;"/><text fill="#000000" font-family="sans-serif" font-size="11" lengthAdjust="spacingAndGlyphs" textLength="88" x="472" y="277.5151">ErrorView(Error)</text><!--MD5=[8b95091471898ea6b0cbbbb1cd164db3]
class tictactoe.views.Message--><rect codeLine="10" fill="#FEFECE" filter="url(#ftkd5k3lfxn5j)" height="252.875" id="tictactoe.views.Message" style="stroke:#A80036;stroke-width:1.5;" width="218" x="199" y="121"/><ellipse cx="276.25" cy="137" fill="#EB937F" rx="11" ry="11" style="stroke:#A80036;stroke-width:1.0;"/><path d="M275.0469,137.875 L276.5,137.875 L276.5,137.9844 C276.5,138.3906 276.5313,138.5469 276.6094,138.7031 C276.7656,138.9531 277.0469,139.1094 277.3438,139.1094 C277.5938,139.1094 277.8594,138.9688 278.0156,138.75 C278.1406,138.5938 278.1719,138.4375 278.1719,137.9844 L278.1719,136.0625 C278.1719,135.9063 278.1719,135.8594 278.1563,135.7031 C278.0938,135.2344 277.7813,134.9219 277.3281,134.9219 C277.0781,134.9219 276.8125,135.0625 276.6406,135.2813 C276.5313,135.4531 276.5,135.6094 276.5,136.0625 L276.5,136.1875 L275.0469,136.1875 L275.0469,133.7813 L279.0313,133.7813 L279.0313,134.6406 C279.0313,135.0469 279.0625,135.2188 279.1406,135.375 C279.3125,135.625 279.5938,135.7813 279.875,135.7813 C280.1406,135.7813 280.4063,135.6406 280.5781,135.4219 C280.6875,135.25 280.7188,135.1094 280.7188,134.6406 L280.7188,132.0938 L273.0938,132.0938 C272.6563,132.0938 272.5313,132.1094 272.375,132.2031 C272.125,132.3594 271.9688,132.6563 271.9688,132.9375 C271.9688,133.2188 272.1094,133.4688 272.3281,133.6406 C272.4844,133.75 272.6719,133.7813 273.0938,133.7813 L273.3438,133.7813 L273.3438,140.2969 L273.0938,140.2969 C272.6875,140.2969 272.5313,140.3125 272.375,140.4219 C272.125,140.5938 271.9688,140.8594 271.9688,141.1563 C271.9688,141.4219 272.1094,141.6719 272.3281,141.8281 C272.4688,141.9531 272.7031,142 273.0938,142 L281.0938,142 L281.0938,139.4219 C281.0938,138.9844 281.0625,138.8438 280.9844,138.6875 C280.8125,138.4375 280.5313,138.2813 280.25,138.2813 C279.9844,138.2813 279.7188,138.3906 279.5469,138.6406 C279.4375,138.7969 279.4063,138.9375 279.4063,139.4219 L279.4063,140.2969 L275.0469,140.2969 L275.0469,137.875 Z " fill="#000000"/><text fill="#000000" font-family="sans-serif" font-size="12" lengthAdjust="spacingAndGlyphs" textLength="55" x="296.75" y="141.1543">Message</text><line style="stroke:#A80036;stroke-width:1.5;" x1="200" x2="416" y1="153" y2="153"/><ellipse cx="210" cy="164" fill="none" rx="3" ry="3" style="stroke:#038048;stroke-width:1.0;"/><text fill="#000000" font-family="sans-serif" font-size="11" lengthAdjust="spacingAndGlyphs" textLength="37" x="219" y="167.2104">TITTLE</text><ellipse cx="210" cy="176.8047" fill="none" rx="3" ry="3" style="stroke:#038048;stroke-width:1.0;"/><text fill="#000000" font-family="sans-serif" font-size="11" lengthAdjust="spacingAndGlyphs" textLength="102" x="219" y="180.0151">NUMBER_PLAYERS</text><ellipse cx="210" cy="189.6094" fill="none" rx="3" ry="3" style="stroke:#038048;stroke-width:1.0;"/><text fill="#000000" font-family="sans-serif" font-size="11" lengthAdjust="spacingAndGlyphs" textLength="67" x="219" y="192.8198">SEPARATOR</text><ellipse cx="210" cy="202.4141" fill="none" rx="3" ry="3" style="stroke:#038048;stroke-width:1.0;"/><text fill="#000000" font-family="sans-serif" font-size="11" lengthAdjust="spacingAndGlyphs" textLength="116" x="219" y="205.6245">VERTICAL_LINE_LEFT</text><ellipse cx="210" cy="215.2188" fill="none" rx="3" ry="3" style="stroke:#038048;stroke-width:1.0;"/><text fill="#000000" font-family="sans-serif" font-size="11" lengthAdjust="spacingAndGlyphs" textLength="150" x="219" y="218.4292">VERTICAL_LINE_CENTERED</text><ellipse cx="210" cy="228.0234" fill="none" rx="3" ry="3" style="stroke:#038048;stroke-width:1.0;"/><text fill="#000000" font-family="sans-serif" font-size="11" lengthAdjust="spacingAndGlyphs" textLength="124" x="219" y="231.2339">VERTICAL_LINE_RIGHT</text><ellipse cx="210" cy="240.8281" fill="none" rx="3" ry="3" style="stroke:#038048;stroke-width:1.0;"/><text fill="#000000" font-family="sans-serif" font-size="11" lengthAdjust="spacingAndGlyphs" textLength="166" x="219" y="244.0386">ENTER_COORDINATE_TO_PUT</text><ellipse cx="210" cy="253.6328" fill="none" rx="3" ry="3" style="stroke:#038048;stroke-width:1.0;"/><text fill="#000000" font-family="sans-serif" font-size="11" lengthAdjust="spacingAndGlyphs" textLength="192" x="219" y="256.8433">ENTER_COORDINATE_TO_REMOVE</text><ellipse cx="210" cy="266.4375" fill="none" rx="3" ry="3" style="stroke:#038048;stroke-width:1.0;"/><text fill="#000000" font-family="sans-serif" font-size="11" lengthAdjust="spacingAndGlyphs" textLength="124" x="219" y="269.6479">COORDINATE_TO_PUT</text><ellipse cx="210" cy="279.2422" fill="none" rx="3" ry="3" style="stroke:#038048;stroke-width:1.0;"/><text fill="#000000" font-family="sans-serif" font-size="11" lengthAdjust="spacingAndGlyphs" textLength="150" x="219" y="282.4526">COORDINATE_TO_REMOVE</text><ellipse cx="210" cy="292.0469" fill="none" rx="3" ry="3" style="stroke:#038048;stroke-width:1.0;"/><text fill="#000000" font-family="sans-serif" font-size="11" lengthAdjust="spacingAndGlyphs" textLength="136" x="219" y="295.2573">COORDINATE_TO_MOVE</text><ellipse cx="210" cy="304.8516" fill="none" rx="3" ry="3" style="stroke:#038048;stroke-width:1.0;"/><text fill="#000000" font-family="sans-serif" font-size="11" lengthAdjust="spacingAndGlyphs" textLength="69" x="219" y="308.062">PLAYER_WIN</text><ellipse cx="210" cy="317.6563" fill="none" rx="3" ry="3" style="stroke:#038048;stroke-width:1.0;"/><text fill="#000000" font-family="sans-serif" font-size="11" lengthAdjust="spacingAndGlyphs" textLength="46" x="219" y="320.8667">RESUME</text><rect fill="none" height="6" style="stroke:#C82930;stroke-width:1.0;" width="6" x="207" y="327.4609"/><text fill="#000000" font-family="sans-serif" font-size="11" lengthAdjust="spacingAndGlyphs" textLength="93" x="219" y="333.6714">message: String</text><line style="stroke:#A80036;stroke-width:1.5;" x1="200" x2="416" y1="340.2656" y2="340.2656"/><rect fill="#F24D5C" height="6" style="stroke:#C82930;stroke-width:1.0;" width="6" x="207" y="348.2656"/><text fill="#000000" font-family="sans-serif" font-size="11" lengthAdjust="spacingAndGlyphs" textLength="92" x="219" y="354.4761">Message(String)</text><ellipse cx="210" cy="364.0703" fill="#84BE84" rx="3" ry="3" style="stroke:#038048;stroke-width:1.0;"/><text fill="#000000" font-family="sans-serif" font-size="11" lengthAdjust="spacingAndGlyphs" textLength="118" x="219" y="367.2808">getMessage(): String</text><!--MD5=[015754420c4cdd9bacda884b3fa8c6ca]
class tictactoe.views.View--><rect codeLine="29" fill="#FEFECE" filter="url(#ftkd5k3lfxn5j)" height="60.8047" id="tictactoe.views.View" style="stroke:#A80036;stroke-width:1.5;" width="132" x="32" y="217"/><ellipse cx="79.75" cy="233" fill="#A9DCDF" rx="11" ry="11" style="stroke:#A80036;stroke-width:1.0;"/><path d="M81.8281,234.8125 L82.2188,235.7969 L81.8281,235.7969 C81.375,235.7969 81.2656,235.8125 81.1094,235.9219 C80.8594,236.0781 80.7031,236.3594 80.7031,236.6563 C80.7031,236.9219 80.8438,237.1719 81.0625,237.3281 C81.2031,237.4531 81.4063,237.5 81.8281,237.5 L84.1875,237.5 C84.5469,237.5 84.7656,237.4688 84.9063,237.375 C85.1563,237.2344 85.3125,236.9375 85.3125,236.6563 C85.3125,236.375 85.1719,236.125 84.9531,235.9688 C84.7813,235.8281 84.625,235.7969 84.1563,235.7969 L80.7656,227.5938 L77.0938,227.5938 C76.6406,227.5938 76.5156,227.6094 76.3594,227.7031 C76.1094,227.875 75.9531,228.1563 75.9531,228.4375 C75.9531,228.7188 76.0938,228.9688 76.3125,229.1406 C76.4844,229.25 76.6563,229.2813 77.0938,229.2813 L78.1719,229.2813 L75.5313,235.7969 C75.1094,235.7969 74.9531,235.8125 74.7969,235.9219 C74.5469,236.0781 74.3906,236.3594 74.3906,236.6563 C74.3906,237.2188 74.7656,237.5 75.5156,237.5 L77.7813,237.5 C78.1406,237.5 78.3594,237.4688 78.4844,237.375 C78.75,237.2344 78.8906,236.9375 78.8906,236.6563 C78.8906,236.375 78.7656,236.125 78.5469,235.9531 C78.375,235.8281 78.2344,235.7969 77.7813,235.7969 L77.3906,235.7969 L77.7813,234.8125 L81.8281,234.8125 Z M81.125,233.1094 L78.4531,233.1094 L79.7969,229.8438 L81.125,233.1094 Z " fill="#000000"/><text fill="#000000" font-family="sans-serif" font-size="12" font-style="italic" lengthAdjust="spacingAndGlyphs" textLength="28" x="100.25" y="237.1543">View</text><line style="stroke:#A80036;stroke-width:1.5;" x1="33" x2="163" y1="249" y2="249"/><line style="stroke:#A80036;stroke-width:1.5;" x1="33" x2="163" y1="257" y2="257"/><ellipse cx="43" cy="268" fill="#84BE84" rx="3" ry="3" style="stroke:#038048;stroke-width:1.0;"/><text fill="#000000" font-family="sans-serif" font-size="11" lengthAdjust="spacingAndGlyphs" textLength="106" x="52" y="271.2104">interact(Controller)</text><!--MD5=[b8cfd8c4119a3b0a7a46bfc5fc780f85]
class Error--><rect codeLine="1" fill="#FEFECE" filter="url(#ftkd5k3lfxn5j)" height="53.9375" id="Error" style="stroke:#A80036;stroke-width:1.5;" width="124" x="459" y="434"/><ellipse cx="474" cy="452.9688" fill="#ADD1B2" rx="11" ry="11" style="stroke:#A80036;stroke-width:1.0;"/><path d="M476.3438,448.6406 C475.4063,448.2031 474.8125,448.0625 473.9375,448.0625 C471.3125,448.0625 469.3125,450.1406 469.3125,452.8594 L469.3125,453.9844 C469.3125,456.5625 471.4219,458.4531 474.3125,458.4531 C475.5313,458.4531 476.6875,458.1563 477.4375,457.6094 C478.0156,457.2031 478.3438,456.75 478.3438,456.3594 C478.3438,455.9063 477.9531,455.5156 477.4844,455.5156 C477.2656,455.5156 477.0625,455.5938 476.875,455.7813 C476.4219,456.2656 476.4219,456.2656 476.2344,456.3594 C475.8125,456.625 475.125,456.75 474.3594,456.75 C472.3125,456.75 471.0156,455.6563 471.0156,453.9531 L471.0156,452.8594 C471.0156,451.0781 472.2656,449.7656 474,449.7656 C474.5781,449.7656 475.1875,449.9219 475.6563,450.1719 C476.1406,450.4531 476.3125,450.6719 476.4063,451.0781 C476.4688,451.4844 476.5,451.6094 476.6406,451.7344 C476.7813,451.875 477.0156,451.9844 477.2344,451.9844 C477.5,451.9844 477.7656,451.8438 477.9375,451.625 C478.0469,451.4688 478.0781,451.2813 478.0781,450.8594 L478.0781,449.4375 C478.0781,449 478.0625,448.875 477.9688,448.7188 C477.8125,448.4531 477.5313,448.3125 477.2344,448.3125 C476.9375,448.3125 476.7344,448.4063 476.5156,448.7188 L476.3438,448.6406 Z " fill="#000000"/><text fill="#000000" font-family="sans-serif" font-size="12" lengthAdjust="spacingAndGlyphs" textLength="92" x="488" y="450.1387">tictactoe.types.</text><text fill="#000000" font-family="sans-serif" font-size="12" lengthAdjust="spacingAndGlyphs" textLength="30" x="519" y="464.1074">Error</text><line style="stroke:#A80036;stroke-width:1.5;" x1="460" x2="582" y1="471.9375" y2="471.9375"/><line style="stroke:#A80036;stroke-width:1.5;" x1="460" x2="582" y1="479.9375" y2="479.9375"/><!--MD5=[f396287c118547303ac303e050561644]
class ControllersVisitor--><rect codeLine="2" fill="#FEFECE" filter="url(#ftkd5k3lfxn5j)" height="53.9375" id="ControllersVisitor" style="stroke:#A80036;stroke-width:1.5;" width="156" x="20" y="7"/><ellipse cx="35" cy="25.9688" fill="#B4A7E5" rx="11" ry="11" style="stroke:#A80036;stroke-width:1.0;"/><path d="M35.9531,22.75 L37.6719,22.75 C38.0625,22.75 38.25,22.7188 38.375,22.6406 C38.6406,22.4844 38.7813,22.2031 38.7813,21.9063 C38.7813,21.6406 38.6719,21.375 38.4375,21.2031 C38.2656,21.0938 38.125,21.0625 37.6719,21.0625 L32.5313,21.0625 C32.0938,21.0625 31.9688,21.0781 31.8125,21.1719 C31.5625,21.3281 31.4063,21.625 31.4063,21.9063 C31.4063,22.1875 31.5469,22.4375 31.7656,22.6094 C31.9219,22.7188 32.1094,22.75 32.5313,22.75 L34.25,22.75 L34.25,29.2656 L32.5313,29.2656 C32.0938,29.2656 31.9688,29.2813 31.8125,29.3906 C31.5625,29.5469 31.4063,29.8281 31.4063,30.125 C31.4063,30.375 31.5469,30.6406 31.7656,30.7969 C31.9219,30.9219 32.125,30.9688 32.5313,30.9688 L37.6719,30.9688 C38.4219,30.9688 38.7813,30.6875 38.7813,30.125 C38.7813,29.8438 38.6719,29.5938 38.4375,29.4219 C38.2656,29.2969 38.125,29.2656 37.6719,29.2656 L35.9531,29.2656 L35.9531,22.75 Z " fill="#000000"/><text fill="#000000" font-family="sans-serif" font-size="12" font-style="italic" lengthAdjust="spacingAndGlyphs" textLength="124" x="49" y="23.1387">tictactoe.controllers.</text><text fill="#000000" font-family="sans-serif" font-size="12" font-style="italic" lengthAdjust="spacingAndGlyphs" textLength="101" x="60.5" y="37.1074">ControllersVisitor</text><line style="stroke:#A80036;stroke-width:1.5;" x1="21" x2="175" y1="44.9375" y2="44.9375"/><line style="stroke:#A80036;stroke-width:1.5;" x1="21" x2="175" y1="52.9375" y2="52.9375"/><!--MD5=[6b5fb949459e9919da652f12454cf9c5]
link tictactoe.views.ErrorView to Error--><path codeLine="8" d="M521,296.858 C521,296.858 521,385.801 521,420.4456 " fill="none" id="tictactoe.views.ErrorView-Error" style="stroke:#A80036;stroke-width:1.0;"/><polygon fill="#A80036" points="521,433.7866,525,424.7866,521,428.7866,517,424.7866,521,433.7866" style="stroke:#A80036;stroke-width:1.0;"/><line style="stroke:#A80036;stroke-width:1.0;" x1="521" x2="521" y1="428.7866" y2="420.7866"/><polygon fill="#A80036" points="521,284.858,517,290.858,521,296.858,525,290.858,521,284.858" style="stroke:#A80036;stroke-width:1.0;"/><!--MD5=[e79a4604479a4668c6a3d472145736bc]
reverse link ControllersVisitor to tictactoe.views.View--><path codeLine="32" d="M98,81.615 C98,122.799 98,181.618 98,216.739 " fill="none" id="ControllersVisitor-backto-tictactoe.views.View" style="stroke:#A80036;stroke-width:1.0;stroke-dasharray:7.0,7.0;"/><polygon fill="none" points="91.0001,81.359,98,61.359,105,81.359,91.0001,81.359" style="stroke:#A80036;stroke-width:1.0;"/><!--MD5=[7d6f21c64ee74c1224a700df34db9c47]
@startuml
class Error as "tictactoe.types.\nError" {}
interface ControllersVisitor as "tictactoe.controllers.\nControllersVisitor"

class  tictactoe.views.ErrorView{
  + {static} MESSAGES: String[]
  + ErrorView(Error)
}
tictactoe.views.ErrorView *-down-> Error

enum tictactoe.views.Message{
  + TITTLE
  + NUMBER_PLAYERS
  + SEPARATOR
  + VERTICAL_LINE_LEFT
  + VERTICAL_LINE_CENTERED
  + VERTICAL_LINE_RIGHT
  + ENTER_COORDINATE_TO_PUT
  + ENTER_COORDINATE_TO_REMOVE
  + COORDINATE_TO_PUT
  + COORDINATE_TO_REMOVE
  + COORDINATE_TO_MOVE
  + PLAYER_WIN
  + RESUME
  - message: String
  - Message(String)
  + getMessage(): String
}

abstract class tictactoe.views.View {
  + interact(Controller)
}
tictactoe.views.View .up.|> ControllersVisitor
@enduml

PlantUML version 1.2020.22(Sun Dec 06 09:36:27 UTC 2020)
(GPL source distribution)
Java Runtime: Java(TM) SE Runtime Environment
JVM: Java HotSpot(TM) 64-Bit Server VM
Default Encoding: UTF-8
Language: en
Country: US
--></g></svg>