<?xml version="1.0" encoding="UTF-8" standalone="no"?><svg xmlns="http://www.w3.org/2000/svg" xmlns:xlink="http://www.w3.org/1999/xlink" contentScriptType="application/ecmascript" contentStyleType="text/css" height="761px" preserveAspectRatio="none" style="width:2745px;height:761px;" version="1.1" viewBox="0 0 2745 761" width="2745px" zoomAndPan="magnify"><defs><filter height="300%" id="fy9jps0s4i63o" width="300%" x="-1" y="-1"><feGaussianBlur result="blurOut" stdDeviation="2.0"/><feColorMatrix in="blurOut" result="blurOut2" type="matrix" values="0 0 0 0 0 0 0 0 0 0 0 0 0 0 0 0 0 0 .4 0"/><feOffset dx="4.0" dy="4.0" in="blurOut2" result="blurOut3"/><feBlend in="SourceGraphic" in2="blurOut3" mode="normal"/></filter></defs><g><!--MD5=[64182ab34c08ac367bbf699869515711]
cluster tictactoe.views.console--><polygon fill="#FFFFFF" filter="url(#fy9jps0s4i63o)" points="899.5,86,1098.5,86,1105.5,108.2969,1548.5,108.2969,1548.5,650,899.5,650,899.5,86" style="stroke:#000000;stroke-width:1.5;"/><line style="stroke:#000000;stroke-width:1.5;" x1="899.5" x2="1105.5" y1="108.2969" y2="108.2969"/><text fill="#000000" font-family="sans-serif" font-size="14" font-weight="bold" lengthAdjust="spacingAndGlyphs" textLength="193" x="903.5" y="100.9951">tictactoe.views.console</text><!--MD5=[bde0c8ed193d8d2dbac1dee471354ab0]
class tictactoe.views.console.ConsoleView--><rect codeLine="15" fill="#FEFECE" filter="url(#fy9jps0s4i63o)" height="99.2188" id="tictactoe.views.console.ConsoleView" style="stroke:#A80036;stroke-width:1.5;" width="139" x="1231" y="121"/><ellipse cx="1259.05" cy="137" fill="#ADD1B2" rx="11" ry="11" style="stroke:#A80036;stroke-width:1.0;"/><path d="M1261.3938,132.6719 C1260.4563,132.2344 1259.8625,132.0938 1258.9875,132.0938 C1256.3625,132.0938 1254.3625,134.1719 1254.3625,136.8906 L1254.3625,138.0156 C1254.3625,140.5938 1256.4719,142.4844 1259.3625,142.4844 C1260.5813,142.4844 1261.7375,142.1875 1262.4875,141.6406 C1263.0656,141.2344 1263.3938,140.7813 1263.3938,140.3906 C1263.3938,139.9375 1263.0031,139.5469 1262.5344,139.5469 C1262.3156,139.5469 1262.1125,139.625 1261.925,139.8125 C1261.4719,140.2969 1261.4719,140.2969 1261.2844,140.3906 C1260.8625,140.6563 1260.175,140.7813 1259.4094,140.7813 C1257.3625,140.7813 1256.0656,139.6875 1256.0656,137.9844 L1256.0656,136.8906 C1256.0656,135.1094 1257.3156,133.7969 1259.05,133.7969 C1259.6281,133.7969 1260.2375,133.9531 1260.7063,134.2031 C1261.1906,134.4844 1261.3625,134.7031 1261.4563,135.1094 C1261.5188,135.5156 1261.55,135.6406 1261.6906,135.7656 C1261.8313,135.9063 1262.0656,136.0156 1262.2844,136.0156 C1262.55,136.0156 1262.8156,135.875 1262.9875,135.6563 C1263.0969,135.5 1263.1281,135.3125 1263.1281,134.8906 L1263.1281,133.4688 C1263.1281,133.0313 1263.1125,132.9063 1263.0188,132.75 C1262.8625,132.4844 1262.5813,132.3438 1262.2844,132.3438 C1261.9875,132.3438 1261.7844,132.4375 1261.5656,132.75 L1261.3938,132.6719 Z " fill="#000000"/><text fill="#000000" font-family="sans-serif" font-size="12" lengthAdjust="spacingAndGlyphs" textLength="78" x="1275.95" y="141.1543">ConsoleView</text><line style="stroke:#A80036;stroke-width:1.5;" x1="1232" x2="1369" y1="153" y2="153"/><line style="stroke:#A80036;stroke-width:1.5;" x1="1232" x2="1369" y1="161" y2="161"/><ellipse cx="1242" cy="172" fill="#84BE84" rx="3" ry="3" style="stroke:#038048;stroke-width:1.0;"/><text fill="#000000" font-family="sans-serif" font-size="11" lengthAdjust="spacingAndGlyphs" textLength="82" x="1251" y="175.2104">ConsoleView()</text><ellipse cx="1242" cy="184.8047" fill="#84BE84" rx="3" ry="3" style="stroke:#038048;stroke-width:1.0;"/><text fill="#000000" font-family="sans-serif" font-size="11" lengthAdjust="spacingAndGlyphs" textLength="113" x="1251" y="188.0151">visit(StartController)</text><ellipse cx="1242" cy="197.6094" fill="#84BE84" rx="3" ry="3" style="stroke:#038048;stroke-width:1.0;"/><text fill="#000000" font-family="sans-serif" font-size="11" lengthAdjust="spacingAndGlyphs" textLength="109" x="1251" y="200.8198">visit(PlayController)</text><ellipse cx="1242" cy="210.4141" fill="#84BE84" rx="3" ry="3" style="stroke:#038048;stroke-width:1.0;"/><text fill="#000000" font-family="sans-serif" font-size="11" lengthAdjust="spacingAndGlyphs" textLength="113" x="1251" y="213.6245">visit(StartController)</text><!--MD5=[54aa299435631381f3c0c028f26a058f]
class tictactoe.views.console.StartView--><rect codeLine="81" fill="#FEFECE" filter="url(#fy9jps0s4i63o)" height="60.8047" id="tictactoe.views.console.StartView" style="stroke:#A80036;stroke-width:1.5;" width="159" x="1106" y="292.5"/><ellipse cx="1152.75" cy="308.5" fill="#ADD1B2" rx="11" ry="11" style="stroke:#A80036;stroke-width:1.0;"/><path d="M1155.0938,304.1719 C1154.1563,303.7344 1153.5625,303.5938 1152.6875,303.5938 C1150.0625,303.5938 1148.0625,305.6719 1148.0625,308.3906 L1148.0625,309.5156 C1148.0625,312.0938 1150.1719,313.9844 1153.0625,313.9844 C1154.2813,313.9844 1155.4375,313.6875 1156.1875,313.1406 C1156.7656,312.7344 1157.0938,312.2813 1157.0938,311.8906 C1157.0938,311.4375 1156.7031,311.0469 1156.2344,311.0469 C1156.0156,311.0469 1155.8125,311.125 1155.625,311.3125 C1155.1719,311.7969 1155.1719,311.7969 1154.9844,311.8906 C1154.5625,312.1563 1153.875,312.2813 1153.1094,312.2813 C1151.0625,312.2813 1149.7656,311.1875 1149.7656,309.4844 L1149.7656,308.3906 C1149.7656,306.6094 1151.0156,305.2969 1152.75,305.2969 C1153.3281,305.2969 1153.9375,305.4531 1154.4063,305.7031 C1154.8906,305.9844 1155.0625,306.2031 1155.1563,306.6094 C1155.2188,307.0156 1155.25,307.1406 1155.3906,307.2656 C1155.5313,307.4063 1155.7656,307.5156 1155.9844,307.5156 C1156.25,307.5156 1156.5156,307.375 1156.6875,307.1563 C1156.7969,307 1156.8281,306.8125 1156.8281,306.3906 L1156.8281,304.9688 C1156.8281,304.5313 1156.8125,304.4063 1156.7188,304.25 C1156.5625,303.9844 1156.2813,303.8438 1155.9844,303.8438 C1155.6875,303.8438 1155.4844,303.9375 1155.2656,304.25 L1155.0938,304.1719 Z " fill="#000000"/><text fill="#000000" font-family="sans-serif" font-size="12" lengthAdjust="spacingAndGlyphs" textLength="57" x="1173.25" y="312.6543">StartView</text><line style="stroke:#A80036;stroke-width:1.5;" x1="1107" x2="1264" y1="324.5" y2="324.5"/><line style="stroke:#A80036;stroke-width:1.5;" x1="1107" x2="1264" y1="332.5" y2="332.5"/><polygon fill="#4177AF" points="1117,339.5,1113,345.5,1121,345.5" style="stroke:#1963A0;stroke-width:1.0;"/><text fill="#000000" font-family="sans-serif" font-size="11" lengthAdjust="spacingAndGlyphs" textLength="133" x="1126" y="346.7104">interact(StartController)</text><!--MD5=[0158df0baddf48f83142f472e341eacc]
class tictactoe.views.console.PlayView--><rect codeLine="58" fill="#FEFECE" filter="url(#fy9jps0s4i63o)" height="86.4141" id="tictactoe.views.console.PlayView" style="stroke:#A80036;stroke-width:1.5;" width="155" x="916" y="280"/><ellipse cx="963.25" cy="296" fill="#ADD1B2" rx="11" ry="11" style="stroke:#A80036;stroke-width:1.0;"/><path d="M965.5938,291.6719 C964.6563,291.2344 964.0625,291.0938 963.1875,291.0938 C960.5625,291.0938 958.5625,293.1719 958.5625,295.8906 L958.5625,297.0156 C958.5625,299.5938 960.6719,301.4844 963.5625,301.4844 C964.7813,301.4844 965.9375,301.1875 966.6875,300.6406 C967.2656,300.2344 967.5938,299.7813 967.5938,299.3906 C967.5938,298.9375 967.2031,298.5469 966.7344,298.5469 C966.5156,298.5469 966.3125,298.625 966.125,298.8125 C965.6719,299.2969 965.6719,299.2969 965.4844,299.3906 C965.0625,299.6563 964.375,299.7813 963.6094,299.7813 C961.5625,299.7813 960.2656,298.6875 960.2656,296.9844 L960.2656,295.8906 C960.2656,294.1094 961.5156,292.7969 963.25,292.7969 C963.8281,292.7969 964.4375,292.9531 964.9063,293.2031 C965.3906,293.4844 965.5625,293.7031 965.6563,294.1094 C965.7188,294.5156 965.75,294.6406 965.8906,294.7656 C966.0313,294.9063 966.2656,295.0156 966.4844,295.0156 C966.75,295.0156 967.0156,294.875 967.1875,294.6563 C967.2969,294.5 967.3281,294.3125 967.3281,293.8906 L967.3281,292.4688 C967.3281,292.0313 967.3125,291.9063 967.2188,291.75 C967.0625,291.4844 966.7813,291.3438 966.4844,291.3438 C966.1875,291.3438 965.9844,291.4375 965.7656,291.75 L965.5938,291.6719 Z " fill="#000000"/><text fill="#000000" font-family="sans-serif" font-size="12" lengthAdjust="spacingAndGlyphs" textLength="52" x="983.75" y="300.1543">PlayView</text><line style="stroke:#A80036;stroke-width:1.5;" x1="917" x2="1070" y1="312" y2="312"/><line style="stroke:#A80036;stroke-width:1.5;" x1="917" x2="1070" y1="320" y2="320"/><polygon fill="#4177AF" points="927,327,923,333,931,333" style="stroke:#1963A0;stroke-width:1.0;"/><text fill="#000000" font-family="sans-serif" font-size="11" lengthAdjust="spacingAndGlyphs" textLength="129" x="936" y="334.2104">interact(PlayController)</text><rect fill="#F24D5C" height="6" style="stroke:#C82930;stroke-width:1.0;" width="6" x="924" y="340.8047"/><text fill="#000000" font-family="sans-serif" font-size="11" lengthAdjust="spacingAndGlyphs" textLength="104" x="936" y="347.0151">put(PlayController)</text><rect fill="#F24D5C" height="6" style="stroke:#C82930;stroke-width:1.0;" width="6" x="924" y="353.6094"/><text fill="#000000" font-family="sans-serif" font-size="11" lengthAdjust="spacingAndGlyphs" textLength="119" x="936" y="359.8198">move(PlayController)</text><!--MD5=[863eeac66a77264bd74e28cbddefcd23]
class tictactoe.views.console.ResumeView--><rect codeLine="74" fill="#FEFECE" filter="url(#fy9jps0s4i63o)" height="60.8047" id="tictactoe.views.console.ResumeView" style="stroke:#A80036;stroke-width:1.5;" width="232" x="1300.5" y="292.5"/><ellipse cx="1373.75" cy="308.5" fill="#ADD1B2" rx="11" ry="11" style="stroke:#A80036;stroke-width:1.0;"/><path d="M1376.0938,304.1719 C1375.1563,303.7344 1374.5625,303.5938 1373.6875,303.5938 C1371.0625,303.5938 1369.0625,305.6719 1369.0625,308.3906 L1369.0625,309.5156 C1369.0625,312.0938 1371.1719,313.9844 1374.0625,313.9844 C1375.2813,313.9844 1376.4375,313.6875 1377.1875,313.1406 C1377.7656,312.7344 1378.0938,312.2813 1378.0938,311.8906 C1378.0938,311.4375 1377.7031,311.0469 1377.2344,311.0469 C1377.0156,311.0469 1376.8125,311.125 1376.625,311.3125 C1376.1719,311.7969 1376.1719,311.7969 1375.9844,311.8906 C1375.5625,312.1563 1374.875,312.2813 1374.1094,312.2813 C1372.0625,312.2813 1370.7656,311.1875 1370.7656,309.4844 L1370.7656,308.3906 C1370.7656,306.6094 1372.0156,305.2969 1373.75,305.2969 C1374.3281,305.2969 1374.9375,305.4531 1375.4063,305.7031 C1375.8906,305.9844 1376.0625,306.2031 1376.1563,306.6094 C1376.2188,307.0156 1376.25,307.1406 1376.3906,307.2656 C1376.5313,307.4063 1376.7656,307.5156 1376.9844,307.5156 C1377.25,307.5156 1377.5156,307.375 1377.6875,307.1563 C1377.7969,307 1377.8281,306.8125 1377.8281,306.3906 L1377.8281,304.9688 C1377.8281,304.5313 1377.8125,304.4063 1377.7188,304.25 C1377.5625,303.9844 1377.2813,303.8438 1376.9844,303.8438 C1376.6875,303.8438 1376.4844,303.9375 1376.2656,304.25 L1376.0938,304.1719 Z " fill="#000000"/><text fill="#000000" font-family="sans-serif" font-size="12" lengthAdjust="spacingAndGlyphs" textLength="77" x="1394.25" y="312.6543">ResumeView</text><line style="stroke:#A80036;stroke-width:1.5;" x1="1301.5" x2="1531.5" y1="324.5" y2="324.5"/><line style="stroke:#A80036;stroke-width:1.5;" x1="1301.5" x2="1531.5" y1="332.5" y2="332.5"/><polygon fill="#4177AF" points="1311.5,339.5,1307.5,345.5,1315.5,345.5" style="stroke:#1963A0;stroke-width:1.0;"/><text fill="#000000" font-family="sans-serif" font-size="11" lengthAdjust="spacingAndGlyphs" textLength="206" x="1320.5" y="346.7104">interact(ResumeController): boolean</text><!--MD5=[8830b246a550294711e6eb5af1606829]
class tictactoe.views.console.CoordinateView--><rect codeLine="29" fill="#FEFECE" filter="url(#fy9jps0s4i63o)" height="73.6094" id="tictactoe.views.console.CoordinateView" style="stroke:#A80036;stroke-width:1.5;" width="202" x="1123.5" y="426"/><ellipse cx="1172.75" cy="442" fill="#ADD1B2" rx="11" ry="11" style="stroke:#A80036;stroke-width:1.0;"/><path d="M1175.0938,437.6719 C1174.1563,437.2344 1173.5625,437.0938 1172.6875,437.0938 C1170.0625,437.0938 1168.0625,439.1719 1168.0625,441.8906 L1168.0625,443.0156 C1168.0625,445.5938 1170.1719,447.4844 1173.0625,447.4844 C1174.2813,447.4844 1175.4375,447.1875 1176.1875,446.6406 C1176.7656,446.2344 1177.0938,445.7813 1177.0938,445.3906 C1177.0938,444.9375 1176.7031,444.5469 1176.2344,444.5469 C1176.0156,444.5469 1175.8125,444.625 1175.625,444.8125 C1175.1719,445.2969 1175.1719,445.2969 1174.9844,445.3906 C1174.5625,445.6563 1173.875,445.7813 1173.1094,445.7813 C1171.0625,445.7813 1169.7656,444.6875 1169.7656,442.9844 L1169.7656,441.8906 C1169.7656,440.1094 1171.0156,438.7969 1172.75,438.7969 C1173.3281,438.7969 1173.9375,438.9531 1174.4063,439.2031 C1174.8906,439.4844 1175.0625,439.7031 1175.1563,440.1094 C1175.2188,440.5156 1175.25,440.6406 1175.3906,440.7656 C1175.5313,440.9063 1175.7656,441.0156 1175.9844,441.0156 C1176.25,441.0156 1176.5156,440.875 1176.6875,440.6563 C1176.7969,440.5 1176.8281,440.3125 1176.8281,439.8906 L1176.8281,438.4688 C1176.8281,438.0313 1176.8125,437.9063 1176.7188,437.75 C1176.5625,437.4844 1176.2813,437.3438 1175.9844,437.3438 C1175.6875,437.3438 1175.4844,437.4375 1175.2656,437.75 L1175.0938,437.6719 Z " fill="#000000"/><text fill="#000000" font-family="sans-serif" font-size="12" lengthAdjust="spacingAndGlyphs" textLength="95" x="1193.25" y="446.1543">CoordinateView</text><line style="stroke:#A80036;stroke-width:1.5;" x1="1124.5" x2="1324.5" y1="458" y2="458"/><line style="stroke:#A80036;stroke-width:1.5;" x1="1124.5" x2="1324.5" y1="466" y2="466"/><ellipse cx="1134.5" cy="477" fill="#84BE84" rx="3" ry="3" style="stroke:#038048;stroke-width:1.0;"/><text fill="#000000" font-family="sans-serif" font-size="11" lengthAdjust="spacingAndGlyphs" textLength="176" x="1143.5" y="480.2104">CoordinateView(PlayController)</text><ellipse cx="1134.5" cy="489.8047" fill="#84BE84" rx="3" ry="3" style="stroke:#038048;stroke-width:1.0;"/><text fill="#000000" font-family="sans-serif" font-size="11" lengthAdjust="spacingAndGlyphs" textLength="136" x="1143.5" y="493.0151">read(String): Coordinate</text><!--MD5=[1ca4e66fd27a79cb5d7093d90b3139a4]
class tictactoe.views.console.ErrorView--><rect codeLine="39" fill="#FEFECE" filter="url(#fy9jps0s4i63o)" height="73.6094" id="tictactoe.views.console.ErrorView" style="stroke:#A80036;stroke-width:1.5;" width="114" x="921.5" y="560"/><ellipse cx="946.85" cy="576" fill="#ADD1B2" rx="11" ry="11" style="stroke:#A80036;stroke-width:1.0;"/><path d="M949.1938,571.6719 C948.2563,571.2344 947.6625,571.0938 946.7875,571.0938 C944.1625,571.0938 942.1625,573.1719 942.1625,575.8906 L942.1625,577.0156 C942.1625,579.5938 944.2719,581.4844 947.1625,581.4844 C948.3813,581.4844 949.5375,581.1875 950.2875,580.6406 C950.8656,580.2344 951.1938,579.7813 951.1938,579.3906 C951.1938,578.9375 950.8031,578.5469 950.3344,578.5469 C950.1156,578.5469 949.9125,578.625 949.725,578.8125 C949.2719,579.2969 949.2719,579.2969 949.0844,579.3906 C948.6625,579.6563 947.975,579.7813 947.2094,579.7813 C945.1625,579.7813 943.8656,578.6875 943.8656,576.9844 L943.8656,575.8906 C943.8656,574.1094 945.1156,572.7969 946.85,572.7969 C947.4281,572.7969 948.0375,572.9531 948.5063,573.2031 C948.9906,573.4844 949.1625,573.7031 949.2563,574.1094 C949.3188,574.5156 949.35,574.6406 949.4906,574.7656 C949.6313,574.9063 949.8656,575.0156 950.0844,575.0156 C950.35,575.0156 950.6156,574.875 950.7875,574.6563 C950.8969,574.5 950.9281,574.3125 950.9281,573.8906 L950.9281,572.4688 C950.9281,572.0313 950.9125,571.9063 950.8188,571.75 C950.6625,571.4844 950.3813,571.3438 950.0844,571.3438 C949.7875,571.3438 949.5844,571.4375 949.3656,571.75 L949.1938,571.6719 Z " fill="#000000"/><text fill="#000000" font-family="sans-serif" font-size="12" lengthAdjust="spacingAndGlyphs" textLength="59" x="963.15" y="580.1543">ErrorView</text><line style="stroke:#A80036;stroke-width:1.5;" x1="922.5" x2="1034.5" y1="592" y2="592"/><line style="stroke:#A80036;stroke-width:1.5;" x1="922.5" x2="1034.5" y1="600" y2="600"/><polygon fill="#4177AF" points="932.5,607,928.5,613,936.5,613" style="stroke:#1963A0;stroke-width:1.0;"/><text fill="#000000" font-family="sans-serif" font-size="11" lengthAdjust="spacingAndGlyphs" textLength="88" x="941.5" y="614.2104">ErrorView(Error)</text><polygon fill="#4177AF" points="932.5,619.8047,928.5,625.8047,936.5,625.8047" style="stroke:#1963A0;stroke-width:1.0;"/><text fill="#000000" font-family="sans-serif" font-size="11" lengthAdjust="spacingAndGlyphs" textLength="46" x="941.5" y="627.0151">writeln()</text><!--MD5=[270aad5bca7cd81b5a24665b2403b70b]
class tictactoe.views.console.BoardView--><rect codeLine="47" fill="#FEFECE" filter="url(#fy9jps0s4i63o)" height="73.6094" id="tictactoe.views.console.BoardView" style="stroke:#A80036;stroke-width:1.5;" width="150" x="1382.5" y="426"/><ellipse cx="1421.35" cy="442" fill="#ADD1B2" rx="11" ry="11" style="stroke:#A80036;stroke-width:1.0;"/><path d="M1423.6938,437.6719 C1422.7563,437.2344 1422.1625,437.0938 1421.2875,437.0938 C1418.6625,437.0938 1416.6625,439.1719 1416.6625,441.8906 L1416.6625,443.0156 C1416.6625,445.5938 1418.7719,447.4844 1421.6625,447.4844 C1422.8813,447.4844 1424.0375,447.1875 1424.7875,446.6406 C1425.3656,446.2344 1425.6938,445.7813 1425.6938,445.3906 C1425.6938,444.9375 1425.3031,444.5469 1424.8344,444.5469 C1424.6156,444.5469 1424.4125,444.625 1424.225,444.8125 C1423.7719,445.2969 1423.7719,445.2969 1423.5844,445.3906 C1423.1625,445.6563 1422.475,445.7813 1421.7094,445.7813 C1419.6625,445.7813 1418.3656,444.6875 1418.3656,442.9844 L1418.3656,441.8906 C1418.3656,440.1094 1419.6156,438.7969 1421.35,438.7969 C1421.9281,438.7969 1422.5375,438.9531 1423.0063,439.2031 C1423.4906,439.4844 1423.6625,439.7031 1423.7563,440.1094 C1423.8188,440.5156 1423.85,440.6406 1423.9906,440.7656 C1424.1313,440.9063 1424.3656,441.0156 1424.5844,441.0156 C1424.85,441.0156 1425.1156,440.875 1425.2875,440.6563 C1425.3969,440.5 1425.4281,440.3125 1425.4281,439.8906 L1425.4281,438.4688 C1425.4281,438.0313 1425.4125,437.9063 1425.3188,437.75 C1425.1625,437.4844 1424.8813,437.3438 1424.5844,437.3438 C1424.2875,437.3438 1424.0844,437.4375 1423.8656,437.75 L1423.6938,437.6719 Z " fill="#000000"/><text fill="#000000" font-family="sans-serif" font-size="12" lengthAdjust="spacingAndGlyphs" textLength="65" x="1440.65" y="446.1543">BoardView</text><line style="stroke:#A80036;stroke-width:1.5;" x1="1383.5" x2="1531.5" y1="458" y2="458"/><line style="stroke:#A80036;stroke-width:1.5;" x1="1383.5" x2="1531.5" y1="466" y2="466"/><polygon fill="#4177AF" points="1393.5,473,1389.5,479,1397.5,479" style="stroke:#1963A0;stroke-width:1.0;"/><text fill="#000000" font-family="sans-serif" font-size="11" lengthAdjust="spacingAndGlyphs" textLength="124" x="1402.5" y="480.2104">BoardView(Controller)</text><polygon fill="#4177AF" points="1393.5,485.8047,1389.5,491.8047,1397.5,491.8047" style="stroke:#1963A0;stroke-width:1.0;"/><text fill="#000000" font-family="sans-serif" font-size="11" lengthAdjust="spacingAndGlyphs" textLength="36" x="1402.5" y="493.0151">write()</text><!--MD5=[85374d0a3ee4b3ef5b557089b06e5446]
class tictactoe.views.console.TokenView--><rect codeLine="90" fill="#FEFECE" filter="url(#fy9jps0s4i63o)" height="73.6094" id="tictactoe.views.console.TokenView" style="stroke:#A80036;stroke-width:1.5;" width="132" x="1070.5" y="560"/><ellipse cx="1100.8" cy="576" fill="#ADD1B2" rx="11" ry="11" style="stroke:#A80036;stroke-width:1.0;"/><path d="M1103.1438,571.6719 C1102.2063,571.2344 1101.6125,571.0938 1100.7375,571.0938 C1098.1125,571.0938 1096.1125,573.1719 1096.1125,575.8906 L1096.1125,577.0156 C1096.1125,579.5938 1098.2219,581.4844 1101.1125,581.4844 C1102.3313,581.4844 1103.4875,581.1875 1104.2375,580.6406 C1104.8156,580.2344 1105.1438,579.7813 1105.1438,579.3906 C1105.1438,578.9375 1104.7531,578.5469 1104.2844,578.5469 C1104.0656,578.5469 1103.8625,578.625 1103.675,578.8125 C1103.2219,579.2969 1103.2219,579.2969 1103.0344,579.3906 C1102.6125,579.6563 1101.925,579.7813 1101.1594,579.7813 C1099.1125,579.7813 1097.8156,578.6875 1097.8156,576.9844 L1097.8156,575.8906 C1097.8156,574.1094 1099.0656,572.7969 1100.8,572.7969 C1101.3781,572.7969 1101.9875,572.9531 1102.4563,573.2031 C1102.9406,573.4844 1103.1125,573.7031 1103.2063,574.1094 C1103.2688,574.5156 1103.3,574.6406 1103.4406,574.7656 C1103.5813,574.9063 1103.8156,575.0156 1104.0344,575.0156 C1104.3,575.0156 1104.5656,574.875 1104.7375,574.6563 C1104.8469,574.5 1104.8781,574.3125 1104.8781,573.8906 L1104.8781,572.4688 C1104.8781,572.0313 1104.8625,571.9063 1104.7688,571.75 C1104.6125,571.4844 1104.3313,571.3438 1104.0344,571.3438 C1103.7375,571.3438 1103.5344,571.4375 1103.3156,571.75 L1103.1438,571.6719 Z " fill="#000000"/><text fill="#000000" font-family="sans-serif" font-size="12" lengthAdjust="spacingAndGlyphs" textLength="66" x="1118.2" y="580.1543">TokenView</text><line style="stroke:#A80036;stroke-width:1.5;" x1="1071.5" x2="1201.5" y1="592" y2="592"/><line style="stroke:#A80036;stroke-width:1.5;" x1="1071.5" x2="1201.5" y1="600" y2="600"/><polygon fill="#4177AF" points="1081.5,607,1077.5,613,1085.5,613" style="stroke:#1963A0;stroke-width:1.0;"/><text fill="#000000" font-family="sans-serif" font-size="11" lengthAdjust="spacingAndGlyphs" textLength="106" x="1090.5" y="614.2104">TokenView(Token)</text><polygon fill="#4177AF" points="1081.5,619.8047,1077.5,625.8047,1085.5,625.8047" style="stroke:#1963A0;stroke-width:1.0;"/><text fill="#000000" font-family="sans-serif" font-size="11" lengthAdjust="spacingAndGlyphs" textLength="36" x="1090.5" y="627.0151">write()</text><!--MD5=[c045e12321b83266d36d22b9096c24ea]
class View--><rect codeLine="1" fill="#FEFECE" filter="url(#fy9jps0s4i63o)" height="53.9375" id="View" style="stroke:#A80036;stroke-width:1.5;" width="126" x="1237.5" y="7"/><ellipse cx="1252.5" cy="25.9688" fill="#A9DCDF" rx="11" ry="11" style="stroke:#A80036;stroke-width:1.0;"/><path d="M1254.5781,27.7813 L1254.9688,28.7656 L1254.5781,28.7656 C1254.125,28.7656 1254.0156,28.7813 1253.8594,28.8906 C1253.6094,29.0469 1253.4531,29.3281 1253.4531,29.625 C1253.4531,29.8906 1253.5938,30.1406 1253.8125,30.2969 C1253.9531,30.4219 1254.1563,30.4688 1254.5781,30.4688 L1256.9375,30.4688 C1257.2969,30.4688 1257.5156,30.4375 1257.6563,30.3438 C1257.9063,30.2031 1258.0625,29.9063 1258.0625,29.625 C1258.0625,29.3438 1257.9219,29.0938 1257.7031,28.9375 C1257.5313,28.7969 1257.375,28.7656 1256.9063,28.7656 L1253.5156,20.5625 L1249.8438,20.5625 C1249.3906,20.5625 1249.2656,20.5781 1249.1094,20.6719 C1248.8594,20.8438 1248.7031,21.125 1248.7031,21.4063 C1248.7031,21.6875 1248.8438,21.9375 1249.0625,22.1094 C1249.2344,22.2188 1249.4063,22.25 1249.8438,22.25 L1250.9219,22.25 L1248.2813,28.7656 C1247.8594,28.7656 1247.7031,28.7813 1247.5469,28.8906 C1247.2969,29.0469 1247.1406,29.3281 1247.1406,29.625 C1247.1406,30.1875 1247.5156,30.4688 1248.2656,30.4688 L1250.5313,30.4688 C1250.8906,30.4688 1251.1094,30.4375 1251.2344,30.3438 C1251.5,30.2031 1251.6406,29.9063 1251.6406,29.625 C1251.6406,29.3438 1251.5156,29.0938 1251.2969,28.9219 C1251.125,28.7969 1250.9844,28.7656 1250.5313,28.7656 L1250.1406,28.7656 L1250.5313,27.7813 L1254.5781,27.7813 Z M1253.875,26.0781 L1251.2031,26.0781 L1252.5469,22.8125 L1253.875,26.0781 Z " fill="#000000"/><text fill="#000000" font-family="sans-serif" font-size="12" font-style="italic" lengthAdjust="spacingAndGlyphs" textLength="94" x="1266.5" y="23.1387">tictactoe.views.</text><text fill="#000000" font-family="sans-serif" font-size="12" font-style="italic" lengthAdjust="spacingAndGlyphs" textLength="28" x="1299.5" y="37.1074">View</text><line style="stroke:#A80036;stroke-width:1.5;" x1="1238.5" x2="1362.5" y1="44.9375" y2="44.9375"/><line style="stroke:#A80036;stroke-width:1.5;" x1="1238.5" x2="1362.5" y1="52.9375" y2="52.9375"/><!--MD5=[b8cfd8c4119a3b0a7a46bfc5fc780f85]
class Error--><rect codeLine="2" fill="#FEFECE" filter="url(#fy9jps0s4i63o)" height="53.9375" id="Error" style="stroke:#A80036;stroke-width:1.5;" width="135" x="911" y="694"/><ellipse cx="926" cy="712.9688" fill="#ADD1B2" rx="11" ry="11" style="stroke:#A80036;stroke-width:1.0;"/><path d="M928.3438,708.6406 C927.4063,708.2031 926.8125,708.0625 925.9375,708.0625 C923.3125,708.0625 921.3125,710.1406 921.3125,712.8594 L921.3125,713.9844 C921.3125,716.5625 923.4219,718.4531 926.3125,718.4531 C927.5313,718.4531 928.6875,718.1563 929.4375,717.6094 C930.0156,717.2031 930.3438,716.75 930.3438,716.3594 C930.3438,715.9063 929.9531,715.5156 929.4844,715.5156 C929.2656,715.5156 929.0625,715.5938 928.875,715.7813 C928.4219,716.2656 928.4219,716.2656 928.2344,716.3594 C927.8125,716.625 927.125,716.75 926.3594,716.75 C924.3125,716.75 923.0156,715.6563 923.0156,713.9531 L923.0156,712.8594 C923.0156,711.0781 924.2656,709.7656 926,709.7656 C926.5781,709.7656 927.1875,709.9219 927.6563,710.1719 C928.1406,710.4531 928.3125,710.6719 928.4063,711.0781 C928.4688,711.4844 928.5,711.6094 928.6406,711.7344 C928.7813,711.875 929.0156,711.9844 929.2344,711.9844 C929.5,711.9844 929.7656,711.8438 929.9375,711.625 C930.0469,711.4688 930.0781,711.2813 930.0781,710.8594 L930.0781,709.4375 C930.0781,709 930.0625,708.875 929.9688,708.7188 C929.8125,708.4531 929.5313,708.3125 929.2344,708.3125 C928.9375,708.3125 928.7344,708.4063 928.5156,708.7188 L928.3438,708.6406 Z " fill="#000000"/><text fill="#000000" font-family="sans-serif" font-size="12" lengthAdjust="spacingAndGlyphs" textLength="103" x="940" y="710.1387">tictactoe.models.</text><text fill="#000000" font-family="sans-serif" font-size="12" lengthAdjust="spacingAndGlyphs" textLength="30" x="976.5" y="724.1074">Error</text><line style="stroke:#A80036;stroke-width:1.5;" x1="912" x2="1045" y1="731.9375" y2="731.9375"/><line style="stroke:#A80036;stroke-width:1.5;" x1="912" x2="1045" y1="739.9375" y2="739.9375"/><!--MD5=[8c7d7abc12e214c3cc12c9ab70edee11]
class Coordinate--><rect codeLine="3" fill="#FEFECE" filter="url(#fy9jps0s4i63o)" height="53.9375" id="Coordinate" style="stroke:#A80036;stroke-width:1.5;" width="135" x="1755" y="570"/><ellipse cx="1770" cy="588.9688" fill="#ADD1B2" rx="11" ry="11" style="stroke:#A80036;stroke-width:1.0;"/><path d="M1772.3438,584.6406 C1771.4063,584.2031 1770.8125,584.0625 1769.9375,584.0625 C1767.3125,584.0625 1765.3125,586.1406 1765.3125,588.8594 L1765.3125,589.9844 C1765.3125,592.5625 1767.4219,594.4531 1770.3125,594.4531 C1771.5313,594.4531 1772.6875,594.1563 1773.4375,593.6094 C1774.0156,593.2031 1774.3438,592.75 1774.3438,592.3594 C1774.3438,591.9063 1773.9531,591.5156 1773.4844,591.5156 C1773.2656,591.5156 1773.0625,591.5938 1772.875,591.7813 C1772.4219,592.2656 1772.4219,592.2656 1772.2344,592.3594 C1771.8125,592.625 1771.125,592.75 1770.3594,592.75 C1768.3125,592.75 1767.0156,591.6563 1767.0156,589.9531 L1767.0156,588.8594 C1767.0156,587.0781 1768.2656,585.7656 1770,585.7656 C1770.5781,585.7656 1771.1875,585.9219 1771.6563,586.1719 C1772.1406,586.4531 1772.3125,586.6719 1772.4063,587.0781 C1772.4688,587.4844 1772.5,587.6094 1772.6406,587.7344 C1772.7813,587.875 1773.0156,587.9844 1773.2344,587.9844 C1773.5,587.9844 1773.7656,587.8438 1773.9375,587.625 C1774.0469,587.4688 1774.0781,587.2813 1774.0781,586.8594 L1774.0781,585.4375 C1774.0781,585 1774.0625,584.875 1773.9688,584.7188 C1773.8125,584.4531 1773.5313,584.3125 1773.2344,584.3125 C1772.9375,584.3125 1772.7344,584.4063 1772.5156,584.7188 L1772.3438,584.6406 Z " fill="#000000"/><text fill="#000000" font-family="sans-serif" font-size="12" lengthAdjust="spacingAndGlyphs" textLength="103" x="1784" y="586.1387">tictactoe.models.</text><text fill="#000000" font-family="sans-serif" font-size="12" lengthAdjust="spacingAndGlyphs" textLength="66" x="1802.5" y="600.1074">Coordinate</text><line style="stroke:#A80036;stroke-width:1.5;" x1="1756" x2="1889" y1="607.9375" y2="607.9375"/><line style="stroke:#A80036;stroke-width:1.5;" x1="1756" x2="1889" y1="615.9375" y2="615.9375"/><!--MD5=[315b61b427ec618d6861d47eee00cca3]
class Console--><rect codeLine="4" fill="#FEFECE" filter="url(#fy9jps0s4i63o)" height="53.9375" id="Console" style="stroke:#A80036;stroke-width:1.5;" width="130" x="2037.5" y="694"/><ellipse cx="2052.5" cy="712.9688" fill="#ADD1B2" rx="11" ry="11" style="stroke:#A80036;stroke-width:1.0;"/><path d="M2054.8438,708.6406 C2053.9063,708.2031 2053.3125,708.0625 2052.4375,708.0625 C2049.8125,708.0625 2047.8125,710.1406 2047.8125,712.8594 L2047.8125,713.9844 C2047.8125,716.5625 2049.9219,718.4531 2052.8125,718.4531 C2054.0313,718.4531 2055.1875,718.1563 2055.9375,717.6094 C2056.5156,717.2031 2056.8438,716.75 2056.8438,716.3594 C2056.8438,715.9063 2056.4531,715.5156 2055.9844,715.5156 C2055.7656,715.5156 2055.5625,715.5938 2055.375,715.7813 C2054.9219,716.2656 2054.9219,716.2656 2054.7344,716.3594 C2054.3125,716.625 2053.625,716.75 2052.8594,716.75 C2050.8125,716.75 2049.5156,715.6563 2049.5156,713.9531 L2049.5156,712.8594 C2049.5156,711.0781 2050.7656,709.7656 2052.5,709.7656 C2053.0781,709.7656 2053.6875,709.9219 2054.1563,710.1719 C2054.6406,710.4531 2054.8125,710.6719 2054.9063,711.0781 C2054.9688,711.4844 2055,711.6094 2055.1406,711.7344 C2055.2813,711.875 2055.5156,711.9844 2055.7344,711.9844 C2056,711.9844 2056.2656,711.8438 2056.4375,711.625 C2056.5469,711.4688 2056.5781,711.2813 2056.5781,710.8594 L2056.5781,709.4375 C2056.5781,709 2056.5625,708.875 2056.4688,708.7188 C2056.3125,708.4531 2056.0313,708.3125 2055.7344,708.3125 C2055.4375,708.3125 2055.2344,708.4063 2055.0156,708.7188 L2054.8438,708.6406 Z " fill="#000000"/><text fill="#000000" font-family="sans-serif" font-size="12" lengthAdjust="spacingAndGlyphs" textLength="98" x="2066.5" y="710.1387">usantatecla.utils.</text><text fill="#000000" font-family="sans-serif" font-size="12" lengthAdjust="spacingAndGlyphs" textLength="49" x="2091" y="724.1074">Console</text><line style="stroke:#A80036;stroke-width:1.5;" x1="2038.5" x2="2166.5" y1="731.9375" y2="731.9375"/><line style="stroke:#A80036;stroke-width:1.5;" x1="2038.5" x2="2166.5" y1="739.9375" y2="739.9375"/><!--MD5=[1d7ba1c7002d54515419844fbd155368]
class Controller--><rect codeLine="5" fill="#FEFECE" filter="url(#fy9jps0s4i63o)" height="53.9375" id="Controller" style="stroke:#A80036;stroke-width:1.5;" width="155" x="1565" y="570"/><ellipse cx="1580" cy="588.9688" fill="#ADD1B2" rx="11" ry="11" style="stroke:#A80036;stroke-width:1.0;"/><path d="M1582.3438,584.6406 C1581.4063,584.2031 1580.8125,584.0625 1579.9375,584.0625 C1577.3125,584.0625 1575.3125,586.1406 1575.3125,588.8594 L1575.3125,589.9844 C1575.3125,592.5625 1577.4219,594.4531 1580.3125,594.4531 C1581.5313,594.4531 1582.6875,594.1563 1583.4375,593.6094 C1584.0156,593.2031 1584.3438,592.75 1584.3438,592.3594 C1584.3438,591.9063 1583.9531,591.5156 1583.4844,591.5156 C1583.2656,591.5156 1583.0625,591.5938 1582.875,591.7813 C1582.4219,592.2656 1582.4219,592.2656 1582.2344,592.3594 C1581.8125,592.625 1581.125,592.75 1580.3594,592.75 C1578.3125,592.75 1577.0156,591.6563 1577.0156,589.9531 L1577.0156,588.8594 C1577.0156,587.0781 1578.2656,585.7656 1580,585.7656 C1580.5781,585.7656 1581.1875,585.9219 1581.6563,586.1719 C1582.1406,586.4531 1582.3125,586.6719 1582.4063,587.0781 C1582.4688,587.4844 1582.5,587.6094 1582.6406,587.7344 C1582.7813,587.875 1583.0156,587.9844 1583.2344,587.9844 C1583.5,587.9844 1583.7656,587.8438 1583.9375,587.625 C1584.0469,587.4688 1584.0781,587.2813 1584.0781,586.8594 L1584.0781,585.4375 C1584.0781,585 1584.0625,584.875 1583.9688,584.7188 C1583.8125,584.4531 1583.5313,584.3125 1583.2344,584.3125 C1582.9375,584.3125 1582.7344,584.4063 1582.5156,584.7188 L1582.3438,584.6406 Z " fill="#000000"/><text fill="#000000" font-family="sans-serif" font-size="12" lengthAdjust="spacingAndGlyphs" textLength="123" x="1594" y="586.1387">tictactoe.controllers.</text><text fill="#000000" font-family="sans-serif" font-size="12" lengthAdjust="spacingAndGlyphs" textLength="59" x="1626" y="600.1074">Controller</text><line style="stroke:#A80036;stroke-width:1.5;" x1="1566" x2="1719" y1="607.9375" y2="607.9375"/><line style="stroke:#A80036;stroke-width:1.5;" x1="1566" x2="1719" y1="615.9375" y2="615.9375"/><!--MD5=[cc8600b868f8dfab2c8d497bce62f90a]
class PlayController--><rect codeLine="6" fill="#FEFECE" filter="url(#fy9jps0s4i63o)" height="53.9375" id="PlayController" style="stroke:#A80036;stroke-width:1.5;" width="155" x="7" y="570"/><ellipse cx="22" cy="588.9688" fill="#ADD1B2" rx="11" ry="11" style="stroke:#A80036;stroke-width:1.0;"/><path d="M24.3438,584.6406 C23.4063,584.2031 22.8125,584.0625 21.9375,584.0625 C19.3125,584.0625 17.3125,586.1406 17.3125,588.8594 L17.3125,589.9844 C17.3125,592.5625 19.4219,594.4531 22.3125,594.4531 C23.5313,594.4531 24.6875,594.1563 25.4375,593.6094 C26.0156,593.2031 26.3438,592.75 26.3438,592.3594 C26.3438,591.9063 25.9531,591.5156 25.4844,591.5156 C25.2656,591.5156 25.0625,591.5938 24.875,591.7813 C24.4219,592.2656 24.4219,592.2656 24.2344,592.3594 C23.8125,592.625 23.125,592.75 22.3594,592.75 C20.3125,592.75 19.0156,591.6563 19.0156,589.9531 L19.0156,588.8594 C19.0156,587.0781 20.2656,585.7656 22,585.7656 C22.5781,585.7656 23.1875,585.9219 23.6563,586.1719 C24.1406,586.4531 24.3125,586.6719 24.4063,587.0781 C24.4688,587.4844 24.5,587.6094 24.6406,587.7344 C24.7813,587.875 25.0156,587.9844 25.2344,587.9844 C25.5,587.9844 25.7656,587.8438 25.9375,587.625 C26.0469,587.4688 26.0781,587.2813 26.0781,586.8594 L26.0781,585.4375 C26.0781,585 26.0625,584.875 25.9688,584.7188 C25.8125,584.4531 25.5313,584.3125 25.2344,584.3125 C24.9375,584.3125 24.7344,584.4063 24.5156,584.7188 L24.3438,584.6406 Z " fill="#000000"/><text fill="#000000" font-family="sans-serif" font-size="12" lengthAdjust="spacingAndGlyphs" textLength="123" x="36" y="586.1387">tictactoe.controllers.</text><text fill="#000000" font-family="sans-serif" font-size="12" lengthAdjust="spacingAndGlyphs" textLength="82" x="56.5" y="600.1074">PlayController</text><line style="stroke:#A80036;stroke-width:1.5;" x1="8" x2="161" y1="607.9375" y2="607.9375"/><line style="stroke:#A80036;stroke-width:1.5;" x1="8" x2="161" y1="615.9375" y2="615.9375"/><!--MD5=[1a47bbf44ccee225df9b18c5b6629853]
class ResumeController--><rect codeLine="7" fill="#FEFECE" filter="url(#fy9jps0s4i63o)" height="53.9375" id="ResumeController" style="stroke:#A80036;stroke-width:1.5;" width="155" x="2576" y="436"/><ellipse cx="2591" cy="454.9688" fill="#ADD1B2" rx="11" ry="11" style="stroke:#A80036;stroke-width:1.0;"/><path d="M2593.3438,450.6406 C2592.4063,450.2031 2591.8125,450.0625 2590.9375,450.0625 C2588.3125,450.0625 2586.3125,452.1406 2586.3125,454.8594 L2586.3125,455.9844 C2586.3125,458.5625 2588.4219,460.4531 2591.3125,460.4531 C2592.5313,460.4531 2593.6875,460.1563 2594.4375,459.6094 C2595.0156,459.2031 2595.3438,458.75 2595.3438,458.3594 C2595.3438,457.9063 2594.9531,457.5156 2594.4844,457.5156 C2594.2656,457.5156 2594.0625,457.5938 2593.875,457.7813 C2593.4219,458.2656 2593.4219,458.2656 2593.2344,458.3594 C2592.8125,458.625 2592.125,458.75 2591.3594,458.75 C2589.3125,458.75 2588.0156,457.6563 2588.0156,455.9531 L2588.0156,454.8594 C2588.0156,453.0781 2589.2656,451.7656 2591,451.7656 C2591.5781,451.7656 2592.1875,451.9219 2592.6563,452.1719 C2593.1406,452.4531 2593.3125,452.6719 2593.4063,453.0781 C2593.4688,453.4844 2593.5,453.6094 2593.6406,453.7344 C2593.7813,453.875 2594.0156,453.9844 2594.2344,453.9844 C2594.5,453.9844 2594.7656,453.8438 2594.9375,453.625 C2595.0469,453.4688 2595.0781,453.2813 2595.0781,452.8594 L2595.0781,451.4375 C2595.0781,451 2595.0625,450.875 2594.9688,450.7188 C2594.8125,450.4531 2594.5313,450.3125 2594.2344,450.3125 C2593.9375,450.3125 2593.7344,450.4063 2593.5156,450.7188 L2593.3438,450.6406 Z " fill="#000000"/><text fill="#000000" font-family="sans-serif" font-size="12" lengthAdjust="spacingAndGlyphs" textLength="123" x="2605" y="452.1387">tictactoe.controllers.</text><text fill="#000000" font-family="sans-serif" font-size="12" lengthAdjust="spacingAndGlyphs" textLength="107" x="2613" y="466.1074">ResumeController</text><line style="stroke:#A80036;stroke-width:1.5;" x1="2577" x2="2730" y1="473.9375" y2="473.9375"/><line style="stroke:#A80036;stroke-width:1.5;" x1="2577" x2="2730" y1="481.9375" y2="481.9375"/><!--MD5=[d93cf99d2b92276f27fe8dbf15140505]
class YesNoDialog--><rect codeLine="8" fill="#FEFECE" filter="url(#fy9jps0s4i63o)" height="53.9375" id="YesNoDialog" style="stroke:#A80036;stroke-width:1.5;" width="130" x="592.5" y="436"/><ellipse cx="607.5" cy="454.9688" fill="#ADD1B2" rx="11" ry="11" style="stroke:#A80036;stroke-width:1.0;"/><path d="M609.8438,450.6406 C608.9063,450.2031 608.3125,450.0625 607.4375,450.0625 C604.8125,450.0625 602.8125,452.1406 602.8125,454.8594 L602.8125,455.9844 C602.8125,458.5625 604.9219,460.4531 607.8125,460.4531 C609.0313,460.4531 610.1875,460.1563 610.9375,459.6094 C611.5156,459.2031 611.8438,458.75 611.8438,458.3594 C611.8438,457.9063 611.4531,457.5156 610.9844,457.5156 C610.7656,457.5156 610.5625,457.5938 610.375,457.7813 C609.9219,458.2656 609.9219,458.2656 609.7344,458.3594 C609.3125,458.625 608.625,458.75 607.8594,458.75 C605.8125,458.75 604.5156,457.6563 604.5156,455.9531 L604.5156,454.8594 C604.5156,453.0781 605.7656,451.7656 607.5,451.7656 C608.0781,451.7656 608.6875,451.9219 609.1563,452.1719 C609.6406,452.4531 609.8125,452.6719 609.9063,453.0781 C609.9688,453.4844 610,453.6094 610.1406,453.7344 C610.2813,453.875 610.5156,453.9844 610.7344,453.9844 C611,453.9844 611.2656,453.8438 611.4375,453.625 C611.5469,453.4688 611.5781,453.2813 611.5781,452.8594 L611.5781,451.4375 C611.5781,451 611.5625,450.875 611.4688,450.7188 C611.3125,450.4531 611.0313,450.3125 610.7344,450.3125 C610.4375,450.3125 610.2344,450.4063 610.0156,450.7188 L609.8438,450.6406 Z " fill="#000000"/><text fill="#000000" font-family="sans-serif" font-size="12" lengthAdjust="spacingAndGlyphs" textLength="98" x="621.5" y="452.1387">usantatecla.utils.</text><text fill="#000000" font-family="sans-serif" font-size="12" lengthAdjust="spacingAndGlyphs" textLength="76" x="632.5" y="466.1074">YesNoDialog</text><line style="stroke:#A80036;stroke-width:1.5;" x1="593.5" x2="721.5" y1="473.9375" y2="473.9375"/><line style="stroke:#A80036;stroke-width:1.5;" x1="593.5" x2="721.5" y1="481.9375" y2="481.9375"/><!--MD5=[47c371471411cfedeee61b1a5bdaee47]
class StartController--><rect codeLine="9" fill="#FEFECE" filter="url(#fy9jps0s4i63o)" height="53.9375" id="StartController" style="stroke:#A80036;stroke-width:1.5;" width="155" x="2386" y="436"/><ellipse cx="2401" cy="454.9688" fill="#ADD1B2" rx="11" ry="11" style="stroke:#A80036;stroke-width:1.0;"/><path d="M2403.3438,450.6406 C2402.4063,450.2031 2401.8125,450.0625 2400.9375,450.0625 C2398.3125,450.0625 2396.3125,452.1406 2396.3125,454.8594 L2396.3125,455.9844 C2396.3125,458.5625 2398.4219,460.4531 2401.3125,460.4531 C2402.5313,460.4531 2403.6875,460.1563 2404.4375,459.6094 C2405.0156,459.2031 2405.3438,458.75 2405.3438,458.3594 C2405.3438,457.9063 2404.9531,457.5156 2404.4844,457.5156 C2404.2656,457.5156 2404.0625,457.5938 2403.875,457.7813 C2403.4219,458.2656 2403.4219,458.2656 2403.2344,458.3594 C2402.8125,458.625 2402.125,458.75 2401.3594,458.75 C2399.3125,458.75 2398.0156,457.6563 2398.0156,455.9531 L2398.0156,454.8594 C2398.0156,453.0781 2399.2656,451.7656 2401,451.7656 C2401.5781,451.7656 2402.1875,451.9219 2402.6563,452.1719 C2403.1406,452.4531 2403.3125,452.6719 2403.4063,453.0781 C2403.4688,453.4844 2403.5,453.6094 2403.6406,453.7344 C2403.7813,453.875 2404.0156,453.9844 2404.2344,453.9844 C2404.5,453.9844 2404.7656,453.8438 2404.9375,453.625 C2405.0469,453.4688 2405.0781,453.2813 2405.0781,452.8594 L2405.0781,451.4375 C2405.0781,451 2405.0625,450.875 2404.9688,450.7188 C2404.8125,450.4531 2404.5313,450.3125 2404.2344,450.3125 C2403.9375,450.3125 2403.7344,450.4063 2403.5156,450.7188 L2403.3438,450.6406 Z " fill="#000000"/><text fill="#000000" font-family="sans-serif" font-size="12" lengthAdjust="spacingAndGlyphs" textLength="123" x="2415" y="452.1387">tictactoe.controllers.</text><text fill="#000000" font-family="sans-serif" font-size="12" lengthAdjust="spacingAndGlyphs" textLength="87" x="2433" y="466.1074">StartController</text><line style="stroke:#A80036;stroke-width:1.5;" x1="2387" x2="2540" y1="473.9375" y2="473.9375"/><line style="stroke:#A80036;stroke-width:1.5;" x1="2387" x2="2540" y1="481.9375" y2="481.9375"/><!--MD5=[58767b3ac92ed88fc68bd4b9dc66dad3]
class LimitedIntDialog--><rect codeLine="10" fill="#FEFECE" filter="url(#fy9jps0s4i63o)" height="53.9375" id="LimitedIntDialog" style="stroke:#A80036;stroke-width:1.5;" width="130" x="427.5" y="436"/><ellipse cx="442.5" cy="454.9688" fill="#ADD1B2" rx="11" ry="11" style="stroke:#A80036;stroke-width:1.0;"/><path d="M444.8438,450.6406 C443.9063,450.2031 443.3125,450.0625 442.4375,450.0625 C439.8125,450.0625 437.8125,452.1406 437.8125,454.8594 L437.8125,455.9844 C437.8125,458.5625 439.9219,460.4531 442.8125,460.4531 C444.0313,460.4531 445.1875,460.1563 445.9375,459.6094 C446.5156,459.2031 446.8438,458.75 446.8438,458.3594 C446.8438,457.9063 446.4531,457.5156 445.9844,457.5156 C445.7656,457.5156 445.5625,457.5938 445.375,457.7813 C444.9219,458.2656 444.9219,458.2656 444.7344,458.3594 C444.3125,458.625 443.625,458.75 442.8594,458.75 C440.8125,458.75 439.5156,457.6563 439.5156,455.9531 L439.5156,454.8594 C439.5156,453.0781 440.7656,451.7656 442.5,451.7656 C443.0781,451.7656 443.6875,451.9219 444.1563,452.1719 C444.6406,452.4531 444.8125,452.6719 444.9063,453.0781 C444.9688,453.4844 445,453.6094 445.1406,453.7344 C445.2813,453.875 445.5156,453.9844 445.7344,453.9844 C446,453.9844 446.2656,453.8438 446.4375,453.625 C446.5469,453.4688 446.5781,453.2813 446.5781,452.8594 L446.5781,451.4375 C446.5781,451 446.5625,450.875 446.4688,450.7188 C446.3125,450.4531 446.0313,450.3125 445.7344,450.3125 C445.4375,450.3125 445.2344,450.4063 445.0156,450.7188 L444.8438,450.6406 Z " fill="#000000"/><text fill="#000000" font-family="sans-serif" font-size="12" lengthAdjust="spacingAndGlyphs" textLength="98" x="456.5" y="452.1387">usantatecla.utils.</text><text fill="#000000" font-family="sans-serif" font-size="12" lengthAdjust="spacingAndGlyphs" textLength="95" x="458" y="466.1074">LimitedIntDialog</text><line style="stroke:#A80036;stroke-width:1.5;" x1="428.5" x2="556.5" y1="473.9375" y2="473.9375"/><line style="stroke:#A80036;stroke-width:1.5;" x1="428.5" x2="556.5" y1="481.9375" y2="481.9375"/><!--MD5=[d8c8cfd5ca149094f5b67f9f607a5ec7]
class Token--><rect codeLine="11" fill="#FEFECE" filter="url(#fy9jps0s4i63o)" height="53.9375" id="Token" style="stroke:#A80036;stroke-width:1.5;" width="124" x="268.5" y="436"/><ellipse cx="283.5" cy="454.9688" fill="#ADD1B2" rx="11" ry="11" style="stroke:#A80036;stroke-width:1.0;"/><path d="M285.8438,450.6406 C284.9063,450.2031 284.3125,450.0625 283.4375,450.0625 C280.8125,450.0625 278.8125,452.1406 278.8125,454.8594 L278.8125,455.9844 C278.8125,458.5625 280.9219,460.4531 283.8125,460.4531 C285.0313,460.4531 286.1875,460.1563 286.9375,459.6094 C287.5156,459.2031 287.8438,458.75 287.8438,458.3594 C287.8438,457.9063 287.4531,457.5156 286.9844,457.5156 C286.7656,457.5156 286.5625,457.5938 286.375,457.7813 C285.9219,458.2656 285.9219,458.2656 285.7344,458.3594 C285.3125,458.625 284.625,458.75 283.8594,458.75 C281.8125,458.75 280.5156,457.6563 280.5156,455.9531 L280.5156,454.8594 C280.5156,453.0781 281.7656,451.7656 283.5,451.7656 C284.0781,451.7656 284.6875,451.9219 285.1563,452.1719 C285.6406,452.4531 285.8125,452.6719 285.9063,453.0781 C285.9688,453.4844 286,453.6094 286.1406,453.7344 C286.2813,453.875 286.5156,453.9844 286.7344,453.9844 C287,453.9844 287.2656,453.8438 287.4375,453.625 C287.5469,453.4688 287.5781,453.2813 287.5781,452.8594 L287.5781,451.4375 C287.5781,451 287.5625,450.875 287.4688,450.7188 C287.3125,450.4531 287.0313,450.3125 286.7344,450.3125 C286.4375,450.3125 286.2344,450.4063 286.0156,450.7188 L285.8438,450.6406 Z " fill="#000000"/><text fill="#000000" font-family="sans-serif" font-size="12" lengthAdjust="spacingAndGlyphs" textLength="92" x="297.5" y="452.1387">tictactoe.types.</text><text fill="#000000" font-family="sans-serif" font-size="12" lengthAdjust="spacingAndGlyphs" textLength="37" x="325" y="466.1074">Token</text><line style="stroke:#A80036;stroke-width:1.5;" x1="269.5" x2="391.5" y1="473.9375" y2="473.9375"/><line style="stroke:#A80036;stroke-width:1.5;" x1="269.5" x2="391.5" y1="481.9375" y2="481.9375"/><!--MD5=[bea5b0d46523efab5ea1c1d339f396f0]
class Message--><rect codeLine="12" fill="#FEFECE" filter="url(#fy9jps0s4i63o)" height="53.9375" id="Message" style="stroke:#A80036;stroke-width:1.5;" width="125" x="2186" y="570"/><ellipse cx="2201" cy="588.9688" fill="#ADD1B2" rx="11" ry="11" style="stroke:#A80036;stroke-width:1.0;"/><path d="M2203.3438,584.6406 C2202.4063,584.2031 2201.8125,584.0625 2200.9375,584.0625 C2198.3125,584.0625 2196.3125,586.1406 2196.3125,588.8594 L2196.3125,589.9844 C2196.3125,592.5625 2198.4219,594.4531 2201.3125,594.4531 C2202.5313,594.4531 2203.6875,594.1563 2204.4375,593.6094 C2205.0156,593.2031 2205.3438,592.75 2205.3438,592.3594 C2205.3438,591.9063 2204.9531,591.5156 2204.4844,591.5156 C2204.2656,591.5156 2204.0625,591.5938 2203.875,591.7813 C2203.4219,592.2656 2203.4219,592.2656 2203.2344,592.3594 C2202.8125,592.625 2202.125,592.75 2201.3594,592.75 C2199.3125,592.75 2198.0156,591.6563 2198.0156,589.9531 L2198.0156,588.8594 C2198.0156,587.0781 2199.2656,585.7656 2201,585.7656 C2201.5781,585.7656 2202.1875,585.9219 2202.6563,586.1719 C2203.1406,586.4531 2203.3125,586.6719 2203.4063,587.0781 C2203.4688,587.4844 2203.5,587.6094 2203.6406,587.7344 C2203.7813,587.875 2204.0156,587.9844 2204.2344,587.9844 C2204.5,587.9844 2204.7656,587.8438 2204.9375,587.625 C2205.0469,587.4688 2205.0781,587.2813 2205.0781,586.8594 L2205.0781,585.4375 C2205.0781,585 2205.0625,584.875 2204.9688,584.7188 C2204.8125,584.4531 2204.5313,584.3125 2204.2344,584.3125 C2203.9375,584.3125 2203.7344,584.4063 2203.5156,584.7188 L2203.3438,584.6406 Z " fill="#000000"/><text fill="#000000" font-family="sans-serif" font-size="12" lengthAdjust="spacingAndGlyphs" textLength="93" x="2215" y="586.1387">tictactoe.views.</text><text fill="#000000" font-family="sans-serif" font-size="12" lengthAdjust="spacingAndGlyphs" textLength="55" x="2234" y="600.1074">Message</text><line style="stroke:#A80036;stroke-width:1.5;" x1="2187" x2="2310" y1="607.9375" y2="607.9375"/><line style="stroke:#A80036;stroke-width:1.5;" x1="2187" x2="2310" y1="615.9375" y2="615.9375"/><!--MD5=[86cec68673cafdfc1c204348d5b2cca6]
class ErrorView--><rect codeLine="13" fill="#FEFECE" filter="url(#fy9jps0s4i63o)" height="53.9375" id="ErrorView" style="stroke:#A80036;stroke-width:1.5;" width="125" x="758" y="436"/><ellipse cx="773" cy="454.9688" fill="#ADD1B2" rx="11" ry="11" style="stroke:#A80036;stroke-width:1.0;"/><path d="M775.3438,450.6406 C774.4063,450.2031 773.8125,450.0625 772.9375,450.0625 C770.3125,450.0625 768.3125,452.1406 768.3125,454.8594 L768.3125,455.9844 C768.3125,458.5625 770.4219,460.4531 773.3125,460.4531 C774.5313,460.4531 775.6875,460.1563 776.4375,459.6094 C777.0156,459.2031 777.3438,458.75 777.3438,458.3594 C777.3438,457.9063 776.9531,457.5156 776.4844,457.5156 C776.2656,457.5156 776.0625,457.5938 775.875,457.7813 C775.4219,458.2656 775.4219,458.2656 775.2344,458.3594 C774.8125,458.625 774.125,458.75 773.3594,458.75 C771.3125,458.75 770.0156,457.6563 770.0156,455.9531 L770.0156,454.8594 C770.0156,453.0781 771.2656,451.7656 773,451.7656 C773.5781,451.7656 774.1875,451.9219 774.6563,452.1719 C775.1406,452.4531 775.3125,452.6719 775.4063,453.0781 C775.4688,453.4844 775.5,453.6094 775.6406,453.7344 C775.7813,453.875 776.0156,453.9844 776.2344,453.9844 C776.5,453.9844 776.7656,453.8438 776.9375,453.625 C777.0469,453.4688 777.0781,453.2813 777.0781,452.8594 L777.0781,451.4375 C777.0781,451 777.0625,450.875 776.9688,450.7188 C776.8125,450.4531 776.5313,450.3125 776.2344,450.3125 C775.9375,450.3125 775.7344,450.4063 775.5156,450.7188 L775.3438,450.6406 Z " fill="#000000"/><text fill="#000000" font-family="sans-serif" font-size="12" lengthAdjust="spacingAndGlyphs" textLength="93" x="787" y="452.1387">tictactoe.views.</text><text fill="#000000" font-family="sans-serif" font-size="12" lengthAdjust="spacingAndGlyphs" textLength="59" x="804" y="466.1074">ErrorView</text><line style="stroke:#A80036;stroke-width:1.5;" x1="759" x2="882" y1="473.9375" y2="473.9375"/><line style="stroke:#A80036;stroke-width:1.5;" x1="759" x2="882" y1="481.9375" y2="481.9375"/><!--MD5=[bc6be58974f609ef180a6a51a8ed92f1]
reverse link View to tictactoe.views.console.ConsoleView--><path codeLine="21" d="M1300.5,81.358 C1300.5,94.156 1300.5,108.075 1300.5,120.991 " fill="none" id="View-backto-tictactoe.views.console.ConsoleView" style="stroke:#A80036;stroke-width:1.0;"/><polygon fill="none" points="1293.5,81.252,1300.5,61.252,1307.5,81.252,1293.5,81.252" style="stroke:#A80036;stroke-width:1.0;"/><!--MD5=[9113815f8bbc012213d6467f94b3dc5b]
link tictactoe.views.console.ConsoleView to tictactoe.views.console.StartView--><path codeLine="22" d="M1255.8801,229.9026 C1255.8801,229.9026 1228.13,266.211 1216.17,281.856 " fill="none" id="tictactoe.views.console.ConsoleView-tictactoe.views.console.StartView" style="stroke:#A80036;stroke-width:1.0;"/><polygon fill="#A80036" points="1208.25,292.224,1216.8929,287.5017,1211.2859,288.2512,1210.5364,282.6442,1208.25,292.224" style="stroke:#A80036;stroke-width:1.0;"/><line style="stroke:#A80036;stroke-width:1.0;" x1="1211.2859" x2="1216.145" y1="288.2512" y2="281.8945"/><polygon fill="#A80036" points="1263.16,220.363,1256.3402,222.7062,1255.8801,229.9026,1262.6999,227.5594,1263.16,220.363" style="stroke:#A80036;stroke-width:1.0;"/><!--MD5=[1735144fa38f1aa47117a26d071db586]
link tictactoe.views.console.ConsoleView to tictactoe.views.console.PlayView--><path codeLine="23" d="M1220.0674,210.9378 C1220.0674,210.9378 1126.15,256.972 1083.15,278.051 " fill="none" id="tictactoe.views.console.ConsoleView-tictactoe.views.console.PlayView" style="stroke:#A80036;stroke-width:1.0;"/><polygon fill="#A80036" points="1071.25,283.883,1081.0917,283.5088,1075.7386,281.6802,1077.5672,276.327,1071.25,283.883" style="stroke:#A80036;stroke-width:1.0;"/><line style="stroke:#A80036;stroke-width:1.0;" x1="1075.7386" x2="1082.925" y1="281.6802" y2="278.1615"/><polygon fill="#A80036" points="1230.84,205.651,1223.6914,204.7035,1220.0674,210.9378,1227.2159,211.8853,1230.84,205.651" style="stroke:#A80036;stroke-width:1.0;"/><!--MD5=[a983e760d9bef84c565434062749d875]
link tictactoe.views.console.ConsoleView to tictactoe.views.console.ResumeView--><path codeLine="24" d="M1345.4839,229.8688 C1345.4839,229.8688 1373.5,266.211 1385.56,281.856 " fill="none" id="tictactoe.views.console.ConsoleView-tictactoe.views.console.ResumeView" style="stroke:#A80036;stroke-width:1.0;"/><polygon fill="#A80036" points="1393.55,292.224,1391.2257,282.6533,1390.4984,288.2632,1384.8885,287.5359,1393.55,292.224" style="stroke:#A80036;stroke-width:1.0;"/><line style="stroke:#A80036;stroke-width:1.0;" x1="1390.4984" x2="1385.615" y1="288.2632" y2="281.9275"/><polygon fill="#A80036" points="1338.16,220.363,1338.6533,227.5572,1345.4839,229.8688,1344.9905,222.6746,1338.16,220.363" style="stroke:#A80036;stroke-width:1.0;"/><!--MD5=[8e574aea79c9a49afba9a04fa7d0e863]
link tictactoe.views.console.ConsoleView to StartController--><path codeLine="25" d="M1370.08,188.807 C1535.09,229.863 1963.11,336.427 2320.5,426 C2340.07,430.906 2361.15,436.203 2380.95,441.186 " fill="none" id="tictactoe.views.console.ConsoleView-to-StartController" style="stroke:#A80036;stroke-width:1.0;stroke-dasharray:7.0,7.0;"/><polygon fill="#A80036" points="2385.95,442.446,2378.1914,436.3794,2381.0998,441.2313,2376.2479,444.1397,2385.95,442.446" style="stroke:#A80036;stroke-width:1.0;"/><!--MD5=[480d1513da3ab771cdc28a53b7b93dc5]
link tictactoe.views.console.ConsoleView to PlayController--><path codeLine="26" d="M1230.95,176.613 C1001.702,194.909 275.48,264.801 117.5,426 C81.4974,462.736 78.8774,526.298 81.1004,564.422 " fill="none" id="tictactoe.views.console.ConsoleView-to-PlayController" style="stroke:#A80036;stroke-width:1.0;stroke-dasharray:7.0,7.0;"/><polygon fill="#A80036" points="81.4601,569.856,84.8547,560.6107,81.1287,564.867,76.8723,561.1409,81.4601,569.856" style="stroke:#A80036;stroke-width:1.0;"/><!--MD5=[f00daab04d57d64a04e453c33022dcff]
link tictactoe.views.console.ConsoleView to ResumeController--><path codeLine="27" d="M1370.17,180.815 C1562.4,207.534 2115.33,291.262 2558.5,426 C2566.54,428.443 2574.87,431.223 2583.11,434.129 " fill="none" id="tictactoe.views.console.ConsoleView-to-ResumeController" style="stroke:#A80036;stroke-width:1.0;stroke-dasharray:7.0,7.0;"/><polygon fill="#A80036" points="2588.23,435.954,2581.086,429.1744,2583.5179,434.2818,2578.4105,436.7138,2588.23,435.954" style="stroke:#A80036;stroke-width:1.0;"/><!--MD5=[8bc203def35d21ee3eb171618a7b817d]
link tictactoe.views.console.CoordinateView to PlayController--><path codeLine="33" d="M1111.4086,477.0856 C1111.4086,477.0856 381.329,561.63 175.346,585.481 " fill="none" id="tictactoe.views.console.CoordinateView-PlayController" style="stroke:#A80036;stroke-width:1.0;"/><polygon fill="#A80036" points="162.212,587.002,171.6122,589.9409,167.1789,586.4272,170.6925,581.9939,162.212,587.002" style="stroke:#A80036;stroke-width:1.0;"/><line style="stroke:#A80036;stroke-width:1.0;" x1="167.1789" x2="175.126" y1="586.4272" y2="585.5065"/><polygon fill="#A80036" points="1123.33,475.714,1116.9121,472.426,1111.4086,477.0856,1117.8265,480.3736,1123.33,475.714" style="stroke:#A80036;stroke-width:1.0;"/><!--MD5=[a06a410d0f6c1be87ea9d2d5c8f79243]
link tictactoe.views.console.CoordinateView to Console--><path codeLine="34" d="M1270.02,500.131 C1329.84,545.46 1439.99,621.647 1547.5,658 C1635.6,687.7888 1903.33,707.7486 2031.99,715.8823 " fill="none" id="tictactoe.views.console.CoordinateView-to-Console" style="stroke:#A80036;stroke-width:1.0;stroke-dasharray:7.0,7.0;"/><polygon fill="#A80036" points="2037.26,716.2137,2028.5292,711.6559,2032.2699,715.8994,2028.0264,719.6401,2037.26,716.2137" style="stroke:#A80036;stroke-width:1.0;"/><!--MD5=[3ea4caf7e48eaae8f655dde5cd3263f2]
link tictactoe.views.console.CoordinateView to Error--><path codeLine="35" d="M1235.36,500.177 C1245.73,542.76 1255.07,613.322 1219.5,658 C1198.63,684.2178 1114.55,701.4285 1051.53,710.9204 " fill="none" id="tictactoe.views.console.CoordinateView-to-Error" style="stroke:#A80036;stroke-width:1.0;stroke-dasharray:7.0,7.0;"/><polygon fill="#A80036" points="1046.27,711.7027,1055.7569,714.3483,1051.2166,710.974,1054.5909,706.4337,1046.27,711.7027" style="stroke:#A80036;stroke-width:1.0;"/><!--MD5=[6e79601aef612c06e9891b4875f898f3]
link tictactoe.views.console.CoordinateView to Coordinate--><path codeLine="36" d="M1325.56,491.164 C1338.62,494.328 1351.85,497.362 1364.5,500 C1528.87,534.278 1576.13,513.588 1737.5,560 C1745.28,562.238 1753.3,564.994 1761.16,567.977 " fill="none" id="tictactoe.views.console.CoordinateView-to-Coordinate" style="stroke:#A80036;stroke-width:1.0;stroke-dasharray:7.0,7.0;"/><polygon fill="#A80036" points="1766.03,569.861,1759.0737,562.889,1761.3653,568.0608,1756.1934,570.3525,1766.03,569.861" style="stroke:#A80036;stroke-width:1.0;"/><!--MD5=[b44a7c032619397c63802a117d0c01c0]
link tictactoe.views.console.CoordinateView to tictactoe.views.console.ErrorView--><path codeLine="37" d="M1157.28,500.07 C1120.79,519.648 1076,543.684 1040.37,562.799 " fill="none" id="tictactoe.views.console.CoordinateView-to-tictactoe.views.console.ErrorView" style="stroke:#A80036;stroke-width:1.0;stroke-dasharray:7.0,7.0;"/><polygon fill="#A80036" points="1035.63,565.343,1045.4508,564.5995,1040.0327,562.9732,1041.659,557.5551,1035.63,565.343" style="stroke:#A80036;stroke-width:1.0;"/><!--MD5=[5e3154eeb00ff673e3597b7a5033dd40]
link tictactoe.views.console.ErrorView to Error--><path codeLine="43" d="M978.5,634.274 C978.5,651.5876 978.5,672.1005 978.5,688.7191 " fill="none" id="tictactoe.views.console.ErrorView-to-Error" style="stroke:#A80036;stroke-width:1.0;stroke-dasharray:7.0,7.0;"/><polygon fill="#A80036" points="978.5,693.7436,982.5,684.7436,978.5,688.7436,974.5,684.7436,978.5,693.7436" style="stroke:#A80036;stroke-width:1.0;"/><!--MD5=[8ec17c1eeb1fabb729f4f45734e470f6]
link tictactoe.views.console.ErrorView to Console--><path codeLine="44" d="M1013.99,634.174 C1025.36,643.601 1038.62,652.6152 1052.5,658 C1143.29,693.2287 1811.85,712.7968 2032.25,718.3423 " fill="none" id="tictactoe.views.console.ErrorView-to-Console" style="stroke:#A80036;stroke-width:1.0;stroke-dasharray:7.0,7.0;"/><polygon fill="#A80036" points="2037.37,718.4707,2028.4758,714.2406,2032.3717,718.3421,2028.2701,722.238,2037.37,718.4707" style="stroke:#A80036;stroke-width:1.0;"/><!--MD5=[09df14cf147ebf3fa601d40955ce3c27]
reverse link ErrorView to tictactoe.views.console.ErrorView--><path codeLine="45" d="M867.317,503.113 C888.879,521.127 914.3,542.364 935.388,559.982 " fill="none" id="ErrorView-backto-tictactoe.views.console.ErrorView" style="stroke:#A80036;stroke-width:1.0;"/><polygon fill="none" points="862.576,508.274,851.716,490.079,871.552,497.53,862.576,508.274" style="stroke:#A80036;stroke-width:1.0;"/><!--MD5=[66e6d915eb383ad26ff502bcb5bc69cc]
link tictactoe.views.console.BoardView to Controller--><path codeLine="52" d="M1517.8157,507.0436 C1517.8157,507.0436 1571.95,545.665 1595.18,562.234 " fill="none" id="tictactoe.views.console.BoardView-Controller" style="stroke:#A80036;stroke-width:1.0;"/><polygon fill="#A80036" points="1605.8,569.813,1600.8003,561.3276,1601.731,566.9073,1596.1512,567.838,1605.8,569.813" style="stroke:#A80036;stroke-width:1.0;"/><line style="stroke:#A80036;stroke-width:1.0;" x1="1601.731" x2="1595.215" y1="566.9073" y2="562.262"/><polygon fill="#A80036" points="1508.05,500.07,1510.6083,506.812,1517.8157,507.0436,1515.2574,500.3016,1508.05,500.07" style="stroke:#A80036;stroke-width:1.0;"/><!--MD5=[48a58e5377fdc772b08702066c6591bf]
link tictactoe.views.console.BoardView to Console--><path codeLine="53" d="M1532.7,465.192 C1626.79,469.854 1789.85,488.651 1907.5,560 C1955.82,589.301 1944.89,622.07 1988.5,658 C2003.97,670.7438 2022.45,682.1176 2039.99,691.5346 " fill="none" id="tictactoe.views.console.BoardView-to-Console" style="stroke:#A80036;stroke-width:1.0;stroke-dasharray:7.0,7.0;"/><polygon fill="#A80036" points="2044.43,693.8863,2038.3532,686.1356,2040.0128,691.5436,2034.6049,693.2031,2044.43,693.8863" style="stroke:#A80036;stroke-width:1.0;"/><!--MD5=[b309a865775dd4647c3ec58d59c6e25c]
link tictactoe.views.console.BoardView to Coordinate--><path codeLine="54" d="M1532.59,488.153 C1589.26,506.767 1668.75,533.692 1737.5,560 C1744.07,562.513 1750.88,565.222 1757.66,567.986 " fill="none" id="tictactoe.views.console.BoardView-to-Coordinate" style="stroke:#A80036;stroke-width:1.0;stroke-dasharray:7.0,7.0;"/><polygon fill="#A80036" points="1762.35,569.907,1755.5251,562.8062,1757.7197,568.02,1752.5059,570.2146,1762.35,569.907" style="stroke:#A80036;stroke-width:1.0;"/><!--MD5=[2d7e8e41c2972c72a028fdb87a58cca9]
link tictactoe.views.console.BoardView to Message--><path codeLine="55" d="M1532.63,476.537 C1686.12,502.152 2033.6,560.139 2180.7,584.685 " fill="none" id="tictactoe.views.console.BoardView-to-Message" style="stroke:#A80036;stroke-width:1.0;stroke-dasharray:7.0,7.0;"/><polygon fill="#A80036" points="2185.84,585.544,2177.6272,580.108,2180.9091,584.7155,2176.3016,587.9974,2185.84,585.544" style="stroke:#A80036;stroke-width:1.0;"/><!--MD5=[8407cabd396d0f607abdd74c0bf30cbc]
link tictactoe.views.console.BoardView to tictactoe.views.console.TokenView--><path codeLine="56" d="M1382.24,494.948 C1329.36,516.695 1259.08,545.595 1207.23,566.916 " fill="none" id="tictactoe.views.console.BoardView-to-tictactoe.views.console.TokenView" style="stroke:#A80036;stroke-width:1.0;stroke-dasharray:7.0,7.0;"/><polygon fill="#A80036" points="1202.58,568.826,1212.4249,569.1055,1207.2048,566.9258,1209.3845,561.7057,1202.58,568.826" style="stroke:#A80036;stroke-width:1.0;"/><!--MD5=[a10986738d33eef60265d57fa5080b93]
link tictactoe.views.console.PlayView to PlayController--><path codeLine="64" d="M915.905,325.469 C738.366,330.142 308.704,349.283 189.5,426 C138.83,458.61 108.58,525.233 94.3678,564.699 " fill="none" id="tictactoe.views.console.PlayView-to-PlayController" style="stroke:#A80036;stroke-width:1.0;stroke-dasharray:7.0,7.0;"/><polygon fill="#A80036" points="92.55,569.845,99.3178,562.6898,94.2144,565.1301,91.774,560.0268,92.55,569.845" style="stroke:#A80036;stroke-width:1.0;"/><!--MD5=[3b49bdf6c7f6ce83eed251a9af28dbf3]
link tictactoe.views.console.PlayView to Coordinate--><path codeLine="65" d="M1071.13,360.436 C1076.94,362.508 1082.77,364.396 1088.5,366 C1287.47,421.678 1354.93,356.475 1549.5,426 C1642.32,459.167 1736.95,527.433 1786.75,566.617 " fill="none" id="tictactoe.views.console.PlayView-to-Coordinate" style="stroke:#A80036;stroke-width:1.0;stroke-dasharray:7.0,7.0;"/><polygon fill="#A80036" points="1790.84,569.851,1786.2587,561.1325,1786.917,566.7509,1781.2986,567.4092,1790.84,569.851" style="stroke:#A80036;stroke-width:1.0;"/><!--MD5=[f335b251d0d5a458b635239e43cc0bb5]
link tictactoe.views.console.PlayView to Message--><path codeLine="66" d="M1071.01,360.871 C1076.85,362.842 1082.72,364.588 1088.5,366 C1294.42,416.306 1843.18,348.542 2040.5,426 C2117.25,456.13 2187.2,525.724 2223.13,565.904 " fill="none" id="tictactoe.views.console.PlayView-to-Message" style="stroke:#A80036;stroke-width:1.0;stroke-dasharray:7.0,7.0;"/><polygon fill="#A80036" points="2226.5,569.698,2223.5182,560.3114,2223.1813,565.9582,2217.5345,565.6213,2226.5,569.698" style="stroke:#A80036;stroke-width:1.0;"/><!--MD5=[b8eae5493de689ae966fe038f1428b07]
link tictactoe.views.console.PlayView to Error--><path codeLine="67" d="M915.726,328.971 C734.05,341.371 293.851,376.292 250.5,426 C60.2766,644.122 686.401,702.6673 905.562,716.2945 " fill="none" id="tictactoe.views.console.PlayView-to-Error" style="stroke:#A80036;stroke-width:1.0;stroke-dasharray:7.0,7.0;"/><polygon fill="#A80036" points="910.663,716.6081,901.9244,712.0653,905.6724,716.3024,901.4353,720.0503,910.663,716.6081" style="stroke:#A80036;stroke-width:1.0;"/><!--MD5=[8b10c11746b26304038cab5745b0b163]
link tictactoe.views.console.PlayView to Console--><path codeLine="68" d="M1071.09,360.581 C1076.91,362.62 1082.75,364.46 1088.5,366 C1477.46,470.178 1650.66,319.337 1973.5,560 C2021.69,595.92 2062.31,653.8381 2084.46,689.2562 " fill="none" id="tictactoe.views.console.PlayView-to-Console" style="stroke:#A80036;stroke-width:1.0;stroke-dasharray:7.0,7.0;"/><polygon fill="#A80036" points="2087.33,693.8867,2085.98,684.1308,2084.6922,689.6391,2079.1839,688.3513,2087.33,693.8867" style="stroke:#A80036;stroke-width:1.0;"/><!--MD5=[9623adb787708e117decab727ca41eb7]
link tictactoe.views.console.PlayView to tictactoe.views.console.BoardView--><path codeLine="69" d="M1071.07,359.671 C1076.92,361.936 1082.77,364.076 1088.5,366 C1198.46,402.942 1230.64,395.32 1342.5,426 C1353.8,429.099 1365.66,432.564 1377.29,436.088 " fill="none" id="tictactoe.views.console.PlayView-to-tictactoe.views.console.BoardView" style="stroke:#A80036;stroke-width:1.0;stroke-dasharray:7.0,7.0;"/><polygon fill="#A80036" points="1382.26,437.601,1374.7988,431.1721,1377.4731,436.1569,1372.4883,438.8312,1382.26,437.601" style="stroke:#A80036;stroke-width:1.0;"/><!--MD5=[79c70b9791342a198a7a508e5eca16c0]
link tictactoe.views.console.PlayView to tictactoe.views.console.TokenView--><path codeLine="70" d="M1015.69,366.202 C1042.8,417.767 1088.35,504.409 1115.1,555.288 " fill="none" id="tictactoe.views.console.PlayView-to-tictactoe.views.console.TokenView" style="stroke:#A80036;stroke-width:1.0;stroke-dasharray:7.0,7.0;"/><polygon fill="#A80036" points="1117.47,559.795,1116.8244,549.9673,1115.1442,555.3689,1109.7426,553.6887,1117.47,559.795" style="stroke:#A80036;stroke-width:1.0;"/><!--MD5=[e071d848ecb5a4df5f49ec11249b339d]
link tictactoe.views.console.PlayView to tictactoe.views.console.ErrorView--><path codeLine="71" d="M991.173,366.202 C988.34,417.559 983.589,503.712 980.779,554.672 " fill="none" id="tictactoe.views.console.PlayView-to-tictactoe.views.console.ErrorView" style="stroke:#A80036;stroke-width:1.0;stroke-dasharray:7.0,7.0;"/><polygon fill="#A80036" points="980.497,559.795,984.9873,551.0293,980.7728,554.8026,976.9995,550.5881,980.497,559.795" style="stroke:#A80036;stroke-width:1.0;"/><!--MD5=[62ef53832a268c8eeef898be5bf89785]
link tictactoe.views.console.PlayView to tictactoe.views.console.CoordinateView--><path codeLine="72" d="M1064.06,366.154 C1094.54,384.362 1129.96,405.523 1159.76,423.324 " fill="none" id="tictactoe.views.console.PlayView-to-tictactoe.views.console.CoordinateView" style="stroke:#A80036;stroke-width:1.0;stroke-dasharray:7.0,7.0;"/><polygon fill="#A80036" points="1164.11,425.925,1158.4458,417.8679,1159.821,423.355,1154.3339,424.7303,1164.11,425.925" style="stroke:#A80036;stroke-width:1.0;"/><!--MD5=[248c182d20997509763909b55503e1c8]
link tictactoe.views.console.ResumeView to ResumeController--><path codeLine="77" d="M1532.81,323.983 C1741.15,326.242 2190.61,341.547 2558.5,426 C2567.94,428.168 2577.71,431.062 2587.22,434.272 " fill="none" id="tictactoe.views.console.ResumeView-to-ResumeController" style="stroke:#A80036;stroke-width:1.0;stroke-dasharray:7.0,7.0;"/><polygon fill="#A80036" points="2592.17,435.977,2584.9637,429.2636,2587.4427,434.3484,2582.3579,436.8273,2592.17,435.977" style="stroke:#A80036;stroke-width:1.0;"/><!--MD5=[45d6b98411685f94cdacdaac3bc1e164]
link tictactoe.views.console.ResumeView to Message--><path codeLine="78" d="M1532.64,333.516 C1764.04,353.032 2262.67,398.097 2287.5,426 C2322.02,464.804 2292.78,527.928 2269.71,565.361 " fill="none" id="tictactoe.views.console.ResumeView-to-Message" style="stroke:#A80036;stroke-width:1.0;stroke-dasharray:7.0,7.0;"/><polygon fill="#A80036" points="2266.94,569.795,2275.1127,564.2989,2269.5982,565.5602,2268.3369,560.0457,2266.94,569.795" style="stroke:#A80036;stroke-width:1.0;"/><!--MD5=[8fe1c1d6283f66daa4ac51944081ccb1]
link tictactoe.views.console.ResumeView to YesNoDialog--><path codeLine="79" d="M1330.65,353.6 C1314.78,358.3 1298.25,362.693 1282.5,366 C1045.31,415.81 974.73,363.753 740.5,426 C732.455,428.138 724.183,430.934 716.124,434.023 " fill="none" id="tictactoe.views.console.ResumeView-to-YesNoDialog" style="stroke:#A80036;stroke-width:1.0;stroke-dasharray:7.0,7.0;"/><polygon fill="#A80036" points="711.137,435.982,720.9764,436.4139,715.7907,434.1536,718.051,428.968,711.137,435.982" style="stroke:#A80036;stroke-width:1.0;"/><!--MD5=[05cc99d857866a96ee1f197cb8d1830a]
link tictactoe.views.console.StartView to StartController--><path codeLine="84" d="M1244.92,353.577 C1257.09,358.529 1270,363.02 1282.5,366 C1717.75,469.807 1843.85,367.685 2287.5,426 C2318.19,430.034 2351.54,436.352 2380.88,442.576 " fill="none" id="tictactoe.views.console.StartView-to-StartController" style="stroke:#A80036;stroke-width:1.0;stroke-dasharray:7.0,7.0;"/><polygon fill="#A80036" points="2385.93,443.655,2377.9622,437.8658,2381.04,442.6121,2376.2936,445.6899,2385.93,443.655" style="stroke:#A80036;stroke-width:1.0;"/><!--MD5=[e5fc69a5d7b9edfb586c1b6276c53e05]
link tictactoe.views.console.StartView to Console--><path codeLine="85" d="M1228.82,353.598 C1240.5,358.483 1253.21,362.943 1265.5,366 C1429.47,406.789 1896.57,314.459 2023.5,426 C2099.57,492.851 2095.92,627.391 2097.13,688.5072 " fill="none" id="tictactoe.views.console.StartView-to-Console" style="stroke:#A80036;stroke-width:1.0;stroke-dasharray:7.0,7.0;"/><polygon fill="#A80036" points="2097.25,693.8363,2101.0378,684.745,2097.1327,688.8377,2093.04,684.9326,2097.25,693.8363" style="stroke:#A80036;stroke-width:1.0;"/><!--MD5=[e5fc69a5d7b9edfb586c1b6276c53e05]
link tictactoe.views.console.StartView to Console--><path codeLine="95" d="M1263.14,353.598 C1275.5,358.483 1288.21,362.943 1300.5,366 C1464.47,406.789 1931.57,314.459 2058.5,426 C2134.72,492.986 2130.91,627.932 2116.78,688.8752 " fill="none" id="tictactoe.views.console.StartView-to-Console-1" style="stroke:#A80036;stroke-width:1.0;stroke-dasharray:7.0,7.0;"/><polygon fill="#A80036" points="2115.56,693.8363,2121.5848,686.0452,2116.7486,688.9796,2113.8141,684.1434,2115.56,693.8363" style="stroke:#A80036;stroke-width:1.0;"/><!--MD5=[cbe56104a70ea1577228555875c75924]
link tictactoe.views.console.StartView to Message--><path codeLine="86" d="M1244.93,353.532 C1257.1,358.488 1270.01,362.992 1282.5,366 C1383.6,390.354 2138.62,357.083 2216.5,426 C2255.35,460.381 2256.34,525.769 2252.88,564.663 " fill="none" id="tictactoe.views.console.StartView-to-Message" style="stroke:#A80036;stroke-width:1.0;stroke-dasharray:7.0,7.0;"/><polygon fill="#A80036" points="2252.38,569.737,2257.2265,561.1631,2252.8606,564.7601,2249.2635,560.3942,2252.38,569.737" style="stroke:#A80036;stroke-width:1.0;"/><!--MD5=[f18569398a34687a26f0429a50bef928]
link tictactoe.views.console.StartView to LimitedIntDialog--><path codeLine="87" d="M1124.63,353.553 C1112.86,358.348 1100.46,362.787 1088.5,366 C866.378,425.663 796.47,365.774 574.5,426 C566.672,428.124 558.628,430.878 550.783,433.916 " fill="none" id="tictactoe.views.console.StartView-to-LimitedIntDialog" style="stroke:#A80036;stroke-width:1.0;stroke-dasharray:7.0,7.0;"/><polygon fill="#A80036" points="545.927,435.841,555.7677,436.2427,550.5751,433.9983,552.8194,428.8058,545.927,435.841" style="stroke:#A80036;stroke-width:1.0;"/><!--MD5=[dd55afc3b677549d38339353518552e1]
link tictactoe.views.console.StartView to tictactoe.views.console.BoardView--><path codeLine="88" d="M1243.85,353.604 C1284.06,374.007 1337.9,401.32 1381.47,423.424 " fill="none" id="tictactoe.views.console.StartView-to-tictactoe.views.console.BoardView" style="stroke:#A80036;stroke-width:1.0;stroke-dasharray:7.0,7.0;"/><polygon fill="#A80036" points="1386.19,425.819,1379.967,418.1852,1381.7291,423.5607,1376.3537,425.3227,1386.19,425.819" style="stroke:#A80036;stroke-width:1.0;"/><!--MD5=[6ea791314a7012eef494e5b69e119c48]
link tictactoe.views.console.StartView to Token--><path codeLine="94" d="M1114.3013,357.8453 C1114.3013,357.8453 1096.65,363.933 1088.5,366 C794.843,440.476 702.438,348.744 409.5,426 C404.171,427.405 398.753,429.144 393.38,431.091 " fill="none" id="tictactoe.views.console.StartView-Token" style="stroke:#A80036;stroke-width:1.0;"/><polygon fill="#A80036" points="380.988,435.956,390.8272,436.391,385.6423,434.1291,387.9042,428.9442,380.988,435.956" style="stroke:#A80036;stroke-width:1.0;"/><line style="stroke:#A80036;stroke-width:1.0;" x1="385.6423" x2="393.0885" y1="434.1291" y2="431.2055"/><polygon fill="#A80036" points="1125.49,353.508,1118.4499,351.9471,1114.3013,357.8453,1121.3414,359.4062,1125.49,353.508" style="stroke:#A80036;stroke-width:1.0;"/><!--MD5=[c326f5d2f11778a6714150516d462165]
@startuml
abstract class View as "tictactoe.views.\nView"
class Error as "tictactoe.models.\nError" {}
class Coordinate as "tictactoe.models.\nCoordinate" {}
class Console as "usantatecla.utils.\nConsole" {}
class Controller as "tictactoe.controllers.\nController" {}
class PlayController as "tictactoe.controllers.\nPlayController" {}
class ResumeController as "tictactoe.controllers.\nResumeController" {}
class YesNoDialog as "usantatecla.utils.\nYesNoDialog" {}
class StartController as "tictactoe.controllers.\nStartController" {}
class LimitedIntDialog as "usantatecla.utils.\nLimitedIntDialog" {}
class Token as "tictactoe.types.\nToken" {}
class Message as "tictactoe.views.\nMessage" {}
class ErrorView as "tictactoe.views.\nErrorView" {}

class tictactoe.views.console.ConsoleView{
  + ConsoleView()
  + visit(StartController)
  + visit(PlayController)
  + visit(StartController)
}
tictactoe.views.console.ConsoleView -up-|> View
tictactoe.views.console.ConsoleView *-down-> tictactoe.views.console.StartView
tictactoe.views.console.ConsoleView *-down-> tictactoe.views.console.PlayView
tictactoe.views.console.ConsoleView *-down-> tictactoe.views.console.ResumeView
tictactoe.views.console.ConsoleView .down.> StartController
tictactoe.views.console.ConsoleView .down.> PlayController
tictactoe.views.console.ConsoleView .down.> ResumeController

class tictactoe.views.console.CoordinateView {
  + CoordinateView(PlayController)
  + read(String): Coordinate
}
tictactoe.views.console.CoordinateView *-down-> PlayController
tictactoe.views.console.CoordinateView .down.> Console
tictactoe.views.console.CoordinateView .down.> Error
tictactoe.views.console.CoordinateView .down.> Coordinate
tictactoe.views.console.CoordinateView .down.> tictactoe.views.console.ErrorView

class tictactoe.views.console.ErrorView{
  ~ ErrorView(Error)
  ~ writeln()
}
tictactoe.views.console.ErrorView .down.> Error
tictactoe.views.console.ErrorView .down.> Console
ErrorView <|-down- tictactoe.views.console.ErrorView

class  tictactoe.views.console.BoardView{
  ~ BoardView(Controller)
  ~ write()
}

tictactoe.views.console.BoardView *-down-> Controller
tictactoe.views.console.BoardView .down.> Console
tictactoe.views.console.BoardView .down.> Coordinate
tictactoe.views.console.BoardView .down.> Message
tictactoe.views.console.BoardView .down.> tictactoe.views.console.TokenView

class tictactoe.views.console.PlayView{
  ~ interact(PlayController)
  - put(PlayController)
  - move(PlayController)
}

tictactoe.views.console.PlayView .down.> PlayController
tictactoe.views.console.PlayView .down.> Coordinate
tictactoe.views.console.PlayView .down.> Message
tictactoe.views.console.PlayView .down.> Error
tictactoe.views.console.PlayView .down.> Console
tictactoe.views.console.PlayView .down.> tictactoe.views.console.BoardView
tictactoe.views.console.PlayView .down.> tictactoe.views.console.TokenView
tictactoe.views.console.PlayView .down.> tictactoe.views.console.ErrorView
tictactoe.views.console.PlayView .down.> tictactoe.views.console.CoordinateView

class  tictactoe.views.console.ResumeView{
  ~ interact(ResumeController): boolean
}
tictactoe.views.console.ResumeView .down.> ResumeController
tictactoe.views.console.ResumeView .down.> Message
tictactoe.views.console.ResumeView .down.> YesNoDialog

class tictactoe.views.console.StartView{
  ~ interact(StartController)
}
tictactoe.views.console.StartView .down.> StartController
tictactoe.views.console.StartView .down.> Console
tictactoe.views.console.StartView .down.> Message
tictactoe.views.console.StartView .down.> LimitedIntDialog
tictactoe.views.console.StartView .down.> tictactoe.views.console.BoardView

class tictactoe.views.console.TokenView{
  ~ TokenView(Token)
  ~ write()
}
tictactoe.views.console.StartView *-down-> Token
tictactoe.views.console.StartView .down.> Console
@enduml

PlantUML version 1.2020.22(Sun Dec 06 09:36:27 UTC 2020)
(GPL source distribution)
Java Runtime: Java(TM) SE Runtime Environment
JVM: Java HotSpot(TM) 64-Bit Server VM
Default Encoding: UTF-8
Language: en
Country: US
--></g></svg>