<?xml version="1.0" encoding="UTF-8" standalone="no"?><svg xmlns="http://www.w3.org/2000/svg" xmlns:xlink="http://www.w3.org/1999/xlink" contentScriptType="application/ecmascript" contentStyleType="text/css" height="388px" preserveAspectRatio="none" style="width:820px;height:388px;" version="1.1" viewBox="0 0 820 388" width="820px" zoomAndPan="magnify"><defs><filter height="300%" id="f1d9s1doaz9kmf" width="300%" x="-1" y="-1"><feGaussianBlur result="blurOut" stdDeviation="2.0"/><feColorMatrix in="blurOut" result="blurOut2" type="matrix" values="0 0 0 0 0 0 0 0 0 0 0 0 0 0 0 0 0 0 .4 0"/><feOffset dx="4.0" dy="4.0" in="blurOut2" result="blurOut3"/><feBlend in="SourceGraphic" in2="blurOut3" mode="normal"/></filter></defs><g><!--MD5=[807bc46d8103c809ff053af9e140e1f5]
cluster tictactoe--><polygon fill="#FFFFFF" filter="url(#f1d9s1doaz9kmf)" points="16,6,98,6,105,28.2969,371,28.2969,371,277,16,277,16,6" style="stroke:#000000;stroke-width:1.5;"/><line style="stroke:#000000;stroke-width:1.5;" x1="16" x2="105" y1="28.2969" y2="28.2969"/><text fill="#000000" font-family="sans-serif" font-size="14" font-weight="bold" lengthAdjust="spacingAndGlyphs" textLength="76" x="20" y="20.9951">tictactoe</text><!--MD5=[d26da01265d646b7f841c2729736529c]
class tictactoe.ConsoleTicTacToe--><rect codeLine="5" fill="#FEFECE" filter="url(#f1d9s1doaz9kmf)" height="73.6094" id="tictactoe.ConsoleTicTacToe" style="stroke:#A80036;stroke-width:1.5;" width="142" x="32" y="187"/><ellipse cx="47" cy="203" fill="#ADD1B2" rx="11" ry="11" style="stroke:#A80036;stroke-width:1.0;"/><path d="M49.3438,198.6719 C48.4063,198.2344 47.8125,198.0938 46.9375,198.0938 C44.3125,198.0938 42.3125,200.1719 42.3125,202.8906 L42.3125,204.0156 C42.3125,206.5938 44.4219,208.4844 47.3125,208.4844 C48.5313,208.4844 49.6875,208.1875 50.4375,207.6406 C51.0156,207.2344 51.3438,206.7813 51.3438,206.3906 C51.3438,205.9375 50.9531,205.5469 50.4844,205.5469 C50.2656,205.5469 50.0625,205.625 49.875,205.8125 C49.4219,206.2969 49.4219,206.2969 49.2344,206.3906 C48.8125,206.6563 48.125,206.7813 47.3594,206.7813 C45.3125,206.7813 44.0156,205.6875 44.0156,203.9844 L44.0156,202.8906 C44.0156,201.1094 45.2656,199.7969 47,199.7969 C47.5781,199.7969 48.1875,199.9531 48.6563,200.2031 C49.1406,200.4844 49.3125,200.7031 49.4063,201.1094 C49.4688,201.5156 49.5,201.6406 49.6406,201.7656 C49.7813,201.9063 50.0156,202.0156 50.2344,202.0156 C50.5,202.0156 50.7656,201.875 50.9375,201.6563 C51.0469,201.5 51.0781,201.3125 51.0781,200.8906 L51.0781,199.4688 C51.0781,199.0313 51.0625,198.9063 50.9688,198.75 C50.8125,198.4844 50.5313,198.3438 50.2344,198.3438 C49.9375,198.3438 49.7344,198.4375 49.5156,198.75 L49.3438,198.6719 Z " fill="#000000"/><text fill="#000000" font-family="sans-serif" font-size="12" lengthAdjust="spacingAndGlyphs" textLength="110" x="61" y="207.1543">ConsoleTicTacToe</text><line style="stroke:#A80036;stroke-width:1.5;" x1="33" x2="173" y1="219" y2="219"/><line style="stroke:#A80036;stroke-width:1.5;" x1="33" x2="173" y1="227" y2="227"/><polygon fill="#FFFF44" points="43,233,47,237,43,241,39,237" style="stroke:#B38D22;stroke-width:1.0;"/><text fill="#000000" font-family="sans-serif" font-size="11" lengthAdjust="spacingAndGlyphs" textLength="108" x="52" y="241.2104">createView(): View</text><ellipse cx="43" cy="250.8047" fill="#84BE84" rx="3" ry="3" style="stroke:#038048;stroke-width:1.0;"/><text fill="#000000" font-family="sans-serif" font-size="11" lengthAdjust="spacingAndGlyphs" text-decoration="underline" textLength="77" x="52" y="254.0151">main(String[])</text><!--MD5=[dcfee6ff2a733e6a859ce2b7bcbe021e]
class tictactoe.TicTacToe--><rect codeLine="19" fill="#FEFECE" filter="url(#f1d9s1doaz9kmf)" height="86.4141" id="tictactoe.TicTacToe" style="stroke:#A80036;stroke-width:1.5;" width="132" x="223" y="41"/><ellipse cx="255.55" cy="57" fill="#ADD1B2" rx="11" ry="11" style="stroke:#A80036;stroke-width:1.0;"/><path d="M257.8938,52.6719 C256.9563,52.2344 256.3625,52.0938 255.4875,52.0938 C252.8625,52.0938 250.8625,54.1719 250.8625,56.8906 L250.8625,58.0156 C250.8625,60.5938 252.9719,62.4844 255.8625,62.4844 C257.0813,62.4844 258.2375,62.1875 258.9875,61.6406 C259.5656,61.2344 259.8938,60.7813 259.8938,60.3906 C259.8938,59.9375 259.5031,59.5469 259.0344,59.5469 C258.8156,59.5469 258.6125,59.625 258.425,59.8125 C257.9719,60.2969 257.9719,60.2969 257.7844,60.3906 C257.3625,60.6563 256.675,60.7813 255.9094,60.7813 C253.8625,60.7813 252.5656,59.6875 252.5656,57.9844 L252.5656,56.8906 C252.5656,55.1094 253.8156,53.7969 255.55,53.7969 C256.1281,53.7969 256.7375,53.9531 257.2063,54.2031 C257.6906,54.4844 257.8625,54.7031 257.9563,55.1094 C258.0188,55.5156 258.05,55.6406 258.1906,55.7656 C258.3313,55.9063 258.5656,56.0156 258.7844,56.0156 C259.05,56.0156 259.3156,55.875 259.4875,55.6563 C259.5969,55.5 259.6281,55.3125 259.6281,54.8906 L259.6281,53.4688 C259.6281,53.0313 259.6125,52.9063 259.5188,52.75 C259.3625,52.4844 259.0813,52.3438 258.7844,52.3438 C258.4875,52.3438 258.2844,52.4375 258.0656,52.75 L257.8938,52.6719 Z " fill="#000000"/><text fill="#000000" font-family="sans-serif" font-size="12" lengthAdjust="spacingAndGlyphs" textLength="61" x="273.45" y="61.1543">TicTacToe</text><line style="stroke:#A80036;stroke-width:1.5;" x1="224" x2="354" y1="73" y2="73"/><line style="stroke:#A80036;stroke-width:1.5;" x1="224" x2="354" y1="81" y2="81"/><polygon fill="#FFFF44" points="234,87,238,91,234,95,230,91" style="stroke:#B38D22;stroke-width:1.0;"/><text fill="#000000" font-family="sans-serif" font-size="11" lengthAdjust="spacingAndGlyphs" textLength="66" x="243" y="95.2104">TicTacToe()</text><polygon fill="#FFFF44" points="234,99.8047,238,103.8047,234,107.8047,230,103.8047" style="stroke:#B38D22;stroke-width:1.0;"/><text fill="#000000" font-family="sans-serif" font-size="11" font-style="italic" lengthAdjust="spacingAndGlyphs" textLength="106" x="243" y="108.0151">createView(): View</text><polygon fill="#FFFF44" points="234,112.6094,238,116.6094,234,120.6094,230,116.6094" style="stroke:#B38D22;stroke-width:1.0;"/><text fill="#000000" font-family="sans-serif" font-size="11" lengthAdjust="spacingAndGlyphs" textLength="32" x="243" y="120.8198">play()</text><!--MD5=[288019f38859c158505575d95d6bbed7]
class tictactoe.GraphicsTicTacToe--><rect codeLine="12" fill="#FEFECE" filter="url(#f1d9s1doaz9kmf)" height="73.6094" id="tictactoe.GraphicsTicTacToe" style="stroke:#A80036;stroke-width:1.5;" width="146" x="209" y="187"/><ellipse cx="224" cy="203" fill="#ADD1B2" rx="11" ry="11" style="stroke:#A80036;stroke-width:1.0;"/><path d="M226.3438,198.6719 C225.4063,198.2344 224.8125,198.0938 223.9375,198.0938 C221.3125,198.0938 219.3125,200.1719 219.3125,202.8906 L219.3125,204.0156 C219.3125,206.5938 221.4219,208.4844 224.3125,208.4844 C225.5313,208.4844 226.6875,208.1875 227.4375,207.6406 C228.0156,207.2344 228.3438,206.7813 228.3438,206.3906 C228.3438,205.9375 227.9531,205.5469 227.4844,205.5469 C227.2656,205.5469 227.0625,205.625 226.875,205.8125 C226.4219,206.2969 226.4219,206.2969 226.2344,206.3906 C225.8125,206.6563 225.125,206.7813 224.3594,206.7813 C222.3125,206.7813 221.0156,205.6875 221.0156,203.9844 L221.0156,202.8906 C221.0156,201.1094 222.2656,199.7969 224,199.7969 C224.5781,199.7969 225.1875,199.9531 225.6563,200.2031 C226.1406,200.4844 226.3125,200.7031 226.4063,201.1094 C226.4688,201.5156 226.5,201.6406 226.6406,201.7656 C226.7813,201.9063 227.0156,202.0156 227.2344,202.0156 C227.5,202.0156 227.7656,201.875 227.9375,201.6563 C228.0469,201.5 228.0781,201.3125 228.0781,200.8906 L228.0781,199.4688 C228.0781,199.0313 228.0625,198.9063 227.9688,198.75 C227.8125,198.4844 227.5313,198.3438 227.2344,198.3438 C226.9375,198.3438 226.7344,198.4375 226.5156,198.75 L226.3438,198.6719 Z " fill="#000000"/><text fill="#000000" font-family="sans-serif" font-size="12" lengthAdjust="spacingAndGlyphs" textLength="114" x="238" y="207.1543">GraphicsTicTacToe</text><line style="stroke:#A80036;stroke-width:1.5;" x1="210" x2="354" y1="219" y2="219"/><line style="stroke:#A80036;stroke-width:1.5;" x1="210" x2="354" y1="227" y2="227"/><polygon fill="#FFFF44" points="220,233,224,237,220,241,216,237" style="stroke:#B38D22;stroke-width:1.0;"/><text fill="#000000" font-family="sans-serif" font-size="11" lengthAdjust="spacingAndGlyphs" textLength="108" x="229" y="241.2104">createView(): View</text><ellipse cx="220" cy="250.8047" fill="#84BE84" rx="3" ry="3" style="stroke:#038048;stroke-width:1.0;"/><text fill="#000000" font-family="sans-serif" font-size="11" lengthAdjust="spacingAndGlyphs" text-decoration="underline" textLength="77" x="229" y="254.0151">main(String[])</text><!--MD5=[c045e12321b83266d36d22b9096c24ea]
class View--><rect codeLine="1" fill="#FEFECE" filter="url(#f1d9s1doaz9kmf)" height="53.9375" id="View" style="stroke:#A80036;stroke-width:1.5;" width="125" x="219.5" y="321"/><ellipse cx="234.5" cy="339.9688" fill="#ADD1B2" rx="11" ry="11" style="stroke:#A80036;stroke-width:1.0;"/><path d="M236.8438,335.6406 C235.9063,335.2031 235.3125,335.0625 234.4375,335.0625 C231.8125,335.0625 229.8125,337.1406 229.8125,339.8594 L229.8125,340.9844 C229.8125,343.5625 231.9219,345.4531 234.8125,345.4531 C236.0313,345.4531 237.1875,345.1563 237.9375,344.6094 C238.5156,344.2031 238.8438,343.75 238.8438,343.3594 C238.8438,342.9063 238.4531,342.5156 237.9844,342.5156 C237.7656,342.5156 237.5625,342.5938 237.375,342.7813 C236.9219,343.2656 236.9219,343.2656 236.7344,343.3594 C236.3125,343.625 235.625,343.75 234.8594,343.75 C232.8125,343.75 231.5156,342.6563 231.5156,340.9531 L231.5156,339.8594 C231.5156,338.0781 232.7656,336.7656 234.5,336.7656 C235.0781,336.7656 235.6875,336.9219 236.1563,337.1719 C236.6406,337.4531 236.8125,337.6719 236.9063,338.0781 C236.9688,338.4844 237,338.6094 237.1406,338.7344 C237.2813,338.875 237.5156,338.9844 237.7344,338.9844 C238,338.9844 238.2656,338.8438 238.4375,338.625 C238.5469,338.4688 238.5781,338.2813 238.5781,337.8594 L238.5781,336.4375 C238.5781,336 238.5625,335.875 238.4688,335.7188 C238.3125,335.4531 238.0313,335.3125 237.7344,335.3125 C237.4375,335.3125 237.2344,335.4063 237.0156,335.7188 L236.8438,335.6406 Z " fill="#000000"/><text fill="#000000" font-family="sans-serif" font-size="12" lengthAdjust="spacingAndGlyphs" textLength="93" x="248.5" y="337.1387">tictactoe.views.</text><text fill="#000000" font-family="sans-serif" font-size="12" lengthAdjust="spacingAndGlyphs" textLength="29" x="280.5" y="351.1074">View</text><line style="stroke:#A80036;stroke-width:1.5;" x1="220.5" x2="343.5" y1="358.9375" y2="358.9375"/><line style="stroke:#A80036;stroke-width:1.5;" x1="220.5" x2="343.5" y1="366.9375" y2="366.9375"/><!--MD5=[42fa18dda7351a0ae87d9497de925436]
class Logic--><rect codeLine="2" fill="#FEFECE" filter="url(#f1d9s1doaz9kmf)" height="53.9375" id="Logic" style="stroke:#A80036;stroke-width:1.5;" width="155" x="461.5" y="197"/><ellipse cx="476.5" cy="215.9688" fill="#ADD1B2" rx="11" ry="11" style="stroke:#A80036;stroke-width:1.0;"/><path d="M478.8438,211.6406 C477.9063,211.2031 477.3125,211.0625 476.4375,211.0625 C473.8125,211.0625 471.8125,213.1406 471.8125,215.8594 L471.8125,216.9844 C471.8125,219.5625 473.9219,221.4531 476.8125,221.4531 C478.0313,221.4531 479.1875,221.1563 479.9375,220.6094 C480.5156,220.2031 480.8438,219.75 480.8438,219.3594 C480.8438,218.9063 480.4531,218.5156 479.9844,218.5156 C479.7656,218.5156 479.5625,218.5938 479.375,218.7813 C478.9219,219.2656 478.9219,219.2656 478.7344,219.3594 C478.3125,219.625 477.625,219.75 476.8594,219.75 C474.8125,219.75 473.5156,218.6563 473.5156,216.9531 L473.5156,215.8594 C473.5156,214.0781 474.7656,212.7656 476.5,212.7656 C477.0781,212.7656 477.6875,212.9219 478.1563,213.1719 C478.6406,213.4531 478.8125,213.6719 478.9063,214.0781 C478.9688,214.4844 479,214.6094 479.1406,214.7344 C479.2813,214.875 479.5156,214.9844 479.7344,214.9844 C480,214.9844 480.2656,214.8438 480.4375,214.625 C480.5469,214.4688 480.5781,214.2813 480.5781,213.8594 L480.5781,212.4375 C480.5781,212 480.5625,211.875 480.4688,211.7188 C480.3125,211.4531 480.0313,211.3125 479.7344,211.3125 C479.4375,211.3125 479.2344,211.4063 479.0156,211.7188 L478.8438,211.6406 Z " fill="#000000"/><text fill="#000000" font-family="sans-serif" font-size="12" lengthAdjust="spacingAndGlyphs" textLength="123" x="490.5" y="213.1387">tictactoe.controllers.</text><text fill="#000000" font-family="sans-serif" font-size="12" lengthAdjust="spacingAndGlyphs" textLength="32" x="536" y="227.1074">Logic</text><line style="stroke:#A80036;stroke-width:1.5;" x1="462.5" x2="615.5" y1="234.9375" y2="234.9375"/><line style="stroke:#A80036;stroke-width:1.5;" x1="462.5" x2="615.5" y1="242.9375" y2="242.9375"/><!--MD5=[1d7ba1c7002d54515419844fbd155368]
class Controller--><rect codeLine="3" fill="#FEFECE" filter="url(#f1d9s1doaz9kmf)" height="53.9375" id="Controller" style="stroke:#A80036;stroke-width:1.5;" width="155" x="651.5" y="197"/><ellipse cx="666.5" cy="215.9688" fill="#ADD1B2" rx="11" ry="11" style="stroke:#A80036;stroke-width:1.0;"/><path d="M668.8438,211.6406 C667.9063,211.2031 667.3125,211.0625 666.4375,211.0625 C663.8125,211.0625 661.8125,213.1406 661.8125,215.8594 L661.8125,216.9844 C661.8125,219.5625 663.9219,221.4531 666.8125,221.4531 C668.0313,221.4531 669.1875,221.1563 669.9375,220.6094 C670.5156,220.2031 670.8438,219.75 670.8438,219.3594 C670.8438,218.9063 670.4531,218.5156 669.9844,218.5156 C669.7656,218.5156 669.5625,218.5938 669.375,218.7813 C668.9219,219.2656 668.9219,219.2656 668.7344,219.3594 C668.3125,219.625 667.625,219.75 666.8594,219.75 C664.8125,219.75 663.5156,218.6563 663.5156,216.9531 L663.5156,215.8594 C663.5156,214.0781 664.7656,212.7656 666.5,212.7656 C667.0781,212.7656 667.6875,212.9219 668.1563,213.1719 C668.6406,213.4531 668.8125,213.6719 668.9063,214.0781 C668.9688,214.4844 669,214.6094 669.1406,214.7344 C669.2813,214.875 669.5156,214.9844 669.7344,214.9844 C670,214.9844 670.2656,214.8438 670.4375,214.625 C670.5469,214.4688 670.5781,214.2813 670.5781,213.8594 L670.5781,212.4375 C670.5781,212 670.5625,211.875 670.4688,211.7188 C670.3125,211.4531 670.0313,211.3125 669.7344,211.3125 C669.4375,211.3125 669.2344,211.4063 669.0156,211.7188 L668.8438,211.6406 Z " fill="#000000"/><text fill="#000000" font-family="sans-serif" font-size="12" lengthAdjust="spacingAndGlyphs" textLength="123" x="680.5" y="213.1387">tictactoe.controllers.</text><text fill="#000000" font-family="sans-serif" font-size="12" lengthAdjust="spacingAndGlyphs" textLength="59" x="712.5" y="227.1074">Controller</text><line style="stroke:#A80036;stroke-width:1.5;" x1="652.5" x2="805.5" y1="234.9375" y2="234.9375"/><line style="stroke:#A80036;stroke-width:1.5;" x1="652.5" x2="805.5" y1="242.9375" y2="242.9375"/><!--MD5=[4e0ca678de8db9099731dcdc2b6658ba]
reverse link tictactoe.TicTacToe to tictactoe.ConsoleTicTacToe--><path codeLine="9" d="M216.033,139.137 C194.42,155.172 171.292,172.332 151.623,186.925 " fill="none" id="tictactoe.TicTacToe-backto-tictactoe.ConsoleTicTacToe" style="stroke:#A80036;stroke-width:1.0;"/><polygon fill="none" points="211.95,133.45,232.183,127.154,220.292,144.693,211.95,133.45" style="stroke:#A80036;stroke-width:1.0;"/><!--MD5=[2d9009f24cf213a73e7cccebde1f0798]
link tictactoe.ConsoleTicTacToe to View--><path codeLine="10" d="M156.221,261.274 C182.817,279.4003 214.557,301.0333 239.499,318.0327 " fill="none" id="tictactoe.ConsoleTicTacToe-to-View" style="stroke:#A80036;stroke-width:1.0;stroke-dasharray:7.0,7.0;"/><polygon fill="#A80036" points="243.757,320.9349,238.5725,312.561,239.6253,318.1191,234.0672,319.1718,243.757,320.9349" style="stroke:#A80036;stroke-width:1.0;"/><!--MD5=[39aff454823c6178e2615bf7f449e13a]
reverse link tictactoe.TicTacToe to tictactoe.GraphicsTicTacToe--><path codeLine="16" d="M285.848,147.145 C285.161,160.677 284.457,174.564 283.841,186.697 " fill="none" id="tictactoe.TicTacToe-backto-tictactoe.GraphicsTicTacToe" style="stroke:#A80036;stroke-width:1.0;"/><polygon fill="none" points="278.857,146.774,286.862,127.154,292.839,147.483,278.857,146.774" style="stroke:#A80036;stroke-width:1.0;"/><!--MD5=[b61980246c5e37cfc59a597970db8f36]
link tictactoe.GraphicsTicTacToe to View--><path codeLine="17" d="M282,261.274 C282,278.5876 282,299.1005 282,315.7191 " fill="none" id="tictactoe.GraphicsTicTacToe-to-View" style="stroke:#A80036;stroke-width:1.0;stroke-dasharray:7.0,7.0;"/><polygon fill="#A80036" points="282,320.7436,286,311.7436,282,315.7436,278,311.7436,282,320.7436" style="stroke:#A80036;stroke-width:1.0;"/><!--MD5=[4244f9edb3d450aa4423a2442cdf3765]
link tictactoe.TicTacToe to View--><path codeLine="24" d="M342.8248,136.5498 C342.8248,136.5498 366.642,169.277 373,187 C387.708,227.997 393.358,246.495 373,285 C367.291,295.7976 358.764,305.0674 349.18,312.8994 " fill="none" id="tictactoe.TicTacToe-View" style="stroke:#A80036;stroke-width:1.0;"/><polygon fill="#A80036" points="338.45,320.838,348.0642,318.701,342.4696,317.8643,343.3063,312.2697,338.45,320.838" style="stroke:#A80036;stroke-width:1.0;"/><line style="stroke:#A80036;stroke-width:1.0;" x1="342.4696" x2="348.901" y1="317.8643" y2="313.1061"/><polygon fill="#A80036" points="335.043,127.415,335.889,134.5763,342.8248,136.5498,341.9788,129.3885,335.043,127.415" style="stroke:#A80036;stroke-width:1.0;"/><!--MD5=[240f9be4867aaaeddfb4b1430878d4ce]
link tictactoe.TicTacToe to Logic--><path codeLine="25" d="M365.5176,127.2374 C365.5176,127.2374 446.18,171.763 480.065,190.468 " fill="none" id="tictactoe.TicTacToe-Logic" style="stroke:#A80036;stroke-width:1.0;"/><polygon fill="#A80036" points="491.646,196.86,485.6996,189.0089,487.2686,194.4438,481.8337,196.0128,491.646,196.86" style="stroke:#A80036;stroke-width:1.0;"/><line style="stroke:#A80036;stroke-width:1.0;" x1="487.2686" x2="480.2645" y1="194.4438" y2="190.578"/><polygon fill="#A80036" points="355.012,121.438,358.3317,127.8395,365.5176,127.2374,362.1979,120.8358,355.012,121.438" style="stroke:#A80036;stroke-width:1.0;"/><!--MD5=[61773702f42b8d6445ea514f2a8a3076]
link tictactoe.TicTacToe to Controller--><path codeLine="26" d="M355.277,103.006 C425.076,122.339 537.961,154.656 634,187 C641.613,189.564 649.525,192.355 657.387,195.211 " fill="none" id="tictactoe.TicTacToe-to-Controller" style="stroke:#A80036;stroke-width:1.0;stroke-dasharray:7.0,7.0;"/><polygon fill="#A80036" points="662.273,196.997,655.1924,190.1512,657.5767,195.2811,652.4468,197.6654,662.273,196.997" style="stroke:#A80036;stroke-width:1.0;"/><!--MD5=[a094354f9a51332248887faf72ee7344]
@startuml
class View as "tictactoe.views.\nView" {}
class Logic as "tictactoe.controllers.\nLogic" {}
class Controller as "tictactoe.controllers.\nController"

class tictactoe.ConsoleTicTacToe{
  # createView(): View
  + {static} main(String[])
}
tictactoe.TicTacToe <|-down- tictactoe.ConsoleTicTacToe
tictactoe.ConsoleTicTacToe .down.> View

class tictactoe.GraphicsTicTacToe{
  # createView(): View
  + {static} main(String[])
}
tictactoe.TicTacToe <|-down- tictactoe.GraphicsTicTacToe
tictactoe.GraphicsTicTacToe .down.> View

class tictactoe.TicTacToe{
  # TicTacToe()
  # {abstract} createView(): View
  # play()
}
tictactoe.TicTacToe *-down-> View
tictactoe.TicTacToe *-down-> Logic
tictactoe.TicTacToe .down.> Controller
@enduml

PlantUML version 1.2020.22(Sun Dec 06 09:36:27 UTC 2020)
(GPL source distribution)
Java Runtime: Java(TM) SE Runtime Environment
JVM: Java HotSpot(TM) 64-Bit Server VM
Default Encoding: UTF-8
Language: en
Country: US
--></g></svg>