<?xml version="1.0" encoding="UTF-8" standalone="no"?><svg xmlns="http://www.w3.org/2000/svg" xmlns:xlink="http://www.w3.org/1999/xlink" contentScriptType="application/ecmascript" contentStyleType="text/css" height="741px" preserveAspectRatio="none" style="width:3029px;height:741px;" version="1.1" viewBox="0 0 3029 741" width="3029px" zoomAndPan="magnify"><defs><filter height="300%" id="f14ulztz41j77f" width="300%" x="-1" y="-1"><feGaussianBlur result="blurOut" stdDeviation="2.0"/><feColorMatrix in="blurOut" result="blurOut2" type="matrix" values="0 0 0 0 0 0 0 0 0 0 0 0 0 0 0 0 0 0 .4 0"/><feOffset dx="4.0" dy="4.0" in="blurOut2" result="blurOut3"/><feBlend in="SourceGraphic" in2="blurOut3" mode="normal"/></filter></defs><g><!--MD5=[4a2c519a1d4e2059eb71d825c7d6555c]
cluster usantatecla.tictactoe.views.graphics--><polygon fill="#FFFFFF" filter="url(#f14ulztz41j77f)" points="1676.5,80,1986.5,80,1993.5,102.2969,2691.5,102.2969,2691.5,734,1676.5,734,1676.5,80" style="stroke:#000000;stroke-width:1.5;"/><line style="stroke:#000000;stroke-width:1.5;" x1="1676.5" x2="1993.5" y1="102.2969" y2="102.2969"/><text fill="#000000" font-family="sans-serif" font-size="14" font-weight="bold" lengthAdjust="spacingAndGlyphs" textLength="304" x="1680.5" y="94.9951">usantatecla.tictactoe.views.graphics</text><polygon fill="#FFFFFF" filter="url(#f14ulztz41j77f)" points="2897,119,2998,119,3005,141.2969,3012,141.2969,3012,171.5938,2897,171.5938,2897,119" style="stroke:#000000;stroke-width:1.5;"/><line style="stroke:#000000;stroke-width:1.5;" x1="2897" x2="3005" y1="141.2969" y2="141.2969"/><text fill="#000000" font-family="sans-serif" font-size="14" font-weight="bold" lengthAdjust="spacingAndGlyphs" textLength="95" x="2901" y="133.9951">javax.swing</text><polygon fill="#FFFFFF" filter="url(#f14ulztz41j77f)" points="2707.5,119,2783.5,119,2790.5,141.2969,2797.5,141.2969,2797.5,171.5938,2707.5,171.5938,2707.5,119" style="stroke:#000000;stroke-width:1.5;"/><line style="stroke:#000000;stroke-width:1.5;" x1="2707.5" x2="2790.5" y1="141.2969" y2="141.2969"/><text fill="#000000" font-family="sans-serif" font-size="14" font-weight="bold" lengthAdjust="spacingAndGlyphs" textLength="70" x="2711.5" y="133.9951">java.awt</text><!--MD5=[d2d029f700109abcb34e5bcc3d74e16d]
class usantatecla.tictactoe.views.graphics.ChoosePlayersView--><rect codeLine="4" fill="#FEFECE" filter="url(#f14ulztz41j77f)" height="163.2422" id="usantatecla.tictactoe.views.graphics.ChoosePlayersView" style="stroke:#A80036;stroke-width:1.5;" width="202" x="2473.5" y="434"/><ellipse cx="2511.9" cy="450" fill="#ADD1B2" rx="11" ry="11" style="stroke:#A80036;stroke-width:1.0;"/><path d="M2514.2438,445.6719 C2513.3063,445.2344 2512.7125,445.0938 2511.8375,445.0938 C2509.2125,445.0938 2507.2125,447.1719 2507.2125,449.8906 L2507.2125,451.0156 C2507.2125,453.5938 2509.3219,455.4844 2512.2125,455.4844 C2513.4313,455.4844 2514.5875,455.1875 2515.3375,454.6406 C2515.9156,454.2344 2516.2438,453.7813 2516.2438,453.3906 C2516.2438,452.9375 2515.8531,452.5469 2515.3844,452.5469 C2515.1656,452.5469 2514.9625,452.625 2514.775,452.8125 C2514.3219,453.2969 2514.3219,453.2969 2514.1344,453.3906 C2513.7125,453.6563 2513.025,453.7813 2512.2594,453.7813 C2510.2125,453.7813 2508.9156,452.6875 2508.9156,450.9844 L2508.9156,449.8906 C2508.9156,448.1094 2510.1656,446.7969 2511.9,446.7969 C2512.4781,446.7969 2513.0875,446.9531 2513.5563,447.2031 C2514.0406,447.4844 2514.2125,447.7031 2514.3063,448.1094 C2514.3688,448.5156 2514.4,448.6406 2514.5406,448.7656 C2514.6813,448.9063 2514.9156,449.0156 2515.1344,449.0156 C2515.4,449.0156 2515.6656,448.875 2515.8375,448.6563 C2515.9469,448.5 2515.9781,448.3125 2515.9781,447.8906 L2515.9781,446.4688 C2515.9781,446.0313 2515.9625,445.9063 2515.8688,445.75 C2515.7125,445.4844 2515.4313,445.3438 2515.1344,445.3438 C2514.8375,445.3438 2514.6344,445.4375 2514.4156,445.75 L2514.2438,445.6719 Z " fill="#000000"/><text fill="#000000" font-family="sans-serif" font-size="12" lengthAdjust="spacingAndGlyphs" textLength="118" x="2531.1" y="454.1543">ChoosePlayersView</text><line style="stroke:#A80036;stroke-width:1.5;" x1="2474.5" x2="2674.5" y1="466" y2="466"/><rect fill="none" height="6" style="stroke:#C82930;stroke-width:1.0;" width="6" x="2481.5" y="474"/><text fill="#000000" font-family="sans-serif" font-size="11" lengthAdjust="spacingAndGlyphs" text-decoration="underline" textLength="81" x="2493.5" y="480.2104">String ACCEPT</text><rect fill="none" height="6" style="stroke:#C82930;stroke-width:1.0;" width="6" x="2481.5" y="486.8047"/><text fill="#000000" font-family="sans-serif" font-size="11" lengthAdjust="spacingAndGlyphs" textLength="124" x="2493.5" y="493.0151">String playersNumber</text><line style="stroke:#A80036;stroke-width:1.5;" x1="2474.5" x2="2674.5" y1="499.6094" y2="499.6094"/><polygon fill="#4177AF" points="2484.5,506.6094,2480.5,512.6094,2488.5,512.6094" style="stroke:#1963A0;stroke-width:1.0;"/><text fill="#000000" font-family="sans-serif" font-size="11" lengthAdjust="spacingAndGlyphs" textLength="176" x="2493.5" y="513.8198">ChoosePlayersView(JRootPane)</text><polygon fill="#4177AF" points="2484.5,519.4141,2480.5,525.4141,2488.5,525.4141" style="stroke:#1963A0;stroke-width:1.0;"/><text fill="#000000" font-family="sans-serif" font-size="11" lengthAdjust="spacingAndGlyphs" textLength="124" x="2493.5" y="526.6245">resetPlayersNumber()</text><polygon fill="#4177AF" points="2484.5,532.2188,2480.5,538.2188,2488.5,538.2188" style="stroke:#1963A0;stroke-width:1.0;"/><text fill="#000000" font-family="sans-serif" font-size="11" lengthAdjust="spacingAndGlyphs" textLength="150" x="2493.5" y="539.4292">String getPlayersNumber()</text><ellipse cx="2484.5" cy="549.0234" fill="#84BE84" rx="3" ry="3" style="stroke:#038048;stroke-width:1.0;"/><text fill="#000000" font-family="sans-serif" font-size="11" lengthAdjust="spacingAndGlyphs" textLength="169" x="2493.5" y="552.2339">actionPerformed(ActionEvent)</text><ellipse cx="2484.5" cy="561.8281" fill="#84BE84" rx="3" ry="3" style="stroke:#038048;stroke-width:1.0;"/><text fill="#000000" font-family="sans-serif" font-size="11" lengthAdjust="spacingAndGlyphs" textLength="120" x="2493.5" y="565.0386">keyTyped(KeyEvent)</text><ellipse cx="2484.5" cy="574.6328" fill="#84BE84" rx="3" ry="3" style="stroke:#038048;stroke-width:1.0;"/><text fill="#000000" font-family="sans-serif" font-size="11" lengthAdjust="spacingAndGlyphs" textLength="129" x="2493.5" y="577.8433">keyPressed(KeyEvent)</text><ellipse cx="2484.5" cy="587.4375" fill="#84BE84" rx="3" ry="3" style="stroke:#038048;stroke-width:1.0;"/><text fill="#000000" font-family="sans-serif" font-size="11" lengthAdjust="spacingAndGlyphs" textLength="138" x="2493.5" y="590.6479">keyReleased(KeyEvent)</text><!--MD5=[4cde9c6f00ba28f5b9399bb659019581]
class usantatecla.tictactoe.views.graphics.Constraints--><rect codeLine="28" fill="#FEFECE" filter="url(#f14ulztz41j77f)" height="60.8047" id="usantatecla.tictactoe.views.graphics.Constraints" style="stroke:#A80036;stroke-width:1.5;" width="174" x="2494.5" y="657"/><ellipse cx="2543.75" cy="673" fill="#ADD1B2" rx="11" ry="11" style="stroke:#A80036;stroke-width:1.0;"/><path d="M2546.0938,668.6719 C2545.1563,668.2344 2544.5625,668.0938 2543.6875,668.0938 C2541.0625,668.0938 2539.0625,670.1719 2539.0625,672.8906 L2539.0625,674.0156 C2539.0625,676.5938 2541.1719,678.4844 2544.0625,678.4844 C2545.2813,678.4844 2546.4375,678.1875 2547.1875,677.6406 C2547.7656,677.2344 2548.0938,676.7813 2548.0938,676.3906 C2548.0938,675.9375 2547.7031,675.5469 2547.2344,675.5469 C2547.0156,675.5469 2546.8125,675.625 2546.625,675.8125 C2546.1719,676.2969 2546.1719,676.2969 2545.9844,676.3906 C2545.5625,676.6563 2544.875,676.7813 2544.1094,676.7813 C2542.0625,676.7813 2540.7656,675.6875 2540.7656,673.9844 L2540.7656,672.8906 C2540.7656,671.1094 2542.0156,669.7969 2543.75,669.7969 C2544.3281,669.7969 2544.9375,669.9531 2545.4063,670.2031 C2545.8906,670.4844 2546.0625,670.7031 2546.1563,671.1094 C2546.2188,671.5156 2546.25,671.6406 2546.3906,671.7656 C2546.5313,671.9063 2546.7656,672.0156 2546.9844,672.0156 C2547.25,672.0156 2547.5156,671.875 2547.6875,671.6563 C2547.7969,671.5 2547.8281,671.3125 2547.8281,670.8906 L2547.8281,669.4688 C2547.8281,669.0313 2547.8125,668.9063 2547.7188,668.75 C2547.5625,668.4844 2547.2813,668.3438 2546.9844,668.3438 C2546.6875,668.3438 2546.4844,668.4375 2546.2656,668.75 L2546.0938,668.6719 Z " fill="#000000"/><text fill="#000000" font-family="sans-serif" font-size="12" lengthAdjust="spacingAndGlyphs" textLength="67" x="2564.25" y="677.1543">Constraints</text><line style="stroke:#A80036;stroke-width:1.5;" x1="2495.5" x2="2667.5" y1="689" y2="689"/><line style="stroke:#A80036;stroke-width:1.5;" x1="2495.5" x2="2667.5" y1="697" y2="697"/><polygon fill="#4177AF" points="2505.5,704,2501.5,710,2509.5,710" style="stroke:#1963A0;stroke-width:1.0;"/><text fill="#000000" font-family="sans-serif" font-size="11" lengthAdjust="spacingAndGlyphs" textLength="148" x="2514.5" y="711.2104">Constraints(int, int, int, int)</text><!--MD5=[60fc07c24f39175f70a0caf1948bd424]
class usantatecla.tictactoe.views.graphics.CoordinateMoveView--><rect codeLine="36" fill="#FEFECE" filter="url(#f14ulztz41j77f)" height="112.0234" id="usantatecla.tictactoe.views.graphics.CoordinateMoveView" style="stroke:#A80036;stroke-width:1.5;" width="255" x="1693" y="459.5"/><ellipse cx="1752.25" cy="475.5" fill="#ADD1B2" rx="11" ry="11" style="stroke:#A80036;stroke-width:1.0;"/><path d="M1754.5938,471.1719 C1753.6563,470.7344 1753.0625,470.5938 1752.1875,470.5938 C1749.5625,470.5938 1747.5625,472.6719 1747.5625,475.3906 L1747.5625,476.5156 C1747.5625,479.0938 1749.6719,480.9844 1752.5625,480.9844 C1753.7813,480.9844 1754.9375,480.6875 1755.6875,480.1406 C1756.2656,479.7344 1756.5938,479.2813 1756.5938,478.8906 C1756.5938,478.4375 1756.2031,478.0469 1755.7344,478.0469 C1755.5156,478.0469 1755.3125,478.125 1755.125,478.3125 C1754.6719,478.7969 1754.6719,478.7969 1754.4844,478.8906 C1754.0625,479.1563 1753.375,479.2813 1752.6094,479.2813 C1750.5625,479.2813 1749.2656,478.1875 1749.2656,476.4844 L1749.2656,475.3906 C1749.2656,473.6094 1750.5156,472.2969 1752.25,472.2969 C1752.8281,472.2969 1753.4375,472.4531 1753.9063,472.7031 C1754.3906,472.9844 1754.5625,473.2031 1754.6563,473.6094 C1754.7188,474.0156 1754.75,474.1406 1754.8906,474.2656 C1755.0313,474.4063 1755.2656,474.5156 1755.4844,474.5156 C1755.75,474.5156 1756.0156,474.375 1756.1875,474.1563 C1756.2969,474 1756.3281,473.8125 1756.3281,473.3906 L1756.3281,471.9688 C1756.3281,471.5313 1756.3125,471.4063 1756.2188,471.25 C1756.0625,470.9844 1755.7813,470.8438 1755.4844,470.8438 C1755.1875,470.8438 1754.9844,470.9375 1754.7656,471.25 L1754.5938,471.1719 Z " fill="#000000"/><text fill="#000000" font-family="sans-serif" font-size="12" lengthAdjust="spacingAndGlyphs" textLength="128" x="1772.75" y="479.6543">CoordinateMoveView</text><line style="stroke:#A80036;stroke-width:1.5;" x1="1694" x2="1947" y1="491.5" y2="491.5"/><polygon fill="none" points="1704,498.5,1700,504.5,1708,504.5" style="stroke:#1963A0;stroke-width:1.0;"/><text fill="#000000" font-family="sans-serif" font-size="11" lengthAdjust="spacingAndGlyphs" text-decoration="underline" textLength="229" x="1713" y="505.7104">String ENTER_COORDINATE_TO_REMOVE</text><line style="stroke:#A80036;stroke-width:1.5;" x1="1694" x2="1947" y1="512.3047" y2="512.3047"/><polygon fill="#4177AF" points="1704,519.3047,1700,525.3047,1708,525.3047" style="stroke:#1963A0;stroke-width:1.0;"/><text fill="#000000" font-family="sans-serif" font-size="11" lengthAdjust="spacingAndGlyphs" textLength="129" x="1713" y="526.5151">CoordinateMoveView()</text><polygon fill="#4177AF" points="1704,532.1094,1700,538.1094,1708,538.1094" style="stroke:#1963A0;stroke-width:1.0;"/><text fill="#000000" font-family="sans-serif" font-size="11" lengthAdjust="spacingAndGlyphs" textLength="106" x="1713" y="539.3198">resetCoordinates()</text><polygon fill="#4177AF" points="1704,544.9141,1700,550.9141,1708,550.9141" style="stroke:#1963A0;stroke-width:1.0;"/><text fill="#000000" font-family="sans-serif" font-size="11" lengthAdjust="spacingAndGlyphs" textLength="169" x="1713" y="552.1245">Coordinate[] getCoordinates()</text><ellipse cx="1704" cy="561.7188" fill="#84BE84" rx="3" ry="3" style="stroke:#038048;stroke-width:1.0;"/><text fill="#000000" font-family="sans-serif" font-size="11" lengthAdjust="spacingAndGlyphs" textLength="169" x="1713" y="564.9292">actionPerformed(ActionEvent)</text><!--MD5=[fd79f5b787364979bee749ddb6283d48]
class usantatecla.tictactoe.views.graphics.CoordinateView--><rect codeLine="71" fill="#FEFECE" filter="url(#f14ulztz41j77f)" height="137.6328" id="usantatecla.tictactoe.views.graphics.CoordinateView" style="stroke:#A80036;stroke-width:1.5;" width="229" x="2276" y="236"/><ellipse cx="2338.75" cy="252" fill="#ADD1B2" rx="11" ry="11" style="stroke:#A80036;stroke-width:1.0;"/><path d="M2341.0938,247.6719 C2340.1563,247.2344 2339.5625,247.0938 2338.6875,247.0938 C2336.0625,247.0938 2334.0625,249.1719 2334.0625,251.8906 L2334.0625,253.0156 C2334.0625,255.5938 2336.1719,257.4844 2339.0625,257.4844 C2340.2813,257.4844 2341.4375,257.1875 2342.1875,256.6406 C2342.7656,256.2344 2343.0938,255.7813 2343.0938,255.3906 C2343.0938,254.9375 2342.7031,254.5469 2342.2344,254.5469 C2342.0156,254.5469 2341.8125,254.625 2341.625,254.8125 C2341.1719,255.2969 2341.1719,255.2969 2340.9844,255.3906 C2340.5625,255.6563 2339.875,255.7813 2339.1094,255.7813 C2337.0625,255.7813 2335.7656,254.6875 2335.7656,252.9844 L2335.7656,251.8906 C2335.7656,250.1094 2337.0156,248.7969 2338.75,248.7969 C2339.3281,248.7969 2339.9375,248.9531 2340.4063,249.2031 C2340.8906,249.4844 2341.0625,249.7031 2341.1563,250.1094 C2341.2188,250.5156 2341.25,250.6406 2341.3906,250.7656 C2341.5313,250.9063 2341.7656,251.0156 2341.9844,251.0156 C2342.25,251.0156 2342.5156,250.875 2342.6875,250.6563 C2342.7969,250.5 2342.8281,250.3125 2342.8281,249.8906 L2342.8281,248.4688 C2342.8281,248.0313 2342.8125,247.9063 2342.7188,247.75 C2342.5625,247.4844 2342.2813,247.3438 2341.9844,247.3438 C2341.6875,247.3438 2341.4844,247.4375 2341.2656,247.75 L2341.0938,247.6719 Z " fill="#000000"/><text fill="#000000" font-family="sans-serif" font-size="12" lengthAdjust="spacingAndGlyphs" textLength="95" x="2359.25" y="256.1543">CoordinateView</text><line style="stroke:#A80036;stroke-width:1.5;" x1="2277" x2="2504" y1="268" y2="268"/><polygon fill="none" points="2287,274,2291,278,2287,282,2283,278" style="stroke:#B38D22;stroke-width:1.0;"/><text fill="#000000" font-family="sans-serif" font-size="11" lengthAdjust="spacingAndGlyphs" text-decoration="underline" textLength="203" x="2296" y="282.2104">String ENTER_COORDINATE_TO_PUT</text><polygon fill="none" points="2287,286.8047,2291,290.8047,2287,294.8047,2283,290.8047" style="stroke:#B38D22;stroke-width:1.0;"/><text fill="#000000" font-family="sans-serif" font-size="11" lengthAdjust="spacingAndGlyphs" text-decoration="underline" textLength="81" x="2296" y="295.0151">String ACCEPT</text><line style="stroke:#A80036;stroke-width:1.5;" x1="2277" x2="2504" y1="301.6094" y2="301.6094"/><polygon fill="#4177AF" points="2287,308.6094,2283,314.6094,2291,314.6094" style="stroke:#1963A0;stroke-width:1.0;"/><text fill="#000000" font-family="sans-serif" font-size="11" lengthAdjust="spacingAndGlyphs" textLength="98" x="2296" y="315.8198">CoordinateView()</text><ellipse cx="2287" cy="325.4141" fill="#84BE84" rx="3" ry="3" style="stroke:#038048;stroke-width:1.0;"/><text fill="#000000" font-family="sans-serif" font-size="11" font-style="italic" lengthAdjust="spacingAndGlyphs" textLength="169" x="2296" y="328.6245">actionPerformed(ActionEvent)</text><ellipse cx="2287" cy="338.2188" fill="#84BE84" rx="3" ry="3" style="stroke:#038048;stroke-width:1.0;"/><text fill="#000000" font-family="sans-serif" font-size="11" lengthAdjust="spacingAndGlyphs" textLength="120" x="2296" y="341.4292">keyTyped(KeyEvent)</text><ellipse cx="2287" cy="351.0234" fill="#84BE84" rx="3" ry="3" style="stroke:#038048;stroke-width:1.0;"/><text fill="#000000" font-family="sans-serif" font-size="11" lengthAdjust="spacingAndGlyphs" textLength="129" x="2296" y="354.2339">keyPressed(KeyEvent)</text><ellipse cx="2287" cy="363.8281" fill="#84BE84" rx="3" ry="3" style="stroke:#038048;stroke-width:1.0;"/><text fill="#000000" font-family="sans-serif" font-size="11" lengthAdjust="spacingAndGlyphs" textLength="138" x="2296" y="367.0386">keyReleased(KeyEvent)</text><!--MD5=[b64db9b57815c0cb4599d086278e9abd]
class usantatecla.tictactoe.views.graphics.CoordinatePutView--><rect codeLine="54" fill="#FEFECE" filter="url(#f14ulztz41j77f)" height="137.6328" id="usantatecla.tictactoe.views.graphics.CoordinatePutView" style="stroke:#A80036;stroke-width:1.5;" width="195" x="1983" y="446.5"/><ellipse cx="2020.95" cy="462.5" fill="#ADD1B2" rx="11" ry="11" style="stroke:#A80036;stroke-width:1.0;"/><path d="M2023.2938,458.1719 C2022.3563,457.7344 2021.7625,457.5938 2020.8875,457.5938 C2018.2625,457.5938 2016.2625,459.6719 2016.2625,462.3906 L2016.2625,463.5156 C2016.2625,466.0938 2018.3719,467.9844 2021.2625,467.9844 C2022.4813,467.9844 2023.6375,467.6875 2024.3875,467.1406 C2024.9656,466.7344 2025.2938,466.2813 2025.2938,465.8906 C2025.2938,465.4375 2024.9031,465.0469 2024.4344,465.0469 C2024.2156,465.0469 2024.0125,465.125 2023.825,465.3125 C2023.3719,465.7969 2023.3719,465.7969 2023.1844,465.8906 C2022.7625,466.1563 2022.075,466.2813 2021.3094,466.2813 C2019.2625,466.2813 2017.9656,465.1875 2017.9656,463.4844 L2017.9656,462.3906 C2017.9656,460.6094 2019.2156,459.2969 2020.95,459.2969 C2021.5281,459.2969 2022.1375,459.4531 2022.6063,459.7031 C2023.0906,459.9844 2023.2625,460.2031 2023.3563,460.6094 C2023.4188,461.0156 2023.45,461.1406 2023.5906,461.2656 C2023.7313,461.4063 2023.9656,461.5156 2024.1844,461.5156 C2024.45,461.5156 2024.7156,461.375 2024.8875,461.1563 C2024.9969,461 2025.0281,460.8125 2025.0281,460.3906 L2025.0281,458.9688 C2025.0281,458.5313 2025.0125,458.4063 2024.9188,458.25 C2024.7625,457.9844 2024.4813,457.8438 2024.1844,457.8438 C2023.8875,457.8438 2023.6844,457.9375 2023.4656,458.25 L2023.2938,458.1719 Z " fill="#000000"/><text fill="#000000" font-family="sans-serif" font-size="12" lengthAdjust="spacingAndGlyphs" textLength="112" x="2040.05" y="466.6543">CoordinatePutView</text><line style="stroke:#A80036;stroke-width:1.5;" x1="1984" x2="2177" y1="478.5" y2="478.5"/><line style="stroke:#A80036;stroke-width:1.5;" x1="1984" x2="2177" y1="486.5" y2="486.5"/><polygon fill="#4177AF" points="1994,493.5,1990,499.5,1998,499.5" style="stroke:#1963A0;stroke-width:1.0;"/><text fill="#000000" font-family="sans-serif" font-size="11" lengthAdjust="spacingAndGlyphs" textLength="115" x="2003" y="500.7104">CoordinatePutView()</text><polygon fill="#4177AF" points="1994,506.3047,1990,512.3047,1998,512.3047" style="stroke:#1963A0;stroke-width:1.0;"/><text fill="#000000" font-family="sans-serif" font-size="11" lengthAdjust="spacingAndGlyphs" textLength="100" x="2003" y="513.5151">resetCoordinate()</text><polygon fill="#4177AF" points="1994,519.1094,1990,525.1094,1998,525.1094" style="stroke:#1963A0;stroke-width:1.0;"/><text fill="#000000" font-family="sans-serif" font-size="11" lengthAdjust="spacingAndGlyphs" textLength="155" x="2003" y="526.3198">Coordinate getCoordinate()</text><ellipse cx="1994" cy="535.9141" fill="#84BE84" rx="3" ry="3" style="stroke:#038048;stroke-width:1.0;"/><text fill="#000000" font-family="sans-serif" font-size="11" lengthAdjust="spacingAndGlyphs" textLength="169" x="2003" y="539.1245">actionPerformed(ActionEvent)</text><ellipse cx="1994" cy="548.7188" fill="#84BE84" rx="3" ry="3" style="stroke:#038048;stroke-width:1.0;"/><text fill="#000000" font-family="sans-serif" font-size="11" lengthAdjust="spacingAndGlyphs" textLength="124" x="2003" y="551.9292">keyTyped(KeyEvent )</text><ellipse cx="1994" cy="561.5234" fill="#84BE84" rx="3" ry="3" style="stroke:#038048;stroke-width:1.0;"/><text fill="#000000" font-family="sans-serif" font-size="11" lengthAdjust="spacingAndGlyphs" textLength="129" x="2003" y="564.7339">keyPressed(KeyEvent)</text><ellipse cx="1994" cy="574.3281" fill="#84BE84" rx="3" ry="3" style="stroke:#038048;stroke-width:1.0;"/><text fill="#000000" font-family="sans-serif" font-size="11" lengthAdjust="spacingAndGlyphs" textLength="138" x="2003" y="577.5386">keyReleased(KeyEvent)</text><!--MD5=[34226cdba220114a91c4ebd6014c3336]
class usantatecla.tictactoe.views.graphics.GameView--><rect codeLine="89" fill="#FEFECE" filter="url(#f14ulztz41j77f)" height="99.2188" id="usantatecla.tictactoe.views.graphics.GameView" style="stroke:#A80036;stroke-width:1.5;" width="225" x="2213" y="466"/><ellipse cx="2289.25" cy="482" fill="#ADD1B2" rx="11" ry="11" style="stroke:#A80036;stroke-width:1.0;"/><path d="M2291.5938,477.6719 C2290.6563,477.2344 2290.0625,477.0938 2289.1875,477.0938 C2286.5625,477.0938 2284.5625,479.1719 2284.5625,481.8906 L2284.5625,483.0156 C2284.5625,485.5938 2286.6719,487.4844 2289.5625,487.4844 C2290.7813,487.4844 2291.9375,487.1875 2292.6875,486.6406 C2293.2656,486.2344 2293.5938,485.7813 2293.5938,485.3906 C2293.5938,484.9375 2293.2031,484.5469 2292.7344,484.5469 C2292.5156,484.5469 2292.3125,484.625 2292.125,484.8125 C2291.6719,485.2969 2291.6719,485.2969 2291.4844,485.3906 C2291.0625,485.6563 2290.375,485.7813 2289.6094,485.7813 C2287.5625,485.7813 2286.2656,484.6875 2286.2656,482.9844 L2286.2656,481.8906 C2286.2656,480.1094 2287.5156,478.7969 2289.25,478.7969 C2289.8281,478.7969 2290.4375,478.9531 2290.9063,479.2031 C2291.3906,479.4844 2291.5625,479.7031 2291.6563,480.1094 C2291.7188,480.5156 2291.75,480.6406 2291.8906,480.7656 C2292.0313,480.9063 2292.2656,481.0156 2292.4844,481.0156 C2292.75,481.0156 2293.0156,480.875 2293.1875,480.6563 C2293.2969,480.5 2293.3281,480.3125 2293.3281,479.8906 L2293.3281,478.4688 C2293.3281,478.0313 2293.3125,477.9063 2293.2188,477.75 C2293.0625,477.4844 2292.7813,477.3438 2292.4844,477.3438 C2292.1875,477.3438 2291.9844,477.4375 2291.7656,477.75 L2291.5938,477.6719 Z " fill="#000000"/><text fill="#000000" font-family="sans-serif" font-size="12" lengthAdjust="spacingAndGlyphs" textLength="64" x="2309.75" y="486.1543">GameView</text><line style="stroke:#A80036;stroke-width:1.5;" x1="2214" x2="2437" y1="498" y2="498"/><line style="stroke:#A80036;stroke-width:1.5;" x1="2214" x2="2437" y1="506" y2="506"/><polygon fill="#4177AF" points="2224,513,2220,519,2228,519" style="stroke:#1963A0;stroke-width:1.0;"/><text fill="#000000" font-family="sans-serif" font-size="11" lengthAdjust="spacingAndGlyphs" textLength="106" x="2233" y="520.2104">GameView(Game)</text><polygon fill="#4177AF" points="2224,525.8047,2220,531.8047,2228,531.8047" style="stroke:#1963A0;stroke-width:1.0;"/><text fill="#000000" font-family="sans-serif" font-size="11" lengthAdjust="spacingAndGlyphs" textLength="36" x="2233" y="533.0151">write()</text><rect fill="#F24D5C" height="6" style="stroke:#C82930;stroke-width:1.0;" width="6" x="2221" y="539.6094"/><text fill="#000000" font-family="sans-serif" font-size="11" lengthAdjust="spacingAndGlyphs" textLength="103" x="2233" y="545.8198">printRowBoard(int)</text><rect fill="#F24D5C" height="6" style="stroke:#C82930;stroke-width:1.0;" width="6" x="2221" y="552.4141"/><text fill="#000000" font-family="sans-serif" font-size="11" lengthAdjust="spacingAndGlyphs" textLength="199" x="2233" y="558.6245">String getSquareBoardText(int, int)</text><!--MD5=[cdc8048ce8edd74de0e2210c3e136b55]
class usantatecla.tictactoe.views.graphics.PlayView--><rect codeLine="110" fill="#FEFECE" filter="url(#f14ulztz41j77f)" height="124.8281" id="usantatecla.tictactoe.views.graphics.PlayView" style="stroke:#A80036;stroke-width:1.5;" width="331" x="1910" y="242.5"/><ellipse cx="2045.25" cy="258.5" fill="#ADD1B2" rx="11" ry="11" style="stroke:#A80036;stroke-width:1.0;"/><path d="M2047.5938,254.1719 C2046.6563,253.7344 2046.0625,253.5938 2045.1875,253.5938 C2042.5625,253.5938 2040.5625,255.6719 2040.5625,258.3906 L2040.5625,259.5156 C2040.5625,262.0938 2042.6719,263.9844 2045.5625,263.9844 C2046.7813,263.9844 2047.9375,263.6875 2048.6875,263.1406 C2049.2656,262.7344 2049.5938,262.2813 2049.5938,261.8906 C2049.5938,261.4375 2049.2031,261.0469 2048.7344,261.0469 C2048.5156,261.0469 2048.3125,261.125 2048.125,261.3125 C2047.6719,261.7969 2047.6719,261.7969 2047.4844,261.8906 C2047.0625,262.1563 2046.375,262.2813 2045.6094,262.2813 C2043.5625,262.2813 2042.2656,261.1875 2042.2656,259.4844 L2042.2656,258.3906 C2042.2656,256.6094 2043.5156,255.2969 2045.25,255.2969 C2045.8281,255.2969 2046.4375,255.4531 2046.9063,255.7031 C2047.3906,255.9844 2047.5625,256.2031 2047.6563,256.6094 C2047.7188,257.0156 2047.75,257.1406 2047.8906,257.2656 C2048.0313,257.4063 2048.2656,257.5156 2048.4844,257.5156 C2048.75,257.5156 2049.0156,257.375 2049.1875,257.1563 C2049.2969,257 2049.3281,256.8125 2049.3281,256.3906 L2049.3281,254.9688 C2049.3281,254.5313 2049.3125,254.4063 2049.2188,254.25 C2049.0625,253.9844 2048.7813,253.8438 2048.4844,253.8438 C2048.1875,253.8438 2047.9844,253.9375 2047.7656,254.25 L2047.5938,254.1719 Z " fill="#000000"/><text fill="#000000" font-family="sans-serif" font-size="12" lengthAdjust="spacingAndGlyphs" textLength="52" x="2065.75" y="262.6543">PlayView</text><line style="stroke:#A80036;stroke-width:1.5;" x1="1911" x2="2240" y1="274.5" y2="274.5"/><polygon fill="none" points="1921,281.5,1917,287.5,1925,287.5" style="stroke:#1963A0;stroke-width:1.0;"/><text fill="#000000" font-family="sans-serif" font-size="11" lengthAdjust="spacingAndGlyphs" textLength="279" x="1930" y="288.7104">{static final} String ENTER_COORDINATE_TO_PUT</text><polygon fill="none" points="1921,294.3047,1917,300.3047,1925,300.3047" style="stroke:#1963A0;stroke-width:1.0;"/><text fill="#000000" font-family="sans-serif" font-size="11" lengthAdjust="spacingAndGlyphs" textLength="305" x="1930" y="301.5151">{static final} String ENTER_COORDINATE_TO_REMOVE</text><line style="stroke:#A80036;stroke-width:1.5;" x1="1911" x2="2240" y1="308.1094" y2="308.1094"/><polygon fill="#4177AF" points="1921,315.1094,1917,321.1094,1925,321.1094" style="stroke:#1963A0;stroke-width:1.0;"/><text fill="#000000" font-family="sans-serif" font-size="11" lengthAdjust="spacingAndGlyphs" textLength="94" x="1930" y="322.3198">PlayView(Game)</text><polygon fill="#4177AF" points="1921,327.9141,1917,333.9141,1925,333.9141" style="stroke:#1963A0;stroke-width:1.0;"/><text fill="#000000" font-family="sans-serif" font-size="11" lengthAdjust="spacingAndGlyphs" textLength="51" x="1930" y="335.1245">interact()</text><rect fill="#F24D5C" height="6" style="stroke:#C82930;stroke-width:1.0;" width="6" x="1918" y="341.7188"/><text fill="#000000" font-family="sans-serif" font-size="11" lengthAdjust="spacingAndGlyphs" textLength="26" x="1930" y="347.9292">put()</text><rect fill="#F24D5C" height="6" style="stroke:#C82930;stroke-width:1.0;" width="6" x="1918" y="354.5234"/><text fill="#000000" font-family="sans-serif" font-size="11" lengthAdjust="spacingAndGlyphs" textLength="41" x="1930" y="360.7339">move()</text><!--MD5=[e171d38dde8bc447a12b90c4f96e9a99]
class usantatecla.tictactoe.views.graphics.ResumeView--><rect codeLine="131" fill="#FEFECE" filter="url(#f14ulztz41j77f)" height="86.4141" id="usantatecla.tictactoe.views.graphics.ResumeView" style="stroke:#A80036;stroke-width:1.5;" width="182" x="1692.5" y="262"/><ellipse cx="1740.75" cy="278" fill="#ADD1B2" rx="11" ry="11" style="stroke:#A80036;stroke-width:1.0;"/><path d="M1743.0938,273.6719 C1742.1563,273.2344 1741.5625,273.0938 1740.6875,273.0938 C1738.0625,273.0938 1736.0625,275.1719 1736.0625,277.8906 L1736.0625,279.0156 C1736.0625,281.5938 1738.1719,283.4844 1741.0625,283.4844 C1742.2813,283.4844 1743.4375,283.1875 1744.1875,282.6406 C1744.7656,282.2344 1745.0938,281.7813 1745.0938,281.3906 C1745.0938,280.9375 1744.7031,280.5469 1744.2344,280.5469 C1744.0156,280.5469 1743.8125,280.625 1743.625,280.8125 C1743.1719,281.2969 1743.1719,281.2969 1742.9844,281.3906 C1742.5625,281.6563 1741.875,281.7813 1741.1094,281.7813 C1739.0625,281.7813 1737.7656,280.6875 1737.7656,278.9844 L1737.7656,277.8906 C1737.7656,276.1094 1739.0156,274.7969 1740.75,274.7969 C1741.3281,274.7969 1741.9375,274.9531 1742.4063,275.2031 C1742.8906,275.4844 1743.0625,275.7031 1743.1563,276.1094 C1743.2188,276.5156 1743.25,276.6406 1743.3906,276.7656 C1743.5313,276.9063 1743.7656,277.0156 1743.9844,277.0156 C1744.25,277.0156 1744.5156,276.875 1744.6875,276.6563 C1744.7969,276.5 1744.8281,276.3125 1744.8281,275.8906 L1744.8281,274.4688 C1744.8281,274.0313 1744.8125,273.9063 1744.7188,273.75 C1744.5625,273.4844 1744.2813,273.3438 1743.9844,273.3438 C1743.6875,273.3438 1743.4844,273.4375 1743.2656,273.75 L1743.0938,273.6719 Z " fill="#000000"/><text fill="#000000" font-family="sans-serif" font-size="12" lengthAdjust="spacingAndGlyphs" textLength="77" x="1761.25" y="282.1543">ResumeView</text><line style="stroke:#A80036;stroke-width:1.5;" x1="1693.5" x2="1873.5" y1="294" y2="294"/><rect fill="none" height="6" style="stroke:#C82930;stroke-width:1.0;" width="6" x="1700.5" y="302"/><text fill="#000000" font-family="sans-serif" font-size="11" lengthAdjust="spacingAndGlyphs" textLength="112" x="1712.5" y="308.2104">boolean newGame;</text><line style="stroke:#A80036;stroke-width:1.5;" x1="1693.5" x2="1873.5" y1="314.8047" y2="314.8047"/><polygon fill="#4177AF" points="1703.5,321.8047,1699.5,327.8047,1707.5,327.8047" style="stroke:#1963A0;stroke-width:1.0;"/><text fill="#000000" font-family="sans-serif" font-size="11" lengthAdjust="spacingAndGlyphs" textLength="83" x="1712.5" y="329.0151">ResumeView()</text><polygon fill="#4177AF" points="1703.5,334.6094,1699.5,340.6094,1707.5,340.6094" style="stroke:#1963A0;stroke-width:1.0;"/><text fill="#000000" font-family="sans-serif" font-size="11" lengthAdjust="spacingAndGlyphs" textLength="156" x="1712.5" y="341.8198">boolean isResumedGame()</text><!--MD5=[9ec4f2e0c7acff142894de6c884d1545]
class usantatecla.tictactoe.views.graphics.StartView--><rect codeLine="142" fill="#FEFECE" filter="url(#f14ulztz41j77f)" height="73.6094" id="usantatecla.tictactoe.views.graphics.StartView" style="stroke:#A80036;stroke-width:1.5;" width="124" x="2540.5" y="268"/><ellipse cx="2571.25" cy="284" fill="#ADD1B2" rx="11" ry="11" style="stroke:#A80036;stroke-width:1.0;"/><path d="M2573.5938,279.6719 C2572.6563,279.2344 2572.0625,279.0938 2571.1875,279.0938 C2568.5625,279.0938 2566.5625,281.1719 2566.5625,283.8906 L2566.5625,285.0156 C2566.5625,287.5938 2568.6719,289.4844 2571.5625,289.4844 C2572.7813,289.4844 2573.9375,289.1875 2574.6875,288.6406 C2575.2656,288.2344 2575.5938,287.7813 2575.5938,287.3906 C2575.5938,286.9375 2575.2031,286.5469 2574.7344,286.5469 C2574.5156,286.5469 2574.3125,286.625 2574.125,286.8125 C2573.6719,287.2969 2573.6719,287.2969 2573.4844,287.3906 C2573.0625,287.6563 2572.375,287.7813 2571.6094,287.7813 C2569.5625,287.7813 2568.2656,286.6875 2568.2656,284.9844 L2568.2656,283.8906 C2568.2656,282.1094 2569.5156,280.7969 2571.25,280.7969 C2571.8281,280.7969 2572.4375,280.9531 2572.9063,281.2031 C2573.3906,281.4844 2573.5625,281.7031 2573.6563,282.1094 C2573.7188,282.5156 2573.75,282.6406 2573.8906,282.7656 C2574.0313,282.9063 2574.2656,283.0156 2574.4844,283.0156 C2574.75,283.0156 2575.0156,282.875 2575.1875,282.6563 C2575.2969,282.5 2575.3281,282.3125 2575.3281,281.8906 L2575.3281,280.4688 C2575.3281,280.0313 2575.3125,279.9063 2575.2188,279.75 C2575.0625,279.4844 2574.7813,279.3438 2574.4844,279.3438 C2574.1875,279.3438 2573.9844,279.4375 2573.7656,279.75 L2573.5938,279.6719 Z " fill="#000000"/><text fill="#000000" font-family="sans-serif" font-size="12" lengthAdjust="spacingAndGlyphs" textLength="57" x="2588.75" y="288.1543">StartView</text><line style="stroke:#A80036;stroke-width:1.5;" x1="2541.5" x2="2663.5" y1="300" y2="300"/><line style="stroke:#A80036;stroke-width:1.5;" x1="2541.5" x2="2663.5" y1="308" y2="308"/><polygon fill="#4177AF" points="2551.5,315,2547.5,321,2555.5,321" style="stroke:#1963A0;stroke-width:1.0;"/><text fill="#000000" font-family="sans-serif" font-size="11" lengthAdjust="spacingAndGlyphs" textLength="98" x="2560.5" y="322.2104">StartView(Game)</text><polygon fill="#4177AF" points="2551.5,327.8047,2547.5,333.8047,2555.5,333.8047" style="stroke:#1963A0;stroke-width:1.0;"/><text fill="#000000" font-family="sans-serif" font-size="11" lengthAdjust="spacingAndGlyphs" textLength="51" x="2560.5" y="335.0151">interact()</text><!--MD5=[b29758acbc8a76271a939284967915a0]
class usantatecla.tictactoe.views.graphics.GraphicsView--><rect codeLine="156" fill="#FEFECE" filter="url(#f14ulztz41j77f)" height="60.8047" id="usantatecla.tictactoe.views.graphics.GraphicsView" style="stroke:#A80036;stroke-width:1.5;" width="114" x="2018.5" y="115"/><ellipse cx="2033.5" cy="131" fill="#ADD1B2" rx="11" ry="11" style="stroke:#A80036;stroke-width:1.0;"/><path d="M2035.8438,126.6719 C2034.9063,126.2344 2034.3125,126.0938 2033.4375,126.0938 C2030.8125,126.0938 2028.8125,128.1719 2028.8125,130.8906 L2028.8125,132.0156 C2028.8125,134.5938 2030.9219,136.4844 2033.8125,136.4844 C2035.0313,136.4844 2036.1875,136.1875 2036.9375,135.6406 C2037.5156,135.2344 2037.8438,134.7813 2037.8438,134.3906 C2037.8438,133.9375 2037.4531,133.5469 2036.9844,133.5469 C2036.7656,133.5469 2036.5625,133.625 2036.375,133.8125 C2035.9219,134.2969 2035.9219,134.2969 2035.7344,134.3906 C2035.3125,134.6563 2034.625,134.7813 2033.8594,134.7813 C2031.8125,134.7813 2030.5156,133.6875 2030.5156,131.9844 L2030.5156,130.8906 C2030.5156,129.1094 2031.7656,127.7969 2033.5,127.7969 C2034.0781,127.7969 2034.6875,127.9531 2035.1563,128.2031 C2035.6406,128.4844 2035.8125,128.7031 2035.9063,129.1094 C2035.9688,129.5156 2036,129.6406 2036.1406,129.7656 C2036.2813,129.9063 2036.5156,130.0156 2036.7344,130.0156 C2037,130.0156 2037.2656,129.875 2037.4375,129.6563 C2037.5469,129.5 2037.5781,129.3125 2037.5781,128.8906 L2037.5781,127.4688 C2037.5781,127.0313 2037.5625,126.9063 2037.4688,126.75 C2037.3125,126.4844 2037.0313,126.3438 2036.7344,126.3438 C2036.4375,126.3438 2036.2344,126.4375 2036.0156,126.75 L2035.8438,126.6719 Z " fill="#000000"/><text fill="#000000" font-family="sans-serif" font-size="12" lengthAdjust="spacingAndGlyphs" textLength="82" x="2047.5" y="135.1543">GraphicsView</text><line style="stroke:#A80036;stroke-width:1.5;" x1="2019.5" x2="2131.5" y1="147" y2="147"/><line style="stroke:#A80036;stroke-width:1.5;" x1="2019.5" x2="2131.5" y1="155" y2="155"/><ellipse cx="2029.5" cy="166" fill="#84BE84" rx="3" ry="3" style="stroke:#038048;stroke-width:1.0;"/><text fill="#000000" font-family="sans-serif" font-size="11" lengthAdjust="spacingAndGlyphs" textLength="71" x="2038.5" y="169.2104">View(Game)</text><!--MD5=[86cec68673cafdfc1c204348d5b2cca6]
class ErrorView--><rect codeLine="48" fill="#FEFECE" filter="url(#f14ulztz41j77f)" height="48" id="ErrorView" style="stroke:#A80036;stroke-width:1.5;" width="255" x="861" y="663.5"/><ellipse cx="876" cy="679.5" fill="#ADD1B2" rx="11" ry="11" style="stroke:#A80036;stroke-width:1.0;"/><path d="M878.3438,675.1719 C877.4063,674.7344 876.8125,674.5938 875.9375,674.5938 C873.3125,674.5938 871.3125,676.6719 871.3125,679.3906 L871.3125,680.5156 C871.3125,683.0938 873.4219,684.9844 876.3125,684.9844 C877.5313,684.9844 878.6875,684.6875 879.4375,684.1406 C880.0156,683.7344 880.3438,683.2813 880.3438,682.8906 C880.3438,682.4375 879.9531,682.0469 879.4844,682.0469 C879.2656,682.0469 879.0625,682.125 878.875,682.3125 C878.4219,682.7969 878.4219,682.7969 878.2344,682.8906 C877.8125,683.1563 877.125,683.2813 876.3594,683.2813 C874.3125,683.2813 873.0156,682.1875 873.0156,680.4844 L873.0156,679.3906 C873.0156,677.6094 874.2656,676.2969 876,676.2969 C876.5781,676.2969 877.1875,676.4531 877.6563,676.7031 C878.1406,676.9844 878.3125,677.2031 878.4063,677.6094 C878.4688,678.0156 878.5,678.1406 878.6406,678.2656 C878.7813,678.4063 879.0156,678.5156 879.2344,678.5156 C879.5,678.5156 879.7656,678.375 879.9375,678.1563 C880.0469,678 880.0781,677.8125 880.0781,677.3906 L880.0781,675.9688 C880.0781,675.5313 880.0625,675.4063 879.9688,675.25 C879.8125,674.9844 879.5313,674.8438 879.2344,674.8438 C878.9375,674.8438 878.7344,674.9375 878.5156,675.25 L878.3438,675.1719 Z " fill="#000000"/><text fill="#000000" font-family="sans-serif" font-size="12" lengthAdjust="spacingAndGlyphs" textLength="223" x="890" y="683.6543">usantatecla.tictactoe.views.ErrorView</text><line style="stroke:#A80036;stroke-width:1.5;" x1="862" x2="1115" y1="695.5" y2="695.5"/><line style="stroke:#A80036;stroke-width:1.5;" x1="862" x2="1115" y1="703.5" y2="703.5"/><!--MD5=[8c7d7abc12e214c3cc12c9ab70edee11]
class Coordinate--><rect codeLine="66" fill="#FEFECE" filter="url(#f14ulztz41j77f)" height="48" id="Coordinate" style="stroke:#A80036;stroke-width:1.5;" width="272" x="553.5" y="663.5"/><ellipse cx="568.5" cy="679.5" fill="#ADD1B2" rx="11" ry="11" style="stroke:#A80036;stroke-width:1.0;"/><path d="M570.8438,675.1719 C569.9063,674.7344 569.3125,674.5938 568.4375,674.5938 C565.8125,674.5938 563.8125,676.6719 563.8125,679.3906 L563.8125,680.5156 C563.8125,683.0938 565.9219,684.9844 568.8125,684.9844 C570.0313,684.9844 571.1875,684.6875 571.9375,684.1406 C572.5156,683.7344 572.8438,683.2813 572.8438,682.8906 C572.8438,682.4375 572.4531,682.0469 571.9844,682.0469 C571.7656,682.0469 571.5625,682.125 571.375,682.3125 C570.9219,682.7969 570.9219,682.7969 570.7344,682.8906 C570.3125,683.1563 569.625,683.2813 568.8594,683.2813 C566.8125,683.2813 565.5156,682.1875 565.5156,680.4844 L565.5156,679.3906 C565.5156,677.6094 566.7656,676.2969 568.5,676.2969 C569.0781,676.2969 569.6875,676.4531 570.1563,676.7031 C570.6406,676.9844 570.8125,677.2031 570.9063,677.6094 C570.9688,678.0156 571,678.1406 571.1406,678.2656 C571.2813,678.4063 571.5156,678.5156 571.7344,678.5156 C572,678.5156 572.2656,678.375 572.4375,678.1563 C572.5469,678 572.5781,677.8125 572.5781,677.3906 L572.5781,675.9688 C572.5781,675.5313 572.5625,675.4063 572.4688,675.25 C572.3125,674.9844 572.0313,674.8438 571.7344,674.8438 C571.4375,674.8438 571.2344,674.9375 571.0156,675.25 L570.8438,675.1719 Z " fill="#000000"/><text fill="#000000" font-family="sans-serif" font-size="12" lengthAdjust="spacingAndGlyphs" textLength="240" x="582.5" y="683.6543">usantatecla.tictactoe.models.Coordinate</text><line style="stroke:#A80036;stroke-width:1.5;" x1="554.5" x2="824.5" y1="695.5" y2="695.5"/><line style="stroke:#A80036;stroke-width:1.5;" x1="554.5" x2="824.5" y1="703.5" y2="703.5"/><!--MD5=[b8cfd8c4119a3b0a7a46bfc5fc780f85]
class Error--><rect codeLine="47" fill="#FEFECE" filter="url(#f14ulztz41j77f)" height="48" id="Error" style="stroke:#A80036;stroke-width:1.5;" width="225" x="293" y="663.5"/><ellipse cx="308" cy="679.5" fill="#ADD1B2" rx="11" ry="11" style="stroke:#A80036;stroke-width:1.0;"/><path d="M310.3438,675.1719 C309.4063,674.7344 308.8125,674.5938 307.9375,674.5938 C305.3125,674.5938 303.3125,676.6719 303.3125,679.3906 L303.3125,680.5156 C303.3125,683.0938 305.4219,684.9844 308.3125,684.9844 C309.5313,684.9844 310.6875,684.6875 311.4375,684.1406 C312.0156,683.7344 312.3438,683.2813 312.3438,682.8906 C312.3438,682.4375 311.9531,682.0469 311.4844,682.0469 C311.2656,682.0469 311.0625,682.125 310.875,682.3125 C310.4219,682.7969 310.4219,682.7969 310.2344,682.8906 C309.8125,683.1563 309.125,683.2813 308.3594,683.2813 C306.3125,683.2813 305.0156,682.1875 305.0156,680.4844 L305.0156,679.3906 C305.0156,677.6094 306.2656,676.2969 308,676.2969 C308.5781,676.2969 309.1875,676.4531 309.6563,676.7031 C310.1406,676.9844 310.3125,677.2031 310.4063,677.6094 C310.4688,678.0156 310.5,678.1406 310.6406,678.2656 C310.7813,678.4063 311.0156,678.5156 311.2344,678.5156 C311.5,678.5156 311.7656,678.375 311.9375,678.1563 C312.0469,678 312.0781,677.8125 312.0781,677.3906 L312.0781,675.9688 C312.0781,675.5313 312.0625,675.4063 311.9688,675.25 C311.8125,674.9844 311.5313,674.8438 311.2344,674.8438 C310.9375,674.8438 310.7344,674.9375 310.5156,675.25 L310.3438,675.1719 Z " fill="#000000"/><text fill="#000000" font-family="sans-serif" font-size="12" lengthAdjust="spacingAndGlyphs" textLength="193" x="322" y="683.6543">usantatecla.tictactoe.types.Error</text><line style="stroke:#A80036;stroke-width:1.5;" x1="294" x2="517" y1="695.5" y2="695.5"/><line style="stroke:#A80036;stroke-width:1.5;" x1="294" x2="517" y1="703.5" y2="703.5"/><!--MD5=[b6dcce5e5ef3c84b0b048d11301373dd]
class Game--><rect codeLine="98" fill="#FEFECE" filter="url(#f14ulztz41j77f)" height="48" id="Game" style="stroke:#A80036;stroke-width:1.5;" width="241" x="1419" y="663.5"/><ellipse cx="1434" cy="679.5" fill="#ADD1B2" rx="11" ry="11" style="stroke:#A80036;stroke-width:1.0;"/><path d="M1436.3438,675.1719 C1435.4063,674.7344 1434.8125,674.5938 1433.9375,674.5938 C1431.3125,674.5938 1429.3125,676.6719 1429.3125,679.3906 L1429.3125,680.5156 C1429.3125,683.0938 1431.4219,684.9844 1434.3125,684.9844 C1435.5313,684.9844 1436.6875,684.6875 1437.4375,684.1406 C1438.0156,683.7344 1438.3438,683.2813 1438.3438,682.8906 C1438.3438,682.4375 1437.9531,682.0469 1437.4844,682.0469 C1437.2656,682.0469 1437.0625,682.125 1436.875,682.3125 C1436.4219,682.7969 1436.4219,682.7969 1436.2344,682.8906 C1435.8125,683.1563 1435.125,683.2813 1434.3594,683.2813 C1432.3125,683.2813 1431.0156,682.1875 1431.0156,680.4844 L1431.0156,679.3906 C1431.0156,677.6094 1432.2656,676.2969 1434,676.2969 C1434.5781,676.2969 1435.1875,676.4531 1435.6563,676.7031 C1436.1406,676.9844 1436.3125,677.2031 1436.4063,677.6094 C1436.4688,678.0156 1436.5,678.1406 1436.6406,678.2656 C1436.7813,678.4063 1437.0156,678.5156 1437.2344,678.5156 C1437.5,678.5156 1437.7656,678.375 1437.9375,678.1563 C1438.0469,678 1438.0781,677.8125 1438.0781,677.3906 L1438.0781,675.9688 C1438.0781,675.5313 1438.0625,675.4063 1437.9688,675.25 C1437.8125,674.9844 1437.5313,674.8438 1437.2344,674.8438 C1436.9375,674.8438 1436.7344,674.9375 1436.5156,675.25 L1436.3438,675.1719 Z " fill="#000000"/><text fill="#000000" font-family="sans-serif" font-size="12" lengthAdjust="spacingAndGlyphs" textLength="209" x="1448" y="683.6543">usantatecla.tictactoe.models.Game</text><line style="stroke:#A80036;stroke-width:1.5;" x1="1420" x2="1659" y1="695.5" y2="695.5"/><line style="stroke:#A80036;stroke-width:1.5;" x1="1420" x2="1659" y1="703.5" y2="703.5"/><!--MD5=[d8c8cfd5ca149094f5b67f9f607a5ec7]
class Token--><rect codeLine="99" fill="#FEFECE" filter="url(#f14ulztz41j77f)" height="48" id="Token" style="stroke:#A80036;stroke-width:1.5;" width="232" x="1151.5" y="663.5"/><ellipse cx="1166.5" cy="679.5" fill="#ADD1B2" rx="11" ry="11" style="stroke:#A80036;stroke-width:1.0;"/><path d="M1168.8438,675.1719 C1167.9063,674.7344 1167.3125,674.5938 1166.4375,674.5938 C1163.8125,674.5938 1161.8125,676.6719 1161.8125,679.3906 L1161.8125,680.5156 C1161.8125,683.0938 1163.9219,684.9844 1166.8125,684.9844 C1168.0313,684.9844 1169.1875,684.6875 1169.9375,684.1406 C1170.5156,683.7344 1170.8438,683.2813 1170.8438,682.8906 C1170.8438,682.4375 1170.4531,682.0469 1169.9844,682.0469 C1169.7656,682.0469 1169.5625,682.125 1169.375,682.3125 C1168.9219,682.7969 1168.9219,682.7969 1168.7344,682.8906 C1168.3125,683.1563 1167.625,683.2813 1166.8594,683.2813 C1164.8125,683.2813 1163.5156,682.1875 1163.5156,680.4844 L1163.5156,679.3906 C1163.5156,677.6094 1164.7656,676.2969 1166.5,676.2969 C1167.0781,676.2969 1167.6875,676.4531 1168.1563,676.7031 C1168.6406,676.9844 1168.8125,677.2031 1168.9063,677.6094 C1168.9688,678.0156 1169,678.1406 1169.1406,678.2656 C1169.2813,678.4063 1169.5156,678.5156 1169.7344,678.5156 C1170,678.5156 1170.2656,678.375 1170.4375,678.1563 C1170.5469,678 1170.5781,677.8125 1170.5781,677.3906 L1170.5781,675.9688 C1170.5781,675.5313 1170.5625,675.4063 1170.4688,675.25 C1170.3125,674.9844 1170.0313,674.8438 1169.7344,674.8438 C1169.4375,674.8438 1169.2344,674.9375 1169.0156,675.25 L1168.8438,675.1719 Z " fill="#000000"/><text fill="#000000" font-family="sans-serif" font-size="12" lengthAdjust="spacingAndGlyphs" textLength="200" x="1180.5" y="683.6543">usantatecla.tictactoe.types.Token</text><line style="stroke:#A80036;stroke-width:1.5;" x1="1152.5" x2="1382.5" y1="695.5" y2="695.5"/><line style="stroke:#A80036;stroke-width:1.5;" x1="1152.5" x2="1382.5" y1="703.5" y2="703.5"/><!--MD5=[bea5b0d46523efab5ea1c1d339f396f0]
class Message--><rect codeLine="100" fill="#FEFECE" filter="url(#f14ulztz41j77f)" height="48" id="Message" style="stroke:#A80036;stroke-width:1.5;" width="251" x="7" y="663.5"/><ellipse cx="22" cy="679.5" fill="#ADD1B2" rx="11" ry="11" style="stroke:#A80036;stroke-width:1.0;"/><path d="M24.3438,675.1719 C23.4063,674.7344 22.8125,674.5938 21.9375,674.5938 C19.3125,674.5938 17.3125,676.6719 17.3125,679.3906 L17.3125,680.5156 C17.3125,683.0938 19.4219,684.9844 22.3125,684.9844 C23.5313,684.9844 24.6875,684.6875 25.4375,684.1406 C26.0156,683.7344 26.3438,683.2813 26.3438,682.8906 C26.3438,682.4375 25.9531,682.0469 25.4844,682.0469 C25.2656,682.0469 25.0625,682.125 24.875,682.3125 C24.4219,682.7969 24.4219,682.7969 24.2344,682.8906 C23.8125,683.1563 23.125,683.2813 22.3594,683.2813 C20.3125,683.2813 19.0156,682.1875 19.0156,680.4844 L19.0156,679.3906 C19.0156,677.6094 20.2656,676.2969 22,676.2969 C22.5781,676.2969 23.1875,676.4531 23.6563,676.7031 C24.1406,676.9844 24.3125,677.2031 24.4063,677.6094 C24.4688,678.0156 24.5,678.1406 24.6406,678.2656 C24.7813,678.4063 25.0156,678.5156 25.2344,678.5156 C25.5,678.5156 25.7656,678.375 25.9375,678.1563 C26.0469,678 26.0781,677.8125 26.0781,677.3906 L26.0781,675.9688 C26.0781,675.5313 26.0625,675.4063 25.9688,675.25 C25.8125,674.9844 25.5313,674.8438 25.2344,674.8438 C24.9375,674.8438 24.7344,674.9375 24.5156,675.25 L24.3438,675.1719 Z " fill="#000000"/><text fill="#000000" font-family="sans-serif" font-size="12" lengthAdjust="spacingAndGlyphs" textLength="219" x="36" y="683.6543">usantatecla.tictactoe.views.Message</text><line style="stroke:#A80036;stroke-width:1.5;" x1="8" x2="257" y1="695.5" y2="695.5"/><line style="stroke:#A80036;stroke-width:1.5;" x1="8" x2="257" y1="703.5" y2="703.5"/><!--MD5=[c045e12321b83266d36d22b9096c24ea]
class View--><rect codeLine="154" fill="#FEFECE" filter="url(#f14ulztz41j77f)" height="48" id="View" style="stroke:#A80036;stroke-width:1.5;" width="225" x="1963" y="7"/><ellipse cx="1978" cy="23" fill="#ADD1B2" rx="11" ry="11" style="stroke:#A80036;stroke-width:1.0;"/><path d="M1980.3438,18.6719 C1979.4063,18.2344 1978.8125,18.0938 1977.9375,18.0938 C1975.3125,18.0938 1973.3125,20.1719 1973.3125,22.8906 L1973.3125,24.0156 C1973.3125,26.5938 1975.4219,28.4844 1978.3125,28.4844 C1979.5313,28.4844 1980.6875,28.1875 1981.4375,27.6406 C1982.0156,27.2344 1982.3438,26.7813 1982.3438,26.3906 C1982.3438,25.9375 1981.9531,25.5469 1981.4844,25.5469 C1981.2656,25.5469 1981.0625,25.625 1980.875,25.8125 C1980.4219,26.2969 1980.4219,26.2969 1980.2344,26.3906 C1979.8125,26.6563 1979.125,26.7813 1978.3594,26.7813 C1976.3125,26.7813 1975.0156,25.6875 1975.0156,23.9844 L1975.0156,22.8906 C1975.0156,21.1094 1976.2656,19.7969 1978,19.7969 C1978.5781,19.7969 1979.1875,19.9531 1979.6563,20.2031 C1980.1406,20.4844 1980.3125,20.7031 1980.4063,21.1094 C1980.4688,21.5156 1980.5,21.6406 1980.6406,21.7656 C1980.7813,21.9063 1981.0156,22.0156 1981.2344,22.0156 C1981.5,22.0156 1981.7656,21.875 1981.9375,21.6563 C1982.0469,21.5 1982.0781,21.3125 1982.0781,20.8906 L1982.0781,19.4688 C1982.0781,19.0313 1982.0625,18.9063 1981.9688,18.75 C1981.8125,18.4844 1981.5313,18.3438 1981.2344,18.3438 C1980.9375,18.3438 1980.7344,18.4375 1980.5156,18.75 L1980.3438,18.6719 Z " fill="#000000"/><text fill="#000000" font-family="sans-serif" font-size="12" lengthAdjust="spacingAndGlyphs" textLength="193" x="1992" y="27.1543">usantatecla.tictactoe.views.View</text><line style="stroke:#A80036;stroke-width:1.5;" x1="1964" x2="2187" y1="39" y2="39"/><line style="stroke:#A80036;stroke-width:1.5;" x1="1964" x2="2187" y1="47" y2="47"/><!--MD5=[d3c9a5757afba531d011729e12705f16]
link usantatecla.tictactoe.views.graphics.ChoosePlayersView to usantatecla.tictactoe.views.graphics.Constraints--><path codeLine="22" d="M2577.82,597.019 C2578.6,616.141 2579.4,635.566 2580.06,651.409 " fill="none" id="usantatecla.tictactoe.views.graphics.ChoosePlayersView-to-usantatecla.tictactoe.views.graphics.Constraints" style="stroke:#A80036;stroke-width:1.0;stroke-dasharray:7.0,7.0;"/><polygon fill="#A80036" points="2580.27,656.6389,2583.8953,647.4815,2580.0637,651.6432,2575.9021,647.8116,2580.27,656.6389" style="stroke:#A80036;stroke-width:1.0;"/><!--MD5=[097649e5b245f3ec4f75fa600c7fc35b]
link usantatecla.tictactoe.views.graphics.ChoosePlayersView to ErrorView--><path codeLine="23" d="M2473.49,589.896 C2467.55,592.598 2461.54,594.999 2455.5,597 C2176.35,689.5237 1425.36,620.91 1133.5,657 C1121.46,658.489 1108.92,660.4327 1096.49,662.6126 " fill="none" id="usantatecla.tictactoe.views.graphics.ChoosePlayersView-to-ErrorView" style="stroke:#A80036;stroke-width:1.0;stroke-dasharray:7.0,7.0;"/><polygon fill="#A80036" points="1091.54,663.4927,1101.0995,665.8626,1096.4634,662.6211,1099.7049,657.9851,1091.54,663.4927" style="stroke:#A80036;stroke-width:1.0;"/><!--MD5=[343be57cfa3e8b250ce79e30e3bf8733]
reverse link javax.swing to usantatecla.tictactoe.views.graphics.ChoosePlayersView--><path codeLine="24" d="M2916.41,188.441 C2880.53,236.717 2824.97,316.703 2764.5,374 C2737.62,399.468 2705.69,423.555 2675.68,444.356 " fill="none" id="javax.swing-backto-usantatecla.tictactoe.views.graphics.ChoosePlayersView" style="stroke:#A80036;stroke-width:1.0;"/><polygon fill="none" points="2911.06,183.913,2928.71,172.191,2922.22,192.362,2911.06,183.913" style="stroke:#A80036;stroke-width:1.0;"/><!--MD5=[3a7f59e7e50058d1b7f0c44be922d8a5]
link javax.swing to usantatecla.tictactoe.views.graphics.ChoosePlayersView--><path codeLine="25" d="M2943.85,184.086 C2918.93,231.784 2861.82,314.944 2799.5,374 C2766.14,405.609 2685.9879,459.3768 2685.9879,459.3768 " fill="none" id="javax.swing-usantatecla.tictactoe.views.graphics.ChoosePlayersView" style="stroke:#A80036;stroke-width:1.0;"/><polygon fill="#A80036" points="2675.76,465.653,2682.966,465.9242,2685.9879,459.3768,2678.7819,459.1056,2675.76,465.653" style="stroke:#A80036;stroke-width:1.0;"/><polygon fill="#A80036" points="2949.73,172.191,2942.1539,178.4841,2947.5128,176.6725,2949.3244,182.0315,2949.73,172.191" style="stroke:#A80036;stroke-width:1.0;"/><line style="stroke:#A80036;stroke-width:1.0;" x1="2947.5128" x2="2943.97" y1="176.6725" y2="183.8415"/><!--MD5=[26ff523fe485978f2f412b7e5f9a7321]
reverse link java.awt to usantatecla.tictactoe.views.graphics.ChoosePlayersView--><path codeLine="26" d="M2758.78,177.1 C2766.55,222.659 2775.16,309.833 2743.5,374 C2728.22,404.966 2702.62,431.597 2675.91,453.088 " fill="none" id="java.awt-backto-usantatecla.tictactoe.views.graphics.ChoosePlayersView" style="stroke:#A80036;stroke-width:1.0;stroke-dasharray:7.0,7.0;"/><polygon fill="#A80036" points="2757.89,172.022,2755.5047,181.5776,2758.7536,176.9468,2763.3844,180.1958,2757.89,172.022" style="stroke:#A80036;stroke-width:1.0;"/><!--MD5=[cec0a60f3bbc4ab7e2acf2598bf0f82e]
reverse link java.awt to usantatecla.tictactoe.views.graphics.Constraints--><path codeLine="34" d="M2770.06,191.335 C2774.75,205.408 2779.15,221.15 2781.5,236 C2791.07,296.582 2793.08,313.769 2781.5,374 C2761.36,478.795 2755.88,511.15 2692.5,597 C2675.22,620.4 2650.42,641.174 2628.64,656.8035 " fill="none" id="java.awt-backto-usantatecla.tictactoe.views.graphics.Constraints" style="stroke:#A80036;stroke-width:1.0;"/><polygon fill="none" points="2763.37,193.399,2763.21,172.21,2776.55,188.677,2763.37,193.399" style="stroke:#A80036;stroke-width:1.0;"/><!--MD5=[9ba02933008687e289d356350d3b06d6]
reverse link usantatecla.tictactoe.views.graphics.CoordinateView to usantatecla.tictactoe.views.graphics.CoordinateMoveView--><path d="M2256.74,373.898 C2129.02,415.562 2084.44,389.989 1965.5,434 C1946.87,440.894 1927.75,449.92 1909.75,459.428 " fill="none" id="usantatecla.tictactoe.views.graphics.CoordinateView-backto-usantatecla.tictactoe.views.graphics.CoordinateMoveView" style="stroke:#A80036;stroke-width:1.0;"/><polygon fill="none" points="2254.58,367.239,2275.77,367.403,2259.1,380.489,2254.58,367.239" style="stroke:#A80036;stroke-width:1.0;"/><!--MD5=[3fddb1a8e998ae9eeb8cf10857055a78]
link usantatecla.tictactoe.views.graphics.CoordinateMoveView to Error--><path codeLine="50" d="M1692.76,534.183 C1565.6,551.465 1364.78,577.89 1190.5,597 C899.912,628.864 824.223,611.221 535.5,657 C525.678,658.5573 515.491,660.4229 505.338,662.4494 " fill="none" id="usantatecla.tictactoe.views.graphics.CoordinateMoveView-to-Error" style="stroke:#A80036;stroke-width:1.0;stroke-dasharray:7.0,7.0;"/><polygon fill="#A80036" points="500.359,663.4566,509.9734,665.5927,505.2597,662.4652,508.3872,657.7515,500.359,663.4566" style="stroke:#A80036;stroke-width:1.0;"/><!--MD5=[9469190bf13ee434badbb380a30ac1af]
link usantatecla.tictactoe.views.graphics.CoordinateMoveView to ErrorView--><path codeLine="51" d="M1692.78,542.597 C1532.92,575.261 1261.33,630.754 1106.27,662.4358 " fill="none" id="usantatecla.tictactoe.views.graphics.CoordinateMoveView-to-ErrorView" style="stroke:#A80036;stroke-width:1.0;stroke-dasharray:7.0,7.0;"/><polygon fill="#A80036" points="1101.26,663.4594,1110.8782,665.5785,1106.159,662.4593,1109.2781,657.7401,1101.26,663.4594" style="stroke:#A80036;stroke-width:1.0;"/><!--MD5=[44f9a69841386c9dbcc6511b7b58c5c0]
link usantatecla.tictactoe.views.graphics.CoordinateMoveView to Coordinate--><path codeLine="52" d="M1681.0613,534.4741 C1681.0613,534.4741 1140.32,607.256 843.5,657 C835.753,658.2983 827.796,659.6788 819.774,661.1063 " fill="none" id="usantatecla.tictactoe.views.graphics.CoordinateMoveView-Coordinate" style="stroke:#A80036;stroke-width:1.0;"/><polygon fill="#A80036" points="806.694,663.4642,816.261,665.8035,811.6146,662.5769,814.8413,657.9305,806.694,663.4642" style="stroke:#A80036;stroke-width:1.0;"/><line style="stroke:#A80036;stroke-width:1.0;" x1="811.6146" x2="819.4875" y1="662.5769" y2="661.158"/><polygon fill="#A80036" points="1692.96,532.918,1686.492,529.7298,1681.0613,534.4741,1687.5293,537.6623,1692.96,532.918" style="stroke:#A80036;stroke-width:1.0;"/><text fill="#000000" font-family="sans-serif" font-size="13" lengthAdjust="spacingAndGlyphs" textLength="8" x="827.7" y="652.4668">2</text><!--MD5=[c4cc2b9855b948b314184562ef1cf463]
reverse link usantatecla.tictactoe.views.graphics.CoordinateView to usantatecla.tictactoe.views.graphics.CoordinatePutView--><path d="M2268.58,385.231 C2244.28,401.244 2219.01,418.059 2195.5,434 C2189.55,438.034 2183.44,442.208 2177.3,446.435 " fill="none" id="usantatecla.tictactoe.views.graphics.CoordinateView-backto-usantatecla.tictactoe.views.graphics.CoordinatePutView" style="stroke:#A80036;stroke-width:1.0;"/><polygon fill="none" points="2265.07,379.156,2285.63,374.016,2272.76,390.853,2265.07,379.156" style="stroke:#A80036;stroke-width:1.0;"/><!--MD5=[7e8c25c40135b9bb2101f02d22fc75c5]
link usantatecla.tictactoe.views.graphics.CoordinatePutView to ErrorView--><path codeLine="68" d="M1993,584.569 C1984.04,589.422 1974.8,593.696 1965.5,597 C1790.83,659.0555 1317.15,631.803 1133.5,657 C1122.14,658.5583 1110.34,660.4696 1098.59,662.5637 " fill="none" id="usantatecla.tictactoe.views.graphics.CoordinatePutView-to-ErrorView" style="stroke:#A80036;stroke-width:1.0;stroke-dasharray:7.0,7.0;"/><polygon fill="#A80036" points="1093.56,663.4718,1103.1263,665.8141,1098.4809,662.586,1101.709,657.9406,1093.56,663.4718" style="stroke:#A80036;stroke-width:1.0;"/><!--MD5=[bea0dc8641a495cf28ff6a35a943745f]
link usantatecla.tictactoe.views.graphics.CoordinatePutView to Coordinate--><path codeLine="69" d="M1982.6637,589.9543 C1982.6637,589.9543 1970.96,595.117 1965.5,597 C1729.45,678.4003 1091.35,626.776 843.5,657 C833.525,658.2164 823.225,659.6954 812.9,661.3359 " fill="none" id="usantatecla.tictactoe.views.graphics.CoordinatePutView-Coordinate" style="stroke:#A80036;stroke-width:1.0;"/><polygon fill="#A80036" points="799.833,663.4927,809.3643,665.9736,804.7662,662.6784,808.0614,658.0804,799.833,663.4927" style="stroke:#A80036;stroke-width:1.0;"/><line style="stroke:#A80036;stroke-width:1.0;" x1="804.7662" x2="812.659" y1="662.6784" y2="661.3757"/><polygon fill="#A80036" points="1993.39,584.574,1986.2334,583.6887,1982.6637,589.9543,1989.8203,590.8396,1993.39,584.574" style="stroke:#A80036;stroke-width:1.0;"/><!--MD5=[d4c2c19112cf67683646c63d6f858122]
reverse link javax.swing to usantatecla.tictactoe.views.graphics.CoordinateView--><path codeLine="83" d="M2876.91,159.587 C2851.36,164.731 2823.12,170.669 2797.5,176 C2667.79,202.992 2630.44,191.919 2505.5,236 C2505.38,236.043 2505.26,236.086 2505.14,236.129 " fill="none" id="javax.swing-backto-usantatecla.tictactoe.views.graphics.CoordinateView" style="stroke:#A80036;stroke-width:1.0;"/><polygon fill="none" points="2875.74,152.682,2896.72,155.659,2878.46,166.415,2875.74,152.682" style="stroke:#A80036;stroke-width:1.0;"/><!--MD5=[d4c2c19112cf67683646c63d6f858122]
reverse link javax.swing to usantatecla.tictactoe.views.graphics.CoordinateView--><path codeLine="86" d="M2877.25,166.588 C2862.44,169.75 2847.05,172.973 2832.5,176 C2702.79,202.992 2665.44,191.919 2540.5,236 C2528.83,240.117 2516.9,245.081 2505.09,250.429 " fill="none" id="javax.swing-backto-usantatecla.tictactoe.views.graphics.CoordinateView-1" style="stroke:#A80036;stroke-width:1.0;"/><polygon fill="none" points="2875.95,159.71,2896.97,162.338,2878.9,173.395,2875.95,159.71" style="stroke:#A80036;stroke-width:1.0;"/><!--MD5=[ee74f8027065593db8b5d3181dc1d9ba]
reverse link java.awt to usantatecla.tictactoe.views.graphics.CoordinateView--><path codeLine="84" d="M2688.42,162.159 C2677.19,166.835 2666.49,171.824 2656.5,176 C2583.1,206.67 2560.74,204.354 2487.93,235.815 " fill="none" id="java.awt-backto-usantatecla.tictactoe.views.graphics.CoordinateView" style="stroke:#A80036;stroke-width:1.0;stroke-dasharray:7.0,7.0;"/><polygon fill="none" points="2685.95,155.611,2707.13,155.008,2690.94,168.688,2685.95,155.611" style="stroke:#A80036;stroke-width:1.0;"/><!--MD5=[ee74f8027065593db8b5d3181dc1d9ba]
reverse link java.awt to usantatecla.tictactoe.views.graphics.CoordinateView--><path codeLine="85" d="M2702.68,171.136 C2698.92,172.829 2695.16,174.469 2691.5,176 C2617.96,206.73 2595.65,204.344 2522.5,236 C2516.82,238.457 2511.05,241.051 2505.25,243.735 " fill="none" id="java.awt-backto-usantatecla.tictactoe.views.graphics.CoordinateView-1" style="stroke:#A80036;stroke-width:1.0;stroke-dasharray:7.0,7.0;"/><polygon fill="#A80036" points="2707.45,168.966,2697.6015,169.0546,2702.8994,171.0377,2700.9163,176.3356,2707.45,168.966" style="stroke:#A80036;stroke-width:1.0;"/><!--MD5=[ee74f8027065593db8b5d3181dc1d9ba]
reverse link java.awt to usantatecla.tictactoe.views.graphics.CoordinateView--><path codeLine="87" d="M2716.68,179.779 C2649.06,206.566 2624.79,206.879 2557.5,236 C2540.58,243.32 2522.82,251.856 2505.24,260.357 " fill="none" id="java.awt-backto-usantatecla.tictactoe.views.graphics.CoordinateView-2" style="stroke:#A80036;stroke-width:1.0;stroke-dasharray:7.0,7.0;"/><polygon fill="none" points="2714.22,173.222,2735.39,172.145,2719.51,186.184,2714.22,173.222" style="stroke:#A80036;stroke-width:1.0;"/><!--MD5=[49f05c73929f31500fd33b015ed478c3]
link usantatecla.tictactoe.views.graphics.GameView to Game--><path codeLine="102" d="M2249.2687,571.3084 C2249.2687,571.3084 2213.43,590.764 2195.5,597 C1976.19,673.2903 1905.6,619.182 1676.5,657 C1669.12,658.2185 1661.53,659.5698 1653.9,661.0046 " fill="none" id="usantatecla.tictactoe.views.graphics.GameView-Game" style="stroke:#A80036;stroke-width:1.0;"/><polygon fill="#A80036" points="1641.04,663.4892,1650.6339,665.7158,1645.9499,662.544,1649.1216,657.86,1641.04,663.4892" style="stroke:#A80036;stroke-width:1.0;"/><line style="stroke:#A80036;stroke-width:1.0;" x1="1645.9499" x2="1653.8" y1="662.544" y2="661.0238"/><polygon fill="#A80036" points="2259.53,565.087,2252.3256,564.7772,2249.2687,571.3084,2256.4731,571.6181,2259.53,565.087" style="stroke:#A80036;stroke-width:1.0;"/><!--MD5=[d9dc50346722c4e60ebf1972c0632d96]
link usantatecla.tictactoe.views.graphics.GameView to Coordinate--><path codeLine="103" d="M2261.54,565.048 C2241.43,577.778 2218.46,589.914 2195.5,597 C1908.14,685.7009 1142.19,621.951 843.5,657 C830.85,658.4844 817.679,660.4116 804.601,662.5702 " fill="none" id="usantatecla.tictactoe.views.graphics.GameView-to-Coordinate" style="stroke:#A80036;stroke-width:1.0;stroke-dasharray:7.0,7.0;"/><polygon fill="#A80036" points="799.4,663.4416,808.937,665.9004,804.3313,662.6159,807.6158,658.0102,799.4,663.4416" style="stroke:#A80036;stroke-width:1.0;"/><!--MD5=[98cf87417c05d1144534cc8a81add82f]
link usantatecla.tictactoe.views.graphics.GameView to Token--><path codeLine="104" d="M2244.45,565.023 C2223.77,577.588 2201.09,589.641 2178.5,597 C1842.01,706.6195 1734.63,605.494 1384.5,657 C1374.17,658.5195 1363.45,660.3833 1352.86,662.4291 " fill="none" id="usantatecla.tictactoe.views.graphics.GameView-to-Token" style="stroke:#A80036;stroke-width:1.0;stroke-dasharray:7.0,7.0;"/><polygon fill="#A80036" points="1347.68,663.4473,1357.2794,665.6501,1352.5875,662.4899,1355.7476,657.7981,1347.68,663.4473" style="stroke:#A80036;stroke-width:1.0;"/><!--MD5=[98cf87417c05d1144534cc8a81add82f]
link usantatecla.tictactoe.views.graphics.GameView to Token--><path codeLine="106" d="M2277.96,565.023 C2258.77,577.588 2236.09,589.641 2213.5,597 C1877.01,706.6195 1769.63,605.494 1419.5,657 C1409.08,658.5333 1398.26,660.4172 1387.39,662.485 " fill="none" id="usantatecla.tictactoe.views.graphics.GameView-to-Token-1" style="stroke:#A80036;stroke-width:1.0;stroke-dasharray:7.0,7.0;"/><polygon fill="#A80036" points="1382.4,663.4473,1391.9929,665.6781,1387.3103,662.5043,1390.4841,657.8217,1382.4,663.4473" style="stroke:#A80036;stroke-width:1.0;"/><!--MD5=[5318572cb9563cc2a8eee4583b3e722d]
link usantatecla.tictactoe.views.graphics.GameView to Message--><path codeLine="105" d="M2261.93,565.025 C2241.74,577.839 2218.63,590.027 2195.5,597 C1786.8,720.227 699.44,607.025 275.5,657 C263.388,658.4278 250.777,660.361 238.283,662.5591 " fill="none" id="usantatecla.tictactoe.views.graphics.GameView-to-Message" style="stroke:#A80036;stroke-width:1.0;stroke-dasharray:7.0,7.0;"/><polygon fill="#A80036" points="233.315,663.4478,242.8785,665.8013,238.2369,662.5678,241.4705,657.9262,233.315,663.4478" style="stroke:#A80036;stroke-width:1.0;"/><!--MD5=[b19c88bfa7106d2c40b8e6b63fcb4346]
link javax.swing to usantatecla.tictactoe.views.graphics.GameView--><path codeLine="107" d="M2887.06,178.393 C2860.82,193.202 2831.97,212.721 2810.5,236 C2763.74,286.706 2794.33,332.152 2739.5,374 C2636.95,452.271 2575.24,385.99 2455.5,434 C2438.65,440.757 2404.2723,459.7844 2404.2723,459.7844 " fill="none" id="javax.swing-usantatecla.tictactoe.views.graphics.GameView" style="stroke:#A80036;stroke-width:1.0;"/><polygon fill="#A80036" points="2393.99,465.971,2401.1934,466.3052,2404.2723,459.7844,2397.069,459.4503,2393.99,465.971" style="stroke:#A80036;stroke-width:1.0;"/><polygon fill="#A80036" points="2898.51,172.132,2888.6947,172.9444,2894.124,174.5326,2892.5357,179.962,2898.51,172.132" style="stroke:#A80036;stroke-width:1.0;"/><line style="stroke:#A80036;stroke-width:1.0;" x1="2894.124" x2="2887.105" y1="174.5326" y2="178.371"/><!--MD5=[1f54912781a3d3b4f07d74439e75b9d5]
reverse link java.awt to usantatecla.tictactoe.views.graphics.GameView--><path codeLine="108" d="M2751.89,177.257 C2749.21,226.061 2736.71,321.118 2681.5,374 C2606.45,445.888 2550.94,392.864 2455.5,434 C2435.27,442.721 2414.49,454.25 2395.64,465.848 " fill="none" id="java.awt-backto-usantatecla.tictactoe.views.graphics.GameView" style="stroke:#A80036;stroke-width:1.0;stroke-dasharray:7.0,7.0;"/><polygon fill="#A80036" points="2752.15,172.11,2747.7081,180.9003,2751.9017,177.1038,2755.6982,181.2975,2752.15,172.11" style="stroke:#A80036;stroke-width:1.0;"/><!--MD5=[6c8d3c87249668b954d84bc523a396e8]
link usantatecla.tictactoe.views.graphics.PlayView to Coordinate--><path codeLine="122" d="M1916.96,367.534 C1908.41,369.927 1899.89,372.108 1891.5,374 C1601.15,439.493 1511.72,355.947 1224.5,434 C1029.32,487.039 817.846,607.891 730.638,660.8416 " fill="none" id="usantatecla.tictactoe.views.graphics.PlayView-to-Coordinate" style="stroke:#A80036;stroke-width:1.0;stroke-dasharray:7.0,7.0;"/><polygon fill="#A80036" points="726.329,663.4646,736.0965,662.2016,730.5999,660.8647,731.9368,655.3681,726.329,663.4646" style="stroke:#A80036;stroke-width:1.0;"/><!--MD5=[2a50657cc2d2c7beda207052c8f608ce]
link usantatecla.tictactoe.views.graphics.PlayView to Message--><path codeLine="123" d="M1918.31,367.523 C1909.31,369.968 1900.33,372.158 1891.5,374 C1434.35,469.322 1293.37,312.37 842.5,434 C688.016,475.675 671.915,542.435 521.5,597 C495.368,606.48 349.179,639.235 243.694,662.3658 " fill="none" id="usantatecla.tictactoe.views.graphics.PlayView-to-Message" style="stroke:#A80036;stroke-width:1.0;stroke-dasharray:7.0,7.0;"/><polygon fill="#A80036" points="238.702,663.4598,248.3495,665.4411,243.5862,662.3898,246.6375,657.6264,238.702,663.4598" style="stroke:#A80036;stroke-width:1.0;"/><!--MD5=[b3495437272db327a9b9b923f04dd7a8]
link usantatecla.tictactoe.views.graphics.PlayView to usantatecla.tictactoe.views.graphics.GameView--><path codeLine="124" d="M2158.7043,375.3984 C2158.7043,375.3984 2226.81,432.196 2256.8,457.208 " fill="none" id="usantatecla.tictactoe.views.graphics.PlayView-usantatecla.tictactoe.views.graphics.GameView" style="stroke:#A80036;stroke-width:1.0;"/><polygon fill="#A80036" points="2267.17,465.852,2262.8211,457.0153,2263.3305,462.6492,2257.6966,463.1586,2267.17,465.852" style="stroke:#A80036;stroke-width:1.0;"/><line style="stroke:#A80036;stroke-width:1.0;" x1="2263.3305" x2="2257.185" y1="462.6492" y2="457.5255"/><polygon fill="#A80036" points="2149.49,367.711,2151.5347,374.6261,2158.7043,375.3984,2156.6596,368.4833,2149.49,367.711" style="stroke:#A80036;stroke-width:1.0;"/><!--MD5=[f3d7744a6e95e1fac8426b2aebf895cf]
link usantatecla.tictactoe.views.graphics.PlayView to usantatecla.tictactoe.views.graphics.CoordinateMoveView--><path codeLine="125" d="M1990.7399,375.3066 C1990.7399,375.3066 1927.06,427.372 1898.05,451.094 " fill="none" id="usantatecla.tictactoe.views.graphics.PlayView-usantatecla.tictactoe.views.graphics.CoordinateMoveView" style="stroke:#A80036;stroke-width:1.0;"/><polygon fill="#A80036" points="1887.97,459.334,1897.4695,456.734,1891.8409,456.1692,1892.4057,450.5406,1887.97,459.334" style="stroke:#A80036;stroke-width:1.0;"/><line style="stroke:#A80036;stroke-width:1.0;" x1="1891.8409" x2="1898.03" y1="456.1692" y2="451.1055"/><polygon fill="#A80036" points="2000.03,367.711,1992.8531,368.4121,1990.7399,375.3066,1997.9168,374.6055,2000.03,367.711" style="stroke:#A80036;stroke-width:1.0;"/><!--MD5=[0a8b17c9ad724979d7f062b72e066227]
link usantatecla.tictactoe.views.graphics.PlayView to usantatecla.tictactoe.views.graphics.CoordinatePutView--><path codeLine="126" d="M2077.2674,379.7076 C2077.2674,379.7076 2078.14,416.04 2078.55,433.353 " fill="none" id="usantatecla.tictactoe.views.graphics.PlayView-usantatecla.tictactoe.views.graphics.CoordinatePutView" style="stroke:#A80036;stroke-width:1.0;"/><polygon fill="#A80036" points="2078.87,446.384,2082.6521,437.2903,2078.7496,441.3855,2074.6544,437.483,2078.87,446.384" style="stroke:#A80036;stroke-width:1.0;"/><line style="stroke:#A80036;stroke-width:1.0;" x1="2078.7496" x2="2078.555" y1="441.3855" y2="433.3875"/><polygon fill="#A80036" points="2076.98,367.711,2073.1248,373.8051,2077.2674,379.7076,2081.1225,373.6135,2076.98,367.711" style="stroke:#A80036;stroke-width:1.0;"/><!--MD5=[584a2e294dd01d43d10c5db7e7182e37]
link usantatecla.tictactoe.views.graphics.PlayView to ErrorView--><path codeLine="127" d="M1910.72,367.649 C1904.24,369.833 1897.82,371.958 1891.5,374 C1796.69,404.629 1770.34,403.456 1675.5,434 C1442.57,509.021 1171.31,614.062 1051.21,661.5015 " fill="none" id="usantatecla.tictactoe.views.graphics.PlayView-to-ErrorView" style="stroke:#A80036;stroke-width:1.0;stroke-dasharray:7.0,7.0;"/><polygon fill="#A80036" points="1046.3,663.4408,1056.1406,663.8435,1050.9483,661.5986,1053.1931,656.4063,1046.3,663.4408" style="stroke:#A80036;stroke-width:1.0;"/><!--MD5=[c1903ae080381c62c7525a9e97a7bab6]
reverse link javax.swing to usantatecla.tictactoe.views.graphics.PlayView--><path codeLine="128" d="M2877.19,164.237 C2856.87,168.501 2834.92,172.755 2814.5,176 C2569.03,215.006 2500.41,178.941 2258.5,236 C2250.34,237.926 2242.04,240.115 2233.71,242.498 " fill="none" id="javax.swing-backto-usantatecla.tictactoe.views.graphics.PlayView" style="stroke:#A80036;stroke-width:1.0;"/><polygon fill="none" points="2875.82,157.371,2896.84,160.007,2878.76,171.057,2875.82,157.371" style="stroke:#A80036;stroke-width:1.0;"/><!--MD5=[c14b38660ba676fcd822fa493a280da6]
link usantatecla.tictactoe.views.graphics.ResumeView to Message--><path codeLine="140" d="M1692.44,307.257 C1502.62,311.91 1052.24,333.589 690.5,434 C489.49,489.795 268.855,608.367 176.729,660.7276 " fill="none" id="usantatecla.tictactoe.views.graphics.ResumeView-to-Message" style="stroke:#A80036;stroke-width:1.0;stroke-dasharray:7.0,7.0;"/><polygon fill="#A80036" points="172.173,663.3222,181.9732,662.3441,176.5178,660.8478,178.0141,655.3924,172.173,663.3222" style="stroke:#A80036;stroke-width:1.0;"/><!--MD5=[1a580dfaf81f9d2e169be64ae6fa8616]
link usantatecla.tictactoe.views.graphics.StartView to Message--><path codeLine="149" d="M2569.56,342.23 C2556.23,354.51 2539.88,366.903 2522.5,374 C2347.8,445.321 1862.86,411.625 1675.5,434 C1242.73,485.681 1139.29,530.86 708.5,597 C516.467,626.483 466.964,624.022 275.5,657 C265.732,658.6824 255.612,660.5392 245.475,662.4777 " fill="none" id="usantatecla.tictactoe.views.graphics.StartView-to-Message" style="stroke:#A80036;stroke-width:1.0;stroke-dasharray:7.0,7.0;"/><polygon fill="#A80036" points="240.498,663.4355,250.0915,665.6637,245.408,662.4912,248.5806,657.8077,240.498,663.4355" style="stroke:#A80036;stroke-width:1.0;"/><!--MD5=[d3fe2519a526687b7797eb4ee1d741b9]
link usantatecla.tictactoe.views.graphics.StartView to usantatecla.tictactoe.views.graphics.ChoosePlayersView--><path codeLine="150" d="M2597.62,342.318 C2594.42,366.141 2590.1,398.347 2586.05,428.461 " fill="none" id="usantatecla.tictactoe.views.graphics.StartView-to-usantatecla.tictactoe.views.graphics.ChoosePlayersView" style="stroke:#A80036;stroke-width:1.0;stroke-dasharray:7.0,7.0;"/><polygon fill="#A80036" points="2585.36,433.665,2590.5223,425.2775,2586.0255,428.7095,2582.5935,424.2127,2585.36,433.665" style="stroke:#A80036;stroke-width:1.0;"/><!--MD5=[4dcb2f16afad519a420be42b3e5c40b5]
link usantatecla.tictactoe.views.graphics.StartView to usantatecla.tictactoe.views.graphics.GameView--><path codeLine="151" d="M2561.12,342.327 C2548.86,352.77 2535.3,364.028 2522.5,374 C2483.34,404.521 2438.34,436.809 2401.25,462.726 " fill="none" id="usantatecla.tictactoe.views.graphics.StartView-to-usantatecla.tictactoe.views.graphics.GameView" style="stroke:#A80036;stroke-width:1.0;stroke-dasharray:7.0,7.0;"/><polygon fill="#A80036" points="2396.77,465.855,2406.4412,463.9927,2400.8727,462.997,2401.8684,457.4285,2396.77,465.855" style="stroke:#A80036;stroke-width:1.0;"/><!--MD5=[5d8c91b0764151c43c436120de91a4d7]
reverse link javax.swing to usantatecla.tictactoe.views.graphics.StartView--><path codeLine="152" d="M2878.64,180.445 C2814.67,209.064 2724.27,249.515 2664.56,276.233 " fill="none" id="javax.swing-backto-usantatecla.tictactoe.views.graphics.StartView" style="stroke:#A80036;stroke-width:1.0;"/><polygon fill="none" points="2876.05,173.935,2897.16,172.156,2881.76,186.714,2876.05,173.935" style="stroke:#A80036;stroke-width:1.0;"/><!--MD5=[4c25f575b30a4d51df330db30603f3f4]
reverse link View to usantatecla.tictactoe.views.graphics.GraphicsView--><path d="M2075.5,75.109 C2075.5,88.312 2075.5,102.537 2075.5,114.65 " fill="none" id="View-backto-usantatecla.tictactoe.views.graphics.GraphicsView" style="stroke:#A80036;stroke-width:1.0;"/><polygon fill="none" points="2068.5,75.038,2075.5,55.038,2082.5,75.037,2068.5,75.038" style="stroke:#A80036;stroke-width:1.0;"/><!--MD5=[4cce1546795b2cf7834aa5204556fcae]
link usantatecla.tictactoe.views.graphics.GraphicsView to usantatecla.tictactoe.views.graphics.PlayView--><path codeLine="162" d="M2075.5,188.125 C2075.5,188.125 2075.5,215.413 2075.5,229.151 " fill="none" id="usantatecla.tictactoe.views.graphics.GraphicsView-usantatecla.tictactoe.views.graphics.PlayView" style="stroke:#A80036;stroke-width:1.0;"/><polygon fill="#A80036" points="2075.5,242.22,2079.5,233.22,2075.5,237.22,2071.5,233.22,2075.5,242.22" style="stroke:#A80036;stroke-width:1.0;"/><line style="stroke:#A80036;stroke-width:1.0;" x1="2075.5" x2="2075.5" y1="237.22" y2="229.22"/><polygon fill="#A80036" points="2075.5,176.125,2071.5,182.125,2075.5,188.125,2079.5,182.125,2075.5,176.125" style="stroke:#A80036;stroke-width:1.0;"/><!--MD5=[58e0d6819433a4c01fc0e40054a04aad]
link usantatecla.tictactoe.views.graphics.GraphicsView to usantatecla.tictactoe.views.graphics.StartView--><path codeLine="163" d="M2144.713,149.6304 C2144.713,149.6304 2398.73,176.05 2522.5,236 C2534.93,242.022 2547.01,250.437 2557.86,259.301 " fill="none" id="usantatecla.tictactoe.views.graphics.GraphicsView-usantatecla.tictactoe.views.graphics.StartView" style="stroke:#A80036;stroke-width:1.0;"/><polygon fill="#A80036" points="2567.86,267.874,2563.629,258.9803,2564.0634,264.6204,2558.4233,265.0548,2567.86,267.874" style="stroke:#A80036;stroke-width:1.0;"/><line style="stroke:#A80036;stroke-width:1.0;" x1="2564.0634" x2="2557.99" y1="264.6204" y2="259.411"/><polygon fill="#A80036" points="2132.74,148.826,2138.4584,153.2192,2144.713,149.6304,2138.9946,145.2372,2132.74,148.826" style="stroke:#A80036;stroke-width:1.0;"/><!--MD5=[b5ecd77b22463f284837547400e7c740]
link usantatecla.tictactoe.views.graphics.GraphicsView to usantatecla.tictactoe.views.graphics.ResumeView--><path codeLine="164" d="M2018.26,172.639 C1981.78,189.747 1933.79,213.103 1892.5,236 C1879.53,243.191 1865.95,251.234 1852.94,259.2 " fill="none" id="usantatecla.tictactoe.views.graphics.GraphicsView-to-usantatecla.tictactoe.views.graphics.ResumeView" style="stroke:#A80036;stroke-width:1.0;stroke-dasharray:7.0,7.0;"/><polygon fill="#A80036" points="1848.56,261.898,1858.3227,260.5984,1852.8211,259.2821,1854.1374,253.7805,1848.56,261.898" style="stroke:#A80036;stroke-width:1.0;"/><!--MD5=[4ddb141507cea21e77c7201929faadc5]
@startuml
package javax.swing{}
package java.awt{}

class usantatecla.tictactoe.views.graphics.ChoosePlayersView {

	- {static} String ACCEPT
	- String playersNumber

	~ ChoosePlayersView(JRootPane)
	~ resetPlayersNumber()
	~ String getPlayersNumber()
	+ actionPerformed(ActionEvent)
	+ keyTyped(KeyEvent)
	+ keyPressed(KeyEvent)
	+ keyReleased(KeyEvent)

}

class ErrorView as "usantatecla.tictactoe.views.ErrorView"
class Coordinate as "usantatecla.tictactoe.models.Coordinate"

usantatecla.tictactoe.views.graphics.ChoosePlayersView ..> usantatecla.tictactoe.views.graphics.Constraints
usantatecla.tictactoe.views.graphics.ChoosePlayersView ..> ErrorView
javax.swing <|- - usantatecla.tictactoe.views.graphics.ChoosePlayersView
javax.swing <- -* usantatecla.tictactoe.views.graphics.ChoosePlayersView
java.awt <.. usantatecla.tictactoe.views.graphics.ChoosePlayersView

class usantatecla.tictactoe.views.graphics.Constraints {

	~ Constraints(int, int, int, int)

}

java.awt <|- - usantatecla.tictactoe.views.graphics.Constraints

class usantatecla.tictactoe.views.graphics.CoordinateMoveView extends usantatecla.tictactoe.views.graphics.CoordinateView {

	~ {static} String ENTER_COORDINATE_TO_REMOVE

	~ CoordinateMoveView()
	~ resetCoordinates()
	~ Coordinate[] getCoordinates()
	+ actionPerformed(ActionEvent)

}

class Error as "usantatecla.tictactoe.types.Error"
class ErrorView as "usantatecla.tictactoe.views.ErrorView"

usantatecla.tictactoe.views.graphics.CoordinateMoveView ..> Error
usantatecla.tictactoe.views.graphics.CoordinateMoveView ..> ErrorView
usantatecla.tictactoe.views.graphics.CoordinateMoveView *- -> "2" Coordinate

class usantatecla.tictactoe.views.graphics.CoordinatePutView extends usantatecla.tictactoe.views.graphics.CoordinateView {

	~ CoordinatePutView()
	~ resetCoordinate()
	~ Coordinate getCoordinate()
	+ actionPerformed(ActionEvent)
	+ keyTyped(KeyEvent )
	+ keyPressed(KeyEvent)
	+ keyReleased(KeyEvent)

}

class Coordinate as "usantatecla.tictactoe.models.Coordinate"

usantatecla.tictactoe.views.graphics.CoordinatePutView ..> ErrorView
usantatecla.tictactoe.views.graphics.CoordinatePutView *- -> Coordinate

class usantatecla.tictactoe.views.graphics.CoordinateView {

	# {static} String ENTER_COORDINATE_TO_PUT
	# {static} String ACCEPT

	~ CoordinateView()
	+ {abstract} actionPerformed(ActionEvent)
	+ keyTyped(KeyEvent)
	+ keyPressed(KeyEvent)
	+ keyReleased(KeyEvent)
}

javax.swing <|- - usantatecla.tictactoe.views.graphics.CoordinateView
java.awt <|.. usantatecla.tictactoe.views.graphics.CoordinateView
java.awt <.. usantatecla.tictactoe.views.graphics.CoordinateView
javax.swing <|- - usantatecla.tictactoe.views.graphics.CoordinateView
java.awt <|.. usantatecla.tictactoe.views.graphics.CoordinateView

class usantatecla.tictactoe.views.graphics.GameView {

	~ GameView(Game)
	~ write()
	- printRowBoard(int)
	- String getSquareBoardText(int, int)

}

class Game as "usantatecla.tictactoe.models.Game"
class Token as "usantatecla.tictactoe.types.Token"
class Message as "usantatecla.tictactoe.views.Message"

usantatecla.tictactoe.views.graphics.GameView *- -> Game
usantatecla.tictactoe.views.graphics.GameView ..> Coordinate
usantatecla.tictactoe.views.graphics.GameView ..> Token
usantatecla.tictactoe.views.graphics.GameView ..> Message
usantatecla.tictactoe.views.graphics.GameView ..> Token
javax.swing <- -* usantatecla.tictactoe.views.graphics.GameView
java.awt <.. usantatecla.tictactoe.views.graphics.GameView

class usantatecla.tictactoe.views.graphics.PlayView {

	~ {static final} String ENTER_COORDINATE_TO_PUT
	~ {static final} String ENTER_COORDINATE_TO_REMOVE

	~ PlayView(Game)
	~ interact()
	- put()
	- move()

}

usantatecla.tictactoe.views.graphics.PlayView ..> Coordinate
usantatecla.tictactoe.views.graphics.PlayView ..> Message
usantatecla.tictactoe.views.graphics.PlayView *- -> usantatecla.tictactoe.views.graphics.GameView
usantatecla.tictactoe.views.graphics.PlayView *- -> usantatecla.tictactoe.views.graphics.CoordinateMoveView
usantatecla.tictactoe.views.graphics.PlayView *- -> usantatecla.tictactoe.views.graphics.CoordinatePutView
usantatecla.tictactoe.views.graphics.PlayView ..> ErrorView
javax.swing <|- - usantatecla.tictactoe.views.graphics.PlayView


class usantatecla.tictactoe.views.graphics.ResumeView {

	- boolean newGame;

	~ ResumeView()
	~ boolean isResumedGame()

}

usantatecla.tictactoe.views.graphics.ResumeView ..> Message

class usantatecla.tictactoe.views.graphics.StartView {

	~ StartView(Game)
	~ interact()

}

usantatecla.tictactoe.views.graphics.StartView ..> Message
usantatecla.tictactoe.views.graphics.StartView ..> usantatecla.tictactoe.views.graphics.ChoosePlayersView
usantatecla.tictactoe.views.graphics.StartView ..> usantatecla.tictactoe.views.graphics.GameView
javax.swing <|- - usantatecla.tictactoe.views.graphics.StartView

class View as "usantatecla.tictactoe.views.View"

class usantatecla.tictactoe.views.graphics.GraphicsView extends View {

	+ View(Game)

}

usantatecla.tictactoe.views.graphics.GraphicsView *- -> usantatecla.tictactoe.views.graphics.PlayView
usantatecla.tictactoe.views.graphics.GraphicsView *- -> usantatecla.tictactoe.views.graphics.StartView
usantatecla.tictactoe.views.graphics.GraphicsView ..> usantatecla.tictactoe.views.graphics.ResumeView
@enduml

PlantUML version 1.2020.23beta3(Unknown compile time)
(GPL source distribution)
Java Runtime: Java(TM) SE Runtime Environment
JVM: Java HotSpot(TM) 64-Bit Server VM
Default Encoding: UTF-8
Language: en
Country: US
--></g></svg>