<?xml version="1.0" encoding="UTF-8" standalone="no"?><svg xmlns="http://www.w3.org/2000/svg" xmlns:xlink="http://www.w3.org/1999/xlink" contentScriptType="application/ecmascript" contentStyleType="text/css" height="268px" preserveAspectRatio="none" style="width:583px;height:268px;" version="1.1" viewBox="0 0 583 268" width="583px" zoomAndPan="magnify"><defs><filter height="300%" id="f16ylvz8kpaah1" width="300%" x="-1" y="-1"><feGaussianBlur result="blurOut" stdDeviation="2.0"/><feColorMatrix in="blurOut" result="blurOut2" type="matrix" values="0 0 0 0 0 0 0 0 0 0 0 0 0 0 0 0 0 0 .4 0"/><feOffset dx="4.0" dy="4.0" in="blurOut2" result="blurOut3"/><feBlend in="SourceGraphic" in2="blurOut3" mode="normal"/></filter></defs><g><!--MD5=[b59da53bc4cb019b9115ab51e8207bb0]
cluster usantatecla.tictactoe--><polygon fill="#FFFFFF" filter="url(#f16ylvz8kpaah1)" points="109,6,294,6,301,28.2969,464,28.2969,464,143,109,143,109,6" style="stroke:#000000;stroke-width:1.5;"/><line style="stroke:#000000;stroke-width:1.5;" x1="109" x2="301" y1="28.2969" y2="28.2969"/><text fill="#000000" font-family="sans-serif" font-size="14" font-weight="bold" lengthAdjust="spacingAndGlyphs" textLength="179" x="113" y="20.9951">usantatecla.tictactoe</text><!--MD5=[03c339352ae0a66a83a9809d2d9c2b7e]
class usantatecla.tictactoe.ConsoleTicTacToe--><rect codeLine="5" fill="#FEFECE" filter="url(#f16ylvz8kpaah1)" height="86.4141" id="usantatecla.tictactoe.ConsoleTicTacToe" style="stroke:#A80036;stroke-width:1.5;" width="142" x="125" y="41"/><ellipse cx="140" cy="57" fill="#ADD1B2" rx="11" ry="11" style="stroke:#A80036;stroke-width:1.0;"/><path d="M142.3438,52.6719 C141.4063,52.2344 140.8125,52.0938 139.9375,52.0938 C137.3125,52.0938 135.3125,54.1719 135.3125,56.8906 L135.3125,58.0156 C135.3125,60.5938 137.4219,62.4844 140.3125,62.4844 C141.5313,62.4844 142.6875,62.1875 143.4375,61.6406 C144.0156,61.2344 144.3438,60.7813 144.3438,60.3906 C144.3438,59.9375 143.9531,59.5469 143.4844,59.5469 C143.2656,59.5469 143.0625,59.625 142.875,59.8125 C142.4219,60.2969 142.4219,60.2969 142.2344,60.3906 C141.8125,60.6563 141.125,60.7813 140.3594,60.7813 C138.3125,60.7813 137.0156,59.6875 137.0156,57.9844 L137.0156,56.8906 C137.0156,55.1094 138.2656,53.7969 140,53.7969 C140.5781,53.7969 141.1875,53.9531 141.6563,54.2031 C142.1406,54.4844 142.3125,54.7031 142.4063,55.1094 C142.4688,55.5156 142.5,55.6406 142.6406,55.7656 C142.7813,55.9063 143.0156,56.0156 143.2344,56.0156 C143.5,56.0156 143.7656,55.875 143.9375,55.6563 C144.0469,55.5 144.0781,55.3125 144.0781,54.8906 L144.0781,53.4688 C144.0781,53.0313 144.0625,52.9063 143.9688,52.75 C143.8125,52.4844 143.5313,52.3438 143.2344,52.3438 C142.9375,52.3438 142.7344,52.4375 142.5156,52.75 L142.3438,52.6719 Z " fill="#000000"/><text fill="#000000" font-family="sans-serif" font-size="12" lengthAdjust="spacingAndGlyphs" textLength="110" x="154" y="61.1543">ConsoleTicTacToe</text><line style="stroke:#A80036;stroke-width:1.5;" x1="126" x2="266" y1="73" y2="73"/><line style="stroke:#A80036;stroke-width:1.5;" x1="126" x2="266" y1="81" y2="81"/><polygon fill="#4177AF" points="136,88,132,94,140,94" style="stroke:#1963A0;stroke-width:1.0;"/><text fill="#000000" font-family="sans-serif" font-size="11" lengthAdjust="spacingAndGlyphs" textLength="112" x="145" y="95.2104">ConsoleTicTacToe()</text><rect fill="#F24D5C" height="6" style="stroke:#C82930;stroke-width:1.0;" width="6" x="133" y="101.8047"/><text fill="#000000" font-family="sans-serif" font-size="11" lengthAdjust="spacingAndGlyphs" textLength="32" x="145" y="108.0151">play()</text><ellipse cx="136" cy="117.6094" fill="#84BE84" rx="3" ry="3" style="stroke:#038048;stroke-width:1.0;"/><text fill="#000000" font-family="sans-serif" font-size="11" lengthAdjust="spacingAndGlyphs" text-decoration="underline" textLength="77" x="145" y="120.8198">main(String[])</text><!--MD5=[44e3097ba2e6697655acc7ad5ebd4556]
class usantatecla.tictactoe.GraphicsTicTacToe--><rect codeLine="13" fill="#FEFECE" filter="url(#f16ylvz8kpaah1)" height="86.4141" id="usantatecla.tictactoe.GraphicsTicTacToe" style="stroke:#A80036;stroke-width:1.5;" width="146" x="302" y="41"/><ellipse cx="317" cy="57" fill="#ADD1B2" rx="11" ry="11" style="stroke:#A80036;stroke-width:1.0;"/><path d="M319.3438,52.6719 C318.4063,52.2344 317.8125,52.0938 316.9375,52.0938 C314.3125,52.0938 312.3125,54.1719 312.3125,56.8906 L312.3125,58.0156 C312.3125,60.5938 314.4219,62.4844 317.3125,62.4844 C318.5313,62.4844 319.6875,62.1875 320.4375,61.6406 C321.0156,61.2344 321.3438,60.7813 321.3438,60.3906 C321.3438,59.9375 320.9531,59.5469 320.4844,59.5469 C320.2656,59.5469 320.0625,59.625 319.875,59.8125 C319.4219,60.2969 319.4219,60.2969 319.2344,60.3906 C318.8125,60.6563 318.125,60.7813 317.3594,60.7813 C315.3125,60.7813 314.0156,59.6875 314.0156,57.9844 L314.0156,56.8906 C314.0156,55.1094 315.2656,53.7969 317,53.7969 C317.5781,53.7969 318.1875,53.9531 318.6563,54.2031 C319.1406,54.4844 319.3125,54.7031 319.4063,55.1094 C319.4688,55.5156 319.5,55.6406 319.6406,55.7656 C319.7813,55.9063 320.0156,56.0156 320.2344,56.0156 C320.5,56.0156 320.7656,55.875 320.9375,55.6563 C321.0469,55.5 321.0781,55.3125 321.0781,54.8906 L321.0781,53.4688 C321.0781,53.0313 321.0625,52.9063 320.9688,52.75 C320.8125,52.4844 320.5313,52.3438 320.2344,52.3438 C319.9375,52.3438 319.7344,52.4375 319.5156,52.75 L319.3438,52.6719 Z " fill="#000000"/><text fill="#000000" font-family="sans-serif" font-size="12" lengthAdjust="spacingAndGlyphs" textLength="114" x="331" y="61.1543">GraphicsTicTacToe</text><line style="stroke:#A80036;stroke-width:1.5;" x1="303" x2="447" y1="73" y2="73"/><line style="stroke:#A80036;stroke-width:1.5;" x1="303" x2="447" y1="81" y2="81"/><rect fill="#F24D5C" height="6" style="stroke:#C82930;stroke-width:1.0;" width="6" x="310" y="89"/><text fill="#000000" font-family="sans-serif" font-size="11" lengthAdjust="spacingAndGlyphs" textLength="115" x="322" y="95.2104">GraphicsTicTacToe()</text><rect fill="#F24D5C" height="6" style="stroke:#C82930;stroke-width:1.0;" width="6" x="310" y="101.8047"/><text fill="#000000" font-family="sans-serif" font-size="11" lengthAdjust="spacingAndGlyphs" textLength="32" x="322" y="108.0151">play()</text><ellipse cx="313" cy="117.6094" fill="#84BE84" rx="3" ry="3" style="stroke:#038048;stroke-width:1.0;"/><text fill="#000000" font-family="sans-serif" font-size="11" lengthAdjust="spacingAndGlyphs" text-decoration="underline" textLength="77" x="322" y="120.8198">main(String[])</text><!--MD5=[b6dcce5e5ef3c84b0b048d11301373dd]
class Game--><rect codeLine="1" fill="#FEFECE" filter="url(#f16ylvz8kpaah1)" height="67.9063" id="Game" style="stroke:#A80036;stroke-width:1.5;" width="135" x="218.5" y="187"/><ellipse cx="233.5" cy="212.9531" fill="#ADD1B2" rx="11" ry="11" style="stroke:#A80036;stroke-width:1.0;"/><path d="M235.8438,208.625 C234.9063,208.1875 234.3125,208.0469 233.4375,208.0469 C230.8125,208.0469 228.8125,210.125 228.8125,212.8438 L228.8125,213.9688 C228.8125,216.5469 230.9219,218.4375 233.8125,218.4375 C235.0313,218.4375 236.1875,218.1406 236.9375,217.5938 C237.5156,217.1875 237.8438,216.7344 237.8438,216.3438 C237.8438,215.8906 237.4531,215.5 236.9844,215.5 C236.7656,215.5 236.5625,215.5781 236.375,215.7656 C235.9219,216.25 235.9219,216.25 235.7344,216.3438 C235.3125,216.6094 234.625,216.7344 233.8594,216.7344 C231.8125,216.7344 230.5156,215.6406 230.5156,213.9375 L230.5156,212.8438 C230.5156,211.0625 231.7656,209.75 233.5,209.75 C234.0781,209.75 234.6875,209.9063 235.1563,210.1563 C235.6406,210.4375 235.8125,210.6563 235.9063,211.0625 C235.9688,211.4688 236,211.5938 236.1406,211.7188 C236.2813,211.8594 236.5156,211.9688 236.7344,211.9688 C237,211.9688 237.2656,211.8281 237.4375,211.6094 C237.5469,211.4531 237.5781,211.2656 237.5781,210.8438 L237.5781,209.4219 C237.5781,208.9844 237.5625,208.8594 237.4688,208.7031 C237.3125,208.4375 237.0313,208.2969 236.7344,208.2969 C236.4375,208.2969 236.2344,208.3906 236.0156,208.7031 L235.8438,208.625 Z " fill="#000000"/><text fill="#000000" font-family="sans-serif" font-size="12" lengthAdjust="spacingAndGlyphs" textLength="71" x="263.5" y="203.1387">usantatecla.</text><text fill="#000000" font-family="sans-serif" font-size="12" lengthAdjust="spacingAndGlyphs" textLength="103" x="247.5" y="217.1074">tictactoe.models.</text><text fill="#000000" font-family="sans-serif" font-size="12" lengthAdjust="spacingAndGlyphs" textLength="35" x="281.5" y="231.0762">Game</text><line style="stroke:#A80036;stroke-width:1.5;" x1="219.5" x2="352.5" y1="238.9063" y2="238.9063"/><line style="stroke:#A80036;stroke-width:1.5;" x1="219.5" x2="352.5" y1="246.9063" y2="246.9063"/><!--MD5=[51d729737bd84a4c43136dd336c2eea1]
class ConsoleView--><rect codeLine="2" fill="#FEFECE" filter="url(#f16ylvz8kpaah1)" height="67.9063" id="ConsoleView" style="stroke:#A80036;stroke-width:1.5;" width="176" x="7" y="187"/><ellipse cx="22" cy="212.9531" fill="#ADD1B2" rx="11" ry="11" style="stroke:#A80036;stroke-width:1.0;"/><path d="M24.3438,208.625 C23.4063,208.1875 22.8125,208.0469 21.9375,208.0469 C19.3125,208.0469 17.3125,210.125 17.3125,212.8438 L17.3125,213.9688 C17.3125,216.5469 19.4219,218.4375 22.3125,218.4375 C23.5313,218.4375 24.6875,218.1406 25.4375,217.5938 C26.0156,217.1875 26.3438,216.7344 26.3438,216.3438 C26.3438,215.8906 25.9531,215.5 25.4844,215.5 C25.2656,215.5 25.0625,215.5781 24.875,215.7656 C24.4219,216.25 24.4219,216.25 24.2344,216.3438 C23.8125,216.6094 23.125,216.7344 22.3594,216.7344 C20.3125,216.7344 19.0156,215.6406 19.0156,213.9375 L19.0156,212.8438 C19.0156,211.0625 20.2656,209.75 22,209.75 C22.5781,209.75 23.1875,209.9063 23.6563,210.1563 C24.1406,210.4375 24.3125,210.6563 24.4063,211.0625 C24.4688,211.4688 24.5,211.5938 24.6406,211.7188 C24.7813,211.8594 25.0156,211.9688 25.2344,211.9688 C25.5,211.9688 25.7656,211.8281 25.9375,211.6094 C26.0469,211.4531 26.0781,211.2656 26.0781,210.8438 L26.0781,209.4219 C26.0781,208.9844 26.0625,208.8594 25.9688,208.7031 C25.8125,208.4375 25.5313,208.2969 25.2344,208.2969 C24.9375,208.2969 24.7344,208.3906 24.5156,208.7031 L24.3438,208.625 Z " fill="#000000"/><text fill="#000000" font-family="sans-serif" font-size="12" lengthAdjust="spacingAndGlyphs" textLength="71" x="72.5" y="203.1387">usantatecla.</text><text fill="#000000" font-family="sans-serif" font-size="12" lengthAdjust="spacingAndGlyphs" textLength="144" x="36" y="217.1074">tictactoe.views.console.</text><text fill="#000000" font-family="sans-serif" font-size="12" lengthAdjust="spacingAndGlyphs" textLength="78" x="69" y="231.0762">ConsoleView</text><line style="stroke:#A80036;stroke-width:1.5;" x1="8" x2="182" y1="238.9063" y2="238.9063"/><line style="stroke:#A80036;stroke-width:1.5;" x1="8" x2="182" y1="246.9063" y2="246.9063"/><!--MD5=[10250df365dc999637be629d910c1f35]
class GraphicsView--><rect codeLine="3" fill="#FEFECE" filter="url(#f16ylvz8kpaah1)" height="67.9063" id="GraphicsView" style="stroke:#A80036;stroke-width:1.5;" width="180" x="389" y="187"/><ellipse cx="404" cy="212.9531" fill="#ADD1B2" rx="11" ry="11" style="stroke:#A80036;stroke-width:1.0;"/><path d="M406.3438,208.625 C405.4063,208.1875 404.8125,208.0469 403.9375,208.0469 C401.3125,208.0469 399.3125,210.125 399.3125,212.8438 L399.3125,213.9688 C399.3125,216.5469 401.4219,218.4375 404.3125,218.4375 C405.5313,218.4375 406.6875,218.1406 407.4375,217.5938 C408.0156,217.1875 408.3438,216.7344 408.3438,216.3438 C408.3438,215.8906 407.9531,215.5 407.4844,215.5 C407.2656,215.5 407.0625,215.5781 406.875,215.7656 C406.4219,216.25 406.4219,216.25 406.2344,216.3438 C405.8125,216.6094 405.125,216.7344 404.3594,216.7344 C402.3125,216.7344 401.0156,215.6406 401.0156,213.9375 L401.0156,212.8438 C401.0156,211.0625 402.2656,209.75 404,209.75 C404.5781,209.75 405.1875,209.9063 405.6563,210.1563 C406.1406,210.4375 406.3125,210.6563 406.4063,211.0625 C406.4688,211.4688 406.5,211.5938 406.6406,211.7188 C406.7813,211.8594 407.0156,211.9688 407.2344,211.9688 C407.5,211.9688 407.7656,211.8281 407.9375,211.6094 C408.0469,211.4531 408.0781,211.2656 408.0781,210.8438 L408.0781,209.4219 C408.0781,208.9844 408.0625,208.8594 407.9688,208.7031 C407.8125,208.4375 407.5313,208.2969 407.2344,208.2969 C406.9375,208.2969 406.7344,208.3906 406.5156,208.7031 L406.3438,208.625 Z " fill="#000000"/><text fill="#000000" font-family="sans-serif" font-size="12" lengthAdjust="spacingAndGlyphs" textLength="71" x="456.5" y="203.1387">usantatecla.</text><text fill="#000000" font-family="sans-serif" font-size="12" lengthAdjust="spacingAndGlyphs" textLength="148" x="418" y="217.1074">tictactoe.views.graphics.</text><text fill="#000000" font-family="sans-serif" font-size="12" lengthAdjust="spacingAndGlyphs" textLength="82" x="451" y="231.0762">GraphicsView</text><line style="stroke:#A80036;stroke-width:1.5;" x1="390" x2="568" y1="238.9063" y2="238.9063"/><line style="stroke:#A80036;stroke-width:1.5;" x1="390" x2="568" y1="246.9063" y2="246.9063"/><!--MD5=[dee294772fe5daf7cc0f08db86d7f647]
link usantatecla.tictactoe.ConsoleTicTacToe to Game--><path codeLine="10" d="M230.8864,137.3286 C230.8864,137.3286 248.549,163.8237 256.503,175.7543 " fill="none" id="usantatecla.tictactoe.ConsoleTicTacToe-Game" style="stroke:#A80036;stroke-width:1.0;"/><polygon fill="#A80036" points="263.865,186.797,262.2005,177.0898,261.0913,182.6369,255.5443,181.5277,263.865,186.797" style="stroke:#A80036;stroke-width:1.0;"/><line style="stroke:#A80036;stroke-width:1.0;" x1="261.0913" x2="256.6535" y1="182.6369" y2="175.9803"/><polygon fill="#A80036" points="224.23,127.344,224.23,134.5551,230.8864,137.3286,230.8864,130.1175,224.23,127.344" style="stroke:#A80036;stroke-width:1.0;"/><!--MD5=[10db3496bbf3aea9e98e642ce9a60a9a]
link usantatecla.tictactoe.ConsoleTicTacToe to ConsoleView--><path codeLine="11" d="M157.132,136.953 C157.132,136.953 136.998,163.8638 127.906,176.0167 " fill="none" id="usantatecla.tictactoe.ConsoleTicTacToe-ConsoleView" style="stroke:#A80036;stroke-width:1.0;"/><polygon fill="#A80036" points="119.841,186.797,128.4351,181.9865,122.8361,182.7934,122.0293,177.1943,119.841,186.797" style="stroke:#A80036;stroke-width:1.0;"/><line style="stroke:#A80036;stroke-width:1.0;" x1="122.8361" x2="127.6285" y1="182.7934" y2="176.3877"/><polygon fill="#A80036" points="164.32,127.344,157.523,129.7525,157.132,136.953,163.929,134.5445,164.32,127.344" style="stroke:#A80036;stroke-width:1.0;"/><!--MD5=[1e93a494ab703947dc307a8569c83675]
link usantatecla.tictactoe.GraphicsTicTacToe to Game--><path codeLine="18" d="M340.4794,137.363 C340.4794,137.363 323.035,163.8237 315.169,175.7543 " fill="none" id="usantatecla.tictactoe.GraphicsTicTacToe-Game" style="stroke:#A80036;stroke-width:1.0;"/><polygon fill="#A80036" points="307.889,186.797,316.1821,181.4843,310.6409,182.6224,309.5028,177.0813,307.889,186.797" style="stroke:#A80036;stroke-width:1.0;"/><line style="stroke:#A80036;stroke-width:1.0;" x1="310.6409" x2="315.045" y1="182.6224" y2="175.9434"/><polygon fill="#A80036" points="347.084,127.344,340.4421,130.152,340.4794,137.363,347.1214,134.555,347.084,127.344" style="stroke:#A80036;stroke-width:1.0;"/><!--MD5=[017c0576b594c746df819cda917df976]
link usantatecla.tictactoe.GraphicsTicTacToe to GraphicsView--><path codeLine="19" d="M414.9447,136.85 C414.9447,136.85 435.964,164.1356 445.403,176.3883 " fill="none" id="usantatecla.tictactoe.GraphicsTicTacToe-GraphicsView" style="stroke:#A80036;stroke-width:1.0;"/><polygon fill="#A80036" points="453.421,186.797,451.0973,177.2262,450.3696,182.8361,444.7598,182.1084,453.421,186.797" style="stroke:#A80036;stroke-width:1.0;"/><line style="stroke:#A80036;stroke-width:1.0;" x1="450.3696" x2="445.4875" y1="182.8361" y2="176.4985"/><polygon fill="#A80036" points="407.621,127.344,408.1142,134.5382,414.9447,136.85,414.4515,129.6558,407.621,127.344" style="stroke:#A80036;stroke-width:1.0;"/><!--MD5=[fc1dc02795b31d1223cb9ec306660758]
@startuml
class Game as "usantatecla.\ntictactoe.models.\nGame"
class ConsoleView as "usantatecla.\ntictactoe.views.console.\nConsoleView"
class GraphicsView as "usantatecla.\ntictactoe.views.graphics.\nGraphicsView"

class usantatecla.tictactoe.ConsoleTicTacToe {
	~ ConsoleTicTacToe()
	- play()
	+ {static} main(String[])
}
usantatecla.tictactoe.ConsoleTicTacToe *-down-> Game
usantatecla.tictactoe.ConsoleTicTacToe *-down-> ConsoleView

class usantatecla.tictactoe.GraphicsTicTacToe {
	- GraphicsTicTacToe()
	- play()
	+ {static} main(String[])
}
usantatecla.tictactoe.GraphicsTicTacToe *-down-> Game
usantatecla.tictactoe.GraphicsTicTacToe *-down-> GraphicsView
@enduml

PlantUML version 1.2020.23beta3(Unknown compile time)
(GPL source distribution)
Java Runtime: Java(TM) SE Runtime Environment
JVM: Java HotSpot(TM) 64-Bit Server VM
Default Encoding: UTF-8
Language: en
Country: US
--></g></svg>