<?xml version="1.0" encoding="UTF-8" standalone="no"?><svg xmlns="http://www.w3.org/2000/svg" xmlns:xlink="http://www.w3.org/1999/xlink" contentScriptType="application/ecmascript" contentStyleType="text/css" height="645px" preserveAspectRatio="none" style="width:921px;height:645px;" version="1.1" viewBox="0 0 921 645" width="921px" zoomAndPan="magnify"><defs><filter height="300%" id="f1jr0ek1pooqfe" width="300%" x="-1" y="-1"><feGaussianBlur result="blurOut" stdDeviation="2.0"/><feColorMatrix in="blurOut" result="blurOut2" type="matrix" values="0 0 0 0 0 0 0 0 0 0 0 0 0 0 0 0 0 0 .4 0"/><feOffset dx="4.0" dy="4.0" in="blurOut2" result="blurOut3"/><feBlend in="SourceGraphic" in2="blurOut3" mode="normal"/></filter></defs><g><!--MD5=[a28bb7016f04a6176ed7bd94eda416fd]
cluster usantatecla.tictactoe.views--><polygon fill="#FFFFFF" filter="url(#f1jr0ek1pooqfe)" points="16,6,251,6,258,28.2969,629,28.2969,629,520,16,520,16,6" style="stroke:#000000;stroke-width:1.5;"/><line style="stroke:#000000;stroke-width:1.5;" x1="16" x2="258" y1="28.2969" y2="28.2969"/><text fill="#000000" font-family="sans-serif" font-size="14" font-weight="bold" lengthAdjust="spacingAndGlyphs" textLength="229" x="20" y="20.9951">usantatecla.tictactoe.views</text><!--MD5=[4322e5e52d55cc21661d9e4dcdf2699b]
class usantatecla.tictactoe.views.WithGameView--><rect codeLine="5" fill="#FEFECE" filter="url(#f1jr0ek1pooqfe)" height="60.8047" id="usantatecla.tictactoe.views.WithGameView" style="stroke:#A80036;stroke-width:1.5;" width="157" x="32.5" y="156"/><ellipse cx="62.8" cy="172" fill="#A9DCDF" rx="11" ry="11" style="stroke:#A80036;stroke-width:1.0;"/><path d="M64.8781,173.8125 L65.2688,174.7969 L64.8781,174.7969 C64.425,174.7969 64.3156,174.8125 64.1594,174.9219 C63.9094,175.0781 63.7531,175.3594 63.7531,175.6563 C63.7531,175.9219 63.8938,176.1719 64.1125,176.3281 C64.2531,176.4531 64.4563,176.5 64.8781,176.5 L67.2375,176.5 C67.5969,176.5 67.8156,176.4688 67.9563,176.375 C68.2063,176.2344 68.3625,175.9375 68.3625,175.6563 C68.3625,175.375 68.2219,175.125 68.0031,174.9688 C67.8313,174.8281 67.675,174.7969 67.2063,174.7969 L63.8156,166.5938 L60.1438,166.5938 C59.6906,166.5938 59.5656,166.6094 59.4094,166.7031 C59.1594,166.875 59.0031,167.1563 59.0031,167.4375 C59.0031,167.7188 59.1438,167.9688 59.3625,168.1406 C59.5344,168.25 59.7063,168.2813 60.1438,168.2813 L61.2219,168.2813 L58.5813,174.7969 C58.1594,174.7969 58.0031,174.8125 57.8469,174.9219 C57.5969,175.0781 57.4406,175.3594 57.4406,175.6563 C57.4406,176.2188 57.8156,176.5 58.5656,176.5 L60.8313,176.5 C61.1906,176.5 61.4094,176.4688 61.5344,176.375 C61.8,176.2344 61.9406,175.9375 61.9406,175.6563 C61.9406,175.375 61.8156,175.125 61.5969,174.9531 C61.425,174.8281 61.2844,174.7969 60.8313,174.7969 L60.4406,174.7969 L60.8313,173.8125 L64.8781,173.8125 Z M64.175,172.1094 L61.5031,172.1094 L62.8469,168.8438 L64.175,172.1094 Z " fill="#000000"/><text fill="#000000" font-family="sans-serif" font-size="12" font-style="italic" lengthAdjust="spacingAndGlyphs" textLength="91" x="80.2" y="176.1543">WithGameView</text><line style="stroke:#A80036;stroke-width:1.5;" x1="33.5" x2="188.5" y1="188" y2="188"/><line style="stroke:#A80036;stroke-width:1.5;" x1="33.5" x2="188.5" y1="196" y2="196"/><ellipse cx="43.5" cy="207" fill="#84BE84" rx="3" ry="3" style="stroke:#038048;stroke-width:1.0;"/><text fill="#000000" font-family="sans-serif" font-size="11" lengthAdjust="spacingAndGlyphs" textLength="131" x="52.5" y="210.2104">WithGameView(Game)</text><!--MD5=[9f3672d02251c6628f0caf7fed9e62dd]
class usantatecla.tictactoe.views.ErrorView--><rect codeLine="10" fill="#FEFECE" filter="url(#f1jr0ek1pooqfe)" height="73.6094" id="usantatecla.tictactoe.views.ErrorView" style="stroke:#A80036;stroke-width:1.5;" width="135" x="224.5" y="149.5"/><ellipse cx="259.75" cy="165.5" fill="#A9DCDF" rx="11" ry="11" style="stroke:#A80036;stroke-width:1.0;"/><path d="M261.8281,167.3125 L262.2188,168.2969 L261.8281,168.2969 C261.375,168.2969 261.2656,168.3125 261.1094,168.4219 C260.8594,168.5781 260.7031,168.8594 260.7031,169.1563 C260.7031,169.4219 260.8438,169.6719 261.0625,169.8281 C261.2031,169.9531 261.4063,170 261.8281,170 L264.1875,170 C264.5469,170 264.7656,169.9688 264.9063,169.875 C265.1563,169.7344 265.3125,169.4375 265.3125,169.1563 C265.3125,168.875 265.1719,168.625 264.9531,168.4688 C264.7813,168.3281 264.625,168.2969 264.1563,168.2969 L260.7656,160.0938 L257.0938,160.0938 C256.6406,160.0938 256.5156,160.1094 256.3594,160.2031 C256.1094,160.375 255.9531,160.6563 255.9531,160.9375 C255.9531,161.2188 256.0938,161.4688 256.3125,161.6406 C256.4844,161.75 256.6563,161.7813 257.0938,161.7813 L258.1719,161.7813 L255.5313,168.2969 C255.1094,168.2969 254.9531,168.3125 254.7969,168.4219 C254.5469,168.5781 254.3906,168.8594 254.3906,169.1563 C254.3906,169.7188 254.7656,170 255.5156,170 L257.7813,170 C258.1406,170 258.3594,169.9688 258.4844,169.875 C258.75,169.7344 258.8906,169.4375 258.8906,169.1563 C258.8906,168.875 258.7656,168.625 258.5469,168.4531 C258.375,168.3281 258.2344,168.2969 257.7813,168.2969 L257.3906,168.2969 L257.7813,167.3125 L261.8281,167.3125 Z M261.125,165.6094 L258.4531,165.6094 L259.7969,162.3438 L261.125,165.6094 Z " fill="#000000"/><text fill="#000000" font-family="sans-serif" font-size="12" font-style="italic" lengthAdjust="spacingAndGlyphs" textLength="58" x="278.25" y="169.6543">ErrorView</text><line style="stroke:#A80036;stroke-width:1.5;" x1="225.5" x2="358.5" y1="181.5" y2="181.5"/><ellipse cx="235.5" cy="192.5" fill="none" rx="3" ry="3" style="stroke:#038048;stroke-width:1.0;"/><text fill="#000000" font-family="sans-serif" font-size="11" lengthAdjust="spacingAndGlyphs" text-decoration="underline" textLength="109" x="244.5" y="195.7104">String[] MESSAGES</text><line style="stroke:#A80036;stroke-width:1.5;" x1="225.5" x2="358.5" y1="202.3047" y2="202.3047"/><ellipse cx="235.5" cy="213.3047" fill="#84BE84" rx="3" ry="3" style="stroke:#038048;stroke-width:1.0;"/><text fill="#000000" font-family="sans-serif" font-size="11" lengthAdjust="spacingAndGlyphs" textLength="88" x="244.5" y="216.5151">ErrorView(Error)</text><!--MD5=[a66996a88a04a7646fe7625221d515cb]
class usantatecla.tictactoe.views.Message--><rect codeLine="16" fill="#FEFECE" filter="url(#f1jr0ek1pooqfe)" height="291.2891" id="usantatecla.tictactoe.views.Message" style="stroke:#A80036;stroke-width:1.5;" width="218" x="395" y="41"/><ellipse cx="472.25" cy="57" fill="#EB937F" rx="11" ry="11" style="stroke:#A80036;stroke-width:1.0;"/><path d="M471.0469,57.875 L472.5,57.875 L472.5,57.9844 C472.5,58.3906 472.5313,58.5469 472.6094,58.7031 C472.7656,58.9531 473.0469,59.1094 473.3438,59.1094 C473.5938,59.1094 473.8594,58.9688 474.0156,58.75 C474.1406,58.5938 474.1719,58.4375 474.1719,57.9844 L474.1719,56.0625 C474.1719,55.9063 474.1719,55.8594 474.1563,55.7031 C474.0938,55.2344 473.7813,54.9219 473.3281,54.9219 C473.0781,54.9219 472.8125,55.0625 472.6406,55.2813 C472.5313,55.4531 472.5,55.6094 472.5,56.0625 L472.5,56.1875 L471.0469,56.1875 L471.0469,53.7813 L475.0313,53.7813 L475.0313,54.6406 C475.0313,55.0469 475.0625,55.2188 475.1406,55.375 C475.3125,55.625 475.5938,55.7813 475.875,55.7813 C476.1406,55.7813 476.4063,55.6406 476.5781,55.4219 C476.6875,55.25 476.7188,55.1094 476.7188,54.6406 L476.7188,52.0938 L469.0938,52.0938 C468.6563,52.0938 468.5313,52.1094 468.375,52.2031 C468.125,52.3594 467.9688,52.6563 467.9688,52.9375 C467.9688,53.2188 468.1094,53.4688 468.3281,53.6406 C468.4844,53.75 468.6719,53.7813 469.0938,53.7813 L469.3438,53.7813 L469.3438,60.2969 L469.0938,60.2969 C468.6875,60.2969 468.5313,60.3125 468.375,60.4219 C468.125,60.5938 467.9688,60.8594 467.9688,61.1563 C467.9688,61.4219 468.1094,61.6719 468.3281,61.8281 C468.4688,61.9531 468.7031,62 469.0938,62 L477.0938,62 L477.0938,59.4219 C477.0938,58.9844 477.0625,58.8438 476.9844,58.6875 C476.8125,58.4375 476.5313,58.2813 476.25,58.2813 C475.9844,58.2813 475.7188,58.3906 475.5469,58.6406 C475.4375,58.7969 475.4063,58.9375 475.4063,59.4219 L475.4063,60.2969 L471.0469,60.2969 L471.0469,57.875 Z " fill="#000000"/><text fill="#000000" font-family="sans-serif" font-size="12" lengthAdjust="spacingAndGlyphs" textLength="55" x="492.75" y="61.1543">Message</text><line style="stroke:#A80036;stroke-width:1.5;" x1="396" x2="612" y1="73" y2="73"/><ellipse cx="406" cy="84" fill="none" rx="3" ry="3" style="stroke:#038048;stroke-width:1.0;"/><text fill="#000000" font-family="sans-serif" font-size="11" lengthAdjust="spacingAndGlyphs" textLength="37" x="415" y="87.2104">TITTLE</text><ellipse cx="406" cy="96.8047" fill="none" rx="3" ry="3" style="stroke:#038048;stroke-width:1.0;"/><text fill="#000000" font-family="sans-serif" font-size="11" lengthAdjust="spacingAndGlyphs" textLength="102" x="415" y="100.0151">NUMBER_PLAYERS</text><ellipse cx="406" cy="109.6094" fill="none" rx="3" ry="3" style="stroke:#038048;stroke-width:1.0;"/><text fill="#000000" font-family="sans-serif" font-size="11" lengthAdjust="spacingAndGlyphs" textLength="67" x="415" y="112.8198">SEPARATOR</text><ellipse cx="406" cy="122.4141" fill="none" rx="3" ry="3" style="stroke:#038048;stroke-width:1.0;"/><text fill="#000000" font-family="sans-serif" font-size="11" lengthAdjust="spacingAndGlyphs" textLength="116" x="415" y="125.6245">VERTICAL_LINE_LEFT</text><ellipse cx="406" cy="135.2188" fill="none" rx="3" ry="3" style="stroke:#038048;stroke-width:1.0;"/><text fill="#000000" font-family="sans-serif" font-size="11" lengthAdjust="spacingAndGlyphs" textLength="150" x="415" y="138.4292">VERTICAL_LINE_CENTERED</text><ellipse cx="406" cy="148.0234" fill="none" rx="3" ry="3" style="stroke:#038048;stroke-width:1.0;"/><text fill="#000000" font-family="sans-serif" font-size="11" lengthAdjust="spacingAndGlyphs" textLength="124" x="415" y="151.2339">VERTICAL_LINE_RIGHT</text><ellipse cx="406" cy="160.8281" fill="none" rx="3" ry="3" style="stroke:#038048;stroke-width:1.0;"/><text fill="#000000" font-family="sans-serif" font-size="11" lengthAdjust="spacingAndGlyphs" textLength="166" x="415" y="164.0386">ENTER_COORDINATE_TO_PUT</text><ellipse cx="406" cy="173.6328" fill="none" rx="3" ry="3" style="stroke:#038048;stroke-width:1.0;"/><text fill="#000000" font-family="sans-serif" font-size="11" lengthAdjust="spacingAndGlyphs" textLength="192" x="415" y="176.8433">ENTER_COORDINATE_TO_REMOVE</text><ellipse cx="406" cy="186.4375" fill="none" rx="3" ry="3" style="stroke:#038048;stroke-width:1.0;"/><text fill="#000000" font-family="sans-serif" font-size="11" lengthAdjust="spacingAndGlyphs" textLength="124" x="415" y="189.6479">COORDINATE_TO_PUT</text><ellipse cx="406" cy="199.2422" fill="none" rx="3" ry="3" style="stroke:#038048;stroke-width:1.0;"/><text fill="#000000" font-family="sans-serif" font-size="11" lengthAdjust="spacingAndGlyphs" textLength="150" x="415" y="202.4526">COORDINATE_TO_REMOVE</text><ellipse cx="406" cy="212.0469" fill="none" rx="3" ry="3" style="stroke:#038048;stroke-width:1.0;"/><text fill="#000000" font-family="sans-serif" font-size="11" lengthAdjust="spacingAndGlyphs" textLength="136" x="415" y="215.2573">COORDINATE_TO_MOVE</text><ellipse cx="406" cy="224.8516" fill="none" rx="3" ry="3" style="stroke:#038048;stroke-width:1.0;"/><text fill="#000000" font-family="sans-serif" font-size="11" lengthAdjust="spacingAndGlyphs" textLength="69" x="415" y="228.062">PLAYER_WIN</text><ellipse cx="406" cy="237.6563" fill="none" rx="3" ry="3" style="stroke:#038048;stroke-width:1.0;"/><text fill="#000000" font-family="sans-serif" font-size="11" lengthAdjust="spacingAndGlyphs" textLength="46" x="415" y="240.8667">RESUME</text><rect fill="none" height="6" style="stroke:#C82930;stroke-width:1.0;" width="6" x="403" y="247.4609"/><text fill="#000000" font-family="sans-serif" font-size="11" lengthAdjust="spacingAndGlyphs" textLength="93" x="415" y="253.6714">String message;</text><line style="stroke:#A80036;stroke-width:1.5;" x1="396" x2="612" y1="260.2656" y2="260.2656"/><rect fill="#F24D5C" height="6" style="stroke:#C82930;stroke-width:1.0;" width="6" x="403" y="268.2656"/><text fill="#000000" font-family="sans-serif" font-size="11" lengthAdjust="spacingAndGlyphs" textLength="92" x="415" y="274.4761">Message(String)</text><ellipse cx="406" cy="284.0703" fill="#84BE84" rx="3" ry="3" style="stroke:#038048;stroke-width:1.0;"/><text fill="#000000" font-family="sans-serif" font-size="11" lengthAdjust="spacingAndGlyphs" textLength="118" x="415" y="287.2808">getMessage(): String</text><ellipse cx="406" cy="296.875" fill="#84BE84" rx="3" ry="3" style="stroke:#038048;stroke-width:1.0;"/><text fill="#000000" font-family="sans-serif" font-size="11" lengthAdjust="spacingAndGlyphs" textLength="36" x="415" y="300.0854">write()</text><ellipse cx="406" cy="309.6797" fill="#84BE84" rx="3" ry="3" style="stroke:#038048;stroke-width:1.0;"/><text fill="#000000" font-family="sans-serif" font-size="11" lengthAdjust="spacingAndGlyphs" textLength="46" x="415" y="312.8901">writeln()</text><ellipse cx="406" cy="322.4844" fill="#84BE84" rx="3" ry="3" style="stroke:#038048;stroke-width:1.0;"/><text fill="#000000" font-family="sans-serif" font-size="11" lengthAdjust="spacingAndGlyphs" textLength="92" x="415" y="325.6948">toString(): String</text><!--MD5=[b8aaf1245d109720e7e93ad10575fc66]
class usantatecla.tictactoe.views.View--><rect codeLine="40" fill="#FEFECE" filter="url(#f1jr0ek1pooqfe)" height="112.0234" id="usantatecla.tictactoe.views.View" style="stroke:#A80036;stroke-width:1.5;" width="154" x="33" y="392"/><ellipse cx="91.75" cy="408" fill="#A9DCDF" rx="11" ry="11" style="stroke:#A80036;stroke-width:1.0;"/><path d="M93.8281,409.8125 L94.2188,410.7969 L93.8281,410.7969 C93.375,410.7969 93.2656,410.8125 93.1094,410.9219 C92.8594,411.0781 92.7031,411.3594 92.7031,411.6563 C92.7031,411.9219 92.8438,412.1719 93.0625,412.3281 C93.2031,412.4531 93.4063,412.5 93.8281,412.5 L96.1875,412.5 C96.5469,412.5 96.7656,412.4688 96.9063,412.375 C97.1563,412.2344 97.3125,411.9375 97.3125,411.6563 C97.3125,411.375 97.1719,411.125 96.9531,410.9688 C96.7813,410.8281 96.625,410.7969 96.1563,410.7969 L92.7656,402.5938 L89.0938,402.5938 C88.6406,402.5938 88.5156,402.6094 88.3594,402.7031 C88.1094,402.875 87.9531,403.1563 87.9531,403.4375 C87.9531,403.7188 88.0938,403.9688 88.3125,404.1406 C88.4844,404.25 88.6563,404.2813 89.0938,404.2813 L90.1719,404.2813 L87.5313,410.7969 C87.1094,410.7969 86.9531,410.8125 86.7969,410.9219 C86.5469,411.0781 86.3906,411.3594 86.3906,411.6563 C86.3906,412.2188 86.7656,412.5 87.5156,412.5 L89.7813,412.5 C90.1406,412.5 90.3594,412.4688 90.4844,412.375 C90.75,412.2344 90.8906,411.9375 90.8906,411.6563 C90.8906,411.375 90.7656,411.125 90.5469,410.9531 C90.375,410.8281 90.2344,410.7969 89.7813,410.7969 L89.3906,410.7969 L89.7813,409.8125 L93.8281,409.8125 Z M93.125,408.1094 L90.4531,408.1094 L91.7969,404.8438 L93.125,408.1094 Z " fill="#000000"/><text fill="#000000" font-family="sans-serif" font-size="12" font-style="italic" lengthAdjust="spacingAndGlyphs" textLength="28" x="112.25" y="412.1543">View</text><line style="stroke:#A80036;stroke-width:1.5;" x1="34" x2="186" y1="424" y2="424"/><line style="stroke:#A80036;stroke-width:1.5;" x1="34" x2="186" y1="432" y2="432"/><ellipse cx="44" cy="443" fill="#84BE84" rx="3" ry="3" style="stroke:#038048;stroke-width:1.0;"/><text fill="#000000" font-family="sans-serif" font-size="11" lengthAdjust="spacingAndGlyphs" textLength="71" x="53" y="446.2104">View(Game)</text><ellipse cx="44" cy="455.8047" fill="#84BE84" rx="3" ry="3" style="stroke:#038048;stroke-width:1.0;"/><text fill="#000000" font-family="sans-serif" font-size="11" lengthAdjust="spacingAndGlyphs" textLength="51" x="53" y="459.0151">interact()</text><polygon fill="#FFFF44" points="44,463.6094,48,467.6094,44,471.6094,40,467.6094" style="stroke:#B38D22;stroke-width:1.0;"/><text fill="#000000" font-family="sans-serif" font-size="11" font-style="italic" lengthAdjust="spacingAndGlyphs" textLength="34" x="53" y="471.8198">start()</text><polygon fill="#FFFF44" points="44,476.4141,48,480.4141,44,484.4141,40,480.4141" style="stroke:#B38D22;stroke-width:1.0;"/><text fill="#000000" font-family="sans-serif" font-size="11" font-style="italic" lengthAdjust="spacingAndGlyphs" textLength="32" x="53" y="484.6245">play()</text><polygon fill="#FFFF44" points="44,489.2188,48,493.2188,44,497.2188,40,493.2188" style="stroke:#B38D22;stroke-width:1.0;"/><text fill="#000000" font-family="sans-serif" font-size="11" font-style="italic" lengthAdjust="spacingAndGlyphs" textLength="128" x="53" y="497.4292">isNewGame(): boolean</text><!--MD5=[b6dcce5e5ef3c84b0b048d11301373dd]
class Game--><rect codeLine="1" fill="#FEFECE" filter="url(#f1jr0ek1pooqfe)" height="67.9063" id="Game" style="stroke:#A80036;stroke-width:1.5;" width="135" x="107.5" y="564"/><ellipse cx="122.5" cy="589.9531" fill="#ADD1B2" rx="11" ry="11" style="stroke:#A80036;stroke-width:1.0;"/><path d="M124.8438,585.625 C123.9063,585.1875 123.3125,585.0469 122.4375,585.0469 C119.8125,585.0469 117.8125,587.125 117.8125,589.8438 L117.8125,590.9688 C117.8125,593.5469 119.9219,595.4375 122.8125,595.4375 C124.0313,595.4375 125.1875,595.1406 125.9375,594.5938 C126.5156,594.1875 126.8438,593.7344 126.8438,593.3438 C126.8438,592.8906 126.4531,592.5 125.9844,592.5 C125.7656,592.5 125.5625,592.5781 125.375,592.7656 C124.9219,593.25 124.9219,593.25 124.7344,593.3438 C124.3125,593.6094 123.625,593.7344 122.8594,593.7344 C120.8125,593.7344 119.5156,592.6406 119.5156,590.9375 L119.5156,589.8438 C119.5156,588.0625 120.7656,586.75 122.5,586.75 C123.0781,586.75 123.6875,586.9063 124.1563,587.1563 C124.6406,587.4375 124.8125,587.6563 124.9063,588.0625 C124.9688,588.4688 125,588.5938 125.1406,588.7188 C125.2813,588.8594 125.5156,588.9688 125.7344,588.9688 C126,588.9688 126.2656,588.8281 126.4375,588.6094 C126.5469,588.4531 126.5781,588.2656 126.5781,587.8438 L126.5781,586.4219 C126.5781,585.9844 126.5625,585.8594 126.4688,585.7031 C126.3125,585.4375 126.0313,585.2969 125.7344,585.2969 C125.4375,585.2969 125.2344,585.3906 125.0156,585.7031 L124.8438,585.625 Z " fill="#000000"/><text fill="#000000" font-family="sans-serif" font-size="12" lengthAdjust="spacingAndGlyphs" textLength="71" x="152.5" y="580.1387">usantatecla.</text><text fill="#000000" font-family="sans-serif" font-size="12" lengthAdjust="spacingAndGlyphs" textLength="103" x="136.5" y="594.1074">tictactoe.models.</text><text fill="#000000" font-family="sans-serif" font-size="12" lengthAdjust="spacingAndGlyphs" textLength="35" x="170.5" y="608.0762">Game</text><line style="stroke:#A80036;stroke-width:1.5;" x1="108.5" x2="241.5" y1="615.9063" y2="615.9063"/><line style="stroke:#A80036;stroke-width:1.5;" x1="108.5" x2="241.5" y1="623.9063" y2="623.9063"/><!--MD5=[315b61b427ec618d6861d47eee00cca3]
class Console--><rect codeLine="2" fill="#FEFECE" filter="url(#f1jr0ek1pooqfe)" height="67.9063" id="Console" style="stroke:#A80036;stroke-width:1.5;" width="103" x="804.5" y="414"/><ellipse cx="819.5" cy="439.9531" fill="#ADD1B2" rx="11" ry="11" style="stroke:#A80036;stroke-width:1.0;"/><path d="M821.8438,435.625 C820.9063,435.1875 820.3125,435.0469 819.4375,435.0469 C816.8125,435.0469 814.8125,437.125 814.8125,439.8438 L814.8125,440.9688 C814.8125,443.5469 816.9219,445.4375 819.8125,445.4375 C821.0313,445.4375 822.1875,445.1406 822.9375,444.5938 C823.5156,444.1875 823.8438,443.7344 823.8438,443.3438 C823.8438,442.8906 823.4531,442.5 822.9844,442.5 C822.7656,442.5 822.5625,442.5781 822.375,442.7656 C821.9219,443.25 821.9219,443.25 821.7344,443.3438 C821.3125,443.6094 820.625,443.7344 819.8594,443.7344 C817.8125,443.7344 816.5156,442.6406 816.5156,440.9375 L816.5156,439.8438 C816.5156,438.0625 817.7656,436.75 819.5,436.75 C820.0781,436.75 820.6875,436.9063 821.1563,437.1563 C821.6406,437.4375 821.8125,437.6563 821.9063,438.0625 C821.9688,438.4688 822,438.5938 822.1406,438.7188 C822.2813,438.8594 822.5156,438.9688 822.7344,438.9688 C823,438.9688 823.2656,438.8281 823.4375,438.6094 C823.5469,438.4531 823.5781,438.2656 823.5781,437.8438 L823.5781,436.4219 C823.5781,435.9844 823.5625,435.8594 823.4688,435.7031 C823.3125,435.4375 823.0313,435.2969 822.7344,435.2969 C822.4375,435.2969 822.2344,435.3906 822.0156,435.7031 L821.8438,435.625 Z " fill="#000000"/><text fill="#000000" font-family="sans-serif" font-size="12" lengthAdjust="spacingAndGlyphs" textLength="71" x="833.5" y="430.1387">usantatecla.</text><text fill="#000000" font-family="sans-serif" font-size="12" lengthAdjust="spacingAndGlyphs" textLength="27" x="855.5" y="444.1074">utils.</text><text fill="#000000" font-family="sans-serif" font-size="12" lengthAdjust="spacingAndGlyphs" textLength="49" x="844.5" y="458.0762">Console</text><line style="stroke:#A80036;stroke-width:1.5;" x1="805.5" x2="906.5" y1="465.9063" y2="465.9063"/><line style="stroke:#A80036;stroke-width:1.5;" x1="805.5" x2="906.5" y1="473.9063" y2="473.9063"/><!--MD5=[b8cfd8c4119a3b0a7a46bfc5fc780f85]
class Error--><rect codeLine="3" fill="#FEFECE" filter="url(#f1jr0ek1pooqfe)" height="67.9063" id="Error" style="stroke:#A80036;stroke-width:1.5;" width="124" x="645" y="414"/><ellipse cx="660" cy="439.9531" fill="#EB937F" rx="11" ry="11" style="stroke:#A80036;stroke-width:1.0;"/><path d="M658.7969,440.8281 L660.25,440.8281 L660.25,440.9375 C660.25,441.3438 660.2813,441.5 660.3594,441.6563 C660.5156,441.9063 660.7969,442.0625 661.0938,442.0625 C661.3438,442.0625 661.6094,441.9219 661.7656,441.7031 C661.8906,441.5469 661.9219,441.3906 661.9219,440.9375 L661.9219,439.0156 C661.9219,438.8594 661.9219,438.8125 661.9063,438.6563 C661.8438,438.1875 661.5313,437.875 661.0781,437.875 C660.8281,437.875 660.5625,438.0156 660.3906,438.2344 C660.2813,438.4063 660.25,438.5625 660.25,439.0156 L660.25,439.1406 L658.7969,439.1406 L658.7969,436.7344 L662.7813,436.7344 L662.7813,437.5938 C662.7813,438 662.8125,438.1719 662.8906,438.3281 C663.0625,438.5781 663.3438,438.7344 663.625,438.7344 C663.8906,438.7344 664.1563,438.5938 664.3281,438.375 C664.4375,438.2031 664.4688,438.0625 664.4688,437.5938 L664.4688,435.0469 L656.8438,435.0469 C656.4063,435.0469 656.2813,435.0625 656.125,435.1563 C655.875,435.3125 655.7188,435.6094 655.7188,435.8906 C655.7188,436.1719 655.8594,436.4219 656.0781,436.5938 C656.2344,436.7031 656.4219,436.7344 656.8438,436.7344 L657.0938,436.7344 L657.0938,443.25 L656.8438,443.25 C656.4375,443.25 656.2813,443.2656 656.125,443.375 C655.875,443.5469 655.7188,443.8125 655.7188,444.1094 C655.7188,444.375 655.8594,444.625 656.0781,444.7813 C656.2188,444.9063 656.4531,444.9531 656.8438,444.9531 L664.8438,444.9531 L664.8438,442.375 C664.8438,441.9375 664.8125,441.7969 664.7344,441.6406 C664.5625,441.3906 664.2813,441.2344 664,441.2344 C663.7344,441.2344 663.4688,441.3438 663.2969,441.5938 C663.1875,441.75 663.1563,441.8906 663.1563,442.375 L663.1563,443.25 L658.7969,443.25 L658.7969,440.8281 Z " fill="#000000"/><text fill="#000000" font-family="sans-serif" font-size="12" lengthAdjust="spacingAndGlyphs" textLength="71" x="684.5" y="430.1387">usantatecla.</text><text fill="#000000" font-family="sans-serif" font-size="12" lengthAdjust="spacingAndGlyphs" textLength="92" x="674" y="444.1074">tictactoe.types.</text><text fill="#000000" font-family="sans-serif" font-size="12" lengthAdjust="spacingAndGlyphs" textLength="30" x="705" y="458.0762">Error</text><line style="stroke:#A80036;stroke-width:1.5;" x1="646" x2="768" y1="465.9063" y2="465.9063"/><line style="stroke:#A80036;stroke-width:1.5;" x1="646" x2="768" y1="473.9063" y2="473.9063"/><!--MD5=[8f0fd5e06d544d302ef7a67cdbd1fd5b]
link usantatecla.tictactoe.views.WithGameView to Game--><path codeLine="8" d="M135.5044,227.6343 C135.5044,227.6343 191.021,332.11 204,392 C216.802,451.073 215.945,468.748 204,528 C202.418,535.8467 199.918,543.9125 197.034,551.6375 " fill="none" id="usantatecla.tictactoe.views.WithGameView-Game" style="stroke:#A80036;stroke-width:1.0;"/><polygon fill="#A80036" points="192.088,563.8125,199.1811,556.9796,193.9697,559.1801,191.7692,553.9688,192.088,563.8125" style="stroke:#A80036;stroke-width:1.0;"/><line style="stroke:#A80036;stroke-width:1.0;" x1="193.9697" x2="196.9805" y1="559.1801" y2="551.7682"/><polygon fill="#A80036" points="129.482,217.255,129.0334,224.4521,135.5044,227.6343,135.953,220.4372,129.482,217.255" style="stroke:#A80036;stroke-width:1.0;"/><!--MD5=[e1a1ed879dec1c27872df24b01782659]
link usantatecla.tictactoe.views.ErrorView to Error--><path codeLine="14" d="M308.4451,234.8714 C308.4451,234.8714 344.66,308.102 377,332 C469.592,400.423 524.062,344.639 629,392 C637.926,396.028 646.888,401.128 655.393,406.59 " fill="none" id="usantatecla.tictactoe.views.ErrorView-Error" style="stroke:#A80036;stroke-width:1.0;"/><polygon fill="#A80036" points="666.27,413.919,661.0412,405.5727,662.1234,411.1251,656.571,412.2073,666.27,413.919" style="stroke:#A80036;stroke-width:1.0;"/><line style="stroke:#A80036;stroke-width:1.0;" x1="662.1234" x2="655.4895" y1="411.1251" y2="406.6545"/><polygon fill="#A80036" points="303.938,223.75,302.4844,230.8131,308.4451,234.8714,309.8987,227.8083,303.938,223.75" style="stroke:#A80036;stroke-width:1.0;"/><!--MD5=[780d451bf192457496502a8748611a56]
link usantatecla.tictactoe.views.Message to Console--><path codeLine="38" d="M613.059,264.486 C665.999,302.318 730.271,348.932 787,392 C794.721,397.862 802.841,404.186 810.691,410.387 " fill="none" id="usantatecla.tictactoe.views.Message-to-Console" style="stroke:#A80036;stroke-width:1.0;stroke-dasharray:7.0,7.0;"/><polygon fill="#A80036" points="815.02,413.815,810.4477,405.0918,811.1002,410.7109,805.4811,411.3634,815.02,413.815" style="stroke:#A80036;stroke-width:1.0;"/><!--MD5=[acf194cf3bad20271a8106208d963e45]
reverse link usantatecla.tictactoe.views.WithGameView to usantatecla.tictactoe.views.View--><path codeLine="47" d="M110.808,237.221 C110.638,281.473 110.389,346.105 110.212,391.914 " fill="none" id="usantatecla.tictactoe.views.WithGameView-backto-usantatecla.tictactoe.views.View" style="stroke:#A80036;stroke-width:1.0;"/><polygon fill="none" points="103.809,236.988,110.886,217.015,117.809,237.042,103.809,236.988" style="stroke:#A80036;stroke-width:1.0;"/><!--MD5=[df75c91ec310a8a186288e5ba4f70827]
link usantatecla.tictactoe.views.View to Game--><path codeLine="48" d="M134.204,504.11 C142.254,522.439 151.032,542.4264 158.376,559.1485 " fill="none" id="usantatecla.tictactoe.views.View-to-Game" style="stroke:#A80036;stroke-width:1.0;stroke-dasharray:7.0,7.0;"/><polygon fill="#A80036" points="160.408,563.7744,160.4504,553.9256,158.397,559.1966,153.126,557.1432,160.408,563.7744" style="stroke:#A80036;stroke-width:1.0;"/><!--MD5=[1e3eb4077cd4096871ca9e1855c92e29]
@startuml
class Game as "usantatecla.\ntictactoe.models.\nGame"
class Console as "usantatecla.\nutils.\nConsole"
enum Error as "usantatecla.\ntictactoe.types.\nError"

abstract class usantatecla.tictactoe.views.WithGameView {
	+ WithGameView(Game)
}
usantatecla.tictactoe.views.WithGameView *-down-> Game

abstract class usantatecla.tictactoe.views.ErrorView {
	+ {static} String[] MESSAGES
	+ ErrorView(Error)
}
usantatecla.tictactoe.views.ErrorView *-down-> Error

enum usantatecla.tictactoe.views.Message {
	+ TITTLE
	+ NUMBER_PLAYERS
	+ SEPARATOR
	+ VERTICAL_LINE_LEFT
	+ VERTICAL_LINE_CENTERED
	+ VERTICAL_LINE_RIGHT
	+ ENTER_COORDINATE_TO_PUT
	+ ENTER_COORDINATE_TO_REMOVE
	+ COORDINATE_TO_PUT
	+ COORDINATE_TO_REMOVE
	+ COORDINATE_TO_MOVE
	+ PLAYER_WIN
	+ RESUME
	- String message;

	- Message(String)
	+ getMessage(): String
	+ write()
	+ writeln()
	+ toString(): String
}
usantatecla.tictactoe.views.Message .down.> Console

abstract class usantatecla.tictactoe.views.View {
	+ View(Game)
	+ interact()
	# {abstract} start()
	# {abstract} play()
	# {abstract} isNewGame(): boolean
}
usantatecla.tictactoe.views.View -up-|> usantatecla.tictactoe.views.WithGameView
usantatecla.tictactoe.views.View .down.> Game
@enduml

PlantUML version 1.2020.23beta3(Unknown compile time)
(GPL source distribution)
Java Runtime: Java(TM) SE Runtime Environment
JVM: Java HotSpot(TM) 64-Bit Server VM
Default Encoding: UTF-8
Language: en
Country: US
--></g></svg>