<?xml version="1.0" encoding="UTF-8" standalone="no"?><svg xmlns="http://www.w3.org/2000/svg" xmlns:xlink="http://www.w3.org/1999/xlink" contentScriptType="application/ecmascript" contentStyleType="text/css" height="159px" preserveAspectRatio="none" style="width:699px;height:159px;" version="1.1" viewBox="0 0 699 159" width="699px" zoomAndPan="magnify"><defs><filter height="300%" id="f1hcyx0wj111g1" width="300%" x="-1" y="-1"><feGaussianBlur result="blurOut" stdDeviation="2.0"/><feColorMatrix in="blurOut" result="blurOut2" type="matrix" values="0 0 0 0 0 0 0 0 0 0 0 0 0 0 0 0 0 0 .4 0"/><feOffset dx="4.0" dy="4.0" in="blurOut2" result="blurOut3"/><feBlend in="SourceGraphic" in2="blurOut3" mode="normal"/></filter></defs><g><!--MD5=[acdcbb1bbc8d56ea383ed909c292e8b2]
entity usantatecla.tictactoe--><polygon fill="#FFFFFF" filter="url(#f1hcyx0wj111g1)" points="16,113,201,113,208,135.2969,225,135.2969,225,152.2969,16,152.2969,16,113" style="stroke:#000000;stroke-width:1.5;"/><line style="stroke:#000000;stroke-width:1.5;" x1="16" x2="208" y1="135.2969" y2="135.2969"/><text fill="#000000" font-family="sans-serif" font-size="14" font-weight="bold" lengthAdjust="spacingAndGlyphs" textLength="179" x="20" y="128.9951">usantatecla.tictactoe</text><!--MD5=[612a536d1c85efa17c7d118cc1e7b020]
entity usantatecla.utils--><polygon fill="#FFFFFF" filter="url(#f1hcyx0wj111g1)" points="260.5,113,406.5,113,413.5,135.2969,430.5,135.2969,430.5,152.2969,260.5,152.2969,260.5,113" style="stroke:#000000;stroke-width:1.5;"/><line style="stroke:#000000;stroke-width:1.5;" x1="260.5" x2="413.5" y1="135.2969" y2="135.2969"/><text fill="#000000" font-family="sans-serif" font-size="14" font-weight="bold" lengthAdjust="spacingAndGlyphs" textLength="140" x="264.5" y="128.9951">usantatecla.utils</text><!--MD5=[48fa9072fd51d9920e6db8484beec696]
entity java.io--><polygon fill="#FFFFFF" filter="url(#f1hcyx0wj111g1)" points="465.5,113,525.5,113,532.5,135.2969,549.5,135.2969,549.5,152.2969,465.5,152.2969,465.5,113" style="stroke:#000000;stroke-width:1.5;"/><line style="stroke:#000000;stroke-width:1.5;" x1="465.5" x2="532.5" y1="135.2969" y2="135.2969"/><text fill="#000000" font-family="sans-serif" font-size="14" font-weight="bold" lengthAdjust="spacingAndGlyphs" textLength="54" x="469.5" y="128.9951">java.io</text><!--MD5=[034f0f7ed136bf78fc117f7e41f76e93]
entity java.util--><polygon fill="#FFFFFF" filter="url(#f1hcyx0wj111g1)" points="585,113,658,113,665,135.2969,682,135.2969,682,152.2969,585,152.2969,585,113" style="stroke:#000000;stroke-width:1.5;"/><line style="stroke:#000000;stroke-width:1.5;" x1="585" x2="665" y1="135.2969" y2="135.2969"/><text fill="#000000" font-family="sans-serif" font-size="14" font-weight="bold" lengthAdjust="spacingAndGlyphs" textLength="67" x="589" y="128.9951">java.util</text><!--MD5=[c2796faf4134bd8b5f3bc71f44d02e74]
entity jar--><rect fill="#FEFECE" filter="url(#f1hcyx0wj111g1)" height="46.2969" style="stroke:#A80036;stroke-width:1.5;" width="130" x="361.5" y="7"/><rect fill="#FEFECE" height="10" style="stroke:#A80036;stroke-width:1.5;" width="15" x="471.5" y="12"/><rect fill="#FEFECE" height="2" style="stroke:#A80036;stroke-width:1.5;" width="4" x="469.5" y="14"/><rect fill="#FEFECE" height="2" style="stroke:#A80036;stroke-width:1.5;" width="4" x="469.5" y="18"/><text fill="#000000" font-family="sans-serif" font-size="14" lengthAdjust="spacingAndGlyphs" textLength="90" x="376.5" y="39.9951">tictactoe.jar</text><!--MD5=[a9fe4fe342d89d0ce2cdef79d4c44adf]
link jar to usantatecla.tictactoe--><path d="M349.83,56.1803 C349.83,56.1803 236.816,93.2981 189.525,108.8299 " fill="none" id="jar-usantatecla.tictactoe" style="stroke:#A80036;stroke-width:1.0;"/><polygon fill="#A80036" points="176.932,112.9661,186.7307,113.9586,181.6824,111.4062,184.2348,106.3579,176.932,112.9661" style="stroke:#A80036;stroke-width:1.0;"/><line style="stroke:#A80036;stroke-width:1.0;" x1="181.6824" x2="189.2825" y1="111.4062" y2="108.9096"/><polygon fill="#A80036" points="361.231,52.4365,354.2825,50.5081,349.83,56.1803,356.7784,58.1088,361.231,52.4365" style="stroke:#A80036;stroke-width:1.0;"/><!--MD5=[8059cd5737844cbfa7541e4ee98eb909]
link jar to usantatecla.utils--><path d="M400.9925,62.6472 C400.9925,62.6472 378.483,90.5769 368.606,102.8317 " fill="none" id="jar-usantatecla.utils" style="stroke:#A80036;stroke-width:1.0;"/><polygon fill="#A80036" points="360.442,112.9606,369.2039,108.4629,363.5794,109.0675,362.9749,103.443,360.442,112.9606" style="stroke:#A80036;stroke-width:1.0;"/><line style="stroke:#A80036;stroke-width:1.0;" x1="363.5794" x2="368.6" y1="109.0675" y2="102.8389"/><polygon fill="#A80036" points="408.523,53.3042,401.6434,55.4656,400.9925,62.6472,407.8721,60.4859,408.523,53.3042" style="stroke:#A80036;stroke-width:1.0;"/><!--MD5=[f17a38c250a1605cd3da9b9fac2ef94b]
link jar to java.io--><path d="M452.0075,62.6472 C452.0075,62.6472 474.517,90.5769 484.394,102.8317 " fill="none" id="jar-java.io" style="stroke:#A80036;stroke-width:1.0;"/><polygon fill="#A80036" points="492.558,112.9606,490.0251,103.443,489.4206,109.0675,483.7961,108.4629,492.558,112.9606" style="stroke:#A80036;stroke-width:1.0;"/><line style="stroke:#A80036;stroke-width:1.0;" x1="489.4206" x2="484.4" y1="109.0675" y2="102.8389"/><polygon fill="#A80036" points="444.477,53.3042,445.1279,60.4859,452.0075,62.6472,451.3566,55.4656,444.477,53.3042" style="stroke:#A80036;stroke-width:1.0;"/><!--MD5=[a929e6d2b54380e4c3e4c2b17ce7cd9b]
link jar to java.util--><path d="M482.7217,58.2968 C482.7217,58.2968 553.311,92.5677 583.253,107.1046 " fill="none" id="jar-java.util" style="stroke:#A80036;stroke-width:1.0;"/><polygon fill="#A80036" points="595.124,112.868,588.7744,105.3392,590.626,110.6844,585.2807,112.536,595.124,112.868" style="stroke:#A80036;stroke-width:1.0;"/><line style="stroke:#A80036;stroke-width:1.0;" x1="590.626" x2="583.429" y1="110.6844" y2="107.1902"/><polygon fill="#A80036" points="471.927,53.0552,475.5771,59.2742,482.7217,58.2968,479.0716,52.0778,471.927,53.0552" style="stroke:#A80036;stroke-width:1.0;"/><!--MD5=[6d8d7051ee1f36dc4092bdcdd8db5e59]
@startuml
package "  "  as usantatecla.tictactoe {
}
package "  "  as usantatecla.utils {
}
package "  "  as java.io {
}
package "  "  as java.util {
}

[tictactoe.jar] as jar

jar *- -> usantatecla.tictactoe
jar *- -> usantatecla.utils
jar *- -> java.io
jar *- -> java.util
@enduml

PlantUML version 1.2020.21beta7(Unknown compile time)
(GPL source distribution)
Java Runtime: Java(TM) SE Runtime Environment
JVM: Java HotSpot(TM) 64-Bit Server VM
Default Encoding: UTF-8
Language: en
Country: US
--></g></svg>