<?xml version="1.0" encoding="UTF-8" standalone="no"?><svg xmlns="http://www.w3.org/2000/svg" xmlns:xlink="http://www.w3.org/1999/xlink" contentScriptType="application/ecmascript" contentStyleType="text/css" height="288px" preserveAspectRatio="none" style="width:377px;height:288px;" version="1.1" viewBox="0 0 377 288" width="377px" zoomAndPan="magnify"><defs><filter height="300%" id="ftjq8zft0j663" width="300%" x="-1" y="-1"><feGaussianBlur result="blurOut" stdDeviation="2.0"/><feColorMatrix in="blurOut" result="blurOut2" type="matrix" values="0 0 0 0 0 0 0 0 0 0 0 0 0 0 0 0 0 0 .4 0"/><feOffset dx="4.0" dy="4.0" in="blurOut2" result="blurOut3"/><feBlend in="SourceGraphic" in2="blurOut3" mode="normal"/></filter></defs><g><!--MD5=[2d083dca3cab6023baf6a9cac5f9557f]
cluster tictactoe.types--><polygon fill="#FFFFFF" filter="url(#ftjq8zft0j663)" points="16,6,148,6,155,28.2969,360,28.2969,360,182,16,182,16,6" style="stroke:#000000;stroke-width:1.5;"/><line style="stroke:#000000;stroke-width:1.5;" x1="16" x2="155" y1="28.2969" y2="28.2969"/><text fill="#000000" font-family="sans-serif" font-size="14" font-weight="bold" lengthAdjust="spacingAndGlyphs" textLength="126" x="20" y="20.9951">tictactoe.types</text><!--MD5=[1aab8645402f9730c5a520f7fa330421]
class tictactoe.types.Error--><rect codeLine="1" fill="#FEFECE" filter="url(#ftjq8zft0j663)" height="124.8281" id="tictactoe.types.Error" style="stroke:#A80036;stroke-width:1.5;" width="159" x="184.5" y="41"/><ellipse cx="244.75" cy="57" fill="#EB937F" rx="11" ry="11" style="stroke:#A80036;stroke-width:1.0;"/><path d="M243.5469,57.875 L245,57.875 L245,57.9844 C245,58.3906 245.0313,58.5469 245.1094,58.7031 C245.2656,58.9531 245.5469,59.1094 245.8438,59.1094 C246.0938,59.1094 246.3594,58.9688 246.5156,58.75 C246.6406,58.5938 246.6719,58.4375 246.6719,57.9844 L246.6719,56.0625 C246.6719,55.9063 246.6719,55.8594 246.6563,55.7031 C246.5938,55.2344 246.2813,54.9219 245.8281,54.9219 C245.5781,54.9219 245.3125,55.0625 245.1406,55.2813 C245.0313,55.4531 245,55.6094 245,56.0625 L245,56.1875 L243.5469,56.1875 L243.5469,53.7813 L247.5313,53.7813 L247.5313,54.6406 C247.5313,55.0469 247.5625,55.2188 247.6406,55.375 C247.8125,55.625 248.0938,55.7813 248.375,55.7813 C248.6406,55.7813 248.9063,55.6406 249.0781,55.4219 C249.1875,55.25 249.2188,55.1094 249.2188,54.6406 L249.2188,52.0938 L241.5938,52.0938 C241.1563,52.0938 241.0313,52.1094 240.875,52.2031 C240.625,52.3594 240.4688,52.6563 240.4688,52.9375 C240.4688,53.2188 240.6094,53.4688 240.8281,53.6406 C240.9844,53.75 241.1719,53.7813 241.5938,53.7813 L241.8438,53.7813 L241.8438,60.2969 L241.5938,60.2969 C241.1875,60.2969 241.0313,60.3125 240.875,60.4219 C240.625,60.5938 240.4688,60.8594 240.4688,61.1563 C240.4688,61.4219 240.6094,61.6719 240.8281,61.8281 C240.9688,61.9531 241.2031,62 241.5938,62 L249.5938,62 L249.5938,59.4219 C249.5938,58.9844 249.5625,58.8438 249.4844,58.6875 C249.3125,58.4375 249.0313,58.2813 248.75,58.2813 C248.4844,58.2813 248.2188,58.3906 248.0469,58.6406 C247.9375,58.7969 247.9063,58.9375 247.9063,59.4219 L247.9063,60.2969 L243.5469,60.2969 L243.5469,57.875 Z " fill="#000000"/><text fill="#000000" font-family="sans-serif" font-size="12" lengthAdjust="spacingAndGlyphs" textLength="30" x="265.25" y="61.1543">Error</text><line style="stroke:#A80036;stroke-width:1.5;" x1="185.5" x2="342.5" y1="73" y2="73"/><ellipse cx="195.5" cy="84" fill="none" rx="3" ry="3" style="stroke:#038048;stroke-width:1.0;"/><text fill="#000000" font-family="sans-serif" font-size="11" lengthAdjust="spacingAndGlyphs" textLength="66" x="204.5" y="87.2104">NOT_EMPTY</text><ellipse cx="195.5" cy="96.8047" fill="none" rx="3" ry="3" style="stroke:#038048;stroke-width:1.0;"/><text fill="#000000" font-family="sans-serif" font-size="11" lengthAdjust="spacingAndGlyphs" textLength="72" x="204.5" y="100.0151">NOT_OWNER</text><ellipse cx="195.5" cy="109.6094" fill="none" rx="3" ry="3" style="stroke:#038048;stroke-width:1.0;"/><text fill="#000000" font-family="sans-serif" font-size="11" lengthAdjust="spacingAndGlyphs" textLength="121" x="204.5" y="112.8198">SAME_COORDINATES</text><ellipse cx="195.5" cy="122.4141" fill="none" rx="3" ry="3" style="stroke:#038048;stroke-width:1.0;"/><text fill="#000000" font-family="sans-serif" font-size="11" lengthAdjust="spacingAndGlyphs" textLength="133" x="204.5" y="125.6245">WRONG_COORDINATES</text><ellipse cx="195.5" cy="135.2188" fill="none" rx="3" ry="3" style="stroke:#038048;stroke-width:1.0;"/><text fill="#000000" font-family="sans-serif" font-size="11" lengthAdjust="spacingAndGlyphs" textLength="28" x="204.5" y="138.4292">NULL</text><line style="stroke:#A80036;stroke-width:1.5;" x1="185.5" x2="342.5" y1="145.0234" y2="145.0234"/><ellipse cx="195.5" cy="156.0234" fill="#84BE84" rx="3" ry="3" style="stroke:#038048;stroke-width:1.0;"/><text fill="#000000" font-family="sans-serif" font-size="11" lengthAdjust="spacingAndGlyphs" textLength="91" x="204.5" y="159.2339">isNull(): boolean</text><!--MD5=[3b37da8b6e7a1800631cf51c5954ec17]
class tictactoe.types.Token--><rect codeLine="10" fill="#FEFECE" filter="url(#ftjq8zft0j663)" height="112.0234" id="tictactoe.types.Token" style="stroke:#A80036;stroke-width:1.5;" width="117" x="32.5" y="47.5"/><ellipse cx="69.1" cy="63.5" fill="#EB937F" rx="11" ry="11" style="stroke:#A80036;stroke-width:1.0;"/><path d="M67.8969,64.375 L69.35,64.375 L69.35,64.4844 C69.35,64.8906 69.3813,65.0469 69.4594,65.2031 C69.6156,65.4531 69.8969,65.6094 70.1938,65.6094 C70.4438,65.6094 70.7094,65.4688 70.8656,65.25 C70.9906,65.0938 71.0219,64.9375 71.0219,64.4844 L71.0219,62.5625 C71.0219,62.4063 71.0219,62.3594 71.0063,62.2031 C70.9438,61.7344 70.6313,61.4219 70.1781,61.4219 C69.9281,61.4219 69.6625,61.5625 69.4906,61.7813 C69.3813,61.9531 69.35,62.1094 69.35,62.5625 L69.35,62.6875 L67.8969,62.6875 L67.8969,60.2813 L71.8813,60.2813 L71.8813,61.1406 C71.8813,61.5469 71.9125,61.7188 71.9906,61.875 C72.1625,62.125 72.4438,62.2813 72.725,62.2813 C72.9906,62.2813 73.2563,62.1406 73.4281,61.9219 C73.5375,61.75 73.5688,61.6094 73.5688,61.1406 L73.5688,58.5938 L65.9438,58.5938 C65.5063,58.5938 65.3813,58.6094 65.225,58.7031 C64.975,58.8594 64.8188,59.1563 64.8188,59.4375 C64.8188,59.7188 64.9594,59.9688 65.1781,60.1406 C65.3344,60.25 65.5219,60.2813 65.9438,60.2813 L66.1938,60.2813 L66.1938,66.7969 L65.9438,66.7969 C65.5375,66.7969 65.3813,66.8125 65.225,66.9219 C64.975,67.0938 64.8188,67.3594 64.8188,67.6563 C64.8188,67.9219 64.9594,68.1719 65.1781,68.3281 C65.3188,68.4531 65.5531,68.5 65.9438,68.5 L73.9438,68.5 L73.9438,65.9219 C73.9438,65.4844 73.9125,65.3438 73.8344,65.1875 C73.6625,64.9375 73.3813,64.7813 73.1,64.7813 C72.8344,64.7813 72.5688,64.8906 72.3969,65.1406 C72.2875,65.2969 72.2563,65.4375 72.2563,65.9219 L72.2563,66.7969 L67.8969,66.7969 L67.8969,64.375 Z " fill="#000000"/><text fill="#000000" font-family="sans-serif" font-size="12" lengthAdjust="spacingAndGlyphs" textLength="37" x="87.9" y="67.6543">Token</text><line style="stroke:#A80036;stroke-width:1.5;" x1="33.5" x2="148.5" y1="79.5" y2="79.5"/><ellipse cx="43.5" cy="90.5" fill="none" rx="3" ry="3" style="stroke:#038048;stroke-width:1.0;"/><text fill="#000000" font-family="sans-serif" font-size="11" lengthAdjust="spacingAndGlyphs" textLength="8" x="52.5" y="93.7104">X</text><ellipse cx="43.5" cy="103.3047" fill="none" rx="3" ry="3" style="stroke:#038048;stroke-width:1.0;"/><text fill="#000000" font-family="sans-serif" font-size="11" lengthAdjust="spacingAndGlyphs" textLength="9" x="52.5" y="106.5151">O</text><ellipse cx="43.5" cy="116.1094" fill="none" rx="3" ry="3" style="stroke:#038048;stroke-width:1.0;"/><text fill="#000000" font-family="sans-serif" font-size="11" lengthAdjust="spacingAndGlyphs" textLength="28" x="52.5" y="119.3198">NULL</text><line style="stroke:#A80036;stroke-width:1.5;" x1="33.5" x2="148.5" y1="125.9141" y2="125.9141"/><ellipse cx="43.5" cy="136.9141" fill="#84BE84" rx="3" ry="3" style="stroke:#038048;stroke-width:1.0;"/><text fill="#000000" font-family="sans-serif" font-size="11" lengthAdjust="spacingAndGlyphs" textLength="91" x="52.5" y="140.1245">isNull(): boolean</text><ellipse cx="43.5" cy="149.7188" fill="#84BE84" rx="3" ry="3" style="stroke:#038048;stroke-width:1.0;"/><text fill="#000000" font-family="sans-serif" font-size="11" lengthAdjust="spacingAndGlyphs" text-decoration="underline" textLength="83" x="52.5" y="152.9292">get(int): Token</text><!--MD5=[f0e50675208408ddbf1ed7a91f4eb071]
class ClosedInterval--><rect fill="#FEFECE" filter="url(#ftjq8zft0j663)" height="48" id="ClosedInterval" style="stroke:#A80036;stroke-width:1.5;" width="118" x="32" y="226"/><ellipse cx="47" cy="242" fill="#ADD1B2" rx="11" ry="11" style="stroke:#A80036;stroke-width:1.0;"/><path d="M49.3438,237.6719 C48.4063,237.2344 47.8125,237.0938 46.9375,237.0938 C44.3125,237.0938 42.3125,239.1719 42.3125,241.8906 L42.3125,243.0156 C42.3125,245.5938 44.4219,247.4844 47.3125,247.4844 C48.5313,247.4844 49.6875,247.1875 50.4375,246.6406 C51.0156,246.2344 51.3438,245.7813 51.3438,245.3906 C51.3438,244.9375 50.9531,244.5469 50.4844,244.5469 C50.2656,244.5469 50.0625,244.625 49.875,244.8125 C49.4219,245.2969 49.4219,245.2969 49.2344,245.3906 C48.8125,245.6563 48.125,245.7813 47.3594,245.7813 C45.3125,245.7813 44.0156,244.6875 44.0156,242.9844 L44.0156,241.8906 C44.0156,240.1094 45.2656,238.7969 47,238.7969 C47.5781,238.7969 48.1875,238.9531 48.6563,239.2031 C49.1406,239.4844 49.3125,239.7031 49.4063,240.1094 C49.4688,240.5156 49.5,240.6406 49.6406,240.7656 C49.7813,240.9063 50.0156,241.0156 50.2344,241.0156 C50.5,241.0156 50.7656,240.875 50.9375,240.6563 C51.0469,240.5 51.0781,240.3125 51.0781,239.8906 L51.0781,238.4688 C51.0781,238.0313 51.0625,237.9063 50.9688,237.75 C50.8125,237.4844 50.5313,237.3438 50.2344,237.3438 C49.9375,237.3438 49.7344,237.4375 49.5156,237.75 L49.3438,237.6719 Z " fill="#000000"/><text fill="#000000" font-family="sans-serif" font-size="12" lengthAdjust="spacingAndGlyphs" textLength="86" x="61" y="246.1543">ClosedInterval</text><line style="stroke:#A80036;stroke-width:1.5;" x1="33" x2="149" y1="258" y2="258"/><line style="stroke:#A80036;stroke-width:1.5;" x1="33" x2="149" y1="266" y2="266"/><!--MD5=[03a88baca920e9d062e70a6c9715e2bf]
link tictactoe.types.Token to ClosedInterval--><path codeLine="17" d="M91,159.541 C91,180.3581 91,203.1983 91,220.5895 " fill="none" id="tictactoe.types.Token-to-ClosedInterval" style="stroke:#A80036;stroke-width:1.0;stroke-dasharray:7.0,7.0;"/><polygon fill="#A80036" points="91,225.8036,95,216.8036,91,220.8036,87,216.8036,91,225.8036" style="stroke:#A80036;stroke-width:1.0;"/><!--MD5=[5b860bd8b0b50e4ece3188a80977064d]
@startuml
enum tictactoe.types.Error {
  + NOT_EMPTY
  + NOT_OWNER
  + SAME_COORDINATES
  + WRONG_COORDINATES
  + NULL
  + isNull(): boolean
}

enum tictactoe.types.Token {
  + X
  + O
  + NULL
  + isNull(): boolean
  + {static} get(int): Token
}
tictactoe.types.Token .down.> ClosedInterval
@enduml

PlantUML version 1.2020.27beta2(Unknown compile time)
(GPL source distribution)
Java Runtime: Java(TM) SE Runtime Environment
JVM: Java HotSpot(TM) 64-Bit Server VM
Default Encoding: UTF-8
Language: en
Country: US
--></g></svg>