<?xml version="1.0" encoding="UTF-8" standalone="no"?><svg xmlns="http://www.w3.org/2000/svg" xmlns:xlink="http://www.w3.org/1999/xlink" contentScriptType="application/ecmascript" contentStyleType="text/css" height="361px" preserveAspectRatio="none" style="width:250px;height:361px;" version="1.1" viewBox="0 0 250 361" width="250px" zoomAndPan="magnify"><defs><filter height="300%" id="f4r4i6jlhq9gk" width="300%" x="-1" y="-1"><feGaussianBlur result="blurOut" stdDeviation="2.0"/><feColorMatrix in="blurOut" result="blurOut2" type="matrix" values="0 0 0 0 0 0 0 0 0 0 0 0 0 0 0 0 0 0 .4 0"/><feOffset dx="4.0" dy="4.0" in="blurOut2" result="blurOut3"/><feBlend in="SourceGraphic" in2="blurOut3" mode="normal"/></filter></defs><g><!--MD5=[c6efd01a6f310cf3950d2522b9f474d7]
cluster tictactoe.views.graphics--><polygon fill="#FFFFFF" filter="url(#f4r4i6jlhq9gk)" points="16,86,223,86,230,108.2969,233,108.2969,233,236,16,236,16,86" style="stroke:#000000;stroke-width:1.5;"/><line style="stroke:#000000;stroke-width:1.5;" x1="16" x2="230" y1="108.2969" y2="108.2969"/><text fill="#000000" font-family="sans-serif" font-size="14" font-weight="bold" lengthAdjust="spacingAndGlyphs" textLength="201" x="20" y="100.9951">tictactoe.views.graphics</text><!--MD5=[772dd3201fd937c98b35c61c5b2a37e1]
class tictactoe.views.graphics.GraphicsView--><rect codeLine="4" fill="#FEFECE" filter="url(#f4r4i6jlhq9gk)" height="99.2188" id="tictactoe.views.graphics.GraphicsView" style="stroke:#A80036;stroke-width:1.5;" width="150" x="49" y="121"/><ellipse cx="80.2" cy="137" fill="#ADD1B2" rx="11" ry="11" style="stroke:#A80036;stroke-width:1.0;"/><path d="M82.5438,132.6719 C81.6063,132.2344 81.0125,132.0938 80.1375,132.0938 C77.5125,132.0938 75.5125,134.1719 75.5125,136.8906 L75.5125,138.0156 C75.5125,140.5938 77.6219,142.4844 80.5125,142.4844 C81.7313,142.4844 82.8875,142.1875 83.6375,141.6406 C84.2156,141.2344 84.5438,140.7813 84.5438,140.3906 C84.5438,139.9375 84.1531,139.5469 83.6844,139.5469 C83.4656,139.5469 83.2625,139.625 83.075,139.8125 C82.6219,140.2969 82.6219,140.2969 82.4344,140.3906 C82.0125,140.6563 81.325,140.7813 80.5594,140.7813 C78.5125,140.7813 77.2156,139.6875 77.2156,137.9844 L77.2156,136.8906 C77.2156,135.1094 78.4656,133.7969 80.2,133.7969 C80.7781,133.7969 81.3875,133.9531 81.8563,134.2031 C82.3406,134.4844 82.5125,134.7031 82.6063,135.1094 C82.6688,135.5156 82.7,135.6406 82.8406,135.7656 C82.9813,135.9063 83.2156,136.0156 83.4344,136.0156 C83.7,136.0156 83.9656,135.875 84.1375,135.6563 C84.2469,135.5 84.2781,135.3125 84.2781,134.8906 L84.2781,133.4688 C84.2781,133.0313 84.2625,132.9063 84.1688,132.75 C84.0125,132.4844 83.7313,132.3438 83.4344,132.3438 C83.1375,132.3438 82.9344,132.4375 82.7156,132.75 L82.5438,132.6719 Z " fill="#000000"/><text fill="#000000" font-family="sans-serif" font-size="12" lengthAdjust="spacingAndGlyphs" textLength="82" x="97.8" y="141.1543">GraphicsView</text><line style="stroke:#A80036;stroke-width:1.5;" x1="50" x2="198" y1="153" y2="153"/><line style="stroke:#A80036;stroke-width:1.5;" x1="50" x2="198" y1="161" y2="161"/><ellipse cx="60" cy="172" fill="#84BE84" rx="3" ry="3" style="stroke:#038048;stroke-width:1.0;"/><text fill="#000000" font-family="sans-serif" font-size="11" lengthAdjust="spacingAndGlyphs" textLength="114" x="69" y="175.2104">GraphicsView(Logic)</text><polygon fill="#FFFF44" points="60,179.8047,64,183.8047,60,187.8047,56,183.8047" style="stroke:#B38D22;stroke-width:1.0;"/><text fill="#000000" font-family="sans-serif" font-size="11" lengthAdjust="spacingAndGlyphs" textLength="33" x="69" y="188.0151">start()</text><polygon fill="#FFFF44" points="60,192.6094,64,196.6094,60,200.6094,56,196.6094" style="stroke:#B38D22;stroke-width:1.0;"/><text fill="#000000" font-family="sans-serif" font-size="11" lengthAdjust="spacingAndGlyphs" textLength="32" x="69" y="200.8198">play()</text><polygon fill="#FFFF44" points="60,205.4141,64,209.4141,60,213.4141,56,209.4141" style="stroke:#B38D22;stroke-width:1.0;"/><text fill="#000000" font-family="sans-serif" font-size="11" lengthAdjust="spacingAndGlyphs" textLength="124" x="69" y="213.6245">isResumed(): boolean</text><!--MD5=[c045e12321b83266d36d22b9096c24ea]
class View--><rect codeLine="1" fill="#FEFECE" filter="url(#f4r4i6jlhq9gk)" height="53.9375" id="View" style="stroke:#A80036;stroke-width:1.5;" width="200" x="24" y="7"/><ellipse cx="39" cy="25.9688" fill="#A9DCDF" rx="11" ry="11" style="stroke:#A80036;stroke-width:1.0;"/><path d="M41.0781,27.7813 L41.4688,28.7656 L41.0781,28.7656 C40.625,28.7656 40.5156,28.7813 40.3594,28.8906 C40.1094,29.0469 39.9531,29.3281 39.9531,29.625 C39.9531,29.8906 40.0938,30.1406 40.3125,30.2969 C40.4531,30.4219 40.6563,30.4688 41.0781,30.4688 L43.4375,30.4688 C43.7969,30.4688 44.0156,30.4375 44.1563,30.3438 C44.4063,30.2031 44.5625,29.9063 44.5625,29.625 C44.5625,29.3438 44.4219,29.0938 44.2031,28.9375 C44.0313,28.7969 43.875,28.7656 43.4063,28.7656 L40.0156,20.5625 L36.3438,20.5625 C35.8906,20.5625 35.7656,20.5781 35.6094,20.6719 C35.3594,20.8438 35.2031,21.125 35.2031,21.4063 C35.2031,21.6875 35.3438,21.9375 35.5625,22.1094 C35.7344,22.2188 35.9063,22.25 36.3438,22.25 L37.4219,22.25 L34.7813,28.7656 C34.3594,28.7656 34.2031,28.7813 34.0469,28.8906 C33.7969,29.0469 33.6406,29.3281 33.6406,29.625 C33.6406,30.1875 34.0156,30.4688 34.7656,30.4688 L37.0313,30.4688 C37.3906,30.4688 37.6094,30.4375 37.7344,30.3438 C38,30.2031 38.1406,29.9063 38.1406,29.625 C38.1406,29.3438 38.0156,29.0938 37.7969,28.9219 C37.625,28.7969 37.4844,28.7656 37.0313,28.7656 L36.6406,28.7656 L37.0313,27.7813 L41.0781,27.7813 Z M40.375,26.0781 L37.7031,26.0781 L39.0469,22.8125 L40.375,26.0781 Z " fill="#000000"/><text fill="#000000" font-family="sans-serif" font-size="12" font-style="italic" lengthAdjust="spacingAndGlyphs" textLength="168" x="53" y="23.1387">usantatecla.tictactoe.views.</text><text fill="#000000" font-family="sans-serif" font-size="12" font-style="italic" lengthAdjust="spacingAndGlyphs" textLength="28" x="123" y="37.1074">View</text><line style="stroke:#A80036;stroke-width:1.5;" x1="25" x2="223" y1="44.9375" y2="44.9375"/><line style="stroke:#A80036;stroke-width:1.5;" x1="25" x2="223" y1="52.9375" y2="52.9375"/><!--MD5=[42fa18dda7351a0ae87d9497de925436]
class Logic--><rect codeLine="2" fill="#FEFECE" filter="url(#f4r4i6jlhq9gk)" height="67.9063" id="Logic" style="stroke:#A80036;stroke-width:1.5;" width="155" x="46.5" y="280"/><ellipse cx="61.5" cy="305.9531" fill="#ADD1B2" rx="11" ry="11" style="stroke:#A80036;stroke-width:1.0;"/><path d="M63.8438,301.625 C62.9063,301.1875 62.3125,301.0469 61.4375,301.0469 C58.8125,301.0469 56.8125,303.125 56.8125,305.8438 L56.8125,306.9688 C56.8125,309.5469 58.9219,311.4375 61.8125,311.4375 C63.0313,311.4375 64.1875,311.1406 64.9375,310.5938 C65.5156,310.1875 65.8438,309.7344 65.8438,309.3438 C65.8438,308.8906 65.4531,308.5 64.9844,308.5 C64.7656,308.5 64.5625,308.5781 64.375,308.7656 C63.9219,309.25 63.9219,309.25 63.7344,309.3438 C63.3125,309.6094 62.625,309.7344 61.8594,309.7344 C59.8125,309.7344 58.5156,308.6406 58.5156,306.9375 L58.5156,305.8438 C58.5156,304.0625 59.7656,302.75 61.5,302.75 C62.0781,302.75 62.6875,302.9063 63.1563,303.1563 C63.6406,303.4375 63.8125,303.6563 63.9063,304.0625 C63.9688,304.4688 64,304.5938 64.1406,304.7188 C64.2813,304.8594 64.5156,304.9688 64.7344,304.9688 C65,304.9688 65.2656,304.8281 65.4375,304.6094 C65.5469,304.4531 65.5781,304.2656 65.5781,303.8438 L65.5781,302.4219 C65.5781,301.9844 65.5625,301.8594 65.4688,301.7031 C65.3125,301.4375 65.0313,301.2969 64.7344,301.2969 C64.4375,301.2969 64.2344,301.3906 64.0156,301.7031 L63.8438,301.625 Z " fill="#000000"/><text fill="#000000" font-family="sans-serif" font-size="12" lengthAdjust="spacingAndGlyphs" textLength="71" x="101.5" y="296.1387">usantatecla.</text><text fill="#000000" font-family="sans-serif" font-size="12" lengthAdjust="spacingAndGlyphs" textLength="123" x="75.5" y="310.1074">tictactoe.controllers.</text><text fill="#000000" font-family="sans-serif" font-size="12" lengthAdjust="spacingAndGlyphs" textLength="32" x="121" y="324.0762">Logic</text><line style="stroke:#A80036;stroke-width:1.5;" x1="47.5" x2="200.5" y1="331.9063" y2="331.9063"/><line style="stroke:#A80036;stroke-width:1.5;" x1="47.5" x2="200.5" y1="339.9063" y2="339.9063"/><!--MD5=[dd49f0cbe1ae6e82d2a046a768a45f47]
reverse link View to tictactoe.views.graphics.GraphicsView--><path codeLine="10" d="M124,81.358 C124,94.156 124,108.075 124,120.991 " fill="none" id="View-backto-tictactoe.views.graphics.GraphicsView" style="stroke:#A80036;stroke-width:1.0;"/><polygon fill="none" points="117,81.252,124,61.252,131,81.252,117,81.252" style="stroke:#A80036;stroke-width:1.0;"/><!--MD5=[e1af10a5bf89fa3da7d747b9bac99d2c]
link tictactoe.views.graphics.GraphicsView to Logic--><path codeLine="11" d="M124,220.196 C124,238.019 124,257.9155 124,274.7012 " fill="none" id="tictactoe.views.graphics.GraphicsView-to-Logic" style="stroke:#A80036;stroke-width:1.0;stroke-dasharray:7.0,7.0;"/><polygon fill="#A80036" points="124,279.805,128,270.805,124,274.805,120,270.805,124,279.805" style="stroke:#A80036;stroke-width:1.0;"/><!--MD5=[e8f41e6b9b2f25252a69698f1f15f4df]
@startuml
abstract class View as "usantatecla.tictactoe.views.\nView"
class Logic as "usantatecla.\ntictactoe.controllers.\nLogic"

class tictactoe.views.graphics.GraphicsView {
  + GraphicsView(Logic)
  # start()
  # play()
  # isResumed(): boolean
}
tictactoe.views.graphics.GraphicsView -up-|> View
tictactoe.views.graphics.GraphicsView .down.> Logic
@enduml

PlantUML version 1.2020.27beta2(Unknown compile time)
(GPL source distribution)
Java Runtime: Java(TM) SE Runtime Environment
JVM: Java HotSpot(TM) 64-Bit Server VM
Default Encoding: UTF-8
Language: en
Country: US
--></g></svg>