<?xml version="1.0" encoding="UTF-8" standalone="no"?><svg xmlns="http://www.w3.org/2000/svg" xmlns:xlink="http://www.w3.org/1999/xlink" contentScriptType="application/ecmascript" contentStyleType="text/css" height="402px" preserveAspectRatio="none" style="width:699px;height:402px;" version="1.1" viewBox="0 0 699 402" width="699px" zoomAndPan="magnify"><defs><filter height="300%" id="fpc7ztwq0hxrx" width="300%" x="-1" y="-1"><feGaussianBlur result="blurOut" stdDeviation="2.0"/><feColorMatrix in="blurOut" result="blurOut2" type="matrix" values="0 0 0 0 0 0 0 0 0 0 0 0 0 0 0 0 0 0 .4 0"/><feOffset dx="4.0" dy="4.0" in="blurOut2" result="blurOut3"/><feBlend in="SourceGraphic" in2="blurOut3" mode="normal"/></filter></defs><g><!--MD5=[b59da53bc4cb019b9115ab51e8207bb0]
cluster usantatecla.tictactoe--><polygon fill="#FFFFFF" filter="url(#fpc7ztwq0hxrx)" points="16,6,201,6,208,28.2969,505,28.2969,505,277,16,277,16,6" style="stroke:#000000;stroke-width:1.5;"/><line style="stroke:#000000;stroke-width:1.5;" x1="16" x2="208" y1="28.2969" y2="28.2969"/><text fill="#000000" font-family="sans-serif" font-size="14" font-weight="bold" lengthAdjust="spacingAndGlyphs" textLength="179" x="20" y="20.9951">usantatecla.tictactoe</text><!--MD5=[4b5d579ecc4748d1b21f2fd6d497d353]
class usantatecla.tictactoe.TicTacToe--><rect codeLine="6" fill="#FEFECE" filter="url(#fpc7ztwq0hxrx)" height="86.4141" id="usantatecla.tictactoe.TicTacToe" style="stroke:#A80036;stroke-width:1.5;" width="161" x="314.5" y="41"/><ellipse cx="360.25" cy="57" fill="#ADD1B2" rx="11" ry="11" style="stroke:#A80036;stroke-width:1.0;"/><path d="M362.5938,52.6719 C361.6563,52.2344 361.0625,52.0938 360.1875,52.0938 C357.5625,52.0938 355.5625,54.1719 355.5625,56.8906 L355.5625,58.0156 C355.5625,60.5938 357.6719,62.4844 360.5625,62.4844 C361.7813,62.4844 362.9375,62.1875 363.6875,61.6406 C364.2656,61.2344 364.5938,60.7813 364.5938,60.3906 C364.5938,59.9375 364.2031,59.5469 363.7344,59.5469 C363.5156,59.5469 363.3125,59.625 363.125,59.8125 C362.6719,60.2969 362.6719,60.2969 362.4844,60.3906 C362.0625,60.6563 361.375,60.7813 360.6094,60.7813 C358.5625,60.7813 357.2656,59.6875 357.2656,57.9844 L357.2656,56.8906 C357.2656,55.1094 358.5156,53.7969 360.25,53.7969 C360.8281,53.7969 361.4375,53.9531 361.9063,54.2031 C362.3906,54.4844 362.5625,54.7031 362.6563,55.1094 C362.7188,55.5156 362.75,55.6406 362.8906,55.7656 C363.0313,55.9063 363.2656,56.0156 363.4844,56.0156 C363.75,56.0156 364.0156,55.875 364.1875,55.6563 C364.2969,55.5 364.3281,55.3125 364.3281,54.8906 L364.3281,53.4688 C364.3281,53.0313 364.3125,52.9063 364.2188,52.75 C364.0625,52.4844 363.7813,52.3438 363.4844,52.3438 C363.1875,52.3438 362.9844,52.4375 362.7656,52.75 L362.5938,52.6719 Z " fill="#000000"/><text fill="#000000" font-family="sans-serif" font-size="12" lengthAdjust="spacingAndGlyphs" textLength="61" x="380.75" y="61.1543">TicTacToe</text><line style="stroke:#A80036;stroke-width:1.5;" x1="315.5" x2="474.5" y1="73" y2="73"/><line style="stroke:#A80036;stroke-width:1.5;" x1="315.5" x2="474.5" y1="81" y2="81"/><polygon fill="#FFFF44" points="325.5,87,329.5,91,325.5,95,321.5,91" style="stroke:#B38D22;stroke-width:1.0;"/><text fill="#000000" font-family="sans-serif" font-size="11" lengthAdjust="spacingAndGlyphs" textLength="66" x="334.5" y="95.2104">TicTacToe()</text><polygon fill="#FFFF44" points="325.5,99.8047,329.5,103.8047,325.5,107.8047,321.5,103.8047" style="stroke:#B38D22;stroke-width:1.0;"/><text fill="#000000" font-family="sans-serif" font-size="11" font-style="italic" lengthAdjust="spacingAndGlyphs" textLength="135" x="334.5" y="108.0151">createView(Logic): View</text><polygon fill="#FFFF44" points="325.5,112.6094,329.5,116.6094,325.5,120.6094,321.5,116.6094" style="stroke:#B38D22;stroke-width:1.0;"/><text fill="#000000" font-family="sans-serif" font-size="11" lengthAdjust="spacingAndGlyphs" textLength="32" x="334.5" y="120.8198">play()</text><!--MD5=[03c339352ae0a66a83a9809d2d9c2b7e]
class usantatecla.tictactoe.ConsoleTicTacToe--><rect codeLine="14" fill="#FEFECE" filter="url(#fpc7ztwq0hxrx)" height="73.6094" id="usantatecla.tictactoe.ConsoleTicTacToe" style="stroke:#A80036;stroke-width:1.5;" width="209" x="32.5" y="187"/><ellipse cx="77.75" cy="203" fill="#ADD1B2" rx="11" ry="11" style="stroke:#A80036;stroke-width:1.0;"/><path d="M80.0938,198.6719 C79.1563,198.2344 78.5625,198.0938 77.6875,198.0938 C75.0625,198.0938 73.0625,200.1719 73.0625,202.8906 L73.0625,204.0156 C73.0625,206.5938 75.1719,208.4844 78.0625,208.4844 C79.2813,208.4844 80.4375,208.1875 81.1875,207.6406 C81.7656,207.2344 82.0938,206.7813 82.0938,206.3906 C82.0938,205.9375 81.7031,205.5469 81.2344,205.5469 C81.0156,205.5469 80.8125,205.625 80.625,205.8125 C80.1719,206.2969 80.1719,206.2969 79.9844,206.3906 C79.5625,206.6563 78.875,206.7813 78.1094,206.7813 C76.0625,206.7813 74.7656,205.6875 74.7656,203.9844 L74.7656,202.8906 C74.7656,201.1094 76.0156,199.7969 77.75,199.7969 C78.3281,199.7969 78.9375,199.9531 79.4063,200.2031 C79.8906,200.4844 80.0625,200.7031 80.1563,201.1094 C80.2188,201.5156 80.25,201.6406 80.3906,201.7656 C80.5313,201.9063 80.7656,202.0156 80.9844,202.0156 C81.25,202.0156 81.5156,201.875 81.6875,201.6563 C81.7969,201.5 81.8281,201.3125 81.8281,200.8906 L81.8281,199.4688 C81.8281,199.0313 81.8125,198.9063 81.7188,198.75 C81.5625,198.4844 81.2813,198.3438 80.9844,198.3438 C80.6875,198.3438 80.4844,198.4375 80.2656,198.75 L80.0938,198.6719 Z " fill="#000000"/><text fill="#000000" font-family="sans-serif" font-size="12" lengthAdjust="spacingAndGlyphs" textLength="110" x="98.25" y="207.1543">ConsoleTicTacToe</text><line style="stroke:#A80036;stroke-width:1.5;" x1="33.5" x2="240.5" y1="219" y2="219"/><line style="stroke:#A80036;stroke-width:1.5;" x1="33.5" x2="240.5" y1="227" y2="227"/><ellipse cx="43.5" cy="238" fill="#84BE84" rx="3" ry="3" style="stroke:#038048;stroke-width:1.0;"/><text fill="#000000" font-family="sans-serif" font-size="11" lengthAdjust="spacingAndGlyphs" text-decoration="underline" textLength="77" x="52.5" y="241.2104">main(String[])</text><polygon fill="#FFFF44" points="43.5,245.8047,47.5,249.8047,43.5,253.8047,39.5,249.8047" style="stroke:#B38D22;stroke-width:1.0;"/><text fill="#000000" font-family="sans-serif" font-size="11" lengthAdjust="spacingAndGlyphs" textLength="183" x="52.5" y="254.0151">createView(Logic): ConsoleView</text><!--MD5=[44e3097ba2e6697655acc7ad5ebd4556]
class usantatecla.tictactoe.GraphicsTicTacToe--><rect codeLine="22" fill="#FEFECE" filter="url(#fpc7ztwq0hxrx)" height="73.6094" id="usantatecla.tictactoe.GraphicsTicTacToe" style="stroke:#A80036;stroke-width:1.5;" width="212" x="277" y="187"/><ellipse cx="321.75" cy="203" fill="#ADD1B2" rx="11" ry="11" style="stroke:#A80036;stroke-width:1.0;"/><path d="M324.0938,198.6719 C323.1563,198.2344 322.5625,198.0938 321.6875,198.0938 C319.0625,198.0938 317.0625,200.1719 317.0625,202.8906 L317.0625,204.0156 C317.0625,206.5938 319.1719,208.4844 322.0625,208.4844 C323.2813,208.4844 324.4375,208.1875 325.1875,207.6406 C325.7656,207.2344 326.0938,206.7813 326.0938,206.3906 C326.0938,205.9375 325.7031,205.5469 325.2344,205.5469 C325.0156,205.5469 324.8125,205.625 324.625,205.8125 C324.1719,206.2969 324.1719,206.2969 323.9844,206.3906 C323.5625,206.6563 322.875,206.7813 322.1094,206.7813 C320.0625,206.7813 318.7656,205.6875 318.7656,203.9844 L318.7656,202.8906 C318.7656,201.1094 320.0156,199.7969 321.75,199.7969 C322.3281,199.7969 322.9375,199.9531 323.4063,200.2031 C323.8906,200.4844 324.0625,200.7031 324.1563,201.1094 C324.2188,201.5156 324.25,201.6406 324.3906,201.7656 C324.5313,201.9063 324.7656,202.0156 324.9844,202.0156 C325.25,202.0156 325.5156,201.875 325.6875,201.6563 C325.7969,201.5 325.8281,201.3125 325.8281,200.8906 L325.8281,199.4688 C325.8281,199.0313 325.8125,198.9063 325.7188,198.75 C325.5625,198.4844 325.2813,198.3438 324.9844,198.3438 C324.6875,198.3438 324.4844,198.4375 324.2656,198.75 L324.0938,198.6719 Z " fill="#000000"/><text fill="#000000" font-family="sans-serif" font-size="12" lengthAdjust="spacingAndGlyphs" textLength="114" x="342.25" y="207.1543">GraphicsTicTacToe</text><line style="stroke:#A80036;stroke-width:1.5;" x1="278" x2="488" y1="219" y2="219"/><line style="stroke:#A80036;stroke-width:1.5;" x1="278" x2="488" y1="227" y2="227"/><ellipse cx="288" cy="238" fill="#84BE84" rx="3" ry="3" style="stroke:#038048;stroke-width:1.0;"/><text fill="#000000" font-family="sans-serif" font-size="11" lengthAdjust="spacingAndGlyphs" text-decoration="underline" textLength="77" x="297" y="241.2104">main(String[])</text><polygon fill="#FFFF44" points="288,245.8047,292,249.8047,288,253.8047,284,249.8047" style="stroke:#B38D22;stroke-width:1.0;"/><text fill="#000000" font-family="sans-serif" font-size="11" lengthAdjust="spacingAndGlyphs" textLength="186" x="297" y="254.0151">createView(Logic): GraphicsView</text><!--MD5=[c045e12321b83266d36d22b9096c24ea]
class View--><rect codeLine="1" fill="#FEFECE" filter="url(#fpc7ztwq0hxrx)" height="67.9063" id="View" style="stroke:#A80036;stroke-width:1.5;" width="126" x="524" y="190"/><ellipse cx="539" cy="215.9531" fill="#A9DCDF" rx="11" ry="11" style="stroke:#A80036;stroke-width:1.0;"/><path d="M541.0781,217.7656 L541.4688,218.75 L541.0781,218.75 C540.625,218.75 540.5156,218.7656 540.3594,218.875 C540.1094,219.0313 539.9531,219.3125 539.9531,219.6094 C539.9531,219.875 540.0938,220.125 540.3125,220.2813 C540.4531,220.4063 540.6563,220.4531 541.0781,220.4531 L543.4375,220.4531 C543.7969,220.4531 544.0156,220.4219 544.1563,220.3281 C544.4063,220.1875 544.5625,219.8906 544.5625,219.6094 C544.5625,219.3281 544.4219,219.0781 544.2031,218.9219 C544.0313,218.7813 543.875,218.75 543.4063,218.75 L540.0156,210.5469 L536.3438,210.5469 C535.8906,210.5469 535.7656,210.5625 535.6094,210.6563 C535.3594,210.8281 535.2031,211.1094 535.2031,211.3906 C535.2031,211.6719 535.3438,211.9219 535.5625,212.0938 C535.7344,212.2031 535.9063,212.2344 536.3438,212.2344 L537.4219,212.2344 L534.7813,218.75 C534.3594,218.75 534.2031,218.7656 534.0469,218.875 C533.7969,219.0313 533.6406,219.3125 533.6406,219.6094 C533.6406,220.1719 534.0156,220.4531 534.7656,220.4531 L537.0313,220.4531 C537.3906,220.4531 537.6094,220.4219 537.7344,220.3281 C538,220.1875 538.1406,219.8906 538.1406,219.6094 C538.1406,219.3281 538.0156,219.0781 537.7969,218.9063 C537.625,218.7813 537.4844,218.75 537.0313,218.75 L536.6406,218.75 L537.0313,217.7656 L541.0781,217.7656 Z M540.375,216.0625 L537.7031,216.0625 L539.0469,212.7969 L540.375,216.0625 Z " fill="#000000"/><text fill="#000000" font-family="sans-serif" font-size="12" font-style="italic" lengthAdjust="spacingAndGlyphs" textLength="74" x="563" y="206.1387">usantatecla.</text><text fill="#000000" font-family="sans-serif" font-size="12" font-style="italic" lengthAdjust="spacingAndGlyphs" textLength="94" x="553" y="220.1074">tictactoe.views.</text><text fill="#000000" font-family="sans-serif" font-size="12" font-style="italic" lengthAdjust="spacingAndGlyphs" textLength="28" x="586" y="234.0762">View</text><line style="stroke:#A80036;stroke-width:1.5;" x1="525" x2="649" y1="241.9063" y2="241.9063"/><line style="stroke:#A80036;stroke-width:1.5;" x1="525" x2="649" y1="249.9063" y2="249.9063"/><!--MD5=[51d729737bd84a4c43136dd336c2eea1]
class ConsoleView--><rect codeLine="2" fill="#FEFECE" filter="url(#fpc7ztwq0hxrx)" height="67.9063" id="ConsoleView" style="stroke:#A80036;stroke-width:1.5;" width="176" x="49" y="321"/><ellipse cx="64" cy="346.9531" fill="#ADD1B2" rx="11" ry="11" style="stroke:#A80036;stroke-width:1.0;"/><path d="M66.3438,342.625 C65.4063,342.1875 64.8125,342.0469 63.9375,342.0469 C61.3125,342.0469 59.3125,344.125 59.3125,346.8438 L59.3125,347.9688 C59.3125,350.5469 61.4219,352.4375 64.3125,352.4375 C65.5313,352.4375 66.6875,352.1406 67.4375,351.5938 C68.0156,351.1875 68.3438,350.7344 68.3438,350.3438 C68.3438,349.8906 67.9531,349.5 67.4844,349.5 C67.2656,349.5 67.0625,349.5781 66.875,349.7656 C66.4219,350.25 66.4219,350.25 66.2344,350.3438 C65.8125,350.6094 65.125,350.7344 64.3594,350.7344 C62.3125,350.7344 61.0156,349.6406 61.0156,347.9375 L61.0156,346.8438 C61.0156,345.0625 62.2656,343.75 64,343.75 C64.5781,343.75 65.1875,343.9063 65.6563,344.1563 C66.1406,344.4375 66.3125,344.6563 66.4063,345.0625 C66.4688,345.4688 66.5,345.5938 66.6406,345.7188 C66.7813,345.8594 67.0156,345.9688 67.2344,345.9688 C67.5,345.9688 67.7656,345.8281 67.9375,345.6094 C68.0469,345.4531 68.0781,345.2656 68.0781,344.8438 L68.0781,343.4219 C68.0781,342.9844 68.0625,342.8594 67.9688,342.7031 C67.8125,342.4375 67.5313,342.2969 67.2344,342.2969 C66.9375,342.2969 66.7344,342.3906 66.5156,342.7031 L66.3438,342.625 Z " fill="#000000"/><text fill="#000000" font-family="sans-serif" font-size="12" lengthAdjust="spacingAndGlyphs" textLength="71" x="114.5" y="337.1387">usantatecla.</text><text fill="#000000" font-family="sans-serif" font-size="12" lengthAdjust="spacingAndGlyphs" textLength="144" x="78" y="351.1074">tictactoe.views.console.</text><text fill="#000000" font-family="sans-serif" font-size="12" lengthAdjust="spacingAndGlyphs" textLength="78" x="111" y="365.0762">ConsoleView</text><line style="stroke:#A80036;stroke-width:1.5;" x1="50" x2="224" y1="372.9063" y2="372.9063"/><line style="stroke:#A80036;stroke-width:1.5;" x1="50" x2="224" y1="380.9063" y2="380.9063"/><!--MD5=[10250df365dc999637be629d910c1f35]
class GraphicsView--><rect codeLine="3" fill="#FEFECE" filter="url(#fpc7ztwq0hxrx)" height="67.9063" id="GraphicsView" style="stroke:#A80036;stroke-width:1.5;" width="180" x="276" y="321"/><ellipse cx="291" cy="346.9531" fill="#ADD1B2" rx="11" ry="11" style="stroke:#A80036;stroke-width:1.0;"/><path d="M293.3438,342.625 C292.4063,342.1875 291.8125,342.0469 290.9375,342.0469 C288.3125,342.0469 286.3125,344.125 286.3125,346.8438 L286.3125,347.9688 C286.3125,350.5469 288.4219,352.4375 291.3125,352.4375 C292.5313,352.4375 293.6875,352.1406 294.4375,351.5938 C295.0156,351.1875 295.3438,350.7344 295.3438,350.3438 C295.3438,349.8906 294.9531,349.5 294.4844,349.5 C294.2656,349.5 294.0625,349.5781 293.875,349.7656 C293.4219,350.25 293.4219,350.25 293.2344,350.3438 C292.8125,350.6094 292.125,350.7344 291.3594,350.7344 C289.3125,350.7344 288.0156,349.6406 288.0156,347.9375 L288.0156,346.8438 C288.0156,345.0625 289.2656,343.75 291,343.75 C291.5781,343.75 292.1875,343.9063 292.6563,344.1563 C293.1406,344.4375 293.3125,344.6563 293.4063,345.0625 C293.4688,345.4688 293.5,345.5938 293.6406,345.7188 C293.7813,345.8594 294.0156,345.9688 294.2344,345.9688 C294.5,345.9688 294.7656,345.8281 294.9375,345.6094 C295.0469,345.4531 295.0781,345.2656 295.0781,344.8438 L295.0781,343.4219 C295.0781,342.9844 295.0625,342.8594 294.9688,342.7031 C294.8125,342.4375 294.5313,342.2969 294.2344,342.2969 C293.9375,342.2969 293.7344,342.3906 293.5156,342.7031 L293.3438,342.625 Z " fill="#000000"/><text fill="#000000" font-family="sans-serif" font-size="12" lengthAdjust="spacingAndGlyphs" textLength="71" x="343.5" y="337.1387">usantatecla.</text><text fill="#000000" font-family="sans-serif" font-size="12" lengthAdjust="spacingAndGlyphs" textLength="148" x="305" y="351.1074">tictactoe.views.graphics.</text><text fill="#000000" font-family="sans-serif" font-size="12" lengthAdjust="spacingAndGlyphs" textLength="82" x="338" y="365.0762">GraphicsView</text><line style="stroke:#A80036;stroke-width:1.5;" x1="277" x2="455" y1="372.9063" y2="372.9063"/><line style="stroke:#A80036;stroke-width:1.5;" x1="277" x2="455" y1="380.9063" y2="380.9063"/><!--MD5=[42fa18dda7351a0ae87d9497de925436]
class Logic--><rect codeLine="4" fill="#FEFECE" filter="url(#fpc7ztwq0hxrx)" height="67.9063" id="Logic" style="stroke:#A80036;stroke-width:1.5;" width="155" x="491.5" y="321"/><ellipse cx="506.5" cy="346.9531" fill="#ADD1B2" rx="11" ry="11" style="stroke:#A80036;stroke-width:1.0;"/><path d="M508.8438,342.625 C507.9063,342.1875 507.3125,342.0469 506.4375,342.0469 C503.8125,342.0469 501.8125,344.125 501.8125,346.8438 L501.8125,347.9688 C501.8125,350.5469 503.9219,352.4375 506.8125,352.4375 C508.0313,352.4375 509.1875,352.1406 509.9375,351.5938 C510.5156,351.1875 510.8438,350.7344 510.8438,350.3438 C510.8438,349.8906 510.4531,349.5 509.9844,349.5 C509.7656,349.5 509.5625,349.5781 509.375,349.7656 C508.9219,350.25 508.9219,350.25 508.7344,350.3438 C508.3125,350.6094 507.625,350.7344 506.8594,350.7344 C504.8125,350.7344 503.5156,349.6406 503.5156,347.9375 L503.5156,346.8438 C503.5156,345.0625 504.7656,343.75 506.5,343.75 C507.0781,343.75 507.6875,343.9063 508.1563,344.1563 C508.6406,344.4375 508.8125,344.6563 508.9063,345.0625 C508.9688,345.4688 509,345.5938 509.1406,345.7188 C509.2813,345.8594 509.5156,345.9688 509.7344,345.9688 C510,345.9688 510.2656,345.8281 510.4375,345.6094 C510.5469,345.4531 510.5781,345.2656 510.5781,344.8438 L510.5781,343.4219 C510.5781,342.9844 510.5625,342.8594 510.4688,342.7031 C510.3125,342.4375 510.0313,342.2969 509.7344,342.2969 C509.4375,342.2969 509.2344,342.3906 509.0156,342.7031 L508.8438,342.625 Z " fill="#000000"/><text fill="#000000" font-family="sans-serif" font-size="12" lengthAdjust="spacingAndGlyphs" textLength="71" x="546.5" y="337.1387">usantatecla.</text><text fill="#000000" font-family="sans-serif" font-size="12" lengthAdjust="spacingAndGlyphs" textLength="123" x="520.5" y="351.1074">tictactoe.controllers.</text><text fill="#000000" font-family="sans-serif" font-size="12" lengthAdjust="spacingAndGlyphs" textLength="32" x="566" y="365.0762">Logic</text><line style="stroke:#A80036;stroke-width:1.5;" x1="492.5" x2="645.5" y1="372.9063" y2="372.9063"/><line style="stroke:#A80036;stroke-width:1.5;" x1="492.5" x2="645.5" y1="380.9063" y2="380.9063"/><!--MD5=[3f3b08302a73e15001fc302f837e77af]
link usantatecla.tictactoe.TicTacToe to View--><path codeLine="11" d="M463.3941,134.1578 C463.3941,134.1578 509.455,167.264 530.074,182.084 " fill="none" id="usantatecla.tictactoe.TicTacToe-View" style="stroke:#A80036;stroke-width:1.0;"/><polygon fill="#A80036" points="540.881,189.852,535.907,181.3515,536.8208,186.934,531.2382,187.8478,540.881,189.852" style="stroke:#A80036;stroke-width:1.0;"/><line style="stroke:#A80036;stroke-width:1.0;" x1="536.8208" x2="530.3255" y1="186.934" y2="182.265"/><polygon fill="#A80036" points="453.65,127.154,456.1875,133.9039,463.3941,134.1578,460.8566,127.4079,453.65,127.154" style="stroke:#A80036;stroke-width:1.0;"/><!--MD5=[13bd704e5f9cfffac24033e559864506]
link usantatecla.tictactoe.TicTacToe to Logic--><path codeLine="12" d="M487.53,93.0235 C487.53,93.0235 627.876,129.176 668,187 C692.831,222.784 688.154,246.388 668,285 C662.518,295.5022 654.628,304.7313 645.661,312.7375 " fill="none" id="usantatecla.tictactoe.TicTacToe-Logic" style="stroke:#A80036;stroke-width:1.0;"/><polygon fill="#A80036" points="635.57,320.9473,645.0757,318.3701,639.4485,317.7918,640.0268,312.1645,635.57,320.9473" style="stroke:#A80036;stroke-width:1.0;"/><line style="stroke:#A80036;stroke-width:1.0;" x1="639.4485" x2="645.6545" y1="317.7918" y2="312.7427"/><polygon fill="#A80036" points="475.685,91.101,480.9667,96.0106,487.53,93.0235,482.2483,88.1139,475.685,91.101" style="stroke:#A80036;stroke-width:1.0;"/><!--MD5=[63fc05718b658ffc84b20ac5511973fa]
reverse link usantatecla.tictactoe.TicTacToe to usantatecla.tictactoe.ConsoleTicTacToe--><path codeLine="18" d="M298.181,136.787 C266.966,153.484 233.065,171.617 204.444,186.925 " fill="none" id="usantatecla.tictactoe.TicTacToe-backto-usantatecla.tictactoe.ConsoleTicTacToe" style="stroke:#A80036;stroke-width:1.0;"/><polygon fill="none" points="295.252,130.415,316.19,127.154,301.855,142.76,295.252,130.415" style="stroke:#A80036;stroke-width:1.0;"/><!--MD5=[732289aa772132857f65e3caf83d8831]
link usantatecla.tictactoe.ConsoleTicTacToe to Logic--><path codeLine="19" d="M201.704,261.152 C219.806,270.059 239.793,278.808 259,285 C350.795,314.5935 379.524,297.2432 473,321 C477.39,322.1158 481.867,323.3402 486.368,324.6401 " fill="none" id="usantatecla.tictactoe.ConsoleTicTacToe-to-Logic" style="stroke:#A80036;stroke-width:1.0;stroke-dasharray:7.0,7.0;"/><polygon fill="#A80036" points="491.259,326.0788,483.7541,319.7009,486.4623,324.6674,481.4959,327.3756,491.259,326.0788" style="stroke:#A80036;stroke-width:1.0;"/><!--MD5=[10db3496bbf3aea9e98e642ce9a60a9a]
link usantatecla.tictactoe.ConsoleTicTacToe to ConsoleView--><path codeLine="20" d="M137,261.277 C137,278.161 137,298.2584 137,315.4195 " fill="none" id="usantatecla.tictactoe.ConsoleTicTacToe-to-ConsoleView" style="stroke:#A80036;stroke-width:1.0;stroke-dasharray:7.0,7.0;"/><polygon fill="#A80036" points="137,320.6443,141,311.6443,137,315.6443,133,311.6443,137,320.6443" style="stroke:#A80036;stroke-width:1.0;"/><!--MD5=[e9d4c2bf3af7f87e2d4905db04830b2f]
reverse link usantatecla.tictactoe.TicTacToe to usantatecla.tictactoe.GraphicsTicTacToe--><path codeLine="26" d="M389.596,147.145 C388.419,160.677 387.212,174.564 386.157,186.697 " fill="none" id="usantatecla.tictactoe.TicTacToe-backto-usantatecla.tictactoe.GraphicsTicTacToe" style="stroke:#A80036;stroke-width:1.0;"/><polygon fill="none" points="382.628,146.473,391.334,127.154,396.575,147.686,382.628,146.473" style="stroke:#A80036;stroke-width:1.0;"/><!--MD5=[8d226f9ba80f843c3b16fc214dabdf45]
link usantatecla.tictactoe.GraphicsTicTacToe to Logic--><path codeLine="27" d="M435.306,261.277 C460.801,278.959 491.379,300.1658 516.852,317.8331 " fill="none" id="usantatecla.tictactoe.GraphicsTicTacToe-to-Logic" style="stroke:#A80036;stroke-width:1.0;stroke-dasharray:7.0,7.0;"/><polygon fill="#A80036" points="521.22,320.8624,516.1049,312.446,517.1117,318.0126,511.5451,319.0194,521.22,320.8624" style="stroke:#A80036;stroke-width:1.0;"/><!--MD5=[017c0576b594c746df819cda917df976]
link usantatecla.tictactoe.GraphicsTicTacToe to GraphicsView--><path codeLine="28" d="M378.219,261.277 C375.994,278.161 373.346,298.2584 371.084,315.4195 " fill="none" id="usantatecla.tictactoe.GraphicsTicTacToe-to-GraphicsView" style="stroke:#A80036;stroke-width:1.0;stroke-dasharray:7.0,7.0;"/><polygon fill="#A80036" points="370.396,320.6443,375.5376,312.2441,371.0493,315.6872,367.6062,311.1988,370.396,320.6443" style="stroke:#A80036;stroke-width:1.0;"/><!--MD5=[9f7a3c1e24a23922ad1bc73d6e5f8017]
@startuml
abstract class View as "usantatecla.\ntictactoe.views.\nView"
class ConsoleView as "usantatecla.\ntictactoe.views.console.\nConsoleView"
class GraphicsView as "usantatecla.\ntictactoe.views.graphics.\nGraphicsView"
class Logic as "usantatecla.\ntictactoe.controllers.\nLogic"

class usantatecla.tictactoe.TicTacToe{
  # TicTacToe()
  # {abstract} createView(Logic): View
  # play()
}
usantatecla.tictactoe.TicTacToe *-down-> View
usantatecla.tictactoe.TicTacToe *-down-> Logic

class usantatecla.tictactoe.ConsoleTicTacToe{
  + {static} main(String[])
  # createView(Logic): ConsoleView
}
usantatecla.tictactoe.TicTacToe <|-down- usantatecla.tictactoe.ConsoleTicTacToe
usantatecla.tictactoe.ConsoleTicTacToe .down.> Logic
usantatecla.tictactoe.ConsoleTicTacToe .down.> ConsoleView

class usantatecla.tictactoe.GraphicsTicTacToe{
  + {static} main(String[])
  # createView(Logic): GraphicsView
}
usantatecla.tictactoe.TicTacToe <|-down- usantatecla.tictactoe.GraphicsTicTacToe
usantatecla.tictactoe.GraphicsTicTacToe .down.> Logic
usantatecla.tictactoe.GraphicsTicTacToe .down.> GraphicsView
@enduml

PlantUML version 1.2020.27beta2(Unknown compile time)
(GPL source distribution)
Java Runtime: Java(TM) SE Runtime Environment
JVM: Java HotSpot(TM) 64-Bit Server VM
Default Encoding: UTF-8
Language: en
Country: US
--></g></svg>