<?xml version="1.0" encoding="UTF-8" standalone="no"?><svg xmlns="http://www.w3.org/2000/svg" xmlns:xlink="http://www.w3.org/1999/xlink" contentScriptType="application/ecmascript" contentStyleType="text/css" height="594px" preserveAspectRatio="none" style="width:1047px;height:594px;" version="1.1" viewBox="0 0 1047 594" width="1047px" zoomAndPan="magnify"><defs><filter height="300%" id="f6n60vkwi4eha" width="300%" x="-1" y="-1"><feGaussianBlur result="blurOut" stdDeviation="2.0"/><feColorMatrix in="blurOut" result="blurOut2" type="matrix" values="0 0 0 0 0 0 0 0 0 0 0 0 0 0 0 0 0 0 .4 0"/><feOffset dx="4.0" dy="4.0" in="blurOut2" result="blurOut3"/><feBlend in="SourceGraphic" in2="blurOut3" mode="normal"/></filter></defs><g><!--MD5=[ee7e9a007a7c4d40c0679a27f272732d]
cluster tictactoe.controllers--><polygon fill="#FFFFFF" filter="url(#f6n60vkwi4eha)" points="111.1206,6,287.1206,6,294.1206,28.2969,764.1207,28.2969,764.1207,469,111.1206,469,111.1206,6" style="stroke:#000000;stroke-width:1.5;"/><line style="stroke:#000000;stroke-width:1.5;" x1="111.1206" x2="294.1206" y1="28.2969" y2="28.2969"/><text fill="#000000" font-family="sans-serif" font-size="14" font-weight="bold" lengthAdjust="spacingAndGlyphs" textLength="170" x="115.1206" y="20.9951">tictactoe.controllers</text><!--MD5=[957eef6538bab7382edbc29d98579a60]
class tictactoe.controllers.Controller--><rect codeLine="7" fill="#FEFECE" filter="url(#f6n60vkwi4eha)" height="73.6094" id="tictactoe.controllers.Controller" style="stroke:#A80036;stroke-width:1.5;" width="192" x="289.1207" y="105"/><ellipse cx="351.8707" cy="121" fill="#A9DCDF" rx="11" ry="11" style="stroke:#A80036;stroke-width:1.0;"/><path d="M353.9488,122.8125 L354.3395,123.7969 L353.9488,123.7969 C353.4957,123.7969 353.3863,123.8125 353.2301,123.9219 C352.9801,124.0781 352.8238,124.3594 352.8238,124.6563 C352.8238,124.9219 352.9645,125.1719 353.1832,125.3281 C353.3238,125.4531 353.527,125.5 353.9488,125.5 L356.3082,125.5 C356.6676,125.5 356.8863,125.4688 357.027,125.375 C357.277,125.2344 357.4332,124.9375 357.4332,124.6563 C357.4332,124.375 357.2926,124.125 357.0738,123.9688 C356.902,123.8281 356.7457,123.7969 356.277,123.7969 L352.8863,115.5938 L349.2145,115.5938 C348.7613,115.5938 348.6363,115.6094 348.4801,115.7031 C348.2301,115.875 348.0738,116.1563 348.0738,116.4375 C348.0738,116.7188 348.2145,116.9688 348.4332,117.1406 C348.6051,117.25 348.777,117.2813 349.2145,117.2813 L350.2926,117.2813 L347.652,123.7969 C347.2301,123.7969 347.0738,123.8125 346.9176,123.9219 C346.6676,124.0781 346.5113,124.3594 346.5113,124.6563 C346.5113,125.2188 346.8863,125.5 347.6363,125.5 L349.902,125.5 C350.2613,125.5 350.4801,125.4688 350.6051,125.375 C350.8707,125.2344 351.0113,124.9375 351.0113,124.6563 C351.0113,124.375 350.8863,124.125 350.6676,123.9531 C350.4957,123.8281 350.3551,123.7969 349.902,123.7969 L349.5113,123.7969 L349.902,122.8125 L353.9488,122.8125 Z M353.2457,121.1094 L350.5738,121.1094 L351.9176,117.8438 L353.2457,121.1094 Z " fill="#000000"/><text fill="#000000" font-family="sans-serif" font-size="12" font-style="italic" lengthAdjust="spacingAndGlyphs" textLength="58" x="372.3707" y="125.1543">Controller</text><line style="stroke:#A80036;stroke-width:1.5;" x1="290.1207" x2="480.1207" y1="137" y2="137"/><line style="stroke:#A80036;stroke-width:1.5;" x1="290.1207" x2="480.1207" y1="145" y2="145"/><polygon fill="#4177AF" points="300.1207,152,296.1207,158,304.1207,158" style="stroke:#1963A0;stroke-width:1.0;"/><text fill="#000000" font-family="sans-serif" font-size="11" lengthAdjust="spacingAndGlyphs" textLength="98" x="309.1207" y="159.2104">Controller(Game)</text><ellipse cx="300.1207" cy="168.8047" fill="#84BE84" rx="3" ry="3" style="stroke:#038048;stroke-width:1.0;"/><text fill="#000000" font-family="sans-serif" font-size="11" lengthAdjust="spacingAndGlyphs" textLength="166" x="309.1207" y="172.0151">getToken(Coordinate): Token</text><!--MD5=[3b8962fd5847b9038b2e29740dae8054]
class tictactoe.controllers.Logic--><rect codeLine="15" fill="#FEFECE" filter="url(#f6n60vkwi4eha)" height="201.6563" id="tictactoe.controllers.Logic" style="stroke:#A80036;stroke-width:1.5;" width="231" x="516.6207" y="41"/><ellipse cx="611.8707" cy="57" fill="#ADD1B2" rx="11" ry="11" style="stroke:#A80036;stroke-width:1.0;"/><path d="M614.2145,52.6719 C613.277,52.2344 612.6832,52.0938 611.8082,52.0938 C609.1832,52.0938 607.1832,54.1719 607.1832,56.8906 L607.1832,58.0156 C607.1832,60.5938 609.2926,62.4844 612.1832,62.4844 C613.402,62.4844 614.5582,62.1875 615.3082,61.6406 C615.8863,61.2344 616.2145,60.7813 616.2145,60.3906 C616.2145,59.9375 615.8238,59.5469 615.3551,59.5469 C615.1363,59.5469 614.9332,59.625 614.7457,59.8125 C614.2926,60.2969 614.2926,60.2969 614.1051,60.3906 C613.6832,60.6563 612.9957,60.7813 612.2301,60.7813 C610.1832,60.7813 608.8863,59.6875 608.8863,57.9844 L608.8863,56.8906 C608.8863,55.1094 610.1363,53.7969 611.8707,53.7969 C612.4488,53.7969 613.0582,53.9531 613.527,54.2031 C614.0113,54.4844 614.1832,54.7031 614.277,55.1094 C614.3395,55.5156 614.3707,55.6406 614.5113,55.7656 C614.652,55.9063 614.8863,56.0156 615.1051,56.0156 C615.3707,56.0156 615.6363,55.875 615.8082,55.6563 C615.9176,55.5 615.9488,55.3125 615.9488,54.8906 L615.9488,53.4688 C615.9488,53.0313 615.9332,52.9063 615.8395,52.75 C615.6832,52.4844 615.402,52.3438 615.1051,52.3438 C614.8082,52.3438 614.6051,52.4375 614.3863,52.75 L614.2145,52.6719 Z " fill="#000000"/><text fill="#000000" font-family="sans-serif" font-size="12" lengthAdjust="spacingAndGlyphs" textLength="32" x="632.3707" y="61.1543">Logic</text><line style="stroke:#A80036;stroke-width:1.5;" x1="517.6207" x2="746.6207" y1="73" y2="73"/><line style="stroke:#A80036;stroke-width:1.5;" x1="517.6207" x2="746.6207" y1="81" y2="81"/><ellipse cx="527.6207" cy="92" fill="#84BE84" rx="3" ry="3" style="stroke:#038048;stroke-width:1.0;"/><text fill="#000000" font-family="sans-serif" font-size="11" lengthAdjust="spacingAndGlyphs" textLength="37" x="536.6207" y="95.2104">Logic()</text><ellipse cx="527.6207" cy="104.8047" fill="#84BE84" rx="3" ry="3" style="stroke:#038048;stroke-width:1.0;"/><text fill="#000000" font-family="sans-serif" font-size="11" lengthAdjust="spacingAndGlyphs" textLength="112" x="536.6207" y="108.0151">getMaxPlayers(): int</text><ellipse cx="527.6207" cy="117.6094" fill="#84BE84" rx="3" ry="3" style="stroke:#038048;stroke-width:1.0;"/><text fill="#000000" font-family="sans-serif" font-size="11" lengthAdjust="spacingAndGlyphs" textLength="72" x="536.6207" y="120.8198">setUsers(int)</text><ellipse cx="527.6207" cy="130.4141" fill="#84BE84" rx="3" ry="3" style="stroke:#038048;stroke-width:1.0;"/><text fill="#000000" font-family="sans-serif" font-size="11" lengthAdjust="spacingAndGlyphs" textLength="104" x="536.6207" y="133.6245">getToken(): Token</text><ellipse cx="527.6207" cy="143.2188" fill="#84BE84" rx="3" ry="3" style="stroke:#038048;stroke-width:1.0;"/><text fill="#000000" font-family="sans-serif" font-size="11" lengthAdjust="spacingAndGlyphs" textLength="159" x="536.6207" y="146.4292">isBoardComplete(): boolean</text><ellipse cx="527.6207" cy="156.0234" fill="#84BE84" rx="3" ry="3" style="stroke:#038048;stroke-width:1.0;"/><text fill="#000000" font-family="sans-serif" font-size="11" lengthAdjust="spacingAndGlyphs" textLength="128" x="536.6207" y="159.2339">isTicTacToe(): boolean</text><ellipse cx="527.6207" cy="168.8281" fill="#84BE84" rx="3" ry="3" style="stroke:#038048;stroke-width:1.0;"/><text fill="#000000" font-family="sans-serif" font-size="11" lengthAdjust="spacingAndGlyphs" textLength="96" x="536.6207" y="172.0386">isUser(): boolean</text><ellipse cx="527.6207" cy="181.6328" fill="#84BE84" rx="3" ry="3" style="stroke:#038048;stroke-width:1.0;"/><text fill="#000000" font-family="sans-serif" font-size="11" lengthAdjust="spacingAndGlyphs" textLength="202" x="536.6207" y="184.8433">isValidCoordinate(Coordinate): Error</text><ellipse cx="527.6207" cy="194.4375" fill="#84BE84" rx="3" ry="3" style="stroke:#038048;stroke-width:1.0;"/><text fill="#000000" font-family="sans-serif" font-size="11" lengthAdjust="spacingAndGlyphs" textLength="121" x="536.6207" y="197.6479">put(Coordinate): Error</text><ellipse cx="527.6207" cy="207.2422" fill="#84BE84" rx="3" ry="3" style="stroke:#038048;stroke-width:1.0;"/><text fill="#000000" font-family="sans-serif" font-size="11" lengthAdjust="spacingAndGlyphs" textLength="205" x="536.6207" y="210.4526">move(Coordinate, Coordinate): Error</text><ellipse cx="527.6207" cy="220.0469" fill="#84BE84" rx="3" ry="3" style="stroke:#038048;stroke-width:1.0;"/><text fill="#000000" font-family="sans-serif" font-size="11" lengthAdjust="spacingAndGlyphs" textLength="166" x="536.6207" y="223.2573">getToken(Coordinate): Token</text><ellipse cx="527.6207" cy="232.8516" fill="#84BE84" rx="3" ry="3" style="stroke:#038048;stroke-width:1.0;"/><text fill="#000000" font-family="sans-serif" font-size="11" lengthAdjust="spacingAndGlyphs" textLength="38" x="536.6207" y="236.062">reset()</text><!--MD5=[8ede4dbfb3b498095887802b64b699f0]
class tictactoe.controllers.StartController--><rect codeLine="37" fill="#FEFECE" filter="url(#f6n60vkwi4eha)" height="86.4141" id="tictactoe.controllers.StartController" style="stroke:#A80036;stroke-width:1.5;" width="151" x="127.6207" y="335"/><ellipse cx="157.0207" cy="351" fill="#ADD1B2" rx="11" ry="11" style="stroke:#A80036;stroke-width:1.0;"/><path d="M159.3645,346.6719 C158.427,346.2344 157.8332,346.0938 156.9582,346.0938 C154.3332,346.0938 152.3332,348.1719 152.3332,350.8906 L152.3332,352.0156 C152.3332,354.5938 154.4426,356.4844 157.3332,356.4844 C158.552,356.4844 159.7082,356.1875 160.4582,355.6406 C161.0363,355.2344 161.3645,354.7813 161.3645,354.3906 C161.3645,353.9375 160.9738,353.5469 160.5051,353.5469 C160.2863,353.5469 160.0832,353.625 159.8957,353.8125 C159.4426,354.2969 159.4426,354.2969 159.2551,354.3906 C158.8332,354.6563 158.1457,354.7813 157.3801,354.7813 C155.3332,354.7813 154.0363,353.6875 154.0363,351.9844 L154.0363,350.8906 C154.0363,349.1094 155.2863,347.7969 157.0207,347.7969 C157.5988,347.7969 158.2082,347.9531 158.677,348.2031 C159.1613,348.4844 159.3332,348.7031 159.427,349.1094 C159.4895,349.5156 159.5207,349.6406 159.6613,349.7656 C159.802,349.9063 160.0363,350.0156 160.2551,350.0156 C160.5207,350.0156 160.7863,349.875 160.9582,349.6563 C161.0676,349.5 161.0988,349.3125 161.0988,348.8906 L161.0988,347.4688 C161.0988,347.0313 161.0832,346.9063 160.9895,346.75 C160.8332,346.4844 160.552,346.3438 160.2551,346.3438 C159.9582,346.3438 159.7551,346.4375 159.5363,346.75 L159.3645,346.6719 Z " fill="#000000"/><text fill="#000000" font-family="sans-serif" font-size="12" lengthAdjust="spacingAndGlyphs" textLength="87" x="174.2207" y="355.1543">StartController</text><line style="stroke:#A80036;stroke-width:1.5;" x1="128.6207" x2="277.6207" y1="367" y2="367"/><line style="stroke:#A80036;stroke-width:1.5;" x1="128.6207" x2="277.6207" y1="375" y2="375"/><ellipse cx="138.6207" cy="386" fill="#84BE84" rx="3" ry="3" style="stroke:#038048;stroke-width:1.0;"/><text fill="#000000" font-family="sans-serif" font-size="11" lengthAdjust="spacingAndGlyphs" textLength="125" x="147.6207" y="389.2104">StartController(Game)</text><ellipse cx="138.6207" cy="398.8047" fill="#84BE84" rx="3" ry="3" style="stroke:#038048;stroke-width:1.0;"/><text fill="#000000" font-family="sans-serif" font-size="11" lengthAdjust="spacingAndGlyphs" textLength="72" x="147.6207" y="402.0151">setUsers(int)</text><ellipse cx="138.6207" cy="411.6094" fill="#84BE84" rx="3" ry="3" style="stroke:#038048;stroke-width:1.0;"/><text fill="#000000" font-family="sans-serif" font-size="11" lengthAdjust="spacingAndGlyphs" textLength="112" x="147.6207" y="414.8198">getMaxPlayers(): int</text><!--MD5=[b574e60c06c50037ff1b014277a67d62]
class tictactoe.controllers.PlayController--><rect codeLine="45" fill="#FEFECE" filter="url(#f6n60vkwi4eha)" height="150.4375" id="tictactoe.controllers.PlayController" style="stroke:#A80036;stroke-width:1.5;" width="228" x="520.1207" y="303"/><ellipse cx="588.8707" cy="319" fill="#ADD1B2" rx="11" ry="11" style="stroke:#A80036;stroke-width:1.0;"/><path d="M591.2145,314.6719 C590.277,314.2344 589.6832,314.0938 588.8082,314.0938 C586.1832,314.0938 584.1832,316.1719 584.1832,318.8906 L584.1832,320.0156 C584.1832,322.5938 586.2926,324.4844 589.1832,324.4844 C590.402,324.4844 591.5582,324.1875 592.3082,323.6406 C592.8863,323.2344 593.2145,322.7813 593.2145,322.3906 C593.2145,321.9375 592.8238,321.5469 592.3551,321.5469 C592.1363,321.5469 591.9332,321.625 591.7457,321.8125 C591.2926,322.2969 591.2926,322.2969 591.1051,322.3906 C590.6832,322.6563 589.9957,322.7813 589.2301,322.7813 C587.1832,322.7813 585.8863,321.6875 585.8863,319.9844 L585.8863,318.8906 C585.8863,317.1094 587.1363,315.7969 588.8707,315.7969 C589.4488,315.7969 590.0582,315.9531 590.527,316.2031 C591.0113,316.4844 591.1832,316.7031 591.277,317.1094 C591.3395,317.5156 591.3707,317.6406 591.5113,317.7656 C591.652,317.9063 591.8863,318.0156 592.1051,318.0156 C592.3707,318.0156 592.6363,317.875 592.8082,317.6563 C592.9176,317.5 592.9488,317.3125 592.9488,316.8906 L592.9488,315.4688 C592.9488,315.0313 592.9332,314.9063 592.8395,314.75 C592.6832,314.4844 592.402,314.3438 592.1051,314.3438 C591.8082,314.3438 591.6051,314.4375 591.3863,314.75 L591.2145,314.6719 Z " fill="#000000"/><text fill="#000000" font-family="sans-serif" font-size="12" lengthAdjust="spacingAndGlyphs" textLength="82" x="609.3707" y="323.1543">PlayController</text><line style="stroke:#A80036;stroke-width:1.5;" x1="521.1207" x2="747.1207" y1="335" y2="335"/><line style="stroke:#A80036;stroke-width:1.5;" x1="521.1207" x2="747.1207" y1="343" y2="343"/><ellipse cx="531.1207" cy="354" fill="#84BE84" rx="3" ry="3" style="stroke:#038048;stroke-width:1.0;"/><text fill="#000000" font-family="sans-serif" font-size="11" lengthAdjust="spacingAndGlyphs" textLength="121" x="540.1207" y="357.2104">PlayController(Game)</text><ellipse cx="531.1207" cy="366.8047" fill="#84BE84" rx="3" ry="3" style="stroke:#038048;stroke-width:1.0;"/><text fill="#000000" font-family="sans-serif" font-size="11" lengthAdjust="spacingAndGlyphs" textLength="159" x="540.1207" y="370.0151">isBoardComplete(): boolean</text><ellipse cx="531.1207" cy="379.6094" fill="#84BE84" rx="3" ry="3" style="stroke:#038048;stroke-width:1.0;"/><text fill="#000000" font-family="sans-serif" font-size="11" lengthAdjust="spacingAndGlyphs" textLength="128" x="540.1207" y="382.8198">isTicTacToe(): boolean</text><ellipse cx="531.1207" cy="392.4141" fill="#84BE84" rx="3" ry="3" style="stroke:#038048;stroke-width:1.0;"/><text fill="#000000" font-family="sans-serif" font-size="11" lengthAdjust="spacingAndGlyphs" textLength="104" x="540.1207" y="395.6245">getToken(): Token</text><ellipse cx="531.1207" cy="405.2188" fill="#84BE84" rx="3" ry="3" style="stroke:#038048;stroke-width:1.0;"/><text fill="#000000" font-family="sans-serif" font-size="11" lengthAdjust="spacingAndGlyphs" textLength="96" x="540.1207" y="408.4292">isUser(): boolean</text><ellipse cx="531.1207" cy="418.0234" fill="#84BE84" rx="3" ry="3" style="stroke:#038048;stroke-width:1.0;"/><text fill="#000000" font-family="sans-serif" font-size="11" lengthAdjust="spacingAndGlyphs" textLength="202" x="540.1207" y="421.2339">isValidCoordinate(Coordinate): Error</text><ellipse cx="531.1207" cy="430.8281" fill="#84BE84" rx="3" ry="3" style="stroke:#038048;stroke-width:1.0;"/><text fill="#000000" font-family="sans-serif" font-size="11" lengthAdjust="spacingAndGlyphs" textLength="121" x="540.1207" y="434.0386">put(Coordinate): Error</text><ellipse cx="531.1207" cy="443.6328" fill="#84BE84" rx="3" ry="3" style="stroke:#038048;stroke-width:1.0;"/><text fill="#000000" font-family="sans-serif" font-size="11" lengthAdjust="spacingAndGlyphs" textLength="201" x="540.1207" y="446.8433">move(Coordinate,Coordinate): Error</text><!--MD5=[d75e1ad11e6a17be2ba08b218e20e3d7]
class tictactoe.controllers.ResumeController--><rect codeLine="62" fill="#FEFECE" filter="url(#f6n60vkwi4eha)" height="73.6094" id="tictactoe.controllers.ResumeController" style="stroke:#A80036;stroke-width:1.5;" width="171" x="313.6207" y="341"/><ellipse cx="343.0207" cy="357" fill="#ADD1B2" rx="11" ry="11" style="stroke:#A80036;stroke-width:1.0;"/><path d="M345.3645,352.6719 C344.427,352.2344 343.8332,352.0938 342.9582,352.0938 C340.3332,352.0938 338.3332,354.1719 338.3332,356.8906 L338.3332,358.0156 C338.3332,360.5938 340.4426,362.4844 343.3332,362.4844 C344.552,362.4844 345.7082,362.1875 346.4582,361.6406 C347.0363,361.2344 347.3645,360.7813 347.3645,360.3906 C347.3645,359.9375 346.9738,359.5469 346.5051,359.5469 C346.2863,359.5469 346.0832,359.625 345.8957,359.8125 C345.4426,360.2969 345.4426,360.2969 345.2551,360.3906 C344.8332,360.6563 344.1457,360.7813 343.3801,360.7813 C341.3332,360.7813 340.0363,359.6875 340.0363,357.9844 L340.0363,356.8906 C340.0363,355.1094 341.2863,353.7969 343.0207,353.7969 C343.5988,353.7969 344.2082,353.9531 344.677,354.2031 C345.1613,354.4844 345.3332,354.7031 345.427,355.1094 C345.4895,355.5156 345.5207,355.6406 345.6613,355.7656 C345.802,355.9063 346.0363,356.0156 346.2551,356.0156 C346.5207,356.0156 346.7863,355.875 346.9582,355.6563 C347.0676,355.5 347.0988,355.3125 347.0988,354.8906 L347.0988,353.4688 C347.0988,353.0313 347.0832,352.9063 346.9895,352.75 C346.8332,352.4844 346.552,352.3438 346.2551,352.3438 C345.9582,352.3438 345.7551,352.4375 345.5363,352.75 L345.3645,352.6719 Z " fill="#000000"/><text fill="#000000" font-family="sans-serif" font-size="12" lengthAdjust="spacingAndGlyphs" textLength="107" x="360.2207" y="361.1543">ResumeController</text><line style="stroke:#A80036;stroke-width:1.5;" x1="314.6207" x2="483.6207" y1="373" y2="373"/><line style="stroke:#A80036;stroke-width:1.5;" x1="314.6207" x2="483.6207" y1="381" y2="381"/><ellipse cx="324.6207" cy="392" fill="#84BE84" rx="3" ry="3" style="stroke:#038048;stroke-width:1.0;"/><text fill="#000000" font-family="sans-serif" font-size="11" lengthAdjust="spacingAndGlyphs" textLength="145" x="333.6207" y="395.2104">ResumeController(Game)</text><ellipse cx="324.6207" cy="404.8047" fill="#84BE84" rx="3" ry="3" style="stroke:#038048;stroke-width:1.0;"/><text fill="#000000" font-family="sans-serif" font-size="11" lengthAdjust="spacingAndGlyphs" textLength="38" x="333.6207" y="408.0151">reset()</text><!--MD5=[b6dcce5e5ef3c84b0b048d11301373dd]
class Game--><rect codeLine="1" fill="#FEFECE" filter="url(#f6n60vkwi4eha)" height="67.9063" id="Game" style="stroke:#A80036;stroke-width:1.5;" width="135" x="135.6207" y="513"/><ellipse cx="150.6207" cy="538.9531" fill="#ADD1B2" rx="11" ry="11" style="stroke:#A80036;stroke-width:1.0;"/><path d="M152.9645,534.625 C152.027,534.1875 151.4332,534.0469 150.5582,534.0469 C147.9332,534.0469 145.9332,536.125 145.9332,538.8438 L145.9332,539.9688 C145.9332,542.5469 148.0426,544.4375 150.9332,544.4375 C152.152,544.4375 153.3082,544.1406 154.0582,543.5938 C154.6363,543.1875 154.9645,542.7344 154.9645,542.3438 C154.9645,541.8906 154.5738,541.5 154.1051,541.5 C153.8863,541.5 153.6832,541.5781 153.4957,541.7656 C153.0426,542.25 153.0426,542.25 152.8551,542.3438 C152.4332,542.6094 151.7457,542.7344 150.9801,542.7344 C148.9332,542.7344 147.6363,541.6406 147.6363,539.9375 L147.6363,538.8438 C147.6363,537.0625 148.8863,535.75 150.6207,535.75 C151.1988,535.75 151.8082,535.9063 152.277,536.1563 C152.7613,536.4375 152.9332,536.6563 153.027,537.0625 C153.0895,537.4688 153.1207,537.5938 153.2613,537.7188 C153.402,537.8594 153.6363,537.9688 153.8551,537.9688 C154.1207,537.9688 154.3863,537.8281 154.5582,537.6094 C154.6676,537.4531 154.6988,537.2656 154.6988,536.8438 L154.6988,535.4219 C154.6988,534.9844 154.6832,534.8594 154.5895,534.7031 C154.4332,534.4375 154.152,534.2969 153.8551,534.2969 C153.5582,534.2969 153.3551,534.3906 153.1363,534.7031 L152.9645,534.625 Z " fill="#000000"/><text fill="#000000" font-family="sans-serif" font-size="12" lengthAdjust="spacingAndGlyphs" textLength="71" x="180.6207" y="529.1387">usantatecla.</text><text fill="#000000" font-family="sans-serif" font-size="12" lengthAdjust="spacingAndGlyphs" textLength="103" x="164.6207" y="543.1074">tictactoe.models.</text><text fill="#000000" font-family="sans-serif" font-size="12" lengthAdjust="spacingAndGlyphs" textLength="35" x="198.6207" y="557.0762">Game</text><line style="stroke:#A80036;stroke-width:1.5;" x1="136.6207" x2="269.6207" y1="564.9063" y2="564.9063"/><line style="stroke:#A80036;stroke-width:1.5;" x1="136.6207" x2="269.6207" y1="572.9063" y2="572.9063"/><!--MD5=[8c7d7abc12e214c3cc12c9ab70edee11]
class Coordinate--><rect codeLine="2" fill="#FEFECE" filter="url(#f6n60vkwi4eha)" height="67.9063" id="Coordinate" style="stroke:#A80036;stroke-width:1.5;" width="135" x="898.6207" y="513"/><ellipse cx="913.6207" cy="538.9531" fill="#ADD1B2" rx="11" ry="11" style="stroke:#A80036;stroke-width:1.0;"/><path d="M915.9645,534.625 C915.027,534.1875 914.4332,534.0469 913.5582,534.0469 C910.9332,534.0469 908.9332,536.125 908.9332,538.8438 L908.9332,539.9688 C908.9332,542.5469 911.0426,544.4375 913.9332,544.4375 C915.152,544.4375 916.3082,544.1406 917.0582,543.5938 C917.6363,543.1875 917.9645,542.7344 917.9645,542.3438 C917.9645,541.8906 917.5738,541.5 917.1051,541.5 C916.8863,541.5 916.6832,541.5781 916.4957,541.7656 C916.0426,542.25 916.0426,542.25 915.8551,542.3438 C915.4332,542.6094 914.7457,542.7344 913.9801,542.7344 C911.9332,542.7344 910.6363,541.6406 910.6363,539.9375 L910.6363,538.8438 C910.6363,537.0625 911.8863,535.75 913.6207,535.75 C914.1988,535.75 914.8082,535.9063 915.277,536.1563 C915.7613,536.4375 915.9332,536.6563 916.027,537.0625 C916.0895,537.4688 916.1207,537.5938 916.2613,537.7188 C916.402,537.8594 916.6363,537.9688 916.8551,537.9688 C917.1207,537.9688 917.3863,537.8281 917.5582,537.6094 C917.6676,537.4531 917.6988,537.2656 917.6988,536.8438 L917.6988,535.4219 C917.6988,534.9844 917.6832,534.8594 917.5895,534.7031 C917.4332,534.4375 917.152,534.2969 916.8551,534.2969 C916.5582,534.2969 916.3551,534.3906 916.1363,534.7031 L915.9645,534.625 Z " fill="#000000"/><text fill="#000000" font-family="sans-serif" font-size="12" lengthAdjust="spacingAndGlyphs" textLength="71" x="943.6207" y="529.1387">usantatecla.</text><text fill="#000000" font-family="sans-serif" font-size="12" lengthAdjust="spacingAndGlyphs" textLength="103" x="927.6207" y="543.1074">tictactoe.models.</text><text fill="#000000" font-family="sans-serif" font-size="12" lengthAdjust="spacingAndGlyphs" textLength="66" x="946.1207" y="557.0762">Coordinate</text><line style="stroke:#A80036;stroke-width:1.5;" x1="899.6207" x2="1032.6207" y1="564.9063" y2="564.9063"/><line style="stroke:#A80036;stroke-width:1.5;" x1="899.6207" x2="1032.6207" y1="572.9063" y2="572.9063"/><!--MD5=[b8cfd8c4119a3b0a7a46bfc5fc780f85]
class Error--><rect codeLine="3" fill="#FEFECE" filter="url(#f6n60vkwi4eha)" height="67.9063" id="Error" style="stroke:#A80036;stroke-width:1.5;" width="124" x="580.1207" y="513"/><ellipse cx="595.1207" cy="538.9531" fill="#EB937F" rx="11" ry="11" style="stroke:#A80036;stroke-width:1.0;"/><path d="M593.9176,539.8281 L595.3707,539.8281 L595.3707,539.9375 C595.3707,540.3438 595.402,540.5 595.4801,540.6563 C595.6363,540.9063 595.9176,541.0625 596.2145,541.0625 C596.4645,541.0625 596.7301,540.9219 596.8863,540.7031 C597.0113,540.5469 597.0426,540.3906 597.0426,539.9375 L597.0426,538.0156 C597.0426,537.8594 597.0426,537.8125 597.027,537.6563 C596.9645,537.1875 596.652,536.875 596.1988,536.875 C595.9488,536.875 595.6832,537.0156 595.5113,537.2344 C595.402,537.4063 595.3707,537.5625 595.3707,538.0156 L595.3707,538.1406 L593.9176,538.1406 L593.9176,535.7344 L597.902,535.7344 L597.902,536.5938 C597.902,537 597.9332,537.1719 598.0113,537.3281 C598.1832,537.5781 598.4645,537.7344 598.7457,537.7344 C599.0113,537.7344 599.277,537.5938 599.4488,537.375 C599.5582,537.2031 599.5895,537.0625 599.5895,536.5938 L599.5895,534.0469 L591.9645,534.0469 C591.527,534.0469 591.402,534.0625 591.2457,534.1563 C590.9957,534.3125 590.8395,534.6094 590.8395,534.8906 C590.8395,535.1719 590.9801,535.4219 591.1988,535.5938 C591.3551,535.7031 591.5426,535.7344 591.9645,535.7344 L592.2145,535.7344 L592.2145,542.25 L591.9645,542.25 C591.5582,542.25 591.402,542.2656 591.2457,542.375 C590.9957,542.5469 590.8395,542.8125 590.8395,543.1094 C590.8395,543.375 590.9801,543.625 591.1988,543.7813 C591.3395,543.9063 591.5738,543.9531 591.9645,543.9531 L599.9645,543.9531 L599.9645,541.375 C599.9645,540.9375 599.9332,540.7969 599.8551,540.6406 C599.6832,540.3906 599.402,540.2344 599.1207,540.2344 C598.8551,540.2344 598.5895,540.3438 598.4176,540.5938 C598.3082,540.75 598.277,540.8906 598.277,541.375 L598.277,542.25 L593.9176,542.25 L593.9176,539.8281 Z " fill="#000000"/><text fill="#000000" font-family="sans-serif" font-size="12" lengthAdjust="spacingAndGlyphs" textLength="71" x="619.6207" y="529.1387">usantatecla.</text><text fill="#000000" font-family="sans-serif" font-size="12" lengthAdjust="spacingAndGlyphs" textLength="92" x="609.1207" y="543.1074">tictactoe.types.</text><text fill="#000000" font-family="sans-serif" font-size="12" lengthAdjust="spacingAndGlyphs" textLength="30" x="640.1207" y="557.0762">Error</text><line style="stroke:#A80036;stroke-width:1.5;" x1="581.1207" x2="703.1207" y1="564.9063" y2="564.9063"/><line style="stroke:#A80036;stroke-width:1.5;" x1="581.1207" x2="703.1207" y1="572.9063" y2="572.9063"/><!--MD5=[d8c8cfd5ca149094f5b67f9f607a5ec7]
class Token--><rect codeLine="4" fill="#FEFECE" filter="url(#f6n60vkwi4eha)" height="67.9063" id="Token" style="stroke:#A80036;stroke-width:1.5;" width="124" x="739.1207" y="513"/><ellipse cx="754.1207" cy="538.9531" fill="#EB937F" rx="11" ry="11" style="stroke:#A80036;stroke-width:1.0;"/><path d="M752.9176,539.8281 L754.3707,539.8281 L754.3707,539.9375 C754.3707,540.3438 754.402,540.5 754.4801,540.6563 C754.6363,540.9063 754.9176,541.0625 755.2145,541.0625 C755.4645,541.0625 755.7301,540.9219 755.8863,540.7031 C756.0113,540.5469 756.0426,540.3906 756.0426,539.9375 L756.0426,538.0156 C756.0426,537.8594 756.0426,537.8125 756.027,537.6563 C755.9645,537.1875 755.652,536.875 755.1988,536.875 C754.9488,536.875 754.6832,537.0156 754.5113,537.2344 C754.402,537.4063 754.3707,537.5625 754.3707,538.0156 L754.3707,538.1406 L752.9176,538.1406 L752.9176,535.7344 L756.902,535.7344 L756.902,536.5938 C756.902,537 756.9332,537.1719 757.0113,537.3281 C757.1832,537.5781 757.4645,537.7344 757.7457,537.7344 C758.0113,537.7344 758.277,537.5938 758.4488,537.375 C758.5582,537.2031 758.5895,537.0625 758.5895,536.5938 L758.5895,534.0469 L750.9645,534.0469 C750.527,534.0469 750.402,534.0625 750.2457,534.1563 C749.9957,534.3125 749.8395,534.6094 749.8395,534.8906 C749.8395,535.1719 749.9801,535.4219 750.1988,535.5938 C750.3551,535.7031 750.5426,535.7344 750.9645,535.7344 L751.2145,535.7344 L751.2145,542.25 L750.9645,542.25 C750.5582,542.25 750.402,542.2656 750.2457,542.375 C749.9957,542.5469 749.8395,542.8125 749.8395,543.1094 C749.8395,543.375 749.9801,543.625 750.1988,543.7813 C750.3395,543.9063 750.5738,543.9531 750.9645,543.9531 L758.9645,543.9531 L758.9645,541.375 C758.9645,540.9375 758.9332,540.7969 758.8551,540.6406 C758.6832,540.3906 758.402,540.2344 758.1207,540.2344 C757.8551,540.2344 757.5895,540.3438 757.4176,540.5938 C757.3082,540.75 757.277,540.8906 757.277,541.375 L757.277,542.25 L752.9176,542.25 L752.9176,539.8281 Z " fill="#000000"/><text fill="#000000" font-family="sans-serif" font-size="12" lengthAdjust="spacingAndGlyphs" textLength="71" x="778.6207" y="529.1387">usantatecla.</text><text fill="#000000" font-family="sans-serif" font-size="12" lengthAdjust="spacingAndGlyphs" textLength="92" x="768.1207" y="543.1074">tictactoe.types.</text><text fill="#000000" font-family="sans-serif" font-size="12" lengthAdjust="spacingAndGlyphs" textLength="37" x="795.6207" y="557.0762">Token</text><line style="stroke:#A80036;stroke-width:1.5;" x1="740.1207" x2="862.1207" y1="564.9063" y2="564.9063"/><line style="stroke:#A80036;stroke-width:1.5;" x1="740.1207" x2="862.1207" y1="572.9063" y2="572.9063"/><!--MD5=[f0e50675208408ddbf1ed7a91f4eb071]
class ClosedInterval--><rect codeLine="5" fill="#FEFECE" filter="url(#f6n60vkwi4eha)" height="67.9063" id="ClosedInterval" style="stroke:#A80036;stroke-width:1.5;" width="118" x="427.1207" y="513"/><ellipse cx="442.1207" cy="538.9531" fill="#ADD1B2" rx="11" ry="11" style="stroke:#A80036;stroke-width:1.0;"/><path d="M444.4645,534.625 C443.527,534.1875 442.9332,534.0469 442.0582,534.0469 C439.4332,534.0469 437.4332,536.125 437.4332,538.8438 L437.4332,539.9688 C437.4332,542.5469 439.5426,544.4375 442.4332,544.4375 C443.652,544.4375 444.8082,544.1406 445.5582,543.5938 C446.1363,543.1875 446.4645,542.7344 446.4645,542.3438 C446.4645,541.8906 446.0738,541.5 445.6051,541.5 C445.3863,541.5 445.1832,541.5781 444.9957,541.7656 C444.5426,542.25 444.5426,542.25 444.3551,542.3438 C443.9332,542.6094 443.2457,542.7344 442.4801,542.7344 C440.4332,542.7344 439.1363,541.6406 439.1363,539.9375 L439.1363,538.8438 C439.1363,537.0625 440.3863,535.75 442.1207,535.75 C442.6988,535.75 443.3082,535.9063 443.777,536.1563 C444.2613,536.4375 444.4332,536.6563 444.527,537.0625 C444.5895,537.4688 444.6207,537.5938 444.7613,537.7188 C444.902,537.8594 445.1363,537.9688 445.3551,537.9688 C445.6207,537.9688 445.8863,537.8281 446.0582,537.6094 C446.1676,537.4531 446.1988,537.2656 446.1988,536.8438 L446.1988,535.4219 C446.1988,534.9844 446.1832,534.8594 446.0895,534.7031 C445.9332,534.4375 445.652,534.2969 445.3551,534.2969 C445.0582,534.2969 444.8551,534.3906 444.6363,534.7031 L444.4645,534.625 Z " fill="#000000"/><text fill="#000000" font-family="sans-serif" font-size="12" lengthAdjust="spacingAndGlyphs" textLength="71" x="463.6207" y="529.1387">usantatecla.</text><text fill="#000000" font-family="sans-serif" font-size="12" lengthAdjust="spacingAndGlyphs" textLength="27" x="485.6207" y="543.1074">utils.</text><text fill="#000000" font-family="sans-serif" font-size="12" lengthAdjust="spacingAndGlyphs" textLength="86" x="456.1207" y="557.0762">ClosedInterval</text><line style="stroke:#A80036;stroke-width:1.5;" x1="428.1207" x2="544.1207" y1="564.9063" y2="564.9063"/><line style="stroke:#A80036;stroke-width:1.5;" x1="428.1207" x2="544.1207" y1="572.9063" y2="572.9063"/><!--MD5=[6068204d1fdba78d641ceb3415898910]
link tictactoe.controllers.Controller to Game--><path codeLine="11" d="M277.4759,162.6108 C277.4759,162.6108 97.8706,224.307 48.1206,303 C6.7958,368.366 6,412.144 48.1206,477 C65.0307,503.0377 94.2916,519.3313 122.8667,529.4908 " fill="none" id="tictactoe.controllers.Controller-Game" style="stroke:#A80036;stroke-width:1.0;"/><polygon fill="#A80036" points="135.4647,533.6098,128.1534,527.0109,130.7123,532.056,125.6673,534.6148,135.4647,533.6098" style="stroke:#A80036;stroke-width:1.0;"/><line style="stroke:#A80036;stroke-width:1.0;" x1="130.7123" x2="123.1087" y1="532.056" y2="529.5699"/><polygon fill="#A80036" points="289.1077,159.661,282.3085,157.2586,277.4759,162.6108,284.2751,165.0132,289.1077,159.661" style="stroke:#A80036;stroke-width:1.0;"/><!--MD5=[46f9f2e2fca1b0ad7cf51ac0d9d0f196]
link tictactoe.controllers.Controller to Token--><path codeLine="12" d="M417.1687,179.077 C438.3597,200.754 467.9107,227.125 499.1207,243 C607.5277,298.143 683.5367,213.71 766.1207,303 C817.7077,358.776 814.4247,454.691 807.6717,507.8063 " fill="none" id="tictactoe.controllers.Controller-to-Token" style="stroke:#A80036;stroke-width:1.0;stroke-dasharray:7.0,7.0;"/><polygon fill="#A80036" points="807.0087,512.8101,812.1556,504.4131,807.6651,507.8534,804.2248,503.3629,807.0087,512.8101" style="stroke:#A80036;stroke-width:1.0;"/><!--MD5=[342bd2846cb7233760b6e78f5d6e228f]
link tictactoe.controllers.Controller to Coordinate--><path codeLine="13" d="M416.9907,179.434 C438.1137,201.248 467.6547,227.639 499.1207,243 C627.1917,305.522 701.8867,215.167 814.1207,303 C881.1497,355.457 844.7477,407.668 894.1207,477 C902.2597,488.4299 912.4617,499.5385 922.6057,509.3835 " fill="none" id="tictactoe.controllers.Controller-to-Coordinate" style="stroke:#A80036;stroke-width:1.0;stroke-dasharray:7.0,7.0;"/><polygon fill="#A80036" points="926.3357,512.9517,922.5964,503.8403,922.7223,509.4958,917.0669,509.6217,926.3357,512.9517" style="stroke:#A80036;stroke-width:1.0;"/><!--MD5=[19457e990bfffed372bd4754e4caf1bd]
link tictactoe.controllers.Logic to tictactoe.controllers.StartController--><path codeLine="29" d="M505.9178,238.9208 C505.9178,238.9208 500.4067,241.853 498.1207,243 C414.4067,284.99 379.1737,259.717 296.1207,303 C283.5127,309.571 270.9537,317.966 259.3317,326.726 " fill="none" id="tictactoe.controllers.Logic-tictactoe.controllers.StartController" style="stroke:#A80036;stroke-width:1.0;"/><polygon fill="#A80036" points="248.9467,334.833,258.5023,332.4475,252.8879,331.7561,253.5793,326.1417,248.9467,334.833" style="stroke:#A80036;stroke-width:1.0;"/><line style="stroke:#A80036;stroke-width:1.0;" x1="252.8879" x2="259.1937" y1="331.7561" y2="326.8335"/><polygon fill="#A80036" points="516.3887,233.059,509.1993,232.4996,505.9178,238.9208,513.1072,239.4802,516.3887,233.059" style="stroke:#A80036;stroke-width:1.0;"/><!--MD5=[600c1fe4dddc39bb8e79c6dad4949c4a]
link tictactoe.controllers.Logic to tictactoe.controllers.PlayController--><path codeLine="30" d="M633.0806,255.2546 C633.0806,255.2546 633.2817,278.856 633.3747,289.724 " fill="none" id="tictactoe.controllers.Logic-tictactoe.controllers.PlayController" style="stroke:#A80036;stroke-width:1.0;"/><polygon fill="#A80036" points="633.4857,302.771,637.4084,293.737,633.4428,297.7712,629.4087,293.8056,633.4857,302.771" style="stroke:#A80036;stroke-width:1.0;"/><line style="stroke:#A80036;stroke-width:1.0;" x1="633.4428" x2="633.3747" y1="297.7712" y2="289.771"/><polygon fill="#A80036" points="632.9777,243.255,629.0293,249.2891,633.0806,255.2546,637.029,249.2205,632.9777,243.255" style="stroke:#A80036;stroke-width:1.0;"/><!--MD5=[920ecdfcfa8e9a979fd863e951ddfb99]
link tictactoe.controllers.Logic to tictactoe.controllers.ResumeController--><path codeLine="31" d="M523.8262,251.7581 C523.8262,251.7581 466.8807,308.949 444.3517,331.575 " fill="none" id="tictactoe.controllers.Logic-tictactoe.controllers.ResumeController" style="stroke:#A80036;stroke-width:1.0;"/><polygon fill="#A80036" points="435.0677,340.898,444.2527,337.3432,438.5958,337.3551,438.5839,331.6982,435.0677,340.898" style="stroke:#A80036;stroke-width:1.0;"/><line style="stroke:#A80036;stroke-width:1.0;" x1="438.5958" x2="444.2407" y1="337.3551" y2="331.6865"/><polygon fill="#A80036" points="532.2937,243.255,525.2256,244.684,523.8262,251.7581,530.8943,250.329,532.2937,243.255" style="stroke:#A80036;stroke-width:1.0;"/><!--MD5=[44e666a769b5edea767f63d227a49329]
link tictactoe.controllers.Logic to Game--><path codeLine="32" d="M516.4707,234.304 C510.4087,237.491 504.2767,240.417 498.1207,243 C337.2157,310.512 223.6877,170.521 110.1206,303 C59.7892,361.713 75.357,407.921 110.1206,477 C116.3988,489.4756 126.1177,500.2614 136.9487,509.3558 " fill="none" id="tictactoe.controllers.Logic-to-Game" style="stroke:#A80036;stroke-width:1.0;stroke-dasharray:7.0,7.0;"/><polygon fill="#A80036" points="140.9847,512.6298,136.5152,503.8535,137.1017,509.4799,131.4753,510.0664,140.9847,512.6298" style="stroke:#A80036;stroke-width:1.0;"/><!--MD5=[e518d037caed16808a584df3799be1eb]
link tictactoe.controllers.Logic to Coordinate--><path codeLine="33" d="M747.7857,218.455 C779.8677,242.903 813.0197,271.834 839.1207,303 C892.7107,366.99 932.4697,457.323 952.2037,507.8913 " fill="none" id="tictactoe.controllers.Logic-to-Coordinate" style="stroke:#A80036;stroke-width:1.0;stroke-dasharray:7.0,7.0;"/><polygon fill="#A80036" points="954.0507,512.6587,954.5286,502.8214,952.2441,507.9965,947.0691,505.712,954.0507,512.6587" style="stroke:#A80036;stroke-width:1.0;"/><!--MD5=[4d3dc86b7d0a964c01f3c1bfd06e789d]
link tictactoe.controllers.Logic to Error--><path codeLine="34" d="M733.1287,243.017 C746.6307,261.616 758.4477,281.887 766.1207,303 C792.5357,375.682 805.3157,410.335 766.1207,477 C759.1267,488.8959 734.5077,503.5939 709.0287,516.3634 " fill="none" id="tictactoe.controllers.Logic-to-Error" style="stroke:#A80036;stroke-width:1.0;stroke-dasharray:7.0,7.0;"/><polygon fill="#A80036" points="704.2657,518.7242,714.1059,518.3122,708.7458,516.5041,710.5539,511.144,704.2657,518.7242" style="stroke:#A80036;stroke-width:1.0;"/><!--MD5=[e10cc41f256272c257533253a7bfff13]
link tictactoe.controllers.Logic to Token--><path codeLine="35" d="M747.9657,225.622 C770.7567,247.926 791.4997,274.022 804.1207,303 C833.4387,370.314 821.5107,458.401 810.8657,507.913 " fill="none" id="tictactoe.controllers.Logic-to-Token" style="stroke:#A80036;stroke-width:1.0;stroke-dasharray:7.0,7.0;"/><polygon fill="#A80036" points="809.7747,512.8754,815.6131,504.9436,810.8478,507.9919,807.7995,503.2266,809.7747,512.8754" style="stroke:#A80036;stroke-width:1.0;"/><!--MD5=[5deb1e5c7bf9906a35de112138d88f9c]
reverse link tictactoe.controllers.Controller to tictactoe.controllers.StartController--><path codeLine="42" d="M344.7727,194.876 C311.9897,237.025 266.3367,295.722 235.8097,334.971 " fill="none" id="tictactoe.controllers.Controller-backto-tictactoe.controllers.StartController" style="stroke:#A80036;stroke-width:1.0;"/><polygon fill="none" points="339.2777,190.539,357.0817,179.05,350.3287,199.134,339.2777,190.539" style="stroke:#A80036;stroke-width:1.0;"/><!--MD5=[479e7112b5bc5a94513afe00b27faaff]
link tictactoe.controllers.StartController to Game--><path codeLine="43" d="M203.1207,421.141 C203.1207,447.774 203.1207,481.916 203.1207,507.7645 " fill="none" id="tictactoe.controllers.StartController-to-Game" style="stroke:#A80036;stroke-width:1.0;stroke-dasharray:7.0,7.0;"/><polygon fill="#A80036" points="203.1207,512.819,207.1207,503.819,203.1207,507.819,199.1207,503.819,203.1207,512.819" style="stroke:#A80036;stroke-width:1.0;"/><!--MD5=[5700b97431232c099330215bddfcc855]
reverse link tictactoe.controllers.Controller to tictactoe.controllers.PlayController--><path codeLine="55" d="M438.3027,192.979 C472.3417,224.967 517.1107,267.039 555.2507,302.881 " fill="none" id="tictactoe.controllers.Controller-backto-tictactoe.controllers.PlayController" style="stroke:#A80036;stroke-width:1.0;"/><polygon fill="none" points="433.2617,197.847,423.4807,179.05,442.8487,187.645,433.2617,197.847" style="stroke:#A80036;stroke-width:1.0;"/><!--MD5=[fe83eea10e25d043c5deb7f71d3efefa]
link tictactoe.controllers.PlayController to Coordinate--><path codeLine="56" d="M748.3757,436.472 C797.2397,461.051 852.7497,488.9728 895.4917,510.473 " fill="none" id="tictactoe.controllers.PlayController-to-Coordinate" style="stroke:#A80036;stroke-width:1.0;stroke-dasharray:7.0,7.0;"/><polygon fill="#A80036" points="900.1127,512.7971,893.8685,505.1806,895.6455,510.5512,890.275,512.3281,900.1127,512.7971" style="stroke:#A80036;stroke-width:1.0;"/><!--MD5=[17f566e5019e25cb4796a68af68f3905]
link tictactoe.controllers.PlayController to Error--><path codeLine="57" d="M637.6757,453.221 C638.5757,472.005 639.5057,491.4226 640.2817,507.609 " fill="none" id="tictactoe.controllers.PlayController-to-Error" style="stroke:#A80036;stroke-width:1.0;stroke-dasharray:7.0,7.0;"/><polygon fill="#A80036" points="640.5387,512.9688,644.1031,503.7876,640.2993,507.9745,636.1123,504.1707,640.5387,512.9688" style="stroke:#A80036;stroke-width:1.0;"/><!--MD5=[ba4453740163cde41a3c637e3b1e755a]
link tictactoe.controllers.PlayController to Game--><path codeLine="58" d="M544.1377,453.199 C530.5927,462.139 516.3717,470.417 502.1207,477 C429.0887,510.7343 338.1807,528.6791 275.8967,537.7242 " fill="none" id="tictactoe.controllers.PlayController-to-Game" style="stroke:#A80036;stroke-width:1.0;stroke-dasharray:7.0,7.0;"/><polygon fill="#A80036" points="270.7127,538.4661,280.1887,541.1503,275.6622,537.7575,279.055,533.231,270.7127,538.4661" style="stroke:#A80036;stroke-width:1.0;"/><!--MD5=[2ada365b675ffc8168b7291fcf650ab7]
link tictactoe.controllers.PlayController to Token--><path codeLine="59" d="M708.3417,453.221 C727.7787,472.658 747.8947,492.7742 764.4067,509.2861 " fill="none" id="tictactoe.controllers.PlayController-to-Token" style="stroke:#A80036;stroke-width:1.0;stroke-dasharray:7.0,7.0;"/><polygon fill="#A80036" points="768.0897,512.9688,764.5544,503.7763,764.5542,509.4332,758.8974,509.4331,768.0897,512.9688" style="stroke:#A80036;stroke-width:1.0;"/><!--MD5=[635b380301c260d9705613349eb74f13]
link tictactoe.controllers.PlayController to ClosedInterval--><path codeLine="60" d="M568.3437,453.221 C551.2627,472.495 533.5907,492.4361 519.0267,508.869 " fill="none" id="tictactoe.controllers.PlayController-to-ClosedInterval" style="stroke:#A80036;stroke-width:1.0;stroke-dasharray:7.0,7.0;"/><polygon fill="#A80036" points="515.3937,512.9688,524.3569,508.8869,518.7102,509.2271,518.3701,503.5805,515.3937,512.9688" style="stroke:#A80036;stroke-width:1.0;"/><!--MD5=[549c2b0fc6f493adecd03b65ab276634]
reverse link tictactoe.controllers.Controller to tictactoe.controllers.ResumeController--><path codeLine="66" d="M388.4837,199.21 C391.1167,243.214 394.6997,303.104 396.9617,340.909 " fill="none" id="tictactoe.controllers.Controller-backto-tictactoe.controllers.ResumeController" style="stroke:#A80036;stroke-width:1.0;"/><polygon fill="none" points="381.4847,199.432,387.2777,179.05,395.4597,198.596,381.4847,199.432" style="stroke:#A80036;stroke-width:1.0;"/><!--MD5=[a35ef516318c5bb82096013ec88f75bf]
link tictactoe.controllers.ResumeController to Game--><path codeLine="67" d="M363.4157,415.043 C344.0377,434.068 319.3527,457.455 296.1207,477 C283.0147,488.0256 268.3337,499.3539 254.5767,509.5625 " fill="none" id="tictactoe.controllers.ResumeController-to-Game" style="stroke:#A80036;stroke-width:1.0;stroke-dasharray:7.0,7.0;"/><polygon fill="#A80036" points="250.3397,512.6931,259.9552,510.5617,254.361,509.7217,255.201,504.1276,250.3397,512.6931" style="stroke:#A80036;stroke-width:1.0;"/><!--MD5=[4ea11a119e2d23812e6c43e4218a7765]
@startuml
class Game as "usantatecla.\ntictactoe.models.\nGame"
class Coordinate as "usantatecla.\ntictactoe.models.\nCoordinate"
enum Error as "usantatecla.\ntictactoe.types.\nError"
enum Token as "usantatecla.\ntictactoe.types.\nToken"
class ClosedInterval as "usantatecla.\nutils.\nClosedInterval"

abstract class tictactoe.controllers.Controller {
  ~ Controller(Game)
  + getToken(Coordinate): Token
}
tictactoe.controllers.Controller *-down-> Game
tictactoe.controllers.Controller .down.> Token
tictactoe.controllers.Controller .down.> Coordinate

class tictactoe.controllers.Logic {
  + Logic()
  + getMaxPlayers(): int
  + setUsers(int)
  + getToken(): Token
  + isBoardComplete(): boolean
  + isTicTacToe(): boolean
  + isUser(): boolean
  + isValidCoordinate(Coordinate): Error
  + put(Coordinate): Error
  + move(Coordinate, Coordinate): Error
  + getToken(Coordinate): Token
  + reset()
}
tictactoe.controllers.Logic *-down-> tictactoe.controllers.StartController
tictactoe.controllers.Logic *-down-> tictactoe.controllers.PlayController
tictactoe.controllers.Logic *-down-> tictactoe.controllers.ResumeController
tictactoe.controllers.Logic .down.> Game
tictactoe.controllers.Logic .down.> Coordinate
tictactoe.controllers.Logic .down.> Error
tictactoe.controllers.Logic .down.> Token

class  tictactoe.controllers.StartController{
  + StartController(Game)
  + setUsers(int)
  + getMaxPlayers(): int
}
tictactoe.controllers.Controller <|-down- tictactoe.controllers.StartController
tictactoe.controllers.StartController .down.> Game

class tictactoe.controllers.PlayController {
  + PlayController(Game)
  + isBoardComplete(): boolean
  + isTicTacToe(): boolean
  + getToken(): Token
  + isUser(): boolean
  + isValidCoordinate(Coordinate): Error
  + put(Coordinate): Error
  + move(Coordinate,Coordinate): Error
}
tictactoe.controllers.Controller <|-down- tictactoe.controllers.PlayController
tictactoe.controllers.PlayController .down.> Coordinate
tictactoe.controllers.PlayController .down.> Error
tictactoe.controllers.PlayController .down.> Game
tictactoe.controllers.PlayController .down.> Token
tictactoe.controllers.PlayController .down.> ClosedInterval

class  tictactoe.controllers.ResumeController{
  + ResumeController(Game)
  + reset()
}
tictactoe.controllers.Controller <|-down- tictactoe.controllers.ResumeController
tictactoe.controllers.ResumeController .down.> Game
@enduml

PlantUML version 1.2020.27beta2(Unknown compile time)
(GPL source distribution)
Java Runtime: Java(TM) SE Runtime Environment
JVM: Java HotSpot(TM) 64-Bit Server VM
Default Encoding: UTF-8
Language: en
Country: US
--></g></svg>