<?xml version="1.0" encoding="UTF-8" standalone="no"?><svg xmlns="http://www.w3.org/2000/svg" xmlns:xlink="http://www.w3.org/1999/xlink" contentScriptType="application/ecmascript" contentStyleType="text/css" height="1353px" preserveAspectRatio="none" style="width:983px;height:1353px;" version="1.1" viewBox="0 0 983 1353" width="983px" zoomAndPan="magnify"><defs><filter height="300%" id="f1s90dtzyxzwhu" width="300%" x="-1" y="-1"><feGaussianBlur result="blurOut" stdDeviation="2.0"/><feColorMatrix in="blurOut" result="blurOut2" type="matrix" values="0 0 0 0 0 0 0 0 0 0 0 0 0 0 0 0 0 0 .4 0"/><feOffset dx="4.0" dy="4.0" in="blurOut2" result="blurOut3"/><feBlend in="SourceGraphic" in2="blurOut3" mode="normal"/></filter></defs><g><!--MD5=[51cd642fcc96b47682a93d9084d46dec]
cluster tictactoe.models--><polygon fill="#FFFFFF" filter="url(#f1s90dtzyxzwhu)" points="179.5,6,324.5,6,331.5,28.2969,591.5,28.2969,591.5,1228,179.5,1228,179.5,6" style="stroke:#000000;stroke-width:1.5;"/><line style="stroke:#000000;stroke-width:1.5;" x1="179.5" x2="331.5" y1="28.2969" y2="28.2969"/><text fill="#000000" font-family="sans-serif" font-size="14" font-weight="bold" lengthAdjust="spacingAndGlyphs" textLength="139" x="183.5" y="20.9951">tictactoe.models</text><!--MD5=[8d3188f3c370ea7d5d91d12bca83b67a]
class tictactoe.models.Game--><rect codeLine="7" fill="#FEFECE" filter="url(#f1s90dtzyxzwhu)" height="214.4609" id="tictactoe.models.Game" style="stroke:#A80036;stroke-width:1.5;" width="231" x="344" y="41"/><ellipse cx="437.75" cy="57" fill="#ADD1B2" rx="11" ry="11" style="stroke:#A80036;stroke-width:1.0;"/><path d="M440.0938,52.6719 C439.1563,52.2344 438.5625,52.0938 437.6875,52.0938 C435.0625,52.0938 433.0625,54.1719 433.0625,56.8906 L433.0625,58.0156 C433.0625,60.5938 435.1719,62.4844 438.0625,62.4844 C439.2813,62.4844 440.4375,62.1875 441.1875,61.6406 C441.7656,61.2344 442.0938,60.7813 442.0938,60.3906 C442.0938,59.9375 441.7031,59.5469 441.2344,59.5469 C441.0156,59.5469 440.8125,59.625 440.625,59.8125 C440.1719,60.2969 440.1719,60.2969 439.9844,60.3906 C439.5625,60.6563 438.875,60.7813 438.1094,60.7813 C436.0625,60.7813 434.7656,59.6875 434.7656,57.9844 L434.7656,56.8906 C434.7656,55.1094 436.0156,53.7969 437.75,53.7969 C438.3281,53.7969 438.9375,53.9531 439.4063,54.2031 C439.8906,54.4844 440.0625,54.7031 440.1563,55.1094 C440.2188,55.5156 440.25,55.6406 440.3906,55.7656 C440.5313,55.9063 440.7656,56.0156 440.9844,56.0156 C441.25,56.0156 441.5156,55.875 441.6875,55.6563 C441.7969,55.5 441.8281,55.3125 441.8281,54.8906 L441.8281,53.4688 C441.8281,53.0313 441.8125,52.9063 441.7188,52.75 C441.5625,52.4844 441.2813,52.3438 440.9844,52.3438 C440.6875,52.3438 440.4844,52.4375 440.2656,52.75 L440.0938,52.6719 Z " fill="#000000"/><text fill="#000000" font-family="sans-serif" font-size="12" lengthAdjust="spacingAndGlyphs" textLength="35" x="458.25" y="61.1543">Game</text><line style="stroke:#A80036;stroke-width:1.5;" x1="345" x2="574" y1="73" y2="73"/><line style="stroke:#A80036;stroke-width:1.5;" x1="345" x2="574" y1="81" y2="81"/><ellipse cx="355" cy="92" fill="#84BE84" rx="3" ry="3" style="stroke:#038048;stroke-width:1.0;"/><text fill="#000000" font-family="sans-serif" font-size="11" lengthAdjust="spacingAndGlyphs" textLength="43" x="364" y="95.2104">Game()</text><ellipse cx="355" cy="104.8047" fill="#84BE84" rx="3" ry="3" style="stroke:#038048;stroke-width:1.0;"/><text fill="#000000" font-family="sans-serif" font-size="11" lengthAdjust="spacingAndGlyphs" textLength="38" x="364" y="108.0151">reset()</text><ellipse cx="355" cy="117.6094" fill="#84BE84" rx="3" ry="3" style="stroke:#038048;stroke-width:1.0;"/><text fill="#000000" font-family="sans-serif" font-size="11" lengthAdjust="spacingAndGlyphs" textLength="72" x="364" y="120.8198">setUsers(int)</text><ellipse cx="355" cy="130.4141" fill="#84BE84" rx="3" ry="3" style="stroke:#038048;stroke-width:1.0;"/><text fill="#000000" font-family="sans-serif" font-size="11" lengthAdjust="spacingAndGlyphs" textLength="159" x="364" y="133.6245">isBoardComplete(): boolean</text><ellipse cx="355" cy="143.2188" fill="#84BE84" rx="3" ry="3" style="stroke:#038048;stroke-width:1.0;"/><text fill="#000000" font-family="sans-serif" font-size="11" lengthAdjust="spacingAndGlyphs" textLength="96" x="364" y="146.4292">isUser(): boolean</text><ellipse cx="355" cy="156.0234" fill="#84BE84" rx="3" ry="3" style="stroke:#038048;stroke-width:1.0;"/><text fill="#000000" font-family="sans-serif" font-size="11" lengthAdjust="spacingAndGlyphs" textLength="121" x="364" y="159.2339">put(Coordinate): Error</text><ellipse cx="355" cy="168.8281" fill="#84BE84" rx="3" ry="3" style="stroke:#038048;stroke-width:1.0;"/><text fill="#000000" font-family="sans-serif" font-size="11" lengthAdjust="spacingAndGlyphs" textLength="205" x="364" y="172.0386">move(Coordinate, Coordinate): Error</text><ellipse cx="355" cy="181.6328" fill="#84BE84" rx="3" ry="3" style="stroke:#038048;stroke-width:1.0;"/><text fill="#000000" font-family="sans-serif" font-size="11" lengthAdjust="spacingAndGlyphs" textLength="34" x="364" y="184.8433">next()</text><ellipse cx="355" cy="194.4375" fill="#84BE84" rx="3" ry="3" style="stroke:#038048;stroke-width:1.0;"/><text fill="#000000" font-family="sans-serif" font-size="11" lengthAdjust="spacingAndGlyphs" textLength="128" x="364" y="197.6479">isTicTacToe(): boolean</text><ellipse cx="355" cy="207.2422" fill="#84BE84" rx="3" ry="3" style="stroke:#038048;stroke-width:1.0;"/><text fill="#000000" font-family="sans-serif" font-size="11" lengthAdjust="spacingAndGlyphs" textLength="166" x="364" y="210.4526">getToken(Coordinate): Token</text><ellipse cx="355" cy="220.0469" fill="#84BE84" rx="3" ry="3" style="stroke:#038048;stroke-width:1.0;"/><text fill="#000000" font-family="sans-serif" font-size="11" lengthAdjust="spacingAndGlyphs" textLength="104" x="364" y="223.2573">getToken(): Token</text><ellipse cx="355" cy="232.8516" fill="#84BE84" rx="3" ry="3" style="stroke:#038048;stroke-width:1.0;"/><text fill="#000000" font-family="sans-serif" font-size="11" lengthAdjust="spacingAndGlyphs" textLength="112" x="364" y="236.062">getMaxPlayers(): int</text><ellipse cx="355" cy="245.6563" fill="#84BE84" rx="3" ry="3" style="stroke:#038048;stroke-width:1.0;"/><text fill="#000000" font-family="sans-serif" font-size="11" lengthAdjust="spacingAndGlyphs" textLength="136" x="364" y="248.8667">equals(Object): boolean</text><!--MD5=[f2254b5fdbf93effa50eb20dc057829b]
class tictactoe.models.Board--><rect codeLine="28" fill="#FEFECE" filter="url(#f1s90dtzyxzwhu)" height="201.6563" id="tictactoe.models.Board" style="stroke:#A80036;stroke-width:1.5;" width="262" x="269.5" y="800"/><ellipse cx="378.25" cy="816" fill="#ADD1B2" rx="11" ry="11" style="stroke:#A80036;stroke-width:1.0;"/><path d="M380.5938,811.6719 C379.6563,811.2344 379.0625,811.0938 378.1875,811.0938 C375.5625,811.0938 373.5625,813.1719 373.5625,815.8906 L373.5625,817.0156 C373.5625,819.5938 375.6719,821.4844 378.5625,821.4844 C379.7813,821.4844 380.9375,821.1875 381.6875,820.6406 C382.2656,820.2344 382.5938,819.7813 382.5938,819.3906 C382.5938,818.9375 382.2031,818.5469 381.7344,818.5469 C381.5156,818.5469 381.3125,818.625 381.125,818.8125 C380.6719,819.2969 380.6719,819.2969 380.4844,819.3906 C380.0625,819.6563 379.375,819.7813 378.6094,819.7813 C376.5625,819.7813 375.2656,818.6875 375.2656,816.9844 L375.2656,815.8906 C375.2656,814.1094 376.5156,812.7969 378.25,812.7969 C378.8281,812.7969 379.4375,812.9531 379.9063,813.2031 C380.3906,813.4844 380.5625,813.7031 380.6563,814.1094 C380.7188,814.5156 380.75,814.6406 380.8906,814.7656 C381.0313,814.9063 381.2656,815.0156 381.4844,815.0156 C381.75,815.0156 382.0156,814.875 382.1875,814.6563 C382.2969,814.5 382.3281,814.3125 382.3281,813.8906 L382.3281,812.4688 C382.3281,812.0313 382.3125,811.9063 382.2188,811.75 C382.0625,811.4844 381.7813,811.3438 381.4844,811.3438 C381.1875,811.3438 380.9844,811.4375 380.7656,811.75 L380.5938,811.6719 Z " fill="#000000"/><text fill="#000000" font-family="sans-serif" font-size="12" lengthAdjust="spacingAndGlyphs" textLength="36" x="398.75" y="820.1543">Board</text><line style="stroke:#A80036;stroke-width:1.5;" x1="270.5" x2="530.5" y1="832" y2="832"/><line style="stroke:#A80036;stroke-width:1.5;" x1="270.5" x2="530.5" y1="840" y2="840"/><polygon fill="#4177AF" points="280.5,847,276.5,853,284.5,853" style="stroke:#1963A0;stroke-width:1.0;"/><text fill="#000000" font-family="sans-serif" font-size="11" lengthAdjust="spacingAndGlyphs" textLength="41" x="289.5" y="854.2104">Board()</text><rect fill="#F24D5C" height="6" style="stroke:#C82930;stroke-width:1.0;" width="6" x="277.5" y="860.8047"/><text fill="#000000" font-family="sans-serif" font-size="11" lengthAdjust="spacingAndGlyphs" textLength="74" x="289.5" y="867.0151">Board(Board)</text><polygon fill="#4177AF" points="280.5,872.6094,276.5,878.6094,284.5,878.6094" style="stroke:#1963A0;stroke-width:1.0;"/><text fill="#000000" font-family="sans-serif" font-size="11" lengthAdjust="spacingAndGlyphs" textLength="75" x="289.5" y="879.8198">copy(): Board</text><polygon fill="#4177AF" points="280.5,885.4141,276.5,891.4141,284.5,891.4141" style="stroke:#1963A0;stroke-width:1.0;"/><text fill="#000000" font-family="sans-serif" font-size="11" lengthAdjust="spacingAndGlyphs" textLength="166" x="289.5" y="892.6245">getToken(Coordinate): Token</text><polygon fill="#4177AF" points="280.5,898.2188,276.5,904.2188,284.5,904.2188" style="stroke:#1963A0;stroke-width:1.0;"/><text fill="#000000" font-family="sans-serif" font-size="11" lengthAdjust="spacingAndGlyphs" textLength="130" x="289.5" y="905.4292">put(Coordinate, Token)</text><polygon fill="#4177AF" points="280.5,911.0234,276.5,917.0234,284.5,917.0234" style="stroke:#1963A0;stroke-width:1.0;"/><text fill="#000000" font-family="sans-serif" font-size="11" lengthAdjust="spacingAndGlyphs" textLength="172" x="289.5" y="918.2339">move(Coordinate, Coordinate)</text><polygon fill="#4177AF" points="280.5,923.8281,276.5,929.8281,284.5,929.8281" style="stroke:#1963A0;stroke-width:1.0;"/><text fill="#000000" font-family="sans-serif" font-size="11" lengthAdjust="spacingAndGlyphs" textLength="133" x="289.5" y="931.0386">isCompleted(): boolean</text><polygon fill="#4177AF" points="280.5,936.6328,276.5,942.6328,284.5,942.6328" style="stroke:#1963A0;stroke-width:1.0;"/><text fill="#000000" font-family="sans-serif" font-size="11" lengthAdjust="spacingAndGlyphs" textLength="227" x="289.5" y="943.8433">isOccupied(Coordinate, Token): boolean</text><polygon fill="#4177AF" points="280.5,949.4375,276.5,955.4375,284.5,955.4375" style="stroke:#1963A0;stroke-width:1.0;"/><text fill="#000000" font-family="sans-serif" font-size="11" lengthAdjust="spacingAndGlyphs" textLength="168" x="289.5" y="956.6479">isEmpty(Coordinate): boolean</text><polygon fill="#4177AF" points="280.5,962.2422,276.5,968.2422,284.5,968.2422" style="stroke:#1963A0;stroke-width:1.0;"/><text fill="#000000" font-family="sans-serif" font-size="11" lengthAdjust="spacingAndGlyphs" textLength="163" x="289.5" y="969.4526">isTicTacToe(Token): boolean</text><rect fill="#F24D5C" height="6" style="stroke:#C82930;stroke-width:1.0;" width="6" x="277.5" y="976.0469"/><text fill="#000000" font-family="sans-serif" font-size="11" lengthAdjust="spacingAndGlyphs" textLength="236" x="289.5" y="982.2573">getCoordinates(Token): List&lt;Coordinate&gt;</text><ellipse cx="280.5" cy="991.8516" fill="#84BE84" rx="3" ry="3" style="stroke:#038048;stroke-width:1.0;"/><text fill="#000000" font-family="sans-serif" font-size="11" lengthAdjust="spacingAndGlyphs" textLength="136" x="289.5" y="995.062">equals(Object): boolean</text><!--MD5=[b42b9147ed7462532394f7fe6f96703d]
class tictactoe.models.Turn--><rect codeLine="47" fill="#FEFECE" filter="url(#f1s90dtzyxzwhu)" height="240.0703" id="tictactoe.models.Turn" style="stroke:#A80036;stroke-width:1.5;" width="231" x="344" y="315"/><ellipse cx="442.25" cy="331" fill="#ADD1B2" rx="11" ry="11" style="stroke:#A80036;stroke-width:1.0;"/><path d="M444.5938,326.6719 C443.6563,326.2344 443.0625,326.0938 442.1875,326.0938 C439.5625,326.0938 437.5625,328.1719 437.5625,330.8906 L437.5625,332.0156 C437.5625,334.5938 439.6719,336.4844 442.5625,336.4844 C443.7813,336.4844 444.9375,336.1875 445.6875,335.6406 C446.2656,335.2344 446.5938,334.7813 446.5938,334.3906 C446.5938,333.9375 446.2031,333.5469 445.7344,333.5469 C445.5156,333.5469 445.3125,333.625 445.125,333.8125 C444.6719,334.2969 444.6719,334.2969 444.4844,334.3906 C444.0625,334.6563 443.375,334.7813 442.6094,334.7813 C440.5625,334.7813 439.2656,333.6875 439.2656,331.9844 L439.2656,330.8906 C439.2656,329.1094 440.5156,327.7969 442.25,327.7969 C442.8281,327.7969 443.4375,327.9531 443.9063,328.2031 C444.3906,328.4844 444.5625,328.7031 444.6563,329.1094 C444.7188,329.5156 444.75,329.6406 444.8906,329.7656 C445.0313,329.9063 445.2656,330.0156 445.4844,330.0156 C445.75,330.0156 446.0156,329.875 446.1875,329.6563 C446.2969,329.5 446.3281,329.3125 446.3281,328.8906 L446.3281,327.4688 C446.3281,327.0313 446.3125,326.9063 446.2188,326.75 C446.0625,326.4844 445.7813,326.3438 445.4844,326.3438 C445.1875,326.3438 444.9844,326.4375 444.7656,326.75 L444.5938,326.6719 Z " fill="#000000"/><text fill="#000000" font-family="sans-serif" font-size="12" lengthAdjust="spacingAndGlyphs" textLength="26" x="462.75" y="335.1543">Turn</text><line style="stroke:#A80036;stroke-width:1.5;" x1="345" x2="574" y1="347" y2="347"/><ellipse cx="355" cy="358" fill="none" rx="3" ry="3" style="stroke:#038048;stroke-width:1.0;"/><text fill="#000000" font-family="sans-serif" font-size="11" lengthAdjust="spacingAndGlyphs" text-decoration="underline" textLength="101" x="364" y="361.2104">NUM_PLAYERS: int</text><rect fill="none" height="6" style="stroke:#C82930;stroke-width:1.0;" width="6" x="352" y="367.8047"/><text fill="#000000" font-family="sans-serif" font-size="11" lengthAdjust="spacingAndGlyphs" textLength="91" x="364" y="374.0151">activePlayer: int</text><rect fill="none" height="6" style="stroke:#C82930;stroke-width:1.0;" width="6" x="352" y="380.6094"/><text fill="#000000" font-family="sans-serif" font-size="11" lengthAdjust="spacingAndGlyphs" textLength="52" x="364" y="386.8198">users: int</text><line style="stroke:#A80036;stroke-width:1.5;" x1="345" x2="574" y1="393.4141" y2="393.4141"/><polygon fill="#4177AF" points="355,400.4141,351,406.4141,359,406.4141" style="stroke:#1963A0;stroke-width:1.0;"/><text fill="#000000" font-family="sans-serif" font-size="11" lengthAdjust="spacingAndGlyphs" textLength="66" x="364" y="407.6245">Turn(Board)</text><ellipse cx="355" cy="417.2188" fill="#84BE84" rx="3" ry="3" style="stroke:#038048;stroke-width:1.0;"/><text fill="#000000" font-family="sans-serif" font-size="11" lengthAdjust="spacingAndGlyphs" textLength="98" x="364" y="420.4292">Turn(Turn, Board)</text><ellipse cx="355" cy="430.0234" fill="#84BE84" rx="3" ry="3" style="stroke:#038048;stroke-width:1.0;"/><text fill="#000000" font-family="sans-serif" font-size="11" lengthAdjust="spacingAndGlyphs" textLength="100" x="364" y="433.2339">copy(Board): Turn</text><polygon fill="#4177AF" points="355,438.8281,351,444.8281,359,444.8281" style="stroke:#1963A0;stroke-width:1.0;"/><text fill="#000000" font-family="sans-serif" font-size="11" lengthAdjust="spacingAndGlyphs" textLength="72" x="364" y="446.0386">setUsers(int)</text><polygon fill="#4177AF" points="355,451.6328,351,457.6328,359,457.6328" style="stroke:#1963A0;stroke-width:1.0;"/><text fill="#000000" font-family="sans-serif" font-size="11" lengthAdjust="spacingAndGlyphs" textLength="40" x="364" y="458.8433">set(int)</text><polygon fill="#4177AF" points="355,464.4375,351,470.4375,359,470.4375" style="stroke:#1963A0;stroke-width:1.0;"/><text fill="#000000" font-family="sans-serif" font-size="11" lengthAdjust="spacingAndGlyphs" textLength="34" x="364" y="471.6479">next()</text><polygon fill="#4177AF" points="355,477.2422,351,483.2422,359,483.2422" style="stroke:#1963A0;stroke-width:1.0;"/><text fill="#000000" font-family="sans-serif" font-size="11" lengthAdjust="spacingAndGlyphs" textLength="96" x="364" y="484.4526">isUser(): boolean</text><polygon fill="#4177AF" points="355,490.0469,351,496.0469,359,496.0469" style="stroke:#1963A0;stroke-width:1.0;"/><text fill="#000000" font-family="sans-serif" font-size="11" lengthAdjust="spacingAndGlyphs" textLength="121" x="364" y="497.2573">put(Coordinate): Error</text><rect fill="#F24D5C" height="6" style="stroke:#C82930;stroke-width:1.0;" width="6" x="352" y="503.8516"/><text fill="#000000" font-family="sans-serif" font-size="11" lengthAdjust="spacingAndGlyphs" textLength="104" x="364" y="510.062">getPlayer(): Player</text><polygon fill="#4177AF" points="355,515.6563,351,521.6563,359,521.6563" style="stroke:#1963A0;stroke-width:1.0;"/><text fill="#000000" font-family="sans-serif" font-size="11" lengthAdjust="spacingAndGlyphs" textLength="205" x="364" y="522.8667">move(Coordinate, Coordinate): Error</text><polygon fill="#4177AF" points="355,528.4609,351,534.4609,359,534.4609" style="stroke:#1963A0;stroke-width:1.0;"/><text fill="#000000" font-family="sans-serif" font-size="11" lengthAdjust="spacingAndGlyphs" textLength="104" x="364" y="535.6714">getToken(): Token</text><ellipse cx="355" cy="545.2656" fill="#84BE84" rx="3" ry="3" style="stroke:#038048;stroke-width:1.0;"/><text fill="#000000" font-family="sans-serif" font-size="11" lengthAdjust="spacingAndGlyphs" textLength="83" x="364" y="548.4761">equals(Object)</text><!--MD5=[55d70ecb9e3ba4786ec1f15d0b7dce13]
class tictactoe.models.Coordinate--><rect codeLine="71" fill="#FEFECE" filter="url(#f1s90dtzyxzwhu)" height="150.4375" id="tictactoe.models.Coordinate" style="stroke:#A80036;stroke-width:1.5;" width="224" x="195.5" y="1062"/><ellipse cx="270.25" cy="1078" fill="#ADD1B2" rx="11" ry="11" style="stroke:#A80036;stroke-width:1.0;"/><path d="M272.5938,1073.6719 C271.6563,1073.2344 271.0625,1073.0938 270.1875,1073.0938 C267.5625,1073.0938 265.5625,1075.1719 265.5625,1077.8906 L265.5625,1079.0156 C265.5625,1081.5938 267.6719,1083.4844 270.5625,1083.4844 C271.7813,1083.4844 272.9375,1083.1875 273.6875,1082.6406 C274.2656,1082.2344 274.5938,1081.7813 274.5938,1081.3906 C274.5938,1080.9375 274.2031,1080.5469 273.7344,1080.5469 C273.5156,1080.5469 273.3125,1080.625 273.125,1080.8125 C272.6719,1081.2969 272.6719,1081.2969 272.4844,1081.3906 C272.0625,1081.6563 271.375,1081.7813 270.6094,1081.7813 C268.5625,1081.7813 267.2656,1080.6875 267.2656,1078.9844 L267.2656,1077.8906 C267.2656,1076.1094 268.5156,1074.7969 270.25,1074.7969 C270.8281,1074.7969 271.4375,1074.9531 271.9063,1075.2031 C272.3906,1075.4844 272.5625,1075.7031 272.6563,1076.1094 C272.7188,1076.5156 272.75,1076.6406 272.8906,1076.7656 C273.0313,1076.9063 273.2656,1077.0156 273.4844,1077.0156 C273.75,1077.0156 274.0156,1076.875 274.1875,1076.6563 C274.2969,1076.5 274.3281,1076.3125 274.3281,1075.8906 L274.3281,1074.4688 C274.3281,1074.0313 274.3125,1073.9063 274.2188,1073.75 C274.0625,1073.4844 273.7813,1073.3438 273.4844,1073.3438 C273.1875,1073.3438 272.9844,1073.4375 272.7656,1073.75 L272.5938,1073.6719 Z " fill="#000000"/><text fill="#000000" font-family="sans-serif" font-size="12" lengthAdjust="spacingAndGlyphs" textLength="66" x="290.75" y="1082.1543">Coordinate</text><line style="stroke:#A80036;stroke-width:1.5;" x1="196.5" x2="418.5" y1="1094" y2="1094"/><polygon fill="none" points="206.5,1101,202.5,1107,210.5,1107" style="stroke:#1963A0;stroke-width:1.0;"/><text fill="#000000" font-family="sans-serif" font-size="11" lengthAdjust="spacingAndGlyphs" text-decoration="underline" textLength="178" x="215.5" y="1108.2104">NULL_COORDINATE: Coordinate</text><ellipse cx="206.5" cy="1117.8047" fill="none" rx="3" ry="3" style="stroke:#038048;stroke-width:1.0;"/><text fill="#000000" font-family="sans-serif" font-size="11" lengthAdjust="spacingAndGlyphs" text-decoration="underline" textLength="85" x="215.5" y="1121.0151">DIMENSION: int</text><line style="stroke:#A80036;stroke-width:1.5;" x1="196.5" x2="418.5" y1="1127.6094" y2="1127.6094"/><ellipse cx="206.5" cy="1138.6094" fill="#84BE84" rx="3" ry="3" style="stroke:#038048;stroke-width:1.0;"/><text fill="#000000" font-family="sans-serif" font-size="11" lengthAdjust="spacingAndGlyphs" textLength="70" x="215.5" y="1141.8198">Coordinate()</text><ellipse cx="206.5" cy="1151.4141" fill="#84BE84" rx="3" ry="3" style="stroke:#038048;stroke-width:1.0;"/><text fill="#000000" font-family="sans-serif" font-size="11" lengthAdjust="spacingAndGlyphs" textLength="105" x="215.5" y="1154.6245">Coordinate(int, int)</text><ellipse cx="206.5" cy="1164.2188" fill="#84BE84" rx="3" ry="3" style="stroke:#038048;stroke-width:1.0;"/><text fill="#000000" font-family="sans-serif" font-size="11" lengthAdjust="spacingAndGlyphs" textLength="91" x="215.5" y="1167.4292">isNull(): boolean</text><ellipse cx="206.5" cy="1177.0234" fill="#84BE84" rx="3" ry="3" style="stroke:#038048;stroke-width:1.0;"/><text fill="#000000" font-family="sans-serif" font-size="11" lengthAdjust="spacingAndGlyphs" textLength="198" x="215.5" y="1180.2339">getDirection(Coordinate): Direction</text><rect fill="#F24D5C" height="6" style="stroke:#C82930;stroke-width:1.0;" width="6" x="203.5" y="1186.8281"/><text fill="#000000" font-family="sans-serif" font-size="11" lengthAdjust="spacingAndGlyphs" textLength="164" x="215.5" y="1193.0386">inInverseDiagonal(): boolean</text><ellipse cx="206.5" cy="1202.6328" fill="#84BE84" rx="3" ry="3" style="stroke:#038048;stroke-width:1.0;"/><text fill="#000000" font-family="sans-serif" font-size="11" lengthAdjust="spacingAndGlyphs" textLength="51" x="215.5" y="1205.8433">random()</text><!--MD5=[3b54484399e9c5d8797124604fd4af65]
class tictactoe.models.Player--><rect codeLine="86" fill="#FEFECE" filter="url(#f1s90dtzyxzwhu)" height="124.8281" id="tictactoe.models.Player" style="stroke:#A80036;stroke-width:1.5;" width="231" x="344" y="615"/><ellipse cx="437.25" cy="631" fill="#ADD1B2" rx="11" ry="11" style="stroke:#A80036;stroke-width:1.0;"/><path d="M439.5938,626.6719 C438.6563,626.2344 438.0625,626.0938 437.1875,626.0938 C434.5625,626.0938 432.5625,628.1719 432.5625,630.8906 L432.5625,632.0156 C432.5625,634.5938 434.6719,636.4844 437.5625,636.4844 C438.7813,636.4844 439.9375,636.1875 440.6875,635.6406 C441.2656,635.2344 441.5938,634.7813 441.5938,634.3906 C441.5938,633.9375 441.2031,633.5469 440.7344,633.5469 C440.5156,633.5469 440.3125,633.625 440.125,633.8125 C439.6719,634.2969 439.6719,634.2969 439.4844,634.3906 C439.0625,634.6563 438.375,634.7813 437.6094,634.7813 C435.5625,634.7813 434.2656,633.6875 434.2656,631.9844 L434.2656,630.8906 C434.2656,629.1094 435.5156,627.7969 437.25,627.7969 C437.8281,627.7969 438.4375,627.9531 438.9063,628.2031 C439.3906,628.4844 439.5625,628.7031 439.6563,629.1094 C439.7188,629.5156 439.75,629.6406 439.8906,629.7656 C440.0313,629.9063 440.2656,630.0156 440.4844,630.0156 C440.75,630.0156 441.0156,629.875 441.1875,629.6563 C441.2969,629.5 441.3281,629.3125 441.3281,628.8906 L441.3281,627.4688 C441.3281,627.0313 441.3125,626.9063 441.2188,626.75 C441.0625,626.4844 440.7813,626.3438 440.4844,626.3438 C440.1875,626.3438 439.9844,626.4375 439.7656,626.75 L439.5938,626.6719 Z " fill="#000000"/><text fill="#000000" font-family="sans-serif" font-size="12" lengthAdjust="spacingAndGlyphs" textLength="36" x="457.75" y="635.1543">Player</text><line style="stroke:#A80036;stroke-width:1.5;" x1="345" x2="574" y1="647" y2="647"/><line style="stroke:#A80036;stroke-width:1.5;" x1="345" x2="574" y1="655" y2="655"/><polygon fill="#4177AF" points="355,662,351,668,359,668" style="stroke:#1963A0;stroke-width:1.0;"/><text fill="#000000" font-family="sans-serif" font-size="11" lengthAdjust="spacingAndGlyphs" textLength="118" x="364" y="669.2104">Player(Token, Board)</text><polygon fill="#4177AF" points="355,674.8047,351,680.8047,359,680.8047" style="stroke:#1963A0;stroke-width:1.0;"/><text fill="#000000" font-family="sans-serif" font-size="11" lengthAdjust="spacingAndGlyphs" textLength="121" x="364" y="682.0151">put(Coordinate): Error</text><polygon fill="#4177AF" points="355,687.6094,351,693.6094,359,693.6094" style="stroke:#1963A0;stroke-width:1.0;"/><text fill="#000000" font-family="sans-serif" font-size="11" lengthAdjust="spacingAndGlyphs" textLength="205" x="364" y="694.8198">move(Coordinate, Coordinate): Error</text><polygon fill="#4177AF" points="355,700.4141,351,706.4141,359,706.4141" style="stroke:#1963A0;stroke-width:1.0;"/><text fill="#000000" font-family="sans-serif" font-size="11" lengthAdjust="spacingAndGlyphs" textLength="104" x="364" y="707.6245">getToken(): Token</text><ellipse cx="355" cy="717.2188" fill="#84BE84" rx="3" ry="3" style="stroke:#038048;stroke-width:1.0;"/><text fill="#000000" font-family="sans-serif" font-size="11" lengthAdjust="spacingAndGlyphs" textLength="110" x="364" y="720.4292">copy(Board): Player</text><ellipse cx="355" cy="730.0234" fill="#84BE84" rx="3" ry="3" style="stroke:#038048;stroke-width:1.0;"/><text fill="#000000" font-family="sans-serif" font-size="11" lengthAdjust="spacingAndGlyphs" textLength="136" x="364" y="733.2339">equals(Object): boolean</text><!--MD5=[f0e50675208408ddbf1ed7a91f4eb071]
class ClosedInterval--><rect codeLine="1" fill="#FEFECE" filter="url(#f1s90dtzyxzwhu)" height="67.9063" id="ClosedInterval" style="stroke:#A80036;stroke-width:1.5;" width="118" x="248.5" y="1272"/><ellipse cx="263.5" cy="1297.9531" fill="#ADD1B2" rx="11" ry="11" style="stroke:#A80036;stroke-width:1.0;"/><path d="M265.8438,1293.625 C264.9063,1293.1875 264.3125,1293.0469 263.4375,1293.0469 C260.8125,1293.0469 258.8125,1295.125 258.8125,1297.8438 L258.8125,1298.9688 C258.8125,1301.5469 260.9219,1303.4375 263.8125,1303.4375 C265.0313,1303.4375 266.1875,1303.1406 266.9375,1302.5938 C267.5156,1302.1875 267.8438,1301.7344 267.8438,1301.3438 C267.8438,1300.8906 267.4531,1300.5 266.9844,1300.5 C266.7656,1300.5 266.5625,1300.5781 266.375,1300.7656 C265.9219,1301.25 265.9219,1301.25 265.7344,1301.3438 C265.3125,1301.6094 264.625,1301.7344 263.8594,1301.7344 C261.8125,1301.7344 260.5156,1300.6406 260.5156,1298.9375 L260.5156,1297.8438 C260.5156,1296.0625 261.7656,1294.75 263.5,1294.75 C264.0781,1294.75 264.6875,1294.9063 265.1563,1295.1563 C265.6406,1295.4375 265.8125,1295.6563 265.9063,1296.0625 C265.9688,1296.4688 266,1296.5938 266.1406,1296.7188 C266.2813,1296.8594 266.5156,1296.9688 266.7344,1296.9688 C267,1296.9688 267.2656,1296.8281 267.4375,1296.6094 C267.5469,1296.4531 267.5781,1296.2656 267.5781,1295.8438 L267.5781,1294.4219 C267.5781,1293.9844 267.5625,1293.8594 267.4688,1293.7031 C267.3125,1293.4375 267.0313,1293.2969 266.7344,1293.2969 C266.4375,1293.2969 266.2344,1293.3906 266.0156,1293.7031 L265.8438,1293.625 Z " fill="#000000"/><text fill="#000000" font-family="sans-serif" font-size="12" lengthAdjust="spacingAndGlyphs" textLength="71" x="285" y="1288.1387">usantatecla.</text><text fill="#000000" font-family="sans-serif" font-size="12" lengthAdjust="spacingAndGlyphs" textLength="27" x="307" y="1302.1074">utils.</text><text fill="#000000" font-family="sans-serif" font-size="12" lengthAdjust="spacingAndGlyphs" textLength="86" x="277.5" y="1316.0762">ClosedInterval</text><line style="stroke:#A80036;stroke-width:1.5;" x1="249.5" x2="365.5" y1="1323.9063" y2="1323.9063"/><line style="stroke:#A80036;stroke-width:1.5;" x1="249.5" x2="365.5" y1="1331.9063" y2="1331.9063"/><!--MD5=[4ac948797cb0d646e058fac8f0726737]
class ConcreteCoordinate--><rect codeLine="2" fill="#FEFECE" filter="url(#f1s90dtzyxzwhu)" height="67.9063" id="ConcreteCoordinate" style="stroke:#A80036;stroke-width:1.5;" width="153" x="7" y="867"/><ellipse cx="22" cy="892.9531" fill="#ADD1B2" rx="11" ry="11" style="stroke:#A80036;stroke-width:1.0;"/><path d="M24.3438,888.625 C23.4063,888.1875 22.8125,888.0469 21.9375,888.0469 C19.3125,888.0469 17.3125,890.125 17.3125,892.8438 L17.3125,893.9688 C17.3125,896.5469 19.4219,898.4375 22.3125,898.4375 C23.5313,898.4375 24.6875,898.1406 25.4375,897.5938 C26.0156,897.1875 26.3438,896.7344 26.3438,896.3438 C26.3438,895.8906 25.9531,895.5 25.4844,895.5 C25.2656,895.5 25.0625,895.5781 24.875,895.7656 C24.4219,896.25 24.4219,896.25 24.2344,896.3438 C23.8125,896.6094 23.125,896.7344 22.3594,896.7344 C20.3125,896.7344 19.0156,895.6406 19.0156,893.9375 L19.0156,892.8438 C19.0156,891.0625 20.2656,889.75 22,889.75 C22.5781,889.75 23.1875,889.9063 23.6563,890.1563 C24.1406,890.4375 24.3125,890.6563 24.4063,891.0625 C24.4688,891.4688 24.5,891.5938 24.6406,891.7188 C24.7813,891.8594 25.0156,891.9688 25.2344,891.9688 C25.5,891.9688 25.7656,891.8281 25.9375,891.6094 C26.0469,891.4531 26.0781,891.2656 26.0781,890.8438 L26.0781,889.4219 C26.0781,888.9844 26.0625,888.8594 25.9688,888.7031 C25.8125,888.4375 25.5313,888.2969 25.2344,888.2969 C24.9375,888.2969 24.7344,888.3906 24.5156,888.7031 L24.3438,888.625 Z " fill="#000000"/><text fill="#000000" font-family="sans-serif" font-size="12" lengthAdjust="spacingAndGlyphs" textLength="71" x="61" y="883.1387">usantatecla.</text><text fill="#000000" font-family="sans-serif" font-size="12" lengthAdjust="spacingAndGlyphs" textLength="27" x="83" y="897.1074">utils.</text><text fill="#000000" font-family="sans-serif" font-size="12" lengthAdjust="spacingAndGlyphs" textLength="121" x="36" y="911.0762">ConcreteCoordinate</text><line style="stroke:#A80036;stroke-width:1.5;" x1="8" x2="159" y1="918.9063" y2="918.9063"/><line style="stroke:#A80036;stroke-width:1.5;" x1="8" x2="159" y1="926.9063" y2="926.9063"/><!--MD5=[02f7077ed79257124e28b791f351f1d7]
class Direction--><rect codeLine="3" fill="#FEFECE" filter="url(#f1s90dtzyxzwhu)" height="67.9063" id="Direction" style="stroke:#A80036;stroke-width:1.5;" width="103" x="409" y="1272"/><ellipse cx="424" cy="1297.9531" fill="#ADD1B2" rx="11" ry="11" style="stroke:#A80036;stroke-width:1.0;"/><path d="M426.3438,1293.625 C425.4063,1293.1875 424.8125,1293.0469 423.9375,1293.0469 C421.3125,1293.0469 419.3125,1295.125 419.3125,1297.8438 L419.3125,1298.9688 C419.3125,1301.5469 421.4219,1303.4375 424.3125,1303.4375 C425.5313,1303.4375 426.6875,1303.1406 427.4375,1302.5938 C428.0156,1302.1875 428.3438,1301.7344 428.3438,1301.3438 C428.3438,1300.8906 427.9531,1300.5 427.4844,1300.5 C427.2656,1300.5 427.0625,1300.5781 426.875,1300.7656 C426.4219,1301.25 426.4219,1301.25 426.2344,1301.3438 C425.8125,1301.6094 425.125,1301.7344 424.3594,1301.7344 C422.3125,1301.7344 421.0156,1300.6406 421.0156,1298.9375 L421.0156,1297.8438 C421.0156,1296.0625 422.2656,1294.75 424,1294.75 C424.5781,1294.75 425.1875,1294.9063 425.6563,1295.1563 C426.1406,1295.4375 426.3125,1295.6563 426.4063,1296.0625 C426.4688,1296.4688 426.5,1296.5938 426.6406,1296.7188 C426.7813,1296.8594 427.0156,1296.9688 427.2344,1296.9688 C427.5,1296.9688 427.7656,1296.8281 427.9375,1296.6094 C428.0469,1296.4531 428.0781,1296.2656 428.0781,1295.8438 L428.0781,1294.4219 C428.0781,1293.9844 428.0625,1293.8594 427.9688,1293.7031 C427.8125,1293.4375 427.5313,1293.2969 427.2344,1293.2969 C426.9375,1293.2969 426.7344,1293.3906 426.5156,1293.7031 L426.3438,1293.625 Z " fill="#000000"/><text fill="#000000" font-family="sans-serif" font-size="12" lengthAdjust="spacingAndGlyphs" textLength="71" x="438" y="1288.1387">usantatecla.</text><text fill="#000000" font-family="sans-serif" font-size="12" lengthAdjust="spacingAndGlyphs" textLength="27" x="460" y="1302.1074">utils.</text><text fill="#000000" font-family="sans-serif" font-size="12" lengthAdjust="spacingAndGlyphs" textLength="54" x="446.5" y="1316.0762">Direction</text><line style="stroke:#A80036;stroke-width:1.5;" x1="410" x2="511" y1="1323.9063" y2="1323.9063"/><line style="stroke:#A80036;stroke-width:1.5;" x1="410" x2="511" y1="1331.9063" y2="1331.9063"/><!--MD5=[b8cfd8c4119a3b0a7a46bfc5fc780f85]
class Error--><rect codeLine="4" fill="#FEFECE" filter="url(#f1s90dtzyxzwhu)" height="67.9063" id="Error" style="stroke:#A80036;stroke-width:1.5;" width="124" x="554.5" y="1272"/><ellipse cx="569.5" cy="1297.9531" fill="#EB937F" rx="11" ry="11" style="stroke:#A80036;stroke-width:1.0;"/><path d="M568.2969,1298.8281 L569.75,1298.8281 L569.75,1298.9375 C569.75,1299.3438 569.7813,1299.5 569.8594,1299.6563 C570.0156,1299.9063 570.2969,1300.0625 570.5938,1300.0625 C570.8438,1300.0625 571.1094,1299.9219 571.2656,1299.7031 C571.3906,1299.5469 571.4219,1299.3906 571.4219,1298.9375 L571.4219,1297.0156 C571.4219,1296.8594 571.4219,1296.8125 571.4063,1296.6563 C571.3438,1296.1875 571.0313,1295.875 570.5781,1295.875 C570.3281,1295.875 570.0625,1296.0156 569.8906,1296.2344 C569.7813,1296.4063 569.75,1296.5625 569.75,1297.0156 L569.75,1297.1406 L568.2969,1297.1406 L568.2969,1294.7344 L572.2813,1294.7344 L572.2813,1295.5938 C572.2813,1296 572.3125,1296.1719 572.3906,1296.3281 C572.5625,1296.5781 572.8438,1296.7344 573.125,1296.7344 C573.3906,1296.7344 573.6563,1296.5938 573.8281,1296.375 C573.9375,1296.2031 573.9688,1296.0625 573.9688,1295.5938 L573.9688,1293.0469 L566.3438,1293.0469 C565.9063,1293.0469 565.7813,1293.0625 565.625,1293.1563 C565.375,1293.3125 565.2188,1293.6094 565.2188,1293.8906 C565.2188,1294.1719 565.3594,1294.4219 565.5781,1294.5938 C565.7344,1294.7031 565.9219,1294.7344 566.3438,1294.7344 L566.5938,1294.7344 L566.5938,1301.25 L566.3438,1301.25 C565.9375,1301.25 565.7813,1301.2656 565.625,1301.375 C565.375,1301.5469 565.2188,1301.8125 565.2188,1302.1094 C565.2188,1302.375 565.3594,1302.625 565.5781,1302.7813 C565.7188,1302.9063 565.9531,1302.9531 566.3438,1302.9531 L574.3438,1302.9531 L574.3438,1300.375 C574.3438,1299.9375 574.3125,1299.7969 574.2344,1299.6406 C574.0625,1299.3906 573.7813,1299.2344 573.5,1299.2344 C573.2344,1299.2344 572.9688,1299.3438 572.7969,1299.5938 C572.6875,1299.75 572.6563,1299.8906 572.6563,1300.375 L572.6563,1301.25 L568.2969,1301.25 L568.2969,1298.8281 Z " fill="#000000"/><text fill="#000000" font-family="sans-serif" font-size="12" lengthAdjust="spacingAndGlyphs" textLength="71" x="594" y="1288.1387">usantatecla.</text><text fill="#000000" font-family="sans-serif" font-size="12" lengthAdjust="spacingAndGlyphs" textLength="92" x="583.5" y="1302.1074">tictactoe.types.</text><text fill="#000000" font-family="sans-serif" font-size="12" lengthAdjust="spacingAndGlyphs" textLength="30" x="614.5" y="1316.0762">Error</text><line style="stroke:#A80036;stroke-width:1.5;" x1="555.5" x2="677.5" y1="1323.9063" y2="1323.9063"/><line style="stroke:#A80036;stroke-width:1.5;" x1="555.5" x2="677.5" y1="1331.9063" y2="1331.9063"/><!--MD5=[d8c8cfd5ca149094f5b67f9f607a5ec7]
class Token--><rect codeLine="5" fill="#FEFECE" filter="url(#f1s90dtzyxzwhu)" height="67.9063" id="Token" style="stroke:#A80036;stroke-width:1.5;" width="124" x="665.5" y="1103"/><ellipse cx="680.5" cy="1128.9531" fill="#EB937F" rx="11" ry="11" style="stroke:#A80036;stroke-width:1.0;"/><path d="M679.2969,1129.8281 L680.75,1129.8281 L680.75,1129.9375 C680.75,1130.3438 680.7813,1130.5 680.8594,1130.6563 C681.0156,1130.9063 681.2969,1131.0625 681.5938,1131.0625 C681.8438,1131.0625 682.1094,1130.9219 682.2656,1130.7031 C682.3906,1130.5469 682.4219,1130.3906 682.4219,1129.9375 L682.4219,1128.0156 C682.4219,1127.8594 682.4219,1127.8125 682.4063,1127.6563 C682.3438,1127.1875 682.0313,1126.875 681.5781,1126.875 C681.3281,1126.875 681.0625,1127.0156 680.8906,1127.2344 C680.7813,1127.4063 680.75,1127.5625 680.75,1128.0156 L680.75,1128.1406 L679.2969,1128.1406 L679.2969,1125.7344 L683.2813,1125.7344 L683.2813,1126.5938 C683.2813,1127 683.3125,1127.1719 683.3906,1127.3281 C683.5625,1127.5781 683.8438,1127.7344 684.125,1127.7344 C684.3906,1127.7344 684.6563,1127.5938 684.8281,1127.375 C684.9375,1127.2031 684.9688,1127.0625 684.9688,1126.5938 L684.9688,1124.0469 L677.3438,1124.0469 C676.9063,1124.0469 676.7813,1124.0625 676.625,1124.1563 C676.375,1124.3125 676.2188,1124.6094 676.2188,1124.8906 C676.2188,1125.1719 676.3594,1125.4219 676.5781,1125.5938 C676.7344,1125.7031 676.9219,1125.7344 677.3438,1125.7344 L677.5938,1125.7344 L677.5938,1132.25 L677.3438,1132.25 C676.9375,1132.25 676.7813,1132.2656 676.625,1132.375 C676.375,1132.5469 676.2188,1132.8125 676.2188,1133.1094 C676.2188,1133.375 676.3594,1133.625 676.5781,1133.7813 C676.7188,1133.9063 676.9531,1133.9531 677.3438,1133.9531 L685.3438,1133.9531 L685.3438,1131.375 C685.3438,1130.9375 685.3125,1130.7969 685.2344,1130.6406 C685.0625,1130.3906 684.7813,1130.2344 684.5,1130.2344 C684.2344,1130.2344 683.9688,1130.3438 683.7969,1130.5938 C683.6875,1130.75 683.6563,1130.8906 683.6563,1131.375 L683.6563,1132.25 L679.2969,1132.25 L679.2969,1129.8281 Z " fill="#000000"/><text fill="#000000" font-family="sans-serif" font-size="12" lengthAdjust="spacingAndGlyphs" textLength="71" x="705" y="1119.1387">usantatecla.</text><text fill="#000000" font-family="sans-serif" font-size="12" lengthAdjust="spacingAndGlyphs" textLength="92" x="694.5" y="1133.1074">tictactoe.types.</text><text fill="#000000" font-family="sans-serif" font-size="12" lengthAdjust="spacingAndGlyphs" textLength="37" x="722" y="1147.0762">Token</text><line style="stroke:#A80036;stroke-width:1.5;" x1="666.5" x2="788.5" y1="1154.9063" y2="1154.9063"/><line style="stroke:#A80036;stroke-width:1.5;" x1="666.5" x2="788.5" y1="1162.9063" y2="1162.9063"/><!--MD5=[b634369fa6e65a8dead148f8efc150f7]
link tictactoe.models.Game to tictactoe.models.Board--><path codeLine="22" d="M352.519,265.0155 C352.519,265.0155 332.907,298.2 326.5,315 C259.138,491.612 262.601,557.147 310.5,740 C314.715,756.092 320.953,772.273 328.213,787.839 " fill="none" id="tictactoe.models.Game-tictactoe.models.Board" style="stroke:#A80036;stroke-width:1.0;"/><polygon fill="#A80036" points="333.948,799.61,333.6019,789.7672,331.758,795.1151,326.4101,793.2713,333.948,799.61" style="stroke:#A80036;stroke-width:1.0;"/><line style="stroke:#A80036;stroke-width:1.0;" x1="331.758" x2="328.2545" y1="795.1151" y2="787.923"/><polygon fill="#A80036" points="359.204,255.05,352.5397,257.8044,352.519,265.0155,359.1833,262.2611,359.204,255.05" style="stroke:#A80036;stroke-width:1.0;"/><!--MD5=[aa5c2eaa34da3707c874f29e1edc60f9]
link tictactoe.models.Game to tictactoe.models.Turn--><path codeLine="23" d="M459.5,267.12 C459.5,267.12 459.5,290.71 459.5,301.84 " fill="none" id="tictactoe.models.Game-tictactoe.models.Turn" style="stroke:#A80036;stroke-width:1.0;"/><polygon fill="#A80036" points="459.5,314.84,463.5,305.84,459.5,309.84,455.5,305.84,459.5,314.84" style="stroke:#A80036;stroke-width:1.0;"/><line style="stroke:#A80036;stroke-width:1.0;" x1="459.5" x2="459.5" y1="309.84" y2="301.84"/><polygon fill="#A80036" points="459.5,255.12,455.5,261.12,459.5,267.12,463.5,261.12,459.5,255.12" style="stroke:#A80036;stroke-width:1.0;"/><!--MD5=[3af71857b9ad654b2037bc7ee0d85849]
link tictactoe.models.Game to tictactoe.models.Coordinate--><path codeLine="24" d="M343.935,223.58 C313.97,248.86 285.184,279.75 267.5,315 C130.413,588.272 155.343,706.167 232.5,1002 C237.431,1020.906 245.686,1039.97 254.957,1057.551 " fill="none" id="tictactoe.models.Game-to-tictactoe.models.Coordinate" style="stroke:#A80036;stroke-width:1.0;stroke-dasharray:7.0,7.0;"/><polygon fill="#A80036" points="257.334,1061.988,256.6091,1052.1659,254.9725,1057.5808,249.5576,1055.9442,257.334,1061.988" style="stroke:#A80036;stroke-width:1.0;"/><!--MD5=[1e1952a5c407ff6ca98def89eca250c2]
link tictactoe.models.Game to Error--><path codeLine="25" d="M575.203,203.01 C727.603,283.08 976.5,448.73 976.5,676.5 C976.5,676.5 976.5,676.5 976.5,902 C976.5,1061.781 961.119,1127.854 843.5,1236 C799.821,1276.1608 733.422,1292.9722 683.703,1299.9954 " fill="none" id="tictactoe.models.Game-to-Error" style="stroke:#A80036;stroke-width:1.0;stroke-dasharray:7.0,7.0;"/><polygon fill="#A80036" points="678.641,1300.6849,688.099,1303.432,683.5951,1300.0092,687.0179,1295.5053,678.641,1300.6849" style="stroke:#A80036;stroke-width:1.0;"/><!--MD5=[f108930b09104f9d68882eaac6c296c4]
link tictactoe.models.Game to Token--><path codeLine="26" d="M553.822,255.32 C568.021,274.39 581.551,294.68 592.5,315 C699.982,514.451 714.179,576.202 749.5,800 C766.386,906.994 747.303,1035.127 735.473,1097.747 " fill="none" id="tictactoe.models.Game-to-Token" style="stroke:#A80036;stroke-width:1.0;stroke-dasharray:7.0,7.0;"/><polygon fill="#A80036" points="734.493,1102.871,740.1112,1094.7818,735.4315,1097.9599,732.2534,1093.2802,734.493,1102.871" style="stroke:#A80036;stroke-width:1.0;"/><!--MD5=[715d8bc148b7807b721da6bea55ba6f0]
link tictactoe.models.Board to Token--><path codeLine="43" d="M541.3774,1002.8118 C541.3774,1002.8118 634.972,1069.788 670.553,1095.249 " fill="none" id="tictactoe.models.Board-Token" style="stroke:#A80036;stroke-width:1.0;"/><polygon fill="#A80036" points="681.196,1102.865,676.2044,1094.3748,677.1297,1099.9554,671.5491,1100.8808,681.196,1102.865" style="stroke:#A80036;stroke-width:1.0;"/><line style="stroke:#A80036;stroke-width:1.0;" x1="677.1297" x2="670.6245" y1="1099.9554" y2="1095.3"/><polygon fill="#A80036" points="531.619,995.828,534.1702,1002.5727,541.3774,1002.8118,538.8261,996.0671,531.619,995.828" style="stroke:#A80036;stroke-width:1.0;"/><text fill="#000000" font-family="sans-serif" font-size="13" lengthAdjust="spacingAndGlyphs" textLength="7" x="664.7021" y="1092.0168">*</text><!--MD5=[9415c0c61774263745e2cedb44e639c6]
link tictactoe.models.Board to tictactoe.models.Coordinate--><path codeLine="44" d="M360.655,1002.255 C353.4,1020.51 345.924,1039.321 338.953,1056.859 " fill="none" id="tictactoe.models.Board-to-tictactoe.models.Coordinate" style="stroke:#A80036;stroke-width:1.0;stroke-dasharray:7.0,7.0;"/><polygon fill="#A80036" points="337.001,1061.771,344.0432,1054.8857,338.8483,1057.1248,336.6092,1051.9299,337.001,1061.771" style="stroke:#A80036;stroke-width:1.0;"/><!--MD5=[95371b819337377421bee880416b6571]
link tictactoe.models.Board to Direction--><path codeLine="45" d="M425.057,1002.348 C429.315,1022.041 433.372,1042.605 436.5,1062 C448.091,1133.878 454.931,1218.68 458.179,1266.716 " fill="none" id="tictactoe.models.Board-to-Direction" style="stroke:#A80036;stroke-width:1.0;stroke-dasharray:7.0,7.0;"/><polygon fill="#A80036" points="458.519,1271.818,461.9102,1262.5714,458.1857,1266.8291,453.9279,1263.1047,458.519,1271.818" style="stroke:#A80036;stroke-width:1.0;"/><!--MD5=[445ca9be6ac7acaf2fbd96fa00e05ee8]
link tictactoe.models.Turn to tictactoe.models.Player--><path codeLine="65" d="M459.5,567.193 C459.5,567.193 459.5,590.945 459.5,601.654 " fill="none" id="tictactoe.models.Turn-tictactoe.models.Player" style="stroke:#A80036;stroke-width:1.0;"/><polygon fill="#A80036" points="459.5,614.886,463.5,605.886,459.5,609.886,455.5,605.886,459.5,614.886" style="stroke:#A80036;stroke-width:1.0;"/><line style="stroke:#A80036;stroke-width:1.0;" x1="459.5" x2="459.5" y1="609.886" y2="601.8855"/><polygon fill="#A80036" points="459.5,555.193,455.5,561.193,459.5,567.193,463.5,561.193,459.5,555.193" style="stroke:#A80036;stroke-width:1.0;"/><text fill="#000000" font-family="sans-serif" font-size="13" lengthAdjust="spacingAndGlyphs" textLength="7" x="452.0953" y="603.8636">*</text><!--MD5=[11aca849becf2c66e9fb721656f4b409]
link tictactoe.models.Turn to tictactoe.models.Board--><path codeLine="66" d="M349.2716,565.4036 C349.2716,565.4036 332.004,598.363 326.5,615 C307.917,671.169 321.261,734.801 341.462,787.668 " fill="none" id="tictactoe.models.Turn-tictactoe.models.Board" style="stroke:#A80036;stroke-width:1.0;"/><polygon fill="#A80036" points="346.295,799.817,346.6845,789.9758,344.4466,795.1712,339.2512,792.9333,346.295,799.817" style="stroke:#A80036;stroke-width:1.0;"/><line style="stroke:#A80036;stroke-width:1.0;" x1="344.4466" x2="341.4895" y1="795.1712" y2="787.738"/><polygon fill="#A80036" points="355.436,555.108,348.9219,558.201,349.2716,565.4036,355.7856,562.3106,355.436,555.108" style="stroke:#A80036;stroke-width:1.0;"/><!--MD5=[48951ad2288b716169f812a2c734d472]
link tictactoe.models.Turn to tictactoe.models.Coordinate--><path codeLine="67" d="M349.832,555.193 C335.349,574.354 321.676,594.613 310.5,615 C269.014,690.677 264.769,714.724 251.5,800 C237.697,888.71 233.847,913.975 251.5,1002 C255.171,1020.304 261.402,1039.228 268.407,1056.884 " fill="none" id="tictactoe.models.Turn-to-tictactoe.models.Coordinate" style="stroke:#A80036;stroke-width:1.0;stroke-dasharray:7.0,7.0;"/><polygon fill="#A80036" points="270.401,1061.828,270.7447,1051.9851,268.531,1057.1909,263.3253,1054.9771,270.401,1061.828" style="stroke:#A80036;stroke-width:1.0;"/><!--MD5=[2ce67dc7b8904d2487e2a382b8293df9]
link tictactoe.models.Turn to Token--><path codeLine="68" d="M567.97,555.101 C621.538,621.911 680.732,709.796 709.5,800 C742.475,903.395 737.07,1033.671 731.623,1097.363 " fill="none" id="tictactoe.models.Turn-to-Token" style="stroke:#A80036;stroke-width:1.0;stroke-dasharray:7.0,7.0;"/><polygon fill="#A80036" points="731.165,1102.575,735.9391,1093.9606,731.6036,1097.5943,727.97,1093.2588,731.165,1102.575" style="stroke:#A80036;stroke-width:1.0;"/><!--MD5=[448c7c6490121f34126ed8904289109a]
link tictactoe.models.Turn to Error--><path codeLine="69" d="M575.259,513.696 C611.336,542.24 648.866,576.975 676.5,615 C798.134,782.368 784.382,856.288 806.5,1062 C814.767,1138.89 850.879,1172.668 806.5,1236 C778.922,1275.3548 726.485,1292.35 683.674,1299.6457 " fill="none" id="tictactoe.models.Turn-to-Error" style="stroke:#A80036;stroke-width:1.0;stroke-dasharray:7.0,7.0;"/><polygon fill="#A80036" points="678.503,1300.4882,688.0292,1302.9884,683.4379,1299.6839,686.7424,1295.0926,678.503,1300.4882" style="stroke:#A80036;stroke-width:1.0;"/><!--MD5=[4ae82c12558cb4b2e8949f940e9da2cf]
reverse link ConcreteCoordinate to tictactoe.models.Coordinate--><path codeLine="81" d="M129.328,949.874 C160.124,982.044 201.325,1025.086 236.351,1061.675 " fill="none" id="ConcreteCoordinate-backto-tictactoe.models.Coordinate" style="stroke:#A80036;stroke-width:1.0;"/><polygon fill="none" points="123.892,954.318,115.119,935.03,134.005,944.637,123.892,954.318" style="stroke:#A80036;stroke-width:1.0;"/><!--MD5=[0dc3277290a75d87b382fb6ce6bec75b]
link tictactoe.models.Coordinate to Error--><path codeLine="82" d="M419.93,1198.763 C463.872,1222.512 512.729,1248.9168 550.742,1269.461 " fill="none" id="tictactoe.models.Coordinate-to-Error" style="stroke:#A80036;stroke-width:1.0;stroke-dasharray:7.0,7.0;"/><polygon fill="#A80036" points="555.323,1271.9368,549.3089,1264.1374,550.9248,1269.5585,545.5037,1271.1744,555.323,1271.9368" style="stroke:#A80036;stroke-width:1.0;"/><!--MD5=[787386d7ca2e6f5e643967cb883a78fa]
link tictactoe.models.Coordinate to Direction--><path codeLine="83" d="M375.499,1212.221 C393.157,1231.495 411.427,1251.4361 426.482,1267.869 " fill="none" id="tictactoe.models.Coordinate-to-Direction" style="stroke:#A80036;stroke-width:1.0;stroke-dasharray:7.0,7.0;"/><polygon fill="#A80036" points="430.238,1271.9688,427.1083,1262.6304,426.8606,1268.2819,421.2092,1268.0342,430.238,1271.9688" style="stroke:#A80036;stroke-width:1.0;"/><!--MD5=[ba6e042f6a8c44c789ccd24fbb2adc9a]
link tictactoe.models.Coordinate to ClosedInterval--><path codeLine="84" d="M307.5,1212.221 C307.5,1231.005 307.5,1250.4226 307.5,1266.609 " fill="none" id="tictactoe.models.Coordinate-to-ClosedInterval" style="stroke:#A80036;stroke-width:1.0;stroke-dasharray:7.0,7.0;"/><polygon fill="#A80036" points="307.5,1271.9688,311.5,1262.9688,307.5,1266.9688,303.5,1262.9688,307.5,1271.9688" style="stroke:#A80036;stroke-width:1.0;"/><!--MD5=[ddcf232c751077f9b10d6064c369d290]
link tictactoe.models.Player to Token--><path codeLine="94" d="M584.9585,740.2988 C584.9585,740.2988 631.255,777.022 647.5,800 C710.246,888.752 724.244,1020.272 727.069,1089.501 " fill="none" id="tictactoe.models.Player-Token" style="stroke:#A80036;stroke-width:1.0;"/><polygon fill="#A80036" points="727.507,1102.888,731.2111,1093.7622,727.3438,1097.8907,723.2154,1094.0233,727.507,1102.888" style="stroke:#A80036;stroke-width:1.0;"/><line style="stroke:#A80036;stroke-width:1.0;" x1="727.3438" x2="727.0825" y1="1097.8907" y2="1089.8955"/><polygon fill="#A80036" points="575.028,733.562,577.7477,740.2406,584.9585,740.2988,582.2389,733.6202,575.028,733.562" style="stroke:#A80036;stroke-width:1.0;"/><!--MD5=[4d61797189bd4e3921b05d5b1c2f3641]
link tictactoe.models.Player to tictactoe.models.Board--><path codeLine="95" d="M439.9768,751.7958 C439.9768,751.7958 433.72,775.285 430.679,786.701 " fill="none" id="tictactoe.models.Player-tictactoe.models.Board" style="stroke:#A80036;stroke-width:1.0;"/><polygon fill="#A80036" points="427.249,799.579,433.4304,791.9115,428.5357,794.7474,425.6999,789.8527,427.249,799.579" style="stroke:#A80036;stroke-width:1.0;"/><line style="stroke:#A80036;stroke-width:1.0;" x1="428.5357" x2="430.595" y1="794.7474" y2="787.017"/><polygon fill="#A80036" points="443.065,740.2,437.6556,744.9685,439.9768,751.7958,445.3862,747.0273,443.065,740.2" style="stroke:#A80036;stroke-width:1.0;"/><!--MD5=[8c8274b143d2ce23d56b10c65f754674]
link tictactoe.models.Player to tictactoe.models.Coordinate--><path codeLine="96" d="M516.1,740.119 C529.315,758.144 541.55,778.752 548.5,800 C576.409,885.33 594.015,924.615 548.5,1002 C521.281,1048.278 471.659,1079.725 424.486,1100.455 " fill="none" id="tictactoe.models.Player-to-tictactoe.models.Coordinate" style="stroke:#A80036;stroke-width:1.0;stroke-dasharray:7.0,7.0;"/><polygon fill="#A80036" points="419.636,1102.553,429.4844,1102.6496,424.2248,1100.5672,426.3071,1095.3076,419.636,1102.553" style="stroke:#A80036;stroke-width:1.0;"/><!--MD5=[5f38bb10c8a4955eb5b1e5512962abb2]
link tictactoe.models.Player to Error--><path codeLine="97" d="M530.608,740.136 C546.698,757.801 561.86,778.227 571.5,800 C642.949,961.378 630.082,1179.754 621.145,1266.8469 " fill="none" id="tictactoe.models.Player-to-Error" style="stroke:#A80036;stroke-width:1.0;stroke-dasharray:7.0,7.0;"/><polygon fill="#A80036" points="620.617,1271.8939,625.533,1263.3597,621.138,1266.9211,617.5766,1262.5261,620.617,1271.8939" style="stroke:#A80036;stroke-width:1.0;"/><!--MD5=[469dbb125b8c5f1e48aa26fd0ffa476b]
@startuml
class ClosedInterval as "usantatecla.\nutils.\nClosedInterval"
class ConcreteCoordinate as "usantatecla.\nutils.\nConcreteCoordinate"
class Direction as "usantatecla.\nutils.\nDirection"
enum Error as "usantatecla.\ntictactoe.types.\nError"
enum Token as "usantatecla.\ntictactoe.types.\nToken"

class tictactoe.models.Game {
  + Game()
  + reset()
  + setUsers(int)
  + isBoardComplete(): boolean
  + isUser(): boolean
  + put(Coordinate): Error
  + move(Coordinate, Coordinate): Error
  + next()
  + isTicTacToe(): boolean
  + getToken(Coordinate): Token
  + getToken(): Token
  + getMaxPlayers(): int
  + equals(Object): boolean
}
tictactoe.models.Game *-down-> tictactoe.models.Board
tictactoe.models.Game *-down-> tictactoe.models.Turn
tictactoe.models.Game .down.> tictactoe.models.Coordinate
tictactoe.models.Game .down.> Error
tictactoe.models.Game .down.> Token

class tictactoe.models.Board {
  ~ Board()
  - Board(Board)
  ~ copy(): Board
  ~ getToken(Coordinate): Token
  ~ put(Coordinate, Token)
  ~ move(Coordinate, Coordinate)
  ~ isCompleted(): boolean
  ~ isOccupied(Coordinate, Token): boolean
  ~ isEmpty(Coordinate): boolean
  ~ isTicTacToe(Token): boolean
  - getCoordinates(Token): List<Coordinate>
  + equals(Object): boolean
}

tictactoe.models.Board *-down-> "*" Token
tictactoe.models.Board .down.> tictactoe.models.Coordinate
tictactoe.models.Board .down.> Direction

class tictactoe.models.Turn {
  + {static} NUM_PLAYERS: int
  - activePlayer: int
  - users: int
  ~ Turn(Board)
  + Turn(Turn, Board)
  + copy(Board): Turn
  ~ setUsers(int)
  ~ set(int)
  ~ next()
  ~ isUser(): boolean
  ~ put(Coordinate): Error
  - getPlayer(): Player
  ~ move(Coordinate, Coordinate): Error
  ~ getToken(): Token
  + equals(Object)
}

tictactoe.models.Turn *-down-> "*" tictactoe.models.Player
tictactoe.models.Turn *-down-> tictactoe.models.Board
tictactoe.models.Turn .down.> tictactoe.models.Coordinate
tictactoe.models.Turn .down.> Token
tictactoe.models.Turn .down.> Error

class tictactoe.models.Coordinate {
  ~ {static} NULL_COORDINATE: Coordinate
  + {static} DIMENSION: int
  + Coordinate()
  + Coordinate(int, int)
  + isNull(): boolean
  + getDirection(Coordinate): Direction
  - inInverseDiagonal(): boolean
  + random()
}
ConcreteCoordinate <|-down- tictactoe.models.Coordinate
tictactoe.models.Coordinate .down.> Error
tictactoe.models.Coordinate .down.> Direction
tictactoe.models.Coordinate .down.> ClosedInterval

class tictactoe.models.Player{
  ~ Player(Token, Board)
  ~ put(Coordinate): Error
  ~ move(Coordinate, Coordinate): Error
  ~ getToken(): Token
  + copy(Board): Player
  + equals(Object): boolean
}
tictactoe.models.Player *-down-> Token
tictactoe.models.Player *-down-> tictactoe.models.Board
tictactoe.models.Player .down.> tictactoe.models.Coordinate
tictactoe.models.Player .down.> Error
@enduml

PlantUML version 1.2020.27beta2(Unknown compile time)
(GPL source distribution)
Java Runtime: Java(TM) SE Runtime Environment
JVM: Java HotSpot(TM) 64-Bit Server VM
Default Encoding: UTF-8
Language: en
Country: US
--></g></svg>