<?xml version="1.0" encoding="UTF-8" standalone="no"?><svg xmlns="http://www.w3.org/2000/svg" xmlns:xlink="http://www.w3.org/1999/xlink" contentScriptType="application/ecmascript" contentStyleType="text/css" height="489px" preserveAspectRatio="none" style="width:965px;height:489px;" version="1.1" viewBox="0 0 965 489" width="965px" zoomAndPan="magnify"><defs><filter height="300%" id="f13pjjsapwg4bn" width="300%" x="-1" y="-1"><feGaussianBlur result="blurOut" stdDeviation="2.0"/><feColorMatrix in="blurOut" result="blurOut2" type="matrix" values="0 0 0 0 0 0 0 0 0 0 0 0 0 0 0 0 0 0 .4 0"/><feOffset dx="4.0" dy="4.0" in="blurOut2" result="blurOut3"/><feBlend in="SourceGraphic" in2="blurOut3" mode="normal"/></filter></defs><g><!--MD5=[a28bb7016f04a6176ed7bd94eda416fd]
cluster usantatecla.tictactoe.views--><polygon fill="#FFFFFF" filter="url(#f13pjjsapwg4bn)" points="16,6,251,6,258,28.2969,620,28.2969,620,482,16,482,16,6" style="stroke:#000000;stroke-width:1.5;"/><line style="stroke:#000000;stroke-width:1.5;" x1="16" x2="258" y1="28.2969" y2="28.2969"/><text fill="#000000" font-family="sans-serif" font-size="14" font-weight="bold" lengthAdjust="spacingAndGlyphs" textLength="229" x="20" y="20.9951">usantatecla.tictactoe.views</text><!--MD5=[9f3672d02251c6628f0caf7fed9e62dd]
class usantatecla.tictactoe.views.ErrorView--><rect codeLine="4" fill="#FEFECE" filter="url(#f13pjjsapwg4bn)" height="73.6094" id="usantatecla.tictactoe.views.ErrorView" style="stroke:#A80036;stroke-width:1.5;" width="138" x="466" y="130.5"/><ellipse cx="502.15" cy="146.5" fill="#ADD1B2" rx="11" ry="11" style="stroke:#A80036;stroke-width:1.0;"/><path d="M504.4938,142.1719 C503.5563,141.7344 502.9625,141.5938 502.0875,141.5938 C499.4625,141.5938 497.4625,143.6719 497.4625,146.3906 L497.4625,147.5156 C497.4625,150.0938 499.5719,151.9844 502.4625,151.9844 C503.6813,151.9844 504.8375,151.6875 505.5875,151.1406 C506.1656,150.7344 506.4938,150.2813 506.4938,149.8906 C506.4938,149.4375 506.1031,149.0469 505.6344,149.0469 C505.4156,149.0469 505.2125,149.125 505.025,149.3125 C504.5719,149.7969 504.5719,149.7969 504.3844,149.8906 C503.9625,150.1563 503.275,150.2813 502.5094,150.2813 C500.4625,150.2813 499.1656,149.1875 499.1656,147.4844 L499.1656,146.3906 C499.1656,144.6094 500.4156,143.2969 502.15,143.2969 C502.7281,143.2969 503.3375,143.4531 503.8063,143.7031 C504.2906,143.9844 504.4625,144.2031 504.5563,144.6094 C504.6188,145.0156 504.65,145.1406 504.7906,145.2656 C504.9313,145.4063 505.1656,145.5156 505.3844,145.5156 C505.65,145.5156 505.9156,145.375 506.0875,145.1563 C506.1969,145 506.2281,144.8125 506.2281,144.3906 L506.2281,142.9688 C506.2281,142.5313 506.2125,142.4063 506.1188,142.25 C505.9625,141.9844 505.6813,141.8438 505.3844,141.8438 C505.0875,141.8438 504.8844,141.9375 504.6656,142.25 L504.4938,142.1719 Z " fill="#000000"/><text fill="#000000" font-family="sans-serif" font-size="12" lengthAdjust="spacingAndGlyphs" textLength="59" x="520.85" y="150.6543">ErrorView</text><line style="stroke:#A80036;stroke-width:1.5;" x1="467" x2="603" y1="162.5" y2="162.5"/><ellipse cx="477" cy="173.5" fill="none" rx="3" ry="3" style="stroke:#038048;stroke-width:1.0;"/><text fill="#000000" font-family="sans-serif" font-size="11" lengthAdjust="spacingAndGlyphs" text-decoration="underline" textLength="112" x="486" y="176.7104">MESSAGES: String[]</text><line style="stroke:#A80036;stroke-width:1.5;" x1="467" x2="603" y1="183.3047" y2="183.3047"/><ellipse cx="477" cy="194.3047" fill="#84BE84" rx="3" ry="3" style="stroke:#038048;stroke-width:1.0;"/><text fill="#000000" font-family="sans-serif" font-size="11" lengthAdjust="spacingAndGlyphs" textLength="88" x="486" y="197.5151">ErrorView(Error)</text><!--MD5=[a66996a88a04a7646fe7625221d515cb]
class usantatecla.tictactoe.views.Message--><rect codeLine="10" fill="#FEFECE" filter="url(#f13pjjsapwg4bn)" height="252.875" id="usantatecla.tictactoe.views.Message" style="stroke:#A80036;stroke-width:1.5;" width="218" x="32" y="41"/><ellipse cx="109.25" cy="57" fill="#EB937F" rx="11" ry="11" style="stroke:#A80036;stroke-width:1.0;"/><path d="M108.0469,57.875 L109.5,57.875 L109.5,57.9844 C109.5,58.3906 109.5313,58.5469 109.6094,58.7031 C109.7656,58.9531 110.0469,59.1094 110.3438,59.1094 C110.5938,59.1094 110.8594,58.9688 111.0156,58.75 C111.1406,58.5938 111.1719,58.4375 111.1719,57.9844 L111.1719,56.0625 C111.1719,55.9063 111.1719,55.8594 111.1563,55.7031 C111.0938,55.2344 110.7813,54.9219 110.3281,54.9219 C110.0781,54.9219 109.8125,55.0625 109.6406,55.2813 C109.5313,55.4531 109.5,55.6094 109.5,56.0625 L109.5,56.1875 L108.0469,56.1875 L108.0469,53.7813 L112.0313,53.7813 L112.0313,54.6406 C112.0313,55.0469 112.0625,55.2188 112.1406,55.375 C112.3125,55.625 112.5938,55.7813 112.875,55.7813 C113.1406,55.7813 113.4063,55.6406 113.5781,55.4219 C113.6875,55.25 113.7188,55.1094 113.7188,54.6406 L113.7188,52.0938 L106.0938,52.0938 C105.6563,52.0938 105.5313,52.1094 105.375,52.2031 C105.125,52.3594 104.9688,52.6563 104.9688,52.9375 C104.9688,53.2188 105.1094,53.4688 105.3281,53.6406 C105.4844,53.75 105.6719,53.7813 106.0938,53.7813 L106.3438,53.7813 L106.3438,60.2969 L106.0938,60.2969 C105.6875,60.2969 105.5313,60.3125 105.375,60.4219 C105.125,60.5938 104.9688,60.8594 104.9688,61.1563 C104.9688,61.4219 105.1094,61.6719 105.3281,61.8281 C105.4688,61.9531 105.7031,62 106.0938,62 L114.0938,62 L114.0938,59.4219 C114.0938,58.9844 114.0625,58.8438 113.9844,58.6875 C113.8125,58.4375 113.5313,58.2813 113.25,58.2813 C112.9844,58.2813 112.7188,58.3906 112.5469,58.6406 C112.4375,58.7969 112.4063,58.9375 112.4063,59.4219 L112.4063,60.2969 L108.0469,60.2969 L108.0469,57.875 Z " fill="#000000"/><text fill="#000000" font-family="sans-serif" font-size="12" lengthAdjust="spacingAndGlyphs" textLength="55" x="129.75" y="61.1543">Message</text><line style="stroke:#A80036;stroke-width:1.5;" x1="33" x2="249" y1="73" y2="73"/><ellipse cx="43" cy="84" fill="none" rx="3" ry="3" style="stroke:#038048;stroke-width:1.0;"/><text fill="#000000" font-family="sans-serif" font-size="11" lengthAdjust="spacingAndGlyphs" textLength="37" x="52" y="87.2104">TITTLE</text><ellipse cx="43" cy="96.8047" fill="none" rx="3" ry="3" style="stroke:#038048;stroke-width:1.0;"/><text fill="#000000" font-family="sans-serif" font-size="11" lengthAdjust="spacingAndGlyphs" textLength="102" x="52" y="100.0151">NUMBER_PLAYERS</text><ellipse cx="43" cy="109.6094" fill="none" rx="3" ry="3" style="stroke:#038048;stroke-width:1.0;"/><text fill="#000000" font-family="sans-serif" font-size="11" lengthAdjust="spacingAndGlyphs" textLength="67" x="52" y="112.8198">SEPARATOR</text><ellipse cx="43" cy="122.4141" fill="none" rx="3" ry="3" style="stroke:#038048;stroke-width:1.0;"/><text fill="#000000" font-family="sans-serif" font-size="11" lengthAdjust="spacingAndGlyphs" textLength="116" x="52" y="125.6245">VERTICAL_LINE_LEFT</text><ellipse cx="43" cy="135.2188" fill="none" rx="3" ry="3" style="stroke:#038048;stroke-width:1.0;"/><text fill="#000000" font-family="sans-serif" font-size="11" lengthAdjust="spacingAndGlyphs" textLength="150" x="52" y="138.4292">VERTICAL_LINE_CENTERED</text><ellipse cx="43" cy="148.0234" fill="none" rx="3" ry="3" style="stroke:#038048;stroke-width:1.0;"/><text fill="#000000" font-family="sans-serif" font-size="11" lengthAdjust="spacingAndGlyphs" textLength="124" x="52" y="151.2339">VERTICAL_LINE_RIGHT</text><ellipse cx="43" cy="160.8281" fill="none" rx="3" ry="3" style="stroke:#038048;stroke-width:1.0;"/><text fill="#000000" font-family="sans-serif" font-size="11" lengthAdjust="spacingAndGlyphs" textLength="166" x="52" y="164.0386">ENTER_COORDINATE_TO_PUT</text><ellipse cx="43" cy="173.6328" fill="none" rx="3" ry="3" style="stroke:#038048;stroke-width:1.0;"/><text fill="#000000" font-family="sans-serif" font-size="11" lengthAdjust="spacingAndGlyphs" textLength="192" x="52" y="176.8433">ENTER_COORDINATE_TO_REMOVE</text><ellipse cx="43" cy="186.4375" fill="none" rx="3" ry="3" style="stroke:#038048;stroke-width:1.0;"/><text fill="#000000" font-family="sans-serif" font-size="11" lengthAdjust="spacingAndGlyphs" textLength="124" x="52" y="189.6479">COORDINATE_TO_PUT</text><ellipse cx="43" cy="199.2422" fill="none" rx="3" ry="3" style="stroke:#038048;stroke-width:1.0;"/><text fill="#000000" font-family="sans-serif" font-size="11" lengthAdjust="spacingAndGlyphs" textLength="150" x="52" y="202.4526">COORDINATE_TO_REMOVE</text><ellipse cx="43" cy="212.0469" fill="none" rx="3" ry="3" style="stroke:#038048;stroke-width:1.0;"/><text fill="#000000" font-family="sans-serif" font-size="11" lengthAdjust="spacingAndGlyphs" textLength="136" x="52" y="215.2573">COORDINATE_TO_MOVE</text><ellipse cx="43" cy="224.8516" fill="none" rx="3" ry="3" style="stroke:#038048;stroke-width:1.0;"/><text fill="#000000" font-family="sans-serif" font-size="11" lengthAdjust="spacingAndGlyphs" textLength="69" x="52" y="228.062">PLAYER_WIN</text><ellipse cx="43" cy="237.6563" fill="none" rx="3" ry="3" style="stroke:#038048;stroke-width:1.0;"/><text fill="#000000" font-family="sans-serif" font-size="11" lengthAdjust="spacingAndGlyphs" textLength="46" x="52" y="240.8667">RESUME</text><rect fill="none" height="6" style="stroke:#C82930;stroke-width:1.0;" width="6" x="40" y="247.4609"/><text fill="#000000" font-family="sans-serif" font-size="11" lengthAdjust="spacingAndGlyphs" textLength="93" x="52" y="253.6714">message: String</text><line style="stroke:#A80036;stroke-width:1.5;" x1="33" x2="249" y1="260.2656" y2="260.2656"/><rect fill="#F24D5C" height="6" style="stroke:#C82930;stroke-width:1.0;" width="6" x="40" y="268.2656"/><text fill="#000000" font-family="sans-serif" font-size="11" lengthAdjust="spacingAndGlyphs" textLength="92" x="52" y="274.4761">Message(String)</text><ellipse cx="43" cy="284.0703" fill="#84BE84" rx="3" ry="3" style="stroke:#038048;stroke-width:1.0;"/><text fill="#000000" font-family="sans-serif" font-size="11" lengthAdjust="spacingAndGlyphs" textLength="118" x="52" y="287.2808">getMessage(): String</text><!--MD5=[b8aaf1245d109720e7e93ad10575fc66]
class usantatecla.tictactoe.views.View--><rect codeLine="29" fill="#FEFECE" filter="url(#f13pjjsapwg4bn)" height="112.0234" id="usantatecla.tictactoe.views.View" style="stroke:#A80036;stroke-width:1.5;" width="149" x="283.5" y="354"/><ellipse cx="339.75" cy="370" fill="#A9DCDF" rx="11" ry="11" style="stroke:#A80036;stroke-width:1.0;"/><path d="M341.8281,371.8125 L342.2188,372.7969 L341.8281,372.7969 C341.375,372.7969 341.2656,372.8125 341.1094,372.9219 C340.8594,373.0781 340.7031,373.3594 340.7031,373.6563 C340.7031,373.9219 340.8438,374.1719 341.0625,374.3281 C341.2031,374.4531 341.4063,374.5 341.8281,374.5 L344.1875,374.5 C344.5469,374.5 344.7656,374.4688 344.9063,374.375 C345.1563,374.2344 345.3125,373.9375 345.3125,373.6563 C345.3125,373.375 345.1719,373.125 344.9531,372.9688 C344.7813,372.8281 344.625,372.7969 344.1563,372.7969 L340.7656,364.5938 L337.0938,364.5938 C336.6406,364.5938 336.5156,364.6094 336.3594,364.7031 C336.1094,364.875 335.9531,365.1563 335.9531,365.4375 C335.9531,365.7188 336.0938,365.9688 336.3125,366.1406 C336.4844,366.25 336.6563,366.2813 337.0938,366.2813 L338.1719,366.2813 L335.5313,372.7969 C335.1094,372.7969 334.9531,372.8125 334.7969,372.9219 C334.5469,373.0781 334.3906,373.3594 334.3906,373.6563 C334.3906,374.2188 334.7656,374.5 335.5156,374.5 L337.7813,374.5 C338.1406,374.5 338.3594,374.4688 338.4844,374.375 C338.75,374.2344 338.8906,373.9375 338.8906,373.6563 C338.8906,373.375 338.7656,373.125 338.5469,372.9531 C338.375,372.8281 338.2344,372.7969 337.7813,372.7969 L337.3906,372.7969 L337.7813,371.8125 L341.8281,371.8125 Z M341.125,370.1094 L338.4531,370.1094 L339.7969,366.8438 L341.125,370.1094 Z " fill="#000000"/><text fill="#000000" font-family="sans-serif" font-size="12" font-style="italic" lengthAdjust="spacingAndGlyphs" textLength="28" x="360.25" y="374.1543">View</text><line style="stroke:#A80036;stroke-width:1.5;" x1="284.5" x2="431.5" y1="386" y2="386"/><line style="stroke:#A80036;stroke-width:1.5;" x1="284.5" x2="431.5" y1="394" y2="394"/><ellipse cx="294.5" cy="405" fill="#84BE84" rx="3" ry="3" style="stroke:#038048;stroke-width:1.0;"/><text fill="#000000" font-family="sans-serif" font-size="11" lengthAdjust="spacingAndGlyphs" textLength="65" x="303.5" y="408.2104">View(Logic)</text><ellipse cx="294.5" cy="417.8047" fill="#84BE84" rx="3" ry="3" style="stroke:#038048;stroke-width:1.0;"/><text fill="#000000" font-family="sans-serif" font-size="11" lengthAdjust="spacingAndGlyphs" textLength="51" x="303.5" y="421.0151">interact()</text><polygon fill="#FFFF44" points="294.5,425.6094,298.5,429.6094,294.5,433.6094,290.5,429.6094" style="stroke:#B38D22;stroke-width:1.0;"/><text fill="#000000" font-family="sans-serif" font-size="11" font-style="italic" lengthAdjust="spacingAndGlyphs" textLength="34" x="303.5" y="433.8198">start()</text><polygon fill="#FFFF44" points="294.5,438.4141,298.5,442.4141,294.5,446.4141,290.5,442.4141" style="stroke:#B38D22;stroke-width:1.0;"/><text fill="#000000" font-family="sans-serif" font-size="11" font-style="italic" lengthAdjust="spacingAndGlyphs" textLength="32" x="303.5" y="446.6245">play()</text><polygon fill="#FFFF44" points="294.5,451.2188,298.5,455.2188,294.5,459.2188,290.5,455.2188" style="stroke:#B38D22;stroke-width:1.0;"/><text fill="#000000" font-family="sans-serif" font-size="11" font-style="italic" lengthAdjust="spacingAndGlyphs" textLength="123" x="303.5" y="459.4292">isResumed(): boolean</text><!--MD5=[e7cc2028e3fa35d213125a260bb776f9]
class usantatecla.tictactoe.views.WithLogicView--><rect codeLine="38" fill="#FEFECE" filter="url(#f13pjjsapwg4bn)" height="60.8047" id="usantatecla.tictactoe.views.WithLogicView" style="stroke:#A80036;stroke-width:1.5;" width="145" x="285.5" y="137"/><ellipse cx="311.75" cy="153" fill="#A9DCDF" rx="11" ry="11" style="stroke:#A80036;stroke-width:1.0;"/><path d="M313.8281,154.8125 L314.2188,155.7969 L313.8281,155.7969 C313.375,155.7969 313.2656,155.8125 313.1094,155.9219 C312.8594,156.0781 312.7031,156.3594 312.7031,156.6563 C312.7031,156.9219 312.8438,157.1719 313.0625,157.3281 C313.2031,157.4531 313.4063,157.5 313.8281,157.5 L316.1875,157.5 C316.5469,157.5 316.7656,157.4688 316.9063,157.375 C317.1563,157.2344 317.3125,156.9375 317.3125,156.6563 C317.3125,156.375 317.1719,156.125 316.9531,155.9688 C316.7813,155.8281 316.625,155.7969 316.1563,155.7969 L312.7656,147.5938 L309.0938,147.5938 C308.6406,147.5938 308.5156,147.6094 308.3594,147.7031 C308.1094,147.875 307.9531,148.1563 307.9531,148.4375 C307.9531,148.7188 308.0938,148.9688 308.3125,149.1406 C308.4844,149.25 308.6563,149.2813 309.0938,149.2813 L310.1719,149.2813 L307.5313,155.7969 C307.1094,155.7969 306.9531,155.8125 306.7969,155.9219 C306.5469,156.0781 306.3906,156.3594 306.3906,156.6563 C306.3906,157.2188 306.7656,157.5 307.5156,157.5 L309.7813,157.5 C310.1406,157.5 310.3594,157.4688 310.4844,157.375 C310.75,157.2344 310.8906,156.9375 310.8906,156.6563 C310.8906,156.375 310.7656,156.125 310.5469,155.9531 C310.375,155.8281 310.2344,155.7969 309.7813,155.7969 L309.3906,155.7969 L309.7813,154.8125 L313.8281,154.8125 Z M313.125,153.1094 L310.4531,153.1094 L311.7969,149.8438 L313.125,153.1094 Z " fill="#000000"/><text fill="#000000" font-family="sans-serif" font-size="12" font-style="italic" lengthAdjust="spacingAndGlyphs" textLength="88" x="328.25" y="157.1543">WithLogicView</text><line style="stroke:#A80036;stroke-width:1.5;" x1="286.5" x2="429.5" y1="169" y2="169"/><line style="stroke:#A80036;stroke-width:1.5;" x1="286.5" x2="429.5" y1="177" y2="177"/><ellipse cx="296.5" cy="188" fill="#84BE84" rx="3" ry="3" style="stroke:#038048;stroke-width:1.0;"/><text fill="#000000" font-family="sans-serif" font-size="11" lengthAdjust="spacingAndGlyphs" textLength="119" x="305.5" y="191.2104">WithLogicView(Logic)</text><!--MD5=[b8cfd8c4119a3b0a7a46bfc5fc780f85]
class Error--><rect codeLine="1" fill="#FEFECE" filter="url(#f13pjjsapwg4bn)" height="67.9063" id="Error" style="stroke:#A80036;stroke-width:1.5;" width="124" x="827" y="376"/><ellipse cx="842" cy="401.9531" fill="#EB937F" rx="11" ry="11" style="stroke:#A80036;stroke-width:1.0;"/><path d="M840.7969,402.8281 L842.25,402.8281 L842.25,402.9375 C842.25,403.3438 842.2813,403.5 842.3594,403.6563 C842.5156,403.9063 842.7969,404.0625 843.0938,404.0625 C843.3438,404.0625 843.6094,403.9219 843.7656,403.7031 C843.8906,403.5469 843.9219,403.3906 843.9219,402.9375 L843.9219,401.0156 C843.9219,400.8594 843.9219,400.8125 843.9063,400.6563 C843.8438,400.1875 843.5313,399.875 843.0781,399.875 C842.8281,399.875 842.5625,400.0156 842.3906,400.2344 C842.2813,400.4063 842.25,400.5625 842.25,401.0156 L842.25,401.1406 L840.7969,401.1406 L840.7969,398.7344 L844.7813,398.7344 L844.7813,399.5938 C844.7813,400 844.8125,400.1719 844.8906,400.3281 C845.0625,400.5781 845.3438,400.7344 845.625,400.7344 C845.8906,400.7344 846.1563,400.5938 846.3281,400.375 C846.4375,400.2031 846.4688,400.0625 846.4688,399.5938 L846.4688,397.0469 L838.8438,397.0469 C838.4063,397.0469 838.2813,397.0625 838.125,397.1563 C837.875,397.3125 837.7188,397.6094 837.7188,397.8906 C837.7188,398.1719 837.8594,398.4219 838.0781,398.5938 C838.2344,398.7031 838.4219,398.7344 838.8438,398.7344 L839.0938,398.7344 L839.0938,405.25 L838.8438,405.25 C838.4375,405.25 838.2813,405.2656 838.125,405.375 C837.875,405.5469 837.7188,405.8125 837.7188,406.1094 C837.7188,406.375 837.8594,406.625 838.0781,406.7813 C838.2188,406.9063 838.4531,406.9531 838.8438,406.9531 L846.8438,406.9531 L846.8438,404.375 C846.8438,403.9375 846.8125,403.7969 846.7344,403.6406 C846.5625,403.3906 846.2813,403.2344 846,403.2344 C845.7344,403.2344 845.4688,403.3438 845.2969,403.5938 C845.1875,403.75 845.1563,403.8906 845.1563,404.375 L845.1563,405.25 L840.7969,405.25 L840.7969,402.8281 Z " fill="#000000"/><text fill="#000000" font-family="sans-serif" font-size="12" lengthAdjust="spacingAndGlyphs" textLength="71" x="866.5" y="392.1387">usantatecla.</text><text fill="#000000" font-family="sans-serif" font-size="12" lengthAdjust="spacingAndGlyphs" textLength="92" x="856" y="406.1074">tictactoe.types.</text><text fill="#000000" font-family="sans-serif" font-size="12" lengthAdjust="spacingAndGlyphs" textLength="30" x="887" y="420.0762">Error</text><line style="stroke:#A80036;stroke-width:1.5;" x1="828" x2="950" y1="427.9063" y2="427.9063"/><line style="stroke:#A80036;stroke-width:1.5;" x1="828" x2="950" y1="435.9063" y2="435.9063"/><!--MD5=[42fa18dda7351a0ae87d9497de925436]
class Logic--><rect codeLine="2" fill="#FEFECE" filter="url(#f13pjjsapwg4bn)" height="67.9063" id="Logic" style="stroke:#A80036;stroke-width:1.5;" width="155" x="636.5" y="376"/><ellipse cx="651.5" cy="401.9531" fill="#ADD1B2" rx="11" ry="11" style="stroke:#A80036;stroke-width:1.0;"/><path d="M653.8438,397.625 C652.9063,397.1875 652.3125,397.0469 651.4375,397.0469 C648.8125,397.0469 646.8125,399.125 646.8125,401.8438 L646.8125,402.9688 C646.8125,405.5469 648.9219,407.4375 651.8125,407.4375 C653.0313,407.4375 654.1875,407.1406 654.9375,406.5938 C655.5156,406.1875 655.8438,405.7344 655.8438,405.3438 C655.8438,404.8906 655.4531,404.5 654.9844,404.5 C654.7656,404.5 654.5625,404.5781 654.375,404.7656 C653.9219,405.25 653.9219,405.25 653.7344,405.3438 C653.3125,405.6094 652.625,405.7344 651.8594,405.7344 C649.8125,405.7344 648.5156,404.6406 648.5156,402.9375 L648.5156,401.8438 C648.5156,400.0625 649.7656,398.75 651.5,398.75 C652.0781,398.75 652.6875,398.9063 653.1563,399.1563 C653.6406,399.4375 653.8125,399.6563 653.9063,400.0625 C653.9688,400.4688 654,400.5938 654.1406,400.7188 C654.2813,400.8594 654.5156,400.9688 654.7344,400.9688 C655,400.9688 655.2656,400.8281 655.4375,400.6094 C655.5469,400.4531 655.5781,400.2656 655.5781,399.8438 L655.5781,398.4219 C655.5781,397.9844 655.5625,397.8594 655.4688,397.7031 C655.3125,397.4375 655.0313,397.2969 654.7344,397.2969 C654.4375,397.2969 654.2344,397.3906 654.0156,397.7031 L653.8438,397.625 Z " fill="#000000"/><text fill="#000000" font-family="sans-serif" font-size="12" lengthAdjust="spacingAndGlyphs" textLength="71" x="691.5" y="392.1387">usantatecla.</text><text fill="#000000" font-family="sans-serif" font-size="12" lengthAdjust="spacingAndGlyphs" textLength="123" x="665.5" y="406.1074">tictactoe.controllers.</text><text fill="#000000" font-family="sans-serif" font-size="12" lengthAdjust="spacingAndGlyphs" textLength="32" x="711" y="420.0762">Logic</text><line style="stroke:#A80036;stroke-width:1.5;" x1="637.5" x2="790.5" y1="427.9063" y2="427.9063"/><line style="stroke:#A80036;stroke-width:1.5;" x1="637.5" x2="790.5" y1="435.9063" y2="435.9063"/><!--MD5=[e1a1ed879dec1c27872df24b01782659]
link usantatecla.tictactoe.views.ErrorView to Error--><path codeLine="8" d="M598.5775,211.3547 C598.5775,211.3547 737.524,305.236 809,354 C815.761,358.613 822.836,363.455 829.863,368.273 " fill="none" id="usantatecla.tictactoe.views.ErrorView-Error" style="stroke:#A80036;stroke-width:1.0;"/><polygon fill="#A80036" points="840.812,375.788,835.6547,367.3974,836.6894,372.9588,831.128,373.9936,840.812,375.788" style="stroke:#A80036;stroke-width:1.0;"/><line style="stroke:#A80036;stroke-width:1.0;" x1="836.6894" x2="830.0935" y1="372.9588" y2="368.4315"/><polygon fill="#A80036" points="588.63,204.643,591.3665,211.3147,598.5775,211.3547,595.841,204.683,588.63,204.643" style="stroke:#A80036;stroke-width:1.0;"/><!--MD5=[7d002e822dc75cde29b4fe7d19b73786]
reverse link usantatecla.tictactoe.views.WithLogicView to usantatecla.tictactoe.views.View--><path codeLine="36" d="M358,218.626 C358,258.113 358,313.106 358,353.839 " fill="none" id="usantatecla.tictactoe.views.WithLogicView-backto-usantatecla.tictactoe.views.View" style="stroke:#A80036;stroke-width:1.0;"/><polygon fill="none" points="351,218.473,358,198.473,365,218.473,351,218.473" style="stroke:#A80036;stroke-width:1.0;"/><!--MD5=[6560089347bd097af0c77f374596623e]
link usantatecla.tictactoe.views.WithLogicView to Logic--><path codeLine="41" d="M378.229,208.6663 C378.229,208.6663 418.355,271.829 448,294 C512.835,342.49 546.493,320.064 620,354 C629.871,358.557 640.05,363.842 649.9,369.297 " fill="none" id="usantatecla.tictactoe.views.WithLogicView-Logic" style="stroke:#A80036;stroke-width:1.0;"/><polygon fill="#A80036" points="661.275,375.747,655.4193,367.828,656.9257,373.2806,651.473,374.7869,661.275,375.747" style="stroke:#A80036;stroke-width:1.0;"/><line style="stroke:#A80036;stroke-width:1.0;" x1="656.9257" x2="649.9665" y1="373.2806" y2="369.335"/><polygon fill="#A80036" points="372.411,198.171,371.8216,205.358,378.229,208.6663,378.8184,201.4793,372.411,198.171" style="stroke:#A80036;stroke-width:1.0;"/><!--MD5=[c4e36b28bf36e8c990472c7b9d6655b5]
@startuml
enum Error as "usantatecla.\ntictactoe.types.\nError"
class Logic as "usantatecla.\ntictactoe.controllers.\nLogic"

class usantatecla.tictactoe.views.ErrorView{
  + {static} MESSAGES: String[]
  + ErrorView(Error)
}
usantatecla.tictactoe.views.ErrorView *-down-> Error

enum usantatecla.tictactoe.views.Message{
  + TITTLE
  + NUMBER_PLAYERS
  + SEPARATOR
  + VERTICAL_LINE_LEFT
  + VERTICAL_LINE_CENTERED
  + VERTICAL_LINE_RIGHT
  + ENTER_COORDINATE_TO_PUT
  + ENTER_COORDINATE_TO_REMOVE
  + COORDINATE_TO_PUT
  + COORDINATE_TO_REMOVE
  + COORDINATE_TO_MOVE
  + PLAYER_WIN
  + RESUME
  - message: String
  - Message(String)
  + getMessage(): String
}

abstract class usantatecla.tictactoe.views.View {
  + View(Logic)
  + interact()
  # {abstract} start()
  # {abstract} play()
  # {abstract} isResumed(): boolean
}
usantatecla.tictactoe.views.View -up-|> usantatecla.tictactoe.views.WithLogicView

abstract class usantatecla.tictactoe.views.WithLogicView {
  + WithLogicView(Logic)
}
usantatecla.tictactoe.views.WithLogicView *-down-> Logic
@enduml

PlantUML version 1.2020.27beta2(Unknown compile time)
(GPL source distribution)
Java Runtime: Java(TM) SE Runtime Environment
JVM: Java HotSpot(TM) 64-Bit Server VM
Default Encoding: UTF-8
Language: en
Country: US
--></g></svg>