<?xml version="1.0" encoding="UTF-8" standalone="no"?><svg xmlns="http://www.w3.org/2000/svg" xmlns:xlink="http://www.w3.org/1999/xlink" contentScriptType="application/ecmascript" contentStyleType="text/css" height="827px" preserveAspectRatio="none" style="width:1889px;height:827px;" version="1.1" viewBox="0 0 1889 827" width="1889px" zoomAndPan="magnify"><defs><filter height="300%" id="f55u83246vxu0" width="300%" x="-1" y="-1"><feGaussianBlur result="blurOut" stdDeviation="2.0"/><feColorMatrix in="blurOut" result="blurOut2" type="matrix" values="0 0 0 0 0 0 0 0 0 0 0 0 0 0 0 0 0 0 .4 0"/><feOffset dx="4.0" dy="4.0" in="blurOut2" result="blurOut3"/><feBlend in="SourceGraphic" in2="blurOut3" mode="normal"/></filter></defs><g><!--MD5=[64182ab34c08ac367bbf699869515711]
cluster tictactoe.views.console--><polygon fill="#FFFFFF" filter="url(#f55u83246vxu0)" points="1047.0455,100,1246.0455,100,1253.0455,122.2969,1653.0455,122.2969,1653.0455,702,1047.0455,702,1047.0455,100" style="stroke:#000000;stroke-width:1.5;"/><line style="stroke:#000000;stroke-width:1.5;" x1="1047.0455" x2="1253.0455" y1="122.2969" y2="122.2969"/><text fill="#000000" font-family="sans-serif" font-size="14" font-weight="bold" lengthAdjust="spacingAndGlyphs" textLength="193" x="1051.0455" y="114.9951">tictactoe.views.console</text><!--MD5=[bde0c8ed193d8d2dbac1dee471354ab0]
class tictactoe.views.console.ConsoleView--><rect codeLine="13" fill="#FEFECE" filter="url(#f55u83246vxu0)" height="99.2188" id="tictactoe.views.console.ConsoleView" style="stroke:#A80036;stroke-width:1.5;" width="150" x="1136.0455" y="135"/><ellipse cx="1169.0455" cy="151" fill="#ADD1B2" rx="11" ry="11" style="stroke:#A80036;stroke-width:1.0;"/><path d="M1171.3892,146.6719 C1170.4517,146.2344 1169.858,146.0938 1168.983,146.0938 C1166.358,146.0938 1164.358,148.1719 1164.358,150.8906 L1164.358,152.0156 C1164.358,154.5938 1166.4674,156.4844 1169.358,156.4844 C1170.5767,156.4844 1171.733,156.1875 1172.483,155.6406 C1173.0611,155.2344 1173.3892,154.7813 1173.3892,154.3906 C1173.3892,153.9375 1172.9986,153.5469 1172.5299,153.5469 C1172.3111,153.5469 1172.108,153.625 1171.9205,153.8125 C1171.4674,154.2969 1171.4674,154.2969 1171.2799,154.3906 C1170.858,154.6563 1170.1705,154.7813 1169.4049,154.7813 C1167.358,154.7813 1166.0611,153.6875 1166.0611,151.9844 L1166.0611,150.8906 C1166.0611,149.1094 1167.3111,147.7969 1169.0455,147.7969 C1169.6236,147.7969 1170.233,147.9531 1170.7017,148.2031 C1171.1861,148.4844 1171.358,148.7031 1171.4517,149.1094 C1171.5142,149.5156 1171.5455,149.6406 1171.6861,149.7656 C1171.8267,149.9063 1172.0611,150.0156 1172.2799,150.0156 C1172.5455,150.0156 1172.8111,149.875 1172.983,149.6563 C1173.0924,149.5 1173.1236,149.3125 1173.1236,148.8906 L1173.1236,147.4688 C1173.1236,147.0313 1173.108,146.9063 1173.0142,146.75 C1172.858,146.4844 1172.5767,146.3438 1172.2799,146.3438 C1171.983,146.3438 1171.7799,146.4375 1171.5611,146.75 L1171.3892,146.6719 Z " fill="#000000"/><text fill="#000000" font-family="sans-serif" font-size="12" lengthAdjust="spacingAndGlyphs" textLength="78" x="1187.0455" y="155.1543">ConsoleView</text><line style="stroke:#A80036;stroke-width:1.5;" x1="1137.0455" x2="1285.0455" y1="167" y2="167"/><line style="stroke:#A80036;stroke-width:1.5;" x1="1137.0455" x2="1285.0455" y1="175" y2="175"/><ellipse cx="1147.0455" cy="186" fill="#84BE84" rx="3" ry="3" style="stroke:#038048;stroke-width:1.0;"/><text fill="#000000" font-family="sans-serif" font-size="11" lengthAdjust="spacingAndGlyphs" textLength="111" x="1156.0455" y="189.2104">ConsoleView(Logic)</text><polygon fill="#FFFF44" points="1147.0455,193.8047,1151.0455,197.8047,1147.0455,201.8047,1143.0455,197.8047" style="stroke:#B38D22;stroke-width:1.0;"/><text fill="#000000" font-family="sans-serif" font-size="11" lengthAdjust="spacingAndGlyphs" textLength="33" x="1156.0455" y="202.0151">start()</text><polygon fill="#FFFF44" points="1147.0455,206.6094,1151.0455,210.6094,1147.0455,214.6094,1143.0455,210.6094" style="stroke:#B38D22;stroke-width:1.0;"/><text fill="#000000" font-family="sans-serif" font-size="11" lengthAdjust="spacingAndGlyphs" textLength="32" x="1156.0455" y="214.8198">play()</text><polygon fill="#FFFF44" points="1147.0455,219.4141,1151.0455,223.4141,1147.0455,227.4141,1143.0455,223.4141" style="stroke:#B38D22;stroke-width:1.0;"/><text fill="#000000" font-family="sans-serif" font-size="11" lengthAdjust="spacingAndGlyphs" textLength="124" x="1156.0455" y="227.6245">isResumed(): boolean</text><!--MD5=[54aa299435631381f3c0c028f26a058f]
class tictactoe.views.console.StartView--><rect codeLine="25" fill="#FEFECE" filter="url(#f55u83246vxu0)" height="73.6094" id="tictactoe.views.console.StartView" style="stroke:#A80036;stroke-width:1.5;" width="118" x="1063.0455" y="313"/><ellipse cx="1091.0955" cy="329" fill="#ADD1B2" rx="11" ry="11" style="stroke:#A80036;stroke-width:1.0;"/><path d="M1093.4392,324.6719 C1092.5017,324.2344 1091.908,324.0938 1091.033,324.0938 C1088.408,324.0938 1086.408,326.1719 1086.408,328.8906 L1086.408,330.0156 C1086.408,332.5938 1088.5174,334.4844 1091.408,334.4844 C1092.6267,334.4844 1093.783,334.1875 1094.533,333.6406 C1095.1111,333.2344 1095.4392,332.7813 1095.4392,332.3906 C1095.4392,331.9375 1095.0486,331.5469 1094.5799,331.5469 C1094.3611,331.5469 1094.158,331.625 1093.9705,331.8125 C1093.5174,332.2969 1093.5174,332.2969 1093.3299,332.3906 C1092.908,332.6563 1092.2205,332.7813 1091.4549,332.7813 C1089.408,332.7813 1088.1111,331.6875 1088.1111,329.9844 L1088.1111,328.8906 C1088.1111,327.1094 1089.3611,325.7969 1091.0955,325.7969 C1091.6736,325.7969 1092.283,325.9531 1092.7517,326.2031 C1093.2361,326.4844 1093.408,326.7031 1093.5017,327.1094 C1093.5642,327.5156 1093.5955,327.6406 1093.7361,327.7656 C1093.8767,327.9063 1094.1111,328.0156 1094.3299,328.0156 C1094.5955,328.0156 1094.8611,327.875 1095.033,327.6563 C1095.1424,327.5 1095.1736,327.3125 1095.1736,326.8906 L1095.1736,325.4688 C1095.1736,325.0313 1095.158,324.9063 1095.0642,324.75 C1094.908,324.4844 1094.6267,324.3438 1094.3299,324.3438 C1094.033,324.3438 1093.8299,324.4375 1093.6111,324.75 L1093.4392,324.6719 Z " fill="#000000"/><text fill="#000000" font-family="sans-serif" font-size="12" lengthAdjust="spacingAndGlyphs" textLength="57" x="1107.9955" y="333.1543">StartView</text><line style="stroke:#A80036;stroke-width:1.5;" x1="1064.0455" x2="1180.0455" y1="345" y2="345"/><line style="stroke:#A80036;stroke-width:1.5;" x1="1064.0455" x2="1180.0455" y1="353" y2="353"/><polygon fill="#4177AF" points="1074.0455,360,1070.0455,366,1078.0455,366" style="stroke:#1963A0;stroke-width:1.0;"/><text fill="#000000" font-family="sans-serif" font-size="11" lengthAdjust="spacingAndGlyphs" textLength="92" x="1083.0455" y="367.2104">StartView(Logic)</text><polygon fill="#4177AF" points="1074.0455,372.8047,1070.0455,378.8047,1078.0455,378.8047" style="stroke:#1963A0;stroke-width:1.0;"/><text fill="#000000" font-family="sans-serif" font-size="11" lengthAdjust="spacingAndGlyphs" textLength="51" x="1083.0455" y="380.0151">interact()</text><!--MD5=[0158df0baddf48f83142f472e341eacc]
class tictactoe.views.console.PlayView--><rect codeLine="36" fill="#FEFECE" filter="url(#f55u83246vxu0)" height="112.0234" id="tictactoe.views.console.PlayView" style="stroke:#A80036;stroke-width:1.5;" width="248" x="1389.0455" y="294"/><ellipse cx="1482.7955" cy="310" fill="#ADD1B2" rx="11" ry="11" style="stroke:#A80036;stroke-width:1.0;"/><path d="M1485.1392,305.6719 C1484.2017,305.2344 1483.608,305.0938 1482.733,305.0938 C1480.108,305.0938 1478.108,307.1719 1478.108,309.8906 L1478.108,311.0156 C1478.108,313.5938 1480.2174,315.4844 1483.108,315.4844 C1484.3267,315.4844 1485.483,315.1875 1486.233,314.6406 C1486.8111,314.2344 1487.1392,313.7813 1487.1392,313.3906 C1487.1392,312.9375 1486.7486,312.5469 1486.2799,312.5469 C1486.0611,312.5469 1485.858,312.625 1485.6705,312.8125 C1485.2174,313.2969 1485.2174,313.2969 1485.0299,313.3906 C1484.608,313.6563 1483.9205,313.7813 1483.1549,313.7813 C1481.108,313.7813 1479.8111,312.6875 1479.8111,310.9844 L1479.8111,309.8906 C1479.8111,308.1094 1481.0611,306.7969 1482.7955,306.7969 C1483.3736,306.7969 1483.983,306.9531 1484.4517,307.2031 C1484.9361,307.4844 1485.108,307.7031 1485.2017,308.1094 C1485.2642,308.5156 1485.2955,308.6406 1485.4361,308.7656 C1485.5767,308.9063 1485.8111,309.0156 1486.0299,309.0156 C1486.2955,309.0156 1486.5611,308.875 1486.733,308.6563 C1486.8424,308.5 1486.8736,308.3125 1486.8736,307.8906 L1486.8736,306.4688 C1486.8736,306.0313 1486.858,305.9063 1486.7642,305.75 C1486.608,305.4844 1486.3267,305.3438 1486.0299,305.3438 C1485.733,305.3438 1485.5299,305.4375 1485.3111,305.75 L1485.1392,305.6719 Z " fill="#000000"/><text fill="#000000" font-family="sans-serif" font-size="12" lengthAdjust="spacingAndGlyphs" textLength="52" x="1503.2955" y="314.1543">PlayView</text><line style="stroke:#A80036;stroke-width:1.5;" x1="1390.0455" x2="1636.0455" y1="326" y2="326"/><line style="stroke:#A80036;stroke-width:1.5;" x1="1390.0455" x2="1636.0455" y1="334" y2="334"/><polygon fill="#4177AF" points="1400.0455,341,1396.0455,347,1404.0455,347" style="stroke:#1963A0;stroke-width:1.0;"/><text fill="#000000" font-family="sans-serif" font-size="11" lengthAdjust="spacingAndGlyphs" textLength="88" x="1409.0455" y="348.2104">PlayView(Logic)</text><polygon fill="#4177AF" points="1400.0455,353.8047,1396.0455,359.8047,1404.0455,359.8047" style="stroke:#1963A0;stroke-width:1.0;"/><text fill="#000000" font-family="sans-serif" font-size="11" lengthAdjust="spacingAndGlyphs" textLength="51" x="1409.0455" y="361.0151">interact()</text><rect fill="#F24D5C" height="6" style="stroke:#C82930;stroke-width:1.0;" width="6" x="1397.0455" y="367.6094"/><text fill="#000000" font-family="sans-serif" font-size="11" lengthAdjust="spacingAndGlyphs" textLength="26" x="1409.0455" y="373.8198">put()</text><rect fill="#F24D5C" height="6" style="stroke:#C82930;stroke-width:1.0;" width="6" x="1397.0455" y="380.4141"/><text fill="#000000" font-family="sans-serif" font-size="11" lengthAdjust="spacingAndGlyphs" textLength="41" x="1409.0455" y="386.6245">move()</text><ellipse cx="1400.0455" cy="396.2188" fill="#84BE84" rx="3" ry="3" style="stroke:#038048;stroke-width:1.0;"/><text fill="#000000" font-family="sans-serif" font-size="11" lengthAdjust="spacingAndGlyphs" textLength="222" x="1409.0455" y="399.4292">createRandomCoordinate(): Coordinate</text><!--MD5=[863eeac66a77264bd74e28cbddefcd23]
class tictactoe.views.console.ResumeView--><rect codeLine="54" fill="#FEFECE" filter="url(#f55u83246vxu0)" height="73.6094" id="tictactoe.views.console.ResumeView" style="stroke:#A80036;stroke-width:1.5;" width="138" x="1216.0455" y="313"/><ellipse cx="1244.0955" cy="329" fill="#ADD1B2" rx="11" ry="11" style="stroke:#A80036;stroke-width:1.0;"/><path d="M1246.4392,324.6719 C1245.5017,324.2344 1244.908,324.0938 1244.033,324.0938 C1241.408,324.0938 1239.408,326.1719 1239.408,328.8906 L1239.408,330.0156 C1239.408,332.5938 1241.5174,334.4844 1244.408,334.4844 C1245.6267,334.4844 1246.783,334.1875 1247.533,333.6406 C1248.1111,333.2344 1248.4392,332.7813 1248.4392,332.3906 C1248.4392,331.9375 1248.0486,331.5469 1247.5799,331.5469 C1247.3611,331.5469 1247.158,331.625 1246.9705,331.8125 C1246.5174,332.2969 1246.5174,332.2969 1246.3299,332.3906 C1245.908,332.6563 1245.2205,332.7813 1244.4549,332.7813 C1242.408,332.7813 1241.1111,331.6875 1241.1111,329.9844 L1241.1111,328.8906 C1241.1111,327.1094 1242.3611,325.7969 1244.0955,325.7969 C1244.6736,325.7969 1245.283,325.9531 1245.7517,326.2031 C1246.2361,326.4844 1246.408,326.7031 1246.5017,327.1094 C1246.5642,327.5156 1246.5955,327.6406 1246.7361,327.7656 C1246.8767,327.9063 1247.1111,328.0156 1247.3299,328.0156 C1247.5955,328.0156 1247.8611,327.875 1248.033,327.6563 C1248.1424,327.5 1248.1736,327.3125 1248.1736,326.8906 L1248.1736,325.4688 C1248.1736,325.0313 1248.158,324.9063 1248.0642,324.75 C1247.908,324.4844 1247.6267,324.3438 1247.3299,324.3438 C1247.033,324.3438 1246.8299,324.4375 1246.6111,324.75 L1246.4392,324.6719 Z " fill="#000000"/><text fill="#000000" font-family="sans-serif" font-size="12" lengthAdjust="spacingAndGlyphs" textLength="77" x="1260.9955" y="333.1543">ResumeView</text><line style="stroke:#A80036;stroke-width:1.5;" x1="1217.0455" x2="1353.0455" y1="345" y2="345"/><line style="stroke:#A80036;stroke-width:1.5;" x1="1217.0455" x2="1353.0455" y1="353" y2="353"/><ellipse cx="1227.0455" cy="364" fill="#84BE84" rx="3" ry="3" style="stroke:#038048;stroke-width:1.0;"/><text fill="#000000" font-family="sans-serif" font-size="11" lengthAdjust="spacingAndGlyphs" textLength="112" x="1236.0455" y="367.2104">ResumeView(Logic)</text><polygon fill="#4177AF" points="1227.0455,372.8047,1223.0455,378.8047,1231.0455,378.8047" style="stroke:#1963A0;stroke-width:1.0;"/><text fill="#000000" font-family="sans-serif" font-size="11" lengthAdjust="spacingAndGlyphs" textLength="104" x="1236.0455" y="380.0151">interact(): boolean</text><!--MD5=[270aad5bca7cd81b5a24665b2403b70b]
class tictactoe.views.console.BoardView--><rect codeLine="81" fill="#FEFECE" filter="url(#f55u83246vxu0)" height="73.6094" id="tictactoe.views.console.BoardView" style="stroke:#A80036;stroke-width:1.5;" width="124" x="1184.0455" y="466"/><ellipse cx="1211.1955" cy="482" fill="#ADD1B2" rx="11" ry="11" style="stroke:#A80036;stroke-width:1.0;"/><path d="M1213.5392,477.6719 C1212.6017,477.2344 1212.008,477.0938 1211.133,477.0938 C1208.508,477.0938 1206.508,479.1719 1206.508,481.8906 L1206.508,483.0156 C1206.508,485.5938 1208.6174,487.4844 1211.508,487.4844 C1212.7267,487.4844 1213.883,487.1875 1214.633,486.6406 C1215.2111,486.2344 1215.5392,485.7813 1215.5392,485.3906 C1215.5392,484.9375 1215.1486,484.5469 1214.6799,484.5469 C1214.4611,484.5469 1214.258,484.625 1214.0705,484.8125 C1213.6174,485.2969 1213.6174,485.2969 1213.4299,485.3906 C1213.008,485.6563 1212.3205,485.7813 1211.5549,485.7813 C1209.508,485.7813 1208.2111,484.6875 1208.2111,482.9844 L1208.2111,481.8906 C1208.2111,480.1094 1209.4611,478.7969 1211.1955,478.7969 C1211.7736,478.7969 1212.383,478.9531 1212.8517,479.2031 C1213.3361,479.4844 1213.508,479.7031 1213.6017,480.1094 C1213.6642,480.5156 1213.6955,480.6406 1213.8361,480.7656 C1213.9767,480.9063 1214.2111,481.0156 1214.4299,481.0156 C1214.6955,481.0156 1214.9611,480.875 1215.133,480.6563 C1215.2424,480.5 1215.2736,480.3125 1215.2736,479.8906 L1215.2736,478.4688 C1215.2736,478.0313 1215.258,477.9063 1215.1642,477.75 C1215.008,477.4844 1214.7267,477.3438 1214.4299,477.3438 C1214.133,477.3438 1213.9299,477.4375 1213.7111,477.75 L1213.5392,477.6719 Z " fill="#000000"/><text fill="#000000" font-family="sans-serif" font-size="12" lengthAdjust="spacingAndGlyphs" textLength="65" x="1227.8955" y="486.1543">BoardView</text><line style="stroke:#A80036;stroke-width:1.5;" x1="1185.0455" x2="1307.0455" y1="498" y2="498"/><line style="stroke:#A80036;stroke-width:1.5;" x1="1185.0455" x2="1307.0455" y1="506" y2="506"/><polygon fill="#4177AF" points="1195.0455,513,1191.0455,519,1199.0455,519" style="stroke:#1963A0;stroke-width:1.0;"/><text fill="#000000" font-family="sans-serif" font-size="11" lengthAdjust="spacingAndGlyphs" textLength="98" x="1204.0455" y="520.2104">BoardView(Logic)</text><polygon fill="#4177AF" points="1195.0455,525.8047,1191.0455,531.8047,1199.0455,531.8047" style="stroke:#1963A0;stroke-width:1.0;"/><text fill="#000000" font-family="sans-serif" font-size="11" lengthAdjust="spacingAndGlyphs" textLength="36" x="1204.0455" y="533.0151">write()</text><!--MD5=[85374d0a3ee4b3ef5b557089b06e5446]
class tictactoe.views.console.TokenView--><rect codeLine="92" fill="#FEFECE" filter="url(#f55u83246vxu0)" height="86.4141" id="tictactoe.views.console.TokenView" style="stroke:#A80036;stroke-width:1.5;" width="132" x="1355.0455" y="600"/><ellipse cx="1385.3455" cy="616" fill="#ADD1B2" rx="11" ry="11" style="stroke:#A80036;stroke-width:1.0;"/><path d="M1387.6892,611.6719 C1386.7517,611.2344 1386.158,611.0938 1385.283,611.0938 C1382.658,611.0938 1380.658,613.1719 1380.658,615.8906 L1380.658,617.0156 C1380.658,619.5938 1382.7674,621.4844 1385.658,621.4844 C1386.8767,621.4844 1388.033,621.1875 1388.783,620.6406 C1389.3611,620.2344 1389.6892,619.7813 1389.6892,619.3906 C1389.6892,618.9375 1389.2986,618.5469 1388.8299,618.5469 C1388.6111,618.5469 1388.408,618.625 1388.2205,618.8125 C1387.7674,619.2969 1387.7674,619.2969 1387.5799,619.3906 C1387.158,619.6563 1386.4705,619.7813 1385.7049,619.7813 C1383.658,619.7813 1382.3611,618.6875 1382.3611,616.9844 L1382.3611,615.8906 C1382.3611,614.1094 1383.6111,612.7969 1385.3455,612.7969 C1385.9236,612.7969 1386.533,612.9531 1387.0017,613.2031 C1387.4861,613.4844 1387.658,613.7031 1387.7517,614.1094 C1387.8142,614.5156 1387.8455,614.6406 1387.9861,614.7656 C1388.1267,614.9063 1388.3611,615.0156 1388.5799,615.0156 C1388.8455,615.0156 1389.1111,614.875 1389.283,614.6563 C1389.3924,614.5 1389.4236,614.3125 1389.4236,613.8906 L1389.4236,612.4688 C1389.4236,612.0313 1389.408,611.9063 1389.3142,611.75 C1389.158,611.4844 1388.8767,611.3438 1388.5799,611.3438 C1388.283,611.3438 1388.0799,611.4375 1387.8611,611.75 L1387.6892,611.6719 Z " fill="#000000"/><text fill="#000000" font-family="sans-serif" font-size="12" lengthAdjust="spacingAndGlyphs" textLength="66" x="1402.7455" y="620.1543">TokenView</text><line style="stroke:#A80036;stroke-width:1.5;" x1="1356.0455" x2="1486.0455" y1="632" y2="632"/><ellipse cx="1366.0455" cy="643" fill="none" rx="3" ry="3" style="stroke:#038048;stroke-width:1.0;"/><text fill="#000000" font-family="sans-serif" font-size="11" lengthAdjust="spacingAndGlyphs" text-decoration="underline" textLength="94" x="1375.0455" y="646.2104">SYMBOLS: char[]</text><line style="stroke:#A80036;stroke-width:1.5;" x1="1356.0455" x2="1486.0455" y1="652.8047" y2="652.8047"/><polygon fill="#4177AF" points="1366.0455,659.8047,1362.0455,665.8047,1370.0455,665.8047" style="stroke:#1963A0;stroke-width:1.0;"/><text fill="#000000" font-family="sans-serif" font-size="11" lengthAdjust="spacingAndGlyphs" textLength="106" x="1375.0455" y="667.0151">TokenView(Token)</text><polygon fill="#4177AF" points="1366.0455,672.6094,1362.0455,678.6094,1370.0455,678.6094" style="stroke:#1963A0;stroke-width:1.0;"/><text fill="#000000" font-family="sans-serif" font-size="11" lengthAdjust="spacingAndGlyphs" textLength="36" x="1375.0455" y="679.8198">write()</text><!--MD5=[8830b246a550294711e6eb5af1606829]
class tictactoe.views.console.CoordinateView--><rect codeLine="63" fill="#FEFECE" filter="url(#f55u83246vxu0)" height="60.8047" id="tictactoe.views.console.CoordinateView" style="stroke:#A80036;stroke-width:1.5;" width="162" x="1343.0455" y="472.5"/><ellipse cx="1373.7955" cy="488.5" fill="#ADD1B2" rx="11" ry="11" style="stroke:#A80036;stroke-width:1.0;"/><path d="M1376.1392,484.1719 C1375.2017,483.7344 1374.608,483.5938 1373.733,483.5938 C1371.108,483.5938 1369.108,485.6719 1369.108,488.3906 L1369.108,489.5156 C1369.108,492.0938 1371.2174,493.9844 1374.108,493.9844 C1375.3267,493.9844 1376.483,493.6875 1377.233,493.1406 C1377.8111,492.7344 1378.1392,492.2813 1378.1392,491.8906 C1378.1392,491.4375 1377.7486,491.0469 1377.2799,491.0469 C1377.0611,491.0469 1376.858,491.125 1376.6705,491.3125 C1376.2174,491.7969 1376.2174,491.7969 1376.0299,491.8906 C1375.608,492.1563 1374.9205,492.2813 1374.1549,492.2813 C1372.108,492.2813 1370.8111,491.1875 1370.8111,489.4844 L1370.8111,488.3906 C1370.8111,486.6094 1372.0611,485.2969 1373.7955,485.2969 C1374.3736,485.2969 1374.983,485.4531 1375.4517,485.7031 C1375.9361,485.9844 1376.108,486.2031 1376.2017,486.6094 C1376.2642,487.0156 1376.2955,487.1406 1376.4361,487.2656 C1376.5767,487.4063 1376.8111,487.5156 1377.0299,487.5156 C1377.2955,487.5156 1377.5611,487.375 1377.733,487.1563 C1377.8424,487 1377.8736,486.8125 1377.8736,486.3906 L1377.8736,484.9688 C1377.8736,484.5313 1377.858,484.4063 1377.7642,484.25 C1377.608,483.9844 1377.3267,483.8438 1377.0299,483.8438 C1376.733,483.8438 1376.5299,483.9375 1376.3111,484.25 L1376.1392,484.1719 Z " fill="#000000"/><text fill="#000000" font-family="sans-serif" font-size="12" lengthAdjust="spacingAndGlyphs" textLength="95" x="1391.2955" y="492.6543">CoordinateView</text><line style="stroke:#A80036;stroke-width:1.5;" x1="1344.0455" x2="1504.0455" y1="504.5" y2="504.5"/><line style="stroke:#A80036;stroke-width:1.5;" x1="1344.0455" x2="1504.0455" y1="512.5" y2="512.5"/><ellipse cx="1354.0455" cy="523.5" fill="#84BE84" rx="3" ry="3" style="stroke:#038048;stroke-width:1.0;"/><text fill="#000000" font-family="sans-serif" font-size="11" lengthAdjust="spacingAndGlyphs" textLength="136" x="1363.0455" y="526.7104">read(String): Coordinate</text><!--MD5=[1ca4e66fd27a79cb5d7093d90b3139a4]
class tictactoe.views.console.ErrorView--><rect codeLine="73" fill="#FEFECE" filter="url(#f55u83246vxu0)" height="73.6094" id="tictactoe.views.console.ErrorView" style="stroke:#A80036;stroke-width:1.5;" width="114" x="1522.0455" y="606"/><ellipse cx="1547.3955" cy="622" fill="#ADD1B2" rx="11" ry="11" style="stroke:#A80036;stroke-width:1.0;"/><path d="M1549.7392,617.6719 C1548.8017,617.2344 1548.208,617.0938 1547.333,617.0938 C1544.708,617.0938 1542.708,619.1719 1542.708,621.8906 L1542.708,623.0156 C1542.708,625.5938 1544.8174,627.4844 1547.708,627.4844 C1548.9267,627.4844 1550.083,627.1875 1550.833,626.6406 C1551.4111,626.2344 1551.7392,625.7813 1551.7392,625.3906 C1551.7392,624.9375 1551.3486,624.5469 1550.8799,624.5469 C1550.6611,624.5469 1550.458,624.625 1550.2705,624.8125 C1549.8174,625.2969 1549.8174,625.2969 1549.6299,625.3906 C1549.208,625.6563 1548.5205,625.7813 1547.7549,625.7813 C1545.708,625.7813 1544.4111,624.6875 1544.4111,622.9844 L1544.4111,621.8906 C1544.4111,620.1094 1545.6611,618.7969 1547.3955,618.7969 C1547.9736,618.7969 1548.583,618.9531 1549.0517,619.2031 C1549.5361,619.4844 1549.708,619.7031 1549.8017,620.1094 C1549.8642,620.5156 1549.8955,620.6406 1550.0361,620.7656 C1550.1767,620.9063 1550.4111,621.0156 1550.6299,621.0156 C1550.8955,621.0156 1551.1611,620.875 1551.333,620.6563 C1551.4424,620.5 1551.4736,620.3125 1551.4736,619.8906 L1551.4736,618.4688 C1551.4736,618.0313 1551.458,617.9063 1551.3642,617.75 C1551.208,617.4844 1550.9267,617.3438 1550.6299,617.3438 C1550.333,617.3438 1550.1299,617.4375 1549.9111,617.75 L1549.7392,617.6719 Z " fill="#000000"/><text fill="#000000" font-family="sans-serif" font-size="12" lengthAdjust="spacingAndGlyphs" textLength="59" x="1563.6955" y="626.1543">ErrorView</text><line style="stroke:#A80036;stroke-width:1.5;" x1="1523.0455" x2="1635.0455" y1="638" y2="638"/><line style="stroke:#A80036;stroke-width:1.5;" x1="1523.0455" x2="1635.0455" y1="646" y2="646"/><polygon fill="#4177AF" points="1533.0455,653,1529.0455,659,1537.0455,659" style="stroke:#1963A0;stroke-width:1.0;"/><text fill="#000000" font-family="sans-serif" font-size="11" lengthAdjust="spacingAndGlyphs" textLength="88" x="1542.0455" y="660.2104">ErrorView(Error)</text><polygon fill="#4177AF" points="1533.0455,665.8047,1529.0455,671.8047,1537.0455,671.8047" style="stroke:#1963A0;stroke-width:1.0;"/><text fill="#000000" font-family="sans-serif" font-size="11" lengthAdjust="spacingAndGlyphs" textLength="46" x="1542.0455" y="673.0151">writeln()</text><!--MD5=[8c7d7abc12e214c3cc12c9ab70edee11]
class Coordinate--><rect codeLine="1" fill="#FEFECE" filter="url(#f55u83246vxu0)" height="67.9063" id="Coordinate" style="stroke:#A80036;stroke-width:1.5;" width="135" x="895.5435" y="609"/><ellipse cx="910.5435" cy="634.9531" fill="#ADD1B2" rx="11" ry="11" style="stroke:#A80036;stroke-width:1.0;"/><path d="M912.8872,630.625 C911.9497,630.1875 911.356,630.0469 910.481,630.0469 C907.856,630.0469 905.856,632.125 905.856,634.8438 L905.856,635.9688 C905.856,638.5469 907.9654,640.4375 910.856,640.4375 C912.0747,640.4375 913.231,640.1406 913.981,639.5938 C914.5591,639.1875 914.8872,638.7344 914.8872,638.3438 C914.8872,637.8906 914.4966,637.5 914.0279,637.5 C913.8091,637.5 913.606,637.5781 913.4185,637.7656 C912.9654,638.25 912.9654,638.25 912.7779,638.3438 C912.356,638.6094 911.6685,638.7344 910.9029,638.7344 C908.856,638.7344 907.5591,637.6406 907.5591,635.9375 L907.5591,634.8438 C907.5591,633.0625 908.8091,631.75 910.5435,631.75 C911.1216,631.75 911.731,631.9063 912.1997,632.1563 C912.6841,632.4375 912.856,632.6563 912.9497,633.0625 C913.0122,633.4688 913.0435,633.5938 913.1841,633.7188 C913.3247,633.8594 913.5591,633.9688 913.7779,633.9688 C914.0435,633.9688 914.3091,633.8281 914.481,633.6094 C914.5904,633.4531 914.6216,633.2656 914.6216,632.8438 L914.6216,631.4219 C914.6216,630.9844 914.606,630.8594 914.5122,630.7031 C914.356,630.4375 914.0747,630.2969 913.7779,630.2969 C913.481,630.2969 913.2779,630.3906 913.0591,630.7031 L912.8872,630.625 Z " fill="#000000"/><text fill="#000000" font-family="sans-serif" font-size="12" lengthAdjust="spacingAndGlyphs" textLength="71" x="940.5435" y="625.1387">usantatecla.</text><text fill="#000000" font-family="sans-serif" font-size="12" lengthAdjust="spacingAndGlyphs" textLength="103" x="924.5435" y="639.1074">tictactoe.models.</text><text fill="#000000" font-family="sans-serif" font-size="12" lengthAdjust="spacingAndGlyphs" textLength="66" x="943.0435" y="653.0762">Coordinate</text><line style="stroke:#A80036;stroke-width:1.5;" x1="896.5435" x2="1029.5435" y1="660.9063" y2="660.9063"/><line style="stroke:#A80036;stroke-width:1.5;" x1="896.5435" x2="1029.5435" y1="668.9063" y2="668.9063"/><!--MD5=[b8cfd8c4119a3b0a7a46bfc5fc780f85]
class Error--><rect codeLine="2" fill="#FEFECE" filter="url(#f55u83246vxu0)" height="67.9063" id="Error" style="stroke:#A80036;stroke-width:1.5;" width="124" x="1517.0455" y="746"/><ellipse cx="1532.0455" cy="771.9531" fill="#ADD1B2" rx="11" ry="11" style="stroke:#A80036;stroke-width:1.0;"/><path d="M1534.3892,767.625 C1533.4517,767.1875 1532.858,767.0469 1531.983,767.0469 C1529.358,767.0469 1527.358,769.125 1527.358,771.8438 L1527.358,772.9688 C1527.358,775.5469 1529.4674,777.4375 1532.358,777.4375 C1533.5767,777.4375 1534.733,777.1406 1535.483,776.5938 C1536.0611,776.1875 1536.3892,775.7344 1536.3892,775.3438 C1536.3892,774.8906 1535.9986,774.5 1535.5299,774.5 C1535.3111,774.5 1535.108,774.5781 1534.9205,774.7656 C1534.4674,775.25 1534.4674,775.25 1534.2799,775.3438 C1533.858,775.6094 1533.1705,775.7344 1532.4049,775.7344 C1530.358,775.7344 1529.0611,774.6406 1529.0611,772.9375 L1529.0611,771.8438 C1529.0611,770.0625 1530.3111,768.75 1532.0455,768.75 C1532.6236,768.75 1533.233,768.9063 1533.7017,769.1563 C1534.1861,769.4375 1534.358,769.6563 1534.4517,770.0625 C1534.5142,770.4688 1534.5455,770.5938 1534.6861,770.7188 C1534.8267,770.8594 1535.0611,770.9688 1535.2799,770.9688 C1535.5455,770.9688 1535.8111,770.8281 1535.983,770.6094 C1536.0924,770.4531 1536.1236,770.2656 1536.1236,769.8438 L1536.1236,768.4219 C1536.1236,767.9844 1536.108,767.8594 1536.0142,767.7031 C1535.858,767.4375 1535.5767,767.2969 1535.2799,767.2969 C1534.983,767.2969 1534.7799,767.3906 1534.5611,767.7031 L1534.3892,767.625 Z " fill="#000000"/><text fill="#000000" font-family="sans-serif" font-size="12" lengthAdjust="spacingAndGlyphs" textLength="71" x="1556.5455" y="762.1387">usantatecla.</text><text fill="#000000" font-family="sans-serif" font-size="12" lengthAdjust="spacingAndGlyphs" textLength="92" x="1546.0455" y="776.1074">tictactoe.types.</text><text fill="#000000" font-family="sans-serif" font-size="12" lengthAdjust="spacingAndGlyphs" textLength="30" x="1577.0455" y="790.0762">Error</text><line style="stroke:#A80036;stroke-width:1.5;" x1="1518.0455" x2="1640.0455" y1="797.9063" y2="797.9063"/><line style="stroke:#A80036;stroke-width:1.5;" x1="1518.0455" x2="1640.0455" y1="805.9063" y2="805.9063"/><!--MD5=[d8c8cfd5ca149094f5b67f9f607a5ec7]
class Token--><rect codeLine="3" fill="#FEFECE" filter="url(#f55u83246vxu0)" height="67.9063" id="Token" style="stroke:#A80036;stroke-width:1.5;" width="124" x="46.044" y="469"/><ellipse cx="61.044" cy="494.9531" fill="#ADD1B2" rx="11" ry="11" style="stroke:#A80036;stroke-width:1.0;"/><path d="M63.3877,490.625 C62.4502,490.1875 61.8565,490.0469 60.9815,490.0469 C58.3565,490.0469 56.3565,492.125 56.3565,494.8438 L56.3565,495.9688 C56.3565,498.5469 58.4659,500.4375 61.3565,500.4375 C62.5752,500.4375 63.7315,500.1406 64.4815,499.5938 C65.0596,499.1875 65.3877,498.7344 65.3877,498.3438 C65.3877,497.8906 64.9971,497.5 64.5284,497.5 C64.3096,497.5 64.1065,497.5781 63.919,497.7656 C63.4659,498.25 63.4659,498.25 63.2784,498.3438 C62.8565,498.6094 62.169,498.7344 61.4034,498.7344 C59.3565,498.7344 58.0596,497.6406 58.0596,495.9375 L58.0596,494.8438 C58.0596,493.0625 59.3096,491.75 61.044,491.75 C61.6221,491.75 62.2315,491.9063 62.7002,492.1563 C63.1846,492.4375 63.3565,492.6563 63.4502,493.0625 C63.5127,493.4688 63.544,493.5938 63.6846,493.7188 C63.8252,493.8594 64.0596,493.9688 64.2784,493.9688 C64.544,493.9688 64.8096,493.8281 64.9815,493.6094 C65.0909,493.4531 65.1221,493.2656 65.1221,492.8438 L65.1221,491.4219 C65.1221,490.9844 65.1065,490.8594 65.0127,490.7031 C64.8565,490.4375 64.5752,490.2969 64.2784,490.2969 C63.9815,490.2969 63.7784,490.3906 63.5596,490.7031 L63.3877,490.625 Z " fill="#000000"/><text fill="#000000" font-family="sans-serif" font-size="12" lengthAdjust="spacingAndGlyphs" textLength="71" x="85.544" y="485.1387">usantatecla.</text><text fill="#000000" font-family="sans-serif" font-size="12" lengthAdjust="spacingAndGlyphs" textLength="92" x="75.044" y="499.1074">tictactoe.types.</text><text fill="#000000" font-family="sans-serif" font-size="12" lengthAdjust="spacingAndGlyphs" textLength="37" x="102.544" y="513.0762">Token</text><line style="stroke:#A80036;stroke-width:1.5;" x1="47.044" x2="169.044" y1="520.9063" y2="520.9063"/><line style="stroke:#A80036;stroke-width:1.5;" x1="47.044" x2="169.044" y1="528.9063" y2="528.9063"/><!--MD5=[acca48e94a5434f1755ae47fdbfe1647]
class WithLogicView--><rect codeLine="4" fill="#FEFECE" filter="url(#f55u83246vxu0)" height="67.9063" id="WithLogicView" style="stroke:#A80036;stroke-width:1.5;" width="126" x="1669.0455" y="150.5"/><ellipse cx="1684.0455" cy="176.4531" fill="#A9DCDF" rx="11" ry="11" style="stroke:#A80036;stroke-width:1.0;"/><path d="M1686.1236,178.2656 L1686.5142,179.25 L1686.1236,179.25 C1685.6705,179.25 1685.5611,179.2656 1685.4049,179.375 C1685.1549,179.5313 1684.9986,179.8125 1684.9986,180.1094 C1684.9986,180.375 1685.1392,180.625 1685.358,180.7813 C1685.4986,180.9063 1685.7017,180.9531 1686.1236,180.9531 L1688.483,180.9531 C1688.8424,180.9531 1689.0611,180.9219 1689.2017,180.8281 C1689.4517,180.6875 1689.608,180.3906 1689.608,180.1094 C1689.608,179.8281 1689.4674,179.5781 1689.2486,179.4219 C1689.0767,179.2813 1688.9205,179.25 1688.4517,179.25 L1685.0611,171.0469 L1681.3892,171.0469 C1680.9361,171.0469 1680.8111,171.0625 1680.6549,171.1563 C1680.4049,171.3281 1680.2486,171.6094 1680.2486,171.8906 C1680.2486,172.1719 1680.3892,172.4219 1680.608,172.5938 C1680.7799,172.7031 1680.9517,172.7344 1681.3892,172.7344 L1682.4674,172.7344 L1679.8267,179.25 C1679.4049,179.25 1679.2486,179.2656 1679.0924,179.375 C1678.8424,179.5313 1678.6861,179.8125 1678.6861,180.1094 C1678.6861,180.6719 1679.0611,180.9531 1679.8111,180.9531 L1682.0767,180.9531 C1682.4361,180.9531 1682.6549,180.9219 1682.7799,180.8281 C1683.0455,180.6875 1683.1861,180.3906 1683.1861,180.1094 C1683.1861,179.8281 1683.0611,179.5781 1682.8424,179.4063 C1682.6705,179.2813 1682.5299,179.25 1682.0767,179.25 L1681.6861,179.25 L1682.0767,178.2656 L1686.1236,178.2656 Z M1685.4205,176.5625 L1682.7486,176.5625 L1684.0924,173.2969 L1685.4205,176.5625 Z " fill="#000000"/><text fill="#000000" font-family="sans-serif" font-size="12" font-style="italic" lengthAdjust="spacingAndGlyphs" textLength="74" x="1708.0455" y="166.6387">usantatecla.</text><text fill="#000000" font-family="sans-serif" font-size="12" font-style="italic" lengthAdjust="spacingAndGlyphs" textLength="94" x="1698.0455" y="180.6074">tictactoe.views.</text><text fill="#000000" font-family="sans-serif" font-size="12" font-style="italic" lengthAdjust="spacingAndGlyphs" textLength="88" x="1701.0455" y="194.5762">WithLogicView</text><line style="stroke:#A80036;stroke-width:1.5;" x1="1670.0455" x2="1794.0455" y1="202.4063" y2="202.4063"/><line style="stroke:#A80036;stroke-width:1.5;" x1="1670.0455" x2="1794.0455" y1="210.4063" y2="210.4063"/><!--MD5=[c045e12321b83266d36d22b9096c24ea]
class View--><rect codeLine="5" fill="#FEFECE" filter="url(#f55u83246vxu0)" height="67.9063" id="View" style="stroke:#A80036;stroke-width:1.5;" width="126" x="1148.0455" y="7"/><ellipse cx="1163.0455" cy="32.9531" fill="#A9DCDF" rx="11" ry="11" style="stroke:#A80036;stroke-width:1.0;"/><path d="M1165.1236,34.7656 L1165.5142,35.75 L1165.1236,35.75 C1164.6705,35.75 1164.5611,35.7656 1164.4049,35.875 C1164.1549,36.0313 1163.9986,36.3125 1163.9986,36.6094 C1163.9986,36.875 1164.1392,37.125 1164.358,37.2813 C1164.4986,37.4063 1164.7017,37.4531 1165.1236,37.4531 L1167.483,37.4531 C1167.8424,37.4531 1168.0611,37.4219 1168.2017,37.3281 C1168.4517,37.1875 1168.608,36.8906 1168.608,36.6094 C1168.608,36.3281 1168.4674,36.0781 1168.2486,35.9219 C1168.0767,35.7813 1167.9205,35.75 1167.4517,35.75 L1164.0611,27.5469 L1160.3892,27.5469 C1159.9361,27.5469 1159.8111,27.5625 1159.6549,27.6563 C1159.4049,27.8281 1159.2486,28.1094 1159.2486,28.3906 C1159.2486,28.6719 1159.3892,28.9219 1159.608,29.0938 C1159.7799,29.2031 1159.9517,29.2344 1160.3892,29.2344 L1161.4674,29.2344 L1158.8267,35.75 C1158.4049,35.75 1158.2486,35.7656 1158.0924,35.875 C1157.8424,36.0313 1157.6861,36.3125 1157.6861,36.6094 C1157.6861,37.1719 1158.0611,37.4531 1158.8111,37.4531 L1161.0767,37.4531 C1161.4361,37.4531 1161.6549,37.4219 1161.7799,37.3281 C1162.0455,37.1875 1162.1861,36.8906 1162.1861,36.6094 C1162.1861,36.3281 1162.0611,36.0781 1161.8424,35.9063 C1161.6705,35.7813 1161.5299,35.75 1161.0767,35.75 L1160.6861,35.75 L1161.0767,34.7656 L1165.1236,34.7656 Z M1164.4205,33.0625 L1161.7486,33.0625 L1163.0924,29.7969 L1164.4205,33.0625 Z " fill="#000000"/><text fill="#000000" font-family="sans-serif" font-size="12" font-style="italic" lengthAdjust="spacingAndGlyphs" textLength="74" x="1187.0455" y="23.1387">usantatecla.</text><text fill="#000000" font-family="sans-serif" font-size="12" font-style="italic" lengthAdjust="spacingAndGlyphs" textLength="94" x="1177.0455" y="37.1074">tictactoe.views.</text><text fill="#000000" font-family="sans-serif" font-size="12" font-style="italic" lengthAdjust="spacingAndGlyphs" textLength="28" x="1210.0455" y="51.0762">View</text><line style="stroke:#A80036;stroke-width:1.5;" x1="1149.0455" x2="1273.0455" y1="58.9063" y2="58.9063"/><line style="stroke:#A80036;stroke-width:1.5;" x1="1149.0455" x2="1273.0455" y1="66.9063" y2="66.9063"/><!--MD5=[bea5b0d46523efab5ea1c1d339f396f0]
class Message--><rect codeLine="6" fill="#FEFECE" filter="url(#f55u83246vxu0)" height="67.9063" id="Message" style="stroke:#A80036;stroke-width:1.5;" width="125" x="473.5435" y="609"/><ellipse cx="488.5435" cy="634.9531" fill="#ADD1B2" rx="11" ry="11" style="stroke:#A80036;stroke-width:1.0;"/><path d="M490.8872,630.625 C489.9497,630.1875 489.356,630.0469 488.481,630.0469 C485.856,630.0469 483.856,632.125 483.856,634.8438 L483.856,635.9688 C483.856,638.5469 485.9654,640.4375 488.856,640.4375 C490.0747,640.4375 491.231,640.1406 491.981,639.5938 C492.5591,639.1875 492.8872,638.7344 492.8872,638.3438 C492.8872,637.8906 492.4966,637.5 492.0279,637.5 C491.8091,637.5 491.606,637.5781 491.4185,637.7656 C490.9654,638.25 490.9654,638.25 490.7779,638.3438 C490.356,638.6094 489.6685,638.7344 488.9029,638.7344 C486.856,638.7344 485.5591,637.6406 485.5591,635.9375 L485.5591,634.8438 C485.5591,633.0625 486.8091,631.75 488.5435,631.75 C489.1216,631.75 489.731,631.9063 490.1997,632.1563 C490.6841,632.4375 490.856,632.6563 490.9497,633.0625 C491.0122,633.4688 491.0435,633.5938 491.1841,633.7188 C491.3247,633.8594 491.5591,633.9688 491.7779,633.9688 C492.0435,633.9688 492.3091,633.8281 492.481,633.6094 C492.5904,633.4531 492.6216,633.2656 492.6216,632.8438 L492.6216,631.4219 C492.6216,630.9844 492.606,630.8594 492.5122,630.7031 C492.356,630.4375 492.0747,630.2969 491.7779,630.2969 C491.481,630.2969 491.2779,630.3906 491.0591,630.7031 L490.8872,630.625 Z " fill="#000000"/><text fill="#000000" font-family="sans-serif" font-size="12" lengthAdjust="spacingAndGlyphs" textLength="71" x="513.5435" y="625.1387">usantatecla.</text><text fill="#000000" font-family="sans-serif" font-size="12" lengthAdjust="spacingAndGlyphs" textLength="93" x="502.5435" y="639.1074">tictactoe.views.</text><text fill="#000000" font-family="sans-serif" font-size="12" lengthAdjust="spacingAndGlyphs" textLength="55" x="521.5435" y="653.0762">Message</text><line style="stroke:#A80036;stroke-width:1.5;" x1="474.5435" x2="597.5435" y1="660.9063" y2="660.9063"/><line style="stroke:#A80036;stroke-width:1.5;" x1="474.5435" x2="597.5435" y1="668.9063" y2="668.9063"/><!--MD5=[86cec68673cafdfc1c204348d5b2cca6]
class ErrorView--><rect codeLine="7" fill="#FEFECE" filter="url(#f55u83246vxu0)" height="67.9063" id="ErrorView" style="stroke:#A80036;stroke-width:1.5;" width="125" x="1669.5455" y="469"/><ellipse cx="1684.5455" cy="494.9531" fill="#ADD1B2" rx="11" ry="11" style="stroke:#A80036;stroke-width:1.0;"/><path d="M1686.8892,490.625 C1685.9517,490.1875 1685.358,490.0469 1684.483,490.0469 C1681.858,490.0469 1679.858,492.125 1679.858,494.8438 L1679.858,495.9688 C1679.858,498.5469 1681.9674,500.4375 1684.858,500.4375 C1686.0767,500.4375 1687.233,500.1406 1687.983,499.5938 C1688.5611,499.1875 1688.8892,498.7344 1688.8892,498.3438 C1688.8892,497.8906 1688.4986,497.5 1688.0299,497.5 C1687.8111,497.5 1687.608,497.5781 1687.4205,497.7656 C1686.9674,498.25 1686.9674,498.25 1686.7799,498.3438 C1686.358,498.6094 1685.6705,498.7344 1684.9049,498.7344 C1682.858,498.7344 1681.5611,497.6406 1681.5611,495.9375 L1681.5611,494.8438 C1681.5611,493.0625 1682.8111,491.75 1684.5455,491.75 C1685.1236,491.75 1685.733,491.9063 1686.2017,492.1563 C1686.6861,492.4375 1686.858,492.6563 1686.9517,493.0625 C1687.0142,493.4688 1687.0455,493.5938 1687.1861,493.7188 C1687.3267,493.8594 1687.5611,493.9688 1687.7799,493.9688 C1688.0455,493.9688 1688.3111,493.8281 1688.483,493.6094 C1688.5924,493.4531 1688.6236,493.2656 1688.6236,492.8438 L1688.6236,491.4219 C1688.6236,490.9844 1688.608,490.8594 1688.5142,490.7031 C1688.358,490.4375 1688.0767,490.2969 1687.7799,490.2969 C1687.483,490.2969 1687.2799,490.3906 1687.0611,490.7031 L1686.8892,490.625 Z " fill="#000000"/><text fill="#000000" font-family="sans-serif" font-size="12" lengthAdjust="spacingAndGlyphs" textLength="71" x="1709.5455" y="485.1387">usantatecla.</text><text fill="#000000" font-family="sans-serif" font-size="12" lengthAdjust="spacingAndGlyphs" textLength="93" x="1698.5455" y="499.1074">tictactoe.views.</text><text fill="#000000" font-family="sans-serif" font-size="12" lengthAdjust="spacingAndGlyphs" textLength="59" x="1715.5455" y="513.0762">ErrorView</text><line style="stroke:#A80036;stroke-width:1.5;" x1="1670.5455" x2="1793.5455" y1="520.9063" y2="520.9063"/><line style="stroke:#A80036;stroke-width:1.5;" x1="1670.5455" x2="1793.5455" y1="528.9063" y2="528.9063"/><!--MD5=[42fa18dda7351a0ae87d9497de925436]
class Logic--><rect codeLine="8" fill="#FEFECE" filter="url(#f55u83246vxu0)" height="67.9063" id="Logic" style="stroke:#A80036;stroke-width:1.5;" width="155" x="633.5435" y="609"/><ellipse cx="648.5435" cy="634.9531" fill="#ADD1B2" rx="11" ry="11" style="stroke:#A80036;stroke-width:1.0;"/><path d="M650.8872,630.625 C649.9497,630.1875 649.356,630.0469 648.481,630.0469 C645.856,630.0469 643.856,632.125 643.856,634.8438 L643.856,635.9688 C643.856,638.5469 645.9654,640.4375 648.856,640.4375 C650.0747,640.4375 651.231,640.1406 651.981,639.5938 C652.5591,639.1875 652.8872,638.7344 652.8872,638.3438 C652.8872,637.8906 652.4966,637.5 652.0279,637.5 C651.8091,637.5 651.606,637.5781 651.4185,637.7656 C650.9654,638.25 650.9654,638.25 650.7779,638.3438 C650.356,638.6094 649.6685,638.7344 648.9029,638.7344 C646.856,638.7344 645.5591,637.6406 645.5591,635.9375 L645.5591,634.8438 C645.5591,633.0625 646.8091,631.75 648.5435,631.75 C649.1216,631.75 649.731,631.9063 650.1997,632.1563 C650.6841,632.4375 650.856,632.6563 650.9497,633.0625 C651.0122,633.4688 651.0435,633.5938 651.1841,633.7188 C651.3247,633.8594 651.5591,633.9688 651.7779,633.9688 C652.0435,633.9688 652.3091,633.8281 652.481,633.6094 C652.5904,633.4531 652.6216,633.2656 652.6216,632.8438 L652.6216,631.4219 C652.6216,630.9844 652.606,630.8594 652.5122,630.7031 C652.356,630.4375 652.0747,630.2969 651.7779,630.2969 C651.481,630.2969 651.2779,630.3906 651.0591,630.7031 L650.8872,630.625 Z " fill="#000000"/><text fill="#000000" font-family="sans-serif" font-size="12" lengthAdjust="spacingAndGlyphs" textLength="71" x="688.5435" y="625.1387">usantatecla.</text><text fill="#000000" font-family="sans-serif" font-size="12" lengthAdjust="spacingAndGlyphs" textLength="123" x="662.5435" y="639.1074">tictactoe.controllers.</text><text fill="#000000" font-family="sans-serif" font-size="12" lengthAdjust="spacingAndGlyphs" textLength="32" x="708.0435" y="653.0762">Logic</text><line style="stroke:#A80036;stroke-width:1.5;" x1="634.5435" x2="787.5435" y1="660.9063" y2="660.9063"/><line style="stroke:#A80036;stroke-width:1.5;" x1="634.5435" x2="787.5435" y1="668.9063" y2="668.9063"/><!--MD5=[315b61b427ec618d6861d47eee00cca3]
class Console--><rect codeLine="9" fill="#FEFECE" filter="url(#f55u83246vxu0)" height="67.9063" id="Console" style="stroke:#A80036;stroke-width:1.5;" width="103" x="351.5435" y="746"/><ellipse cx="366.5435" cy="771.9531" fill="#ADD1B2" rx="11" ry="11" style="stroke:#A80036;stroke-width:1.0;"/><path d="M368.8872,767.625 C367.9497,767.1875 367.356,767.0469 366.481,767.0469 C363.856,767.0469 361.856,769.125 361.856,771.8438 L361.856,772.9688 C361.856,775.5469 363.9654,777.4375 366.856,777.4375 C368.0747,777.4375 369.231,777.1406 369.981,776.5938 C370.5591,776.1875 370.8872,775.7344 370.8872,775.3438 C370.8872,774.8906 370.4966,774.5 370.0279,774.5 C369.8091,774.5 369.606,774.5781 369.4185,774.7656 C368.9654,775.25 368.9654,775.25 368.7779,775.3438 C368.356,775.6094 367.6685,775.7344 366.9029,775.7344 C364.856,775.7344 363.5591,774.6406 363.5591,772.9375 L363.5591,771.8438 C363.5591,770.0625 364.8091,768.75 366.5435,768.75 C367.1216,768.75 367.731,768.9063 368.1997,769.1563 C368.6841,769.4375 368.856,769.6563 368.9497,770.0625 C369.0122,770.4688 369.0435,770.5938 369.1841,770.7188 C369.3247,770.8594 369.5591,770.9688 369.7779,770.9688 C370.0435,770.9688 370.3091,770.8281 370.481,770.6094 C370.5904,770.4531 370.6216,770.2656 370.6216,769.8438 L370.6216,768.4219 C370.6216,767.9844 370.606,767.8594 370.5122,767.7031 C370.356,767.4375 370.0747,767.2969 369.7779,767.2969 C369.481,767.2969 369.2779,767.3906 369.0591,767.7031 L368.8872,767.625 Z " fill="#000000"/><text fill="#000000" font-family="sans-serif" font-size="12" lengthAdjust="spacingAndGlyphs" textLength="71" x="380.5435" y="762.1387">usantatecla.</text><text fill="#000000" font-family="sans-serif" font-size="12" lengthAdjust="spacingAndGlyphs" textLength="27" x="402.5435" y="776.1074">utils.</text><text fill="#000000" font-family="sans-serif" font-size="12" lengthAdjust="spacingAndGlyphs" textLength="49" x="391.5435" y="790.0762">Console</text><line style="stroke:#A80036;stroke-width:1.5;" x1="352.5435" x2="453.5435" y1="797.9063" y2="797.9063"/><line style="stroke:#A80036;stroke-width:1.5;" x1="352.5435" x2="453.5435" y1="805.9063" y2="805.9063"/><!--MD5=[d93cf99d2b92276f27fe8dbf15140505]
class YesNoDialog--><rect codeLine="10" fill="#FEFECE" filter="url(#f55u83246vxu0)" height="67.9063" id="YesNoDialog" style="stroke:#A80036;stroke-width:1.5;" width="108" x="615.0435" y="469"/><ellipse cx="630.0435" cy="494.9531" fill="#ADD1B2" rx="11" ry="11" style="stroke:#A80036;stroke-width:1.0;"/><path d="M632.3872,490.625 C631.4497,490.1875 630.856,490.0469 629.981,490.0469 C627.356,490.0469 625.356,492.125 625.356,494.8438 L625.356,495.9688 C625.356,498.5469 627.4654,500.4375 630.356,500.4375 C631.5747,500.4375 632.731,500.1406 633.481,499.5938 C634.0591,499.1875 634.3872,498.7344 634.3872,498.3438 C634.3872,497.8906 633.9966,497.5 633.5279,497.5 C633.3091,497.5 633.106,497.5781 632.9185,497.7656 C632.4654,498.25 632.4654,498.25 632.2779,498.3438 C631.856,498.6094 631.1685,498.7344 630.4029,498.7344 C628.356,498.7344 627.0591,497.6406 627.0591,495.9375 L627.0591,494.8438 C627.0591,493.0625 628.3091,491.75 630.0435,491.75 C630.6216,491.75 631.231,491.9063 631.6997,492.1563 C632.1841,492.4375 632.356,492.6563 632.4497,493.0625 C632.5122,493.4688 632.5435,493.5938 632.6841,493.7188 C632.8247,493.8594 633.0591,493.9688 633.2779,493.9688 C633.5435,493.9688 633.8091,493.8281 633.981,493.6094 C634.0904,493.4531 634.1216,493.2656 634.1216,492.8438 L634.1216,491.4219 C634.1216,490.9844 634.106,490.8594 634.0122,490.7031 C633.856,490.4375 633.5747,490.2969 633.2779,490.2969 C632.981,490.2969 632.7779,490.3906 632.5591,490.7031 L632.3872,490.625 Z " fill="#000000"/><text fill="#000000" font-family="sans-serif" font-size="12" lengthAdjust="spacingAndGlyphs" textLength="71" x="646.5435" y="485.1387">usantatecla.</text><text fill="#000000" font-family="sans-serif" font-size="12" lengthAdjust="spacingAndGlyphs" textLength="27" x="668.5435" y="499.1074">utils.</text><text fill="#000000" font-family="sans-serif" font-size="12" lengthAdjust="spacingAndGlyphs" textLength="76" x="644.0435" y="513.0762">YesNoDialog</text><line style="stroke:#A80036;stroke-width:1.5;" x1="616.0435" x2="722.0435" y1="520.9063" y2="520.9063"/><line style="stroke:#A80036;stroke-width:1.5;" x1="616.0435" x2="722.0435" y1="528.9063" y2="528.9063"/><!--MD5=[58767b3ac92ed88fc68bd4b9dc66dad3]
class LimitedIntDialog--><rect codeLine="11" fill="#FEFECE" filter="url(#f55u83246vxu0)" height="67.9063" id="LimitedIntDialog" style="stroke:#A80036;stroke-width:1.5;" width="127" x="205.5435" y="469"/><ellipse cx="220.5435" cy="494.9531" fill="#ADD1B2" rx="11" ry="11" style="stroke:#A80036;stroke-width:1.0;"/><path d="M222.8872,490.625 C221.9497,490.1875 221.356,490.0469 220.481,490.0469 C217.856,490.0469 215.856,492.125 215.856,494.8438 L215.856,495.9688 C215.856,498.5469 217.9654,500.4375 220.856,500.4375 C222.0747,500.4375 223.231,500.1406 223.981,499.5938 C224.5591,499.1875 224.8872,498.7344 224.8872,498.3438 C224.8872,497.8906 224.4966,497.5 224.0279,497.5 C223.8091,497.5 223.606,497.5781 223.4185,497.7656 C222.9654,498.25 222.9654,498.25 222.7779,498.3438 C222.356,498.6094 221.6685,498.7344 220.9029,498.7344 C218.856,498.7344 217.5591,497.6406 217.5591,495.9375 L217.5591,494.8438 C217.5591,493.0625 218.8091,491.75 220.5435,491.75 C221.1216,491.75 221.731,491.9063 222.1997,492.1563 C222.6841,492.4375 222.856,492.6563 222.9497,493.0625 C223.0122,493.4688 223.0435,493.5938 223.1841,493.7188 C223.3247,493.8594 223.5591,493.9688 223.7779,493.9688 C224.0435,493.9688 224.3091,493.8281 224.481,493.6094 C224.5904,493.4531 224.6216,493.2656 224.6216,492.8438 L224.6216,491.4219 C224.6216,490.9844 224.606,490.8594 224.5122,490.7031 C224.356,490.4375 224.0747,490.2969 223.7779,490.2969 C223.481,490.2969 223.2779,490.3906 223.0591,490.7031 L222.8872,490.625 Z " fill="#000000"/><text fill="#000000" font-family="sans-serif" font-size="12" lengthAdjust="spacingAndGlyphs" textLength="71" x="246.5435" y="485.1387">usantatecla.</text><text fill="#000000" font-family="sans-serif" font-size="12" lengthAdjust="spacingAndGlyphs" textLength="27" x="268.5435" y="499.1074">utils.</text><text fill="#000000" font-family="sans-serif" font-size="12" lengthAdjust="spacingAndGlyphs" textLength="95" x="234.5435" y="513.0762">LimitedIntDialog</text><line style="stroke:#A80036;stroke-width:1.5;" x1="206.5435" x2="331.5435" y1="520.9063" y2="520.9063"/><line style="stroke:#A80036;stroke-width:1.5;" x1="206.5435" x2="331.5435" y1="528.9063" y2="528.9063"/><!--MD5=[574d2af93f9ea817b36d7b7e70662d67]
link View to tictactoe.views.console.ConsoleView--><path codeLine="19" d="M1211.0455,95.31 C1211.0455,101.72 1211.0455,122.982 1211.0455,122.982 " fill="none" id="View-tictactoe.views.console.ConsoleView" style="stroke:#A80036;stroke-width:1.0;"/><polygon fill="#A80036" points="1211.0455,134.982,1215.0455,128.982,1211.0455,122.982,1207.0455,128.982,1211.0455,134.982" style="stroke:#A80036;stroke-width:1.0;"/><polygon fill="none" points="1204.0455,95.175,1211.0455,75.175,1218.0455,95.175,1204.0455,95.175" style="stroke:#A80036;stroke-width:1.0;"/><!--MD5=[9113815f8bbc012213d6467f94b3dc5b]
link tictactoe.views.console.ConsoleView to tictactoe.views.console.StartView--><path codeLine="20" d="M1178.8521,244.6547 C1178.8521,244.6547 1157.5255,283.818 1148.0655,301.197 " fill="none" id="tictactoe.views.console.ConsoleView-tictactoe.views.console.StartView" style="stroke:#A80036;stroke-width:1.0;"/><polygon fill="#A80036" points="1141.7555,312.781,1149.5694,306.7858,1144.1444,308.3886,1142.5416,302.9636,1141.7555,312.781" style="stroke:#A80036;stroke-width:1.0;"/><line style="stroke:#A80036;stroke-width:1.0;" x1="1144.1444" x2="1147.9755" y1="308.3886" y2="301.3625"/><polygon fill="#A80036" points="1184.5855,234.113,1178.2049,237.4727,1178.8521,244.6547,1185.2327,241.295,1184.5855,234.113" style="stroke:#A80036;stroke-width:1.0;"/><!--MD5=[1735144fa38f1aa47117a26d071db586]
link tictactoe.views.console.ConsoleView to tictactoe.views.console.PlayView--><path codeLine="21" d="M1296.6339,231.8471 C1296.6339,231.8471 1365.8555,269.313 1399.5155,287.538 " fill="none" id="tictactoe.views.console.ConsoleView-tictactoe.views.console.PlayView" style="stroke:#A80036;stroke-width:1.0;"/><polygon fill="#A80036" points="1411.3055,293.918,1405.2933,286.1172,1406.9079,291.5387,1401.4864,293.1533,1411.3055,293.918" style="stroke:#A80036;stroke-width:1.0;"/><line style="stroke:#A80036;stroke-width:1.0;" x1="1406.9079" x2="1399.8705" y1="291.5387" y2="287.7285"/><polygon fill="#A80036" points="1286.0855,226.126,1289.4527,232.5027,1296.6339,231.8471,1293.2667,225.4704,1286.0855,226.126" style="stroke:#A80036;stroke-width:1.0;"/><!--MD5=[a983e760d9bef84c565434062749d875]
link tictactoe.views.console.ConsoleView to tictactoe.views.console.ResumeView--><path codeLine="22" d="M1237.9934,245.0454 C1237.9934,245.0454 1255.4955,283.721 1263.2355,300.81 " fill="none" id="tictactoe.views.console.ConsoleView-tictactoe.views.console.ResumeView" style="stroke:#A80036;stroke-width:1.0;"/><polygon fill="#A80036" points="1268.6555,312.781,1268.5887,302.9324,1266.5938,308.2258,1261.3004,306.231,1268.6555,312.781" style="stroke:#A80036;stroke-width:1.0;"/><line style="stroke:#A80036;stroke-width:1.0;" x1="1266.5938" x2="1263.2905" y1="308.2258" y2="300.937"/><polygon fill="#A80036" points="1233.0455,234.113,1231.8753,241.2285,1237.9934,245.0454,1239.1636,237.9299,1233.0455,234.113" style="stroke:#A80036;stroke-width:1.0;"/><!--MD5=[4824b6c89eb1f5017c6a8469c39d10fd]
link tictactoe.views.console.ConsoleView to Logic--><path codeLine="23" d="M1136.0255,191.475 C898.1105,212.126 167.8705,289.142 28.044,466 C7.6464,491.8 6,515.592 28.044,540 C116.0785,637.475 489.0785,566.363 616.0435,600 C623.3385,601.932 630.7855,604.355 638.1415,607.056 " fill="none" id="tictactoe.views.console.ConsoleView-to-Logic" style="stroke:#A80036;stroke-width:1.0;stroke-dasharray:7.0,7.0;"/><polygon fill="#A80036" points="643.2175,608.968,636.2059,602.0515,638.5386,607.205,633.3851,609.5378,643.2175,608.968" style="stroke:#A80036;stroke-width:1.0;"/><!--MD5=[e1d44c48801e3ddc14cbc7a29f17140c]
reverse link WithLogicView to tictactoe.views.console.StartView--><path codeLine="29" d="M1667.3655,228.068 C1662.6155,230.293 1657.8255,232.305 1653.0455,234 C1460.8055,302.186 1387.5555,218.574 1198.0455,294 C1186.3955,298.638 1174.8755,305.461 1164.4655,312.736 " fill="none" id="WithLogicView-backto-tictactoe.views.console.StartView" style="stroke:#A80036;stroke-width:1.0;"/><polygon fill="none" points="1664.2455,221.796,1685.2055,218.645,1670.7855,234.176,1664.2455,221.796" style="stroke:#A80036;stroke-width:1.0;"/><!--MD5=[dd55afc3b677549d38339353518552e1]
link tictactoe.views.console.StartView to tictactoe.views.console.BoardView--><path codeLine="30" d="M1151.7455,387.168 C1170.2355,409.685 1194.0455,438.677 1213.1155,461.896 " fill="none" id="tictactoe.views.console.StartView-to-tictactoe.views.console.BoardView" style="stroke:#A80036;stroke-width:1.0;stroke-dasharray:7.0,7.0;"/><polygon fill="#A80036" points="1216.3755,465.865,1213.7471,456.3733,1213.1991,462.0036,1207.5689,461.4555,1216.3755,465.865" style="stroke:#A80036;stroke-width:1.0;"/><!--MD5=[4aa5fcbc409118c964494cc628b0912c]
link tictactoe.views.console.StartView to Logic--><path codeLine="31" d="M1062.7955,354.915 C938.0555,364.522 655.0265,393.941 597.0435,466 C576.4255,491.624 583.6195,509.976 597.0435,540 C608.8305,566.362 631.1705,588.731 652.9725,605.743 " fill="none" id="tictactoe.views.console.StartView-to-Logic" style="stroke:#A80036;stroke-width:1.0;stroke-dasharray:7.0,7.0;"/><polygon fill="#A80036" points="657.0345,608.857,652.3262,600.2065,653.0666,605.8147,647.4584,606.5551,657.0345,608.857" style="stroke:#A80036;stroke-width:1.0;"/><!--MD5=[cbe56104a70ea1577228555875c75924]
link tictactoe.views.console.StartView to Message--><path codeLine="32" d="M1062.7655,355.594 C936.2485,366.612 645.7015,398.763 577.0435,466 C540.4685,501.819 533.8615,563.481 533.8795,603.488 " fill="none" id="tictactoe.views.console.StartView-to-Message" style="stroke:#A80036;stroke-width:1.0;stroke-dasharray:7.0,7.0;"/><polygon fill="#A80036" points="533.9205,608.742,537.8509,599.7114,533.8819,603.7421,529.8512,599.7731,533.9205,608.742" style="stroke:#A80036;stroke-width:1.0;"/><!--MD5=[e5fc69a5d7b9edfb586c1b6276c53e05]
link tictactoe.views.console.StartView to Console--><path codeLine="33" d="M1062.8055,355.519 C927.5525,367.586 602.7905,403.936 516.0435,466 C424.9815,531.152 397.4675,672.39 396.3255,740.601 " fill="none" id="tictactoe.views.console.StartView-to-Console" style="stroke:#A80036;stroke-width:1.0;stroke-dasharray:7.0,7.0;"/><polygon fill="#A80036" points="396.2895,745.7808,400.3526,736.8091,396.3246,740.7809,392.3528,736.7529,396.2895,745.7808" style="stroke:#A80036;stroke-width:1.0;"/><!--MD5=[e5fc69a5d7b9edfb586c1b6276c53e05]
link tictactoe.views.console.StartView to Console--><path codeLine="98" d="M1062.7655,357.304 C933.6945,370.923 633.8715,406.74 551.0435,466 C459.9815,531.152 432.4675,672.39 416.9505,740.601 " fill="none" id="tictactoe.views.console.StartView-to-Console-1" style="stroke:#A80036;stroke-width:1.0;stroke-dasharray:7.0,7.0;"/><polygon fill="#A80036" points="415.7605,745.7808,421.6733,737.9044,416.8796,740.9076,413.8763,736.1139,415.7605,745.7808" style="stroke:#A80036;stroke-width:1.0;"/><!--MD5=[f18569398a34687a26f0429a50bef928]
link tictactoe.views.console.StartView to LimitedIntDialog--><path codeLine="34" d="M1062.7955,355.34 C933.3715,365.814 616.4675,396.893 360.0435,466 C352.5725,468.014 344.8785,470.45 337.2785,473.096 " fill="none" id="tictactoe.views.console.StartView-to-LimitedIntDialog" style="stroke:#A80036;stroke-width:1.0;stroke-dasharray:7.0,7.0;"/><polygon fill="#A80036" points="332.5615,474.768,342.3806,475.5323,337.2744,473.098,339.7086,467.9917,332.5615,474.768" style="stroke:#A80036;stroke-width:1.0;"/><!--MD5=[c005970ae84ddb30d654d0b84a5cc8b7]
reverse link WithLogicView to tictactoe.views.console.PlayView--><path codeLine="43" d="M1671.6955,230.553 C1645.5155,250.1 1614.6055,273.18 1587.0455,293.75 " fill="none" id="WithLogicView-backto-tictactoe.views.console.PlayView" style="stroke:#A80036;stroke-width:1.0;"/><polygon fill="none" points="1667.5155,224.942,1687.7255,218.587,1675.8855,236.161,1667.5155,224.942" style="stroke:#A80036;stroke-width:1.0;"/><!--MD5=[9623adb787708e117decab727ca41eb7]
link tictactoe.views.console.PlayView to tictactoe.views.console.BoardView--><path codeLine="44" d="M1415.5155,406.155 C1381.2955,425.508 1343.6755,446.787 1312.5855,464.369 " fill="none" id="tictactoe.views.console.PlayView-to-tictactoe.views.console.BoardView" style="stroke:#A80036;stroke-width:1.0;stroke-dasharray:7.0,7.0;"/><polygon fill="#A80036" points="1308.0455,466.935,1317.8492,465.9928,1312.3993,464.4765,1313.9156,459.0266,1308.0455,466.935" style="stroke:#A80036;stroke-width:1.0;"/><!--MD5=[79c70b9791342a198a7a508e5eca16c0]
link tictactoe.views.console.PlayView to tictactoe.views.console.TokenView--><path codeLine="45" d="M1528.1855,406.071 C1536.0055,444.96 1540.6455,497.5 1523.0455,540 C1514.2255,561.295 1498.5655,580.462 1482.1155,596.279 " fill="none" id="tictactoe.views.console.PlayView-to-tictactoe.views.console.TokenView" style="stroke:#A80036;stroke-width:1.0;stroke-dasharray:7.0,7.0;"/><polygon fill="#A80036" points="1478.3755,599.81,1487.6608,596.5261,1482.006,596.3721,1482.1601,590.7173,1478.3755,599.81" style="stroke:#A80036;stroke-width:1.0;"/><!--MD5=[62ef53832a268c8eeef898be5bf89785]
link tictactoe.views.console.PlayView to tictactoe.views.console.CoordinateView--><path codeLine="46" d="M1480.4055,406.369 C1468.2455,427.01 1454.8055,449.815 1444.0955,467.977 " fill="none" id="tictactoe.views.console.PlayView-to-tictactoe.views.console.CoordinateView" style="stroke:#A80036;stroke-width:1.0;stroke-dasharray:7.0,7.0;"/><polygon fill="#A80036" points="1441.4355,472.491,1449.4472,466.7627,1443.9712,468.1817,1442.5522,462.7057,1441.4355,472.491" style="stroke:#A80036;stroke-width:1.0;"/><!--MD5=[e071d848ecb5a4df5f49ec11249b339d]
link tictactoe.views.console.PlayView to tictactoe.views.console.ErrorView--><path codeLine="47" d="M1532.5955,406.096 C1538.7955,424.927 1545.2655,446.226 1550.0455,466 C1561.0755,511.615 1569.2055,564.901 1574.0055,600.791 " fill="none" id="tictactoe.views.console.PlayView-to-tictactoe.views.console.ErrorView" style="stroke:#A80036;stroke-width:1.0;stroke-dasharray:7.0,7.0;"/><polygon fill="#A80036" points="1574.6955,605.957,1577.4781,596.5094,1574.0384,601.0004,1569.5474,597.5607,1574.6955,605.957" style="stroke:#A80036;stroke-width:1.0;"/><!--MD5=[b80414e6d75ccbd80e4ccb636e034d3f]
link tictactoe.views.console.PlayView to Logic--><path codeLine="48" d="M1388.8255,400.676 C1382.8455,402.573 1376.8955,404.361 1371.0455,406 C1224.5355,446.998 1172.1855,402.28 1034.0455,466 C987.0205,487.69 988.1815,512.915 944.0435,540 C917.4575,556.314 849.2535,585.687 793.4635,608.736 " fill="none" id="tictactoe.views.console.PlayView-to-Logic" style="stroke:#A80036;stroke-width:1.0;stroke-dasharray:7.0,7.0;"/><polygon fill="#A80036" points="788.7895,610.665,798.6348,610.9304,793.4116,608.7582,795.5838,603.535,788.7895,610.665" style="stroke:#A80036;stroke-width:1.0;"/><!--MD5=[3b49bdf6c7f6ce83eed251a9af28dbf3]
link tictactoe.views.console.PlayView to Coordinate--><path codeLine="49" d="M1388.9755,399.755 C1382.9255,401.91 1376.9255,404.004 1371.0455,406 C1281.1455,436.505 1248.6355,419.193 1166.0455,466 C1123.9055,489.881 1122.4755,508.085 1086.0455,540 C1060.6955,562.205 1031.7055,586.303 1008.2445,605.498 " fill="none" id="tictactoe.views.console.PlayView-to-Coordinate" style="stroke:#A80036;stroke-width:1.0;stroke-dasharray:7.0,7.0;"/><polygon fill="#A80036" points="1004.2295,608.778,1013.7299,606.1816,1008.1016,605.6146,1008.6685,599.9862,1004.2295,608.778" style="stroke:#A80036;stroke-width:1.0;"/><!--MD5=[f335b251d0d5a458b635239e43cc0bb5]
link tictactoe.views.console.PlayView to Message--><path codeLine="50" d="M1388.9055,400.952 C1382.9055,402.776 1376.9255,404.473 1371.0455,406 C1183.8455,454.584 1122.8255,402.789 940.0435,466 C878.3045,487.351 872.9145,513.863 813.0435,540 C729.1625,576.619 700.7135,565.241 616.0435,600 C611.0445,602.052 605.9415,604.313 600.8535,606.689 " fill="none" id="tictactoe.views.console.PlayView-to-Message" style="stroke:#A80036;stroke-width:1.0;stroke-dasharray:7.0,7.0;"/><polygon fill="#A80036" points="596.1885,608.9,606.0344,608.6603,600.7068,606.7587,602.6084,601.4311,596.1885,608.9" style="stroke:#A80036;stroke-width:1.0;"/><!--MD5=[b8eae5493de689ae966fe038f1428b07]
link tictactoe.views.console.PlayView to Error--><path codeLine="51" d="M1637.2655,365.589 C1700.7655,380.047 1772.7655,408.808 1812.0455,466 C1882.6455,568.792 1731.2455,685.592 1640.5955,743.1065 " fill="none" id="tictactoe.views.console.PlayView-to-Error" style="stroke:#A80036;stroke-width:1.0;stroke-dasharray:7.0,7.0;"/><polygon fill="#A80036" points="1636.3255,745.8002,1646.0707,744.3751,1640.5526,743.1298,1641.798,737.6117,1636.3255,745.8002" style="stroke:#A80036;stroke-width:1.0;"/><!--MD5=[8b10c11746b26304038cab5745b0b163]
link tictactoe.views.console.PlayView to Console--><path codeLine="52" d="M1388.7655,400.469 C1382.8055,402.422 1376.8755,404.278 1371.0455,406 C1245.2355,443.15 1195.8955,400.834 1082.0455,466 C1043.5355,488.039 1051.0555,514.081 1015.0455,540 C961.0945,578.833 928.7985,557.075 878.0435,600 C833.4295,637.732 854.9065,677.959 806.0435,710 C749.9145,746.8062 556.7855,766.8877 459.7015,774.8685 " fill="none" id="tictactoe.views.console.PlayView-to-Console" style="stroke:#A80036;stroke-width:1.0;stroke-dasharray:7.0,7.0;"/><polygon fill="#A80036" points="454.5835,775.2853,463.8784,778.5418,459.567,774.8796,463.2292,770.5682,454.5835,775.2853" style="stroke:#A80036;stroke-width:1.0;"/><!--MD5=[9c00f55793fc85490b19dc7e8464f2f3]
reverse link WithLogicView to tictactoe.views.console.ResumeView--><path codeLine="58" d="M1665.6455,228.401 C1661.4555,230.437 1657.2355,232.326 1653.0455,234 C1534.0555,281.543 1489.5955,245.365 1371.0455,294 C1358.7455,299.045 1346.2755,305.855 1334.7855,312.962 " fill="none" id="WithLogicView-backto-tictactoe.views.console.ResumeView" style="stroke:#A80036;stroke-width:1.0;"/><polygon fill="none" points="1662.7455,222.015,1683.6755,218.734,1669.3555,234.354,1662.7455,222.015" style="stroke:#A80036;stroke-width:1.0;"/><!--MD5=[5454637c212d783f2ea5f01cec8af529]
link tictactoe.views.console.ResumeView to Logic--><path codeLine="59" d="M1233.5955,387.22 C1222.2455,394.147 1210.0255,400.838 1198.0455,406 C1099.0455,448.658 1061.0355,421.081 963.0435,466 C882.5965,502.878 800.6255,565.835 752.8645,605.607 " fill="none" id="tictactoe.views.console.ResumeView-to-Logic" style="stroke:#A80036;stroke-width:1.0;stroke-dasharray:7.0,7.0;"/><polygon fill="#A80036" points="748.9185,608.905,758.3888,606.2006,752.7543,605.6978,753.2572,600.0633,748.9185,608.905" style="stroke:#A80036;stroke-width:1.0;"/><!--MD5=[45d6b98411685f94cdacdaac3bc1e164]
link tictactoe.views.console.ResumeView to Message--><path codeLine="60" d="M1235.3255,387.177 C1223.5655,394.365 1210.7355,401.173 1198.0455,406 C1044.3755,464.427 983.3215,399.337 833.0435,466 C784.7595,487.419 784.7585,511.88 740.0435,540 C688.2175,572.593 670.7105,572.434 616.0435,600 C611.9295,602.075 607.7065,604.226 603.4525,606.41 " fill="none" id="tictactoe.views.console.ResumeView-to-Message" style="stroke:#A80036;stroke-width:1.0;stroke-dasharray:7.0,7.0;"/><polygon fill="#A80036" points="598.8295,608.79,608.6623,608.2272,603.275,606.5015,605.0007,601.1143,598.8295,608.79" style="stroke:#A80036;stroke-width:1.0;"/><!--MD5=[8fe1c1d6283f66daa4ac51944081ccb1]
link tictactoe.views.console.ResumeView to YesNoDialog--><path codeLine="61" d="M1235.8855,387.175 C1223.9955,394.454 1210.9755,401.302 1198.0455,406 C1009.2275,474.59 943.3475,411.318 750.0435,466 C742.8255,468.042 735.4185,470.612 728.1575,473.434 " fill="none" id="tictactoe.views.console.ResumeView-to-YesNoDialog" style="stroke:#A80036;stroke-width:1.0;stroke-dasharray:7.0,7.0;"/><polygon fill="#A80036" points="723.1575,475.425,732.9988,475.8105,727.8025,473.5747,730.0383,468.3784,723.1575,475.425" style="stroke:#A80036;stroke-width:1.0;"/><!--MD5=[9763964df7e804ebb0ab3261824367eb]
reverse link WithLogicView to tictactoe.views.console.CoordinateView--><path codeLine="66" d="M1743.5055,238.615 C1750.7755,287.314 1752.8655,358.824 1716.0455,406 C1666.2155,469.834 1572.8555,491.722 1505.0855,498.964 " fill="none" id="WithLogicView-backto-tictactoe.views.console.CoordinateView" style="stroke:#A80036;stroke-width:1.0;"/><polygon fill="none" points="1736.5555,239.547,1740.0455,218.647,1750.3555,237.159,1736.5555,239.547" style="stroke:#A80036;stroke-width:1.0;"/><!--MD5=[b44a7c032619397c63802a117d0c01c0]
link tictactoe.views.console.CoordinateView to tictactoe.views.console.ErrorView--><path codeLine="67" d="M1457.2955,533.604 C1479.8355,553.676 1509.8955,580.437 1534.5055,602.346 " fill="none" id="tictactoe.views.console.CoordinateView-to-tictactoe.views.console.ErrorView" style="stroke:#A80036;stroke-width:1.0;stroke-dasharray:7.0,7.0;"/><polygon fill="#A80036" points="1538.4055,605.819,1534.3486,596.8445,1534.673,602.492,1529.0255,602.8165,1538.4055,605.819" style="stroke:#A80036;stroke-width:1.0;"/><!--MD5=[53f38cb5b3223eac4a9d3093d3b9e68c]
link tictactoe.views.console.CoordinateView to Logic--><path codeLine="68" d="M1347.8055,533.566 C1340.1755,535.965 1332.5055,538.166 1325.0455,540 C1130.3955,587.861 1074.8855,562.161 878.0435,600 C850.4055,605.313 820.5115,612.398 793.7575,619.233 " fill="none" id="tictactoe.views.console.CoordinateView-to-Logic" style="stroke:#A80036;stroke-width:1.0;stroke-dasharray:7.0,7.0;"/><polygon fill="#A80036" points="788.7995,620.506,798.5113,622.1432,793.6425,619.2631,796.5227,614.3943,788.7995,620.506" style="stroke:#A80036;stroke-width:1.0;"/><!--MD5=[a06a410d0f6c1be87ea9d2d5c8f79243]
link tictactoe.views.console.CoordinateView to Console--><path codeLine="69" d="M1388.3055,533.536 C1324.7155,585.455 1193.4755,689.533 1139.0455,710 C1014.6855,756.762 610.0585,773.0181 459.8515,777.5254 " fill="none" id="tictactoe.views.console.CoordinateView-to-Console" style="stroke:#A80036;stroke-width:1.0;stroke-dasharray:7.0,7.0;"/><polygon fill="#A80036" points="454.6165,777.6808,463.7314,781.4116,459.6143,777.5322,463.4937,773.4151,454.6165,777.6808" style="stroke:#A80036;stroke-width:1.0;"/><!--MD5=[3ea4caf7e48eaae8f655dde5cd3263f2]
link tictactoe.views.console.CoordinateView to Error--><path codeLine="70" d="M1386.0555,533.91 C1367.4755,551.018 1346.9955,574.188 1337.0455,600 C1319.4455,645.613 1307.5955,670.978 1337.0455,710 C1358.1755,737.9959 1447.9955,758.0174 1512.0355,769.0543 " fill="none" id="tictactoe.views.console.CoordinateView-to-Error" style="stroke:#A80036;stroke-width:1.0;stroke-dasharray:7.0,7.0;"/><polygon fill="#A80036" points="1516.9855,769.8986,1508.7885,764.4388,1512.057,769.0558,1507.44,772.3243,1516.9855,769.8986" style="stroke:#A80036;stroke-width:1.0;"/><!--MD5=[6e79601aef612c06e9891b4875f898f3]
link tictactoe.views.console.CoordinateView to Coordinate--><path codeLine="71" d="M1345.7355,533.579 C1338.7755,535.872 1331.8055,538.05 1325.0455,540 C1203.5855,575.013 1166.2855,558.073 1047.0455,600 C1041.3955,601.986 1035.6355,604.266 1029.9255,606.715 " fill="none" id="tictactoe.views.console.CoordinateView-to-Coordinate" style="stroke:#A80036;stroke-width:1.0;stroke-dasharray:7.0,7.0;"/><polygon fill="#A80036" points="1025.1355,608.81,1034.9841,608.8752,1029.7179,606.8096,1031.7835,601.5433,1025.1355,608.81" style="stroke:#A80036;stroke-width:1.0;"/><!--MD5=[09df14cf147ebf3fa601d40955ce3c27]
reverse link ErrorView to tictactoe.views.console.ErrorView--><path codeLine="77" d="M1680.3755,550.602 C1660.3955,568.625 1637.8755,588.935 1619.1555,605.824 " fill="none" id="ErrorView-backto-tictactoe.views.console.ErrorView" style="stroke:#A80036;stroke-width:1.0;"/><polygon fill="none" points="1675.8555,545.252,1695.3955,537.054,1685.2355,555.648,1675.8555,545.252" style="stroke:#A80036;stroke-width:1.0;"/><!--MD5=[5e3154eeb00ff673e3597b7a5033dd40]
link tictactoe.views.console.ErrorView to Error--><path codeLine="78" d="M1579.0455,680.178 C1579.0455,698.882 1579.0455,721.7093 1579.0455,740.7105 " fill="none" id="tictactoe.views.console.ErrorView-to-Error" style="stroke:#A80036;stroke-width:1.0;stroke-dasharray:7.0,7.0;"/><polygon fill="#A80036" points="1579.0455,745.9618,1583.0455,736.9618,1579.0455,740.9618,1575.0455,736.9618,1579.0455,745.9618" style="stroke:#A80036;stroke-width:1.0;"/><!--MD5=[8ec17c1eeb1fabb729f4f45734e470f6]
link tictactoe.views.console.ErrorView to Console--><path codeLine="79" d="M1547.2955,680.271 C1535.0255,691.851 1520.0755,703.372 1504.0455,710 C1407.2355,750.0336 671.6805,772.0377 459.9185,777.5881 " fill="none" id="tictactoe.views.console.ErrorView-to-Console" style="stroke:#A80036;stroke-width:1.0;stroke-dasharray:7.0,7.0;"/><polygon fill="#A80036" points="454.7115,777.724,463.8124,781.4886,459.7098,777.594,463.6044,773.4914,454.7115,777.724" style="stroke:#A80036;stroke-width:1.0;"/><!--MD5=[7fc19166e988540cd8f06fe8f1551678]
reverse link WithLogicView to tictactoe.views.console.BoardView--><path codeLine="85" d="M1720.0355,238.489 C1705.8355,296.411 1680.8455,383.941 1655.0455,406 C1541.7355,502.869 1467.2955,421.417 1325.0455,466 C1319.5755,467.713 1313.9955,469.71 1308.4455,471.871 " fill="none" id="WithLogicView-backto-tictactoe.views.console.BoardView" style="stroke:#A80036;stroke-width:1.0;"/><polygon fill="none" points="1713.3155,236.497,1724.7655,218.666,1726.9355,239.744,1713.3155,236.497" style="stroke:#A80036;stroke-width:1.0;"/><!--MD5=[8407cabd396d0f607abdd74c0bf30cbc]
link tictactoe.views.console.BoardView to tictactoe.views.console.TokenView--><path codeLine="86" d="M1292.0255,540.258 C1313.9455,557.545 1340.3955,578.402 1363.6255,596.72 " fill="none" id="tictactoe.views.console.BoardView-to-tictactoe.views.console.TokenView" style="stroke:#A80036;stroke-width:1.0;stroke-dasharray:7.0,7.0;"/><polygon fill="#A80036" points="1367.6255,599.872,1363.0216,591.1654,1363.6945,596.7821,1358.0778,597.455,1367.6255,599.872" style="stroke:#A80036;stroke-width:1.0;"/><!--MD5=[17ce19047661cb9b40dabe9de34070ad]
link tictactoe.views.console.BoardView to Logic--><path codeLine="87" d="M1183.8855,520.033 C1087.3955,544.922 901.4785,592.879 793.7535,620.666 " fill="none" id="tictactoe.views.console.BoardView-to-Logic" style="stroke:#A80036;stroke-width:1.0;stroke-dasharray:7.0,7.0;"/><polygon fill="#A80036" points="788.6835,621.973,798.3977,623.5961,793.5247,620.723,796.3978,615.8501,788.6835,621.973" style="stroke:#A80036;stroke-width:1.0;"/><!--MD5=[b309a865775dd4647c3ec58d59c6e25c]
link tictactoe.views.console.BoardView to Coordinate--><path codeLine="88" d="M1183.6355,533.825 C1144.3655,552.664 1092.6655,577.593 1047.0455,600 C1042.6555,602.156 1038.1355,604.384 1033.5855,606.637 " fill="none" id="tictactoe.views.console.BoardView-to-Coordinate" style="stroke:#A80036;stroke-width:1.0;stroke-dasharray:7.0,7.0;"/><polygon fill="#A80036" points="1029.0255,608.897,1038.8661,608.4951,1033.5079,606.6815,1035.3214,601.3233,1029.0255,608.897" style="stroke:#A80036;stroke-width:1.0;"/><!--MD5=[2d7e8e41c2972c72a028fdb87a58cca9]
link tictactoe.views.console.BoardView to Message--><path codeLine="89" d="M1183.8855,510.816 C1046.5555,526.303 721.1575,565.477 616.0435,600 C610.2225,601.912 604.3145,604.218 598.4825,606.754 " fill="none" id="tictactoe.views.console.BoardView-to-Message" style="stroke:#A80036;stroke-width:1.0;stroke-dasharray:7.0,7.0;"/><polygon fill="#A80036" points="593.6055,608.935,603.4543,608.913,598.17,606.8941,600.1889,601.6098,593.6055,608.935" style="stroke:#A80036;stroke-width:1.0;"/><!--MD5=[48a58e5377fdc772b08702066c6591bf]
link tictactoe.views.console.BoardView to Console--><path codeLine="90" d="M1223.3655,540.108 C1190.9855,588.138 1126.6555,671.454 1048.0455,710 C945.0915,760.4812 597.8195,774.3108 460.0495,777.8565 " fill="none" id="tictactoe.views.console.BoardView-to-Console" style="stroke:#A80036;stroke-width:1.0;stroke-dasharray:7.0,7.0;"/><polygon fill="#A80036" points="454.8395,777.9882,463.9383,781.7581,459.8379,777.8611,463.7349,773.7606,454.8395,777.9882" style="stroke:#A80036;stroke-width:1.0;"/><!--MD5=[6ea791314a7012eef494e5b69e119c48]
link tictactoe.views.console.StartView to Token--><path codeLine="97" d="M1050.9212,352.5342 C1050.9212,352.5342 500.6935,378.568 188.0435,466 C186.3025,466.487 184.5495,467.006 182.7915,467.554 " fill="none" id="tictactoe.views.console.StartView-Token" style="stroke:#A80036;stroke-width:1.0;"/><polygon fill="#A80036" points="170.2645,471.866,180.0764,472.7186,174.9922,470.2385,177.4723,465.1543,170.2645,471.866" style="stroke:#A80036;stroke-width:1.0;"/><line style="stroke:#A80036;stroke-width:1.0;" x1="174.9922" x2="182.5565" y1="470.2385" y2="467.635"/><polygon fill="#A80036" points="1062.9155,352.165,1056.7953,348.3515,1050.9212,352.5342,1057.0414,356.3477,1062.9155,352.165" style="stroke:#A80036;stroke-width:1.0;"/><!--MD5=[538f5e7331f69b241f46d742e9e7698f]
@startuml
class Coordinate as "usantatecla.\ntictactoe.models.\nCoordinate"
class Error as "usantatecla.\ntictactoe.types.\nError"
class Token as "usantatecla.\ntictactoe.types.\nToken"
abstract class WithLogicView as "usantatecla.\ntictactoe.views.\nWithLogicView"
abstract class View as "usantatecla.\ntictactoe.views.\nView"
class Message as "usantatecla.\ntictactoe.views.\nMessage"
class ErrorView as "usantatecla.\ntictactoe.views.\nErrorView"
class Logic as "usantatecla.\ntictactoe.controllers.\nLogic"
class Console as "usantatecla.\nutils.\nConsole"
class YesNoDialog as "usantatecla.\nutils.\nYesNoDialog"
class LimitedIntDialog as "usantatecla.\nutils.\nLimitedIntDialog"

class tictactoe.views.console.ConsoleView{
  + ConsoleView(Logic)
  # start()
  # play()
  # isResumed(): boolean
}
tictactoe.views.console.ConsoleView *-up-|> View
tictactoe.views.console.ConsoleView *-down-> tictactoe.views.console.StartView
tictactoe.views.console.ConsoleView *-down-> tictactoe.views.console.PlayView
tictactoe.views.console.ConsoleView *-down-> tictactoe.views.console.ResumeView
tictactoe.views.console.ConsoleView .down.> Logic

class tictactoe.views.console.StartView {
  ~ StartView(Logic)
  ~ interact()
}
tictactoe.views.console.StartView -up-|> WithLogicView
tictactoe.views.console.StartView .down.> tictactoe.views.console.BoardView
tictactoe.views.console.StartView .down.> Logic
tictactoe.views.console.StartView .down.> Message
tictactoe.views.console.StartView .down.> Console
tictactoe.views.console.StartView .down.> LimitedIntDialog

class tictactoe.views.console.PlayView {
  ~ PlayView(Logic)
  ~ interact()
  - put()
  - move()
  + createRandomCoordinate(): Coordinate
}
tictactoe.views.console.PlayView -up-|> WithLogicView
tictactoe.views.console.PlayView .down.> tictactoe.views.console.BoardView
tictactoe.views.console.PlayView .down.> tictactoe.views.console.TokenView
tictactoe.views.console.PlayView .down.> tictactoe.views.console.CoordinateView
tictactoe.views.console.PlayView .down.> tictactoe.views.console.ErrorView
tictactoe.views.console.PlayView .down.> Logic
tictactoe.views.console.PlayView .down.> Coordinate
tictactoe.views.console.PlayView .down.> Message
tictactoe.views.console.PlayView .down.> Error
tictactoe.views.console.PlayView .down.> Console

class  tictactoe.views.console.ResumeView {
  + ResumeView(Logic)
  ~ interact(): boolean
}
tictactoe.views.console.ResumeView -up-|> WithLogicView
tictactoe.views.console.ResumeView .down.> Logic
tictactoe.views.console.ResumeView .down.> Message
tictactoe.views.console.ResumeView .down.> YesNoDialog

class tictactoe.views.console.CoordinateView {
  + read(String): Coordinate
}
tictactoe.views.console.CoordinateView -up-|> WithLogicView
tictactoe.views.console.CoordinateView .down.> tictactoe.views.console.ErrorView
tictactoe.views.console.CoordinateView .down.> Logic
tictactoe.views.console.CoordinateView .down.> Console
tictactoe.views.console.CoordinateView .down.> Error
tictactoe.views.console.CoordinateView .down.> Coordinate

class tictactoe.views.console.ErrorView {
  ~ ErrorView(Error)
  ~ writeln()
}
tictactoe.views.console.ErrorView -up-|> ErrorView
tictactoe.views.console.ErrorView .down.> Error
tictactoe.views.console.ErrorView .down.> Console

class tictactoe.views.console.BoardView {
  ~ BoardView(Logic)
  ~ write()
}
tictactoe.views.console.BoardView -up-|> WithLogicView
tictactoe.views.console.BoardView .down.> tictactoe.views.console.TokenView
tictactoe.views.console.BoardView .down.> Logic
tictactoe.views.console.BoardView .down.> Coordinate
tictactoe.views.console.BoardView .down.> Message
tictactoe.views.console.BoardView .down.> Console

class tictactoe.views.console.TokenView {
  + {static} SYMBOLS: char[]
  ~ TokenView(Token)
  ~ write()
}
tictactoe.views.console.StartView *-down-> Token
tictactoe.views.console.StartView .down.> Console
@enduml

PlantUML version 1.2020.27beta2(Unknown compile time)
(GPL source distribution)
Java Runtime: Java(TM) SE Runtime Environment
JVM: Java HotSpot(TM) 64-Bit Server VM
Default Encoding: UTF-8
Language: en
Country: US
--></g></svg>