<?xml version="1.0" encoding="UTF-8" standalone="no"?><svg xmlns="http://www.w3.org/2000/svg" xmlns:xlink="http://www.w3.org/1999/xlink" contentScriptType="application/ecmascript" contentStyleType="text/css" height="936px" preserveAspectRatio="none" style="width:1234px;height:936px;" version="1.1" viewBox="0 0 1234 936" width="1234px" zoomAndPan="magnify"><defs><filter height="300%" id="fuus1z66lscid" width="300%" x="-1" y="-1"><feGaussianBlur result="blurOut" stdDeviation="2.0"/><feColorMatrix in="blurOut" result="blurOut2" type="matrix" values="0 0 0 0 0 0 0 0 0 0 0 0 0 0 0 0 0 0 .4 0"/><feOffset dx="4.0" dy="4.0" in="blurOut2" result="blurOut3"/><feBlend in="SourceGraphic" in2="blurOut3" mode="normal"/></filter></defs><g><!--MD5=[f0dbff97ce1b0d2547510b0feb6a5baa]
cluster usantatecla.tictactoe.controllers--><polygon fill="#FFFFFF" filter="url(#fuus1z66lscid)" points="136.4159,6,415.4159,6,422.4159,28.2969,924.4159,28.2969,924.4159,825,136.4159,825,136.4159,6" style="stroke:#000000;stroke-width:1.5;"/><line style="stroke:#000000;stroke-width:1.5;" x1="136.4159" x2="422.4159" y1="28.2969" y2="28.2969"/><text fill="#000000" font-family="sans-serif" font-size="14" font-weight="bold" lengthAdjust="spacingAndGlyphs" textLength="273" x="140.4159" y="20.9951">usantatecla.tictactoe.controllers</text><!--MD5=[8ca84ce1a884efeb72348c57e824d577]
class usantatecla.tictactoe.controllers.Controller--><rect codeLine="8" fill="#FEFECE" filter="url(#fuus1z66lscid)" height="99.2188" id="usantatecla.tictactoe.controllers.Controller" style="stroke:#A80036;stroke-width:1.5;" width="192" x="622.4159" y="200"/><ellipse cx="685.1659" cy="216" fill="#A9DCDF" rx="11" ry="11" style="stroke:#A80036;stroke-width:1.0;"/><path d="M687.244,217.8125 L687.6347,218.7969 L687.244,218.7969 C686.7909,218.7969 686.6815,218.8125 686.5253,218.9219 C686.2753,219.0781 686.119,219.3594 686.119,219.6563 C686.119,219.9219 686.2597,220.1719 686.4784,220.3281 C686.619,220.4531 686.8222,220.5 687.244,220.5 L689.6034,220.5 C689.9628,220.5 690.1815,220.4688 690.3222,220.375 C690.5722,220.2344 690.7284,219.9375 690.7284,219.6563 C690.7284,219.375 690.5878,219.125 690.369,218.9688 C690.1972,218.8281 690.0409,218.7969 689.5722,218.7969 L686.1815,210.5938 L682.5097,210.5938 C682.0565,210.5938 681.9315,210.6094 681.7753,210.7031 C681.5253,210.875 681.369,211.1563 681.369,211.4375 C681.369,211.7188 681.5097,211.9688 681.7284,212.1406 C681.9003,212.25 682.0722,212.2813 682.5097,212.2813 L683.5878,212.2813 L680.9472,218.7969 C680.5253,218.7969 680.369,218.8125 680.2128,218.9219 C679.9628,219.0781 679.8065,219.3594 679.8065,219.6563 C679.8065,220.2188 680.1815,220.5 680.9315,220.5 L683.1972,220.5 C683.5565,220.5 683.7753,220.4688 683.9003,220.375 C684.1659,220.2344 684.3065,219.9375 684.3065,219.6563 C684.3065,219.375 684.1815,219.125 683.9628,218.9531 C683.7909,218.8281 683.6503,218.7969 683.1972,218.7969 L682.8065,218.7969 L683.1972,217.8125 L687.244,217.8125 Z M686.5409,216.1094 L683.869,216.1094 L685.2128,212.8438 L686.5409,216.1094 Z " fill="#000000"/><text fill="#000000" font-family="sans-serif" font-size="12" font-style="italic" lengthAdjust="spacingAndGlyphs" textLength="58" x="705.6659" y="220.1543">Controller</text><line style="stroke:#A80036;stroke-width:1.5;" x1="623.4159" x2="813.4159" y1="232" y2="232"/><polygon fill="none" points="633.4159,238,637.4159,242,633.4159,246,629.4159,242" style="stroke:#B38D22;stroke-width:1.0;"/><text fill="#000000" font-family="sans-serif" font-size="11" lengthAdjust="spacingAndGlyphs" textLength="95" x="642.4159" y="246.2104">session: Session</text><line style="stroke:#A80036;stroke-width:1.5;" x1="623.4159" x2="813.4159" y1="252.8047" y2="252.8047"/><polygon fill="#FFFF44" points="633.4159,258.8047,637.4159,262.8047,633.4159,266.8047,629.4159,262.8047" style="stroke:#B38D22;stroke-width:1.0;"/><text fill="#000000" font-family="sans-serif" font-size="11" lengthAdjust="spacingAndGlyphs" textLength="108" x="642.4159" y="267.0151">Controller(Session)</text><ellipse cx="633.4159" cy="276.6094" fill="#84BE84" rx="3" ry="3" style="stroke:#038048;stroke-width:1.0;"/><text fill="#000000" font-family="sans-serif" font-size="11" lengthAdjust="spacingAndGlyphs" textLength="166" x="642.4159" y="279.8198">getToken(Coordinate): Token</text><ellipse cx="633.4159" cy="289.4141" fill="#84BE84" rx="3" ry="3" style="stroke:#038048;stroke-width:1.0;"/><text fill="#000000" font-family="sans-serif" font-size="11" lengthAdjust="spacingAndGlyphs" textLength="34" x="642.4159" y="292.6245">next()</text><!--MD5=[cb7a77ea5f765e040c1ddaf930e22d45]
class usantatecla.tictactoe.controllers.ActionController--><rect codeLine="22" fill="#FEFECE" filter="url(#fuus1z66lscid)" height="150.4375" id="usantatecla.tictactoe.controllers.ActionController" style="stroke:#A80036;stroke-width:1.5;" width="231" x="280.9159" y="659"/><ellipse cx="344.1659" cy="675" fill="#ADD1B2" rx="11" ry="11" style="stroke:#A80036;stroke-width:1.0;"/><path d="M346.5097,670.6719 C345.5722,670.2344 344.9784,670.0938 344.1034,670.0938 C341.4784,670.0938 339.4784,672.1719 339.4784,674.8906 L339.4784,676.0156 C339.4784,678.5938 341.5878,680.4844 344.4784,680.4844 C345.6972,680.4844 346.8534,680.1875 347.6034,679.6406 C348.1815,679.2344 348.5097,678.7813 348.5097,678.3906 C348.5097,677.9375 348.119,677.5469 347.6503,677.5469 C347.4315,677.5469 347.2284,677.625 347.0409,677.8125 C346.5878,678.2969 346.5878,678.2969 346.4003,678.3906 C345.9784,678.6563 345.2909,678.7813 344.5253,678.7813 C342.4784,678.7813 341.1815,677.6875 341.1815,675.9844 L341.1815,674.8906 C341.1815,673.1094 342.4315,671.7969 344.1659,671.7969 C344.744,671.7969 345.3534,671.9531 345.8222,672.2031 C346.3065,672.4844 346.4784,672.7031 346.5722,673.1094 C346.6347,673.5156 346.6659,673.6406 346.8065,673.7656 C346.9472,673.9063 347.1815,674.0156 347.4003,674.0156 C347.6659,674.0156 347.9315,673.875 348.1034,673.6563 C348.2128,673.5 348.244,673.3125 348.244,672.8906 L348.244,671.4688 C348.244,671.0313 348.2284,670.9063 348.1347,670.75 C347.9784,670.4844 347.6972,670.3438 347.4003,670.3438 C347.1034,670.3438 346.9003,670.4375 346.6815,670.75 L346.5097,670.6719 Z " fill="#000000"/><text fill="#000000" font-family="sans-serif" font-size="12" lengthAdjust="spacingAndGlyphs" textLength="96" x="364.6659" y="679.1543">ActionController</text><line style="stroke:#A80036;stroke-width:1.5;" x1="281.9159" x2="510.9159" y1="691" y2="691"/><line style="stroke:#A80036;stroke-width:1.5;" x1="281.9159" x2="510.9159" y1="699" y2="699"/><ellipse cx="291.9159" cy="710" fill="#84BE84" rx="3" ry="3" style="stroke:#038048;stroke-width:1.0;"/><text fill="#000000" font-family="sans-serif" font-size="11" lengthAdjust="spacingAndGlyphs" textLength="143" x="300.9159" y="713.2104">ActionController(Session)</text><ellipse cx="291.9159" cy="722.8047" fill="#84BE84" rx="3" ry="3" style="stroke:#038048;stroke-width:1.0;"/><text fill="#000000" font-family="sans-serif" font-size="11" lengthAdjust="spacingAndGlyphs" textLength="159" x="300.9159" y="726.0151">isBoardComplete(): boolean</text><ellipse cx="291.9159" cy="735.6094" fill="#84BE84" rx="3" ry="3" style="stroke:#038048;stroke-width:1.0;"/><text fill="#000000" font-family="sans-serif" font-size="11" lengthAdjust="spacingAndGlyphs" textLength="128" x="300.9159" y="738.8198">isTicTacToe(): boolean</text><ellipse cx="291.9159" cy="748.4141" fill="#84BE84" rx="3" ry="3" style="stroke:#038048;stroke-width:1.0;"/><text fill="#000000" font-family="sans-serif" font-size="11" lengthAdjust="spacingAndGlyphs" textLength="104" x="300.9159" y="751.6245">getToken(): Token</text><ellipse cx="291.9159" cy="761.2188" fill="#84BE84" rx="3" ry="3" style="stroke:#038048;stroke-width:1.0;"/><text fill="#000000" font-family="sans-serif" font-size="11" lengthAdjust="spacingAndGlyphs" textLength="96" x="300.9159" y="764.4292">isUser(): boolean</text><ellipse cx="291.9159" cy="774.0234" fill="#84BE84" rx="3" ry="3" style="stroke:#038048;stroke-width:1.0;"/><text fill="#000000" font-family="sans-serif" font-size="11" lengthAdjust="spacingAndGlyphs" textLength="202" x="300.9159" y="777.2339">isValidCoordinate(Coordinate): Error</text><ellipse cx="291.9159" cy="786.8281" fill="#84BE84" rx="3" ry="3" style="stroke:#038048;stroke-width:1.0;"/><text fill="#000000" font-family="sans-serif" font-size="11" lengthAdjust="spacingAndGlyphs" textLength="121" x="300.9159" y="790.0386">put(Coordinate): Error</text><ellipse cx="291.9159" cy="799.6328" fill="#84BE84" rx="3" ry="3" style="stroke:#038048;stroke-width:1.0;"/><text fill="#000000" font-family="sans-serif" font-size="11" lengthAdjust="spacingAndGlyphs" textLength="205" x="300.9159" y="802.8433">move(Coordinate, Coordinate): Error</text><!--MD5=[a2ae241c60b7780dfc847144b28e6222]
class usantatecla.tictactoe.controllers.RedoController--><rect codeLine="41" fill="#FEFECE" filter="url(#fuus1z66lscid)" height="86.4141" id="usantatecla.tictactoe.controllers.RedoController" style="stroke:#A80036;stroke-width:1.5;" width="163" x="546.9159" y="691"/><ellipse cx="580.3659" cy="707" fill="#ADD1B2" rx="11" ry="11" style="stroke:#A80036;stroke-width:1.0;"/><path d="M582.7097,702.6719 C581.7722,702.2344 581.1784,702.0938 580.3034,702.0938 C577.6784,702.0938 575.6784,704.1719 575.6784,706.8906 L575.6784,708.0156 C575.6784,710.5938 577.7878,712.4844 580.6784,712.4844 C581.8972,712.4844 583.0534,712.1875 583.8034,711.6406 C584.3815,711.2344 584.7097,710.7813 584.7097,710.3906 C584.7097,709.9375 584.319,709.5469 583.8503,709.5469 C583.6315,709.5469 583.4284,709.625 583.2409,709.8125 C582.7878,710.2969 582.7878,710.2969 582.6003,710.3906 C582.1784,710.6563 581.4909,710.7813 580.7253,710.7813 C578.6784,710.7813 577.3815,709.6875 577.3815,707.9844 L577.3815,706.8906 C577.3815,705.1094 578.6315,703.7969 580.3659,703.7969 C580.944,703.7969 581.5534,703.9531 582.0222,704.2031 C582.5065,704.4844 582.6784,704.7031 582.7722,705.1094 C582.8347,705.5156 582.8659,705.6406 583.0065,705.7656 C583.1472,705.9063 583.3815,706.0156 583.6003,706.0156 C583.8659,706.0156 584.1315,705.875 584.3034,705.6563 C584.4128,705.5 584.444,705.3125 584.444,704.8906 L584.444,703.4688 C584.444,703.0313 584.4284,702.9063 584.3347,702.75 C584.1784,702.4844 583.8972,702.3438 583.6003,702.3438 C583.3034,702.3438 583.1003,702.4375 582.8815,702.75 L582.7097,702.6719 Z " fill="#000000"/><text fill="#000000" font-family="sans-serif" font-size="12" lengthAdjust="spacingAndGlyphs" textLength="90" x="598.4659" y="711.1543">RedoController</text><line style="stroke:#A80036;stroke-width:1.5;" x1="547.9159" x2="708.9159" y1="723" y2="723"/><line style="stroke:#A80036;stroke-width:1.5;" x1="547.9159" x2="708.9159" y1="731" y2="731"/><polygon fill="#FFFF44" points="557.9159,737,561.9159,741,557.9159,745,553.9159,741" style="stroke:#B38D22;stroke-width:1.0;"/><text fill="#000000" font-family="sans-serif" font-size="11" lengthAdjust="spacingAndGlyphs" textLength="137" x="566.9159" y="745.2104">RedoController(Session)</text><polygon fill="#FFFF44" points="557.9159,749.8047,561.9159,753.8047,557.9159,757.8047,553.9159,753.8047" style="stroke:#B38D22;stroke-width:1.0;"/><text fill="#000000" font-family="sans-serif" font-size="11" lengthAdjust="spacingAndGlyphs" textLength="34" x="566.9159" y="758.0151">redo()</text><polygon fill="#FFFF44" points="557.9159,762.6094,561.9159,766.6094,557.9159,770.6094,553.9159,766.6094" style="stroke:#B38D22;stroke-width:1.0;"/><text fill="#000000" font-family="sans-serif" font-size="11" lengthAdjust="spacingAndGlyphs" textLength="112" x="566.9159" y="770.8198">redoable(): boolean</text><!--MD5=[f83034833f6ae7425a33cf7b9caf3c33]
class usantatecla.tictactoe.controllers.UndoController--><rect codeLine="51" fill="#FEFECE" filter="url(#fuus1z66lscid)" height="86.4141" id="usantatecla.tictactoe.controllers.UndoController" style="stroke:#A80036;stroke-width:1.5;" width="163" x="744.9159" y="691"/><ellipse cx="777.9159" cy="707" fill="#ADD1B2" rx="11" ry="11" style="stroke:#A80036;stroke-width:1.0;"/><path d="M780.2597,702.6719 C779.3222,702.2344 778.7284,702.0938 777.8534,702.0938 C775.2284,702.0938 773.2284,704.1719 773.2284,706.8906 L773.2284,708.0156 C773.2284,710.5938 775.3378,712.4844 778.2284,712.4844 C779.4472,712.4844 780.6034,712.1875 781.3534,711.6406 C781.9315,711.2344 782.2597,710.7813 782.2597,710.3906 C782.2597,709.9375 781.869,709.5469 781.4003,709.5469 C781.1815,709.5469 780.9784,709.625 780.7909,709.8125 C780.3378,710.2969 780.3378,710.2969 780.1503,710.3906 C779.7284,710.6563 779.0409,710.7813 778.2753,710.7813 C776.2284,710.7813 774.9315,709.6875 774.9315,707.9844 L774.9315,706.8906 C774.9315,705.1094 776.1815,703.7969 777.9159,703.7969 C778.494,703.7969 779.1034,703.9531 779.5722,704.2031 C780.0565,704.4844 780.2284,704.7031 780.3222,705.1094 C780.3847,705.5156 780.4159,705.6406 780.5565,705.7656 C780.6972,705.9063 780.9315,706.0156 781.1503,706.0156 C781.4159,706.0156 781.6815,705.875 781.8534,705.6563 C781.9628,705.5 781.994,705.3125 781.994,704.8906 L781.994,703.4688 C781.994,703.0313 781.9784,702.9063 781.8847,702.75 C781.7284,702.4844 781.4472,702.3438 781.1503,702.3438 C780.8534,702.3438 780.6503,702.4375 780.4315,702.75 L780.2597,702.6719 Z " fill="#000000"/><text fill="#000000" font-family="sans-serif" font-size="12" lengthAdjust="spacingAndGlyphs" textLength="91" x="795.9159" y="711.1543">UndoController</text><line style="stroke:#A80036;stroke-width:1.5;" x1="745.9159" x2="906.9159" y1="723" y2="723"/><line style="stroke:#A80036;stroke-width:1.5;" x1="745.9159" x2="906.9159" y1="731" y2="731"/><polygon fill="#FFFF44" points="755.9159,737,759.9159,741,755.9159,745,751.9159,741" style="stroke:#B38D22;stroke-width:1.0;"/><text fill="#000000" font-family="sans-serif" font-size="11" lengthAdjust="spacingAndGlyphs" textLength="137" x="764.9159" y="745.2104">UndoController(Session)</text><polygon fill="#FFFF44" points="755.9159,749.8047,759.9159,753.8047,755.9159,757.8047,751.9159,753.8047" style="stroke:#B38D22;stroke-width:1.0;"/><text fill="#000000" font-family="sans-serif" font-size="11" lengthAdjust="spacingAndGlyphs" textLength="36" x="764.9159" y="758.0151">undo()</text><polygon fill="#FFFF44" points="755.9159,762.6094,759.9159,766.6094,755.9159,770.6094,751.9159,766.6094" style="stroke:#B38D22;stroke-width:1.0;"/><text fill="#000000" font-family="sans-serif" font-size="11" lengthAdjust="spacingAndGlyphs" textLength="114" x="764.9159" y="770.8198">undoable(): boolean</text><!--MD5=[3609b9faf758ca0f3534c1f4edceca98]
class usantatecla.tictactoe.controllers.AcceptorController--><rect codeLine="61" fill="#FEFECE" filter="url(#fuus1z66lscid)" height="60.8047" id="usantatecla.tictactoe.controllers.AcceptorController" style="stroke:#A80036;stroke-width:1.5;" width="162" x="392.4159" y="219"/><ellipse cx="415.5159" cy="235" fill="#B4A7E5" rx="11" ry="11" style="stroke:#A80036;stroke-width:1.0;"/><path d="M416.469,231.7813 L418.1878,231.7813 C418.5784,231.7813 418.7659,231.75 418.8909,231.6719 C419.1565,231.5156 419.2972,231.2344 419.2972,230.9375 C419.2972,230.6719 419.1878,230.4063 418.9534,230.2344 C418.7815,230.125 418.6409,230.0938 418.1878,230.0938 L413.0472,230.0938 C412.6097,230.0938 412.4847,230.1094 412.3284,230.2031 C412.0784,230.3594 411.9222,230.6563 411.9222,230.9375 C411.9222,231.2188 412.0628,231.4688 412.2815,231.6406 C412.4378,231.75 412.6253,231.7813 413.0472,231.7813 L414.7659,231.7813 L414.7659,238.2969 L413.0472,238.2969 C412.6097,238.2969 412.4847,238.3125 412.3284,238.4219 C412.0784,238.5781 411.9222,238.8594 411.9222,239.1563 C411.9222,239.4063 412.0628,239.6719 412.2815,239.8281 C412.4378,239.9531 412.6409,240 413.0472,240 L418.1878,240 C418.9378,240 419.2972,239.7188 419.2972,239.1563 C419.2972,238.875 419.1878,238.625 418.9534,238.4531 C418.7815,238.3281 418.6409,238.2969 418.1878,238.2969 L416.469,238.2969 L416.469,231.7813 Z " fill="#000000"/><text fill="#000000" font-family="sans-serif" font-size="12" font-style="italic" lengthAdjust="spacingAndGlyphs" textLength="112" x="431.3159" y="239.1543">AcceptorController</text><line style="stroke:#A80036;stroke-width:1.5;" x1="393.4159" x2="553.4159" y1="251" y2="251"/><line style="stroke:#A80036;stroke-width:1.5;" x1="393.4159" x2="553.4159" y1="259" y2="259"/><polygon fill="#FFFF44" points="403.4159,265,407.4159,269,403.4159,273,399.4159,269" style="stroke:#B38D22;stroke-width:1.0;"/><text fill="#000000" font-family="sans-serif" font-size="11" lengthAdjust="spacingAndGlyphs" textLength="136" x="412.4159" y="273.2104">accept(ControllerVisitor)</text><!--MD5=[c05af2b596e7ea39b21706781dd7339d]
class usantatecla.tictactoe.controllers.ControllerVisitor--><rect codeLine="67" fill="#FEFECE" filter="url(#fuus1z66lscid)" height="86.4141" id="usantatecla.tictactoe.controllers.ControllerVisitor" style="stroke:#A80036;stroke-width:1.5;" width="159" x="748.9159" y="47.5"/><ellipse cx="778.3159" cy="63.5" fill="#B4A7E5" rx="11" ry="11" style="stroke:#A80036;stroke-width:1.0;"/><path d="M779.269,60.2813 L780.9878,60.2813 C781.3784,60.2813 781.5659,60.25 781.6909,60.1719 C781.9565,60.0156 782.0971,59.7344 782.0971,59.4375 C782.0971,59.1719 781.9878,58.9063 781.7534,58.7344 C781.5815,58.625 781.4409,58.5938 780.9878,58.5938 L775.8471,58.5938 C775.4096,58.5938 775.2846,58.6094 775.1284,58.7031 C774.8784,58.8594 774.7221,59.1563 774.7221,59.4375 C774.7221,59.7188 774.8628,59.9688 775.0815,60.1406 C775.2378,60.25 775.4253,60.2813 775.8471,60.2813 L777.5659,60.2813 L777.5659,66.7969 L775.8471,66.7969 C775.4096,66.7969 775.2846,66.8125 775.1284,66.9219 C774.8784,67.0781 774.7221,67.3594 774.7221,67.6563 C774.7221,67.9063 774.8628,68.1719 775.0815,68.3281 C775.2378,68.4531 775.4409,68.5 775.8471,68.5 L780.9878,68.5 C781.7378,68.5 782.0971,68.2188 782.0971,67.6563 C782.0971,67.375 781.9878,67.125 781.7534,66.9531 C781.5815,66.8281 781.4409,66.7969 780.9878,66.7969 L779.269,66.7969 L779.269,60.2813 Z " fill="#000000"/><text fill="#000000" font-family="sans-serif" font-size="12" font-style="italic" lengthAdjust="spacingAndGlyphs" textLength="95" x="795.5159" y="67.6543">ControllerVisitor</text><line style="stroke:#A80036;stroke-width:1.5;" x1="749.9159" x2="906.9159" y1="79.5" y2="79.5"/><line style="stroke:#A80036;stroke-width:1.5;" x1="749.9159" x2="906.9159" y1="87.5" y2="87.5"/><polygon fill="#FFFF44" points="759.9159,93.5,763.9159,97.5,759.9159,101.5,755.9159,97.5" style="stroke:#B38D22;stroke-width:1.0;"/><text fill="#000000" font-family="sans-serif" font-size="11" lengthAdjust="spacingAndGlyphs" textLength="113" x="768.9159" y="101.7104">visit(StartController)</text><polygon fill="#FFFF44" points="759.9159,106.3047,763.9159,110.3047,759.9159,114.3047,755.9159,110.3047" style="stroke:#B38D22;stroke-width:1.0;"/><text fill="#000000" font-family="sans-serif" font-size="11" lengthAdjust="spacingAndGlyphs" textLength="109" x="768.9159" y="114.5151">visit(PlayController)</text><polygon fill="#FFFF44" points="759.9159,119.1094,763.9159,123.1094,759.9159,127.1094,755.9159,123.1094" style="stroke:#B38D22;stroke-width:1.0;"/><text fill="#000000" font-family="sans-serif" font-size="11" lengthAdjust="spacingAndGlyphs" textLength="133" x="768.9159" y="127.3198">visit(ResumeController)</text><!--MD5=[d1daad6c73947eff947745cd73149a18]
class usantatecla.tictactoe.controllers.PlayController--><rect codeLine="75" fill="#FEFECE" filter="url(#fuus1z66lscid)" height="240.0703" id="usantatecla.tictactoe.controllers.PlayController" style="stroke:#A80036;stroke-width:1.5;" width="231" x="602.9159" y="359"/><ellipse cx="673.1659" cy="375" fill="#ADD1B2" rx="11" ry="11" style="stroke:#A80036;stroke-width:1.0;"/><path d="M675.5097,370.6719 C674.5722,370.2344 673.9784,370.0938 673.1034,370.0938 C670.4784,370.0938 668.4784,372.1719 668.4784,374.8906 L668.4784,376.0156 C668.4784,378.5938 670.5878,380.4844 673.4784,380.4844 C674.6972,380.4844 675.8534,380.1875 676.6034,379.6406 C677.1815,379.2344 677.5097,378.7813 677.5097,378.3906 C677.5097,377.9375 677.119,377.5469 676.6503,377.5469 C676.4315,377.5469 676.2284,377.625 676.0409,377.8125 C675.5878,378.2969 675.5878,378.2969 675.4003,378.3906 C674.9784,378.6563 674.2909,378.7813 673.5253,378.7813 C671.4784,378.7813 670.1815,377.6875 670.1815,375.9844 L670.1815,374.8906 C670.1815,373.1094 671.4315,371.7969 673.1659,371.7969 C673.744,371.7969 674.3534,371.9531 674.8222,372.2031 C675.3065,372.4844 675.4784,372.7031 675.5722,373.1094 C675.6347,373.5156 675.6659,373.6406 675.8065,373.7656 C675.9472,373.9063 676.1815,374.0156 676.4003,374.0156 C676.6659,374.0156 676.9315,373.875 677.1034,373.6563 C677.2128,373.5 677.244,373.3125 677.244,372.8906 L677.244,371.4688 C677.244,371.0313 677.2284,370.9063 677.1347,370.75 C676.9784,370.4844 676.6972,370.3438 676.4003,370.3438 C676.1034,370.3438 675.9003,370.4375 675.6815,370.75 L675.5097,370.6719 Z " fill="#000000"/><text fill="#000000" font-family="sans-serif" font-size="12" lengthAdjust="spacingAndGlyphs" textLength="82" x="693.6659" y="379.1543">PlayController</text><line style="stroke:#A80036;stroke-width:1.5;" x1="603.9159" x2="832.9159" y1="391" y2="391"/><rect fill="none" height="6" style="stroke:#C82930;stroke-width:1.0;" width="6" x="610.9159" y="399"/><text fill="#000000" font-family="sans-serif" font-size="11" lengthAdjust="spacingAndGlyphs" textLength="186" x="622.9159" y="405.2104">actionController: ActionController</text><rect fill="none" height="6" style="stroke:#C82930;stroke-width:1.0;" width="6" x="610.9159" y="411.8047"/><text fill="#000000" font-family="sans-serif" font-size="11" lengthAdjust="spacingAndGlyphs" textLength="174" x="622.9159" y="418.0151">undoController: UndoController</text><rect fill="none" height="6" style="stroke:#C82930;stroke-width:1.0;" width="6" x="610.9159" y="424.6094"/><text fill="#000000" font-family="sans-serif" font-size="11" lengthAdjust="spacingAndGlyphs" textLength="172" x="622.9159" y="430.8198">redoController: RedoController</text><line style="stroke:#A80036;stroke-width:1.5;" x1="603.9159" x2="832.9159" y1="437.4141" y2="437.4141"/><ellipse cx="613.9159" cy="448.4141" fill="#84BE84" rx="3" ry="3" style="stroke:#038048;stroke-width:1.0;"/><text fill="#000000" font-family="sans-serif" font-size="11" lengthAdjust="spacingAndGlyphs" textLength="131" x="622.9159" y="451.6245">PlayController(Session)</text><ellipse cx="613.9159" cy="461.2188" fill="#84BE84" rx="3" ry="3" style="stroke:#038048;stroke-width:1.0;"/><text fill="#000000" font-family="sans-serif" font-size="11" lengthAdjust="spacingAndGlyphs" textLength="159" x="622.9159" y="464.4292">isBoardComplete(): boolean</text><ellipse cx="613.9159" cy="474.0234" fill="#84BE84" rx="3" ry="3" style="stroke:#038048;stroke-width:1.0;"/><text fill="#000000" font-family="sans-serif" font-size="11" lengthAdjust="spacingAndGlyphs" textLength="128" x="622.9159" y="477.2339">isTicTacToe(): boolean</text><ellipse cx="613.9159" cy="486.8281" fill="#84BE84" rx="3" ry="3" style="stroke:#038048;stroke-width:1.0;"/><text fill="#000000" font-family="sans-serif" font-size="11" lengthAdjust="spacingAndGlyphs" textLength="104" x="622.9159" y="490.0386">getToken(): Token</text><ellipse cx="613.9159" cy="499.6328" fill="#84BE84" rx="3" ry="3" style="stroke:#038048;stroke-width:1.0;"/><text fill="#000000" font-family="sans-serif" font-size="11" lengthAdjust="spacingAndGlyphs" textLength="96" x="622.9159" y="502.8433">isUser(): boolean</text><ellipse cx="613.9159" cy="512.4375" fill="#84BE84" rx="3" ry="3" style="stroke:#038048;stroke-width:1.0;"/><text fill="#000000" font-family="sans-serif" font-size="11" lengthAdjust="spacingAndGlyphs" textLength="202" x="622.9159" y="515.6479">isValidCoordinate(Coordinate): Error</text><ellipse cx="613.9159" cy="525.2422" fill="#84BE84" rx="3" ry="3" style="stroke:#038048;stroke-width:1.0;"/><text fill="#000000" font-family="sans-serif" font-size="11" lengthAdjust="spacingAndGlyphs" textLength="151" x="622.9159" y="528.4526">Error put(Coordinate): Error</text><ellipse cx="613.9159" cy="538.0469" fill="#84BE84" rx="3" ry="3" style="stroke:#038048;stroke-width:1.0;"/><text fill="#000000" font-family="sans-serif" font-size="11" lengthAdjust="spacingAndGlyphs" textLength="205" x="622.9159" y="541.2573">move(Coordinate, Coordinate): Error</text><ellipse cx="613.9159" cy="550.8516" fill="#84BE84" rx="3" ry="3" style="stroke:#038048;stroke-width:1.0;"/><text fill="#000000" font-family="sans-serif" font-size="11" lengthAdjust="spacingAndGlyphs" textLength="36" x="622.9159" y="554.062">undo()</text><ellipse cx="613.9159" cy="563.6563" fill="#84BE84" rx="3" ry="3" style="stroke:#038048;stroke-width:1.0;"/><text fill="#000000" font-family="sans-serif" font-size="11" lengthAdjust="spacingAndGlyphs" textLength="114" x="622.9159" y="566.8667">undoable(): boolean</text><ellipse cx="613.9159" cy="576.4609" fill="#84BE84" rx="3" ry="3" style="stroke:#038048;stroke-width:1.0;"/><text fill="#000000" font-family="sans-serif" font-size="11" lengthAdjust="spacingAndGlyphs" textLength="34" x="622.9159" y="579.6714">redo()</text><ellipse cx="613.9159" cy="589.2656" fill="#84BE84" rx="3" ry="3" style="stroke:#038048;stroke-width:1.0;"/><text fill="#000000" font-family="sans-serif" font-size="11" lengthAdjust="spacingAndGlyphs" textLength="112" x="622.9159" y="592.4761">redoable(): boolean</text><!--MD5=[82e1b76c9a158a6967a122ac5a5f9fb4]
class usantatecla.tictactoe.controllers.StartController--><rect codeLine="102" fill="#FEFECE" filter="url(#fuus1z66lscid)" height="86.4141" id="usantatecla.tictactoe.controllers.StartController" style="stroke:#A80036;stroke-width:1.5;" width="161" x="152.9159" y="436"/><ellipse cx="186.8159" cy="452" fill="#ADD1B2" rx="11" ry="11" style="stroke:#A80036;stroke-width:1.0;"/><path d="M189.1597,447.6719 C188.2222,447.2344 187.6284,447.0938 186.7534,447.0938 C184.1284,447.0938 182.1284,449.1719 182.1284,451.8906 L182.1284,453.0156 C182.1284,455.5938 184.2378,457.4844 187.1284,457.4844 C188.3472,457.4844 189.5034,457.1875 190.2534,456.6406 C190.8315,456.2344 191.1597,455.7813 191.1597,455.3906 C191.1597,454.9375 190.769,454.5469 190.3003,454.5469 C190.0815,454.5469 189.8784,454.625 189.6909,454.8125 C189.2378,455.2969 189.2378,455.2969 189.0503,455.3906 C188.6284,455.6563 187.9409,455.7813 187.1753,455.7813 C185.1284,455.7813 183.8315,454.6875 183.8315,452.9844 L183.8315,451.8906 C183.8315,450.1094 185.0815,448.7969 186.8159,448.7969 C187.394,448.7969 188.0034,448.9531 188.4722,449.2031 C188.9565,449.4844 189.1284,449.7031 189.2222,450.1094 C189.2847,450.5156 189.3159,450.6406 189.4565,450.7656 C189.5972,450.9063 189.8315,451.0156 190.0503,451.0156 C190.3159,451.0156 190.5815,450.875 190.7534,450.6563 C190.8628,450.5 190.894,450.3125 190.894,449.8906 L190.894,448.4688 C190.894,448.0313 190.8784,447.9063 190.7847,447.75 C190.6284,447.4844 190.3472,447.3438 190.0503,447.3438 C189.7534,447.3438 189.5503,447.4375 189.3315,447.75 L189.1597,447.6719 Z " fill="#000000"/><text fill="#000000" font-family="sans-serif" font-size="12" lengthAdjust="spacingAndGlyphs" textLength="87" x="205.0159" y="456.1543">StartController</text><line style="stroke:#A80036;stroke-width:1.5;" x1="153.9159" x2="312.9159" y1="468" y2="468"/><line style="stroke:#A80036;stroke-width:1.5;" x1="153.9159" x2="312.9159" y1="476" y2="476"/><ellipse cx="163.9159" cy="487" fill="#84BE84" rx="3" ry="3" style="stroke:#038048;stroke-width:1.0;"/><text fill="#000000" font-family="sans-serif" font-size="11" lengthAdjust="spacingAndGlyphs" textLength="135" x="172.9159" y="490.2104">StartController(Session)</text><ellipse cx="163.9159" cy="499.8047" fill="#84BE84" rx="3" ry="3" style="stroke:#038048;stroke-width:1.0;"/><text fill="#000000" font-family="sans-serif" font-size="11" lengthAdjust="spacingAndGlyphs" textLength="72" x="172.9159" y="503.0151">setUsers(int)</text><ellipse cx="163.9159" cy="512.6094" fill="#84BE84" rx="3" ry="3" style="stroke:#038048;stroke-width:1.0;"/><text fill="#000000" font-family="sans-serif" font-size="11" lengthAdjust="spacingAndGlyphs" textLength="112" x="172.9159" y="515.8198">getMaxPlayers(): int</text><!--MD5=[43eb35b5a1870c2071cac4b07097bd5c]
class usantatecla.tictactoe.controllers.ResumeController--><rect codeLine="113" fill="#FEFECE" filter="url(#fuus1z66lscid)" height="73.6094" id="usantatecla.tictactoe.controllers.ResumeController" style="stroke:#A80036;stroke-width:1.5;" width="181" x="348.9159" y="442"/><ellipse cx="382.8159" cy="458" fill="#ADD1B2" rx="11" ry="11" style="stroke:#A80036;stroke-width:1.0;"/><path d="M385.1597,453.6719 C384.2222,453.2344 383.6284,453.0938 382.7534,453.0938 C380.1284,453.0938 378.1284,455.1719 378.1284,457.8906 L378.1284,459.0156 C378.1284,461.5938 380.2378,463.4844 383.1284,463.4844 C384.3472,463.4844 385.5034,463.1875 386.2534,462.6406 C386.8315,462.2344 387.1597,461.7813 387.1597,461.3906 C387.1597,460.9375 386.769,460.5469 386.3003,460.5469 C386.0815,460.5469 385.8784,460.625 385.6909,460.8125 C385.2378,461.2969 385.2378,461.2969 385.0503,461.3906 C384.6284,461.6563 383.9409,461.7813 383.1753,461.7813 C381.1284,461.7813 379.8315,460.6875 379.8315,458.9844 L379.8315,457.8906 C379.8315,456.1094 381.0815,454.7969 382.8159,454.7969 C383.394,454.7969 384.0034,454.9531 384.4722,455.2031 C384.9565,455.4844 385.1284,455.7031 385.2222,456.1094 C385.2847,456.5156 385.3159,456.6406 385.4565,456.7656 C385.5972,456.9063 385.8315,457.0156 386.0503,457.0156 C386.3159,457.0156 386.5815,456.875 386.7534,456.6563 C386.8628,456.5 386.894,456.3125 386.894,455.8906 L386.894,454.4688 C386.894,454.0313 386.8784,453.9063 386.7847,453.75 C386.6284,453.4844 386.3472,453.3438 386.0503,453.3438 C385.7534,453.3438 385.5503,453.4375 385.3315,453.75 L385.1597,453.6719 Z " fill="#000000"/><text fill="#000000" font-family="sans-serif" font-size="12" lengthAdjust="spacingAndGlyphs" textLength="107" x="401.0159" y="462.1543">ResumeController</text><line style="stroke:#A80036;stroke-width:1.5;" x1="349.9159" x2="528.9159" y1="474" y2="474"/><line style="stroke:#A80036;stroke-width:1.5;" x1="349.9159" x2="528.9159" y1="482" y2="482"/><ellipse cx="359.9159" cy="493" fill="#84BE84" rx="3" ry="3" style="stroke:#038048;stroke-width:1.0;"/><text fill="#000000" font-family="sans-serif" font-size="11" lengthAdjust="spacingAndGlyphs" textLength="155" x="368.9159" y="496.2104">ResumeController(Session)</text><ellipse cx="359.9159" cy="505.8047" fill="#84BE84" rx="3" ry="3" style="stroke:#038048;stroke-width:1.0;"/><text fill="#000000" font-family="sans-serif" font-size="11" lengthAdjust="spacingAndGlyphs" textLength="38" x="368.9159" y="509.0151">reset()</text><!--MD5=[1a80d139e59a172578177f42f7ed415b]
class usantatecla.tictactoe.controllers.Logic--><rect codeLine="123" fill="#FEFECE" filter="url(#fuus1z66lscid)" height="99.2188" id="usantatecla.tictactoe.controllers.Logic" style="stroke:#A80036;stroke-width:1.5;" width="309" x="404.9159" y="41"/><ellipse cx="539.1659" cy="57" fill="#ADD1B2" rx="11" ry="11" style="stroke:#A80036;stroke-width:1.0;"/><path d="M541.5097,52.6719 C540.5722,52.2344 539.9784,52.0938 539.1034,52.0938 C536.4784,52.0938 534.4784,54.1719 534.4784,56.8906 L534.4784,58.0156 C534.4784,60.5938 536.5878,62.4844 539.4784,62.4844 C540.6972,62.4844 541.8534,62.1875 542.6034,61.6406 C543.1815,61.2344 543.5097,60.7813 543.5097,60.3906 C543.5097,59.9375 543.119,59.5469 542.6503,59.5469 C542.4315,59.5469 542.2284,59.625 542.0409,59.8125 C541.5878,60.2969 541.5878,60.2969 541.4003,60.3906 C540.9784,60.6563 540.2909,60.7813 539.5253,60.7813 C537.4784,60.7813 536.1815,59.6875 536.1815,57.9844 L536.1815,56.8906 C536.1815,55.1094 537.4315,53.7969 539.1659,53.7969 C539.744,53.7969 540.3534,53.9531 540.8222,54.2031 C541.3065,54.4844 541.4784,54.7031 541.5722,55.1094 C541.6347,55.5156 541.6659,55.6406 541.8065,55.7656 C541.9472,55.9063 542.1815,56.0156 542.4003,56.0156 C542.6659,56.0156 542.9315,55.875 543.1034,55.6563 C543.2128,55.5 543.244,55.3125 543.244,54.8906 L543.244,53.4688 C543.244,53.0313 543.2284,52.9063 543.1347,52.75 C542.9784,52.4844 542.6972,52.3438 542.4003,52.3438 C542.1034,52.3438 541.9003,52.4375 541.6815,52.75 L541.5097,52.6719 Z " fill="#000000"/><text fill="#000000" font-family="sans-serif" font-size="12" lengthAdjust="spacingAndGlyphs" textLength="32" x="559.6659" y="61.1543">Logic</text><line style="stroke:#A80036;stroke-width:1.5;" x1="405.9159" x2="712.9159" y1="73" y2="73"/><rect fill="none" height="6" style="stroke:#C82930;stroke-width:1.0;" width="6" x="412.9159" y="81"/><text fill="#000000" font-family="sans-serif" font-size="11" lengthAdjust="spacingAndGlyphs" textLength="95" x="424.9159" y="87.2104">session: Session</text><rect fill="none" height="6" style="stroke:#C82930;stroke-width:1.0;" width="6" x="412.9159" y="93.8047"/><text fill="#000000" font-family="sans-serif" font-size="11" lengthAdjust="spacingAndGlyphs" textLength="283" x="424.9159" y="100.0151">controllers: Map&lt;StateValue, AcceptorController&gt;</text><line style="stroke:#A80036;stroke-width:1.5;" x1="405.9159" x2="712.9159" y1="106.6094" y2="106.6094"/><ellipse cx="415.9159" cy="117.6094" fill="#84BE84" rx="3" ry="3" style="stroke:#038048;stroke-width:1.0;"/><text fill="#000000" font-family="sans-serif" font-size="11" lengthAdjust="spacingAndGlyphs" textLength="37" x="424.9159" y="120.8198">Logic()</text><ellipse cx="415.9159" cy="130.4141" fill="#84BE84" rx="3" ry="3" style="stroke:#038048;stroke-width:1.0;"/><text fill="#000000" font-family="sans-serif" font-size="11" lengthAdjust="spacingAndGlyphs" textLength="194" x="424.9159" y="133.6245">getController(): AcceptorController</text><!--MD5=[8c7d7abc12e214c3cc12c9ab70edee11]
class Coordinate--><rect codeLine="1" fill="#FEFECE" filter="url(#fuus1z66lscid)" height="53.9375" id="Coordinate" style="stroke:#A80036;stroke-width:1.5;" width="206" x="26.4159" y="869"/><ellipse cx="41.4159" cy="887.9688" fill="#ADD1B2" rx="11" ry="11" style="stroke:#A80036;stroke-width:1.0;"/><path d="M43.7597,883.6406 C42.8222,883.2031 42.2284,883.0625 41.3534,883.0625 C38.7284,883.0625 36.7284,885.1406 36.7284,887.8594 L36.7284,888.9844 C36.7284,891.5625 38.8378,893.4531 41.7284,893.4531 C42.9472,893.4531 44.1034,893.1563 44.8534,892.6094 C45.4315,892.2031 45.7597,891.75 45.7597,891.3594 C45.7597,890.9063 45.369,890.5156 44.9003,890.5156 C44.6815,890.5156 44.4784,890.5938 44.2909,890.7813 C43.8378,891.2656 43.8378,891.2656 43.6503,891.3594 C43.2284,891.625 42.5409,891.75 41.7753,891.75 C39.7284,891.75 38.4315,890.6563 38.4315,888.9531 L38.4315,887.8594 C38.4315,886.0781 39.6815,884.7656 41.4159,884.7656 C41.994,884.7656 42.6034,884.9219 43.0722,885.1719 C43.5565,885.4531 43.7284,885.6719 43.8222,886.0781 C43.8847,886.4844 43.9159,886.6094 44.0565,886.7344 C44.1972,886.875 44.4315,886.9844 44.6503,886.9844 C44.9159,886.9844 45.1815,886.8438 45.3534,886.625 C45.4628,886.4688 45.494,886.2813 45.494,885.8594 L45.494,884.4375 C45.494,884 45.4784,883.875 45.3847,883.7188 C45.2284,883.4531 44.9472,883.3125 44.6503,883.3125 C44.3534,883.3125 44.1503,883.4063 43.9315,883.7188 L43.7597,883.6406 Z " fill="#000000"/><text fill="#000000" font-family="sans-serif" font-size="12" lengthAdjust="spacingAndGlyphs" textLength="174" x="55.4159" y="885.1387">usantatecla.tictactoe.models.</text><text fill="#000000" font-family="sans-serif" font-size="12" lengthAdjust="spacingAndGlyphs" textLength="66" x="109.4159" y="899.1074">Coordinate</text><line style="stroke:#A80036;stroke-width:1.5;" x1="27.4159" x2="231.4159" y1="906.9375" y2="906.9375"/><line style="stroke:#A80036;stroke-width:1.5;" x1="27.4159" x2="231.4159" y1="914.9375" y2="914.9375"/><!--MD5=[2ca1536628238a7dc78c5d90808014f9]
class Session--><rect codeLine="2" fill="#FEFECE" filter="url(#fuus1z66lscid)" height="53.9375" id="Session" style="stroke:#A80036;stroke-width:1.5;" width="206" x="1014.4159" y="452"/><ellipse cx="1029.4159" cy="470.9688" fill="#ADD1B2" rx="11" ry="11" style="stroke:#A80036;stroke-width:1.0;"/><path d="M1031.7597,466.6406 C1030.8222,466.2031 1030.2284,466.0625 1029.3534,466.0625 C1026.7284,466.0625 1024.7284,468.1406 1024.7284,470.8594 L1024.7284,471.9844 C1024.7284,474.5625 1026.8378,476.4531 1029.7284,476.4531 C1030.9472,476.4531 1032.1034,476.1563 1032.8534,475.6094 C1033.4315,475.2031 1033.7597,474.75 1033.7597,474.3594 C1033.7597,473.9063 1033.369,473.5156 1032.9003,473.5156 C1032.6815,473.5156 1032.4784,473.5938 1032.2909,473.7813 C1031.8378,474.2656 1031.8378,474.2656 1031.6503,474.3594 C1031.2284,474.625 1030.5409,474.75 1029.7753,474.75 C1027.7284,474.75 1026.4315,473.6563 1026.4315,471.9531 L1026.4315,470.8594 C1026.4315,469.0781 1027.6815,467.7656 1029.4159,467.7656 C1029.994,467.7656 1030.6034,467.9219 1031.0722,468.1719 C1031.5565,468.4531 1031.7284,468.6719 1031.8222,469.0781 C1031.8847,469.4844 1031.9159,469.6094 1032.0565,469.7344 C1032.1972,469.875 1032.4315,469.9844 1032.6503,469.9844 C1032.9159,469.9844 1033.1815,469.8438 1033.3534,469.625 C1033.4628,469.4688 1033.494,469.2813 1033.494,468.8594 L1033.494,467.4375 C1033.494,467 1033.4784,466.875 1033.3847,466.7188 C1033.2284,466.4531 1032.9472,466.3125 1032.6503,466.3125 C1032.3534,466.3125 1032.1503,466.4063 1031.9315,466.7188 L1031.7597,466.6406 Z " fill="#000000"/><text fill="#000000" font-family="sans-serif" font-size="12" lengthAdjust="spacingAndGlyphs" textLength="174" x="1043.4159" y="468.1387">usantatecla.tictactoe.models.</text><text fill="#000000" font-family="sans-serif" font-size="12" lengthAdjust="spacingAndGlyphs" textLength="48" x="1106.4159" y="482.1074">Session</text><line style="stroke:#A80036;stroke-width:1.5;" x1="1015.4159" x2="1219.4159" y1="489.9375" y2="489.9375"/><line style="stroke:#A80036;stroke-width:1.5;" x1="1015.4159" x2="1219.4159" y1="497.9375" y2="497.9375"/><!--MD5=[d8c8cfd5ca149094f5b67f9f607a5ec7]
class Token--><rect codeLine="3" fill="#FEFECE" filter="url(#fuus1z66lscid)" height="53.9375" id="Token" style="stroke:#A80036;stroke-width:1.5;" width="195" x="770.9159" y="869"/><ellipse cx="785.9159" cy="887.9688" fill="#ADD1B2" rx="11" ry="11" style="stroke:#A80036;stroke-width:1.0;"/><path d="M788.2597,883.6406 C787.3222,883.2031 786.7284,883.0625 785.8534,883.0625 C783.2284,883.0625 781.2284,885.1406 781.2284,887.8594 L781.2284,888.9844 C781.2284,891.5625 783.3378,893.4531 786.2284,893.4531 C787.4472,893.4531 788.6034,893.1563 789.3534,892.6094 C789.9315,892.2031 790.2597,891.75 790.2597,891.3594 C790.2597,890.9063 789.869,890.5156 789.4003,890.5156 C789.1815,890.5156 788.9784,890.5938 788.7909,890.7813 C788.3378,891.2656 788.3378,891.2656 788.1503,891.3594 C787.7284,891.625 787.0409,891.75 786.2753,891.75 C784.2284,891.75 782.9315,890.6563 782.9315,888.9531 L782.9315,887.8594 C782.9315,886.0781 784.1815,884.7656 785.9159,884.7656 C786.494,884.7656 787.1034,884.9219 787.5722,885.1719 C788.0565,885.4531 788.2284,885.6719 788.3222,886.0781 C788.3847,886.4844 788.4159,886.6094 788.5565,886.7344 C788.6972,886.875 788.9315,886.9844 789.1503,886.9844 C789.4159,886.9844 789.6815,886.8438 789.8534,886.625 C789.9628,886.4688 789.994,886.2813 789.994,885.8594 L789.994,884.4375 C789.994,884 789.9784,883.875 789.8847,883.7188 C789.7284,883.4531 789.4472,883.3125 789.1503,883.3125 C788.8534,883.3125 788.6503,883.4063 788.4315,883.7188 L788.2597,883.6406 Z " fill="#000000"/><text fill="#000000" font-family="sans-serif" font-size="12" lengthAdjust="spacingAndGlyphs" textLength="163" x="799.9159" y="885.1387">usantatecla.tictactoe.types.</text><text fill="#000000" font-family="sans-serif" font-size="12" lengthAdjust="spacingAndGlyphs" textLength="37" x="862.9159" y="899.1074">Token</text><line style="stroke:#A80036;stroke-width:1.5;" x1="771.9159" x2="964.9159" y1="906.9375" y2="906.9375"/><line style="stroke:#A80036;stroke-width:1.5;" x1="771.9159" x2="964.9159" y1="914.9375" y2="914.9375"/><!--MD5=[b8cfd8c4119a3b0a7a46bfc5fc780f85]
class Error--><rect codeLine="4" fill="#FEFECE" filter="url(#fuus1z66lscid)" height="53.9375" id="Error" style="stroke:#A80036;stroke-width:1.5;" width="195" x="282.9159" y="869"/><ellipse cx="297.9159" cy="887.9688" fill="#EB937F" rx="11" ry="11" style="stroke:#A80036;stroke-width:1.0;"/><path d="M296.7128,888.8438 L298.1659,888.8438 L298.1659,888.9531 C298.1659,889.3594 298.1972,889.5156 298.2753,889.6719 C298.4315,889.9219 298.7128,890.0781 299.0097,890.0781 C299.2597,890.0781 299.5253,889.9375 299.6815,889.7188 C299.8065,889.5625 299.8378,889.4063 299.8378,888.9531 L299.8378,887.0313 C299.8378,886.875 299.8378,886.8281 299.8222,886.6719 C299.7597,886.2031 299.4472,885.8906 298.994,885.8906 C298.744,885.8906 298.4784,886.0313 298.3065,886.25 C298.1972,886.4219 298.1659,886.5781 298.1659,887.0313 L298.1659,887.1563 L296.7128,887.1563 L296.7128,884.75 L300.6972,884.75 L300.6972,885.6094 C300.6972,886.0156 300.7284,886.1875 300.8065,886.3438 C300.9784,886.5938 301.2597,886.75 301.5409,886.75 C301.8065,886.75 302.0722,886.6094 302.244,886.3906 C302.3534,886.2188 302.3847,886.0781 302.3847,885.6094 L302.3847,883.0625 L294.7597,883.0625 C294.3222,883.0625 294.1972,883.0781 294.0409,883.1719 C293.7909,883.3281 293.6347,883.625 293.6347,883.9063 C293.6347,884.1875 293.7753,884.4375 293.994,884.6094 C294.1503,884.7188 294.3378,884.75 294.7597,884.75 L295.0097,884.75 L295.0097,891.2656 L294.7597,891.2656 C294.3534,891.2656 294.1972,891.2813 294.0409,891.3906 C293.7909,891.5625 293.6347,891.8281 293.6347,892.125 C293.6347,892.3906 293.7753,892.6406 293.994,892.7969 C294.1347,892.9219 294.369,892.9688 294.7597,892.9688 L302.7597,892.9688 L302.7597,890.3906 C302.7597,889.9531 302.7284,889.8125 302.6503,889.6563 C302.4784,889.4063 302.1972,889.25 301.9159,889.25 C301.6503,889.25 301.3847,889.3594 301.2128,889.6094 C301.1034,889.7656 301.0722,889.9063 301.0722,890.3906 L301.0722,891.2656 L296.7128,891.2656 L296.7128,888.8438 Z " fill="#000000"/><text fill="#000000" font-family="sans-serif" font-size="12" lengthAdjust="spacingAndGlyphs" textLength="163" x="311.9159" y="885.1387">usantatecla.tictactoe.types.</text><text fill="#000000" font-family="sans-serif" font-size="12" lengthAdjust="spacingAndGlyphs" textLength="30" x="378.4159" y="899.1074">Error</text><line style="stroke:#A80036;stroke-width:1.5;" x1="283.9159" x2="476.9159" y1="906.9375" y2="906.9375"/><line style="stroke:#A80036;stroke-width:1.5;" x1="283.9159" x2="476.9159" y1="914.9375" y2="914.9375"/><!--MD5=[f0e50675208408ddbf1ed7a91f4eb071]
class ClosedInterval--><rect codeLine="5" fill="#FEFECE" filter="url(#fuus1z66lscid)" height="53.9375" id="ClosedInterval" style="stroke:#A80036;stroke-width:1.5;" width="130" x="513.4159" y="869"/><ellipse cx="528.4159" cy="887.9688" fill="#ADD1B2" rx="11" ry="11" style="stroke:#A80036;stroke-width:1.0;"/><path d="M530.7597,883.6406 C529.8222,883.2031 529.2284,883.0625 528.3534,883.0625 C525.7284,883.0625 523.7284,885.1406 523.7284,887.8594 L523.7284,888.9844 C523.7284,891.5625 525.8378,893.4531 528.7284,893.4531 C529.9472,893.4531 531.1034,893.1563 531.8534,892.6094 C532.4315,892.2031 532.7597,891.75 532.7597,891.3594 C532.7597,890.9063 532.369,890.5156 531.9003,890.5156 C531.6815,890.5156 531.4784,890.5938 531.2909,890.7813 C530.8378,891.2656 530.8378,891.2656 530.6503,891.3594 C530.2284,891.625 529.5409,891.75 528.7753,891.75 C526.7284,891.75 525.4315,890.6563 525.4315,888.9531 L525.4315,887.8594 C525.4315,886.0781 526.6815,884.7656 528.4159,884.7656 C528.994,884.7656 529.6034,884.9219 530.0722,885.1719 C530.5565,885.4531 530.7284,885.6719 530.8222,886.0781 C530.8847,886.4844 530.9159,886.6094 531.0565,886.7344 C531.1972,886.875 531.4315,886.9844 531.6503,886.9844 C531.9159,886.9844 532.1815,886.8438 532.3534,886.625 C532.4628,886.4688 532.494,886.2813 532.494,885.8594 L532.494,884.4375 C532.494,884 532.4784,883.875 532.3847,883.7188 C532.2284,883.4531 531.9472,883.3125 531.6503,883.3125 C531.3534,883.3125 531.1503,883.4063 530.9315,883.7188 L530.7597,883.6406 Z " fill="#000000"/><text fill="#000000" font-family="sans-serif" font-size="12" lengthAdjust="spacingAndGlyphs" textLength="98" x="542.4159" y="885.1387">usantatecla.utils.</text><text fill="#000000" font-family="sans-serif" font-size="12" lengthAdjust="spacingAndGlyphs" textLength="86" x="548.4159" y="899.1074">ClosedInterval</text><line style="stroke:#A80036;stroke-width:1.5;" x1="514.4159" x2="642.4159" y1="906.9375" y2="906.9375"/><line style="stroke:#A80036;stroke-width:1.5;" x1="514.4159" x2="642.4159" y1="914.9375" y2="914.9375"/><!--MD5=[167506e288131cdf3986fedef83acd94]
class StateValue--><rect codeLine="6" fill="#FEFECE" filter="url(#fuus1z66lscid)" height="53.9375" id="StateValue" style="stroke:#A80036;stroke-width:1.5;" width="206" x="940.4159" y="222.5"/><ellipse cx="955.4159" cy="241.4688" fill="#EB937F" rx="11" ry="11" style="stroke:#A80036;stroke-width:1.0;"/><path d="M954.2128,242.3438 L955.6659,242.3438 L955.6659,242.4531 C955.6659,242.8594 955.6972,243.0156 955.7753,243.1719 C955.9315,243.4219 956.2128,243.5781 956.5097,243.5781 C956.7597,243.5781 957.0253,243.4375 957.1815,243.2188 C957.3065,243.0625 957.3378,242.9063 957.3378,242.4531 L957.3378,240.5313 C957.3378,240.375 957.3378,240.3281 957.3222,240.1719 C957.2597,239.7031 956.9472,239.3906 956.494,239.3906 C956.244,239.3906 955.9784,239.5313 955.8065,239.75 C955.6972,239.9219 955.6659,240.0781 955.6659,240.5313 L955.6659,240.6563 L954.2128,240.6563 L954.2128,238.25 L958.1972,238.25 L958.1972,239.1094 C958.1972,239.5156 958.2284,239.6875 958.3065,239.8438 C958.4784,240.0938 958.7597,240.25 959.0409,240.25 C959.3065,240.25 959.5722,240.1094 959.744,239.8906 C959.8534,239.7188 959.8847,239.5781 959.8847,239.1094 L959.8847,236.5625 L952.2597,236.5625 C951.8222,236.5625 951.6972,236.5781 951.5409,236.6719 C951.2909,236.8281 951.1347,237.125 951.1347,237.4063 C951.1347,237.6875 951.2753,237.9375 951.494,238.1094 C951.6503,238.2188 951.8378,238.25 952.2597,238.25 L952.5097,238.25 L952.5097,244.7656 L952.2597,244.7656 C951.8534,244.7656 951.6972,244.7813 951.5409,244.8906 C951.2909,245.0625 951.1347,245.3281 951.1347,245.625 C951.1347,245.8906 951.2753,246.1406 951.494,246.2969 C951.6347,246.4219 951.869,246.4688 952.2597,246.4688 L960.2597,246.4688 L960.2597,243.8906 C960.2597,243.4531 960.2284,243.3125 960.1503,243.1563 C959.9784,242.9063 959.6972,242.75 959.4159,242.75 C959.1503,242.75 958.8847,242.8594 958.7128,243.1094 C958.6034,243.2656 958.5722,243.4063 958.5722,243.8906 L958.5722,244.7656 L954.2128,244.7656 L954.2128,242.3438 Z " fill="#000000"/><text fill="#000000" font-family="sans-serif" font-size="12" lengthAdjust="spacingAndGlyphs" textLength="174" x="969.4159" y="238.6387">usantatecla.tictactoe.models.</text><text fill="#000000" font-family="sans-serif" font-size="12" lengthAdjust="spacingAndGlyphs" textLength="64" x="1024.4159" y="252.6074">StateValue</text><line style="stroke:#A80036;stroke-width:1.5;" x1="941.4159" x2="1145.4159" y1="260.4375" y2="260.4375"/><line style="stroke:#A80036;stroke-width:1.5;" x1="941.4159" x2="1145.4159" y1="268.4375" y2="268.4375"/><!--MD5=[866396e4077e21d4bdd169b6d486da2a]
link usantatecla.tictactoe.controllers.Controller to Session--><path codeLine="18" d="M825.8949,289.3882 C825.8949,289.3882 959.3079,341.287 987.4159,359 C1024.2089,382.186 1060.2159,416.308 1084.9759,442.076 " fill="none" id="usantatecla.tictactoe.controllers.Controller-Session" style="stroke:#A80036;stroke-width:1.0;"/><polygon fill="#A80036" points="1094.2159,451.85,1090.9382,442.5625,1090.7804,448.2172,1085.1257,448.0593,1094.2159,451.85" style="stroke:#A80036;stroke-width:1.0;"/><line style="stroke:#A80036;stroke-width:1.0;" x1="1090.7804" x2="1085.2809" y1="448.2172" y2="442.4025"/><polygon fill="#A80036" points="814.6559,285.183,818.8737,291.032,825.8949,289.3882,821.6772,283.5393,814.6559,285.183" style="stroke:#A80036;stroke-width:1.0;"/><!--MD5=[60a1c1835dcc077106d759d840aaeca4]
link usantatecla.tictactoe.controllers.Controller to Coordinate--><path codeLine="19" d="M622.2629,284.993 C605.4619,290.222 588.0399,295.147 571.4159,299 C476.1389,321.08 200.0969,285.641 135.4159,359 C6,505.779 85.1367,773.059 117.5354,863.8564 " fill="none" id="usantatecla.tictactoe.controllers.Controller-to-Coordinate" style="stroke:#A80036;stroke-width:1.0;stroke-dasharray:7.0,7.0;"/><polygon fill="#A80036" points="119.3211,868.8149,120.0348,858.9919,117.6268,864.1107,112.5081,861.7027,119.3211,868.8149" style="stroke:#A80036;stroke-width:1.0;"/><!--MD5=[833fec8e00e1861c163326463f8b4215]
link usantatecla.tictactoe.controllers.Controller to Token--><path codeLine="20" d="M814.5349,297.469 C852.3309,317.959 889.3589,341.292 900.4159,359 C1012.1479,537.941 1002.0369,636.447 925.4159,833 C920.8159,844.8009 912.8019,855.7145 904.2119,864.9901 " fill="none" id="usantatecla.tictactoe.controllers.Controller-to-Token" style="stroke:#A80036;stroke-width:1.0;stroke-dasharray:7.0,7.0;"/><polygon fill="#A80036" points="900.5039,868.8628,909.6175,865.1288,903.962,865.2515,903.8393,859.5959,900.5039,868.8628" style="stroke:#A80036;stroke-width:1.0;"/><!--MD5=[d2d8ea951740216fb4e0c19d7eb8ef83]
reverse link usantatecla.tictactoe.controllers.Controller to usantatecla.tictactoe.controllers.ActionController--><path codeLine="35" d="M624.3329,312.215 C609.2709,325.952 595.3859,341.659 585.4159,359 C531.5899,452.626 599.2869,504.277 547.4159,599 C535.3789,620.98 518.2869,641.135 499.9029,658.77 " fill="none" id="usantatecla.tictactoe.controllers.Controller-backto-usantatecla.tictactoe.controllers.ActionController" style="stroke:#A80036;stroke-width:1.0;"/><polygon fill="none" points="619.9199,306.779,639.6869,299.146,628.9939,317.44,619.9199,306.779" style="stroke:#A80036;stroke-width:1.0;"/><!--MD5=[185270e8dc829a9c754622443f2efd70]
link usantatecla.tictactoe.controllers.ActionController to Coordinate--><path codeLine="36" d="M280.8589,804.248 C244.6039,825.9733 206.5519,848.7763 177.6599,866.09 " fill="none" id="usantatecla.tictactoe.controllers.ActionController-to-Coordinate" style="stroke:#A80036;stroke-width:1.0;stroke-dasharray:7.0,7.0;"/><polygon fill="#A80036" points="173.1029,868.8206,182.879,867.6258,177.3919,866.2506,178.7671,860.7635,173.1029,868.8206" style="stroke:#A80036;stroke-width:1.0;"/><!--MD5=[327b73826a1c242bae60fd88680dfc3b]
link usantatecla.tictactoe.controllers.ActionController to Error--><path codeLine="37" d="M388.9779,809.379 C387.0569,828.5887 385.0929,848.2327 383.5309,863.8513 " fill="none" id="usantatecla.tictactoe.controllers.ActionController-to-Error" style="stroke:#A80036;stroke-width:1.0;stroke-dasharray:7.0,7.0;"/><polygon fill="#A80036" points="383.0169,868.9873,387.8928,860.4301,383.5146,864.0121,379.9326,859.6339,383.0169,868.9873" style="stroke:#A80036;stroke-width:1.0;"/><!--MD5=[5cf4f6c88e55a0e948488f207fae9d02]
link usantatecla.tictactoe.controllers.ActionController to Token--><path codeLine="38" d="M485.7389,809.073 C499.7529,818.206 514.5409,826.5708 529.4159,833 C571.0129,850.9786 682.0799,869.3892 765.8379,881.4254 " fill="none" id="usantatecla.tictactoe.controllers.ActionController-to-Token" style="stroke:#A80036;stroke-width:1.0;stroke-dasharray:7.0,7.0;"/><polygon fill="#A80036" points="770.8099,882.137,762.4676,876.9019,765.8604,881.4284,761.3339,884.8212,770.8099,882.137" style="stroke:#A80036;stroke-width:1.0;"/><!--MD5=[b09e128f98778431bd0b94b8ae397507]
link usantatecla.tictactoe.controllers.ActionController to ClosedInterval--><path codeLine="39" d="M480.7559,809.145 C503.4049,829.0564 526.6069,849.4538 544.7099,865.3684 " fill="none" id="usantatecla.tictactoe.controllers.ActionController-to-ClosedInterval" style="stroke:#A80036;stroke-width:1.0;stroke-dasharray:7.0,7.0;"/><polygon fill="#A80036" points="548.7269,868.9002,544.6087,859.9537,544.9717,865.5989,539.3265,865.962,548.7269,868.9002" style="stroke:#A80036;stroke-width:1.0;"/><!--MD5=[d74790b98575dbf92a0f3c610f739496]
reverse link usantatecla.tictactoe.controllers.Controller to usantatecla.tictactoe.controllers.RedoController--><path codeLine="49" d="M816.2129,312.384 C830.4689,325.924 843.1159,341.518 851.4159,359 C897.1629,455.359 908.0819,508.63 851.4159,599 C818.8909,650.87 779.7299,627.194 727.4159,659 C711.7389,668.531 695.4909,679.95 680.8019,690.933 " fill="none" id="usantatecla.tictactoe.controllers.Controller-backto-usantatecla.tictactoe.controllers.RedoController" style="stroke:#A80036;stroke-width:1.0;"/><polygon fill="none" points="811.3649,317.444,800.8899,299.025,820.5659,306.891,811.3649,317.444" style="stroke:#A80036;stroke-width:1.0;"/><!--MD5=[359dc1aaab76ee30185bc109c8fa3df5]
reverse link usantatecla.tictactoe.controllers.Controller to usantatecla.tictactoe.controllers.UndoController--><path codeLine="59" d="M831.1299,305.192 C850.5499,319.876 868.0999,337.728 879.4159,359 C937.3189,467.846 881.5939,618.525 847.9039,690.894 " fill="none" id="usantatecla.tictactoe.controllers.Controller-backto-usantatecla.tictactoe.controllers.UndoController" style="stroke:#A80036;stroke-width:1.0;"/><polygon fill="none" points="826.8889,310.769,814.4729,293.598,834.8869,299.278,826.8889,310.769" style="stroke:#A80036;stroke-width:1.0;"/><!--MD5=[fb2302db9ad95aea2975d7d439c2e075]
reverse link usantatecla.tictactoe.controllers.Controller to usantatecla.tictactoe.controllers.PlayController--><path codeLine="96" d="M718.4159,319.262 C718.4159,331.861 718.4159,345.337 718.4159,358.915 " fill="none" id="usantatecla.tictactoe.controllers.Controller-backto-usantatecla.tictactoe.controllers.PlayController" style="stroke:#A80036;stroke-width:1.0;"/><polygon fill="none" points="711.4159,319.025,718.4159,299.025,725.4159,319.025,711.4159,319.025" style="stroke:#A80036;stroke-width:1.0;"/><!--MD5=[73618e1c6bb6dd848d9d319ade334fa3]
reverse link usantatecla.tictactoe.controllers.AcceptorController to usantatecla.tictactoe.controllers.PlayController--><path codeLine="97" d="M520.3509,294.083 C543.9369,315.983 573.6549,343.579 602.8469,370.685 " fill="none" id="usantatecla.tictactoe.controllers.AcceptorController-backto-usantatecla.tictactoe.controllers.PlayController" style="stroke:#A80036;stroke-width:1.0;stroke-dasharray:7.0,7.0;"/><polygon fill="none" points="515.3379,298.98,505.4449,280.242,524.8649,288.721,515.3379,298.98" style="stroke:#A80036;stroke-width:1.0;"/><!--MD5=[6f1714ecb12db4f18d6d323932f01264]
link usantatecla.tictactoe.controllers.PlayController to usantatecla.tictactoe.controllers.ActionController--><path codeLine="98" d="M593.2037,584.8129 C593.2037,584.8129 580.9609,594.622 575.4159,599 C553.8479,616.029 530.5209,633.886 508.0569,650.811 " fill="none" id="usantatecla.tictactoe.controllers.PlayController-usantatecla.tictactoe.controllers.ActionController" style="stroke:#A80036;stroke-width:1.0;"/><polygon fill="#A80036" points="497.4599,658.776,507.0578,656.5669,501.4571,655.7722,502.2518,650.1715,497.4599,658.776" style="stroke:#A80036;stroke-width:1.0;"/><line style="stroke:#A80036;stroke-width:1.0;" x1="501.4571" x2="507.8524" y1="655.7722" y2="650.9655"/><polygon fill="#A80036" points="602.5399,577.274,595.3588,577.9314,593.2037,584.8129,600.3847,584.1555,602.5399,577.274" style="stroke:#A80036;stroke-width:1.0;"/><!--MD5=[facbc4f039bfb6a608fbedf1260ab812]
link usantatecla.tictactoe.controllers.PlayController to usantatecla.tictactoe.controllers.UndoController--><path codeLine="99" d="M773.9645,610.1288 C773.9645,610.1288 794.7609,658.845 803.3399,678.942 " fill="none" id="usantatecla.tictactoe.controllers.PlayController-usantatecla.tictactoe.controllers.UndoController" style="stroke:#A80036;stroke-width:1.0;"/><polygon fill="#A80036" points="808.4659,690.949,808.6118,681.1012,806.5031,686.3504,801.254,684.2416,808.4659,690.949" style="stroke:#A80036;stroke-width:1.0;"/><line style="stroke:#A80036;stroke-width:1.0;" x1="806.5031" x2="803.3614" y1="686.3504" y2="678.993"/><polygon fill="#A80036" points="769.2539,599.092,767.9303,606.1806,773.9645,610.1288,775.2881,603.0402,769.2539,599.092" style="stroke:#A80036;stroke-width:1.0;"/><!--MD5=[e4eecb3ab357e4610bbb690ac4369343]
link usantatecla.tictactoe.controllers.PlayController to usantatecla.tictactoe.controllers.RedoController--><path codeLine="100" d="M672.0291,610.398 C672.0291,610.398 654.8999,658.55 647.8279,678.431 " fill="none" id="usantatecla.tictactoe.controllers.PlayController-usantatecla.tictactoe.controllers.RedoController" style="stroke:#A80036;stroke-width:1.0;"/><polygon fill="#A80036" points="643.3749,690.949,650.1599,683.8101,645.0507,686.2382,642.6226,681.1289,643.3749,690.949" style="stroke:#A80036;stroke-width:1.0;"/><line style="stroke:#A80036;stroke-width:1.0;" x1="645.0507" x2="647.7319" y1="686.2382" y2="678.701"/><polygon fill="#A80036" points="676.0509,599.092,670.2713,603.4044,672.0291,610.398,677.8086,606.0856,676.0509,599.092" style="stroke:#A80036;stroke-width:1.0;"/><!--MD5=[8dd22028e0c9e74dc82243a6e023599b]
reverse link usantatecla.tictactoe.controllers.Controller to usantatecla.tictactoe.controllers.StartController--><path codeLine="110" d="M603.1139,289.433 C592.4289,292.771 581.7409,296.01 571.4159,299 C465.8039,329.579 424.3709,300.278 331.4159,359 C301.0959,378.154 275.6669,409.861 258.3149,435.731 " fill="none" id="usantatecla.tictactoe.controllers.Controller-backto-usantatecla.tictactoe.controllers.StartController" style="stroke:#A80036;stroke-width:1.0;"/><polygon fill="none" points="601.0829,282.733,622.2639,283.35,605.3209,296.076,601.0829,282.733" style="stroke:#A80036;stroke-width:1.0;"/><!--MD5=[5df469331284be18dd9c7c54b31fc6fc]
reverse link usantatecla.tictactoe.controllers.AcceptorController to usantatecla.tictactoe.controllers.StartController--><path codeLine="111" d="M412.8979,291.989 C386.7229,311.11 356.4249,334.887 331.4159,359 C306.9469,382.592 282.6369,412.064 264.3509,435.774 " fill="none" id="usantatecla.tictactoe.controllers.AcceptorController-backto-usantatecla.tictactoe.controllers.StartController" style="stroke:#A80036;stroke-width:1.0;stroke-dasharray:7.0,7.0;"/><polygon fill="none" points="409.0779,286.115,429.4069,280.139,417.2409,297.488,409.0779,286.115" style="stroke:#A80036;stroke-width:1.0;"/><!--MD5=[ade45239a2cc0c8615f56e199042b82d]
reverse link usantatecla.tictactoe.controllers.Controller to usantatecla.tictactoe.controllers.ResumeController--><path codeLine="120" d="M622.9399,310.326 C600.8179,325.409 577.7989,342.133 557.4159,359 C526.4829,384.598 494.6109,417.178 471.7999,441.774 " fill="none" id="usantatecla.tictactoe.controllers.Controller-backto-usantatecla.tictactoe.controllers.ResumeController" style="stroke:#A80036;stroke-width:1.0;"/><polygon fill="none" points="619.1149,304.463,639.6249,299.136,626.9129,316.09,619.1149,304.463" style="stroke:#A80036;stroke-width:1.0;"/><!--MD5=[c712c8a8014aebd80a3a2853833e8dd2]
reverse link usantatecla.tictactoe.controllers.AcceptorController to usantatecla.tictactoe.controllers.ResumeController--><path codeLine="121" d="M465.9909,300.182 C459.6019,342.934 450.5339,403.604 444.8159,441.869 " fill="none" id="usantatecla.tictactoe.controllers.AcceptorController-backto-usantatecla.tictactoe.controllers.ResumeController" style="stroke:#A80036;stroke-width:1.0;stroke-dasharray:7.0,7.0;"/><polygon fill="none" points="459.0919,298.987,468.9709,280.242,472.9379,301.057,459.0919,298.987" style="stroke:#A80036;stroke-width:1.0;"/><!--MD5=[6230b5f5126d69e6dbd9442aeee41efc]
link usantatecla.tictactoe.controllers.Logic to Session--><path codeLine="133" d="M725.1153,144.0426 C725.1153,144.0426 799.4839,178.117 831.4159,200 C880.9639,233.955 880.8679,256.603 923.4159,299 C937.9399,313.472 1026.9659,395.191 1079.2359,443.061 " fill="none" id="usantatecla.tictactoe.controllers.Logic-Session" style="stroke:#A80036;stroke-width:1.0;"/><polygon fill="#A80036" points="1088.8559,451.868,1084.9231,442.8384,1085.1697,448.4899,1079.5182,448.7364,1088.8559,451.868" style="stroke:#A80036;stroke-width:1.0;"/><line style="stroke:#A80036;stroke-width:1.0;" x1="1085.1697" x2="1079.2609" y1="448.4899" y2="443.0885"/><polygon fill="#A80036" points="714.0079,139.501,718.0477,145.4743,725.1153,144.0426,721.0755,138.0693,714.0079,139.501" style="stroke:#A80036;stroke-width:1.0;"/><!--MD5=[c98f937e17826a5e926318cada161741]
link usantatecla.tictactoe.controllers.Logic to usantatecla.tictactoe.controllers.AcceptorController--><path codeLine="134" d="M526.9112,150.8397 C526.9112,150.8397 505.3369,190.225 496.0529,207.174 " fill="none" id="usantatecla.tictactoe.controllers.Logic-usantatecla.tictactoe.controllers.AcceptorController" style="stroke:#A80036;stroke-width:1.0;"/><polygon fill="#A80036" points="489.6189,218.921,497.451,212.9495,492.0211,214.5359,490.4347,209.106,489.6189,218.921" style="stroke:#A80036;stroke-width:1.0;"/><line style="stroke:#A80036;stroke-width:1.0;" x1="492.0211" x2="495.8644" y1="214.5359" y2="207.519"/><polygon fill="#A80036" points="532.6759,140.315,526.2853,143.6558,526.9112,150.8397,533.3018,147.4989,532.6759,140.315" style="stroke:#A80036;stroke-width:1.0;"/><text fill="#000000" font-family="sans-serif" font-size="13" lengthAdjust="spacingAndGlyphs" textLength="8" x="484.1358" y="208.1679">3</text><!--MD5=[1c4052cdeb9c6438f38561d343d9aee1]
link usantatecla.tictactoe.controllers.Logic to StateValue--><path codeLine="135" d="M725.8844,139.2758 C725.8844,139.2758 886.9739,186.841 924.4159,200 C939.3799,205.259 955.2099,211.338 970.2709,217.375 " fill="none" id="usantatecla.tictactoe.controllers.Logic-StateValue" style="stroke:#A80036;stroke-width:1.0;"/><polygon fill="#A80036" points="982.7059,222.418,975.8689,215.3289,978.0724,220.5389,972.8624,222.7424,982.7059,222.418" style="stroke:#A80036;stroke-width:1.0;"/><line style="stroke:#A80036;stroke-width:1.0;" x1="978.0724" x2="970.6589" y1="220.5389" y2="217.5325"/><polygon fill="#A80036" points="714.3629,135.921,719.0054,141.4389,725.8844,139.2758,721.2419,133.7579,714.3629,135.921" style="stroke:#A80036;stroke-width:1.0;"/><text fill="#000000" font-family="sans-serif" font-size="13" lengthAdjust="spacingAndGlyphs" textLength="8" x="959.7417" y="211.5104">3</text><!--MD5=[495535ff3bb972bd6b99d8a61b91cb9d]
@startuml
class Coordinate as "usantatecla.tictactoe.models.\nCoordinate"
class Session as "usantatecla.tictactoe.models.\nSession"
class Token as "usantatecla.tictactoe.types.\nToken"
enum Error as "usantatecla.tictactoe.types.\nError"
class ClosedInterval as "usantatecla.utils.\nClosedInterval"
enum StateValue as "usantatecla.tictactoe.models.\nStateValue"

abstract class usantatecla.tictactoe.controllers.Controller {

    # session: Session

    # Controller(Session)
    + getToken(Coordinate): Token
    + next()

}

usantatecla.tictactoe.controllers.Controller *-down-> Session
usantatecla.tictactoe.controllers.Controller .down.> Coordinate
usantatecla.tictactoe.controllers.Controller .down.> Token

class usantatecla.tictactoe.controllers.ActionController {

    + ActionController(Session)
    + isBoardComplete(): boolean
    + isTicTacToe(): boolean
    + getToken(): Token
    + isUser(): boolean
    + isValidCoordinate(Coordinate): Error
    + put(Coordinate): Error
    + move(Coordinate, Coordinate): Error

}

usantatecla.tictactoe.controllers.Controller <|-down- usantatecla.tictactoe.controllers.ActionController
usantatecla.tictactoe.controllers.ActionController .down.> Coordinate
usantatecla.tictactoe.controllers.ActionController .down.> Error
usantatecla.tictactoe.controllers.ActionController .down.> Token
usantatecla.tictactoe.controllers.ActionController .down.> ClosedInterval

class usantatecla.tictactoe.controllers.RedoController {

    # RedoController(Session)
    # redo()
    # redoable(): boolean

}

usantatecla.tictactoe.controllers.Controller <|-down- usantatecla.tictactoe.controllers.RedoController

class usantatecla.tictactoe.controllers.UndoController {

    #UndoController(Session)
    # undo()
    # undoable(): boolean

}

usantatecla.tictactoe.controllers.Controller <|-down- usantatecla.tictactoe.controllers.UndoController

interface usantatecla.tictactoe.controllers.AcceptorController {

    # accept(ControllerVisitor)

}

interface usantatecla.tictactoe.controllers.ControllerVisitor {

    # visit(StartController)
    # visit(PlayController)
    # visit(ResumeController)

}

class usantatecla.tictactoe.controllers.PlayController {

    - actionController: ActionController 
    - undoController: UndoController 
    - redoController: RedoController 

    + PlayController(Session)
    + isBoardComplete(): boolean
    + isTicTacToe(): boolean
    + getToken(): Token
    + isUser(): boolean
    + isValidCoordinate(Coordinate): Error
    + Error put(Coordinate): Error
    + move(Coordinate, Coordinate): Error
    + undo()
    + undoable(): boolean
    + redo()
    + redoable(): boolean

}

usantatecla.tictactoe.controllers.Controller <|-down- usantatecla.tictactoe.controllers.PlayController
usantatecla.tictactoe.controllers.AcceptorController <|.down. usantatecla.tictactoe.controllers.PlayController
usantatecla.tictactoe.controllers.PlayController *-down-> usantatecla.tictactoe.controllers.ActionController
usantatecla.tictactoe.controllers.PlayController *-down-> usantatecla.tictactoe.controllers.UndoController
usantatecla.tictactoe.controllers.PlayController *-down-> usantatecla.tictactoe.controllers.RedoController

class usantatecla.tictactoe.controllers.StartController {

    + StartController(Session)
    + setUsers(int)
    + getMaxPlayers(): int

}

usantatecla.tictactoe.controllers.Controller <|-down- usantatecla.tictactoe.controllers.StartController
usantatecla.tictactoe.controllers.AcceptorController <|.down. usantatecla.tictactoe.controllers.StartController

class usantatecla.tictactoe.controllers.ResumeController {

    + ResumeController(Session)
    + reset()

}

usantatecla.tictactoe.controllers.Controller <|-down- usantatecla.tictactoe.controllers.ResumeController
usantatecla.tictactoe.controllers.AcceptorController <|.down. usantatecla.tictactoe.controllers.ResumeController

class usantatecla.tictactoe.controllers.Logic {

    - session: Session 
    - controllers: Map<StateValue, AcceptorController>

    + Logic()
    + getController(): AcceptorController 

}

usantatecla.tictactoe.controllers.Logic *-down-> Session
usantatecla.tictactoe.controllers.Logic *-down-> "3" usantatecla.tictactoe.controllers.AcceptorController
usantatecla.tictactoe.controllers.Logic *-down-> "3" StateValue
@enduml

PlantUML version 1.2020.23beta3(Unknown compile time)
(GPL source distribution)
Java Runtime: Java(TM) SE Runtime Environment
JVM: Java HotSpot(TM) 64-Bit Server VM
Default Encoding: UTF-8
Language: en
Country: US
--></g></svg>