<?xml version="1.0" encoding="UTF-8" standalone="no"?><svg xmlns="http://www.w3.org/2000/svg" xmlns:xlink="http://www.w3.org/1999/xlink" contentScriptType="application/ecmascript" contentStyleType="text/css" height="288px" preserveAspectRatio="none" style="width:390px;height:288px;" version="1.1" viewBox="0 0 390 288" width="390px" zoomAndPan="magnify"><defs><filter height="300%" id="f184q5obsug5zt" width="300%" x="-1" y="-1"><feGaussianBlur result="blurOut" stdDeviation="2.0"/><feColorMatrix in="blurOut" result="blurOut2" type="matrix" values="0 0 0 0 0 0 0 0 0 0 0 0 0 0 0 0 0 0 .4 0"/><feOffset dx="4.0" dy="4.0" in="blurOut2" result="blurOut3"/><feBlend in="SourceGraphic" in2="blurOut3" mode="normal"/></filter></defs><g><!--MD5=[d3ad1dd2e0ca3394597e0772b1605d6e]
cluster usantatecla.tictactoe.types--><polygon fill="#FFFFFF" filter="url(#f184q5obsug5zt)" points="40,6,275,6,282,28.2969,373,28.2969,373,182,40,182,40,6" style="stroke:#000000;stroke-width:1.5;"/><line style="stroke:#000000;stroke-width:1.5;" x1="40" x2="282" y1="28.2969" y2="28.2969"/><text fill="#000000" font-family="sans-serif" font-size="14" font-weight="bold" lengthAdjust="spacingAndGlyphs" textLength="229" x="44" y="20.9951">usantatecla.tictactoe.types</text><!--MD5=[8f371bcdab0b1fbb9fec7f1a076a5d56]
class usantatecla.tictactoe.types.Error--><rect codeLine="3" fill="#FEFECE" filter="url(#f184q5obsug5zt)" height="124.8281" id="usantatecla.tictactoe.types.Error" style="stroke:#A80036;stroke-width:1.5;" width="147" x="209.5" y="41"/><ellipse cx="263.75" cy="57" fill="#EB937F" rx="11" ry="11" style="stroke:#A80036;stroke-width:1.0;"/><path d="M262.5469,57.875 L264,57.875 L264,57.9844 C264,58.3906 264.0313,58.5469 264.1094,58.7031 C264.2656,58.9531 264.5469,59.1094 264.8438,59.1094 C265.0938,59.1094 265.3594,58.9688 265.5156,58.75 C265.6406,58.5938 265.6719,58.4375 265.6719,57.9844 L265.6719,56.0625 C265.6719,55.9063 265.6719,55.8594 265.6563,55.7031 C265.5938,55.2344 265.2813,54.9219 264.8281,54.9219 C264.5781,54.9219 264.3125,55.0625 264.1406,55.2813 C264.0313,55.4531 264,55.6094 264,56.0625 L264,56.1875 L262.5469,56.1875 L262.5469,53.7813 L266.5313,53.7813 L266.5313,54.6406 C266.5313,55.0469 266.5625,55.2188 266.6406,55.375 C266.8125,55.625 267.0938,55.7813 267.375,55.7813 C267.6406,55.7813 267.9063,55.6406 268.0781,55.4219 C268.1875,55.25 268.2188,55.1094 268.2188,54.6406 L268.2188,52.0938 L260.5938,52.0938 C260.1563,52.0938 260.0313,52.1094 259.875,52.2031 C259.625,52.3594 259.4688,52.6563 259.4688,52.9375 C259.4688,53.2188 259.6094,53.4688 259.8281,53.6406 C259.9844,53.75 260.1719,53.7813 260.5938,53.7813 L260.8438,53.7813 L260.8438,60.2969 L260.5938,60.2969 C260.1875,60.2969 260.0313,60.3125 259.875,60.4219 C259.625,60.5938 259.4688,60.8594 259.4688,61.1563 C259.4688,61.4219 259.6094,61.6719 259.8281,61.8281 C259.9688,61.9531 260.2031,62 260.5938,62 L268.5938,62 L268.5938,59.4219 C268.5938,58.9844 268.5625,58.8438 268.4844,58.6875 C268.3125,58.4375 268.0313,58.2813 267.75,58.2813 C267.4844,58.2813 267.2188,58.3906 267.0469,58.6406 C266.9375,58.7969 266.9063,58.9375 266.9063,59.4219 L266.9063,60.2969 L262.5469,60.2969 L262.5469,57.875 Z " fill="#000000"/><text fill="#000000" font-family="sans-serif" font-size="12" lengthAdjust="spacingAndGlyphs" textLength="30" x="284.25" y="61.1543">Error</text><line style="stroke:#A80036;stroke-width:1.5;" x1="210.5" x2="355.5" y1="73" y2="73"/><ellipse cx="220.5" cy="84" fill="none" rx="3" ry="3" style="stroke:#038048;stroke-width:1.0;"/><text fill="#000000" font-family="sans-serif" font-size="11" lengthAdjust="spacingAndGlyphs" textLength="66" x="229.5" y="87.2104">NOT_EMPTY</text><ellipse cx="220.5" cy="96.8047" fill="none" rx="3" ry="3" style="stroke:#038048;stroke-width:1.0;"/><text fill="#000000" font-family="sans-serif" font-size="11" lengthAdjust="spacingAndGlyphs" textLength="72" x="229.5" y="100.0151">NOT_OWNER</text><ellipse cx="220.5" cy="109.6094" fill="none" rx="3" ry="3" style="stroke:#038048;stroke-width:1.0;"/><text fill="#000000" font-family="sans-serif" font-size="11" lengthAdjust="spacingAndGlyphs" textLength="121" x="229.5" y="112.8198">SAME_COORDINATES</text><ellipse cx="220.5" cy="122.4141" fill="none" rx="3" ry="3" style="stroke:#038048;stroke-width:1.0;"/><text fill="#000000" font-family="sans-serif" font-size="11" lengthAdjust="spacingAndGlyphs" textLength="64" x="229.5" y="125.6245">NOT_VALID</text><ellipse cx="220.5" cy="135.2188" fill="none" rx="3" ry="3" style="stroke:#038048;stroke-width:1.0;"/><text fill="#000000" font-family="sans-serif" font-size="11" lengthAdjust="spacingAndGlyphs" textLength="28" x="229.5" y="138.4292">NULL</text><line style="stroke:#A80036;stroke-width:1.5;" x1="210.5" x2="355.5" y1="145.0234" y2="145.0234"/><ellipse cx="220.5" cy="156.0234" fill="#84BE84" rx="3" ry="3" style="stroke:#038048;stroke-width:1.0;"/><text fill="#000000" font-family="sans-serif" font-size="11" lengthAdjust="spacingAndGlyphs" textLength="91" x="229.5" y="159.2339">isNull(): boolean</text><!--MD5=[b67fb73fb0564ba2016a50235914ace8]
class usantatecla.tictactoe.types.Token--><rect codeLine="12" fill="#FEFECE" filter="url(#f184q5obsug5zt)" height="124.8281" id="usantatecla.tictactoe.types.Token" style="stroke:#A80036;stroke-width:1.5;" width="118" x="56" y="41"/><ellipse cx="93.05" cy="57" fill="#EB937F" rx="11" ry="11" style="stroke:#A80036;stroke-width:1.0;"/><path d="M91.8469,57.875 L93.3,57.875 L93.3,57.9844 C93.3,58.3906 93.3313,58.5469 93.4094,58.7031 C93.5656,58.9531 93.8469,59.1094 94.1438,59.1094 C94.3938,59.1094 94.6594,58.9688 94.8156,58.75 C94.9406,58.5938 94.9719,58.4375 94.9719,57.9844 L94.9719,56.0625 C94.9719,55.9063 94.9719,55.8594 94.9563,55.7031 C94.8938,55.2344 94.5813,54.9219 94.1281,54.9219 C93.8781,54.9219 93.6125,55.0625 93.4406,55.2813 C93.3313,55.4531 93.3,55.6094 93.3,56.0625 L93.3,56.1875 L91.8469,56.1875 L91.8469,53.7813 L95.8313,53.7813 L95.8313,54.6406 C95.8313,55.0469 95.8625,55.2188 95.9406,55.375 C96.1125,55.625 96.3938,55.7813 96.675,55.7813 C96.9406,55.7813 97.2063,55.6406 97.3781,55.4219 C97.4875,55.25 97.5188,55.1094 97.5188,54.6406 L97.5188,52.0938 L89.8938,52.0938 C89.4563,52.0938 89.3313,52.1094 89.175,52.2031 C88.925,52.3594 88.7688,52.6563 88.7688,52.9375 C88.7688,53.2188 88.9094,53.4688 89.1281,53.6406 C89.2844,53.75 89.4719,53.7813 89.8938,53.7813 L90.1438,53.7813 L90.1438,60.2969 L89.8938,60.2969 C89.4875,60.2969 89.3313,60.3125 89.175,60.4219 C88.925,60.5938 88.7688,60.8594 88.7688,61.1563 C88.7688,61.4219 88.9094,61.6719 89.1281,61.8281 C89.2688,61.9531 89.5031,62 89.8938,62 L97.8938,62 L97.8938,59.4219 C97.8938,58.9844 97.8625,58.8438 97.7844,58.6875 C97.6125,58.4375 97.3313,58.2813 97.05,58.2813 C96.7844,58.2813 96.5188,58.3906 96.3469,58.6406 C96.2375,58.7969 96.2063,58.9375 96.2063,59.4219 L96.2063,60.2969 L91.8469,60.2969 L91.8469,57.875 Z " fill="#000000"/><text fill="#000000" font-family="sans-serif" font-size="12" lengthAdjust="spacingAndGlyphs" textLength="37" x="111.95" y="61.1543">Token</text><line style="stroke:#A80036;stroke-width:1.5;" x1="57" x2="173" y1="73" y2="73"/><ellipse cx="67" cy="84" fill="none" rx="3" ry="3" style="stroke:#038048;stroke-width:1.0;"/><text fill="#000000" font-family="sans-serif" font-size="11" lengthAdjust="spacingAndGlyphs" textLength="8" x="76" y="87.2104">X</text><ellipse cx="67" cy="96.8047" fill="none" rx="3" ry="3" style="stroke:#038048;stroke-width:1.0;"/><text fill="#000000" font-family="sans-serif" font-size="11" lengthAdjust="spacingAndGlyphs" textLength="9" x="76" y="100.0151">O</text><ellipse cx="67" cy="109.6094" fill="none" rx="3" ry="3" style="stroke:#038048;stroke-width:1.0;"/><text fill="#000000" font-family="sans-serif" font-size="11" lengthAdjust="spacingAndGlyphs" textLength="28" x="76" y="112.8198">NULL</text><line style="stroke:#A80036;stroke-width:1.5;" x1="57" x2="173" y1="119.4141" y2="119.4141"/><ellipse cx="67" cy="130.4141" fill="#84BE84" rx="3" ry="3" style="stroke:#038048;stroke-width:1.0;"/><text fill="#000000" font-family="sans-serif" font-size="11" lengthAdjust="spacingAndGlyphs" textLength="91" x="76" y="133.6245">isNull(): boolean</text><ellipse cx="67" cy="143.2188" fill="#84BE84" rx="3" ry="3" style="stroke:#038048;stroke-width:1.0;"/><text fill="#000000" font-family="sans-serif" font-size="11" lengthAdjust="spacingAndGlyphs" text-decoration="underline" textLength="83" x="76" y="146.4292">get(int): Token</text><ellipse cx="67" cy="156.0234" fill="#84BE84" rx="3" ry="3" style="stroke:#038048;stroke-width:1.0;"/><text fill="#000000" font-family="sans-serif" font-size="11" lengthAdjust="spacingAndGlyphs" textLength="92" x="76" y="159.2339">toString(): String</text><!--MD5=[f0e50675208408ddbf1ed7a91f4eb071]
class ClosedInterval--><rect codeLine="1" fill="#FEFECE" filter="url(#f184q5obsug5zt)" height="48" id="ClosedInterval" style="stroke:#A80036;stroke-width:1.5;" width="216" x="7" y="226"/><ellipse cx="22" cy="242" fill="#ADD1B2" rx="11" ry="11" style="stroke:#A80036;stroke-width:1.0;"/><path d="M24.3438,237.6719 C23.4063,237.2344 22.8125,237.0938 21.9375,237.0938 C19.3125,237.0938 17.3125,239.1719 17.3125,241.8906 L17.3125,243.0156 C17.3125,245.5938 19.4219,247.4844 22.3125,247.4844 C23.5313,247.4844 24.6875,247.1875 25.4375,246.6406 C26.0156,246.2344 26.3438,245.7813 26.3438,245.3906 C26.3438,244.9375 25.9531,244.5469 25.4844,244.5469 C25.2656,244.5469 25.0625,244.625 24.875,244.8125 C24.4219,245.2969 24.4219,245.2969 24.2344,245.3906 C23.8125,245.6563 23.125,245.7813 22.3594,245.7813 C20.3125,245.7813 19.0156,244.6875 19.0156,242.9844 L19.0156,241.8906 C19.0156,240.1094 20.2656,238.7969 22,238.7969 C22.5781,238.7969 23.1875,238.9531 23.6563,239.2031 C24.1406,239.4844 24.3125,239.7031 24.4063,240.1094 C24.4688,240.5156 24.5,240.6406 24.6406,240.7656 C24.7813,240.9063 25.0156,241.0156 25.2344,241.0156 C25.5,241.0156 25.7656,240.875 25.9375,240.6563 C26.0469,240.5 26.0781,240.3125 26.0781,239.8906 L26.0781,238.4688 C26.0781,238.0313 26.0625,237.9063 25.9688,237.75 C25.8125,237.4844 25.5313,237.3438 25.2344,237.3438 C24.9375,237.3438 24.7344,237.4375 24.5156,237.75 L24.3438,237.6719 Z " fill="#000000"/><text fill="#000000" font-family="sans-serif" font-size="12" lengthAdjust="spacingAndGlyphs" textLength="184" x="36" y="246.1543">usantatecla.utils.models.ClosedInterval</text><line style="stroke:#A80036;stroke-width:1.5;" x1="8" x2="222" y1="258" y2="258"/><line style="stroke:#A80036;stroke-width:1.5;" x1="8" x2="222" y1="266" y2="266"/><!--MD5=[1200dd45b2484d05220aab6adb345fff]
link usantatecla.tictactoe.types.Token to ClosedInterval--><path codeLine="20" d="M115,166.2 C115,185.2214 115,205.2397 115,220.8276 " fill="none" id="usantatecla.tictactoe.types.Token-to-ClosedInterval" style="stroke:#A80036;stroke-width:1.0;stroke-dasharray:7.0,7.0;"/><polygon fill="#A80036" points="115,225.9363,119,216.9363,115,220.9363,111,216.9363,115,225.9363" style="stroke:#A80036;stroke-width:1.0;"/><!--MD5=[0bef285170b5cc2d4b7d9fddfab329b9]
@startuml
class ClosedInterval as "usantatecla.utils.models.ClosedInterval"

enum usantatecla.tictactoe.types.Error{
  + NOT_EMPTY
  + NOT_OWNER
  + SAME_COORDINATES
  + NOT_VALID
  + NULL
  + isNull(): boolean
}

enum usantatecla.tictactoe.types.Token{
  + X
  + O
  + NULL
  + isNull(): boolean
  + {static} get(int): Token
  + toString(): String
}
usantatecla.tictactoe.types.Token .down.> ClosedInterval
@enduml

PlantUML version 1.2020.23beta3(Unknown compile time)
(GPL source distribution)
Java Runtime: Java(TM) SE Runtime Environment
JVM: Java HotSpot(TM) 64-Bit Server VM
Default Encoding: UTF-8
Language: en
Country: US
--></g></svg>