<?xml version="1.0" encoding="UTF-8" standalone="no"?><svg xmlns="http://www.w3.org/2000/svg" xmlns:xlink="http://www.w3.org/1999/xlink" contentScriptType="application/ecmascript" contentStyleType="text/css" height="254px" preserveAspectRatio="none" style="width:739px;height:254px;" version="1.1" viewBox="0 0 739 254" width="739px" zoomAndPan="magnify"><defs><filter height="300%" id="f54vcyk7kh1lk" width="300%" x="-1" y="-1"><feGaussianBlur result="blurOut" stdDeviation="2.0"/><feColorMatrix in="blurOut" result="blurOut2" type="matrix" values="0 0 0 0 0 0 0 0 0 0 0 0 0 0 0 0 0 0 .4 0"/><feOffset dx="4.0" dy="4.0" in="blurOut2" result="blurOut3"/><feBlend in="SourceGraphic" in2="blurOut3" mode="normal"/></filter></defs><g><!--MD5=[b59da53bc4cb019b9115ab51e8207bb0]
cluster usantatecla.tictactoe--><polygon fill="#FFFFFF" filter="url(#f54vcyk7kh1lk)" points="254,6,439,6,446,28.2969,449,28.2969,449,143,254,143,254,6" style="stroke:#000000;stroke-width:1.5;"/><line style="stroke:#000000;stroke-width:1.5;" x1="254" x2="446" y1="28.2969" y2="28.2969"/><text fill="#000000" font-family="sans-serif" font-size="14" font-weight="bold" lengthAdjust="spacingAndGlyphs" textLength="179" x="258" y="20.9951">usantatecla.tictactoe</text><!--MD5=[4b5d579ecc4748d1b21f2fd6d497d353]
class usantatecla.tictactoe.TicTacToe--><rect codeLine="5" fill="#FEFECE" filter="url(#f54vcyk7kh1lk)" height="86.4141" id="usantatecla.tictactoe.TicTacToe" style="stroke:#A80036;stroke-width:1.5;" width="103" x="299.5" y="41"/><ellipse cx="319" cy="57" fill="#ADD1B2" rx="11" ry="11" style="stroke:#A80036;stroke-width:1.0;"/><path d="M321.3438,52.6719 C320.4063,52.2344 319.8125,52.0938 318.9375,52.0938 C316.3125,52.0938 314.3125,54.1719 314.3125,56.8906 L314.3125,58.0156 C314.3125,60.5938 316.4219,62.4844 319.3125,62.4844 C320.5313,62.4844 321.6875,62.1875 322.4375,61.6406 C323.0156,61.2344 323.3438,60.7813 323.3438,60.3906 C323.3438,59.9375 322.9531,59.5469 322.4844,59.5469 C322.2656,59.5469 322.0625,59.625 321.875,59.8125 C321.4219,60.2969 321.4219,60.2969 321.2344,60.3906 C320.8125,60.6563 320.125,60.7813 319.3594,60.7813 C317.3125,60.7813 316.0156,59.6875 316.0156,57.9844 L316.0156,56.8906 C316.0156,55.1094 317.2656,53.7969 319,53.7969 C319.5781,53.7969 320.1875,53.9531 320.6563,54.2031 C321.1406,54.4844 321.3125,54.7031 321.4063,55.1094 C321.4688,55.5156 321.5,55.6406 321.6406,55.7656 C321.7813,55.9063 322.0156,56.0156 322.2344,56.0156 C322.5,56.0156 322.7656,55.875 322.9375,55.6563 C323.0469,55.5 323.0781,55.3125 323.0781,54.8906 L323.0781,53.4688 C323.0781,53.0313 323.0625,52.9063 322.9688,52.75 C322.8125,52.4844 322.5313,52.3438 322.2344,52.3438 C321.9375,52.3438 321.7344,52.4375 321.5156,52.75 L321.3438,52.6719 Z " fill="#000000"/><text fill="#000000" font-family="sans-serif" font-size="12" lengthAdjust="spacingAndGlyphs" textLength="61" x="334" y="61.1543">TicTacToe</text><line style="stroke:#A80036;stroke-width:1.5;" x1="300.5" x2="401.5" y1="73" y2="73"/><line style="stroke:#A80036;stroke-width:1.5;" x1="300.5" x2="401.5" y1="81" y2="81"/><polygon fill="#FFFF44" points="310.5,87,314.5,91,310.5,95,306.5,91" style="stroke:#B38D22;stroke-width:1.0;"/><text fill="#000000" font-family="sans-serif" font-size="11" lengthAdjust="spacingAndGlyphs" textLength="66" x="319.5" y="95.2104">TicTacToe()</text><polygon fill="#FFFF44" points="310.5,99.8047,314.5,103.8047,310.5,107.8047,306.5,103.8047" style="stroke:#B38D22;stroke-width:1.0;"/><text fill="#000000" font-family="sans-serif" font-size="11" lengthAdjust="spacingAndGlyphs" textLength="32" x="319.5" y="108.0151">play()</text><ellipse cx="310.5" cy="117.6094" fill="#84BE84" rx="3" ry="3" style="stroke:#038048;stroke-width:1.0;"/><text fill="#000000" font-family="sans-serif" font-size="11" lengthAdjust="spacingAndGlyphs" textLength="77" x="319.5" y="120.8198">main(String[])</text><!--MD5=[c045e12321b83266d36d22b9096c24ea]
class View--><rect codeLine="1" fill="#FEFECE" filter="url(#f54vcyk7kh1lk)" height="53.9375" id="View" style="stroke:#A80036;stroke-width:1.5;" width="196" x="7" y="187"/><ellipse cx="22" cy="205.9688" fill="#ADD1B2" rx="11" ry="11" style="stroke:#A80036;stroke-width:1.0;"/><path d="M24.3438,201.6406 C23.4063,201.2031 22.8125,201.0625 21.9375,201.0625 C19.3125,201.0625 17.3125,203.1406 17.3125,205.8594 L17.3125,206.9844 C17.3125,209.5625 19.4219,211.4531 22.3125,211.4531 C23.5313,211.4531 24.6875,211.1563 25.4375,210.6094 C26.0156,210.2031 26.3438,209.75 26.3438,209.3594 C26.3438,208.9063 25.9531,208.5156 25.4844,208.5156 C25.2656,208.5156 25.0625,208.5938 24.875,208.7813 C24.4219,209.2656 24.4219,209.2656 24.2344,209.3594 C23.8125,209.625 23.125,209.75 22.3594,209.75 C20.3125,209.75 19.0156,208.6563 19.0156,206.9531 L19.0156,205.8594 C19.0156,204.0781 20.2656,202.7656 22,202.7656 C22.5781,202.7656 23.1875,202.9219 23.6563,203.1719 C24.1406,203.4531 24.3125,203.6719 24.4063,204.0781 C24.4688,204.4844 24.5,204.6094 24.6406,204.7344 C24.7813,204.875 25.0156,204.9844 25.2344,204.9844 C25.5,204.9844 25.7656,204.8438 25.9375,204.625 C26.0469,204.4688 26.0781,204.2813 26.0781,203.8594 L26.0781,202.4375 C26.0781,202 26.0625,201.875 25.9688,201.7188 C25.8125,201.4531 25.5313,201.3125 25.2344,201.3125 C24.9375,201.3125 24.7344,201.4063 24.5156,201.7188 L24.3438,201.6406 Z " fill="#000000"/><text fill="#000000" font-family="sans-serif" font-size="12" lengthAdjust="spacingAndGlyphs" textLength="164" x="36" y="203.1387">usantatecla.tictactoe.views.</text><text fill="#000000" font-family="sans-serif" font-size="12" lengthAdjust="spacingAndGlyphs" textLength="29" x="103.5" y="217.1074">View</text><line style="stroke:#A80036;stroke-width:1.5;" x1="8" x2="202" y1="224.9375" y2="224.9375"/><line style="stroke:#A80036;stroke-width:1.5;" x1="8" x2="202" y1="232.9375" y2="232.9375"/><!--MD5=[42fa18dda7351a0ae87d9497de925436]
class Logic--><rect codeLine="2" fill="#FEFECE" filter="url(#f54vcyk7kh1lk)" height="53.9375" id="Logic" style="stroke:#A80036;stroke-width:1.5;" width="226" x="238" y="187"/><ellipse cx="253" cy="205.9688" fill="#ADD1B2" rx="11" ry="11" style="stroke:#A80036;stroke-width:1.0;"/><path d="M255.3438,201.6406 C254.4063,201.2031 253.8125,201.0625 252.9375,201.0625 C250.3125,201.0625 248.3125,203.1406 248.3125,205.8594 L248.3125,206.9844 C248.3125,209.5625 250.4219,211.4531 253.3125,211.4531 C254.5313,211.4531 255.6875,211.1563 256.4375,210.6094 C257.0156,210.2031 257.3438,209.75 257.3438,209.3594 C257.3438,208.9063 256.9531,208.5156 256.4844,208.5156 C256.2656,208.5156 256.0625,208.5938 255.875,208.7813 C255.4219,209.2656 255.4219,209.2656 255.2344,209.3594 C254.8125,209.625 254.125,209.75 253.3594,209.75 C251.3125,209.75 250.0156,208.6563 250.0156,206.9531 L250.0156,205.8594 C250.0156,204.0781 251.2656,202.7656 253,202.7656 C253.5781,202.7656 254.1875,202.9219 254.6563,203.1719 C255.1406,203.4531 255.3125,203.6719 255.4063,204.0781 C255.4688,204.4844 255.5,204.6094 255.6406,204.7344 C255.7813,204.875 256.0156,204.9844 256.2344,204.9844 C256.5,204.9844 256.7656,204.8438 256.9375,204.625 C257.0469,204.4688 257.0781,204.2813 257.0781,203.8594 L257.0781,202.4375 C257.0781,202 257.0625,201.875 256.9688,201.7188 C256.8125,201.4531 256.5313,201.3125 256.2344,201.3125 C255.9375,201.3125 255.7344,201.4063 255.5156,201.7188 L255.3438,201.6406 Z " fill="#000000"/><text fill="#000000" font-family="sans-serif" font-size="12" lengthAdjust="spacingAndGlyphs" textLength="194" x="267" y="203.1387">usantatecla.tictactoe.controllers.</text><text fill="#000000" font-family="sans-serif" font-size="12" lengthAdjust="spacingAndGlyphs" textLength="32" x="348" y="217.1074">Logic</text><line style="stroke:#A80036;stroke-width:1.5;" x1="239" x2="463" y1="224.9375" y2="224.9375"/><line style="stroke:#A80036;stroke-width:1.5;" x1="239" x2="463" y1="232.9375" y2="232.9375"/><!--MD5=[1d7ba1c7002d54515419844fbd155368]
class Controller--><rect codeLine="3" fill="#FEFECE" filter="url(#f54vcyk7kh1lk)" height="53.9375" id="Controller" style="stroke:#A80036;stroke-width:1.5;" width="226" x="499" y="187"/><ellipse cx="514" cy="205.9688" fill="#ADD1B2" rx="11" ry="11" style="stroke:#A80036;stroke-width:1.0;"/><path d="M516.3438,201.6406 C515.4063,201.2031 514.8125,201.0625 513.9375,201.0625 C511.3125,201.0625 509.3125,203.1406 509.3125,205.8594 L509.3125,206.9844 C509.3125,209.5625 511.4219,211.4531 514.3125,211.4531 C515.5313,211.4531 516.6875,211.1563 517.4375,210.6094 C518.0156,210.2031 518.3438,209.75 518.3438,209.3594 C518.3438,208.9063 517.9531,208.5156 517.4844,208.5156 C517.2656,208.5156 517.0625,208.5938 516.875,208.7813 C516.4219,209.2656 516.4219,209.2656 516.2344,209.3594 C515.8125,209.625 515.125,209.75 514.3594,209.75 C512.3125,209.75 511.0156,208.6563 511.0156,206.9531 L511.0156,205.8594 C511.0156,204.0781 512.2656,202.7656 514,202.7656 C514.5781,202.7656 515.1875,202.9219 515.6563,203.1719 C516.1406,203.4531 516.3125,203.6719 516.4063,204.0781 C516.4688,204.4844 516.5,204.6094 516.6406,204.7344 C516.7813,204.875 517.0156,204.9844 517.2344,204.9844 C517.5,204.9844 517.7656,204.8438 517.9375,204.625 C518.0469,204.4688 518.0781,204.2813 518.0781,203.8594 L518.0781,202.4375 C518.0781,202 518.0625,201.875 517.9688,201.7188 C517.8125,201.4531 517.5313,201.3125 517.2344,201.3125 C516.9375,201.3125 516.7344,201.4063 516.5156,201.7188 L516.3438,201.6406 Z " fill="#000000"/><text fill="#000000" font-family="sans-serif" font-size="12" lengthAdjust="spacingAndGlyphs" textLength="194" x="528" y="203.1387">usantatecla.tictactoe.controllers.</text><text fill="#000000" font-family="sans-serif" font-size="12" lengthAdjust="spacingAndGlyphs" textLength="59" x="595.5" y="217.1074">Controller</text><line style="stroke:#A80036;stroke-width:1.5;" x1="500" x2="724" y1="224.9375" y2="224.9375"/><line style="stroke:#A80036;stroke-width:1.5;" x1="500" x2="724" y1="232.9375" y2="232.9375"/><!--MD5=[3f3b08302a73e15001fc302f837e77af]
link usantatecla.tictactoe.TicTacToe to View--><path codeLine="10" d="M288.7845,117.3714 C288.7845,117.3714 203.837,161.5726 166.87,180.8075 " fill="none" id="usantatecla.tictactoe.TicTacToe-View" style="stroke:#A80036;stroke-width:1.0;"/><polygon fill="#A80036" points="155.24,186.8591,165.0702,186.2536,159.6756,184.5514,161.3779,179.1567,155.24,186.8591" style="stroke:#A80036;stroke-width:1.0;"/><line style="stroke:#A80036;stroke-width:1.0;" x1="159.6756" x2="166.772" y1="184.5514" y2="180.8585"/><polygon fill="#A80036" points="299.43,111.833,292.2611,111.0537,288.7845,117.3714,295.9534,118.1507,299.43,111.833" style="stroke:#A80036;stroke-width:1.0;"/><!--MD5=[13bd704e5f9cfffac24033e559864506]
link usantatecla.tictactoe.TicTacToe to Logic--><path codeLine="11" d="M351,139.267 C351,139.267 351,163.2576 351,173.7511 " fill="none" id="usantatecla.tictactoe.TicTacToe-Logic" style="stroke:#A80036;stroke-width:1.0;"/><polygon fill="#A80036" points="351,186.8235,355,177.8235,351,181.8235,347,177.8235,351,186.8235" style="stroke:#A80036;stroke-width:1.0;"/><line style="stroke:#A80036;stroke-width:1.0;" x1="351" x2="351" y1="181.8235" y2="173.8234"/><polygon fill="#A80036" points="351,127.267,347,133.267,351,139.267,355,133.267,351,127.267" style="stroke:#A80036;stroke-width:1.0;"/><!--MD5=[40b820cbf56f54eb5c71e97f9448a43f]
link usantatecla.tictactoe.TicTacToe to Controller--><path codeLine="12" d="M402.565,110.289 C446.228,131.702 508.775,162.3764 554.139,184.6235 " fill="none" id="usantatecla.tictactoe.TicTacToe-to-Controller" style="stroke:#A80036;stroke-width:1.0;stroke-dasharray:7.0,7.0;"/><polygon fill="#A80036" points="558.75,186.8851,552.4305,179.331,554.2607,184.6836,548.9081,186.5138,558.75,186.8851" style="stroke:#A80036;stroke-width:1.0;"/><!--MD5=[ca9d6ba606be7113770ddd79a57477f5]
@startuml
class View as "usantatecla.tictactoe.views.\nView" {}
class Logic as "usantatecla.tictactoe.controllers.\nLogic" {}
class Controller as "usantatecla.tictactoe.controllers.\nController"

class usantatecla.tictactoe.TicTacToe{
  # TicTacToe()
  # play()
  + main(String[])
}
usantatecla.tictactoe.TicTacToe *-down-> View
usantatecla.tictactoe.TicTacToe *-down-> Logic
usantatecla.tictactoe.TicTacToe .down.> Controller
@enduml

PlantUML version 1.2020.23beta3(Unknown compile time)
(GPL source distribution)
Java Runtime: Java(TM) SE Runtime Environment
JVM: Java HotSpot(TM) 64-Bit Server VM
Default Encoding: UTF-8
Language: en
Country: US
--></g></svg>