<?xml version="1.0" encoding="UTF-8" standalone="no"?><svg xmlns="http://www.w3.org/2000/svg" xmlns:xlink="http://www.w3.org/1999/xlink" contentScriptType="application/ecmascript" contentStyleType="text/css" height="1125px" preserveAspectRatio="none" style="width:2769px;height:1125px;" version="1.1" viewBox="0 0 2769 1125" width="2769px" zoomAndPan="magnify"><defs><filter height="300%" id="f1gk9og7vdbmp7" width="300%" x="-1" y="-1"><feGaussianBlur result="blurOut" stdDeviation="2.0"/><feColorMatrix in="blurOut" result="blurOut2" type="matrix" values="0 0 0 0 0 0 0 0 0 0 0 0 0 0 0 0 0 0 .4 0"/><feOffset dx="4.0" dy="4.0" in="blurOut2" result="blurOut3"/><feBlend in="SourceGraphic" in2="blurOut3" mode="normal"/></filter></defs><g><!--MD5=[a28bb7016f04a6176ed7bd94eda416fd]
cluster usantatecla.tictactoe.views--><polygon fill="#FFFFFF" filter="url(#f1gk9og7vdbmp7)" points="533.5,86,768.5,86,775.5,108.2969,1726.5,108.2969,1726.5,1014,533.5,1014,533.5,86" style="stroke:#000000;stroke-width:1.5;"/><line style="stroke:#000000;stroke-width:1.5;" x1="533.5" x2="775.5" y1="108.2969" y2="108.2969"/><text fill="#000000" font-family="sans-serif" font-size="14" font-weight="bold" lengthAdjust="spacingAndGlyphs" textLength="229" x="537.5" y="100.9951">usantatecla.tictactoe.views</text><!--MD5=[321ae26eaa7b9127c772bf6d0dbc87c2]
class usantatecla.tictactoe.views.BoardView--><rect codeLine="11" fill="#FEFECE" filter="url(#f1gk9og7vdbmp7)" height="86.4141" id="usantatecla.tictactoe.views.BoardView" style="stroke:#A80036;stroke-width:1.5;" width="190" x="1017.5" y="822"/><ellipse cx="1075.75" cy="838" fill="#ADD1B2" rx="11" ry="11" style="stroke:#A80036;stroke-width:1.0;"/><path d="M1078.0938,833.6719 C1077.1563,833.2344 1076.5625,833.0938 1075.6875,833.0938 C1073.0625,833.0938 1071.0625,835.1719 1071.0625,837.8906 L1071.0625,839.0156 C1071.0625,841.5938 1073.1719,843.4844 1076.0625,843.4844 C1077.2813,843.4844 1078.4375,843.1875 1079.1875,842.6406 C1079.7656,842.2344 1080.0938,841.7813 1080.0938,841.3906 C1080.0938,840.9375 1079.7031,840.5469 1079.2344,840.5469 C1079.0156,840.5469 1078.8125,840.625 1078.625,840.8125 C1078.1719,841.2969 1078.1719,841.2969 1077.9844,841.3906 C1077.5625,841.6563 1076.875,841.7813 1076.1094,841.7813 C1074.0625,841.7813 1072.7656,840.6875 1072.7656,838.9844 L1072.7656,837.8906 C1072.7656,836.1094 1074.0156,834.7969 1075.75,834.7969 C1076.3281,834.7969 1076.9375,834.9531 1077.4063,835.2031 C1077.8906,835.4844 1078.0625,835.7031 1078.1563,836.1094 C1078.2188,836.5156 1078.25,836.6406 1078.3906,836.7656 C1078.5313,836.9063 1078.7656,837.0156 1078.9844,837.0156 C1079.25,837.0156 1079.5156,836.875 1079.6875,836.6563 C1079.7969,836.5 1079.8281,836.3125 1079.8281,835.8906 L1079.8281,834.4688 C1079.8281,834.0313 1079.8125,833.9063 1079.7188,833.75 C1079.5625,833.4844 1079.2813,833.3438 1078.9844,833.3438 C1078.6875,833.3438 1078.4844,833.4375 1078.2656,833.75 L1078.0938,833.6719 Z " fill="#000000"/><text fill="#000000" font-family="sans-serif" font-size="12" lengthAdjust="spacingAndGlyphs" textLength="65" x="1096.25" y="842.1543">BoardView</text><line style="stroke:#A80036;stroke-width:1.5;" x1="1018.5" x2="1206.5" y1="854" y2="854"/><rect fill="none" height="6" style="stroke:#C82930;stroke-width:1.0;" width="6" x="1025.5" y="862"/><text fill="#000000" font-family="sans-serif" font-size="11" lengthAdjust="spacingAndGlyphs" textLength="164" x="1037.5" y="868.2104">playController: PlayController</text><line style="stroke:#A80036;stroke-width:1.5;" x1="1018.5" x2="1206.5" y1="874.8047" y2="874.8047"/><polygon fill="#4177AF" points="1028.5,881.8047,1024.5,887.8047,1032.5,887.8047" style="stroke:#1963A0;stroke-width:1.0;"/><text fill="#000000" font-family="sans-serif" font-size="11" lengthAdjust="spacingAndGlyphs" textLength="147" x="1037.5" y="889.0151">BoardView(PlayController)</text><polygon fill="#4177AF" points="1028.5,894.6094,1024.5,900.6094,1032.5,900.6094" style="stroke:#1963A0;stroke-width:1.0;"/><text fill="#000000" font-family="sans-serif" font-size="11" lengthAdjust="spacingAndGlyphs" textLength="67" x="1037.5" y="901.8198">write(): void</text><!--MD5=[f02d4036081e37c1ae962df12741f1e4]
class usantatecla.tictactoe.views.Command--><rect codeLine="19" fill="#FEFECE" filter="url(#f1gk9og7vdbmp7)" height="73.6094" id="usantatecla.tictactoe.views.Command" style="stroke:#A80036;stroke-width:1.5;" width="210" x="773.5" y="452"/><ellipse cx="844.25" cy="468" fill="#ADD1B2" rx="11" ry="11" style="stroke:#A80036;stroke-width:1.0;"/><path d="M846.5938,463.6719 C845.6563,463.2344 845.0625,463.0938 844.1875,463.0938 C841.5625,463.0938 839.5625,465.1719 839.5625,467.8906 L839.5625,469.0156 C839.5625,471.5938 841.6719,473.4844 844.5625,473.4844 C845.7813,473.4844 846.9375,473.1875 847.6875,472.6406 C848.2656,472.2344 848.5938,471.7813 848.5938,471.3906 C848.5938,470.9375 848.2031,470.5469 847.7344,470.5469 C847.5156,470.5469 847.3125,470.625 847.125,470.8125 C846.6719,471.2969 846.6719,471.2969 846.4844,471.3906 C846.0625,471.6563 845.375,471.7813 844.6094,471.7813 C842.5625,471.7813 841.2656,470.6875 841.2656,468.9844 L841.2656,467.8906 C841.2656,466.1094 842.5156,464.7969 844.25,464.7969 C844.8281,464.7969 845.4375,464.9531 845.9063,465.2031 C846.3906,465.4844 846.5625,465.7031 846.6563,466.1094 C846.7188,466.5156 846.75,466.6406 846.8906,466.7656 C847.0313,466.9063 847.2656,467.0156 847.4844,467.0156 C847.75,467.0156 848.0156,466.875 848.1875,466.6563 C848.2969,466.5 848.3281,466.3125 848.3281,465.8906 L848.3281,464.4688 C848.3281,464.0313 848.3125,463.9063 848.2188,463.75 C848.0625,463.4844 847.7813,463.3438 847.4844,463.3438 C847.1875,463.3438 846.9844,463.4375 846.7656,463.75 L846.5938,463.6719 Z " fill="#000000"/><text fill="#000000" font-family="sans-serif" font-size="12" lengthAdjust="spacingAndGlyphs" textLength="60" x="864.75" y="472.1543">Command</text><line style="stroke:#A80036;stroke-width:1.5;" x1="774.5" x2="982.5" y1="484" y2="484"/><polygon fill="none" points="784.5,490,788.5,494,784.5,498,780.5,494" style="stroke:#B38D22;stroke-width:1.0;"/><text fill="#000000" font-family="sans-serif" font-size="11" lengthAdjust="spacingAndGlyphs" textLength="164" x="793.5" y="498.2104">playController: PlayController</text><line style="stroke:#A80036;stroke-width:1.5;" x1="774.5" x2="982.5" y1="504.8047" y2="504.8047"/><polygon fill="#FFFF44" points="784.5,510.8047,788.5,514.8047,784.5,518.8047,780.5,514.8047" style="stroke:#B38D22;stroke-width:1.0;"/><text fill="#000000" font-family="sans-serif" font-size="11" lengthAdjust="spacingAndGlyphs" textLength="184" x="793.5" y="519.0151">Command(String, PlayController)</text><!--MD5=[fde10afb78873198abddb67b7dc7e289]
class usantatecla.tictactoe.views.CoordinateView--><rect codeLine="25" fill="#FEFECE" filter="url(#f1gk9og7vdbmp7)" height="86.4141" id="usantatecla.tictactoe.views.CoordinateView" style="stroke:#A80036;stroke-width:1.5;" width="202" x="1508.5" y="586"/><ellipse cx="1557.75" cy="602" fill="#ADD1B2" rx="11" ry="11" style="stroke:#A80036;stroke-width:1.0;"/><path d="M1560.0938,597.6719 C1559.1563,597.2344 1558.5625,597.0938 1557.6875,597.0938 C1555.0625,597.0938 1553.0625,599.1719 1553.0625,601.8906 L1553.0625,603.0156 C1553.0625,605.5938 1555.1719,607.4844 1558.0625,607.4844 C1559.2813,607.4844 1560.4375,607.1875 1561.1875,606.6406 C1561.7656,606.2344 1562.0938,605.7813 1562.0938,605.3906 C1562.0938,604.9375 1561.7031,604.5469 1561.2344,604.5469 C1561.0156,604.5469 1560.8125,604.625 1560.625,604.8125 C1560.1719,605.2969 1560.1719,605.2969 1559.9844,605.3906 C1559.5625,605.6563 1558.875,605.7813 1558.1094,605.7813 C1556.0625,605.7813 1554.7656,604.6875 1554.7656,602.9844 L1554.7656,601.8906 C1554.7656,600.1094 1556.0156,598.7969 1557.75,598.7969 C1558.3281,598.7969 1558.9375,598.9531 1559.4063,599.2031 C1559.8906,599.4844 1560.0625,599.7031 1560.1563,600.1094 C1560.2188,600.5156 1560.25,600.6406 1560.3906,600.7656 C1560.5313,600.9063 1560.7656,601.0156 1560.9844,601.0156 C1561.25,601.0156 1561.5156,600.875 1561.6875,600.6563 C1561.7969,600.5 1561.8281,600.3125 1561.8281,599.8906 L1561.8281,598.4688 C1561.8281,598.0313 1561.8125,597.9063 1561.7188,597.75 C1561.5625,597.4844 1561.2813,597.3438 1560.9844,597.3438 C1560.6875,597.3438 1560.4844,597.4375 1560.2656,597.75 L1560.0938,597.6719 Z " fill="#000000"/><text fill="#000000" font-family="sans-serif" font-size="12" lengthAdjust="spacingAndGlyphs" textLength="95" x="1578.25" y="606.1543">CoordinateView</text><line style="stroke:#A80036;stroke-width:1.5;" x1="1509.5" x2="1709.5" y1="618" y2="618"/><polygon fill="none" points="1519.5,625,1515.5,631,1523.5,631" style="stroke:#1963A0;stroke-width:1.0;"/><text fill="#000000" font-family="sans-serif" font-size="11" lengthAdjust="spacingAndGlyphs" textLength="164" x="1528.5" y="632.2104">playController: PlayController</text><line style="stroke:#A80036;stroke-width:1.5;" x1="1509.5" x2="1709.5" y1="638.8047" y2="638.8047"/><polygon fill="#4177AF" points="1519.5,645.8047,1515.5,651.8047,1523.5,651.8047" style="stroke:#1963A0;stroke-width:1.0;"/><text fill="#000000" font-family="sans-serif" font-size="11" lengthAdjust="spacingAndGlyphs" textLength="176" x="1528.5" y="653.0151">CoordinateView(PlayController)</text><polygon fill="#4177AF" points="1519.5,658.6094,1515.5,664.6094,1523.5,664.6094" style="stroke:#1963A0;stroke-width:1.0;"/><text fill="#000000" font-family="sans-serif" font-size="11" lengthAdjust="spacingAndGlyphs" textLength="96" x="1528.5" y="665.8198">read(String): int[]</text><!--MD5=[9f3672d02251c6628f0caf7fed9e62dd]
class usantatecla.tictactoe.views.ErrorView--><rect codeLine="35" fill="#FEFECE" filter="url(#f1gk9og7vdbmp7)" height="99.2188" id="usantatecla.tictactoe.views.ErrorView" style="stroke:#A80036;stroke-width:1.5;" width="138" x="1540.5" y="815.5"/><ellipse cx="1576.65" cy="831.5" fill="#ADD1B2" rx="11" ry="11" style="stroke:#A80036;stroke-width:1.0;"/><path d="M1578.9938,827.1719 C1578.0563,826.7344 1577.4625,826.5938 1576.5875,826.5938 C1573.9625,826.5938 1571.9625,828.6719 1571.9625,831.3906 L1571.9625,832.5156 C1571.9625,835.0938 1574.0719,836.9844 1576.9625,836.9844 C1578.1813,836.9844 1579.3375,836.6875 1580.0875,836.1406 C1580.6656,835.7344 1580.9938,835.2813 1580.9938,834.8906 C1580.9938,834.4375 1580.6031,834.0469 1580.1344,834.0469 C1579.9156,834.0469 1579.7125,834.125 1579.525,834.3125 C1579.0719,834.7969 1579.0719,834.7969 1578.8844,834.8906 C1578.4625,835.1563 1577.775,835.2813 1577.0094,835.2813 C1574.9625,835.2813 1573.6656,834.1875 1573.6656,832.4844 L1573.6656,831.3906 C1573.6656,829.6094 1574.9156,828.2969 1576.65,828.2969 C1577.2281,828.2969 1577.8375,828.4531 1578.3063,828.7031 C1578.7906,828.9844 1578.9625,829.2031 1579.0563,829.6094 C1579.1188,830.0156 1579.15,830.1406 1579.2906,830.2656 C1579.4313,830.4063 1579.6656,830.5156 1579.8844,830.5156 C1580.15,830.5156 1580.4156,830.375 1580.5875,830.1563 C1580.6969,830 1580.7281,829.8125 1580.7281,829.3906 L1580.7281,827.9688 C1580.7281,827.5313 1580.7125,827.4063 1580.6188,827.25 C1580.4625,826.9844 1580.1813,826.8438 1579.8844,826.8438 C1579.5875,826.8438 1579.3844,826.9375 1579.1656,827.25 L1578.9938,827.1719 Z " fill="#000000"/><text fill="#000000" font-family="sans-serif" font-size="12" lengthAdjust="spacingAndGlyphs" textLength="59" x="1595.35" y="835.6543">ErrorView</text><line style="stroke:#A80036;stroke-width:1.5;" x1="1541.5" x2="1677.5" y1="847.5" y2="847.5"/><ellipse cx="1551.5" cy="858.5" fill="none" rx="3" ry="3" style="stroke:#038048;stroke-width:1.0;"/><text fill="#000000" font-family="sans-serif" font-size="11" lengthAdjust="spacingAndGlyphs" text-decoration="underline" textLength="112" x="1560.5" y="861.7104">MESSAGES: String[]</text><polygon fill="none" points="1551.5,866.3047,1555.5,870.3047,1551.5,874.3047,1547.5,870.3047" style="stroke:#B38D22;stroke-width:1.0;"/><text fill="#000000" font-family="sans-serif" font-size="11" lengthAdjust="spacingAndGlyphs" textLength="60" x="1560.5" y="874.5151">error: Error</text><line style="stroke:#A80036;stroke-width:1.5;" x1="1541.5" x2="1677.5" y1="881.1094" y2="881.1094"/><ellipse cx="1551.5" cy="892.1094" fill="#84BE84" rx="3" ry="3" style="stroke:#038048;stroke-width:1.0;"/><text fill="#000000" font-family="sans-serif" font-size="11" lengthAdjust="spacingAndGlyphs" textLength="88" x="1560.5" y="895.3198">ErrorView(Error)</text><polygon fill="#4177AF" points="1551.5,900.9141,1547.5,906.9141,1555.5,906.9141" style="stroke:#1963A0;stroke-width:1.0;"/><text fill="#000000" font-family="sans-serif" font-size="11" lengthAdjust="spacingAndGlyphs" textLength="77" x="1560.5" y="908.1245">writeln(): void</text><!--MD5=[a66996a88a04a7646fe7625221d515cb]
class usantatecla.tictactoe.views.Message--><rect codeLine="42" fill="#FEFECE" filter="url(#f1gk9og7vdbmp7)" height="265.6797" id="usantatecla.tictactoe.views.Message" style="stroke:#A80036;stroke-width:1.5;" width="176" x="1248.5" y="732"/><ellipse cx="1304.75" cy="748" fill="#EB937F" rx="11" ry="11" style="stroke:#A80036;stroke-width:1.0;"/><path d="M1303.5469,748.875 L1305,748.875 L1305,748.9844 C1305,749.3906 1305.0313,749.5469 1305.1094,749.7031 C1305.2656,749.9531 1305.5469,750.1094 1305.8438,750.1094 C1306.0938,750.1094 1306.3594,749.9688 1306.5156,749.75 C1306.6406,749.5938 1306.6719,749.4375 1306.6719,748.9844 L1306.6719,747.0625 C1306.6719,746.9063 1306.6719,746.8594 1306.6563,746.7031 C1306.5938,746.2344 1306.2813,745.9219 1305.8281,745.9219 C1305.5781,745.9219 1305.3125,746.0625 1305.1406,746.2813 C1305.0313,746.4531 1305,746.6094 1305,747.0625 L1305,747.1875 L1303.5469,747.1875 L1303.5469,744.7813 L1307.5313,744.7813 L1307.5313,745.6406 C1307.5313,746.0469 1307.5625,746.2188 1307.6406,746.375 C1307.8125,746.625 1308.0938,746.7813 1308.375,746.7813 C1308.6406,746.7813 1308.9063,746.6406 1309.0781,746.4219 C1309.1875,746.25 1309.2188,746.1094 1309.2188,745.6406 L1309.2188,743.0938 L1301.5938,743.0938 C1301.1563,743.0938 1301.0313,743.1094 1300.875,743.2031 C1300.625,743.3594 1300.4688,743.6563 1300.4688,743.9375 C1300.4688,744.2188 1300.6094,744.4688 1300.8281,744.6406 C1300.9844,744.75 1301.1719,744.7813 1301.5938,744.7813 L1301.8438,744.7813 L1301.8438,751.2969 L1301.5938,751.2969 C1301.1875,751.2969 1301.0313,751.3125 1300.875,751.4219 C1300.625,751.5938 1300.4688,751.8594 1300.4688,752.1563 C1300.4688,752.4219 1300.6094,752.6719 1300.8281,752.8281 C1300.9688,752.9531 1301.2031,753 1301.5938,753 L1309.5938,753 L1309.5938,750.4219 C1309.5938,749.9844 1309.5625,749.8438 1309.4844,749.6875 C1309.3125,749.4375 1309.0313,749.2813 1308.75,749.2813 C1308.4844,749.2813 1308.2188,749.3906 1308.0469,749.6406 C1307.9375,749.7969 1307.9063,749.9375 1307.9063,750.4219 L1307.9063,751.2969 L1303.5469,751.2969 L1303.5469,748.875 Z " fill="#000000"/><text fill="#000000" font-family="sans-serif" font-size="12" lengthAdjust="spacingAndGlyphs" textLength="55" x="1325.25" y="752.1543">Message</text><line style="stroke:#A80036;stroke-width:1.5;" x1="1249.5" x2="1423.5" y1="764" y2="764"/><ellipse cx="1259.5" cy="775" fill="none" rx="3" ry="3" style="stroke:#038048;stroke-width:1.0;"/><text fill="#000000" font-family="sans-serif" font-size="11" lengthAdjust="spacingAndGlyphs" textLength="36" x="1268.5" y="778.2104">EMPTY</text><ellipse cx="1259.5" cy="787.8047" fill="none" rx="3" ry="3" style="stroke:#038048;stroke-width:1.0;"/><text fill="#000000" font-family="sans-serif" font-size="11" lengthAdjust="spacingAndGlyphs" textLength="67" x="1268.5" y="791.0151">SEPARATOR</text><ellipse cx="1259.5" cy="800.6094" fill="none" rx="3" ry="3" style="stroke:#038048;stroke-width:1.0;"/><text fill="#000000" font-family="sans-serif" font-size="11" lengthAdjust="spacingAndGlyphs" textLength="150" x="1268.5" y="803.8198">VERTICAL_LINE_CENTERED</text><ellipse cx="1259.5" cy="813.4141" fill="none" rx="3" ry="3" style="stroke:#038048;stroke-width:1.0;"/><text fill="#000000" font-family="sans-serif" font-size="11" lengthAdjust="spacingAndGlyphs" textLength="116" x="1268.5" y="816.6245">VERTICAL_LINE_LEFT</text><ellipse cx="1259.5" cy="826.2188" fill="none" rx="3" ry="3" style="stroke:#038048;stroke-width:1.0;"/><text fill="#000000" font-family="sans-serif" font-size="11" lengthAdjust="spacingAndGlyphs" textLength="69" x="1268.5" y="829.4292">PLAYER_WIN</text><ellipse cx="1259.5" cy="839.0234" fill="none" rx="3" ry="3" style="stroke:#038048;stroke-width:1.0;"/><text fill="#000000" font-family="sans-serif" font-size="11" lengthAdjust="spacingAndGlyphs" textLength="76" x="1268.5" y="842.2339">START_GAME</text><ellipse cx="1259.5" cy="851.8281" fill="none" rx="3" ry="3" style="stroke:#038048;stroke-width:1.0;"/><text fill="#000000" font-family="sans-serif" font-size="11" lengthAdjust="spacingAndGlyphs" textLength="96" x="1268.5" y="855.0386">CHOOSE_PLAYER</text><ellipse cx="1259.5" cy="864.6328" fill="none" rx="3" ry="3" style="stroke:#038048;stroke-width:1.0;"/><text fill="#000000" font-family="sans-serif" font-size="11" lengthAdjust="spacingAndGlyphs" textLength="64" x="1268.5" y="867.8433">READ_ROW</text><ellipse cx="1259.5" cy="877.4375" fill="none" rx="3" ry="3" style="stroke:#038048;stroke-width:1.0;"/><text fill="#000000" font-family="sans-serif" font-size="11" lengthAdjust="spacingAndGlyphs" textLength="85" x="1268.5" y="880.6479">READ_COLUMN</text><ellipse cx="1259.5" cy="890.2422" fill="none" rx="3" ry="3" style="stroke:#038048;stroke-width:1.0;"/><text fill="#000000" font-family="sans-serif" font-size="11" lengthAdjust="spacingAndGlyphs" textLength="37" x="1268.5" y="893.4526">ERROR</text><ellipse cx="1259.5" cy="903.0469" fill="none" rx="3" ry="3" style="stroke:#038048;stroke-width:1.0;"/><text fill="#000000" font-family="sans-serif" font-size="11" lengthAdjust="spacingAndGlyphs" textLength="118" x="1268.5" y="906.2573">PROPOSE_COMMAND</text><ellipse cx="1259.5" cy="915.8516" fill="none" rx="3" ry="3" style="stroke:#038048;stroke-width:1.0;"/><text fill="#000000" font-family="sans-serif" font-size="11" lengthAdjust="spacingAndGlyphs" textLength="100" x="1268.5" y="919.062">UNDO_COMMAND</text><ellipse cx="1259.5" cy="928.6563" fill="none" rx="3" ry="3" style="stroke:#038048;stroke-width:1.0;"/><text fill="#000000" font-family="sans-serif" font-size="11" lengthAdjust="spacingAndGlyphs" textLength="98" x="1268.5" y="931.8667">REDO_COMMAND</text><ellipse cx="1259.5" cy="941.4609" fill="none" rx="3" ry="3" style="stroke:#038048;stroke-width:1.0;"/><text fill="#000000" font-family="sans-serif" font-size="11" lengthAdjust="spacingAndGlyphs" textLength="46" x="1268.5" y="944.6714">RESUME</text><rect fill="none" height="6" style="stroke:#C82930;stroke-width:1.0;" width="6" x="1256.5" y="951.2656"/><text fill="#000000" font-family="sans-serif" font-size="11" lengthAdjust="spacingAndGlyphs" textLength="93" x="1268.5" y="957.4761">message: String</text><line style="stroke:#A80036;stroke-width:1.5;" x1="1249.5" x2="1423.5" y1="964.0703" y2="964.0703"/><rect fill="#F24D5C" height="6" style="stroke:#C82930;stroke-width:1.0;" width="6" x="1256.5" y="972.0703"/><text fill="#000000" font-family="sans-serif" font-size="11" lengthAdjust="spacingAndGlyphs" textLength="92" x="1268.5" y="978.2808">Message(String)</text><ellipse cx="1259.5" cy="987.875" fill="#84BE84" rx="3" ry="3" style="stroke:#038048;stroke-width:1.0;"/><text fill="#000000" font-family="sans-serif" font-size="11" lengthAdjust="spacingAndGlyphs" textLength="118" x="1268.5" y="991.0854">getMessage(): String</text><!--MD5=[32b9c4488447df5e7f9dedac24dd072b]
class usantatecla.tictactoe.views.PlayCommand--><rect codeLine="62" fill="#FEFECE" filter="url(#f1gk9og7vdbmp7)" height="86.4141" id="usantatecla.tictactoe.views.PlayCommand" style="stroke:#A80036;stroke-width:1.5;" width="193" x="1009" y="586"/><ellipse cx="1059.75" cy="602" fill="#ADD1B2" rx="11" ry="11" style="stroke:#A80036;stroke-width:1.0;"/><path d="M1062.0938,597.6719 C1061.1563,597.2344 1060.5625,597.0938 1059.6875,597.0938 C1057.0625,597.0938 1055.0625,599.1719 1055.0625,601.8906 L1055.0625,603.0156 C1055.0625,605.5938 1057.1719,607.4844 1060.0625,607.4844 C1061.2813,607.4844 1062.4375,607.1875 1063.1875,606.6406 C1063.7656,606.2344 1064.0938,605.7813 1064.0938,605.3906 C1064.0938,604.9375 1063.7031,604.5469 1063.2344,604.5469 C1063.0156,604.5469 1062.8125,604.625 1062.625,604.8125 C1062.1719,605.2969 1062.1719,605.2969 1061.9844,605.3906 C1061.5625,605.6563 1060.875,605.7813 1060.1094,605.7813 C1058.0625,605.7813 1056.7656,604.6875 1056.7656,602.9844 L1056.7656,601.8906 C1056.7656,600.1094 1058.0156,598.7969 1059.75,598.7969 C1060.3281,598.7969 1060.9375,598.9531 1061.4063,599.2031 C1061.8906,599.4844 1062.0625,599.7031 1062.1563,600.1094 C1062.2188,600.5156 1062.25,600.6406 1062.3906,600.7656 C1062.5313,600.9063 1062.7656,601.0156 1062.9844,601.0156 C1063.25,601.0156 1063.5156,600.875 1063.6875,600.6563 C1063.7969,600.5 1063.8281,600.3125 1063.8281,599.8906 L1063.8281,598.4688 C1063.8281,598.0313 1063.8125,597.9063 1063.7188,597.75 C1063.5625,597.4844 1063.2813,597.3438 1062.9844,597.3438 C1062.6875,597.3438 1062.4844,597.4375 1062.2656,597.75 L1062.0938,597.6719 Z " fill="#000000"/><text fill="#000000" font-family="sans-serif" font-size="12" lengthAdjust="spacingAndGlyphs" textLength="83" x="1080.25" y="606.1543">PlayCommand</text><line style="stroke:#A80036;stroke-width:1.5;" x1="1010" x2="1201" y1="618" y2="618"/><line style="stroke:#A80036;stroke-width:1.5;" x1="1010" x2="1201" y1="626" y2="626"/><ellipse cx="1020" cy="637" fill="#84BE84" rx="3" ry="3" style="stroke:#038048;stroke-width:1.0;"/><text fill="#000000" font-family="sans-serif" font-size="11" lengthAdjust="spacingAndGlyphs" textLength="167" x="1029" y="640.2104">PlayCommand(PlayController)</text><polygon fill="#FFFF44" points="1020,644.8047,1024,648.8047,1020,652.8047,1016,648.8047" style="stroke:#B38D22;stroke-width:1.0;"/><text fill="#000000" font-family="sans-serif" font-size="11" lengthAdjust="spacingAndGlyphs" textLength="87" x="1029" y="653.0151">execute(): void</text><polygon fill="#FFFF44" points="1020,657.6094,1024,661.6094,1020,665.6094,1016,661.6094" style="stroke:#B38D22;stroke-width:1.0;"/><text fill="#000000" font-family="sans-serif" font-size="11" lengthAdjust="spacingAndGlyphs" textLength="106" x="1029" y="665.8198">isActive(): boolean</text><!--MD5=[da1debfff4c74bae70b522613b716136]
class usantatecla.tictactoe.views.PlayMenu--><rect codeLine="72" fill="#FEFECE" filter="url(#f1gk9og7vdbmp7)" height="60.8047" id="usantatecla.tictactoe.views.PlayMenu" style="stroke:#A80036;stroke-width:1.5;" width="166" x="1022.5" y="458.5"/><ellipse cx="1073.75" cy="474.5" fill="#ADD1B2" rx="11" ry="11" style="stroke:#A80036;stroke-width:1.0;"/><path d="M1076.0938,470.1719 C1075.1563,469.7344 1074.5625,469.5938 1073.6875,469.5938 C1071.0625,469.5938 1069.0625,471.6719 1069.0625,474.3906 L1069.0625,475.5156 C1069.0625,478.0938 1071.1719,479.9844 1074.0625,479.9844 C1075.2813,479.9844 1076.4375,479.6875 1077.1875,479.1406 C1077.7656,478.7344 1078.0938,478.2813 1078.0938,477.8906 C1078.0938,477.4375 1077.7031,477.0469 1077.2344,477.0469 C1077.0156,477.0469 1076.8125,477.125 1076.625,477.3125 C1076.1719,477.7969 1076.1719,477.7969 1075.9844,477.8906 C1075.5625,478.1563 1074.875,478.2813 1074.1094,478.2813 C1072.0625,478.2813 1070.7656,477.1875 1070.7656,475.4844 L1070.7656,474.3906 C1070.7656,472.6094 1072.0156,471.2969 1073.75,471.2969 C1074.3281,471.2969 1074.9375,471.4531 1075.4063,471.7031 C1075.8906,471.9844 1076.0625,472.2031 1076.1563,472.6094 C1076.2188,473.0156 1076.25,473.1406 1076.3906,473.2656 C1076.5313,473.4063 1076.7656,473.5156 1076.9844,473.5156 C1077.25,473.5156 1077.5156,473.375 1077.6875,473.1563 C1077.7969,473 1077.8281,472.8125 1077.8281,472.3906 L1077.8281,470.9688 C1077.8281,470.5313 1077.8125,470.4063 1077.7188,470.25 C1077.5625,469.9844 1077.2813,469.8438 1076.9844,469.8438 C1076.6875,469.8438 1076.4844,469.9375 1076.2656,470.25 L1076.0938,470.1719 Z " fill="#000000"/><text fill="#000000" font-family="sans-serif" font-size="12" lengthAdjust="spacingAndGlyphs" textLength="55" x="1094.25" y="478.6543">PlayMenu</text><line style="stroke:#A80036;stroke-width:1.5;" x1="1023.5" x2="1187.5" y1="490.5" y2="490.5"/><line style="stroke:#A80036;stroke-width:1.5;" x1="1023.5" x2="1187.5" y1="498.5" y2="498.5"/><polygon fill="#4177AF" points="1033.5,505.5,1029.5,511.5,1037.5,511.5" style="stroke:#1963A0;stroke-width:1.0;"/><text fill="#000000" font-family="sans-serif" font-size="11" lengthAdjust="spacingAndGlyphs" textLength="140" x="1042.5" y="512.7104">PlayMenu(PlayController)</text><!--MD5=[a152dd1e513660684ea13a9ea542b939]
class usantatecla.tictactoe.views.UndoCommand--><rect codeLine="109" fill="#FEFECE" filter="url(#f1gk9og7vdbmp7)" height="86.4141" id="usantatecla.tictactoe.views.UndoCommand" style="stroke:#A80036;stroke-width:1.5;" width="199" x="1237" y="586"/><ellipse cx="1286.25" cy="602" fill="#ADD1B2" rx="11" ry="11" style="stroke:#A80036;stroke-width:1.0;"/><path d="M1288.5938,597.6719 C1287.6563,597.2344 1287.0625,597.0938 1286.1875,597.0938 C1283.5625,597.0938 1281.5625,599.1719 1281.5625,601.8906 L1281.5625,603.0156 C1281.5625,605.5938 1283.6719,607.4844 1286.5625,607.4844 C1287.7813,607.4844 1288.9375,607.1875 1289.6875,606.6406 C1290.2656,606.2344 1290.5938,605.7813 1290.5938,605.3906 C1290.5938,604.9375 1290.2031,604.5469 1289.7344,604.5469 C1289.5156,604.5469 1289.3125,604.625 1289.125,604.8125 C1288.6719,605.2969 1288.6719,605.2969 1288.4844,605.3906 C1288.0625,605.6563 1287.375,605.7813 1286.6094,605.7813 C1284.5625,605.7813 1283.2656,604.6875 1283.2656,602.9844 L1283.2656,601.8906 C1283.2656,600.1094 1284.5156,598.7969 1286.25,598.7969 C1286.8281,598.7969 1287.4375,598.9531 1287.9063,599.2031 C1288.3906,599.4844 1288.5625,599.7031 1288.6563,600.1094 C1288.7188,600.5156 1288.75,600.6406 1288.8906,600.7656 C1289.0313,600.9063 1289.2656,601.0156 1289.4844,601.0156 C1289.75,601.0156 1290.0156,600.875 1290.1875,600.6563 C1290.2969,600.5 1290.3281,600.3125 1290.3281,599.8906 L1290.3281,598.4688 C1290.3281,598.0313 1290.3125,597.9063 1290.2188,597.75 C1290.0625,597.4844 1289.7813,597.3438 1289.4844,597.3438 C1289.1875,597.3438 1288.9844,597.4375 1288.7656,597.75 L1288.5938,597.6719 Z " fill="#000000"/><text fill="#000000" font-family="sans-serif" font-size="12" lengthAdjust="spacingAndGlyphs" textLength="92" x="1306.75" y="606.1543">UndoCommand</text><line style="stroke:#A80036;stroke-width:1.5;" x1="1238" x2="1435" y1="618" y2="618"/><line style="stroke:#A80036;stroke-width:1.5;" x1="1238" x2="1435" y1="626" y2="626"/><polygon fill="#4177AF" points="1248,633,1244,639,1252,639" style="stroke:#1963A0;stroke-width:1.0;"/><text fill="#000000" font-family="sans-serif" font-size="11" lengthAdjust="spacingAndGlyphs" textLength="173" x="1257" y="640.2104">UndoCommand(PlayController)</text><polygon fill="#FFFF44" points="1248,644.8047,1252,648.8047,1248,652.8047,1244,648.8047" style="stroke:#B38D22;stroke-width:1.0;"/><text fill="#000000" font-family="sans-serif" font-size="11" lengthAdjust="spacingAndGlyphs" textLength="87" x="1257" y="653.0151">execute(): void</text><polygon fill="#FFFF44" points="1248,657.6094,1252,661.6094,1248,665.6094,1244,661.6094" style="stroke:#B38D22;stroke-width:1.0;"/><text fill="#000000" font-family="sans-serif" font-size="11" lengthAdjust="spacingAndGlyphs" textLength="106" x="1257" y="665.8198">isActive(): boolean</text><!--MD5=[5b0587448e48b282a77d13bdcec39be6]
class usantatecla.tictactoe.views.RedoCommand--><rect codeLine="87" fill="#FEFECE" filter="url(#f1gk9og7vdbmp7)" height="86.4141" id="usantatecla.tictactoe.views.RedoCommand" style="stroke:#A80036;stroke-width:1.5;" width="199" x="775" y="586"/><ellipse cx="824.75" cy="602" fill="#ADD1B2" rx="11" ry="11" style="stroke:#A80036;stroke-width:1.0;"/><path d="M827.0938,597.6719 C826.1563,597.2344 825.5625,597.0938 824.6875,597.0938 C822.0625,597.0938 820.0625,599.1719 820.0625,601.8906 L820.0625,603.0156 C820.0625,605.5938 822.1719,607.4844 825.0625,607.4844 C826.2813,607.4844 827.4375,607.1875 828.1875,606.6406 C828.7656,606.2344 829.0938,605.7813 829.0938,605.3906 C829.0938,604.9375 828.7031,604.5469 828.2344,604.5469 C828.0156,604.5469 827.8125,604.625 827.625,604.8125 C827.1719,605.2969 827.1719,605.2969 826.9844,605.3906 C826.5625,605.6563 825.875,605.7813 825.1094,605.7813 C823.0625,605.7813 821.7656,604.6875 821.7656,602.9844 L821.7656,601.8906 C821.7656,600.1094 823.0156,598.7969 824.75,598.7969 C825.3281,598.7969 825.9375,598.9531 826.4063,599.2031 C826.8906,599.4844 827.0625,599.7031 827.1563,600.1094 C827.2188,600.5156 827.25,600.6406 827.3906,600.7656 C827.5313,600.9063 827.7656,601.0156 827.9844,601.0156 C828.25,601.0156 828.5156,600.875 828.6875,600.6563 C828.7969,600.5 828.8281,600.3125 828.8281,599.8906 L828.8281,598.4688 C828.8281,598.0313 828.8125,597.9063 828.7188,597.75 C828.5625,597.4844 828.2813,597.3438 827.9844,597.3438 C827.6875,597.3438 827.4844,597.4375 827.2656,597.75 L827.0938,597.6719 Z " fill="#000000"/><text fill="#000000" font-family="sans-serif" font-size="12" lengthAdjust="spacingAndGlyphs" textLength="91" x="845.25" y="606.1543">RedoCommand</text><line style="stroke:#A80036;stroke-width:1.5;" x1="776" x2="973" y1="618" y2="618"/><line style="stroke:#A80036;stroke-width:1.5;" x1="776" x2="973" y1="626" y2="626"/><polygon fill="#4177AF" points="786,633,782,639,790,639" style="stroke:#1963A0;stroke-width:1.0;"/><text fill="#000000" font-family="sans-serif" font-size="11" lengthAdjust="spacingAndGlyphs" textLength="173" x="795" y="640.2104">RedoCommand(PlayController)</text><polygon fill="#FFFF44" points="786,644.8047,790,648.8047,786,652.8047,782,648.8047" style="stroke:#B38D22;stroke-width:1.0;"/><text fill="#000000" font-family="sans-serif" font-size="11" lengthAdjust="spacingAndGlyphs" textLength="87" x="795" y="653.0151">execute(): void</text><polygon fill="#FFFF44" points="786,657.6094,790,661.6094,786,665.6094,782,661.6094" style="stroke:#B38D22;stroke-width:1.0;"/><text fill="#000000" font-family="sans-serif" font-size="11" lengthAdjust="spacingAndGlyphs" textLength="106" x="795" y="665.8198">isActive(): boolean</text><!--MD5=[b233b2828aa07505226ea5ca422b58ee]
class usantatecla.tictactoe.views.PlayView--><rect codeLine="81" fill="#FEFECE" filter="url(#f1gk9og7vdbmp7)" height="60.8047" id="usantatecla.tictactoe.views.PlayView" style="stroke:#A80036;stroke-width:1.5;" width="186" x="1012.5" y="331"/><ellipse cx="1075.25" cy="347" fill="#ADD1B2" rx="11" ry="11" style="stroke:#A80036;stroke-width:1.0;"/><path d="M1077.5938,342.6719 C1076.6563,342.2344 1076.0625,342.0938 1075.1875,342.0938 C1072.5625,342.0938 1070.5625,344.1719 1070.5625,346.8906 L1070.5625,348.0156 C1070.5625,350.5938 1072.6719,352.4844 1075.5625,352.4844 C1076.7813,352.4844 1077.9375,352.1875 1078.6875,351.6406 C1079.2656,351.2344 1079.5938,350.7813 1079.5938,350.3906 C1079.5938,349.9375 1079.2031,349.5469 1078.7344,349.5469 C1078.5156,349.5469 1078.3125,349.625 1078.125,349.8125 C1077.6719,350.2969 1077.6719,350.2969 1077.4844,350.3906 C1077.0625,350.6563 1076.375,350.7813 1075.6094,350.7813 C1073.5625,350.7813 1072.2656,349.6875 1072.2656,347.9844 L1072.2656,346.8906 C1072.2656,345.1094 1073.5156,343.7969 1075.25,343.7969 C1075.8281,343.7969 1076.4375,343.9531 1076.9063,344.2031 C1077.3906,344.4844 1077.5625,344.7031 1077.6563,345.1094 C1077.7188,345.5156 1077.75,345.6406 1077.8906,345.7656 C1078.0313,345.9063 1078.2656,346.0156 1078.4844,346.0156 C1078.75,346.0156 1079.0156,345.875 1079.1875,345.6563 C1079.2969,345.5 1079.3281,345.3125 1079.3281,344.8906 L1079.3281,343.4688 C1079.3281,343.0313 1079.3125,342.9063 1079.2188,342.75 C1079.0625,342.4844 1078.7813,342.3438 1078.4844,342.3438 C1078.1875,342.3438 1077.9844,342.4375 1077.7656,342.75 L1077.5938,342.6719 Z " fill="#000000"/><text fill="#000000" font-family="sans-serif" font-size="12" lengthAdjust="spacingAndGlyphs" textLength="52" x="1095.75" y="351.1543">PlayView</text><line style="stroke:#A80036;stroke-width:1.5;" x1="1013.5" x2="1197.5" y1="363" y2="363"/><line style="stroke:#A80036;stroke-width:1.5;" x1="1013.5" x2="1197.5" y1="371" y2="371"/><polygon fill="#4177AF" points="1023.5,378,1019.5,384,1027.5,384" style="stroke:#1963A0;stroke-width:1.0;"/><text fill="#000000" font-family="sans-serif" font-size="11" lengthAdjust="spacingAndGlyphs" textLength="160" x="1032.5" y="385.2104">interact(PlayController): void</text><!--MD5=[b7479e29779d6bdb64e415bb869b3d44]
class usantatecla.tictactoe.views.ResumeView--><rect codeLine="94" fill="#FEFECE" filter="url(#f1gk9og7vdbmp7)" height="60.8047" id="usantatecla.tictactoe.views.ResumeView" style="stroke:#A80036;stroke-width:1.5;" width="210" x="1433.5" y="331"/><ellipse cx="1495.75" cy="347" fill="#ADD1B2" rx="11" ry="11" style="stroke:#A80036;stroke-width:1.0;"/><path d="M1498.0938,342.6719 C1497.1563,342.2344 1496.5625,342.0938 1495.6875,342.0938 C1493.0625,342.0938 1491.0625,344.1719 1491.0625,346.8906 L1491.0625,348.0156 C1491.0625,350.5938 1493.1719,352.4844 1496.0625,352.4844 C1497.2813,352.4844 1498.4375,352.1875 1499.1875,351.6406 C1499.7656,351.2344 1500.0938,350.7813 1500.0938,350.3906 C1500.0938,349.9375 1499.7031,349.5469 1499.2344,349.5469 C1499.0156,349.5469 1498.8125,349.625 1498.625,349.8125 C1498.1719,350.2969 1498.1719,350.2969 1497.9844,350.3906 C1497.5625,350.6563 1496.875,350.7813 1496.1094,350.7813 C1494.0625,350.7813 1492.7656,349.6875 1492.7656,347.9844 L1492.7656,346.8906 C1492.7656,345.1094 1494.0156,343.7969 1495.75,343.7969 C1496.3281,343.7969 1496.9375,343.9531 1497.4063,344.2031 C1497.8906,344.4844 1498.0625,344.7031 1498.1563,345.1094 C1498.2188,345.5156 1498.25,345.6406 1498.3906,345.7656 C1498.5313,345.9063 1498.7656,346.0156 1498.9844,346.0156 C1499.25,346.0156 1499.5156,345.875 1499.6875,345.6563 C1499.7969,345.5 1499.8281,345.3125 1499.8281,344.8906 L1499.8281,343.4688 C1499.8281,343.0313 1499.8125,342.9063 1499.7188,342.75 C1499.5625,342.4844 1499.2813,342.3438 1498.9844,342.3438 C1498.6875,342.3438 1498.4844,342.4375 1498.2656,342.75 L1498.0938,342.6719 Z " fill="#000000"/><text fill="#000000" font-family="sans-serif" font-size="12" lengthAdjust="spacingAndGlyphs" textLength="77" x="1516.25" y="351.1543">ResumeView</text><line style="stroke:#A80036;stroke-width:1.5;" x1="1434.5" x2="1642.5" y1="363" y2="363"/><line style="stroke:#A80036;stroke-width:1.5;" x1="1434.5" x2="1642.5" y1="371" y2="371"/><polygon fill="#4177AF" points="1444.5,378,1440.5,384,1448.5,384" style="stroke:#1963A0;stroke-width:1.0;"/><text fill="#000000" font-family="sans-serif" font-size="11" lengthAdjust="spacingAndGlyphs" textLength="184" x="1453.5" y="385.2104">interact(ResumeController): void</text><!--MD5=[fb418f07679bda78285a7b072868d1a3]
class usantatecla.tictactoe.views.StartView--><rect codeLine="101" fill="#FEFECE" filter="url(#f1gk9og7vdbmp7)" height="60.8047" id="usantatecla.tictactoe.views.StartView" style="stroke:#A80036;stroke-width:1.5;" width="190" x="549.5" y="598.5"/><ellipse cx="611.75" cy="614.5" fill="#ADD1B2" rx="11" ry="11" style="stroke:#A80036;stroke-width:1.0;"/><path d="M614.0938,610.1719 C613.1563,609.7344 612.5625,609.5938 611.6875,609.5938 C609.0625,609.5938 607.0625,611.6719 607.0625,614.3906 L607.0625,615.5156 C607.0625,618.0938 609.1719,619.9844 612.0625,619.9844 C613.2813,619.9844 614.4375,619.6875 615.1875,619.1406 C615.7656,618.7344 616.0938,618.2813 616.0938,617.8906 C616.0938,617.4375 615.7031,617.0469 615.2344,617.0469 C615.0156,617.0469 614.8125,617.125 614.625,617.3125 C614.1719,617.7969 614.1719,617.7969 613.9844,617.8906 C613.5625,618.1563 612.875,618.2813 612.1094,618.2813 C610.0625,618.2813 608.7656,617.1875 608.7656,615.4844 L608.7656,614.3906 C608.7656,612.6094 610.0156,611.2969 611.75,611.2969 C612.3281,611.2969 612.9375,611.4531 613.4063,611.7031 C613.8906,611.9844 614.0625,612.2031 614.1563,612.6094 C614.2188,613.0156 614.25,613.1406 614.3906,613.2656 C614.5313,613.4063 614.7656,613.5156 614.9844,613.5156 C615.25,613.5156 615.5156,613.375 615.6875,613.1563 C615.7969,613 615.8281,612.8125 615.8281,612.3906 L615.8281,610.9688 C615.8281,610.5313 615.8125,610.4063 615.7188,610.25 C615.5625,609.9844 615.2813,609.8438 614.9844,609.8438 C614.6875,609.8438 614.4844,609.9375 614.2656,610.25 L614.0938,610.1719 Z " fill="#000000"/><text fill="#000000" font-family="sans-serif" font-size="12" lengthAdjust="spacingAndGlyphs" textLength="57" x="632.25" y="618.6543">StartView</text><line style="stroke:#A80036;stroke-width:1.5;" x1="550.5" x2="738.5" y1="630.5" y2="630.5"/><line style="stroke:#A80036;stroke-width:1.5;" x1="550.5" x2="738.5" y1="638.5" y2="638.5"/><polygon fill="#4177AF" points="560.5,645.5,556.5,651.5,564.5,651.5" style="stroke:#1963A0;stroke-width:1.0;"/><text fill="#000000" font-family="sans-serif" font-size="11" lengthAdjust="spacingAndGlyphs" textLength="164" x="569.5" y="652.7104">interact(StartController): void</text><!--MD5=[b8aaf1245d109720e7e93ad10575fc66]
class usantatecla.tictactoe.views.View--><rect codeLine="119" fill="#FEFECE" filter="url(#f1gk9og7vdbmp7)" height="150.4375" id="usantatecla.tictactoe.views.View" style="stroke:#A80036;stroke-width:1.5;" width="213" x="794" y="121"/><ellipse cx="881.75" cy="137" fill="#ADD1B2" rx="11" ry="11" style="stroke:#A80036;stroke-width:1.0;"/><path d="M884.0938,132.6719 C883.1563,132.2344 882.5625,132.0938 881.6875,132.0938 C879.0625,132.0938 877.0625,134.1719 877.0625,136.8906 L877.0625,138.0156 C877.0625,140.5938 879.1719,142.4844 882.0625,142.4844 C883.2813,142.4844 884.4375,142.1875 885.1875,141.6406 C885.7656,141.2344 886.0938,140.7813 886.0938,140.3906 C886.0938,139.9375 885.7031,139.5469 885.2344,139.5469 C885.0156,139.5469 884.8125,139.625 884.625,139.8125 C884.1719,140.2969 884.1719,140.2969 883.9844,140.3906 C883.5625,140.6563 882.875,140.7813 882.1094,140.7813 C880.0625,140.7813 878.7656,139.6875 878.7656,137.9844 L878.7656,136.8906 C878.7656,135.1094 880.0156,133.7969 881.75,133.7969 C882.3281,133.7969 882.9375,133.9531 883.4063,134.2031 C883.8906,134.4844 884.0625,134.7031 884.1563,135.1094 C884.2188,135.5156 884.25,135.6406 884.3906,135.7656 C884.5313,135.9063 884.7656,136.0156 884.9844,136.0156 C885.25,136.0156 885.5156,135.875 885.6875,135.6563 C885.7969,135.5 885.8281,135.3125 885.8281,134.8906 L885.8281,133.4688 C885.8281,133.0313 885.8125,132.9063 885.7188,132.75 C885.5625,132.4844 885.2813,132.3438 884.9844,132.3438 C884.6875,132.3438 884.4844,132.4375 884.2656,132.75 L884.0938,132.6719 Z " fill="#000000"/><text fill="#000000" font-family="sans-serif" font-size="12" lengthAdjust="spacingAndGlyphs" textLength="29" x="902.25" y="141.1543">View</text><line style="stroke:#A80036;stroke-width:1.5;" x1="795" x2="1006" y1="153" y2="153"/><rect fill="none" height="6" style="stroke:#C82930;stroke-width:1.0;" width="6" x="802" y="161"/><text fill="#000000" font-family="sans-serif" font-size="11" lengthAdjust="spacingAndGlyphs" textLength="115" x="814" y="167.2104">startView: StartView</text><rect fill="none" height="6" style="stroke:#C82930;stroke-width:1.0;" width="6" x="802" y="173.8047"/><text fill="#000000" font-family="sans-serif" font-size="11" lengthAdjust="spacingAndGlyphs" textLength="110" x="814" y="180.0151">playView: PlayView</text><rect fill="none" height="6" style="stroke:#C82930;stroke-width:1.0;" width="6" x="802" y="186.6094"/><text fill="#000000" font-family="sans-serif" font-size="11" lengthAdjust="spacingAndGlyphs" textLength="154" x="814" y="192.8198">resumeView: ResumeView</text><line style="stroke:#A80036;stroke-width:1.5;" x1="795" x2="1006" y1="199.4141" y2="199.4141"/><ellipse cx="805" cy="210.4141" fill="#84BE84" rx="3" ry="3" style="stroke:#038048;stroke-width:1.0;"/><text fill="#000000" font-family="sans-serif" font-size="11" lengthAdjust="spacingAndGlyphs" textLength="36" x="814" y="213.6245">View()</text><ellipse cx="805" cy="223.2188" fill="#84BE84" rx="3" ry="3" style="stroke:#038048;stroke-width:1.0;"/><text fill="#000000" font-family="sans-serif" font-size="11" lengthAdjust="spacingAndGlyphs" textLength="187" x="814" y="226.4292">interact(AcceptorController): void</text><ellipse cx="805" cy="236.0234" fill="#84BE84" rx="3" ry="3" style="stroke:#038048;stroke-width:1.0;"/><text fill="#000000" font-family="sans-serif" font-size="11" lengthAdjust="spacingAndGlyphs" textLength="144" x="814" y="239.2339">visit(StartController): void</text><ellipse cx="805" cy="248.8281" fill="#84BE84" rx="3" ry="3" style="stroke:#038048;stroke-width:1.0;"/><text fill="#000000" font-family="sans-serif" font-size="11" lengthAdjust="spacingAndGlyphs" textLength="140" x="814" y="252.0386">visit(PlayController): void</text><ellipse cx="805" cy="261.6328" fill="#84BE84" rx="3" ry="3" style="stroke:#038048;stroke-width:1.0;"/><text fill="#000000" font-family="sans-serif" font-size="11" lengthAdjust="spacingAndGlyphs" textLength="164" x="814" y="264.8433">visit(ResumeController): void</text><!--MD5=[c044a56b44e9ed3c506c87887737c8ac]
class AcceptorController--><rect codeLine="1" fill="#FEFECE" filter="url(#f1gk9og7vdbmp7)" height="53.9375" id="AcceptorController" style="stroke:#A80036;stroke-width:1.5;" width="230" x="287.5" y="334.5"/><ellipse cx="302.5" cy="353.4688" fill="#B4A7E5" rx="11" ry="11" style="stroke:#A80036;stroke-width:1.0;"/><path d="M303.4531,350.25 L305.1719,350.25 C305.5625,350.25 305.75,350.2188 305.875,350.1406 C306.1406,349.9844 306.2813,349.7031 306.2813,349.4063 C306.2813,349.1406 306.1719,348.875 305.9375,348.7031 C305.7656,348.5938 305.625,348.5625 305.1719,348.5625 L300.0313,348.5625 C299.5938,348.5625 299.4688,348.5781 299.3125,348.6719 C299.0625,348.8281 298.9063,349.125 298.9063,349.4063 C298.9063,349.6875 299.0469,349.9375 299.2656,350.1094 C299.4219,350.2188 299.6094,350.25 300.0313,350.25 L301.75,350.25 L301.75,356.7656 L300.0313,356.7656 C299.5938,356.7656 299.4688,356.7813 299.3125,356.8906 C299.0625,357.0469 298.9063,357.3281 298.9063,357.625 C298.9063,357.875 299.0469,358.1406 299.2656,358.2969 C299.4219,358.4219 299.625,358.4688 300.0313,358.4688 L305.1719,358.4688 C305.9219,358.4688 306.2813,358.1875 306.2813,357.625 C306.2813,357.3438 306.1719,357.0938 305.9375,356.9219 C305.7656,356.7969 305.625,356.7656 305.1719,356.7656 L303.4531,356.7656 L303.4531,350.25 Z " fill="#000000"/><text fill="#000000" font-family="sans-serif" font-size="12" font-style="italic" lengthAdjust="spacingAndGlyphs" textLength="198" x="316.5" y="350.6387">usantatecla.tictactoe.controllers.</text><text fill="#000000" font-family="sans-serif" font-size="12" font-style="italic" lengthAdjust="spacingAndGlyphs" textLength="112" x="359.5" y="364.6074">AcceptorController</text><line style="stroke:#A80036;stroke-width:1.5;" x1="288.5" x2="516.5" y1="372.4375" y2="372.4375"/><line style="stroke:#A80036;stroke-width:1.5;" x1="288.5" x2="516.5" y1="380.4375" y2="380.4375"/><!--MD5=[202eb055b61e3635d6abeb6d1809ebdd]
class ControllerVisitor--><rect codeLine="2" fill="#FEFECE" filter="url(#f1gk9og7vdbmp7)" height="53.9375" id="ControllerVisitor" style="stroke:#A80036;stroke-width:1.5;" width="230" x="785.5" y="7"/><ellipse cx="800.5" cy="25.9688" fill="#B4A7E5" rx="11" ry="11" style="stroke:#A80036;stroke-width:1.0;"/><path d="M801.4531,22.75 L803.1719,22.75 C803.5625,22.75 803.75,22.7188 803.875,22.6406 C804.1406,22.4844 804.2813,22.2031 804.2813,21.9063 C804.2813,21.6406 804.1719,21.375 803.9375,21.2031 C803.7656,21.0938 803.625,21.0625 803.1719,21.0625 L798.0313,21.0625 C797.5938,21.0625 797.4688,21.0781 797.3125,21.1719 C797.0625,21.3281 796.9063,21.625 796.9063,21.9063 C796.9063,22.1875 797.0469,22.4375 797.2656,22.6094 C797.4219,22.7188 797.6094,22.75 798.0313,22.75 L799.75,22.75 L799.75,29.2656 L798.0313,29.2656 C797.5938,29.2656 797.4688,29.2813 797.3125,29.3906 C797.0625,29.5469 796.9063,29.8281 796.9063,30.125 C796.9063,30.375 797.0469,30.6406 797.2656,30.7969 C797.4219,30.9219 797.625,30.9688 798.0313,30.9688 L803.1719,30.9688 C803.9219,30.9688 804.2813,30.6875 804.2813,30.125 C804.2813,29.8438 804.1719,29.5938 803.9375,29.4219 C803.7656,29.2969 803.625,29.2656 803.1719,29.2656 L801.4531,29.2656 L801.4531,22.75 Z " fill="#000000"/><text fill="#000000" font-family="sans-serif" font-size="12" font-style="italic" lengthAdjust="spacingAndGlyphs" textLength="198" x="814.5" y="23.1387">usantatecla.tictactoe.controllers.</text><text fill="#000000" font-family="sans-serif" font-size="12" font-style="italic" lengthAdjust="spacingAndGlyphs" textLength="95" x="866" y="37.1074">ControllerVisitor</text><line style="stroke:#A80036;stroke-width:1.5;" x1="786.5" x2="1014.5" y1="44.9375" y2="44.9375"/><line style="stroke:#A80036;stroke-width:1.5;" x1="786.5" x2="1014.5" y1="52.9375" y2="52.9375"/><!--MD5=[cc8600b868f8dfab2c8d497bce62f90a]
class PlayController--><rect codeLine="3" fill="#FEFECE" filter="url(#f1gk9og7vdbmp7)" height="53.9375" id="PlayController" style="stroke:#A80036;stroke-width:1.5;" width="226" x="2014.5" y="1058"/><ellipse cx="2029.5" cy="1076.9688" fill="#ADD1B2" rx="11" ry="11" style="stroke:#A80036;stroke-width:1.0;"/><path d="M2031.8438,1072.6406 C2030.9063,1072.2031 2030.3125,1072.0625 2029.4375,1072.0625 C2026.8125,1072.0625 2024.8125,1074.1406 2024.8125,1076.8594 L2024.8125,1077.9844 C2024.8125,1080.5625 2026.9219,1082.4531 2029.8125,1082.4531 C2031.0313,1082.4531 2032.1875,1082.1563 2032.9375,1081.6094 C2033.5156,1081.2031 2033.8438,1080.75 2033.8438,1080.3594 C2033.8438,1079.9063 2033.4531,1079.5156 2032.9844,1079.5156 C2032.7656,1079.5156 2032.5625,1079.5938 2032.375,1079.7813 C2031.9219,1080.2656 2031.9219,1080.2656 2031.7344,1080.3594 C2031.3125,1080.625 2030.625,1080.75 2029.8594,1080.75 C2027.8125,1080.75 2026.5156,1079.6563 2026.5156,1077.9531 L2026.5156,1076.8594 C2026.5156,1075.0781 2027.7656,1073.7656 2029.5,1073.7656 C2030.0781,1073.7656 2030.6875,1073.9219 2031.1563,1074.1719 C2031.6406,1074.4531 2031.8125,1074.6719 2031.9063,1075.0781 C2031.9688,1075.4844 2032,1075.6094 2032.1406,1075.7344 C2032.2813,1075.875 2032.5156,1075.9844 2032.7344,1075.9844 C2033,1075.9844 2033.2656,1075.8438 2033.4375,1075.625 C2033.5469,1075.4688 2033.5781,1075.2813 2033.5781,1074.8594 L2033.5781,1073.4375 C2033.5781,1073 2033.5625,1072.875 2033.4688,1072.7188 C2033.3125,1072.4531 2033.0313,1072.3125 2032.7344,1072.3125 C2032.4375,1072.3125 2032.2344,1072.4063 2032.0156,1072.7188 L2031.8438,1072.6406 Z " fill="#000000"/><text fill="#000000" font-family="sans-serif" font-size="12" lengthAdjust="spacingAndGlyphs" textLength="194" x="2043.5" y="1074.1387">usantatecla.tictactoe.controllers.</text><text fill="#000000" font-family="sans-serif" font-size="12" lengthAdjust="spacingAndGlyphs" textLength="82" x="2099.5" y="1088.1074">PlayController</text><line style="stroke:#A80036;stroke-width:1.5;" x1="2015.5" x2="2239.5" y1="1095.9375" y2="1095.9375"/><line style="stroke:#A80036;stroke-width:1.5;" x1="2015.5" x2="2239.5" y1="1103.9375" y2="1103.9375"/><!--MD5=[1a47bbf44ccee225df9b18c5b6629853]
class ResumeController--><rect codeLine="4" fill="#FEFECE" filter="url(#f1gk9og7vdbmp7)" height="53.9375" id="ResumeController" style="stroke:#A80036;stroke-width:1.5;" width="226" x="2529.5" y="462"/><ellipse cx="2544.5" cy="480.9688" fill="#ADD1B2" rx="11" ry="11" style="stroke:#A80036;stroke-width:1.0;"/><path d="M2546.8438,476.6406 C2545.9063,476.2031 2545.3125,476.0625 2544.4375,476.0625 C2541.8125,476.0625 2539.8125,478.1406 2539.8125,480.8594 L2539.8125,481.9844 C2539.8125,484.5625 2541.9219,486.4531 2544.8125,486.4531 C2546.0313,486.4531 2547.1875,486.1563 2547.9375,485.6094 C2548.5156,485.2031 2548.8438,484.75 2548.8438,484.3594 C2548.8438,483.9063 2548.4531,483.5156 2547.9844,483.5156 C2547.7656,483.5156 2547.5625,483.5938 2547.375,483.7813 C2546.9219,484.2656 2546.9219,484.2656 2546.7344,484.3594 C2546.3125,484.625 2545.625,484.75 2544.8594,484.75 C2542.8125,484.75 2541.5156,483.6563 2541.5156,481.9531 L2541.5156,480.8594 C2541.5156,479.0781 2542.7656,477.7656 2544.5,477.7656 C2545.0781,477.7656 2545.6875,477.9219 2546.1563,478.1719 C2546.6406,478.4531 2546.8125,478.6719 2546.9063,479.0781 C2546.9688,479.4844 2547,479.6094 2547.1406,479.7344 C2547.2813,479.875 2547.5156,479.9844 2547.7344,479.9844 C2548,479.9844 2548.2656,479.8438 2548.4375,479.625 C2548.5469,479.4688 2548.5781,479.2813 2548.5781,478.8594 L2548.5781,477.4375 C2548.5781,477 2548.5625,476.875 2548.4688,476.7188 C2548.3125,476.4531 2548.0313,476.3125 2547.7344,476.3125 C2547.4375,476.3125 2547.2344,476.4063 2547.0156,476.7188 L2546.8438,476.6406 Z " fill="#000000"/><text fill="#000000" font-family="sans-serif" font-size="12" lengthAdjust="spacingAndGlyphs" textLength="194" x="2558.5" y="478.1387">usantatecla.tictactoe.controllers.</text><text fill="#000000" font-family="sans-serif" font-size="12" lengthAdjust="spacingAndGlyphs" textLength="107" x="2602" y="492.1074">ResumeController</text><line style="stroke:#A80036;stroke-width:1.5;" x1="2530.5" x2="2754.5" y1="499.9375" y2="499.9375"/><line style="stroke:#A80036;stroke-width:1.5;" x1="2530.5" x2="2754.5" y1="507.9375" y2="507.9375"/><!--MD5=[47c371471411cfedeee61b1a5bdaee47]
class StartController--><rect codeLine="5" fill="#FEFECE" filter="url(#f1gk9og7vdbmp7)" height="53.9375" id="StartController" style="stroke:#A80036;stroke-width:1.5;" width="226" x="1742.5" y="838"/><ellipse cx="1757.5" cy="856.9688" fill="#ADD1B2" rx="11" ry="11" style="stroke:#A80036;stroke-width:1.0;"/><path d="M1759.8438,852.6406 C1758.9063,852.2031 1758.3125,852.0625 1757.4375,852.0625 C1754.8125,852.0625 1752.8125,854.1406 1752.8125,856.8594 L1752.8125,857.9844 C1752.8125,860.5625 1754.9219,862.4531 1757.8125,862.4531 C1759.0313,862.4531 1760.1875,862.1563 1760.9375,861.6094 C1761.5156,861.2031 1761.8438,860.75 1761.8438,860.3594 C1761.8438,859.9063 1761.4531,859.5156 1760.9844,859.5156 C1760.7656,859.5156 1760.5625,859.5938 1760.375,859.7813 C1759.9219,860.2656 1759.9219,860.2656 1759.7344,860.3594 C1759.3125,860.625 1758.625,860.75 1757.8594,860.75 C1755.8125,860.75 1754.5156,859.6563 1754.5156,857.9531 L1754.5156,856.8594 C1754.5156,855.0781 1755.7656,853.7656 1757.5,853.7656 C1758.0781,853.7656 1758.6875,853.9219 1759.1563,854.1719 C1759.6406,854.4531 1759.8125,854.6719 1759.9063,855.0781 C1759.9688,855.4844 1760,855.6094 1760.1406,855.7344 C1760.2813,855.875 1760.5156,855.9844 1760.7344,855.9844 C1761,855.9844 1761.2656,855.8438 1761.4375,855.625 C1761.5469,855.4688 1761.5781,855.2813 1761.5781,854.8594 L1761.5781,853.4375 C1761.5781,853 1761.5625,852.875 1761.4688,852.7188 C1761.3125,852.4531 1761.0313,852.3125 1760.7344,852.3125 C1760.4375,852.3125 1760.2344,852.4063 1760.0156,852.7188 L1759.8438,852.6406 Z " fill="#000000"/><text fill="#000000" font-family="sans-serif" font-size="12" lengthAdjust="spacingAndGlyphs" textLength="194" x="1771.5" y="854.1387">usantatecla.tictactoe.controllers.</text><text fill="#000000" font-family="sans-serif" font-size="12" lengthAdjust="spacingAndGlyphs" textLength="87" x="1825" y="868.1074">StartController</text><line style="stroke:#A80036;stroke-width:1.5;" x1="1743.5" x2="1967.5" y1="875.9375" y2="875.9375"/><line style="stroke:#A80036;stroke-width:1.5;" x1="1743.5" x2="1967.5" y1="883.9375" y2="883.9375"/><!--MD5=[315b61b427ec618d6861d47eee00cca3]
class Console--><rect codeLine="6" fill="#FEFECE" filter="url(#f1gk9og7vdbmp7)" height="48" id="Console" style="stroke:#A80036;stroke-width:1.5;" width="108" x="910.5" y="1061"/><ellipse cx="925.5" cy="1077" fill="#ADD1B2" rx="11" ry="11" style="stroke:#A80036;stroke-width:1.0;"/><path d="M927.8438,1072.6719 C926.9063,1072.2344 926.3125,1072.0938 925.4375,1072.0938 C922.8125,1072.0938 920.8125,1074.1719 920.8125,1076.8906 L920.8125,1078.0156 C920.8125,1080.5938 922.9219,1082.4844 925.8125,1082.4844 C927.0313,1082.4844 928.1875,1082.1875 928.9375,1081.6406 C929.5156,1081.2344 929.8438,1080.7813 929.8438,1080.3906 C929.8438,1079.9375 929.4531,1079.5469 928.9844,1079.5469 C928.7656,1079.5469 928.5625,1079.625 928.375,1079.8125 C927.9219,1080.2969 927.9219,1080.2969 927.7344,1080.3906 C927.3125,1080.6563 926.625,1080.7813 925.8594,1080.7813 C923.8125,1080.7813 922.5156,1079.6875 922.5156,1077.9844 L922.5156,1076.8906 C922.5156,1075.1094 923.7656,1073.7969 925.5,1073.7969 C926.0781,1073.7969 926.6875,1073.9531 927.1563,1074.2031 C927.6406,1074.4844 927.8125,1074.7031 927.9063,1075.1094 C927.9688,1075.5156 928,1075.6406 928.1406,1075.7656 C928.2813,1075.9063 928.5156,1076.0156 928.7344,1076.0156 C929,1076.0156 929.2656,1075.875 929.4375,1075.6563 C929.5469,1075.5 929.5781,1075.3125 929.5781,1074.8906 L929.5781,1073.4688 C929.5781,1073.0313 929.5625,1072.9063 929.4688,1072.75 C929.3125,1072.4844 929.0313,1072.3438 928.7344,1072.3438 C928.4375,1072.3438 928.2344,1072.4375 928.0156,1072.75 L927.8438,1072.6719 Z " fill="#000000"/><text fill="#000000" font-family="sans-serif" font-size="12" lengthAdjust="spacingAndGlyphs" textLength="76" x="939.5" y="1081.1543">utils.Console</text><line style="stroke:#A80036;stroke-width:1.5;" x1="911.5" x2="1017.5" y1="1093" y2="1093"/><line style="stroke:#A80036;stroke-width:1.5;" x1="911.5" x2="1017.5" y1="1101" y2="1101"/><!--MD5=[521817ab83e81da341a3f4b5e91bae41]
class Command--><rect codeLine="7" fill="#FEFECE" filter="url(#f1gk9og7vdbmp7)" height="48" id="Command" style="stroke:#A80036;stroke-width:1.5;" width="119" x="7" y="337.5"/><ellipse cx="22" cy="353.5" fill="#ADD1B2" rx="11" ry="11" style="stroke:#A80036;stroke-width:1.0;"/><path d="M24.3438,349.1719 C23.4063,348.7344 22.8125,348.5938 21.9375,348.5938 C19.3125,348.5938 17.3125,350.6719 17.3125,353.3906 L17.3125,354.5156 C17.3125,357.0938 19.4219,358.9844 22.3125,358.9844 C23.5313,358.9844 24.6875,358.6875 25.4375,358.1406 C26.0156,357.7344 26.3438,357.2813 26.3438,356.8906 C26.3438,356.4375 25.9531,356.0469 25.4844,356.0469 C25.2656,356.0469 25.0625,356.125 24.875,356.3125 C24.4219,356.7969 24.4219,356.7969 24.2344,356.8906 C23.8125,357.1563 23.125,357.2813 22.3594,357.2813 C20.3125,357.2813 19.0156,356.1875 19.0156,354.4844 L19.0156,353.3906 C19.0156,351.6094 20.2656,350.2969 22,350.2969 C22.5781,350.2969 23.1875,350.4531 23.6563,350.7031 C24.1406,350.9844 24.3125,351.2031 24.4063,351.6094 C24.4688,352.0156 24.5,352.1406 24.6406,352.2656 C24.7813,352.4063 25.0156,352.5156 25.2344,352.5156 C25.5,352.5156 25.7656,352.375 25.9375,352.1563 C26.0469,352 26.0781,351.8125 26.0781,351.3906 L26.0781,349.9688 C26.0781,349.5313 26.0625,349.4063 25.9688,349.25 C25.8125,348.9844 25.5313,348.8438 25.2344,348.8438 C24.9375,348.8438 24.7344,348.9375 24.5156,349.25 L24.3438,349.1719 Z " fill="#000000"/><text fill="#000000" font-family="sans-serif" font-size="12" lengthAdjust="spacingAndGlyphs" textLength="87" x="36" y="357.6543">utils.Command</text><line style="stroke:#A80036;stroke-width:1.5;" x1="8" x2="125" y1="369.5" y2="369.5"/><line style="stroke:#A80036;stroke-width:1.5;" x1="8" x2="125" y1="377.5" y2="377.5"/><!--MD5=[f0268dd29ee89052933f031546cb1cab]
class Menu--><rect codeLine="8" fill="#FEFECE" filter="url(#f1gk9og7vdbmp7)" height="48" id="Menu" style="stroke:#A80036;stroke-width:1.5;" width="91" x="161" y="337.5"/><ellipse cx="176" cy="353.5" fill="#ADD1B2" rx="11" ry="11" style="stroke:#A80036;stroke-width:1.0;"/><path d="M178.3438,349.1719 C177.4063,348.7344 176.8125,348.5938 175.9375,348.5938 C173.3125,348.5938 171.3125,350.6719 171.3125,353.3906 L171.3125,354.5156 C171.3125,357.0938 173.4219,358.9844 176.3125,358.9844 C177.5313,358.9844 178.6875,358.6875 179.4375,358.1406 C180.0156,357.7344 180.3438,357.2813 180.3438,356.8906 C180.3438,356.4375 179.9531,356.0469 179.4844,356.0469 C179.2656,356.0469 179.0625,356.125 178.875,356.3125 C178.4219,356.7969 178.4219,356.7969 178.2344,356.8906 C177.8125,357.1563 177.125,357.2813 176.3594,357.2813 C174.3125,357.2813 173.0156,356.1875 173.0156,354.4844 L173.0156,353.3906 C173.0156,351.6094 174.2656,350.2969 176,350.2969 C176.5781,350.2969 177.1875,350.4531 177.6563,350.7031 C178.1406,350.9844 178.3125,351.2031 178.4063,351.6094 C178.4688,352.0156 178.5,352.1406 178.6406,352.2656 C178.7813,352.4063 179.0156,352.5156 179.2344,352.5156 C179.5,352.5156 179.7656,352.375 179.9375,352.1563 C180.0469,352 180.0781,351.8125 180.0781,351.3906 L180.0781,349.9688 C180.0781,349.5313 180.0625,349.4063 179.9688,349.25 C179.8125,348.9844 179.5313,348.8438 179.2344,348.8438 C178.9375,348.8438 178.7344,348.9375 178.5156,349.25 L178.3438,349.1719 Z " fill="#000000"/><text fill="#000000" font-family="sans-serif" font-size="12" lengthAdjust="spacingAndGlyphs" textLength="59" x="190" y="357.6543">utils.Menu</text><line style="stroke:#A80036;stroke-width:1.5;" x1="162" x2="251" y1="369.5" y2="369.5"/><line style="stroke:#A80036;stroke-width:1.5;" x1="162" x2="251" y1="377.5" y2="377.5"/><!--MD5=[d93cf99d2b92276f27fe8dbf15140505]
class YesNoDialog--><rect codeLine="9" fill="#FEFECE" filter="url(#f1gk9og7vdbmp7)" height="48" id="YesNoDialog" style="stroke:#A80036;stroke-width:1.5;" width="135" x="2359" y="465"/><ellipse cx="2374" cy="481" fill="#ADD1B2" rx="11" ry="11" style="stroke:#A80036;stroke-width:1.0;"/><path d="M2376.3438,476.6719 C2375.4063,476.2344 2374.8125,476.0938 2373.9375,476.0938 C2371.3125,476.0938 2369.3125,478.1719 2369.3125,480.8906 L2369.3125,482.0156 C2369.3125,484.5938 2371.4219,486.4844 2374.3125,486.4844 C2375.5313,486.4844 2376.6875,486.1875 2377.4375,485.6406 C2378.0156,485.2344 2378.3438,484.7813 2378.3438,484.3906 C2378.3438,483.9375 2377.9531,483.5469 2377.4844,483.5469 C2377.2656,483.5469 2377.0625,483.625 2376.875,483.8125 C2376.4219,484.2969 2376.4219,484.2969 2376.2344,484.3906 C2375.8125,484.6563 2375.125,484.7813 2374.3594,484.7813 C2372.3125,484.7813 2371.0156,483.6875 2371.0156,481.9844 L2371.0156,480.8906 C2371.0156,479.1094 2372.2656,477.7969 2374,477.7969 C2374.5781,477.7969 2375.1875,477.9531 2375.6563,478.2031 C2376.1406,478.4844 2376.3125,478.7031 2376.4063,479.1094 C2376.4688,479.5156 2376.5,479.6406 2376.6406,479.7656 C2376.7813,479.9063 2377.0156,480.0156 2377.2344,480.0156 C2377.5,480.0156 2377.7656,479.875 2377.9375,479.6563 C2378.0469,479.5 2378.0781,479.3125 2378.0781,478.8906 L2378.0781,477.4688 C2378.0781,477.0313 2378.0625,476.9063 2377.9688,476.75 C2377.8125,476.4844 2377.5313,476.3438 2377.2344,476.3438 C2376.9375,476.3438 2376.7344,476.4375 2376.5156,476.75 L2376.3438,476.6719 Z " fill="#000000"/><text fill="#000000" font-family="sans-serif" font-size="12" lengthAdjust="spacingAndGlyphs" textLength="103" x="2388" y="485.1543">utils.YesNoDialog</text><line style="stroke:#A80036;stroke-width:1.5;" x1="2360" x2="2493" y1="497" y2="497"/><line style="stroke:#A80036;stroke-width:1.5;" x1="2360" x2="2493" y1="505" y2="505"/><!--MD5=[f1dce411d1c15ca6314b4016553d5e33]
link usantatecla.tictactoe.views.BoardView to Console--><path codeLine="16" d="M1083.96,908.033 C1054.26,951.786 1008.6,1019.0423 983.194,1056.4644 " fill="none" id="usantatecla.tictactoe.views.BoardView-to-Console" style="stroke:#A80036;stroke-width:1.0;stroke-dasharray:7.0,7.0;"/><polygon fill="#A80036" points="980.198,1060.8766,988.5625,1055.677,983.0063,1056.7398,981.9436,1051.1837,980.198,1060.8766" style="stroke:#A80036;stroke-width:1.0;"/><!--MD5=[e2cac6594c4ec9e57b063ad6fa325d9b]
link usantatecla.tictactoe.views.BoardView to PlayController--><path codeLine="17" d="M1131.68,908.346 C1150.93,945.376 1184.36,997.026 1230.5,1022 C1297.32,1058.1658 1781.3,1075.1818 2009.29,1081.2579 " fill="none" id="usantatecla.tictactoe.views.BoardView-to-PlayController" style="stroke:#A80036;stroke-width:1.0;stroke-dasharray:7.0,7.0;"/><polygon fill="#A80036" points="2014.29,1081.3907,2005.3958,1077.1606,2009.2917,1081.2621,2005.1901,1085.1579,2014.29,1081.3907" style="stroke:#A80036;stroke-width:1.0;"/><!--MD5=[8c65bce3d9d22b9950581ad88d6d6497]
reverse link Command to usantatecla.tictactoe.views.Command--><path codeLine="23" d="M141.17,391.396 C141.949,391.603 142.726,391.804 143.5,392 C363.536,447.686 629.262,472.209 773.276,482.077 " fill="none" id="Command-backto-usantatecla.tictactoe.views.Command" style="stroke:#A80036;stroke-width:1.0;"/><polygon fill="none" points="139.009,398.056,121.934,385.508,143.107,384.669,139.009,398.056" style="stroke:#A80036;stroke-width:1.0;"/><!--MD5=[8d545d6c0a6f554ee5b3ebfa427fbade]
link usantatecla.tictactoe.views.CoordinateView to Console--><path codeLine="30" d="M1508.42,659.287 C1490.23,663.962 1471.38,668.428 1453.5,672 C1353.71,691.938 1070.29,658.888 999.5,732 C913.11,821.226 941.369,989.145 957.05,1055.7468 " fill="none" id="usantatecla.tictactoe.views.CoordinateView-to-Console" style="stroke:#A80036;stroke-width:1.0;stroke-dasharray:7.0,7.0;"/><polygon fill="#A80036" points="958.248,1060.7426,960.0391,1051.058,957.0821,1055.8804,952.2597,1052.9234,958.248,1060.7426" style="stroke:#A80036;stroke-width:1.0;"/><!--MD5=[3cef1d23fdea37916a4187cded748fe8]
link usantatecla.tictactoe.views.CoordinateView to usantatecla.tictactoe.views.ErrorView--><path codeLine="31" d="M1609.5,672.105 C1609.5,710.796 1609.5,768.339 1609.5,810.319 " fill="none" id="usantatecla.tictactoe.views.CoordinateView-to-usantatecla.tictactoe.views.ErrorView" style="stroke:#A80036;stroke-width:1.0;stroke-dasharray:7.0,7.0;"/><polygon fill="#A80036" points="1609.5,815.359,1613.5,806.359,1609.5,810.359,1605.5,806.359,1609.5,815.359" style="stroke:#A80036;stroke-width:1.0;"/><!--MD5=[f84d99b14209d4ee32bdd9dbcc2a61ca]
link usantatecla.tictactoe.views.CoordinateView to PlayController--><path codeLine="32" d="M1710.61,635.728 C1843.81,645.602 2067.2,671.003 2118.5,732 C2196.54,824.787 2159.06,985.08 2138.22,1052.5874 " fill="none" id="usantatecla.tictactoe.views.CoordinateView-to-PlayController" style="stroke:#A80036;stroke-width:1.0;stroke-dasharray:7.0,7.0;"/><polygon fill="#A80036" points="2136.62,1057.6718,2143.1277,1050.2793,2138.1148,1052.9005,2135.4936,1047.8876,2136.62,1057.6718" style="stroke:#A80036;stroke-width:1.0;"/><!--MD5=[2118715aae268a6f97915c6b11f554f7]
link usantatecla.tictactoe.views.CoordinateView to usantatecla.tictactoe.views.Message--><path codeLine="33" d="M1560.38,672.105 C1523.79,703.462 1472.77,747.201 1428.66,785.002 " fill="none" id="usantatecla.tictactoe.views.CoordinateView-to-usantatecla.tictactoe.views.Message" style="stroke:#A80036;stroke-width:1.0;stroke-dasharray:7.0,7.0;"/><polygon fill="#A80036" points="1424.69,788.408,1434.1249,785.5826,1428.4845,785.1519,1428.9152,779.5115,1424.69,788.408" style="stroke:#A80036;stroke-width:1.0;"/><!--MD5=[f6bb8b94427a23de82c47e9440e5d24a]
reverse link usantatecla.tictactoe.views.Command to usantatecla.tictactoe.views.PlayCommand--><path codeLine="67" d="M955.01,536.513 C981.228,552.451 1010.4,570.187 1036.03,585.768 " fill="none" id="usantatecla.tictactoe.views.Command-backto-usantatecla.tictactoe.views.PlayCommand" style="stroke:#A80036;stroke-width:1.0;"/><polygon fill="none" points="951.299,542.448,937.845,526.078,958.571,530.486,951.299,542.448" style="stroke:#A80036;stroke-width:1.0;"/><!--MD5=[dc2bfde78dd085f16abfdcf320d04fdb]
link usantatecla.tictactoe.views.PlayCommand to PlayController--><path codeLine="68" d="M1202.29,667.685 C1208.07,669.301 1213.83,670.76 1219.5,672 C1386.51,708.563 1858.8,618.321 1986.5,732 C2084.61,819.341 1973.22,911.025 2043.5,1022 C2051.6,1034.795 2063.36,1045.8425 2075.53,1054.9202 " fill="none" id="usantatecla.tictactoe.views.PlayCommand-to-PlayController" style="stroke:#A80036;stroke-width:1.0;stroke-dasharray:7.0,7.0;"/><polygon fill="#A80036" points="2079.67,1057.9229,2074.7239,1049.4061,2075.6194,1054.9916,2070.0339,1055.8871,2079.67,1057.9229" style="stroke:#A80036;stroke-width:1.0;"/><!--MD5=[cf010b20e85fdb4ce4cc346fe34aea81]
link usantatecla.tictactoe.views.PlayCommand to usantatecla.tictactoe.views.Message--><path codeLine="69" d="M1158.34,672.215 C1179.58,689.957 1203.87,711.264 1224.5,732 C1231.21,738.741 1237.97,745.832 1244.67,753.084 " fill="none" id="usantatecla.tictactoe.views.PlayCommand-to-usantatecla.tictactoe.views.Message" style="stroke:#A80036;stroke-width:1.0;stroke-dasharray:7.0,7.0;"/><polygon fill="#A80036" points="1248.38,757.128,1245.2412,747.7927,1244.9991,753.4444,1239.3474,753.2022,1248.38,757.128" style="stroke:#A80036;stroke-width:1.0;"/><!--MD5=[16dbf512310461bfd8e1fe06259f4a7d]
link usantatecla.tictactoe.views.PlayCommand to usantatecla.tictactoe.views.BoardView--><path codeLine="70" d="M1106.76,672.105 C1107.98,712.819 1109.82,774.408 1111.09,816.771 " fill="none" id="usantatecla.tictactoe.views.PlayCommand-to-usantatecla.tictactoe.views.BoardView" style="stroke:#A80036;stroke-width:1.0;stroke-dasharray:7.0,7.0;"/><polygon fill="#A80036" points="1111.24,821.839,1114.9683,812.7231,1111.0901,816.8412,1106.9719,812.963,1111.24,821.839" style="stroke:#A80036;stroke-width:1.0;"/><!--MD5=[127fa6b96f9e237cd8e69d57c42a5f19]
reverse link Menu to usantatecla.tictactoe.views.PlayMenu--><path codeLine="75" d="M270.608,390.827 C588.501,472.216 687.805,386.626 1000.5,452 C1008.89,453.755 1017.54,455.987 1026.1,458.479 " fill="none" id="Menu-backto-usantatecla.tictactoe.views.PlayMenu" style="stroke:#A80036;stroke-width:1.0;"/><polygon fill="none" points="268.408,397.486,250.848,385.627,271.971,383.947,268.408,397.486" style="stroke:#A80036;stroke-width:1.0;"/><!--MD5=[e4729b0e6cdb70051c8278f7c6ba80d8]
link usantatecla.tictactoe.views.PlayMenu to PlayController--><path codeLine="76" d="M1188.87,495.333 C1418.71,512.011 2051.98,571.96 2167.5,732 C2242.93,836.509 2203.92,898.364 2167.5,1022 C2164.24,1033.0818 2158.31,1044.0505 2152,1053.6102 " fill="none" id="usantatecla.tictactoe.views.PlayMenu-to-PlayController" style="stroke:#A80036;stroke-width:1.0;stroke-dasharray:7.0,7.0;"/><polygon fill="#A80036" points="2149.08,1057.8988,2157.4448,1052.6998,2151.8886,1053.7622,2150.8262,1048.206,2149.08,1057.8988" style="stroke:#A80036;stroke-width:1.0;"/><!--MD5=[dda4bfa8ffe767c88c54b9fcbd94109a]
link usantatecla.tictactoe.views.PlayMenu to usantatecla.tictactoe.views.PlayCommand--><path codeLine="77" d="M1105.5,531.604 C1105.5,531.604 1105.5,559.535 1105.5,572.865 " fill="none" id="usantatecla.tictactoe.views.PlayMenu-usantatecla.tictactoe.views.PlayCommand" style="stroke:#A80036;stroke-width:1.0;"/><polygon fill="#A80036" points="1105.5,585.878,1109.5,576.878,1105.5,580.878,1101.5,576.878,1105.5,585.878" style="stroke:#A80036;stroke-width:1.0;"/><line style="stroke:#A80036;stroke-width:1.0;" x1="1105.5" x2="1105.5" y1="580.878" y2="572.878"/><polygon fill="#A80036" points="1105.5,519.604,1101.5,525.604,1105.5,531.604,1109.5,525.604,1105.5,519.604" style="stroke:#A80036;stroke-width:1.0;"/><!--MD5=[96806b8e6e572afd6ba4c4999cd63178]
link usantatecla.tictactoe.views.PlayMenu to usantatecla.tictactoe.views.UndoCommand--><path codeLine="78" d="M1165.3599,525.7613 C1165.3599,525.7613 1225.56,561.726 1254.61,579.078 " fill="none" id="usantatecla.tictactoe.views.PlayMenu-usantatecla.tictactoe.views.UndoCommand" style="stroke:#A80036;stroke-width:1.0;"/><polygon fill="#A80036" points="1265.99,585.878,1260.3099,577.8321,1261.696,583.3165,1256.2115,584.7026,1265.99,585.878" style="stroke:#A80036;stroke-width:1.0;"/><line style="stroke:#A80036;stroke-width:1.0;" x1="1261.696" x2="1254.83" y1="583.3165" y2="579.211"/><polygon fill="#A80036" points="1155.06,519.604,1158.1575,526.1159,1165.3599,525.7613,1162.2624,519.2493,1155.06,519.604" style="stroke:#A80036;stroke-width:1.0;"/><!--MD5=[2a70b5dca875e66a7677ad81f74296e9]
link usantatecla.tictactoe.views.PlayMenu to usantatecla.tictactoe.views.RedoCommand--><path codeLine="79" d="M1045.6401,525.7613 C1045.6401,525.7613 985.437,561.726 956.392,579.078 " fill="none" id="usantatecla.tictactoe.views.PlayMenu-usantatecla.tictactoe.views.RedoCommand" style="stroke:#A80036;stroke-width:1.0;"/><polygon fill="#A80036" points="945.009,585.878,954.7867,584.6961,949.3014,583.3137,950.6838,577.8284,945.009,585.878" style="stroke:#A80036;stroke-width:1.0;"/><line style="stroke:#A80036;stroke-width:1.0;" x1="949.3014" x2="956.1685" y1="583.3137" y2="579.211"/><polygon fill="#A80036" points="1055.94,519.604,1048.7376,519.2493,1045.6401,525.7613,1052.8425,526.1159,1055.94,519.604" style="stroke:#A80036;stroke-width:1.0;"/><!--MD5=[b46ba5eff8d9483939e6df5d79aeed78]
link usantatecla.tictactoe.views.PlayView to PlayController--><path codeLine="84" d="M1198.75,377.164 C1447.68,418.631 2115.68,545.935 2214.5,732 C2274.95,845.832 2273.54,907.428 2214.5,1022 C2207.84,1034.9216 2197.11,1045.7425 2185.41,1054.5378 " fill="none" id="usantatecla.tictactoe.views.PlayView-to-PlayController" style="stroke:#A80036;stroke-width:1.0;stroke-dasharray:7.0,7.0;"/><polygon fill="#A80036" points="2181.07,1057.6866,2190.7066,1055.6529,2185.1213,1054.7562,2186.0179,1049.1709,2181.07,1057.6866" style="stroke:#A80036;stroke-width:1.0;"/><!--MD5=[37fa64a9eab79f8621819f4cbaa2f020]
link usantatecla.tictactoe.views.PlayView to usantatecla.tictactoe.views.PlayMenu--><path codeLine="85" d="M1105.5,392.242 C1105.5,410.528 1105.5,434.043 1105.5,453.194 " fill="none" id="usantatecla.tictactoe.views.PlayView-to-usantatecla.tictactoe.views.PlayMenu" style="stroke:#A80036;stroke-width:1.0;stroke-dasharray:7.0,7.0;"/><polygon fill="#A80036" points="1105.5,458.472,1109.5,449.472,1105.5,453.472,1101.5,449.472,1105.5,458.472" style="stroke:#A80036;stroke-width:1.0;"/><!--MD5=[e107d416f1c1f5a6a4eb16f4eeecf99a]
reverse link usantatecla.tictactoe.views.Command to usantatecla.tictactoe.views.RedoCommand--><path codeLine="92" d="M876.859,546.619 C876.481,559.659 876.085,573.309 875.728,585.622 " fill="none" id="usantatecla.tictactoe.views.Command-backto-usantatecla.tictactoe.views.RedoCommand" style="stroke:#A80036;stroke-width:1.0;"/><polygon fill="none" points="869.872,546.047,877.449,526.258,883.867,546.452,869.872,546.047" style="stroke:#A80036;stroke-width:1.0;"/><!--MD5=[f0e085856a819585cc5bd454b722b3ec]
link usantatecla.tictactoe.views.ResumeView to ResumeController--><path codeLine="97" d="M1643.71,366.096 C1823.08,373.579 2198.98,395.146 2511.5,452 C2524.42,454.35 2537.91,457.38 2551.12,460.683 " fill="none" id="usantatecla.tictactoe.views.ResumeView-to-ResumeController" style="stroke:#A80036;stroke-width:1.0;stroke-dasharray:7.0,7.0;"/><polygon fill="#A80036" points="2555.97,461.912,2548.2286,455.8234,2551.1233,460.6835,2546.2631,463.5781,2555.97,461.912" style="stroke:#A80036;stroke-width:1.0;"/><!--MD5=[1a7c54d1c791a909a8558b4429d7c262]
link usantatecla.tictactoe.views.ResumeView to YesNoDialog--><path codeLine="98" d="M1643.54,366.023 C1796.75,373.028 2089.61,393.495 2331.5,452 C2343.53,454.91 2356.11,458.93 2368.02,463.233 " fill="none" id="usantatecla.tictactoe.views.ResumeView-to-YesNoDialog" style="stroke:#A80036;stroke-width:1.0;stroke-dasharray:7.0,7.0;"/><polygon fill="#A80036" points="2372.73,464.96,2365.6666,458.0965,2368.038,463.2323,2362.9022,465.6037,2372.73,464.96" style="stroke:#A80036;stroke-width:1.0;"/><!--MD5=[d722c2ffb06d94d467aacf8ccf7f5914]
link usantatecla.tictactoe.views.ResumeView to usantatecla.tictactoe.views.Message--><path codeLine="99" d="M1533.25,392.004 C1522.66,448.145 1496.03,573.525 1453.5,672 C1445.58,690.335 1436.16,709.011 1426.14,727.158 " fill="none" id="usantatecla.tictactoe.views.ResumeView-to-usantatecla.tictactoe.views.Message" style="stroke:#A80036;stroke-width:1.0;stroke-dasharray:7.0,7.0;"/><polygon fill="#A80036" points="1423.58,731.76,1431.4489,725.8371,1426.0093,727.3898,1424.4566,721.9502,1423.58,731.76" style="stroke:#A80036;stroke-width:1.0;"/><!--MD5=[b69cdb969b2c10715c9cd0c081a34128]
link usantatecla.tictactoe.views.StartView to Console--><path codeLine="104" d="M665.496,659.788 C724.098,742.93 888.826,976.638 945.254,1056.6943 " fill="none" id="usantatecla.tictactoe.views.StartView-to-Console" style="stroke:#A80036;stroke-width:1.0;stroke-dasharray:7.0,7.0;"/><polygon fill="#A80036" points="948.177,1060.8423,946.2616,1051.1815,945.2965,1056.7554,939.7225,1055.7903,948.177,1060.8423" style="stroke:#A80036;stroke-width:1.0;"/><!--MD5=[86dcd3524e8e522cf07a20ff9d40daf2]
link usantatecla.tictactoe.views.StartView to StartController--><path codeLine="105" d="M714.38,659.592 C728.438,664.51 743.27,668.984 757.5,672 C968.558,716.732 1530.34,642.186 1726.5,732 C1774.32,753.894 1813.85,801.973 1836.06,833.661 " fill="none" id="usantatecla.tictactoe.views.StartView-to-StartController" style="stroke:#A80036;stroke-width:1.0;stroke-dasharray:7.0,7.0;"/><polygon fill="#A80036" points="1838.95,837.827,1837.1155,828.1505,1836.1038,833.7161,1830.5382,832.7044,1838.95,837.827" style="stroke:#A80036;stroke-width:1.0;"/><!--MD5=[f0fd71cf1c9816476a95de6b47ac79e9]
link usantatecla.tictactoe.views.StartView to usantatecla.tictactoe.views.Message--><path codeLine="106" d="M716.678,659.598 C730.082,664.298 744.089,668.692 757.5,672 C960.673,722.112 1040.6,632.138 1224.5,732 C1231.26,735.671 1237.79,739.927 1244.06,744.615 " fill="none" id="usantatecla.tictactoe.views.StartView-to-usantatecla.tictactoe.views.Message" style="stroke:#A80036;stroke-width:1.0;stroke-dasharray:7.0,7.0;"/><polygon fill="#A80036" points="1248.36,747.927,1243.6773,739.2626,1244.4011,744.8729,1238.7908,745.5968,1248.36,747.927" style="stroke:#A80036;stroke-width:1.0;"/><!--MD5=[3c33f21797e7280b68783134da53ba17]
link usantatecla.tictactoe.views.StartView to usantatecla.tictactoe.views.BoardView--><path codeLine="107" d="M703.773,659.636 C784.56,700.03 929.902,772.701 1023.73,819.613 " fill="none" id="usantatecla.tictactoe.views.StartView-to-usantatecla.tictactoe.views.BoardView" style="stroke:#A80036;stroke-width:1.0;stroke-dasharray:7.0,7.0;"/><polygon fill="#A80036" points="1028.43,821.967,1022.1593,814.3724,1023.955,819.7367,1018.5907,821.5324,1028.43,821.967" style="stroke:#A80036;stroke-width:1.0;"/><!--MD5=[d41ad793613a81e5fb5ced5da675834d]
reverse link usantatecla.tictactoe.views.Command to usantatecla.tictactoe.views.UndoCommand--><path codeLine="114" d="M1003.225,525.64 C1003.651,525.76 1004.076,525.88 1004.5,526 C1099.97,552.961 1124.97,555.888 1219.5,586 C1225.15,587.801 1230.95,589.701 1236.78,591.655 " fill="none" id="usantatecla.tictactoe.views.Command-backto-usantatecla.tictactoe.views.UndoCommand" style="stroke:#A80036;stroke-width:1.0;"/><polygon fill="none" points="1001.011,532.288,983.676,520.103,1004.826,518.818,1001.011,532.288" style="stroke:#A80036;stroke-width:1.0;"/><!--MD5=[e0d092fdedec3444606d7f000d5164d3]
link usantatecla.tictactoe.views.UndoCommand to usantatecla.tictactoe.views.Message--><path codeLine="115" d="M1336.5,672.105 C1336.5,687.995 1336.5,707.066 1336.5,726.932 " fill="none" id="usantatecla.tictactoe.views.UndoCommand-to-usantatecla.tictactoe.views.Message" style="stroke:#A80036;stroke-width:1.0;stroke-dasharray:7.0,7.0;"/><polygon fill="#A80036" points="1336.5,731.998,1340.5,722.998,1336.5,726.998,1332.5,722.998,1336.5,731.998" style="stroke:#A80036;stroke-width:1.0;"/><!--MD5=[66e23b9274b05c7352a964d357623d3a]
link usantatecla.tictactoe.views.UndoCommand to PlayController--><path codeLine="116" d="M1436.2,659.666 C1454.16,664.301 1472.8,668.655 1490.5,672 C1612.83,695.118 1954.51,649.228 2047.5,732 C2053.6,737.432 2102.88,967.718 2120.91,1052.8183 " fill="none" id="usantatecla.tictactoe.views.UndoCommand-to-PlayController" style="stroke:#A80036;stroke-width:1.0;stroke-dasharray:7.0,7.0;"/><polygon fill="#A80036" points="2121.95,1057.7283,2123.9953,1048.0942,2120.9124,1052.8371,2116.1694,1049.7543,2121.95,1057.7283" style="stroke:#A80036;stroke-width:1.0;"/><!--MD5=[8e45f130e1bf82d216e11f02a78f3def]
link usantatecla.tictactoe.views.UndoCommand to usantatecla.tictactoe.views.BoardView--><path codeLine="117" d="M1291.16,672.199 C1272.11,690.294 1249.91,711.866 1230.5,732 C1203.67,759.834 1174.72,792.18 1152.21,817.885 " fill="none" id="usantatecla.tictactoe.views.UndoCommand-to-usantatecla.tictactoe.views.BoardView" style="stroke:#A80036;stroke-width:1.0;stroke-dasharray:7.0,7.0;"/><polygon fill="#A80036" points="1148.65,821.952,1157.5893,817.8181,1151.9447,818.1911,1151.5718,812.5465,1148.65,821.952" style="stroke:#A80036;stroke-width:1.0;"/><!--MD5=[9b95ea149833d0b7f6c53594c92c7ce5]
reverse link ControllerVisitor to usantatecla.tictactoe.views.View--><path codeLine="129" d="M900.5,81.09 C900.5,93.55 900.5,107.35 900.5,120.932 " fill="none" id="ControllerVisitor-backto-usantatecla.tictactoe.views.View" style="stroke:#A80036;stroke-width:1.0;"/><polygon fill="none" points="893.5,81.06,900.5,61.06,907.5,81.06,893.5,81.06" style="stroke:#A80036;stroke-width:1.0;"/><!--MD5=[8e351e64b52e12cf7bce6d461fc8fd5b]
link usantatecla.tictactoe.views.View to AcceptorController--><path codeLine="130" d="M793.972,231.975 C702.132,262.127 571.321,305.074 486.663,332.868 " fill="none" id="usantatecla.tictactoe.views.View-to-AcceptorController" style="stroke:#A80036;stroke-width:1.0;stroke-dasharray:7.0,7.0;"/><polygon fill="#A80036" points="481.912,334.428,491.7105,335.4227,486.6628,332.8692,489.2164,327.8215,481.912,334.428" style="stroke:#A80036;stroke-width:1.0;"/><!--MD5=[b4182c9039d2bdb2ad2b875fff96bd5f]
link usantatecla.tictactoe.views.View to usantatecla.tictactoe.views.StartView--><path codeLine="131" d="M850.3641,281.4094 C850.3641,281.4094 710.467,516.938 669.029,586.703 " fill="none" id="usantatecla.tictactoe.views.View-usantatecla.tictactoe.views.StartView" style="stroke:#A80036;stroke-width:1.0;"/><polygon fill="#A80036" points="662.286,598.056,670.3211,592.3606,664.8393,593.7571,663.4428,588.2753,662.286,598.056" style="stroke:#A80036;stroke-width:1.0;"/><line style="stroke:#A80036;stroke-width:1.0;" x1="664.8393" x2="668.924" y1="593.7571" y2="586.8795"/><polygon fill="#A80036" points="856.492,271.092,849.9889,274.2081,850.3641,281.4094,856.8672,278.2933,856.492,271.092" style="stroke:#A80036;stroke-width:1.0;"/><!--MD5=[80eeea65d4b4d8d124540272ee088667]
link usantatecla.tictactoe.views.View to usantatecla.tictactoe.views.PlayView--><path codeLine="132" d="M1002.7838,278.5793 C1002.7838,278.5793 1041.64,309.568 1057.97,322.589 " fill="none" id="usantatecla.tictactoe.views.View-usantatecla.tictactoe.views.PlayView" style="stroke:#A80036;stroke-width:1.0;"/><polygon fill="#A80036" points="1068.29,330.82,1063.7445,322.0828,1064.3798,327.7039,1058.7587,328.3392,1068.29,330.82" style="stroke:#A80036;stroke-width:1.0;"/><line style="stroke:#A80036;stroke-width:1.0;" x1="1064.3798" x2="1058.125" y1="327.7039" y2="322.7145"/><polygon fill="#A80036" points="993.403,271.096,995.599,277.9646,1002.7838,278.5793,1000.5879,271.7107,993.403,271.096" style="stroke:#A80036;stroke-width:1.0;"/><!--MD5=[577bcf8005ed3901c27cd9ef0f664d27]
link usantatecla.tictactoe.views.View to usantatecla.tictactoe.views.ResumeView--><path codeLine="133" d="M1018.914,227.3462 C1018.914,227.3462 1306.53,301.053 1420.57,330.278 " fill="none" id="usantatecla.tictactoe.views.View-usantatecla.tictactoe.views.ResumeView" style="stroke:#A80036;stroke-width:1.0;"/><polygon fill="#A80036" points="1433.49,333.589,1425.7589,327.4874,1428.6453,332.3524,1423.7803,335.2389,1433.49,333.589" style="stroke:#A80036;stroke-width:1.0;"/><line style="stroke:#A80036;stroke-width:1.0;" x1="1428.6453" x2="1420.895" y1="332.3524" y2="330.3615"/><polygon fill="#A80036" points="1007.29,224.366,1012.1086,229.7308,1018.914,227.3462,1014.0954,221.9814,1007.29,224.366" style="stroke:#A80036;stroke-width:1.0;"/><!--MD5=[992ac6f81eaf49da88c1e642d5b605aa]
@startuml
interface AcceptorController as "usantatecla.tictactoe.controllers.\nAcceptorController"
interface ControllerVisitor as "usantatecla.tictactoe.controllers.\nControllerVisitor"
class PlayController as "usantatecla.tictactoe.controllers.\nPlayController"
class ResumeController as "usantatecla.tictactoe.controllers.\nResumeController"
class StartController as "usantatecla.tictactoe.controllers.\nStartController"
class Console as "utils.Console"
class Command as "utils.Command"
class Menu as "utils.Menu"
class YesNoDialog as "utils.YesNoDialog"

class  usantatecla.tictactoe.views.BoardView{
- playController: PlayController
~ BoardView(PlayController)
~ write(): void
}
usantatecla.tictactoe.views.BoardView .down.> Console
usantatecla.tictactoe.views.BoardView ..> PlayController

class  usantatecla.tictactoe.views.Command{
# playController: PlayController
# Command(String, PlayController)
}
Command <|-down- usantatecla.tictactoe.views.Command

class  usantatecla.tictactoe.views.CoordinateView{
~ playController: PlayController
~ CoordinateView(PlayController)
~ read(String): int[]
}
usantatecla.tictactoe.views.CoordinateView .down.> Console
usantatecla.tictactoe.views.CoordinateView ..> usantatecla.tictactoe.views.ErrorView
usantatecla.tictactoe.views.CoordinateView ..> PlayController
usantatecla.tictactoe.views.CoordinateView ..> usantatecla.tictactoe.views.Message

class  usantatecla.tictactoe.views.ErrorView{
+ {static} MESSAGES: String[]
# error: Error
+ ErrorView(Error)
~ writeln(): void
}

enum  usantatecla.tictactoe.views.Message{
+ EMPTY
+ SEPARATOR
+ VERTICAL_LINE_CENTERED
+ VERTICAL_LINE_LEFT
+PLAYER_WIN
+START_GAME
+CHOOSE_PLAYER
+READ_ROW
+READ_COLUMN
+ERROR
+ PROPOSE_COMMAND
+ UNDO_COMMAND
+ REDO_COMMAND
+ RESUME
- message: String
- Message(String)
+ getMessage(): String
}

class  usantatecla.tictactoe.views.PlayCommand{
+ PlayCommand(PlayController)
# execute(): void
# isActive(): boolean
}
usantatecla.tictactoe.views.Command <|-down- usantatecla.tictactoe.views.PlayCommand
usantatecla.tictactoe.views.PlayCommand ..> PlayController
usantatecla.tictactoe.views.PlayCommand ..> usantatecla.tictactoe.views.Message
usantatecla.tictactoe.views.PlayCommand ..> usantatecla.tictactoe.views.BoardView

class usantatecla.tictactoe.views.PlayMenu{
~ PlayMenu(PlayController)
}
Menu <|-down- usantatecla.tictactoe.views.PlayMenu
usantatecla.tictactoe.views.PlayMenu ..> PlayController
usantatecla.tictactoe.views.PlayMenu *-down-> usantatecla.tictactoe.views.PlayCommand
usantatecla.tictactoe.views.PlayMenu *-down-> usantatecla.tictactoe.views.UndoCommand
usantatecla.tictactoe.views.PlayMenu *-down-> usantatecla.tictactoe.views.RedoCommand

class usantatecla.tictactoe.views.PlayView{
~ interact(PlayController): void
}
usantatecla.tictactoe.views.PlayView ..> PlayController
usantatecla.tictactoe.views.PlayView ..> usantatecla.tictactoe.views.PlayMenu

class usantatecla.tictactoe.views.RedoCommand{
~ RedoCommand(PlayController)
# execute(): void
# isActive(): boolean
}
usantatecla.tictactoe.views.Command <|-down- usantatecla.tictactoe.views.RedoCommand

class usantatecla.tictactoe.views.ResumeView{
~ interact(ResumeController): void
}
usantatecla.tictactoe.views.ResumeView ..> ResumeController
usantatecla.tictactoe.views.ResumeView ..> YesNoDialog
usantatecla.tictactoe.views.ResumeView ..> usantatecla.tictactoe.views.Message

class usantatecla.tictactoe.views.StartView{
~ interact(StartController): void
}
usantatecla.tictactoe.views.StartView .down.> Console
usantatecla.tictactoe.views.StartView ..> StartController
usantatecla.tictactoe.views.StartView ..> usantatecla.tictactoe.views.Message
usantatecla.tictactoe.views.StartView ..> usantatecla.tictactoe.views.BoardView

class usantatecla.tictactoe.views.UndoCommand{
~ UndoCommand(PlayController)
# execute(): void
# isActive(): boolean
}
usantatecla.tictactoe.views.Command <|-down- usantatecla.tictactoe.views.UndoCommand
usantatecla.tictactoe.views.UndoCommand ..> usantatecla.tictactoe.views.Message
usantatecla.tictactoe.views.UndoCommand ..> PlayController
usantatecla.tictactoe.views.UndoCommand ..> usantatecla.tictactoe.views.BoardView

class  usantatecla.tictactoe.views.View{
- startView: StartView
- playView: PlayView
- resumeView: ResumeView
+ View()
+ interact(AcceptorController): void
+ visit(StartController): void
+ visit(PlayController): void
+ visit(ResumeController): void
}
ControllerVisitor <|-down- usantatecla.tictactoe.views.View
usantatecla.tictactoe.views.View ..> AcceptorController
usantatecla.tictactoe.views.View *-down-> usantatecla.tictactoe.views.StartView
usantatecla.tictactoe.views.View *-down-> usantatecla.tictactoe.views.PlayView
usantatecla.tictactoe.views.View *-down-> usantatecla.tictactoe.views.ResumeView
@enduml

PlantUML version 1.2020.23beta3(Unknown compile time)
(GPL source distribution)
Java Runtime: Java(TM) SE Runtime Environment
JVM: Java HotSpot(TM) 64-Bit Server VM
Default Encoding: UTF-8
Language: en
Country: US
--></g></svg>