<?xml version="1.0" encoding="UTF-8" standalone="no"?><svg xmlns="http://www.w3.org/2000/svg" xmlns:xlink="http://www.w3.org/1999/xlink" contentScriptType="application/ecmascript" contentStyleType="text/css" height="630px" preserveAspectRatio="none" style="width:841px;height:630px;" version="1.1" viewBox="0 0 841 630" width="841px" zoomAndPan="magnify"><defs><filter height="300%" id="f1e37vdhhx9hpy" width="300%" x="-1" y="-1"><feGaussianBlur result="blurOut" stdDeviation="2.0"/><feColorMatrix in="blurOut" result="blurOut2" type="matrix" values="0 0 0 0 0 0 0 0 0 0 0 0 0 0 0 0 0 0 .4 0"/><feOffset dx="4.0" dy="4.0" in="blurOut2" result="blurOut3"/><feBlend in="SourceGraphic" in2="blurOut3" mode="normal"/></filter></defs><g><polygon fill="#DDDDDD" filter="url(#f1e37vdhhx9hpy)" points="218,6,300,6,307,28.2969,314,28.2969,314,58.5938,218,58.5938,218,6" style="stroke:#000000;stroke-width:1.5;"/><line style="stroke:#000000;stroke-width:1.5;" x1="218" x2="307" y1="28.2969" y2="28.2969"/><text fill="#000000" font-family="sans-serif" font-size="14" font-weight="bold" lengthAdjust="spacingAndGlyphs" textLength="76" x="222" y="20.9951">tictactoe</text><polygon fill="#DDDDDD" filter="url(#f1e37vdhhx9hpy)" points="339,232,471,232,478,254.2969,485,254.2969,485,284.5938,339,284.5938,339,232" style="stroke:#000000;stroke-width:1.5;"/><line style="stroke:#000000;stroke-width:1.5;" x1="339" x2="478" y1="254.2969" y2="254.2969"/><text fill="#000000" font-family="sans-serif" font-size="14" font-weight="bold" lengthAdjust="spacingAndGlyphs" textLength="126" x="343" y="246.9951">tictactoe.views</text><polygon fill="#DDDDDD" filter="url(#f1e37vdhhx9hpy)" points="265,345,441,345,448,367.2969,455,367.2969,455,397.5938,265,397.5938,265,345" style="stroke:#000000;stroke-width:1.5;"/><line style="stroke:#000000;stroke-width:1.5;" x1="265" x2="448" y1="367.2969" y2="367.2969"/><text fill="#000000" font-family="sans-serif" font-size="14" font-weight="bold" lengthAdjust="spacingAndGlyphs" textLength="170" x="269" y="359.9951">tictactoe.controllers</text><polygon fill="#DDDDDD" filter="url(#f1e37vdhhx9hpy)" points="151.5,458,296.5,458,303.5,480.2969,310.5,480.2969,310.5,510.5938,151.5,510.5938,151.5,458" style="stroke:#000000;stroke-width:1.5;"/><line style="stroke:#000000;stroke-width:1.5;" x1="151.5" x2="303.5" y1="480.2969" y2="480.2969"/><text fill="#000000" font-family="sans-serif" font-size="14" font-weight="bold" lengthAdjust="spacingAndGlyphs" textLength="139" x="155.5" y="472.9951">tictactoe.models</text><polygon fill="#DDDDDD" filter="url(#f1e37vdhhx9hpy)" points="16,571,148,571,155,593.2969,162,593.2969,162,623.5938,16,623.5938,16,571" style="stroke:#000000;stroke-width:1.5;"/><line style="stroke:#000000;stroke-width:1.5;" x1="16" x2="155" y1="593.2969" y2="593.2969"/><text fill="#000000" font-family="sans-serif" font-size="14" font-weight="bold" lengthAdjust="spacingAndGlyphs" textLength="126" x="20" y="585.9951">tictactoe.types</text><polygon fill="#FFFFFF" filter="url(#f1e37vdhhx9hpy)" points="197.5,571,270.5,571,277.5,593.2969,284.5,593.2969,284.5,623.5938,197.5,623.5938,197.5,571" style="stroke:#000000;stroke-width:1.5;"/><line style="stroke:#000000;stroke-width:1.5;" x1="197.5" x2="277.5" y1="593.2969" y2="593.2969"/><text fill="#000000" font-family="sans-serif" font-size="14" font-weight="bold" lengthAdjust="spacingAndGlyphs" textLength="67" x="201.5" y="585.9951">java.util</text><polygon fill="#DDDDDD" filter="url(#f1e37vdhhx9hpy)" points="689.5,232,732.5,232,739.5,254.2969,746.5,254.2969,746.5,284.5938,689.5,284.5938,689.5,232" style="stroke:#000000;stroke-width:1.5;"/><line style="stroke:#000000;stroke-width:1.5;" x1="689.5" x2="739.5" y1="254.2969" y2="254.2969"/><text fill="#000000" font-family="sans-serif" font-size="14" font-weight="bold" lengthAdjust="spacingAndGlyphs" textLength="37" x="693.5" y="246.9951">utils</text><polygon fill="#FFFFFF" filter="url(#f1e37vdhhx9hpy)" points="681,345,741,345,748,367.2969,755,367.2969,755,397.5938,681,397.5938,681,345" style="stroke:#000000;stroke-width:1.5;"/><line style="stroke:#000000;stroke-width:1.5;" x1="681" x2="748" y1="367.2969" y2="367.2969"/><text fill="#000000" font-family="sans-serif" font-size="14" font-weight="bold" lengthAdjust="spacingAndGlyphs" textLength="54" x="685" y="359.9951">java.io</text><polygon fill="#DDDDDD" filter="url(#f1e37vdhhx9hpy)" points="611.5,119,810.5,119,817.5,141.2969,824.5,141.2969,824.5,171.5938,611.5,171.5938,611.5,119" style="stroke:#000000;stroke-width:1.5;"/><line style="stroke:#000000;stroke-width:1.5;" x1="611.5" x2="817.5" y1="141.2969" y2="141.2969"/><text fill="#000000" font-family="sans-serif" font-size="14" font-weight="bold" lengthAdjust="spacingAndGlyphs" textLength="193" x="615.5" y="133.9951">tictactoe.views.console</text><polygon fill="#DDDDDD" filter="url(#f1e37vdhhx9hpy)" points="355.5,119,562.5,119,569.5,141.2969,576.5,141.2969,576.5,171.5938,355.5,171.5938,355.5,119" style="stroke:#000000;stroke-width:1.5;"/><line style="stroke:#000000;stroke-width:1.5;" x1="355.5" x2="569.5" y1="141.2969" y2="141.2969"/><text fill="#000000" font-family="sans-serif" font-size="14" font-weight="bold" lengthAdjust="spacingAndGlyphs" textLength="201" x="359.5" y="133.9951">tictactoe.views.graphics</text><!--MD5=[a65998a409184a650758a5d227ee8afa]
link tictactoe to tictactoe.models--><path codeLine="2" d="M263.993,59.31 C257.946,137.054 239.922,368.792 233.394,452.72 " fill="none" id="tictactoe-to-tictactoe.models" style="stroke:#A80036;stroke-width:1.0;stroke-dasharray:7.0,7.0;"/><polygon fill="#A80036" points="232.999,457.794,237.6862,449.132,233.3875,452.8091,229.7104,448.5104,232.999,457.794" style="stroke:#A80036;stroke-width:1.0;"/><!--MD5=[14e8060986a8fc6b4a58b3b27491f648]
link tictactoe to tictactoe.views.console--><path codeLine="3" d="M314.372,45.379 C384.178,62.522 515.063,94.664 608.877,117.702 " fill="none" id="tictactoe-to-tictactoe.views.console" style="stroke:#A80036;stroke-width:1.0;stroke-dasharray:7.0,7.0;"/><polygon fill="#A80036" points="613.877,118.93,606.0911,112.8984,609.0214,117.7372,604.1826,120.6674,613.877,118.93" style="stroke:#A80036;stroke-width:1.0;"/><!--MD5=[e75f446ce7e4e6233c0f378e4a80c309]
link tictactoe to tictactoe.views.graphics--><path codeLine="4" d="M312.135,59.105 C342.922,76.192 383.418,98.667 415.137,116.271 " fill="none" id="tictactoe-to-tictactoe.views.graphics" style="stroke:#A80036;stroke-width:1.0;stroke-dasharray:7.0,7.0;"/><polygon fill="#A80036" points="419.751,118.832,413.8222,110.9675,415.379,116.406,409.9406,117.9627,419.751,118.832" style="stroke:#A80036;stroke-width:1.0;"/><!--MD5=[4c8e626184b37a51cac3aeda5d7a8756]
link tictactoe to tictactoe.controllers--><path codeLine="5" d="M269.786,59.329 C276.953,105.445 294.227,204.646 321,285 C327.263,303.797 336.36,324 344.193,340.045 " fill="none" id="tictactoe-to-tictactoe.controllers" style="stroke:#A80036;stroke-width:1.0;stroke-dasharray:7.0,7.0;"/><polygon fill="#A80036" points="346.579,344.885,346.1896,335.0438,344.3693,340.3998,339.0133,338.5794,346.579,344.885" style="stroke:#A80036;stroke-width:1.0;"/><!--MD5=[8fe1157dabbcf20ee852fc992046f19b]
link tictactoe to tictactoe.views--><path d="M277.071,59.017 C289.96,87.595 312.732,134.78 338,172 C351.418,191.765 368.8,212.058 383.346,227.912 " fill="none" id="tictactoe-to-tictactoe.views" style="stroke:#A80036;stroke-width:1.0;stroke-dasharray:7.0,7.0;"/><polygon fill="#A80036" points="386.978,231.844,383.8092,222.5188,383.5852,228.1712,377.9328,227.9472,386.978,231.844" style="stroke:#A80036;stroke-width:1.0;"/><!--MD5=[a8de43edae89bda8584d2a307f9d9fff]
link tictactoe to tictactoe.types--><path codeLine="7" d="M225.836,59.266 C173.614,96.273 89,169.771 89,257.5 C89,257.5 89,257.5 89,372.5 C89,441.634 89,522.77 89,565.901 " fill="none" id="tictactoe-to-tictactoe.types" style="stroke:#A80036;stroke-width:1.0;stroke-dasharray:7.0,7.0;"/><polygon fill="#A80036" points="89,570.9691,93,561.9691,89,565.9691,85,561.9691,89,570.9691" style="stroke:#A80036;stroke-width:1.0;"/><!--MD5=[f6dfdd433beafcf2daacaf58db85d2a6]
link tictactoe.controllers to tictactoe.models--><path codeLine="10" d="M330.081,398.245 C310.543,415.056 284.995,437.039 264.735,454.472 " fill="none" id="tictactoe.controllers-to-tictactoe.models" style="stroke:#A80036;stroke-width:1.0;stroke-dasharray:7.0,7.0;"/><polygon fill="#A80036" points="260.757,457.895,270.188,455.0565,264.5469,454.6336,264.9698,448.9926,260.757,457.895" style="stroke:#A80036;stroke-width:1.0;"/><!--MD5=[f1ef2a356c956f8a73e3a19c14814b65]
link tictactoe.models to tictactoe.types--><path codeLine="13" d="M198.065,511.245 C176.469,528.1262 148.202,550.2225 125.856,567.6897 " fill="none" id="tictactoe.models-to-tictactoe.types" style="stroke:#A80036;stroke-width:1.0;stroke-dasharray:7.0,7.0;"/><polygon fill="#A80036" points="121.756,570.895,131.3104,568.5048,125.6956,567.8162,126.3843,562.2014,121.756,570.895" style="stroke:#A80036;stroke-width:1.0;"/><!--MD5=[e6c0f23e74b5161a168046a341518387]
link tictactoe.models to java.util--><path d="M233.319,511.245 C234.783,527.4958 236.683,548.5795 238.226,565.7139 " fill="none" id="tictactoe.models-to-java.util" style="stroke:#A80036;stroke-width:1.0;stroke-dasharray:7.0,7.0;"/><polygon fill="#A80036" points="238.693,570.895,241.869,561.5723,238.2442,565.9152,233.9013,562.2904,238.693,570.895" style="stroke:#A80036;stroke-width:1.0;"/><!--MD5=[e79504c030c2940e8dd8427e90ad9823]
link utils to java.io--><path d="M718,285.245 C718,301.496 718,322.579 718,339.714 " fill="none" id="utils-to-java.io" style="stroke:#A80036;stroke-width:1.0;stroke-dasharray:7.0,7.0;"/><polygon fill="#A80036" points="718,344.895,722,335.895,718,339.895,714,335.895,718,344.895" style="stroke:#A80036;stroke-width:1.0;"/><!--MD5=[6ba7a600a15b805df477e9f81c752d07]
link tictactoe.views to tictactoe.controllers--><path d="M399.939,285.245 C392.261,301.636 382.279,322.943 374.215,340.156 " fill="none" id="tictactoe.views-to-tictactoe.controllers" style="stroke:#A80036;stroke-width:1.0;stroke-dasharray:7.0,7.0;"/><polygon fill="#A80036" points="371.995,344.895,379.436,338.4427,374.1166,340.3674,372.1919,335.0481,371.995,344.895" style="stroke:#A80036;stroke-width:1.0;"/><!--MD5=[d9231b12cc9710bcc39738b6493510f9]
link tictactoe.views.console to tictactoe.views--><path d="M647.413,172.105 C599.548,189.468 536.345,212.395 487.479,230.12 " fill="none" id="tictactoe.views.console-to-tictactoe.views" style="stroke:#A80036;stroke-width:1.0;stroke-dasharray:7.0,7.0;"/><polygon fill="#A80036" points="482.496,231.928,492.3205,232.6204,487.1965,230.2235,489.5933,225.0995,482.496,231.928" style="stroke:#A80036;stroke-width:1.0;"/><!--MD5=[ae85e2051aac6338671b2c0e494e498c]
link tictactoe.views.console to tictactoe.controllers--><path d="M678.796,172.108 C635.679,200.162 564.239,246.319 502,285 C470.68,304.465 435.135,325.866 407.443,342.388 " fill="none" id="tictactoe.views.console-to-tictactoe.controllers" style="stroke:#A80036;stroke-width:1.0;stroke-dasharray:7.0,7.0;"/><polygon fill="#A80036" points="403.068,344.997,412.8468,343.8243,407.3628,342.4367,408.7503,336.9527,403.068,344.997" style="stroke:#A80036;stroke-width:1.0;"/><!--MD5=[b62e8057ebb64db4cc41eb56011c03b5]
link tictactoe.views.console to utils--><path d="M718,172.245 C718,188.496 718,209.579 718,226.714 " fill="none" id="tictactoe.views.console-to-utils" style="stroke:#A80036;stroke-width:1.0;stroke-dasharray:7.0,7.0;"/><polygon fill="#A80036" points="718,231.895,722,222.895,718,226.895,714,222.895,718,231.895" style="stroke:#A80036;stroke-width:1.0;"/><!--MD5=[36236f1ad998eba9fea5e75bc6a115c4]
link tictactoe.views.graphics to tictactoe.views--><path d="M453.476,172.245 C445.501,188.636 435.136,209.943 426.762,227.156 " fill="none" id="tictactoe.views.graphics-to-tictactoe.views" style="stroke:#A80036;stroke-width:1.0;stroke-dasharray:7.0,7.0;"/><polygon fill="#A80036" points="424.456,231.895,431.9894,225.5509,426.6428,227.3986,424.7951,222.052,424.456,231.895" style="stroke:#A80036;stroke-width:1.0;"/><!--MD5=[855240238575b04dd2a3d39d9975bf41]
@startuml
package tictactoe #DDDDDD { }
tictactoe .down.> tictactoe.models
tictactoe .down.> tictactoe.views.console
tictactoe .down.> tictactoe.views.graphics
tictactoe .down.> tictactoe.controllers
tictactoe .down.> tictactoe.views
tictactoe .down.> tictactoe.types

package tictactoe.controllers #DDDDDD { }
tictactoe.controllers .down.> tictactoe.models

package tictactoe.models #DDDDDD { }
tictactoe.models .down.> tictactoe.types
package tictactoe.types #DDDDDD { }
package java.util{ }
tictactoe.models .down.> java.util

package utils #DDDDDD { }
package java.io{ }
utils .down.> java.io

package tictactoe.views #DDDDDD { }
tictactoe.views .down.> tictactoe.controllers

package tictactoe.views.console #DDDDDD { }
tictactoe.views.console .down.> tictactoe.views
tictactoe.views.console .down.> tictactoe.controllers
tictactoe.views.console .down.> utils

package tictactoe.views.graphics #DDDDDD { }
tictactoe.views.graphics .down.> tictactoe.views
@enduml

PlantUML version 1.2020.21(Mon Nov 30 16:40:11 UTC 2020)
(GPL source distribution)
Java Runtime: Java(TM) SE Runtime Environment
JVM: Java HotSpot(TM) 64-Bit Server VM
Default Encoding: UTF-8
Language: en
Country: US
--></g></svg>