<?xml version="1.0" encoding="UTF-8" standalone="no"?><svg xmlns="http://www.w3.org/2000/svg" xmlns:xlink="http://www.w3.org/1999/xlink" contentScriptType="application/ecmascript" contentStyleType="text/css" height="630px" preserveAspectRatio="none" style="width:986px;height:630px;" version="1.1" viewBox="0 0 986 630" width="986px" zoomAndPan="magnify"><defs><filter height="300%" id="f8ho4uiquavj8" width="300%" x="-1" y="-1"><feGaussianBlur result="blurOut" stdDeviation="2.0"/><feColorMatrix in="blurOut" result="blurOut2" type="matrix" values="0 0 0 0 0 0 0 0 0 0 0 0 0 0 0 0 0 0 .4 0"/><feOffset dx="4.0" dy="4.0" in="blurOut2" result="blurOut3"/><feBlend in="SourceGraphic" in2="blurOut3" mode="normal"/></filter></defs><g><polygon fill="#DDDDDD" filter="url(#f8ho4uiquavj8)" points="123.5,6,308.5,6,315.5,28.2969,322.5,28.2969,322.5,58.5938,123.5,58.5938,123.5,6" style="stroke: #000000; stroke-width: 1.5;"/><line style="stroke: #000000; stroke-width: 1.5;" x1="123.5" x2="315.5" y1="28.2969" y2="28.2969"/><text fill="#000000" font-family="sans-serif" font-size="14" font-weight="bold" lengthAdjust="spacingAndGlyphs" textLength="179" x="127.5" y="20.9951">usantatecla.tictactoe</text><polygon fill="#DDDDDD" filter="url(#f8ho4uiquavj8)" points="136,345,384,345,391,367.2969,398,367.2969,398,397.5938,136,397.5938,136,345" style="stroke: #000000; stroke-width: 1.5;"/><line style="stroke: #000000; stroke-width: 1.5;" x1="136" x2="391" y1="367.2969" y2="367.2969"/><text fill="#000000" font-family="sans-serif" font-size="14" font-weight="bold" lengthAdjust="spacingAndGlyphs" textLength="242" x="140" y="359.9951">usantatecla.tictactoe.models</text><polygon fill="#DDDDDD" filter="url(#f8ho4uiquavj8)" points="207.5,232,442.5,232,449.5,254.2969,456.5,254.2969,456.5,284.5938,207.5,284.5938,207.5,232" style="stroke: #000000; stroke-width: 1.5;"/><line style="stroke: #000000; stroke-width: 1.5;" x1="207.5" x2="449.5" y1="254.2969" y2="254.2969"/><text fill="#000000" font-family="sans-serif" font-size="14" font-weight="bold" lengthAdjust="spacingAndGlyphs" textLength="229" x="211.5" y="246.9951">usantatecla.tictactoe.views</text><polygon fill="#DDDDDD" filter="url(#f8ho4uiquavj8)" points="65,119,367,119,374,141.2969,381,141.2969,381,171.5938,65,171.5938,65,119" style="stroke: #000000; stroke-width: 1.5;"/><line style="stroke: #000000; stroke-width: 1.5;" x1="65" x2="374" y1="141.2969" y2="141.2969"/><text fill="#000000" font-family="sans-serif" font-size="14" font-weight="bold" lengthAdjust="spacingAndGlyphs" textLength="296" x="69" y="133.9951">usantatecla.tictactoe.views.console</text><polygon fill="#DDDDDD" filter="url(#f8ho4uiquavj8)" points="431,119,741,119,748,141.2969,755,141.2969,755,171.5938,431,171.5938,431,119" style="stroke: #000000; stroke-width: 1.5;"/><line style="stroke: #000000; stroke-width: 1.5;" x1="431" x2="748" y1="141.2969" y2="141.2969"/><text fill="#000000" font-family="sans-serif" font-size="14" font-weight="bold" lengthAdjust="spacingAndGlyphs" textLength="304" x="435" y="133.9951">usantatecla.tictactoe.views.graphics</text><polygon fill="#DDDDDD" filter="url(#f8ho4uiquavj8)" points="16,458,162,458,169,480.2969,176,480.2969,176,510.5938,16,510.5938,16,458" style="stroke: #000000; stroke-width: 1.5;"/><line style="stroke: #000000; stroke-width: 1.5;" x1="16" x2="169" y1="480.2969" y2="480.2969"/><text fill="#000000" font-family="sans-serif" font-size="14" font-weight="bold" lengthAdjust="spacingAndGlyphs" textLength="140" x="20" y="472.9951">usantatecla.utils</text><polygon fill="#FFFFFF" filter="url(#f8ho4uiquavj8)" points="223.5,458,296.5,458,303.5,480.2969,310.5,480.2969,310.5,510.5938,223.5,510.5938,223.5,458" style="stroke: #000000; stroke-width: 1.5;"/><line style="stroke: #000000; stroke-width: 1.5;" x1="223.5" x2="303.5" y1="480.2969" y2="480.2969"/><text fill="#000000" font-family="sans-serif" font-size="14" font-weight="bold" lengthAdjust="spacingAndGlyphs" textLength="67" x="227.5" y="472.9951">java.util</text><polygon fill="#FFFFFF" filter="url(#f8ho4uiquavj8)" points="563,232,639,232,646,254.2969,653,254.2969,653,284.5938,563,284.5938,563,232" style="stroke: #000000; stroke-width: 1.5;"/><line style="stroke: #000000; stroke-width: 1.5;" x1="563" x2="646" y1="254.2969" y2="254.2969"/><text fill="#000000" font-family="sans-serif" font-size="14" font-weight="bold" lengthAdjust="spacingAndGlyphs" textLength="70" x="567" y="246.9951">java.awt</text><polygon fill="#FFFFFF" filter="url(#f8ho4uiquavj8)" points="688,232,814,232,821,254.2969,828,254.2969,828,284.5938,688,284.5938,688,232" style="stroke: #000000; stroke-width: 1.5;"/><line style="stroke: #000000; stroke-width: 1.5;" x1="688" x2="821" y1="254.2969" y2="254.2969"/><text fill="#000000" font-family="sans-serif" font-size="14" font-weight="bold" lengthAdjust="spacingAndGlyphs" textLength="120" x="692" y="246.9951">java.awt.event</text><polygon fill="#FFFFFF" filter="url(#f8ho4uiquavj8)" points="863,232,955,232,962,254.2969,969,254.2969,969,284.5938,863,284.5938,863,232" style="stroke: #000000; stroke-width: 1.5;"/><line style="stroke: #000000; stroke-width: 1.5;" x1="863" x2="962" y1="254.2969" y2="254.2969"/><text fill="#000000" font-family="sans-serif" font-size="14" font-weight="bold" lengthAdjust="spacingAndGlyphs" textLength="86" x="867" y="246.9951">java.swing</text><polygon fill="#FFFFFF" filter="url(#f8ho4uiquavj8)" points="59,571,119,571,126,593.2969,133,593.2969,133,623.5938,59,623.5938,59,571" style="stroke: #000000; stroke-width: 1.5;"/><line style="stroke: #000000; stroke-width: 1.5;" x1="59" x2="126" y1="593.2969" y2="593.2969"/><text fill="#000000" font-family="sans-serif" font-size="14" font-weight="bold" lengthAdjust="spacingAndGlyphs" textLength="54" x="63" y="585.9951">java.io</text><!--MD5=[9e36bef8f7f19866037b40a69a6b84e4]
link usantatecla.tictactoe to usantatecla.tictactoe.models--><path d="M123.889,59.153 C93.9859,72.03 64.4833,91.07 47,119 C34.5018,138.966 37.4302,150.476 47,172 C81.3547,249.269 162.297,309.15 215.833,342.114 " fill="none" id="usantatecla.tictactoe-to-usantatecla.tictactoe.models" style="stroke: #A80036; stroke-width: 1.0; stroke-dasharray: 7.0,7.0;"/><polygon fill="#A80036" points="220.282,344.831,214.6823,336.7289,216.0137,342.2269,210.5157,343.5582,220.282,344.831" style="stroke: #A80036; stroke-width: 1.0;"/><!--MD5=[6b36f031391c85ca34875e2b65a3c7e6]
link usantatecla.tictactoe to usantatecla.tictactoe.views.console--><path d="M223,59.245 C223,75.496 223,96.579 223,113.714 " fill="none" id="usantatecla.tictactoe-to-usantatecla.tictactoe.views.console" style="stroke: #A80036; stroke-width: 1.0; stroke-dasharray: 7.0,7.0;"/><polygon fill="#A80036" points="223,118.895,227,109.895,223,113.895,219,109.895,223,118.895" style="stroke: #A80036; stroke-width: 1.0;"/><!--MD5=[39f16429e9ae5fde4bf7275653207d6a]
link usantatecla.tictactoe to usantatecla.tictactoe.views.graphics--><path d="M308.35,59.105 C366.577,76.573 443.576,99.673 502.807,117.442 " fill="none" id="usantatecla.tictactoe-to-usantatecla.tictactoe.views.graphics" style="stroke: #A80036; stroke-width: 1.0; stroke-dasharray: 7.0,7.0;"/><polygon fill="#A80036" points="507.759,118.928,500.2887,112.5097,502.97,117.4907,497.989,120.1721,507.759,118.928" style="stroke: #A80036; stroke-width: 1.0;"/><!--MD5=[e05ff5b187fed5d2ffe3f95973e5c480]
link usantatecla.tictactoe.views.console to usantatecla.tictactoe.views--><path d="M248.281,172.245 C264.652,188.916 286.017,210.673 303.066,228.035 " fill="none" id="usantatecla.tictactoe.views.console-to-usantatecla.tictactoe.views" style="stroke: #A80036; stroke-width: 1.0; stroke-dasharray: 7.0,7.0;"/><polygon fill="#A80036" points="306.856,231.895,303.4042,222.6709,303.3527,228.3275,297.6961,228.2761,306.856,231.895" style="stroke: #A80036; stroke-width: 1.0;"/><!--MD5=[f82e132a1e9ef863eb20fd75fe46594a]
link usantatecla.tictactoe.views.graphics to usantatecla.tictactoe.views--><path d="M532.794,172.105 C492.205,189.367 438.685,212.128 397.108,229.811 " fill="none" id="usantatecla.tictactoe.views.graphics-to-usantatecla.tictactoe.views" style="stroke: #A80036; stroke-width: 1.0; stroke-dasharray: 7.0,7.0;"/><polygon fill="#A80036" points="392.355,231.832,402.2026,231.9903,396.9561,229.875,399.0714,224.6285,392.355,231.832" style="stroke: #A80036; stroke-width: 1.0;"/><!--MD5=[7dba05e81ff7be4b899eaf137e751aa3]
link usantatecla.tictactoe.views.graphics to java.awt--><path d="M596.479,172.245 C598.675,188.496 601.524,209.579 603.84,226.714 " fill="none" id="usantatecla.tictactoe.views.graphics-to-java.awt" style="stroke: #A80036; stroke-width: 1.0; stroke-dasharray: 7.0,7.0;"/><polygon fill="#A80036" points="604.54,231.895,607.3004,222.4409,603.8713,226.9399,599.3723,223.5108,604.54,231.895" style="stroke: #A80036; stroke-width: 1.0;"/><!--MD5=[f9e60ad5fe8f290e2d10b2983b7c3803]
link usantatecla.tictactoe.views.graphics to java.awt.event--><path d="M631.269,172.245 C656.467,189.196 689.482,211.406 715.497,228.907 " fill="none" id="usantatecla.tictactoe.views.graphics-to-java.awt.event" style="stroke: #A80036; stroke-width: 1.0; stroke-dasharray: 7.0,7.0;"/><polygon fill="#A80036" points="719.938,231.895,714.704,223.552,715.7897,229.1037,710.238,230.1894,719.938,231.895" style="stroke: #A80036; stroke-width: 1.0;"/><!--MD5=[66d98b8acd129bfc81c3dc4c0ccc6c3a]
link usantatecla.tictactoe.views.graphics to java.swing--><path d="M670.111,172.038 C720.312,188.792 787.161,211.344 846,232 C849.947,233.386 854.014,234.828 858.108,236.291 " fill="none" id="usantatecla.tictactoe.views.graphics-to-java.swing" style="stroke: #A80036; stroke-width: 1.0; stroke-dasharray: 7.0,7.0;"/><polygon fill="#A80036" points="862.921,238.016,855.799,231.2132,858.2144,236.3285,853.0991,238.7439,862.921,238.016" style="stroke: #A80036; stroke-width: 1.0;"/><!--MD5=[7b57a0bef555f205b9af78d47b4f5f77]
link usantatecla.tictactoe.models to java.util--><path d="M267,398.245 C267,414.496 267,435.579 267,452.714 " fill="none" id="usantatecla.tictactoe.models-to-java.util" style="stroke: #A80036; stroke-width: 1.0; stroke-dasharray: 7.0,7.0;"/><polygon fill="#A80036" points="267,457.895,271,448.895,267,452.895,263,448.895,267,457.895" style="stroke: #A80036; stroke-width: 1.0;"/><!--MD5=[42e02ea2557e3656f28eb82873c5e81c]
link usantatecla.tictactoe.models to usantatecla.utils--><path d="M227.339,398.245 C201.117,415.266 166.727,437.59 139.715,455.124 " fill="none" id="usantatecla.tictactoe.models-to-usantatecla.utils" style="stroke: #A80036; stroke-width: 1.0; stroke-dasharray: 7.0,7.0;"/><polygon fill="#A80036" points="135.446,457.895,145.173,456.3503,139.64,455.1728,140.8175,449.6399,135.446,457.895" style="stroke: #A80036; stroke-width: 1.0;"/><!--MD5=[d555f048703ee882bf0d29787ed4cf6b]
link usantatecla.tictactoe.views.console to usantatecla.utils--><path d="M209.027,172.272 C199.866,189.217 187.657,211.894 177,232 C150.467,282.059 135.788,291.209 118,345 C106.1267,380.906 100.5624,424.23 98.0223,452.75 " fill="none" id="usantatecla.tictactoe.views.console-to-usantatecla.utils" style="stroke: #A80036; stroke-width: 1.0; stroke-dasharray: 7.0,7.0;"/><polygon fill="#A80036" points="97.5823,457.898,102.3341,449.2713,98.008,452.9162,94.3631,448.5901,97.5823,457.898" style="stroke: #A80036; stroke-width: 1.0;"/><!--MD5=[4cf77ad1cfcfeae6f4a54c9e58b4f749]
link usantatecla.tictactoe.views to usantatecla.tictactoe.models--><path d="M316.924,285.245 C307.326,301.636 294.849,322.943 284.769,340.156 " fill="none" id="usantatecla.tictactoe.views-to-usantatecla.tictactoe.models" style="stroke: #A80036; stroke-width: 1.0; stroke-dasharray: 7.0,7.0;"/><polygon fill="#A80036" points="281.994,344.895,289.9935,339.1498,284.5205,340.5803,283.09,335.1073,281.994,344.895" style="stroke: #A80036; stroke-width: 1.0;"/><!--MD5=[b3c593bac999a2d731e15aa97ad5a9b3]
link usantatecla.tictactoe.views.console to usantatecla.tictactoe.models--><path d="M207.914,172.127 C193.316,200.395 175.382,246.925 190,285 C198.316,306.662 214.938,326.269 230.617,341.225 " fill="none" id="usantatecla.tictactoe.views.console-to-usantatecla.tictactoe.models" style="stroke: #A80036; stroke-width: 1.0; stroke-dasharray: 7.0,7.0;"/><polygon fill="#A80036" points="234.577,344.926,230.7333,335.8581,230.9242,341.5118,225.2706,341.7026,234.577,344.926" style="stroke: #A80036; stroke-width: 1.0;"/><!--MD5=[6fee5288063968534bfbb44ee0edf2e3]
link usantatecla.tictactoe.views.graphics to usantatecla.tictactoe.models--><path d="M576.517,172.194 C555.812,202.699 517.663,253.409 474,285 C439.48,309.976 396.585,329.236 358.81,343.097 " fill="none" id="usantatecla.tictactoe.views.graphics-to-usantatecla.tictactoe.models" style="stroke: #A80036; stroke-width: 1.0; stroke-dasharray: 7.0,7.0;"/><polygon fill="#A80036" points="353.754,344.931,363.5787,345.6207,358.4541,343.2253,360.8495,338.1006,353.754,344.931" style="stroke: #A80036; stroke-width: 1.0;"/><!--MD5=[f7f372d3543268b8cc298f05137e5dac]
link usantatecla.utils to java.io--><path d="M96,511.245 C96,527.4958 96,548.5795 96,565.7139 " fill="none" id="usantatecla.utils-to-java.io" style="stroke: #A80036; stroke-width: 1.0; stroke-dasharray: 7.0,7.0;"/><polygon fill="#A80036" points="96,570.895,100,561.895,96,565.895,92,561.895,96,570.895" style="stroke: #A80036; stroke-width: 1.0;"/><!--MD5=[1cb02011dbf594c5df5d88096016bbc0]
@startuml
package usantatecla.tictactoe #DDDDDD { }
package usantatecla.tictactoe.models #DDDDDD { }
package usantatecla.tictactoe.views #DDDDDD { }
package usantatecla.tictactoe.views.console #DDDDDD { }
package usantatecla.tictactoe.views.graphics #DDDDDD { }
package usantatecla.utils #DDDDDD { }
package java.util{ }
package java.awt{ }
package java.awt.event{ }
package java.swing{ }
usantatecla.tictactoe .down.> usantatecla.tictactoe.models
usantatecla.tictactoe .down.> usantatecla.tictactoe.views.console
usantatecla.tictactoe .down.> usantatecla.tictactoe.views.graphics
usantatecla.tictactoe.views.console .down.> usantatecla.tictactoe.views
usantatecla.tictactoe.views.graphics .down.> usantatecla.tictactoe.views
usantatecla.tictactoe.views.graphics .down.> java.awt
usantatecla.tictactoe.views.graphics .down.> java.awt.event
usantatecla.tictactoe.views.graphics .down.> java.swing
usantatecla.tictactoe.models .down.> java.util
usantatecla.tictactoe.models .down.> usantatecla.utils
usantatecla.tictactoe.views.console .down.> usantatecla.utils
usantatecla.tictactoe.views .down.> usantatecla.tictactoe.models
usantatecla.tictactoe.views.console .down.> usantatecla.tictactoe.models
usantatecla.tictactoe.views.graphics .down.> usantatecla.tictactoe.models

package java.io{ }
usantatecla.utils .down.> java.io
@enduml

PlantUML version 1.2020.20beta7(Unknown compile time)
(GPL source distribution)
Java Runtime: Java(TM) SE Runtime Environment
JVM: Java HotSpot(TM) 64-Bit Server VM
Default Encoding: UTF-8
Language: en
Country: US
--></g></svg>