<?xml version="1.0" encoding="UTF-8" standalone="no"?><svg xmlns="http://www.w3.org/2000/svg" xmlns:xlink="http://www.w3.org/1999/xlink" contentScriptType="application/ecmascript" contentStyleType="text/css" height="827px" preserveAspectRatio="none" style="width:1528px;height:827px;" version="1.1" viewBox="0 0 1528 827" width="1528px" zoomAndPan="magnify"><defs><filter height="300%" id="f7n77pze10b2t" width="300%" x="-1" y="-1"><feGaussianBlur result="blurOut" stdDeviation="2.0"/><feColorMatrix in="blurOut" result="blurOut2" type="matrix" values="0 0 0 0 0 0 0 0 0 0 0 0 0 0 0 0 0 0 .4 0"/><feOffset dx="4.0" dy="4.0" in="blurOut2" result="blurOut3"/><feBlend in="SourceGraphic" in2="blurOut3" mode="normal"/></filter></defs><g><!--MD5=[afa086bbcd8ffca9f665fc482cfb293b]
cluster usantatecla.tictactoe.views.console--><polygon fill="#FFFFFF" filter="url(#f7n77pze10b2t)" points="318.5,100,620.5,100,627.5,122.2969,888.5,122.2969,888.5,702,318.5,702,318.5,100" style="stroke:#000000;stroke-width:1.5;"/><line style="stroke:#000000;stroke-width:1.5;" x1="318.5" x2="627.5" y1="122.2969" y2="122.2969"/><text fill="#000000" font-family="sans-serif" font-size="14" font-weight="bold" lengthAdjust="spacingAndGlyphs" textLength="296" x="322.5" y="114.9951">usantatecla.tictactoe.views.console</text><!--MD5=[2d43059fb2a276ac65e956d1d49a34b9]
class usantatecla.tictactoe.views.console.CoordinateView--><rect codeLine="13" fill="#FEFECE" filter="url(#f7n77pze10b2t)" height="60.8047" id="usantatecla.tictactoe.views.console.CoordinateView" style="stroke:#A80036;stroke-width:1.5;" width="162" x="707.5" y="472.5"/><ellipse cx="738.25" cy="488.5" fill="#ADD1B2" rx="11" ry="11" style="stroke:#A80036;stroke-width:1.0;"/><path d="M740.5938,484.1719 C739.6563,483.7344 739.0625,483.5938 738.1875,483.5938 C735.5625,483.5938 733.5625,485.6719 733.5625,488.3906 L733.5625,489.5156 C733.5625,492.0938 735.6719,493.9844 738.5625,493.9844 C739.7813,493.9844 740.9375,493.6875 741.6875,493.1406 C742.2656,492.7344 742.5938,492.2813 742.5938,491.8906 C742.5938,491.4375 742.2031,491.0469 741.7344,491.0469 C741.5156,491.0469 741.3125,491.125 741.125,491.3125 C740.6719,491.7969 740.6719,491.7969 740.4844,491.8906 C740.0625,492.1563 739.375,492.2813 738.6094,492.2813 C736.5625,492.2813 735.2656,491.1875 735.2656,489.4844 L735.2656,488.3906 C735.2656,486.6094 736.5156,485.2969 738.25,485.2969 C738.8281,485.2969 739.4375,485.4531 739.9063,485.7031 C740.3906,485.9844 740.5625,486.2031 740.6563,486.6094 C740.7188,487.0156 740.75,487.1406 740.8906,487.2656 C741.0313,487.4063 741.2656,487.5156 741.4844,487.5156 C741.75,487.5156 742.0156,487.375 742.1875,487.1563 C742.2969,487 742.3281,486.8125 742.3281,486.3906 L742.3281,484.9688 C742.3281,484.5313 742.3125,484.4063 742.2188,484.25 C742.0625,483.9844 741.7813,483.8438 741.4844,483.8438 C741.1875,483.8438 740.9844,483.9375 740.7656,484.25 L740.5938,484.1719 Z " fill="#000000"/><text fill="#000000" font-family="sans-serif" font-size="12" lengthAdjust="spacingAndGlyphs" textLength="95" x="755.75" y="492.6543">CoordinateView</text><line style="stroke:#A80036;stroke-width:1.5;" x1="708.5" x2="868.5" y1="504.5" y2="504.5"/><line style="stroke:#A80036;stroke-width:1.5;" x1="708.5" x2="868.5" y1="512.5" y2="512.5"/><ellipse cx="718.5" cy="523.5" fill="#84BE84" rx="3" ry="3" style="stroke:#038048;stroke-width:1.0;"/><text fill="#000000" font-family="sans-serif" font-size="11" lengthAdjust="spacingAndGlyphs" textLength="136" x="727.5" y="526.7104">read(String): Coordinate</text><!--MD5=[9a803f39cb9786b0f7bee2c1e410c567]
class usantatecla.tictactoe.views.console.ErrorView--><rect codeLine="21" fill="#FEFECE" filter="url(#f7n77pze10b2t)" height="73.6094" id="usantatecla.tictactoe.views.console.ErrorView" style="stroke:#A80036;stroke-width:1.5;" width="114" x="731.5" y="606"/><ellipse cx="756.85" cy="622" fill="#ADD1B2" rx="11" ry="11" style="stroke:#A80036;stroke-width:1.0;"/><path d="M759.1938,617.6719 C758.2563,617.2344 757.6625,617.0938 756.7875,617.0938 C754.1625,617.0938 752.1625,619.1719 752.1625,621.8906 L752.1625,623.0156 C752.1625,625.5938 754.2719,627.4844 757.1625,627.4844 C758.3813,627.4844 759.5375,627.1875 760.2875,626.6406 C760.8656,626.2344 761.1938,625.7813 761.1938,625.3906 C761.1938,624.9375 760.8031,624.5469 760.3344,624.5469 C760.1156,624.5469 759.9125,624.625 759.725,624.8125 C759.2719,625.2969 759.2719,625.2969 759.0844,625.3906 C758.6625,625.6563 757.975,625.7813 757.2094,625.7813 C755.1625,625.7813 753.8656,624.6875 753.8656,622.9844 L753.8656,621.8906 C753.8656,620.1094 755.1156,618.7969 756.85,618.7969 C757.4281,618.7969 758.0375,618.9531 758.5063,619.2031 C758.9906,619.4844 759.1625,619.7031 759.2563,620.1094 C759.3188,620.5156 759.35,620.6406 759.4906,620.7656 C759.6313,620.9063 759.8656,621.0156 760.0844,621.0156 C760.35,621.0156 760.6156,620.875 760.7875,620.6563 C760.8969,620.5 760.9281,620.3125 760.9281,619.8906 L760.9281,618.4688 C760.9281,618.0313 760.9125,617.9063 760.8188,617.75 C760.6625,617.4844 760.3813,617.3438 760.0844,617.3438 C759.7875,617.3438 759.5844,617.4375 759.3656,617.75 L759.1938,617.6719 Z " fill="#000000"/><text fill="#000000" font-family="sans-serif" font-size="12" lengthAdjust="spacingAndGlyphs" textLength="59" x="773.15" y="626.1543">ErrorView</text><line style="stroke:#A80036;stroke-width:1.5;" x1="732.5" x2="844.5" y1="638" y2="638"/><line style="stroke:#A80036;stroke-width:1.5;" x1="732.5" x2="844.5" y1="646" y2="646"/><polygon fill="#4177AF" points="742.5,653,738.5,659,746.5,659" style="stroke:#1963A0;stroke-width:1.0;"/><text fill="#000000" font-family="sans-serif" font-size="11" lengthAdjust="spacingAndGlyphs" textLength="88" x="751.5" y="660.2104">ErrorView(Error)</text><polygon fill="#4177AF" points="742.5,665.8047,738.5,671.8047,746.5,671.8047" style="stroke:#1963A0;stroke-width:1.0;"/><text fill="#000000" font-family="sans-serif" font-size="11" lengthAdjust="spacingAndGlyphs" textLength="46" x="751.5" y="673.0151">writeln()</text><!--MD5=[9fbd0fd564f3d29ff55433d812dd92c2]
class usantatecla.tictactoe.views.console.BoardView--><rect codeLine="29" fill="#FEFECE" filter="url(#f7n77pze10b2t)" height="73.6094" id="usantatecla.tictactoe.views.console.BoardView" style="stroke:#A80036;stroke-width:1.5;" width="132" x="466.5" y="466"/><ellipse cx="497.25" cy="482" fill="#ADD1B2" rx="11" ry="11" style="stroke:#A80036;stroke-width:1.0;"/><path d="M499.5938,477.6719 C498.6563,477.2344 498.0625,477.0938 497.1875,477.0938 C494.5625,477.0938 492.5625,479.1719 492.5625,481.8906 L492.5625,483.0156 C492.5625,485.5938 494.6719,487.4844 497.5625,487.4844 C498.7813,487.4844 499.9375,487.1875 500.6875,486.6406 C501.2656,486.2344 501.5938,485.7813 501.5938,485.3906 C501.5938,484.9375 501.2031,484.5469 500.7344,484.5469 C500.5156,484.5469 500.3125,484.625 500.125,484.8125 C499.6719,485.2969 499.6719,485.2969 499.4844,485.3906 C499.0625,485.6563 498.375,485.7813 497.6094,485.7813 C495.5625,485.7813 494.2656,484.6875 494.2656,482.9844 L494.2656,481.8906 C494.2656,480.1094 495.5156,478.7969 497.25,478.7969 C497.8281,478.7969 498.4375,478.9531 498.9063,479.2031 C499.3906,479.4844 499.5625,479.7031 499.6563,480.1094 C499.7188,480.5156 499.75,480.6406 499.8906,480.7656 C500.0313,480.9063 500.2656,481.0156 500.4844,481.0156 C500.75,481.0156 501.0156,480.875 501.1875,480.6563 C501.2969,480.5 501.3281,480.3125 501.3281,479.8906 L501.3281,478.4688 C501.3281,478.0313 501.3125,477.9063 501.2188,477.75 C501.0625,477.4844 500.7813,477.3438 500.4844,477.3438 C500.1875,477.3438 499.9844,477.4375 499.7656,477.75 L499.5938,477.6719 Z " fill="#000000"/><text fill="#000000" font-family="sans-serif" font-size="12" lengthAdjust="spacingAndGlyphs" textLength="65" x="514.75" y="486.1543">BoardView</text><line style="stroke:#A80036;stroke-width:1.5;" x1="467.5" x2="597.5" y1="498" y2="498"/><line style="stroke:#A80036;stroke-width:1.5;" x1="467.5" x2="597.5" y1="506" y2="506"/><polygon fill="#4177AF" points="477.5,513,473.5,519,481.5,519" style="stroke:#1963A0;stroke-width:1.0;"/><text fill="#000000" font-family="sans-serif" font-size="11" lengthAdjust="spacingAndGlyphs" textLength="106" x="486.5" y="520.2104">GameView(Game)</text><polygon fill="#4177AF" points="477.5,525.8047,473.5,531.8047,481.5,531.8047" style="stroke:#1963A0;stroke-width:1.0;"/><text fill="#000000" font-family="sans-serif" font-size="11" lengthAdjust="spacingAndGlyphs" textLength="36" x="486.5" y="533.0151">write()</text><!--MD5=[df2cc6d85b473258aa5559b0f9d313a5]
class usantatecla.tictactoe.views.console.TokenView--><rect codeLine="69" fill="#FEFECE" filter="url(#f7n77pze10b2t)" height="86.4141" id="usantatecla.tictactoe.views.console.TokenView" style="stroke:#A80036;stroke-width:1.5;" width="132" x="564.5" y="600"/><ellipse cx="594.8" cy="616" fill="#ADD1B2" rx="11" ry="11" style="stroke:#A80036;stroke-width:1.0;"/><path d="M597.1438,611.6719 C596.2063,611.2344 595.6125,611.0938 594.7375,611.0938 C592.1125,611.0938 590.1125,613.1719 590.1125,615.8906 L590.1125,617.0156 C590.1125,619.5938 592.2219,621.4844 595.1125,621.4844 C596.3313,621.4844 597.4875,621.1875 598.2375,620.6406 C598.8156,620.2344 599.1438,619.7813 599.1438,619.3906 C599.1438,618.9375 598.7531,618.5469 598.2844,618.5469 C598.0656,618.5469 597.8625,618.625 597.675,618.8125 C597.2219,619.2969 597.2219,619.2969 597.0344,619.3906 C596.6125,619.6563 595.925,619.7813 595.1594,619.7813 C593.1125,619.7813 591.8156,618.6875 591.8156,616.9844 L591.8156,615.8906 C591.8156,614.1094 593.0656,612.7969 594.8,612.7969 C595.3781,612.7969 595.9875,612.9531 596.4563,613.2031 C596.9406,613.4844 597.1125,613.7031 597.2063,614.1094 C597.2688,614.5156 597.3,614.6406 597.4406,614.7656 C597.5813,614.9063 597.8156,615.0156 598.0344,615.0156 C598.3,615.0156 598.5656,614.875 598.7375,614.6563 C598.8469,614.5 598.8781,614.3125 598.8781,613.8906 L598.8781,612.4688 C598.8781,612.0313 598.8625,611.9063 598.7688,611.75 C598.6125,611.4844 598.3313,611.3438 598.0344,611.3438 C597.7375,611.3438 597.5344,611.4375 597.3156,611.75 L597.1438,611.6719 Z " fill="#000000"/><text fill="#000000" font-family="sans-serif" font-size="12" lengthAdjust="spacingAndGlyphs" textLength="66" x="612.2" y="620.1543">TokenView</text><line style="stroke:#A80036;stroke-width:1.5;" x1="565.5" x2="695.5" y1="632" y2="632"/><ellipse cx="575.5" cy="643" fill="none" rx="3" ry="3" style="stroke:#038048;stroke-width:1.0;"/><text fill="#000000" font-family="sans-serif" font-size="11" lengthAdjust="spacingAndGlyphs" text-decoration="underline" textLength="91" x="584.5" y="646.2104">char[] SYMBOLS</text><line style="stroke:#A80036;stroke-width:1.5;" x1="565.5" x2="695.5" y1="652.8047" y2="652.8047"/><polygon fill="#4177AF" points="575.5,659.8047,571.5,665.8047,579.5,665.8047" style="stroke:#1963A0;stroke-width:1.0;"/><text fill="#000000" font-family="sans-serif" font-size="11" lengthAdjust="spacingAndGlyphs" textLength="106" x="584.5" y="667.0151">TokenView(Token)</text><polygon fill="#4177AF" points="575.5,672.6094,571.5,678.6094,579.5,678.6094" style="stroke:#1963A0;stroke-width:1.0;"/><text fill="#000000" font-family="sans-serif" font-size="11" lengthAdjust="spacingAndGlyphs" textLength="36" x="584.5" y="679.8198">write()</text><!--MD5=[945902a616e709012a060ccc6ad7ffa9]
class usantatecla.tictactoe.views.console.PlayView--><rect codeLine="38" fill="#FEFECE" filter="url(#f7n77pze10b2t)" height="112.0234" id="usantatecla.tictactoe.views.console.PlayView" style="stroke:#A80036;stroke-width:1.5;" width="248" x="624.5" y="294"/><ellipse cx="718.25" cy="310" fill="#ADD1B2" rx="11" ry="11" style="stroke:#A80036;stroke-width:1.0;"/><path d="M720.5938,305.6719 C719.6563,305.2344 719.0625,305.0938 718.1875,305.0938 C715.5625,305.0938 713.5625,307.1719 713.5625,309.8906 L713.5625,311.0156 C713.5625,313.5938 715.6719,315.4844 718.5625,315.4844 C719.7813,315.4844 720.9375,315.1875 721.6875,314.6406 C722.2656,314.2344 722.5938,313.7813 722.5938,313.3906 C722.5938,312.9375 722.2031,312.5469 721.7344,312.5469 C721.5156,312.5469 721.3125,312.625 721.125,312.8125 C720.6719,313.2969 720.6719,313.2969 720.4844,313.3906 C720.0625,313.6563 719.375,313.7813 718.6094,313.7813 C716.5625,313.7813 715.2656,312.6875 715.2656,310.9844 L715.2656,309.8906 C715.2656,308.1094 716.5156,306.7969 718.25,306.7969 C718.8281,306.7969 719.4375,306.9531 719.9063,307.2031 C720.3906,307.4844 720.5625,307.7031 720.6563,308.1094 C720.7188,308.5156 720.75,308.6406 720.8906,308.7656 C721.0313,308.9063 721.2656,309.0156 721.4844,309.0156 C721.75,309.0156 722.0156,308.875 722.1875,308.6563 C722.2969,308.5 722.3281,308.3125 722.3281,307.8906 L722.3281,306.4688 C722.3281,306.0313 722.3125,305.9063 722.2188,305.75 C722.0625,305.4844 721.7813,305.3438 721.4844,305.3438 C721.1875,305.3438 720.9844,305.4375 720.7656,305.75 L720.5938,305.6719 Z " fill="#000000"/><text fill="#000000" font-family="sans-serif" font-size="12" lengthAdjust="spacingAndGlyphs" textLength="52" x="738.75" y="314.1543">PlayView</text><line style="stroke:#A80036;stroke-width:1.5;" x1="625.5" x2="871.5" y1="326" y2="326"/><line style="stroke:#A80036;stroke-width:1.5;" x1="625.5" x2="871.5" y1="334" y2="334"/><polygon fill="#4177AF" points="635.5,341,631.5,347,639.5,347" style="stroke:#1963A0;stroke-width:1.0;"/><text fill="#000000" font-family="sans-serif" font-size="11" lengthAdjust="spacingAndGlyphs" textLength="94" x="644.5" y="348.2104">PlayView(Game)</text><polygon fill="#4177AF" points="635.5,353.8047,631.5,359.8047,639.5,359.8047" style="stroke:#1963A0;stroke-width:1.0;"/><text fill="#000000" font-family="sans-serif" font-size="11" lengthAdjust="spacingAndGlyphs" textLength="51" x="644.5" y="361.0151">interact()</text><rect fill="#F24D5C" height="6" style="stroke:#C82930;stroke-width:1.0;" width="6" x="632.5" y="367.6094"/><text fill="#000000" font-family="sans-serif" font-size="11" lengthAdjust="spacingAndGlyphs" textLength="26" x="644.5" y="373.8198">put()</text><rect fill="#F24D5C" height="6" style="stroke:#C82930;stroke-width:1.0;" width="6" x="632.5" y="380.4141"/><text fill="#000000" font-family="sans-serif" font-size="11" lengthAdjust="spacingAndGlyphs" textLength="41" x="644.5" y="386.6245">move()</text><polygon fill="#4177AF" points="635.5,392.2188,631.5,398.2188,639.5,398.2188" style="stroke:#1963A0;stroke-width:1.0;"/><text fill="#000000" font-family="sans-serif" font-size="11" lengthAdjust="spacingAndGlyphs" textLength="222" x="644.5" y="399.4292">createRandomCoordinate(): Coordinate</text><!--MD5=[9cb446a8880c694285af1ca12af0c56a]
class usantatecla.tictactoe.views.console.ResumeView--><rect codeLine="54" fill="#FEFECE" filter="url(#f7n77pze10b2t)" height="60.8047" id="usantatecla.tictactoe.views.console.ResumeView" style="stroke:#A80036;stroke-width:1.5;" width="130" x="334.5" y="319.5"/><ellipse cx="358.95" cy="335.5" fill="#ADD1B2" rx="11" ry="11" style="stroke:#A80036;stroke-width:1.0;"/><path d="M361.2938,331.1719 C360.3563,330.7344 359.7625,330.5938 358.8875,330.5938 C356.2625,330.5938 354.2625,332.6719 354.2625,335.3906 L354.2625,336.5156 C354.2625,339.0938 356.3719,340.9844 359.2625,340.9844 C360.4813,340.9844 361.6375,340.6875 362.3875,340.1406 C362.9656,339.7344 363.2938,339.2813 363.2938,338.8906 C363.2938,338.4375 362.9031,338.0469 362.4344,338.0469 C362.2156,338.0469 362.0125,338.125 361.825,338.3125 C361.3719,338.7969 361.3719,338.7969 361.1844,338.8906 C360.7625,339.1563 360.075,339.2813 359.3094,339.2813 C357.2625,339.2813 355.9656,338.1875 355.9656,336.4844 L355.9656,335.3906 C355.9656,333.6094 357.2156,332.2969 358.95,332.2969 C359.5281,332.2969 360.1375,332.4531 360.6063,332.7031 C361.0906,332.9844 361.2625,333.2031 361.3563,333.6094 C361.4188,334.0156 361.45,334.1406 361.5906,334.2656 C361.7313,334.4063 361.9656,334.5156 362.1844,334.5156 C362.45,334.5156 362.7156,334.375 362.8875,334.1563 C362.9969,334 363.0281,333.8125 363.0281,333.3906 L363.0281,331.9688 C363.0281,331.5313 363.0125,331.4063 362.9188,331.25 C362.7625,330.9844 362.4813,330.8438 362.1844,330.8438 C361.8875,330.8438 361.6844,330.9375 361.4656,331.25 L361.2938,331.1719 Z " fill="#000000"/><text fill="#000000" font-family="sans-serif" font-size="12" lengthAdjust="spacingAndGlyphs" textLength="77" x="375.05" y="339.6543">ResumeView</text><line style="stroke:#A80036;stroke-width:1.5;" x1="335.5" x2="463.5" y1="351.5" y2="351.5"/><line style="stroke:#A80036;stroke-width:1.5;" x1="335.5" x2="463.5" y1="359.5" y2="359.5"/><polygon fill="#4177AF" points="345.5,366.5,341.5,372.5,349.5,372.5" style="stroke:#1963A0;stroke-width:1.0;"/><text fill="#000000" font-family="sans-serif" font-size="11" lengthAdjust="spacingAndGlyphs" textLength="104" x="354.5" y="373.7104">interact(): boolean</text><!--MD5=[d369e2c39d77f9d1d0bcff12bf51fd8f]
class usantatecla.tictactoe.views.console.StartView--><rect codeLine="61" fill="#FEFECE" filter="url(#f7n77pze10b2t)" height="60.8047" id="usantatecla.tictactoe.views.console.StartView" style="stroke:#A80036;stroke-width:1.5;" width="89" x="500" y="319.5"/><ellipse cx="515" cy="335.5" fill="#ADD1B2" rx="11" ry="11" style="stroke:#A80036;stroke-width:1.0;"/><path d="M517.3438,331.1719 C516.4063,330.7344 515.8125,330.5938 514.9375,330.5938 C512.3125,330.5938 510.3125,332.6719 510.3125,335.3906 L510.3125,336.5156 C510.3125,339.0938 512.4219,340.9844 515.3125,340.9844 C516.5313,340.9844 517.6875,340.6875 518.4375,340.1406 C519.0156,339.7344 519.3438,339.2813 519.3438,338.8906 C519.3438,338.4375 518.9531,338.0469 518.4844,338.0469 C518.2656,338.0469 518.0625,338.125 517.875,338.3125 C517.4219,338.7969 517.4219,338.7969 517.2344,338.8906 C516.8125,339.1563 516.125,339.2813 515.3594,339.2813 C513.3125,339.2813 512.0156,338.1875 512.0156,336.4844 L512.0156,335.3906 C512.0156,333.6094 513.2656,332.2969 515,332.2969 C515.5781,332.2969 516.1875,332.4531 516.6563,332.7031 C517.1406,332.9844 517.3125,333.2031 517.4063,333.6094 C517.4688,334.0156 517.5,334.1406 517.6406,334.2656 C517.7813,334.4063 518.0156,334.5156 518.2344,334.5156 C518.5,334.5156 518.7656,334.375 518.9375,334.1563 C519.0469,334 519.0781,333.8125 519.0781,333.3906 L519.0781,331.9688 C519.0781,331.5313 519.0625,331.4063 518.9688,331.25 C518.8125,330.9844 518.5313,330.8438 518.2344,330.8438 C517.9375,330.8438 517.7344,330.9375 517.5156,331.25 L517.3438,331.1719 Z " fill="#000000"/><text fill="#000000" font-family="sans-serif" font-size="12" lengthAdjust="spacingAndGlyphs" textLength="57" x="529" y="339.6543">StartView</text><line style="stroke:#A80036;stroke-width:1.5;" x1="501" x2="588" y1="351.5" y2="351.5"/><line style="stroke:#A80036;stroke-width:1.5;" x1="501" x2="588" y1="359.5" y2="359.5"/><polygon fill="#4177AF" points="511,366.5,507,372.5,515,372.5" style="stroke:#1963A0;stroke-width:1.0;"/><text fill="#000000" font-family="sans-serif" font-size="11" lengthAdjust="spacingAndGlyphs" textLength="51" x="520" y="373.7104">interact()</text><!--MD5=[4baa47ff5c181cb53adcb8fdf670ed4f]
class usantatecla.tictactoe.views.console.ConsoleView--><rect codeLine="77" fill="#FEFECE" filter="url(#f7n77pze10b2t)" height="99.2188" id="usantatecla.tictactoe.views.console.ConsoleView" style="stroke:#A80036;stroke-width:1.5;" width="156" x="466.5" y="135"/><ellipse cx="502.2" cy="151" fill="#ADD1B2" rx="11" ry="11" style="stroke:#A80036;stroke-width:1.0;"/><path d="M504.5438,146.6719 C503.6063,146.2344 503.0125,146.0938 502.1375,146.0938 C499.5125,146.0938 497.5125,148.1719 497.5125,150.8906 L497.5125,152.0156 C497.5125,154.5938 499.6219,156.4844 502.5125,156.4844 C503.7313,156.4844 504.8875,156.1875 505.6375,155.6406 C506.2156,155.2344 506.5438,154.7813 506.5438,154.3906 C506.5438,153.9375 506.1531,153.5469 505.6844,153.5469 C505.4656,153.5469 505.2625,153.625 505.075,153.8125 C504.6219,154.2969 504.6219,154.2969 504.4344,154.3906 C504.0125,154.6563 503.325,154.7813 502.5594,154.7813 C500.5125,154.7813 499.2156,153.6875 499.2156,151.9844 L499.2156,150.8906 C499.2156,149.1094 500.4656,147.7969 502.2,147.7969 C502.7781,147.7969 503.3875,147.9531 503.8563,148.2031 C504.3406,148.4844 504.5125,148.7031 504.6063,149.1094 C504.6688,149.5156 504.7,149.6406 504.8406,149.7656 C504.9813,149.9063 505.2156,150.0156 505.4344,150.0156 C505.7,150.0156 505.9656,149.875 506.1375,149.6563 C506.2469,149.5 506.2781,149.3125 506.2781,148.8906 L506.2781,147.4688 C506.2781,147.0313 506.2625,146.9063 506.1688,146.75 C506.0125,146.4844 505.7313,146.3438 505.4344,146.3438 C505.1375,146.3438 504.9344,146.4375 504.7156,146.75 L504.5438,146.6719 Z " fill="#000000"/><text fill="#000000" font-family="sans-serif" font-size="12" lengthAdjust="spacingAndGlyphs" textLength="78" x="520.8" y="155.1543">ConsoleView</text><line style="stroke:#A80036;stroke-width:1.5;" x1="467.5" x2="621.5" y1="167" y2="167"/><line style="stroke:#A80036;stroke-width:1.5;" x1="467.5" x2="621.5" y1="175" y2="175"/><ellipse cx="477.5" cy="186" fill="#84BE84" rx="3" ry="3" style="stroke:#038048;stroke-width:1.0;"/><text fill="#000000" font-family="sans-serif" font-size="11" lengthAdjust="spacingAndGlyphs" textLength="117" x="486.5" y="189.2104">ConsoleView(Game)</text><polygon fill="#FFFF44" points="477.5,193.8047,481.5,197.8047,477.5,201.8047,473.5,197.8047" style="stroke:#B38D22;stroke-width:1.0;"/><text fill="#000000" font-family="sans-serif" font-size="11" lengthAdjust="spacingAndGlyphs" textLength="33" x="486.5" y="202.0151">start()</text><polygon fill="#FFFF44" points="477.5,206.6094,481.5,210.6094,477.5,214.6094,473.5,210.6094" style="stroke:#B38D22;stroke-width:1.0;"/><text fill="#000000" font-family="sans-serif" font-size="11" lengthAdjust="spacingAndGlyphs" textLength="32" x="486.5" y="214.8198">play()</text><polygon fill="#FFFF44" points="477.5,219.4141,481.5,223.4141,477.5,227.4141,473.5,223.4141" style="stroke:#B38D22;stroke-width:1.0;"/><text fill="#000000" font-family="sans-serif" font-size="11" lengthAdjust="spacingAndGlyphs" textLength="130" x="486.5" y="227.6245">isNewGame(): boolean</text><!--MD5=[b6dcce5e5ef3c84b0b048d11301373dd]
class Game--><rect codeLine="1" fill="#FEFECE" filter="url(#f7n77pze10b2t)" height="67.9063" id="Game" style="stroke:#A80036;stroke-width:1.5;" width="135" x="167" y="609"/><ellipse cx="182" cy="634.9531" fill="#ADD1B2" rx="11" ry="11" style="stroke:#A80036;stroke-width:1.0;"/><path d="M184.3438,630.625 C183.4063,630.1875 182.8125,630.0469 181.9375,630.0469 C179.3125,630.0469 177.3125,632.125 177.3125,634.8438 L177.3125,635.9688 C177.3125,638.5469 179.4219,640.4375 182.3125,640.4375 C183.5313,640.4375 184.6875,640.1406 185.4375,639.5938 C186.0156,639.1875 186.3438,638.7344 186.3438,638.3438 C186.3438,637.8906 185.9531,637.5 185.4844,637.5 C185.2656,637.5 185.0625,637.5781 184.875,637.7656 C184.4219,638.25 184.4219,638.25 184.2344,638.3438 C183.8125,638.6094 183.125,638.7344 182.3594,638.7344 C180.3125,638.7344 179.0156,637.6406 179.0156,635.9375 L179.0156,634.8438 C179.0156,633.0625 180.2656,631.75 182,631.75 C182.5781,631.75 183.1875,631.9063 183.6563,632.1563 C184.1406,632.4375 184.3125,632.6563 184.4063,633.0625 C184.4688,633.4688 184.5,633.5938 184.6406,633.7188 C184.7813,633.8594 185.0156,633.9688 185.2344,633.9688 C185.5,633.9688 185.7656,633.8281 185.9375,633.6094 C186.0469,633.4531 186.0781,633.2656 186.0781,632.8438 L186.0781,631.4219 C186.0781,630.9844 186.0625,630.8594 185.9688,630.7031 C185.8125,630.4375 185.5313,630.2969 185.2344,630.2969 C184.9375,630.2969 184.7344,630.3906 184.5156,630.7031 L184.3438,630.625 Z " fill="#000000"/><text fill="#000000" font-family="sans-serif" font-size="12" lengthAdjust="spacingAndGlyphs" textLength="71" x="212" y="625.1387">usantatecla.</text><text fill="#000000" font-family="sans-serif" font-size="12" lengthAdjust="spacingAndGlyphs" textLength="103" x="196" y="639.1074">tictactoe.models.</text><text fill="#000000" font-family="sans-serif" font-size="12" lengthAdjust="spacingAndGlyphs" textLength="35" x="230" y="653.0762">Game</text><line style="stroke:#A80036;stroke-width:1.5;" x1="168" x2="301" y1="660.9063" y2="660.9063"/><line style="stroke:#A80036;stroke-width:1.5;" x1="168" x2="301" y1="668.9063" y2="668.9063"/><!--MD5=[8c7d7abc12e214c3cc12c9ab70edee11]
class Coordinate--><rect codeLine="2" fill="#FEFECE" filter="url(#f7n77pze10b2t)" height="67.9063" id="Coordinate" style="stroke:#A80036;stroke-width:1.5;" width="135" x="952" y="609"/><ellipse cx="967" cy="634.9531" fill="#ADD1B2" rx="11" ry="11" style="stroke:#A80036;stroke-width:1.0;"/><path d="M969.3438,630.625 C968.4063,630.1875 967.8125,630.0469 966.9375,630.0469 C964.3125,630.0469 962.3125,632.125 962.3125,634.8438 L962.3125,635.9688 C962.3125,638.5469 964.4219,640.4375 967.3125,640.4375 C968.5313,640.4375 969.6875,640.1406 970.4375,639.5938 C971.0156,639.1875 971.3438,638.7344 971.3438,638.3438 C971.3438,637.8906 970.9531,637.5 970.4844,637.5 C970.2656,637.5 970.0625,637.5781 969.875,637.7656 C969.4219,638.25 969.4219,638.25 969.2344,638.3438 C968.8125,638.6094 968.125,638.7344 967.3594,638.7344 C965.3125,638.7344 964.0156,637.6406 964.0156,635.9375 L964.0156,634.8438 C964.0156,633.0625 965.2656,631.75 967,631.75 C967.5781,631.75 968.1875,631.9063 968.6563,632.1563 C969.1406,632.4375 969.3125,632.6563 969.4063,633.0625 C969.4688,633.4688 969.5,633.5938 969.6406,633.7188 C969.7813,633.8594 970.0156,633.9688 970.2344,633.9688 C970.5,633.9688 970.7656,633.8281 970.9375,633.6094 C971.0469,633.4531 971.0781,633.2656 971.0781,632.8438 L971.0781,631.4219 C971.0781,630.9844 971.0625,630.8594 970.9688,630.7031 C970.8125,630.4375 970.5313,630.2969 970.2344,630.2969 C969.9375,630.2969 969.7344,630.3906 969.5156,630.7031 L969.3438,630.625 Z " fill="#000000"/><text fill="#000000" font-family="sans-serif" font-size="12" lengthAdjust="spacingAndGlyphs" textLength="71" x="997" y="625.1387">usantatecla.</text><text fill="#000000" font-family="sans-serif" font-size="12" lengthAdjust="spacingAndGlyphs" textLength="103" x="981" y="639.1074">tictactoe.models.</text><text fill="#000000" font-family="sans-serif" font-size="12" lengthAdjust="spacingAndGlyphs" textLength="66" x="999.5" y="653.0762">Coordinate</text><line style="stroke:#A80036;stroke-width:1.5;" x1="953" x2="1086" y1="660.9063" y2="660.9063"/><line style="stroke:#A80036;stroke-width:1.5;" x1="953" x2="1086" y1="668.9063" y2="668.9063"/><!--MD5=[b8cfd8c4119a3b0a7a46bfc5fc780f85]
class Error--><rect codeLine="3" fill="#FEFECE" filter="url(#f7n77pze10b2t)" height="67.9063" id="Error" style="stroke:#A80036;stroke-width:1.5;" width="124" x="836.5" y="746"/><ellipse cx="851.5" cy="771.9531" fill="#EB937F" rx="11" ry="11" style="stroke:#A80036;stroke-width:1.0;"/><path d="M850.2969,772.8281 L851.75,772.8281 L851.75,772.9375 C851.75,773.3438 851.7813,773.5 851.8594,773.6563 C852.0156,773.9063 852.2969,774.0625 852.5938,774.0625 C852.8438,774.0625 853.1094,773.9219 853.2656,773.7031 C853.3906,773.5469 853.4219,773.3906 853.4219,772.9375 L853.4219,771.0156 C853.4219,770.8594 853.4219,770.8125 853.4063,770.6563 C853.3438,770.1875 853.0313,769.875 852.5781,769.875 C852.3281,769.875 852.0625,770.0156 851.8906,770.2344 C851.7813,770.4063 851.75,770.5625 851.75,771.0156 L851.75,771.1406 L850.2969,771.1406 L850.2969,768.7344 L854.2813,768.7344 L854.2813,769.5938 C854.2813,770 854.3125,770.1719 854.3906,770.3281 C854.5625,770.5781 854.8438,770.7344 855.125,770.7344 C855.3906,770.7344 855.6563,770.5938 855.8281,770.375 C855.9375,770.2031 855.9688,770.0625 855.9688,769.5938 L855.9688,767.0469 L848.3438,767.0469 C847.9063,767.0469 847.7813,767.0625 847.625,767.1563 C847.375,767.3125 847.2188,767.6094 847.2188,767.8906 C847.2188,768.1719 847.3594,768.4219 847.5781,768.5938 C847.7344,768.7031 847.9219,768.7344 848.3438,768.7344 L848.5938,768.7344 L848.5938,775.25 L848.3438,775.25 C847.9375,775.25 847.7813,775.2656 847.625,775.375 C847.375,775.5469 847.2188,775.8125 847.2188,776.1094 C847.2188,776.375 847.3594,776.625 847.5781,776.7813 C847.7188,776.9063 847.9531,776.9531 848.3438,776.9531 L856.3438,776.9531 L856.3438,774.375 C856.3438,773.9375 856.3125,773.7969 856.2344,773.6406 C856.0625,773.3906 855.7813,773.2344 855.5,773.2344 C855.2344,773.2344 854.9688,773.3438 854.7969,773.5938 C854.6875,773.75 854.6563,773.8906 854.6563,774.375 L854.6563,775.25 L850.2969,775.25 L850.2969,772.8281 Z " fill="#000000"/><text fill="#000000" font-family="sans-serif" font-size="12" lengthAdjust="spacingAndGlyphs" textLength="71" x="876" y="762.1387">usantatecla.</text><text fill="#000000" font-family="sans-serif" font-size="12" lengthAdjust="spacingAndGlyphs" textLength="92" x="865.5" y="776.1074">tictactoe.types.</text><text fill="#000000" font-family="sans-serif" font-size="12" lengthAdjust="spacingAndGlyphs" textLength="30" x="896.5" y="790.0762">Error</text><line style="stroke:#A80036;stroke-width:1.5;" x1="837.5" x2="959.5" y1="797.9063" y2="797.9063"/><line style="stroke:#A80036;stroke-width:1.5;" x1="837.5" x2="959.5" y1="805.9063" y2="805.9063"/><!--MD5=[d8c8cfd5ca149094f5b67f9f607a5ec7]
class Token--><rect codeLine="4" fill="#FEFECE" filter="url(#f7n77pze10b2t)" height="67.9063" id="Token" style="stroke:#A80036;stroke-width:1.5;" width="124" x="479.5" y="746"/><ellipse cx="494.5" cy="771.9531" fill="#EB937F" rx="11" ry="11" style="stroke:#A80036;stroke-width:1.0;"/><path d="M493.2969,772.8281 L494.75,772.8281 L494.75,772.9375 C494.75,773.3438 494.7813,773.5 494.8594,773.6563 C495.0156,773.9063 495.2969,774.0625 495.5938,774.0625 C495.8438,774.0625 496.1094,773.9219 496.2656,773.7031 C496.3906,773.5469 496.4219,773.3906 496.4219,772.9375 L496.4219,771.0156 C496.4219,770.8594 496.4219,770.8125 496.4063,770.6563 C496.3438,770.1875 496.0313,769.875 495.5781,769.875 C495.3281,769.875 495.0625,770.0156 494.8906,770.2344 C494.7813,770.4063 494.75,770.5625 494.75,771.0156 L494.75,771.1406 L493.2969,771.1406 L493.2969,768.7344 L497.2813,768.7344 L497.2813,769.5938 C497.2813,770 497.3125,770.1719 497.3906,770.3281 C497.5625,770.5781 497.8438,770.7344 498.125,770.7344 C498.3906,770.7344 498.6563,770.5938 498.8281,770.375 C498.9375,770.2031 498.9688,770.0625 498.9688,769.5938 L498.9688,767.0469 L491.3438,767.0469 C490.9063,767.0469 490.7813,767.0625 490.625,767.1563 C490.375,767.3125 490.2188,767.6094 490.2188,767.8906 C490.2188,768.1719 490.3594,768.4219 490.5781,768.5938 C490.7344,768.7031 490.9219,768.7344 491.3438,768.7344 L491.5938,768.7344 L491.5938,775.25 L491.3438,775.25 C490.9375,775.25 490.7813,775.2656 490.625,775.375 C490.375,775.5469 490.2188,775.8125 490.2188,776.1094 C490.2188,776.375 490.3594,776.625 490.5781,776.7813 C490.7188,776.9063 490.9531,776.9531 491.3438,776.9531 L499.3438,776.9531 L499.3438,774.375 C499.3438,773.9375 499.3125,773.7969 499.2344,773.6406 C499.0625,773.3906 498.7813,773.2344 498.5,773.2344 C498.2344,773.2344 497.9688,773.3438 497.7969,773.5938 C497.6875,773.75 497.6563,773.8906 497.6563,774.375 L497.6563,775.25 L493.2969,775.25 L493.2969,772.8281 Z " fill="#000000"/><text fill="#000000" font-family="sans-serif" font-size="12" lengthAdjust="spacingAndGlyphs" textLength="71" x="519" y="762.1387">usantatecla.</text><text fill="#000000" font-family="sans-serif" font-size="12" lengthAdjust="spacingAndGlyphs" textLength="92" x="508.5" y="776.1074">tictactoe.types.</text><text fill="#000000" font-family="sans-serif" font-size="12" lengthAdjust="spacingAndGlyphs" textLength="37" x="536" y="790.0762">Token</text><line style="stroke:#A80036;stroke-width:1.5;" x1="480.5" x2="602.5" y1="797.9063" y2="797.9063"/><line style="stroke:#A80036;stroke-width:1.5;" x1="480.5" x2="602.5" y1="805.9063" y2="805.9063"/><!--MD5=[7059a5f302e4e3b4548b41bc8112a332]
class WithGameView--><rect codeLine="5" fill="#FEFECE" filter="url(#f7n77pze10b2t)" height="67.9063" id="WithGameView" style="stroke:#A80036;stroke-width:1.5;" width="126" x="904.5" y="150.5"/><ellipse cx="919.5" cy="176.4531" fill="#A9DCDF" rx="11" ry="11" style="stroke:#A80036;stroke-width:1.0;"/><path d="M921.5781,178.2656 L921.9688,179.25 L921.5781,179.25 C921.125,179.25 921.0156,179.2656 920.8594,179.375 C920.6094,179.5313 920.4531,179.8125 920.4531,180.1094 C920.4531,180.375 920.5938,180.625 920.8125,180.7813 C920.9531,180.9063 921.1563,180.9531 921.5781,180.9531 L923.9375,180.9531 C924.2969,180.9531 924.5156,180.9219 924.6563,180.8281 C924.9063,180.6875 925.0625,180.3906 925.0625,180.1094 C925.0625,179.8281 924.9219,179.5781 924.7031,179.4219 C924.5313,179.2813 924.375,179.25 923.9063,179.25 L920.5156,171.0469 L916.8438,171.0469 C916.3906,171.0469 916.2656,171.0625 916.1094,171.1563 C915.8594,171.3281 915.7031,171.6094 915.7031,171.8906 C915.7031,172.1719 915.8438,172.4219 916.0625,172.5938 C916.2344,172.7031 916.4063,172.7344 916.8438,172.7344 L917.9219,172.7344 L915.2813,179.25 C914.8594,179.25 914.7031,179.2656 914.5469,179.375 C914.2969,179.5313 914.1406,179.8125 914.1406,180.1094 C914.1406,180.6719 914.5156,180.9531 915.2656,180.9531 L917.5313,180.9531 C917.8906,180.9531 918.1094,180.9219 918.2344,180.8281 C918.5,180.6875 918.6406,180.3906 918.6406,180.1094 C918.6406,179.8281 918.5156,179.5781 918.2969,179.4063 C918.125,179.2813 917.9844,179.25 917.5313,179.25 L917.1406,179.25 L917.5313,178.2656 L921.5781,178.2656 Z M920.875,176.5625 L918.2031,176.5625 L919.5469,173.2969 L920.875,176.5625 Z " fill="#000000"/><text fill="#000000" font-family="sans-serif" font-size="12" font-style="italic" lengthAdjust="spacingAndGlyphs" textLength="74" x="943.5" y="166.6387">usantatecla.</text><text fill="#000000" font-family="sans-serif" font-size="12" font-style="italic" lengthAdjust="spacingAndGlyphs" textLength="94" x="933.5" y="180.6074">tictactoe.views.</text><text fill="#000000" font-family="sans-serif" font-size="12" font-style="italic" lengthAdjust="spacingAndGlyphs" textLength="91" x="935" y="194.5762">WithGameView</text><line style="stroke:#A80036;stroke-width:1.5;" x1="905.5" x2="1029.5" y1="202.4063" y2="202.4063"/><line style="stroke:#A80036;stroke-width:1.5;" x1="905.5" x2="1029.5" y1="210.4063" y2="210.4063"/><!--MD5=[c045e12321b83266d36d22b9096c24ea]
class View--><rect codeLine="6" fill="#FEFECE" filter="url(#f7n77pze10b2t)" height="67.9063" id="View" style="stroke:#A80036;stroke-width:1.5;" width="126" x="481.5" y="7"/><ellipse cx="496.5" cy="32.9531" fill="#A9DCDF" rx="11" ry="11" style="stroke:#A80036;stroke-width:1.0;"/><path d="M498.5781,34.7656 L498.9688,35.75 L498.5781,35.75 C498.125,35.75 498.0156,35.7656 497.8594,35.875 C497.6094,36.0313 497.4531,36.3125 497.4531,36.6094 C497.4531,36.875 497.5938,37.125 497.8125,37.2813 C497.9531,37.4063 498.1563,37.4531 498.5781,37.4531 L500.9375,37.4531 C501.2969,37.4531 501.5156,37.4219 501.6563,37.3281 C501.9063,37.1875 502.0625,36.8906 502.0625,36.6094 C502.0625,36.3281 501.9219,36.0781 501.7031,35.9219 C501.5313,35.7813 501.375,35.75 500.9063,35.75 L497.5156,27.5469 L493.8438,27.5469 C493.3906,27.5469 493.2656,27.5625 493.1094,27.6563 C492.8594,27.8281 492.7031,28.1094 492.7031,28.3906 C492.7031,28.6719 492.8438,28.9219 493.0625,29.0938 C493.2344,29.2031 493.4063,29.2344 493.8438,29.2344 L494.9219,29.2344 L492.2813,35.75 C491.8594,35.75 491.7031,35.7656 491.5469,35.875 C491.2969,36.0313 491.1406,36.3125 491.1406,36.6094 C491.1406,37.1719 491.5156,37.4531 492.2656,37.4531 L494.5313,37.4531 C494.8906,37.4531 495.1094,37.4219 495.2344,37.3281 C495.5,37.1875 495.6406,36.8906 495.6406,36.6094 C495.6406,36.3281 495.5156,36.0781 495.2969,35.9063 C495.125,35.7813 494.9844,35.75 494.5313,35.75 L494.1406,35.75 L494.5313,34.7656 L498.5781,34.7656 Z M497.875,33.0625 L495.2031,33.0625 L496.5469,29.7969 L497.875,33.0625 Z " fill="#000000"/><text fill="#000000" font-family="sans-serif" font-size="12" font-style="italic" lengthAdjust="spacingAndGlyphs" textLength="74" x="520.5" y="23.1387">usantatecla.</text><text fill="#000000" font-family="sans-serif" font-size="12" font-style="italic" lengthAdjust="spacingAndGlyphs" textLength="94" x="510.5" y="37.1074">tictactoe.views.</text><text fill="#000000" font-family="sans-serif" font-size="12" font-style="italic" lengthAdjust="spacingAndGlyphs" textLength="28" x="543.5" y="51.0762">View</text><line style="stroke:#A80036;stroke-width:1.5;" x1="482.5" x2="606.5" y1="58.9063" y2="58.9063"/><line style="stroke:#A80036;stroke-width:1.5;" x1="482.5" x2="606.5" y1="66.9063" y2="66.9063"/><!--MD5=[86cec68673cafdfc1c204348d5b2cca6]
class ErrorView--><rect codeLine="7" fill="#FEFECE" filter="url(#f7n77pze10b2t)" height="67.9063" id="ErrorView" style="stroke:#A80036;stroke-width:1.5;" width="126" x="1210.5" y="469"/><ellipse cx="1225.5" cy="494.9531" fill="#A9DCDF" rx="11" ry="11" style="stroke:#A80036;stroke-width:1.0;"/><path d="M1227.5781,496.7656 L1227.9688,497.75 L1227.5781,497.75 C1227.125,497.75 1227.0156,497.7656 1226.8594,497.875 C1226.6094,498.0313 1226.4531,498.3125 1226.4531,498.6094 C1226.4531,498.875 1226.5938,499.125 1226.8125,499.2813 C1226.9531,499.4063 1227.1563,499.4531 1227.5781,499.4531 L1229.9375,499.4531 C1230.2969,499.4531 1230.5156,499.4219 1230.6563,499.3281 C1230.9063,499.1875 1231.0625,498.8906 1231.0625,498.6094 C1231.0625,498.3281 1230.9219,498.0781 1230.7031,497.9219 C1230.5313,497.7813 1230.375,497.75 1229.9063,497.75 L1226.5156,489.5469 L1222.8438,489.5469 C1222.3906,489.5469 1222.2656,489.5625 1222.1094,489.6563 C1221.8594,489.8281 1221.7031,490.1094 1221.7031,490.3906 C1221.7031,490.6719 1221.8438,490.9219 1222.0625,491.0938 C1222.2344,491.2031 1222.4063,491.2344 1222.8438,491.2344 L1223.9219,491.2344 L1221.2813,497.75 C1220.8594,497.75 1220.7031,497.7656 1220.5469,497.875 C1220.2969,498.0313 1220.1406,498.3125 1220.1406,498.6094 C1220.1406,499.1719 1220.5156,499.4531 1221.2656,499.4531 L1223.5313,499.4531 C1223.8906,499.4531 1224.1094,499.4219 1224.2344,499.3281 C1224.5,499.1875 1224.6406,498.8906 1224.6406,498.6094 C1224.6406,498.3281 1224.5156,498.0781 1224.2969,497.9063 C1224.125,497.7813 1223.9844,497.75 1223.5313,497.75 L1223.1406,497.75 L1223.5313,496.7656 L1227.5781,496.7656 Z M1226.875,495.0625 L1224.2031,495.0625 L1225.5469,491.7969 L1226.875,495.0625 Z " fill="#000000"/><text fill="#000000" font-family="sans-serif" font-size="12" font-style="italic" lengthAdjust="spacingAndGlyphs" textLength="74" x="1249.5" y="485.1387">usantatecla.</text><text fill="#000000" font-family="sans-serif" font-size="12" font-style="italic" lengthAdjust="spacingAndGlyphs" textLength="94" x="1239.5" y="499.1074">tictactoe.views.</text><text fill="#000000" font-family="sans-serif" font-size="12" font-style="italic" lengthAdjust="spacingAndGlyphs" textLength="58" x="1257.5" y="513.0762">ErrorView</text><line style="stroke:#A80036;stroke-width:1.5;" x1="1211.5" x2="1335.5" y1="520.9063" y2="520.9063"/><line style="stroke:#A80036;stroke-width:1.5;" x1="1211.5" x2="1335.5" y1="528.9063" y2="528.9063"/><!--MD5=[bea5b0d46523efab5ea1c1d339f396f0]
class Message--><rect codeLine="8" fill="#FEFECE" filter="url(#f7n77pze10b2t)" height="67.9063" id="Message" style="stroke:#A80036;stroke-width:1.5;" width="125" x="7" y="609"/><ellipse cx="22" cy="634.9531" fill="#ADD1B2" rx="11" ry="11" style="stroke:#A80036;stroke-width:1.0;"/><path d="M24.3438,630.625 C23.4063,630.1875 22.8125,630.0469 21.9375,630.0469 C19.3125,630.0469 17.3125,632.125 17.3125,634.8438 L17.3125,635.9688 C17.3125,638.5469 19.4219,640.4375 22.3125,640.4375 C23.5313,640.4375 24.6875,640.1406 25.4375,639.5938 C26.0156,639.1875 26.3438,638.7344 26.3438,638.3438 C26.3438,637.8906 25.9531,637.5 25.4844,637.5 C25.2656,637.5 25.0625,637.5781 24.875,637.7656 C24.4219,638.25 24.4219,638.25 24.2344,638.3438 C23.8125,638.6094 23.125,638.7344 22.3594,638.7344 C20.3125,638.7344 19.0156,637.6406 19.0156,635.9375 L19.0156,634.8438 C19.0156,633.0625 20.2656,631.75 22,631.75 C22.5781,631.75 23.1875,631.9063 23.6563,632.1563 C24.1406,632.4375 24.3125,632.6563 24.4063,633.0625 C24.4688,633.4688 24.5,633.5938 24.6406,633.7188 C24.7813,633.8594 25.0156,633.9688 25.2344,633.9688 C25.5,633.9688 25.7656,633.8281 25.9375,633.6094 C26.0469,633.4531 26.0781,633.2656 26.0781,632.8438 L26.0781,631.4219 C26.0781,630.9844 26.0625,630.8594 25.9688,630.7031 C25.8125,630.4375 25.5313,630.2969 25.2344,630.2969 C24.9375,630.2969 24.7344,630.3906 24.5156,630.7031 L24.3438,630.625 Z " fill="#000000"/><text fill="#000000" font-family="sans-serif" font-size="12" lengthAdjust="spacingAndGlyphs" textLength="71" x="47" y="625.1387">usantatecla.</text><text fill="#000000" font-family="sans-serif" font-size="12" lengthAdjust="spacingAndGlyphs" textLength="93" x="36" y="639.1074">tictactoe.views.</text><text fill="#000000" font-family="sans-serif" font-size="12" lengthAdjust="spacingAndGlyphs" textLength="55" x="55" y="653.0762">Message</text><line style="stroke:#A80036;stroke-width:1.5;" x1="8" x2="131" y1="660.9063" y2="660.9063"/><line style="stroke:#A80036;stroke-width:1.5;" x1="8" x2="131" y1="668.9063" y2="668.9063"/><!--MD5=[315b61b427ec618d6861d47eee00cca3]
class Console--><rect codeLine="9" fill="#FEFECE" filter="url(#f7n77pze10b2t)" height="67.9063" id="Console" style="stroke:#A80036;stroke-width:1.5;" width="103" x="639" y="746"/><ellipse cx="654" cy="771.9531" fill="#ADD1B2" rx="11" ry="11" style="stroke:#A80036;stroke-width:1.0;"/><path d="M656.3438,767.625 C655.4063,767.1875 654.8125,767.0469 653.9375,767.0469 C651.3125,767.0469 649.3125,769.125 649.3125,771.8438 L649.3125,772.9688 C649.3125,775.5469 651.4219,777.4375 654.3125,777.4375 C655.5313,777.4375 656.6875,777.1406 657.4375,776.5938 C658.0156,776.1875 658.3438,775.7344 658.3438,775.3438 C658.3438,774.8906 657.9531,774.5 657.4844,774.5 C657.2656,774.5 657.0625,774.5781 656.875,774.7656 C656.4219,775.25 656.4219,775.25 656.2344,775.3438 C655.8125,775.6094 655.125,775.7344 654.3594,775.7344 C652.3125,775.7344 651.0156,774.6406 651.0156,772.9375 L651.0156,771.8438 C651.0156,770.0625 652.2656,768.75 654,768.75 C654.5781,768.75 655.1875,768.9063 655.6563,769.1563 C656.1406,769.4375 656.3125,769.6563 656.4063,770.0625 C656.4688,770.4688 656.5,770.5938 656.6406,770.7188 C656.7813,770.8594 657.0156,770.9688 657.2344,770.9688 C657.5,770.9688 657.7656,770.8281 657.9375,770.6094 C658.0469,770.4531 658.0781,770.2656 658.0781,769.8438 L658.0781,768.4219 C658.0781,767.9844 658.0625,767.8594 657.9688,767.7031 C657.8125,767.4375 657.5313,767.2969 657.2344,767.2969 C656.9375,767.2969 656.7344,767.3906 656.5156,767.7031 L656.3438,767.625 Z " fill="#000000"/><text fill="#000000" font-family="sans-serif" font-size="12" lengthAdjust="spacingAndGlyphs" textLength="71" x="668" y="762.1387">usantatecla.</text><text fill="#000000" font-family="sans-serif" font-size="12" lengthAdjust="spacingAndGlyphs" textLength="27" x="690" y="776.1074">utils.</text><text fill="#000000" font-family="sans-serif" font-size="12" lengthAdjust="spacingAndGlyphs" textLength="49" x="679" y="790.0762">Console</text><line style="stroke:#A80036;stroke-width:1.5;" x1="640" x2="741" y1="797.9063" y2="797.9063"/><line style="stroke:#A80036;stroke-width:1.5;" x1="640" x2="741" y1="805.9063" y2="805.9063"/><!--MD5=[d93cf99d2b92276f27fe8dbf15140505]
class YesNoDialog--><rect codeLine="10" fill="#FEFECE" filter="url(#f7n77pze10b2t)" height="67.9063" id="YesNoDialog" style="stroke:#A80036;stroke-width:1.5;" width="108" x="904.5" y="469"/><ellipse cx="919.5" cy="494.9531" fill="#ADD1B2" rx="11" ry="11" style="stroke:#A80036;stroke-width:1.0;"/><path d="M921.8438,490.625 C920.9063,490.1875 920.3125,490.0469 919.4375,490.0469 C916.8125,490.0469 914.8125,492.125 914.8125,494.8438 L914.8125,495.9688 C914.8125,498.5469 916.9219,500.4375 919.8125,500.4375 C921.0313,500.4375 922.1875,500.1406 922.9375,499.5938 C923.5156,499.1875 923.8438,498.7344 923.8438,498.3438 C923.8438,497.8906 923.4531,497.5 922.9844,497.5 C922.7656,497.5 922.5625,497.5781 922.375,497.7656 C921.9219,498.25 921.9219,498.25 921.7344,498.3438 C921.3125,498.6094 920.625,498.7344 919.8594,498.7344 C917.8125,498.7344 916.5156,497.6406 916.5156,495.9375 L916.5156,494.8438 C916.5156,493.0625 917.7656,491.75 919.5,491.75 C920.0781,491.75 920.6875,491.9063 921.1563,492.1563 C921.6406,492.4375 921.8125,492.6563 921.9063,493.0625 C921.9688,493.4688 922,493.5938 922.1406,493.7188 C922.2813,493.8594 922.5156,493.9688 922.7344,493.9688 C923,493.9688 923.2656,493.8281 923.4375,493.6094 C923.5469,493.4531 923.5781,493.2656 923.5781,492.8438 L923.5781,491.4219 C923.5781,490.9844 923.5625,490.8594 923.4688,490.7031 C923.3125,490.4375 923.0313,490.2969 922.7344,490.2969 C922.4375,490.2969 922.2344,490.3906 922.0156,490.7031 L921.8438,490.625 Z " fill="#000000"/><text fill="#000000" font-family="sans-serif" font-size="12" lengthAdjust="spacingAndGlyphs" textLength="71" x="936" y="485.1387">usantatecla.</text><text fill="#000000" font-family="sans-serif" font-size="12" lengthAdjust="spacingAndGlyphs" textLength="27" x="958" y="499.1074">utils.</text><text fill="#000000" font-family="sans-serif" font-size="12" lengthAdjust="spacingAndGlyphs" textLength="76" x="933.5" y="513.0762">YesNoDialog</text><line style="stroke:#A80036;stroke-width:1.5;" x1="905.5" x2="1011.5" y1="520.9063" y2="520.9063"/><line style="stroke:#A80036;stroke-width:1.5;" x1="905.5" x2="1011.5" y1="528.9063" y2="528.9063"/><!--MD5=[58767b3ac92ed88fc68bd4b9dc66dad3]
class LimitedIntDialog--><rect codeLine="11" fill="#FEFECE" filter="url(#f7n77pze10b2t)" height="67.9063" id="LimitedIntDialog" style="stroke:#A80036;stroke-width:1.5;" width="127" x="1048" y="469"/><ellipse cx="1063" cy="494.9531" fill="#ADD1B2" rx="11" ry="11" style="stroke:#A80036;stroke-width:1.0;"/><path d="M1065.3438,490.625 C1064.4063,490.1875 1063.8125,490.0469 1062.9375,490.0469 C1060.3125,490.0469 1058.3125,492.125 1058.3125,494.8438 L1058.3125,495.9688 C1058.3125,498.5469 1060.4219,500.4375 1063.3125,500.4375 C1064.5313,500.4375 1065.6875,500.1406 1066.4375,499.5938 C1067.0156,499.1875 1067.3438,498.7344 1067.3438,498.3438 C1067.3438,497.8906 1066.9531,497.5 1066.4844,497.5 C1066.2656,497.5 1066.0625,497.5781 1065.875,497.7656 C1065.4219,498.25 1065.4219,498.25 1065.2344,498.3438 C1064.8125,498.6094 1064.125,498.7344 1063.3594,498.7344 C1061.3125,498.7344 1060.0156,497.6406 1060.0156,495.9375 L1060.0156,494.8438 C1060.0156,493.0625 1061.2656,491.75 1063,491.75 C1063.5781,491.75 1064.1875,491.9063 1064.6563,492.1563 C1065.1406,492.4375 1065.3125,492.6563 1065.4063,493.0625 C1065.4688,493.4688 1065.5,493.5938 1065.6406,493.7188 C1065.7813,493.8594 1066.0156,493.9688 1066.2344,493.9688 C1066.5,493.9688 1066.7656,493.8281 1066.9375,493.6094 C1067.0469,493.4531 1067.0781,493.2656 1067.0781,492.8438 L1067.0781,491.4219 C1067.0781,490.9844 1067.0625,490.8594 1066.9688,490.7031 C1066.8125,490.4375 1066.5313,490.2969 1066.2344,490.2969 C1065.9375,490.2969 1065.7344,490.3906 1065.5156,490.7031 L1065.3438,490.625 Z " fill="#000000"/><text fill="#000000" font-family="sans-serif" font-size="12" lengthAdjust="spacingAndGlyphs" textLength="71" x="1089" y="485.1387">usantatecla.</text><text fill="#000000" font-family="sans-serif" font-size="12" lengthAdjust="spacingAndGlyphs" textLength="27" x="1111" y="499.1074">utils.</text><text fill="#000000" font-family="sans-serif" font-size="12" lengthAdjust="spacingAndGlyphs" textLength="95" x="1077" y="513.0762">LimitedIntDialog</text><line style="stroke:#A80036;stroke-width:1.5;" x1="1049" x2="1174" y1="520.9063" y2="520.9063"/><line style="stroke:#A80036;stroke-width:1.5;" x1="1049" x2="1174" y1="528.9063" y2="528.9063"/><!--MD5=[9d981d3d6f98c1fd5d32539969eeb8b8]
link usantatecla.tictactoe.views.console.CoordinateView to usantatecla.tictactoe.views.console.ErrorView--><path codeLine="16" d="M788.5,533.604 C788.5,553.181 788.5,579.119 788.5,600.714 " fill="none" id="usantatecla.tictactoe.views.console.CoordinateView-to-usantatecla.tictactoe.views.console.ErrorView" style="stroke:#A80036;stroke-width:1.0;stroke-dasharray:7.0,7.0;"/><polygon fill="#A80036" points="788.5,605.819,792.5,596.819,788.5,600.819,784.5,596.819,788.5,605.819" style="stroke:#A80036;stroke-width:1.0;"/><!--MD5=[862a5802fb66204605d0b8ed5319fcd3]
link usantatecla.tictactoe.views.console.CoordinateView to Console--><path codeLine="17" d="M707.251,512.852 C651.834,523.594 582.241,547.371 546.5,600 C519.034,640.444 520.449,668.63 546.5,710 C547.174,711.071 593.956,733.3816 634.012,752.3465 " fill="none" id="usantatecla.tictactoe.views.console.CoordinateView-to-Console" style="stroke:#A80036;stroke-width:1.0;stroke-dasharray:7.0,7.0;"/><polygon fill="#A80036" points="638.86,754.6411,632.4358,747.1759,634.3405,752.5024,629.0139,754.4071,638.86,754.6411" style="stroke:#A80036;stroke-width:1.0;"/><!--MD5=[bf0e7aed8fd30cd5c349e6b7f6c70315]
link usantatecla.tictactoe.views.console.CoordinateView to Error--><path codeLine="18" d="M817.123,533.617 C832.83,551.489 851.33,575.489 862.5,600 C883.297,645.638 892.139,703.237 895.858,740.58 " fill="none" id="usantatecla.tictactoe.views.console.CoordinateView-to-Error" style="stroke:#A80036;stroke-width:1.0;stroke-dasharray:7.0,7.0;"/><polygon fill="#A80036" points="896.371,745.9388,899.4957,736.5988,895.8948,740.9615,891.5321,737.3606,896.371,745.9388" style="stroke:#A80036;stroke-width:1.0;"/><!--MD5=[a6f3525ca64a6d8fc337db5f1e59e33c]
link usantatecla.tictactoe.views.console.CoordinateView to Coordinate--><path codeLine="19" d="M838.055,533.604 C873.597,554.837 921.668,583.555 959.402,606.097 " fill="none" id="usantatecla.tictactoe.views.console.CoordinateView-to-Coordinate" style="stroke:#A80036;stroke-width:1.0;stroke-dasharray:7.0,7.0;"/><polygon fill="#A80036" points="963.95,608.815,958.2748,600.7657,959.6575,606.2509,954.1722,607.6337,963.95,608.815" style="stroke:#A80036;stroke-width:1.0;"/><!--MD5=[29d7722b8c6447cca3c9a6ccb3052dae]
reverse link ErrorView to usantatecla.tictactoe.views.console.ErrorView--><path codeLine="25" d="M1191.29,539.773 C1077.37,576.789 1042.65,571.887 934.5,600 C905.016,607.664 872.418,616.961 845.517,624.859 " fill="none" id="ErrorView-backto-usantatecla.tictactoe.views.console.ErrorView" style="stroke:#A80036;stroke-width:1.0;"/><polygon fill="none" points="1189.09,533.128,1210.28,533.461,1193.51,546.413,1189.09,533.128" style="stroke:#A80036;stroke-width:1.0;"/><!--MD5=[1f3a5fb2a5337f79e9ba3c1e9245e6f6]
link usantatecla.tictactoe.views.console.ErrorView to Console--><path codeLine="26" d="M762.238,680.178 C748.428,699.202 731.521,722.491 717.59,741.6816 " fill="none" id="usantatecla.tictactoe.views.console.ErrorView-to-Console" style="stroke:#A80036;stroke-width:1.0;stroke-dasharray:7.0,7.0;"/><polygon fill="#A80036" points="714.483,745.9618,723.0067,741.0277,717.42,741.9153,716.5323,736.3285,714.483,745.9618" style="stroke:#A80036;stroke-width:1.0;"/><!--MD5=[3397b6822ef0e8d6daedc9ede65e9011]
link usantatecla.tictactoe.views.console.ErrorView to Error--><path codeLine="27" d="M825.5585,689.4805 C825.5585,689.4805 851.463,721.2725 863.269,735.7615 " fill="none" id="usantatecla.tictactoe.views.console.ErrorView-Error" style="stroke:#A80036;stroke-width:1.0;"/><polygon fill="#A80036" points="871.58,745.9618,868.9961,736.4579,868.4217,742.0855,862.7941,741.5111,871.58,745.9618" style="stroke:#A80036;stroke-width:1.0;"/><line style="stroke:#A80036;stroke-width:1.0;" x1="868.4217" x2="863.3685" y1="742.0855" y2="735.8837"/><polygon fill="#A80036" points="817.978,680.178,818.6674,687.3561,825.5585,689.4805,824.8691,682.3024,817.978,680.178" style="stroke:#A80036;stroke-width:1.0;"/><!--MD5=[e9ab2ce748383a003858e0e71a9583df]
link usantatecla.tictactoe.views.console.BoardView to Game--><path codeLine="33" d="M455.1575,537.7602 C455.1575,537.7602 363.112,578.852 318.5,600 C316.329,601.029 314.13,602.079 311.913,603.143 " fill="none" id="usantatecla.tictactoe.views.console.BoardView-Game" style="stroke:#A80036;stroke-width:1.0;"/><polygon fill="#A80036" points="299.944,608.946,309.7874,608.6192,304.4432,606.7648,306.2975,601.4205,299.944,608.946" style="stroke:#A80036;stroke-width:1.0;"/><line style="stroke:#A80036;stroke-width:1.0;" x1="304.4432" x2="311.642" y1="606.7648" y2="603.2745"/><polygon fill="#A80036" points="466.135,532.913,459.0305,531.6775,455.1575,537.7602,462.262,538.9958,466.135,532.913" style="stroke:#A80036;stroke-width:1.0;"/><!--MD5=[29c8794526d50e35289d6776de1d967c]
link usantatecla.tictactoe.views.console.BoardView to usantatecla.tictactoe.views.console.TokenView--><path codeLine="34" d="M558.248,540.258 C570.168,557.043 584.478,577.193 597.206,595.117 " fill="none" id="usantatecla.tictactoe.views.console.BoardView-to-usantatecla.tictactoe.views.console.TokenView" style="stroke:#A80036;stroke-width:1.0;stroke-dasharray:7.0,7.0;"/><polygon fill="#A80036" points="600.406,599.622,598.4558,589.9682,597.5108,595.5455,591.9334,594.6005,600.406,599.622" style="stroke:#A80036;stroke-width:1.0;"/><!--MD5=[5360d2d86db66103b20596779353d726]
link usantatecla.tictactoe.views.console.BoardView to Coordinate--><path codeLine="35" d="M598.701,520.861 C670.383,539.349 787.961,570.345 888.5,600 C907.506,605.606 927.953,611.99 946.91,618.059 " fill="none" id="usantatecla.tictactoe.views.console.BoardView-to-Coordinate" style="stroke:#A80036;stroke-width:1.0;stroke-dasharray:7.0,7.0;"/><polygon fill="#A80036" points="951.695,619.594,944.3466,613.0364,946.9339,618.067,941.9034,620.6542,951.695,619.594" style="stroke:#A80036;stroke-width:1.0;"/><!--MD5=[0ebe480ed8318e626f55c2d5f54f6e9f]
link usantatecla.tictactoe.views.console.BoardView to Message--><path codeLine="36" d="M466.332,524.918 C449.193,530.088 430.715,535.446 413.5,540 C297.176,570.773 262.387,558.35 149.5,600 C144.096,601.994 138.597,604.28 133.14,606.733 " fill="none" id="usantatecla.tictactoe.views.console.BoardView-to-Message" style="stroke:#A80036;stroke-width:1.0;stroke-dasharray:7.0,7.0;"/><polygon fill="#A80036" points="128.57,608.83,138.4181,608.7111,133.1142,606.7443,135.081,601.4404,128.57,608.83" style="stroke:#A80036;stroke-width:1.0;"/><!--MD5=[a846366ba724f5265ce159fe45473020]
reverse link WithGameView to usantatecla.tictactoe.views.console.PlayView--><path codeLine="45" d="M907.154,230.553 C880.971,250.1 850.057,273.18 822.505,293.75 " fill="none" id="WithGameView-backto-usantatecla.tictactoe.views.console.PlayView" style="stroke:#A80036;stroke-width:1.0;"/><polygon fill="none" points="902.968,224.942,923.182,218.587,911.343,236.161,902.968,224.942" style="stroke:#A80036;stroke-width:1.0;"/><!--MD5=[b3227b6de1c8aa549b5a1aa6f2661f0c]
link usantatecla.tictactoe.views.console.PlayView to usantatecla.tictactoe.views.console.ErrorView--><path codeLine="46" d="M711.315,406.015 C690.347,444.18 671.61,495.881 689.5,540 C699.156,563.813 717.335,585.129 735.507,602.04 " fill="none" id="usantatecla.tictactoe.views.console.PlayView-to-usantatecla.tictactoe.views.console.ErrorView" style="stroke:#A80036;stroke-width:1.0;stroke-dasharray:7.0,7.0;"/><polygon fill="#A80036" points="739.626,605.8,735.678,596.7771,735.9341,602.4281,730.283,602.6841,739.626,605.8" style="stroke:#A80036;stroke-width:1.0;"/><!--MD5=[d6fcf9eb57512a317d505614a79665ea]
link usantatecla.tictactoe.views.console.PlayView to usantatecla.tictactoe.views.console.CoordinateView--><path codeLine="47" d="M763.167,406.369 C768.589,426.835 774.574,449.429 779.365,467.515 " fill="none" id="usantatecla.tictactoe.views.console.PlayView-to-usantatecla.tictactoe.views.console.CoordinateView" style="stroke:#A80036;stroke-width:1.0;stroke-dasharray:7.0,7.0;"/><polygon fill="#A80036" points="780.683,472.491,782.2428,462.7664,779.4015,467.658,774.51,464.8168,780.683,472.491" style="stroke:#A80036;stroke-width:1.0;"/><!--MD5=[7093991cfc86004a5ed99ee360025462]
link usantatecla.tictactoe.views.console.PlayView to usantatecla.tictactoe.views.console.BoardView--><path codeLine="48" d="M669.602,406.155 C642.716,424.951 613.23,445.564 588.514,462.842 " fill="none" id="usantatecla.tictactoe.views.console.PlayView-to-usantatecla.tictactoe.views.console.BoardView" style="stroke:#A80036;stroke-width:1.0;stroke-dasharray:7.0,7.0;"/><polygon fill="#A80036" points="584.274,465.806,593.9419,463.927,588.3717,462.9409,589.3578,457.3706,584.274,465.806" style="stroke:#A80036;stroke-width:1.0;"/><!--MD5=[6a55b3479a1d2312e83ddac88541c234]
link usantatecla.tictactoe.views.console.PlayView to usantatecla.tictactoe.views.console.TokenView--><path codeLine="49" d="M707.752,406.265 C695.694,424.573 683.363,445.518 674.5,466 C656.439,507.74 644.754,558.388 637.998,594.616 " fill="none" id="usantatecla.tictactoe.views.console.PlayView-to-usantatecla.tictactoe.views.console.TokenView" style="stroke:#A80036;stroke-width:1.0;stroke-dasharray:7.0,7.0;"/><polygon fill="#A80036" points="637.037,599.853,642.5939,591.7215,637.9383,594.9349,634.7249,590.2794,637.037,599.853" style="stroke:#A80036;stroke-width:1.0;"/><!--MD5=[94178f9535031d1057f957d6f8f5bd7e]
link usantatecla.tictactoe.views.console.PlayView to Coordinate--><path codeLine="50" d="M872.802,356.493 C1032,366.436 1294.57,393.625 1354.5,466 C1433.75,561.701 1213.06,612.058 1092.36,631.837 " fill="none" id="usantatecla.tictactoe.views.console.PlayView-to-Coordinate" style="stroke:#A80036;stroke-width:1.0;stroke-dasharray:7.0,7.0;"/><polygon fill="#A80036" points="1087.4,632.641,1096.924,635.1495,1092.3356,631.841,1095.6441,627.2526,1087.4,632.641" style="stroke:#A80036;stroke-width:1.0;"/><!--MD5=[d18238c30e398c1db2697ab33123469a]
link usantatecla.tictactoe.views.console.PlayView to Message--><path codeLine="51" d="M624.224,399.189 C618.233,401.495 612.301,403.775 606.5,406 C536.366,432.898 515.626,432.291 448.5,466 C393.851,493.443 387.767,513.824 332.5,540 C255.145,576.638 228.332,566.658 149.5,600 C144.633,602.059 139.662,604.303 134.698,606.648 " fill="none" id="usantatecla.tictactoe.views.console.PlayView-to-Message" style="stroke:#A80036;stroke-width:1.0;stroke-dasharray:7.0,7.0;"/><polygon fill="#A80036" points="130.144,608.827,139.9889,608.547,134.6535,606.6672,136.5333,601.3319,130.144,608.827" style="stroke:#A80036;stroke-width:1.0;"/><!--MD5=[cf7eb746ce3da1d5c74a08a3e275667f]
link usantatecla.tictactoe.views.console.PlayView to Error--><path codeLine="52" d="M872.585,355.058 C1039.81,363.437 1324.04,388.928 1388.5,466 C1521.03,624.469 1128.52,729.6019 965.726,765.4008 " fill="none" id="usantatecla.tictactoe.views.console.PlayView-to-Error" style="stroke:#A80036;stroke-width:1.0;stroke-dasharray:7.0,7.0;"/><polygon fill="#A80036" points="960.506,766.5424,970.1529,768.5266,965.3905,765.4738,968.4432,760.7114,960.506,766.5424" style="stroke:#A80036;stroke-width:1.0;"/><!--MD5=[0d4b1f156a28151d6ab12c1dfb55629e]
reverse link WithGameView to usantatecla.tictactoe.views.console.ResumeView--><path codeLine="57" d="M902.786,227.982 C898.053,230.228 893.264,232.268 888.5,234 C717.071,296.316 652.825,228.726 482.5,294 C466.52,300.124 450.487,309.737 436.831,319.224 " fill="none" id="WithGameView-backto-usantatecla.tictactoe.views.console.ResumeView" style="stroke:#A80036;stroke-width:1.0;"/><polygon fill="none" points="899.663,221.715,920.61,218.513,906.231,234.078,899.663,221.715" style="stroke:#A80036;stroke-width:1.0;"/><!--MD5=[d8674b33fd70d87a84d5508babfd3bec]
link usantatecla.tictactoe.views.console.ResumeView to Message--><path codeLine="58" d="M364.61,380.572 C337.458,403.675 298.906,436.674 265.5,466 C211.063,513.789 148.958,569.817 109.512,605.594 " fill="none" id="usantatecla.tictactoe.views.console.ResumeView-to-Message" style="stroke:#A80036;stroke-width:1.0;stroke-dasharray:7.0,7.0;"/><polygon fill="#A80036" points="105.7666,608.992,115.1196,605.9063,109.4694,605.6321,109.7437,599.9818,105.7666,608.992" style="stroke:#A80036;stroke-width:1.0;"/><!--MD5=[7c4d9a78f551922058d9e7734b6a0714]
link usantatecla.tictactoe.views.console.ResumeView to YesNoDialog--><path codeLine="59" d="M436.831,380.776 C450.487,390.263 466.52,399.876 482.5,406 C652.825,471.274 714.839,410.206 888.5,466 C892.078,467.15 895.695,468.468 899.301,469.904 " fill="none" id="usantatecla.tictactoe.views.console.ResumeView-to-YesNoDialog" style="stroke:#A80036;stroke-width:1.0;stroke-dasharray:7.0,7.0;"/><polygon fill="#A80036" points="904.208,471.933,897.4182,464.7987,899.5871,470.0232,894.3626,472.1921,904.208,471.933" style="stroke:#A80036;stroke-width:1.0;"/><!--MD5=[8ade1256bc6ea1cecabaaa487331f598]
reverse link WithGameView to usantatecla.tictactoe.views.console.StartView--><path codeLine="64" d="M901.1,228.401 C896.908,230.437 892.689,232.326 888.5,234 C769.508,281.543 720.881,236.237 606.5,294 C593.913,300.356 581.877,309.906 571.815,319.273 " fill="none" id="WithGameView-backto-usantatecla.tictactoe.views.console.StartView" style="stroke:#A80036;stroke-width:1.0;"/><polygon fill="none" points="898.197,222.015,919.131,218.734,904.812,234.354,898.197,222.015" style="stroke:#A80036;stroke-width:1.0;"/><!--MD5=[9e4234d69390c04bfa6d66e64261d15d]
link usantatecla.tictactoe.views.console.StartView to usantatecla.tictactoe.views.console.BoardView--><path codeLine="65" d="M542.129,380.833 C540.318,403.621 537.801,435.301 535.794,460.552 " fill="none" id="usantatecla.tictactoe.views.console.StartView-to-usantatecla.tictactoe.views.console.BoardView" style="stroke:#A80036;stroke-width:1.0;stroke-dasharray:7.0,7.0;"/><polygon fill="#A80036" points="535.374,465.838,540.0737,457.1828,535.7697,460.8537,532.0988,456.5497,535.374,465.838" style="stroke:#A80036;stroke-width:1.0;"/><!--MD5=[863d81c777ca1bb7addecdbc65389e71]
link usantatecla.tictactoe.views.console.StartView to Message--><path codeLine="66" d="M513.721,380.637 C503.851,389.365 492.594,398.561 481.5,406 C431.975,439.208 413.011,435.963 361.5,466 C310.6,495.681 301.686,509.127 251.5,540 C213.855,563.158 170.748,587.413 135.938,606.458 " fill="none" id="usantatecla.tictactoe.views.console.StartView-to-Message" style="stroke:#A80036;stroke-width:1.0;stroke-dasharray:7.0,7.0;"/><polygon fill="#A80036" points="131.301,608.992,141.1169,608.1867,135.6887,606.5945,137.2809,601.1664,131.301,608.992" style="stroke:#A80036;stroke-width:1.0;"/><!--MD5=[4363c6bbafc2092f0afe760804478a10]
link usantatecla.tictactoe.views.console.StartView to LimitedIntDialog--><path codeLine="67" d="M570.961,380.65 C581.124,390.245 593.441,399.959 606.5,406 C778.836,485.721 846.872,414.019 1029.5,466 C1033.89,467.25 1038.36,468.688 1042.82,470.253 " fill="none" id="usantatecla.tictactoe.views.console.StartView-to-LimitedIntDialog" style="stroke:#A80036;stroke-width:1.0;stroke-dasharray:7.0,7.0;"/><polygon fill="#A80036" points="1047.66,471.998,1040.5558,465.1767,1042.9578,470.2982,1037.8362,472.7002,1047.66,471.998" style="stroke:#A80036;stroke-width:1.0;"/><!--MD5=[a2de6f7082f1820c8a2a924733f5c26f]
link usantatecla.tictactoe.views.console.TokenView to Token--><path codeLine="74" d="M595.9794,696.363 C595.9794,696.363 578.535,722.8237 570.669,734.7543 " fill="none" id="usantatecla.tictactoe.views.console.TokenView-Token" style="stroke:#A80036;stroke-width:1.0;"/><polygon fill="#A80036" points="563.389,745.797,571.6821,740.4843,566.1409,741.6224,565.0028,736.0813,563.389,745.797" style="stroke:#A80036;stroke-width:1.0;"/><line style="stroke:#A80036;stroke-width:1.0;" x1="566.1409" x2="570.545" y1="741.6224" y2="734.9434"/><polygon fill="#A80036" points="602.584,686.344,595.9421,689.152,595.9794,696.363,602.6214,693.555,602.584,686.344" style="stroke:#A80036;stroke-width:1.0;"/><!--MD5=[4fad1cf91f5b9cfda927675b894326c0]
link usantatecla.tictactoe.views.console.TokenView to Console--><path codeLine="75" d="M649.32,686.344 C657.11,703.873 666.075,724.0434 673.647,741.0798 " fill="none" id="usantatecla.tictactoe.views.console.TokenView-to-Console" style="stroke:#A80036;stroke-width:1.0;stroke-dasharray:7.0,7.0;"/><polygon fill="#A80036" points="675.743,745.797,675.7435,735.9481,673.7125,741.2278,668.4328,739.1969,675.743,745.797" style="stroke:#A80036;stroke-width:1.0;"/><!--MD5=[1906b5e5ba8f95f84d505bb825f127d1]
reverse link View to usantatecla.tictactoe.views.console.ConsoleView--><path codeLine="83" d="M544.5,95.31 C544.5,108.333 544.5,122.196 544.5,134.982 " fill="none" id="View-backto-usantatecla.tictactoe.views.console.ConsoleView" style="stroke:#A80036;stroke-width:1.0;"/><polygon fill="none" points="537.5,95.175,544.5,75.175,551.5,95.175,537.5,95.175" style="stroke:#A80036;stroke-width:1.0;"/><!--MD5=[43fa0c513d08f62912c93adef8432d95]
link usantatecla.tictactoe.views.console.ConsoleView to usantatecla.tictactoe.views.console.ResumeView--><path codeLine="84" d="M493.4256,243.0908 C493.4256,243.0908 451.938,289.872 434.54,309.489 " fill="none" id="usantatecla.tictactoe.views.console.ConsoleView-usantatecla.tictactoe.views.console.ResumeView" style="stroke:#A80036;stroke-width:1.0;"/><polygon fill="#A80036" points="425.836,319.304,434.8001,315.2241,429.1534,315.563,428.8145,309.9163,425.836,319.304" style="stroke:#A80036;stroke-width:1.0;"/><line style="stroke:#A80036;stroke-width:1.0;" x1="429.1534" x2="434.4615" y1="315.563" y2="309.578"/><polygon fill="#A80036" points="501.388,234.113,494.4142,235.9478,493.4256,243.0908,500.3994,241.256,501.388,234.113" style="stroke:#A80036;stroke-width:1.0;"/><!--MD5=[317ad0b75afc1d8eb2856bf178bf0da9]
link usantatecla.tictactoe.views.console.ConsoleView to usantatecla.tictactoe.views.console.PlayView--><path codeLine="85" d="M614.5179,241.6175 C614.5179,241.6175 651.736,271.446 669.515,285.696 " fill="none" id="usantatecla.tictactoe.views.console.ConsoleView-usantatecla.tictactoe.views.console.PlayView" style="stroke:#A80036;stroke-width:1.0;"/><polygon fill="#A80036" points="679.853,293.981,675.3316,285.2313,675.9514,290.8541,670.3286,291.4739,679.853,293.981" style="stroke:#A80036;stroke-width:1.0;"/><line style="stroke:#A80036;stroke-width:1.0;" x1="675.9514" x2="669.7085" y1="290.8541" y2="285.8505"/><polygon fill="#A80036" points="605.154,234.113,607.3344,240.9866,614.5179,241.6175,612.3374,234.744,605.154,234.113" style="stroke:#A80036;stroke-width:1.0;"/><!--MD5=[2fe9d33474c15d9a5b64cfa412074268]
link usantatecla.tictactoe.views.console.ConsoleView to usantatecla.tictactoe.views.console.StartView--><path codeLine="86" d="M544.5,246.113 C544.5,246.113 544.5,288.182 544.5,306.23 " fill="none" id="usantatecla.tictactoe.views.console.ConsoleView-usantatecla.tictactoe.views.console.StartView" style="stroke:#A80036;stroke-width:1.0;"/><polygon fill="#A80036" points="544.5,319.304,548.5,310.304,544.5,314.304,540.5,310.304,544.5,319.304" style="stroke:#A80036;stroke-width:1.0;"/><line style="stroke:#A80036;stroke-width:1.0;" x1="544.5" x2="544.5" y1="314.304" y2="306.304"/><polygon fill="#A80036" points="544.5,234.113,540.5,240.113,544.5,246.113,548.5,240.113,544.5,234.113" style="stroke:#A80036;stroke-width:1.0;"/><!--MD5=[4684e7c9889a7033eebdf43a4e2f429a]
@startuml
class Game as "usantatecla.\ntictactoe.models.\nGame"
class Coordinate as "usantatecla.\ntictactoe.models.\nCoordinate"
enum Error as "usantatecla.\ntictactoe.types.\nError"
enum Token as "usantatecla.\ntictactoe.types.\nToken"
abstract class WithGameView as "usantatecla.\ntictactoe.views.\nWithGameView"
abstract class View as "usantatecla.\ntictactoe.views.\nView"
abstract class ErrorView as "usantatecla.\ntictactoe.views.\nErrorView"
class Message as "usantatecla.\ntictactoe.views.\nMessage"
class Console as "usantatecla.\nutils.\nConsole"
class YesNoDialog as "usantatecla.\nutils.\nYesNoDialog"
class LimitedIntDialog as "usantatecla.\nutils.\nLimitedIntDialog"

class usantatecla.tictactoe.views.console.CoordinateView {
	+ read(String): Coordinate
}
usantatecla.tictactoe.views.console.CoordinateView .down.> usantatecla.tictactoe.views.console.ErrorView
usantatecla.tictactoe.views.console.CoordinateView .down.> Console
usantatecla.tictactoe.views.console.CoordinateView .down.> Error
usantatecla.tictactoe.views.console.CoordinateView .down.> Coordinate

class usantatecla.tictactoe.views.console.ErrorView {
	~ ErrorView(Error)
	~ writeln()
}
usantatecla.tictactoe.views.console.ErrorView -up-|> ErrorView
usantatecla.tictactoe.views.console.ErrorView .down.> Console
usantatecla.tictactoe.views.console.ErrorView *-down-> Error

class usantatecla.tictactoe.views.console.BoardView {
	~ GameView(Game)
	~ write()
}
usantatecla.tictactoe.views.console.BoardView *-down-> Game
usantatecla.tictactoe.views.console.BoardView .down.> usantatecla.tictactoe.views.console.TokenView
usantatecla.tictactoe.views.console.BoardView .down.> Coordinate
usantatecla.tictactoe.views.console.BoardView .down.> Message

class usantatecla.tictactoe.views.console.PlayView {
	~ PlayView(Game)
	~ interact()
	- put()
	- move()
	~ createRandomCoordinate(): Coordinate
}
WithGameView <|-down- usantatecla.tictactoe.views.console.PlayView
usantatecla.tictactoe.views.console.PlayView .down.> usantatecla.tictactoe.views.console.ErrorView
usantatecla.tictactoe.views.console.PlayView .down.> usantatecla.tictactoe.views.console.CoordinateView
usantatecla.tictactoe.views.console.PlayView .down.> usantatecla.tictactoe.views.console.BoardView
usantatecla.tictactoe.views.console.PlayView .down.> usantatecla.tictactoe.views.console.TokenView
usantatecla.tictactoe.views.console.PlayView .down.> Coordinate
usantatecla.tictactoe.views.console.PlayView .down.> Message
usantatecla.tictactoe.views.console.PlayView .down.> Error

class usantatecla.tictactoe.views.console.ResumeView {
	~ interact(): boolean
}
WithGameView <|-down- usantatecla.tictactoe.views.console.ResumeView
usantatecla.tictactoe.views.console.ResumeView .down.> Message
usantatecla.tictactoe.views.console.ResumeView .down.> YesNoDialog

class usantatecla.tictactoe.views.console.StartView {
	~ interact()
}
WithGameView <|-down- usantatecla.tictactoe.views.console.StartView
usantatecla.tictactoe.views.console.StartView .down.> usantatecla.tictactoe.views.console.BoardView
usantatecla.tictactoe.views.console.StartView .down.> Message
usantatecla.tictactoe.views.console.StartView .down.> LimitedIntDialog

class usantatecla.tictactoe.views.console.TokenView {
	+ {static} char[] SYMBOLS
	~ TokenView(Token)
	~ write()
}
usantatecla.tictactoe.views.console.TokenView *-down-> Token
usantatecla.tictactoe.views.console.TokenView .down.> Console

class usantatecla.tictactoe.views.console.ConsoleView {
	+ ConsoleView(Game)
	# start()
	# play()
	# isNewGame(): boolean
}
View <|-down- usantatecla.tictactoe.views.console.ConsoleView
usantatecla.tictactoe.views.console.ConsoleView *-down-> usantatecla.tictactoe.views.console.ResumeView
usantatecla.tictactoe.views.console.ConsoleView *-down-> usantatecla.tictactoe.views.console.PlayView
usantatecla.tictactoe.views.console.ConsoleView *-down-> usantatecla.tictactoe.views.console.StartView
@enduml

PlantUML version 1.2020.23beta3(Unknown compile time)
(GPL source distribution)
Java Runtime: Java(TM) SE Runtime Environment
JVM: Java HotSpot(TM) 64-Bit Server VM
Default Encoding: UTF-8
Language: en
Country: US
--></g></svg>