<?xml version="1.0" encoding="UTF-8" standalone="no"?><svg xmlns="http://www.w3.org/2000/svg" xmlns:xlink="http://www.w3.org/1999/xlink" contentScriptType="application/ecmascript" contentStyleType="text/css" height="856px" preserveAspectRatio="none" style="width:3040px;height:856px;" version="1.1" viewBox="0 0 3040 856" width="3040px" zoomAndPan="magnify"><defs><filter height="300%" id="f1amd3dcgilf8q" width="300%" x="-1" y="-1"><feGaussianBlur result="blurOut" stdDeviation="2.0"/><feColorMatrix in="blurOut" result="blurOut2" type="matrix" values="0 0 0 0 0 0 0 0 0 0 0 0 0 0 0 0 0 0 .4 0"/><feOffset dx="4.0" dy="4.0" in="blurOut2" result="blurOut3"/><feBlend in="SourceGraphic" in2="blurOut3" mode="normal"/></filter></defs><g><!--MD5=[4a2c519a1d4e2059eb71d825c7d6555c]
cluster usantatecla.tictactoe.views.graphics--><polygon fill="#FFFFFF" filter="url(#f1amd3dcgilf8q)" points="278.5,80,588.5,80,595.5,102.2969,1299.5,102.2969,1299.5,849,278.5,849,278.5,80" style="stroke:#000000;stroke-width:1.5;"/><line style="stroke:#000000;stroke-width:1.5;" x1="278.5" x2="595.5" y1="102.2969" y2="102.2969"/><text fill="#000000" font-family="sans-serif" font-size="14" font-weight="bold" lengthAdjust="spacingAndGlyphs" textLength="304" x="282.5" y="94.9951">usantatecla.tictactoe.views.graphics</text><!--MD5=[d2d029f700109abcb34e5bcc3d74e16d]
class usantatecla.tictactoe.views.graphics.ChoosePlayersView--><rect codeLine="1" fill="#FEFECE" filter="url(#f1amd3dcgilf8q)" height="201.6563" id="usantatecla.tictactoe.views.graphics.ChoosePlayersView" style="stroke:#A80036;stroke-width:1.5;" width="202" x="525.5" y="510"/><ellipse cx="563.9" cy="526" fill="#ADD1B2" rx="11" ry="11" style="stroke:#A80036;stroke-width:1.0;"/><path d="M566.2438,521.6719 C565.3063,521.2344 564.7125,521.0938 563.8375,521.0938 C561.2125,521.0938 559.2125,523.1719 559.2125,525.8906 L559.2125,527.0156 C559.2125,529.5938 561.3219,531.4844 564.2125,531.4844 C565.4313,531.4844 566.5875,531.1875 567.3375,530.6406 C567.9156,530.2344 568.2438,529.7813 568.2438,529.3906 C568.2438,528.9375 567.8531,528.5469 567.3844,528.5469 C567.1656,528.5469 566.9625,528.625 566.775,528.8125 C566.3219,529.2969 566.3219,529.2969 566.1344,529.3906 C565.7125,529.6563 565.025,529.7813 564.2594,529.7813 C562.2125,529.7813 560.9156,528.6875 560.9156,526.9844 L560.9156,525.8906 C560.9156,524.1094 562.1656,522.7969 563.9,522.7969 C564.4781,522.7969 565.0875,522.9531 565.5563,523.2031 C566.0406,523.4844 566.2125,523.7031 566.3063,524.1094 C566.3688,524.5156 566.4,524.6406 566.5406,524.7656 C566.6813,524.9063 566.9156,525.0156 567.1344,525.0156 C567.4,525.0156 567.6656,524.875 567.8375,524.6563 C567.9469,524.5 567.9781,524.3125 567.9781,523.8906 L567.9781,522.4688 C567.9781,522.0313 567.9625,521.9063 567.8688,521.75 C567.7125,521.4844 567.4313,521.3438 567.1344,521.3438 C566.8375,521.3438 566.6344,521.4375 566.4156,521.75 L566.2438,521.6719 Z " fill="#000000"/><text fill="#000000" font-family="sans-serif" font-size="12" lengthAdjust="spacingAndGlyphs" textLength="118" x="583.1" y="530.1543">ChoosePlayersView</text><line style="stroke:#A80036;stroke-width:1.5;" x1="526.5" x2="726.5" y1="542" y2="542"/><rect fill="none" height="6" style="stroke:#C82930;stroke-width:1.0;" width="6" x="533.5" y="550"/><text fill="#000000" font-family="sans-serif" font-size="11" lengthAdjust="spacingAndGlyphs" text-decoration="underline" textLength="84" x="545.5" y="556.2104">ACCEPT: String</text><rect fill="none" height="6" style="stroke:#C82930;stroke-width:1.0;" width="6" x="533.5" y="562.8047"/><text fill="#000000" font-family="sans-serif" font-size="11" lengthAdjust="spacingAndGlyphs" textLength="69" x="545.5" y="569.0151">label: JLabel</text><rect fill="none" height="6" style="stroke:#C82930;stroke-width:1.0;" width="6" x="533.5" y="575.6094"/><text fill="#000000" font-family="sans-serif" font-size="11" lengthAdjust="spacingAndGlyphs" textLength="113" x="545.5" y="581.8198">textField: JTextField</text><rect fill="none" height="6" style="stroke:#C82930;stroke-width:1.0;" width="6" x="533.5" y="588.4141"/><text fill="#000000" font-family="sans-serif" font-size="11" lengthAdjust="spacingAndGlyphs" textLength="83" x="545.5" y="594.6245">button: JButton</text><rect fill="none" height="6" style="stroke:#C82930;stroke-width:1.0;" width="6" x="533.5" y="601.2188"/><text fill="#000000" font-family="sans-serif" font-size="11" lengthAdjust="spacingAndGlyphs" textLength="127" x="545.5" y="607.4292">playersNumber: String</text><line style="stroke:#A80036;stroke-width:1.5;" x1="526.5" x2="726.5" y1="614.0234" y2="614.0234"/><polygon fill="#4177AF" points="536.5,621.0234,532.5,627.0234,540.5,627.0234" style="stroke:#1963A0;stroke-width:1.0;"/><text fill="#000000" font-family="sans-serif" font-size="11" lengthAdjust="spacingAndGlyphs" textLength="176" x="545.5" y="628.2339">ChoosePlayersView(JRootPane)</text><polygon fill="#4177AF" points="536.5,633.8281,532.5,639.8281,540.5,639.8281" style="stroke:#1963A0;stroke-width:1.0;"/><text fill="#000000" font-family="sans-serif" font-size="11" lengthAdjust="spacingAndGlyphs" textLength="124" x="545.5" y="641.0386">resetPlayersNumber()</text><polygon fill="#4177AF" points="536.5,646.6328,532.5,652.6328,540.5,652.6328" style="stroke:#1963A0;stroke-width:1.0;"/><text fill="#000000" font-family="sans-serif" font-size="11" lengthAdjust="spacingAndGlyphs" textLength="153" x="545.5" y="653.8433">getPlayersNumber(): String</text><ellipse cx="536.5" cy="663.4375" fill="#84BE84" rx="3" ry="3" style="stroke:#038048;stroke-width:1.0;"/><text fill="#000000" font-family="sans-serif" font-size="11" lengthAdjust="spacingAndGlyphs" textLength="169" x="545.5" y="666.6479">actionPerformed(ActionEvent)</text><ellipse cx="536.5" cy="676.2422" fill="#84BE84" rx="3" ry="3" style="stroke:#038048;stroke-width:1.0;"/><text fill="#000000" font-family="sans-serif" font-size="11" lengthAdjust="spacingAndGlyphs" textLength="120" x="545.5" y="679.4526">keyTyped(KeyEvent)</text><ellipse cx="536.5" cy="689.0469" fill="#84BE84" rx="3" ry="3" style="stroke:#038048;stroke-width:1.0;"/><text fill="#000000" font-family="sans-serif" font-size="11" lengthAdjust="spacingAndGlyphs" textLength="129" x="545.5" y="692.2573">keyPressed(KeyEvent)</text><ellipse cx="536.5" cy="701.8516" fill="#84BE84" rx="3" ry="3" style="stroke:#038048;stroke-width:1.0;"/><text fill="#000000" font-family="sans-serif" font-size="11" lengthAdjust="spacingAndGlyphs" textLength="138" x="545.5" y="705.062">keyReleased(KeyEvent)</text><!--MD5=[4cde9c6f00ba28f5b9399bb659019581]
class usantatecla.tictactoe.views.graphics.Constraints--><rect codeLine="28" fill="#FEFECE" filter="url(#f1amd3dcgilf8q)" height="60.8047" id="usantatecla.tictactoe.views.graphics.Constraints" style="stroke:#A80036;stroke-width:1.5;" width="174" x="539.5" y="772"/><ellipse cx="588.75" cy="788" fill="#ADD1B2" rx="11" ry="11" style="stroke:#A80036;stroke-width:1.0;"/><path d="M591.0938,783.6719 C590.1563,783.2344 589.5625,783.0938 588.6875,783.0938 C586.0625,783.0938 584.0625,785.1719 584.0625,787.8906 L584.0625,789.0156 C584.0625,791.5938 586.1719,793.4844 589.0625,793.4844 C590.2813,793.4844 591.4375,793.1875 592.1875,792.6406 C592.7656,792.2344 593.0938,791.7813 593.0938,791.3906 C593.0938,790.9375 592.7031,790.5469 592.2344,790.5469 C592.0156,790.5469 591.8125,790.625 591.625,790.8125 C591.1719,791.2969 591.1719,791.2969 590.9844,791.3906 C590.5625,791.6563 589.875,791.7813 589.1094,791.7813 C587.0625,791.7813 585.7656,790.6875 585.7656,788.9844 L585.7656,787.8906 C585.7656,786.1094 587.0156,784.7969 588.75,784.7969 C589.3281,784.7969 589.9375,784.9531 590.4063,785.2031 C590.8906,785.4844 591.0625,785.7031 591.1563,786.1094 C591.2188,786.5156 591.25,786.6406 591.3906,786.7656 C591.5313,786.9063 591.7656,787.0156 591.9844,787.0156 C592.25,787.0156 592.5156,786.875 592.6875,786.6563 C592.7969,786.5 592.8281,786.3125 592.8281,785.8906 L592.8281,784.4688 C592.8281,784.0313 592.8125,783.9063 592.7188,783.75 C592.5625,783.4844 592.2813,783.3438 591.9844,783.3438 C591.6875,783.3438 591.4844,783.4375 591.2656,783.75 L591.0938,783.6719 Z " fill="#000000"/><text fill="#000000" font-family="sans-serif" font-size="12" lengthAdjust="spacingAndGlyphs" textLength="67" x="609.25" y="792.1543">Constraints</text><line style="stroke:#A80036;stroke-width:1.5;" x1="540.5" x2="712.5" y1="804" y2="804"/><line style="stroke:#A80036;stroke-width:1.5;" x1="540.5" x2="712.5" y1="812" y2="812"/><polygon fill="#4177AF" points="550.5,819,546.5,825,554.5,825" style="stroke:#1963A0;stroke-width:1.0;"/><text fill="#000000" font-family="sans-serif" font-size="11" lengthAdjust="spacingAndGlyphs" textLength="148" x="559.5" y="826.2104">Constraints(int, int, int, int)</text><!--MD5=[60fc07c24f39175f70a0caf1948bd424]
class usantatecla.tictactoe.views.graphics.CoordinateMoveView--><rect codeLine="35" fill="#FEFECE" filter="url(#f1amd3dcgilf8q)" height="188.8516" id="usantatecla.tictactoe.views.graphics.CoordinateMoveView" style="stroke:#A80036;stroke-width:1.5;" width="258" x="762.5" y="516.5"/><ellipse cx="823.25" cy="532.5" fill="#ADD1B2" rx="11" ry="11" style="stroke:#A80036;stroke-width:1.0;"/><path d="M825.5938,528.1719 C824.6563,527.7344 824.0625,527.5938 823.1875,527.5938 C820.5625,527.5938 818.5625,529.6719 818.5625,532.3906 L818.5625,533.5156 C818.5625,536.0938 820.6719,537.9844 823.5625,537.9844 C824.7813,537.9844 825.9375,537.6875 826.6875,537.1406 C827.2656,536.7344 827.5938,536.2813 827.5938,535.8906 C827.5938,535.4375 827.2031,535.0469 826.7344,535.0469 C826.5156,535.0469 826.3125,535.125 826.125,535.3125 C825.6719,535.7969 825.6719,535.7969 825.4844,535.8906 C825.0625,536.1563 824.375,536.2813 823.6094,536.2813 C821.5625,536.2813 820.2656,535.1875 820.2656,533.4844 L820.2656,532.3906 C820.2656,530.6094 821.5156,529.2969 823.25,529.2969 C823.8281,529.2969 824.4375,529.4531 824.9063,529.7031 C825.3906,529.9844 825.5625,530.2031 825.6563,530.6094 C825.7188,531.0156 825.75,531.1406 825.8906,531.2656 C826.0313,531.4063 826.2656,531.5156 826.4844,531.5156 C826.75,531.5156 827.0156,531.375 827.1875,531.1563 C827.2969,531 827.3281,530.8125 827.3281,530.3906 L827.3281,528.9688 C827.3281,528.5313 827.3125,528.4063 827.2188,528.25 C827.0625,527.9844 826.7813,527.8438 826.4844,527.8438 C826.1875,527.8438 825.9844,527.9375 825.7656,528.25 L825.5938,528.1719 Z " fill="#000000"/><text fill="#000000" font-family="sans-serif" font-size="12" lengthAdjust="spacingAndGlyphs" textLength="128" x="843.75" y="536.6543">CoordinateMoveView</text><line style="stroke:#A80036;stroke-width:1.5;" x1="763.5" x2="1019.5" y1="548.5" y2="548.5"/><text fill="#000000" font-family="sans-serif" font-size="11" lengthAdjust="spacingAndGlyphs" text-decoration="underline" textLength="232" x="782.5" y="562.7104">ENTER_COORDINATE_TO_REMOVE: String</text><rect fill="none" height="6" style="stroke:#C82930;stroke-width:1.0;" width="6" x="770.5" y="569.3047"/><text fill="#000000" font-family="sans-serif" font-size="11" lengthAdjust="spacingAndGlyphs" textLength="137" x="782.5" y="575.5151">labelRowToMove: JLabel</text><rect fill="none" height="6" style="stroke:#C82930;stroke-width:1.0;" width="6" x="770.5" y="582.1094"/><text fill="#000000" font-family="sans-serif" font-size="11" lengthAdjust="spacingAndGlyphs" textLength="157" x="782.5" y="588.3198">labelColumnToMove: JLabel</text><rect fill="none" height="6" style="stroke:#C82930;stroke-width:1.0;" width="6" x="770.5" y="594.9141"/><text fill="#000000" font-family="sans-serif" font-size="11" lengthAdjust="spacingAndGlyphs" textLength="139" x="782.5" y="601.1245">titleLabelToMove: JLabel</text><rect fill="none" height="6" style="stroke:#C82930;stroke-width:1.0;" width="6" x="770.5" y="607.7188"/><text fill="#000000" font-family="sans-serif" font-size="11" lengthAdjust="spacingAndGlyphs" textLength="181" x="782.5" y="613.9292">textFieldRowToMove: JTextField</text><rect fill="none" height="6" style="stroke:#C82930;stroke-width:1.0;" width="6" x="770.5" y="620.5234"/><text fill="#000000" font-family="sans-serif" font-size="11" lengthAdjust="spacingAndGlyphs" textLength="201" x="782.5" y="626.7339">textFieldColumnToMove: JTextField</text><rect fill="none" height="6" style="stroke:#C82930;stroke-width:1.0;" width="6" x="770.5" y="633.3281"/><text fill="#000000" font-family="sans-serif" font-size="11" lengthAdjust="spacingAndGlyphs" textLength="143" x="782.5" y="639.5386">coordinates: Coordinate[]</text><line style="stroke:#A80036;stroke-width:1.5;" x1="763.5" x2="1019.5" y1="646.1328" y2="646.1328"/><polygon fill="#4177AF" points="773.5,653.1328,769.5,659.1328,777.5,659.1328" style="stroke:#1963A0;stroke-width:1.0;"/><text fill="#000000" font-family="sans-serif" font-size="11" lengthAdjust="spacingAndGlyphs" textLength="129" x="782.5" y="660.3433">CoordinateMoveView()</text><polygon fill="#4177AF" points="773.5,665.9375,769.5,671.9375,777.5,671.9375" style="stroke:#1963A0;stroke-width:1.0;"/><text fill="#000000" font-family="sans-serif" font-size="11" lengthAdjust="spacingAndGlyphs" textLength="106" x="782.5" y="673.1479">resetCoordinates()</text><polygon fill="#4177AF" points="773.5,678.7422,769.5,684.7422,777.5,684.7422" style="stroke:#1963A0;stroke-width:1.0;"/><text fill="#000000" font-family="sans-serif" font-size="11" lengthAdjust="spacingAndGlyphs" textLength="172" x="782.5" y="685.9526">getCoordinates(): Coordinate[]</text><ellipse cx="773.5" cy="695.5469" fill="#84BE84" rx="3" ry="3" style="stroke:#038048;stroke-width:1.0;"/><text fill="#000000" font-family="sans-serif" font-size="11" lengthAdjust="spacingAndGlyphs" textLength="169" x="782.5" y="698.7573">actionPerformed(ActionEvent)</text><!--MD5=[fd79f5b787364979bee749ddb6283d48]
class usantatecla.tictactoe.views.graphics.CoordinateView--><rect codeLine="77" fill="#FEFECE" filter="url(#f1amd3dcgilf8q)" height="214.4609" id="usantatecla.tictactoe.views.graphics.CoordinateView" style="stroke:#A80036;stroke-width:1.5;" width="229" x="338" y="236"/><ellipse cx="400.75" cy="252" fill="#ADD1B2" rx="11" ry="11" style="stroke:#A80036;stroke-width:1.0;"/><path d="M403.0938,247.6719 C402.1563,247.2344 401.5625,247.0938 400.6875,247.0938 C398.0625,247.0938 396.0625,249.1719 396.0625,251.8906 L396.0625,253.0156 C396.0625,255.5938 398.1719,257.4844 401.0625,257.4844 C402.2813,257.4844 403.4375,257.1875 404.1875,256.6406 C404.7656,256.2344 405.0938,255.7813 405.0938,255.3906 C405.0938,254.9375 404.7031,254.5469 404.2344,254.5469 C404.0156,254.5469 403.8125,254.625 403.625,254.8125 C403.1719,255.2969 403.1719,255.2969 402.9844,255.3906 C402.5625,255.6563 401.875,255.7813 401.1094,255.7813 C399.0625,255.7813 397.7656,254.6875 397.7656,252.9844 L397.7656,251.8906 C397.7656,250.1094 399.0156,248.7969 400.75,248.7969 C401.3281,248.7969 401.9375,248.9531 402.4063,249.2031 C402.8906,249.4844 403.0625,249.7031 403.1563,250.1094 C403.2188,250.5156 403.25,250.6406 403.3906,250.7656 C403.5313,250.9063 403.7656,251.0156 403.9844,251.0156 C404.25,251.0156 404.5156,250.875 404.6875,250.6563 C404.7969,250.5 404.8281,250.3125 404.8281,249.8906 L404.8281,248.4688 C404.8281,248.0313 404.8125,247.9063 404.7188,247.75 C404.5625,247.4844 404.2813,247.3438 403.9844,247.3438 C403.6875,247.3438 403.4844,247.4375 403.2656,247.75 L403.0938,247.6719 Z " fill="#000000"/><text fill="#000000" font-family="sans-serif" font-size="12" lengthAdjust="spacingAndGlyphs" textLength="95" x="421.25" y="256.1543">CoordinateView</text><line style="stroke:#A80036;stroke-width:1.5;" x1="339" x2="566" y1="268" y2="268"/><polygon fill="none" points="349,274,353,278,349,282,345,278" style="stroke:#B38D22;stroke-width:1.0;"/><text fill="#000000" font-family="sans-serif" font-size="11" lengthAdjust="spacingAndGlyphs" text-decoration="underline" textLength="203" x="358" y="282.2104">String ENTER_COORDINATE_TO_PUT</text><polygon fill="none" points="349,286.8047,353,290.8047,349,294.8047,345,290.8047" style="stroke:#B38D22;stroke-width:1.0;"/><text fill="#000000" font-family="sans-serif" font-size="11" lengthAdjust="spacingAndGlyphs" text-decoration="underline" textLength="81" x="358" y="295.0151">String ACCEPT</text><polygon fill="none" points="349,299.6094,353,303.6094,349,307.6094,345,303.6094" style="stroke:#B38D22;stroke-width:1.0;"/><text fill="#000000" font-family="sans-serif" font-size="11" lengthAdjust="spacingAndGlyphs" textLength="92" x="358" y="307.8198">labelRow: JLabel</text><polygon fill="none" points="349,312.4141,353,316.4141,349,320.4141,345,316.4141" style="stroke:#B38D22;stroke-width:1.0;"/><text fill="#000000" font-family="sans-serif" font-size="11" lengthAdjust="spacingAndGlyphs" textLength="112" x="358" y="320.6245">labelColumn: JLabel</text><polygon fill="none" points="349,325.2188,353,329.2188,349,333.2188,345,329.2188" style="stroke:#B38D22;stroke-width:1.0;"/><text fill="#000000" font-family="sans-serif" font-size="11" lengthAdjust="spacingAndGlyphs" textLength="94" x="358" y="333.4292">titleLabel: JLabel</text><polygon fill="none" points="349,338.0234,353,342.0234,349,346.0234,345,342.0234" style="stroke:#B38D22;stroke-width:1.0;"/><text fill="#000000" font-family="sans-serif" font-size="11" lengthAdjust="spacingAndGlyphs" textLength="136" x="358" y="346.2339">textFieldRow: JTextField</text><polygon fill="none" points="349,350.8281,353,354.8281,349,358.8281,345,354.8281" style="stroke:#B38D22;stroke-width:1.0;"/><text fill="#000000" font-family="sans-serif" font-size="11" lengthAdjust="spacingAndGlyphs" textLength="156" x="358" y="359.0386">textFieldColumn: JTextField</text><polygon fill="none" points="349,363.6328,353,367.6328,349,371.6328,345,367.6328" style="stroke:#B38D22;stroke-width:1.0;"/><text fill="#000000" font-family="sans-serif" font-size="11" lengthAdjust="spacingAndGlyphs" textLength="83" x="358" y="371.8433">button: JButton</text><line style="stroke:#A80036;stroke-width:1.5;" x1="339" x2="566" y1="378.4375" y2="378.4375"/><text fill="#000000" font-family="sans-serif" font-size="11" lengthAdjust="spacingAndGlyphs" textLength="98" x="358" y="392.6479">CoordinateView()</text><ellipse cx="349" cy="402.2422" fill="#84BE84" rx="3" ry="3" style="stroke:#038048;stroke-width:1.0;"/><text fill="#000000" font-family="sans-serif" font-size="11" font-style="italic" lengthAdjust="spacingAndGlyphs" textLength="169" x="358" y="405.4526">actionPerformed(ActionEvent)</text><ellipse cx="349" cy="415.0469" fill="#84BE84" rx="3" ry="3" style="stroke:#038048;stroke-width:1.0;"/><text fill="#000000" font-family="sans-serif" font-size="11" lengthAdjust="spacingAndGlyphs" textLength="120" x="358" y="418.2573">keyTyped(KeyEvent)</text><ellipse cx="349" cy="427.8516" fill="#84BE84" rx="3" ry="3" style="stroke:#038048;stroke-width:1.0;"/><text fill="#000000" font-family="sans-serif" font-size="11" lengthAdjust="spacingAndGlyphs" textLength="129" x="358" y="431.062">keyPressed(KeyEvent)</text><ellipse cx="349" cy="440.6563" fill="#84BE84" rx="3" ry="3" style="stroke:#038048;stroke-width:1.0;"/><text fill="#000000" font-family="sans-serif" font-size="11" lengthAdjust="spacingAndGlyphs" textLength="138" x="358" y="443.8667">keyReleased(KeyEvent)</text><!--MD5=[b64db9b57815c0cb4599d086278e9abd]
class usantatecla.tictactoe.views.graphics.CoordinatePutView--><rect codeLine="60" fill="#FEFECE" filter="url(#f1amd3dcgilf8q)" height="137.6328" id="usantatecla.tictactoe.views.graphics.CoordinatePutView" style="stroke:#A80036;stroke-width:1.5;" width="195" x="295" y="542"/><ellipse cx="332.95" cy="558" fill="#ADD1B2" rx="11" ry="11" style="stroke:#A80036;stroke-width:1.0;"/><path d="M335.2938,553.6719 C334.3563,553.2344 333.7625,553.0938 332.8875,553.0938 C330.2625,553.0938 328.2625,555.1719 328.2625,557.8906 L328.2625,559.0156 C328.2625,561.5938 330.3719,563.4844 333.2625,563.4844 C334.4813,563.4844 335.6375,563.1875 336.3875,562.6406 C336.9656,562.2344 337.2938,561.7813 337.2938,561.3906 C337.2938,560.9375 336.9031,560.5469 336.4344,560.5469 C336.2156,560.5469 336.0125,560.625 335.825,560.8125 C335.3719,561.2969 335.3719,561.2969 335.1844,561.3906 C334.7625,561.6563 334.075,561.7813 333.3094,561.7813 C331.2625,561.7813 329.9656,560.6875 329.9656,558.9844 L329.9656,557.8906 C329.9656,556.1094 331.2156,554.7969 332.95,554.7969 C333.5281,554.7969 334.1375,554.9531 334.6063,555.2031 C335.0906,555.4844 335.2625,555.7031 335.3563,556.1094 C335.4188,556.5156 335.45,556.6406 335.5906,556.7656 C335.7313,556.9063 335.9656,557.0156 336.1844,557.0156 C336.45,557.0156 336.7156,556.875 336.8875,556.6563 C336.9969,556.5 337.0281,556.3125 337.0281,555.8906 L337.0281,554.4688 C337.0281,554.0313 337.0125,553.9063 336.9188,553.75 C336.7625,553.4844 336.4813,553.3438 336.1844,553.3438 C335.8875,553.3438 335.6844,553.4375 335.4656,553.75 L335.2938,553.6719 Z " fill="#000000"/><text fill="#000000" font-family="sans-serif" font-size="12" lengthAdjust="spacingAndGlyphs" textLength="112" x="352.05" y="562.1543">CoordinatePutView</text><line style="stroke:#A80036;stroke-width:1.5;" x1="296" x2="489" y1="574" y2="574"/><line style="stroke:#A80036;stroke-width:1.5;" x1="296" x2="489" y1="582" y2="582"/><polygon fill="#4177AF" points="306,589,302,595,310,595" style="stroke:#1963A0;stroke-width:1.0;"/><text fill="#000000" font-family="sans-serif" font-size="11" lengthAdjust="spacingAndGlyphs" textLength="115" x="315" y="596.2104">CoordinatePutView()</text><polygon fill="#4177AF" points="306,601.8047,302,607.8047,310,607.8047" style="stroke:#1963A0;stroke-width:1.0;"/><text fill="#000000" font-family="sans-serif" font-size="11" lengthAdjust="spacingAndGlyphs" textLength="100" x="315" y="609.0151">resetCoordinate()</text><polygon fill="#4177AF" points="306,614.6094,302,620.6094,310,620.6094" style="stroke:#1963A0;stroke-width:1.0;"/><text fill="#000000" font-family="sans-serif" font-size="11" lengthAdjust="spacingAndGlyphs" textLength="155" x="315" y="621.8198">Coordinate getCoordinate()</text><ellipse cx="306" cy="631.4141" fill="#84BE84" rx="3" ry="3" style="stroke:#038048;stroke-width:1.0;"/><text fill="#000000" font-family="sans-serif" font-size="11" lengthAdjust="spacingAndGlyphs" textLength="169" x="315" y="634.6245">actionPerformed(ActionEvent)</text><ellipse cx="306" cy="644.2188" fill="#84BE84" rx="3" ry="3" style="stroke:#038048;stroke-width:1.0;"/><text fill="#000000" font-family="sans-serif" font-size="11" lengthAdjust="spacingAndGlyphs" textLength="120" x="315" y="647.4292">keyTyped(KeyEvent)</text><ellipse cx="306" cy="657.0234" fill="#84BE84" rx="3" ry="3" style="stroke:#038048;stroke-width:1.0;"/><text fill="#000000" font-family="sans-serif" font-size="11" lengthAdjust="spacingAndGlyphs" textLength="129" x="315" y="660.2339">keyPressed(KeyEvent)</text><ellipse cx="306" cy="669.8281" fill="#84BE84" rx="3" ry="3" style="stroke:#038048;stroke-width:1.0;"/><text fill="#000000" font-family="sans-serif" font-size="11" lengthAdjust="spacingAndGlyphs" textLength="138" x="315" y="673.0386">keyReleased(KeyEvent)</text><!--MD5=[34226cdba220114a91c4ebd6014c3336]
class usantatecla.tictactoe.views.graphics.GameView--><rect codeLine="96" fill="#FEFECE" filter="url(#f1amd3dcgilf8q)" height="99.2188" id="usantatecla.tictactoe.views.graphics.GameView" style="stroke:#A80036;stroke-width:1.5;" width="228" x="1055.5" y="561.5"/><ellipse cx="1133.25" cy="577.5" fill="#ADD1B2" rx="11" ry="11" style="stroke:#A80036;stroke-width:1.0;"/><path d="M1135.5938,573.1719 C1134.6563,572.7344 1134.0625,572.5938 1133.1875,572.5938 C1130.5625,572.5938 1128.5625,574.6719 1128.5625,577.3906 L1128.5625,578.5156 C1128.5625,581.0938 1130.6719,582.9844 1133.5625,582.9844 C1134.7813,582.9844 1135.9375,582.6875 1136.6875,582.1406 C1137.2656,581.7344 1137.5938,581.2813 1137.5938,580.8906 C1137.5938,580.4375 1137.2031,580.0469 1136.7344,580.0469 C1136.5156,580.0469 1136.3125,580.125 1136.125,580.3125 C1135.6719,580.7969 1135.6719,580.7969 1135.4844,580.8906 C1135.0625,581.1563 1134.375,581.2813 1133.6094,581.2813 C1131.5625,581.2813 1130.2656,580.1875 1130.2656,578.4844 L1130.2656,577.3906 C1130.2656,575.6094 1131.5156,574.2969 1133.25,574.2969 C1133.8281,574.2969 1134.4375,574.4531 1134.9063,574.7031 C1135.3906,574.9844 1135.5625,575.2031 1135.6563,575.6094 C1135.7188,576.0156 1135.75,576.1406 1135.8906,576.2656 C1136.0313,576.4063 1136.2656,576.5156 1136.4844,576.5156 C1136.75,576.5156 1137.0156,576.375 1137.1875,576.1563 C1137.2969,576 1137.3281,575.8125 1137.3281,575.3906 L1137.3281,573.9688 C1137.3281,573.5313 1137.3125,573.4063 1137.2188,573.25 C1137.0625,572.9844 1136.7813,572.8438 1136.4844,572.8438 C1136.1875,572.8438 1135.9844,572.9375 1135.7656,573.25 L1135.5938,573.1719 Z " fill="#000000"/><text fill="#000000" font-family="sans-serif" font-size="12" lengthAdjust="spacingAndGlyphs" textLength="64" x="1153.75" y="581.6543">GameView</text><line style="stroke:#A80036;stroke-width:1.5;" x1="1056.5" x2="1282.5" y1="593.5" y2="593.5"/><line style="stroke:#A80036;stroke-width:1.5;" x1="1056.5" x2="1282.5" y1="601.5" y2="601.5"/><polygon fill="#4177AF" points="1066.5,608.5,1062.5,614.5,1070.5,614.5" style="stroke:#1963A0;stroke-width:1.0;"/><text fill="#000000" font-family="sans-serif" font-size="11" lengthAdjust="spacingAndGlyphs" textLength="106" x="1075.5" y="615.7104">GameView(Game)</text><polygon fill="#4177AF" points="1066.5,621.3047,1062.5,627.3047,1070.5,627.3047" style="stroke:#1963A0;stroke-width:1.0;"/><text fill="#000000" font-family="sans-serif" font-size="11" lengthAdjust="spacingAndGlyphs" textLength="36" x="1075.5" y="628.5151">write()</text><rect fill="#F24D5C" height="6" style="stroke:#C82930;stroke-width:1.0;" width="6" x="1063.5" y="635.1094"/><text fill="#000000" font-family="sans-serif" font-size="11" lengthAdjust="spacingAndGlyphs" textLength="103" x="1075.5" y="641.3198">printRowBoard(int)</text><rect fill="#F24D5C" height="6" style="stroke:#C82930;stroke-width:1.0;" width="6" x="1063.5" y="647.9141"/><text fill="#000000" font-family="sans-serif" font-size="11" lengthAdjust="spacingAndGlyphs" textLength="202" x="1075.5" y="654.1245">getSquareBoardText(int, int): String</text><!--MD5=[cdc8048ce8edd74de0e2210c3e136b55]
class usantatecla.tictactoe.views.graphics.PlayView--><rect codeLine="117" fill="#FEFECE" filter="url(#f1amd3dcgilf8q)" height="124.8281" id="usantatecla.tictactoe.views.graphics.PlayView" style="stroke:#A80036;stroke-width:1.5;" width="258" x="645.5" y="280.5"/><ellipse cx="744.25" cy="296.5" fill="#ADD1B2" rx="11" ry="11" style="stroke:#A80036;stroke-width:1.0;"/><path d="M746.5938,292.1719 C745.6563,291.7344 745.0625,291.5938 744.1875,291.5938 C741.5625,291.5938 739.5625,293.6719 739.5625,296.3906 L739.5625,297.5156 C739.5625,300.0938 741.6719,301.9844 744.5625,301.9844 C745.7813,301.9844 746.9375,301.6875 747.6875,301.1406 C748.2656,300.7344 748.5938,300.2813 748.5938,299.8906 C748.5938,299.4375 748.2031,299.0469 747.7344,299.0469 C747.5156,299.0469 747.3125,299.125 747.125,299.3125 C746.6719,299.7969 746.6719,299.7969 746.4844,299.8906 C746.0625,300.1563 745.375,300.2813 744.6094,300.2813 C742.5625,300.2813 741.2656,299.1875 741.2656,297.4844 L741.2656,296.3906 C741.2656,294.6094 742.5156,293.2969 744.25,293.2969 C744.8281,293.2969 745.4375,293.4531 745.9063,293.7031 C746.3906,293.9844 746.5625,294.2031 746.6563,294.6094 C746.7188,295.0156 746.75,295.1406 746.8906,295.2656 C747.0313,295.4063 747.2656,295.5156 747.4844,295.5156 C747.75,295.5156 748.0156,295.375 748.1875,295.1563 C748.2969,295 748.3281,294.8125 748.3281,294.3906 L748.3281,292.9688 C748.3281,292.5313 748.3125,292.4063 748.2188,292.25 C748.0625,291.9844 747.7813,291.8438 747.4844,291.8438 C747.1875,291.8438 746.9844,291.9375 746.7656,292.25 L746.5938,292.1719 Z " fill="#000000"/><text fill="#000000" font-family="sans-serif" font-size="12" lengthAdjust="spacingAndGlyphs" textLength="52" x="764.75" y="300.6543">PlayView</text><line style="stroke:#A80036;stroke-width:1.5;" x1="646.5" x2="902.5" y1="312.5" y2="312.5"/><polygon fill="none" points="656.5,319.5,652.5,325.5,660.5,325.5" style="stroke:#1963A0;stroke-width:1.0;"/><text fill="#000000" font-family="sans-serif" font-size="11" lengthAdjust="spacingAndGlyphs" text-decoration="underline" textLength="206" x="665.5" y="326.7104">ENTER_COORDINATE_TO_PUT: String</text><polygon fill="none" points="656.5,332.3047,652.5,338.3047,660.5,338.3047" style="stroke:#1963A0;stroke-width:1.0;"/><text fill="#000000" font-family="sans-serif" font-size="11" lengthAdjust="spacingAndGlyphs" text-decoration="underline" textLength="232" x="665.5" y="339.5151">ENTER_COORDINATE_TO_REMOVE: String</text><line style="stroke:#A80036;stroke-width:1.5;" x1="646.5" x2="902.5" y1="346.1094" y2="346.1094"/><polygon fill="#4177AF" points="656.5,353.1094,652.5,359.1094,660.5,359.1094" style="stroke:#1963A0;stroke-width:1.0;"/><text fill="#000000" font-family="sans-serif" font-size="11" lengthAdjust="spacingAndGlyphs" textLength="94" x="665.5" y="360.3198">PlayView(Game)</text><polygon fill="#4177AF" points="656.5,365.9141,652.5,371.9141,660.5,371.9141" style="stroke:#1963A0;stroke-width:1.0;"/><text fill="#000000" font-family="sans-serif" font-size="11" lengthAdjust="spacingAndGlyphs" textLength="51" x="665.5" y="373.1245">interact()</text><rect fill="#F24D5C" height="6" style="stroke:#C82930;stroke-width:1.0;" width="6" x="653.5" y="379.7188"/><text fill="#000000" font-family="sans-serif" font-size="11" lengthAdjust="spacingAndGlyphs" textLength="26" x="665.5" y="385.9292">put()</text><rect fill="#F24D5C" height="6" style="stroke:#C82930;stroke-width:1.0;" width="6" x="653.5" y="392.5234"/><text fill="#000000" font-family="sans-serif" font-size="11" lengthAdjust="spacingAndGlyphs" textLength="41" x="665.5" y="398.7339">move()</text><!--MD5=[e171d38dde8bc447a12b90c4f96e9a99]
class usantatecla.tictactoe.views.graphics.ResumeView--><rect codeLine="137" fill="#FEFECE" filter="url(#f1amd3dcgilf8q)" height="86.4141" id="usantatecla.tictactoe.views.graphics.ResumeView" style="stroke:#A80036;stroke-width:1.5;" width="185" x="1098" y="300"/><ellipse cx="1147.75" cy="316" fill="#ADD1B2" rx="11" ry="11" style="stroke:#A80036;stroke-width:1.0;"/><path d="M1150.0938,311.6719 C1149.1563,311.2344 1148.5625,311.0938 1147.6875,311.0938 C1145.0625,311.0938 1143.0625,313.1719 1143.0625,315.8906 L1143.0625,317.0156 C1143.0625,319.5938 1145.1719,321.4844 1148.0625,321.4844 C1149.2813,321.4844 1150.4375,321.1875 1151.1875,320.6406 C1151.7656,320.2344 1152.0938,319.7813 1152.0938,319.3906 C1152.0938,318.9375 1151.7031,318.5469 1151.2344,318.5469 C1151.0156,318.5469 1150.8125,318.625 1150.625,318.8125 C1150.1719,319.2969 1150.1719,319.2969 1149.9844,319.3906 C1149.5625,319.6563 1148.875,319.7813 1148.1094,319.7813 C1146.0625,319.7813 1144.7656,318.6875 1144.7656,316.9844 L1144.7656,315.8906 C1144.7656,314.1094 1146.0156,312.7969 1147.75,312.7969 C1148.3281,312.7969 1148.9375,312.9531 1149.4063,313.2031 C1149.8906,313.4844 1150.0625,313.7031 1150.1563,314.1094 C1150.2188,314.5156 1150.25,314.6406 1150.3906,314.7656 C1150.5313,314.9063 1150.7656,315.0156 1150.9844,315.0156 C1151.25,315.0156 1151.5156,314.875 1151.6875,314.6563 C1151.7969,314.5 1151.8281,314.3125 1151.8281,313.8906 L1151.8281,312.4688 C1151.8281,312.0313 1151.8125,311.9063 1151.7188,311.75 C1151.5625,311.4844 1151.2813,311.3438 1150.9844,311.3438 C1150.6875,311.3438 1150.4844,311.4375 1150.2656,311.75 L1150.0938,311.6719 Z " fill="#000000"/><text fill="#000000" font-family="sans-serif" font-size="12" lengthAdjust="spacingAndGlyphs" textLength="77" x="1168.25" y="320.1543">ResumeView</text><line style="stroke:#A80036;stroke-width:1.5;" x1="1099" x2="1282" y1="332" y2="332"/><rect fill="none" height="6" style="stroke:#C82930;stroke-width:1.0;" width="6" x="1106" y="340"/><text fill="#000000" font-family="sans-serif" font-size="11" lengthAdjust="spacingAndGlyphs" textLength="112" x="1118" y="346.2104">newGame: boolean</text><line style="stroke:#A80036;stroke-width:1.5;" x1="1099" x2="1282" y1="352.8047" y2="352.8047"/><polygon fill="#4177AF" points="1109,359.8047,1105,365.8047,1113,365.8047" style="stroke:#1963A0;stroke-width:1.0;"/><text fill="#000000" font-family="sans-serif" font-size="11" lengthAdjust="spacingAndGlyphs" textLength="83" x="1118" y="367.0151">ResumeView()</text><polygon fill="#4177AF" points="1109,372.6094,1105,378.6094,1113,378.6094" style="stroke:#1963A0;stroke-width:1.0;"/><text fill="#000000" font-family="sans-serif" font-size="11" lengthAdjust="spacingAndGlyphs" textLength="159" x="1118" y="379.8198">isResumedGame(): boolean</text><!--MD5=[9ec4f2e0c7acff142894de6c884d1545]
class usantatecla.tictactoe.views.graphics.StartView--><rect codeLine="148" fill="#FEFECE" filter="url(#f1amd3dcgilf8q)" height="73.6094" id="usantatecla.tictactoe.views.graphics.StartView" style="stroke:#A80036;stroke-width:1.5;" width="124" x="938.5" y="306"/><ellipse cx="969.25" cy="322" fill="#ADD1B2" rx="11" ry="11" style="stroke:#A80036;stroke-width:1.0;"/><path d="M971.5938,317.6719 C970.6563,317.2344 970.0625,317.0938 969.1875,317.0938 C966.5625,317.0938 964.5625,319.1719 964.5625,321.8906 L964.5625,323.0156 C964.5625,325.5938 966.6719,327.4844 969.5625,327.4844 C970.7813,327.4844 971.9375,327.1875 972.6875,326.6406 C973.2656,326.2344 973.5938,325.7813 973.5938,325.3906 C973.5938,324.9375 973.2031,324.5469 972.7344,324.5469 C972.5156,324.5469 972.3125,324.625 972.125,324.8125 C971.6719,325.2969 971.6719,325.2969 971.4844,325.3906 C971.0625,325.6563 970.375,325.7813 969.6094,325.7813 C967.5625,325.7813 966.2656,324.6875 966.2656,322.9844 L966.2656,321.8906 C966.2656,320.1094 967.5156,318.7969 969.25,318.7969 C969.8281,318.7969 970.4375,318.9531 970.9063,319.2031 C971.3906,319.4844 971.5625,319.7031 971.6563,320.1094 C971.7188,320.5156 971.75,320.6406 971.8906,320.7656 C972.0313,320.9063 972.2656,321.0156 972.4844,321.0156 C972.75,321.0156 973.0156,320.875 973.1875,320.6563 C973.2969,320.5 973.3281,320.3125 973.3281,319.8906 L973.3281,318.4688 C973.3281,318.0313 973.3125,317.9063 973.2188,317.75 C973.0625,317.4844 972.7813,317.3438 972.4844,317.3438 C972.1875,317.3438 971.9844,317.4375 971.7656,317.75 L971.5938,317.6719 Z " fill="#000000"/><text fill="#000000" font-family="sans-serif" font-size="12" lengthAdjust="spacingAndGlyphs" textLength="57" x="986.75" y="326.1543">StartView</text><line style="stroke:#A80036;stroke-width:1.5;" x1="939.5" x2="1061.5" y1="338" y2="338"/><line style="stroke:#A80036;stroke-width:1.5;" x1="939.5" x2="1061.5" y1="346" y2="346"/><polygon fill="#4177AF" points="949.5,353,945.5,359,953.5,359" style="stroke:#1963A0;stroke-width:1.0;"/><text fill="#000000" font-family="sans-serif" font-size="11" lengthAdjust="spacingAndGlyphs" textLength="98" x="958.5" y="360.2104">StartView(Game)</text><polygon fill="#4177AF" points="949.5,365.8047,945.5,371.8047,953.5,371.8047" style="stroke:#1963A0;stroke-width:1.0;"/><text fill="#000000" font-family="sans-serif" font-size="11" lengthAdjust="spacingAndGlyphs" textLength="51" x="958.5" y="373.0151">interact()</text><!--MD5=[b29758acbc8a76271a939284967915a0]
class usantatecla.tictactoe.views.graphics.GraphicsView--><rect codeLine="160" fill="#FEFECE" filter="url(#f1amd3dcgilf8q)" height="60.8047" id="usantatecla.tictactoe.views.graphics.GraphicsView" style="stroke:#A80036;stroke-width:1.5;" width="125" x="938" y="115"/><ellipse cx="957.95" cy="131" fill="#ADD1B2" rx="11" ry="11" style="stroke:#A80036;stroke-width:1.0;"/><path d="M960.2938,126.6719 C959.3563,126.2344 958.7625,126.0938 957.8875,126.0938 C955.2625,126.0938 953.2625,128.1719 953.2625,130.8906 L953.2625,132.0156 C953.2625,134.5938 955.3719,136.4844 958.2625,136.4844 C959.4813,136.4844 960.6375,136.1875 961.3875,135.6406 C961.9656,135.2344 962.2938,134.7813 962.2938,134.3906 C962.2938,133.9375 961.9031,133.5469 961.4344,133.5469 C961.2156,133.5469 961.0125,133.625 960.825,133.8125 C960.3719,134.2969 960.3719,134.2969 960.1844,134.3906 C959.7625,134.6563 959.075,134.7813 958.3094,134.7813 C956.2625,134.7813 954.9656,133.6875 954.9656,131.9844 L954.9656,130.8906 C954.9656,129.1094 956.2156,127.7969 957.95,127.7969 C958.5281,127.7969 959.1375,127.9531 959.6063,128.2031 C960.0906,128.4844 960.2625,128.7031 960.3563,129.1094 C960.4188,129.5156 960.45,129.6406 960.5906,129.7656 C960.7313,129.9063 960.9656,130.0156 961.1844,130.0156 C961.45,130.0156 961.7156,129.875 961.8875,129.6563 C961.9969,129.5 962.0281,129.3125 962.0281,128.8906 L962.0281,127.4688 C962.0281,127.0313 962.0125,126.9063 961.9188,126.75 C961.7625,126.4844 961.4813,126.3438 961.1844,126.3438 C960.8875,126.3438 960.6844,126.4375 960.4656,126.75 L960.2938,126.6719 Z " fill="#000000"/><text fill="#000000" font-family="sans-serif" font-size="12" lengthAdjust="spacingAndGlyphs" textLength="82" x="973.05" y="135.1543">GraphicsView</text><line style="stroke:#A80036;stroke-width:1.5;" x1="939" x2="1062" y1="147" y2="147"/><line style="stroke:#A80036;stroke-width:1.5;" x1="939" x2="1062" y1="155" y2="155"/><ellipse cx="949" cy="166" fill="#84BE84" rx="3" ry="3" style="stroke:#038048;stroke-width:1.0;"/><text fill="#000000" font-family="sans-serif" font-size="11" lengthAdjust="spacingAndGlyphs" textLength="99" x="958" y="169.2104">View(GameView)</text><!--MD5=[86cec68673cafdfc1c204348d5b2cca6]
class ErrorView--><rect codeLine="53" fill="#FEFECE" filter="url(#f1amd3dcgilf8q)" height="48" id="ErrorView" style="stroke:#A80036;stroke-width:1.5;" width="255" x="7" y="778.5"/><ellipse cx="22" cy="794.5" fill="#ADD1B2" rx="11" ry="11" style="stroke:#A80036;stroke-width:1.0;"/><path d="M24.3438,790.1719 C23.4063,789.7344 22.8125,789.5938 21.9375,789.5938 C19.3125,789.5938 17.3125,791.6719 17.3125,794.3906 L17.3125,795.5156 C17.3125,798.0938 19.4219,799.9844 22.3125,799.9844 C23.5313,799.9844 24.6875,799.6875 25.4375,799.1406 C26.0156,798.7344 26.3438,798.2813 26.3438,797.8906 C26.3438,797.4375 25.9531,797.0469 25.4844,797.0469 C25.2656,797.0469 25.0625,797.125 24.875,797.3125 C24.4219,797.7969 24.4219,797.7969 24.2344,797.8906 C23.8125,798.1563 23.125,798.2813 22.3594,798.2813 C20.3125,798.2813 19.0156,797.1875 19.0156,795.4844 L19.0156,794.3906 C19.0156,792.6094 20.2656,791.2969 22,791.2969 C22.5781,791.2969 23.1875,791.4531 23.6563,791.7031 C24.1406,791.9844 24.3125,792.2031 24.4063,792.6094 C24.4688,793.0156 24.5,793.1406 24.6406,793.2656 C24.7813,793.4063 25.0156,793.5156 25.2344,793.5156 C25.5,793.5156 25.7656,793.375 25.9375,793.1563 C26.0469,793 26.0781,792.8125 26.0781,792.3906 L26.0781,790.9688 C26.0781,790.5313 26.0625,790.4063 25.9688,790.25 C25.8125,789.9844 25.5313,789.8438 25.2344,789.8438 C24.9375,789.8438 24.7344,789.9375 24.5156,790.25 L24.3438,790.1719 Z " fill="#000000"/><text fill="#000000" font-family="sans-serif" font-size="12" lengthAdjust="spacingAndGlyphs" textLength="223" x="36" y="798.6543">usantatecla.tictactoe.views.ErrorView</text><line style="stroke:#A80036;stroke-width:1.5;" x1="8" x2="261" y1="810.5" y2="810.5"/><line style="stroke:#A80036;stroke-width:1.5;" x1="8" x2="261" y1="818.5" y2="818.5"/><!--MD5=[8c7d7abc12e214c3cc12c9ab70edee11]
class Coordinate--><rect codeLine="72" fill="#FEFECE" filter="url(#f1amd3dcgilf8q)" height="48" id="Coordinate" style="stroke:#A80036;stroke-width:1.5;" width="272" x="1576.5" y="778.5"/><ellipse cx="1591.5" cy="794.5" fill="#ADD1B2" rx="11" ry="11" style="stroke:#A80036;stroke-width:1.0;"/><path d="M1593.8438,790.1719 C1592.9063,789.7344 1592.3125,789.5938 1591.4375,789.5938 C1588.8125,789.5938 1586.8125,791.6719 1586.8125,794.3906 L1586.8125,795.5156 C1586.8125,798.0938 1588.9219,799.9844 1591.8125,799.9844 C1593.0313,799.9844 1594.1875,799.6875 1594.9375,799.1406 C1595.5156,798.7344 1595.8438,798.2813 1595.8438,797.8906 C1595.8438,797.4375 1595.4531,797.0469 1594.9844,797.0469 C1594.7656,797.0469 1594.5625,797.125 1594.375,797.3125 C1593.9219,797.7969 1593.9219,797.7969 1593.7344,797.8906 C1593.3125,798.1563 1592.625,798.2813 1591.8594,798.2813 C1589.8125,798.2813 1588.5156,797.1875 1588.5156,795.4844 L1588.5156,794.3906 C1588.5156,792.6094 1589.7656,791.2969 1591.5,791.2969 C1592.0781,791.2969 1592.6875,791.4531 1593.1563,791.7031 C1593.6406,791.9844 1593.8125,792.2031 1593.9063,792.6094 C1593.9688,793.0156 1594,793.1406 1594.1406,793.2656 C1594.2813,793.4063 1594.5156,793.5156 1594.7344,793.5156 C1595,793.5156 1595.2656,793.375 1595.4375,793.1563 C1595.5469,793 1595.5781,792.8125 1595.5781,792.3906 L1595.5781,790.9688 C1595.5781,790.5313 1595.5625,790.4063 1595.4688,790.25 C1595.3125,789.9844 1595.0313,789.8438 1594.7344,789.8438 C1594.4375,789.8438 1594.2344,789.9375 1594.0156,790.25 L1593.8438,790.1719 Z " fill="#000000"/><text fill="#000000" font-family="sans-serif" font-size="12" lengthAdjust="spacingAndGlyphs" textLength="240" x="1605.5" y="798.6543">usantatecla.tictactoe.models.Coordinate</text><line style="stroke:#A80036;stroke-width:1.5;" x1="1577.5" x2="1847.5" y1="810.5" y2="810.5"/><line style="stroke:#A80036;stroke-width:1.5;" x1="1577.5" x2="1847.5" y1="818.5" y2="818.5"/><!--MD5=[b8cfd8c4119a3b0a7a46bfc5fc780f85]
class Error--><rect codeLine="52" fill="#FEFECE" filter="url(#f1amd3dcgilf8q)" height="48" id="Error" style="stroke:#A80036;stroke-width:1.5;" width="225" x="1316" y="778.5"/><ellipse cx="1331" cy="794.5" fill="#ADD1B2" rx="11" ry="11" style="stroke:#A80036;stroke-width:1.0;"/><path d="M1333.3438,790.1719 C1332.4063,789.7344 1331.8125,789.5938 1330.9375,789.5938 C1328.3125,789.5938 1326.3125,791.6719 1326.3125,794.3906 L1326.3125,795.5156 C1326.3125,798.0938 1328.4219,799.9844 1331.3125,799.9844 C1332.5313,799.9844 1333.6875,799.6875 1334.4375,799.1406 C1335.0156,798.7344 1335.3438,798.2813 1335.3438,797.8906 C1335.3438,797.4375 1334.9531,797.0469 1334.4844,797.0469 C1334.2656,797.0469 1334.0625,797.125 1333.875,797.3125 C1333.4219,797.7969 1333.4219,797.7969 1333.2344,797.8906 C1332.8125,798.1563 1332.125,798.2813 1331.3594,798.2813 C1329.3125,798.2813 1328.0156,797.1875 1328.0156,795.4844 L1328.0156,794.3906 C1328.0156,792.6094 1329.2656,791.2969 1331,791.2969 C1331.5781,791.2969 1332.1875,791.4531 1332.6563,791.7031 C1333.1406,791.9844 1333.3125,792.2031 1333.4063,792.6094 C1333.4688,793.0156 1333.5,793.1406 1333.6406,793.2656 C1333.7813,793.4063 1334.0156,793.5156 1334.2344,793.5156 C1334.5,793.5156 1334.7656,793.375 1334.9375,793.1563 C1335.0469,793 1335.0781,792.8125 1335.0781,792.3906 L1335.0781,790.9688 C1335.0781,790.5313 1335.0625,790.4063 1334.9688,790.25 C1334.8125,789.9844 1334.5313,789.8438 1334.2344,789.8438 C1333.9375,789.8438 1333.7344,789.9375 1333.5156,790.25 L1333.3438,790.1719 Z " fill="#000000"/><text fill="#000000" font-family="sans-serif" font-size="12" lengthAdjust="spacingAndGlyphs" textLength="193" x="1345" y="798.6543">usantatecla.tictactoe.types.Error</text><line style="stroke:#A80036;stroke-width:1.5;" x1="1317" x2="1540" y1="810.5" y2="810.5"/><line style="stroke:#A80036;stroke-width:1.5;" x1="1317" x2="1540" y1="818.5" y2="818.5"/><!--MD5=[b6dcce5e5ef3c84b0b048d11301373dd]
class Game--><rect codeLine="105" fill="#FEFECE" filter="url(#f1amd3dcgilf8q)" height="48" id="Game" style="stroke:#A80036;stroke-width:1.5;" width="241" x="2499" y="778.5"/><ellipse cx="2514" cy="794.5" fill="#ADD1B2" rx="11" ry="11" style="stroke:#A80036;stroke-width:1.0;"/><path d="M2516.3438,790.1719 C2515.4063,789.7344 2514.8125,789.5938 2513.9375,789.5938 C2511.3125,789.5938 2509.3125,791.6719 2509.3125,794.3906 L2509.3125,795.5156 C2509.3125,798.0938 2511.4219,799.9844 2514.3125,799.9844 C2515.5313,799.9844 2516.6875,799.6875 2517.4375,799.1406 C2518.0156,798.7344 2518.3438,798.2813 2518.3438,797.8906 C2518.3438,797.4375 2517.9531,797.0469 2517.4844,797.0469 C2517.2656,797.0469 2517.0625,797.125 2516.875,797.3125 C2516.4219,797.7969 2516.4219,797.7969 2516.2344,797.8906 C2515.8125,798.1563 2515.125,798.2813 2514.3594,798.2813 C2512.3125,798.2813 2511.0156,797.1875 2511.0156,795.4844 L2511.0156,794.3906 C2511.0156,792.6094 2512.2656,791.2969 2514,791.2969 C2514.5781,791.2969 2515.1875,791.4531 2515.6563,791.7031 C2516.1406,791.9844 2516.3125,792.2031 2516.4063,792.6094 C2516.4688,793.0156 2516.5,793.1406 2516.6406,793.2656 C2516.7813,793.4063 2517.0156,793.5156 2517.2344,793.5156 C2517.5,793.5156 2517.7656,793.375 2517.9375,793.1563 C2518.0469,793 2518.0781,792.8125 2518.0781,792.3906 L2518.0781,790.9688 C2518.0781,790.5313 2518.0625,790.4063 2517.9688,790.25 C2517.8125,789.9844 2517.5313,789.8438 2517.2344,789.8438 C2516.9375,789.8438 2516.7344,789.9375 2516.5156,790.25 L2516.3438,790.1719 Z " fill="#000000"/><text fill="#000000" font-family="sans-serif" font-size="12" lengthAdjust="spacingAndGlyphs" textLength="209" x="2528" y="798.6543">usantatecla.tictactoe.models.Game</text><line style="stroke:#A80036;stroke-width:1.5;" x1="2500" x2="2739" y1="810.5" y2="810.5"/><line style="stroke:#A80036;stroke-width:1.5;" x1="2500" x2="2739" y1="818.5" y2="818.5"/><!--MD5=[d8c8cfd5ca149094f5b67f9f607a5ec7]
class Token--><rect codeLine="106" fill="#FEFECE" filter="url(#f1amd3dcgilf8q)" height="48" id="Token" style="stroke:#A80036;stroke-width:1.5;" width="232" x="1883.5" y="778.5"/><ellipse cx="1898.5" cy="794.5" fill="#ADD1B2" rx="11" ry="11" style="stroke:#A80036;stroke-width:1.0;"/><path d="M1900.8438,790.1719 C1899.9063,789.7344 1899.3125,789.5938 1898.4375,789.5938 C1895.8125,789.5938 1893.8125,791.6719 1893.8125,794.3906 L1893.8125,795.5156 C1893.8125,798.0938 1895.9219,799.9844 1898.8125,799.9844 C1900.0313,799.9844 1901.1875,799.6875 1901.9375,799.1406 C1902.5156,798.7344 1902.8438,798.2813 1902.8438,797.8906 C1902.8438,797.4375 1902.4531,797.0469 1901.9844,797.0469 C1901.7656,797.0469 1901.5625,797.125 1901.375,797.3125 C1900.9219,797.7969 1900.9219,797.7969 1900.7344,797.8906 C1900.3125,798.1563 1899.625,798.2813 1898.8594,798.2813 C1896.8125,798.2813 1895.5156,797.1875 1895.5156,795.4844 L1895.5156,794.3906 C1895.5156,792.6094 1896.7656,791.2969 1898.5,791.2969 C1899.0781,791.2969 1899.6875,791.4531 1900.1563,791.7031 C1900.6406,791.9844 1900.8125,792.2031 1900.9063,792.6094 C1900.9688,793.0156 1901,793.1406 1901.1406,793.2656 C1901.2813,793.4063 1901.5156,793.5156 1901.7344,793.5156 C1902,793.5156 1902.2656,793.375 1902.4375,793.1563 C1902.5469,793 1902.5781,792.8125 1902.5781,792.3906 L1902.5781,790.9688 C1902.5781,790.5313 1902.5625,790.4063 1902.4688,790.25 C1902.3125,789.9844 1902.0313,789.8438 1901.7344,789.8438 C1901.4375,789.8438 1901.2344,789.9375 1901.0156,790.25 L1900.8438,790.1719 Z " fill="#000000"/><text fill="#000000" font-family="sans-serif" font-size="12" lengthAdjust="spacingAndGlyphs" textLength="200" x="1912.5" y="798.6543">usantatecla.tictactoe.types.Token</text><line style="stroke:#A80036;stroke-width:1.5;" x1="1884.5" x2="2114.5" y1="810.5" y2="810.5"/><line style="stroke:#A80036;stroke-width:1.5;" x1="1884.5" x2="2114.5" y1="818.5" y2="818.5"/><!--MD5=[bea5b0d46523efab5ea1c1d339f396f0]
class Message--><rect codeLine="107" fill="#FEFECE" filter="url(#f1amd3dcgilf8q)" height="48" id="Message" style="stroke:#A80036;stroke-width:1.5;" width="251" x="2775" y="778.5"/><ellipse cx="2790" cy="794.5" fill="#ADD1B2" rx="11" ry="11" style="stroke:#A80036;stroke-width:1.0;"/><path d="M2792.3438,790.1719 C2791.4063,789.7344 2790.8125,789.5938 2789.9375,789.5938 C2787.3125,789.5938 2785.3125,791.6719 2785.3125,794.3906 L2785.3125,795.5156 C2785.3125,798.0938 2787.4219,799.9844 2790.3125,799.9844 C2791.5313,799.9844 2792.6875,799.6875 2793.4375,799.1406 C2794.0156,798.7344 2794.3438,798.2813 2794.3438,797.8906 C2794.3438,797.4375 2793.9531,797.0469 2793.4844,797.0469 C2793.2656,797.0469 2793.0625,797.125 2792.875,797.3125 C2792.4219,797.7969 2792.4219,797.7969 2792.2344,797.8906 C2791.8125,798.1563 2791.125,798.2813 2790.3594,798.2813 C2788.3125,798.2813 2787.0156,797.1875 2787.0156,795.4844 L2787.0156,794.3906 C2787.0156,792.6094 2788.2656,791.2969 2790,791.2969 C2790.5781,791.2969 2791.1875,791.4531 2791.6563,791.7031 C2792.1406,791.9844 2792.3125,792.2031 2792.4063,792.6094 C2792.4688,793.0156 2792.5,793.1406 2792.6406,793.2656 C2792.7813,793.4063 2793.0156,793.5156 2793.2344,793.5156 C2793.5,793.5156 2793.7656,793.375 2793.9375,793.1563 C2794.0469,793 2794.0781,792.8125 2794.0781,792.3906 L2794.0781,790.9688 C2794.0781,790.5313 2794.0625,790.4063 2793.9688,790.25 C2793.8125,789.9844 2793.5313,789.8438 2793.2344,789.8438 C2792.9375,789.8438 2792.7344,789.9375 2792.5156,790.25 L2792.3438,790.1719 Z " fill="#000000"/><text fill="#000000" font-family="sans-serif" font-size="12" lengthAdjust="spacingAndGlyphs" textLength="219" x="2804" y="798.6543">usantatecla.tictactoe.views.Message</text><line style="stroke:#A80036;stroke-width:1.5;" x1="2776" x2="3025" y1="810.5" y2="810.5"/><line style="stroke:#A80036;stroke-width:1.5;" x1="2776" x2="3025" y1="818.5" y2="818.5"/><!--MD5=[d506edff6720ca4585c5d273d13f8178]
class TokenView--><rect codeLine="108" fill="#FEFECE" filter="url(#f1amd3dcgilf8q)" height="48" id="TokenView" style="stroke:#A80036;stroke-width:1.5;" width="313" x="2151" y="778.5"/><ellipse cx="2166" cy="794.5" fill="#ADD1B2" rx="11" ry="11" style="stroke:#A80036;stroke-width:1.0;"/><path d="M2168.3438,790.1719 C2167.4063,789.7344 2166.8125,789.5938 2165.9375,789.5938 C2163.3125,789.5938 2161.3125,791.6719 2161.3125,794.3906 L2161.3125,795.5156 C2161.3125,798.0938 2163.4219,799.9844 2166.3125,799.9844 C2167.5313,799.9844 2168.6875,799.6875 2169.4375,799.1406 C2170.0156,798.7344 2170.3438,798.2813 2170.3438,797.8906 C2170.3438,797.4375 2169.9531,797.0469 2169.4844,797.0469 C2169.2656,797.0469 2169.0625,797.125 2168.875,797.3125 C2168.4219,797.7969 2168.4219,797.7969 2168.2344,797.8906 C2167.8125,798.1563 2167.125,798.2813 2166.3594,798.2813 C2164.3125,798.2813 2163.0156,797.1875 2163.0156,795.4844 L2163.0156,794.3906 C2163.0156,792.6094 2164.2656,791.2969 2166,791.2969 C2166.5781,791.2969 2167.1875,791.4531 2167.6563,791.7031 C2168.1406,791.9844 2168.3125,792.2031 2168.4063,792.6094 C2168.4688,793.0156 2168.5,793.1406 2168.6406,793.2656 C2168.7813,793.4063 2169.0156,793.5156 2169.2344,793.5156 C2169.5,793.5156 2169.7656,793.375 2169.9375,793.1563 C2170.0469,793 2170.0781,792.8125 2170.0781,792.3906 L2170.0781,790.9688 C2170.0781,790.5313 2170.0625,790.4063 2169.9688,790.25 C2169.8125,789.9844 2169.5313,789.8438 2169.2344,789.8438 C2168.9375,789.8438 2168.7344,789.9375 2168.5156,790.25 L2168.3438,790.1719 Z " fill="#000000"/><text fill="#000000" font-family="sans-serif" font-size="12" lengthAdjust="spacingAndGlyphs" textLength="281" x="2180" y="798.6543">usantatecla.tictactoe.views.console.TokenView</text><line style="stroke:#A80036;stroke-width:1.5;" x1="2152" x2="2463" y1="810.5" y2="810.5"/><line style="stroke:#A80036;stroke-width:1.5;" x1="2152" x2="2463" y1="818.5" y2="818.5"/><!--MD5=[c045e12321b83266d36d22b9096c24ea]
class View--><rect codeLine="166" fill="#FEFECE" filter="url(#f1amd3dcgilf8q)" height="48" id="View" style="stroke:#A80036;stroke-width:1.5;" width="61" x="970" y="7"/><ellipse cx="985" cy="23" fill="#ADD1B2" rx="11" ry="11" style="stroke:#A80036;stroke-width:1.0;"/><path d="M987.3438,18.6719 C986.4063,18.2344 985.8125,18.0938 984.9375,18.0938 C982.3125,18.0938 980.3125,20.1719 980.3125,22.8906 L980.3125,24.0156 C980.3125,26.5938 982.4219,28.4844 985.3125,28.4844 C986.5313,28.4844 987.6875,28.1875 988.4375,27.6406 C989.0156,27.2344 989.3438,26.7813 989.3438,26.3906 C989.3438,25.9375 988.9531,25.5469 988.4844,25.5469 C988.2656,25.5469 988.0625,25.625 987.875,25.8125 C987.4219,26.2969 987.4219,26.2969 987.2344,26.3906 C986.8125,26.6563 986.125,26.7813 985.3594,26.7813 C983.3125,26.7813 982.0156,25.6875 982.0156,23.9844 L982.0156,22.8906 C982.0156,21.1094 983.2656,19.7969 985,19.7969 C985.5781,19.7969 986.1875,19.9531 986.6563,20.2031 C987.1406,20.4844 987.3125,20.7031 987.4063,21.1094 C987.4688,21.5156 987.5,21.6406 987.6406,21.7656 C987.7813,21.9063 988.0156,22.0156 988.2344,22.0156 C988.5,22.0156 988.7656,21.875 988.9375,21.6563 C989.0469,21.5 989.0781,21.3125 989.0781,20.8906 L989.0781,19.4688 C989.0781,19.0313 989.0625,18.9063 988.9688,18.75 C988.8125,18.4844 988.5313,18.3438 988.2344,18.3438 C987.9375,18.3438 987.7344,18.4375 987.5156,18.75 L987.3438,18.6719 Z " fill="#000000"/><text fill="#000000" font-family="sans-serif" font-size="12" lengthAdjust="spacingAndGlyphs" textLength="29" x="999" y="27.1543">View</text><line style="stroke:#A80036;stroke-width:1.5;" x1="971" x2="1030" y1="39" y2="39"/><line style="stroke:#A80036;stroke-width:1.5;" x1="971" x2="1030" y1="47" y2="47"/><!--MD5=[d3c9a5757afba531d011729e12705f16]
link usantatecla.tictactoe.views.graphics.ChoosePlayersView to usantatecla.tictactoe.views.graphics.Constraints--><path codeLine="25" d="M626.5,712.022 C626.5,731.686 626.5,751.047 626.5,766.7017 " fill="none" id="usantatecla.tictactoe.views.graphics.ChoosePlayersView-to-usantatecla.tictactoe.views.graphics.Constraints" style="stroke:#A80036;stroke-width:1.0;stroke-dasharray:7.0,7.0;"/><polygon fill="#A80036" points="626.5,771.8638,630.5,762.8638,626.5,766.8638,622.5,762.8638,626.5,771.8638" style="stroke:#A80036;stroke-width:1.0;"/><!--MD5=[097649e5b245f3ec4f75fa600c7fc35b]
link usantatecla.tictactoe.views.graphics.ChoosePlayersView to ErrorView--><path codeLine="26" d="M525.396,701.903 C519.505,705.563 513.524,708.962 507.5,712 C484.038,723.835 347.719,755.097 246.625,777.3332 " fill="none" id="usantatecla.tictactoe.views.graphics.ChoosePlayersView-to-ErrorView" style="stroke:#A80036;stroke-width:1.0;stroke-dasharray:7.0,7.0;"/><polygon fill="#A80036" points="241.536,778.4514,251.1847,780.427,246.4195,777.3785,249.4681,772.6134,241.536,778.4514" style="stroke:#A80036;stroke-width:1.0;"/><!--MD5=[9ba02933008687e289d356350d3b06d6]
reverse link usantatecla.tictactoe.views.graphics.CoordinateView to usantatecla.tictactoe.views.graphics.CoordinateMoveView--><path d="M584.598,425.363 C598.994,433.826 613.499,442.183 627.5,450 C678.524,478.489 694.245,480.175 744.5,510 C750.34,513.466 756.261,517.074 762.207,520.775 " fill="none" id="usantatecla.tictactoe.views.graphics.CoordinateView-backto-usantatecla.tictactoe.views.graphics.CoordinateMoveView" style="stroke:#A80036;stroke-width:1.0;"/><polygon fill="none" points="580.773,431.233,567.133,415.017,587.908,419.188,580.773,431.233" style="stroke:#A80036;stroke-width:1.0;"/><!--MD5=[3fddb1a8e998ae9eeb8cf10857055a78]
link usantatecla.tictactoe.views.graphics.CoordinateMoveView to Error--><path codeLine="56" d="M1020.62,703.98 C1026.23,706.845 1031.87,709.535 1037.5,712 C1037.71,712.092 1207.03,750.835 1322.75,777.3099 " fill="none" id="usantatecla.tictactoe.views.graphics.CoordinateMoveView-to-Error" style="stroke:#A80036;stroke-width:1.0;stroke-dasharray:7.0,7.0;"/><polygon fill="#A80036" points="1327.88,778.4824,1319.9978,772.5772,1323.0058,777.3681,1318.2149,780.376,1327.88,778.4824" style="stroke:#A80036;stroke-width:1.0;"/><!--MD5=[9469190bf13ee434badbb380a30ac1af]
link usantatecla.tictactoe.views.graphics.CoordinateMoveView to ErrorView--><path codeLine="57" d="M762.196,704.479 C756.327,707.228 750.416,709.755 744.5,712 C549.265,786.0909 484.483,737.689 278.5,772 C268.441,773.6756 258.013,775.5469 247.578,777.5119 " fill="none" id="usantatecla.tictactoe.views.graphics.CoordinateMoveView-to-ErrorView" style="stroke:#A80036;stroke-width:1.0;stroke-dasharray:7.0,7.0;"/><polygon fill="#A80036" points="242.456,778.4837,252.0436,780.7371,247.3685,777.5523,250.5533,772.8771,242.456,778.4837" style="stroke:#A80036;stroke-width:1.0;"/><!--MD5=[44f9a69841386c9dbcc6511b7b58c5c0]
link usantatecla.tictactoe.views.graphics.CoordinateMoveView to Coordinate--><path codeLine="58" d="M1031.7409,709.7266 C1031.7409,709.7266 1035.92,711.41 1037.5,712 C1255.84,793.5863 1328.1,736.716 1558.5,772 C1567,773.3013 1575.74,774.7304 1584.54,776.236 " fill="none" id="usantatecla.tictactoe.views.graphics.CoordinateMoveView-Coordinate" style="stroke:#A80036;stroke-width:1.0;"/><polygon fill="#A80036" points="1597.45,778.4907,1589.269,773.0069,1592.524,777.6335,1587.8975,780.8885,1597.45,778.4907" style="stroke:#A80036;stroke-width:1.0;"/><line style="stroke:#A80036;stroke-width:1.0;" x1="1592.524" x2="1584.65" y1="777.6335" y2="776.2545"/><polygon fill="#A80036" points="1020.72,704.979,1024.6479,711.0264,1031.7409,709.7266,1027.813,703.6791,1020.72,704.979" style="stroke:#A80036;stroke-width:1.0;"/><text fill="#000000" font-family="sans-serif" font-size="13" lengthAdjust="spacingAndGlyphs" textLength="8" x="1560.4316" y="767.8938">2</text><!--MD5=[c4cc2b9855b948b314184562ef1cf463]
reverse link usantatecla.tictactoe.views.graphics.CoordinateView to usantatecla.tictactoe.views.graphics.CoordinatePutView--><path d="M424.083,469.983 C418.502,494.724 412.848,519.789 407.897,541.742 " fill="none" id="usantatecla.tictactoe.views.graphics.CoordinateView-backto-usantatecla.tictactoe.views.graphics.CoordinatePutView" style="stroke:#A80036;stroke-width:1.0;"/><polygon fill="none" points="417.299,468.247,428.528,450.277,430.955,471.327,417.299,468.247" style="stroke:#A80036;stroke-width:1.0;"/><!--MD5=[7e8c25c40135b9bb2101f02d22fc75c5]
link usantatecla.tictactoe.views.graphics.CoordinatePutView to ErrorView--><path codeLine="74" d="M299.721,680.146 C254.925,713.048 203.789,750.608 170.422,775.1156 " fill="none" id="usantatecla.tictactoe.views.graphics.CoordinatePutView-to-ErrorView" style="stroke:#A80036;stroke-width:1.0;stroke-dasharray:7.0,7.0;"/><polygon fill="#A80036" points="166.037,778.3362,175.6585,776.2321,170.0667,775.3763,170.9226,769.7845,166.037,778.3362" style="stroke:#A80036;stroke-width:1.0;"/><!--MD5=[bea0dc8641a495cf28ff6a35a943745f]
link usantatecla.tictactoe.views.graphics.CoordinatePutView to Coordinate--><path codeLine="75" d="M465.5531,687.4667 C465.5531,687.4667 493.14,706.158 507.5,712 C724.189,800.157 1326.34,743.264 1558.5,772 C1568.38,773.2226 1578.58,774.6977 1588.8,776.3283 " fill="none" id="usantatecla.tictactoe.views.graphics.CoordinatePutView-Coordinate" style="stroke:#A80036;stroke-width:1.0;"/><polygon fill="#A80036" points="1601.74,778.4695,1593.5163,773.05,1596.8075,777.6509,1592.2066,780.942,1601.74,778.4695" style="stroke:#A80036;stroke-width:1.0;"/><line style="stroke:#A80036;stroke-width:1.0;" x1="1596.8075" x2="1588.915" y1="777.6509" y2="776.3477"/><polygon fill="#A80036" points="456.107,680.066,458.3631,686.9151,465.5531,687.4667,463.297,680.6177,456.107,680.066" style="stroke:#A80036;stroke-width:1.0;"/><!--MD5=[49f05c73929f31500fd33b015ed478c3]
link usantatecla.tictactoe.views.graphics.GameView to Game--><path codeLine="110" d="M1295.5259,625.9208 C1295.5259,625.9208 2254.9,734.04 2481.5,772 C2488.85,773.2317 2496.41,774.5874 2504.01,776.0202 " fill="none" id="usantatecla.tictactoe.views.graphics.GameView-Game" style="stroke:#A80036;stroke-width:1.0;"/><polygon fill="#A80036" points="2516.83,778.496,2508.7545,772.8581,2511.9212,777.5455,2507.2337,780.7122,2516.83,778.496" style="stroke:#A80036;stroke-width:1.0;"/><line style="stroke:#A80036;stroke-width:1.0;" x1="2511.9212" x2="2504.065" y1="777.5455" y2="776.0306"/><polygon fill="#A80036" points="1283.6,624.589,1289.119,629.2302,1295.5259,625.9208,1290.0069,621.2796,1283.6,624.589" style="stroke:#A80036;stroke-width:1.0;"/><!--MD5=[d9dc50346722c4e60ebf1972c0632d96]
link usantatecla.tictactoe.views.graphics.GameView to Coordinate--><path codeLine="111" d="M1283.66,651.841 C1391.69,689.542 1550.47,744.954 1641.45,776.7045 " fill="none" id="usantatecla.tictactoe.views.graphics.GameView-to-Coordinate" style="stroke:#A80036;stroke-width:1.0;stroke-dasharray:7.0,7.0;"/><polygon fill="#A80036" points="1646.27,778.3859,1639.0847,771.6501,1641.5478,776.7426,1636.4553,779.2057,1646.27,778.3859" style="stroke:#A80036;stroke-width:1.0;"/><!--MD5=[98cf87417c05d1144534cc8a81add82f]
link usantatecla.tictactoe.views.graphics.GameView to Token--><path codeLine="112" d="M1283.91,640.268 C1442.22,677.472 1726.09,742.242 1884.64,777.2984 " fill="none" id="usantatecla.tictactoe.views.graphics.GameView-to-Token" style="stroke:#A80036;stroke-width:1.0;stroke-dasharray:7.0,7.0;"/><polygon fill="#A80036" points="1889.76,778.4298,1881.8429,772.5715,1884.8792,777.3444,1880.1063,780.3807,1889.76,778.4298" style="stroke:#A80036;stroke-width:1.0;"/><!--MD5=[98cf87417c05d1144534cc8a81add82f]
link usantatecla.tictactoe.views.graphics.GameView to Token--><path codeLine="114" d="M1283.53,635.904 C1448.05,672.201 1748.69,740.837 1902.9,777.3051 " fill="none" id="usantatecla.tictactoe.views.graphics.GameView-to-Token-1" style="stroke:#A80036;stroke-width:1.0;stroke-dasharray:7.0,7.0;"/><polygon fill="#A80036" points="1907.87,778.4816,1900.0231,772.5296,1903.0025,777.3383,1898.1938,780.3177,1907.87,778.4816" style="stroke:#A80036;stroke-width:1.0;"/><!--MD5=[5318572cb9563cc2a8eee4583b3e722d]
link usantatecla.tictactoe.views.graphics.GameView to Message--><path codeLine="113" d="M1283.62,619.444 C1545.29,637.397 2208.33,687.918 2757.5,772 C2768.04,773.6136 2778.97,775.4932 2789.89,777.5079 " fill="none" id="usantatecla.tictactoe.views.graphics.GameView-to-Message" style="stroke:#A80036;stroke-width:1.0;stroke-dasharray:7.0,7.0;"/><polygon fill="#A80036" points="2794.91,778.4426,2786.7933,772.8642,2789.9943,777.5282,2785.3303,780.7293,2794.91,778.4426" style="stroke:#A80036;stroke-width:1.0;"/><!--MD5=[758c6929156f68dc2a57a56ceec73e2f]
link usantatecla.tictactoe.views.graphics.GameView to TokenView--><path codeLine="115" d="M1283.78,630.837 C1464.3,660.62 1826.48,720.495 2133.5,772 C2144.24,773.8023 2155.36,775.673 2166.54,777.5584 " fill="none" id="usantatecla.tictactoe.views.graphics.GameView-to-TokenView" style="stroke:#A80036;stroke-width:1.0;stroke-dasharray:7.0,7.0;"/><polygon fill="#A80036" points="2171.68,778.4255,2163.4827,772.9661,2166.7515,777.5829,2162.1347,780.8517,2171.68,778.4255" style="stroke:#A80036;stroke-width:1.0;"/><!--MD5=[6c8d3c87249668b954d84bc523a396e8]
link usantatecla.tictactoe.views.graphics.PlayView to Coordinate--><path codeLine="129" d="M845.446,405.759 C868.099,422.559 894.161,439.103 920.5,450 C1078.49,515.367 1142.11,445.6 1300.5,510 C1462.13,575.717 1621.59,715.568 1684.46,774.4626 " fill="none" id="usantatecla.tictactoe.views.graphics.PlayView-to-Coordinate" style="stroke:#A80036;stroke-width:1.0;stroke-dasharray:7.0,7.0;"/><polygon fill="#A80036" points="1688.46,778.2231,1684.6471,769.1422,1684.8188,774.7965,1679.1646,774.9682,1688.46,778.2231" style="stroke:#A80036;stroke-width:1.0;"/><!--MD5=[a8673888d72c14a40b053689fc6ce082]
link usantatecla.tictactoe.views.graphics.PlayView to Game--><path codeLine="130" d="M853.7082,412.8066 C853.7082,412.8066 897.577,441.184 920.5,450 C1154.95,540.174 1236.97,456.941 1482.5,510 C1762.06,570.412 1815.44,645.026 2093.5,712 C2263.14,752.86 2309.89,740.415 2481.5,772 C2488.19,773.2316 2495.06,774.5433 2501.98,775.903 " fill="none" id="usantatecla.tictactoe.views.graphics.PlayView-Game" style="stroke:#A80036;stroke-width:1.0;"/><polygon fill="#A80036" points="2514.89,778.4811,2506.8463,772.7979,2509.9866,777.503,2505.2814,780.6433,2514.89,778.4811" style="stroke:#A80036;stroke-width:1.0;"/><line style="stroke:#A80036;stroke-width:1.0;" x1="2509.9866" x2="2502.14" y1="777.503" y2="775.9361"/><polygon fill="#A80036" points="843.998,405.756,846.5029,412.5181,853.7082,412.8066,851.2033,406.0446,843.998,405.756" style="stroke:#A80036;stroke-width:1.0;"/><!--MD5=[b3495437272db327a9b9b923f04dd7a8]
link usantatecla.tictactoe.views.graphics.PlayView to usantatecla.tictactoe.views.graphics.GameView--><path codeLine="131" d="M864.5826,412.6937 C864.5826,412.6937 902.291,438.813 920.5,450 C970.293,480.591 988.021,478.904 1037.5,510 C1058.34,523.097 1080,538.619 1099.61,553.478 " fill="none" id="usantatecla.tictactoe.views.graphics.PlayView-usantatecla.tictactoe.views.graphics.GameView" style="stroke:#A80036;stroke-width:1.0;"/><polygon fill="#A80036" points="1109.97,561.407,1105.2544,552.7605,1105.9995,558.368,1100.392,559.1132,1109.97,561.407" style="stroke:#A80036;stroke-width:1.0;"/><line style="stroke:#A80036;stroke-width:1.0;" x1="1105.9995" x2="1099.645" y1="558.368" y2="553.5035"/><polygon fill="#A80036" points="854.827,405.706,857.3756,412.4517,864.5826,412.6937,862.034,405.948,854.827,405.706" style="stroke:#A80036;stroke-width:1.0;"/><!--MD5=[f3d7744a6e95e1fac8426b2aebf895cf]
link usantatecla.tictactoe.views.graphics.PlayView to usantatecla.tictactoe.views.graphics.CoordinateMoveView--><path codeLine="132" d="M806.4675,416.6784 C806.4675,416.6784 832.223,475.233 844.909,504.076 " fill="none" id="usantatecla.tictactoe.views.graphics.PlayView-usantatecla.tictactoe.views.graphics.CoordinateMoveView" style="stroke:#A80036;stroke-width:1.0;"/><polygon fill="#A80036" points="850.291,516.312,850.3288,506.4632,848.2779,511.7352,843.0059,509.6842,850.291,516.312" style="stroke:#A80036;stroke-width:1.0;"/><line style="stroke:#A80036;stroke-width:1.0;" x1="848.2779" x2="845.057" y1="511.7352" y2="504.412"/><polygon fill="#A80036" points="801.636,405.694,800.3903,412.7967,806.4675,416.6784,807.7132,409.5757,801.636,405.694" style="stroke:#A80036;stroke-width:1.0;"/><!--MD5=[0a8b17c9ad724979d7f062b72e066227]
link usantatecla.tictactoe.views.graphics.PlayView to usantatecla.tictactoe.views.graphics.CoordinatePutView--><path codeLine="133" d="M656.4083,411.8593 C656.4083,411.8593 554.25,475.483 507.5,510 C497.627,517.29 487.556,525.221 477.683,533.322 " fill="none" id="usantatecla.tictactoe.views.graphics.PlayView-usantatecla.tictactoe.views.graphics.CoordinatePutView" style="stroke:#A80036;stroke-width:1.0;"/><polygon fill="#A80036" points="467.482,541.806,476.9592,539.126,471.3261,538.6086,471.8435,532.9755,467.482,541.806" style="stroke:#A80036;stroke-width:1.0;"/><line style="stroke:#A80036;stroke-width:1.0;" x1="471.3261" x2="477.4775" y1="538.6086" y2="533.493"/><polygon fill="#A80036" points="666.689,405.67,659.4856,405.3377,656.4083,411.8593,663.6117,412.1915,666.689,405.67" style="stroke:#A80036;stroke-width:1.0;"/><!--MD5=[584a2e294dd01d43d10c5db7e7182e37]
link usantatecla.tictactoe.views.graphics.PlayView to ErrorView--><path codeLine="134" d="M667.2317,411.537 C667.2317,411.537 611.999,439.933 584.5,450 C453.948,497.795 387.85,425.436 277.5,510 C193.059,574.709 155.402,702.435 141.442,765.0953 " fill="none" id="usantatecla.tictactoe.views.graphics.PlayView-ErrorView" style="stroke:#A80036;stroke-width:1.0;"/><polygon fill="#A80036" points="138.671,778.1406,144.4534,770.1679,139.7097,773.2497,136.628,768.506,138.671,778.1406" style="stroke:#A80036;stroke-width:1.0;"/><line style="stroke:#A80036;stroke-width:1.0;" x1="139.7097" x2="141.372" y1="773.2497" y2="765.4243"/><polygon fill="#A80036" points="677.727,405.719,670.54,405.1296,667.2317,411.537,674.4187,412.1264,677.727,405.719" style="stroke:#A80036;stroke-width:1.0;"/><!--MD5=[2a50657cc2d2c7beda207052c8f608ce]
link usantatecla.tictactoe.views.graphics.PlayView to Message--><path codeLine="135" d="M852.3303,412.6564 C852.3303,412.6564 896.926,441.461 920.5,450 C1107.5,517.739 1617.29,477.421 1813.5,510 C2197.72,573.799 2642.66,714.987 2820.79,774.3589 " fill="none" id="usantatecla.tictactoe.views.graphics.PlayView-Message" style="stroke:#A80036;stroke-width:1.0;"/><polygon fill="#A80036" points="2833.15,778.4901,2825.8858,771.8394,2828.4087,776.9025,2823.3457,779.4254,2833.15,778.4901" style="stroke:#A80036;stroke-width:1.0;"/><line style="stroke:#A80036;stroke-width:1.0;" x1="2828.4087" x2="2820.825" y1="776.9025" y2="774.3691"/><polygon fill="#A80036" points="842.644,405.573,845.126,412.3435,852.3303,412.6564,849.8483,405.8859,842.644,405.573" style="stroke:#A80036;stroke-width:1.0;"/><!--MD5=[c14b38660ba676fcd822fa493a280da6]
link usantatecla.tictactoe.views.graphics.ResumeView to Message--><path codeLine="146" d="M1283.1,348.217 C1604.37,363.586 2658.03,420.435 2778.5,510 C2865.47,574.657 2890.86,713.095 2897.93,772.9528 " fill="none" id="usantatecla.tictactoe.views.graphics.ResumeView-to-Message" style="stroke:#A80036;stroke-width:1.0;stroke-dasharray:7.0,7.0;"/><polygon fill="#A80036" points="2898.52,778.1536,2901.4794,768.7599,2897.9561,773.1855,2893.5305,769.6621,2898.52,778.1536" style="stroke:#A80036;stroke-width:1.0;"/><!--MD5=[26333d93fb12993633c63a7e6e2712e2]
link usantatecla.tictactoe.views.graphics.StartView to Game--><path codeLine="155" d="M1023.4065,390.5493 C1023.4065,390.5493 1056.38,437.085 1080.5,450 C1280.08,556.867 1880.18,446.541 2097.5,510 C2292.74,567.012 2494.93,707.534 2579.04,770.3198 " fill="none" id="usantatecla.tictactoe.views.graphics.StartView-Game" style="stroke:#A80036;stroke-width:1.0;"/><polygon fill="#A80036" points="2589.64,778.2919,2584.8512,769.6857,2585.6439,775.2867,2580.0429,776.0794,2589.64,778.2919" style="stroke:#A80036;stroke-width:1.0;"/><line style="stroke:#A80036;stroke-width:1.0;" x1="2585.6439" x2="2579.255" y1="775.2867" y2="770.4797"/><polygon fill="#A80036" points="1017.36,380.184,1016.9281,387.3822,1023.4065,390.5493,1023.8383,383.3512,1017.36,380.184" style="stroke:#A80036;stroke-width:1.0;"/><!--MD5=[1a580dfaf81f9d2e169be64ae6fa8616]
link usantatecla.tictactoe.views.graphics.StartView to Message--><path codeLine="156" d="M1017.13,380.1 C1030.5,404.535 1051.79,434.999 1080.5,450 C1386.01,609.631 2327.19,346.229 2630.5,510 C2727.52,562.383 2696.47,634.104 2774.5,712 C2799.18,736.64 2831.28,759.332 2856.91,775.7013 " fill="none" id="usantatecla.tictactoe.views.graphics.StartView-to-Message" style="stroke:#A80036;stroke-width:1.0;stroke-dasharray:7.0,7.0;"/><polygon fill="#A80036" points="2861.28,778.478,2855.8325,770.2728,2857.061,775.7947,2851.5392,777.0232,2861.28,778.478" style="stroke:#A80036;stroke-width:1.0;"/><!--MD5=[d3fe2519a526687b7797eb4ee1d741b9]
link usantatecla.tictactoe.views.graphics.StartView to usantatecla.tictactoe.views.graphics.ChoosePlayersView--><path codeLine="157" d="M980.834,380.174 C966.738,403.062 945.809,431.685 920.5,450 C853.548,498.449 816.391,469.239 744.5,510 C740.383,512.334 736.273,514.821 732.19,517.429 " fill="none" id="usantatecla.tictactoe.views.graphics.StartView-to-usantatecla.tictactoe.views.graphics.ChoosePlayersView" style="stroke:#A80036;stroke-width:1.0;stroke-dasharray:7.0,7.0;"/><polygon fill="#A80036" points="727.77,520.304,737.4956,518.7508,731.9616,517.5782,733.1343,512.0442,727.77,520.304" style="stroke:#A80036;stroke-width:1.0;"/><!--MD5=[4dcb2f16afad519a420be42b3e5c40b5]
link usantatecla.tictactoe.views.graphics.StartView to usantatecla.tictactoe.views.graphics.GameView--><path codeLine="158" d="M1023.47,380.151 C1052.44,425.745 1102.48,504.506 1135.78,556.93 " fill="none" id="usantatecla.tictactoe.views.graphics.StartView-to-usantatecla.tictactoe.views.graphics.GameView" style="stroke:#A80036;stroke-width:1.0;stroke-dasharray:7.0,7.0;"/><polygon fill="#A80036" points="1138.55,561.288,1137.1083,551.5452,1135.8724,557.0654,1130.3522,555.8294,1138.55,561.288" style="stroke:#A80036;stroke-width:1.0;"/><!--MD5=[4c25f575b30a4d51df330db30603f3f4]
reverse link View to usantatecla.tictactoe.views.graphics.GraphicsView--><path d="M1000.5,75.109 C1000.5,88.312 1000.5,102.537 1000.5,114.65 " fill="none" id="View-backto-usantatecla.tictactoe.views.graphics.GraphicsView" style="stroke:#A80036;stroke-width:1.0;"/><polygon fill="none" points="993.5,75.038,1000.5,55.038,1007.5,75.037,993.5,75.038" style="stroke:#A80036;stroke-width:1.0;"/><!--MD5=[4cce1546795b2cf7834aa5204556fcae]
link usantatecla.tictactoe.views.graphics.GraphicsView to usantatecla.tictactoe.views.graphics.PlayView--><path codeLine="168" d="M957.0993,184.0426 C957.0993,184.0426 889.403,242.604 855.576,271.866 " fill="none" id="usantatecla.tictactoe.views.graphics.GraphicsView-usantatecla.tictactoe.views.graphics.PlayView" style="stroke:#A80036;stroke-width:1.0;"/><polygon fill="#A80036" points="845.693,280.415,855.1166,277.5523,849.4745,277.1439,849.8829,271.5018,845.693,280.415" style="stroke:#A80036;stroke-width:1.0;"/><line style="stroke:#A80036;stroke-width:1.0;" x1="849.4745" x2="855.5245" y1="277.1439" y2="271.91"/><polygon fill="#A80036" points="966.175,176.192,959.0203,177.0921,957.0993,184.0426,964.254,183.1425,966.175,176.192" style="stroke:#A80036;stroke-width:1.0;"/><!--MD5=[58e0d6819433a4c01fc0e40054a04aad]
link usantatecla.tictactoe.views.graphics.GraphicsView to usantatecla.tictactoe.views.graphics.StartView--><path codeLine="169" d="M1000.5,188.192 C1000.5,188.192 1000.5,260.791 1000.5,292.658 " fill="none" id="usantatecla.tictactoe.views.graphics.GraphicsView-usantatecla.tictactoe.views.graphics.StartView" style="stroke:#A80036;stroke-width:1.0;"/><polygon fill="#A80036" points="1000.5,305.695,1004.5,296.695,1000.5,300.695,996.5,296.695,1000.5,305.695" style="stroke:#A80036;stroke-width:1.0;"/><line style="stroke:#A80036;stroke-width:1.0;" x1="1000.5" x2="1000.5" y1="300.695" y2="292.695"/><polygon fill="#A80036" points="1000.5,176.192,996.5,182.192,1000.5,188.192,1004.5,182.192,1000.5,176.192" style="stroke:#A80036;stroke-width:1.0;"/><!--MD5=[b5ecd77b22463f284837547400e7c740]
link usantatecla.tictactoe.views.graphics.GraphicsView to usantatecla.tictactoe.views.graphics.ResumeView--><path codeLine="170" d="M1029.36,176.192 C1060.21,207.935 1109.53,258.688 1145.49,295.689 " fill="none" id="usantatecla.tictactoe.views.graphics.GraphicsView-to-usantatecla.tictactoe.views.graphics.ResumeView" style="stroke:#A80036;stroke-width:1.0;stroke-dasharray:7.0,7.0;"/><polygon fill="#A80036" points="1149.37,299.677,1145.9667,290.4348,1145.8855,296.0911,1140.2293,296.01,1149.37,299.677" style="stroke:#A80036;stroke-width:1.0;"/><!--MD5=[ad233752ee0b7293c744cf633172a888]
@startuml
class usantatecla.tictactoe.views.graphics.ChoosePlayersView {

	- {static} ACCEPT: String
	- label: JLabel
	- textField: JTextField
	- button: JButton
	- playersNumber: String

	~ ChoosePlayersView(JRootPane)
	~ resetPlayersNumber()
	~ getPlayersNumber(): String
	+ actionPerformed(ActionEvent)
	+ keyTyped(KeyEvent)
	+ keyPressed(KeyEvent)
	+ keyReleased(KeyEvent)

}

class ErrorView as "usantatecla.tictactoe.views.ErrorView"
class Coordinate as "usantatecla.tictactoe.models.Coordinate"




usantatecla.tictactoe.views.graphics.ChoosePlayersView .down.> usantatecla.tictactoe.views.graphics.Constraints
usantatecla.tictactoe.views.graphics.ChoosePlayersView .down.> ErrorView

class usantatecla.tictactoe.views.graphics.Constraints {

	~ Constraints(int, int, int, int)

}


class usantatecla.tictactoe.views.graphics.CoordinateMoveView extends usantatecla.tictactoe.views.graphics.CoordinateView {

	{static} ENTER_COORDINATE_TO_REMOVE: String
	- labelRowToMove: JLabel
	- labelColumnToMove: JLabel
	- titleLabelToMove: JLabel
	- textFieldRowToMove: JTextField
	- textFieldColumnToMove: JTextField
	- coordinates: Coordinate[]

	~ CoordinateMoveView()
	~ resetCoordinates()
	~ getCoordinates(): Coordinate[]
	+ actionPerformed(ActionEvent)

}

class Error as "usantatecla.tictactoe.types.Error"
class ErrorView as "usantatecla.tictactoe.views.ErrorView"


usantatecla.tictactoe.views.graphics.CoordinateMoveView .down.> Error
usantatecla.tictactoe.views.graphics.CoordinateMoveView .down.> ErrorView
usantatecla.tictactoe.views.graphics.CoordinateMoveView *-down-> "2" Coordinate

class usantatecla.tictactoe.views.graphics.CoordinatePutView extends usantatecla.tictactoe.views.graphics.CoordinateView {

	~ CoordinatePutView()
	~ resetCoordinate()
	~ Coordinate getCoordinate()
	+ actionPerformed(ActionEvent)
	+ keyTyped(KeyEvent)
	+ keyPressed(KeyEvent)
	+ keyReleased(KeyEvent)

}

class Coordinate as "usantatecla.tictactoe.models.Coordinate"

usantatecla.tictactoe.views.graphics.CoordinatePutView .down.> ErrorView
usantatecla.tictactoe.views.graphics.CoordinatePutView *-down-> Coordinate

class usantatecla.tictactoe.views.graphics.CoordinateView  {

	# {static} String ENTER_COORDINATE_TO_PUT
	# {static} String ACCEPT
	# labelRow: JLabel
	# labelColumn: JLabel
	# titleLabel: JLabel
	# textFieldRow: JTextField
	# textFieldColumn: JTextField
	# button: JButton

	CoordinateView()
	+ {abstract} actionPerformed(ActionEvent)
	+ keyTyped(KeyEvent)
	+ keyPressed(KeyEvent)
	+ keyReleased(KeyEvent)
}


class usantatecla.tictactoe.views.graphics.GameView  {

	~ GameView(Game)
	~ write()
	- printRowBoard(int)
	- getSquareBoardText(int, int): String

}

class Game as "usantatecla.tictactoe.models.Game"
class Token as "usantatecla.tictactoe.types.Token"
class Message as "usantatecla.tictactoe.views.Message"
class TokenView as "usantatecla.tictactoe.views.console.TokenView"

usantatecla.tictactoe.views.graphics.GameView *-down-> Game
usantatecla.tictactoe.views.graphics.GameView .down.> Coordinate
usantatecla.tictactoe.views.graphics.GameView .down.> Token
usantatecla.tictactoe.views.graphics.GameView .down.> Message
usantatecla.tictactoe.views.graphics.GameView .down.> Token
usantatecla.tictactoe.views.graphics.GameView .down.> TokenView

class usantatecla.tictactoe.views.graphics.PlayView {

	~ {static} ENTER_COORDINATE_TO_PUT: String
	~ {static} ENTER_COORDINATE_TO_REMOVE: String

	~ PlayView(Game)
	~ interact()
	- put()
	- move()

}

usantatecla.tictactoe.views.graphics.PlayView .down.> Coordinate
usantatecla.tictactoe.views.graphics.PlayView *-down-> Game
usantatecla.tictactoe.views.graphics.PlayView *-down-> usantatecla.tictactoe.views.graphics.GameView
usantatecla.tictactoe.views.graphics.PlayView *-down-> usantatecla.tictactoe.views.graphics.CoordinateMoveView
usantatecla.tictactoe.views.graphics.PlayView *-down-> usantatecla.tictactoe.views.graphics.CoordinatePutView
usantatecla.tictactoe.views.graphics.PlayView *-down-> ErrorView
usantatecla.tictactoe.views.graphics.PlayView *-down-> Message

class usantatecla.tictactoe.views.graphics.ResumeView {

	- newGame: boolean

	~ ResumeView()
	~ isResumedGame(): boolean

}

usantatecla.tictactoe.views.graphics.ResumeView .down.> Message

class usantatecla.tictactoe.views.graphics.StartView  {

	~ StartView(Game)
	~ interact()

}

usantatecla.tictactoe.views.graphics.StartView *-down-> Game
usantatecla.tictactoe.views.graphics.StartView .down.> Message
usantatecla.tictactoe.views.graphics.StartView .down.> usantatecla.tictactoe.views.graphics.ChoosePlayersView
usantatecla.tictactoe.views.graphics.StartView .down.> usantatecla.tictactoe.views.graphics.GameView

class usantatecla.tictactoe.views.graphics.GraphicsView extends View {

	+ View(GameView)

}

class View as "usantatecla.tictactoe.views.View"

usantatecla.tictactoe.views.graphics.GraphicsView *-down-> usantatecla.tictactoe.views.graphics.PlayView
usantatecla.tictactoe.views.graphics.GraphicsView *-down-> usantatecla.tictactoe.views.graphics.StartView
usantatecla.tictactoe.views.graphics.GraphicsView .down.> usantatecla.tictactoe.views.graphics.ResumeView
@enduml

PlantUML version 1.2020.23beta3(Unknown compile time)
(GPL source distribution)
Java Runtime: Java(TM) SE Runtime Environment
JVM: Java HotSpot(TM) 64-Bit Server VM
Default Encoding: UTF-8
Language: en
Country: US
--></g></svg>