<?xml version="1.0" encoding="UTF-8" standalone="no"?><svg xmlns="http://www.w3.org/2000/svg" xmlns:xlink="http://www.w3.org/1999/xlink" contentScriptType="application/ecmascript" contentStyleType="text/css" height="322px" preserveAspectRatio="none" style="width:278px;height:322px;" version="1.1" viewBox="0 0 278 322" width="278px" zoomAndPan="magnify"><defs><filter height="300%" id="fdyhvwzodndh0" width="300%" x="-1" y="-1"><feGaussianBlur result="blurOut" stdDeviation="2.0"/><feColorMatrix in="blurOut" result="blurOut2" type="matrix" values="0 0 0 0 0 0 0 0 0 0 0 0 0 0 0 0 0 0 .4 0"/><feOffset dx="4.0" dy="4.0" in="blurOut2" result="blurOut3"/><feBlend in="SourceGraphic" in2="blurOut3" mode="normal"/></filter></defs><g><!--MD5=[67cd15ce44b6dd54f77054b62c31bf42]
cluster types--><polygon fill="#FFFFFF" filter="url(#fdyhvwzodndh0)" points="16,6,67,6,74,28.2969,261,28.2969,261,315,16,315,16,6" style="stroke:#000000;stroke-width:1.5;"/><line style="stroke:#000000;stroke-width:1.5;" x1="16" x2="74" y1="28.2969" y2="28.2969"/><text fill="#000000" font-family="sans-serif" font-size="14" font-weight="bold" lengthAdjust="spacing" textLength="45" x="20" y="20.9951">types</text><!--MD5=[fbe1d668a1c0e7c27042fe6ad7304dc0]
class types.Coordinate--><rect codeLine="3" fill="#FEFECE" filter="url(#fdyhvwzodndh0)" height="60.8047" id="types.Coordinate" style="stroke:#A80036;stroke-width:1.5;" width="114" x="32" y="53.5"/><ellipse cx="54.2" cy="69.5" fill="#ADD1B2" rx="11" ry="11" style="stroke:#A80036;stroke-width:1.0;"/><path d="M56.5438,65.1719 C55.6063,64.7344 55.0125,64.5938 54.1375,64.5938 C51.5125,64.5938 49.5125,66.6719 49.5125,69.3906 L49.5125,70.5156 C49.5125,73.0938 51.6219,74.9844 54.5125,74.9844 C55.7313,74.9844 56.8875,74.6875 57.6375,74.1406 C58.2156,73.7344 58.5438,73.2813 58.5438,72.8906 C58.5438,72.4375 58.1531,72.0469 57.6844,72.0469 C57.4656,72.0469 57.2625,72.125 57.075,72.3125 C56.6219,72.7969 56.6219,72.7969 56.4344,72.8906 C56.0125,73.1563 55.325,73.2813 54.5594,73.2813 C52.5125,73.2813 51.2156,72.1875 51.2156,70.4844 L51.2156,69.3906 C51.2156,67.6094 52.4656,66.2969 54.2,66.2969 C54.7781,66.2969 55.3875,66.4531 55.8563,66.7031 C56.3406,66.9844 56.5125,67.2031 56.6063,67.6094 C56.6688,68.0156 56.7,68.1406 56.8406,68.2656 C56.9813,68.4063 57.2156,68.5156 57.4344,68.5156 C57.7,68.5156 57.9656,68.375 58.1375,68.1563 C58.2469,68 58.2781,67.8125 58.2781,67.3906 L58.2781,65.9688 C58.2781,65.5313 58.2625,65.4063 58.1688,65.25 C58.0125,64.9844 57.7313,64.8438 57.4344,64.8438 C57.1375,64.8438 56.9344,64.9375 56.7156,65.25 L56.5438,65.1719 Z " fill="#000000"/><text fill="#000000" font-family="sans-serif" font-size="12" lengthAdjust="spacing" textLength="66" x="69.8" y="73.6543">Coordinate</text><line style="stroke:#A80036;stroke-width:1.5;" x1="33" x2="145" y1="85.5" y2="85.5"/><line style="stroke:#A80036;stroke-width:1.5;" x1="33" x2="145" y1="93.5" y2="93.5"/><polygon fill="#FFFF44" points="43,99.5,47,103.5,43,107.5,39,103.5" style="stroke:#B38D22;stroke-width:1.0;"/><text fill="#000000" font-family="sans-serif" font-size="11" lengthAdjust="spacing" textLength="88" x="52" y="107.7104">getDimension()</text><!--MD5=[e88a50b03f092bdcaf627b677de9be1f]
class types.Color--><rect codeLine="7" fill="#FEFECE" filter="url(#fdyhvwzodndh0)" height="86.4141" id="types.Color" style="stroke:#A80036;stroke-width:1.5;" width="64" x="181" y="41"/><ellipse cx="196" cy="57" fill="#EB937F" rx="11" ry="11" style="stroke:#A80036;stroke-width:1.0;"/><path d="M194.7969,57.875 L196.25,57.875 L196.25,57.9844 C196.25,58.3906 196.2813,58.5469 196.3594,58.7031 C196.5156,58.9531 196.7969,59.1094 197.0938,59.1094 C197.3438,59.1094 197.6094,58.9688 197.7656,58.75 C197.8906,58.5938 197.9219,58.4375 197.9219,57.9844 L197.9219,56.0625 C197.9219,55.9063 197.9219,55.8594 197.9063,55.7031 C197.8438,55.2344 197.5313,54.9219 197.0781,54.9219 C196.8281,54.9219 196.5625,55.0625 196.3906,55.2813 C196.2813,55.4531 196.25,55.6094 196.25,56.0625 L196.25,56.1875 L194.7969,56.1875 L194.7969,53.7813 L198.7813,53.7813 L198.7813,54.6406 C198.7813,55.0469 198.8125,55.2188 198.8906,55.375 C199.0625,55.625 199.3438,55.7813 199.625,55.7813 C199.8906,55.7813 200.1563,55.6406 200.3281,55.4219 C200.4375,55.25 200.4688,55.1094 200.4688,54.6406 L200.4688,52.0938 L192.8438,52.0938 C192.4063,52.0938 192.2813,52.1094 192.125,52.2031 C191.875,52.3594 191.7188,52.6563 191.7188,52.9375 C191.7188,53.2188 191.8594,53.4688 192.0781,53.6406 C192.2344,53.75 192.4219,53.7813 192.8438,53.7813 L193.0938,53.7813 L193.0938,60.2969 L192.8438,60.2969 C192.4375,60.2969 192.2813,60.3125 192.125,60.4219 C191.875,60.5938 191.7188,60.8594 191.7188,61.1563 C191.7188,61.4219 191.8594,61.6719 192.0781,61.8281 C192.2188,61.9531 192.4531,62 192.8438,62 L200.8438,62 L200.8438,59.4219 C200.8438,58.9844 200.8125,58.8438 200.7344,58.6875 C200.5625,58.4375 200.2813,58.2813 200,58.2813 C199.7344,58.2813 199.4688,58.3906 199.2969,58.6406 C199.1875,58.7969 199.1563,58.9375 199.1563,59.4219 L199.1563,60.2969 L194.7969,60.2969 L194.7969,57.875 Z " fill="#000000"/><text fill="#000000" font-family="sans-serif" font-size="12" lengthAdjust="spacing" textLength="32" x="210" y="61.1543">Color</text><line style="stroke:#A80036;stroke-width:1.5;" x1="182" x2="244" y1="73" y2="73"/><text fill="#000000" font-family="sans-serif" font-size="11" lengthAdjust="spacing" textLength="17" x="201" y="87.2104">+X</text><text fill="#000000" font-family="sans-serif" font-size="11" lengthAdjust="spacing" textLength="18" x="201" y="100.0151">+O</text><ellipse cx="192" cy="109.6094" rx="3" ry="3" style="stroke:#038048;stroke-width:1.0;fill:none;"/><text fill="#000000" font-family="sans-serif" font-size="11" lengthAdjust="spacing" textLength="28" x="201" y="112.8198">NULL</text><line style="stroke:#A80036;stroke-width:1.5;" x1="182" x2="244" y1="119.4141" y2="119.4141"/><!--MD5=[f4a9730c613f2e33f7b8bab243e5b8e5]
class types.Error--><rect codeLine="13" fill="#FEFECE" filter="url(#fdyhvwzodndh0)" height="112.0234" id="types.Error" style="stroke:#A80036;stroke-width:1.5;" width="159" x="32.5" y="187"/><ellipse cx="92.75" cy="203" fill="#EB937F" rx="11" ry="11" style="stroke:#A80036;stroke-width:1.0;"/><path d="M91.5469,203.875 L93,203.875 L93,203.9844 C93,204.3906 93.0313,204.5469 93.1094,204.7031 C93.2656,204.9531 93.5469,205.1094 93.8438,205.1094 C94.0938,205.1094 94.3594,204.9688 94.5156,204.75 C94.6406,204.5938 94.6719,204.4375 94.6719,203.9844 L94.6719,202.0625 C94.6719,201.9063 94.6719,201.8594 94.6563,201.7031 C94.5938,201.2344 94.2813,200.9219 93.8281,200.9219 C93.5781,200.9219 93.3125,201.0625 93.1406,201.2813 C93.0313,201.4531 93,201.6094 93,202.0625 L93,202.1875 L91.5469,202.1875 L91.5469,199.7813 L95.5313,199.7813 L95.5313,200.6406 C95.5313,201.0469 95.5625,201.2188 95.6406,201.375 C95.8125,201.625 96.0938,201.7813 96.375,201.7813 C96.6406,201.7813 96.9063,201.6406 97.0781,201.4219 C97.1875,201.25 97.2188,201.1094 97.2188,200.6406 L97.2188,198.0938 L89.5938,198.0938 C89.1563,198.0938 89.0313,198.1094 88.875,198.2031 C88.625,198.3594 88.4688,198.6563 88.4688,198.9375 C88.4688,199.2188 88.6094,199.4688 88.8281,199.6406 C88.9844,199.75 89.1719,199.7813 89.5938,199.7813 L89.8438,199.7813 L89.8438,206.2969 L89.5938,206.2969 C89.1875,206.2969 89.0313,206.3125 88.875,206.4219 C88.625,206.5938 88.4688,206.8594 88.4688,207.1563 C88.4688,207.4219 88.6094,207.6719 88.8281,207.8281 C88.9688,207.9531 89.2031,208 89.5938,208 L97.5938,208 L97.5938,205.4219 C97.5938,204.9844 97.5625,204.8438 97.4844,204.6875 C97.3125,204.4375 97.0313,204.2813 96.75,204.2813 C96.4844,204.2813 96.2188,204.3906 96.0469,204.6406 C95.9375,204.7969 95.9063,204.9375 95.9063,205.4219 L95.9063,206.2969 L91.5469,206.2969 L91.5469,203.875 Z " fill="#000000"/><text fill="#000000" font-family="sans-serif" font-size="12" lengthAdjust="spacing" textLength="30" x="113.25" y="207.1543">Error</text><line style="stroke:#A80036;stroke-width:1.5;" x1="33.5" x2="190.5" y1="219" y2="219"/><ellipse cx="43.5" cy="230" rx="3" ry="3" style="stroke:#038048;stroke-width:1.0;fill:none;"/><text fill="#000000" font-family="sans-serif" font-size="11" lengthAdjust="spacing" textLength="66" x="52.5" y="233.2104">NOT_EMPTY</text><ellipse cx="43.5" cy="242.8047" rx="3" ry="3" style="stroke:#038048;stroke-width:1.0;fill:none;"/><text fill="#000000" font-family="sans-serif" font-size="11" lengthAdjust="spacing" textLength="72" x="52.5" y="246.0151">NOT_OWNER</text><ellipse cx="43.5" cy="255.6094" rx="3" ry="3" style="stroke:#038048;stroke-width:1.0;fill:none;"/><text fill="#000000" font-family="sans-serif" font-size="11" lengthAdjust="spacing" textLength="121" x="52.5" y="258.8198">SAME_COORDINATES</text><ellipse cx="43.5" cy="268.4141" rx="3" ry="3" style="stroke:#038048;stroke-width:1.0;fill:none;"/><text fill="#000000" font-family="sans-serif" font-size="11" lengthAdjust="spacing" textLength="133" x="52.5" y="271.6245">WRONG_COORDINATES</text><ellipse cx="43.5" cy="281.2188" rx="3" ry="3" style="stroke:#038048;stroke-width:1.0;fill:none;"/><text fill="#000000" font-family="sans-serif" font-size="11" lengthAdjust="spacing" textLength="28" x="52.5" y="284.4292">NULL</text><line style="stroke:#A80036;stroke-width:1.5;" x1="33.5" x2="190.5" y1="291.0234" y2="291.0234"/><!--MD5=[db4a842cdc949c7b7958a8c15140a76e]
link types.Coordinate to types.Color--><!--MD5=[076156e6f82886af7dd5e93bd4b33197]
link types.Coordinate to types.Error--><!--MD5=[29998888ce9a2bd2adc9b26591703e4d]
@startuml
package types  { }

class  types.Coordinate{
    #getDimension()
}

enum  types.Color{
    +X
    +O
    +NULL
}

enum  types.Error{
    +NOT_EMPTY
    +NOT_OWNER
    +SAME_COORDINATES
    +WRONG_COORDINATES
    +NULL
}
@enduml

PlantUML version 1.2021.4beta3(Unknown compile time)
(GPL source distribution)
Java Runtime: Java(TM) SE Runtime Environment
JVM: Java HotSpot(TM) 64-Bit Server VM
Default Encoding: UTF-8
Language: en
Country: US
--></g></svg>