<?xml version="1.0" encoding="UTF-8" standalone="no"?><svg xmlns="http://www.w3.org/2000/svg" xmlns:xlink="http://www.w3.org/1999/xlink" contentScriptType="application/ecmascript" contentStyleType="text/css" height="630px" preserveAspectRatio="none" style="width:482px;height:630px;" version="1.1" viewBox="0 0 482 630" width="482px" zoomAndPan="magnify"><defs><filter height="300%" id="fypm6vkavsi2f" width="300%" x="-1" y="-1"><feGaussianBlur result="blurOut" stdDeviation="2.0"/><feColorMatrix in="blurOut" result="blurOut2" type="matrix" values="0 0 0 0 0 0 0 0 0 0 0 0 0 0 0 0 0 0 .4 0"/><feOffset dx="4.0" dy="4.0" in="blurOut2" result="blurOut3"/><feBlend in="SourceGraphic" in2="blurOut3" mode="normal"/></filter></defs><g><polygon fill="#DDDDDD" filter="url(#fypm6vkavsi2f)" points="152,6,337,6,344,28.2969,351,28.2969,351,58.5938,152,58.5938,152,6" style="stroke:#000000;stroke-width:1.5;"/><line style="stroke:#000000;stroke-width:1.5;" x1="152" x2="344" y1="28.2969" y2="28.2969"/><text fill="#000000" font-family="sans-serif" font-size="14" font-weight="bold" lengthAdjust="spacingAndGlyphs" textLength="179" x="156" y="20.9951">usantatecla.tictactoe</text><polygon fill="#DDDDDD" filter="url(#fypm6vkavsi2f)" points="183.5,458,329.5,458,336.5,480.2969,343.5,480.2969,343.5,510.5938,183.5,510.5938,183.5,458" style="stroke:#000000;stroke-width:1.5;"/><line style="stroke:#000000;stroke-width:1.5;" x1="183.5" x2="336.5" y1="480.2969" y2="480.2969"/><text fill="#000000" font-family="sans-serif" font-size="14" font-weight="bold" lengthAdjust="spacingAndGlyphs" textLength="140" x="187.5" y="472.9951">usantatecla.utils</text><polygon fill="#DDDDDD" filter="url(#fypm6vkavsi2f)" points="16,232,295,232,302,254.2969,309,254.2969,309,284.5938,16,284.5938,16,232" style="stroke:#000000;stroke-width:1.5;"/><line style="stroke:#000000;stroke-width:1.5;" x1="16" x2="302" y1="254.2969" y2="254.2969"/><text fill="#000000" font-family="sans-serif" font-size="14" font-weight="bold" lengthAdjust="spacingAndGlyphs" textLength="273" x="20" y="246.9951">usantatecla.tictactoe.controllers</text><polygon fill="#DDDDDD" filter="url(#fypm6vkavsi2f)" points="47.5,345,295.5,345,302.5,367.2969,309.5,367.2969,309.5,397.5938,47.5,397.5938,47.5,345" style="stroke:#000000;stroke-width:1.5;"/><line style="stroke:#000000;stroke-width:1.5;" x1="47.5" x2="302.5" y1="367.2969" y2="367.2969"/><text fill="#000000" font-family="sans-serif" font-size="14" font-weight="bold" lengthAdjust="spacingAndGlyphs" textLength="242" x="51.5" y="359.9951">usantatecla.tictactoe.models</text><polygon fill="#DDDDDD" filter="url(#fypm6vkavsi2f)" points="216,119,451,119,458,141.2969,465,141.2969,465,171.5938,216,171.5938,216,119" style="stroke:#000000;stroke-width:1.5;"/><line style="stroke:#000000;stroke-width:1.5;" x1="216" x2="458" y1="141.2969" y2="141.2969"/><text fill="#000000" font-family="sans-serif" font-size="14" font-weight="bold" lengthAdjust="spacingAndGlyphs" textLength="229" x="220" y="133.9951">usantatecla.tictactoe.views</text><polygon fill="#FFFFFF" filter="url(#fypm6vkavsi2f)" points="226.5,571,286.5,571,293.5,593.2969,300.5,593.2969,300.5,623.5938,226.5,623.5938,226.5,571" style="stroke:#000000;stroke-width:1.5;"/><line style="stroke:#000000;stroke-width:1.5;" x1="226.5" x2="293.5" y1="593.2969" y2="593.2969"/><text fill="#000000" font-family="sans-serif" font-size="14" font-weight="bold" lengthAdjust="spacingAndGlyphs" textLength="54" x="230.5" y="585.9951">java.io</text><polygon fill="#FFFFFF" filter="url(#fypm6vkavsi2f)" points="49,458,122,458,129,480.2969,136,480.2969,136,510.5938,49,510.5938,49,458" style="stroke:#000000;stroke-width:1.5;"/><line style="stroke:#000000;stroke-width:1.5;" x1="49" x2="129" y1="480.2969" y2="480.2969"/><text fill="#000000" font-family="sans-serif" font-size="14" font-weight="bold" lengthAdjust="spacingAndGlyphs" textLength="67" x="53" y="472.9951">java.util</text><!--MD5=[03497414b171f2c4293835c9c3d831fa]
link usantatecla.tictactoe to usantatecla.tictactoe.views--><path d="M272.142,59.245 C285.397,75.776 302.661,97.308 316.523,114.597 " fill="none" id="usantatecla.tictactoe-to-usantatecla.tictactoe.views" style="stroke:#A80036;stroke-width:1.0;stroke-dasharray:7.0,7.0;"/><polygon fill="#A80036" points="319.97,118.895,317.4585,109.3718,316.8413,114.9948,311.2182,114.3777,319.97,118.895" style="stroke:#A80036;stroke-width:1.0;"/><!--MD5=[72975e6fc8aa55b325ae831bb14c9d36]
link usantatecla.tictactoe to usantatecla.tictactoe.controllers--><path d="M232.629,59.331 C221.382,75.739 207.575,97.808 198.5,119 C183.262,154.582 173.238,198.154 167.725,226.81 " fill="none" id="usantatecla.tictactoe-to-usantatecla.tictactoe.controllers" style="stroke:#A80036;stroke-width:1.0;stroke-dasharray:7.0,7.0;"/><polygon fill="#A80036" points="166.748,231.982,172.3495,223.8812,167.6763,227.0689,164.4886,222.3958,166.748,231.982" style="stroke:#A80036;stroke-width:1.0;"/><!--MD5=[ed03b0a6792ed7a9bc24d1d80e337ec6]
link usantatecla.tictactoe.controllers to usantatecla.tictactoe.models--><path d="M166.211,285.245 C168.553,301.496 171.593,322.579 174.062,339.714 " fill="none" id="usantatecla.tictactoe.controllers-to-usantatecla.tictactoe.models" style="stroke:#A80036;stroke-width:1.0;stroke-dasharray:7.0,7.0;"/><polygon fill="#A80036" points="174.809,344.895,177.4822,335.4159,174.0947,339.9463,169.5643,336.5588,174.809,344.895" style="stroke:#A80036;stroke-width:1.0;"/><!--MD5=[91317e4196293af0119c6c2abfded8c8]
link usantatecla.tictactoe.controllers to java.util--><path d="M96.5329,285.162 C70.8017,298.807 44.0348,318.377 29.5,345 C9.5115,381.612 38.153,425.754 63.0363,454.207 " fill="none" id="usantatecla.tictactoe.controllers-to-java.util" style="stroke:#A80036;stroke-width:1.0;stroke-dasharray:7.0,7.0;"/><polygon fill="#A80036" points="66.3605,457.942,63.3652,448.5597,63.0364,454.207,57.3891,453.8782,66.3605,457.942" style="stroke:#A80036;stroke-width:1.0;"/><!--MD5=[7b57a0bef555f205b9af78d47b4f5f77]
link usantatecla.tictactoe.models to java.util--><path d="M158.554,398.245 C145.746,414.776 129.063,436.308 115.6684,453.597 " fill="none" id="usantatecla.tictactoe.models-to-java.util" style="stroke:#A80036;stroke-width:1.0;stroke-dasharray:7.0,7.0;"/><polygon fill="#A80036" points="112.3381,457.895,121.0115,453.2289,115.3998,453.942,114.6867,448.3303,112.3381,457.895" style="stroke:#A80036;stroke-width:1.0;"/><!--MD5=[42e02ea2557e3656f28eb82873c5e81c]
link usantatecla.tictactoe.models to usantatecla.utils--><path d="M198.214,398.245 C210.874,414.776 227.362,436.308 240.601,453.597 " fill="none" id="usantatecla.tictactoe.models-to-usantatecla.utils" style="stroke:#A80036;stroke-width:1.0;stroke-dasharray:7.0,7.0;"/><polygon fill="#A80036" points="243.893,457.895,241.5971,448.3175,240.8532,453.9252,235.2454,453.1812,243.893,457.895" style="stroke:#A80036;stroke-width:1.0;"/><!--MD5=[f7f372d3543268b8cc298f05137e5dac]
link usantatecla.utils to java.io--><path d="M263.5,511.245 C263.5,527.4958 263.5,548.5795 263.5,565.7139 " fill="none" id="usantatecla.utils-to-java.io" style="stroke:#A80036;stroke-width:1.0;stroke-dasharray:7.0,7.0;"/><polygon fill="#A80036" points="263.5,570.895,267.5,561.895,263.5,565.895,259.5,561.895,263.5,570.895" style="stroke:#A80036;stroke-width:1.0;"/><!--MD5=[a3f6da2d6cf84454eef639fa39ef9d71]
link usantatecla.tictactoe.views to usantatecla.tictactoe.controllers--><path d="M299.216,172.245 C271.92,189.266 236.122,211.59 208.005,229.124 " fill="none" id="usantatecla.tictactoe.views-to-usantatecla.tictactoe.controllers" style="stroke:#A80036;stroke-width:1.0;stroke-dasharray:7.0,7.0;"/><polygon fill="#A80036" points="203.56,231.895,213.3134,230.527,207.8027,229.2494,209.0804,223.7387,203.56,231.895" style="stroke:#A80036;stroke-width:1.0;"/><!--MD5=[d48e0208b2feb872c769eb48756d07e2]
link usantatecla.tictactoe.views to usantatecla.utils--><path d="M343.947,172.086 C349.197,218.654 355.833,319.678 327.5,398 C319.999,418.735 305.656,438.656 292.447,454.045 " fill="none" id="usantatecla.tictactoe.views-to-usantatecla.utils" style="stroke:#A80036;stroke-width:1.0;stroke-dasharray:7.0,7.0;"/><polygon fill="#A80036" points="289.118,457.858,298.0508,453.7102,292.4069,454.0919,292.0251,448.448,289.118,457.858" style="stroke:#A80036;stroke-width:1.0;"/><!--MD5=[cd26df2a334bf460ff981feadbab03e9]
@startuml
package usantatecla.tictactoe #DDDDDD { }
package usantatecla.utils #DDDDDD { }
package usantatecla.tictactoe.controllers #DDDDDD { }
package usantatecla.tictactoe.models #DDDDDD { }
package usantatecla.tictactoe.views #DDDDDD { }
package java.io{ }
package java.util{ }

usantatecla.tictactoe .down.> usantatecla.tictactoe.views
usantatecla.tictactoe .down.> usantatecla.tictactoe.controllers

usantatecla.tictactoe.controllers .down.> usantatecla.tictactoe.models
usantatecla.tictactoe.controllers .down.> java.util

usantatecla.tictactoe.models .down.> java.util
usantatecla.tictactoe.models .down.> usantatecla.utils

usantatecla.utils .down.> java.io

usantatecla.tictactoe.views .down.> usantatecla.tictactoe.controllers
usantatecla.tictactoe.views .down.> usantatecla.utils
@enduml

PlantUML version 1.2020.23beta3(Unknown compile time)
(GPL source distribution)
Java Runtime: Java(TM) SE Runtime Environment
JVM: Java HotSpot(TM) 64-Bit Server VM
Default Encoding: UTF-8
Language: en
Country: US
--></g></svg>