<?xml version="1.0" encoding="UTF-8" standalone="no"?><svg xmlns="http://www.w3.org/2000/svg" xmlns:xlink="http://www.w3.org/1999/xlink" contentScriptType="application/ecmascript" contentStyleType="text/css" height="404px" preserveAspectRatio="none" style="width:213px;height:404px;" version="1.1" viewBox="0 0 213 404" width="213px" zoomAndPan="magnify"><defs><filter height="300%" id="ftd6482ns17p9" width="300%" x="-1" y="-1"><feGaussianBlur result="blurOut" stdDeviation="2.0"/><feColorMatrix in="blurOut" result="blurOut2" type="matrix" values="0 0 0 0 0 0 0 0 0 0 0 0 0 0 0 0 0 0 .4 0"/><feOffset dx="4.0" dy="4.0" in="blurOut2" result="blurOut3"/><feBlend in="SourceGraphic" in2="blurOut3" mode="normal"/></filter></defs><g><polygon fill="#DDDDDD" filter="url(#ftd6482ns17p9)" points="16,232,80,232,87,254.2969,94,254.2969,94,284.5938,16,284.5938,16,232" style="stroke:#000000;stroke-width:1.5;"/><line style="stroke:#000000;stroke-width:1.5;" x1="16" x2="87" y1="254.2969" y2="254.2969"/><text fill="#000000" font-family="sans-serif" font-size="14" font-weight="bold" lengthAdjust="spacing" textLength="58" x="20" y="246.9951">models</text><polygon fill="#DDDDDD" filter="url(#ftd6482ns17p9)" points="131.5,6,182.5,6,189.5,28.2969,196.5,28.2969,196.5,58.5938,131.5,58.5938,131.5,6" style="stroke:#000000;stroke-width:1.5;"/><line style="stroke:#000000;stroke-width:1.5;" x1="131.5" x2="189.5" y1="28.2969" y2="28.2969"/><text fill="#000000" font-family="sans-serif" font-size="14" font-weight="bold" lengthAdjust="spacing" textLength="45" x="135.5" y="20.9951">views</text><polygon fill="#DDDDDD" filter="url(#ftd6482ns17p9)" points="55.5,119,150.5,119,157.5,141.2969,164.5,141.2969,164.5,171.5938,55.5,171.5938,55.5,119" style="stroke:#000000;stroke-width:1.5;"/><line style="stroke:#000000;stroke-width:1.5;" x1="55.5" x2="157.5" y1="141.2969" y2="141.2969"/><text fill="#000000" font-family="sans-serif" font-size="14" font-weight="bold" lengthAdjust="spacing" textLength="89" x="59.5" y="133.9951">controllers</text><polygon fill="#DDDDDD" filter="url(#ftd6482ns17p9)" points="114.5,345,165.5,345,172.5,367.2969,179.5,367.2969,179.5,397.5938,114.5,397.5938,114.5,345" style="stroke:#000000;stroke-width:1.5;"/><line style="stroke:#000000;stroke-width:1.5;" x1="114.5" x2="172.5" y1="367.2969" y2="367.2969"/><text fill="#000000" font-family="sans-serif" font-size="14" font-weight="bold" lengthAdjust="spacing" textLength="45" x="118.5" y="359.9951">types</text><!--MD5=[fd4dadafb7dfafd89665a9151015bafc]
link views to controllers--><path d="M151.476,59.245 C143.501,75.636 133.136,96.943 124.762,114.156 " fill="none" id="views-to-controllers" style="stroke:#A80036;stroke-width:1.0;stroke-dasharray:7.0,7.0;"/><polygon fill="#A80036" points="122.456,118.895,129.9894,112.5509,124.6428,114.3986,122.7951,109.052,122.456,118.895" style="stroke:#A80036;stroke-width:1.0;"/><!--MD5=[a47103ae2ffafd08434d69e1e4d1349a]
link views to types--><path d="M170.841,59.096 C174.99,75.969 179.879,98.632 182,119 C190.325,198.957 169.031,292.616 156.09,339.8861 " fill="none" id="views-to-types" style="stroke:#A80036;stroke-width:1.0;stroke-dasharray:7.0,7.0;"/><polygon fill="#A80036" points="154.71,344.8656,160.9678,337.2603,156.045,340.0471,153.2582,335.1243,154.71,344.8656" style="stroke:#A80036;stroke-width:1.0;"/><!--MD5=[6bfde5656e7ece32836aeea1e9e8a819]
link controllers to models--><path d="M97.2437,172.245 C89.1219,188.636 78.5641,209.943 70.0352,227.156 " fill="none" id="controllers-to-models" style="stroke:#A80036;stroke-width:1.0;stroke-dasharray:7.0,7.0;"/><polygon fill="#A80036" points="67.6872,231.895,75.2673,225.6068,69.9072,227.4149,68.0991,222.0548,67.6872,231.895" style="stroke:#A80036;stroke-width:1.0;"/><!--MD5=[c460ee89b467576f4399504260eade9f]
link controllers to types--><path d="M114.2444,172.196 C121.098,213.69 134.576,295.287 141.927,339.7849 " fill="none" id="controllers-to-types" style="stroke:#A80036;stroke-width:1.0;stroke-dasharray:7.0,7.0;"/><polygon fill="#A80036" points="142.748,344.76,145.2277,335.2284,141.9331,339.8269,137.3347,336.5323,142.748,344.76" style="stroke:#A80036;stroke-width:1.0;"/><!--MD5=[9da2d375dc0417b2d3724b966d4c0d45]
link models to types--><path d="M76.3379,285.245 C90.1557,301.9161 108.1886,323.6732 122.579,341.0352 " fill="none" id="models-to-types" style="stroke:#A80036;stroke-width:1.0;stroke-dasharray:7.0,7.0;"/><polygon fill="#A80036" points="125.778,344.895,123.1132,335.4135,122.5868,341.0458,116.9545,340.5195,125.778,344.895" style="stroke:#A80036;stroke-width:1.0;"/><!--MD5=[90e48a4a6f081985ee83582688cc217e]
@startuml
package models #DDDDDD { }
package views #DDDDDD { }
package controllers #DDDDDD { }
package types #DDDDDD { }
views .down.> controllers
views .down.> types
controllers .down.> models
controllers .down.> types
models .down.> types
@enduml

PlantUML version 1.2021.4beta3(Unknown compile time)
(GPL source distribution)
Java Runtime: Java(TM) SE Runtime Environment
JVM: Java HotSpot(TM) 64-Bit Server VM
Default Encoding: UTF-8
Language: en
Country: US
--></g></svg>