<?xml version="1.0" encoding="UTF-8" standalone="no"?><svg xmlns="http://www.w3.org/2000/svg" xmlns:xlink="http://www.w3.org/1999/xlink" contentScriptType="application/ecmascript" contentStyleType="text/css" height="452px" preserveAspectRatio="none" style="width:1885px;height:452px;" version="1.1" viewBox="0 0 1885 452" width="1885px" zoomAndPan="magnify"><defs><filter height="300%" id="f1inz9ki2wysfj" width="300%" x="-1" y="-1"><feGaussianBlur result="blurOut" stdDeviation="2.0"/><feColorMatrix in="blurOut" result="blurOut2" type="matrix" values="0 0 0 0 0 0 0 0 0 0 0 0 0 0 0 0 0 0 .4 0"/><feOffset dx="4.0" dy="4.0" in="blurOut2" result="blurOut3"/><feBlend in="SourceGraphic" in2="blurOut3" mode="normal"/></filter></defs><g><!--MD5=[f4e70ef68289585296b9045165e58692]
cluster controllers--><polygon fill="#FFFFFF" filter="url(#f1inz9ki2wysfj)" points="16,6,111,6,118,28.2969,1534,28.2969,1534,341,16,341,16,6" style="stroke:#000000;stroke-width:1.5;"/><line style="stroke:#000000;stroke-width:1.5;" x1="16" x2="118" y1="28.2969" y2="28.2969"/><text fill="#000000" font-family="sans-serif" font-size="14" font-weight="bold" lengthAdjust="spacing" textLength="89" x="20" y="20.9951">controllers</text><!--MD5=[d538e9e3e9ace5a9c5dcbfba7654f5f1]
class controllers.Controller--><rect codeLine="6" fill="#FEFECE" filter="url(#f1inz9ki2wysfj)" height="60.8047" id="controllers.Controller" style="stroke:#A80036;stroke-width:1.5;" width="180" x="1062" y="41"/><ellipse cx="1118.75" cy="57" fill="#A9DCDF" rx="11" ry="11" style="stroke:#A80036;stroke-width:1.0;"/><path d="M1120.8281,58.8125 L1121.2188,59.7969 L1120.8281,59.7969 C1120.375,59.7969 1120.2656,59.8125 1120.1094,59.9219 C1119.8594,60.0781 1119.7031,60.3594 1119.7031,60.6563 C1119.7031,60.9219 1119.8438,61.1719 1120.0625,61.3281 C1120.2031,61.4531 1120.4063,61.5 1120.8281,61.5 L1123.1875,61.5 C1123.5469,61.5 1123.7656,61.4688 1123.9063,61.375 C1124.1563,61.2344 1124.3125,60.9375 1124.3125,60.6563 C1124.3125,60.375 1124.1719,60.125 1123.9531,59.9688 C1123.7813,59.8281 1123.625,59.7969 1123.1563,59.7969 L1119.7656,51.5938 L1116.0938,51.5938 C1115.6406,51.5938 1115.5156,51.6094 1115.3594,51.7031 C1115.1094,51.875 1114.9531,52.1563 1114.9531,52.4375 C1114.9531,52.7188 1115.0938,52.9688 1115.3125,53.1406 C1115.4844,53.25 1115.6563,53.2813 1116.0938,53.2813 L1117.1719,53.2813 L1114.5313,59.7969 C1114.1094,59.7969 1113.9531,59.8125 1113.7969,59.9219 C1113.5469,60.0781 1113.3906,60.3594 1113.3906,60.6563 C1113.3906,61.2188 1113.7656,61.5 1114.5156,61.5 L1116.7813,61.5 C1117.1406,61.5 1117.3594,61.4688 1117.4844,61.375 C1117.75,61.2344 1117.8906,60.9375 1117.8906,60.6563 C1117.8906,60.375 1117.7656,60.125 1117.5469,59.9531 C1117.375,59.8281 1117.2344,59.7969 1116.7813,59.7969 L1116.3906,59.7969 L1116.7813,58.8125 L1120.8281,58.8125 Z M1120.125,57.1094 L1117.4531,57.1094 L1118.7969,53.8438 L1120.125,57.1094 Z " fill="#000000"/><text fill="#000000" font-family="sans-serif" font-size="12" font-style="italic" lengthAdjust="spacing" textLength="58" x="1139.25" y="61.1543">Controller</text><line style="stroke:#A80036;stroke-width:1.5;" x1="1063" x2="1241" y1="73" y2="73"/><line style="stroke:#A80036;stroke-width:1.5;" x1="1063" x2="1241" y1="81" y2="81"/><ellipse cx="1073" cy="92" fill="#84BE84" rx="3" ry="3" style="stroke:#038048;stroke-width:1.0;"/><text fill="#000000" font-family="sans-serif" font-size="11" lengthAdjust="spacing" textLength="154" x="1082" y="95.2104">getColor(Coordinate): Color</text><!--MD5=[aea2e2342048d554ddfb2813c9d667df]
class controllers.PlayController--><rect codeLine="10" fill="#FEFECE" filter="url(#f1inz9ki2wysfj)" height="163.2422" id="controllers.PlayController" style="stroke:#A80036;stroke-width:1.5;" width="346" x="32" y="162"/><ellipse cx="159.75" cy="178" fill="#ADD1B2" rx="11" ry="11" style="stroke:#A80036;stroke-width:1.0;"/><path d="M162.0938,173.6719 C161.1563,173.2344 160.5625,173.0938 159.6875,173.0938 C157.0625,173.0938 155.0625,175.1719 155.0625,177.8906 L155.0625,179.0156 C155.0625,181.5938 157.1719,183.4844 160.0625,183.4844 C161.2813,183.4844 162.4375,183.1875 163.1875,182.6406 C163.7656,182.2344 164.0938,181.7813 164.0938,181.3906 C164.0938,180.9375 163.7031,180.5469 163.2344,180.5469 C163.0156,180.5469 162.8125,180.625 162.625,180.8125 C162.1719,181.2969 162.1719,181.2969 161.9844,181.3906 C161.5625,181.6563 160.875,181.7813 160.1094,181.7813 C158.0625,181.7813 156.7656,180.6875 156.7656,178.9844 L156.7656,177.8906 C156.7656,176.1094 158.0156,174.7969 159.75,174.7969 C160.3281,174.7969 160.9375,174.9531 161.4063,175.2031 C161.8906,175.4844 162.0625,175.7031 162.1563,176.1094 C162.2188,176.5156 162.25,176.6406 162.3906,176.7656 C162.5313,176.9063 162.7656,177.0156 162.9844,177.0156 C163.25,177.0156 163.5156,176.875 163.6875,176.6563 C163.7969,176.5 163.8281,176.3125 163.8281,175.8906 L163.8281,174.4688 C163.8281,174.0313 163.8125,173.9063 163.7188,173.75 C163.5625,173.4844 163.2813,173.3438 162.9844,173.3438 C162.6875,173.3438 162.4844,173.4375 162.2656,173.75 L162.0938,173.6719 Z " fill="#000000"/><text fill="#000000" font-family="sans-serif" font-size="12" lengthAdjust="spacing" textLength="82" x="180.25" y="182.1543">PlayController</text><line style="stroke:#A80036;stroke-width:1.5;" x1="33" x2="377" y1="194" y2="194"/><line style="stroke:#A80036;stroke-width:1.5;" x1="33" x2="377" y1="202" y2="202"/><ellipse cx="43" cy="213" fill="#84BE84" rx="3" ry="3" style="stroke:#038048;stroke-width:1.0;"/><text fill="#000000" font-family="sans-serif" font-size="11" lengthAdjust="spacing" textLength="184" x="52" y="216.2104">areAllTokensOnBoard(): boolean</text><ellipse cx="43" cy="225.8047" fill="#84BE84" rx="3" ry="3" style="stroke:#038048;stroke-width:1.0;"/><text fill="#000000" font-family="sans-serif" font-size="11" lengthAdjust="spacing" textLength="123" x="52" y="229.0151">putToken(Coordinate)</text><ellipse cx="43" cy="238.6094" fill="#84BE84" rx="3" ry="3" style="stroke:#038048;stroke-width:1.0;"/><text fill="#000000" font-family="sans-serif" font-size="11" lengthAdjust="spacing" textLength="200" x="52" y="241.8198">getPutTokenError(Coordinate): Error</text><ellipse cx="43" cy="251.4141" fill="#84BE84" rx="3" ry="3" style="stroke:#038048;stroke-width:1.0;"/><text fill="#000000" font-family="sans-serif" font-size="11" lengthAdjust="spacing" textLength="207" x="52" y="254.6245">moveToken(Coordinate, Coordinate)</text><ellipse cx="43" cy="264.2188" fill="#84BE84" rx="3" ry="3" style="stroke:#038048;stroke-width:1.0;"/><text fill="#000000" font-family="sans-serif" font-size="11" lengthAdjust="spacing" textLength="247" x="52" y="267.4292">getOriginMoveTokenError(Coordinate): Error</text><ellipse cx="43" cy="277.0234" fill="#84BE84" rx="3" ry="3" style="stroke:#038048;stroke-width:1.0;"/><text fill="#000000" font-family="sans-serif" font-size="11" lengthAdjust="spacing" textLength="320" x="52" y="280.2339">getTargetMoveTokenError(Coordinate, Coordinate): Error</text><ellipse cx="43" cy="289.8281" fill="#84BE84" rx="3" ry="3" style="stroke:#038048;stroke-width:1.0;"/><text fill="#000000" font-family="sans-serif" font-size="11" lengthAdjust="spacing" textLength="34" x="52" y="293.0386">next()</text><ellipse cx="43" cy="302.6328" fill="#84BE84" rx="3" ry="3" style="stroke:#038048;stroke-width:1.0;"/><text fill="#000000" font-family="sans-serif" font-size="11" lengthAdjust="spacing" textLength="128" x="52" y="305.8433">getActiveColor(): Color</text><ellipse cx="43" cy="315.4375" fill="#84BE84" rx="3" ry="3" style="stroke:#038048;stroke-width:1.0;"/><text fill="#000000" font-family="sans-serif" font-size="11" lengthAdjust="spacing" textLength="128" x="52" y="318.6479">isTicTacToe(): boolean</text><!--MD5=[12e816d8ac45337d932400bf96e6eca7]
class controllers.ResumeController--><rect codeLine="22" fill="#FEFECE" filter="url(#f1inz9ki2wysfj)" height="60.8047" id="controllers.ResumeController" style="stroke:#A80036;stroke-width:1.5;" width="139" x="413.5" y="213"/><ellipse cx="428.5" cy="229" fill="#ADD1B2" rx="11" ry="11" style="stroke:#A80036;stroke-width:1.0;"/><path d="M430.8438,224.6719 C429.9063,224.2344 429.3125,224.0938 428.4375,224.0938 C425.8125,224.0938 423.8125,226.1719 423.8125,228.8906 L423.8125,230.0156 C423.8125,232.5938 425.9219,234.4844 428.8125,234.4844 C430.0313,234.4844 431.1875,234.1875 431.9375,233.6406 C432.5156,233.2344 432.8438,232.7813 432.8438,232.3906 C432.8438,231.9375 432.4531,231.5469 431.9844,231.5469 C431.7656,231.5469 431.5625,231.625 431.375,231.8125 C430.9219,232.2969 430.9219,232.2969 430.7344,232.3906 C430.3125,232.6563 429.625,232.7813 428.8594,232.7813 C426.8125,232.7813 425.5156,231.6875 425.5156,229.9844 L425.5156,228.8906 C425.5156,227.1094 426.7656,225.7969 428.5,225.7969 C429.0781,225.7969 429.6875,225.9531 430.1563,226.2031 C430.6406,226.4844 430.8125,226.7031 430.9063,227.1094 C430.9688,227.5156 431,227.6406 431.1406,227.7656 C431.2813,227.9063 431.5156,228.0156 431.7344,228.0156 C432,228.0156 432.2656,227.875 432.4375,227.6563 C432.5469,227.5 432.5781,227.3125 432.5781,226.8906 L432.5781,225.4688 C432.5781,225.0313 432.5625,224.9063 432.4688,224.75 C432.3125,224.4844 432.0313,224.3438 431.7344,224.3438 C431.4375,224.3438 431.2344,224.4375 431.0156,224.75 L430.8438,224.6719 Z " fill="#000000"/><text fill="#000000" font-family="sans-serif" font-size="12" lengthAdjust="spacing" textLength="107" x="442.5" y="233.1543">ResumeController</text><line style="stroke:#A80036;stroke-width:1.5;" x1="414.5" x2="551.5" y1="245" y2="245"/><line style="stroke:#A80036;stroke-width:1.5;" x1="414.5" x2="551.5" y1="253" y2="253"/><ellipse cx="424.5" cy="264" fill="#84BE84" rx="3" ry="3" style="stroke:#038048;stroke-width:1.0;"/><text fill="#000000" font-family="sans-serif" font-size="11" lengthAdjust="spacing" textLength="38" x="433.5" y="267.2104">reset()</text><!--MD5=[1ca606ade29448d66bff39c3ca169238]
class controllers.StartController--><rect codeLine="26" fill="#FEFECE" filter="url(#f1inz9ki2wysfj)" height="48" id="controllers.StartController" style="stroke:#A80036;stroke-width:1.5;" width="119" x="587.5" y="219.5"/><ellipse cx="602.5" cy="235.5" fill="#ADD1B2" rx="11" ry="11" style="stroke:#A80036;stroke-width:1.0;"/><path d="M604.8438,231.1719 C603.9063,230.7344 603.3125,230.5938 602.4375,230.5938 C599.8125,230.5938 597.8125,232.6719 597.8125,235.3906 L597.8125,236.5156 C597.8125,239.0938 599.9219,240.9844 602.8125,240.9844 C604.0313,240.9844 605.1875,240.6875 605.9375,240.1406 C606.5156,239.7344 606.8438,239.2813 606.8438,238.8906 C606.8438,238.4375 606.4531,238.0469 605.9844,238.0469 C605.7656,238.0469 605.5625,238.125 605.375,238.3125 C604.9219,238.7969 604.9219,238.7969 604.7344,238.8906 C604.3125,239.1563 603.625,239.2813 602.8594,239.2813 C600.8125,239.2813 599.5156,238.1875 599.5156,236.4844 L599.5156,235.3906 C599.5156,233.6094 600.7656,232.2969 602.5,232.2969 C603.0781,232.2969 603.6875,232.4531 604.1563,232.7031 C604.6406,232.9844 604.8125,233.2031 604.9063,233.6094 C604.9688,234.0156 605,234.1406 605.1406,234.2656 C605.2813,234.4063 605.5156,234.5156 605.7344,234.5156 C606,234.5156 606.2656,234.375 606.4375,234.1563 C606.5469,234 606.5781,233.8125 606.5781,233.3906 L606.5781,231.9688 C606.5781,231.5313 606.5625,231.4063 606.4688,231.25 C606.3125,230.9844 606.0313,230.8438 605.7344,230.8438 C605.4375,230.8438 605.2344,230.9375 605.0156,231.25 L604.8438,231.1719 Z " fill="#000000"/><text fill="#000000" font-family="sans-serif" font-size="12" lengthAdjust="spacing" textLength="87" x="616.5" y="239.6543">StartController</text><line style="stroke:#A80036;stroke-width:1.5;" x1="588.5" x2="705.5" y1="251.5" y2="251.5"/><line style="stroke:#A80036;stroke-width:1.5;" x1="588.5" x2="705.5" y1="259.5" y2="259.5"/><!--MD5=[97bd40d9f9de957b3464a0ea5bcc6be7]
class controllers.UndoController--><rect codeLine="30" fill="#FEFECE" filter="url(#f1inz9ki2wysfj)" height="73.6094" id="controllers.UndoController" style="stroke:#A80036;stroke-width:1.5;" width="140" x="742" y="206.5"/><ellipse cx="764.65" cy="222.5" fill="#ADD1B2" rx="11" ry="11" style="stroke:#A80036;stroke-width:1.0;"/><path d="M766.9938,218.1719 C766.0563,217.7344 765.4625,217.5938 764.5875,217.5938 C761.9625,217.5938 759.9625,219.6719 759.9625,222.3906 L759.9625,223.5156 C759.9625,226.0938 762.0719,227.9844 764.9625,227.9844 C766.1813,227.9844 767.3375,227.6875 768.0875,227.1406 C768.6656,226.7344 768.9938,226.2813 768.9938,225.8906 C768.9938,225.4375 768.6031,225.0469 768.1344,225.0469 C767.9156,225.0469 767.7125,225.125 767.525,225.3125 C767.0719,225.7969 767.0719,225.7969 766.8844,225.8906 C766.4625,226.1563 765.775,226.2813 765.0094,226.2813 C762.9625,226.2813 761.6656,225.1875 761.6656,223.4844 L761.6656,222.3906 C761.6656,220.6094 762.9156,219.2969 764.65,219.2969 C765.2281,219.2969 765.8375,219.4531 766.3063,219.7031 C766.7906,219.9844 766.9625,220.2031 767.0563,220.6094 C767.1188,221.0156 767.15,221.1406 767.2906,221.2656 C767.4313,221.4063 767.6656,221.5156 767.8844,221.5156 C768.15,221.5156 768.4156,221.375 768.5875,221.1563 C768.6969,221 768.7281,220.8125 768.7281,220.3906 L768.7281,218.9688 C768.7281,218.5313 768.7125,218.4063 768.6188,218.25 C768.4625,217.9844 768.1813,217.8438 767.8844,217.8438 C767.5875,217.8438 767.3844,217.9375 767.1656,218.25 L766.9938,218.1719 Z " fill="#000000"/><text fill="#000000" font-family="sans-serif" font-size="12" lengthAdjust="spacing" textLength="91" x="780.35" y="226.6543">UndoController</text><line style="stroke:#A80036;stroke-width:1.5;" x1="743" x2="881" y1="238.5" y2="238.5"/><line style="stroke:#A80036;stroke-width:1.5;" x1="743" x2="881" y1="246.5" y2="246.5"/><ellipse cx="753" cy="257.5" fill="#84BE84" rx="3" ry="3" style="stroke:#038048;stroke-width:1.0;"/><text fill="#000000" font-family="sans-serif" font-size="11" lengthAdjust="spacing" textLength="114" x="762" y="260.7104">undoable(): boolean</text><ellipse cx="753" cy="270.3047" fill="#84BE84" rx="3" ry="3" style="stroke:#038048;stroke-width:1.0;"/><text fill="#000000" font-family="sans-serif" font-size="11" lengthAdjust="spacing" textLength="36" x="762" y="273.5151">undo()</text><!--MD5=[773a588f1b5cfd88fb5609eb6c3fc040]
class controllers.RedoController--><rect codeLine="35" fill="#FEFECE" filter="url(#f1inz9ki2wysfj)" height="73.6094" id="controllers.RedoController" style="stroke:#A80036;stroke-width:1.5;" width="138" x="917" y="206.5"/><ellipse cx="939.2" cy="222.5" fill="#ADD1B2" rx="11" ry="11" style="stroke:#A80036;stroke-width:1.0;"/><path d="M941.5438,218.1719 C940.6063,217.7344 940.0125,217.5938 939.1375,217.5938 C936.5125,217.5938 934.5125,219.6719 934.5125,222.3906 L934.5125,223.5156 C934.5125,226.0938 936.6219,227.9844 939.5125,227.9844 C940.7313,227.9844 941.8875,227.6875 942.6375,227.1406 C943.2156,226.7344 943.5438,226.2813 943.5438,225.8906 C943.5438,225.4375 943.1531,225.0469 942.6844,225.0469 C942.4656,225.0469 942.2625,225.125 942.075,225.3125 C941.6219,225.7969 941.6219,225.7969 941.4344,225.8906 C941.0125,226.1563 940.325,226.2813 939.5594,226.2813 C937.5125,226.2813 936.2156,225.1875 936.2156,223.4844 L936.2156,222.3906 C936.2156,220.6094 937.4656,219.2969 939.2,219.2969 C939.7781,219.2969 940.3875,219.4531 940.8563,219.7031 C941.3406,219.9844 941.5125,220.2031 941.6063,220.6094 C941.6688,221.0156 941.7,221.1406 941.8406,221.2656 C941.9813,221.4063 942.2156,221.5156 942.4344,221.5156 C942.7,221.5156 942.9656,221.375 943.1375,221.1563 C943.2469,221 943.2781,220.8125 943.2781,220.3906 L943.2781,218.9688 C943.2781,218.5313 943.2625,218.4063 943.1688,218.25 C943.0125,217.9844 942.7313,217.8438 942.4344,217.8438 C942.1375,217.8438 941.9344,217.9375 941.7156,218.25 L941.5438,218.1719 Z " fill="#000000"/><text fill="#000000" font-family="sans-serif" font-size="12" lengthAdjust="spacing" textLength="90" x="954.8" y="226.6543">RedoController</text><line style="stroke:#A80036;stroke-width:1.5;" x1="918" x2="1054" y1="238.5" y2="238.5"/><line style="stroke:#A80036;stroke-width:1.5;" x1="918" x2="1054" y1="246.5" y2="246.5"/><ellipse cx="928" cy="257.5" fill="#84BE84" rx="3" ry="3" style="stroke:#038048;stroke-width:1.0;"/><text fill="#000000" font-family="sans-serif" font-size="11" lengthAdjust="spacing" textLength="112" x="937" y="260.7104">redoable(): boolean</text><ellipse cx="928" cy="270.3047" fill="#84BE84" rx="3" ry="3" style="stroke:#038048;stroke-width:1.0;"/><text fill="#000000" font-family="sans-serif" font-size="11" lengthAdjust="spacing" textLength="34" x="937" y="273.5151">redo()</text><!--MD5=[e3bda80bf751c47429430ce37694df8e]
class controllers.OpenController--><rect codeLine="40" fill="#FEFECE" filter="url(#f1inz9ki2wysfj)" height="60.8047" id="controllers.OpenController" style="stroke:#A80036;stroke-width:1.5;" width="124" x="1090" y="213"/><ellipse cx="1105" cy="229" fill="#ADD1B2" rx="11" ry="11" style="stroke:#A80036;stroke-width:1.0;"/><path d="M1107.3438,224.6719 C1106.4063,224.2344 1105.8125,224.0938 1104.9375,224.0938 C1102.3125,224.0938 1100.3125,226.1719 1100.3125,228.8906 L1100.3125,230.0156 C1100.3125,232.5938 1102.4219,234.4844 1105.3125,234.4844 C1106.5313,234.4844 1107.6875,234.1875 1108.4375,233.6406 C1109.0156,233.2344 1109.3438,232.7813 1109.3438,232.3906 C1109.3438,231.9375 1108.9531,231.5469 1108.4844,231.5469 C1108.2656,231.5469 1108.0625,231.625 1107.875,231.8125 C1107.4219,232.2969 1107.4219,232.2969 1107.2344,232.3906 C1106.8125,232.6563 1106.125,232.7813 1105.3594,232.7813 C1103.3125,232.7813 1102.0156,231.6875 1102.0156,229.9844 L1102.0156,228.8906 C1102.0156,227.1094 1103.2656,225.7969 1105,225.7969 C1105.5781,225.7969 1106.1875,225.9531 1106.6563,226.2031 C1107.1406,226.4844 1107.3125,226.7031 1107.4063,227.1094 C1107.4688,227.5156 1107.5,227.6406 1107.6406,227.7656 C1107.7813,227.9063 1108.0156,228.0156 1108.2344,228.0156 C1108.5,228.0156 1108.7656,227.875 1108.9375,227.6563 C1109.0469,227.5 1109.0781,227.3125 1109.0781,226.8906 L1109.0781,225.4688 C1109.0781,225.0313 1109.0625,224.9063 1108.9688,224.75 C1108.8125,224.4844 1108.5313,224.3438 1108.2344,224.3438 C1107.9375,224.3438 1107.7344,224.4375 1107.5156,224.75 L1107.3438,224.6719 Z " fill="#000000"/><text fill="#000000" font-family="sans-serif" font-size="12" lengthAdjust="spacing" textLength="92" x="1119" y="233.1543">OpenController</text><line style="stroke:#A80036;stroke-width:1.5;" x1="1091" x2="1213" y1="245" y2="245"/><line style="stroke:#A80036;stroke-width:1.5;" x1="1091" x2="1213" y1="253" y2="253"/><ellipse cx="1101" cy="264" fill="#84BE84" rx="3" ry="3" style="stroke:#038048;stroke-width:1.0;"/><text fill="#000000" font-family="sans-serif" font-size="11" lengthAdjust="spacing" textLength="37" x="1110" y="267.2104">open()</text><!--MD5=[91d1b4354f3adedf5c3aea5a35dbd179]
class controllers.SaveController--><rect codeLine="44" fill="#FEFECE" filter="url(#f1inz9ki2wysfj)" height="60.8047" id="controllers.SaveController" style="stroke:#A80036;stroke-width:1.5;" width="121" x="1249.5" y="213"/><ellipse cx="1264.5" cy="229" fill="#ADD1B2" rx="11" ry="11" style="stroke:#A80036;stroke-width:1.0;"/><path d="M1266.8438,224.6719 C1265.9063,224.2344 1265.3125,224.0938 1264.4375,224.0938 C1261.8125,224.0938 1259.8125,226.1719 1259.8125,228.8906 L1259.8125,230.0156 C1259.8125,232.5938 1261.9219,234.4844 1264.8125,234.4844 C1266.0313,234.4844 1267.1875,234.1875 1267.9375,233.6406 C1268.5156,233.2344 1268.8438,232.7813 1268.8438,232.3906 C1268.8438,231.9375 1268.4531,231.5469 1267.9844,231.5469 C1267.7656,231.5469 1267.5625,231.625 1267.375,231.8125 C1266.9219,232.2969 1266.9219,232.2969 1266.7344,232.3906 C1266.3125,232.6563 1265.625,232.7813 1264.8594,232.7813 C1262.8125,232.7813 1261.5156,231.6875 1261.5156,229.9844 L1261.5156,228.8906 C1261.5156,227.1094 1262.7656,225.7969 1264.5,225.7969 C1265.0781,225.7969 1265.6875,225.9531 1266.1563,226.2031 C1266.6406,226.4844 1266.8125,226.7031 1266.9063,227.1094 C1266.9688,227.5156 1267,227.6406 1267.1406,227.7656 C1267.2813,227.9063 1267.5156,228.0156 1267.7344,228.0156 C1268,228.0156 1268.2656,227.875 1268.4375,227.6563 C1268.5469,227.5 1268.5781,227.3125 1268.5781,226.8906 L1268.5781,225.4688 C1268.5781,225.0313 1268.5625,224.9063 1268.4688,224.75 C1268.3125,224.4844 1268.0313,224.3438 1267.7344,224.3438 C1267.4375,224.3438 1267.2344,224.4375 1267.0156,224.75 L1266.8438,224.6719 Z " fill="#000000"/><text fill="#000000" font-family="sans-serif" font-size="12" lengthAdjust="spacing" textLength="89" x="1278.5" y="233.1543">SaveController</text><line style="stroke:#A80036;stroke-width:1.5;" x1="1250.5" x2="1369.5" y1="245" y2="245"/><line style="stroke:#A80036;stroke-width:1.5;" x1="1250.5" x2="1369.5" y1="253" y2="253"/><ellipse cx="1260.5" cy="264" fill="#84BE84" rx="3" ry="3" style="stroke:#038048;stroke-width:1.0;"/><text fill="#000000" font-family="sans-serif" font-size="11" lengthAdjust="spacing" textLength="36" x="1269.5" y="267.2104">save()</text><!--MD5=[90ad8fcc28625cee403c51b0bcf915c5]
class controllers.ExitController--><rect codeLine="48" fill="#FEFECE" filter="url(#f1inz9ki2wysfj)" height="60.8047" id="controllers.ExitController" style="stroke:#A80036;stroke-width:1.5;" width="112" x="1406" y="213"/><ellipse cx="1421" cy="229" fill="#ADD1B2" rx="11" ry="11" style="stroke:#A80036;stroke-width:1.0;"/><path d="M1423.3438,224.6719 C1422.4063,224.2344 1421.8125,224.0938 1420.9375,224.0938 C1418.3125,224.0938 1416.3125,226.1719 1416.3125,228.8906 L1416.3125,230.0156 C1416.3125,232.5938 1418.4219,234.4844 1421.3125,234.4844 C1422.5313,234.4844 1423.6875,234.1875 1424.4375,233.6406 C1425.0156,233.2344 1425.3438,232.7813 1425.3438,232.3906 C1425.3438,231.9375 1424.9531,231.5469 1424.4844,231.5469 C1424.2656,231.5469 1424.0625,231.625 1423.875,231.8125 C1423.4219,232.2969 1423.4219,232.2969 1423.2344,232.3906 C1422.8125,232.6563 1422.125,232.7813 1421.3594,232.7813 C1419.3125,232.7813 1418.0156,231.6875 1418.0156,229.9844 L1418.0156,228.8906 C1418.0156,227.1094 1419.2656,225.7969 1421,225.7969 C1421.5781,225.7969 1422.1875,225.9531 1422.6563,226.2031 C1423.1406,226.4844 1423.3125,226.7031 1423.4063,227.1094 C1423.4688,227.5156 1423.5,227.6406 1423.6406,227.7656 C1423.7813,227.9063 1424.0156,228.0156 1424.2344,228.0156 C1424.5,228.0156 1424.7656,227.875 1424.9375,227.6563 C1425.0469,227.5 1425.0781,227.3125 1425.0781,226.8906 L1425.0781,225.4688 C1425.0781,225.0313 1425.0625,224.9063 1424.9688,224.75 C1424.8125,224.4844 1424.5313,224.3438 1424.2344,224.3438 C1423.9375,224.3438 1423.7344,224.4375 1423.5156,224.75 L1423.3438,224.6719 Z " fill="#000000"/><text fill="#000000" font-family="sans-serif" font-size="12" lengthAdjust="spacing" textLength="80" x="1435" y="233.1543">ExitController</text><line style="stroke:#A80036;stroke-width:1.5;" x1="1407" x2="1517" y1="245" y2="245"/><line style="stroke:#A80036;stroke-width:1.5;" x1="1407" x2="1517" y1="253" y2="253"/><ellipse cx="1417" cy="264" fill="#84BE84" rx="3" ry="3" style="stroke:#038048;stroke-width:1.0;"/><text fill="#000000" font-family="sans-serif" font-size="11" lengthAdjust="spacing" textLength="30" x="1426" y="267.2104">exit()</text><!--MD5=[8c7d7abc12e214c3cc12c9ab70edee11]
class Coordinate--><rect codeLine="1" fill="#FEFECE" filter="url(#f1inz9ki2wysfj)" height="53.9375" id="Coordinate" style="stroke:#A80036;stroke-width:1.5;" width="98" x="1553" y="216.5"/><ellipse cx="1568" cy="235.4688" fill="#ADD1B2" rx="11" ry="11" style="stroke:#A80036;stroke-width:1.0;"/><path d="M1570.3438,231.1406 C1569.4063,230.7031 1568.8125,230.5625 1567.9375,230.5625 C1565.3125,230.5625 1563.3125,232.6406 1563.3125,235.3594 L1563.3125,236.4844 C1563.3125,239.0625 1565.4219,240.9531 1568.3125,240.9531 C1569.5313,240.9531 1570.6875,240.6563 1571.4375,240.1094 C1572.0156,239.7031 1572.3438,239.25 1572.3438,238.8594 C1572.3438,238.4063 1571.9531,238.0156 1571.4844,238.0156 C1571.2656,238.0156 1571.0625,238.0938 1570.875,238.2813 C1570.4219,238.7656 1570.4219,238.7656 1570.2344,238.8594 C1569.8125,239.125 1569.125,239.25 1568.3594,239.25 C1566.3125,239.25 1565.0156,238.1563 1565.0156,236.4531 L1565.0156,235.3594 C1565.0156,233.5781 1566.2656,232.2656 1568,232.2656 C1568.5781,232.2656 1569.1875,232.4219 1569.6563,232.6719 C1570.1406,232.9531 1570.3125,233.1719 1570.4063,233.5781 C1570.4688,233.9844 1570.5,234.1094 1570.6406,234.2344 C1570.7813,234.375 1571.0156,234.4844 1571.2344,234.4844 C1571.5,234.4844 1571.7656,234.3438 1571.9375,234.125 C1572.0469,233.9688 1572.0781,233.7813 1572.0781,233.3594 L1572.0781,231.9375 C1572.0781,231.5 1572.0625,231.375 1571.9688,231.2188 C1571.8125,230.9531 1571.5313,230.8125 1571.2344,230.8125 C1570.9375,230.8125 1570.7344,230.9063 1570.5156,231.2188 L1570.3438,231.1406 Z " fill="#000000"/><text fill="#000000" font-family="sans-serif" font-size="12" lengthAdjust="spacing" textLength="37" x="1596.5" y="232.6387">types.</text><text fill="#000000" font-family="sans-serif" font-size="12" lengthAdjust="spacing" textLength="66" x="1582" y="246.6074">Coordinate</text><line style="stroke:#A80036;stroke-width:1.5;" x1="1554" x2="1650" y1="254.4375" y2="254.4375"/><line style="stroke:#A80036;stroke-width:1.5;" x1="1554" x2="1650" y1="262.4375" y2="262.4375"/><!--MD5=[18eee71c88ab61f27581b8cbdd3ef5ee]
class Color--><rect codeLine="2" fill="#FEFECE" filter="url(#f1inz9ki2wysfj)" height="53.9375" id="Color" style="stroke:#A80036;stroke-width:1.5;" width="69" x="1686.5" y="216.5"/><ellipse cx="1701.5" cy="235.4688" fill="#EB937F" rx="11" ry="11" style="stroke:#A80036;stroke-width:1.0;"/><path d="M1700.2969,236.3438 L1701.75,236.3438 L1701.75,236.4531 C1701.75,236.8594 1701.7813,237.0156 1701.8594,237.1719 C1702.0156,237.4219 1702.2969,237.5781 1702.5938,237.5781 C1702.8438,237.5781 1703.1094,237.4375 1703.2656,237.2188 C1703.3906,237.0625 1703.4219,236.9063 1703.4219,236.4531 L1703.4219,234.5313 C1703.4219,234.375 1703.4219,234.3281 1703.4063,234.1719 C1703.3438,233.7031 1703.0313,233.3906 1702.5781,233.3906 C1702.3281,233.3906 1702.0625,233.5313 1701.8906,233.75 C1701.7813,233.9219 1701.75,234.0781 1701.75,234.5313 L1701.75,234.6563 L1700.2969,234.6563 L1700.2969,232.25 L1704.2813,232.25 L1704.2813,233.1094 C1704.2813,233.5156 1704.3125,233.6875 1704.3906,233.8438 C1704.5625,234.0938 1704.8438,234.25 1705.125,234.25 C1705.3906,234.25 1705.6563,234.1094 1705.8281,233.8906 C1705.9375,233.7188 1705.9688,233.5781 1705.9688,233.1094 L1705.9688,230.5625 L1698.3438,230.5625 C1697.9063,230.5625 1697.7813,230.5781 1697.625,230.6719 C1697.375,230.8281 1697.2188,231.125 1697.2188,231.4063 C1697.2188,231.6875 1697.3594,231.9375 1697.5781,232.1094 C1697.7344,232.2188 1697.9219,232.25 1698.3438,232.25 L1698.5938,232.25 L1698.5938,238.7656 L1698.3438,238.7656 C1697.9375,238.7656 1697.7813,238.7813 1697.625,238.8906 C1697.375,239.0625 1697.2188,239.3281 1697.2188,239.625 C1697.2188,239.8906 1697.3594,240.1406 1697.5781,240.2969 C1697.7188,240.4219 1697.9531,240.4688 1698.3438,240.4688 L1706.3438,240.4688 L1706.3438,237.8906 C1706.3438,237.4531 1706.3125,237.3125 1706.2344,237.1563 C1706.0625,236.9063 1705.7813,236.75 1705.5,236.75 C1705.2344,236.75 1704.9688,236.8594 1704.7969,237.1094 C1704.6875,237.2656 1704.6563,237.4063 1704.6563,237.8906 L1704.6563,238.7656 L1700.2969,238.7656 L1700.2969,236.3438 Z " fill="#000000"/><text fill="#000000" font-family="sans-serif" font-size="12" lengthAdjust="spacing" textLength="37" x="1715.5" y="232.6387">types.</text><text fill="#000000" font-family="sans-serif" font-size="12" lengthAdjust="spacing" textLength="32" x="1718" y="246.6074">Color</text><line style="stroke:#A80036;stroke-width:1.5;" x1="1687.5" x2="1754.5" y1="254.4375" y2="254.4375"/><line style="stroke:#A80036;stroke-width:1.5;" x1="1687.5" x2="1754.5" y1="262.4375" y2="262.4375"/><!--MD5=[b8cfd8c4119a3b0a7a46bfc5fc780f85]
class Error--><rect codeLine="3" fill="#FEFECE" filter="url(#f1inz9ki2wysfj)" height="53.9375" id="Error" style="stroke:#A80036;stroke-width:1.5;" width="69" x="170.5" y="385"/><ellipse cx="185.5" cy="403.9688" fill="#EB937F" rx="11" ry="11" style="stroke:#A80036;stroke-width:1.0;"/><path d="M184.2969,404.8438 L185.75,404.8438 L185.75,404.9531 C185.75,405.3594 185.7813,405.5156 185.8594,405.6719 C186.0156,405.9219 186.2969,406.0781 186.5938,406.0781 C186.8438,406.0781 187.1094,405.9375 187.2656,405.7188 C187.3906,405.5625 187.4219,405.4063 187.4219,404.9531 L187.4219,403.0313 C187.4219,402.875 187.4219,402.8281 187.4063,402.6719 C187.3438,402.2031 187.0313,401.8906 186.5781,401.8906 C186.3281,401.8906 186.0625,402.0313 185.8906,402.25 C185.7813,402.4219 185.75,402.5781 185.75,403.0313 L185.75,403.1563 L184.2969,403.1563 L184.2969,400.75 L188.2813,400.75 L188.2813,401.6094 C188.2813,402.0156 188.3125,402.1875 188.3906,402.3438 C188.5625,402.5938 188.8438,402.75 189.125,402.75 C189.3906,402.75 189.6563,402.6094 189.8281,402.3906 C189.9375,402.2188 189.9688,402.0781 189.9688,401.6094 L189.9688,399.0625 L182.3438,399.0625 C181.9063,399.0625 181.7813,399.0781 181.625,399.1719 C181.375,399.3281 181.2188,399.625 181.2188,399.9063 C181.2188,400.1875 181.3594,400.4375 181.5781,400.6094 C181.7344,400.7188 181.9219,400.75 182.3438,400.75 L182.5938,400.75 L182.5938,407.2656 L182.3438,407.2656 C181.9375,407.2656 181.7813,407.2813 181.625,407.3906 C181.375,407.5625 181.2188,407.8281 181.2188,408.125 C181.2188,408.3906 181.3594,408.6406 181.5781,408.7969 C181.7188,408.9219 181.9531,408.9688 182.3438,408.9688 L190.3438,408.9688 L190.3438,406.3906 C190.3438,405.9531 190.3125,405.8125 190.2344,405.6563 C190.0625,405.4063 189.7813,405.25 189.5,405.25 C189.2344,405.25 188.9688,405.3594 188.7969,405.6094 C188.6875,405.7656 188.6563,405.9063 188.6563,406.3906 L188.6563,407.2656 L184.2969,407.2656 L184.2969,404.8438 Z " fill="#000000"/><text fill="#000000" font-family="sans-serif" font-size="12" lengthAdjust="spacing" textLength="37" x="199.5" y="401.1387">types.</text><text fill="#000000" font-family="sans-serif" font-size="12" lengthAdjust="spacing" textLength="30" x="203" y="415.1074">Error</text><line style="stroke:#A80036;stroke-width:1.5;" x1="171.5" x2="238.5" y1="422.9375" y2="422.9375"/><line style="stroke:#A80036;stroke-width:1.5;" x1="171.5" x2="238.5" y1="430.9375" y2="430.9375"/><!--MD5=[b6dcce5e5ef3c84b0b048d11301373dd]
class Game--><rect codeLine="4" fill="#FEFECE" filter="url(#f1inz9ki2wysfj)" height="53.9375" id="Game" style="stroke:#A80036;stroke-width:1.5;" width="80" x="1791" y="216.5"/><ellipse cx="1806" cy="235.4688" fill="#ADD1B2" rx="11" ry="11" style="stroke:#A80036;stroke-width:1.0;"/><path d="M1808.3438,231.1406 C1807.4063,230.7031 1806.8125,230.5625 1805.9375,230.5625 C1803.3125,230.5625 1801.3125,232.6406 1801.3125,235.3594 L1801.3125,236.4844 C1801.3125,239.0625 1803.4219,240.9531 1806.3125,240.9531 C1807.5313,240.9531 1808.6875,240.6563 1809.4375,240.1094 C1810.0156,239.7031 1810.3438,239.25 1810.3438,238.8594 C1810.3438,238.4063 1809.9531,238.0156 1809.4844,238.0156 C1809.2656,238.0156 1809.0625,238.0938 1808.875,238.2813 C1808.4219,238.7656 1808.4219,238.7656 1808.2344,238.8594 C1807.8125,239.125 1807.125,239.25 1806.3594,239.25 C1804.3125,239.25 1803.0156,238.1563 1803.0156,236.4531 L1803.0156,235.3594 C1803.0156,233.5781 1804.2656,232.2656 1806,232.2656 C1806.5781,232.2656 1807.1875,232.4219 1807.6563,232.6719 C1808.1406,232.9531 1808.3125,233.1719 1808.4063,233.5781 C1808.4688,233.9844 1808.5,234.1094 1808.6406,234.2344 C1808.7813,234.375 1809.0156,234.4844 1809.2344,234.4844 C1809.5,234.4844 1809.7656,234.3438 1809.9375,234.125 C1810.0469,233.9688 1810.0781,233.7813 1810.0781,233.3594 L1810.0781,231.9375 C1810.0781,231.5 1810.0625,231.375 1809.9688,231.2188 C1809.8125,230.9531 1809.5313,230.8125 1809.2344,230.8125 C1808.9375,230.8125 1808.7344,230.9063 1808.5156,231.2188 L1808.3438,231.1406 Z " fill="#000000"/><text fill="#000000" font-family="sans-serif" font-size="12" lengthAdjust="spacing" textLength="48" x="1820" y="232.6387">models.</text><text fill="#000000" font-family="sans-serif" font-size="12" lengthAdjust="spacing" textLength="35" x="1826.5" y="246.6074">Game</text><line style="stroke:#A80036;stroke-width:1.5;" x1="1792" x2="1870" y1="254.4375" y2="254.4375"/><line style="stroke:#A80036;stroke-width:1.5;" x1="1792" x2="1870" y1="262.4375" y2="262.4375"/><!--MD5=[ef8c05d66c4b2b1e5a781c7196559dad]
reverse link controllers.Controller to controllers.StartController--><path codeLine="53" d="M1041.63,77.846 C951.566,86.246 823.561,107.657 725,162 C699.608,176 677.351,200.973 663.181,219.404 " fill="none" id="controllers.Controller-backto-controllers.StartController" style="stroke:#A80036;stroke-width:1.0;"/><polygon fill="none" points="1041.14,70.862,1061.67,76.133,1042.34,84.811,1041.14,70.862" style="stroke:#A80036;stroke-width:1.0;"/><!--MD5=[cd97b32f8cd0eecd774161c5480ca0be]
reverse link controllers.Controller to controllers.PlayController--><path codeLine="54" d="M1041.57,75.891 C892.692,82.641 620.401,102.699 396,162 C390.086,163.563 384.115,165.273 378.12,167.105 " fill="none" id="controllers.Controller-backto-controllers.PlayController" style="stroke:#A80036;stroke-width:1.0;"/><polygon fill="none" points="1041.46,68.889,1061.74,75.024,1042.06,82.876,1041.46,68.889" style="stroke:#A80036;stroke-width:1.0;"/><!--MD5=[8b121a2dc1d192ba5b71e05f14e3e1fc]
reverse link controllers.Controller to controllers.ResumeController--><path codeLine="55" d="M1041.71,81.714 C896.808,95.139 651.201,122.816 570,162 C545.351,173.895 522.832,195.158 506.882,212.845 " fill="none" id="controllers.Controller-backto-controllers.ResumeController" style="stroke:#A80036;stroke-width:1.0;"/><polygon fill="none" points="1041.34,74.719,1061.9,79.876,1042.61,88.661,1041.34,74.719" style="stroke:#A80036;stroke-width:1.0;"/><!--MD5=[ac6216610106df8653a0bdb9b1c5556b]
reverse link controllers.Controller to controllers.UndoController--><path codeLine="56" d="M1042.62,100.861 C996.697,115.38 943.874,135.636 900,162 C879.945,174.051 860.449,191.148 844.926,206.488 " fill="none" id="controllers.Controller-backto-controllers.UndoController" style="stroke:#A80036;stroke-width:1.0;"/><polygon fill="none" points="1040.67,94.14,1061.84,94.989,1044.76,107.529,1040.67,94.14" style="stroke:#A80036;stroke-width:1.0;"/><!--MD5=[6dd0cf0e356f363ae1914a7a2b11d4f3]
reverse link controllers.Controller to controllers.RedoController--><path codeLine="57" d="M1108.82,116.721 C1081.56,144.636 1046.79,180.243 1021.21,206.441 " fill="none" id="controllers.Controller-backto-controllers.RedoController" style="stroke:#A80036;stroke-width:1.0;"/><polygon fill="none" points="1104.1,111.531,1123.09,102.112,1114.12,121.312,1104.1,111.531" style="stroke:#A80036;stroke-width:1.0;"/><!--MD5=[3f69ee73c865a3817a89de13e067a8a0]
reverse link controllers.Controller to controllers.OpenController--><path codeLine="58" d="M1152,122.513 C1152,151.901 1152,188.049 1152,212.943 " fill="none" id="controllers.Controller-backto-controllers.OpenController" style="stroke:#A80036;stroke-width:1.0;"/><polygon fill="none" points="1145,122.112,1152,102.112,1159,122.112,1145,122.112" style="stroke:#A80036;stroke-width:1.0;"/><!--MD5=[c87151417def0ba02ac594fe4a4b8864]
reverse link controllers.Controller to controllers.SaveController--><path codeLine="59" d="M1193.37,117.008 C1221.49,147.271 1257.93,186.471 1282.53,212.943 " fill="none" id="controllers.Controller-backto-controllers.SaveController" style="stroke:#A80036;stroke-width:1.0;"/><polygon fill="none" points="1188.01,121.527,1179.52,102.112,1198.26,111.996,1188.01,121.527" style="stroke:#A80036;stroke-width:1.0;"/><!--MD5=[498f486c86c90de7517ead4cddc58d14]
reverse link controllers.Controller to controllers.ExitController--><path codeLine="60" d="M1261.28,102.126 C1303.04,116.394 1349.77,136.128 1388,162 C1408.28,175.725 1426.91,196.059 1440.41,212.855 " fill="none" id="controllers.Controller-backto-controllers.ExitController" style="stroke:#A80036;stroke-width:1.0;"/><polygon fill="none" points="1259,108.745,1242.18,95.855,1263.37,95.443,1259,108.745" style="stroke:#A80036;stroke-width:1.0;"/><!--MD5=[8ad6b98c80c2e8d67861489acf1dc191]
link controllers.Controller to Coordinate--><path codeLine="63" d="M1242.22,77.621 C1323.71,85.8 1444.27,107.015 1534,162 C1554.13,174.337 1571.25,194.695 1583.27,211.851 " fill="none" id="controllers.Controller-to-Coordinate" style="stroke:#A80036;stroke-width:1.0;stroke-dasharray:7.0,7.0;"/><polygon fill="#A80036" points="1586.22,216.136,1584.4285,206.4514,1583.3921,212.0125,1577.831,210.9761,1586.22,216.136" style="stroke:#A80036;stroke-width:1.0;"/><!--MD5=[b94aa1a75f93d3abca94b07c4d13e11c]
link controllers.Controller to Game--><path codeLine="64" d="M1242.23,76.893 C1392.35,85.605 1685.55,109.008 1773,162 C1792.12,173.587 1806.76,194.118 1816.55,211.545 " fill="none" id="controllers.Controller-to-Game" style="stroke:#A80036;stroke-width:1.0;"/><polygon fill="#A80036" points="1819.18,216.368,1818.3759,206.552,1816.783,211.98,1811.3551,210.3872,1819.18,216.368" style="stroke:#A80036;stroke-width:1.0;"/><!--MD5=[2137a72d437bf538c060bbbb6b1da85a]
link controllers.Controller to Color--><path codeLine="65" d="M1242.22,79.405 C1371.22,90.72 1600.38,116.617 1669,162 C1686.89,173.829 1699.94,194.151 1708.5,211.416 " fill="none" id="controllers.Controller-to-Color" style="stroke:#A80036;stroke-width:1.0;stroke-dasharray:7.0,7.0;"/><polygon fill="#A80036" points="1710.79,216.195,1710.5061,206.3502,1708.6284,211.6864,1703.2923,209.8087,1710.79,216.195" style="stroke:#A80036;stroke-width:1.0;"/><!--MD5=[7ea9d56df08d1b80398b18ec4b9e65d2]
link controllers.PlayController to Error--><path codeLine="66" d="M205,325.311 C205,344.6658 205,364.1961 205,379.7131 " fill="none" id="controllers.PlayController-to-Error" style="stroke:#A80036;stroke-width:1.0;stroke-dasharray:7.0,7.0;"/><polygon fill="#A80036" points="205,384.8155,209,375.8155,205,379.8155,201,375.8155,205,384.8155" style="stroke:#A80036;stroke-width:1.0;"/><!--MD5=[e61bb908c4df0a7b043ee7572b72731c]
@startuml
class Coordinate as "types.\nCoordinate"
enum Color as "types.\nColor"
enum Error as "types.\nError"
class Game as "models.\nGame"

abstract class  controllers.Controller{
    + getColor(Coordinate): Color
}

class  controllers.PlayController{
    +areAllTokensOnBoard(): boolean
    +putToken(Coordinate)
    +getPutTokenError(Coordinate): Error
    +moveToken(Coordinate, Coordinate)
    +getOriginMoveTokenError(Coordinate): Error
    +getTargetMoveTokenError(Coordinate, Coordinate): Error
    +next()
    +getActiveColor(): Color
    +isTicTacToe(): boolean
}

class  controllers.ResumeController{
    +reset()
}

class  controllers.StartController{

}

class  controllers.UndoController{
    +undoable(): boolean
    +undo()
}

class  controllers.RedoController{
    +redoable(): boolean
    +redo()
}

class  controllers.OpenController{
    +open()
}

class  controllers.SaveController{
    +save()
}

class  controllers.ExitController{
    +exit()
}


controllers.Controller <|- - controllers.StartController
controllers.Controller <|- - controllers.PlayController
controllers.Controller <|- - controllers.ResumeController
controllers.Controller <|- - controllers.UndoController
controllers.Controller <|- - controllers.RedoController
controllers.Controller <|- - controllers.OpenController
controllers.Controller <|- - controllers.SaveController
controllers.Controller <|- - controllers.ExitController


controllers.Controller .down.> Coordinate
controllers.Controller - -> Game
controllers.Controller ..> Color
controllers.PlayController .down.> Error
@enduml

PlantUML version 1.2021.4beta3(Unknown compile time)
(GPL source distribution)
Java Runtime: Java(TM) SE Runtime Environment
JVM: Java HotSpot(TM) 64-Bit Server VM
Default Encoding: UTF-8
Language: en
Country: US
--></g></svg>