<?xml version="1.0" encoding="UTF-8" standalone="no"?><svg xmlns="http://www.w3.org/2000/svg" xmlns:xlink="http://www.w3.org/1999/xlink" contentScriptType="application/ecmascript" contentStyleType="text/css" height="517px" preserveAspectRatio="none" style="width:466px;height:517px;" version="1.1" viewBox="0 0 466 517" width="466px" zoomAndPan="magnify"><defs><filter height="300%" id="f1kfedp97hng47" width="300%" x="-1" y="-1"><feGaussianBlur result="blurOut" stdDeviation="2.0"/><feColorMatrix in="blurOut" result="blurOut2" type="matrix" values="0 0 0 0 0 0 0 0 0 0 0 0 0 0 0 0 0 0 .4 0"/><feOffset dx="4.0" dy="4.0" in="blurOut2" result="blurOut3"/><feBlend in="SourceGraphic" in2="blurOut3" mode="normal"/></filter></defs><g><polygon fill="#DDDDDD" filter="url(#f1kfedp97hng47)" points="136.5,6,321.5,6,328.5,28.2969,335.5,28.2969,335.5,58.5938,136.5,58.5938,136.5,6" style="stroke: #000000; stroke-width: 1.5;"/><line style="stroke: #000000; stroke-width: 1.5;" x1="136.5" x2="328.5" y1="28.2969" y2="28.2969"/><text fill="#000000" font-family="sans-serif" font-size="14" font-weight="bold" lengthAdjust="spacingAndGlyphs" textLength="179" x="140.5" y="20.9951">usantatecla.tictactoe</text><polygon fill="#DDDDDD" filter="url(#f1kfedp97hng47)" points="16,232,264,232,271,254.2969,278,254.2969,278,284.5938,16,284.5938,16,232" style="stroke: #000000; stroke-width: 1.5;"/><line style="stroke: #000000; stroke-width: 1.5;" x1="16" x2="271" y1="254.2969" y2="254.2969"/><text fill="#000000" font-family="sans-serif" font-size="14" font-weight="bold" lengthAdjust="spacingAndGlyphs" textLength="242" x="20" y="246.9951">usantatecla.tictactoe.models</text><polygon fill="#DDDDDD" filter="url(#f1kfedp97hng47)" points="200.5,119,435.5,119,442.5,141.2969,449.5,141.2969,449.5,171.5938,200.5,171.5938,200.5,119" style="stroke: #000000; stroke-width: 1.5;"/><line style="stroke: #000000; stroke-width: 1.5;" x1="200.5" x2="442.5" y1="141.2969" y2="141.2969"/><text fill="#000000" font-family="sans-serif" font-size="14" font-weight="bold" lengthAdjust="spacingAndGlyphs" textLength="229" x="204.5" y="133.9951">usantatecla.tictactoe.views</text><polygon fill="#DDDDDD" filter="url(#f1kfedp97hng47)" points="238,345,384,345,391,367.2969,398,367.2969,398,397.5938,238,397.5938,238,345" style="stroke: #000000; stroke-width: 1.5;"/><line style="stroke: #000000; stroke-width: 1.5;" x1="238" x2="391" y1="367.2969" y2="367.2969"/><text fill="#000000" font-family="sans-serif" font-size="14" font-weight="bold" lengthAdjust="spacingAndGlyphs" textLength="140" x="242" y="359.9951">usantatecla.utils</text><polygon fill="#FFFFFF" filter="url(#f1kfedp97hng47)" points="103.5,345,176.5,345,183.5,367.2969,190.5,367.2969,190.5,397.5938,103.5,397.5938,103.5,345" style="stroke: #000000; stroke-width: 1.5;"/><line style="stroke: #000000; stroke-width: 1.5;" x1="103.5" x2="183.5" y1="367.2969" y2="367.2969"/><text fill="#000000" font-family="sans-serif" font-size="14" font-weight="bold" lengthAdjust="spacingAndGlyphs" textLength="67" x="107.5" y="359.9951">java.util</text><polygon fill="#FFFFFF" filter="url(#f1kfedp97hng47)" points="281,458,341,458,348,480.2969,355,480.2969,355,510.5938,281,510.5938,281,458" style="stroke: #000000; stroke-width: 1.5;"/><line style="stroke: #000000; stroke-width: 1.5;" x1="281" x2="348" y1="480.2969" y2="480.2969"/><text fill="#000000" font-family="sans-serif" font-size="14" font-weight="bold" lengthAdjust="spacingAndGlyphs" textLength="54" x="285" y="472.9951">java.io</text><!--MD5=[9e36bef8f7f19866037b40a69a6b84e4]
link usantatecla.tictactoe to usantatecla.tictactoe.models--><path d="M217.129,59.331 C205.882,75.739 192.075,97.808 183,119 C167.762,154.582 157.738,198.154 152.225,226.81 " fill="none" id="usantatecla.tictactoe-to-usantatecla.tictactoe.models" style="stroke: #A80036; stroke-width: 1.0; stroke-dasharray: 7.0,7.0;"/><polygon fill="#A80036" points="151.248,231.982,156.8495,223.8812,152.1763,227.0689,148.9886,222.3958,151.248,231.982" style="stroke: #A80036; stroke-width: 1.0;"/><!--MD5=[03497414b171f2c4293835c9c3d831fa]
link usantatecla.tictactoe to usantatecla.tictactoe.views--><path d="M256.642,59.245 C269.897,75.776 287.161,97.308 301.023,114.597 " fill="none" id="usantatecla.tictactoe-to-usantatecla.tictactoe.views" style="stroke: #A80036; stroke-width: 1.0; stroke-dasharray: 7.0,7.0;"/><polygon fill="#A80036" points="304.47,118.895,301.9585,109.3718,301.3413,114.9948,295.7182,114.3777,304.47,118.895" style="stroke: #A80036; stroke-width: 1.0;"/><!--MD5=[7b57a0bef555f205b9af78d47b4f5f77]
link usantatecla.tictactoe.models to java.util--><path d="M147,285.245 C147,301.496 147,322.579 147,339.714 " fill="none" id="usantatecla.tictactoe.models-to-java.util" style="stroke: #A80036; stroke-width: 1.0; stroke-dasharray: 7.0,7.0;"/><polygon fill="#A80036" points="147,344.895,151,335.895,147,339.895,143,335.895,147,344.895" style="stroke: #A80036; stroke-width: 1.0;"/><!--MD5=[42e02ea2557e3656f28eb82873c5e81c]
link usantatecla.tictactoe.models to usantatecla.utils--><path d="M186.661,285.245 C212.883,302.266 247.273,324.59 274.285,342.124 " fill="none" id="usantatecla.tictactoe.models-to-usantatecla.utils" style="stroke: #A80036; stroke-width: 1.0; stroke-dasharray: 7.0,7.0;"/><polygon fill="#A80036" points="278.554,344.895,273.1825,336.6399,274.36,342.1728,268.827,343.3503,278.554,344.895" style="stroke: #A80036; stroke-width: 1.0;"/><!--MD5=[d48e0208b2feb872c769eb48756d07e2]
link usantatecla.tictactoe.views to usantatecla.utils--><path d="M324.197,172.196 C322.903,213.606 320.361,294.957 318.968,339.514 " fill="none" id="usantatecla.tictactoe.views-to-usantatecla.utils" style="stroke: #A80036; stroke-width: 1.0; stroke-dasharray: 7.0,7.0;"/><polygon fill="#A80036" points="318.804,344.76,323.0823,335.8889,318.9597,339.7624,315.0862,335.6398,318.804,344.76" style="stroke: #A80036; stroke-width: 1.0;"/><!--MD5=[4cf77ad1cfcfeae6f4a54c9e58b4f749]
link usantatecla.tictactoe.views to usantatecla.tictactoe.models--><path d="M283.716,172.245 C256.42,189.266 220.622,211.59 192.505,229.124 " fill="none" id="usantatecla.tictactoe.views-to-usantatecla.tictactoe.models" style="stroke: #A80036; stroke-width: 1.0; stroke-dasharray: 7.0,7.0;"/><polygon fill="#A80036" points="188.06,231.895,197.8134,230.527,192.3027,229.2494,193.5804,223.7387,188.06,231.895" style="stroke: #A80036; stroke-width: 1.0;"/><!--MD5=[f7f372d3543268b8cc298f05137e5dac]
link usantatecla.utils to java.io--><path d="M318,398.245 C318,414.4958 318,435.5795 318,452.7139 " fill="none" id="usantatecla.utils-to-java.io" style="stroke: #A80036; stroke-width: 1.0; stroke-dasharray: 7.0,7.0;"/><polygon fill="#A80036" points="318,457.895,322,448.895,318,452.895,314,448.895,318,457.895" style="stroke: #A80036; stroke-width: 1.0;"/><!--MD5=[6eb90151fa36ca74999149e85f99fd3f]
@startuml
package usantatecla.tictactoe #DDDDDD { }
package usantatecla.tictactoe.models #DDDDDD { }
package usantatecla.tictactoe.views #DDDDDD { } 
package usantatecla.utils #DDDDDD { } 
package java.util{ }
usantatecla.tictactoe .down.> usantatecla.tictactoe.models
usantatecla.tictactoe .down.> usantatecla.tictactoe.views
usantatecla.tictactoe.models .down.> java.util
usantatecla.tictactoe.models .down.> usantatecla.utils
usantatecla.tictactoe.views .down.> usantatecla.utils
usantatecla.tictactoe.views .down.> usantatecla.tictactoe.models
  

package java.io{ }
usantatecla.utils .down.> java.io
@enduml

PlantUML version 1.2020.20beta11(Unknown compile time)
(GPL source distribution)
Java Runtime: Java(TM) SE Runtime Environment
JVM: Java HotSpot(TM) 64-Bit Server VM
Default Encoding: UTF-8
Language: en
Country: US
--></g></svg>