<?xml version="1.0" encoding="UTF-8" standalone="no"?><svg xmlns="http://www.w3.org/2000/svg" xmlns:xlink="http://www.w3.org/1999/xlink" contentScriptType="application/ecmascript" contentStyleType="text/css" height="1544px" preserveAspectRatio="none" style="width:2060px;height:1544px;" version="1.1" viewBox="0 0 2060 1544" width="2060px" zoomAndPan="magnify"><defs><filter height="300%" id="f18zo4ra8fq10f" width="300%" x="-1" y="-1"><feGaussianBlur result="blurOut" stdDeviation="2.0"/><feColorMatrix in="blurOut" result="blurOut2" type="matrix" values="0 0 0 0 0 0 0 0 0 0 0 0 0 0 0 0 0 0 .4 0"/><feOffset dx="4.0" dy="4.0" in="blurOut2" result="blurOut3"/><feBlend in="SourceGraphic" in2="blurOut3" mode="normal"/></filter></defs><g><!--MD5=[b59da53bc4cb019b9115ab51e8207bb0]
cluster usantatecla.tictactoe--><polygon fill="#FFFFFF" filter="url(#f18zo4ra8fq10f)" points="277.5,6,462.5,6,469.5,28.2969,1453.5,28.2969,1453.5,1438,277.5,1438,277.5,6" style="stroke: #000000; stroke-width: 1.5;"/><line style="stroke: #000000; stroke-width: 1.5;" x1="277.5" x2="469.5" y1="28.2969" y2="28.2969"/><text fill="#000000" font-family="sans-serif" font-size="14" font-weight="bold" lengthAdjust="spacingAndGlyphs" textLength="179" x="281.5" y="20.9951">usantatecla.tictactoe</text><!--MD5=[1c1463d9f8db069853651be96ebc7f3a]
class usantatecla.tictactoe.Board--><rect codeLine="2" fill="#FEFECE" filter="url(#f18zo4ra8fq10f)" height="214.4609" id="usantatecla.tictactoe.Board" style="stroke: #A80036; stroke-width: 1.5;" width="262" x="404.5" y="647"/><ellipse cx="513.25" cy="663" fill="#ADD1B2" rx="11" ry="11" style="stroke: #A80036; stroke-width: 1.0;"/><path d="M515.5938,658.6719 C514.6563,658.2344 514.0625,658.0938 513.1875,658.0938 C510.5625,658.0938 508.5625,660.1719 508.5625,662.8906 L508.5625,664.0156 C508.5625,666.5938 510.6719,668.4844 513.5625,668.4844 C514.7813,668.4844 515.9375,668.1875 516.6875,667.6406 C517.2656,667.2344 517.5938,666.7813 517.5938,666.3906 C517.5938,665.9375 517.2031,665.5469 516.7344,665.5469 C516.5156,665.5469 516.3125,665.625 516.125,665.8125 C515.6719,666.2969 515.6719,666.2969 515.4844,666.3906 C515.0625,666.6563 514.375,666.7813 513.6094,666.7813 C511.5625,666.7813 510.2656,665.6875 510.2656,663.9844 L510.2656,662.8906 C510.2656,661.1094 511.5156,659.7969 513.25,659.7969 C513.8281,659.7969 514.4375,659.9531 514.9063,660.2031 C515.3906,660.4844 515.5625,660.7031 515.6563,661.1094 C515.7188,661.5156 515.75,661.6406 515.8906,661.7656 C516.0313,661.9063 516.2656,662.0156 516.4844,662.0156 C516.75,662.0156 517.0156,661.875 517.1875,661.6563 C517.2969,661.5 517.3281,661.3125 517.3281,660.8906 L517.3281,659.4688 C517.3281,659.0313 517.3125,658.9063 517.2188,658.75 C517.0625,658.4844 516.7813,658.3438 516.4844,658.3438 C516.1875,658.3438 515.9844,658.4375 515.7656,658.75 L515.5938,658.6719 Z " fill="#000000"/><text fill="#000000" font-family="sans-serif" font-size="12" lengthAdjust="spacingAndGlyphs" textLength="36" x="533.75" y="667.1543">Board</text><line style="stroke: #A80036; stroke-width: 1.5;" x1="405.5" x2="665.5" y1="679" y2="679"/><rect fill="none" height="6" style="stroke: #C82930; stroke-width: 1.0;" width="6" x="412.5" y="687"/><text fill="#000000" font-family="sans-serif" font-size="11" lengthAdjust="spacingAndGlyphs" textLength="96" x="424.5" y="693.2104">tokens: Token[][]</text><line style="stroke: #A80036; stroke-width: 1.5;" x1="405.5" x2="665.5" y1="699.8047" y2="699.8047"/><polygon fill="#4177AF" points="415.5,706.8047,411.5,712.8047,419.5,712.8047" style="stroke: #1963A0; stroke-width: 1.0;"/><text fill="#000000" font-family="sans-serif" font-size="11" lengthAdjust="spacingAndGlyphs" textLength="41" x="424.5" y="714.0151">Board()</text><ellipse cx="415.5" cy="723.6094" fill="#84BE84" rx="3" ry="3" style="stroke: #038048; stroke-width: 1.0;"/><text fill="#000000" font-family="sans-serif" font-size="11" lengthAdjust="spacingAndGlyphs" textLength="38" x="424.5" y="726.8198">reset()</text><polygon fill="#4177AF" points="415.5,732.4141,411.5,738.4141,419.5,738.4141" style="stroke: #1963A0; stroke-width: 1.0;"/><text fill="#000000" font-family="sans-serif" font-size="11" lengthAdjust="spacingAndGlyphs" textLength="36" x="424.5" y="739.6245">write()</text><rect fill="#F24D5C" height="6" style="stroke: #C82930; stroke-width: 1.0;" width="6" x="412.5" y="746.2188"/><text fill="#000000" font-family="sans-serif" font-size="11" lengthAdjust="spacingAndGlyphs" textLength="166" x="424.5" y="752.4292">getToken(Coordinate): Token</text><polygon fill="#4177AF" points="415.5,758.0234,411.5,764.0234,419.5,764.0234" style="stroke: #1963A0; stroke-width: 1.0;"/><text fill="#000000" font-family="sans-serif" font-size="11" lengthAdjust="spacingAndGlyphs" textLength="133" x="424.5" y="765.2339">isCompleted(): boolean</text><polygon fill="#4177AF" points="415.5,770.8281,411.5,776.8281,419.5,776.8281" style="stroke: #1963A0; stroke-width: 1.0;"/><text fill="#000000" font-family="sans-serif" font-size="11" lengthAdjust="spacingAndGlyphs" textLength="130" x="424.5" y="778.0386">put(Coordinate, Token)</text><polygon fill="#4177AF" points="415.5,783.6328,411.5,789.6328,419.5,789.6328" style="stroke: #1963A0; stroke-width: 1.0;"/><text fill="#000000" font-family="sans-serif" font-size="11" lengthAdjust="spacingAndGlyphs" textLength="172" x="424.5" y="790.8433">move(Coordinate, Coordinate)</text><rect fill="#F24D5C" height="6" style="stroke: #C82930; stroke-width: 1.0;" width="6" x="412.5" y="797.4375"/><text fill="#000000" font-family="sans-serif" font-size="11" lengthAdjust="spacingAndGlyphs" textLength="115" x="424.5" y="803.6479">remove(Coordinate)</text><polygon fill="#4177AF" points="415.5,809.2422,411.5,815.2422,419.5,815.2422" style="stroke: #1963A0; stroke-width: 1.0;"/><text fill="#000000" font-family="sans-serif" font-size="11" lengthAdjust="spacingAndGlyphs" textLength="227" x="424.5" y="816.4526">isOccupied(Coordinate, Token): boolean</text><polygon fill="#4177AF" points="415.5,822.0469,411.5,828.0469,419.5,828.0469" style="stroke: #1963A0; stroke-width: 1.0;"/><text fill="#000000" font-family="sans-serif" font-size="11" lengthAdjust="spacingAndGlyphs" textLength="168" x="424.5" y="829.2573">isEmpty(Coordinate): boolean</text><polygon fill="#4177AF" points="415.5,834.8516,411.5,840.8516,419.5,840.8516" style="stroke: #1963A0; stroke-width: 1.0;"/><text fill="#000000" font-family="sans-serif" font-size="11" lengthAdjust="spacingAndGlyphs" textLength="163" x="424.5" y="842.062">isTicTacToe(Token): boolean</text><rect fill="#F24D5C" height="6" style="stroke: #C82930; stroke-width: 1.0;" width="6" x="412.5" y="848.6563"/><text fill="#000000" font-family="sans-serif" font-size="11" lengthAdjust="spacingAndGlyphs" textLength="236" x="424.5" y="854.8667">getCoordinates(Token): List&lt;Coordinate&gt;</text><!--MD5=[0990100d77444e20aa254ae593d623a1]
class usantatecla.tictactoe.Coordinate--><rect codeLine="18" fill="#FEFECE" filter="url(#f18zo4ra8fq10f)" height="188.8516" id="usantatecla.tictactoe.Coordinate" style="stroke: #A80036; stroke-width: 1.5;" width="319" x="405" y="965.5"/><ellipse cx="527.25" cy="981.5" fill="#ADD1B2" rx="11" ry="11" style="stroke: #A80036; stroke-width: 1.0;"/><path d="M529.5938,977.1719 C528.6563,976.7344 528.0625,976.5938 527.1875,976.5938 C524.5625,976.5938 522.5625,978.6719 522.5625,981.3906 L522.5625,982.5156 C522.5625,985.0938 524.6719,986.9844 527.5625,986.9844 C528.7813,986.9844 529.9375,986.6875 530.6875,986.1406 C531.2656,985.7344 531.5938,985.2813 531.5938,984.8906 C531.5938,984.4375 531.2031,984.0469 530.7344,984.0469 C530.5156,984.0469 530.3125,984.125 530.125,984.3125 C529.6719,984.7969 529.6719,984.7969 529.4844,984.8906 C529.0625,985.1563 528.375,985.2813 527.6094,985.2813 C525.5625,985.2813 524.2656,984.1875 524.2656,982.4844 L524.2656,981.3906 C524.2656,979.6094 525.5156,978.2969 527.25,978.2969 C527.8281,978.2969 528.4375,978.4531 528.9063,978.7031 C529.3906,978.9844 529.5625,979.2031 529.6563,979.6094 C529.7188,980.0156 529.75,980.1406 529.8906,980.2656 C530.0313,980.4063 530.2656,980.5156 530.4844,980.5156 C530.75,980.5156 531.0156,980.375 531.1875,980.1563 C531.2969,980 531.3281,979.8125 531.3281,979.3906 L531.3281,977.9688 C531.3281,977.5313 531.3125,977.4063 531.2188,977.25 C531.0625,976.9844 530.7813,976.8438 530.4844,976.8438 C530.1875,976.8438 529.9844,976.9375 529.7656,977.25 L529.5938,977.1719 Z " fill="#000000"/><text fill="#000000" font-family="sans-serif" font-size="12" lengthAdjust="spacingAndGlyphs" textLength="66" x="547.75" y="985.6543">Coordinate</text><line style="stroke: #A80036; stroke-width: 1.5;" x1="406" x2="723" y1="997.5" y2="997.5"/><polygon fill="none" points="416,1004.5,412,1010.5,420,1010.5" style="stroke: #1963A0; stroke-width: 1.0;"/><text fill="#000000" font-family="sans-serif" font-size="11" lengthAdjust="spacingAndGlyphs" text-decoration="underline" textLength="97" x="425" y="1011.7104">NULL: Coordinate</text><polygon fill="none" points="416,1017.3047,412,1023.3047,420,1023.3047" style="stroke: #1963A0; stroke-width: 1.0;"/><text fill="#000000" font-family="sans-serif" font-size="11" lengthAdjust="spacingAndGlyphs" text-decoration="underline" textLength="85" x="425" y="1024.5151">DIMENSION: int</text><polygon fill="none" points="416,1030.1094,412,1036.1094,420,1036.1094" style="stroke: #1963A0; stroke-width: 1.0;"/><text fill="#000000" font-family="sans-serif" font-size="11" lengthAdjust="spacingAndGlyphs" text-decoration="underline" textLength="125" x="425" y="1037.3198">LIMITS: ClosedInterval</text><line style="stroke: #A80036; stroke-width: 1.5;" x1="406" x2="723" y1="1043.9141" y2="1043.9141"/><polygon fill="#4177AF" points="416,1050.9141,412,1056.9141,420,1056.9141" style="stroke: #1963A0; stroke-width: 1.0;"/><text fill="#000000" font-family="sans-serif" font-size="11" lengthAdjust="spacingAndGlyphs" textLength="70" x="425" y="1058.1245">Coordinate()</text><polygon fill="#4177AF" points="416,1063.7188,412,1069.7188,420,1069.7188" style="stroke: #1963A0; stroke-width: 1.0;"/><text fill="#000000" font-family="sans-serif" font-size="11" lengthAdjust="spacingAndGlyphs" textLength="105" x="425" y="1070.9292">Coordinate(int, int)</text><ellipse cx="416" cy="1080.5234" fill="#84BE84" rx="3" ry="3" style="stroke: #038048; stroke-width: 1.0;"/><text fill="#000000" font-family="sans-serif" font-size="11" lengthAdjust="spacingAndGlyphs" textLength="91" x="425" y="1083.7339">isNull(): boolean</text><ellipse cx="416" cy="1093.3281" fill="#84BE84" rx="3" ry="3" style="stroke: #038048; stroke-width: 1.0;"/><text fill="#000000" font-family="sans-serif" font-size="11" lengthAdjust="spacingAndGlyphs" textLength="293" x="425" y="1096.5386">getDirection(usantatecla.utils.models.Coordinate): Direction</text><ellipse cx="416" cy="1106.1328" fill="#84BE84" rx="3" ry="3" style="stroke: #038048; stroke-width: 1.0;"/><text fill="#000000" font-family="sans-serif" font-size="11" lengthAdjust="spacingAndGlyphs" textLength="164" x="425" y="1109.3433">inInverseDiagonal(): boolean</text><ellipse cx="416" cy="1118.9375" fill="#84BE84" rx="3" ry="3" style="stroke: #038048; stroke-width: 1.0;"/><text fill="#000000" font-family="sans-serif" font-size="11" lengthAdjust="spacingAndGlyphs" textLength="67" x="425" y="1122.1479">read(String)</text><ellipse cx="416" cy="1131.7422" fill="#84BE84" rx="3" ry="3" style="stroke: #038048; stroke-width: 1.0;"/><text fill="#000000" font-family="sans-serif" font-size="11" lengthAdjust="spacingAndGlyphs" textLength="51" x="425" y="1134.9526">random()</text><ellipse cx="416" cy="1144.5469" fill="#84BE84" rx="3" ry="3" style="stroke: #038048; stroke-width: 1.0;"/><text fill="#000000" font-family="sans-serif" font-size="11" lengthAdjust="spacingAndGlyphs" textLength="136" x="425" y="1147.7573">equals(Object): boolean</text><!--MD5=[8beb5b62c1db6d783dc0870514f68973]
class usantatecla.tictactoe.Error--><rect codeLine="32" fill="#FEFECE" filter="url(#f18zo4ra8fq10f)" height="163.2422" id="usantatecla.tictactoe.Error" style="stroke: #A80036; stroke-width: 1.5;" width="159" x="485" y="1259"/><ellipse cx="545.25" cy="1275" fill="#EB937F" rx="11" ry="11" style="stroke: #A80036; stroke-width: 1.0;"/><path d="M544.0469,1275.875 L545.5,1275.875 L545.5,1275.9844 C545.5,1276.3906 545.5313,1276.5469 545.6094,1276.7031 C545.7656,1276.9531 546.0469,1277.1094 546.3438,1277.1094 C546.5938,1277.1094 546.8594,1276.9688 547.0156,1276.75 C547.1406,1276.5938 547.1719,1276.4375 547.1719,1275.9844 L547.1719,1274.0625 C547.1719,1273.9063 547.1719,1273.8594 547.1563,1273.7031 C547.0938,1273.2344 546.7813,1272.9219 546.3281,1272.9219 C546.0781,1272.9219 545.8125,1273.0625 545.6406,1273.2813 C545.5313,1273.4531 545.5,1273.6094 545.5,1274.0625 L545.5,1274.1875 L544.0469,1274.1875 L544.0469,1271.7813 L548.0313,1271.7813 L548.0313,1272.6406 C548.0313,1273.0469 548.0625,1273.2188 548.1406,1273.375 C548.3125,1273.625 548.5938,1273.7813 548.875,1273.7813 C549.1406,1273.7813 549.4063,1273.6406 549.5781,1273.4219 C549.6875,1273.25 549.7188,1273.1094 549.7188,1272.6406 L549.7188,1270.0938 L542.0938,1270.0938 C541.6563,1270.0938 541.5313,1270.1094 541.375,1270.2031 C541.125,1270.3594 540.9688,1270.6563 540.9688,1270.9375 C540.9688,1271.2188 541.1094,1271.4688 541.3281,1271.6406 C541.4844,1271.75 541.6719,1271.7813 542.0938,1271.7813 L542.3438,1271.7813 L542.3438,1278.2969 L542.0938,1278.2969 C541.6875,1278.2969 541.5313,1278.3125 541.375,1278.4219 C541.125,1278.5938 540.9688,1278.8594 540.9688,1279.1563 C540.9688,1279.4219 541.1094,1279.6719 541.3281,1279.8281 C541.4688,1279.9531 541.7031,1280 542.0938,1280 L550.0938,1280 L550.0938,1277.4219 C550.0938,1276.9844 550.0625,1276.8438 549.9844,1276.6875 C549.8125,1276.4375 549.5313,1276.2813 549.25,1276.2813 C548.9844,1276.2813 548.7188,1276.3906 548.5469,1276.6406 C548.4375,1276.7969 548.4063,1276.9375 548.4063,1277.4219 L548.4063,1278.2969 L544.0469,1278.2969 L544.0469,1275.875 Z " fill="#000000"/><text fill="#000000" font-family="sans-serif" font-size="12" lengthAdjust="spacingAndGlyphs" textLength="30" x="565.75" y="1279.1543">Error</text><line style="stroke: #A80036; stroke-width: 1.5;" x1="486" x2="643" y1="1291" y2="1291"/><ellipse cx="496" cy="1302" fill="none" rx="3" ry="3" style="stroke: #038048; stroke-width: 1.0;"/><text fill="#000000" font-family="sans-serif" font-size="11" lengthAdjust="spacingAndGlyphs" textLength="66" x="505" y="1305.2104">NOT_EMPTY</text><ellipse cx="496" cy="1314.8047" fill="none" rx="3" ry="3" style="stroke: #038048; stroke-width: 1.0;"/><text fill="#000000" font-family="sans-serif" font-size="11" lengthAdjust="spacingAndGlyphs" textLength="72" x="505" y="1318.0151">NOT_OWNER</text><ellipse cx="496" cy="1327.6094" fill="none" rx="3" ry="3" style="stroke: #038048; stroke-width: 1.0;"/><text fill="#000000" font-family="sans-serif" font-size="11" lengthAdjust="spacingAndGlyphs" textLength="121" x="505" y="1330.8198">SAME_COORDINATES</text><ellipse cx="496" cy="1340.4141" fill="none" rx="3" ry="3" style="stroke: #038048; stroke-width: 1.0;"/><text fill="#000000" font-family="sans-serif" font-size="11" lengthAdjust="spacingAndGlyphs" textLength="133" x="505" y="1343.6245">WRONG_COORDINATES</text><ellipse cx="496" cy="1353.2188" fill="none" rx="3" ry="3" style="stroke: #038048; stroke-width: 1.0;"/><text fill="#000000" font-family="sans-serif" font-size="11" lengthAdjust="spacingAndGlyphs" textLength="28" x="505" y="1356.4292">NULL</text><rect fill="none" height="6" style="stroke: #C82930; stroke-width: 1.0;" width="6" x="493" y="1363.0234"/><text fill="#000000" font-family="sans-serif" font-size="11" lengthAdjust="spacingAndGlyphs" textLength="93" x="505" y="1369.2339">message: String</text><line style="stroke: #A80036; stroke-width: 1.5;" x1="486" x2="643" y1="1375.8281" y2="1375.8281"/><polygon fill="#4177AF" points="496,1382.8281,492,1388.8281,500,1388.8281" style="stroke: #1963A0; stroke-width: 1.0;"/><text fill="#000000" font-family="sans-serif" font-size="11" lengthAdjust="spacingAndGlyphs" textLength="34" x="505" y="1390.0386">Error()</text><polygon fill="#4177AF" points="496,1395.6328,492,1401.6328,500,1401.6328" style="stroke: #1963A0; stroke-width: 1.0;"/><text fill="#000000" font-family="sans-serif" font-size="11" lengthAdjust="spacingAndGlyphs" textLength="67" x="505" y="1402.8433">Error(String)</text><polygon fill="#4177AF" points="496,1408.4375,492,1414.4375,500,1414.4375" style="stroke: #1963A0; stroke-width: 1.0;"/><text fill="#000000" font-family="sans-serif" font-size="11" lengthAdjust="spacingAndGlyphs" textLength="46" x="505" y="1415.6479">writeln()</text><!--MD5=[d5e6390f4df0bed23d8acd31ee6bd19d]
class usantatecla.tictactoe.MachinePlayer--><rect codeLine="45" fill="#FEFECE" filter="url(#f18zo4ra8fq10f)" height="73.6094" id="usantatecla.tictactoe.MachinePlayer" style="stroke: #A80036; stroke-width: 1.5;" width="235" x="1165" y="717"/><ellipse cx="1235.75" cy="733" fill="#ADD1B2" rx="11" ry="11" style="stroke: #A80036; stroke-width: 1.0;"/><path d="M1238.0938,728.6719 C1237.1563,728.2344 1236.5625,728.0938 1235.6875,728.0938 C1233.0625,728.0938 1231.0625,730.1719 1231.0625,732.8906 L1231.0625,734.0156 C1231.0625,736.5938 1233.1719,738.4844 1236.0625,738.4844 C1237.2813,738.4844 1238.4375,738.1875 1239.1875,737.6406 C1239.7656,737.2344 1240.0938,736.7813 1240.0938,736.3906 C1240.0938,735.9375 1239.7031,735.5469 1239.2344,735.5469 C1239.0156,735.5469 1238.8125,735.625 1238.625,735.8125 C1238.1719,736.2969 1238.1719,736.2969 1237.9844,736.3906 C1237.5625,736.6563 1236.875,736.7813 1236.1094,736.7813 C1234.0625,736.7813 1232.7656,735.6875 1232.7656,733.9844 L1232.7656,732.8906 C1232.7656,731.1094 1234.0156,729.7969 1235.75,729.7969 C1236.3281,729.7969 1236.9375,729.9531 1237.4063,730.2031 C1237.8906,730.4844 1238.0625,730.7031 1238.1563,731.1094 C1238.2188,731.5156 1238.25,731.6406 1238.3906,731.7656 C1238.5313,731.9063 1238.7656,732.0156 1238.9844,732.0156 C1239.25,732.0156 1239.5156,731.875 1239.6875,731.6563 C1239.7969,731.5 1239.8281,731.3125 1239.8281,730.8906 L1239.8281,729.4688 C1239.8281,729.0313 1239.8125,728.9063 1239.7188,728.75 C1239.5625,728.4844 1239.2813,728.3438 1238.9844,728.3438 C1238.6875,728.3438 1238.4844,728.4375 1238.2656,728.75 L1238.0938,728.6719 Z " fill="#000000"/><text fill="#000000" font-family="sans-serif" font-size="12" lengthAdjust="spacingAndGlyphs" textLength="85" x="1256.25" y="737.1543">MachinePlayer</text><line style="stroke: #A80036; stroke-width: 1.5;" x1="1166" x2="1399" y1="749" y2="749"/><line style="stroke: #A80036; stroke-width: 1.5;" x1="1166" x2="1399" y1="757" y2="757"/><polygon fill="#4177AF" points="1176,764,1172,770,1180,770" style="stroke: #1963A0; stroke-width: 1.0;"/><text fill="#000000" font-family="sans-serif" font-size="11" lengthAdjust="spacingAndGlyphs" textLength="165" x="1185" y="771.2104">MachinePlayer(Token, Board)</text><polygon fill="#FFFF44" points="1176,775.8047,1180,779.8047,1176,783.8047,1172,779.8047" style="stroke: #B38D22; stroke-width: 1.0;"/><text fill="#000000" font-family="sans-serif" font-size="11" lengthAdjust="spacingAndGlyphs" textLength="209" x="1185" y="784.0151">getCoordinate(Message): Coordinate</text><!--MD5=[ab82296a7d93ea792c7bfd4e9ca759e8]
class usantatecla.tictactoe.Message--><rect codeLine="50" fill="#FEFECE" filter="url(#f18zo4ra8fq10f)" height="278.4844" id="usantatecla.tictactoe.Message" style="stroke: #A80036; stroke-width: 1.5;" width="218" x="759.5" y="921"/><ellipse cx="836.75" cy="937" fill="#EB937F" rx="11" ry="11" style="stroke: #A80036; stroke-width: 1.0;"/><path d="M835.5469,937.875 L837,937.875 L837,937.9844 C837,938.3906 837.0313,938.5469 837.1094,938.7031 C837.2656,938.9531 837.5469,939.1094 837.8438,939.1094 C838.0938,939.1094 838.3594,938.9688 838.5156,938.75 C838.6406,938.5938 838.6719,938.4375 838.6719,937.9844 L838.6719,936.0625 C838.6719,935.9063 838.6719,935.8594 838.6563,935.7031 C838.5938,935.2344 838.2813,934.9219 837.8281,934.9219 C837.5781,934.9219 837.3125,935.0625 837.1406,935.2813 C837.0313,935.4531 837,935.6094 837,936.0625 L837,936.1875 L835.5469,936.1875 L835.5469,933.7813 L839.5313,933.7813 L839.5313,934.6406 C839.5313,935.0469 839.5625,935.2188 839.6406,935.375 C839.8125,935.625 840.0938,935.7813 840.375,935.7813 C840.6406,935.7813 840.9063,935.6406 841.0781,935.4219 C841.1875,935.25 841.2188,935.1094 841.2188,934.6406 L841.2188,932.0938 L833.5938,932.0938 C833.1563,932.0938 833.0313,932.1094 832.875,932.2031 C832.625,932.3594 832.4688,932.6563 832.4688,932.9375 C832.4688,933.2188 832.6094,933.4688 832.8281,933.6406 C832.9844,933.75 833.1719,933.7813 833.5938,933.7813 L833.8438,933.7813 L833.8438,940.2969 L833.5938,940.2969 C833.1875,940.2969 833.0313,940.3125 832.875,940.4219 C832.625,940.5938 832.4688,940.8594 832.4688,941.1563 C832.4688,941.4219 832.6094,941.6719 832.8281,941.8281 C832.9688,941.9531 833.2031,942 833.5938,942 L841.5938,942 L841.5938,939.4219 C841.5938,938.9844 841.5625,938.8438 841.4844,938.6875 C841.3125,938.4375 841.0313,938.2813 840.75,938.2813 C840.4844,938.2813 840.2188,938.3906 840.0469,938.6406 C839.9375,938.7969 839.9063,938.9375 839.9063,939.4219 L839.9063,940.2969 L835.5469,940.2969 L835.5469,937.875 Z " fill="#000000"/><text fill="#000000" font-family="sans-serif" font-size="12" lengthAdjust="spacingAndGlyphs" textLength="55" x="857.25" y="941.1543">Message</text><line style="stroke: #A80036; stroke-width: 1.5;" x1="760.5" x2="976.5" y1="953" y2="953"/><ellipse cx="770.5" cy="964" fill="none" rx="3" ry="3" style="stroke: #038048; stroke-width: 1.0;"/><text fill="#000000" font-family="sans-serif" font-size="11" lengthAdjust="spacingAndGlyphs" textLength="37" x="779.5" y="967.2104">TITTLE</text><ellipse cx="770.5" cy="976.8047" fill="none" rx="3" ry="3" style="stroke: #038048; stroke-width: 1.0;"/><text fill="#000000" font-family="sans-serif" font-size="11" lengthAdjust="spacingAndGlyphs" textLength="102" x="779.5" y="980.0151">NUMBER_PLAYERS</text><ellipse cx="770.5" cy="989.6094" fill="none" rx="3" ry="3" style="stroke: #038048; stroke-width: 1.0;"/><text fill="#000000" font-family="sans-serif" font-size="11" lengthAdjust="spacingAndGlyphs" textLength="67" x="779.5" y="992.8198">SEPARATOR</text><ellipse cx="770.5" cy="1002.4141" fill="none" rx="3" ry="3" style="stroke: #038048; stroke-width: 1.0;"/><text fill="#000000" font-family="sans-serif" font-size="11" lengthAdjust="spacingAndGlyphs" textLength="116" x="779.5" y="1005.6245">VERTICAL_LINE_LEFT</text><ellipse cx="770.5" cy="1015.2188" fill="none" rx="3" ry="3" style="stroke: #038048; stroke-width: 1.0;"/><text fill="#000000" font-family="sans-serif" font-size="11" lengthAdjust="spacingAndGlyphs" textLength="150" x="779.5" y="1018.4292">VERTICAL_LINE_CENTERED</text><ellipse cx="770.5" cy="1028.0234" fill="none" rx="3" ry="3" style="stroke: #038048; stroke-width: 1.0;"/><text fill="#000000" font-family="sans-serif" font-size="11" lengthAdjust="spacingAndGlyphs" textLength="124" x="779.5" y="1031.2339">VERTICAL_LINE_RIGHT</text><ellipse cx="770.5" cy="1040.8281" fill="none" rx="3" ry="3" style="stroke: #038048; stroke-width: 1.0;"/><text fill="#000000" font-family="sans-serif" font-size="11" lengthAdjust="spacingAndGlyphs" textLength="166" x="779.5" y="1044.0386">ENTER_COORDINATE_TO_PUT</text><ellipse cx="770.5" cy="1053.6328" fill="none" rx="3" ry="3" style="stroke: #038048; stroke-width: 1.0;"/><text fill="#000000" font-family="sans-serif" font-size="11" lengthAdjust="spacingAndGlyphs" textLength="192" x="779.5" y="1056.8433">ENTER_COORDINATE_TO_REMOVE</text><ellipse cx="770.5" cy="1066.4375" fill="none" rx="3" ry="3" style="stroke: #038048; stroke-width: 1.0;"/><text fill="#000000" font-family="sans-serif" font-size="11" lengthAdjust="spacingAndGlyphs" textLength="124" x="779.5" y="1069.6479">COORDINATE_TO_PUT</text><ellipse cx="770.5" cy="1079.2422" fill="none" rx="3" ry="3" style="stroke: #038048; stroke-width: 1.0;"/><text fill="#000000" font-family="sans-serif" font-size="11" lengthAdjust="spacingAndGlyphs" textLength="150" x="779.5" y="1082.4526">COORDINATE_TO_REMOVE</text><ellipse cx="770.5" cy="1092.0469" fill="none" rx="3" ry="3" style="stroke: #038048; stroke-width: 1.0;"/><text fill="#000000" font-family="sans-serif" font-size="11" lengthAdjust="spacingAndGlyphs" textLength="136" x="779.5" y="1095.2573">COORDINATE_TO_MOVE</text><ellipse cx="770.5" cy="1104.8516" fill="none" rx="3" ry="3" style="stroke: #038048; stroke-width: 1.0;"/><text fill="#000000" font-family="sans-serif" font-size="11" lengthAdjust="spacingAndGlyphs" textLength="69" x="779.5" y="1108.062">PLAYER_WIN</text><ellipse cx="770.5" cy="1117.6563" fill="none" rx="3" ry="3" style="stroke: #038048; stroke-width: 1.0;"/><text fill="#000000" font-family="sans-serif" font-size="11" lengthAdjust="spacingAndGlyphs" textLength="46" x="779.5" y="1120.8667">RESUME</text><rect fill="none" height="6" style="stroke: #C82930; stroke-width: 1.0;" width="6" x="767.5" y="1127.4609"/><text fill="#000000" font-family="sans-serif" font-size="11" lengthAdjust="spacingAndGlyphs" textLength="93" x="779.5" y="1133.6714">message: String</text><line style="stroke: #A80036; stroke-width: 1.5;" x1="760.5" x2="976.5" y1="1140.2656" y2="1140.2656"/><rect fill="#F24D5C" height="6" style="stroke: #C82930; stroke-width: 1.0;" width="6" x="767.5" y="1148.2656"/><text fill="#000000" font-family="sans-serif" font-size="11" lengthAdjust="spacingAndGlyphs" textLength="92" x="779.5" y="1154.4761">Message(String)</text><polygon fill="#4177AF" points="770.5,1160.0703,766.5,1166.0703,774.5,1166.0703" style="stroke: #1963A0; stroke-width: 1.0;"/><text fill="#000000" font-family="sans-serif" font-size="11" lengthAdjust="spacingAndGlyphs" textLength="36" x="779.5" y="1167.2808">write()</text><polygon fill="#4177AF" points="770.5,1172.875,766.5,1178.875,774.5,1178.875" style="stroke: #1963A0; stroke-width: 1.0;"/><text fill="#000000" font-family="sans-serif" font-size="11" lengthAdjust="spacingAndGlyphs" textLength="46" x="779.5" y="1180.0854">writeln()</text><ellipse cx="770.5" cy="1189.6797" fill="#84BE84" rx="3" ry="3" style="stroke: #038048; stroke-width: 1.0;"/><text fill="#000000" font-family="sans-serif" font-size="11" lengthAdjust="spacingAndGlyphs" textLength="92" x="779.5" y="1192.8901">toString(): String</text><!--MD5=[b455952d252d0eefae6035326d3db921]
class usantatecla.tictactoe.Player--><rect codeLine="72" fill="#FEFECE" filter="url(#f18zo4ra8fq10f)" height="176.0469" id="usantatecla.tictactoe.Player" style="stroke: #A80036; stroke-width: 1.5;" width="387" x="615" y="411"/><ellipse cx="786.25" cy="427" fill="#A9DCDF" rx="11" ry="11" style="stroke: #A80036; stroke-width: 1.0;"/><path d="M788.3281,428.8125 L788.7188,429.7969 L788.3281,429.7969 C787.875,429.7969 787.7656,429.8125 787.6094,429.9219 C787.3594,430.0781 787.2031,430.3594 787.2031,430.6563 C787.2031,430.9219 787.3438,431.1719 787.5625,431.3281 C787.7031,431.4531 787.9063,431.5 788.3281,431.5 L790.6875,431.5 C791.0469,431.5 791.2656,431.4688 791.4063,431.375 C791.6563,431.2344 791.8125,430.9375 791.8125,430.6563 C791.8125,430.375 791.6719,430.125 791.4531,429.9688 C791.2813,429.8281 791.125,429.7969 790.6563,429.7969 L787.2656,421.5938 L783.5938,421.5938 C783.1406,421.5938 783.0156,421.6094 782.8594,421.7031 C782.6094,421.875 782.4531,422.1563 782.4531,422.4375 C782.4531,422.7188 782.5938,422.9688 782.8125,423.1406 C782.9844,423.25 783.1563,423.2813 783.5938,423.2813 L784.6719,423.2813 L782.0313,429.7969 C781.6094,429.7969 781.4531,429.8125 781.2969,429.9219 C781.0469,430.0781 780.8906,430.3594 780.8906,430.6563 C780.8906,431.2188 781.2656,431.5 782.0156,431.5 L784.2813,431.5 C784.6406,431.5 784.8594,431.4688 784.9844,431.375 C785.25,431.2344 785.3906,430.9375 785.3906,430.6563 C785.3906,430.375 785.2656,430.125 785.0469,429.9531 C784.875,429.8281 784.7344,429.7969 784.2813,429.7969 L783.8906,429.7969 L784.2813,428.8125 L788.3281,428.8125 Z M787.625,427.1094 L784.9531,427.1094 L786.2969,423.8438 L787.625,427.1094 Z " fill="#000000"/><text fill="#000000" font-family="sans-serif" font-size="12" font-style="italic" lengthAdjust="spacingAndGlyphs" textLength="36" x="806.75" y="431.1543">Player</text><line style="stroke: #A80036; stroke-width: 1.5;" x1="616" x2="1001" y1="443" y2="443"/><line style="stroke: #A80036; stroke-width: 1.5;" x1="616" x2="1001" y1="451" y2="451"/><polygon fill="#4177AF" points="626,458,622,464,630,464" style="stroke: #1963A0; stroke-width: 1.0;"/><text fill="#000000" font-family="sans-serif" font-size="11" lengthAdjust="spacingAndGlyphs" textLength="118" x="635" y="465.2104">Player(Token, Board)</text><polygon fill="#4177AF" points="626,470.8047,622,476.8047,630,476.8047" style="stroke: #1963A0; stroke-width: 1.0;"/><text fill="#000000" font-family="sans-serif" font-size="11" lengthAdjust="spacingAndGlyphs" textLength="32" x="635" y="478.0151">play()</text><rect fill="#F24D5C" height="6" style="stroke: #C82930; stroke-width: 1.0;" width="6" x="623" y="484.6094"/><text fill="#000000" font-family="sans-serif" font-size="11" lengthAdjust="spacingAndGlyphs" textLength="26" x="635" y="490.8198">put()</text><polygon fill="#FFFF44" points="626,495.4141,630,499.4141,626,503.4141,622,499.4141" style="stroke: #B38D22; stroke-width: 1.0;"/><text fill="#000000" font-family="sans-serif" font-size="11" font-style="italic" lengthAdjust="spacingAndGlyphs" textLength="207" x="635" y="503.6245">getCoordinate(Message): Coordinate</text><polygon fill="#4177AF" points="626,509.2188,622,515.2188,630,515.2188" style="stroke: #1963A0; stroke-width: 1.0;"/><text fill="#000000" font-family="sans-serif" font-size="11" lengthAdjust="spacingAndGlyphs" textLength="241" x="635" y="516.4292">checkPutCoordinateError(Coordinate): Error</text><rect fill="#F24D5C" height="6" style="stroke: #C82930; stroke-width: 1.0;" width="6" x="623" y="523.0234"/><text fill="#000000" font-family="sans-serif" font-size="11" lengthAdjust="spacingAndGlyphs" textLength="41" x="635" y="529.2339">move()</text><polygon fill="#FFFF44" points="626,533.8281,630,537.8281,626,541.8281,622,537.8281" style="stroke: #B38D22; stroke-width: 1.0;"/><text fill="#000000" font-family="sans-serif" font-size="11" lengthAdjust="spacingAndGlyphs" textLength="288" x="635" y="542.0386">checkMoveOriginCoordinateError(Coordinate): Error</text><polygon fill="#FFFF44" points="626,546.6328,630,550.6328,626,554.6328,622,550.6328" style="stroke: #B38D22; stroke-width: 1.0;"/><text fill="#000000" font-family="sans-serif" font-size="11" lengthAdjust="spacingAndGlyphs" textLength="361" x="635" y="554.8433">checkMoveTargetCoordinateError(Coordinate, Coordinate): Error</text><polygon fill="#4177AF" points="626,560.4375,622,566.4375,630,566.4375" style="stroke: #1963A0; stroke-width: 1.0;"/><text fill="#000000" font-family="sans-serif" font-size="11" lengthAdjust="spacingAndGlyphs" textLength="76" x="635" y="567.6479">writeWinner()</text><polygon fill="#4177AF" points="626,573.2422,622,579.2422,630,579.2422" style="stroke: #1963A0; stroke-width: 1.0;"/><text fill="#000000" font-family="sans-serif" font-size="11" lengthAdjust="spacingAndGlyphs" textLength="104" x="635" y="580.4526">getToken(): Token</text><!--MD5=[4b5d579ecc4748d1b21f2fd6d497d353]
class usantatecla.tictactoe.TicTacToe--><rect codeLine="85" fill="#FEFECE" filter="url(#f18zo4ra8fq10f)" height="112.0234" id="usantatecla.tictactoe.TicTacToe" style="stroke: #A80036; stroke-width: 1.5;" width="185" x="452" y="41"/><ellipse cx="509.75" cy="57" fill="#ADD1B2" rx="11" ry="11" style="stroke: #A80036; stroke-width: 1.0;"/><path d="M512.0938,52.6719 C511.1563,52.2344 510.5625,52.0938 509.6875,52.0938 C507.0625,52.0938 505.0625,54.1719 505.0625,56.8906 L505.0625,58.0156 C505.0625,60.5938 507.1719,62.4844 510.0625,62.4844 C511.2813,62.4844 512.4375,62.1875 513.1875,61.6406 C513.7656,61.2344 514.0938,60.7813 514.0938,60.3906 C514.0938,59.9375 513.7031,59.5469 513.2344,59.5469 C513.0156,59.5469 512.8125,59.625 512.625,59.8125 C512.1719,60.2969 512.1719,60.2969 511.9844,60.3906 C511.5625,60.6563 510.875,60.7813 510.1094,60.7813 C508.0625,60.7813 506.7656,59.6875 506.7656,57.9844 L506.7656,56.8906 C506.7656,55.1094 508.0156,53.7969 509.75,53.7969 C510.3281,53.7969 510.9375,53.9531 511.4063,54.2031 C511.8906,54.4844 512.0625,54.7031 512.1563,55.1094 C512.2188,55.5156 512.25,55.6406 512.3906,55.7656 C512.5313,55.9063 512.7656,56.0156 512.9844,56.0156 C513.25,56.0156 513.5156,55.875 513.6875,55.6563 C513.7969,55.5 513.8281,55.3125 513.8281,54.8906 L513.8281,53.4688 C513.8281,53.0313 513.8125,52.9063 513.7188,52.75 C513.5625,52.4844 513.2813,52.3438 512.9844,52.3438 C512.6875,52.3438 512.4844,52.4375 512.2656,52.75 L512.0938,52.6719 Z " fill="#000000"/><text fill="#000000" font-family="sans-serif" font-size="12" lengthAdjust="spacingAndGlyphs" textLength="61" x="530.25" y="61.1543">TicTacToe</text><line style="stroke: #A80036; stroke-width: 1.5;" x1="453" x2="636" y1="73" y2="73"/><line style="stroke: #A80036; stroke-width: 1.5;" x1="453" x2="636" y1="81" y2="81"/><polygon fill="#4177AF" points="463,88,459,94,467,94" style="stroke: #1963A0; stroke-width: 1.0;"/><text fill="#000000" font-family="sans-serif" font-size="11" lengthAdjust="spacingAndGlyphs" textLength="66" x="472" y="95.2104">TicTacToe()</text><rect fill="#F24D5C" height="6" style="stroke: #C82930; stroke-width: 1.0;" width="6" x="460" y="101.8047"/><text fill="#000000" font-family="sans-serif" font-size="11" lengthAdjust="spacingAndGlyphs" textLength="32" x="472" y="108.0151">play()</text><rect fill="#F24D5C" height="6" style="stroke: #C82930; stroke-width: 1.0;" width="6" x="460" y="114.6094"/><text fill="#000000" font-family="sans-serif" font-size="11" lengthAdjust="spacingAndGlyphs" textLength="67" x="472" y="120.8198">playGame()</text><rect fill="#F24D5C" height="6" style="stroke: #C82930; stroke-width: 1.0;" width="6" x="460" y="127.4141"/><text fill="#000000" font-family="sans-serif" font-size="11" lengthAdjust="spacingAndGlyphs" textLength="159" x="472" y="133.6245">isResumedGame(): boolean</text><ellipse cx="463" cy="143.2188" fill="#84BE84" rx="3" ry="3" style="stroke: #038048; stroke-width: 1.0;"/><text fill="#000000" font-family="sans-serif" font-size="11" lengthAdjust="spacingAndGlyphs" text-decoration="underline" textLength="77" x="472" y="146.4292">main(String[])</text><!--MD5=[70d70054f98ac0881f23804484f4abda]
class usantatecla.tictactoe.Token--><rect codeLine="93" fill="#FEFECE" filter="url(#f18zo4ra8fq10f)" height="124.8281" id="usantatecla.tictactoe.Token" style="stroke: #A80036; stroke-width: 1.5;" width="117" x="1320" y="997.5"/><ellipse cx="1356.6" cy="1013.5" fill="#EB937F" rx="11" ry="11" style="stroke: #A80036; stroke-width: 1.0;"/><path d="M1355.3969,1014.375 L1356.85,1014.375 L1356.85,1014.4844 C1356.85,1014.8906 1356.8813,1015.0469 1356.9594,1015.2031 C1357.1156,1015.4531 1357.3969,1015.6094 1357.6938,1015.6094 C1357.9438,1015.6094 1358.2094,1015.4688 1358.3656,1015.25 C1358.4906,1015.0938 1358.5219,1014.9375 1358.5219,1014.4844 L1358.5219,1012.5625 C1358.5219,1012.4063 1358.5219,1012.3594 1358.5063,1012.2031 C1358.4438,1011.7344 1358.1313,1011.4219 1357.6781,1011.4219 C1357.4281,1011.4219 1357.1625,1011.5625 1356.9906,1011.7813 C1356.8813,1011.9531 1356.85,1012.1094 1356.85,1012.5625 L1356.85,1012.6875 L1355.3969,1012.6875 L1355.3969,1010.2813 L1359.3813,1010.2813 L1359.3813,1011.1406 C1359.3813,1011.5469 1359.4125,1011.7188 1359.4906,1011.875 C1359.6625,1012.125 1359.9438,1012.2813 1360.225,1012.2813 C1360.4906,1012.2813 1360.7563,1012.1406 1360.9281,1011.9219 C1361.0375,1011.75 1361.0688,1011.6094 1361.0688,1011.1406 L1361.0688,1008.5938 L1353.4438,1008.5938 C1353.0063,1008.5938 1352.8813,1008.6094 1352.725,1008.7031 C1352.475,1008.8594 1352.3188,1009.1563 1352.3188,1009.4375 C1352.3188,1009.7188 1352.4594,1009.9688 1352.6781,1010.1406 C1352.8344,1010.25 1353.0219,1010.2813 1353.4438,1010.2813 L1353.6938,1010.2813 L1353.6938,1016.7969 L1353.4438,1016.7969 C1353.0375,1016.7969 1352.8813,1016.8125 1352.725,1016.9219 C1352.475,1017.0938 1352.3188,1017.3594 1352.3188,1017.6563 C1352.3188,1017.9219 1352.4594,1018.1719 1352.6781,1018.3281 C1352.8188,1018.4531 1353.0531,1018.5 1353.4438,1018.5 L1361.4438,1018.5 L1361.4438,1015.9219 C1361.4438,1015.4844 1361.4125,1015.3438 1361.3344,1015.1875 C1361.1625,1014.9375 1360.8813,1014.7813 1360.6,1014.7813 C1360.3344,1014.7813 1360.0688,1014.8906 1359.8969,1015.1406 C1359.7875,1015.2969 1359.7563,1015.4375 1359.7563,1015.9219 L1359.7563,1016.7969 L1355.3969,1016.7969 L1355.3969,1014.375 Z " fill="#000000"/><text fill="#000000" font-family="sans-serif" font-size="12" lengthAdjust="spacingAndGlyphs" textLength="37" x="1375.4" y="1017.6543">Token</text><line style="stroke: #A80036; stroke-width: 1.5;" x1="1321" x2="1436" y1="1029.5" y2="1029.5"/><ellipse cx="1331" cy="1040.5" fill="none" rx="3" ry="3" style="stroke: #038048; stroke-width: 1.0;"/><text fill="#000000" font-family="sans-serif" font-size="11" lengthAdjust="spacingAndGlyphs" textLength="52" x="1340" y="1043.7104">X_TOKEN</text><ellipse cx="1331" cy="1053.3047" fill="none" rx="3" ry="3" style="stroke: #038048; stroke-width: 1.0;"/><text fill="#000000" font-family="sans-serif" font-size="11" lengthAdjust="spacingAndGlyphs" textLength="51" x="1340" y="1056.5151">Y_TOKEN</text><ellipse cx="1331" cy="1066.1094" fill="none" rx="3" ry="3" style="stroke: #038048; stroke-width: 1.0;"/><text fill="#000000" font-family="sans-serif" font-size="11" lengthAdjust="spacingAndGlyphs" textLength="28" x="1340" y="1069.3198">NULL</text><line style="stroke: #A80036; stroke-width: 1.5;" x1="1321" x2="1436" y1="1075.9141" y2="1075.9141"/><ellipse cx="1331" cy="1086.9141" fill="#84BE84" rx="3" ry="3" style="stroke: #038048; stroke-width: 1.0;"/><text fill="#000000" font-family="sans-serif" font-size="11" lengthAdjust="spacingAndGlyphs" textLength="91" x="1340" y="1090.1245">isNull(): boolean</text><polygon fill="#4177AF" points="1331,1095.7188,1327,1101.7188,1335,1101.7188" style="stroke: #1963A0; stroke-width: 1.0;"/><text fill="#000000" font-family="sans-serif" font-size="11" lengthAdjust="spacingAndGlyphs" textLength="36" x="1340" y="1102.9292">write()</text><polygon fill="#4177AF" points="1331,1108.5234,1327,1114.5234,1335,1114.5234" style="stroke: #1963A0; stroke-width: 1.0;"/><text fill="#000000" font-family="sans-serif" font-size="11" lengthAdjust="spacingAndGlyphs" text-decoration="underline" textLength="83" x="1340" y="1115.7339">get(int): Token</text><!--MD5=[89d1a2b514c7103883fb14486df62cac]
class usantatecla.tictactoe.Turn--><rect codeLine="102" fill="#FEFECE" filter="url(#f18zo4ra8fq10f)" height="137.6328" id="usantatecla.tictactoe.Turn" style="stroke: #A80036; stroke-width: 1.5;" width="149" x="734" y="213"/><ellipse cx="791.25" cy="229" fill="#ADD1B2" rx="11" ry="11" style="stroke: #A80036; stroke-width: 1.0;"/><path d="M793.5938,224.6719 C792.6563,224.2344 792.0625,224.0938 791.1875,224.0938 C788.5625,224.0938 786.5625,226.1719 786.5625,228.8906 L786.5625,230.0156 C786.5625,232.5938 788.6719,234.4844 791.5625,234.4844 C792.7813,234.4844 793.9375,234.1875 794.6875,233.6406 C795.2656,233.2344 795.5938,232.7813 795.5938,232.3906 C795.5938,231.9375 795.2031,231.5469 794.7344,231.5469 C794.5156,231.5469 794.3125,231.625 794.125,231.8125 C793.6719,232.2969 793.6719,232.2969 793.4844,232.3906 C793.0625,232.6563 792.375,232.7813 791.6094,232.7813 C789.5625,232.7813 788.2656,231.6875 788.2656,229.9844 L788.2656,228.8906 C788.2656,227.1094 789.5156,225.7969 791.25,225.7969 C791.8281,225.7969 792.4375,225.9531 792.9063,226.2031 C793.3906,226.4844 793.5625,226.7031 793.6563,227.1094 C793.7188,227.5156 793.75,227.6406 793.8906,227.7656 C794.0313,227.9063 794.2656,228.0156 794.4844,228.0156 C794.75,228.0156 795.0156,227.875 795.1875,227.6563 C795.2969,227.5 795.3281,227.3125 795.3281,226.8906 L795.3281,225.4688 C795.3281,225.0313 795.3125,224.9063 795.2188,224.75 C795.0625,224.4844 794.7813,224.3438 794.4844,224.3438 C794.1875,224.3438 793.9844,224.4375 793.7656,224.75 L793.5938,224.6719 Z " fill="#000000"/><text fill="#000000" font-family="sans-serif" font-size="12" lengthAdjust="spacingAndGlyphs" textLength="26" x="811.75" y="233.1543">Turn</text><line style="stroke: #A80036; stroke-width: 1.5;" x1="735" x2="882" y1="245" y2="245"/><polygon fill="none" points="745,252,741,258,749,258" style="stroke: #1963A0; stroke-width: 1.0;"/><text fill="#000000" font-family="sans-serif" font-size="11" lengthAdjust="spacingAndGlyphs" text-decoration="underline" textLength="123" x="754" y="259.2104">NUMBER_PLAYERS: int</text><rect fill="none" height="6" style="stroke: #C82930; stroke-width: 1.0;" width="6" x="742" y="265.8047"/><text fill="#000000" font-family="sans-serif" font-size="11" lengthAdjust="spacingAndGlyphs" textLength="56" x="754" y="272.0151">active: int</text><line style="stroke: #A80036; stroke-width: 1.5;" x1="735" x2="882" y1="278.6094" y2="278.6094"/><polygon fill="#4177AF" points="745,285.6094,741,291.6094,749,291.6094" style="stroke: #1963A0; stroke-width: 1.0;"/><text fill="#000000" font-family="sans-serif" font-size="11" lengthAdjust="spacingAndGlyphs" textLength="66" x="754" y="292.8198">Turn(Board)</text><polygon fill="#4177AF" points="745,298.4141,741,304.4141,749,304.4141" style="stroke: #1963A0; stroke-width: 1.0;"/><text fill="#000000" font-family="sans-serif" font-size="11" lengthAdjust="spacingAndGlyphs" textLength="32" x="754" y="305.6245">play()</text><rect fill="#F24D5C" height="6" style="stroke: #C82930; stroke-width: 1.0;" width="6" x="742" y="312.2188"/><text fill="#000000" font-family="sans-serif" font-size="11" lengthAdjust="spacingAndGlyphs" textLength="104" x="754" y="318.4292">getPlayer(): Player</text><polygon fill="#4177AF" points="745,324.0234,741,330.0234,749,330.0234" style="stroke: #1963A0; stroke-width: 1.0;"/><text fill="#000000" font-family="sans-serif" font-size="11" lengthAdjust="spacingAndGlyphs" textLength="76" x="754" y="331.2339">writeWinner()</text><polygon fill="#4177AF" points="745,336.8281,741,342.8281,749,342.8281" style="stroke: #1963A0; stroke-width: 1.0;"/><text fill="#000000" font-family="sans-serif" font-size="11" lengthAdjust="spacingAndGlyphs" textLength="104" x="754" y="344.0386">getToken(): Token</text><!--MD5=[d6372c72e2ccc5ff253d254b6fe719ff]
class usantatecla.tictactoe.UserPlayer--><rect codeLine="112" fill="#FEFECE" filter="url(#f18zo4ra8fq10f)" height="112.0234" id="usantatecla.tictactoe.UserPlayer" style="stroke: #A80036; stroke-width: 1.5;" width="354" x="738.5" y="698"/><ellipse cx="878.75" cy="714" fill="#ADD1B2" rx="11" ry="11" style="stroke: #A80036; stroke-width: 1.0;"/><path d="M881.0938,709.6719 C880.1563,709.2344 879.5625,709.0938 878.6875,709.0938 C876.0625,709.0938 874.0625,711.1719 874.0625,713.8906 L874.0625,715.0156 C874.0625,717.5938 876.1719,719.4844 879.0625,719.4844 C880.2813,719.4844 881.4375,719.1875 882.1875,718.6406 C882.7656,718.2344 883.0938,717.7813 883.0938,717.3906 C883.0938,716.9375 882.7031,716.5469 882.2344,716.5469 C882.0156,716.5469 881.8125,716.625 881.625,716.8125 C881.1719,717.2969 881.1719,717.2969 880.9844,717.3906 C880.5625,717.6563 879.875,717.7813 879.1094,717.7813 C877.0625,717.7813 875.7656,716.6875 875.7656,714.9844 L875.7656,713.8906 C875.7656,712.1094 877.0156,710.7969 878.75,710.7969 C879.3281,710.7969 879.9375,710.9531 880.4063,711.2031 C880.8906,711.4844 881.0625,711.7031 881.1563,712.1094 C881.2188,712.5156 881.25,712.6406 881.3906,712.7656 C881.5313,712.9063 881.7656,713.0156 881.9844,713.0156 C882.25,713.0156 882.5156,712.875 882.6875,712.6563 C882.7969,712.5 882.8281,712.3125 882.8281,711.8906 L882.8281,710.4688 C882.8281,710.0313 882.8125,709.9063 882.7188,709.75 C882.5625,709.4844 882.2813,709.3438 881.9844,709.3438 C881.6875,709.3438 881.4844,709.4375 881.2656,709.75 L881.0938,709.6719 Z " fill="#000000"/><text fill="#000000" font-family="sans-serif" font-size="12" lengthAdjust="spacingAndGlyphs" textLength="65" x="899.25" y="718.1543">UserPlayer</text><line style="stroke: #A80036; stroke-width: 1.5;" x1="739.5" x2="1091.5" y1="730" y2="730"/><line style="stroke: #A80036; stroke-width: 1.5;" x1="739.5" x2="1091.5" y1="738" y2="738"/><polygon fill="#4177AF" points="749.5,745,745.5,751,753.5,751" style="stroke: #1963A0; stroke-width: 1.0;"/><text fill="#000000" font-family="sans-serif" font-size="11" lengthAdjust="spacingAndGlyphs" textLength="144" x="758.5" y="752.2104">UserPlayer(Token, Board)</text><polygon fill="#FFFF44" points="749.5,756.8047,753.5,760.8047,749.5,764.8047,745.5,760.8047" style="stroke: #B38D22; stroke-width: 1.0;"/><text fill="#000000" font-family="sans-serif" font-size="11" lengthAdjust="spacingAndGlyphs" textLength="197" x="758.5" y="765.0151">getCoordinate(Message message)</text><polygon fill="#FFFF44" points="749.5,769.6094,753.5,773.6094,749.5,777.6094,745.5,773.6094" style="stroke: #B38D22; stroke-width: 1.0;"/><text fill="#000000" font-family="sans-serif" font-size="11" lengthAdjust="spacingAndGlyphs" textLength="208" x="758.5" y="777.8198">checkPutCoordinateError(Coordinate)</text><polygon fill="#FFFF44" points="749.5,782.4141,753.5,786.4141,749.5,790.4141,745.5,786.4141" style="stroke: #B38D22; stroke-width: 1.0;"/><text fill="#000000" font-family="sans-serif" font-size="11" lengthAdjust="spacingAndGlyphs" textLength="255" x="758.5" y="790.6245">checkMoveOriginCoordinateError(Coordinate)</text><polygon fill="#FFFF44" points="749.5,795.2188,753.5,799.2188,749.5,803.2188,745.5,799.2188" style="stroke: #B38D22; stroke-width: 1.0;"/><text fill="#000000" font-family="sans-serif" font-size="11" lengthAdjust="spacingAndGlyphs" textLength="328" x="758.5" y="803.4292">checkMoveTargetCoordinateError(Coordinate, Coordinate)</text><!--MD5=[4ac948797cb0d646e058fac8f0726737]
class ConcreteCoordinate--><rect codeLine="139" fill="#FEFECE" filter="url(#f18zo4ra8fq10f)" height="48" id="ConcreteCoordinate" style="stroke: #A80036; stroke-width: 1.5;" width="251" x="7" y="730"/><ellipse cx="22" cy="746" fill="#ADD1B2" rx="11" ry="11" style="stroke: #A80036; stroke-width: 1.0;"/><path d="M24.3438,741.6719 C23.4063,741.2344 22.8125,741.0938 21.9375,741.0938 C19.3125,741.0938 17.3125,743.1719 17.3125,745.8906 L17.3125,747.0156 C17.3125,749.5938 19.4219,751.4844 22.3125,751.4844 C23.5313,751.4844 24.6875,751.1875 25.4375,750.6406 C26.0156,750.2344 26.3438,749.7813 26.3438,749.3906 C26.3438,748.9375 25.9531,748.5469 25.4844,748.5469 C25.2656,748.5469 25.0625,748.625 24.875,748.8125 C24.4219,749.2969 24.4219,749.2969 24.2344,749.3906 C23.8125,749.6563 23.125,749.7813 22.3594,749.7813 C20.3125,749.7813 19.0156,748.6875 19.0156,746.9844 L19.0156,745.8906 C19.0156,744.1094 20.2656,742.7969 22,742.7969 C22.5781,742.7969 23.1875,742.9531 23.6563,743.2031 C24.1406,743.4844 24.3125,743.7031 24.4063,744.1094 C24.4688,744.5156 24.5,744.6406 24.6406,744.7656 C24.7813,744.9063 25.0156,745.0156 25.2344,745.0156 C25.5,745.0156 25.7656,744.875 25.9375,744.6563 C26.0469,744.5 26.0781,744.3125 26.0781,743.8906 L26.0781,742.4688 C26.0781,742.0313 26.0625,741.9063 25.9688,741.75 C25.8125,741.4844 25.5313,741.3438 25.2344,741.3438 C24.9375,741.3438 24.7344,741.4375 24.5156,741.75 L24.3438,741.6719 Z " fill="#000000"/><text fill="#000000" font-family="sans-serif" font-size="12" lengthAdjust="spacingAndGlyphs" textLength="219" x="36" y="750.1543">usantatecla.utils.models.ConcreteCoordinate</text><line style="stroke: #A80036; stroke-width: 1.5;" x1="8" x2="257" y1="762" y2="762"/><line style="stroke: #A80036; stroke-width: 1.5;" x1="8" x2="257" y1="770" y2="770"/><!--MD5=[f0e50675208408ddbf1ed7a91f4eb071]
class ClosedInterval--><rect codeLine="143" fill="#FEFECE" filter="url(#f18zo4ra8fq10f)" height="48" id="ClosedInterval" style="stroke: #A80036; stroke-width: 1.5;" width="216" x="1469.5" y="1316.5"/><ellipse cx="1484.5" cy="1332.5" fill="#ADD1B2" rx="11" ry="11" style="stroke: #A80036; stroke-width: 1.0;"/><path d="M1486.8438,1328.1719 C1485.9063,1327.7344 1485.3125,1327.5938 1484.4375,1327.5938 C1481.8125,1327.5938 1479.8125,1329.6719 1479.8125,1332.3906 L1479.8125,1333.5156 C1479.8125,1336.0938 1481.9219,1337.9844 1484.8125,1337.9844 C1486.0313,1337.9844 1487.1875,1337.6875 1487.9375,1337.1406 C1488.5156,1336.7344 1488.8438,1336.2813 1488.8438,1335.8906 C1488.8438,1335.4375 1488.4531,1335.0469 1487.9844,1335.0469 C1487.7656,1335.0469 1487.5625,1335.125 1487.375,1335.3125 C1486.9219,1335.7969 1486.9219,1335.7969 1486.7344,1335.8906 C1486.3125,1336.1563 1485.625,1336.2813 1484.8594,1336.2813 C1482.8125,1336.2813 1481.5156,1335.1875 1481.5156,1333.4844 L1481.5156,1332.3906 C1481.5156,1330.6094 1482.7656,1329.2969 1484.5,1329.2969 C1485.0781,1329.2969 1485.6875,1329.4531 1486.1563,1329.7031 C1486.6406,1329.9844 1486.8125,1330.2031 1486.9063,1330.6094 C1486.9688,1331.0156 1487,1331.1406 1487.1406,1331.2656 C1487.2813,1331.4063 1487.5156,1331.5156 1487.7344,1331.5156 C1488,1331.5156 1488.2656,1331.375 1488.4375,1331.1563 C1488.5469,1331 1488.5781,1330.8125 1488.5781,1330.3906 L1488.5781,1328.9688 C1488.5781,1328.5313 1488.5625,1328.4063 1488.4688,1328.25 C1488.3125,1327.9844 1488.0313,1327.8438 1487.7344,1327.8438 C1487.4375,1327.8438 1487.2344,1327.9375 1487.0156,1328.25 L1486.8438,1328.1719 Z " fill="#000000"/><text fill="#000000" font-family="sans-serif" font-size="12" lengthAdjust="spacingAndGlyphs" textLength="184" x="1498.5" y="1336.6543">usantatecla.utils.models.ClosedInterval</text><line style="stroke: #A80036; stroke-width: 1.5;" x1="1470.5" x2="1684.5" y1="1348.5" y2="1348.5"/><line style="stroke: #A80036; stroke-width: 1.5;" x1="1470.5" x2="1684.5" y1="1356.5" y2="1356.5"/><!--MD5=[315b61b427ec618d6861d47eee00cca3]
class Console--><rect codeLine="147" fill="#FEFECE" filter="url(#f18zo4ra8fq10f)" height="48" id="Console" style="stroke: #A80036; stroke-width: 1.5;" width="179" x="1649" y="1482"/><ellipse cx="1664" cy="1498" fill="#ADD1B2" rx="11" ry="11" style="stroke: #A80036; stroke-width: 1.0;"/><path d="M1666.3438,1493.6719 C1665.4063,1493.2344 1664.8125,1493.0938 1663.9375,1493.0938 C1661.3125,1493.0938 1659.3125,1495.1719 1659.3125,1497.8906 L1659.3125,1499.0156 C1659.3125,1501.5938 1661.4219,1503.4844 1664.3125,1503.4844 C1665.5313,1503.4844 1666.6875,1503.1875 1667.4375,1502.6406 C1668.0156,1502.2344 1668.3438,1501.7813 1668.3438,1501.3906 C1668.3438,1500.9375 1667.9531,1500.5469 1667.4844,1500.5469 C1667.2656,1500.5469 1667.0625,1500.625 1666.875,1500.8125 C1666.4219,1501.2969 1666.4219,1501.2969 1666.2344,1501.3906 C1665.8125,1501.6563 1665.125,1501.7813 1664.3594,1501.7813 C1662.3125,1501.7813 1661.0156,1500.6875 1661.0156,1498.9844 L1661.0156,1497.8906 C1661.0156,1496.1094 1662.2656,1494.7969 1664,1494.7969 C1664.5781,1494.7969 1665.1875,1494.9531 1665.6563,1495.2031 C1666.1406,1495.4844 1666.3125,1495.7031 1666.4063,1496.1094 C1666.4688,1496.5156 1666.5,1496.6406 1666.6406,1496.7656 C1666.7813,1496.9063 1667.0156,1497.0156 1667.2344,1497.0156 C1667.5,1497.0156 1667.7656,1496.875 1667.9375,1496.6563 C1668.0469,1496.5 1668.0781,1496.3125 1668.0781,1495.8906 L1668.0781,1494.4688 C1668.0781,1494.0313 1668.0625,1493.9063 1667.9688,1493.75 C1667.8125,1493.4844 1667.5313,1493.3438 1667.2344,1493.3438 C1666.9375,1493.3438 1666.7344,1493.4375 1666.5156,1493.75 L1666.3438,1493.6719 Z " fill="#000000"/><text fill="#000000" font-family="sans-serif" font-size="12" lengthAdjust="spacingAndGlyphs" textLength="147" x="1678" y="1502.1543">usantatecla.utils.views.Console</text><line style="stroke: #A80036; stroke-width: 1.5;" x1="1650" x2="1827" y1="1514" y2="1514"/><line style="stroke: #A80036; stroke-width: 1.5;" x1="1650" x2="1827" y1="1522" y2="1522"/><!--MD5=[58767b3ac92ed88fc68bd4b9dc66dad3]
class LimitedIntDialog--><rect codeLine="151" fill="#FEFECE" filter="url(#f18zo4ra8fq10f)" height="48" id="LimitedIntDialog" style="stroke: #A80036; stroke-width: 1.5;" width="225" x="1473" y="475"/><ellipse cx="1488" cy="491" fill="#ADD1B2" rx="11" ry="11" style="stroke: #A80036; stroke-width: 1.0;"/><path d="M1490.3438,486.6719 C1489.4063,486.2344 1488.8125,486.0938 1487.9375,486.0938 C1485.3125,486.0938 1483.3125,488.1719 1483.3125,490.8906 L1483.3125,492.0156 C1483.3125,494.5938 1485.4219,496.4844 1488.3125,496.4844 C1489.5313,496.4844 1490.6875,496.1875 1491.4375,495.6406 C1492.0156,495.2344 1492.3438,494.7813 1492.3438,494.3906 C1492.3438,493.9375 1491.9531,493.5469 1491.4844,493.5469 C1491.2656,493.5469 1491.0625,493.625 1490.875,493.8125 C1490.4219,494.2969 1490.4219,494.2969 1490.2344,494.3906 C1489.8125,494.6563 1489.125,494.7813 1488.3594,494.7813 C1486.3125,494.7813 1485.0156,493.6875 1485.0156,491.9844 L1485.0156,490.8906 C1485.0156,489.1094 1486.2656,487.7969 1488,487.7969 C1488.5781,487.7969 1489.1875,487.9531 1489.6563,488.2031 C1490.1406,488.4844 1490.3125,488.7031 1490.4063,489.1094 C1490.4688,489.5156 1490.5,489.6406 1490.6406,489.7656 C1490.7813,489.9063 1491.0156,490.0156 1491.2344,490.0156 C1491.5,490.0156 1491.7656,489.875 1491.9375,489.6563 C1492.0469,489.5 1492.0781,489.3125 1492.0781,488.8906 L1492.0781,487.4688 C1492.0781,487.0313 1492.0625,486.9063 1491.9688,486.75 C1491.8125,486.4844 1491.5313,486.3438 1491.2344,486.3438 C1490.9375,486.3438 1490.7344,486.4375 1490.5156,486.75 L1490.3438,486.6719 Z " fill="#000000"/><text fill="#000000" font-family="sans-serif" font-size="12" lengthAdjust="spacingAndGlyphs" textLength="193" x="1502" y="495.1543">usantatecla.utils.LimitedIntDialog</text><line style="stroke: #A80036; stroke-width: 1.5;" x1="1474" x2="1697" y1="507" y2="507"/><line style="stroke: #A80036; stroke-width: 1.5;" x1="1474" x2="1697" y1="515" y2="515"/><!--MD5=[d93cf99d2b92276f27fe8dbf15140505]
class YesNoDialog--><rect codeLine="155" fill="#FEFECE" filter="url(#f18zo4ra8fq10f)" height="48" id="YesNoDialog" style="stroke: #A80036; stroke-width: 1.5;" width="206" x="1469.5" y="258"/><ellipse cx="1484.5" cy="274" fill="#ADD1B2" rx="11" ry="11" style="stroke: #A80036; stroke-width: 1.0;"/><path d="M1486.8438,269.6719 C1485.9063,269.2344 1485.3125,269.0938 1484.4375,269.0938 C1481.8125,269.0938 1479.8125,271.1719 1479.8125,273.8906 L1479.8125,275.0156 C1479.8125,277.5938 1481.9219,279.4844 1484.8125,279.4844 C1486.0313,279.4844 1487.1875,279.1875 1487.9375,278.6406 C1488.5156,278.2344 1488.8438,277.7813 1488.8438,277.3906 C1488.8438,276.9375 1488.4531,276.5469 1487.9844,276.5469 C1487.7656,276.5469 1487.5625,276.625 1487.375,276.8125 C1486.9219,277.2969 1486.9219,277.2969 1486.7344,277.3906 C1486.3125,277.6563 1485.625,277.7813 1484.8594,277.7813 C1482.8125,277.7813 1481.5156,276.6875 1481.5156,274.9844 L1481.5156,273.8906 C1481.5156,272.1094 1482.7656,270.7969 1484.5,270.7969 C1485.0781,270.7969 1485.6875,270.9531 1486.1563,271.2031 C1486.6406,271.4844 1486.8125,271.7031 1486.9063,272.1094 C1486.9688,272.5156 1487,272.6406 1487.1406,272.7656 C1487.2813,272.9063 1487.5156,273.0156 1487.7344,273.0156 C1488,273.0156 1488.2656,272.875 1488.4375,272.6563 C1488.5469,272.5 1488.5781,272.3125 1488.5781,271.8906 L1488.5781,270.4688 C1488.5781,270.0313 1488.5625,269.9063 1488.4688,269.75 C1488.3125,269.4844 1488.0313,269.3438 1487.7344,269.3438 C1487.4375,269.3438 1487.2344,269.4375 1487.0156,269.75 L1486.8438,269.6719 Z " fill="#000000"/><text fill="#000000" font-family="sans-serif" font-size="12" lengthAdjust="spacingAndGlyphs" textLength="174" x="1498.5" y="278.1543">usantatecla.utils.views.YesNoDialog</text><line style="stroke: #A80036; stroke-width: 1.5;" x1="1470.5" x2="1674.5" y1="290" y2="290"/><line style="stroke: #A80036; stroke-width: 1.5;" x1="1470.5" x2="1674.5" y1="298" y2="298"/><!--MD5=[02f7077ed79257124e28b791f351f1d7]
class Direction--><rect codeLine="159" fill="#FEFECE" filter="url(#f18zo4ra8fq10f)" height="48" id="Direction" style="stroke: #A80036; stroke-width: 1.5;" width="184" x="1862.5" y="1316.5"/><ellipse cx="1877.5" cy="1332.5" fill="#EB937F" rx="11" ry="11" style="stroke: #A80036; stroke-width: 1.0;"/><path d="M1876.2969,1333.375 L1877.75,1333.375 L1877.75,1333.4844 C1877.75,1333.8906 1877.7813,1334.0469 1877.8594,1334.2031 C1878.0156,1334.4531 1878.2969,1334.6094 1878.5938,1334.6094 C1878.8438,1334.6094 1879.1094,1334.4688 1879.2656,1334.25 C1879.3906,1334.0938 1879.4219,1333.9375 1879.4219,1333.4844 L1879.4219,1331.5625 C1879.4219,1331.4063 1879.4219,1331.3594 1879.4063,1331.2031 C1879.3438,1330.7344 1879.0313,1330.4219 1878.5781,1330.4219 C1878.3281,1330.4219 1878.0625,1330.5625 1877.8906,1330.7813 C1877.7813,1330.9531 1877.75,1331.1094 1877.75,1331.5625 L1877.75,1331.6875 L1876.2969,1331.6875 L1876.2969,1329.2813 L1880.2813,1329.2813 L1880.2813,1330.1406 C1880.2813,1330.5469 1880.3125,1330.7188 1880.3906,1330.875 C1880.5625,1331.125 1880.8438,1331.2813 1881.125,1331.2813 C1881.3906,1331.2813 1881.6563,1331.1406 1881.8281,1330.9219 C1881.9375,1330.75 1881.9688,1330.6094 1881.9688,1330.1406 L1881.9688,1327.5938 L1874.3438,1327.5938 C1873.9063,1327.5938 1873.7813,1327.6094 1873.625,1327.7031 C1873.375,1327.8594 1873.2188,1328.1563 1873.2188,1328.4375 C1873.2188,1328.7188 1873.3594,1328.9688 1873.5781,1329.1406 C1873.7344,1329.25 1873.9219,1329.2813 1874.3438,1329.2813 L1874.5938,1329.2813 L1874.5938,1335.7969 L1874.3438,1335.7969 C1873.9375,1335.7969 1873.7813,1335.8125 1873.625,1335.9219 C1873.375,1336.0938 1873.2188,1336.3594 1873.2188,1336.6563 C1873.2188,1336.9219 1873.3594,1337.1719 1873.5781,1337.3281 C1873.7188,1337.4531 1873.9531,1337.5 1874.3438,1337.5 L1882.3438,1337.5 L1882.3438,1334.9219 C1882.3438,1334.4844 1882.3125,1334.3438 1882.2344,1334.1875 C1882.0625,1333.9375 1881.7813,1333.7813 1881.5,1333.7813 C1881.2344,1333.7813 1880.9688,1333.8906 1880.7969,1334.1406 C1880.6875,1334.2969 1880.6563,1334.4375 1880.6563,1334.9219 L1880.6563,1335.7969 L1876.2969,1335.7969 L1876.2969,1333.375 Z " fill="#000000"/><text fill="#000000" font-family="sans-serif" font-size="12" lengthAdjust="spacingAndGlyphs" textLength="152" x="1891.5" y="1336.6543">usantatecla.utils.models.Direction</text><line style="stroke: #A80036; stroke-width: 1.5;" x1="1863.5" x2="2045.5" y1="1348.5" y2="1348.5"/><line style="stroke: #A80036; stroke-width: 1.5;" x1="1863.5" x2="2045.5" y1="1356.5" y2="1356.5"/><!--MD5=[9054d1d596f71892773aeee04ca59ea9]
reverse link usantatecla.tictactoe.Player to usantatecla.tictactoe.UserPlayer--><path d="M853.3,605.929 C866.668,637.538 880.781,670.908 892.178,697.857 " fill="none" id="usantatecla.tictactoe.Player-backto-usantatecla.tictactoe.UserPlayer" style="stroke: #A80036; stroke-width: 1.0;"/><polygon fill="none" points="846.667,608.215,845.323,587.068,859.561,602.762,846.667,608.215" style="stroke: #A80036; stroke-width: 1.0;"/><!--MD5=[f55dc4ca1029546e2cc70a6003711be1]
link usantatecla.tictactoe.TicTacToe to usantatecla.tictactoe.Board--><path codeLine="120" d="M543.5818,165.279 C543.5818,165.279 539.023,496.59 537.142,633.515 " fill="none" id="usantatecla.tictactoe.TicTacToe-usantatecla.tictactoe.Board" style="stroke: #A80036; stroke-width: 1.0;"/><polygon fill="#A80036" points="536.958,646.911,541.0813,637.9668,537.0267,641.9115,533.082,637.8569,536.958,646.911" style="stroke: #A80036; stroke-width: 1.0;"/><line style="stroke: #A80036; stroke-width: 1.0;" x1="537.0267" x2="537.1365" y1="641.9115" y2="633.9125"/><polygon fill="#A80036" points="543.74,153.28,539.6612,159.2267,543.5818,165.279,547.6605,159.3322,543.74,153.28" style="stroke: #A80036; stroke-width: 1.0;"/><!--MD5=[ce283d8c110a506040c2dd735ef47160]
link usantatecla.tictactoe.TicTacToe to usantatecla.tictactoe.Turn--><path codeLine="121" d="M633.9299,159.9855 C633.9299,159.9855 694.516,201.99 722.609,221.46 " fill="none" id="usantatecla.tictactoe.TicTacToe-usantatecla.tictactoe.Turn" style="stroke: #A80036; stroke-width: 1.0;"/><polygon fill="#A80036" points="733.614,229.09,728.5006,220.6726,729.5062,226.2393,723.9395,227.245,733.614,229.09" style="stroke: #A80036; stroke-width: 1.0;"/><line style="stroke: #A80036; stroke-width: 1.0;" x1="729.5062" x2="722.93" y1="226.2393" y2="221.685"/><polygon fill="#A80036" points="624.067,153.15,626.72,159.8554,633.9299,159.9855,631.2769,153.2801,624.067,153.15" style="stroke: #A80036; stroke-width: 1.0;"/><!--MD5=[8842675a9ea127b9dcc7c26c260f87ba]
link usantatecla.tictactoe.Board to usantatecla.tictactoe.Token--><path codeLine="123" d="M666.743,836.598 C684.419,845.673 702.626,854.11 720.5,861 C836.82,905.841 874.702,886.514 994.5,921 C1109.24,954.031 1239.35,1003.388 1314.85,1033.254 " fill="none" id="usantatecla.tictactoe.Board-to-usantatecla.tictactoe.Token" style="stroke: #A80036; stroke-width: 1.0; stroke-dasharray: 7.0,7.0;"/><polygon fill="#A80036" points="1319.75,1035.193,1312.8576,1028.1578,1315.1019,1033.3503,1309.9093,1035.5947,1319.75,1035.193" style="stroke: #A80036; stroke-width: 1.0;"/><!--MD5=[d113ddce6fd1895c2fc1e379d25bb267]
link usantatecla.tictactoe.Turn to usantatecla.tictactoe.Token--><path codeLine="124" d="M883.097,301.68 C1018.44,340.06 1301.18,441.97 1417.5,647 C1479.17,755.711 1439.02,906.925 1406.95,992.678 " fill="none" id="usantatecla.tictactoe.Turn-to-usantatecla.tictactoe.Token" style="stroke: #A80036; stroke-width: 1.0; stroke-dasharray: 7.0,7.0;"/><polygon fill="#A80036" points="1405.14,997.47,1412.0637,990.4656,1406.9078,992.793,1404.5805,987.637,1405.14,997.47" style="stroke: #A80036; stroke-width: 1.0;"/><!--MD5=[da9e0b814734f6fa908ce67941f7afa7]
link usantatecla.tictactoe.Player to usantatecla.tictactoe.Token--><path codeLine="125" d="M1012.8633,566.4872 C1012.8633,566.4872 1085.42,613.627 1110.5,647 C1168.49,724.16 1099.82,777.078 1147.5,861 C1185.75,928.314 1255.92,983.455 1308.93,1018.295 " fill="none" id="usantatecla.tictactoe.Player-usantatecla.tictactoe.Token" style="stroke: #A80036; stroke-width: 1.0;"/><polygon fill="#A80036" points="1319.96,1025.418,1314.5717,1017.1738,1315.7605,1022.7044,1310.2299,1023.8931,1319.96,1025.418" style="stroke: #A80036; stroke-width: 1.0;"/><line style="stroke: #A80036; stroke-width: 1.0;" x1="1315.7605" x2="1309.04" y1="1022.7044" y2="1018.3665"/><polygon fill="#A80036" points="1002.28,560.831,1005.6863,567.1869,1012.8633,566.4872,1009.4571,560.1313,1002.28,560.831" style="stroke: #A80036; stroke-width: 1.0;"/><!--MD5=[a1d26119a69b0875542b2a0468983617]
link usantatecla.tictactoe.Player to usantatecla.tictactoe.Board--><path codeLine="126" d="M705.7475,595.2248 C705.7475,595.2248 674.77,623.933 659.741,637.861 " fill="none" id="usantatecla.tictactoe.Player-usantatecla.tictactoe.Board" style="stroke: #A80036; stroke-width: 1.0;"/><polygon fill="#A80036" points="649.902,646.979,659.2221,643.7953,653.5693,643.5804,653.7843,637.9276,649.902,646.979" style="stroke: #A80036; stroke-width: 1.0;"/><line style="stroke: #A80036; stroke-width: 1.0;" x1="653.5693" x2="659.4365" y1="643.5804" y2="638.143"/><polygon fill="#A80036" points="714.549,587.068,707.4293,588.2125,705.7475,595.2248,712.8671,594.0802,714.549,587.068" style="stroke: #A80036; stroke-width: 1.0;"/><!--MD5=[529b3f680026169e7030eafcb9573de9]
link usantatecla.tictactoe.Turn to usantatecla.tictactoe.Player--><path codeLine="127" d="M808.5,363.03 C808.5,363.03 808.5,386.41 808.5,397.62 " fill="none" id="usantatecla.tictactoe.Turn-usantatecla.tictactoe.Player" style="stroke: #A80036; stroke-width: 1.0;"/><polygon fill="#A80036" points="808.5,410.71,812.5,401.71,808.5,405.71,804.5,401.71,808.5,410.71" style="stroke: #A80036; stroke-width: 1.0;"/><line style="stroke: #A80036; stroke-width: 1.0;" x1="808.5" x2="808.5" y1="405.71" y2="397.71"/><polygon fill="#A80036" points="808.5,351.03,804.5,357.03,808.5,363.03,812.5,357.03,808.5,351.03" style="stroke: #A80036; stroke-width: 1.0;"/><text fill="#000000" font-family="sans-serif" font-size="13" lengthAdjust="spacingAndGlyphs" textLength="8" x="800.1688" y="399.8478">2</text><!--MD5=[bfa888729168fa3147cbf7352825b6b1]
link usantatecla.tictactoe.Board to usantatecla.tictactoe.Coordinate--><path codeLine="128" d="M546.7823,873.2698 C546.7823,873.2698 551.933,927.266 554.333,952.426 " fill="none" id="usantatecla.tictactoe.Board-usantatecla.tictactoe.Coordinate" style="stroke: #A80036; stroke-width: 1.0;"/><polygon fill="#A80036" points="555.571,965.4,558.6984,956.0609,555.0963,960.4226,550.7346,956.8204,555.571,965.4" style="stroke: #A80036; stroke-width: 1.0;"/><line style="stroke: #A80036; stroke-width: 1.0;" x1="555.0963" x2="554.3365" y1="960.4226" y2="952.459"/><polygon fill="#A80036" points="545.643,861.324,542.2307,867.6767,546.7823,873.2698,550.1946,866.9171,545.643,861.324" style="stroke: #A80036; stroke-width: 1.0;"/><!--MD5=[287634111649744118617a7068f6a88b]
reverse link usantatecla.tictactoe.Player to usantatecla.tictactoe.MachinePlayer--><path codeLine="129" d="M1020.8,586.918 C1060.34,605.32 1100.75,625.676 1137.5,647 C1172.97,667.578 1210.26,694.985 1238.14,716.774 " fill="none" id="usantatecla.tictactoe.Player-backto-usantatecla.tictactoe.MachinePlayer" style="stroke: #A80036; stroke-width: 1.0;"/><polygon fill="none" points="1017.65,593.177,1002.402,578.466,1023.5,580.456,1017.65,593.177" style="stroke: #A80036; stroke-width: 1.0;"/><!--MD5=[cb3b258fc3efb46a680af02e5e1f3af2]
link usantatecla.tictactoe.Coordinate to usantatecla.tictactoe.Error--><path codeLine="130" d="M564.5,1154.511 C564.5,1186.611 564.5,1222.358 564.5,1253.806 " fill="none" id="usantatecla.tictactoe.Coordinate-to-usantatecla.tictactoe.Error" style="stroke: #A80036; stroke-width: 1.0; stroke-dasharray: 7.0,7.0;"/><polygon fill="#A80036" points="564.5,1258.815,568.5,1249.815,564.5,1253.815,560.5,1249.815,564.5,1258.815" style="stroke: #A80036; stroke-width: 1.0;"/><!--MD5=[e43764ef036bd32d7bebb5fdc89dab41]
link usantatecla.tictactoe.Player to usantatecla.tictactoe.Error--><path codeLine="131" d="M614.959,517.93 C530.359,536.501 438.685,573.561 386.5,647 C359.954,684.358 347.187,1115.844 387.5,1199 C407.153,1239.54 444.789,1271.98 480.32,1295.43 " fill="none" id="usantatecla.tictactoe.Player-to-usantatecla.tictactoe.Error" style="stroke: #A80036; stroke-width: 1.0; stroke-dasharray: 7.0,7.0;"/><polygon fill="#A80036" points="484.642,1298.245,479.2843,1289.9809,480.4525,1295.5158,474.9176,1296.6841,484.642,1298.245" style="stroke: #A80036; stroke-width: 1.0;"/><!--MD5=[c1cc06e9ee042e231acd704d3db91e02]
link usantatecla.tictactoe.Board to usantatecla.tictactoe.Message--><path codeLine="132" d="M666.55,855.75 C691.996,876.654 718.032,899.024 741.5,921 C746.235,925.434 751.002,930.013 755.767,934.689 " fill="none" id="usantatecla.tictactoe.Board-to-usantatecla.tictactoe.Message" style="stroke: #A80036; stroke-width: 1.0; stroke-dasharray: 7.0,7.0;"/><polygon fill="#A80036" points="759.41,938.282,755.8114,929.1141,755.8503,934.7708,750.1935,934.8097,759.41,938.282" style="stroke: #A80036; stroke-width: 1.0;"/><!--MD5=[7e581fdc1c15d414673a5603eefb02c4]
link usantatecla.tictactoe.Player to usantatecla.tictactoe.Message--><path codeLine="133" d="M746.089,587.063 C735.533,605.987 726.167,626.502 720.5,647 C695.158,738.673 690.496,770.745 720.5,861 C728.848,886.112 741.761,910.614 756.556,933.343 " fill="none" id="usantatecla.tictactoe.Player-to-usantatecla.tictactoe.Message" style="stroke: #A80036; stroke-width: 1.0; stroke-dasharray: 7.0,7.0;"/><polygon fill="#A80036" points="759.34,937.566,757.7267,927.8502,756.5883,933.3913,751.0472,932.2529,759.34,937.566" style="stroke: #A80036; stroke-width: 1.0;"/><!--MD5=[4658d6f36d7d9c2388a7aa58b8f9a55b]
link usantatecla.tictactoe.TicTacToe to usantatecla.tictactoe.Message--><path codeLine="134" d="M516.555,153.02 C439.021,309.33 232.979,751.792 327.5,861 C449.174,1001.579 577.054,834.255 741.5,921 C746.036,923.393 750.494,926.013 754.868,928.825 " fill="none" id="usantatecla.tictactoe.TicTacToe-to-usantatecla.tictactoe.Message" style="stroke: #A80036; stroke-width: 1.0; stroke-dasharray: 7.0,7.0;"/><polygon fill="#A80036" points="759.212,931.698,753.9114,923.3972,755.0414,928.94,749.4986,930.0701,759.212,931.698" style="stroke: #A80036; stroke-width: 1.0;"/><!--MD5=[62ac8b859d6a910fbb401d124595bc0b]
link usantatecla.tictactoe.Turn to usantatecla.tictactoe.Message--><path codeLine="135" d="M733.646,321.26 C691.609,344.45 639.353,376.23 597.5,411 C427.598,552.165 243.912,692.29 386.5,861 C489.791,983.213 600.856,844.684 741.5,921 C746.007,923.446 750.441,926.113 754.792,928.965 " fill="none" id="usantatecla.tictactoe.Turn-to-usantatecla.tictactoe.Message" style="stroke: #A80036; stroke-width: 1.0; stroke-dasharray: 7.0,7.0;"/><polygon fill="#A80036" points="759.116,931.877,753.8853,923.532,754.9688,929.0841,749.4166,930.1675,759.116,931.877" style="stroke: #A80036; stroke-width: 1.0;"/><!--MD5=[88d77fad83bebfdbbb7645aa3f97d38d]
reverse link ConcreteCoordinate to usantatecla.tictactoe.Coordinate--><path codeLine="163" d="M180.085,790.29 C208.271,811.067 244.762,837.747 277.5,861 C325.988,895.439 379.531,932.608 427.107,965.338 " fill="none" id="ConcreteCoordinate-backto-usantatecla.tictactoe.Coordinate" style="stroke: #A80036; stroke-width: 1.0;"/><polygon fill="none" points="175.646,795.714,163.717,778.201,183.964,784.452,175.646,795.714" style="stroke: #A80036; stroke-width: 1.0;"/><!--MD5=[934fb392a73132a0ebf18f95113c60ed]
link usantatecla.tictactoe.Coordinate to ClosedInterval--><path codeLine="165" d="M664.492,1154.783 C688.18,1172.307 714.469,1188.418 741.5,1199 C1037.21,1314.767 1153.06,1156.113 1453.5,1259 C1488.16,1270.87 1522.72,1294.53 1546.52,1313.143 " fill="none" id="usantatecla.tictactoe.Coordinate-to-ClosedInterval" style="stroke: #A80036; stroke-width: 1.0; stroke-dasharray: 7.0,7.0;"/><polygon fill="#A80036" points="1550.54,1316.319,1545.9587,1307.6005,1546.617,1313.2189,1540.9986,1313.8772,1550.54,1316.319" style="stroke: #A80036; stroke-width: 1.0;"/><!--MD5=[e42dc3dc7895e07d7350a715b050ad9b]
link usantatecla.tictactoe.Token to ClosedInterval--><path codeLine="166" d="M1422.66,1122.808 C1464.93,1181.956 1526.72,1268.436 1557.92,1312.103 " fill="none" id="usantatecla.tictactoe.Token-to-ClosedInterval" style="stroke: #A80036; stroke-width: 1.0; stroke-dasharray: 7.0,7.0;"/><polygon fill="#A80036" points="1560.85,1316.193,1558.8616,1306.547,1557.9387,1312.128,1552.3576,1311.2051,1560.85,1316.193" style="stroke: #A80036; stroke-width: 1.0;"/><!--MD5=[02a6c08caac974be482b221cbbed617e]
link usantatecla.tictactoe.Error to Console--><path codeLine="169" d="M644.271,1352.609 C853.573,1381.758 1417.85,1460.3434 1643.42,1491.7587 " fill="none" id="usantatecla.tictactoe.Error-to-Console" style="stroke: #A80036; stroke-width: 1.0; stroke-dasharray: 7.0,7.0;"/><polygon fill="#A80036" points="1648.69,1492.4919,1640.3384,1487.2717,1643.7392,1491.7921,1639.2188,1495.1929,1648.69,1492.4919" style="stroke: #A80036; stroke-width: 1.0;"/><!--MD5=[babf8812656abf11221776abe93713d2]
link usantatecla.tictactoe.Message to Console--><path codeLine="170" d="M977.747,1101.077 C1064.71,1131.673 1190.06,1172.887 1302.5,1199 C1390.27,1219.383 1640.02,1195.059 1703.5,1259 C1761.53,1317.453 1752.47,1425.564 1744.11,1476.7381 " fill="none" id="usantatecla.tictactoe.Message-to-Console" style="stroke: #A80036; stroke-width: 1.0; stroke-dasharray: 7.0,7.0;"/><polygon fill="#A80036" points="1743.26,1481.8048,1748.7035,1473.597,1744.093,1476.8747,1740.8153,1472.2642,1743.26,1481.8048" style="stroke: #A80036; stroke-width: 1.0;"/><!--MD5=[b5f6ae75ec16ad98720bfc912357ede6]
link usantatecla.tictactoe.Token to Console--><path codeLine="171" d="M1437.14,1082.403 C1535.7,1119.705 1727.49,1198.425 1764.5,1259 C1807.83,1329.923 1781.63,1364.672 1764.5,1446 C1762.26,1456.6367 1757.98,1467.6935 1753.53,1477.321 " fill="none" id="usantatecla.tictactoe.Token-to-Console" style="stroke: #A80036; stroke-width: 1.0; stroke-dasharray: 7.0,7.0;"/><polygon fill="#A80036" points="1751.34,1481.9243,1758.8201,1475.5174,1753.4891,1477.4097,1751.5968,1472.0788,1751.34,1481.9243" style="stroke: #A80036; stroke-width: 1.0;"/><!--MD5=[4a6f4cecc322ee82ce9bf312f6bd9c5b]
link usantatecla.tictactoe.Turn to LimitedIntDialog--><path codeLine="175" d="M883.234,288.44 C1006.25,299.44 1257.31,330.51 1453.5,411 C1490.38,426.13 1527.9,452.09 1553.46,471.73 " fill="none" id="usantatecla.tictactoe.Turn-to-LimitedIntDialog" style="stroke: #A80036; stroke-width: 1.0; stroke-dasharray: 7.0,7.0;"/><polygon fill="#A80036" points="1557.46,474.82,1552.7833,466.1523,1553.5033,471.7632,1547.8924,472.4831,1557.46,474.82" style="stroke: #A80036; stroke-width: 1.0;"/><!--MD5=[a6176f3b762d2fd91dbdde4c26f79f5e]
link usantatecla.tictactoe.TicTacToe to YesNoDialog--><path codeLine="176" d="M637.113,97.88 C804.503,100.24 1166.66,117.15 1453.5,213 C1482.91,222.83 1513.21,240.27 1535.88,255.03 " fill="none" id="usantatecla.tictactoe.TicTacToe-to-YesNoDialog" style="stroke: #A80036; stroke-width: 1.0; stroke-dasharray: 7.0,7.0;"/><polygon fill="#A80036" points="1540.31,257.94,1534.9746,249.6615,1536.1279,255.1995,1530.5899,256.3528,1540.31,257.94" style="stroke: #A80036; stroke-width: 1.0;"/><!--MD5=[bf23bf68eb6ee1e962cc58fc20d95da0]
link usantatecla.tictactoe.Board to Direction--><path codeLine="178" d="M666.713,839.29 C684.281,847.831 702.47,855.404 720.5,861 C1033.1,958.019 1151.67,796.793 1454.5,921 C1674.17,1011.1 1869.53,1234.494 1932.95,1312.276 " fill="none" id="usantatecla.tictactoe.Board-to-Direction" style="stroke: #A80036; stroke-width: 1.0; stroke-dasharray: 7.0,7.0;"/><polygon fill="#A80036" points="1936.22,1316.31,1933.6576,1306.8003,1933.0705,1312.4266,1927.4442,1311.8396,1936.22,1316.31" style="stroke: #A80036; stroke-width: 1.0;"/><!--MD5=[c6b41bb1c68e13fbf1695f6a9580fb13]
link usantatecla.tictactoe.Coordinate to Direction--><path codeLine="179" d="M663.367,1154.522 C687.312,1172.295 713.991,1188.575 741.5,1199 C941.792,1274.906 1493.01,1219.322 1703.5,1259 C1769.28,1271.401 1841.84,1295.914 1891.95,1314.648 " fill="none" id="usantatecla.tictactoe.Coordinate-to-Direction" style="stroke: #A80036; stroke-width: 1.0; stroke-dasharray: 7.0,7.0;"/><polygon fill="#A80036" points="1896.73,1316.442,1889.7096,1309.5345,1892.0489,1314.685,1886.8984,1317.0242,1896.73,1316.442" style="stroke: #A80036; stroke-width: 1.0;"/><!--MD5=[50f32ee3e60a7900ac0e53d55aff7a3e]
@startuml
namespace usantatecla.tictactoe {
class Board {
	- tokens: Token[][] 
	~ Board()
	+ reset() 
	~ write() 
	- getToken(Coordinate): Token 
	~ isCompleted(): boolean 
	~ put(Coordinate, Token) 
	~ move(Coordinate, Coordinate) 
	- remove(Coordinate) 
	~ isOccupied(Coordinate, Token): boolean 
	~ isEmpty(Coordinate): boolean
	~ isTicTacToe(Token): boolean
	- getCoordinates(Token): List<Coordinate> 
}

class Coordinate {
	~ NULL: {static} Coordinate
	~ DIMENSION: {static} int 
	~ LIMITS: {static} ClosedInterval 
	~ Coordinate()
	~ Coordinate(int, int)
	+ isNull(): boolean 
	+ getDirection(usantatecla.utils.models.Coordinate): Direction
	+ inInverseDiagonal(): boolean 
	+ read(String)
	+ random() 
	+ equals(Object): boolean 
}

enum Error {

	+ NOT_EMPTY
	+ NOT_OWNER
	+ SAME_COORDINATES
	+ WRONG_COORDINATES
	+ NULL
	- message: String 
	~ Error()
	~ Error(String)
	~ writeln()
}

class MachinePlayer {
	~ MachinePlayer(Token, Board)
	# getCoordinate(Message): Coordinate 
}

enum Message {
	+ TITTLE
	+ NUMBER_PLAYERS
	+ SEPARATOR
	+ VERTICAL_LINE_LEFT
	+ VERTICAL_LINE_CENTERED
	+ VERTICAL_LINE_RIGHT
	+ ENTER_COORDINATE_TO_PUT
	+ ENTER_COORDINATE_TO_REMOVE
	+ COORDINATE_TO_PUT
	+ COORDINATE_TO_REMOVE
	+ COORDINATE_TO_MOVE
	+ PLAYER_WIN
	+ RESUME
	- message: String 
	- Message(String)
	~ write()
	~ writeln()
	+ toString(): String 
}


abstract class Player {
	~ Player(Token, Board)
	~ play()
	- put()
	# {abstract} getCoordinate(Message): Coordinate 
	~ checkPutCoordinateError(Coordinate): Error 
	- move()
	# checkMoveOriginCoordinateError(Coordinate): Error 
	# checkMoveTargetCoordinateError(Coordinate, Coordinate): Error 
	~ writeWinner()
	~ getToken(): Token 
}

class TicTacToe{
    ~ TicTacToe()
	- play()
    - playGame()
	- isResumedGame(): boolean
	+ {static} main(String[])
}

enum Token {
	+ X_TOKEN
	+ Y_TOKEN
	+ NULL
    + isNull(): boolean 
    ~ write()
    ~ {static} get(int): Token 
}

class Turn {
	~ NUMBER_PLAYERS: {static} int 
	- active: int 
	~ Turn(Board)
	~ play()
	- getPlayer(): Player 
	~ writeWinner()
	~ getToken(): Token  
}

class UserPlayer extends Player {
	~ UserPlayer(Token, Board)
	# getCoordinate(Message message)
	# checkPutCoordinateError(Coordinate) 
	# checkMoveOriginCoordinateError(Coordinate)
	# checkMoveTargetCoordinateError(Coordinate, Coordinate)
}

TicTacToe *-down-> Board 
TicTacToe *-down-> Turn 

Board .down.> Token
Turn .down.> Token
Player *-down-> Token
Player *-down-> Board 
Turn *-down-> "2" Player 
Board *-down-> Coordinate 
Player <|-down- MachinePlayer
Coordinate .down.> Error
Player .down.> Error
Board .down.> Message
Player .down.> Message
TicTacToe .down.> Message
Turn .down.> Message

}

class ConcreteCoordinate as "usantatecla.utils.models.ConcreteCoordinate"{

}

class ClosedInterval as "usantatecla.utils.models.ClosedInterval"{
	
}

class Console as "usantatecla.utils.views.Console"{
	
}

class LimitedIntDialog as "usantatecla.utils.LimitedIntDialog"{
	
}

class YesNoDialog as "usantatecla.utils.views.YesNoDialog"{
	
}

enum Direction as "usantatecla.utils.models.Direction"{
	
}

ConcreteCoordinate <|-down- usantatecla.tictactoe.Coordinate

usantatecla.tictactoe.Coordinate .down.> ClosedInterval
usantatecla.tictactoe.Token .down.> ClosedInterval


usantatecla.tictactoe.Error .down.> Console
usantatecla.tictactoe.Message .down.> Console
usantatecla.tictactoe.Token .down.> Console



usantatecla.tictactoe.Turn .down.> LimitedIntDialog
usantatecla.tictactoe.TicTacToe .down.> YesNoDialog

usantatecla.tictactoe.Board .down.> Direction
usantatecla.tictactoe.Coordinate .down.> Direction
@enduml

PlantUML version 1.2020.20beta9(Unknown compile time)
(GPL source distribution)
Java Runtime: Java(TM) SE Runtime Environment
JVM: Java HotSpot(TM) 64-Bit Server VM
Default Encoding: UTF-8
Language: en
Country: US
--></g></svg>