<?xml version="1.0" encoding="UTF-8" standalone="no"?><svg xmlns="http://www.w3.org/2000/svg" xmlns:xlink="http://www.w3.org/1999/xlink" contentScriptType="application/ecmascript" contentStyleType="text/css" height="1290px" preserveAspectRatio="none" style="width:947px;height:1290px;" version="1.1" viewBox="0 0 947 1290" width="947px" zoomAndPan="magnify"><defs><filter height="300%" id="fhcpkcps0j16m" width="300%" x="-1" y="-1"><feGaussianBlur result="blurOut" stdDeviation="2.0"/><feColorMatrix in="blurOut" result="blurOut2" type="matrix" values="0 0 0 0 0 0 0 0 0 0 0 0 0 0 0 0 0 0 .4 0"/><feOffset dx="4.0" dy="4.0" in="blurOut2" result="blurOut3"/><feBlend in="SourceGraphic" in2="blurOut3" mode="normal"/></filter></defs><g><!--MD5=[ff910f53a95e9ddb48756cce2cdc7811]
cluster usantatecla.tictactoe.models--><polygon fill="#FFFFFF" filter="url(#fhcpkcps0j16m)" points="147,6,395,6,402,28.2969,559,28.2969,559,1165,147,1165,147,6" style="stroke:#000000;stroke-width:1.5;"/><line style="stroke:#000000;stroke-width:1.5;" x1="147" x2="402" y1="28.2969" y2="28.2969"/><text fill="#000000" font-family="sans-serif" font-size="14" font-weight="bold" lengthAdjust="spacingAndGlyphs" textLength="242" x="151" y="20.9951">usantatecla.tictactoe.models</text><!--MD5=[8143ec4b553fe2ba3dbb6c00c7e4fc27]
class usantatecla.tictactoe.models.Board--><rect codeLine="7" fill="#FEFECE" filter="url(#fhcpkcps0j16m)" height="188.8516" id="usantatecla.tictactoe.models.Board" style="stroke:#A80036;stroke-width:1.5;" width="262" x="163" y="711"/><ellipse cx="271.75" cy="727" fill="#ADD1B2" rx="11" ry="11" style="stroke:#A80036;stroke-width:1.0;"/><path d="M274.0938,722.6719 C273.1563,722.2344 272.5625,722.0938 271.6875,722.0938 C269.0625,722.0938 267.0625,724.1719 267.0625,726.8906 L267.0625,728.0156 C267.0625,730.5938 269.1719,732.4844 272.0625,732.4844 C273.2813,732.4844 274.4375,732.1875 275.1875,731.6406 C275.7656,731.2344 276.0938,730.7813 276.0938,730.3906 C276.0938,729.9375 275.7031,729.5469 275.2344,729.5469 C275.0156,729.5469 274.8125,729.625 274.625,729.8125 C274.1719,730.2969 274.1719,730.2969 273.9844,730.3906 C273.5625,730.6563 272.875,730.7813 272.1094,730.7813 C270.0625,730.7813 268.7656,729.6875 268.7656,727.9844 L268.7656,726.8906 C268.7656,725.1094 270.0156,723.7969 271.75,723.7969 C272.3281,723.7969 272.9375,723.9531 273.4063,724.2031 C273.8906,724.4844 274.0625,724.7031 274.1563,725.1094 C274.2188,725.5156 274.25,725.6406 274.3906,725.7656 C274.5313,725.9063 274.7656,726.0156 274.9844,726.0156 C275.25,726.0156 275.5156,725.875 275.6875,725.6563 C275.7969,725.5 275.8281,725.3125 275.8281,724.8906 L275.8281,723.4688 C275.8281,723.0313 275.8125,722.9063 275.7188,722.75 C275.5625,722.4844 275.2813,722.3438 274.9844,722.3438 C274.6875,722.3438 274.4844,722.4375 274.2656,722.75 L274.0938,722.6719 Z " fill="#000000"/><text fill="#000000" font-family="sans-serif" font-size="12" lengthAdjust="spacingAndGlyphs" textLength="36" x="292.25" y="731.1543">Board</text><line style="stroke:#A80036;stroke-width:1.5;" x1="164" x2="424" y1="743" y2="743"/><line style="stroke:#A80036;stroke-width:1.5;" x1="164" x2="424" y1="751" y2="751"/><polygon fill="#4177AF" points="174,758,170,764,178,764" style="stroke:#1963A0;stroke-width:1.0;"/><text fill="#000000" font-family="sans-serif" font-size="11" lengthAdjust="spacingAndGlyphs" textLength="41" x="183" y="765.2104">Board()</text><polygon fill="#4177AF" points="174,770.8047,170,776.8047,178,776.8047" style="stroke:#1963A0;stroke-width:1.0;"/><text fill="#000000" font-family="sans-serif" font-size="11" lengthAdjust="spacingAndGlyphs" textLength="38" x="183" y="778.0151">reset()</text><polygon fill="#4177AF" points="174,783.6094,170,789.6094,178,789.6094" style="stroke:#1963A0;stroke-width:1.0;"/><text fill="#000000" font-family="sans-serif" font-size="11" lengthAdjust="spacingAndGlyphs" textLength="166" x="183" y="790.8198">getToken(Coordinate): Token</text><polygon fill="#4177AF" points="174,796.4141,170,802.4141,178,802.4141" style="stroke:#1963A0;stroke-width:1.0;"/><text fill="#000000" font-family="sans-serif" font-size="11" lengthAdjust="spacingAndGlyphs" textLength="133" x="183" y="803.6245">isCompleted(): boolean</text><polygon fill="#4177AF" points="174,809.2188,170,815.2188,178,815.2188" style="stroke:#1963A0;stroke-width:1.0;"/><text fill="#000000" font-family="sans-serif" font-size="11" lengthAdjust="spacingAndGlyphs" textLength="130" x="183" y="816.4292">put(Coordinate, Token)</text><polygon fill="#4177AF" points="174,822.0234,170,828.0234,178,828.0234" style="stroke:#1963A0;stroke-width:1.0;"/><text fill="#000000" font-family="sans-serif" font-size="11" lengthAdjust="spacingAndGlyphs" textLength="172" x="183" y="829.2339">move(Coordinate, Coordinate)</text><rect fill="#F24D5C" height="6" style="stroke:#C82930;stroke-width:1.0;" width="6" x="171" y="835.8281"/><text fill="#000000" font-family="sans-serif" font-size="11" lengthAdjust="spacingAndGlyphs" textLength="115" x="183" y="842.0386">remove(Coordinate)</text><polygon fill="#4177AF" points="174,847.6328,170,853.6328,178,853.6328" style="stroke:#1963A0;stroke-width:1.0;"/><text fill="#000000" font-family="sans-serif" font-size="11" lengthAdjust="spacingAndGlyphs" textLength="227" x="183" y="854.8433">isOccupied(Coordinate, Token): boolean</text><polygon fill="#4177AF" points="174,860.4375,170,866.4375,178,866.4375" style="stroke:#1963A0;stroke-width:1.0;"/><text fill="#000000" font-family="sans-serif" font-size="11" lengthAdjust="spacingAndGlyphs" textLength="168" x="183" y="867.6479">isEmpty(Coordinate): boolean</text><polygon fill="#4177AF" points="174,873.2422,170,879.2422,178,879.2422" style="stroke:#1963A0;stroke-width:1.0;"/><text fill="#000000" font-family="sans-serif" font-size="11" lengthAdjust="spacingAndGlyphs" textLength="163" x="183" y="880.4526">isTicTacToe(Token): boolean</text><rect fill="#F24D5C" height="6" style="stroke:#C82930;stroke-width:1.0;" width="6" x="171" y="887.0469"/><text fill="#000000" font-family="sans-serif" font-size="11" lengthAdjust="spacingAndGlyphs" textLength="236" x="183" y="893.2573">getCoordinates(Token): List&lt;Coordinate&gt;</text><!--MD5=[0288d70f387f44268e09da14abd6d1e8]
class usantatecla.tictactoe.models.Coordinate--><rect codeLine="24" fill="#FEFECE" filter="url(#fhcpkcps0j16m)" height="188.8516" id="usantatecla.tictactoe.models.Coordinate" style="stroke:#A80036;stroke-width:1.5;" width="224" x="319" y="960"/><ellipse cx="393.75" cy="976" fill="#ADD1B2" rx="11" ry="11" style="stroke:#A80036;stroke-width:1.0;"/><path d="M396.0938,971.6719 C395.1563,971.2344 394.5625,971.0938 393.6875,971.0938 C391.0625,971.0938 389.0625,973.1719 389.0625,975.8906 L389.0625,977.0156 C389.0625,979.5938 391.1719,981.4844 394.0625,981.4844 C395.2813,981.4844 396.4375,981.1875 397.1875,980.6406 C397.7656,980.2344 398.0938,979.7813 398.0938,979.3906 C398.0938,978.9375 397.7031,978.5469 397.2344,978.5469 C397.0156,978.5469 396.8125,978.625 396.625,978.8125 C396.1719,979.2969 396.1719,979.2969 395.9844,979.3906 C395.5625,979.6563 394.875,979.7813 394.1094,979.7813 C392.0625,979.7813 390.7656,978.6875 390.7656,976.9844 L390.7656,975.8906 C390.7656,974.1094 392.0156,972.7969 393.75,972.7969 C394.3281,972.7969 394.9375,972.9531 395.4063,973.2031 C395.8906,973.4844 396.0625,973.7031 396.1563,974.1094 C396.2188,974.5156 396.25,974.6406 396.3906,974.7656 C396.5313,974.9063 396.7656,975.0156 396.9844,975.0156 C397.25,975.0156 397.5156,974.875 397.6875,974.6563 C397.7969,974.5 397.8281,974.3125 397.8281,973.8906 L397.8281,972.4688 C397.8281,972.0313 397.8125,971.9063 397.7188,971.75 C397.5625,971.4844 397.2813,971.3438 396.9844,971.3438 C396.6875,971.3438 396.4844,971.4375 396.2656,971.75 L396.0938,971.6719 Z " fill="#000000"/><text fill="#000000" font-family="sans-serif" font-size="12" lengthAdjust="spacingAndGlyphs" textLength="66" x="414.25" y="980.1543">Coordinate</text><line style="stroke:#A80036;stroke-width:1.5;" x1="320" x2="542" y1="992" y2="992"/><rect fill="none" height="6" style="stroke:#C82930;stroke-width:1.0;" width="6" x="327" y="1000"/><text fill="#000000" font-family="sans-serif" font-size="11" lengthAdjust="spacingAndGlyphs" text-decoration="underline" textLength="178" x="339" y="1006.2104">NULL_COORDINATE: Coordinate</text><ellipse cx="330" cy="1015.8047" fill="none" rx="3" ry="3" style="stroke:#038048;stroke-width:1.0;"/><text fill="#000000" font-family="sans-serif" font-size="11" lengthAdjust="spacingAndGlyphs" text-decoration="underline" textLength="85" x="339" y="1019.0151">DIMENSION: int</text><rect fill="none" height="6" style="stroke:#C82930;stroke-width:1.0;" width="6" x="327" y="1025.6094"/><text fill="#000000" font-family="sans-serif" font-size="11" lengthAdjust="spacingAndGlyphs" text-decoration="underline" textLength="125" x="339" y="1031.8198">LIMITS: ClosedInterval</text><line style="stroke:#A80036;stroke-width:1.5;" x1="320" x2="542" y1="1038.4141" y2="1038.4141"/><ellipse cx="330" cy="1049.4141" fill="#84BE84" rx="3" ry="3" style="stroke:#038048;stroke-width:1.0;"/><text fill="#000000" font-family="sans-serif" font-size="11" lengthAdjust="spacingAndGlyphs" textLength="70" x="339" y="1052.6245">Coordinate()</text><ellipse cx="330" cy="1062.2188" fill="#84BE84" rx="3" ry="3" style="stroke:#038048;stroke-width:1.0;"/><text fill="#000000" font-family="sans-serif" font-size="11" lengthAdjust="spacingAndGlyphs" textLength="105" x="339" y="1065.4292">Coordinate(int, int)</text><ellipse cx="330" cy="1075.0234" fill="#84BE84" rx="3" ry="3" style="stroke:#038048;stroke-width:1.0;"/><text fill="#000000" font-family="sans-serif" font-size="11" lengthAdjust="spacingAndGlyphs" textLength="91" x="339" y="1078.2339">isNull(): boolean</text><ellipse cx="330" cy="1087.8281" fill="#84BE84" rx="3" ry="3" style="stroke:#038048;stroke-width:1.0;"/><text fill="#000000" font-family="sans-serif" font-size="11" lengthAdjust="spacingAndGlyphs" textLength="78" x="339" y="1091.0386">isValid(): Error</text><ellipse cx="330" cy="1100.6328" fill="#84BE84" rx="3" ry="3" style="stroke:#038048;stroke-width:1.0;"/><text fill="#000000" font-family="sans-serif" font-size="11" lengthAdjust="spacingAndGlyphs" textLength="198" x="339" y="1103.8433">getDirection(Coordinate): Direction</text><rect fill="#F24D5C" height="6" style="stroke:#C82930;stroke-width:1.0;" width="6" x="327" y="1110.4375"/><text fill="#000000" font-family="sans-serif" font-size="11" lengthAdjust="spacingAndGlyphs" textLength="164" x="339" y="1116.6479">inInverseDiagonal(): boolean</text><ellipse cx="330" cy="1126.2422" fill="#84BE84" rx="3" ry="3" style="stroke:#038048;stroke-width:1.0;"/><text fill="#000000" font-family="sans-serif" font-size="11" lengthAdjust="spacingAndGlyphs" textLength="51" x="339" y="1129.4526">random()</text><ellipse cx="330" cy="1139.0469" fill="#84BE84" rx="3" ry="3" style="stroke:#038048;stroke-width:1.0;"/><text fill="#000000" font-family="sans-serif" font-size="11" lengthAdjust="spacingAndGlyphs" textLength="136" x="339" y="1142.2573">equals(Object): boolean</text><!--MD5=[eee1b2c59fccd10800fe236232c65681]
class usantatecla.tictactoe.models.Game--><rect codeLine="42" fill="#FEFECE" filter="url(#fhcpkcps0j16m)" height="201.6563" id="usantatecla.tictactoe.models.Game" style="stroke:#A80036;stroke-width:1.5;" width="231" x="292.5" y="41"/><ellipse cx="386.25" cy="57" fill="#ADD1B2" rx="11" ry="11" style="stroke:#A80036;stroke-width:1.0;"/><path d="M388.5938,52.6719 C387.6563,52.2344 387.0625,52.0938 386.1875,52.0938 C383.5625,52.0938 381.5625,54.1719 381.5625,56.8906 L381.5625,58.0156 C381.5625,60.5938 383.6719,62.4844 386.5625,62.4844 C387.7813,62.4844 388.9375,62.1875 389.6875,61.6406 C390.2656,61.2344 390.5938,60.7813 390.5938,60.3906 C390.5938,59.9375 390.2031,59.5469 389.7344,59.5469 C389.5156,59.5469 389.3125,59.625 389.125,59.8125 C388.6719,60.2969 388.6719,60.2969 388.4844,60.3906 C388.0625,60.6563 387.375,60.7813 386.6094,60.7813 C384.5625,60.7813 383.2656,59.6875 383.2656,57.9844 L383.2656,56.8906 C383.2656,55.1094 384.5156,53.7969 386.25,53.7969 C386.8281,53.7969 387.4375,53.9531 387.9063,54.2031 C388.3906,54.4844 388.5625,54.7031 388.6563,55.1094 C388.7188,55.5156 388.75,55.6406 388.8906,55.7656 C389.0313,55.9063 389.2656,56.0156 389.4844,56.0156 C389.75,56.0156 390.0156,55.875 390.1875,55.6563 C390.2969,55.5 390.3281,55.3125 390.3281,54.8906 L390.3281,53.4688 C390.3281,53.0313 390.3125,52.9063 390.2188,52.75 C390.0625,52.4844 389.7813,52.3438 389.4844,52.3438 C389.1875,52.3438 388.9844,52.4375 388.7656,52.75 L388.5938,52.6719 Z " fill="#000000"/><text fill="#000000" font-family="sans-serif" font-size="12" lengthAdjust="spacingAndGlyphs" textLength="35" x="406.75" y="61.1543">Game</text><line style="stroke:#A80036;stroke-width:1.5;" x1="293.5" x2="522.5" y1="73" y2="73"/><line style="stroke:#A80036;stroke-width:1.5;" x1="293.5" x2="522.5" y1="81" y2="81"/><ellipse cx="303.5" cy="92" fill="#84BE84" rx="3" ry="3" style="stroke:#038048;stroke-width:1.0;"/><text fill="#000000" font-family="sans-serif" font-size="11" lengthAdjust="spacingAndGlyphs" textLength="43" x="312.5" y="95.2104">Game()</text><ellipse cx="303.5" cy="104.8047" fill="#84BE84" rx="3" ry="3" style="stroke:#038048;stroke-width:1.0;"/><text fill="#000000" font-family="sans-serif" font-size="11" lengthAdjust="spacingAndGlyphs" textLength="72" x="312.5" y="108.0151">setUsers(int)</text><ellipse cx="303.5" cy="117.6094" fill="#84BE84" rx="3" ry="3" style="stroke:#038048;stroke-width:1.0;"/><text fill="#000000" font-family="sans-serif" font-size="11" lengthAdjust="spacingAndGlyphs" textLength="159" x="312.5" y="120.8198">isBoardComplete(): boolean</text><ellipse cx="303.5" cy="130.4141" fill="#84BE84" rx="3" ry="3" style="stroke:#038048;stroke-width:1.0;"/><text fill="#000000" font-family="sans-serif" font-size="11" lengthAdjust="spacingAndGlyphs" textLength="96" x="312.5" y="133.6245">isUser(): boolean</text><ellipse cx="303.5" cy="143.2188" fill="#84BE84" rx="3" ry="3" style="stroke:#038048;stroke-width:1.0;"/><text fill="#000000" font-family="sans-serif" font-size="11" lengthAdjust="spacingAndGlyphs" textLength="121" x="312.5" y="146.4292">put(Coordinate): Error</text><ellipse cx="303.5" cy="156.0234" fill="#84BE84" rx="3" ry="3" style="stroke:#038048;stroke-width:1.0;"/><text fill="#000000" font-family="sans-serif" font-size="11" lengthAdjust="spacingAndGlyphs" textLength="205" x="312.5" y="159.2339">move(Coordinate, Coordinate): Error</text><ellipse cx="303.5" cy="168.8281" fill="#84BE84" rx="3" ry="3" style="stroke:#038048;stroke-width:1.0;"/><text fill="#000000" font-family="sans-serif" font-size="11" lengthAdjust="spacingAndGlyphs" textLength="34" x="312.5" y="172.0386">next()</text><ellipse cx="303.5" cy="181.6328" fill="#84BE84" rx="3" ry="3" style="stroke:#038048;stroke-width:1.0;"/><text fill="#000000" font-family="sans-serif" font-size="11" lengthAdjust="spacingAndGlyphs" textLength="128" x="312.5" y="184.8433">isTicTacToe(): boolean</text><ellipse cx="303.5" cy="194.4375" fill="#84BE84" rx="3" ry="3" style="stroke:#038048;stroke-width:1.0;"/><text fill="#000000" font-family="sans-serif" font-size="11" lengthAdjust="spacingAndGlyphs" textLength="166" x="312.5" y="197.6479">getToken(Coordinate): Token</text><ellipse cx="303.5" cy="207.2422" fill="#84BE84" rx="3" ry="3" style="stroke:#038048;stroke-width:1.0;"/><text fill="#000000" font-family="sans-serif" font-size="11" lengthAdjust="spacingAndGlyphs" textLength="104" x="312.5" y="210.4526">getToken(): Token</text><ellipse cx="303.5" cy="220.0469" fill="#84BE84" rx="3" ry="3" style="stroke:#038048;stroke-width:1.0;"/><text fill="#000000" font-family="sans-serif" font-size="11" lengthAdjust="spacingAndGlyphs" textLength="112" x="312.5" y="223.2573">getMaxPlayers(): int</text><ellipse cx="303.5" cy="232.8516" fill="#84BE84" rx="3" ry="3" style="stroke:#038048;stroke-width:1.0;"/><text fill="#000000" font-family="sans-serif" font-size="11" lengthAdjust="spacingAndGlyphs" textLength="38" x="312.5" y="236.062">reset()</text><!--MD5=[9158ed6eed4075ab14f41f8779a1a6f9]
class usantatecla.tictactoe.models.Turn--><rect codeLine="72" fill="#FEFECE" filter="url(#fhcpkcps0j16m)" height="188.8516" id="usantatecla.tictactoe.models.Turn" style="stroke:#A80036;stroke-width:1.5;" width="231" x="255.5" y="303"/><ellipse cx="353.75" cy="319" fill="#ADD1B2" rx="11" ry="11" style="stroke:#A80036;stroke-width:1.0;"/><path d="M356.0938,314.6719 C355.1563,314.2344 354.5625,314.0938 353.6875,314.0938 C351.0625,314.0938 349.0625,316.1719 349.0625,318.8906 L349.0625,320.0156 C349.0625,322.5938 351.1719,324.4844 354.0625,324.4844 C355.2813,324.4844 356.4375,324.1875 357.1875,323.6406 C357.7656,323.2344 358.0938,322.7813 358.0938,322.3906 C358.0938,321.9375 357.7031,321.5469 357.2344,321.5469 C357.0156,321.5469 356.8125,321.625 356.625,321.8125 C356.1719,322.2969 356.1719,322.2969 355.9844,322.3906 C355.5625,322.6563 354.875,322.7813 354.1094,322.7813 C352.0625,322.7813 350.7656,321.6875 350.7656,319.9844 L350.7656,318.8906 C350.7656,317.1094 352.0156,315.7969 353.75,315.7969 C354.3281,315.7969 354.9375,315.9531 355.4063,316.2031 C355.8906,316.4844 356.0625,316.7031 356.1563,317.1094 C356.2188,317.5156 356.25,317.6406 356.3906,317.7656 C356.5313,317.9063 356.7656,318.0156 356.9844,318.0156 C357.25,318.0156 357.5156,317.875 357.6875,317.6563 C357.7969,317.5 357.8281,317.3125 357.8281,316.8906 L357.8281,315.4688 C357.8281,315.0313 357.8125,314.9063 357.7188,314.75 C357.5625,314.4844 357.2813,314.3438 356.9844,314.3438 C356.6875,314.3438 356.4844,314.4375 356.2656,314.75 L356.0938,314.6719 Z " fill="#000000"/><text fill="#000000" font-family="sans-serif" font-size="12" lengthAdjust="spacingAndGlyphs" textLength="26" x="374.25" y="323.1543">Turn</text><line style="stroke:#A80036;stroke-width:1.5;" x1="256.5" x2="485.5" y1="335" y2="335"/><rect fill="none" height="6" style="stroke:#C82930;stroke-width:1.0;" width="6" x="263.5" y="343"/><text fill="#000000" font-family="sans-serif" font-size="11" lengthAdjust="spacingAndGlyphs" text-decoration="underline" textLength="101" x="275.5" y="349.2104">NUM_PLAYERS: int</text><rect fill="none" height="6" style="stroke:#C82930;stroke-width:1.0;" width="6" x="263.5" y="355.8047"/><text fill="#000000" font-family="sans-serif" font-size="11" lengthAdjust="spacingAndGlyphs" textLength="56" x="275.5" y="362.0151">active: int</text><rect fill="none" height="6" style="stroke:#C82930;stroke-width:1.0;" width="6" x="263.5" y="368.6094"/><text fill="#000000" font-family="sans-serif" font-size="11" lengthAdjust="spacingAndGlyphs" textLength="52" x="275.5" y="374.8198">users: int</text><line style="stroke:#A80036;stroke-width:1.5;" x1="256.5" x2="485.5" y1="381.4141" y2="381.4141"/><polygon fill="#4177AF" points="266.5,388.4141,262.5,394.4141,270.5,394.4141" style="stroke:#1963A0;stroke-width:1.0;"/><text fill="#000000" font-family="sans-serif" font-size="11" lengthAdjust="spacingAndGlyphs" textLength="66" x="275.5" y="395.6245">Turn(Board)</text><polygon fill="#4177AF" points="266.5,401.2188,262.5,407.2188,270.5,407.2188" style="stroke:#1963A0;stroke-width:1.0;"/><text fill="#000000" font-family="sans-serif" font-size="11" lengthAdjust="spacingAndGlyphs" textLength="72" x="275.5" y="408.4292">setUsers(int)</text><polygon fill="#4177AF" points="266.5,414.0234,262.5,420.0234,270.5,420.0234" style="stroke:#1963A0;stroke-width:1.0;"/><text fill="#000000" font-family="sans-serif" font-size="11" lengthAdjust="spacingAndGlyphs" textLength="34" x="275.5" y="421.2339">next()</text><polygon fill="#4177AF" points="266.5,426.8281,262.5,432.8281,270.5,432.8281" style="stroke:#1963A0;stroke-width:1.0;"/><text fill="#000000" font-family="sans-serif" font-size="11" lengthAdjust="spacingAndGlyphs" textLength="96" x="275.5" y="434.0386">isUser(): boolean</text><polygon fill="#4177AF" points="266.5,439.6328,262.5,445.6328,270.5,445.6328" style="stroke:#1963A0;stroke-width:1.0;"/><text fill="#000000" font-family="sans-serif" font-size="11" lengthAdjust="spacingAndGlyphs" textLength="121" x="275.5" y="446.8433">put(Coordinate): Error</text><rect fill="#F24D5C" height="6" style="stroke:#C82930;stroke-width:1.0;" width="6" x="263.5" y="453.4375"/><text fill="#000000" font-family="sans-serif" font-size="11" lengthAdjust="spacingAndGlyphs" textLength="104" x="275.5" y="459.6479">getPlayer(): Player</text><polygon fill="#4177AF" points="266.5,465.2422,262.5,471.2422,270.5,471.2422" style="stroke:#1963A0;stroke-width:1.0;"/><text fill="#000000" font-family="sans-serif" font-size="11" lengthAdjust="spacingAndGlyphs" textLength="205" x="275.5" y="472.4526">move(Coordinate, Coordinate): Error</text><polygon fill="#4177AF" points="266.5,478.0469,262.5,484.0469,270.5,484.0469" style="stroke:#1963A0;stroke-width:1.0;"/><text fill="#000000" font-family="sans-serif" font-size="11" lengthAdjust="spacingAndGlyphs" textLength="104" x="275.5" y="485.2573">getToken(): Token</text><!--MD5=[9293ee1b090cd827e675b276e1bc5a72]
class usantatecla.tictactoe.models.Player--><rect codeLine="61" fill="#FEFECE" filter="url(#fhcpkcps0j16m)" height="99.2188" id="usantatecla.tictactoe.models.Player" style="stroke:#A80036;stroke-width:1.5;" width="231" x="237.5" y="552"/><ellipse cx="330.75" cy="568" fill="#ADD1B2" rx="11" ry="11" style="stroke:#A80036;stroke-width:1.0;"/><path d="M333.0938,563.6719 C332.1563,563.2344 331.5625,563.0938 330.6875,563.0938 C328.0625,563.0938 326.0625,565.1719 326.0625,567.8906 L326.0625,569.0156 C326.0625,571.5938 328.1719,573.4844 331.0625,573.4844 C332.2813,573.4844 333.4375,573.1875 334.1875,572.6406 C334.7656,572.2344 335.0938,571.7813 335.0938,571.3906 C335.0938,570.9375 334.7031,570.5469 334.2344,570.5469 C334.0156,570.5469 333.8125,570.625 333.625,570.8125 C333.1719,571.2969 333.1719,571.2969 332.9844,571.3906 C332.5625,571.6563 331.875,571.7813 331.1094,571.7813 C329.0625,571.7813 327.7656,570.6875 327.7656,568.9844 L327.7656,567.8906 C327.7656,566.1094 329.0156,564.7969 330.75,564.7969 C331.3281,564.7969 331.9375,564.9531 332.4063,565.2031 C332.8906,565.4844 333.0625,565.7031 333.1563,566.1094 C333.2188,566.5156 333.25,566.6406 333.3906,566.7656 C333.5313,566.9063 333.7656,567.0156 333.9844,567.0156 C334.25,567.0156 334.5156,566.875 334.6875,566.6563 C334.7969,566.5 334.8281,566.3125 334.8281,565.8906 L334.8281,564.4688 C334.8281,564.0313 334.8125,563.9063 334.7188,563.75 C334.5625,563.4844 334.2813,563.3438 333.9844,563.3438 C333.6875,563.3438 333.4844,563.4375 333.2656,563.75 L333.0938,563.6719 Z " fill="#000000"/><text fill="#000000" font-family="sans-serif" font-size="12" lengthAdjust="spacingAndGlyphs" textLength="36" x="351.25" y="572.1543">Player</text><line style="stroke:#A80036;stroke-width:1.5;" x1="238.5" x2="467.5" y1="584" y2="584"/><line style="stroke:#A80036;stroke-width:1.5;" x1="238.5" x2="467.5" y1="592" y2="592"/><polygon fill="#4177AF" points="248.5,599,244.5,605,252.5,605" style="stroke:#1963A0;stroke-width:1.0;"/><text fill="#000000" font-family="sans-serif" font-size="11" lengthAdjust="spacingAndGlyphs" textLength="118" x="257.5" y="606.2104">Player(Token, Board)</text><polygon fill="#4177AF" points="248.5,611.8047,244.5,617.8047,252.5,617.8047" style="stroke:#1963A0;stroke-width:1.0;"/><text fill="#000000" font-family="sans-serif" font-size="11" lengthAdjust="spacingAndGlyphs" textLength="121" x="257.5" y="619.0151">put(Coordinate): Error</text><polygon fill="#4177AF" points="248.5,624.6094,244.5,630.6094,252.5,630.6094" style="stroke:#1963A0;stroke-width:1.0;"/><text fill="#000000" font-family="sans-serif" font-size="11" lengthAdjust="spacingAndGlyphs" textLength="205" x="257.5" y="631.8198">move(Coordinate, Coordinate): Error</text><polygon fill="#4177AF" points="248.5,637.4141,244.5,643.4141,252.5,643.4141" style="stroke:#1963A0;stroke-width:1.0;"/><text fill="#000000" font-family="sans-serif" font-size="11" lengthAdjust="spacingAndGlyphs" textLength="104" x="257.5" y="644.6245">getToken(): Token</text><!--MD5=[b8cfd8c4119a3b0a7a46bfc5fc780f85]
class Error--><rect codeLine="1" fill="#FEFECE" filter="url(#fhcpkcps0j16m)" height="67.9063" id="Error" style="stroke:#A80036;stroke-width:1.5;" width="124" x="758" y="1209"/><ellipse cx="773" cy="1234.9531" fill="#EB937F" rx="11" ry="11" style="stroke:#A80036;stroke-width:1.0;"/><path d="M771.7969,1235.8281 L773.25,1235.8281 L773.25,1235.9375 C773.25,1236.3438 773.2813,1236.5 773.3594,1236.6563 C773.5156,1236.9063 773.7969,1237.0625 774.0938,1237.0625 C774.3438,1237.0625 774.6094,1236.9219 774.7656,1236.7031 C774.8906,1236.5469 774.9219,1236.3906 774.9219,1235.9375 L774.9219,1234.0156 C774.9219,1233.8594 774.9219,1233.8125 774.9063,1233.6563 C774.8438,1233.1875 774.5313,1232.875 774.0781,1232.875 C773.8281,1232.875 773.5625,1233.0156 773.3906,1233.2344 C773.2813,1233.4063 773.25,1233.5625 773.25,1234.0156 L773.25,1234.1406 L771.7969,1234.1406 L771.7969,1231.7344 L775.7813,1231.7344 L775.7813,1232.5938 C775.7813,1233 775.8125,1233.1719 775.8906,1233.3281 C776.0625,1233.5781 776.3438,1233.7344 776.625,1233.7344 C776.8906,1233.7344 777.1563,1233.5938 777.3281,1233.375 C777.4375,1233.2031 777.4688,1233.0625 777.4688,1232.5938 L777.4688,1230.0469 L769.8438,1230.0469 C769.4063,1230.0469 769.2813,1230.0625 769.125,1230.1563 C768.875,1230.3125 768.7188,1230.6094 768.7188,1230.8906 C768.7188,1231.1719 768.8594,1231.4219 769.0781,1231.5938 C769.2344,1231.7031 769.4219,1231.7344 769.8438,1231.7344 L770.0938,1231.7344 L770.0938,1238.25 L769.8438,1238.25 C769.4375,1238.25 769.2813,1238.2656 769.125,1238.375 C768.875,1238.5469 768.7188,1238.8125 768.7188,1239.1094 C768.7188,1239.375 768.8594,1239.625 769.0781,1239.7813 C769.2188,1239.9063 769.4531,1239.9531 769.8438,1239.9531 L777.8438,1239.9531 L777.8438,1237.375 C777.8438,1236.9375 777.8125,1236.7969 777.7344,1236.6406 C777.5625,1236.3906 777.2813,1236.2344 777,1236.2344 C776.7344,1236.2344 776.4688,1236.3438 776.2969,1236.5938 C776.1875,1236.75 776.1563,1236.8906 776.1563,1237.375 L776.1563,1238.25 L771.7969,1238.25 L771.7969,1235.8281 Z " fill="#000000"/><text fill="#000000" font-family="sans-serif" font-size="12" lengthAdjust="spacingAndGlyphs" textLength="71" x="797.5" y="1225.1387">usantatecla.</text><text fill="#000000" font-family="sans-serif" font-size="12" lengthAdjust="spacingAndGlyphs" textLength="92" x="787" y="1239.1074">tictactoe.types.</text><text fill="#000000" font-family="sans-serif" font-size="12" lengthAdjust="spacingAndGlyphs" textLength="30" x="818" y="1253.0762">Error</text><line style="stroke:#A80036;stroke-width:1.5;" x1="759" x2="881" y1="1260.9063" y2="1260.9063"/><line style="stroke:#A80036;stroke-width:1.5;" x1="759" x2="881" y1="1268.9063" y2="1268.9063"/><!--MD5=[d8c8cfd5ca149094f5b67f9f607a5ec7]
class Token--><rect codeLine="2" fill="#FEFECE" filter="url(#fhcpkcps0j16m)" height="67.9063" id="Token" style="stroke:#A80036;stroke-width:1.5;" width="124" x="7" y="1020.5"/><ellipse cx="22" cy="1046.4531" fill="#EB937F" rx="11" ry="11" style="stroke:#A80036;stroke-width:1.0;"/><path d="M20.7969,1047.3281 L22.25,1047.3281 L22.25,1047.4375 C22.25,1047.8438 22.2813,1048 22.3594,1048.1563 C22.5156,1048.4063 22.7969,1048.5625 23.0938,1048.5625 C23.3438,1048.5625 23.6094,1048.4219 23.7656,1048.2031 C23.8906,1048.0469 23.9219,1047.8906 23.9219,1047.4375 L23.9219,1045.5156 C23.9219,1045.3594 23.9219,1045.3125 23.9063,1045.1563 C23.8438,1044.6875 23.5313,1044.375 23.0781,1044.375 C22.8281,1044.375 22.5625,1044.5156 22.3906,1044.7344 C22.2813,1044.9063 22.25,1045.0625 22.25,1045.5156 L22.25,1045.6406 L20.7969,1045.6406 L20.7969,1043.2344 L24.7813,1043.2344 L24.7813,1044.0938 C24.7813,1044.5 24.8125,1044.6719 24.8906,1044.8281 C25.0625,1045.0781 25.3438,1045.2344 25.625,1045.2344 C25.8906,1045.2344 26.1563,1045.0938 26.3281,1044.875 C26.4375,1044.7031 26.4688,1044.5625 26.4688,1044.0938 L26.4688,1041.5469 L18.8438,1041.5469 C18.4063,1041.5469 18.2813,1041.5625 18.125,1041.6563 C17.875,1041.8125 17.7188,1042.1094 17.7188,1042.3906 C17.7188,1042.6719 17.8594,1042.9219 18.0781,1043.0938 C18.2344,1043.2031 18.4219,1043.2344 18.8438,1043.2344 L19.0938,1043.2344 L19.0938,1049.75 L18.8438,1049.75 C18.4375,1049.75 18.2813,1049.7656 18.125,1049.875 C17.875,1050.0469 17.7188,1050.3125 17.7188,1050.6094 C17.7188,1050.875 17.8594,1051.125 18.0781,1051.2813 C18.2188,1051.4063 18.4531,1051.4531 18.8438,1051.4531 L26.8438,1051.4531 L26.8438,1048.875 C26.8438,1048.4375 26.8125,1048.2969 26.7344,1048.1406 C26.5625,1047.8906 26.2813,1047.7344 26,1047.7344 C25.7344,1047.7344 25.4688,1047.8438 25.2969,1048.0938 C25.1875,1048.25 25.1563,1048.3906 25.1563,1048.875 L25.1563,1049.75 L20.7969,1049.75 L20.7969,1047.3281 Z " fill="#000000"/><text fill="#000000" font-family="sans-serif" font-size="12" lengthAdjust="spacingAndGlyphs" textLength="71" x="46.5" y="1036.6387">usantatecla.</text><text fill="#000000" font-family="sans-serif" font-size="12" lengthAdjust="spacingAndGlyphs" textLength="92" x="36" y="1050.6074">tictactoe.types.</text><text fill="#000000" font-family="sans-serif" font-size="12" lengthAdjust="spacingAndGlyphs" textLength="37" x="63.5" y="1064.5762">Token</text><line style="stroke:#A80036;stroke-width:1.5;" x1="8" x2="130" y1="1072.4063" y2="1072.4063"/><line style="stroke:#A80036;stroke-width:1.5;" x1="8" x2="130" y1="1080.4063" y2="1080.4063"/><!--MD5=[02f7077ed79257124e28b791f351f1d7]
class Direction--><rect codeLine="3" fill="#FEFECE" filter="url(#fhcpkcps0j16m)" height="53.9375" id="Direction" style="stroke:#A80036;stroke-width:1.5;" width="130" x="201" y="1216"/><ellipse cx="216" cy="1234.9688" fill="#ADD1B2" rx="11" ry="11" style="stroke:#A80036;stroke-width:1.0;"/><path d="M218.3438,1230.6406 C217.4063,1230.2031 216.8125,1230.0625 215.9375,1230.0625 C213.3125,1230.0625 211.3125,1232.1406 211.3125,1234.8594 L211.3125,1235.9844 C211.3125,1238.5625 213.4219,1240.4531 216.3125,1240.4531 C217.5313,1240.4531 218.6875,1240.1563 219.4375,1239.6094 C220.0156,1239.2031 220.3438,1238.75 220.3438,1238.3594 C220.3438,1237.9063 219.9531,1237.5156 219.4844,1237.5156 C219.2656,1237.5156 219.0625,1237.5938 218.875,1237.7813 C218.4219,1238.2656 218.4219,1238.2656 218.2344,1238.3594 C217.8125,1238.625 217.125,1238.75 216.3594,1238.75 C214.3125,1238.75 213.0156,1237.6563 213.0156,1235.9531 L213.0156,1234.8594 C213.0156,1233.0781 214.2656,1231.7656 216,1231.7656 C216.5781,1231.7656 217.1875,1231.9219 217.6563,1232.1719 C218.1406,1232.4531 218.3125,1232.6719 218.4063,1233.0781 C218.4688,1233.4844 218.5,1233.6094 218.6406,1233.7344 C218.7813,1233.875 219.0156,1233.9844 219.2344,1233.9844 C219.5,1233.9844 219.7656,1233.8438 219.9375,1233.625 C220.0469,1233.4688 220.0781,1233.2813 220.0781,1232.8594 L220.0781,1231.4375 C220.0781,1231 220.0625,1230.875 219.9688,1230.7188 C219.8125,1230.4531 219.5313,1230.3125 219.2344,1230.3125 C218.9375,1230.3125 218.7344,1230.4063 218.5156,1230.7188 L218.3438,1230.6406 Z " fill="#000000"/><text fill="#000000" font-family="sans-serif" font-size="12" lengthAdjust="spacingAndGlyphs" textLength="98" x="230" y="1232.1387">usantatecla.utils.</text><text fill="#000000" font-family="sans-serif" font-size="12" lengthAdjust="spacingAndGlyphs" textLength="54" x="252" y="1246.1074">Direction</text><line style="stroke:#A80036;stroke-width:1.5;" x1="202" x2="330" y1="1253.9375" y2="1253.9375"/><line style="stroke:#A80036;stroke-width:1.5;" x1="202" x2="330" y1="1261.9375" y2="1261.9375"/><!--MD5=[4ac948797cb0d646e058fac8f0726737]
class ConcreteCoordinate--><rect codeLine="4" fill="#FEFECE" filter="url(#fhcpkcps0j16m)" height="53.9375" id="ConcreteCoordinate" style="stroke:#A80036;stroke-width:1.5;" width="153" x="578.5" y="778.5"/><ellipse cx="593.5" cy="797.4688" fill="#ADD1B2" rx="11" ry="11" style="stroke:#A80036;stroke-width:1.0;"/><path d="M595.8438,793.1406 C594.9063,792.7031 594.3125,792.5625 593.4375,792.5625 C590.8125,792.5625 588.8125,794.6406 588.8125,797.3594 L588.8125,798.4844 C588.8125,801.0625 590.9219,802.9531 593.8125,802.9531 C595.0313,802.9531 596.1875,802.6563 596.9375,802.1094 C597.5156,801.7031 597.8438,801.25 597.8438,800.8594 C597.8438,800.4063 597.4531,800.0156 596.9844,800.0156 C596.7656,800.0156 596.5625,800.0938 596.375,800.2813 C595.9219,800.7656 595.9219,800.7656 595.7344,800.8594 C595.3125,801.125 594.625,801.25 593.8594,801.25 C591.8125,801.25 590.5156,800.1563 590.5156,798.4531 L590.5156,797.3594 C590.5156,795.5781 591.7656,794.2656 593.5,794.2656 C594.0781,794.2656 594.6875,794.4219 595.1563,794.6719 C595.6406,794.9531 595.8125,795.1719 595.9063,795.5781 C595.9688,795.9844 596,796.1094 596.1406,796.2344 C596.2813,796.375 596.5156,796.4844 596.7344,796.4844 C597,796.4844 597.2656,796.3438 597.4375,796.125 C597.5469,795.9688 597.5781,795.7813 597.5781,795.3594 L597.5781,793.9375 C597.5781,793.5 597.5625,793.375 597.4688,793.2188 C597.3125,792.9531 597.0313,792.8125 596.7344,792.8125 C596.4375,792.8125 596.2344,792.9063 596.0156,793.2188 L595.8438,793.1406 Z " fill="#000000"/><text fill="#000000" font-family="sans-serif" font-size="12" lengthAdjust="spacingAndGlyphs" textLength="98" x="619" y="794.6387">usantatecla.utils.</text><text fill="#000000" font-family="sans-serif" font-size="12" lengthAdjust="spacingAndGlyphs" textLength="121" x="607.5" y="808.6074">ConcreteCoordinate</text><line style="stroke:#A80036;stroke-width:1.5;" x1="579.5" x2="730.5" y1="816.4375" y2="816.4375"/><line style="stroke:#A80036;stroke-width:1.5;" x1="579.5" x2="730.5" y1="824.4375" y2="824.4375"/><!--MD5=[f0e50675208408ddbf1ed7a91f4eb071]
class ClosedInterval--><rect codeLine="5" fill="#FEFECE" filter="url(#fhcpkcps0j16m)" height="53.9375" id="ClosedInterval" style="stroke:#A80036;stroke-width:1.5;" width="130" x="366" y="1216"/><ellipse cx="381" cy="1234.9688" fill="#ADD1B2" rx="11" ry="11" style="stroke:#A80036;stroke-width:1.0;"/><path d="M383.3438,1230.6406 C382.4063,1230.2031 381.8125,1230.0625 380.9375,1230.0625 C378.3125,1230.0625 376.3125,1232.1406 376.3125,1234.8594 L376.3125,1235.9844 C376.3125,1238.5625 378.4219,1240.4531 381.3125,1240.4531 C382.5313,1240.4531 383.6875,1240.1563 384.4375,1239.6094 C385.0156,1239.2031 385.3438,1238.75 385.3438,1238.3594 C385.3438,1237.9063 384.9531,1237.5156 384.4844,1237.5156 C384.2656,1237.5156 384.0625,1237.5938 383.875,1237.7813 C383.4219,1238.2656 383.4219,1238.2656 383.2344,1238.3594 C382.8125,1238.625 382.125,1238.75 381.3594,1238.75 C379.3125,1238.75 378.0156,1237.6563 378.0156,1235.9531 L378.0156,1234.8594 C378.0156,1233.0781 379.2656,1231.7656 381,1231.7656 C381.5781,1231.7656 382.1875,1231.9219 382.6563,1232.1719 C383.1406,1232.4531 383.3125,1232.6719 383.4063,1233.0781 C383.4688,1233.4844 383.5,1233.6094 383.6406,1233.7344 C383.7813,1233.875 384.0156,1233.9844 384.2344,1233.9844 C384.5,1233.9844 384.7656,1233.8438 384.9375,1233.625 C385.0469,1233.4688 385.0781,1233.2813 385.0781,1232.8594 L385.0781,1231.4375 C385.0781,1231 385.0625,1230.875 384.9688,1230.7188 C384.8125,1230.4531 384.5313,1230.3125 384.2344,1230.3125 C383.9375,1230.3125 383.7344,1230.4063 383.5156,1230.7188 L383.3438,1230.6406 Z " fill="#000000"/><text fill="#000000" font-family="sans-serif" font-size="12" lengthAdjust="spacingAndGlyphs" textLength="98" x="395" y="1232.1387">usantatecla.utils.</text><text fill="#000000" font-family="sans-serif" font-size="12" lengthAdjust="spacingAndGlyphs" textLength="86" x="401" y="1246.1074">ClosedInterval</text><line style="stroke:#A80036;stroke-width:1.5;" x1="367" x2="495" y1="1253.9375" y2="1253.9375"/><line style="stroke:#A80036;stroke-width:1.5;" x1="367" x2="495" y1="1261.9375" y2="1261.9375"/><!--MD5=[cc32590b38ae7e5471c6aa936c3a1dd1]
link usantatecla.tictactoe.models.Board to Token--><path codeLine="20" d="M194.1453,908.8325 C194.1453,908.8325 161.699,943.559 147,960 C132.668,976.03 117.411,994.083 104.2266,1010.021 " fill="none" id="usantatecla.tictactoe.models.Board-Token" style="stroke:#A80036;stroke-width:1.0;"/><polygon fill="#A80036" points="95.8924,1020.146,104.7004,1015.7393,99.07,1016.2856,98.5237,1010.6551,95.8924,1020.146" style="stroke:#A80036;stroke-width:1.0;"/><line style="stroke:#A80036;stroke-width:1.0;" x1="99.07" x2="104.1541" y1="1016.2856" y2="1010.1085"/><polygon fill="#A80036" points="202.396,900.119,195.3661,901.7255,194.1453,908.8325,201.1752,907.226,202.396,900.119" style="stroke:#A80036;stroke-width:1.0;"/><text fill="#000000" font-family="sans-serif" font-size="13" lengthAdjust="spacingAndGlyphs" textLength="7" x="93.2054" y="1009.5169">*</text><!--MD5=[0a244bf90a6a03bcbfc02cfa9c9815cd]
link usantatecla.tictactoe.models.Board to usantatecla.tictactoe.models.Coordinate--><path codeLine="21" d="M345.989,900.232 C355.968,918.223 366.444,937.111 376.499,955.24 " fill="none" id="usantatecla.tictactoe.models.Board-to-usantatecla.tictactoe.models.Coordinate" style="stroke:#A80036;stroke-width:1.0;stroke-dasharray:7.0,7.0;"/><polygon fill="#A80036" points="379.046,959.832,378.1767,950.0216,376.62,955.46,371.1815,953.9032,379.046,959.832" style="stroke:#A80036;stroke-width:1.0;"/><!--MD5=[60bb1f846e7909598abfb60db929abdc]
link usantatecla.tictactoe.models.Board to Direction--><path codeLine="22" d="M287.976,900.193 C281.676,998.184 272.142,1146.475 268.018,1210.6129 " fill="none" id="usantatecla.tictactoe.models.Board-to-Direction" style="stroke:#A80036;stroke-width:1.0;stroke-dasharray:7.0,7.0;"/><polygon fill="#A80036" points="267.683,1215.8196,272.2523,1207.0948,268.0038,1210.8299,264.2688,1206.5815,267.683,1215.8196" style="stroke:#A80036;stroke-width:1.0;"/><!--MD5=[1a366a2a905aca3f81b143874f227505]
reverse link ConcreteCoordinate to usantatecla.tictactoe.models.Coordinate--><path codeLine="37" d="M617.255,848.121 C589.571,878.648 550.87,921.322 515.914,959.867 " fill="none" id="ConcreteCoordinate-backto-usantatecla.tictactoe.models.Coordinate" style="stroke:#A80036;stroke-width:1.0;"/><polygon fill="none" points="612.407,843.046,631.028,832.933,622.778,852.451,612.407,843.046" style="stroke:#A80036;stroke-width:1.0;"/><!--MD5=[b2e5f578ae29c8bdbdd53c5d82a753ee]
link usantatecla.tictactoe.models.Coordinate to Error--><path codeLine="38" d="M543.254,1109.318 C611.14,1141.865 695.411,1182.2677 753.01,1209.8826 " fill="none" id="usantatecla.tictactoe.models.Coordinate-to-Error" style="stroke:#A80036;stroke-width:1.0;stroke-dasharray:7.0,7.0;"/><polygon fill="#A80036" points="757.803,1212.1808,751.4165,1204.6833,753.2943,1210.0194,747.9582,1211.8972,757.803,1212.1808" style="stroke:#A80036;stroke-width:1.0;"/><!--MD5=[ce921d8d8d92a42095f2f8e02d1ff115]
link usantatecla.tictactoe.models.Coordinate to Direction--><path codeLine="39" d="M348.258,1149.023 C328.074,1171.837 307.91,1194.6291 292.597,1211.9372 " fill="none" id="usantatecla.tictactoe.models.Coordinate-to-Direction" style="stroke:#A80036;stroke-width:1.0;stroke-dasharray:7.0,7.0;"/><polygon fill="#A80036" points="289.208,1215.7678,298.1677,1211.6783,292.5214,1212.0233,292.1764,1206.3769,289.208,1215.7678" style="stroke:#A80036;stroke-width:1.0;"/><!--MD5=[08e3c000067c6e67a86d7200651b1f23]
link usantatecla.tictactoe.models.Coordinate to ClosedInterval--><path codeLine="40" d="M431,1149.023 C431,1171.262 431,1193.4799 431,1210.6178 " fill="none" id="usantatecla.tictactoe.models.Coordinate-to-ClosedInterval" style="stroke:#A80036;stroke-width:1.0;stroke-dasharray:7.0,7.0;"/><polygon fill="#A80036" points="431,1215.7678,435,1206.7678,431,1210.7678,427,1206.7678,431,1215.7678" style="stroke:#A80036;stroke-width:1.0;"/><!--MD5=[2a44b7f86c915b3b89a3ea3b726e44f2]
link usantatecla.tictactoe.models.Game to usantatecla.tictactoe.models.Board--><path codeLine="56" d="M284.1171,239.7566 C284.1171,239.7566 249.636,280.522 238,303 C166.539,441.048 161.902,501.084 203,651 C207.438,667.19 214.075,683.404 221.78,698.906 " fill="none" id="usantatecla.tictactoe.models.Game-usantatecla.tictactoe.models.Board" style="stroke:#A80036;stroke-width:1.0;"/><polygon fill="#A80036" points="227.862,710.609,227.2606,700.7785,225.5561,706.1725,220.1622,704.468,227.862,710.609" style="stroke:#A80036;stroke-width:1.0;"/><line style="stroke:#A80036;stroke-width:1.0;" x1="225.5561" x2="221.8675" y1="706.1725" y2="699.0735"/><polygon fill="#A80036" points="292.438,231.11,285.3954,232.6597,284.1171,239.7566,291.1598,238.2069,292.438,231.11" style="stroke:#A80036;stroke-width:1.0;"/><!--MD5=[2279a89fdb49ee50628abaa13047b73f]
link usantatecla.tictactoe.models.Game to usantatecla.tictactoe.models.Turn--><path codeLine="57" d="M391.6493,255.065 C391.6493,255.065 388.188,278.737 386.564,289.867 " fill="none" id="usantatecla.tictactoe.models.Game-usantatecla.tictactoe.models.Turn" style="stroke:#A80036;stroke-width:1.0;"/><polygon fill="#A80036" points="384.674,302.815,389.9316,294.4869,385.3959,297.8674,382.0154,293.3318,384.674,302.815" style="stroke:#A80036;stroke-width:1.0;"/><line style="stroke:#A80036;stroke-width:1.0;" x1="385.3959" x2="386.5515" y1="297.8674" y2="289.951"/><polygon fill="#A80036" points="393.377,243.19,388.5548,248.5516,391.6493,255.065,396.4715,249.7034,393.377,243.19" style="stroke:#A80036;stroke-width:1.0;"/><!--MD5=[1e4f2f26b12acd4b92af2ff0b70011a1]
link usantatecla.tictactoe.models.Game to usantatecla.tictactoe.models.Coordinate--><path codeLine="58" d="M479.122,243.42 C489.363,262.42 498.339,282.719 504,303 C575.34,558.563 562.93,641.293 504,900 C499.836,918.278 493.244,936.938 485.684,954.663 " fill="none" id="usantatecla.tictactoe.models.Game-to-usantatecla.tictactoe.models.Coordinate" style="stroke:#A80036;stroke-width:1.0;stroke-dasharray:7.0,7.0;"/><polygon fill="#A80036" points="483.528,959.637,490.7794,952.9724,485.5179,955.05,483.4403,949.7885,483.528,959.637" style="stroke:#A80036;stroke-width:1.0;"/><!--MD5=[5df6dbdf0d54b773f3560e70ef5a6051]
link usantatecla.tictactoe.models.Game to Error--><path codeLine="59" d="M523.505,185.12 C676.437,249.22 927,386.847 927,600.5 C927,600.5 927,600.5 927,806.5 C927,971.02 940.12,1021.916 875,1173 C870.172,1184.2017 863.026,1195.1104 855.472,1204.8247 " fill="none" id="usantatecla.tictactoe.models.Game-to-Error" style="stroke:#A80036;stroke-width:1.0;stroke-dasharray:7.0,7.0;"/><polygon fill="#A80036" points="852.215,1208.9122,860.9513,1204.365,855.3304,1205.0014,854.694,1199.3804,852.215,1208.9122" style="stroke:#A80036;stroke-width:1.0;"/><!--MD5=[7e80d24f4ca7ef13f982fc2ec3031016]
link usantatecla.tictactoe.models.Player to usantatecla.tictactoe.models.Board--><path codeLine="67" d="M335.429,662.6598 C335.429,662.6598 328.518,686.321 325.092,698.05 " fill="none" id="usantatecla.tictactoe.models.Player-usantatecla.tictactoe.models.Board" style="stroke:#A80036;stroke-width:1.0;"/><polygon fill="#A80036" points="321.372,710.787,327.7354,703.2699,322.7742,705.9876,320.0564,701.0264,321.372,710.787" style="stroke:#A80036;stroke-width:1.0;"/><line style="stroke:#A80036;stroke-width:1.0;" x1="322.7742" x2="325.0165" y1="705.9876" y2="698.308"/><polygon fill="#A80036" points="338.793,651.141,333.2714,655.7791,335.429,662.6598,340.9506,658.0217,338.793,651.141" style="stroke:#A80036;stroke-width:1.0;"/><!--MD5=[c2d190631183d216e3b9fbb6e571a34f]
link usantatecla.tictactoe.models.Player to Token--><path codeLine="68" d="M226.6282,646.3759 C226.6282,646.3759 165.822,683.846 145,711 C77.2444,799.36 67.5023,936.182 67.4698,1007.192 " fill="none" id="usantatecla.tictactoe.models.Player-Token" style="stroke:#A80036;stroke-width:1.0;"/><polygon fill="#A80036" points="67.5785,1020.482,71.5042,1011.4493,67.5373,1015.4822,63.5045,1011.5153,67.5785,1020.482" style="stroke:#A80036;stroke-width:1.0;"/><line style="stroke:#A80036;stroke-width:1.0;" x1="67.5373" x2="67.4721" y1="1015.4822" y2="1007.4825"/><polygon fill="#A80036" points="237.338,640.963,230.1788,640.0995,226.6282,646.3759,233.7874,647.2394,237.338,640.963" style="stroke:#A80036;stroke-width:1.0;"/><!--MD5=[ba9540fdbee49c9d63c48566c5a7a86c]
link usantatecla.tictactoe.models.Player to usantatecla.tictactoe.models.Coordinate--><path codeLine="69" d="M404.844,651.134 C419.789,668.43 434.164,689.092 442,711 C470.077,789.501 464.119,884.69 452.974,954.773 " fill="none" id="usantatecla.tictactoe.models.Player-to-usantatecla.tictactoe.models.Coordinate" style="stroke:#A80036;stroke-width:1.0;stroke-dasharray:7.0,7.0;"/><polygon fill="#A80036" points="452.163,959.775,457.5514,951.5309,452.963,954.8394,449.6545,950.251,452.163,959.775" style="stroke:#A80036;stroke-width:1.0;"/><!--MD5=[11a037fdda15a9798a796deba9cd60ce]
link usantatecla.tictactoe.models.Player to Error--><path codeLine="70" d="M468.836,619.809 C572.029,637.7 712.239,668.929 749,711 C813.233,784.511 819.864,1094.502 820.17,1203.7225 " fill="none" id="usantatecla.tictactoe.models.Player-to-Error" style="stroke:#A80036;stroke-width:1.0;stroke-dasharray:7.0,7.0;"/><polygon fill="#A80036" points="820.18,1208.77,824.162,1199.762,820.17,1203.77,816.162,1199.778,820.18,1208.77" style="stroke:#A80036;stroke-width:1.0;"/><!--MD5=[7177d9bbb264d3ddfa066b229c5408e6]
link usantatecla.tictactoe.models.Turn to usantatecla.tictactoe.models.Player--><path codeLine="86" d="M361.5935,504.0606 C361.5935,504.0606 359.459,528.02 358.508,538.693 " fill="none" id="usantatecla.tictactoe.models.Turn-usantatecla.tictactoe.models.Player" style="stroke:#A80036;stroke-width:1.0;"/><polygon fill="#A80036" points="357.34,551.799,362.1233,543.1897,357.784,546.8187,354.1549,542.4794,357.34,551.799" style="stroke:#A80036;stroke-width:1.0;"/><line style="stroke:#A80036;stroke-width:1.0;" x1="357.784" x2="358.494" y1="546.8187" y2="538.85"/><polygon fill="#A80036" points="362.659,492.108,358.142,497.7291,361.5935,504.0606,366.1105,498.4395,362.659,492.108" style="stroke:#A80036;stroke-width:1.0;"/><text fill="#000000" font-family="sans-serif" font-size="13" lengthAdjust="spacingAndGlyphs" textLength="7" x="350.4581" y="540.816">*</text><!--MD5=[9180f9952bac956985988f0df9a5a0e9]
link usantatecla.tictactoe.models.Turn to usantatecla.tictactoe.models.Board--><path codeLine="87" d="M249.8828,501.7427 C249.8828,501.7427 227.135,534.573 220,552 C200.736,599.053 212.211,652.922 231.338,698.785 " fill="none" id="usantatecla.tictactoe.models.Turn-usantatecla.tictactoe.models.Board" style="stroke:#A80036;stroke-width:1.0;"/><polygon fill="#A80036" points="236.633,710.878,236.6873,701.0293,234.6275,706.2978,229.359,704.2381,236.633,710.878" style="stroke:#A80036;stroke-width:1.0;"/><line style="stroke:#A80036;stroke-width:1.0;" x1="234.6275" x2="231.419" y1="706.2978" y2="698.969"/><polygon fill="#A80036" points="257.41,492.397,250.5312,494.5608,249.8828,501.7427,256.7616,499.5789,257.41,492.397" style="stroke:#A80036;stroke-width:1.0;"/><!--MD5=[dc1e811f77b10384508de9d4c61661a7]
link usantatecla.tictactoe.models.Turn to usantatecla.tictactoe.models.Coordinate--><path codeLine="88" d="M455.534,492.196 C468.048,510.846 479.056,531.149 486,552 C530.884,686.769 496.827,852.048 465.835,955.096 " fill="none" id="usantatecla.tictactoe.models.Turn-to-usantatecla.tictactoe.models.Coordinate" style="stroke:#A80036;stroke-width:1.0;stroke-dasharray:7.0,7.0;"/><polygon fill="#A80036" points="464.362,959.956,470.8005,952.5031,465.8122,955.1709,463.1444,950.1827,464.362,959.956" style="stroke:#A80036;stroke-width:1.0;"/><!--MD5=[94c625440d59d62a764a828f499356fa]
link usantatecla.tictactoe.models.Turn to Token--><path codeLine="89" d="M255.487,477.764 C185.509,533.57 103.1707,615.236 68,711 C29.6402,815.447 47.8934,950.199 60.4919,1015.146 " fill="none" id="usantatecla.tictactoe.models.Turn-to-Token" style="stroke:#A80036;stroke-width:1.0;stroke-dasharray:7.0,7.0;"/><polygon fill="#A80036" points="61.4639,1020.078,63.6476,1010.4743,60.4968,1015.1724,55.7986,1012.0217,61.4639,1020.078" style="stroke:#A80036;stroke-width:1.0;"/><!--MD5=[fae6c66eff904cda829be818c0a17184]
link usantatecla.tictactoe.models.Turn to Error--><path codeLine="90" d="M486.653,449.256 C587.683,500.089 729.237,588.401 802,711 C897.528,871.955 852.928,1111.363 830.322,1203.7326 " fill="none" id="usantatecla.tictactoe.models.Turn-to-Error" style="stroke:#A80036;stroke-width:1.0;stroke-dasharray:7.0,7.0;"/><polygon fill="#A80036" points="829.065,1208.8123,835.1108,1201.0375,830.2667,1203.9589,827.3453,1199.1147,829.065,1208.8123" style="stroke:#A80036;stroke-width:1.0;"/><!--MD5=[90e7b0e113b8f6746e22c2f05c586fc7]
@startuml
enum Error as "usantatecla.\ntictactoe.types.\nError"
enum Token as "usantatecla.\ntictactoe.types.\nToken"
class Direction as "usantatecla.utils.\nDirection"
class ConcreteCoordinate as "usantatecla.utils.\nConcreteCoordinate"
class ClosedInterval as "usantatecla.utils.\nClosedInterval"

class  usantatecla.tictactoe.models.Board{
  ~ Board()
  ~ reset()
  ~ getToken(Coordinate): Token
  ~ isCompleted(): boolean
  ~ put(Coordinate, Token)
  ~ move(Coordinate, Coordinate)
  - remove(Coordinate)
  ~ isOccupied(Coordinate, Token): boolean
  ~ isEmpty(Coordinate): boolean
  ~ isTicTacToe(Token): boolean
  - getCoordinates(Token): List<Coordinate>
}
usantatecla.tictactoe.models.Board *-down-> "*" Token
usantatecla.tictactoe.models.Board .down.> usantatecla.tictactoe.models.Coordinate
usantatecla.tictactoe.models.Board .down.> Direction

class  usantatecla.tictactoe.models.Coordinate{
  - {static} NULL_COORDINATE: Coordinate
  + {static} DIMENSION: int
  - {static} LIMITS: ClosedInterval
  + Coordinate()
  + Coordinate(int, int)
  + isNull(): boolean
  + isValid(): Error
  + getDirection(Coordinate): Direction
  - inInverseDiagonal(): boolean
  + random()
  + equals(Object): boolean
}
ConcreteCoordinate <|-down- usantatecla.tictactoe.models.Coordinate
usantatecla.tictactoe.models.Coordinate .down.> Error
usantatecla.tictactoe.models.Coordinate .down.> Direction
usantatecla.tictactoe.models.Coordinate .down.> ClosedInterval

class  usantatecla.tictactoe.models.Game{
  + Game()
  + setUsers(int)
  + isBoardComplete(): boolean
  + isUser(): boolean
  + put(Coordinate): Error
  + move(Coordinate, Coordinate): Error
  + next()
  + isTicTacToe(): boolean
  + getToken(Coordinate): Token
  + getToken(): Token
  + getMaxPlayers(): int
  + reset()
}
usantatecla.tictactoe.models.Game *-down-> usantatecla.tictactoe.models.Board
usantatecla.tictactoe.models.Game *-down-> usantatecla.tictactoe.models.Turn
usantatecla.tictactoe.models.Game .down.> usantatecla.tictactoe.models.Coordinate
usantatecla.tictactoe.models.Game .down.> Error

class  usantatecla.tictactoe.models.Player{
  ~ Player(Token, Board)
  ~ put(Coordinate): Error
  ~ move(Coordinate, Coordinate): Error
  ~ getToken(): Token
}
usantatecla.tictactoe.models.Player *-down-> usantatecla.tictactoe.models.Board
usantatecla.tictactoe.models.Player *-down-> Token
usantatecla.tictactoe.models.Player .down.> usantatecla.tictactoe.models.Coordinate
usantatecla.tictactoe.models.Player .down.> Error

class  usantatecla.tictactoe.models.Turn{
  - {static} NUM_PLAYERS: int
  - active: int
  - users: int
  ~ Turn(Board)
  ~ setUsers(int)
  ~ next()
  ~ isUser(): boolean
  ~ put(Coordinate): Error
  - getPlayer(): Player
  ~ move(Coordinate, Coordinate): Error
  ~ getToken(): Token
}

usantatecla.tictactoe.models.Turn *-down-> "*" usantatecla.tictactoe.models.Player
usantatecla.tictactoe.models.Turn *-down-> usantatecla.tictactoe.models.Board
usantatecla.tictactoe.models.Turn .down.> usantatecla.tictactoe.models.Coordinate
usantatecla.tictactoe.models.Turn .down.> Token
usantatecla.tictactoe.models.Turn .down.> Error
@enduml

PlantUML version 1.2020.23beta3(Unknown compile time)
(GPL source distribution)
Java Runtime: Java(TM) SE Runtime Environment
JVM: Java HotSpot(TM) 64-Bit Server VM
Default Encoding: UTF-8
Language: en
Country: US
--></g></svg>