<?xml version="1.0" encoding="UTF-8" standalone="no"?><svg xmlns="http://www.w3.org/2000/svg" xmlns:xlink="http://www.w3.org/1999/xlink" contentScriptType="application/ecmascript" contentStyleType="text/css" height="293px" preserveAspectRatio="none" style="width:378px;height:293px;" version="1.1" viewBox="0 0 378 293" width="378px" zoomAndPan="magnify"><defs><filter height="300%" id="fmhs77pw57bah" width="300%" x="-1" y="-1"><feGaussianBlur result="blurOut" stdDeviation="2.0"/><feColorMatrix in="blurOut" result="blurOut2" type="matrix" values="0 0 0 0 0 0 0 0 0 0 0 0 0 0 0 0 0 0 .4 0"/><feOffset dx="4.0" dy="4.0" in="blurOut2" result="blurOut3"/><feBlend in="SourceGraphic" in2="blurOut3" mode="normal"/></filter></defs><g><!--MD5=[d3ad1dd2e0ca3394597e0772b1605d6e]
cluster usantatecla.tictactoe.types--><polygon fill="#FFFFFF" filter="url(#fmhs77pw57bah)" points="16,6,251,6,258,28.2969,361,28.2969,361,182,16,182,16,6" style="stroke:#000000;stroke-width:1.5;"/><line style="stroke:#000000;stroke-width:1.5;" x1="16" x2="258" y1="28.2969" y2="28.2969"/><text fill="#000000" font-family="sans-serif" font-size="14" font-weight="bold" lengthAdjust="spacingAndGlyphs" textLength="229" x="20" y="20.9951">usantatecla.tictactoe.types</text><!--MD5=[8f371bcdab0b1fbb9fec7f1a076a5d56]
class usantatecla.tictactoe.types.Error--><rect codeLine="3" fill="#FEFECE" filter="url(#fmhs77pw57bah)" height="124.8281" id="usantatecla.tictactoe.types.Error" style="stroke:#A80036;stroke-width:1.5;" width="159" x="185.5" y="41"/><ellipse cx="245.75" cy="57" fill="#EB937F" rx="11" ry="11" style="stroke:#A80036;stroke-width:1.0;"/><path d="M244.5469,57.875 L246,57.875 L246,57.9844 C246,58.3906 246.0313,58.5469 246.1094,58.7031 C246.2656,58.9531 246.5469,59.1094 246.8438,59.1094 C247.0938,59.1094 247.3594,58.9688 247.5156,58.75 C247.6406,58.5938 247.6719,58.4375 247.6719,57.9844 L247.6719,56.0625 C247.6719,55.9063 247.6719,55.8594 247.6563,55.7031 C247.5938,55.2344 247.2813,54.9219 246.8281,54.9219 C246.5781,54.9219 246.3125,55.0625 246.1406,55.2813 C246.0313,55.4531 246,55.6094 246,56.0625 L246,56.1875 L244.5469,56.1875 L244.5469,53.7813 L248.5313,53.7813 L248.5313,54.6406 C248.5313,55.0469 248.5625,55.2188 248.6406,55.375 C248.8125,55.625 249.0938,55.7813 249.375,55.7813 C249.6406,55.7813 249.9063,55.6406 250.0781,55.4219 C250.1875,55.25 250.2188,55.1094 250.2188,54.6406 L250.2188,52.0938 L242.5938,52.0938 C242.1563,52.0938 242.0313,52.1094 241.875,52.2031 C241.625,52.3594 241.4688,52.6563 241.4688,52.9375 C241.4688,53.2188 241.6094,53.4688 241.8281,53.6406 C241.9844,53.75 242.1719,53.7813 242.5938,53.7813 L242.8438,53.7813 L242.8438,60.2969 L242.5938,60.2969 C242.1875,60.2969 242.0313,60.3125 241.875,60.4219 C241.625,60.5938 241.4688,60.8594 241.4688,61.1563 C241.4688,61.4219 241.6094,61.6719 241.8281,61.8281 C241.9688,61.9531 242.2031,62 242.5938,62 L250.5938,62 L250.5938,59.4219 C250.5938,58.9844 250.5625,58.8438 250.4844,58.6875 C250.3125,58.4375 250.0313,58.2813 249.75,58.2813 C249.4844,58.2813 249.2188,58.3906 249.0469,58.6406 C248.9375,58.7969 248.9063,58.9375 248.9063,59.4219 L248.9063,60.2969 L244.5469,60.2969 L244.5469,57.875 Z " fill="#000000"/><text fill="#000000" font-family="sans-serif" font-size="12" lengthAdjust="spacingAndGlyphs" textLength="30" x="266.25" y="61.1543">Error</text><line style="stroke:#A80036;stroke-width:1.5;" x1="186.5" x2="343.5" y1="73" y2="73"/><ellipse cx="196.5" cy="84" fill="none" rx="3" ry="3" style="stroke:#038048;stroke-width:1.0;"/><text fill="#000000" font-family="sans-serif" font-size="11" lengthAdjust="spacingAndGlyphs" textLength="66" x="205.5" y="87.2104">NOT_EMPTY</text><ellipse cx="196.5" cy="96.8047" fill="none" rx="3" ry="3" style="stroke:#038048;stroke-width:1.0;"/><text fill="#000000" font-family="sans-serif" font-size="11" lengthAdjust="spacingAndGlyphs" textLength="72" x="205.5" y="100.0151">NOT_OWNER</text><ellipse cx="196.5" cy="109.6094" fill="none" rx="3" ry="3" style="stroke:#038048;stroke-width:1.0;"/><text fill="#000000" font-family="sans-serif" font-size="11" lengthAdjust="spacingAndGlyphs" textLength="121" x="205.5" y="112.8198">SAME_COORDINATES</text><ellipse cx="196.5" cy="122.4141" fill="none" rx="3" ry="3" style="stroke:#038048;stroke-width:1.0;"/><text fill="#000000" font-family="sans-serif" font-size="11" lengthAdjust="spacingAndGlyphs" textLength="133" x="205.5" y="125.6245">WRONG_COORDINATES</text><ellipse cx="196.5" cy="135.2188" fill="none" rx="3" ry="3" style="stroke:#038048;stroke-width:1.0;"/><text fill="#000000" font-family="sans-serif" font-size="11" lengthAdjust="spacingAndGlyphs" textLength="71" x="205.5" y="138.4292">NULL_ERROR</text><line style="stroke:#A80036;stroke-width:1.5;" x1="186.5" x2="343.5" y1="145.0234" y2="145.0234"/><ellipse cx="196.5" cy="156.0234" fill="#84BE84" rx="3" ry="3" style="stroke:#038048;stroke-width:1.0;"/><text fill="#000000" font-family="sans-serif" font-size="11" lengthAdjust="spacingAndGlyphs" textLength="91" x="205.5" y="159.2339">isNull(): boolean</text><!--MD5=[b67fb73fb0564ba2016a50235914ace8]
class usantatecla.tictactoe.types.Token--><rect codeLine="12" fill="#FEFECE" filter="url(#fmhs77pw57bah)" height="124.8281" id="usantatecla.tictactoe.types.Token" style="stroke:#A80036;stroke-width:1.5;" width="118" x="32" y="41"/><ellipse cx="69.05" cy="57" fill="#EB937F" rx="11" ry="11" style="stroke:#A80036;stroke-width:1.0;"/><path d="M67.8469,57.875 L69.3,57.875 L69.3,57.9844 C69.3,58.3906 69.3313,58.5469 69.4094,58.7031 C69.5656,58.9531 69.8469,59.1094 70.1438,59.1094 C70.3938,59.1094 70.6594,58.9688 70.8156,58.75 C70.9406,58.5938 70.9719,58.4375 70.9719,57.9844 L70.9719,56.0625 C70.9719,55.9063 70.9719,55.8594 70.9563,55.7031 C70.8938,55.2344 70.5813,54.9219 70.1281,54.9219 C69.8781,54.9219 69.6125,55.0625 69.4406,55.2813 C69.3313,55.4531 69.3,55.6094 69.3,56.0625 L69.3,56.1875 L67.8469,56.1875 L67.8469,53.7813 L71.8313,53.7813 L71.8313,54.6406 C71.8313,55.0469 71.8625,55.2188 71.9406,55.375 C72.1125,55.625 72.3938,55.7813 72.675,55.7813 C72.9406,55.7813 73.2063,55.6406 73.3781,55.4219 C73.4875,55.25 73.5188,55.1094 73.5188,54.6406 L73.5188,52.0938 L65.8938,52.0938 C65.4563,52.0938 65.3313,52.1094 65.175,52.2031 C64.925,52.3594 64.7688,52.6563 64.7688,52.9375 C64.7688,53.2188 64.9094,53.4688 65.1281,53.6406 C65.2844,53.75 65.4719,53.7813 65.8938,53.7813 L66.1438,53.7813 L66.1438,60.2969 L65.8938,60.2969 C65.4875,60.2969 65.3313,60.3125 65.175,60.4219 C64.925,60.5938 64.7688,60.8594 64.7688,61.1563 C64.7688,61.4219 64.9094,61.6719 65.1281,61.8281 C65.2688,61.9531 65.5031,62 65.8938,62 L73.8938,62 L73.8938,59.4219 C73.8938,58.9844 73.8625,58.8438 73.7844,58.6875 C73.6125,58.4375 73.3313,58.2813 73.05,58.2813 C72.7844,58.2813 72.5188,58.3906 72.3469,58.6406 C72.2375,58.7969 72.2063,58.9375 72.2063,59.4219 L72.2063,60.2969 L67.8469,60.2969 L67.8469,57.875 Z " fill="#000000"/><text fill="#000000" font-family="sans-serif" font-size="12" lengthAdjust="spacingAndGlyphs" textLength="37" x="87.95" y="61.1543">Token</text><line style="stroke:#A80036;stroke-width:1.5;" x1="33" x2="149" y1="73" y2="73"/><ellipse cx="43" cy="84" fill="none" rx="3" ry="3" style="stroke:#038048;stroke-width:1.0;"/><text fill="#000000" font-family="sans-serif" font-size="11" lengthAdjust="spacingAndGlyphs" textLength="8" x="52" y="87.2104">X</text><ellipse cx="43" cy="96.8047" fill="none" rx="3" ry="3" style="stroke:#038048;stroke-width:1.0;"/><text fill="#000000" font-family="sans-serif" font-size="11" lengthAdjust="spacingAndGlyphs" textLength="9" x="52" y="100.0151">O</text><ellipse cx="43" cy="109.6094" fill="none" rx="3" ry="3" style="stroke:#038048;stroke-width:1.0;"/><text fill="#000000" font-family="sans-serif" font-size="11" lengthAdjust="spacingAndGlyphs" textLength="28" x="52" y="112.8198">NULL</text><line style="stroke:#A80036;stroke-width:1.5;" x1="33" x2="149" y1="119.4141" y2="119.4141"/><ellipse cx="43" cy="130.4141" fill="#84BE84" rx="3" ry="3" style="stroke:#038048;stroke-width:1.0;"/><text fill="#000000" font-family="sans-serif" font-size="11" lengthAdjust="spacingAndGlyphs" textLength="91" x="52" y="133.6245">isNull(): boolean</text><ellipse cx="43" cy="143.2188" fill="#84BE84" rx="3" ry="3" style="stroke:#038048;stroke-width:1.0;"/><text fill="#000000" font-family="sans-serif" font-size="11" lengthAdjust="spacingAndGlyphs" text-decoration="underline" textLength="83" x="52" y="146.4292">get(int): Token</text><ellipse cx="43" cy="156.0234" fill="#84BE84" rx="3" ry="3" style="stroke:#038048;stroke-width:1.0;"/><text fill="#000000" font-family="sans-serif" font-size="11" lengthAdjust="spacingAndGlyphs" textLength="92" x="52" y="159.2339">toString(): String</text><!--MD5=[f0e50675208408ddbf1ed7a91f4eb071]
class ClosedInterval--><rect codeLine="1" fill="#FEFECE" filter="url(#fmhs77pw57bah)" height="53.9375" id="ClosedInterval" style="stroke:#A80036;stroke-width:1.5;" width="130" x="26" y="226"/><ellipse cx="41" cy="244.9688" fill="#ADD1B2" rx="11" ry="11" style="stroke:#A80036;stroke-width:1.0;"/><path d="M43.3438,240.6406 C42.4063,240.2031 41.8125,240.0625 40.9375,240.0625 C38.3125,240.0625 36.3125,242.1406 36.3125,244.8594 L36.3125,245.9844 C36.3125,248.5625 38.4219,250.4531 41.3125,250.4531 C42.5313,250.4531 43.6875,250.1563 44.4375,249.6094 C45.0156,249.2031 45.3438,248.75 45.3438,248.3594 C45.3438,247.9063 44.9531,247.5156 44.4844,247.5156 C44.2656,247.5156 44.0625,247.5938 43.875,247.7813 C43.4219,248.2656 43.4219,248.2656 43.2344,248.3594 C42.8125,248.625 42.125,248.75 41.3594,248.75 C39.3125,248.75 38.0156,247.6563 38.0156,245.9531 L38.0156,244.8594 C38.0156,243.0781 39.2656,241.7656 41,241.7656 C41.5781,241.7656 42.1875,241.9219 42.6563,242.1719 C43.1406,242.4531 43.3125,242.6719 43.4063,243.0781 C43.4688,243.4844 43.5,243.6094 43.6406,243.7344 C43.7813,243.875 44.0156,243.9844 44.2344,243.9844 C44.5,243.9844 44.7656,243.8438 44.9375,243.625 C45.0469,243.4688 45.0781,243.2813 45.0781,242.8594 L45.0781,241.4375 C45.0781,241 45.0625,240.875 44.9688,240.7188 C44.8125,240.4531 44.5313,240.3125 44.2344,240.3125 C43.9375,240.3125 43.7344,240.4063 43.5156,240.7188 L43.3438,240.6406 Z " fill="#000000"/><text fill="#000000" font-family="sans-serif" font-size="12" lengthAdjust="spacingAndGlyphs" textLength="98" x="55" y="242.1387">usantatecla.utils.</text><text fill="#000000" font-family="sans-serif" font-size="12" lengthAdjust="spacingAndGlyphs" textLength="86" x="61" y="256.1074">ClosedInterval</text><line style="stroke:#A80036;stroke-width:1.5;" x1="27" x2="155" y1="263.9375" y2="263.9375"/><line style="stroke:#A80036;stroke-width:1.5;" x1="27" x2="155" y1="271.9375" y2="271.9375"/><!--MD5=[1200dd45b2484d05220aab6adb345fff]
link usantatecla.tictactoe.types.Token to ClosedInterval--><path codeLine="20" d="M91,166.199 C91,184.9229 91,204.7125 91,220.5619 " fill="none" id="usantatecla.tictactoe.types.Token-to-ClosedInterval" style="stroke:#A80036;stroke-width:1.0;stroke-dasharray:7.0,7.0;"/><polygon fill="#A80036" points="91,225.7787,95,216.7787,91,220.7787,87,216.7787,91,225.7787" style="stroke:#A80036;stroke-width:1.0;"/><!--MD5=[832aecaa066c396b8a77460ddca5dcca]
@startuml
class ClosedInterval as "usantatecla.utils.\nClosedInterval"

enum  usantatecla.tictactoe.types.Error{
  + NOT_EMPTY
  + NOT_OWNER
  + SAME_COORDINATES
  + WRONG_COORDINATES
  + NULL_ERROR
  + isNull(): boolean
}

enum  usantatecla.tictactoe.types.Token{
  + X
  + O
  + NULL
  + isNull(): boolean
  + {static} get(int): Token
  + toString(): String
}
usantatecla.tictactoe.types.Token .down.> ClosedInterval
@enduml

PlantUML version 1.2020.23beta3(Unknown compile time)
(GPL source distribution)
Java Runtime: Java(TM) SE Runtime Environment
JVM: Java HotSpot(TM) 64-Bit Server VM
Default Encoding: UTF-8
Language: en
Country: US
--></g></svg>