<?xml version="1.0" encoding="UTF-8" standalone="no"?><svg xmlns="http://www.w3.org/2000/svg" xmlns:xlink="http://www.w3.org/1999/xlink" contentScriptType="application/ecmascript" contentStyleType="text/css" height="875px" preserveAspectRatio="none" style="width:983px;height:875px;" version="1.1" viewBox="0 0 983 875" width="983px" zoomAndPan="magnify"><defs><filter height="300%" id="fhuei9l4vews8" width="300%" x="-1" y="-1"><feGaussianBlur result="blurOut" stdDeviation="2.0"/><feColorMatrix in="blurOut" result="blurOut2" type="matrix" values="0 0 0 0 0 0 0 0 0 0 0 0 0 0 0 0 0 0 .4 0"/><feOffset dx="4.0" dy="4.0" in="blurOut2" result="blurOut3"/><feBlend in="SourceGraphic" in2="blurOut3" mode="normal"/></filter></defs><g><!--MD5=[908cbfa8709a8ec6ee3beb0409fea32c]
cluster usantatecla.utils--><polygon fill="#FFFFFF" filter="url(#fhuei9l4vews8)" points="16,6,162,6,169,28.2969,963,28.2969,963,769,16,769,16,6" style="stroke:#000000;stroke-width:1.5;"/><line style="stroke:#000000;stroke-width:1.5;" x1="16" x2="169" y1="28.2969" y2="28.2969"/><text fill="#000000" font-family="sans-serif" font-size="14" font-weight="bold" lengthAdjust="spacingAndGlyphs" textLength="140" x="20" y="20.9951">usantatecla.utils</text><!--MD5=[b0b725b3db639de93c4e5e8714f3aefc]
class usantatecla.utils.models.ClosedInterval--><rect codeLine="3" fill="#FEFECE" filter="url(#fhuei9l4vews8)" height="112.0234" id="usantatecla.utils.models.ClosedInterval" style="stroke:#A80036;stroke-width:1.5;" width="158" x="36" y="590"/><ellipse cx="69" cy="606" fill="#ADD1B2" rx="11" ry="11" style="stroke:#A80036;stroke-width:1.0;"/><path d="M71.3438,601.6719 C70.4063,601.2344 69.8125,601.0938 68.9375,601.0938 C66.3125,601.0938 64.3125,603.1719 64.3125,605.8906 L64.3125,607.0156 C64.3125,609.5938 66.4219,611.4844 69.3125,611.4844 C70.5313,611.4844 71.6875,611.1875 72.4375,610.6406 C73.0156,610.2344 73.3438,609.7813 73.3438,609.3906 C73.3438,608.9375 72.9531,608.5469 72.4844,608.5469 C72.2656,608.5469 72.0625,608.625 71.875,608.8125 C71.4219,609.2969 71.4219,609.2969 71.2344,609.3906 C70.8125,609.6563 70.125,609.7813 69.3594,609.7813 C67.3125,609.7813 66.0156,608.6875 66.0156,606.9844 L66.0156,605.8906 C66.0156,604.1094 67.2656,602.7969 69,602.7969 C69.5781,602.7969 70.1875,602.9531 70.6563,603.2031 C71.1406,603.4844 71.3125,603.7031 71.4063,604.1094 C71.4688,604.5156 71.5,604.6406 71.6406,604.7656 C71.7813,604.9063 72.0156,605.0156 72.2344,605.0156 C72.5,605.0156 72.7656,604.875 72.9375,604.6563 C73.0469,604.5 73.0781,604.3125 73.0781,603.8906 L73.0781,602.4688 C73.0781,602.0313 73.0625,601.9063 72.9688,601.75 C72.8125,601.4844 72.5313,601.3438 72.2344,601.3438 C71.9375,601.3438 71.7344,601.4375 71.5156,601.75 L71.3438,601.6719 Z " fill="#000000"/><text fill="#000000" font-family="sans-serif" font-size="12" lengthAdjust="spacingAndGlyphs" textLength="86" x="87" y="610.1543">ClosedInterval</text><line style="stroke:#A80036;stroke-width:1.5;" x1="37" x2="193" y1="622" y2="622"/><rect fill="none" height="6" style="stroke:#C82930;stroke-width:1.0;" width="6" x="44" y="630"/><text fill="#000000" font-family="sans-serif" font-size="11" lengthAdjust="spacingAndGlyphs" textLength="42" x="56" y="636.2104">min: int</text><rect fill="none" height="6" style="stroke:#C82930;stroke-width:1.0;" width="6" x="44" y="642.8047"/><text fill="#000000" font-family="sans-serif" font-size="11" lengthAdjust="spacingAndGlyphs" textLength="46" x="56" y="649.0151">max: int</text><line style="stroke:#A80036;stroke-width:1.5;" x1="37" x2="193" y1="655.6094" y2="655.6094"/><ellipse cx="47" cy="666.6094" fill="#84BE84" rx="3" ry="3" style="stroke:#038048;stroke-width:1.0;"/><text fill="#000000" font-family="sans-serif" font-size="11" lengthAdjust="spacingAndGlyphs" textLength="121" x="56" y="669.8198">ClosedInterval(int,int)</text><ellipse cx="47" cy="679.4141" fill="#84BE84" rx="3" ry="3" style="stroke:#038048;stroke-width:1.0;"/><text fill="#000000" font-family="sans-serif" font-size="11" lengthAdjust="spacingAndGlyphs" textLength="132" x="56" y="682.6245">isIncluded(int): boolean</text><ellipse cx="47" cy="692.2188" fill="#84BE84" rx="3" ry="3" style="stroke:#038048;stroke-width:1.0;"/><text fill="#000000" font-family="sans-serif" font-size="11" lengthAdjust="spacingAndGlyphs" textLength="92" x="56" y="695.4292">toString(): String</text><!--MD5=[c2c7894405d0c7b92ed3110a385504d5]
class usantatecla.utils.models.ConcreteCoordinate--><rect codeLine="11" fill="#FEFECE" filter="url(#fhuei9l4vews8)" height="265.6797" id="usantatecla.utils.models.ConcreteCoordinate" style="stroke:#A80036;stroke-width:1.5;" width="224" x="427" y="213"/><ellipse cx="474.25" cy="229" fill="#ADD1B2" rx="11" ry="11" style="stroke:#A80036;stroke-width:1.0;"/><path d="M476.5938,224.6719 C475.6563,224.2344 475.0625,224.0938 474.1875,224.0938 C471.5625,224.0938 469.5625,226.1719 469.5625,228.8906 L469.5625,230.0156 C469.5625,232.5938 471.6719,234.4844 474.5625,234.4844 C475.7813,234.4844 476.9375,234.1875 477.6875,233.6406 C478.2656,233.2344 478.5938,232.7813 478.5938,232.3906 C478.5938,231.9375 478.2031,231.5469 477.7344,231.5469 C477.5156,231.5469 477.3125,231.625 477.125,231.8125 C476.6719,232.2969 476.6719,232.2969 476.4844,232.3906 C476.0625,232.6563 475.375,232.7813 474.6094,232.7813 C472.5625,232.7813 471.2656,231.6875 471.2656,229.9844 L471.2656,228.8906 C471.2656,227.1094 472.5156,225.7969 474.25,225.7969 C474.8281,225.7969 475.4375,225.9531 475.9063,226.2031 C476.3906,226.4844 476.5625,226.7031 476.6563,227.1094 C476.7188,227.5156 476.75,227.6406 476.8906,227.7656 C477.0313,227.9063 477.2656,228.0156 477.4844,228.0156 C477.75,228.0156 478.0156,227.875 478.1875,227.6563 C478.2969,227.5 478.3281,227.3125 478.3281,226.8906 L478.3281,225.4688 C478.3281,225.0313 478.3125,224.9063 478.2188,224.75 C478.0625,224.4844 477.7813,224.3438 477.4844,224.3438 C477.1875,224.3438 476.9844,224.4375 476.7656,224.75 L476.5938,224.6719 Z " fill="#000000"/><text fill="#000000" font-family="sans-serif" font-size="12" lengthAdjust="spacingAndGlyphs" textLength="121" x="494.75" y="233.1543">ConcreteCoordinate</text><line style="stroke:#A80036;stroke-width:1.5;" x1="428" x2="650" y1="245" y2="245"/><polygon fill="none" points="438,251,442,255,438,259,434,255" style="stroke:#B38D22;stroke-width:1.0;"/><text fill="#000000" font-family="sans-serif" font-size="11" lengthAdjust="spacingAndGlyphs" textLength="41" x="447" y="259.2104">row: int</text><polygon fill="none" points="438,263.8047,442,267.8047,438,271.8047,434,267.8047" style="stroke:#B38D22;stroke-width:1.0;"/><text fill="#000000" font-family="sans-serif" font-size="11" lengthAdjust="spacingAndGlyphs" textLength="62" x="447" y="272.0151">column: int</text><rect fill="none" height="6" style="stroke:#C82930;stroke-width:1.0;" width="6" x="435" y="278.6094"/><text fill="#000000" font-family="sans-serif" font-size="11" lengthAdjust="spacingAndGlyphs" text-decoration="underline" textLength="67" x="447" y="284.8198">ROW: String</text><rect fill="none" height="6" style="stroke:#C82930;stroke-width:1.0;" width="6" x="435" y="291.4141"/><text fill="#000000" font-family="sans-serif" font-size="11" lengthAdjust="spacingAndGlyphs" text-decoration="underline" textLength="88" x="447" y="297.6245">COLUMN: String</text><line style="stroke:#A80036;stroke-width:1.5;" x1="428" x2="650" y1="304.2188" y2="304.2188"/><polygon fill="#FFFF44" points="438,310.2188,442,314.2188,438,318.2188,434,314.2188" style="stroke:#B38D22;stroke-width:1.0;"/><text fill="#000000" font-family="sans-serif" font-size="11" lengthAdjust="spacingAndGlyphs" textLength="122" x="447" y="318.4292">ConcreteCoordinate()</text><polygon fill="#FFFF44" points="438,323.0234,442,327.0234,438,331.0234,434,327.0234" style="stroke:#B38D22;stroke-width:1.0;"/><text fill="#000000" font-family="sans-serif" font-size="11" lengthAdjust="spacingAndGlyphs" textLength="153" x="447" y="331.2339">ConcreteCoordinate(int,int)</text><ellipse cx="438" cy="340.8281" fill="#84BE84" rx="3" ry="3" style="stroke:#038048;stroke-width:1.0;"/><text fill="#000000" font-family="sans-serif" font-size="11" lengthAdjust="spacingAndGlyphs" textLength="91" x="447" y="344.0386">isNull(): boolean</text><ellipse cx="438" cy="353.6328" fill="#84BE84" rx="3" ry="3" style="stroke:#038048;stroke-width:1.0;"/><text fill="#000000" font-family="sans-serif" font-size="11" lengthAdjust="spacingAndGlyphs" textLength="198" x="447" y="356.8433">getDirection(Coordinate): Direction</text><ellipse cx="438" cy="366.4375" fill="#84BE84" rx="3" ry="3" style="stroke:#038048;stroke-width:1.0;"/><text fill="#000000" font-family="sans-serif" font-size="11" lengthAdjust="spacingAndGlyphs" textLength="190" x="447" y="369.6479">inHorizontal(Coordinate): boolean</text><ellipse cx="438" cy="379.2422" fill="#84BE84" rx="3" ry="3" style="stroke:#038048;stroke-width:1.0;"/><text fill="#000000" font-family="sans-serif" font-size="11" lengthAdjust="spacingAndGlyphs" textLength="176" x="447" y="382.4526">inVertical(Coordinate): boolean</text><ellipse cx="438" cy="392.0469" fill="#84BE84" rx="3" ry="3" style="stroke:#038048;stroke-width:1.0;"/><text fill="#000000" font-family="sans-serif" font-size="11" lengthAdjust="spacingAndGlyphs" textLength="147" x="447" y="395.2573">inMainDiagonal(): boolean</text><polygon fill="#FFFF44" points="438,399.8516,442,403.8516,438,407.8516,434,403.8516" style="stroke:#B38D22;stroke-width:1.0;"/><text fill="#000000" font-family="sans-serif" font-size="11" lengthAdjust="spacingAndGlyphs" textLength="67" x="447" y="408.062">read(String)</text><ellipse cx="438" cy="417.6563" fill="#84BE84" rx="3" ry="3" style="stroke:#038048;stroke-width:1.0;"/><text fill="#000000" font-family="sans-serif" font-size="11" lengthAdjust="spacingAndGlyphs" textLength="71" x="447" y="420.8667">getRow(): int</text><ellipse cx="438" cy="430.4609" fill="#84BE84" rx="3" ry="3" style="stroke:#038048;stroke-width:1.0;"/><text fill="#000000" font-family="sans-serif" font-size="11" lengthAdjust="spacingAndGlyphs" textLength="91" x="447" y="433.6714">getColumn(): int</text><ellipse cx="438" cy="443.2656" fill="#84BE84" rx="3" ry="3" style="stroke:#038048;stroke-width:1.0;"/><text fill="#000000" font-family="sans-serif" font-size="11" lengthAdjust="spacingAndGlyphs" textLength="86" x="447" y="446.4761">hashCode(): int</text><ellipse cx="438" cy="456.0703" fill="#84BE84" rx="3" ry="3" style="stroke:#038048;stroke-width:1.0;"/><text fill="#000000" font-family="sans-serif" font-size="11" lengthAdjust="spacingAndGlyphs" textLength="136" x="447" y="459.2808">equals(Object): boolean</text><ellipse cx="438" cy="468.875" fill="#84BE84" rx="3" ry="3" style="stroke:#038048;stroke-width:1.0;"/><text fill="#000000" font-family="sans-serif" font-size="11" lengthAdjust="spacingAndGlyphs" textLength="92" x="447" y="472.0854">toString(): String</text><!--MD5=[5f018ac69b30f51f68cd34c581e50301]
class usantatecla.utils.models.Coordinate--><rect codeLine="53" fill="#FEFECE" filter="url(#fhuei9l4vews8)" height="112.0234" id="usantatecla.utils.models.Coordinate" style="stroke:#A80036;stroke-width:1.5;" width="224" x="686" y="41"/><ellipse cx="761.25" cy="57" fill="#B4A7E5" rx="11" ry="11" style="stroke:#A80036;stroke-width:1.0;"/><path d="M762.2031,53.7813 L763.9219,53.7813 C764.3125,53.7813 764.5,53.75 764.625,53.6719 C764.8906,53.5156 765.0313,53.2344 765.0313,52.9375 C765.0313,52.6719 764.9219,52.4063 764.6875,52.2344 C764.5156,52.125 764.375,52.0938 763.9219,52.0938 L758.7813,52.0938 C758.3438,52.0938 758.2188,52.1094 758.0625,52.2031 C757.8125,52.3594 757.6563,52.6563 757.6563,52.9375 C757.6563,53.2188 757.7969,53.4688 758.0156,53.6406 C758.1719,53.75 758.3594,53.7813 758.7813,53.7813 L760.5,53.7813 L760.5,60.2969 L758.7813,60.2969 C758.3438,60.2969 758.2188,60.3125 758.0625,60.4219 C757.8125,60.5781 757.6563,60.8594 757.6563,61.1563 C757.6563,61.4063 757.7969,61.6719 758.0156,61.8281 C758.1719,61.9531 758.375,62 758.7813,62 L763.9219,62 C764.6719,62 765.0313,61.7188 765.0313,61.1563 C765.0313,60.875 764.9219,60.625 764.6875,60.4531 C764.5156,60.3281 764.375,60.2969 763.9219,60.2969 L762.2031,60.2969 L762.2031,53.7813 Z " fill="#000000"/><text fill="#000000" font-family="sans-serif" font-size="12" font-style="italic" lengthAdjust="spacingAndGlyphs" textLength="65" x="781.75" y="61.1543">Coordinate</text><line style="stroke:#A80036;stroke-width:1.5;" x1="687" x2="909" y1="73" y2="73"/><line style="stroke:#A80036;stroke-width:1.5;" x1="687" x2="909" y1="81" y2="81"/><polygon fill="#4177AF" points="697,88,693,94,701,94" style="stroke:#1963A0;stroke-width:1.0;"/><text fill="#000000" font-family="sans-serif" font-size="11" lengthAdjust="spacingAndGlyphs" textLength="91" x="706" y="95.2104">isNull(): boolean</text><polygon fill="#4177AF" points="697,100.8047,693,106.8047,701,106.8047" style="stroke:#1963A0;stroke-width:1.0;"/><text fill="#000000" font-family="sans-serif" font-size="11" lengthAdjust="spacingAndGlyphs" textLength="198" x="706" y="108.0151">getDirection(Coordinate): Direction</text><polygon fill="#4177AF" points="697,113.6094,693,119.6094,701,119.6094" style="stroke:#1963A0;stroke-width:1.0;"/><text fill="#000000" font-family="sans-serif" font-size="11" lengthAdjust="spacingAndGlyphs" textLength="190" x="706" y="120.8198">inHorizontal(Coordinate): boolean</text><polygon fill="#4177AF" points="697,126.4141,693,132.4141,701,132.4141" style="stroke:#1963A0;stroke-width:1.0;"/><text fill="#000000" font-family="sans-serif" font-size="11" lengthAdjust="spacingAndGlyphs" textLength="176" x="706" y="133.6245">inVertical(Coordinate): boolean</text><polygon fill="#4177AF" points="697,139.2188,693,145.2188,701,145.2188" style="stroke:#1963A0;stroke-width:1.0;"/><text fill="#000000" font-family="sans-serif" font-size="11" lengthAdjust="spacingAndGlyphs" textLength="147" x="706" y="146.4292">inMainDiagonal(): boolean</text><!--MD5=[fa47e12b1ade8e81943ba4775d45235c]
class usantatecla.utils.models.Direction--><rect codeLine="62" fill="#FEFECE" filter="url(#fhuei9l4vews8)" height="112.0234" id="usantatecla.utils.models.Direction" style="stroke:#A80036;stroke-width:1.5;" width="126" x="735" y="590"/><ellipse cx="768" cy="606" fill="#EB937F" rx="11" ry="11" style="stroke:#A80036;stroke-width:1.0;"/><path d="M766.7969,606.875 L768.25,606.875 L768.25,606.9844 C768.25,607.3906 768.2813,607.5469 768.3594,607.7031 C768.5156,607.9531 768.7969,608.1094 769.0938,608.1094 C769.3438,608.1094 769.6094,607.9688 769.7656,607.75 C769.8906,607.5938 769.9219,607.4375 769.9219,606.9844 L769.9219,605.0625 C769.9219,604.9063 769.9219,604.8594 769.9063,604.7031 C769.8438,604.2344 769.5313,603.9219 769.0781,603.9219 C768.8281,603.9219 768.5625,604.0625 768.3906,604.2813 C768.2813,604.4531 768.25,604.6094 768.25,605.0625 L768.25,605.1875 L766.7969,605.1875 L766.7969,602.7813 L770.7813,602.7813 L770.7813,603.6406 C770.7813,604.0469 770.8125,604.2188 770.8906,604.375 C771.0625,604.625 771.3438,604.7813 771.625,604.7813 C771.8906,604.7813 772.1563,604.6406 772.3281,604.4219 C772.4375,604.25 772.4688,604.1094 772.4688,603.6406 L772.4688,601.0938 L764.8438,601.0938 C764.4063,601.0938 764.2813,601.1094 764.125,601.2031 C763.875,601.3594 763.7188,601.6563 763.7188,601.9375 C763.7188,602.2188 763.8594,602.4688 764.0781,602.6406 C764.2344,602.75 764.4219,602.7813 764.8438,602.7813 L765.0938,602.7813 L765.0938,609.2969 L764.8438,609.2969 C764.4375,609.2969 764.2813,609.3125 764.125,609.4219 C763.875,609.5938 763.7188,609.8594 763.7188,610.1563 C763.7188,610.4219 763.8594,610.6719 764.0781,610.8281 C764.2188,610.9531 764.4531,611 764.8438,611 L772.8438,611 L772.8438,608.4219 C772.8438,607.9844 772.8125,607.8438 772.7344,607.6875 C772.5625,607.4375 772.2813,607.2813 772,607.2813 C771.7344,607.2813 771.4688,607.3906 771.2969,607.6406 C771.1875,607.7969 771.1563,607.9375 771.1563,608.4219 L771.1563,609.2969 L766.7969,609.2969 L766.7969,606.875 Z " fill="#000000"/><text fill="#000000" font-family="sans-serif" font-size="12" lengthAdjust="spacingAndGlyphs" textLength="54" x="786" y="610.1543">Direction</text><line style="stroke:#A80036;stroke-width:1.5;" x1="736" x2="860" y1="622" y2="622"/><text fill="#000000" font-family="sans-serif" font-size="11" lengthAdjust="spacingAndGlyphs" textLength="54" x="741" y="636.2104">VERTICAL</text><text fill="#000000" font-family="sans-serif" font-size="11" lengthAdjust="spacingAndGlyphs" textLength="73" x="741" y="649.0151">HORIZONTAL</text><text fill="#000000" font-family="sans-serif" font-size="11" lengthAdjust="spacingAndGlyphs" textLength="94" x="741" y="661.8198">MAIN_DIAGONAL</text><text fill="#000000" font-family="sans-serif" font-size="11" lengthAdjust="spacingAndGlyphs" textLength="114" x="741" y="674.6245">INVERSE_DIAGONAL</text><text fill="#000000" font-family="sans-serif" font-size="11" lengthAdjust="spacingAndGlyphs" textLength="28" x="741" y="687.4292">NULL</text><line style="stroke:#A80036;stroke-width:1.5;" x1="736" x2="860" y1="694.0234" y2="694.0234"/><!--MD5=[5a5a2ad444bc00c1498d76ebf80a1dc4]
class usantatecla.utils.views.Console--><rect codeLine="36" fill="#FEFECE" filter="url(#fhuei9l4vews8)" height="214.4609" id="usantatecla.utils.views.Console" style="stroke:#A80036;stroke-width:1.5;" width="166" x="229" y="539"/><ellipse cx="283.25" cy="555" fill="#ADD1B2" rx="11" ry="11" style="stroke:#A80036;stroke-width:1.0;"/><path d="M285.5938,550.6719 C284.6563,550.2344 284.0625,550.0938 283.1875,550.0938 C280.5625,550.0938 278.5625,552.1719 278.5625,554.8906 L278.5625,556.0156 C278.5625,558.5938 280.6719,560.4844 283.5625,560.4844 C284.7813,560.4844 285.9375,560.1875 286.6875,559.6406 C287.2656,559.2344 287.5938,558.7813 287.5938,558.3906 C287.5938,557.9375 287.2031,557.5469 286.7344,557.5469 C286.5156,557.5469 286.3125,557.625 286.125,557.8125 C285.6719,558.2969 285.6719,558.2969 285.4844,558.3906 C285.0625,558.6563 284.375,558.7813 283.6094,558.7813 C281.5625,558.7813 280.2656,557.6875 280.2656,555.9844 L280.2656,554.8906 C280.2656,553.1094 281.5156,551.7969 283.25,551.7969 C283.8281,551.7969 284.4375,551.9531 284.9063,552.2031 C285.3906,552.4844 285.5625,552.7031 285.6563,553.1094 C285.7188,553.5156 285.75,553.6406 285.8906,553.7656 C286.0313,553.9063 286.2656,554.0156 286.4844,554.0156 C286.75,554.0156 287.0156,553.875 287.1875,553.6563 C287.2969,553.5 287.3281,553.3125 287.3281,552.8906 L287.3281,551.4688 C287.3281,551.0313 287.3125,550.9063 287.2188,550.75 C287.0625,550.4844 286.7813,550.3438 286.4844,550.3438 C286.1875,550.3438 285.9844,550.4375 285.7656,550.75 L285.5938,550.6719 Z " fill="#000000"/><text fill="#000000" font-family="sans-serif" font-size="12" lengthAdjust="spacingAndGlyphs" textLength="49" x="303.75" y="559.1543">Console</text><line style="stroke:#A80036;stroke-width:1.5;" x1="230" x2="394" y1="571" y2="571"/><rect fill="none" height="6" style="stroke:#C82930;stroke-width:1.0;" width="6" x="237" y="579"/><text fill="#000000" font-family="sans-serif" font-size="11" lengthAdjust="spacingAndGlyphs" text-decoration="underline" textLength="97" x="249" y="585.2104">console: Console</text><line style="stroke:#A80036;stroke-width:1.5;" x1="230" x2="394" y1="591.8047" y2="591.8047"/><ellipse cx="240" cy="602.8047" fill="#84BE84" rx="3" ry="3" style="stroke:#038048;stroke-width:1.0;"/><text fill="#000000" font-family="sans-serif" font-size="11" lengthAdjust="spacingAndGlyphs" text-decoration="underline" textLength="109" x="249" y="606.0151">instance(): Console</text><rect fill="#F24D5C" height="6" style="stroke:#C82930;stroke-width:1.0;" width="6" x="237" y="612.6094"/><text fill="#000000" font-family="sans-serif" font-size="11" lengthAdjust="spacingAndGlyphs" textLength="140" x="249" y="618.8198">readString(String): String</text><ellipse cx="240" cy="628.4141" fill="#84BE84" rx="3" ry="3" style="stroke:#038048;stroke-width:1.0;"/><text fill="#000000" font-family="sans-serif" font-size="11" lengthAdjust="spacingAndGlyphs" textLength="107" x="249" y="631.6245">readString(): String</text><ellipse cx="240" cy="641.2188" fill="#84BE84" rx="3" ry="3" style="stroke:#038048;stroke-width:1.0;"/><text fill="#000000" font-family="sans-serif" font-size="11" lengthAdjust="spacingAndGlyphs" textLength="102" x="249" y="644.4292">readInt(String): int</text><polygon fill="#4177AF" points="240,650.0234,236,656.0234,244,656.0234" style="stroke:#1963A0;stroke-width:1.0;"/><text fill="#000000" font-family="sans-serif" font-size="11" lengthAdjust="spacingAndGlyphs" textLength="124" x="249" y="657.2339">readChar(String): char</text><ellipse cx="240" cy="666.8281" fill="#84BE84" rx="3" ry="3" style="stroke:#038048;stroke-width:1.0;"/><text fill="#000000" font-family="sans-serif" font-size="11" lengthAdjust="spacingAndGlyphs" textLength="46" x="249" y="670.0386">writeln()</text><ellipse cx="240" cy="679.6328" fill="#84BE84" rx="3" ry="3" style="stroke:#038048;stroke-width:1.0;"/><text fill="#000000" font-family="sans-serif" font-size="11" lengthAdjust="spacingAndGlyphs" textLength="69" x="249" y="682.8433">write(String)</text><ellipse cx="240" cy="692.4375" fill="#84BE84" rx="3" ry="3" style="stroke:#038048;stroke-width:1.0;"/><text fill="#000000" font-family="sans-serif" font-size="11" lengthAdjust="spacingAndGlyphs" textLength="50" x="249" y="695.6479">write(int)</text><ellipse cx="240" cy="705.2422" fill="#84BE84" rx="3" ry="3" style="stroke:#038048;stroke-width:1.0;"/><text fill="#000000" font-family="sans-serif" font-size="11" lengthAdjust="spacingAndGlyphs" textLength="79" x="249" y="708.4526">writeln(String)</text><ellipse cx="240" cy="718.0469" fill="#84BE84" rx="3" ry="3" style="stroke:#038048;stroke-width:1.0;"/><text fill="#000000" font-family="sans-serif" font-size="11" lengthAdjust="spacingAndGlyphs" textLength="60" x="249" y="721.2573">writeln(int)</text><ellipse cx="240" cy="730.8516" fill="#84BE84" rx="3" ry="3" style="stroke:#038048;stroke-width:1.0;"/><text fill="#000000" font-family="sans-serif" font-size="11" lengthAdjust="spacingAndGlyphs" textLength="60" x="249" y="734.062">write(char)</text><rect fill="#F24D5C" height="6" style="stroke:#C82930;stroke-width:1.0;" width="6" x="237" y="740.6563"/><text fill="#000000" font-family="sans-serif" font-size="11" lengthAdjust="spacingAndGlyphs" textLength="95" x="249" y="746.8667">writeError(String)</text><!--MD5=[3415149f6924cb72405a86d2dbe048ff]
class usantatecla.utils.LimitedIntDialog--><rect codeLine="70" fill="#FEFECE" filter="url(#fhuei9l4vews8)" height="99.2188" id="usantatecla.utils.LimitedIntDialog" style="stroke:#A80036;stroke-width:1.5;" width="165" x="32.5" y="296.5"/><ellipse cx="64.6" cy="312.5" fill="#ADD1B2" rx="11" ry="11" style="stroke:#A80036;stroke-width:1.0;"/><path d="M66.9438,308.1719 C66.0063,307.7344 65.4125,307.5938 64.5375,307.5938 C61.9125,307.5938 59.9125,309.6719 59.9125,312.3906 L59.9125,313.5156 C59.9125,316.0938 62.0219,317.9844 64.9125,317.9844 C66.1313,317.9844 67.2875,317.6875 68.0375,317.1406 C68.6156,316.7344 68.9438,316.2813 68.9438,315.8906 C68.9438,315.4375 68.5531,315.0469 68.0844,315.0469 C67.8656,315.0469 67.6625,315.125 67.475,315.3125 C67.0219,315.7969 67.0219,315.7969 66.8344,315.8906 C66.4125,316.1563 65.725,316.2813 64.9594,316.2813 C62.9125,316.2813 61.6156,315.1875 61.6156,313.4844 L61.6156,312.3906 C61.6156,310.6094 62.8656,309.2969 64.6,309.2969 C65.1781,309.2969 65.7875,309.4531 66.2563,309.7031 C66.7406,309.9844 66.9125,310.2031 67.0063,310.6094 C67.0688,311.0156 67.1,311.1406 67.2406,311.2656 C67.3813,311.4063 67.6156,311.5156 67.8344,311.5156 C68.1,311.5156 68.3656,311.375 68.5375,311.1563 C68.6469,311 68.6781,310.8125 68.6781,310.3906 L68.6781,308.9688 C68.6781,308.5313 68.6625,308.4063 68.5688,308.25 C68.4125,307.9844 68.1313,307.8438 67.8344,307.8438 C67.5375,307.8438 67.3344,307.9375 67.1156,308.25 L66.9438,308.1719 Z " fill="#000000"/><text fill="#000000" font-family="sans-serif" font-size="12" lengthAdjust="spacingAndGlyphs" textLength="95" x="82.4" y="316.6543">LimitedIntDialog</text><line style="stroke:#A80036;stroke-width:1.5;" x1="33.5" x2="196.5" y1="328.5" y2="328.5"/><rect fill="none" height="6" style="stroke:#C82930;stroke-width:1.0;" width="6" x="40.5" y="336.5"/><text fill="#000000" font-family="sans-serif" font-size="11" lengthAdjust="spacingAndGlyphs" textLength="125" x="52.5" y="342.7104">LIMITS: ClosedInterval</text><rect fill="none" height="6" style="stroke:#C82930;stroke-width:1.0;" width="6" x="40.5" y="349.3047"/><text fill="#000000" font-family="sans-serif" font-size="11" lengthAdjust="spacingAndGlyphs" text-decoration="underline" textLength="139" x="52.5" y="355.5151">ERROR_MESSAGE: String</text><line style="stroke:#A80036;stroke-width:1.5;" x1="33.5" x2="196.5" y1="362.1094" y2="362.1094"/><ellipse cx="43.5" cy="373.1094" fill="#84BE84" rx="3" ry="3" style="stroke:#038048;stroke-width:1.0;"/><text fill="#000000" font-family="sans-serif" font-size="11" lengthAdjust="spacingAndGlyphs" textLength="131" x="52.5" y="376.3198">LimitedIntDialog(int,int)</text><ellipse cx="43.5" cy="385.9141" fill="#84BE84" rx="3" ry="3" style="stroke:#038048;stroke-width:1.0;"/><text fill="#000000" font-family="sans-serif" font-size="11" lengthAdjust="spacingAndGlyphs" textLength="88" x="52.5" y="389.1245">read(String): int</text><!--MD5=[d5f17ae0f97d6def496fbead5961f960]
class usantatecla.utils.models.NullCoordinate--><rect codeLine="80" fill="#FEFECE" filter="url(#fhuei9l4vews8)" height="176.0469" id="usantatecla.utils.models.NullCoordinate" style="stroke:#A80036;stroke-width:1.5;" width="224" x="686" y="258"/><ellipse cx="750.25" cy="274" fill="#ADD1B2" rx="11" ry="11" style="stroke:#A80036;stroke-width:1.0;"/><path d="M752.5938,269.6719 C751.6563,269.2344 751.0625,269.0938 750.1875,269.0938 C747.5625,269.0938 745.5625,271.1719 745.5625,273.8906 L745.5625,275.0156 C745.5625,277.5938 747.6719,279.4844 750.5625,279.4844 C751.7813,279.4844 752.9375,279.1875 753.6875,278.6406 C754.2656,278.2344 754.5938,277.7813 754.5938,277.3906 C754.5938,276.9375 754.2031,276.5469 753.7344,276.5469 C753.5156,276.5469 753.3125,276.625 753.125,276.8125 C752.6719,277.2969 752.6719,277.2969 752.4844,277.3906 C752.0625,277.6563 751.375,277.7813 750.6094,277.7813 C748.5625,277.7813 747.2656,276.6875 747.2656,274.9844 L747.2656,273.8906 C747.2656,272.1094 748.5156,270.7969 750.25,270.7969 C750.8281,270.7969 751.4375,270.9531 751.9063,271.2031 C752.3906,271.4844 752.5625,271.7031 752.6563,272.1094 C752.7188,272.5156 752.75,272.6406 752.8906,272.7656 C753.0313,272.9063 753.2656,273.0156 753.4844,273.0156 C753.75,273.0156 754.0156,272.875 754.1875,272.6563 C754.2969,272.5 754.3281,272.3125 754.3281,271.8906 L754.3281,270.4688 C754.3281,270.0313 754.3125,269.9063 754.2188,269.75 C754.0625,269.4844 753.7813,269.3438 753.4844,269.3438 C753.1875,269.3438 752.9844,269.4375 752.7656,269.75 L752.5938,269.6719 Z " fill="#000000"/><text fill="#000000" font-family="sans-serif" font-size="12" lengthAdjust="spacingAndGlyphs" textLength="87" x="770.75" y="278.1543">NullCoordinate</text><line style="stroke:#A80036;stroke-width:1.5;" x1="687" x2="909" y1="290" y2="290"/><rect fill="none" height="6" style="stroke:#C82930;stroke-width:1.0;" width="6" x="694" y="298"/><text fill="#000000" font-family="sans-serif" font-size="11" lengthAdjust="spacingAndGlyphs" text-decoration="underline" textLength="138" x="706" y="304.2104">instance: NullCoordinate</text><line style="stroke:#A80036;stroke-width:1.5;" x1="687" x2="909" y1="310.8047" y2="310.8047"/><ellipse cx="697" cy="321.8047" fill="#84BE84" rx="3" ry="3" style="stroke:#038048;stroke-width:1.0;"/><text fill="#000000" font-family="sans-serif" font-size="11" lengthAdjust="spacingAndGlyphs" text-decoration="underline" textLength="125" x="706" y="325.0151">instance(): Coordinate</text><ellipse cx="697" cy="334.6094" fill="#84BE84" rx="3" ry="3" style="stroke:#038048;stroke-width:1.0;"/><text fill="#000000" font-family="sans-serif" font-size="11" lengthAdjust="spacingAndGlyphs" textLength="91" x="706" y="337.8198">isNull(): boolean</text><ellipse cx="697" cy="347.4141" fill="#84BE84" rx="3" ry="3" style="stroke:#038048;stroke-width:1.0;"/><text fill="#000000" font-family="sans-serif" font-size="11" lengthAdjust="spacingAndGlyphs" textLength="198" x="706" y="350.6245">getDirection(Coordinate): Direction</text><ellipse cx="697" cy="360.2188" fill="#84BE84" rx="3" ry="3" style="stroke:#038048;stroke-width:1.0;"/><text fill="#000000" font-family="sans-serif" font-size="11" lengthAdjust="spacingAndGlyphs" textLength="190" x="706" y="363.4292">inHorizontal(Coordinate): boolean</text><ellipse cx="697" cy="373.0234" fill="#84BE84" rx="3" ry="3" style="stroke:#038048;stroke-width:1.0;"/><text fill="#000000" font-family="sans-serif" font-size="11" lengthAdjust="spacingAndGlyphs" textLength="176" x="706" y="376.2339">inVertical(Coordinate): boolean</text><ellipse cx="697" cy="385.8281" fill="#84BE84" rx="3" ry="3" style="stroke:#038048;stroke-width:1.0;"/><text fill="#000000" font-family="sans-serif" font-size="11" lengthAdjust="spacingAndGlyphs" textLength="147" x="706" y="389.0386">inMainDiagonal(): boolean</text><ellipse cx="697" cy="398.6328" fill="#84BE84" rx="3" ry="3" style="stroke:#038048;stroke-width:1.0;"/><text fill="#000000" font-family="sans-serif" font-size="11" lengthAdjust="spacingAndGlyphs" textLength="86" x="706" y="401.8433">hashCode(): int</text><ellipse cx="697" cy="411.4375" fill="#84BE84" rx="3" ry="3" style="stroke:#038048;stroke-width:1.0;"/><text fill="#000000" font-family="sans-serif" font-size="11" lengthAdjust="spacingAndGlyphs" textLength="136" x="706" y="414.6479">equals(Object): boolean</text><ellipse cx="697" cy="424.2422" fill="#84BE84" rx="3" ry="3" style="stroke:#038048;stroke-width:1.0;"/><text fill="#000000" font-family="sans-serif" font-size="11" lengthAdjust="spacingAndGlyphs" textLength="92" x="706" y="427.4526">toString(): String</text><!--MD5=[115031fed92a4467bd358dd9ee6729dd]
class usantatecla.utils.views.YesNoDialog--><rect codeLine="95" fill="#FEFECE" filter="url(#fhuei9l4vews8)" height="163.2422" id="usantatecla.utils.views.YesNoDialog" style="stroke:#A80036;stroke-width:1.5;" width="159" x="232.5" y="264.5"/><ellipse cx="270.45" cy="280.5" fill="#ADD1B2" rx="11" ry="11" style="stroke:#A80036;stroke-width:1.0;"/><path d="M272.7938,276.1719 C271.8563,275.7344 271.2625,275.5938 270.3875,275.5938 C267.7625,275.5938 265.7625,277.6719 265.7625,280.3906 L265.7625,281.5156 C265.7625,284.0938 267.8719,285.9844 270.7625,285.9844 C271.9813,285.9844 273.1375,285.6875 273.8875,285.1406 C274.4656,284.7344 274.7938,284.2813 274.7938,283.8906 C274.7938,283.4375 274.4031,283.0469 273.9344,283.0469 C273.7156,283.0469 273.5125,283.125 273.325,283.3125 C272.8719,283.7969 272.8719,283.7969 272.6844,283.8906 C272.2625,284.1563 271.575,284.2813 270.8094,284.2813 C268.7625,284.2813 267.4656,283.1875 267.4656,281.4844 L267.4656,280.3906 C267.4656,278.6094 268.7156,277.2969 270.45,277.2969 C271.0281,277.2969 271.6375,277.4531 272.1063,277.7031 C272.5906,277.9844 272.7625,278.2031 272.8563,278.6094 C272.9188,279.0156 272.95,279.1406 273.0906,279.2656 C273.2313,279.4063 273.4656,279.5156 273.6844,279.5156 C273.95,279.5156 274.2156,279.375 274.3875,279.1563 C274.4969,279 274.5281,278.8125 274.5281,278.3906 L274.5281,276.9688 C274.5281,276.5313 274.5125,276.4063 274.4188,276.25 C274.2625,275.9844 273.9813,275.8438 273.6844,275.8438 C273.3875,275.8438 273.1844,275.9375 272.9656,276.25 L272.7938,276.1719 Z " fill="#000000"/><text fill="#000000" font-family="sans-serif" font-size="12" lengthAdjust="spacingAndGlyphs" textLength="76" x="289.55" y="284.6543">YesNoDialog</text><line style="stroke:#A80036;stroke-width:1.5;" x1="233.5" x2="390.5" y1="296.5" y2="296.5"/><rect fill="none" height="6" style="stroke:#C82930;stroke-width:1.0;" width="6" x="240.5" y="304.5"/><text fill="#000000" font-family="sans-serif" font-size="11" lengthAdjust="spacingAndGlyphs" text-decoration="underline" textLength="97" x="252.5" y="310.7104">AFIRMATIVE: char</text><rect fill="none" height="6" style="stroke:#C82930;stroke-width:1.0;" width="6" x="240.5" y="317.3047"/><text fill="#000000" font-family="sans-serif" font-size="11" lengthAdjust="spacingAndGlyphs" text-decoration="underline" textLength="88" x="252.5" y="323.5151">NEGATIVE: char</text><rect fill="none" height="6" style="stroke:#C82930;stroke-width:1.0;" width="6" x="240.5" y="330.1094"/><text fill="#000000" font-family="sans-serif" font-size="11" lengthAdjust="spacingAndGlyphs" text-decoration="underline" textLength="79" x="252.5" y="336.3198">SUFFIX: String</text><rect fill="none" height="6" style="stroke:#C82930;stroke-width:1.0;" width="6" x="240.5" y="342.9141"/><text fill="#000000" font-family="sans-serif" font-size="11" lengthAdjust="spacingAndGlyphs" text-decoration="underline" textLength="96" x="252.5" y="349.1245">MESSAGE: String</text><rect fill="none" height="6" style="stroke:#C82930;stroke-width:1.0;" width="6" x="240.5" y="355.7188"/><text fill="#000000" font-family="sans-serif" font-size="11" lengthAdjust="spacingAndGlyphs" textLength="72" x="252.5" y="361.9292">answer: char</text><line style="stroke:#A80036;stroke-width:1.5;" x1="233.5" x2="390.5" y1="368.5234" y2="368.5234"/><ellipse cx="243.5" cy="379.5234" fill="#84BE84" rx="3" ry="3" style="stroke:#038048;stroke-width:1.0;"/><text fill="#000000" font-family="sans-serif" font-size="11" lengthAdjust="spacingAndGlyphs" textLength="120" x="252.5" y="382.7339">read(String): boolean</text><rect fill="#F24D5C" height="6" style="stroke:#C82930;stroke-width:1.0;" width="6" x="240.5" y="389.3281"/><text fill="#000000" font-family="sans-serif" font-size="11" lengthAdjust="spacingAndGlyphs" textLength="133" x="252.5" y="395.5386">isAffirmative(): boolean</text><rect fill="#F24D5C" height="6" style="stroke:#C82930;stroke-width:1.0;" width="6" x="240.5" y="402.1328"/><text fill="#000000" font-family="sans-serif" font-size="11" lengthAdjust="spacingAndGlyphs" textLength="100" x="252.5" y="408.3433">getAnswer(): char</text><rect fill="#F24D5C" height="6" style="stroke:#C82930;stroke-width:1.0;" width="6" x="240.5" y="414.9375"/><text fill="#000000" font-family="sans-serif" font-size="11" lengthAdjust="spacingAndGlyphs" textLength="122" x="252.5" y="421.1479">isNegative(): boolean</text><!--MD5=[ee4f8f5c2b5eaa5df2ba8c0614cd4e83]
class BufferedReader--><rect codeLine="1" fill="#FEFECE" filter="url(#fhuei9l4vews8)" height="48" id="BufferedReader" style="stroke:#A80036;stroke-width:1.5;" width="168" x="228" y="813"/><ellipse cx="243" cy="829" fill="#ADD1B2" rx="11" ry="11" style="stroke:#A80036;stroke-width:1.0;"/><path d="M245.3438,824.6719 C244.4063,824.2344 243.8125,824.0938 242.9375,824.0938 C240.3125,824.0938 238.3125,826.1719 238.3125,828.8906 L238.3125,830.0156 C238.3125,832.5938 240.4219,834.4844 243.3125,834.4844 C244.5313,834.4844 245.6875,834.1875 246.4375,833.6406 C247.0156,833.2344 247.3438,832.7813 247.3438,832.3906 C247.3438,831.9375 246.9531,831.5469 246.4844,831.5469 C246.2656,831.5469 246.0625,831.625 245.875,831.8125 C245.4219,832.2969 245.4219,832.2969 245.2344,832.3906 C244.8125,832.6563 244.125,832.7813 243.3594,832.7813 C241.3125,832.7813 240.0156,831.6875 240.0156,829.9844 L240.0156,828.8906 C240.0156,827.1094 241.2656,825.7969 243,825.7969 C243.5781,825.7969 244.1875,825.9531 244.6563,826.2031 C245.1406,826.4844 245.3125,826.7031 245.4063,827.1094 C245.4688,827.5156 245.5,827.6406 245.6406,827.7656 C245.7813,827.9063 246.0156,828.0156 246.2344,828.0156 C246.5,828.0156 246.7656,827.875 246.9375,827.6563 C247.0469,827.5 247.0781,827.3125 247.0781,826.8906 L247.0781,825.4688 C247.0781,825.0313 247.0625,824.9063 246.9688,824.75 C246.8125,824.4844 246.5313,824.3438 246.2344,824.3438 C245.9375,824.3438 245.7344,824.4375 245.5156,824.75 L245.3438,824.6719 Z " fill="#000000"/><text fill="#000000" font-family="sans-serif" font-size="12" lengthAdjust="spacingAndGlyphs" textLength="136" x="257" y="833.1543">java.io.BufferedReader</text><line style="stroke:#A80036;stroke-width:1.5;" x1="229" x2="395" y1="845" y2="845"/><line style="stroke:#A80036;stroke-width:1.5;" x1="229" x2="395" y1="853" y2="853"/><!--MD5=[ca73a4fbcee54775298381742925c483]
reverse link usantatecla.utils.models.Coordinate to usantatecla.utils.models.ConcreteCoordinate--><path codeLine="31" d="M719.414,166.593 C702.593,181.681 685.059,197.72 669,213 C663.175,218.543 657.247,224.262 651.293,230.07 " fill="none" id="usantatecla.utils.models.Coordinate-backto-usantatecla.utils.models.ConcreteCoordinate" style="stroke:#A80036;stroke-width:1.0;"/><polygon fill="none" points="715.011,161.14,734.598,153.055,724.329,171.59,715.011,161.14" style="stroke:#A80036;stroke-width:1.0;"/><!--MD5=[2ac6cf39138a65766cc943772f2871d0]
link usantatecla.utils.models.ConcreteCoordinate to usantatecla.utils.models.Direction--><path codeLine="32" d="M651.095,475.974 C684.464,514.368 719.403,554.568 746.832,586.127 " fill="none" id="usantatecla.utils.models.ConcreteCoordinate-to-usantatecla.utils.models.Direction" style="stroke:#A80036;stroke-width:1.0;stroke-dasharray:7.0,7.0;"/><polygon fill="#A80036" points="750.139,589.932,747.2546,580.515,746.8592,586.158,741.2162,585.7626,750.139,589.932" style="stroke:#A80036;stroke-width:1.0;"/><!--MD5=[0002b1cbccdb92ae6e9caff73706633c]
link usantatecla.utils.models.ConcreteCoordinate to usantatecla.utils.views.Console--><path codeLine="33" d="M438.443,479.009 C424.331,497.535 409.948,516.416 396.183,534.487 " fill="none" id="usantatecla.utils.models.ConcreteCoordinate-to-usantatecla.utils.views.Console" style="stroke:#A80036;stroke-width:1.0;stroke-dasharray:7.0,7.0;"/><polygon fill="#A80036" points="393.071,538.572,401.707,533.837,396.1011,534.5947,395.3434,528.9889,393.071,538.572" style="stroke:#A80036;stroke-width:1.0;"/><!--MD5=[14426ff67e875e6661b88179367ed759]
link usantatecla.utils.views.Console to BufferedReader--><path codeLine="51" d="M312,765.102 C312,765.102 312,789.6664 312,799.6942 " fill="none" id="usantatecla.utils.views.Console-BufferedReader" style="stroke:#A80036;stroke-width:1.0;"/><polygon fill="#A80036" points="312,812.8278,316,803.8278,312,807.8278,308,803.8278,312,812.8278" style="stroke:#A80036;stroke-width:1.0;"/><line style="stroke:#A80036;stroke-width:1.0;" x1="312" x2="312" y1="807.8278" y2="799.8279"/><polygon fill="#A80036" points="312,753.102,308,759.102,312,765.102,316,759.102,312,753.102" style="stroke:#A80036;stroke-width:1.0;"/><!--MD5=[a8ffb3790df5680269bc6d65de93cdf4]
link usantatecla.utils.models.Coordinate to usantatecla.utils.models.Direction--><path codeLine="60" d="M881.453,153.029 C900.242,169.849 917.665,190.059 928,213 C976.559,320.789 966.553,367.241 928,479 C914.234,518.906 886.489,556.545 860.154,585.861 " fill="none" id="usantatecla.utils.models.Coordinate-to-usantatecla.utils.models.Direction" style="stroke:#A80036;stroke-width:1.0;stroke-dasharray:7.0,7.0;"/><polygon fill="#A80036" points="856.617,589.759,865.6272,585.7819,859.9769,586.0562,859.7027,580.406,856.617,589.759" style="stroke:#A80036;stroke-width:1.0;"/><!--MD5=[ea5cf5ece861ff4fd45a5d576f5bc955]
link usantatecla.utils.LimitedIntDialog to usantatecla.utils.models.ClosedInterval--><path codeLine="77" d="M115,407.542 C115,407.542 115,526.105 115,576.768 " fill="none" id="usantatecla.utils.LimitedIntDialog-usantatecla.utils.models.ClosedInterval" style="stroke:#A80036;stroke-width:1.0;"/><polygon fill="#A80036" points="115,589.896,119,580.896,115,584.896,111,580.896,115,589.896" style="stroke:#A80036;stroke-width:1.0;"/><line style="stroke:#A80036;stroke-width:1.0;" x1="115" x2="115" y1="584.896" y2="576.896"/><polygon fill="#A80036" points="115,395.542,111,401.542,115,407.542,119,401.542,115,395.542" style="stroke:#A80036;stroke-width:1.0;"/><!--MD5=[9ea9fdac8877b2914dbfaebea76eb772]
link usantatecla.utils.LimitedIntDialog to usantatecla.utils.views.Console--><path codeLine="78" d="M147.09,395.542 C171.961,433.164 207.405,486.78 239.064,534.671 " fill="none" id="usantatecla.utils.LimitedIntDialog-to-usantatecla.utils.views.Console" style="stroke:#A80036;stroke-width:1.0;stroke-dasharray:7.0,7.0;"/><polygon fill="#A80036" points="241.92,538.991,240.2928,529.2775,239.1623,534.8202,233.6196,533.6897,241.92,538.991" style="stroke:#A80036;stroke-width:1.0;"/><!--MD5=[cddedadb31d71f7b6d8b58208518f687]
reverse link usantatecla.utils.models.Coordinate to usantatecla.utils.models.NullCoordinate--><path codeLine="92" d="M798,173.148 C798,199.783 798,229.982 798,257.553 " fill="none" id="usantatecla.utils.models.Coordinate-backto-usantatecla.utils.models.NullCoordinate" style="stroke:#A80036;stroke-width:1.0;"/><polygon fill="none" points="791,173.124,798,153.124,805,173.124,791,173.124" style="stroke:#A80036;stroke-width:1.0;"/><!--MD5=[f4a3ffee0d70fd4bf2493c212343a6d3]
link usantatecla.utils.models.NullCoordinate to usantatecla.utils.models.Direction--><path codeLine="93" d="M798,434.396 C798,482.751 798,541.611 798,584.8 " fill="none" id="usantatecla.utils.models.NullCoordinate-to-usantatecla.utils.models.Direction" style="stroke:#A80036;stroke-width:1.0;stroke-dasharray:7.0,7.0;"/><polygon fill="#A80036" points="798,589.987,802,580.987,798,584.987,794,580.987,798,589.987" style="stroke:#A80036;stroke-width:1.0;"/><!--MD5=[bef9209ee563bd0cab945b38e8120dbd]
link usantatecla.utils.views.YesNoDialog to usantatecla.utils.views.Console--><path codeLine="106" d="M312,427.643 C312,460.255 312,498.444 312,533.637 " fill="none" id="usantatecla.utils.views.YesNoDialog-to-usantatecla.utils.views.Console" style="stroke:#A80036;stroke-width:1.0;stroke-dasharray:7.0,7.0;"/><polygon fill="#A80036" points="312,538.806,316,529.806,312,533.806,308,529.806,312,538.806" style="stroke:#A80036;stroke-width:1.0;"/><!--MD5=[de20f660439ad77280c68b3bdf731a22]
@startuml
class BufferedReader as "java.io.BufferedReader"{}

class  usantatecla.utils.models.ClosedInterval{
	- min: int
	- max: int
	+ ClosedInterval(int,int)
	+ isIncluded(int): boolean
	+ toString(): String
}

class usantatecla.utils.models.ConcreteCoordinate{
	# row: int
	# column: int
	- {static} ROW: String
	- {static} COLUMN: String
	# ConcreteCoordinate()
	# ConcreteCoordinate(int,int)
	+ isNull(): boolean
	+ getDirection(Coordinate): Direction
	+ inHorizontal(Coordinate): boolean
	+ inVertical(Coordinate): boolean
	+ inMainDiagonal(): boolean
	# read(String)
	+ getRow(): int
	+ getColumn(): int
	+ hashCode(): int
	+ equals(Object): boolean
	+ toString(): String
}

usantatecla.utils.models.Coordinate <|-down- usantatecla.utils.models.ConcreteCoordinate
usantatecla.utils.models.ConcreteCoordinate .down.> usantatecla.utils.models.Direction
usantatecla.utils.models.ConcreteCoordinate .down.> usantatecla.utils.views.Console


class usantatecla.utils.views.Console{
	- {static} console: Console
	+ {static} instance(): Console
	- readString(String): String
	+ readString(): String
	+ readInt(String): int
	~ readChar(String): char
	+ writeln()
	+ write(String)
	+ write(int)
	+ writeln(String)
	+ writeln(int)
	+ write(char)
	- writeError(String)
}
usantatecla.utils.views.Console *-down-> BufferedReader

interface usantatecla.utils.models.Coordinate{
	~ isNull(): boolean
	~ getDirection(Coordinate): Direction
	~ inHorizontal(Coordinate): boolean
	~ inVertical(Coordinate): boolean
	~ inMainDiagonal(): boolean
}
usantatecla.utils.models.Coordinate .down.> usantatecla.utils.models.Direction

enum usantatecla.utils.models.Direction{
	VERTICAL
	HORIZONTAL
	MAIN_DIAGONAL
	INVERSE_DIAGONAL
	NULL
}

class usantatecla.utils.LimitedIntDialog{
	- LIMITS: ClosedInterval
	- {static} ERROR_MESSAGE: String
	+ LimitedIntDialog(int,int)
	+ read(String): int
}

usantatecla.utils.LimitedIntDialog *-down-> usantatecla.utils.models.ClosedInterval
usantatecla.utils.LimitedIntDialog .down.> usantatecla.utils.views.Console

class usantatecla.utils.models.NullCoordinate{
	- {static} instance: NullCoordinate
	+ {static} instance(): Coordinate
	+ isNull(): boolean
	+ getDirection(Coordinate): Direction
	+ inHorizontal(Coordinate): boolean
	+ inVertical(Coordinate): boolean
	+ inMainDiagonal(): boolean
	+ hashCode(): int
	+ equals(Object): boolean
	+ toString(): String
}
usantatecla.utils.models.Coordinate <|-down- usantatecla.utils.models.NullCoordinate
usantatecla.utils.models.NullCoordinate .down.> usantatecla.utils.models.Direction

class usantatecla.utils.views.YesNoDialog{
	- {static} AFIRMATIVE: char
	- {static} NEGATIVE: char
	- {static} SUFFIX: String
	- {static} MESSAGE: String
	- answer: char
	+ read(String): boolean
	- isAffirmative(): boolean
	- getAnswer(): char
	- isNegative(): boolean
}
usantatecla.utils.views.YesNoDialog .down.> usantatecla.utils.views.Console
@enduml

PlantUML version 1.2020.23beta3(Unknown compile time)
(GPL source distribution)
Java Runtime: Java(TM) SE Runtime Environment
JVM: Java HotSpot(TM) 64-Bit Server VM
Default Encoding: UTF-8
Language: en
Country: US
--></g></svg>