<?xml version="1.0" encoding="UTF-8" standalone="no"?><svg xmlns="http://www.w3.org/2000/svg" xmlns:xlink="http://www.w3.org/1999/xlink" contentScriptType="application/ecmascript" contentStyleType="text/css" height="402px" preserveAspectRatio="none" style="width:766px;height:402px;" version="1.1" viewBox="0 0 766 402" width="766px" zoomAndPan="magnify"><defs><filter height="300%" id="fgq6mrci9s67l" width="300%" x="-1" y="-1"><feGaussianBlur result="blurOut" stdDeviation="2.0"/><feColorMatrix in="blurOut" result="blurOut2" type="matrix" values="0 0 0 0 0 0 0 0 0 0 0 0 0 0 0 0 0 0 .4 0"/><feOffset dx="4.0" dy="4.0" in="blurOut2" result="blurOut3"/><feBlend in="SourceGraphic" in2="blurOut3" mode="normal"/></filter></defs><g><!--MD5=[b59da53bc4cb019b9115ab51e8207bb0]
cluster usantatecla.tictactoe--><polygon fill="#FFFFFF" filter="url(#fgq6mrci9s67l)" points="106.5,6,291.5,6,298.5,28.2969,607.5,28.2969,607.5,277,106.5,277,106.5,6" style="stroke:#000000;stroke-width:1.5;"/><line style="stroke:#000000;stroke-width:1.5;" x1="106.5" x2="298.5" y1="28.2969" y2="28.2969"/><text fill="#000000" font-family="sans-serif" font-size="14" font-weight="bold" lengthAdjust="spacingAndGlyphs" textLength="179" x="110.5" y="20.9951">usantatecla.tictactoe</text><!--MD5=[03c339352ae0a66a83a9809d2d9c2b7e]
class usantatecla.tictactoe.ConsoleTicTacToe--><rect codeLine="6" fill="#FEFECE" filter="url(#fgq6mrci9s67l)" height="73.6094" id="usantatecla.tictactoe.ConsoleTicTacToe" style="stroke:#A80036;stroke-width:1.5;" width="215" x="123" y="187"/><ellipse cx="171.25" cy="203" fill="#ADD1B2" rx="11" ry="11" style="stroke:#A80036;stroke-width:1.0;"/><path d="M173.5938,198.6719 C172.6563,198.2344 172.0625,198.0938 171.1875,198.0938 C168.5625,198.0938 166.5625,200.1719 166.5625,202.8906 L166.5625,204.0156 C166.5625,206.5938 168.6719,208.4844 171.5625,208.4844 C172.7813,208.4844 173.9375,208.1875 174.6875,207.6406 C175.2656,207.2344 175.5938,206.7813 175.5938,206.3906 C175.5938,205.9375 175.2031,205.5469 174.7344,205.5469 C174.5156,205.5469 174.3125,205.625 174.125,205.8125 C173.6719,206.2969 173.6719,206.2969 173.4844,206.3906 C173.0625,206.6563 172.375,206.7813 171.6094,206.7813 C169.5625,206.7813 168.2656,205.6875 168.2656,203.9844 L168.2656,202.8906 C168.2656,201.1094 169.5156,199.7969 171.25,199.7969 C171.8281,199.7969 172.4375,199.9531 172.9063,200.2031 C173.3906,200.4844 173.5625,200.7031 173.6563,201.1094 C173.7188,201.5156 173.75,201.6406 173.8906,201.7656 C174.0313,201.9063 174.2656,202.0156 174.4844,202.0156 C174.75,202.0156 175.0156,201.875 175.1875,201.6563 C175.2969,201.5 175.3281,201.3125 175.3281,200.8906 L175.3281,199.4688 C175.3281,199.0313 175.3125,198.9063 175.2188,198.75 C175.0625,198.4844 174.7813,198.3438 174.4844,198.3438 C174.1875,198.3438 173.9844,198.4375 173.7656,198.75 L173.5938,198.6719 Z " fill="#000000"/><text fill="#000000" font-family="sans-serif" font-size="12" lengthAdjust="spacingAndGlyphs" textLength="110" x="191.75" y="207.1543">ConsoleTicTacToe</text><line style="stroke:#A80036;stroke-width:1.5;" x1="124" x2="337" y1="219" y2="219"/><line style="stroke:#A80036;stroke-width:1.5;" x1="124" x2="337" y1="227" y2="227"/><polygon fill="#FFFF44" points="134,233,138,237,134,241,130,237" style="stroke:#B38D22;stroke-width:1.0;"/><text fill="#000000" font-family="sans-serif" font-size="11" lengthAdjust="spacingAndGlyphs" textLength="189" x="143" y="241.2104">createView(Game): ConsoleView</text><ellipse cx="134" cy="250.8047" fill="#84BE84" rx="3" ry="3" style="stroke:#038048;stroke-width:1.0;"/><text fill="#000000" font-family="sans-serif" font-size="11" lengthAdjust="spacingAndGlyphs" text-decoration="underline" textLength="77" x="143" y="254.0151">main(String[])</text><!--MD5=[44e3097ba2e6697655acc7ad5ebd4556]
class usantatecla.tictactoe.GraphicsTicTacToe--><rect codeLine="13" fill="#FEFECE" filter="url(#fgq6mrci9s67l)" height="73.6094" id="usantatecla.tictactoe.GraphicsTicTacToe" style="stroke:#A80036;stroke-width:1.5;" width="218" x="373.5" y="187"/><ellipse cx="421.25" cy="203" fill="#ADD1B2" rx="11" ry="11" style="stroke:#A80036;stroke-width:1.0;"/><path d="M423.5938,198.6719 C422.6563,198.2344 422.0625,198.0938 421.1875,198.0938 C418.5625,198.0938 416.5625,200.1719 416.5625,202.8906 L416.5625,204.0156 C416.5625,206.5938 418.6719,208.4844 421.5625,208.4844 C422.7813,208.4844 423.9375,208.1875 424.6875,207.6406 C425.2656,207.2344 425.5938,206.7813 425.5938,206.3906 C425.5938,205.9375 425.2031,205.5469 424.7344,205.5469 C424.5156,205.5469 424.3125,205.625 424.125,205.8125 C423.6719,206.2969 423.6719,206.2969 423.4844,206.3906 C423.0625,206.6563 422.375,206.7813 421.6094,206.7813 C419.5625,206.7813 418.2656,205.6875 418.2656,203.9844 L418.2656,202.8906 C418.2656,201.1094 419.5156,199.7969 421.25,199.7969 C421.8281,199.7969 422.4375,199.9531 422.9063,200.2031 C423.3906,200.4844 423.5625,200.7031 423.6563,201.1094 C423.7188,201.5156 423.75,201.6406 423.8906,201.7656 C424.0313,201.9063 424.2656,202.0156 424.4844,202.0156 C424.75,202.0156 425.0156,201.875 425.1875,201.6563 C425.2969,201.5 425.3281,201.3125 425.3281,200.8906 L425.3281,199.4688 C425.3281,199.0313 425.3125,198.9063 425.2188,198.75 C425.0625,198.4844 424.7813,198.3438 424.4844,198.3438 C424.1875,198.3438 423.9844,198.4375 423.7656,198.75 L423.5938,198.6719 Z " fill="#000000"/><text fill="#000000" font-family="sans-serif" font-size="12" lengthAdjust="spacingAndGlyphs" textLength="114" x="441.75" y="207.1543">GraphicsTicTacToe</text><line style="stroke:#A80036;stroke-width:1.5;" x1="374.5" x2="590.5" y1="219" y2="219"/><line style="stroke:#A80036;stroke-width:1.5;" x1="374.5" x2="590.5" y1="227" y2="227"/><polygon fill="#FFFF44" points="384.5,233,388.5,237,384.5,241,380.5,237" style="stroke:#B38D22;stroke-width:1.0;"/><text fill="#000000" font-family="sans-serif" font-size="11" lengthAdjust="spacingAndGlyphs" textLength="192" x="393.5" y="241.2104">createView(Game): GraphicsView</text><ellipse cx="384.5" cy="250.8047" fill="#84BE84" rx="3" ry="3" style="stroke:#038048;stroke-width:1.0;"/><text fill="#000000" font-family="sans-serif" font-size="11" lengthAdjust="spacingAndGlyphs" text-decoration="underline" textLength="77" x="393.5" y="254.0151">main(String[])</text><!--MD5=[4b5d579ecc4748d1b21f2fd6d497d353]
class usantatecla.tictactoe.TicTacToe--><rect codeLine="20" fill="#FEFECE" filter="url(#fgq6mrci9s67l)" height="86.4141" id="usantatecla.tictactoe.TicTacToe" style="stroke:#A80036;stroke-width:1.5;" width="166" x="273.5" y="41"/><ellipse cx="322.75" cy="57" fill="#A9DCDF" rx="11" ry="11" style="stroke:#A80036;stroke-width:1.0;"/><path d="M324.8281,58.8125 L325.2188,59.7969 L324.8281,59.7969 C324.375,59.7969 324.2656,59.8125 324.1094,59.9219 C323.8594,60.0781 323.7031,60.3594 323.7031,60.6563 C323.7031,60.9219 323.8438,61.1719 324.0625,61.3281 C324.2031,61.4531 324.4063,61.5 324.8281,61.5 L327.1875,61.5 C327.5469,61.5 327.7656,61.4688 327.9063,61.375 C328.1563,61.2344 328.3125,60.9375 328.3125,60.6563 C328.3125,60.375 328.1719,60.125 327.9531,59.9688 C327.7813,59.8281 327.625,59.7969 327.1563,59.7969 L323.7656,51.5938 L320.0938,51.5938 C319.6406,51.5938 319.5156,51.6094 319.3594,51.7031 C319.1094,51.875 318.9531,52.1563 318.9531,52.4375 C318.9531,52.7188 319.0938,52.9688 319.3125,53.1406 C319.4844,53.25 319.6563,53.2813 320.0938,53.2813 L321.1719,53.2813 L318.5313,59.7969 C318.1094,59.7969 317.9531,59.8125 317.7969,59.9219 C317.5469,60.0781 317.3906,60.3594 317.3906,60.6563 C317.3906,61.2188 317.7656,61.5 318.5156,61.5 L320.7813,61.5 C321.1406,61.5 321.3594,61.4688 321.4844,61.375 C321.75,61.2344 321.8906,60.9375 321.8906,60.6563 C321.8906,60.375 321.7656,60.125 321.5469,59.9531 C321.375,59.8281 321.2344,59.7969 320.7813,59.7969 L320.3906,59.7969 L320.7813,58.8125 L324.8281,58.8125 Z M324.125,57.1094 L321.4531,57.1094 L322.7969,53.8438 L324.125,57.1094 Z " fill="#000000"/><text fill="#000000" font-family="sans-serif" font-size="12" font-style="italic" lengthAdjust="spacingAndGlyphs" textLength="59" x="343.25" y="61.1543">TicTacToe</text><line style="stroke:#A80036;stroke-width:1.5;" x1="274.5" x2="438.5" y1="73" y2="73"/><line style="stroke:#A80036;stroke-width:1.5;" x1="274.5" x2="438.5" y1="81" y2="81"/><polygon fill="#FFFF44" points="284.5,87,288.5,91,284.5,95,280.5,91" style="stroke:#B38D22;stroke-width:1.0;"/><text fill="#000000" font-family="sans-serif" font-size="11" lengthAdjust="spacingAndGlyphs" textLength="66" x="293.5" y="95.2104">TicTacToe()</text><polygon fill="#FFFF44" points="284.5,99.8047,288.5,103.8047,284.5,107.8047,280.5,103.8047" style="stroke:#B38D22;stroke-width:1.0;"/><text fill="#000000" font-family="sans-serif" font-size="11" font-style="italic" lengthAdjust="spacingAndGlyphs" textLength="140" x="293.5" y="108.0151">createView(Game): View</text><polygon fill="#FFFF44" points="284.5,112.6094,288.5,116.6094,284.5,120.6094,280.5,116.6094" style="stroke:#B38D22;stroke-width:1.0;"/><text fill="#000000" font-family="sans-serif" font-size="11" lengthAdjust="spacingAndGlyphs" textLength="32" x="293.5" y="120.8198">play()</text><!--MD5=[b6dcce5e5ef3c84b0b048d11301373dd]
class Game--><rect codeLine="1" fill="#FEFECE" filter="url(#fgq6mrci9s67l)" height="67.9063" id="Game" style="stroke:#A80036;stroke-width:1.5;" width="135" x="7" y="321"/><ellipse cx="22" cy="346.9531" fill="#ADD1B2" rx="11" ry="11" style="stroke:#A80036;stroke-width:1.0;"/><path d="M24.3438,342.625 C23.4063,342.1875 22.8125,342.0469 21.9375,342.0469 C19.3125,342.0469 17.3125,344.125 17.3125,346.8438 L17.3125,347.9688 C17.3125,350.5469 19.4219,352.4375 22.3125,352.4375 C23.5313,352.4375 24.6875,352.1406 25.4375,351.5938 C26.0156,351.1875 26.3438,350.7344 26.3438,350.3438 C26.3438,349.8906 25.9531,349.5 25.4844,349.5 C25.2656,349.5 25.0625,349.5781 24.875,349.7656 C24.4219,350.25 24.4219,350.25 24.2344,350.3438 C23.8125,350.6094 23.125,350.7344 22.3594,350.7344 C20.3125,350.7344 19.0156,349.6406 19.0156,347.9375 L19.0156,346.8438 C19.0156,345.0625 20.2656,343.75 22,343.75 C22.5781,343.75 23.1875,343.9063 23.6563,344.1563 C24.1406,344.4375 24.3125,344.6563 24.4063,345.0625 C24.4688,345.4688 24.5,345.5938 24.6406,345.7188 C24.7813,345.8594 25.0156,345.9688 25.2344,345.9688 C25.5,345.9688 25.7656,345.8281 25.9375,345.6094 C26.0469,345.4531 26.0781,345.2656 26.0781,344.8438 L26.0781,343.4219 C26.0781,342.9844 26.0625,342.8594 25.9688,342.7031 C25.8125,342.4375 25.5313,342.2969 25.2344,342.2969 C24.9375,342.2969 24.7344,342.3906 24.5156,342.7031 L24.3438,342.625 Z " fill="#000000"/><text fill="#000000" font-family="sans-serif" font-size="12" lengthAdjust="spacingAndGlyphs" textLength="71" x="52" y="337.1387">usantatecla.</text><text fill="#000000" font-family="sans-serif" font-size="12" lengthAdjust="spacingAndGlyphs" textLength="103" x="36" y="351.1074">tictactoe.models.</text><text fill="#000000" font-family="sans-serif" font-size="12" lengthAdjust="spacingAndGlyphs" textLength="35" x="70" y="365.0762">Game</text><line style="stroke:#A80036;stroke-width:1.5;" x1="8" x2="141" y1="372.9063" y2="372.9063"/><line style="stroke:#A80036;stroke-width:1.5;" x1="8" x2="141" y1="380.9063" y2="380.9063"/><!--MD5=[c045e12321b83266d36d22b9096c24ea]
class View--><rect codeLine="2" fill="#FEFECE" filter="url(#fgq6mrci9s67l)" height="67.9063" id="View" style="stroke:#A80036;stroke-width:1.5;" width="126" x="626.5" y="190"/><ellipse cx="641.5" cy="215.9531" fill="#A9DCDF" rx="11" ry="11" style="stroke:#A80036;stroke-width:1.0;"/><path d="M643.5781,217.7656 L643.9688,218.75 L643.5781,218.75 C643.125,218.75 643.0156,218.7656 642.8594,218.875 C642.6094,219.0313 642.4531,219.3125 642.4531,219.6094 C642.4531,219.875 642.5938,220.125 642.8125,220.2813 C642.9531,220.4063 643.1563,220.4531 643.5781,220.4531 L645.9375,220.4531 C646.2969,220.4531 646.5156,220.4219 646.6563,220.3281 C646.9063,220.1875 647.0625,219.8906 647.0625,219.6094 C647.0625,219.3281 646.9219,219.0781 646.7031,218.9219 C646.5313,218.7813 646.375,218.75 645.9063,218.75 L642.5156,210.5469 L638.8438,210.5469 C638.3906,210.5469 638.2656,210.5625 638.1094,210.6563 C637.8594,210.8281 637.7031,211.1094 637.7031,211.3906 C637.7031,211.6719 637.8438,211.9219 638.0625,212.0938 C638.2344,212.2031 638.4063,212.2344 638.8438,212.2344 L639.9219,212.2344 L637.2813,218.75 C636.8594,218.75 636.7031,218.7656 636.5469,218.875 C636.2969,219.0313 636.1406,219.3125 636.1406,219.6094 C636.1406,220.1719 636.5156,220.4531 637.2656,220.4531 L639.5313,220.4531 C639.8906,220.4531 640.1094,220.4219 640.2344,220.3281 C640.5,220.1875 640.6406,219.8906 640.6406,219.6094 C640.6406,219.3281 640.5156,219.0781 640.2969,218.9063 C640.125,218.7813 639.9844,218.75 639.5313,218.75 L639.1406,218.75 L639.5313,217.7656 L643.5781,217.7656 Z M642.875,216.0625 L640.2031,216.0625 L641.5469,212.7969 L642.875,216.0625 Z " fill="#000000"/><text fill="#000000" font-family="sans-serif" font-size="12" font-style="italic" lengthAdjust="spacingAndGlyphs" textLength="74" x="665.5" y="206.1387">usantatecla.</text><text fill="#000000" font-family="sans-serif" font-size="12" font-style="italic" lengthAdjust="spacingAndGlyphs" textLength="94" x="655.5" y="220.1074">tictactoe.views.</text><text fill="#000000" font-family="sans-serif" font-size="12" font-style="italic" lengthAdjust="spacingAndGlyphs" textLength="28" x="688.5" y="234.0762">View</text><line style="stroke:#A80036;stroke-width:1.5;" x1="627.5" x2="751.5" y1="241.9063" y2="241.9063"/><line style="stroke:#A80036;stroke-width:1.5;" x1="627.5" x2="751.5" y1="249.9063" y2="249.9063"/><!--MD5=[51d729737bd84a4c43136dd336c2eea1]
class ConsoleView--><rect codeLine="3" fill="#FEFECE" filter="url(#fgq6mrci9s67l)" height="67.9063" id="ConsoleView" style="stroke:#A80036;stroke-width:1.5;" width="176" x="177.5" y="321"/><ellipse cx="192.5" cy="346.9531" fill="#ADD1B2" rx="11" ry="11" style="stroke:#A80036;stroke-width:1.0;"/><path d="M194.8438,342.625 C193.9063,342.1875 193.3125,342.0469 192.4375,342.0469 C189.8125,342.0469 187.8125,344.125 187.8125,346.8438 L187.8125,347.9688 C187.8125,350.5469 189.9219,352.4375 192.8125,352.4375 C194.0313,352.4375 195.1875,352.1406 195.9375,351.5938 C196.5156,351.1875 196.8438,350.7344 196.8438,350.3438 C196.8438,349.8906 196.4531,349.5 195.9844,349.5 C195.7656,349.5 195.5625,349.5781 195.375,349.7656 C194.9219,350.25 194.9219,350.25 194.7344,350.3438 C194.3125,350.6094 193.625,350.7344 192.8594,350.7344 C190.8125,350.7344 189.5156,349.6406 189.5156,347.9375 L189.5156,346.8438 C189.5156,345.0625 190.7656,343.75 192.5,343.75 C193.0781,343.75 193.6875,343.9063 194.1563,344.1563 C194.6406,344.4375 194.8125,344.6563 194.9063,345.0625 C194.9688,345.4688 195,345.5938 195.1406,345.7188 C195.2813,345.8594 195.5156,345.9688 195.7344,345.9688 C196,345.9688 196.2656,345.8281 196.4375,345.6094 C196.5469,345.4531 196.5781,345.2656 196.5781,344.8438 L196.5781,343.4219 C196.5781,342.9844 196.5625,342.8594 196.4688,342.7031 C196.3125,342.4375 196.0313,342.2969 195.7344,342.2969 C195.4375,342.2969 195.2344,342.3906 195.0156,342.7031 L194.8438,342.625 Z " fill="#000000"/><text fill="#000000" font-family="sans-serif" font-size="12" lengthAdjust="spacingAndGlyphs" textLength="71" x="243" y="337.1387">usantatecla.</text><text fill="#000000" font-family="sans-serif" font-size="12" lengthAdjust="spacingAndGlyphs" textLength="144" x="206.5" y="351.1074">tictactoe.views.console.</text><text fill="#000000" font-family="sans-serif" font-size="12" lengthAdjust="spacingAndGlyphs" textLength="78" x="239.5" y="365.0762">ConsoleView</text><line style="stroke:#A80036;stroke-width:1.5;" x1="178.5" x2="352.5" y1="372.9063" y2="372.9063"/><line style="stroke:#A80036;stroke-width:1.5;" x1="178.5" x2="352.5" y1="380.9063" y2="380.9063"/><!--MD5=[10250df365dc999637be629d910c1f35]
class GraphicsView--><rect codeLine="4" fill="#FEFECE" filter="url(#fgq6mrci9s67l)" height="67.9063" id="GraphicsView" style="stroke:#A80036;stroke-width:1.5;" width="180" x="392.5" y="321"/><ellipse cx="407.5" cy="346.9531" fill="#ADD1B2" rx="11" ry="11" style="stroke:#A80036;stroke-width:1.0;"/><path d="M409.8438,342.625 C408.9063,342.1875 408.3125,342.0469 407.4375,342.0469 C404.8125,342.0469 402.8125,344.125 402.8125,346.8438 L402.8125,347.9688 C402.8125,350.5469 404.9219,352.4375 407.8125,352.4375 C409.0313,352.4375 410.1875,352.1406 410.9375,351.5938 C411.5156,351.1875 411.8438,350.7344 411.8438,350.3438 C411.8438,349.8906 411.4531,349.5 410.9844,349.5 C410.7656,349.5 410.5625,349.5781 410.375,349.7656 C409.9219,350.25 409.9219,350.25 409.7344,350.3438 C409.3125,350.6094 408.625,350.7344 407.8594,350.7344 C405.8125,350.7344 404.5156,349.6406 404.5156,347.9375 L404.5156,346.8438 C404.5156,345.0625 405.7656,343.75 407.5,343.75 C408.0781,343.75 408.6875,343.9063 409.1563,344.1563 C409.6406,344.4375 409.8125,344.6563 409.9063,345.0625 C409.9688,345.4688 410,345.5938 410.1406,345.7188 C410.2813,345.8594 410.5156,345.9688 410.7344,345.9688 C411,345.9688 411.2656,345.8281 411.4375,345.6094 C411.5469,345.4531 411.5781,345.2656 411.5781,344.8438 L411.5781,343.4219 C411.5781,342.9844 411.5625,342.8594 411.4688,342.7031 C411.3125,342.4375 411.0313,342.2969 410.7344,342.2969 C410.4375,342.2969 410.2344,342.3906 410.0156,342.7031 L409.8438,342.625 Z " fill="#000000"/><text fill="#000000" font-family="sans-serif" font-size="12" lengthAdjust="spacingAndGlyphs" textLength="71" x="460" y="337.1387">usantatecla.</text><text fill="#000000" font-family="sans-serif" font-size="12" lengthAdjust="spacingAndGlyphs" textLength="148" x="421.5" y="351.1074">tictactoe.views.graphics.</text><text fill="#000000" font-family="sans-serif" font-size="12" lengthAdjust="spacingAndGlyphs" textLength="82" x="454.5" y="365.0762">GraphicsView</text><line style="stroke:#A80036;stroke-width:1.5;" x1="393.5" x2="571.5" y1="372.9063" y2="372.9063"/><line style="stroke:#A80036;stroke-width:1.5;" x1="393.5" x2="571.5" y1="380.9063" y2="380.9063"/><!--MD5=[10db3496bbf3aea9e98e642ce9a60a9a]
link usantatecla.tictactoe.ConsoleTicTacToe to ConsoleView--><path codeLine="10" d="M240.343,261.277 C244.923,278.161 250.376,298.2584 255.032,315.4195 " fill="none" id="usantatecla.tictactoe.ConsoleTicTacToe-to-ConsoleView" style="stroke:#A80036;stroke-width:1.0;stroke-dasharray:7.0,7.0;"/><polygon fill="#A80036" points="256.45,320.6443,257.9538,310.9109,255.1408,315.8188,250.2329,313.0057,256.45,320.6443" style="stroke:#A80036;stroke-width:1.0;"/><!--MD5=[dee294772fe5daf7cc0f08db86d7f647]
link usantatecla.tictactoe.ConsoleTicTacToe to Game--><path codeLine="11" d="M186.63,261.277 C165.336,278.886 139.814,299.9906 118.502,317.6139 " fill="none" id="usantatecla.tictactoe.ConsoleTicTacToe-to-Game" style="stroke:#A80036;stroke-width:1.0;stroke-dasharray:7.0,7.0;"/><polygon fill="#A80036" points="114.573,320.8624,124.0575,318.2085,118.4258,317.6756,118.9587,312.0439,114.573,320.8624" style="stroke:#A80036;stroke-width:1.0;"/><!--MD5=[017c0576b594c746df819cda917df976]
link usantatecla.tictactoe.GraphicsTicTacToe to GraphicsView--><path codeLine="17" d="M482.5,261.277 C482.5,278.161 482.5,298.2584 482.5,315.4195 " fill="none" id="usantatecla.tictactoe.GraphicsTicTacToe-to-GraphicsView" style="stroke:#A80036;stroke-width:1.0;stroke-dasharray:7.0,7.0;"/><polygon fill="#A80036" points="482.5,320.6443,486.5,311.6443,482.5,315.6443,478.5,311.6443,482.5,320.6443" style="stroke:#A80036;stroke-width:1.0;"/><!--MD5=[1e93a494ab703947dc307a8569c83675]
link usantatecla.tictactoe.GraphicsTicTacToe to Game--><path codeLine="18" d="M414.615,261.045 C395.859,269.898 375.23,278.647 355.5,285 C271.194,312.1453 244.717,296.8655 159.5,321 C155.45,322.1472 151.323,323.4121 147.181,324.758 " fill="none" id="usantatecla.tictactoe.GraphicsTicTacToe-to-Game" style="stroke:#A80036;stroke-width:1.0;stroke-dasharray:7.0,7.0;"/><polygon fill="#A80036" points="142.314,326.3729,152.1159,327.333,147.0593,324.7973,149.595,319.7406,142.314,326.3729" style="stroke:#A80036;stroke-width:1.0;"/><!--MD5=[63fc05718b658ffc84b20ac5511973fa]
reverse link usantatecla.tictactoe.TicTacToe to usantatecla.tictactoe.ConsoleTicTacToe--><path codeLine="25" d="M304.103,142.388 C290.409,157.385 276.027,173.137 263.646,186.697 " fill="none" id="usantatecla.tictactoe.TicTacToe-backto-usantatecla.tictactoe.ConsoleTicTacToe" style="stroke:#A80036;stroke-width:1.0;"/><polygon fill="none" points="299.356,137.204,318.011,127.154,309.695,146.644,299.356,137.204" style="stroke:#A80036;stroke-width:1.0;"/><!--MD5=[e9d4c2bf3af7f87e2d4905db04830b2f]
reverse link usantatecla.tictactoe.TicTacToe to usantatecla.tictactoe.GraphicsTicTacToe--><path codeLine="26" d="M408.897,142.388 C422.591,157.385 436.973,173.137 449.354,186.697 " fill="none" id="usantatecla.tictactoe.TicTacToe-backto-usantatecla.tictactoe.GraphicsTicTacToe" style="stroke:#A80036;stroke-width:1.0;"/><polygon fill="none" points="403.305,146.644,394.989,127.154,413.644,137.204,403.305,146.644" style="stroke:#A80036;stroke-width:1.0;"/><!--MD5=[f8bc889fc5f5eef7d73d6b7785e62600]
link usantatecla.tictactoe.TicTacToe to Game--><path codeLine="27" d="M261.6753,100.4688 C261.6753,100.4688 143.825,140.009 105.5,187 C77.9837,220.738 71.8949,271.106 71.6704,307.7006 " fill="none" id="usantatecla.tictactoe.TicTacToe-Game" style="stroke:#A80036;stroke-width:1.0;"/><polygon fill="#A80036" points="71.8391,320.9883,75.7245,311.9383,71.7756,315.9887,67.7252,312.0398,71.8391,320.9883" style="stroke:#A80036;stroke-width:1.0;"/><line style="stroke:#A80036;stroke-width:1.0;" x1="71.7756" x2="71.674" y1="315.9887" y2="307.9894"/><polygon fill="#A80036" points="273.333,97.623,266.5556,95.16,261.6753,100.4688,268.4528,102.9318,273.333,97.623" style="stroke:#A80036;stroke-width:1.0;"/><!--MD5=[3f3b08302a73e15001fc302f837e77af]
link usantatecla.tictactoe.TicTacToe to View--><path codeLine="28" d="M450.6812,122.5561 C450.6812,122.5561 556.293,165.36 607.5,187 C609.713,187.935 611.958,188.889 614.222,189.855 " fill="none" id="usantatecla.tictactoe.TicTacToe-View" style="stroke:#A80036;stroke-width:1.0;"/><polygon fill="#A80036" points="626.453,195.111,619.7638,187.8823,621.8593,193.1367,616.6049,195.2322,626.453,195.111" style="stroke:#A80036;stroke-width:1.0;"/><line style="stroke:#A80036;stroke-width:1.0;" x1="621.8593" x2="614.5085" y1="193.1367" y2="189.978"/><polygon fill="#A80036" points="439.548,118.078,443.6219,124.0281,450.6812,122.5561,446.6073,116.606,439.548,118.078" style="stroke:#A80036;stroke-width:1.0;"/><!--MD5=[f7b74a56442f8a1e9a7a7e60f3a688bb]
@startuml
class Game as "usantatecla.\ntictactoe.models.\nGame"
abstract class View as "usantatecla.\ntictactoe.views.\nView"
class ConsoleView as "usantatecla.\ntictactoe.views.console.\nConsoleView"
class GraphicsView as "usantatecla.\ntictactoe.views.graphics.\nGraphicsView"

class usantatecla.tictactoe.ConsoleTicTacToe {
	# createView(Game): ConsoleView
	+ {static} main(String[])
}
usantatecla.tictactoe.ConsoleTicTacToe .down.> ConsoleView
usantatecla.tictactoe.ConsoleTicTacToe .down.> Game

class usantatecla.tictactoe.GraphicsTicTacToe {
	# createView(Game): GraphicsView
	+ {static} main(String[])
}
usantatecla.tictactoe.GraphicsTicTacToe .down.> GraphicsView
usantatecla.tictactoe.GraphicsTicTacToe .down.> Game

abstract class  usantatecla.tictactoe.TicTacToe{
	# TicTacToe()
	# {abstract} createView(Game): View
	# play()
}
usantatecla.tictactoe.TicTacToe <|-down- usantatecla.tictactoe.ConsoleTicTacToe
usantatecla.tictactoe.TicTacToe <|-down- usantatecla.tictactoe.GraphicsTicTacToe
usantatecla.tictactoe.TicTacToe *-down-> Game
usantatecla.tictactoe.TicTacToe *-down-> View
@enduml

PlantUML version 1.2020.23beta3(Unknown compile time)
(GPL source distribution)
Java Runtime: Java(TM) SE Runtime Environment
JVM: Java HotSpot(TM) 64-Bit Server VM
Default Encoding: UTF-8
Language: en
Country: US
--></g></svg>