<?xml version="1.0" encoding="UTF-8" standalone="no"?><svg xmlns="http://www.w3.org/2000/svg" xmlns:xlink="http://www.w3.org/1999/xlink" contentScriptType="application/ecmascript" contentStyleType="text/css" height="159px" preserveAspectRatio="none" style="width:1839px;height:159px;" version="1.1" viewBox="0 0 1839 159" width="1839px" zoomAndPan="magnify"><defs><filter height="300%" id="f18q6qhh7i4g8l" width="300%" x="-1" y="-1"><feGaussianBlur result="blurOut" stdDeviation="2.0"/><feColorMatrix in="blurOut" result="blurOut2" type="matrix" values="0 0 0 0 0 0 0 0 0 0 0 0 0 0 0 0 0 0 .4 0"/><feOffset dx="4.0" dy="4.0" in="blurOut2" result="blurOut3"/><feBlend in="SourceGraphic" in2="blurOut3" mode="normal"/></filter></defs><g><!--MD5=[483b12a8a4a1981ac5430bdda5fd5916]
entity tictactoe--><polygon fill="#FFFFFF" filter="url(#f18q6qhh7i4g8l)" points="16,113,98,113,105,135.2969,122,135.2969,122,152.2969,16,152.2969,16,113" style="stroke:#000000;stroke-width:1.5;"/><line style="stroke:#000000;stroke-width:1.5;" x1="16" x2="105" y1="135.2969" y2="135.2969"/><text fill="#000000" font-family="sans-serif" font-size="14" font-weight="bold" lengthAdjust="spacingAndGlyphs" textLength="76" x="20" y="128.9951">tictactoe</text><!--MD5=[21ee9191f94b37e164ce8850dd375de6]
entity tictactoe.models--><polygon fill="#FFFFFF" filter="url(#f18q6qhh7i4g8l)" points="157.5,113,302.5,113,309.5,135.2969,326.5,135.2969,326.5,152.2969,157.5,152.2969,157.5,113" style="stroke:#000000;stroke-width:1.5;"/><line style="stroke:#000000;stroke-width:1.5;" x1="157.5" x2="309.5" y1="135.2969" y2="135.2969"/><text fill="#000000" font-family="sans-serif" font-size="14" font-weight="bold" lengthAdjust="spacingAndGlyphs" textLength="139" x="161.5" y="128.9951">tictactoe.models</text><!--MD5=[4c573c6460ea22eb71ee25dd81f219fa]
entity tictactoe.types--><polygon fill="#FFFFFF" filter="url(#f18q6qhh7i4g8l)" points="362,113,494,113,501,135.2969,518,135.2969,518,152.2969,362,152.2969,362,113" style="stroke:#000000;stroke-width:1.5;"/><line style="stroke:#000000;stroke-width:1.5;" x1="362" x2="501" y1="135.2969" y2="135.2969"/><text fill="#000000" font-family="sans-serif" font-size="14" font-weight="bold" lengthAdjust="spacingAndGlyphs" textLength="126" x="366" y="128.9951">tictactoe.types</text><!--MD5=[d35223fd8f7d7c99496ee8d9b067ffdf]
entity tictactoe.controllers--><polygon fill="#FFFFFF" filter="url(#f18q6qhh7i4g8l)" points="553,113,729,113,736,135.2969,753,135.2969,753,152.2969,553,152.2969,553,113" style="stroke:#000000;stroke-width:1.5;"/><line style="stroke:#000000;stroke-width:1.5;" x1="553" x2="736" y1="135.2969" y2="135.2969"/><text fill="#000000" font-family="sans-serif" font-size="14" font-weight="bold" lengthAdjust="spacingAndGlyphs" textLength="170" x="557" y="128.9951">tictactoe.controllers</text><!--MD5=[170e9aa8a7c5483a45070c603c759464]
entity tictactoe.views--><polygon fill="#FFFFFF" filter="url(#f18q6qhh7i4g8l)" points="788,113,920,113,927,135.2969,944,135.2969,944,152.2969,788,152.2969,788,113" style="stroke:#000000;stroke-width:1.5;"/><line style="stroke:#000000;stroke-width:1.5;" x1="788" x2="927" y1="135.2969" y2="135.2969"/><text fill="#000000" font-family="sans-serif" font-size="14" font-weight="bold" lengthAdjust="spacingAndGlyphs" textLength="126" x="792" y="128.9951">tictactoe.views</text><!--MD5=[24db386dca859e5b235897d0a3aa8c72]
entity tictactoe.views.console--><polygon fill="#FFFFFF" filter="url(#f18q6qhh7i4g8l)" points="979.5,113,1178.5,113,1185.5,135.2969,1202.5,135.2969,1202.5,152.2969,979.5,152.2969,979.5,113" style="stroke:#000000;stroke-width:1.5;"/><line style="stroke:#000000;stroke-width:1.5;" x1="979.5" x2="1185.5" y1="135.2969" y2="135.2969"/><text fill="#000000" font-family="sans-serif" font-size="14" font-weight="bold" lengthAdjust="spacingAndGlyphs" textLength="193" x="983.5" y="128.9951">tictactoe.views.console</text><!--MD5=[af2691941f33ba1a7826daed975acade]
entity tictactoe.views.graphics--><polygon fill="#FFFFFF" filter="url(#f18q6qhh7i4g8l)" points="1237.5,113,1444.5,113,1451.5,135.2969,1468.5,135.2969,1468.5,152.2969,1237.5,152.2969,1237.5,113" style="stroke:#000000;stroke-width:1.5;"/><line style="stroke:#000000;stroke-width:1.5;" x1="1237.5" x2="1451.5" y1="135.2969" y2="135.2969"/><text fill="#000000" font-family="sans-serif" font-size="14" font-weight="bold" lengthAdjust="spacingAndGlyphs" textLength="201" x="1241.5" y="128.9951">tictactoe.views.graphics</text><!--MD5=[815e17c207bbf712f7f26918c1feb6f8]
entity utils--><polygon fill="#FFFFFF" filter="url(#f18q6qhh7i4g8l)" points="1503.5,113,1546.5,113,1553.5,135.2969,1570.5,135.2969,1570.5,152.2969,1503.5,152.2969,1503.5,113" style="stroke:#000000;stroke-width:1.5;"/><line style="stroke:#000000;stroke-width:1.5;" x1="1503.5" x2="1553.5" y1="135.2969" y2="135.2969"/><text fill="#000000" font-family="sans-serif" font-size="14" font-weight="bold" lengthAdjust="spacingAndGlyphs" textLength="37" x="1507.5" y="128.9951">utils</text><!--MD5=[48fa9072fd51d9920e6db8484beec696]
entity java.io--><polygon fill="#FFFFFF" filter="url(#f18q6qhh7i4g8l)" points="1606,113,1666,113,1673,135.2969,1690,135.2969,1690,152.2969,1606,152.2969,1606,113" style="stroke:#000000;stroke-width:1.5;"/><line style="stroke:#000000;stroke-width:1.5;" x1="1606" x2="1673" y1="135.2969" y2="135.2969"/><text fill="#000000" font-family="sans-serif" font-size="14" font-weight="bold" lengthAdjust="spacingAndGlyphs" textLength="54" x="1610" y="128.9951">java.io</text><!--MD5=[034f0f7ed136bf78fc117f7e41f76e93]
entity java.util--><polygon fill="#FFFFFF" filter="url(#f18q6qhh7i4g8l)" points="1725.5,113,1798.5,113,1805.5,135.2969,1822.5,135.2969,1822.5,152.2969,1725.5,152.2969,1725.5,113" style="stroke:#000000;stroke-width:1.5;"/><line style="stroke:#000000;stroke-width:1.5;" x1="1725.5" x2="1805.5" y1="135.2969" y2="135.2969"/><text fill="#000000" font-family="sans-serif" font-size="14" font-weight="bold" lengthAdjust="spacingAndGlyphs" textLength="67" x="1729.5" y="128.9951">java.util</text><!--MD5=[c2796faf4134bd8b5f3bc71f44d02e74]
entity jar--><rect fill="#FEFECE" filter="url(#f18q6qhh7i4g8l)" height="46.2969" style="stroke:#A80036;stroke-width:1.5;" width="130" x="913" y="7"/><rect fill="#FEFECE" height="10" style="stroke:#A80036;stroke-width:1.5;" width="15" x="1023" y="12"/><rect fill="#FEFECE" height="2" style="stroke:#A80036;stroke-width:1.5;" width="4" x="1021" y="14"/><rect fill="#FEFECE" height="2" style="stroke:#A80036;stroke-width:1.5;" width="4" x="1021" y="18"/><text fill="#000000" font-family="sans-serif" font-size="14" lengthAdjust="spacingAndGlyphs" textLength="90" x="928" y="39.9951">tictactoe.jar</text><!--MD5=[db071693898cb010136cdcd0ecfb308f]
link jar to tictactoe--><path d="M900.8793,34.4852 C900.8793,34.4852 416.678,63.7331 140,113 C138.378,113.2889 136.738,113.5959 135.087,113.9183 " fill="none" id="jar-tictactoe" style="stroke:#A80036;stroke-width:1.0;"/><polygon fill="#A80036" points="122.301,116.651,131.9383,118.6816,127.1906,115.6059,130.2662,110.8582,122.301,116.651" style="stroke:#A80036;stroke-width:1.0;"/><line style="stroke:#A80036;stroke-width:1.0;" x1="127.1906" x2="135.014" y1="115.6059" y2="113.9337"/><polygon fill="#A80036" points="912.864,33.88,906.6699,30.1877,900.8793,34.4852,907.0734,38.1775,912.864,33.88" style="stroke:#A80036;stroke-width:1.0;"/><!--MD5=[6b3133dd7dabc2019ad83d1281580956]
link jar to tictactoe.models--><path d="M900.6665,39.72 C900.6665,39.72 543.527,82.023 344,113 C342.488,113.2347 340.965,113.4742 339.431,113.7179 " fill="none" id="jar-tictactoe.models" style="stroke:#A80036;stroke-width:1.0;"/><polygon fill="#A80036" points="326.546,115.8243,336.0737,118.319,331.4804,115.0172,334.7823,110.4239,326.546,115.8243" style="stroke:#A80036;stroke-width:1.0;"/><line style="stroke:#A80036;stroke-width:1.0;" x1="331.4804" x2="339.3755" y1="115.0172" y2="113.727"/><polygon fill="#A80036" points="912.588,38.35,906.1706,35.0612,900.6665,39.72,907.0839,43.0089,912.588,38.35" style="stroke:#A80036;stroke-width:1.0;"/><!--MD5=[a88df930175807fbcaa9e62c0515d8ef]
link jar to tictactoe.types--><path d="M900.8573,45.0543 C900.8573,45.0543 662.674,88.7528 535,113 C533.617,113.2626 532.224,113.5277 530.821,113.7951 " fill="none" id="jar-tictactoe.types" style="stroke:#A80036;stroke-width:1.0;"/><polygon fill="#A80036" points="518.013,116.2476,527.6048,118.483,522.9237,115.3069,526.0998,110.6259,518.013,116.2476" style="stroke:#A80036;stroke-width:1.0;"/><line style="stroke:#A80036;stroke-width:1.0;" x1="522.9237" x2="530.781" y1="115.3069" y2="113.8027"/><polygon fill="#A80036" points="912.662,42.898,906.0409,40.0412,900.8573,45.0543,907.4784,47.911,912.662,42.898" style="stroke:#A80036;stroke-width:1.0;"/><!--MD5=[a80195ddb4f09d1000c65393133bbdfd]
link jar to tictactoe.controllers--><path d="M901.1579,54.7631 C901.1579,54.7631 777.303,93.0617 725.498,109.0813 " fill="none" id="jar-tictactoe.controllers" style="stroke:#A80036;stroke-width:1.0;"/><polygon fill="#A80036" points="713.067,112.9255,722.8471,114.0875,717.8437,111.4481,720.4832,106.4447,713.067,112.9255" style="stroke:#A80036;stroke-width:1.0;"/><line style="stroke:#A80036;stroke-width:1.0;" x1="717.8437" x2="725.4865" y1="111.4481" y2="109.0848"/><polygon fill="#A80036" points="912.622,51.217,905.7079,49.1687,901.1579,54.7631,908.072,56.8114,912.622,51.217" style="stroke:#A80036;stroke-width:1.0;"/><!--MD5=[c97a190b1fd883cd6d17f82504278168]
link jar to tictactoe.views--><path d="M944.4892,61.0691 C944.4892,61.0691 911.246,90.9001 896.743,103.9134 " fill="none" id="jar-tictactoe.views" style="stroke:#A80036;stroke-width:1.0;"/><polygon fill="#A80036" points="886.764,112.868,896.1342,109.8348,890.4856,109.5289,890.7915,103.8803,886.764,112.868" style="stroke:#A80036;stroke-width:1.0;"/><line style="stroke:#A80036;stroke-width:1.0;" x1="890.4856" x2="896.4395" y1="109.5289" y2="104.1858"/><polygon fill="#A80036" points="953.421,53.0552,946.2838,54.0849,944.4892,61.0691,951.6264,60.0394,953.421,53.0552" style="stroke:#A80036;stroke-width:1.0;"/><!--MD5=[f1530ed960fc683699116a1240ff9d77]
link jar to tictactoe.views.console--><path d="M1011.7651,61.0296 C1011.7651,61.0296 1045.35,90.9001 1059.98,103.9134 " fill="none" id="jar-tictactoe.views.console" style="stroke:#A80036;stroke-width:1.0;"/><polygon fill="#A80036" points="1070.05,112.868,1065.985,103.8972,1066.3145,109.5444,1060.6673,109.8739,1070.05,112.868" style="stroke:#A80036;stroke-width:1.0;"/><line style="stroke:#A80036;stroke-width:1.0;" x1="1066.3145" x2="1060.335" y1="109.5444" y2="104.2286"/><polygon fill="#A80036" points="1002.798,53.0552,1004.6234,60.0314,1011.7651,61.0296,1009.9397,54.0533,1002.798,53.0552" style="stroke:#A80036;stroke-width:1.0;"/><!--MD5=[ce1a0edc1bf4393e7cbd7df974f6190c]
link jar to tictactoe.views.graphics--><path d="M1054.9128,51.6053 C1054.9128,51.6053 1206.87,92.3384 1270.81,109.4736 " fill="none" id="jar-tictactoe.views.graphics" style="stroke:#A80036;stroke-width:1.0;"/><polygon fill="#A80036" points="1283.67,112.9185,1276.0151,106.7215,1278.841,111.622,1273.9406,114.4479,1283.67,112.9185" style="stroke:#A80036;stroke-width:1.0;"/><line style="stroke:#A80036;stroke-width:1.0;" x1="1278.841" x2="1271.11" y1="111.622" y2="109.5532"/><polygon fill="#A80036" points="1043.32,48.506,1048.0833,53.92,1054.9128,51.6053,1050.1495,46.1914,1043.32,48.506" style="stroke:#A80036;stroke-width:1.0;"/><!--MD5=[2b24531f65345f8226c8757364dc2f7a]
link jar to utils--><path d="M1055.2859,38.9037 C1055.2859,38.9037 1336.42,74.1669 1486,113 C1487.59,113.4127 1489.2,113.855 1490.82,114.321 " fill="none" id="jar-utils" style="stroke:#A80036;stroke-width:1.0;"/><polygon fill="#A80036" points="1503.26,118.2579,1495.8824,111.7333,1498.4921,116.7522,1493.4732,119.3619,1503.26,118.2579" style="stroke:#A80036;stroke-width:1.0;"/><line style="stroke:#A80036;stroke-width:1.0;" x1="1498.4921" x2="1490.87" y1="116.7522" y2="114.3366"/><polygon fill="#A80036" points="1043.36,37.572,1048.879,42.2131,1055.2859,38.9037,1049.7668,34.2626,1043.36,37.572" style="stroke:#A80036;stroke-width:1.0;"/><!--MD5=[f17a38c250a1605cd3da9b9fac2ef94b]
link jar to java.io--><path d="M1055.1235,37.2489 C1055.1235,37.2489 1399.33,71.5307 1588,113 C1589.74,113.3821 1591.5,113.7907 1593.27,114.2209 " fill="none" id="jar-java.io" style="stroke:#A80036;stroke-width:1.0;"/><polygon fill="#A80036" points="1605.95,117.5751,1598.2675,111.4123,1601.1153,116.3001,1596.2275,119.1478,1605.95,117.5751" style="stroke:#A80036;stroke-width:1.0;"/><line style="stroke:#A80036;stroke-width:1.0;" x1="1601.1153" x2="1593.38" y1="116.3001" y2="114.2494"/><polygon fill="#A80036" points="1043.17,36.194,1048.7951,40.706,1055.1235,37.2489,1049.4984,32.7369,1043.17,36.194" style="stroke:#A80036;stroke-width:1.0;"/><!--MD5=[a929e6d2b54380e4c3e4c2b17ce7cd9b]
link jar to java.util--><path d="M1055.4547,35.5771 C1055.4547,35.5771 1473.52,67.2794 1708,113 C1709.49,113.2904 1710.99,113.5977 1712.51,113.9196 " fill="none" id="jar-java.util" style="stroke:#A80036;stroke-width:1.0;"/><polygon fill="#A80036" points="1725.19,116.8723,1717.3292,110.9386,1720.3198,115.7404,1715.5181,118.7309,1725.19,116.8723" style="stroke:#A80036;stroke-width:1.0;"/><line style="stroke:#A80036;stroke-width:1.0;" x1="1720.3198" x2="1712.53" y1="115.7404" y2="113.9252"/><polygon fill="#A80036" points="1043.48,34.799,1049.208,39.1796,1055.4547,35.5771,1049.7267,31.1965,1043.48,34.799" style="stroke:#A80036;stroke-width:1.0;"/><!--MD5=[9f09a2acb383ee78db327ceccb9121c9]
@startuml
package "  "  as tictactoe {
}
package "  "  as tictactoe.models {
}
package "  "  as tictactoe.types {
}
package "  "  as tictactoe.controllers {
}
package "  "  as tictactoe.views {
}
package "  "  as tictactoe.views.console {
}
package "  "  as tictactoe.views.graphics {
}
package "  "  as utils {
}
package "  "  as java.io {
}
package "  "  as java.util {
}

[tictactoe.jar] as jar

jar *- -> tictactoe
jar *- -> tictactoe.models
jar *- -> tictactoe.types
jar *- -> tictactoe.controllers
jar *- -> tictactoe.views
jar *- -> tictactoe.views.console
jar *- -> tictactoe.views.graphics
jar *- -> utils
jar *- -> java.io
jar *- -> java.util
@enduml

PlantUML version 1.2020.21(Mon Nov 30 16:40:11 UTC 2020)
(GPL source distribution)
Java Runtime: Java(TM) SE Runtime Environment
JVM: Java HotSpot(TM) 64-Bit Server VM
Default Encoding: UTF-8
Language: en
Country: US
--></g></svg>