<?xml version="1.0" encoding="UTF-8" standalone="no"?><svg xmlns="http://www.w3.org/2000/svg" xmlns:xlink="http://www.w3.org/1999/xlink" contentScriptType="application/ecmascript" contentStyleType="text/css" height="180px" preserveAspectRatio="none" style="width:227px;height:180px;" version="1.1" viewBox="0 0 227 180" width="227px" zoomAndPan="magnify"><defs><filter height="300%" id="f12vs47d7x11ga" width="300%" x="-1" y="-1"><feGaussianBlur result="blurOut" stdDeviation="2.0"/><feColorMatrix in="blurOut" result="blurOut2" type="matrix" values="0 0 0 0 0 0 0 0 0 0 0 0 0 0 0 0 0 0 .4 0"/><feOffset dx="4.0" dy="4.0" in="blurOut2" result="blurOut3"/><feBlend in="SourceGraphic" in2="blurOut3" mode="normal"/></filter></defs><g><!--MD5=[0b70d51bdd028022f5101c089cfdd98e]
entity node--><polygon fill="#DDDDDD" filter="url(#f12vs47d7x11ga)" points="16,16,26,6,210,6,210,50.2969,200,60.2969,16,60.2969,16,16" style="stroke:#000000;stroke-width:1.5;"/><line style="stroke:#000000;stroke-width:1.5;" x1="200" x2="210" y1="16" y2="6"/><line style="stroke:#000000;stroke-width:1.5;" x1="16" x2="200" y1="16" y2="16"/><line style="stroke:#000000;stroke-width:1.5;" x1="200" x2="200" y1="16" y2="60.2969"/><text fill="#000000" font-family="sans-serif" font-size="14" font-weight="bold" lengthAdjust="spacingAndGlyphs" textLength="154" x="31" y="38.9951">Personal Computer</text><line style="stroke:#000000;stroke-width:1.0;" x1="16" x2="200" y1="42.2969" y2="42.2969"/><line style="stroke:#000000;stroke-width:1.0;" x1="200" x2="210" y1="42.2969" y2="32.2969"/><!--MD5=[5f175ec018c225c86e8e77149e6345d4]
entity component--><rect fill="#FEFECE" filter="url(#f12vs47d7x11ga)" height="46.2969" style="stroke:#A80036;stroke-width:1.5;" width="138" x="44" y="120"/><rect fill="#FEFECE" height="10" style="stroke:#A80036;stroke-width:1.5;" width="15" x="162" y="125"/><rect fill="#FEFECE" height="2" style="stroke:#A80036;stroke-width:1.5;" width="4" x="160" y="127"/><rect fill="#FEFECE" height="2" style="stroke:#A80036;stroke-width:1.5;" width="4" x="160" y="131"/><text fill="#000000" font-family="sans-serif" font-size="14" lengthAdjust="spacingAndGlyphs" textLength="90" x="63" y="152.9951">tictactoe.jar</text><!--MD5=[99109aa5fd687c77c25e258721407e9a]
link node to component--><path d="M113,72.144 C113,72.144 113,95.9017 113,106.5465 " fill="none" id="node-component" style="stroke:#A80036;stroke-width:1.0;"/><polygon fill="#A80036" points="113,119.7451,117,110.7451,113,114.7451,109,110.7451,113,119.7451" style="stroke:#A80036;stroke-width:1.0;"/><line style="stroke:#A80036;stroke-width:1.0;" x1="113" x2="113.0001" y1="114.7451" y2="106.7451"/><polygon fill="#A80036" points="113,60.144,109,66.144,113,72.144,117,66.144,113,60.144" style="stroke:#A80036;stroke-width:1.0;"/><!--MD5=[3a5e887733e8f8277f81c9706864fb19]
@startuml
node node #DDDDDD [
<b>Personal Computer</b>
- - - -
]

[ tictactoe.jar ] as component

node *- -> component
@enduml

PlantUML version 1.2020.21beta7(Unknown compile time)
(GPL source distribution)
Java Runtime: Java(TM) SE Runtime Environment
JVM: Java HotSpot(TM) 64-Bit Server VM
Default Encoding: UTF-8
Language: en
Country: US
--></g></svg>