<?xml version="1.0" encoding="UTF-8" standalone="no"?><svg xmlns="http://www.w3.org/2000/svg" xmlns:xlink="http://www.w3.org/1999/xlink" contentScriptType="application/ecmascript" contentStyleType="text/css" height="875px" preserveAspectRatio="none" style="width:1114px;height:875px;" version="1.1" viewBox="0 0 1114 875" width="1114px" zoomAndPan="magnify"><defs><filter height="300%" id="fcva8lmoddmgb" width="300%" x="-1" y="-1"><feGaussianBlur result="blurOut" stdDeviation="2.0"/><feColorMatrix in="blurOut" result="blurOut2" type="matrix" values="0 0 0 0 0 0 0 0 0 0 0 0 0 0 0 0 0 0 .4 0"/><feOffset dx="4.0" dy="4.0" in="blurOut2" result="blurOut3"/><feBlend in="SourceGraphic" in2="blurOut3" mode="normal"/></filter></defs><g><!--MD5=[908cbfa8709a8ec6ee3beb0409fea32c]
cluster usantatecla.utils--><polygon fill="#FFFFFF" filter="url(#fcva8lmoddmgb)" points="16,6,162,6,169,28.2969,1097,28.2969,1097,769,16,769,16,6" style="stroke: #000000; stroke-width: 1.5;"/><line style="stroke: #000000; stroke-width: 1.5;" x1="16" x2="169" y1="28.2969" y2="28.2969"/><text fill="#000000" font-family="sans-serif" font-size="14" font-weight="bold" lengthAdjust="spacingAndGlyphs" textLength="140" x="20" y="20.9951">usantatecla.utils</text><!--MD5=[5f018ac69b30f51f68cd34c581e50301]
class usantatecla.utils.models.Coordinate--><rect codeLine="3" fill="#FEFECE" filter="url(#fcva8lmoddmgb)" height="112.0234" id="usantatecla.utils.models.Coordinate" style="stroke: #A80036; stroke-width: 1.5;" width="224" x="598" y="41"/><ellipse cx="673.25" cy="57" fill="#B4A7E5" rx="11" ry="11" style="stroke: #A80036; stroke-width: 1.0;"/><path d="M674.2031,53.7813 L675.9219,53.7813 C676.3125,53.7813 676.5,53.75 676.625,53.6719 C676.8906,53.5156 677.0313,53.2344 677.0313,52.9375 C677.0313,52.6719 676.9219,52.4063 676.6875,52.2344 C676.5156,52.125 676.375,52.0938 675.9219,52.0938 L670.7813,52.0938 C670.3438,52.0938 670.2188,52.1094 670.0625,52.2031 C669.8125,52.3594 669.6563,52.6563 669.6563,52.9375 C669.6563,53.2188 669.7969,53.4688 670.0156,53.6406 C670.1719,53.75 670.3594,53.7813 670.7813,53.7813 L672.5,53.7813 L672.5,60.2969 L670.7813,60.2969 C670.3438,60.2969 670.2188,60.3125 670.0625,60.4219 C669.8125,60.5781 669.6563,60.8594 669.6563,61.1563 C669.6563,61.4063 669.7969,61.6719 670.0156,61.8281 C670.1719,61.9531 670.375,62 670.7813,62 L675.9219,62 C676.6719,62 677.0313,61.7188 677.0313,61.1563 C677.0313,60.875 676.9219,60.625 676.6875,60.4531 C676.5156,60.3281 676.375,60.2969 675.9219,60.2969 L674.2031,60.2969 L674.2031,53.7813 Z "/><text fill="#000000" font-family="sans-serif" font-size="12" font-style="italic" lengthAdjust="spacingAndGlyphs" textLength="65" x="693.75" y="61.1543">Coordinate</text><line style="stroke: #A80036; stroke-width: 1.5;" x1="599" x2="821" y1="73" y2="73"/><line style="stroke: #A80036; stroke-width: 1.5;" x1="599" x2="821" y1="81" y2="81"/><polygon fill="#4177AF" points="609,88,605,94,613,94" style="stroke: #1963A0; stroke-width: 1.0;"/><text fill="#000000" font-family="sans-serif" font-size="11" lengthAdjust="spacingAndGlyphs" textLength="91" x="618" y="95.2104">isNull(): boolean</text><polygon fill="#4177AF" points="609,100.8047,605,106.8047,613,106.8047" style="stroke: #1963A0; stroke-width: 1.0;"/><text fill="#000000" font-family="sans-serif" font-size="11" lengthAdjust="spacingAndGlyphs" textLength="198" x="618" y="108.0151">getDirection(Coordinate): Direction</text><polygon fill="#4177AF" points="609,113.6094,605,119.6094,613,119.6094" style="stroke: #1963A0; stroke-width: 1.0;"/><text fill="#000000" font-family="sans-serif" font-size="11" lengthAdjust="spacingAndGlyphs" textLength="190" x="618" y="120.8198">inHorizontal(Coordinate): boolean</text><polygon fill="#4177AF" points="609,126.4141,605,132.4141,613,132.4141" style="stroke: #1963A0; stroke-width: 1.0;"/><text fill="#000000" font-family="sans-serif" font-size="11" lengthAdjust="spacingAndGlyphs" textLength="176" x="618" y="133.6245">inVertical(Coordinate): boolean</text><polygon fill="#4177AF" points="609,139.2188,605,145.2188,613,145.2188" style="stroke: #1963A0; stroke-width: 1.0;"/><text fill="#000000" font-family="sans-serif" font-size="11" lengthAdjust="spacingAndGlyphs" textLength="147" x="618" y="146.4292">inMainDiagonal(): boolean</text><!--MD5=[c2c7894405d0c7b92ed3110a385504d5]
class usantatecla.utils.models.ConcreteCoordinate--><rect codeLine="11" fill="#FEFECE" filter="url(#fcva8lmoddmgb)" height="265.6797" id="usantatecla.utils.models.ConcreteCoordinate" style="stroke: #A80036; stroke-width: 1.5;" width="224" x="598" y="213"/><ellipse cx="645.25" cy="229" fill="#ADD1B2" rx="11" ry="11" style="stroke: #A80036; stroke-width: 1.0;"/><path d="M647.5938,224.6719 C646.6563,224.2344 646.0625,224.0938 645.1875,224.0938 C642.5625,224.0938 640.5625,226.1719 640.5625,228.8906 L640.5625,230.0156 C640.5625,232.5938 642.6719,234.4844 645.5625,234.4844 C646.7813,234.4844 647.9375,234.1875 648.6875,233.6406 C649.2656,233.2344 649.5938,232.7813 649.5938,232.3906 C649.5938,231.9375 649.2031,231.5469 648.7344,231.5469 C648.5156,231.5469 648.3125,231.625 648.125,231.8125 C647.6719,232.2969 647.6719,232.2969 647.4844,232.3906 C647.0625,232.6563 646.375,232.7813 645.6094,232.7813 C643.5625,232.7813 642.2656,231.6875 642.2656,229.9844 L642.2656,228.8906 C642.2656,227.1094 643.5156,225.7969 645.25,225.7969 C645.8281,225.7969 646.4375,225.9531 646.9063,226.2031 C647.3906,226.4844 647.5625,226.7031 647.6563,227.1094 C647.7188,227.5156 647.75,227.6406 647.8906,227.7656 C648.0313,227.9063 648.2656,228.0156 648.4844,228.0156 C648.75,228.0156 649.0156,227.875 649.1875,227.6563 C649.2969,227.5 649.3281,227.3125 649.3281,226.8906 L649.3281,225.4688 C649.3281,225.0313 649.3125,224.9063 649.2188,224.75 C649.0625,224.4844 648.7813,224.3438 648.4844,224.3438 C648.1875,224.3438 647.9844,224.4375 647.7656,224.75 L647.5938,224.6719 Z "/><text fill="#000000" font-family="sans-serif" font-size="12" lengthAdjust="spacingAndGlyphs" textLength="121" x="665.75" y="233.1543">ConcreteCoordinate</text><line style="stroke: #A80036; stroke-width: 1.5;" x1="599" x2="821" y1="245" y2="245"/><polygon fill="none" points="609,251,613,255,609,259,605,255" style="stroke: #B38D22; stroke-width: 1.0;"/><text fill="#000000" font-family="sans-serif" font-size="11" lengthAdjust="spacingAndGlyphs" textLength="41" x="618" y="259.2104">row: int</text><polygon fill="none" points="609,263.8047,613,267.8047,609,271.8047,605,267.8047" style="stroke: #B38D22; stroke-width: 1.0;"/><text fill="#000000" font-family="sans-serif" font-size="11" lengthAdjust="spacingAndGlyphs" textLength="62" x="618" y="272.0151">column: int</text><polygon fill="none" points="609,277.6094,605,283.6094,613,283.6094" style="stroke: #1963A0; stroke-width: 1.0;"/><text fill="#000000" font-family="sans-serif" font-size="11" lengthAdjust="spacingAndGlyphs" text-decoration="underline" textLength="67" x="618" y="284.8198">ROW: String</text><polygon fill="none" points="609,290.4141,605,296.4141,613,296.4141" style="stroke: #1963A0; stroke-width: 1.0;"/><text fill="#000000" font-family="sans-serif" font-size="11" lengthAdjust="spacingAndGlyphs" text-decoration="underline" textLength="88" x="618" y="297.6245">COLUMN: String</text><line style="stroke: #A80036; stroke-width: 1.5;" x1="599" x2="821" y1="304.2188" y2="304.2188"/><polygon fill="#FFFF44" points="609,310.2188,613,314.2188,609,318.2188,605,314.2188" style="stroke: #B38D22; stroke-width: 1.0;"/><text fill="#000000" font-family="sans-serif" font-size="11" lengthAdjust="spacingAndGlyphs" textLength="122" x="618" y="318.4292">ConcreteCoordinate()</text><polygon fill="#FFFF44" points="609,323.0234,613,327.0234,609,331.0234,605,327.0234" style="stroke: #B38D22; stroke-width: 1.0;"/><text fill="#000000" font-family="sans-serif" font-size="11" lengthAdjust="spacingAndGlyphs" textLength="157" x="618" y="331.2339">ConcreteCoordinate(int, int)</text><ellipse cx="609" cy="340.8281" fill="#84BE84" rx="3" ry="3" style="stroke: #038048; stroke-width: 1.0;"/><text fill="#000000" font-family="sans-serif" font-size="11" lengthAdjust="spacingAndGlyphs" textLength="91" x="618" y="344.0386">isNull(): boolean</text><ellipse cx="609" cy="353.6328" fill="#84BE84" rx="3" ry="3" style="stroke: #038048; stroke-width: 1.0;"/><text fill="#000000" font-family="sans-serif" font-size="11" lengthAdjust="spacingAndGlyphs" textLength="198" x="618" y="356.8433">getDirection(Coordinate): Direction</text><ellipse cx="609" cy="366.4375" fill="#84BE84" rx="3" ry="3" style="stroke: #038048; stroke-width: 1.0;"/><text fill="#000000" font-family="sans-serif" font-size="11" lengthAdjust="spacingAndGlyphs" textLength="190" x="618" y="369.6479">inHorizontal(Coordinate): boolean</text><ellipse cx="609" cy="379.2422" fill="#84BE84" rx="3" ry="3" style="stroke: #038048; stroke-width: 1.0;"/><text fill="#000000" font-family="sans-serif" font-size="11" lengthAdjust="spacingAndGlyphs" textLength="176" x="618" y="382.4526">inVertical(Coordinate): boolean</text><ellipse cx="609" cy="392.0469" fill="#84BE84" rx="3" ry="3" style="stroke: #038048; stroke-width: 1.0;"/><text fill="#000000" font-family="sans-serif" font-size="11" lengthAdjust="spacingAndGlyphs" textLength="147" x="618" y="395.2573">inMainDiagonal(): boolean</text><polygon fill="#FFFF44" points="609,399.8516,613,403.8516,609,407.8516,605,403.8516" style="stroke: #B38D22; stroke-width: 1.0;"/><text fill="#000000" font-family="sans-serif" font-size="11" lengthAdjust="spacingAndGlyphs" textLength="67" x="618" y="408.062">read(String)</text><ellipse cx="609" cy="417.6563" fill="#84BE84" rx="3" ry="3" style="stroke: #038048; stroke-width: 1.0;"/><text fill="#000000" font-family="sans-serif" font-size="11" lengthAdjust="spacingAndGlyphs" textLength="71" x="618" y="420.8667">getRow(): int</text><ellipse cx="609" cy="430.4609" fill="#84BE84" rx="3" ry="3" style="stroke: #038048; stroke-width: 1.0;"/><text fill="#000000" font-family="sans-serif" font-size="11" lengthAdjust="spacingAndGlyphs" textLength="91" x="618" y="433.6714">getColumn(): int</text><ellipse cx="609" cy="443.2656" fill="#84BE84" rx="3" ry="3" style="stroke: #038048; stroke-width: 1.0;"/><text fill="#000000" font-family="sans-serif" font-size="11" lengthAdjust="spacingAndGlyphs" textLength="86" x="618" y="446.4761">hashCode(): int</text><ellipse cx="609" cy="456.0703" fill="#84BE84" rx="3" ry="3" style="stroke: #038048; stroke-width: 1.0;"/><text fill="#000000" font-family="sans-serif" font-size="11" lengthAdjust="spacingAndGlyphs" textLength="136" x="618" y="459.2808">equals(Object): boolean</text><ellipse cx="609" cy="468.875" fill="#84BE84" rx="3" ry="3" style="stroke: #038048; stroke-width: 1.0;"/><text fill="#000000" font-family="sans-serif" font-size="11" lengthAdjust="spacingAndGlyphs" textLength="92" x="618" y="472.0854">toString(): String</text><!--MD5=[d5f17ae0f97d6def496fbead5961f960]
class usantatecla.utils.models.NullCoordinate--><rect codeLine="30" fill="#FEFECE" filter="url(#fcva8lmoddmgb)" height="176.0469" id="usantatecla.utils.models.NullCoordinate" style="stroke: #A80036; stroke-width: 1.5;" width="224" x="857" y="258"/><ellipse cx="921.25" cy="274" fill="#ADD1B2" rx="11" ry="11" style="stroke: #A80036; stroke-width: 1.0;"/><path d="M923.5938,269.6719 C922.6563,269.2344 922.0625,269.0938 921.1875,269.0938 C918.5625,269.0938 916.5625,271.1719 916.5625,273.8906 L916.5625,275.0156 C916.5625,277.5938 918.6719,279.4844 921.5625,279.4844 C922.7813,279.4844 923.9375,279.1875 924.6875,278.6406 C925.2656,278.2344 925.5938,277.7813 925.5938,277.3906 C925.5938,276.9375 925.2031,276.5469 924.7344,276.5469 C924.5156,276.5469 924.3125,276.625 924.125,276.8125 C923.6719,277.2969 923.6719,277.2969 923.4844,277.3906 C923.0625,277.6563 922.375,277.7813 921.6094,277.7813 C919.5625,277.7813 918.2656,276.6875 918.2656,274.9844 L918.2656,273.8906 C918.2656,272.1094 919.5156,270.7969 921.25,270.7969 C921.8281,270.7969 922.4375,270.9531 922.9063,271.2031 C923.3906,271.4844 923.5625,271.7031 923.6563,272.1094 C923.7188,272.5156 923.75,272.6406 923.8906,272.7656 C924.0313,272.9063 924.2656,273.0156 924.4844,273.0156 C924.75,273.0156 925.0156,272.875 925.1875,272.6563 C925.2969,272.5 925.3281,272.3125 925.3281,271.8906 L925.3281,270.4688 C925.3281,270.0313 925.3125,269.9063 925.2188,269.75 C925.0625,269.4844 924.7813,269.3438 924.4844,269.3438 C924.1875,269.3438 923.9844,269.4375 923.7656,269.75 L923.5938,269.6719 Z "/><text fill="#000000" font-family="sans-serif" font-size="12" lengthAdjust="spacingAndGlyphs" textLength="87" x="941.75" y="278.1543">NullCoordinate</text><line style="stroke: #A80036; stroke-width: 1.5;" x1="858" x2="1080" y1="290" y2="290"/><ellipse cx="868" cy="301" fill="none" rx="3" ry="3" style="stroke: #038048; stroke-width: 1.0;"/><text fill="#000000" font-family="sans-serif" font-size="11" lengthAdjust="spacingAndGlyphs" text-decoration="underline" textLength="138" x="877" y="304.2104">instance: NullCoordinate</text><line style="stroke: #A80036; stroke-width: 1.5;" x1="858" x2="1080" y1="310.8047" y2="310.8047"/><ellipse cx="868" cy="321.8047" fill="#84BE84" rx="3" ry="3" style="stroke: #038048; stroke-width: 1.0;"/><text fill="#000000" font-family="sans-serif" font-size="11" lengthAdjust="spacingAndGlyphs" text-decoration="underline" textLength="125" x="877" y="325.0151">instance(): Coordinate</text><ellipse cx="868" cy="334.6094" fill="#84BE84" rx="3" ry="3" style="stroke: #038048; stroke-width: 1.0;"/><text fill="#000000" font-family="sans-serif" font-size="11" lengthAdjust="spacingAndGlyphs" textLength="91" x="877" y="337.8198">isNull(): boolean</text><ellipse cx="868" cy="347.4141" fill="#84BE84" rx="3" ry="3" style="stroke: #038048; stroke-width: 1.0;"/><text fill="#000000" font-family="sans-serif" font-size="11" lengthAdjust="spacingAndGlyphs" textLength="198" x="877" y="350.6245">getDirection(Coordinate): Direction</text><ellipse cx="868" cy="360.2188" fill="#84BE84" rx="3" ry="3" style="stroke: #038048; stroke-width: 1.0;"/><text fill="#000000" font-family="sans-serif" font-size="11" lengthAdjust="spacingAndGlyphs" textLength="190" x="877" y="363.4292">inHorizontal(Coordinate): boolean</text><ellipse cx="868" cy="373.0234" fill="#84BE84" rx="3" ry="3" style="stroke: #038048; stroke-width: 1.0;"/><text fill="#000000" font-family="sans-serif" font-size="11" lengthAdjust="spacingAndGlyphs" textLength="176" x="877" y="376.2339">inVertical(Coordinate): boolean</text><ellipse cx="868" cy="385.8281" fill="#84BE84" rx="3" ry="3" style="stroke: #038048; stroke-width: 1.0;"/><text fill="#000000" font-family="sans-serif" font-size="11" lengthAdjust="spacingAndGlyphs" textLength="147" x="877" y="389.0386">inMainDiagonal(): boolean</text><ellipse cx="868" cy="398.6328" fill="#84BE84" rx="3" ry="3" style="stroke: #038048; stroke-width: 1.0;"/><text fill="#000000" font-family="sans-serif" font-size="11" lengthAdjust="spacingAndGlyphs" textLength="86" x="877" y="401.8433">hashCode(): int</text><ellipse cx="868" cy="411.4375" fill="#84BE84" rx="3" ry="3" style="stroke: #038048; stroke-width: 1.0;"/><text fill="#000000" font-family="sans-serif" font-size="11" lengthAdjust="spacingAndGlyphs" textLength="136" x="877" y="414.6479">equals(Object): boolean</text><ellipse cx="868" cy="424.2422" fill="#84BE84" rx="3" ry="3" style="stroke: #038048; stroke-width: 1.0;"/><text fill="#000000" font-family="sans-serif" font-size="11" lengthAdjust="spacingAndGlyphs" textLength="92" x="877" y="427.4526">toString(): String</text><!--MD5=[fa47e12b1ade8e81943ba4775d45235c]
class usantatecla.utils.models.Direction--><rect codeLine="43" fill="#FEFECE" filter="url(#fcva8lmoddmgb)" height="112.0234" id="usantatecla.utils.models.Direction" style="stroke: #A80036; stroke-width: 1.5;" width="140" x="423" y="290"/><ellipse cx="462.3" cy="306" fill="#EB937F" rx="11" ry="11" style="stroke: #A80036; stroke-width: 1.0;"/><path d="M461.0969,306.875 L462.55,306.875 L462.55,306.9844 C462.55,307.3906 462.5813,307.5469 462.6594,307.7031 C462.8156,307.9531 463.0969,308.1094 463.3938,308.1094 C463.6438,308.1094 463.9094,307.9688 464.0656,307.75 C464.1906,307.5938 464.2219,307.4375 464.2219,306.9844 L464.2219,305.0625 C464.2219,304.9063 464.2219,304.8594 464.2063,304.7031 C464.1438,304.2344 463.8313,303.9219 463.3781,303.9219 C463.1281,303.9219 462.8625,304.0625 462.6906,304.2813 C462.5813,304.4531 462.55,304.6094 462.55,305.0625 L462.55,305.1875 L461.0969,305.1875 L461.0969,302.7813 L465.0813,302.7813 L465.0813,303.6406 C465.0813,304.0469 465.1125,304.2188 465.1906,304.375 C465.3625,304.625 465.6438,304.7813 465.925,304.7813 C466.1906,304.7813 466.4563,304.6406 466.6281,304.4219 C466.7375,304.25 466.7688,304.1094 466.7688,303.6406 L466.7688,301.0938 L459.1438,301.0938 C458.7063,301.0938 458.5813,301.1094 458.425,301.2031 C458.175,301.3594 458.0188,301.6563 458.0188,301.9375 C458.0188,302.2188 458.1594,302.4688 458.3781,302.6406 C458.5344,302.75 458.7219,302.7813 459.1438,302.7813 L459.3938,302.7813 L459.3938,309.2969 L459.1438,309.2969 C458.7375,309.2969 458.5813,309.3125 458.425,309.4219 C458.175,309.5938 458.0188,309.8594 458.0188,310.1563 C458.0188,310.4219 458.1594,310.6719 458.3781,310.8281 C458.5188,310.9531 458.7531,311 459.1438,311 L467.1438,311 L467.1438,308.4219 C467.1438,307.9844 467.1125,307.8438 467.0344,307.6875 C466.8625,307.4375 466.5813,307.2813 466.3,307.2813 C466.0344,307.2813 465.7688,307.3906 465.5969,307.6406 C465.4875,307.7969 465.4563,307.9375 465.4563,308.4219 L465.4563,309.2969 L461.0969,309.2969 L461.0969,306.875 Z "/><text fill="#000000" font-family="sans-serif" font-size="12" lengthAdjust="spacingAndGlyphs" textLength="54" x="481.7" y="310.1543">Direction</text><line style="stroke: #A80036; stroke-width: 1.5;" x1="424" x2="562" y1="322" y2="322"/><ellipse cx="434" cy="333" fill="none" rx="3" ry="3" style="stroke: #038048; stroke-width: 1.0;"/><text fill="#000000" font-family="sans-serif" font-size="11" lengthAdjust="spacingAndGlyphs" textLength="54" x="443" y="336.2104">VERTICAL</text><ellipse cx="434" cy="345.8047" fill="none" rx="3" ry="3" style="stroke: #038048; stroke-width: 1.0;"/><text fill="#000000" font-family="sans-serif" font-size="11" lengthAdjust="spacingAndGlyphs" textLength="73" x="443" y="349.0151">HORIZONTAL</text><ellipse cx="434" cy="358.6094" fill="none" rx="3" ry="3" style="stroke: #038048; stroke-width: 1.0;"/><text fill="#000000" font-family="sans-serif" font-size="11" lengthAdjust="spacingAndGlyphs" textLength="94" x="443" y="361.8198">MAIN_DIAGONAL</text><ellipse cx="434" cy="371.4141" fill="none" rx="3" ry="3" style="stroke: #038048; stroke-width: 1.0;"/><text fill="#000000" font-family="sans-serif" font-size="11" lengthAdjust="spacingAndGlyphs" textLength="114" x="443" y="374.6245">INVERSE_DIAGONAL</text><ellipse cx="434" cy="384.2188" fill="none" rx="3" ry="3" style="stroke: #038048; stroke-width: 1.0;"/><text fill="#000000" font-family="sans-serif" font-size="11" lengthAdjust="spacingAndGlyphs" textLength="28" x="443" y="387.4292">NULL</text><line style="stroke: #A80036; stroke-width: 1.5;" x1="424" x2="562" y1="394.0234" y2="394.0234"/><!--MD5=[5a5a2ad444bc00c1498d76ebf80a1dc4]
class usantatecla.utils.views.Console--><rect codeLine="51" fill="#FEFECE" filter="url(#fcva8lmoddmgb)" height="214.4609" id="usantatecla.utils.views.Console" style="stroke: #A80036; stroke-width: 1.5;" width="166" x="228" y="539"/><ellipse cx="282.25" cy="555" fill="#ADD1B2" rx="11" ry="11" style="stroke: #A80036; stroke-width: 1.0;"/><path d="M284.5938,550.6719 C283.6563,550.2344 283.0625,550.0938 282.1875,550.0938 C279.5625,550.0938 277.5625,552.1719 277.5625,554.8906 L277.5625,556.0156 C277.5625,558.5938 279.6719,560.4844 282.5625,560.4844 C283.7813,560.4844 284.9375,560.1875 285.6875,559.6406 C286.2656,559.2344 286.5938,558.7813 286.5938,558.3906 C286.5938,557.9375 286.2031,557.5469 285.7344,557.5469 C285.5156,557.5469 285.3125,557.625 285.125,557.8125 C284.6719,558.2969 284.6719,558.2969 284.4844,558.3906 C284.0625,558.6563 283.375,558.7813 282.6094,558.7813 C280.5625,558.7813 279.2656,557.6875 279.2656,555.9844 L279.2656,554.8906 C279.2656,553.1094 280.5156,551.7969 282.25,551.7969 C282.8281,551.7969 283.4375,551.9531 283.9063,552.2031 C284.3906,552.4844 284.5625,552.7031 284.6563,553.1094 C284.7188,553.5156 284.75,553.6406 284.8906,553.7656 C285.0313,553.9063 285.2656,554.0156 285.4844,554.0156 C285.75,554.0156 286.0156,553.875 286.1875,553.6563 C286.2969,553.5 286.3281,553.3125 286.3281,552.8906 L286.3281,551.4688 C286.3281,551.0313 286.3125,550.9063 286.2188,550.75 C286.0625,550.4844 285.7813,550.3438 285.4844,550.3438 C285.1875,550.3438 284.9844,550.4375 284.7656,550.75 L284.5938,550.6719 Z "/><text fill="#000000" font-family="sans-serif" font-size="12" lengthAdjust="spacingAndGlyphs" textLength="49" x="302.75" y="559.1543">Console</text><line style="stroke: #A80036; stroke-width: 1.5;" x1="229" x2="393" y1="571" y2="571"/><ellipse cx="239" cy="582" fill="none" rx="3" ry="3" style="stroke: #038048; stroke-width: 1.0;"/><text fill="#000000" font-family="sans-serif" font-size="11" lengthAdjust="spacingAndGlyphs" text-decoration="underline" textLength="97" x="248" y="585.2104">console: Console</text><line style="stroke: #A80036; stroke-width: 1.5;" x1="229" x2="393" y1="591.8047" y2="591.8047"/><ellipse cx="239" cy="602.8047" fill="#84BE84" rx="3" ry="3" style="stroke: #038048; stroke-width: 1.0;"/><text fill="#000000" font-family="sans-serif" font-size="11" lengthAdjust="spacingAndGlyphs" text-decoration="underline" textLength="109" x="248" y="606.0151">instance(): Console</text><ellipse cx="239" cy="615.6094" fill="#84BE84" rx="3" ry="3" style="stroke: #038048; stroke-width: 1.0;"/><text fill="#000000" font-family="sans-serif" font-size="11" lengthAdjust="spacingAndGlyphs" textLength="140" x="248" y="618.8198">readString(String): String</text><ellipse cx="239" cy="628.4141" fill="#84BE84" rx="3" ry="3" style="stroke: #038048; stroke-width: 1.0;"/><text fill="#000000" font-family="sans-serif" font-size="11" lengthAdjust="spacingAndGlyphs" textLength="107" x="248" y="631.6245">readString(): String</text><ellipse cx="239" cy="641.2188" fill="#84BE84" rx="3" ry="3" style="stroke: #038048; stroke-width: 1.0;"/><text fill="#000000" font-family="sans-serif" font-size="11" lengthAdjust="spacingAndGlyphs" textLength="102" x="248" y="644.4292">readInt(String): int</text><ellipse cx="239" cy="654.0234" fill="#84BE84" rx="3" ry="3" style="stroke: #038048; stroke-width: 1.0;"/><text fill="#000000" font-family="sans-serif" font-size="11" lengthAdjust="spacingAndGlyphs" textLength="124" x="248" y="657.2339">readChar(String): char</text><ellipse cx="239" cy="666.8281" fill="#84BE84" rx="3" ry="3" style="stroke: #038048; stroke-width: 1.0;"/><text fill="#000000" font-family="sans-serif" font-size="11" lengthAdjust="spacingAndGlyphs" textLength="46" x="248" y="670.0386">writeln()</text><ellipse cx="239" cy="679.6328" fill="#84BE84" rx="3" ry="3" style="stroke: #038048; stroke-width: 1.0;"/><text fill="#000000" font-family="sans-serif" font-size="11" lengthAdjust="spacingAndGlyphs" textLength="69" x="248" y="682.8433">write(String)</text><ellipse cx="239" cy="692.4375" fill="#84BE84" rx="3" ry="3" style="stroke: #038048; stroke-width: 1.0;"/><text fill="#000000" font-family="sans-serif" font-size="11" lengthAdjust="spacingAndGlyphs" textLength="50" x="248" y="695.6479">write(int)</text><ellipse cx="239" cy="705.2422" fill="#84BE84" rx="3" ry="3" style="stroke: #038048; stroke-width: 1.0;"/><text fill="#000000" font-family="sans-serif" font-size="11" lengthAdjust="spacingAndGlyphs" textLength="79" x="248" y="708.4526">writeln(String)</text><ellipse cx="239" cy="718.0469" fill="#84BE84" rx="3" ry="3" style="stroke: #038048; stroke-width: 1.0;"/><text fill="#000000" font-family="sans-serif" font-size="11" lengthAdjust="spacingAndGlyphs" textLength="60" x="248" y="721.2573">writeln(int)</text><ellipse cx="239" cy="730.8516" fill="#84BE84" rx="3" ry="3" style="stroke: #038048; stroke-width: 1.0;"/><text fill="#000000" font-family="sans-serif" font-size="11" lengthAdjust="spacingAndGlyphs" textLength="60" x="248" y="734.062">write(char)</text><ellipse cx="239" cy="743.6563" fill="#84BE84" rx="3" ry="3" style="stroke: #038048; stroke-width: 1.0;"/><text fill="#000000" font-family="sans-serif" font-size="11" lengthAdjust="spacingAndGlyphs" textLength="95" x="248" y="746.8667">writeError(String)</text><!--MD5=[b0b725b3db639de93c4e5e8714f3aefc]
class usantatecla.utils.models.ClosedIntervalTest--><rect codeLine="67" fill="#FEFECE" filter="url(#fcva8lmoddmgb)" height="112.0234" id="usantatecla.utils.models.ClosedIntervalTest" style="stroke: #A80036; stroke-width: 1.5;" width="158" x="35" y="590"/><ellipse cx="68" cy="606" fill="#ADD1B2" rx="11" ry="11" style="stroke: #A80036; stroke-width: 1.0;"/><path d="M70.3438,601.6719 C69.4063,601.2344 68.8125,601.0938 67.9375,601.0938 C65.3125,601.0938 63.3125,603.1719 63.3125,605.8906 L63.3125,607.0156 C63.3125,609.5938 65.4219,611.4844 68.3125,611.4844 C69.5313,611.4844 70.6875,611.1875 71.4375,610.6406 C72.0156,610.2344 72.3438,609.7813 72.3438,609.3906 C72.3438,608.9375 71.9531,608.5469 71.4844,608.5469 C71.2656,608.5469 71.0625,608.625 70.875,608.8125 C70.4219,609.2969 70.4219,609.2969 70.2344,609.3906 C69.8125,609.6563 69.125,609.7813 68.3594,609.7813 C66.3125,609.7813 65.0156,608.6875 65.0156,606.9844 L65.0156,605.8906 C65.0156,604.1094 66.2656,602.7969 68,602.7969 C68.5781,602.7969 69.1875,602.9531 69.6563,603.2031 C70.1406,603.4844 70.3125,603.7031 70.4063,604.1094 C70.4688,604.5156 70.5,604.6406 70.6406,604.7656 C70.7813,604.9063 71.0156,605.0156 71.2344,605.0156 C71.5,605.0156 71.7656,604.875 71.9375,604.6563 C72.0469,604.5 72.0781,604.3125 72.0781,603.8906 L72.0781,602.4688 C72.0781,602.0313 72.0625,601.9063 71.9688,601.75 C71.8125,601.4844 71.5313,601.3438 71.2344,601.3438 C70.9375,601.3438 70.7344,601.4375 70.5156,601.75 L70.3438,601.6719 Z "/><text fill="#000000" font-family="sans-serif" font-size="12" lengthAdjust="spacingAndGlyphs" textLength="86" x="86" y="610.1543">ClosedInterval</text><line style="stroke: #A80036; stroke-width: 1.5;" x1="36" x2="192" y1="622" y2="622"/><rect fill="none" height="6" style="stroke: #C82930; stroke-width: 1.0;" width="6" x="43" y="630"/><text fill="#000000" font-family="sans-serif" font-size="11" lengthAdjust="spacingAndGlyphs" textLength="42" x="55" y="636.2104">min: int</text><rect fill="none" height="6" style="stroke: #C82930; stroke-width: 1.0;" width="6" x="43" y="642.8047"/><text fill="#000000" font-family="sans-serif" font-size="11" lengthAdjust="spacingAndGlyphs" textLength="46" x="55" y="649.0151">max: int</text><line style="stroke: #A80036; stroke-width: 1.5;" x1="36" x2="192" y1="655.6094" y2="655.6094"/><ellipse cx="46" cy="666.6094" fill="#84BE84" rx="3" ry="3" style="stroke: #038048; stroke-width: 1.0;"/><text fill="#000000" font-family="sans-serif" font-size="11" lengthAdjust="spacingAndGlyphs" textLength="125" x="55" y="669.8198">ClosedInterval(int, int)</text><ellipse cx="46" cy="679.4141" fill="#84BE84" rx="3" ry="3" style="stroke: #038048; stroke-width: 1.0;"/><text fill="#000000" font-family="sans-serif" font-size="11" lengthAdjust="spacingAndGlyphs" textLength="132" x="55" y="682.6245">isIncluded(int): boolean</text><ellipse cx="46" cy="692.2188" fill="#84BE84" rx="3" ry="3" style="stroke: #038048; stroke-width: 1.0;"/><text fill="#000000" font-family="sans-serif" font-size="11" lengthAdjust="spacingAndGlyphs" textLength="92" x="55" y="695.4292">toString(): String</text><!--MD5=[115031fed92a4467bd358dd9ee6729dd]
class usantatecla.utils.views.YesNoDialog--><rect codeLine="75" fill="#FEFECE" filter="url(#fcva8lmoddmgb)" height="163.2422" id="usantatecla.utils.views.YesNoDialog" style="stroke: #A80036; stroke-width: 1.5;" width="155" x="232.5" y="264.5"/><ellipse cx="268.65" cy="280.5" fill="#ADD1B2" rx="11" ry="11" style="stroke: #A80036; stroke-width: 1.0;"/><path d="M270.9938,276.1719 C270.0563,275.7344 269.4625,275.5938 268.5875,275.5938 C265.9625,275.5938 263.9625,277.6719 263.9625,280.3906 L263.9625,281.5156 C263.9625,284.0938 266.0719,285.9844 268.9625,285.9844 C270.1813,285.9844 271.3375,285.6875 272.0875,285.1406 C272.6656,284.7344 272.9938,284.2813 272.9938,283.8906 C272.9938,283.4375 272.6031,283.0469 272.1344,283.0469 C271.9156,283.0469 271.7125,283.125 271.525,283.3125 C271.0719,283.7969 271.0719,283.7969 270.8844,283.8906 C270.4625,284.1563 269.775,284.2813 269.0094,284.2813 C266.9625,284.2813 265.6656,283.1875 265.6656,281.4844 L265.6656,280.3906 C265.6656,278.6094 266.9156,277.2969 268.65,277.2969 C269.2281,277.2969 269.8375,277.4531 270.3063,277.7031 C270.7906,277.9844 270.9625,278.2031 271.0563,278.6094 C271.1188,279.0156 271.15,279.1406 271.2906,279.2656 C271.4313,279.4063 271.6656,279.5156 271.8844,279.5156 C272.15,279.5156 272.4156,279.375 272.5875,279.1563 C272.6969,279 272.7281,278.8125 272.7281,278.3906 L272.7281,276.9688 C272.7281,276.5313 272.7125,276.4063 272.6188,276.25 C272.4625,275.9844 272.1813,275.8438 271.8844,275.8438 C271.5875,275.8438 271.3844,275.9375 271.1656,276.25 L270.9938,276.1719 Z "/><text fill="#000000" font-family="sans-serif" font-size="12" lengthAdjust="spacingAndGlyphs" textLength="76" x="287.35" y="284.6543">YesNoDialog</text><line style="stroke: #A80036; stroke-width: 1.5;" x1="233.5" x2="386.5" y1="296.5" y2="296.5"/><rect fill="none" height="6" style="stroke: #C82930; stroke-width: 1.0;" width="6" x="240.5" y="304.5"/><text fill="#000000" font-family="sans-serif" font-size="11" lengthAdjust="spacingAndGlyphs" text-decoration="underline" textLength="103" x="252.5" y="310.7104">AFFIRMATIVE: char</text><rect fill="none" height="6" style="stroke: #C82930; stroke-width: 1.0;" width="6" x="240.5" y="317.3047"/><text fill="#000000" font-family="sans-serif" font-size="11" lengthAdjust="spacingAndGlyphs" text-decoration="underline" textLength="88" x="252.5" y="323.5151">NEGATIVE: char</text><rect fill="none" height="6" style="stroke: #C82930; stroke-width: 1.0;" width="6" x="240.5" y="330.1094"/><text fill="#000000" font-family="sans-serif" font-size="11" lengthAdjust="spacingAndGlyphs" text-decoration="underline" textLength="79" x="252.5" y="336.3198">SUFFIX: String</text><rect fill="none" height="6" style="stroke: #C82930; stroke-width: 1.0;" width="6" x="240.5" y="342.9141"/><text fill="#000000" font-family="sans-serif" font-size="11" lengthAdjust="spacingAndGlyphs" text-decoration="underline" textLength="96" x="252.5" y="349.1245">MESSAGE: String</text><rect fill="none" height="6" style="stroke: #C82930; stroke-width: 1.0;" width="6" x="240.5" y="355.7188"/><text fill="#000000" font-family="sans-serif" font-size="11" lengthAdjust="spacingAndGlyphs" textLength="72" x="252.5" y="361.9292">answer: char</text><line style="stroke: #A80036; stroke-width: 1.5;" x1="233.5" x2="386.5" y1="368.5234" y2="368.5234"/><ellipse cx="243.5" cy="379.5234" fill="#84BE84" rx="3" ry="3" style="stroke: #038048; stroke-width: 1.0;"/><text fill="#000000" font-family="sans-serif" font-size="11" lengthAdjust="spacingAndGlyphs" textLength="120" x="252.5" y="382.7339">read(String): boolean</text><rect fill="#F24D5C" height="6" style="stroke: #C82930; stroke-width: 1.0;" width="6" x="240.5" y="389.3281"/><text fill="#000000" font-family="sans-serif" font-size="11" lengthAdjust="spacingAndGlyphs" textLength="129" x="252.5" y="395.5386">isAfirmative(): boolean</text><rect fill="#F24D5C" height="6" style="stroke: #C82930; stroke-width: 1.0;" width="6" x="240.5" y="402.1328"/><text fill="#000000" font-family="sans-serif" font-size="11" lengthAdjust="spacingAndGlyphs" textLength="100" x="252.5" y="408.3433">getAnswer(): char</text><rect fill="#F24D5C" height="6" style="stroke: #C82930; stroke-width: 1.0;" width="6" x="240.5" y="414.9375"/><text fill="#000000" font-family="sans-serif" font-size="11" lengthAdjust="spacingAndGlyphs" textLength="122" x="252.5" y="421.1479">isNegative(): boolean</text><!--MD5=[3415149f6924cb72405a86d2dbe048ff]
class usantatecla.utils.LimitedIntDialog--><rect codeLine="87" fill="#FEFECE" filter="url(#fcva8lmoddmgb)" height="99.2188" id="usantatecla.utils.LimitedIntDialog" style="stroke: #A80036; stroke-width: 1.5;" width="165" x="32.5" y="296.5"/><ellipse cx="64.6" cy="312.5" fill="#ADD1B2" rx="11" ry="11" style="stroke: #A80036; stroke-width: 1.0;"/><path d="M66.9438,308.1719 C66.0063,307.7344 65.4125,307.5938 64.5375,307.5938 C61.9125,307.5938 59.9125,309.6719 59.9125,312.3906 L59.9125,313.5156 C59.9125,316.0938 62.0219,317.9844 64.9125,317.9844 C66.1313,317.9844 67.2875,317.6875 68.0375,317.1406 C68.6156,316.7344 68.9438,316.2813 68.9438,315.8906 C68.9438,315.4375 68.5531,315.0469 68.0844,315.0469 C67.8656,315.0469 67.6625,315.125 67.475,315.3125 C67.0219,315.7969 67.0219,315.7969 66.8344,315.8906 C66.4125,316.1563 65.725,316.2813 64.9594,316.2813 C62.9125,316.2813 61.6156,315.1875 61.6156,313.4844 L61.6156,312.3906 C61.6156,310.6094 62.8656,309.2969 64.6,309.2969 C65.1781,309.2969 65.7875,309.4531 66.2563,309.7031 C66.7406,309.9844 66.9125,310.2031 67.0063,310.6094 C67.0688,311.0156 67.1,311.1406 67.2406,311.2656 C67.3813,311.4063 67.6156,311.5156 67.8344,311.5156 C68.1,311.5156 68.3656,311.375 68.5375,311.1563 C68.6469,311 68.6781,310.8125 68.6781,310.3906 L68.6781,308.9688 C68.6781,308.5313 68.6625,308.4063 68.5688,308.25 C68.4125,307.9844 68.1313,307.8438 67.8344,307.8438 C67.5375,307.8438 67.3344,307.9375 67.1156,308.25 L66.9438,308.1719 Z "/><text fill="#000000" font-family="sans-serif" font-size="12" lengthAdjust="spacingAndGlyphs" textLength="95" x="82.4" y="316.6543">LimitedIntDialog</text><line style="stroke: #A80036; stroke-width: 1.5;" x1="33.5" x2="196.5" y1="328.5" y2="328.5"/><rect fill="none" height="6" style="stroke: #C82930; stroke-width: 1.0;" width="6" x="40.5" y="336.5"/><text fill="#000000" font-family="sans-serif" font-size="11" lengthAdjust="spacingAndGlyphs" textLength="125" x="52.5" y="342.7104">LIMITS: ClosedInterval</text><rect fill="none" height="6" style="stroke: #C82930; stroke-width: 1.0;" width="6" x="40.5" y="349.3047"/><text fill="#000000" font-family="sans-serif" font-size="11" lengthAdjust="spacingAndGlyphs" text-decoration="underline" textLength="139" x="52.5" y="355.5151">ERROR_MESSAGE: String</text><line style="stroke: #A80036; stroke-width: 1.5;" x1="33.5" x2="196.5" y1="362.1094" y2="362.1094"/><ellipse cx="43.5" cy="373.1094" fill="#84BE84" rx="3" ry="3" style="stroke: #038048; stroke-width: 1.0;"/><text fill="#000000" font-family="sans-serif" font-size="11" lengthAdjust="spacingAndGlyphs" textLength="135" x="52.5" y="376.3198">LimitedIntDialog(int, int)</text><ellipse cx="43.5" cy="385.9141" fill="#84BE84" rx="3" ry="3" style="stroke: #038048; stroke-width: 1.0;"/><text fill="#000000" font-family="sans-serif" font-size="11" lengthAdjust="spacingAndGlyphs" textLength="88" x="52.5" y="389.1245">read(String): int</text><!--MD5=[ee4f8f5c2b5eaa5df2ba8c0614cd4e83]
class BufferedReader--><rect codeLine="104" fill="#FEFECE" filter="url(#fcva8lmoddmgb)" height="48" id="BufferedReader" style="stroke: #A80036; stroke-width: 1.5;" width="168" x="227" y="813"/><ellipse cx="242" cy="829" fill="#ADD1B2" rx="11" ry="11" style="stroke: #A80036; stroke-width: 1.0;"/><path d="M244.3438,824.6719 C243.4063,824.2344 242.8125,824.0938 241.9375,824.0938 C239.3125,824.0938 237.3125,826.1719 237.3125,828.8906 L237.3125,830.0156 C237.3125,832.5938 239.4219,834.4844 242.3125,834.4844 C243.5313,834.4844 244.6875,834.1875 245.4375,833.6406 C246.0156,833.2344 246.3438,832.7813 246.3438,832.3906 C246.3438,831.9375 245.9531,831.5469 245.4844,831.5469 C245.2656,831.5469 245.0625,831.625 244.875,831.8125 C244.4219,832.2969 244.4219,832.2969 244.2344,832.3906 C243.8125,832.6563 243.125,832.7813 242.3594,832.7813 C240.3125,832.7813 239.0156,831.6875 239.0156,829.9844 L239.0156,828.8906 C239.0156,827.1094 240.2656,825.7969 242,825.7969 C242.5781,825.7969 243.1875,825.9531 243.6563,826.2031 C244.1406,826.4844 244.3125,826.7031 244.4063,827.1094 C244.4688,827.5156 244.5,827.6406 244.6406,827.7656 C244.7813,827.9063 245.0156,828.0156 245.2344,828.0156 C245.5,828.0156 245.7656,827.875 245.9375,827.6563 C246.0469,827.5 246.0781,827.3125 246.0781,826.8906 L246.0781,825.4688 C246.0781,825.0313 246.0625,824.9063 245.9688,824.75 C245.8125,824.4844 245.5313,824.3438 245.2344,824.3438 C244.9375,824.3438 244.7344,824.4375 244.5156,824.75 L244.3438,824.6719 Z "/><text fill="#000000" font-family="sans-serif" font-size="12" lengthAdjust="spacingAndGlyphs" textLength="136" x="256" y="833.1543">java.io.BufferedReader</text><line style="stroke: #A80036; stroke-width: 1.5;" x1="228" x2="394" y1="845" y2="845"/><line style="stroke: #A80036; stroke-width: 1.5;" x1="228" x2="394" y1="853" y2="853"/><!--MD5=[ca73a4fbcee54775298381742925c483]
reverse link usantatecla.utils.models.Coordinate to usantatecla.utils.models.ConcreteCoordinate--><path codeLine="96" d="M710,173.41 C710,185.974 710,199.324 710,212.813 " fill="none" id="usantatecla.utils.models.Coordinate-backto-usantatecla.utils.models.ConcreteCoordinate" style="stroke: #A80036; stroke-width: 1.0;"/><polygon fill="none" points="703,173.124,710,153.124,717,173.124,703,173.124" style="stroke: #A80036; stroke-width: 1.0;"/><!--MD5=[cddedadb31d71f7b6d8b58208518f687]
reverse link usantatecla.utils.models.Coordinate to usantatecla.utils.models.NullCoordinate--><path codeLine="97" d="M789.543,166.727 C806.408,181.753 823.955,197.733 840,213 C854.973,227.247 870.589,242.694 885.575,257.832 " fill="none" id="usantatecla.utils.models.Coordinate-backto-usantatecla.utils.models.NullCoordinate" style="stroke: #A80036; stroke-width: 1.0;"/><polygon fill="none" points="784.646,171.742,774.309,153.245,793.925,161.258,784.646,171.742" style="stroke: #A80036; stroke-width: 1.0;"/><!--MD5=[a8ffb3790df5680269bc6d65de93cdf4]
link usantatecla.utils.models.Coordinate to usantatecla.utils.models.Direction--><path codeLine="98" d="M641.63,153.172 C621.093,171.226 599.203,192.051 581,213 C561.698,235.215 543.178,261.881 528.15,285.412 " fill="none" id="usantatecla.utils.models.Coordinate-to-usantatecla.utils.models.Direction" style="stroke: #A80036; stroke-width: 1.0; stroke-dasharray: 7.0,7.0;"/><polygon fill="#A80036" points="525.386,289.768,533.5854,284.3118,528.0648,285.5462,526.8304,280.0256,525.386,289.768" style="stroke: #A80036; stroke-width: 1.0;"/><!--MD5=[0002b1cbccdb92ae6e9caff73706633c]
link usantatecla.utils.models.ConcreteCoordinate to usantatecla.utils.views.Console--><path codeLine="99" d="M597.873,464.889 C592.272,469.771 586.633,474.5 581,479 C523.922,524.599 453.426,567.55 398.782,598.334 " fill="none" id="usantatecla.utils.models.ConcreteCoordinate-to-usantatecla.utils.views.Console" style="stroke: #A80036; stroke-width: 1.0; stroke-dasharray: 7.0,7.0;"/><polygon fill="#A80036" points="394.212,600.902,404.0179,599.9827,398.5716,598.4537,400.1005,593.0074,394.212,600.902" style="stroke: #A80036; stroke-width: 1.0;"/><!--MD5=[9ea9fdac8877b2914dbfaebea76eb772]
link usantatecla.utils.LimitedIntDialog to usantatecla.utils.views.Console--><path codeLine="100" d="M146.927,395.542 C171.672,433.164 206.936,486.78 238.434,534.671 " fill="none" id="usantatecla.utils.LimitedIntDialog-to-usantatecla.utils.views.Console" style="stroke: #A80036; stroke-width: 1.0; stroke-dasharray: 7.0,7.0;"/><polygon fill="#A80036" points="241.276,538.991,239.6727,529.2735,238.5286,534.8135,232.9887,533.6694,241.276,538.991" style="stroke: #A80036; stroke-width: 1.0;"/><!--MD5=[bef9209ee563bd0cab945b38e8120dbd]
link usantatecla.utils.views.YesNoDialog to usantatecla.utils.views.Console--><path codeLine="101" d="M310.271,427.643 C310.38,460.255 310.508,498.444 310.626,533.637 " fill="none" id="usantatecla.utils.views.YesNoDialog-to-usantatecla.utils.views.Console" style="stroke: #A80036; stroke-width: 1.0; stroke-dasharray: 7.0,7.0;"/><polygon fill="#A80036" points="310.644,538.806,314.6131,529.7923,310.6269,533.806,306.6132,529.8198,310.644,538.806" style="stroke: #A80036; stroke-width: 1.0;"/><!--MD5=[ea5cf5ece861ff4fd45a5d576f5bc955]
link usantatecla.utils.LimitedIntDialog to usantatecla.utils.models.ClosedIntervalTest--><path codeLine="102" d="M114.837,395.542 C114.664,447.148 114.39,528.849 114.203,584.585 " fill="none" id="usantatecla.utils.LimitedIntDialog-to-usantatecla.utils.models.ClosedIntervalTest" style="stroke: #A80036; stroke-width: 1.0; stroke-dasharray: 7.0,7.0;"/><polygon fill="#A80036" points="114.185,589.896,118.2158,580.9098,114.2021,584.896,110.2159,580.8823,114.185,589.896" style="stroke: #A80036; stroke-width: 1.0;"/><!--MD5=[14426ff67e875e6661b88179367ed759]
link usantatecla.utils.views.Console to BufferedReader--><path codeLine="107" d="M311,765.102 C311,765.102 311,789.6664 311,799.6942 " fill="none" id="usantatecla.utils.views.Console-BufferedReader" style="stroke: #A80036; stroke-width: 1.0;"/><polygon fill="#A80036" points="311,812.8278,315,803.8278,311,807.8278,307,803.8278,311,812.8278" style="stroke: #A80036; stroke-width: 1.0;"/><line style="stroke: #A80036; stroke-width: 1.0;" x1="311" x2="311" y1="807.8278" y2="799.8279"/><polygon fill="#A80036" points="311,753.102,307,759.102,311,765.102,315,759.102,311,753.102" style="stroke: #A80036; stroke-width: 1.0;"/><!--MD5=[35f9612ce8e0e4698bf42005e290e010]
@startuml
namespace usantatecla.utils {

interface Coordinate {
	~ isNull(): boolean 
	~ getDirection(Coordinate): Direction 
	~ inHorizontal(Coordinate): boolean 
	~ inVertical(Coordinate): boolean 
	~ inMainDiagonal(): boolean 
}

class ConcreteCoordinate {
	# row: int 
	# column: int 
	~ ROW: {static} String
	~ COLUMN: {static} String
	# ConcreteCoordinate()
	# ConcreteCoordinate(int, int)
	+ isNull(): boolean 
	+ getDirection(Coordinate): Direction 
	+ inHorizontal(Coordinate): boolean 
	+ inVertical(Coordinate): boolean 
	+ inMainDiagonal(): boolean 
	# read(String)
	+ getRow(): int 
	+ getColumn(): int
	+ hashCode(): int
	+ equals(Object): boolean 
	+ toString(): String 
}
class NullCoordinate {
	+ instance: {static} NullCoordinate 
	+ {static} instance(): Coordinate 
	+ isNull(): boolean 
	+ getDirection(Coordinate): Direction 
	+ inHorizontal(Coordinate): boolean 
	+ inVertical(Coordinate): boolean
	+ inMainDiagonal(): boolean
	+ hashCode(): int 
	+ equals(Object): boolean 
	+ toString(): String 
}

enum Direction {
	+ VERTICAL
	+ HORIZONTAL
	+ MAIN_DIAGONAL
	+ INVERSE_DIAGONAL
	+ NULL
}

class Console {
	+ console: {static} Console 
	+ instance(): {static} Console 
	+ readString(String): String 
	+ readString(): String 
	+ readInt(String): int 
	+ readChar(String): char 
	+ writeln()
	+ write(String)
	+ write(int)
	+ writeln(String)
	+ writeln(int)
	+ write(char)
	+ writeError(String)
}

class ClosedInterval {
	- min: int 
	- max: int 
	+ ClosedInterval(int, int)
	+ isIncluded(int): boolean 
	+ toString(): String 
}

class YesNoDialog {
	- AFFIRMATIVE: {static} char 
	- NEGATIVE: {static} char 
	- SUFFIX: {static} String 
	- MESSAGE: {static} String
	- answer: char 
	+ read(String): boolean 
	- isAfirmative(): boolean 
	- getAnswer(): char 
	- isNegative(): boolean 
}

class LimitedIntDialog {
	- LIMITS: ClosedInterval 
	- ERROR_MESSAGE: {static} String 
	+ LimitedIntDialog(int, int)
	+ read(String): int 
}



Coordinate <|-down- ConcreteCoordinate
Coordinate <|-down- NullCoordinate
Coordinate .down.> Direction
ConcreteCoordinate .down.> Console
LimitedIntDialog .down.> Console
YesNoDialog .down.> Console
LimitedIntDialog .down.> ClosedInterval
}
class BufferedReader as "java.io.BufferedReader"{
	
}
usantatecla.utils.views.Console *-down-> BufferedReader
@enduml

PlantUML version 1.2020.20beta7(Unknown compile time)
(GPL source distribution)
Java Runtime: Java(TM) SE Runtime Environment
JVM: Java HotSpot(TM) 64-Bit Server VM
Default Encoding: UTF-8
Language: en
Country: US
--></g></svg>