<?xml version="1.0" encoding="UTF-8" standalone="no"?><svg xmlns="http://www.w3.org/2000/svg" xmlns:xlink="http://www.w3.org/1999/xlink" contentScriptType="application/ecmascript" contentStyleType="text/css" height="630px" preserveAspectRatio="none" style="width:1091px;height:630px;" version="1.1" viewBox="0 0 1091 630" width="1091px" zoomAndPan="magnify"><defs><filter height="300%" id="f1u4iyz3awf7iq" width="300%" x="-1" y="-1"><feGaussianBlur result="blurOut" stdDeviation="2.0"/><feColorMatrix in="blurOut" result="blurOut2" type="matrix" values="0 0 0 0 0 0 0 0 0 0 0 0 0 0 0 0 0 0 .4 0"/><feOffset dx="4.0" dy="4.0" in="blurOut2" result="blurOut3"/><feBlend in="SourceGraphic" in2="blurOut3" mode="normal"/></filter></defs><g><polygon fill="#DDDDDD" filter="url(#f1u4iyz3awf7iq)" points="352,6,434,6,441,28.2969,448,28.2969,448,58.5938,352,58.5938,352,6" style="stroke:#000000;stroke-width:1.5;"/><line style="stroke:#000000;stroke-width:1.5;" x1="352" x2="441" y1="28.2969" y2="28.2969"/><text fill="#000000" font-family="sans-serif" font-size="14" font-weight="bold" lengthAdjust="spacingAndGlyphs" textLength="76" x="356" y="20.9951">tictactoe</text><polygon fill="#DDDDDD" filter="url(#f1u4iyz3awf7iq)" points="407,232,539,232,546,254.2969,553,254.2969,553,284.5938,407,284.5938,407,232" style="stroke:#000000;stroke-width:1.5;"/><line style="stroke:#000000;stroke-width:1.5;" x1="407" x2="546" y1="254.2969" y2="254.2969"/><text fill="#000000" font-family="sans-serif" font-size="14" font-weight="bold" lengthAdjust="spacingAndGlyphs" textLength="126" x="411" y="246.9951">tictactoe.views</text><polygon fill="#DDDDDD" filter="url(#f1u4iyz3awf7iq)" points="125,345,301,345,308,367.2969,315,367.2969,315,397.5938,125,397.5938,125,345" style="stroke:#000000;stroke-width:1.5;"/><line style="stroke:#000000;stroke-width:1.5;" x1="125" x2="308" y1="367.2969" y2="367.2969"/><text fill="#000000" font-family="sans-serif" font-size="14" font-weight="bold" lengthAdjust="spacingAndGlyphs" textLength="170" x="129" y="359.9951">tictactoe.controllers</text><polygon fill="#DDDDDD" filter="url(#f1u4iyz3awf7iq)" points="155.5,458,300.5,458,307.5,480.2969,314.5,480.2969,314.5,510.5938,155.5,510.5938,155.5,458" style="stroke:#000000;stroke-width:1.5;"/><line style="stroke:#000000;stroke-width:1.5;" x1="155.5" x2="307.5" y1="480.2969" y2="480.2969"/><text fill="#000000" font-family="sans-serif" font-size="14" font-weight="bold" lengthAdjust="spacingAndGlyphs" textLength="139" x="159.5" y="472.9951">tictactoe.models</text><polygon fill="#DDDDDD" filter="url(#f1u4iyz3awf7iq)" points="295,571,427,571,434,593.2969,441,593.2969,441,623.5938,295,623.5938,295,571" style="stroke:#000000;stroke-width:1.5;"/><line style="stroke:#000000;stroke-width:1.5;" x1="295" x2="434" y1="593.2969" y2="593.2969"/><text fill="#000000" font-family="sans-serif" font-size="14" font-weight="bold" lengthAdjust="spacingAndGlyphs" textLength="126" x="299" y="585.9951">tictactoe.types</text><polygon fill="#FFFFFF" filter="url(#f1u4iyz3awf7iq)" points="115.5,571,188.5,571,195.5,593.2969,202.5,593.2969,202.5,623.5938,115.5,623.5938,115.5,571" style="stroke:#000000;stroke-width:1.5;"/><line style="stroke:#000000;stroke-width:1.5;" x1="115.5" x2="195.5" y1="593.2969" y2="593.2969"/><text fill="#000000" font-family="sans-serif" font-size="14" font-weight="bold" lengthAdjust="spacingAndGlyphs" textLength="67" x="119.5" y="585.9951">java.util</text><polygon fill="#DDDDDD" filter="url(#f1u4iyz3awf7iq)" points="172.5,232,215.5,232,222.5,254.2969,229.5,254.2969,229.5,284.5938,172.5,284.5938,172.5,232" style="stroke:#000000;stroke-width:1.5;"/><line style="stroke:#000000;stroke-width:1.5;" x1="172.5" x2="222.5" y1="254.2969" y2="254.2969"/><text fill="#000000" font-family="sans-serif" font-size="14" font-weight="bold" lengthAdjust="spacingAndGlyphs" textLength="37" x="176.5" y="246.9951">utils</text><polygon fill="#FFFFFF" filter="url(#f1u4iyz3awf7iq)" points="16,345,76,345,83,367.2969,90,367.2969,90,397.5938,16,397.5938,16,345" style="stroke:#000000;stroke-width:1.5;"/><line style="stroke:#000000;stroke-width:1.5;" x1="16" x2="83" y1="367.2969" y2="367.2969"/><text fill="#000000" font-family="sans-serif" font-size="14" font-weight="bold" lengthAdjust="spacingAndGlyphs" textLength="54" x="20" y="359.9951">java.io</text><polygon fill="#DDDDDD" filter="url(#f1u4iyz3awf7iq)" points="213.5,119,412.5,119,419.5,141.2969,426.5,141.2969,426.5,171.5938,213.5,171.5938,213.5,119" style="stroke:#000000;stroke-width:1.5;"/><line style="stroke:#000000;stroke-width:1.5;" x1="213.5" x2="419.5" y1="141.2969" y2="141.2969"/><text fill="#000000" font-family="sans-serif" font-size="14" font-weight="bold" lengthAdjust="spacingAndGlyphs" textLength="193" x="217.5" y="133.9951">tictactoe.views.console</text><polygon fill="#DDDDDD" filter="url(#f1u4iyz3awf7iq)" points="563.5,119,770.5,119,777.5,141.2969,784.5,141.2969,784.5,171.5938,563.5,171.5938,563.5,119" style="stroke:#000000;stroke-width:1.5;"/><line style="stroke:#000000;stroke-width:1.5;" x1="563.5" x2="777.5" y1="141.2969" y2="141.2969"/><text fill="#000000" font-family="sans-serif" font-size="14" font-weight="bold" lengthAdjust="spacingAndGlyphs" textLength="201" x="567.5" y="133.9951">tictactoe.views.graphics</text><polygon fill="#FFFFFF" filter="url(#f1u4iyz3awf7iq)" points="659,232,735,232,742,254.2969,749,254.2969,749,284.5938,659,284.5938,659,232" style="stroke:#000000;stroke-width:1.5;"/><line style="stroke:#000000;stroke-width:1.5;" x1="659" x2="742" y1="254.2969" y2="254.2969"/><text fill="#000000" font-family="sans-serif" font-size="14" font-weight="bold" lengthAdjust="spacingAndGlyphs" textLength="70" x="663" y="246.9951">java.awt</text><polygon fill="#FFFFFF" filter="url(#f1u4iyz3awf7iq)" points="784,232,910,232,917,254.2969,924,254.2969,924,284.5938,784,284.5938,784,232" style="stroke:#000000;stroke-width:1.5;"/><line style="stroke:#000000;stroke-width:1.5;" x1="784" x2="917" y1="254.2969" y2="254.2969"/><text fill="#000000" font-family="sans-serif" font-size="14" font-weight="bold" lengthAdjust="spacingAndGlyphs" textLength="120" x="788" y="246.9951">java.awt.event</text><polygon fill="#FFFFFF" filter="url(#f1u4iyz3awf7iq)" points="959.5,232,1060.5,232,1067.5,254.2969,1074.5,254.2969,1074.5,284.5938,959.5,284.5938,959.5,232" style="stroke:#000000;stroke-width:1.5;"/><line style="stroke:#000000;stroke-width:1.5;" x1="959.5" x2="1067.5" y1="254.2969" y2="254.2969"/><text fill="#000000" font-family="sans-serif" font-size="14" font-weight="bold" lengthAdjust="spacingAndGlyphs" textLength="95" x="963.5" y="246.9951">javax.swing</text><!--MD5=[e75f446ce7e4e6233c0f378e4a80c309]
link tictactoe to tictactoe.views.graphics--><path codeLine="2" d="M448.041,52.962 C491.903,70.731 557.198,97.182 606.334,117.088 " fill="none" id="tictactoe-to-tictactoe.views.graphics" style="stroke:#A80036;stroke-width:1.0;stroke-dasharray:7.0,7.0;"/><polygon fill="#A80036" points="611.037,118.993,604.197,111.9068,606.4027,117.1159,601.1936,119.3216,611.037,118.993" style="stroke:#A80036;stroke-width:1.0;"/><!--MD5=[14e8060986a8fc6b4a58b3b27491f648]
link tictactoe to tictactoe.views.console--><path codeLine="3" d="M381.445,59.245 C369.531,75.776 354.012,97.308 341.552,114.597 " fill="none" id="tictactoe-to-tictactoe.views.console" style="stroke:#A80036;stroke-width:1.0;stroke-dasharray:7.0,7.0;"/><polygon fill="#A80036" points="338.454,118.895,346.9622,113.9342,341.3783,114.8393,340.4731,109.2553,338.454,118.895" style="stroke:#A80036;stroke-width:1.0;"/><!--MD5=[4c8e626184b37a51cac3aeda5d7a8756]
link tictactoe to tictactoe.controllers--><path codeLine="4" d="M351.599,42.179 C305.744,52.792 237.843,75.062 196,119 C143.591,174.032 130.734,212.984 155,285 C162.026,305.851 176.385,325.645 189.824,340.927 " fill="none" id="tictactoe-to-tictactoe.controllers" style="stroke:#A80036;stroke-width:1.0;stroke-dasharray:7.0,7.0;"/><polygon fill="#A80036" points="193.216,344.713,190.189,335.3409,189.8793,340.9892,184.2309,340.6796,193.216,344.713" style="stroke:#A80036;stroke-width:1.0;"/><!--MD5=[8fe1157dabbcf20ee852fc992046f19b]
link tictactoe to tictactoe.views--><path d="M415.017,59.008 C424.338,75.656 436.019,98.102 444,119 C457.767,155.052 468.082,198.344 474.064,226.818 " fill="none" id="tictactoe-to-tictactoe.views" style="stroke:#A80036;stroke-width:1.0;stroke-dasharray:7.0,7.0;"/><polygon fill="#A80036" points="475.131,231.957,477.2193,222.3321,474.1153,227.0613,469.3861,223.9572,475.131,231.957" style="stroke:#A80036;stroke-width:1.0;"/><!--MD5=[f6dfdd433beafcf2daacaf58db85d2a6]
link tictactoe.controllers to tictactoe.models--><path codeLine="8" d="M223.479,398.245 C225.675,414.496 228.524,435.579 230.84,452.714 " fill="none" id="tictactoe.controllers-to-tictactoe.models" style="stroke:#A80036;stroke-width:1.0;stroke-dasharray:7.0,7.0;"/><polygon fill="#A80036" points="231.54,457.895,234.3004,448.4409,230.8713,452.9399,226.3723,449.5108,231.54,457.895" style="stroke:#A80036;stroke-width:1.0;"/><!--MD5=[f1ef2a356c956f8a73e3a19c14814b65]
link tictactoe.models to tictactoe.types--><path codeLine="11" d="M265.847,511.245 C287.334,529.1769 315.87,552.9933 337.32,570.895 " fill="none" id="tictactoe.models-tictactoe.types" style="stroke:#A80036;stroke-width:1.0;stroke-dasharray:7.0,7.0;"/><!--MD5=[e6c0f23e74b5161a168046a341518387]
link tictactoe.models to java.util--><path d="M217.373,511.245 C206.054,527.776 191.312,549.3079 179.474,566.5966 " fill="none" id="tictactoe.models-to-java.util" style="stroke:#A80036;stroke-width:1.0;stroke-dasharray:7.0,7.0;"/><polygon fill="#A80036" points="176.531,570.895,184.916,565.7285,179.3557,566.7693,178.3149,561.209,176.531,570.895" style="stroke:#A80036;stroke-width:1.0;"/><!--MD5=[c868621a8ffa7a8485ccb8c9dbdaad11]
link tictactoe.controllers to java.util--><path d="M185.092,398.014 C167.365,413.203 147.59,434.147 138,458 C123.808,493.302 134.805,537.183 145.504,565.9723 " fill="none" id="tictactoe.controllers-to-java.util" style="stroke:#A80036;stroke-width:1.0;stroke-dasharray:7.0,7.0;"/><polygon fill="#A80036" points="147.353,570.8127,147.8784,560.9779,145.5689,566.1418,140.405,563.8324,147.353,570.8127" style="stroke:#A80036;stroke-width:1.0;"/><!--MD5=[e79504c030c2940e8dd8427e90ad9823]
link utils to java.io--><path d="M172.464,280.902 C149.342,298.244 116.55,322.837 91.1703,341.872 " fill="none" id="utils-to-java.io" style="stroke:#A80036;stroke-width:1.0;stroke-dasharray:7.0,7.0;"/><polygon fill="#A80036" points="87.1633,344.878,96.7637,342.6796,91.1638,341.8787,91.9648,336.2788,87.1633,344.878" style="stroke:#A80036;stroke-width:1.0;"/><!--MD5=[e96436d729bbb84b7b77caf89585f866]
link tictactoe.views to tictactoe.types--><path d="M471.49,285.106 C450.662,347.776 397.311,508.304 376.497,570.9326 " fill="none" id="tictactoe.views-tictactoe.types" style="stroke:#A80036;stroke-width:1.0;stroke-dasharray:7.0,7.0;"/><!--MD5=[6ba7a600a15b805df477e9f81c752d07]
link tictactoe.views to tictactoe.controllers--><path d="M420.024,285.105 C379.591,302.367 326.276,325.128 284.858,342.811 " fill="none" id="tictactoe.views-to-tictactoe.controllers" style="stroke:#A80036;stroke-width:1.0;stroke-dasharray:7.0,7.0;"/><polygon fill="#A80036" points="280.124,344.832,289.9718,344.9777,284.7226,342.8691,286.8312,337.62,280.124,344.832" style="stroke:#A80036;stroke-width:1.0;"/><!--MD5=[41c78a4448c1d219acd325d35025abdb]
link tictactoe.views.console to tictactoe.types--><path d="M322.753,172.31 C331.046,250.054 355.764,481.792 364.717,565.7196 " fill="none" id="tictactoe.views.console-to-tictactoe.types" style="stroke:#A80036;stroke-width:1.0;stroke-dasharray:7.0,7.0;"/><polygon fill="#A80036" points="365.258,570.7941,368.2809,561.4206,364.7277,565.8223,360.326,562.2691,365.258,570.7941" style="stroke:#A80036;stroke-width:1.0;"/><!--MD5=[d9231b12cc9710bcc39738b6493510f9]
link tictactoe.views.console to tictactoe.views--><path d="M357.109,172.245 C381.544,189.196 413.558,211.406 438.785,228.907 " fill="none" id="tictactoe.views.console-to-tictactoe.views" style="stroke:#A80036;stroke-width:1.0;stroke-dasharray:7.0,7.0;"/><polygon fill="#A80036" points="443.092,231.895,437.9769,223.4786,438.9837,229.0452,433.4171,230.052,443.092,231.895" style="stroke:#A80036;stroke-width:1.0;"/><!--MD5=[ae85e2051aac6338671b2c0e494e498c]
link tictactoe.views.console to tictactoe.controllers--><path d="M308.529,172.196 C289.967,213.775 253.429,295.619 233.591,340.055 " fill="none" id="tictactoe.views.console-to-tictactoe.controllers" style="stroke:#A80036;stroke-width:1.0;stroke-dasharray:7.0,7.0;"/><polygon fill="#A80036" points="231.491,344.76,238.8128,338.1728,233.5295,340.1944,231.5079,334.9112,231.491,344.76" style="stroke:#A80036;stroke-width:1.0;"/><!--MD5=[b62e8057ebb64db4cc41eb56011c03b5]
link tictactoe.views.console to utils--><path d="M292.4,172.245 C274.377,189.056 250.809,211.039 232.12,228.472 " fill="none" id="tictactoe.views.console-to-utils" style="stroke:#A80036;stroke-width:1.0;stroke-dasharray:7.0,7.0;"/><polygon fill="#A80036" points="228.45,231.895,237.7597,228.6811,232.1063,228.4845,232.3029,222.831,228.45,231.895" style="stroke:#A80036;stroke-width:1.0;"/><!--MD5=[c7abc341df818e9399752b73ea287ffa]
link tictactoe.views.graphics to java.awt--><path d="M680.958,172.245 C685.35,188.496 691.049,209.579 695.679,226.714 " fill="none" id="tictactoe.views.graphics-to-java.awt" style="stroke:#A80036;stroke-width:1.0;stroke-dasharray:7.0,7.0;"/><polygon fill="#A80036" points="697.08,231.895,698.5932,222.1631,695.7754,227.0682,690.8703,224.2504,697.08,231.895" style="stroke:#A80036;stroke-width:1.0;"/><!--MD5=[1c28faa5b8dc6ea7b3ae1a3bac7bae3d]
link tictactoe.views.graphics to java.awt.event--><path d="M715.748,172.245 C743.351,189.266 779.551,211.59 807.984,229.124 " fill="none" id="tictactoe.views.graphics-to-java.awt.event" style="stroke:#A80036;stroke-width:1.0;stroke-dasharray:7.0,7.0;"/><polygon fill="#A80036" points="812.478,231.895,806.9169,223.7664,808.2221,229.2706,802.7179,230.5758,812.478,231.895" style="stroke:#A80036;stroke-width:1.0;"/><!--MD5=[36236f1ad998eba9fea5e75bc6a115c4]
link tictactoe.views.graphics to tictactoe.views--><path d="M629.005,172.245 C599.133,189.336 559.918,211.773 529.217,229.34 " fill="none" id="tictactoe.views.graphics-to-tictactoe.views" style="stroke:#A80036;stroke-width:1.0;stroke-dasharray:7.0,7.0;"/><polygon fill="#A80036" points="524.751,231.895,534.5493,230.8979,529.091,229.4122,530.5767,223.9539,524.751,231.895" style="stroke:#A80036;stroke-width:1.0;"/><!--MD5=[e76a6be31849206907fd12c2469d4e43]
link tictactoe.views.graphics to tictactoe.controllers--><path d="M661.701,172.25 C645.279,203.789 613.172,256.52 570,285 C495.301,334.278 394.783,355.181 320.633,364.033 " fill="none" id="tictactoe.views.graphics-to-tictactoe.controllers" style="stroke:#A80036;stroke-width:1.0;stroke-dasharray:7.0,7.0;"/><polygon fill="#A80036" points="315.341,364.65,324.7443,367.5789,320.3072,364.0699,323.8162,359.6329,315.341,364.65" style="stroke:#A80036;stroke-width:1.0;"/><!--MD5=[b630ab80351c1f98f91c87ac09bf7168]
link tictactoe.views.graphics to javax.swing--><path d="M755.346,172.012 C808.539,188.803 879.496,211.406 942,232 C946.037,233.33 950.192,234.711 954.379,236.11 " fill="none" id="tictactoe.views.graphics-to-javax.swing" style="stroke:#A80036;stroke-width:1.0;stroke-dasharray:7.0,7.0;"/><polygon fill="#A80036" points="959.302,237.76,952.039,231.1081,954.561,236.1716,949.4975,238.6936,959.302,237.76" style="stroke:#A80036;stroke-width:1.0;"/><!--MD5=[1f03d9851c6299ed253da8b246784f3e]
@startuml
package tictactoe #DDDDDD { }
tictactoe .down.> tictactoe.views.graphics
tictactoe .down.> tictactoe.views.console
tictactoe .down.> tictactoe.controllers
tictactoe .down.> tictactoe.views

package tictactoe.controllers #DDDDDD { }
tictactoe.controllers .down.> tictactoe.models

package tictactoe.models #DDDDDD { }
tictactoe.models .down. tictactoe.types
package tictactoe.types #DDDDDD { }
package java.util{ }
tictactoe.models .down.> java.util
tictactoe.controllers .down.> java.util

package utils #DDDDDD { }
package java.io{ }
utils .down.> java.io

package tictactoe.views #DDDDDD { }
tictactoe.views .down.tictactoe.types
tictactoe.views .down.> tictactoe.controllers

package tictactoe.views.console #DDDDDD { }
tictactoe.views.console .down.> tictactoe.types
tictactoe.views.console .down.> tictactoe.views
tictactoe.views.console .down.> tictactoe.controllers
tictactoe.views.console .down.> utils

package tictactoe.views.graphics #DDDDDD { }
package java.awt{ }
tictactoe.views.graphics .down.> java.awt
package java.awt.event{ }
tictactoe.views.graphics .down.> java.awt.event
tictactoe.views.graphics .down.> tictactoe.views
tictactoe.views.graphics .down.> tictactoe.controllers
package javax.swing{ }
tictactoe.views.graphics .down.> javax.swing
@enduml

PlantUML version 1.2020.22(Sun Dec 06 09:36:27 UTC 2020)
(GPL source distribution)
Java Runtime: Java(TM) SE Runtime Environment
JVM: Java HotSpot(TM) 64-Bit Server VM
Default Encoding: UTF-8
Language: en
Country: US
--></g></svg>