<?xml version="1.0" encoding="UTF-8" standalone="no"?><svg xmlns="http://www.w3.org/2000/svg" xmlns:xlink="http://www.w3.org/1999/xlink" contentScriptType="application/ecmascript" contentStyleType="text/css" height="159px" preserveAspectRatio="none" style="width:1301px;height:159px;" version="1.1" viewBox="0 0 1301 159" width="1301px" zoomAndPan="magnify"><defs><filter height="300%" id="f19t71sxzhvn51" width="300%" x="-1" y="-1"><feGaussianBlur result="blurOut" stdDeviation="2.0"/><feColorMatrix in="blurOut" result="blurOut2" type="matrix" values="0 0 0 0 0 0 0 0 0 0 0 0 0 0 0 0 0 0 .4 0"/><feOffset dx="4.0" dy="4.0" in="blurOut2" result="blurOut3"/><feBlend in="SourceGraphic" in2="blurOut3" mode="normal"/></filter></defs><g><!--MD5=[acdcbb1bbc8d56ea383ed909c292e8b2]
entity usantatecla.tictactoe--><polygon fill="#FFFFFF" filter="url(#f19t71sxzhvn51)" points="16,113,201,113,208,135.2969,225,135.2969,225,152.2969,16,152.2969,16,113" style="stroke:#000000;stroke-width:1.5;"/><line style="stroke:#000000;stroke-width:1.5;" x1="16" x2="208" y1="135.2969" y2="135.2969"/><text fill="#000000" font-family="sans-serif" font-size="14" font-weight="bold" lengthAdjust="spacingAndGlyphs" textLength="179" x="20" y="128.9951">usantatecla.tictactoe</text><!--MD5=[8a7221fb26a81e9372d3fe2d21fa25b8]
entity usantatecla.tictactoe.models--><polygon fill="#FFFFFF" filter="url(#f19t71sxzhvn51)" points="260.5,113,508.5,113,515.5,135.2969,532.5,135.2969,532.5,152.2969,260.5,152.2969,260.5,113" style="stroke:#000000;stroke-width:1.5;"/><line style="stroke:#000000;stroke-width:1.5;" x1="260.5" x2="515.5" y1="135.2969" y2="135.2969"/><text fill="#000000" font-family="sans-serif" font-size="14" font-weight="bold" lengthAdjust="spacingAndGlyphs" textLength="242" x="264.5" y="128.9951">usantatecla.tictactoe.models</text><!--MD5=[5f8519f2225fbca3fd672cc319e1c1fd]
entity usantatecla.tictactoe.views--><polygon fill="#FFFFFF" filter="url(#f19t71sxzhvn51)" points="568,113,803,113,810,135.2969,827,135.2969,827,152.2969,568,152.2969,568,113" style="stroke:#000000;stroke-width:1.5;"/><line style="stroke:#000000;stroke-width:1.5;" x1="568" x2="810" y1="135.2969" y2="135.2969"/><text fill="#000000" font-family="sans-serif" font-size="14" font-weight="bold" lengthAdjust="spacingAndGlyphs" textLength="229" x="572" y="128.9951">usantatecla.tictactoe.views</text><!--MD5=[612a536d1c85efa17c7d118cc1e7b020]
entity usantatecla.utils--><polygon fill="#FFFFFF" filter="url(#f19t71sxzhvn51)" points="862.5,113,1008.5,113,1015.5,135.2969,1032.5,135.2969,1032.5,152.2969,862.5,152.2969,862.5,113" style="stroke:#000000;stroke-width:1.5;"/><line style="stroke:#000000;stroke-width:1.5;" x1="862.5" x2="1015.5" y1="135.2969" y2="135.2969"/><text fill="#000000" font-family="sans-serif" font-size="14" font-weight="bold" lengthAdjust="spacingAndGlyphs" textLength="140" x="866.5" y="128.9951">usantatecla.utils</text><!--MD5=[48fa9072fd51d9920e6db8484beec696]
entity java.io--><polygon fill="#FFFFFF" filter="url(#f19t71sxzhvn51)" points="1067.5,113,1127.5,113,1134.5,135.2969,1151.5,135.2969,1151.5,152.2969,1067.5,152.2969,1067.5,113" style="stroke:#000000;stroke-width:1.5;"/><line style="stroke:#000000;stroke-width:1.5;" x1="1067.5" x2="1134.5" y1="135.2969" y2="135.2969"/><text fill="#000000" font-family="sans-serif" font-size="14" font-weight="bold" lengthAdjust="spacingAndGlyphs" textLength="54" x="1071.5" y="128.9951">java.io</text><!--MD5=[034f0f7ed136bf78fc117f7e41f76e93]
entity java.util--><polygon fill="#FFFFFF" filter="url(#f19t71sxzhvn51)" points="1187,113,1260,113,1267,135.2969,1284,135.2969,1284,152.2969,1187,152.2969,1187,113" style="stroke:#000000;stroke-width:1.5;"/><line style="stroke:#000000;stroke-width:1.5;" x1="1187" x2="1267" y1="135.2969" y2="135.2969"/><text fill="#000000" font-family="sans-serif" font-size="14" font-weight="bold" lengthAdjust="spacingAndGlyphs" textLength="67" x="1191" y="128.9951">java.util</text><!--MD5=[c2796faf4134bd8b5f3bc71f44d02e74]
entity jar--><rect fill="#FEFECE" filter="url(#f19t71sxzhvn51)" height="46.2969" style="stroke:#A80036;stroke-width:1.5;" width="130" x="757.5" y="7"/><rect fill="#FEFECE" height="10" style="stroke:#A80036;stroke-width:1.5;" width="15" x="867.5" y="12"/><rect fill="#FEFECE" height="2" style="stroke:#A80036;stroke-width:1.5;" width="4" x="865.5" y="14"/><rect fill="#FEFECE" height="2" style="stroke:#A80036;stroke-width:1.5;" width="4" x="865.5" y="18"/><text fill="#000000" font-family="sans-serif" font-size="14" lengthAdjust="spacingAndGlyphs" textLength="90" x="772.5" y="39.9951">tictactoe.jar</text><!--MD5=[a9fe4fe342d89d0ce2cdef79d4c44adf]
link jar to usantatecla.tictactoe--><path d="M745.3466,41.657 C745.3466,41.657 421.862,86.7225 242.5,113 C241.096,113.2057 239.682,113.4132 238.262,113.6222 " fill="none" id="jar-usantatecla.tictactoe" style="stroke:#A80036;stroke-width:1.0;"/><polygon fill="#A80036" points="225.306,115.5378,234.7946,118.1774,230.2521,114.8059,233.6236,110.2635,225.306,115.5378" style="stroke:#A80036;stroke-width:1.0;"/><line style="stroke:#A80036;stroke-width:1.0;" x1="230.2521" x2="238.166" y1="114.8059" y2="113.6363"/><polygon fill="#A80036" points="757.233,40.01,750.7408,36.8714,745.3466,41.657,751.8388,44.7957,757.233,40.01" style="stroke:#A80036;stroke-width:1.0;"/><!--MD5=[38cef3452a3e8206f67d96a1c7b5c74e]
link jar to usantatecla.tictactoe.models--><path d="M745.6565,49.1278 C745.6565,49.1278 564.37,91.8968 487.983,109.9177 " fill="none" id="jar-usantatecla.tictactoe.models" style="stroke:#A80036;stroke-width:1.0;"/><polygon fill="#A80036" points="475.053,112.9681,484.7311,114.7942,479.9193,111.8198,482.8938,107.008,475.053,112.9681" style="stroke:#A80036;stroke-width:1.0;"/><line style="stroke:#A80036;stroke-width:1.0;" x1="479.9193" x2="487.706" y1="111.8198" y2="109.983"/><polygon fill="#A80036" points="757.336,46.373,750.578,43.8572,745.6565,49.1278,752.4145,51.6436,757.336,46.373" style="stroke:#A80036;stroke-width:1.0;"/><!--MD5=[57eef1ebc25ffbff7001aac32c44d3c3]
link jar to usantatecla.tictactoe.views--><path d="M785.7159,60.5744 C785.7159,60.5744 747.642,91.1859 731.022,104.5483 " fill="none" id="jar-usantatecla.tictactoe.views" style="stroke:#A80036;stroke-width:1.0;"/><polygon fill="#A80036" points="720.674,112.868,730.1945,110.346,724.5707,109.735,725.1817,104.1113,720.674,112.868" style="stroke:#A80036;stroke-width:1.0;"/><line style="stroke:#A80036;stroke-width:1.0;" x1="724.5707" x2="730.806" y1="109.735" y2="104.7223"/><polygon fill="#A80036" points="795.068,53.0552,787.8856,53.6974,785.7159,60.5744,792.8983,59.9322,795.068,53.0552" style="stroke:#A80036;stroke-width:1.0;"/><!--MD5=[8059cd5737844cbfa7541e4ee98eb909]
link jar to usantatecla.utils--><path d="M859.2841,60.5744 C859.2841,60.5744 897.358,91.1859 913.978,104.5483 " fill="none" id="jar-usantatecla.utils" style="stroke:#A80036;stroke-width:1.0;"/><polygon fill="#A80036" points="924.326,112.868,919.8183,104.1113,920.4293,109.735,914.8055,110.346,924.326,112.868" style="stroke:#A80036;stroke-width:1.0;"/><line style="stroke:#A80036;stroke-width:1.0;" x1="920.4293" x2="914.194" y1="109.735" y2="104.7223"/><polygon fill="#A80036" points="849.932,53.0552,852.1017,59.9322,859.2841,60.5744,857.1144,53.6974,849.932,53.0552" style="stroke:#A80036;stroke-width:1.0;"/><!--MD5=[f17a38c250a1605cd3da9b9fac2ef94b]
link jar to java.io--><path d="M896.8085,57.0217 C896.8085,57.0217 1010.282,96.7563 1054.77,112.3358 " fill="none" id="jar-java.io" style="stroke:#A80036;stroke-width:1.0;"/><polygon fill="#A80036" points="1067.08,116.6464,1059.9094,109.8949,1062.3614,114.9927,1057.2635,117.4447,1067.08,116.6464" style="stroke:#A80036;stroke-width:1.0;"/><line style="stroke:#A80036;stroke-width:1.0;" x1="1062.3614" x2="1054.815" y1="114.9927" y2="112.3499"/><polygon fill="#A80036" points="885.483,53.0552,889.8236,58.8136,896.8085,57.0217,892.4679,51.2633,885.483,53.0552" style="stroke:#A80036;stroke-width:1.0;"/><!--MD5=[a929e6d2b54380e4c3e4c2b17ce7cd9b]
link jar to java.util--><path d="M899.313,48.1963 C899.313,48.1963 1077.39,89.2172 1169.5,113 C1171.09,113.41 1172.7,113.8294 1174.32,114.2561 " fill="none" id="jar-java.util" style="stroke:#A80036;stroke-width:1.0;"/><polygon fill="#A80036" points="1186.9,117.6331,1179.2452,111.436,1182.0711,116.3365,1177.1706,119.1623,1186.9,117.6331" style="stroke:#A80036;stroke-width:1.0;"/><line style="stroke:#A80036;stroke-width:1.0;" x1="1182.0711" x2="1174.35" y1="116.3365" y2="114.2639"/><polygon fill="#A80036" points="887.61,45.543,892.5771,50.7706,899.313,48.1963,894.3459,42.9686,887.61,45.543" style="stroke:#A80036;stroke-width:1.0;"/><!--MD5=[049004ab679d3a60a43905b702fdd65e]
@startuml
package "  "  as usantatecla.tictactoe {
}
package "  "  as usantatecla.tictactoe.models {
}
package "  "  as usantatecla.tictactoe.views {
}
package "  "  as usantatecla.utils {
}
package "  "  as java.io {
}
package "  "  as java.util {
}

[tictactoe.jar] as jar

jar *- -> usantatecla.tictactoe
jar *- -> usantatecla.tictactoe.models
jar *- -> usantatecla.tictactoe.views
jar *- -> usantatecla.utils
jar *- -> java.io
jar *- -> java.util
@enduml

PlantUML version 1.2020.21beta7(Unknown compile time)
(GPL source distribution)
Java Runtime: Java(TM) SE Runtime Environment
JVM: Java HotSpot(TM) 64-Bit Server VM
Default Encoding: UTF-8
Language: en
Country: US
--></g></svg>