<?xml version="1.0" encoding="UTF-8" standalone="no"?><svg xmlns="http://www.w3.org/2000/svg" xmlns:xlink="http://www.w3.org/1999/xlink" contentScriptType="application/ecmascript" contentStyleType="text/css" height="936px" preserveAspectRatio="none" style="width:980px;height:936px;" version="1.1" viewBox="0 0 980 936" width="980px" zoomAndPan="magnify"><defs><filter height="300%" id="fpitdtcj84hr6" width="300%" x="-1" y="-1"><feGaussianBlur result="blurOut" stdDeviation="2.0"/><feColorMatrix in="blurOut" result="blurOut2" type="matrix" values="0 0 0 0 0 0 0 0 0 0 0 0 0 0 0 0 0 0 .4 0"/><feOffset dx="4.0" dy="4.0" in="blurOut2" result="blurOut3"/><feBlend in="SourceGraphic" in2="blurOut3" mode="normal"/></filter></defs><g><!--MD5=[908cbfa8709a8ec6ee3beb0409fea32c]
cluster usantatecla.utils--><polygon fill="#FFFFFF" filter="url(#fpitdtcj84hr6)" points="16,6,162,6,169,28.2969,963,28.2969,963,830,16,830,16,6" style="stroke:#000000;stroke-width:1.5;"/><line style="stroke:#000000;stroke-width:1.5;" x1="16" x2="169" y1="28.2969" y2="28.2969"/><text fill="#000000" font-family="sans-serif" font-size="14" font-weight="bold" lengthAdjust="spacingAndGlyphs" textLength="140" x="20" y="20.9951">usantatecla.utils</text><!--MD5=[b0b725b3db639de93c4e5e8714f3aefc]
class usantatecla.utils.models.ClosedInterval--><rect codeLine="3" fill="#FEFECE" filter="url(#fpitdtcj84hr6)" height="112.0234" id="usantatecla.utils.models.ClosedInterval" style="stroke:#A80036;stroke-width:1.5;" width="158" x="36" y="651"/><ellipse cx="69" cy="667" fill="#ADD1B2" rx="11" ry="11" style="stroke:#A80036;stroke-width:1.0;"/><path d="M71.3438,662.6719 C70.4063,662.2344 69.8125,662.0938 68.9375,662.0938 C66.3125,662.0938 64.3125,664.1719 64.3125,666.8906 L64.3125,668.0156 C64.3125,670.5938 66.4219,672.4844 69.3125,672.4844 C70.5313,672.4844 71.6875,672.1875 72.4375,671.6406 C73.0156,671.2344 73.3438,670.7813 73.3438,670.3906 C73.3438,669.9375 72.9531,669.5469 72.4844,669.5469 C72.2656,669.5469 72.0625,669.625 71.875,669.8125 C71.4219,670.2969 71.4219,670.2969 71.2344,670.3906 C70.8125,670.6563 70.125,670.7813 69.3594,670.7813 C67.3125,670.7813 66.0156,669.6875 66.0156,667.9844 L66.0156,666.8906 C66.0156,665.1094 67.2656,663.7969 69,663.7969 C69.5781,663.7969 70.1875,663.9531 70.6563,664.2031 C71.1406,664.4844 71.3125,664.7031 71.4063,665.1094 C71.4688,665.5156 71.5,665.6406 71.6406,665.7656 C71.7813,665.9063 72.0156,666.0156 72.2344,666.0156 C72.5,666.0156 72.7656,665.875 72.9375,665.6563 C73.0469,665.5 73.0781,665.3125 73.0781,664.8906 L73.0781,663.4688 C73.0781,663.0313 73.0625,662.9063 72.9688,662.75 C72.8125,662.4844 72.5313,662.3438 72.2344,662.3438 C71.9375,662.3438 71.7344,662.4375 71.5156,662.75 L71.3438,662.6719 Z " fill="#000000"/><text fill="#000000" font-family="sans-serif" font-size="12" lengthAdjust="spacingAndGlyphs" textLength="86" x="87" y="671.1543">ClosedInterval</text><line style="stroke:#A80036;stroke-width:1.5;" x1="37" x2="193" y1="683" y2="683"/><rect fill="none" height="6" style="stroke:#C82930;stroke-width:1.0;" width="6" x="44" y="691"/><text fill="#000000" font-family="sans-serif" font-size="11" lengthAdjust="spacingAndGlyphs" textLength="42" x="56" y="697.2104">min: int</text><rect fill="none" height="6" style="stroke:#C82930;stroke-width:1.0;" width="6" x="44" y="703.8047"/><text fill="#000000" font-family="sans-serif" font-size="11" lengthAdjust="spacingAndGlyphs" textLength="46" x="56" y="710.0151">max: int</text><line style="stroke:#A80036;stroke-width:1.5;" x1="37" x2="193" y1="716.6094" y2="716.6094"/><ellipse cx="47" cy="727.6094" fill="#84BE84" rx="3" ry="3" style="stroke:#038048;stroke-width:1.0;"/><text fill="#000000" font-family="sans-serif" font-size="11" lengthAdjust="spacingAndGlyphs" textLength="121" x="56" y="730.8198">ClosedInterval(int,int)</text><ellipse cx="47" cy="740.4141" fill="#84BE84" rx="3" ry="3" style="stroke:#038048;stroke-width:1.0;"/><text fill="#000000" font-family="sans-serif" font-size="11" lengthAdjust="spacingAndGlyphs" textLength="132" x="56" y="743.6245">isIncluded(int): boolean</text><ellipse cx="47" cy="753.2188" fill="#84BE84" rx="3" ry="3" style="stroke:#038048;stroke-width:1.0;"/><text fill="#000000" font-family="sans-serif" font-size="11" lengthAdjust="spacingAndGlyphs" textLength="92" x="56" y="756.4292">toString(): String</text><!--MD5=[c2c7894405d0c7b92ed3110a385504d5]
class usantatecla.utils.models.ConcreteCoordinate--><rect codeLine="11" fill="#FEFECE" filter="url(#fpitdtcj84hr6)" height="265.6797" id="usantatecla.utils.models.ConcreteCoordinate" style="stroke:#A80036;stroke-width:1.5;" width="224" x="427" y="274"/><ellipse cx="474.25" cy="290" fill="#ADD1B2" rx="11" ry="11" style="stroke:#A80036;stroke-width:1.0;"/><path d="M476.5938,285.6719 C475.6563,285.2344 475.0625,285.0938 474.1875,285.0938 C471.5625,285.0938 469.5625,287.1719 469.5625,289.8906 L469.5625,291.0156 C469.5625,293.5938 471.6719,295.4844 474.5625,295.4844 C475.7813,295.4844 476.9375,295.1875 477.6875,294.6406 C478.2656,294.2344 478.5938,293.7813 478.5938,293.3906 C478.5938,292.9375 478.2031,292.5469 477.7344,292.5469 C477.5156,292.5469 477.3125,292.625 477.125,292.8125 C476.6719,293.2969 476.6719,293.2969 476.4844,293.3906 C476.0625,293.6563 475.375,293.7813 474.6094,293.7813 C472.5625,293.7813 471.2656,292.6875 471.2656,290.9844 L471.2656,289.8906 C471.2656,288.1094 472.5156,286.7969 474.25,286.7969 C474.8281,286.7969 475.4375,286.9531 475.9063,287.2031 C476.3906,287.4844 476.5625,287.7031 476.6563,288.1094 C476.7188,288.5156 476.75,288.6406 476.8906,288.7656 C477.0313,288.9063 477.2656,289.0156 477.4844,289.0156 C477.75,289.0156 478.0156,288.875 478.1875,288.6563 C478.2969,288.5 478.3281,288.3125 478.3281,287.8906 L478.3281,286.4688 C478.3281,286.0313 478.3125,285.9063 478.2188,285.75 C478.0625,285.4844 477.7813,285.3438 477.4844,285.3438 C477.1875,285.3438 476.9844,285.4375 476.7656,285.75 L476.5938,285.6719 Z " fill="#000000"/><text fill="#000000" font-family="sans-serif" font-size="12" lengthAdjust="spacingAndGlyphs" textLength="121" x="494.75" y="294.1543">ConcreteCoordinate</text><line style="stroke:#A80036;stroke-width:1.5;" x1="428" x2="650" y1="306" y2="306"/><polygon fill="none" points="438,312,442,316,438,320,434,316" style="stroke:#B38D22;stroke-width:1.0;"/><text fill="#000000" font-family="sans-serif" font-size="11" lengthAdjust="spacingAndGlyphs" textLength="41" x="447" y="320.2104">row: int</text><polygon fill="none" points="438,324.8047,442,328.8047,438,332.8047,434,328.8047" style="stroke:#B38D22;stroke-width:1.0;"/><text fill="#000000" font-family="sans-serif" font-size="11" lengthAdjust="spacingAndGlyphs" textLength="62" x="447" y="333.0151">column: int</text><rect fill="none" height="6" style="stroke:#C82930;stroke-width:1.0;" width="6" x="435" y="339.6094"/><text fill="#000000" font-family="sans-serif" font-size="11" lengthAdjust="spacingAndGlyphs" text-decoration="underline" textLength="67" x="447" y="345.8198">ROW: String</text><rect fill="none" height="6" style="stroke:#C82930;stroke-width:1.0;" width="6" x="435" y="352.4141"/><text fill="#000000" font-family="sans-serif" font-size="11" lengthAdjust="spacingAndGlyphs" text-decoration="underline" textLength="88" x="447" y="358.6245">COLUMN: String</text><line style="stroke:#A80036;stroke-width:1.5;" x1="428" x2="650" y1="365.2188" y2="365.2188"/><polygon fill="#FFFF44" points="438,371.2188,442,375.2188,438,379.2188,434,375.2188" style="stroke:#B38D22;stroke-width:1.0;"/><text fill="#000000" font-family="sans-serif" font-size="11" lengthAdjust="spacingAndGlyphs" textLength="122" x="447" y="379.4292">ConcreteCoordinate()</text><polygon fill="#FFFF44" points="438,384.0234,442,388.0234,438,392.0234,434,388.0234" style="stroke:#B38D22;stroke-width:1.0;"/><text fill="#000000" font-family="sans-serif" font-size="11" lengthAdjust="spacingAndGlyphs" textLength="153" x="447" y="392.2339">ConcreteCoordinate(int,int)</text><ellipse cx="438" cy="401.8281" fill="#84BE84" rx="3" ry="3" style="stroke:#038048;stroke-width:1.0;"/><text fill="#000000" font-family="sans-serif" font-size="11" lengthAdjust="spacingAndGlyphs" textLength="91" x="447" y="405.0386">isNull(): boolean</text><ellipse cx="438" cy="414.6328" fill="#84BE84" rx="3" ry="3" style="stroke:#038048;stroke-width:1.0;"/><text fill="#000000" font-family="sans-serif" font-size="11" lengthAdjust="spacingAndGlyphs" textLength="198" x="447" y="417.8433">getDirection(Coordinate): Direction</text><ellipse cx="438" cy="427.4375" fill="#84BE84" rx="3" ry="3" style="stroke:#038048;stroke-width:1.0;"/><text fill="#000000" font-family="sans-serif" font-size="11" lengthAdjust="spacingAndGlyphs" textLength="190" x="447" y="430.6479">inHorizontal(Coordinate): boolean</text><ellipse cx="438" cy="440.2422" fill="#84BE84" rx="3" ry="3" style="stroke:#038048;stroke-width:1.0;"/><text fill="#000000" font-family="sans-serif" font-size="11" lengthAdjust="spacingAndGlyphs" textLength="176" x="447" y="443.4526">inVertical(Coordinate): boolean</text><ellipse cx="438" cy="453.0469" fill="#84BE84" rx="3" ry="3" style="stroke:#038048;stroke-width:1.0;"/><text fill="#000000" font-family="sans-serif" font-size="11" lengthAdjust="spacingAndGlyphs" textLength="147" x="447" y="456.2573">inMainDiagonal(): boolean</text><polygon fill="#FFFF44" points="438,460.8516,442,464.8516,438,468.8516,434,464.8516" style="stroke:#B38D22;stroke-width:1.0;"/><text fill="#000000" font-family="sans-serif" font-size="11" lengthAdjust="spacingAndGlyphs" textLength="67" x="447" y="469.062">read(String)</text><ellipse cx="438" cy="478.6563" fill="#84BE84" rx="3" ry="3" style="stroke:#038048;stroke-width:1.0;"/><text fill="#000000" font-family="sans-serif" font-size="11" lengthAdjust="spacingAndGlyphs" textLength="71" x="447" y="481.8667">getRow(): int</text><ellipse cx="438" cy="491.4609" fill="#84BE84" rx="3" ry="3" style="stroke:#038048;stroke-width:1.0;"/><text fill="#000000" font-family="sans-serif" font-size="11" lengthAdjust="spacingAndGlyphs" textLength="91" x="447" y="494.6714">getColumn(): int</text><ellipse cx="438" cy="504.2656" fill="#84BE84" rx="3" ry="3" style="stroke:#038048;stroke-width:1.0;"/><text fill="#000000" font-family="sans-serif" font-size="11" lengthAdjust="spacingAndGlyphs" textLength="86" x="447" y="507.4761">hashCode(): int</text><ellipse cx="438" cy="517.0703" fill="#84BE84" rx="3" ry="3" style="stroke:#038048;stroke-width:1.0;"/><text fill="#000000" font-family="sans-serif" font-size="11" lengthAdjust="spacingAndGlyphs" textLength="136" x="447" y="520.2808">equals(Object): boolean</text><ellipse cx="438" cy="529.875" fill="#84BE84" rx="3" ry="3" style="stroke:#038048;stroke-width:1.0;"/><text fill="#000000" font-family="sans-serif" font-size="11" lengthAdjust="spacingAndGlyphs" textLength="92" x="447" y="533.0854">toString(): String</text><!--MD5=[5f018ac69b30f51f68cd34c581e50301]
class usantatecla.utils.models.Coordinate--><rect codeLine="53" fill="#FEFECE" filter="url(#fpitdtcj84hr6)" height="112.0234" id="usantatecla.utils.models.Coordinate" style="stroke:#A80036;stroke-width:1.5;" width="224" x="575" y="41"/><ellipse cx="650.25" cy="57" fill="#B4A7E5" rx="11" ry="11" style="stroke:#A80036;stroke-width:1.0;"/><path d="M651.2031,53.7813 L652.9219,53.7813 C653.3125,53.7813 653.5,53.75 653.625,53.6719 C653.8906,53.5156 654.0313,53.2344 654.0313,52.9375 C654.0313,52.6719 653.9219,52.4063 653.6875,52.2344 C653.5156,52.125 653.375,52.0938 652.9219,52.0938 L647.7813,52.0938 C647.3438,52.0938 647.2188,52.1094 647.0625,52.2031 C646.8125,52.3594 646.6563,52.6563 646.6563,52.9375 C646.6563,53.2188 646.7969,53.4688 647.0156,53.6406 C647.1719,53.75 647.3594,53.7813 647.7813,53.7813 L649.5,53.7813 L649.5,60.2969 L647.7813,60.2969 C647.3438,60.2969 647.2188,60.3125 647.0625,60.4219 C646.8125,60.5781 646.6563,60.8594 646.6563,61.1563 C646.6563,61.4063 646.7969,61.6719 647.0156,61.8281 C647.1719,61.9531 647.375,62 647.7813,62 L652.9219,62 C653.6719,62 654.0313,61.7188 654.0313,61.1563 C654.0313,60.875 653.9219,60.625 653.6875,60.4531 C653.5156,60.3281 653.375,60.2969 652.9219,60.2969 L651.2031,60.2969 L651.2031,53.7813 Z " fill="#000000"/><text fill="#000000" font-family="sans-serif" font-size="12" font-style="italic" lengthAdjust="spacingAndGlyphs" textLength="65" x="670.75" y="61.1543">Coordinate</text><line style="stroke:#A80036;stroke-width:1.5;" x1="576" x2="798" y1="73" y2="73"/><line style="stroke:#A80036;stroke-width:1.5;" x1="576" x2="798" y1="81" y2="81"/><polygon fill="#4177AF" points="586,88,582,94,590,94" style="stroke:#1963A0;stroke-width:1.0;"/><text fill="#000000" font-family="sans-serif" font-size="11" lengthAdjust="spacingAndGlyphs" textLength="91" x="595" y="95.2104">isNull(): boolean</text><polygon fill="#4177AF" points="586,100.8047,582,106.8047,590,106.8047" style="stroke:#1963A0;stroke-width:1.0;"/><text fill="#000000" font-family="sans-serif" font-size="11" lengthAdjust="spacingAndGlyphs" textLength="198" x="595" y="108.0151">getDirection(Coordinate): Direction</text><polygon fill="#4177AF" points="586,113.6094,582,119.6094,590,119.6094" style="stroke:#1963A0;stroke-width:1.0;"/><text fill="#000000" font-family="sans-serif" font-size="11" lengthAdjust="spacingAndGlyphs" textLength="190" x="595" y="120.8198">inHorizontal(Coordinate): boolean</text><polygon fill="#4177AF" points="586,126.4141,582,132.4141,590,132.4141" style="stroke:#1963A0;stroke-width:1.0;"/><text fill="#000000" font-family="sans-serif" font-size="11" lengthAdjust="spacingAndGlyphs" textLength="176" x="595" y="133.6245">inVertical(Coordinate): boolean</text><polygon fill="#4177AF" points="586,139.2188,582,145.2188,590,145.2188" style="stroke:#1963A0;stroke-width:1.0;"/><text fill="#000000" font-family="sans-serif" font-size="11" lengthAdjust="spacingAndGlyphs" textLength="147" x="595" y="146.4292">inMainDiagonal(): boolean</text><!--MD5=[fa47e12b1ade8e81943ba4775d45235c]
class usantatecla.utils.models.Direction--><rect codeLine="62" fill="#FEFECE" filter="url(#fpitdtcj84hr6)" height="112.0234" id="usantatecla.utils.models.Direction" style="stroke:#A80036;stroke-width:1.5;" width="126" x="624" y="651"/><ellipse cx="657" cy="667" fill="#EB937F" rx="11" ry="11" style="stroke:#A80036;stroke-width:1.0;"/><path d="M655.7969,667.875 L657.25,667.875 L657.25,667.9844 C657.25,668.3906 657.2813,668.5469 657.3594,668.7031 C657.5156,668.9531 657.7969,669.1094 658.0938,669.1094 C658.3438,669.1094 658.6094,668.9688 658.7656,668.75 C658.8906,668.5938 658.9219,668.4375 658.9219,667.9844 L658.9219,666.0625 C658.9219,665.9063 658.9219,665.8594 658.9063,665.7031 C658.8438,665.2344 658.5313,664.9219 658.0781,664.9219 C657.8281,664.9219 657.5625,665.0625 657.3906,665.2813 C657.2813,665.4531 657.25,665.6094 657.25,666.0625 L657.25,666.1875 L655.7969,666.1875 L655.7969,663.7813 L659.7813,663.7813 L659.7813,664.6406 C659.7813,665.0469 659.8125,665.2188 659.8906,665.375 C660.0625,665.625 660.3438,665.7813 660.625,665.7813 C660.8906,665.7813 661.1563,665.6406 661.3281,665.4219 C661.4375,665.25 661.4688,665.1094 661.4688,664.6406 L661.4688,662.0938 L653.8438,662.0938 C653.4063,662.0938 653.2813,662.1094 653.125,662.2031 C652.875,662.3594 652.7188,662.6563 652.7188,662.9375 C652.7188,663.2188 652.8594,663.4688 653.0781,663.6406 C653.2344,663.75 653.4219,663.7813 653.8438,663.7813 L654.0938,663.7813 L654.0938,670.2969 L653.8438,670.2969 C653.4375,670.2969 653.2813,670.3125 653.125,670.4219 C652.875,670.5938 652.7188,670.8594 652.7188,671.1563 C652.7188,671.4219 652.8594,671.6719 653.0781,671.8281 C653.2188,671.9531 653.4531,672 653.8438,672 L661.8438,672 L661.8438,669.4219 C661.8438,668.9844 661.8125,668.8438 661.7344,668.6875 C661.5625,668.4375 661.2813,668.2813 661,668.2813 C660.7344,668.2813 660.4688,668.3906 660.2969,668.6406 C660.1875,668.7969 660.1563,668.9375 660.1563,669.4219 L660.1563,670.2969 L655.7969,670.2969 L655.7969,667.875 Z " fill="#000000"/><text fill="#000000" font-family="sans-serif" font-size="12" lengthAdjust="spacingAndGlyphs" textLength="54" x="675" y="671.1543">Direction</text><line style="stroke:#A80036;stroke-width:1.5;" x1="625" x2="749" y1="683" y2="683"/><text fill="#000000" font-family="sans-serif" font-size="11" lengthAdjust="spacingAndGlyphs" textLength="54" x="630" y="697.2104">VERTICAL</text><text fill="#000000" font-family="sans-serif" font-size="11" lengthAdjust="spacingAndGlyphs" textLength="73" x="630" y="710.0151">HORIZONTAL</text><text fill="#000000" font-family="sans-serif" font-size="11" lengthAdjust="spacingAndGlyphs" textLength="94" x="630" y="722.8198">MAIN_DIAGONAL</text><text fill="#000000" font-family="sans-serif" font-size="11" lengthAdjust="spacingAndGlyphs" textLength="114" x="630" y="735.6245">INVERSE_DIAGONAL</text><text fill="#000000" font-family="sans-serif" font-size="11" lengthAdjust="spacingAndGlyphs" textLength="28" x="630" y="748.4292">NULL</text><line style="stroke:#A80036;stroke-width:1.5;" x1="625" x2="749" y1="755.0234" y2="755.0234"/><!--MD5=[5a5a2ad444bc00c1498d76ebf80a1dc4]
class usantatecla.utils.views.Console--><rect codeLine="36" fill="#FEFECE" filter="url(#fpitdtcj84hr6)" height="214.4609" id="usantatecla.utils.views.Console" style="stroke:#A80036;stroke-width:1.5;" width="166" x="229" y="600"/><ellipse cx="283.25" cy="616" fill="#ADD1B2" rx="11" ry="11" style="stroke:#A80036;stroke-width:1.0;"/><path d="M285.5938,611.6719 C284.6563,611.2344 284.0625,611.0938 283.1875,611.0938 C280.5625,611.0938 278.5625,613.1719 278.5625,615.8906 L278.5625,617.0156 C278.5625,619.5938 280.6719,621.4844 283.5625,621.4844 C284.7813,621.4844 285.9375,621.1875 286.6875,620.6406 C287.2656,620.2344 287.5938,619.7813 287.5938,619.3906 C287.5938,618.9375 287.2031,618.5469 286.7344,618.5469 C286.5156,618.5469 286.3125,618.625 286.125,618.8125 C285.6719,619.2969 285.6719,619.2969 285.4844,619.3906 C285.0625,619.6563 284.375,619.7813 283.6094,619.7813 C281.5625,619.7813 280.2656,618.6875 280.2656,616.9844 L280.2656,615.8906 C280.2656,614.1094 281.5156,612.7969 283.25,612.7969 C283.8281,612.7969 284.4375,612.9531 284.9063,613.2031 C285.3906,613.4844 285.5625,613.7031 285.6563,614.1094 C285.7188,614.5156 285.75,614.6406 285.8906,614.7656 C286.0313,614.9063 286.2656,615.0156 286.4844,615.0156 C286.75,615.0156 287.0156,614.875 287.1875,614.6563 C287.2969,614.5 287.3281,614.3125 287.3281,613.8906 L287.3281,612.4688 C287.3281,612.0313 287.3125,611.9063 287.2188,611.75 C287.0625,611.4844 286.7813,611.3438 286.4844,611.3438 C286.1875,611.3438 285.9844,611.4375 285.7656,611.75 L285.5938,611.6719 Z " fill="#000000"/><text fill="#000000" font-family="sans-serif" font-size="12" lengthAdjust="spacingAndGlyphs" textLength="49" x="303.75" y="620.1543">Console</text><line style="stroke:#A80036;stroke-width:1.5;" x1="230" x2="394" y1="632" y2="632"/><rect fill="none" height="6" style="stroke:#C82930;stroke-width:1.0;" width="6" x="237" y="640"/><text fill="#000000" font-family="sans-serif" font-size="11" lengthAdjust="spacingAndGlyphs" text-decoration="underline" textLength="97" x="249" y="646.2104">console: Console</text><line style="stroke:#A80036;stroke-width:1.5;" x1="230" x2="394" y1="652.8047" y2="652.8047"/><ellipse cx="240" cy="663.8047" fill="#84BE84" rx="3" ry="3" style="stroke:#038048;stroke-width:1.0;"/><text fill="#000000" font-family="sans-serif" font-size="11" lengthAdjust="spacingAndGlyphs" text-decoration="underline" textLength="109" x="249" y="667.0151">instance(): Console</text><rect fill="#F24D5C" height="6" style="stroke:#C82930;stroke-width:1.0;" width="6" x="237" y="673.6094"/><text fill="#000000" font-family="sans-serif" font-size="11" lengthAdjust="spacingAndGlyphs" textLength="140" x="249" y="679.8198">readString(String): String</text><ellipse cx="240" cy="689.4141" fill="#84BE84" rx="3" ry="3" style="stroke:#038048;stroke-width:1.0;"/><text fill="#000000" font-family="sans-serif" font-size="11" lengthAdjust="spacingAndGlyphs" textLength="107" x="249" y="692.6245">readString(): String</text><ellipse cx="240" cy="702.2188" fill="#84BE84" rx="3" ry="3" style="stroke:#038048;stroke-width:1.0;"/><text fill="#000000" font-family="sans-serif" font-size="11" lengthAdjust="spacingAndGlyphs" textLength="102" x="249" y="705.4292">readInt(String): int</text><polygon fill="#4177AF" points="240,711.0234,236,717.0234,244,717.0234" style="stroke:#1963A0;stroke-width:1.0;"/><text fill="#000000" font-family="sans-serif" font-size="11" lengthAdjust="spacingAndGlyphs" textLength="124" x="249" y="718.2339">readChar(String): char</text><ellipse cx="240" cy="727.8281" fill="#84BE84" rx="3" ry="3" style="stroke:#038048;stroke-width:1.0;"/><text fill="#000000" font-family="sans-serif" font-size="11" lengthAdjust="spacingAndGlyphs" textLength="46" x="249" y="731.0386">writeln()</text><ellipse cx="240" cy="740.6328" fill="#84BE84" rx="3" ry="3" style="stroke:#038048;stroke-width:1.0;"/><text fill="#000000" font-family="sans-serif" font-size="11" lengthAdjust="spacingAndGlyphs" textLength="69" x="249" y="743.8433">write(String)</text><ellipse cx="240" cy="753.4375" fill="#84BE84" rx="3" ry="3" style="stroke:#038048;stroke-width:1.0;"/><text fill="#000000" font-family="sans-serif" font-size="11" lengthAdjust="spacingAndGlyphs" textLength="50" x="249" y="756.6479">write(int)</text><ellipse cx="240" cy="766.2422" fill="#84BE84" rx="3" ry="3" style="stroke:#038048;stroke-width:1.0;"/><text fill="#000000" font-family="sans-serif" font-size="11" lengthAdjust="spacingAndGlyphs" textLength="79" x="249" y="769.4526">writeln(String)</text><ellipse cx="240" cy="779.0469" fill="#84BE84" rx="3" ry="3" style="stroke:#038048;stroke-width:1.0;"/><text fill="#000000" font-family="sans-serif" font-size="11" lengthAdjust="spacingAndGlyphs" textLength="60" x="249" y="782.2573">writeln(int)</text><ellipse cx="240" cy="791.8516" fill="#84BE84" rx="3" ry="3" style="stroke:#038048;stroke-width:1.0;"/><text fill="#000000" font-family="sans-serif" font-size="11" lengthAdjust="spacingAndGlyphs" textLength="60" x="249" y="795.062">write(char)</text><rect fill="#F24D5C" height="6" style="stroke:#C82930;stroke-width:1.0;" width="6" x="237" y="801.6563"/><text fill="#000000" font-family="sans-serif" font-size="11" lengthAdjust="spacingAndGlyphs" textLength="95" x="249" y="807.8667">writeError(String)</text><!--MD5=[3415149f6924cb72405a86d2dbe048ff]
class usantatecla.utils.LimitedIntDialog--><rect codeLine="70" fill="#FEFECE" filter="url(#fpitdtcj84hr6)" height="99.2188" id="usantatecla.utils.LimitedIntDialog" style="stroke:#A80036;stroke-width:1.5;" width="165" x="32.5" y="357.5"/><ellipse cx="64.6" cy="373.5" fill="#ADD1B2" rx="11" ry="11" style="stroke:#A80036;stroke-width:1.0;"/><path d="M66.9438,369.1719 C66.0063,368.7344 65.4125,368.5938 64.5375,368.5938 C61.9125,368.5938 59.9125,370.6719 59.9125,373.3906 L59.9125,374.5156 C59.9125,377.0938 62.0219,378.9844 64.9125,378.9844 C66.1313,378.9844 67.2875,378.6875 68.0375,378.1406 C68.6156,377.7344 68.9438,377.2813 68.9438,376.8906 C68.9438,376.4375 68.5531,376.0469 68.0844,376.0469 C67.8656,376.0469 67.6625,376.125 67.475,376.3125 C67.0219,376.7969 67.0219,376.7969 66.8344,376.8906 C66.4125,377.1563 65.725,377.2813 64.9594,377.2813 C62.9125,377.2813 61.6156,376.1875 61.6156,374.4844 L61.6156,373.3906 C61.6156,371.6094 62.8656,370.2969 64.6,370.2969 C65.1781,370.2969 65.7875,370.4531 66.2563,370.7031 C66.7406,370.9844 66.9125,371.2031 67.0063,371.6094 C67.0688,372.0156 67.1,372.1406 67.2406,372.2656 C67.3813,372.4063 67.6156,372.5156 67.8344,372.5156 C68.1,372.5156 68.3656,372.375 68.5375,372.1563 C68.6469,372 68.6781,371.8125 68.6781,371.3906 L68.6781,369.9688 C68.6781,369.5313 68.6625,369.4063 68.5688,369.25 C68.4125,368.9844 68.1313,368.8438 67.8344,368.8438 C67.5375,368.8438 67.3344,368.9375 67.1156,369.25 L66.9438,369.1719 Z " fill="#000000"/><text fill="#000000" font-family="sans-serif" font-size="12" lengthAdjust="spacingAndGlyphs" textLength="95" x="82.4" y="377.6543">LimitedIntDialog</text><line style="stroke:#A80036;stroke-width:1.5;" x1="33.5" x2="196.5" y1="389.5" y2="389.5"/><rect fill="none" height="6" style="stroke:#C82930;stroke-width:1.0;" width="6" x="40.5" y="397.5"/><text fill="#000000" font-family="sans-serif" font-size="11" lengthAdjust="spacingAndGlyphs" textLength="125" x="52.5" y="403.7104">LIMITS: ClosedInterval</text><rect fill="none" height="6" style="stroke:#C82930;stroke-width:1.0;" width="6" x="40.5" y="410.3047"/><text fill="#000000" font-family="sans-serif" font-size="11" lengthAdjust="spacingAndGlyphs" text-decoration="underline" textLength="139" x="52.5" y="416.5151">ERROR_MESSAGE: String</text><line style="stroke:#A80036;stroke-width:1.5;" x1="33.5" x2="196.5" y1="423.1094" y2="423.1094"/><ellipse cx="43.5" cy="434.1094" fill="#84BE84" rx="3" ry="3" style="stroke:#038048;stroke-width:1.0;"/><text fill="#000000" font-family="sans-serif" font-size="11" lengthAdjust="spacingAndGlyphs" textLength="131" x="52.5" y="437.3198">LimitedIntDialog(int,int)</text><ellipse cx="43.5" cy="446.9141" fill="#84BE84" rx="3" ry="3" style="stroke:#038048;stroke-width:1.0;"/><text fill="#000000" font-family="sans-serif" font-size="11" lengthAdjust="spacingAndGlyphs" textLength="88" x="52.5" y="450.1245">read(String): int</text><!--MD5=[d5f17ae0f97d6def496fbead5961f960]
class usantatecla.utils.models.NullCoordinate--><rect codeLine="80" fill="#FEFECE" filter="url(#fpitdtcj84hr6)" height="176.0469" id="usantatecla.utils.models.NullCoordinate" style="stroke:#A80036;stroke-width:1.5;" width="224" x="723" y="319"/><ellipse cx="787.25" cy="335" fill="#ADD1B2" rx="11" ry="11" style="stroke:#A80036;stroke-width:1.0;"/><path d="M789.5938,330.6719 C788.6563,330.2344 788.0625,330.0938 787.1875,330.0938 C784.5625,330.0938 782.5625,332.1719 782.5625,334.8906 L782.5625,336.0156 C782.5625,338.5938 784.6719,340.4844 787.5625,340.4844 C788.7813,340.4844 789.9375,340.1875 790.6875,339.6406 C791.2656,339.2344 791.5938,338.7813 791.5938,338.3906 C791.5938,337.9375 791.2031,337.5469 790.7344,337.5469 C790.5156,337.5469 790.3125,337.625 790.125,337.8125 C789.6719,338.2969 789.6719,338.2969 789.4844,338.3906 C789.0625,338.6563 788.375,338.7813 787.6094,338.7813 C785.5625,338.7813 784.2656,337.6875 784.2656,335.9844 L784.2656,334.8906 C784.2656,333.1094 785.5156,331.7969 787.25,331.7969 C787.8281,331.7969 788.4375,331.9531 788.9063,332.2031 C789.3906,332.4844 789.5625,332.7031 789.6563,333.1094 C789.7188,333.5156 789.75,333.6406 789.8906,333.7656 C790.0313,333.9063 790.2656,334.0156 790.4844,334.0156 C790.75,334.0156 791.0156,333.875 791.1875,333.6563 C791.2969,333.5 791.3281,333.3125 791.3281,332.8906 L791.3281,331.4688 C791.3281,331.0313 791.3125,330.9063 791.2188,330.75 C791.0625,330.4844 790.7813,330.3438 790.4844,330.3438 C790.1875,330.3438 789.9844,330.4375 789.7656,330.75 L789.5938,330.6719 Z " fill="#000000"/><text fill="#000000" font-family="sans-serif" font-size="12" lengthAdjust="spacingAndGlyphs" textLength="87" x="807.75" y="339.1543">NullCoordinate</text><line style="stroke:#A80036;stroke-width:1.5;" x1="724" x2="946" y1="351" y2="351"/><rect fill="none" height="6" style="stroke:#C82930;stroke-width:1.0;" width="6" x="731" y="359"/><text fill="#000000" font-family="sans-serif" font-size="11" lengthAdjust="spacingAndGlyphs" text-decoration="underline" textLength="138" x="743" y="365.2104">instance: NullCoordinate</text><line style="stroke:#A80036;stroke-width:1.5;" x1="724" x2="946" y1="371.8047" y2="371.8047"/><ellipse cx="734" cy="382.8047" fill="#84BE84" rx="3" ry="3" style="stroke:#038048;stroke-width:1.0;"/><text fill="#000000" font-family="sans-serif" font-size="11" lengthAdjust="spacingAndGlyphs" text-decoration="underline" textLength="125" x="743" y="386.0151">instance(): Coordinate</text><ellipse cx="734" cy="395.6094" fill="#84BE84" rx="3" ry="3" style="stroke:#038048;stroke-width:1.0;"/><text fill="#000000" font-family="sans-serif" font-size="11" lengthAdjust="spacingAndGlyphs" textLength="91" x="743" y="398.8198">isNull(): boolean</text><ellipse cx="734" cy="408.4141" fill="#84BE84" rx="3" ry="3" style="stroke:#038048;stroke-width:1.0;"/><text fill="#000000" font-family="sans-serif" font-size="11" lengthAdjust="spacingAndGlyphs" textLength="198" x="743" y="411.6245">getDirection(Coordinate): Direction</text><ellipse cx="734" cy="421.2188" fill="#84BE84" rx="3" ry="3" style="stroke:#038048;stroke-width:1.0;"/><text fill="#000000" font-family="sans-serif" font-size="11" lengthAdjust="spacingAndGlyphs" textLength="190" x="743" y="424.4292">inHorizontal(Coordinate): boolean</text><ellipse cx="734" cy="434.0234" fill="#84BE84" rx="3" ry="3" style="stroke:#038048;stroke-width:1.0;"/><text fill="#000000" font-family="sans-serif" font-size="11" lengthAdjust="spacingAndGlyphs" textLength="176" x="743" y="437.2339">inVertical(Coordinate): boolean</text><ellipse cx="734" cy="446.8281" fill="#84BE84" rx="3" ry="3" style="stroke:#038048;stroke-width:1.0;"/><text fill="#000000" font-family="sans-serif" font-size="11" lengthAdjust="spacingAndGlyphs" textLength="147" x="743" y="450.0386">inMainDiagonal(): boolean</text><ellipse cx="734" cy="459.6328" fill="#84BE84" rx="3" ry="3" style="stroke:#038048;stroke-width:1.0;"/><text fill="#000000" font-family="sans-serif" font-size="11" lengthAdjust="spacingAndGlyphs" textLength="86" x="743" y="462.8433">hashCode(): int</text><ellipse cx="734" cy="472.4375" fill="#84BE84" rx="3" ry="3" style="stroke:#038048;stroke-width:1.0;"/><text fill="#000000" font-family="sans-serif" font-size="11" lengthAdjust="spacingAndGlyphs" textLength="136" x="743" y="475.6479">equals(Object): boolean</text><ellipse cx="734" cy="485.2422" fill="#84BE84" rx="3" ry="3" style="stroke:#038048;stroke-width:1.0;"/><text fill="#000000" font-family="sans-serif" font-size="11" lengthAdjust="spacingAndGlyphs" textLength="92" x="743" y="488.4526">toString(): String</text><!--MD5=[115031fed92a4467bd358dd9ee6729dd]
class usantatecla.utils.views.YesNoDialog--><rect codeLine="95" fill="#FEFECE" filter="url(#fpitdtcj84hr6)" height="163.2422" id="usantatecla.utils.views.YesNoDialog" style="stroke:#A80036;stroke-width:1.5;" width="159" x="232.5" y="325.5"/><ellipse cx="270.45" cy="341.5" fill="#ADD1B2" rx="11" ry="11" style="stroke:#A80036;stroke-width:1.0;"/><path d="M272.7938,337.1719 C271.8563,336.7344 271.2625,336.5938 270.3875,336.5938 C267.7625,336.5938 265.7625,338.6719 265.7625,341.3906 L265.7625,342.5156 C265.7625,345.0938 267.8719,346.9844 270.7625,346.9844 C271.9813,346.9844 273.1375,346.6875 273.8875,346.1406 C274.4656,345.7344 274.7938,345.2813 274.7938,344.8906 C274.7938,344.4375 274.4031,344.0469 273.9344,344.0469 C273.7156,344.0469 273.5125,344.125 273.325,344.3125 C272.8719,344.7969 272.8719,344.7969 272.6844,344.8906 C272.2625,345.1563 271.575,345.2813 270.8094,345.2813 C268.7625,345.2813 267.4656,344.1875 267.4656,342.4844 L267.4656,341.3906 C267.4656,339.6094 268.7156,338.2969 270.45,338.2969 C271.0281,338.2969 271.6375,338.4531 272.1063,338.7031 C272.5906,338.9844 272.7625,339.2031 272.8563,339.6094 C272.9188,340.0156 272.95,340.1406 273.0906,340.2656 C273.2313,340.4063 273.4656,340.5156 273.6844,340.5156 C273.95,340.5156 274.2156,340.375 274.3875,340.1563 C274.4969,340 274.5281,339.8125 274.5281,339.3906 L274.5281,337.9688 C274.5281,337.5313 274.5125,337.4063 274.4188,337.25 C274.2625,336.9844 273.9813,336.8438 273.6844,336.8438 C273.3875,336.8438 273.1844,336.9375 272.9656,337.25 L272.7938,337.1719 Z " fill="#000000"/><text fill="#000000" font-family="sans-serif" font-size="12" lengthAdjust="spacingAndGlyphs" textLength="76" x="289.55" y="345.6543">YesNoDialog</text><line style="stroke:#A80036;stroke-width:1.5;" x1="233.5" x2="390.5" y1="357.5" y2="357.5"/><rect fill="none" height="6" style="stroke:#C82930;stroke-width:1.0;" width="6" x="240.5" y="365.5"/><text fill="#000000" font-family="sans-serif" font-size="11" lengthAdjust="spacingAndGlyphs" text-decoration="underline" textLength="97" x="252.5" y="371.7104">AFIRMATIVE: char</text><rect fill="none" height="6" style="stroke:#C82930;stroke-width:1.0;" width="6" x="240.5" y="378.3047"/><text fill="#000000" font-family="sans-serif" font-size="11" lengthAdjust="spacingAndGlyphs" text-decoration="underline" textLength="88" x="252.5" y="384.5151">NEGATIVE: char</text><rect fill="none" height="6" style="stroke:#C82930;stroke-width:1.0;" width="6" x="240.5" y="391.1094"/><text fill="#000000" font-family="sans-serif" font-size="11" lengthAdjust="spacingAndGlyphs" text-decoration="underline" textLength="79" x="252.5" y="397.3198">SUFFIX: String</text><rect fill="none" height="6" style="stroke:#C82930;stroke-width:1.0;" width="6" x="240.5" y="403.9141"/><text fill="#000000" font-family="sans-serif" font-size="11" lengthAdjust="spacingAndGlyphs" text-decoration="underline" textLength="96" x="252.5" y="410.1245">MESSAGE: String</text><rect fill="none" height="6" style="stroke:#C82930;stroke-width:1.0;" width="6" x="240.5" y="416.7188"/><text fill="#000000" font-family="sans-serif" font-size="11" lengthAdjust="spacingAndGlyphs" textLength="72" x="252.5" y="422.9292">answer: char</text><line style="stroke:#A80036;stroke-width:1.5;" x1="233.5" x2="390.5" y1="429.5234" y2="429.5234"/><ellipse cx="243.5" cy="440.5234" fill="#84BE84" rx="3" ry="3" style="stroke:#038048;stroke-width:1.0;"/><text fill="#000000" font-family="sans-serif" font-size="11" lengthAdjust="spacingAndGlyphs" textLength="120" x="252.5" y="443.7339">read(String): boolean</text><rect fill="#F24D5C" height="6" style="stroke:#C82930;stroke-width:1.0;" width="6" x="240.5" y="450.3281"/><text fill="#000000" font-family="sans-serif" font-size="11" lengthAdjust="spacingAndGlyphs" textLength="133" x="252.5" y="456.5386">isAffirmative(): boolean</text><rect fill="#F24D5C" height="6" style="stroke:#C82930;stroke-width:1.0;" width="6" x="240.5" y="463.1328"/><text fill="#000000" font-family="sans-serif" font-size="11" lengthAdjust="spacingAndGlyphs" textLength="100" x="252.5" y="469.3433">getAnswer(): char</text><rect fill="#F24D5C" height="6" style="stroke:#C82930;stroke-width:1.0;" width="6" x="240.5" y="475.9375"/><text fill="#000000" font-family="sans-serif" font-size="11" lengthAdjust="spacingAndGlyphs" textLength="122" x="252.5" y="482.1479">isNegative(): boolean</text><!--MD5=[ee4f8f5c2b5eaa5df2ba8c0614cd4e83]
class BufferedReader--><rect codeLine="1" fill="#FEFECE" filter="url(#fpitdtcj84hr6)" height="48" id="BufferedReader" style="stroke:#A80036;stroke-width:1.5;" width="168" x="228" y="874"/><ellipse cx="243" cy="890" fill="#ADD1B2" rx="11" ry="11" style="stroke:#A80036;stroke-width:1.0;"/><path d="M245.3438,885.6719 C244.4063,885.2344 243.8125,885.0938 242.9375,885.0938 C240.3125,885.0938 238.3125,887.1719 238.3125,889.8906 L238.3125,891.0156 C238.3125,893.5938 240.4219,895.4844 243.3125,895.4844 C244.5313,895.4844 245.6875,895.1875 246.4375,894.6406 C247.0156,894.2344 247.3438,893.7813 247.3438,893.3906 C247.3438,892.9375 246.9531,892.5469 246.4844,892.5469 C246.2656,892.5469 246.0625,892.625 245.875,892.8125 C245.4219,893.2969 245.4219,893.2969 245.2344,893.3906 C244.8125,893.6563 244.125,893.7813 243.3594,893.7813 C241.3125,893.7813 240.0156,892.6875 240.0156,890.9844 L240.0156,889.8906 C240.0156,888.1094 241.2656,886.7969 243,886.7969 C243.5781,886.7969 244.1875,886.9531 244.6563,887.2031 C245.1406,887.4844 245.3125,887.7031 245.4063,888.1094 C245.4688,888.5156 245.5,888.6406 245.6406,888.7656 C245.7813,888.9063 246.0156,889.0156 246.2344,889.0156 C246.5,889.0156 246.7656,888.875 246.9375,888.6563 C247.0469,888.5 247.0781,888.3125 247.0781,887.8906 L247.0781,886.4688 C247.0781,886.0313 247.0625,885.9063 246.9688,885.75 C246.8125,885.4844 246.5313,885.3438 246.2344,885.3438 C245.9375,885.3438 245.7344,885.4375 245.5156,885.75 L245.3438,885.6719 Z " fill="#000000"/><text fill="#000000" font-family="sans-serif" font-size="12" lengthAdjust="spacingAndGlyphs" textLength="136" x="257" y="894.1543">java.io.BufferedReader</text><line style="stroke:#A80036;stroke-width:1.5;" x1="229" x2="395" y1="906" y2="906"/><line style="stroke:#A80036;stroke-width:1.5;" x1="229" x2="395" y1="914" y2="914"/><!--MD5=[ca73a4fbcee54775298381742925c483]
reverse link usantatecla.utils.models.Coordinate to usantatecla.utils.models.ConcreteCoordinate--><path codeLine="31" d="M651.745,171.368 C636.971,202.114 619.328,238.831 602.435,273.988 " fill="none" id="usantatecla.utils.models.Coordinate-backto-usantatecla.utils.models.ConcreteCoordinate" style="stroke:#A80036;stroke-width:1.0;stroke-dasharray:7.0,7.0;"/><polygon fill="none" points="645.569,168.059,660.541,153.064,658.188,174.123,645.569,168.059" style="stroke:#A80036;stroke-width:1.0;"/><!--MD5=[2ac6cf39138a65766cc943772f2871d0]
link usantatecla.utils.models.ConcreteCoordinate to usantatecla.utils.models.Direction--><path codeLine="32" d="M604.561,540.009 C622.909,576.953 641.959,615.309 657.118,645.832 " fill="none" id="usantatecla.utils.ConcreteCoordinate-to-usantatecla.utils.models.Direction" style="stroke:#A80036;stroke-width:1.0;stroke-dasharray:7.0,7.0;"/><polygon fill="#A80036" points="659.517,650.662,659.0962,640.8221,657.2929,646.1839,651.9312,644.3806,659.517,650.662" style="stroke:#A80036;stroke-width:1.0;"/><!--MD5=[0002b1cbccdb92ae6e9caff73706633c]
link usantatecla.utils.models.ConcreteCoordinate to usantatecla.utils.views.Console--><path codeLine="33" d="M438.443,540.009 C424.331,558.535 409.948,577.416 396.183,595.487 " fill="none" id="usantatecla.utils.ConcreteCoordinate-to-usantatecla.utils.views.Console" style="stroke:#A80036;stroke-width:1.0;stroke-dasharray:7.0,7.0;"/><polygon fill="#A80036" points="393.071,599.572,401.707,594.837,396.1011,595.5947,395.3434,589.9889,393.071,599.572" style="stroke:#A80036;stroke-width:1.0;"/><!--MD5=[14426ff67e875e6661b88179367ed759]
link usantatecla.utils.views.Console to BufferedReader--><path codeLine="51" d="M312,826.102 C312,826.102 312,850.6664 312,860.6942 " fill="none" id="usantatecla.utils.Console-BufferedReader" style="stroke:#A80036;stroke-width:1.0;"/><polygon fill="#A80036" points="312,873.8278,316,864.8278,312,868.8278,308,864.8278,312,873.8278" style="stroke:#A80036;stroke-width:1.0;"/><line style="stroke:#A80036;stroke-width:1.0;" x1="312" x2="312" y1="868.8278" y2="860.8279"/><polygon fill="#A80036" points="312,814.102,308,820.102,312,826.102,316,820.102,312,814.102" style="stroke:#A80036;stroke-width:1.0;"/><!--MD5=[a8ffb3790df5680269bc6d65de93cdf4]
link usantatecla.utils.models.Coordinate to usantatecla.utils.models.Direction--><path codeLine="60" d="M687,153.028 C687,266.801 687,527.148 687,645.476 " fill="none" id="usantatecla.utils.models.Coordinate-to-usantatecla.utils.models.Direction" style="stroke:#A80036;stroke-width:1.0;stroke-dasharray:7.0,7.0;"/><polygon fill="#A80036" points="687,650.658,691,641.658,687,645.658,683,641.658,687,650.658" style="stroke:#A80036;stroke-width:1.0;"/><!--MD5=[ea5cf5ece861ff4fd45a5d576f5bc955]
link usantatecla.utils.LimitedIntDialog to usantatecla.utils.models.ClosedInterval--><path codeLine="77" d="M115,468.542 C115,468.542 115,587.105 115,637.768 " fill="none" id="usantatecla.utils.LimitedIntDialog-usantatecla.utils.models.ClosedInterval" style="stroke:#A80036;stroke-width:1.0;"/><polygon fill="#A80036" points="115,650.896,119,641.896,115,645.896,111,641.896,115,650.896" style="stroke:#A80036;stroke-width:1.0;"/><line style="stroke:#A80036;stroke-width:1.0;" x1="115" x2="115" y1="645.896" y2="637.896"/><polygon fill="#A80036" points="115,456.542,111,462.542,115,468.542,119,462.542,115,456.542" style="stroke:#A80036;stroke-width:1.0;"/><!--MD5=[9ea9fdac8877b2914dbfaebea76eb772]
link usantatecla.utils.LimitedIntDialog to usantatecla.utils.views.Console--><path codeLine="78" d="M147.09,456.542 C171.961,494.164 207.405,547.78 239.064,595.671 " fill="none" id="usantatecla.utils.LimitedIntDialog-to-usantatecla.utils.views.Console" style="stroke:#A80036;stroke-width:1.0;stroke-dasharray:7.0,7.0;"/><polygon fill="#A80036" points="241.92,599.991,240.2928,590.2775,239.1623,595.8202,233.6196,594.6897,241.92,599.991" style="stroke:#A80036;stroke-width:1.0;"/><!--MD5=[cddedadb31d71f7b6d8b58208518f687]
reverse link usantatecla.utils.models.Coordinate to usantatecla.utils.models.NullCoordinate--><path codeLine="92" d="M722.182,171.217 C743.462,215.502 770.716,272.219 793.105,318.814 " fill="none" id="usantatecla.utils.models.Coordinate-backto-usantatecla.utils.models.NullCoordinate" style="stroke:#A80036;stroke-width:1.0;stroke-dasharray:7.0,7.0;"/><polygon fill="none" points="715.812,174.123,713.459,153.064,728.431,168.059,715.812,174.123" style="stroke:#A80036;stroke-width:1.0;"/><!--MD5=[f4a3ffee0d70fd4bf2493c212343a6d3]
link usantatecla.utils.models.NullCoordinate to usantatecla.utils.models.Direction--><path codeLine="93" d="M791.595,495.396 C767.483,543.947 738.11,603.09 716.637,646.326 " fill="none" id="usantatecla.utils.models.NullCoordinate-to-usantatecla.utils.models.Direction" style="stroke:#A80036;stroke-width:1.0;stroke-dasharray:7.0,7.0;"/><polygon fill="#A80036" points="714.322,650.987,721.9078,644.7056,716.5461,646.5089,714.7428,641.1471,714.322,650.987" style="stroke:#A80036;stroke-width:1.0;"/><!--MD5=[bef9209ee563bd0cab945b38e8120dbd]
link usantatecla.utils.views.YesNoDialog to usantatecla.utils.views.Console--><path codeLine="106" d="M312,488.643 C312,521.255 312,559.444 312,594.637 " fill="none" id="usantatecla.utils.YesNoDialog-to-usantatecla.utils.views.Console" style="stroke:#A80036;stroke-width:1.0;stroke-dasharray:7.0,7.0;"/><polygon fill="#A80036" points="312,599.806,316,590.806,312,594.806,308,590.806,312,599.806" style="stroke:#A80036;stroke-width:1.0;"/><!--MD5=[d767cc44ca5799c1cf9147cf3a9e5e25]
@startuml
class BufferedReader as "java.io.BufferedReader"{}

class  usantatecla.utils.models.ClosedInterval{
  - min: int
  - max: int
  + ClosedInterval(int,int)
  + isIncluded(int): boolean
  + toString(): String
}

class usantatecla.utils.models.ConcreteCoordinate{
  # row: int
  # column: int
  - {static} ROW: String
  - {static} COLUMN: String
  # ConcreteCoordinate()
  # ConcreteCoordinate(int,int)
  + isNull(): boolean
  + getDirection(Coordinate): Direction
  + inHorizontal(Coordinate): boolean
  + inVertical(Coordinate): boolean
  + inMainDiagonal(): boolean
  # read(String)
  + getRow(): int
  + getColumn(): int
  + hashCode(): int
  + equals(Object): boolean
  + toString(): String
}

usantatecla.utils.models.Coordinate <|..down- usantatecla.utils.models.ConcreteCoordinate
usantatecla.utils.models.ConcreteCoordinate ..> usantatecla.utils.models.Direction
usantatecla.utils.models.ConcreteCoordinate ..> usantatecla.utils.views.Console


class usantatecla.utils.views.Console{
  - {static} console: Console
  + {static} instance(): Console
  - readString(String): String
  + readString(): String
  + readInt(String): int
  ~ readChar(String): char
  + writeln()
  + write(String)
  + write(int)
  + writeln(String)
  + writeln(int)
  + write(char)
  - writeError(String)
}
usantatecla.utils.views.Console *-down-> BufferedReader

interface usantatecla.utils.models.Coordinate{
  ~ isNull(): boolean
  ~ getDirection(Coordinate): Direction
  ~ inHorizontal(Coordinate): boolean
  ~ inVertical(Coordinate): boolean
  ~ inMainDiagonal(): boolean
}
usantatecla.utils.models.Coordinate ..> usantatecla.utils.models.Direction

enum usantatecla.utils.models.Direction{
  VERTICAL
  HORIZONTAL
  MAIN_DIAGONAL
  INVERSE_DIAGONAL
  NULL
}

class usantatecla.utils.LimitedIntDialog{
  - LIMITS: ClosedInterval
  - {static} ERROR_MESSAGE: String
  + LimitedIntDialog(int,int)
  + read(String): int
}

usantatecla.utils.LimitedIntDialog *-down-> usantatecla.utils.models.ClosedInterval
usantatecla.utils.LimitedIntDialog ..> usantatecla.utils.views.Console

class usantatecla.utils.models.NullCoordinate{
  - {static} instance: NullCoordinate
  + {static} instance(): Coordinate
  + isNull(): boolean
  + getDirection(Coordinate): Direction
  + inHorizontal(Coordinate): boolean
  + inVertical(Coordinate): boolean
  + inMainDiagonal(): boolean
  + hashCode(): int
  + equals(Object): boolean
  + toString(): String
}
usantatecla.utils.models.Coordinate <|..down- usantatecla.utils.models.NullCoordinate
usantatecla.utils.models.NullCoordinate ..> usantatecla.utils.models.Direction

class usantatecla.utils.views.YesNoDialog{
  - {static} AFIRMATIVE: char
  - {static} NEGATIVE: char
  - {static} SUFFIX: String
  - {static} MESSAGE: String
  - answer: char
  + read(String): boolean
  - isAffirmative(): boolean
  - getAnswer(): char
  - isNegative(): boolean
}
usantatecla.utils.views.YesNoDialog ..> usantatecla.utils.views.Console
@enduml

PlantUML version 1.2020.23beta3(Unknown compile time)
(GPL source distribution)
Java Runtime: Java(TM) SE Runtime Environment
JVM: Java HotSpot(TM) 64-Bit Server VM
Default Encoding: UTF-8
Language: en
Country: US
--></g></svg>