<?xml version="1.0" encoding="UTF-8" standalone="no"?><svg xmlns="http://www.w3.org/2000/svg" xmlns:xlink="http://www.w3.org/1999/xlink" contentScriptType="application/ecmascript" contentStyleType="text/css" height="268px" preserveAspectRatio="none" style="width:326px;height:268px;" version="1.1" viewBox="0 0 326 268" width="326px" zoomAndPan="magnify"><defs><filter height="300%" id="fgft0l9lq3oqb" width="300%" x="-1" y="-1"><feGaussianBlur result="blurOut" stdDeviation="2.0"/><feColorMatrix in="blurOut" result="blurOut2" type="matrix" values="0 0 0 0 0 0 0 0 0 0 0 0 0 0 0 0 0 0 .4 0"/><feOffset dx="4.0" dy="4.0" in="blurOut2" result="blurOut3"/><feBlend in="SourceGraphic" in2="blurOut3" mode="normal"/></filter></defs><g><!--MD5=[b59da53bc4cb019b9115ab51e8207bb0]
cluster usantatecla.tictactoe--><polygon fill="#FFFFFF" filter="url(#fgft0l9lq3oqb)" points="62.5,6,247.5,6,254.5,28.2969,257.5,28.2969,257.5,143,62.5,143,62.5,6" style="stroke:#000000;stroke-width:1.5;"/><line style="stroke:#000000;stroke-width:1.5;" x1="62.5" x2="254.5" y1="28.2969" y2="28.2969"/><text fill="#000000" font-family="sans-serif" font-size="14" font-weight="bold" lengthAdjust="spacingAndGlyphs" textLength="179" x="66.5" y="20.9951">usantatecla.tictactoe</text><!--MD5=[4b5d579ecc4748d1b21f2fd6d497d353]
class usantatecla.tictactoe.TicTacToe--><rect codeLine="4" fill="#FEFECE" filter="url(#fgft0l9lq3oqb)" height="86.4141" id="usantatecla.tictactoe.TicTacToe" style="stroke:#A80036;stroke-width:1.5;" width="103" x="108" y="41"/><ellipse cx="127.5" cy="57" fill="#ADD1B2" rx="11" ry="11" style="stroke:#A80036;stroke-width:1.0;"/><path d="M129.8438,52.6719 C128.9063,52.2344 128.3125,52.0938 127.4375,52.0938 C124.8125,52.0938 122.8125,54.1719 122.8125,56.8906 L122.8125,58.0156 C122.8125,60.5938 124.9219,62.4844 127.8125,62.4844 C129.0313,62.4844 130.1875,62.1875 130.9375,61.6406 C131.5156,61.2344 131.8438,60.7813 131.8438,60.3906 C131.8438,59.9375 131.4531,59.5469 130.9844,59.5469 C130.7656,59.5469 130.5625,59.625 130.375,59.8125 C129.9219,60.2969 129.9219,60.2969 129.7344,60.3906 C129.3125,60.6563 128.625,60.7813 127.8594,60.7813 C125.8125,60.7813 124.5156,59.6875 124.5156,57.9844 L124.5156,56.8906 C124.5156,55.1094 125.7656,53.7969 127.5,53.7969 C128.0781,53.7969 128.6875,53.9531 129.1563,54.2031 C129.6406,54.4844 129.8125,54.7031 129.9063,55.1094 C129.9688,55.5156 130,55.6406 130.1406,55.7656 C130.2813,55.9063 130.5156,56.0156 130.7344,56.0156 C131,56.0156 131.2656,55.875 131.4375,55.6563 C131.5469,55.5 131.5781,55.3125 131.5781,54.8906 L131.5781,53.4688 C131.5781,53.0313 131.5625,52.9063 131.4688,52.75 C131.3125,52.4844 131.0313,52.3438 130.7344,52.3438 C130.4375,52.3438 130.2344,52.4375 130.0156,52.75 L129.8438,52.6719 Z " fill="#000000"/><text fill="#000000" font-family="sans-serif" font-size="12" lengthAdjust="spacingAndGlyphs" textLength="61" x="142.5" y="61.1543">TicTacToe</text><line style="stroke:#A80036;stroke-width:1.5;" x1="109" x2="210" y1="73" y2="73"/><line style="stroke:#A80036;stroke-width:1.5;" x1="109" x2="210" y1="81" y2="81"/><polygon fill="#4177AF" points="119,88,115,94,123,94" style="stroke:#1963A0;stroke-width:1.0;"/><text fill="#000000" font-family="sans-serif" font-size="11" lengthAdjust="spacingAndGlyphs" textLength="66" x="128" y="95.2104">TicTacToe()</text><rect fill="#F24D5C" height="6" style="stroke:#C82930;stroke-width:1.0;" width="6" x="116" y="101.8047"/><text fill="#000000" font-family="sans-serif" font-size="11" lengthAdjust="spacingAndGlyphs" textLength="32" x="128" y="108.0151">play()</text><ellipse cx="119" cy="117.6094" fill="#84BE84" rx="3" ry="3" style="stroke:#038048;stroke-width:1.0;"/><text fill="#000000" font-family="sans-serif" font-size="11" lengthAdjust="spacingAndGlyphs" textLength="77" x="128" y="120.8198">main(String[])</text><!--MD5=[b6dcce5e5ef3c84b0b048d11301373dd]
class Game--><rect codeLine="1" fill="#FEFECE" filter="url(#fgft0l9lq3oqb)" height="67.9063" id="Game" style="stroke:#A80036;stroke-width:1.5;" width="135" x="7" y="187"/><ellipse cx="22" cy="212.9531" fill="#ADD1B2" rx="11" ry="11" style="stroke:#A80036;stroke-width:1.0;"/><path d="M24.3438,208.625 C23.4063,208.1875 22.8125,208.0469 21.9375,208.0469 C19.3125,208.0469 17.3125,210.125 17.3125,212.8438 L17.3125,213.9688 C17.3125,216.5469 19.4219,218.4375 22.3125,218.4375 C23.5313,218.4375 24.6875,218.1406 25.4375,217.5938 C26.0156,217.1875 26.3438,216.7344 26.3438,216.3438 C26.3438,215.8906 25.9531,215.5 25.4844,215.5 C25.2656,215.5 25.0625,215.5781 24.875,215.7656 C24.4219,216.25 24.4219,216.25 24.2344,216.3438 C23.8125,216.6094 23.125,216.7344 22.3594,216.7344 C20.3125,216.7344 19.0156,215.6406 19.0156,213.9375 L19.0156,212.8438 C19.0156,211.0625 20.2656,209.75 22,209.75 C22.5781,209.75 23.1875,209.9063 23.6563,210.1563 C24.1406,210.4375 24.3125,210.6563 24.4063,211.0625 C24.4688,211.4688 24.5,211.5938 24.6406,211.7188 C24.7813,211.8594 25.0156,211.9688 25.2344,211.9688 C25.5,211.9688 25.7656,211.8281 25.9375,211.6094 C26.0469,211.4531 26.0781,211.2656 26.0781,210.8438 L26.0781,209.4219 C26.0781,208.9844 26.0625,208.8594 25.9688,208.7031 C25.8125,208.4375 25.5313,208.2969 25.2344,208.2969 C24.9375,208.2969 24.7344,208.3906 24.5156,208.7031 L24.3438,208.625 Z " fill="#000000"/><text fill="#000000" font-family="sans-serif" font-size="12" lengthAdjust="spacingAndGlyphs" textLength="71" x="52" y="203.1387">usantatecla.</text><text fill="#000000" font-family="sans-serif" font-size="12" lengthAdjust="spacingAndGlyphs" textLength="103" x="36" y="217.1074">tictactoe.models.</text><text fill="#000000" font-family="sans-serif" font-size="12" lengthAdjust="spacingAndGlyphs" textLength="35" x="70" y="231.0762">Game</text><line style="stroke:#A80036;stroke-width:1.5;" x1="8" x2="141" y1="238.9063" y2="238.9063"/><line style="stroke:#A80036;stroke-width:1.5;" x1="8" x2="141" y1="246.9063" y2="246.9063"/><!--MD5=[c045e12321b83266d36d22b9096c24ea]
class View--><rect codeLine="2" fill="#FEFECE" filter="url(#fgft0l9lq3oqb)" height="67.9063" id="View" style="stroke:#A80036;stroke-width:1.5;" width="135" x="177" y="187"/><ellipse cx="192" cy="212.9531" fill="#ADD1B2" rx="11" ry="11" style="stroke:#A80036;stroke-width:1.0;"/><path d="M194.3438,208.625 C193.4063,208.1875 192.8125,208.0469 191.9375,208.0469 C189.3125,208.0469 187.3125,210.125 187.3125,212.8438 L187.3125,213.9688 C187.3125,216.5469 189.4219,218.4375 192.3125,218.4375 C193.5313,218.4375 194.6875,218.1406 195.4375,217.5938 C196.0156,217.1875 196.3438,216.7344 196.3438,216.3438 C196.3438,215.8906 195.9531,215.5 195.4844,215.5 C195.2656,215.5 195.0625,215.5781 194.875,215.7656 C194.4219,216.25 194.4219,216.25 194.2344,216.3438 C193.8125,216.6094 193.125,216.7344 192.3594,216.7344 C190.3125,216.7344 189.0156,215.6406 189.0156,213.9375 L189.0156,212.8438 C189.0156,211.0625 190.2656,209.75 192,209.75 C192.5781,209.75 193.1875,209.9063 193.6563,210.1563 C194.1406,210.4375 194.3125,210.6563 194.4063,211.0625 C194.4688,211.4688 194.5,211.5938 194.6406,211.7188 C194.7813,211.8594 195.0156,211.9688 195.2344,211.9688 C195.5,211.9688 195.7656,211.8281 195.9375,211.6094 C196.0469,211.4531 196.0781,211.2656 196.0781,210.8438 L196.0781,209.4219 C196.0781,208.9844 196.0625,208.8594 195.9688,208.7031 C195.8125,208.4375 195.5313,208.2969 195.2344,208.2969 C194.9375,208.2969 194.7344,208.3906 194.5156,208.7031 L194.3438,208.625 Z " fill="#000000"/><text fill="#000000" font-family="sans-serif" font-size="12" lengthAdjust="spacingAndGlyphs" textLength="71" x="222" y="203.1387">usantatecla.</text><text fill="#000000" font-family="sans-serif" font-size="12" lengthAdjust="spacingAndGlyphs" textLength="103" x="206" y="217.1074">tictactoe.models.</text><text fill="#000000" font-family="sans-serif" font-size="12" lengthAdjust="spacingAndGlyphs" textLength="29" x="243" y="231.0762">View</text><line style="stroke:#A80036;stroke-width:1.5;" x1="178" x2="311" y1="238.9063" y2="238.9063"/><line style="stroke:#A80036;stroke-width:1.5;" x1="178" x2="311" y1="246.9063" y2="246.9063"/><!--MD5=[f8bc889fc5f5eef7d73d6b7785e62600]
link usantatecla.tictactoe.TicTacToe to Game--><path codeLine="9" d="M126.4444,137.4983 C126.4444,137.4983 109.87,163.8237 102.3584,175.7543 " fill="none" id="usantatecla.tictactoe.TicTacToe-Game" style="stroke:#A80036;stroke-width:1.0;"/><polygon fill="#A80036" points="95.4056,186.797,103.5859,181.3122,98.0697,182.5658,96.816,177.0497,95.4056,186.797" style="stroke:#A80036;stroke-width:1.0;"/><line style="stroke:#A80036;stroke-width:1.0;" x1="98.0697" x2="102.3322" y1="182.5658" y2="175.7959"/><polygon fill="#A80036" points="132.839,127.344,126.257,130.2896,126.4444,137.4983,133.0265,134.5527,132.839,127.344" style="stroke:#A80036;stroke-width:1.0;"/><!--MD5=[3f3b08302a73e15001fc302f837e77af]
link usantatecla.tictactoe.TicTacToe to View--><path codeLine="10" d="M192.5556,137.4983 C192.5556,137.4983 209.13,163.8237 216.642,175.7543 " fill="none" id="usantatecla.tictactoe.TicTacToe-View" style="stroke:#A80036;stroke-width:1.0;"/><polygon fill="#A80036" points="223.594,186.797,222.1838,177.0496,220.93,182.5658,215.4138,181.312,223.594,186.797" style="stroke:#A80036;stroke-width:1.0;"/><line style="stroke:#A80036;stroke-width:1.0;" x1="220.93" x2="216.6675" y1="182.5658" y2="175.7959"/><polygon fill="#A80036" points="186.161,127.344,185.9735,134.5527,192.5556,137.4983,192.743,130.2896,186.161,127.344" style="stroke:#A80036;stroke-width:1.0;"/><!--MD5=[9edd4a34550b7d6c99a4fe62e068ee4b]
@startuml
class Game as "usantatecla.\ntictactoe.models.\nGame"
class View as "usantatecla.\ntictactoe.models.\nView"

class  usantatecla.tictactoe.TicTacToe{
  ~ TicTacToe()
  - play()
  + main(String[])
}
usantatecla.tictactoe.TicTacToe *-down-> Game
usantatecla.tictactoe.TicTacToe *-down-> View
@enduml

PlantUML version 1.2020.23beta3(Unknown compile time)
(GPL source distribution)
Java Runtime: Java(TM) SE Runtime Environment
JVM: Java HotSpot(TM) 64-Bit Server VM
Default Encoding: UTF-8
Language: en
Country: US
--></g></svg>