<?xml version="1.0" encoding="UTF-8" standalone="no"?><svg xmlns="http://www.w3.org/2000/svg" xmlns:xlink="http://www.w3.org/1999/xlink" contentScriptType="application/ecmascript" contentStyleType="text/css" height="159px" preserveAspectRatio="none" style="width:2129px;height:159px;" version="1.1" viewBox="0 0 2129 159" width="2129px" zoomAndPan="magnify"><defs><filter height="300%" id="f2xftiojm2q8h" width="300%" x="-1" y="-1"><feGaussianBlur result="blurOut" stdDeviation="2.0"/><feColorMatrix in="blurOut" result="blurOut2" type="matrix" values="0 0 0 0 0 0 0 0 0 0 0 0 0 0 0 0 0 0 .4 0"/><feOffset dx="4.0" dy="4.0" in="blurOut2" result="blurOut3"/><feBlend in="SourceGraphic" in2="blurOut3" mode="normal"/></filter></defs><g><!--MD5=[483b12a8a4a1981ac5430bdda5fd5916]
entity tictactoe--><polygon fill="#FFFFFF" filter="url(#f2xftiojm2q8h)" points="16,113,98,113,105,135.2969,122,135.2969,122,152.2969,16,152.2969,16,113" style="stroke:#000000;stroke-width:1.5;"/><line style="stroke:#000000;stroke-width:1.5;" x1="16" x2="105" y1="135.2969" y2="135.2969"/><text fill="#000000" font-family="sans-serif" font-size="14" font-weight="bold" lengthAdjust="spacingAndGlyphs" textLength="76" x="20" y="128.9951">tictactoe</text><!--MD5=[21ee9191f94b37e164ce8850dd375de6]
entity tictactoe.models--><polygon fill="#FFFFFF" filter="url(#f2xftiojm2q8h)" points="157.5,113,302.5,113,309.5,135.2969,326.5,135.2969,326.5,152.2969,157.5,152.2969,157.5,113" style="stroke:#000000;stroke-width:1.5;"/><line style="stroke:#000000;stroke-width:1.5;" x1="157.5" x2="309.5" y1="135.2969" y2="135.2969"/><text fill="#000000" font-family="sans-serif" font-size="14" font-weight="bold" lengthAdjust="spacingAndGlyphs" textLength="139" x="161.5" y="128.9951">tictactoe.models</text><!--MD5=[d35223fd8f7d7c99496ee8d9b067ffdf]
entity tictactoe.controllers--><polygon fill="#FFFFFF" filter="url(#f2xftiojm2q8h)" points="362,113,538,113,545,135.2969,562,135.2969,562,152.2969,362,152.2969,362,113" style="stroke:#000000;stroke-width:1.5;"/><line style="stroke:#000000;stroke-width:1.5;" x1="362" x2="545" y1="135.2969" y2="135.2969"/><text fill="#000000" font-family="sans-serif" font-size="14" font-weight="bold" lengthAdjust="spacingAndGlyphs" textLength="170" x="366" y="128.9951">tictactoe.controllers</text><!--MD5=[170e9aa8a7c5483a45070c603c759464]
entity tictactoe.views--><polygon fill="#FFFFFF" filter="url(#f2xftiojm2q8h)" points="597,113,729,113,736,135.2969,753,135.2969,753,152.2969,597,152.2969,597,113" style="stroke:#000000;stroke-width:1.5;"/><line style="stroke:#000000;stroke-width:1.5;" x1="597" x2="736" y1="135.2969" y2="135.2969"/><text fill="#000000" font-family="sans-serif" font-size="14" font-weight="bold" lengthAdjust="spacingAndGlyphs" textLength="126" x="601" y="128.9951">tictactoe.views</text><!--MD5=[24db386dca859e5b235897d0a3aa8c72]
entity tictactoe.views.console--><polygon fill="#FFFFFF" filter="url(#f2xftiojm2q8h)" points="788.5,113,987.5,113,994.5,135.2969,1011.5,135.2969,1011.5,152.2969,788.5,152.2969,788.5,113" style="stroke:#000000;stroke-width:1.5;"/><line style="stroke:#000000;stroke-width:1.5;" x1="788.5" x2="994.5" y1="135.2969" y2="135.2969"/><text fill="#000000" font-family="sans-serif" font-size="14" font-weight="bold" lengthAdjust="spacingAndGlyphs" textLength="193" x="792.5" y="128.9951">tictactoe.views.console</text><!--MD5=[af2691941f33ba1a7826daed975acade]
entity tictactoe.views.graphics--><polygon fill="#FFFFFF" filter="url(#f2xftiojm2q8h)" points="1046.5,113,1253.5,113,1260.5,135.2969,1277.5,135.2969,1277.5,152.2969,1046.5,152.2969,1046.5,113" style="stroke:#000000;stroke-width:1.5;"/><line style="stroke:#000000;stroke-width:1.5;" x1="1046.5" x2="1260.5" y1="135.2969" y2="135.2969"/><text fill="#000000" font-family="sans-serif" font-size="14" font-weight="bold" lengthAdjust="spacingAndGlyphs" textLength="201" x="1050.5" y="128.9951">tictactoe.views.graphics</text><!--MD5=[815e17c207bbf712f7f26918c1feb6f8]
entity utils--><polygon fill="#FFFFFF" filter="url(#f2xftiojm2q8h)" points="1312.5,113,1355.5,113,1362.5,135.2969,1379.5,135.2969,1379.5,152.2969,1312.5,152.2969,1312.5,113" style="stroke:#000000;stroke-width:1.5;"/><line style="stroke:#000000;stroke-width:1.5;" x1="1312.5" x2="1362.5" y1="135.2969" y2="135.2969"/><text fill="#000000" font-family="sans-serif" font-size="14" font-weight="bold" lengthAdjust="spacingAndGlyphs" textLength="37" x="1316.5" y="128.9951">utils</text><!--MD5=[48fa9072fd51d9920e6db8484beec696]
entity java.io--><polygon fill="#FFFFFF" filter="url(#f2xftiojm2q8h)" points="1415,113,1475,113,1482,135.2969,1499,135.2969,1499,152.2969,1415,152.2969,1415,113" style="stroke:#000000;stroke-width:1.5;"/><line style="stroke:#000000;stroke-width:1.5;" x1="1415" x2="1482" y1="135.2969" y2="135.2969"/><text fill="#000000" font-family="sans-serif" font-size="14" font-weight="bold" lengthAdjust="spacingAndGlyphs" textLength="54" x="1419" y="128.9951">java.io</text><!--MD5=[034f0f7ed136bf78fc117f7e41f76e93]
entity java.util--><polygon fill="#FFFFFF" filter="url(#f2xftiojm2q8h)" points="1534.5,113,1607.5,113,1614.5,135.2969,1631.5,135.2969,1631.5,152.2969,1534.5,152.2969,1534.5,113" style="stroke:#000000;stroke-width:1.5;"/><line style="stroke:#000000;stroke-width:1.5;" x1="1534.5" x2="1614.5" y1="135.2969" y2="135.2969"/><text fill="#000000" font-family="sans-serif" font-size="14" font-weight="bold" lengthAdjust="spacingAndGlyphs" textLength="67" x="1538.5" y="128.9951">java.util</text><!--MD5=[cee830b0dacb2a92fd7272b0f6421cad]
entity java.awt--><polygon fill="#FFFFFF" filter="url(#f2xftiojm2q8h)" points="1667,113,1743,113,1750,135.2969,1767,135.2969,1767,152.2969,1667,152.2969,1667,113" style="stroke:#000000;stroke-width:1.5;"/><line style="stroke:#000000;stroke-width:1.5;" x1="1667" x2="1750" y1="135.2969" y2="135.2969"/><text fill="#000000" font-family="sans-serif" font-size="14" font-weight="bold" lengthAdjust="spacingAndGlyphs" textLength="70" x="1671" y="128.9951">java.awt</text><!--MD5=[518d1bd3a278ae5fa44dea63a13588cc]
entity java.awt.event--><polygon fill="#FFFFFF" filter="url(#f2xftiojm2q8h)" points="1802,113,1928,113,1935,135.2969,1952,135.2969,1952,152.2969,1802,152.2969,1802,113" style="stroke:#000000;stroke-width:1.5;"/><line style="stroke:#000000;stroke-width:1.5;" x1="1802" x2="1935" y1="135.2969" y2="135.2969"/><text fill="#000000" font-family="sans-serif" font-size="14" font-weight="bold" lengthAdjust="spacingAndGlyphs" textLength="120" x="1806" y="128.9951">java.awt.event</text><!--MD5=[5cd50222042deac7751bbdb096247501]
entity javax.swing--><polygon fill="#FFFFFF" filter="url(#f2xftiojm2q8h)" points="1987.5,113,2088.5,113,2095.5,135.2969,2112.5,135.2969,2112.5,152.2969,1987.5,152.2969,1987.5,113" style="stroke:#000000;stroke-width:1.5;"/><line style="stroke:#000000;stroke-width:1.5;" x1="1987.5" x2="2095.5" y1="135.2969" y2="135.2969"/><text fill="#000000" font-family="sans-serif" font-size="14" font-weight="bold" lengthAdjust="spacingAndGlyphs" textLength="95" x="1991.5" y="128.9951">javax.swing</text><!--MD5=[c2796faf4134bd8b5f3bc71f44d02e74]
entity jar--><rect fill="#FEFECE" filter="url(#f2xftiojm2q8h)" height="46.2969" style="stroke:#A80036;stroke-width:1.5;" width="130" x="1189" y="7"/><rect fill="#FEFECE" height="10" style="stroke:#A80036;stroke-width:1.5;" width="15" x="1299" y="12"/><rect fill="#FEFECE" height="2" style="stroke:#A80036;stroke-width:1.5;" width="4" x="1297" y="14"/><rect fill="#FEFECE" height="2" style="stroke:#A80036;stroke-width:1.5;" width="4" x="1297" y="18"/><text fill="#000000" font-family="sans-serif" font-size="14" lengthAdjust="spacingAndGlyphs" textLength="90" x="1204" y="39.9951">tictactoe.jar</text><!--MD5=[db071693898cb010136cdcd0ecfb308f]
link jar to tictactoe--><path d="M1176.8416,31.8778 C1176.8416,31.8778 524.96,49.221 140,113 C138.374,113.2694 136.731,113.5587 135.077,113.8654 " fill="none" id="jar-tictactoe" style="stroke:#A80036;stroke-width:1.0;"/><polygon fill="#A80036" points="122.277,116.5107,131.9004,118.6062,127.1735,115.4986,130.281,110.7718,122.277,116.5107" style="stroke:#A80036;stroke-width:1.0;"/><line style="stroke:#A80036;stroke-width:1.0;" x1="127.1735" x2="135.008" y1="115.4986" y2="113.8798"/><polygon fill="#A80036" points="1188.84,31.68,1182.7749,27.7794,1176.8416,31.8778,1182.9067,35.7784,1188.84,31.68" style="stroke:#A80036;stroke-width:1.0;"/><!--MD5=[6b3133dd7dabc2019ad83d1281580956]
link jar to tictactoe.models--><path d="M1176.9736,35.6057 C1176.9736,35.6057 650.432,71.4894 344,113 C342.484,113.2054 340.956,113.4175 339.419,113.6357 " fill="none" id="jar-tictactoe.models" style="stroke:#A80036;stroke-width:1.0;"/><polygon fill="#A80036" points="326.509,115.5706,336.0025,118.1922,331.4538,114.8294,334.8166,110.2806,326.509,115.5706" style="stroke:#A80036;stroke-width:1.0;"/><line style="stroke:#A80036;stroke-width:1.0;" x1="331.4538" x2="339.3655" y1="114.8294" y2="113.6437"/><polygon fill="#A80036" points="1188.95,34.854,1182.7112,31.2377,1176.9736,35.6057,1183.2123,39.222,1188.95,34.854" style="stroke:#A80036;stroke-width:1.0;"/><!--MD5=[a80195ddb4f09d1000c65393133bbdfd]
link jar to tictactoe.controllers--><path d="M1176.8141,39.4707 C1176.8141,39.4707 794.453,82.8895 579,113 C577.711,113.1801 576.415,113.3626 575.111,113.5473 " fill="none" id="jar-tictactoe.controllers" style="stroke:#A80036;stroke-width:1.0;"/><polygon fill="#A80036" points="562.169,115.4188,571.649,118.0889,567.1175,114.7029,570.5035,110.1713,562.169,115.4188" style="stroke:#A80036;stroke-width:1.0;"/><line style="stroke:#A80036;stroke-width:1.0;" x1="567.1175" x2="575.0355" y1="114.7029" y2="113.5583"/><polygon fill="#A80036" points="1188.74,38.139,1182.3332,34.8296,1176.8141,39.4707,1183.221,42.7801,1188.74,38.139" style="stroke:#A80036;stroke-width:1.0;"/><!--MD5=[c97a190b1fd883cd6d17f82504278168]
link jar to tictactoe.views--><path d="M1176.8476,43.5544 C1176.8476,43.5544 913.478,87.1806 771,113 C769.356,113.2979 767.696,113.6003 766.025,113.9063 " fill="none" id="jar-tictactoe.views" style="stroke:#A80036;stroke-width:1.0;"/><polygon fill="#A80036" points="753.038,116.3112,762.6161,118.6045,757.9543,115.4002,761.1586,110.7384,753.038,116.3112" style="stroke:#A80036;stroke-width:1.0;"/><line style="stroke:#A80036;stroke-width:1.0;" x1="757.9543" x2="765.821" y1="115.4002" y2="113.9441"/><polygon fill="#A80036" points="1188.69,41.616,1182.1227,38.6377,1176.8476,43.5544,1183.4149,46.5326,1188.69,41.616" style="stroke:#A80036;stroke-width:1.0;"/><!--MD5=[f1530ed960fc683699116a1240ff9d77]
link jar to tictactoe.views.console--><path d="M1177.1179,52.8331 C1177.1179,52.8331 1036.68,92.6974 977.845,109.4 " fill="none" id="jar-tictactoe.views.console" style="stroke:#A80036;stroke-width:1.0;"/><polygon fill="#A80036" points="965.26,112.9729,975.0102,114.3632,970.07,111.6075,972.8256,106.6672,965.26,112.9729" style="stroke:#A80036;stroke-width:1.0;"/><line style="stroke:#A80036;stroke-width:1.0;" x1="970.07" x2="977.7655" y1="111.6075" y2="109.4225"/><polygon fill="#A80036" points="1188.66,49.55,1181.7946,47.3442,1177.1179,52.8331,1183.9833,55.0389,1188.66,49.55" style="stroke:#A80036;stroke-width:1.0;"/><!--MD5=[ce1a0edc1bf4393e7cbd7df974f6190c]
link jar to tictactoe.views.graphics--><path d="M1225.4758,62.1541 C1225.4758,62.1541 1199.4,90.6394 1187.99,103.1037 " fill="none" id="jar-tictactoe.views.graphics" style="stroke:#A80036;stroke-width:1.0;"/><polygon fill="#A80036" points="1178.97,112.9606,1187.9952,109.0178,1182.344,109.2706,1182.0912,103.6194,1178.97,112.9606" style="stroke:#A80036;stroke-width:1.0;"/><line style="stroke:#A80036;stroke-width:1.0;" x1="1182.344" x2="1187.75" y1="109.2706" y2="103.3716"/><polygon fill="#A80036" points="1233.58,53.3042,1226.5779,55.0278,1225.4758,62.1541,1232.4779,60.4306,1233.58,53.3042" style="stroke:#A80036;stroke-width:1.0;"/><!--MD5=[2b24531f65345f8226c8757364dc2f7a]
link jar to utils--><path d="M1282.5242,62.1541 C1282.5242,62.1541 1308.6,90.6394 1320.01,103.1037 " fill="none" id="jar-utils" style="stroke:#A80036;stroke-width:1.0;"/><polygon fill="#A80036" points="1329.03,112.9606,1325.9088,103.6194,1325.656,109.2706,1320.0048,109.0178,1329.03,112.9606" style="stroke:#A80036;stroke-width:1.0;"/><line style="stroke:#A80036;stroke-width:1.0;" x1="1325.656" x2="1320.25" y1="109.2706" y2="103.3716"/><polygon fill="#A80036" points="1274.42,53.3042,1275.5221,60.4306,1282.5242,62.1541,1281.4221,55.0278,1274.42,53.3042" style="stroke:#A80036;stroke-width:1.0;"/><!--MD5=[f17a38c250a1605cd3da9b9fac2ef94b]
link jar to java.io--><path d="M1309.3029,58.382 C1309.3029,58.382 1378.03,92.4033 1407.33,106.9106 " fill="none" id="jar-java.io" style="stroke:#A80036;stroke-width:1.0;"/><polygon fill="#A80036" points="1419.37,112.868,1413.0735,105.2948,1414.8874,110.6529,1409.5293,112.4669,1419.37,112.868" style="stroke:#A80036;stroke-width:1.0;"/><line style="stroke:#A80036;stroke-width:1.0;" x1="1414.8874" x2="1407.715" y1="110.6529" y2="107.1002"/><polygon fill="#A80036" points="1298.55,53.0552,1302.1509,59.3029,1309.3029,58.382,1305.7021,52.1343,1298.55,53.0552" style="stroke:#A80036;stroke-width:1.0;"/><!--MD5=[a929e6d2b54380e4c3e4c2b17ce7cd9b]
link jar to java.util--><path d="M1330.866,54.4835 C1330.866,54.4835 1468,96.3702 1521.57,112.7364 " fill="none" id="jar-java.util" style="stroke:#A80036;stroke-width:1.0;"/><polygon fill="#A80036" points="1534.3,116.6248,1526.8622,110.1688,1529.5184,115.1633,1524.5239,117.8195,1534.3,116.6248" style="stroke:#A80036;stroke-width:1.0;"/><line style="stroke:#A80036;stroke-width:1.0;" x1="1529.5184" x2="1521.87" y1="115.1633" y2="112.8269"/><polygon fill="#A80036" points="1319.39,50.976,1323.9588,56.555,1330.866,54.4835,1326.2971,48.9044,1319.39,50.976" style="stroke:#A80036;stroke-width:1.0;"/><!--MD5=[5c3a1a3f46264e9db3e30d7bbbf0baac]
link jar to java.awt--><path d="M1331.0537,45.5534 C1331.0537,45.5534 1539.64,86.7983 1649,113 C1650.73,113.4147 1652.48,113.842 1654.25,114.2791 " fill="none" id="jar-java.awt" style="stroke:#A80036;stroke-width:1.0;"/><polygon fill="#A80036" points="1666.96,117.5137,1659.2283,111.4129,1662.1152,116.2776,1657.2505,119.1645,1666.96,117.5137" style="stroke:#A80036;stroke-width:1.0;"/><line style="stroke:#A80036;stroke-width:1.0;" x1="1662.1152" x2="1654.355" y1="116.2776" y2="114.3057"/><polygon fill="#A80036" points="1319.27,43.285,1324.4057,48.3471,1331.0537,45.5534,1325.918,40.4913,1319.27,43.285" style="stroke:#A80036;stroke-width:1.0;"/><!--MD5=[3b7f23bc43aaeafb3da1fe03574e9b5d]
link jar to java.awt.event--><path d="M1331.0207,41.779 C1331.0207,41.779 1624.65,84.5112 1785,113 C1786.28,113.2271 1787.57,113.458 1788.86,113.6922 " fill="none" id="jar-java.awt.event" style="stroke:#A80036;stroke-width:1.0;"/><polygon fill="#A80036" points="1801.74,116.0783,1793.6206,110.5037,1796.8239,115.1663,1792.1614,118.3695,1801.74,116.0783" style="stroke:#A80036;stroke-width:1.0;"/><line style="stroke:#A80036;stroke-width:1.0;" x1="1796.8239" x2="1788.96" y1="115.1663" y2="113.7102"/><polygon fill="#A80036" points="1319.14,40.091,1324.5177,44.8952,1331.0207,41.779,1325.643,36.9748,1319.14,40.091" style="stroke:#A80036;stroke-width:1.0;"/><!--MD5=[d7db4d17f150ddbfee08d92ae5b03c8c]
link jar to javax.swing--><path d="M1330.9813,36.9267 C1330.9813,36.9267 1739.63,73.3037 1970,113 C1971.4,113.2421 1972.82,113.4935 1974.25,113.7531 " fill="none" id="jar-javax.swing" style="stroke:#A80036;stroke-width:1.0;"/><polygon fill="#A80036" points="1987.25,116.2819,1979.1808,110.6349,1982.3422,115.3259,1977.6512,118.4873,1987.25,116.2819" style="stroke:#A80036;stroke-width:1.0;"/><line style="stroke:#A80036;stroke-width:1.0;" x1="1982.3422" x2="1974.49" y1="115.3259" y2="113.7999"/><polygon fill="#A80036" points="1319.02,35.964,1324.6798,40.4325,1330.9813,36.9267,1325.3216,32.4582,1319.02,35.964" style="stroke:#A80036;stroke-width:1.0;"/><!--MD5=[869344f35081f90c74099e50e859caa8]
@startuml
package "  "  as tictactoe {
}
package "  "  as tictactoe.models {
}
package "  "  as tictactoe.controllers {
}
package "  "  as tictactoe.views {
}
package "  "  as tictactoe.views.console {
}
package "  "  as tictactoe.views.graphics {
}
package "  "  as utils {
}
package "  "  as java.io {
}
package "  "  as java.util {
}
package "  "  as java.awt {
}
package "  "  as java.awt.event {
}
package "  "  as javax.swing {
}

[tictactoe.jar] as jar

jar *- -> tictactoe
jar *- -> tictactoe.models
jar *- -> tictactoe.controllers
jar *- -> tictactoe.views
jar *- -> tictactoe.views.console
jar *- -> tictactoe.views.graphics
jar *- -> utils
jar *- -> java.io
jar *- -> java.util
jar *- -> java.awt
jar *- -> java.awt.event
jar *- -> javax.swing
@enduml

PlantUML version 1.2020.22(Sun Dec 06 09:36:27 UTC 2020)
(GPL source distribution)
Java Runtime: Java(TM) SE Runtime Environment
JVM: Java HotSpot(TM) 64-Bit Server VM
Default Encoding: UTF-8
Language: en
Country: US
--></g></svg>